<svg xmlns="http://www.w3.org/2000/svg" width="136" height="183" viewBox="0 0 136 183">
    <g fill="none" fill-rule="evenodd">
        <path fill="#EDC5A4" d="M107.346 107.637c-4.67 1.368-9.586-1.25-10.977-5.847-1.39-4.598 1.267-9.434 5.937-10.805l12.352-3.622c4.666-1.368 9.579 1.247 10.972 5.846 1.393 4.598-1.27 9.437-5.937 10.802l-12.347 3.626M107.346 126.636c-4.67 1.37-9.586-1.245-10.977-5.843-1.39-4.6 1.267-9.436 5.937-10.807l12.352-3.623c4.666-1.368 9.579 1.248 10.972 5.849 1.393 4.595-1.27 9.433-5.937 10.804l-12.347 3.62M107.346 148.637c-4.67 1.368-9.586-1.25-10.977-5.845-1.39-4.601 1.267-9.437 5.937-10.807l12.352-3.621c4.666-1.37 9.579 1.245 10.972 5.846 1.393 4.595-1.27 9.435-5.937 10.802l-12.347 3.625"/>
        <path fill="#714E46" d="M93.404 134.05c0 6.352 12.596 7.798 12.596 17.797 0 0-21.59 27.153-94.497 27.153C5.45 179 0 173.848 0 167.492v-44.983C0 116.152 5.152 111 11.503 111h55.61c6.353 0 11.502 5.153 11.502 11.51l14.79 11.54"/>
        <path fill="#714E46" d="M19.11 110.201L0 106v43.755C0 157.621 6.484 164 14.485 164H41.41A42.643 42.643 0 0 0 44 149.343c0-17.18-10.154-32.125-24.89-39.142"/>
        <path fill="#714E46" d="M18 108.755c0 5.106-4.028 9.245-9 9.245s-9-4.139-9-9.245V68.248C0 63.138 4.028 59 9 59s9 4.14 9 9.248v40.507M11.99 206.221c11.14 1.109 47.571.966 54.01 0L63.559 164 10 167.17l1.99 32.486v6.565z"/>
        <path fill="#000105" d="M18 155h82V0H18z"/>
        <path fill="#50BE86" d="M23 135h73V10H23z"/>
        <path fill="#595959" d="M23 31h73V10H23z"/>
        <path fill="#E67533" d="M54.882 151.117H66.12v-11.236H54.882v11.236zM54 152h13v-13H54v13z"/>
        <circle cx="59" cy="22" r="9" fill="#FFB401"/>
        <g transform="translate(23 31)">
            <path fill="#FFF" stroke="#000" stroke-width=".5" d="M0 20.828h71.897V0H0z"/>
            <ellipse cx="61.063" cy="10.5" fill="#A885D8" rx="6.162" ry="6.079"/>
        </g>
        <g transform="translate(23 52)">
            <path fill="#FFF" stroke="#000" stroke-width=".5" d="M0 20.828h71.897V0H0z"/>
            <ellipse cx="61.063" cy="10.5" fill="#A885D8" rx="6.162" ry="6.079"/>
        </g>
        <g transform="translate(23 73)">
            <path fill="#FFF" stroke="#000" stroke-width=".5" d="M0 20.828h71.897V0H0z"/>
            <ellipse cx="61.063" cy="10.5" fill="#A885D8" rx="6.162" ry="6.079"/>
        </g>
        <g transform="translate(23 96)">
            <path fill="#FFF" stroke="#000" stroke-width=".5" d="M0 20.828h71.897V0H0z"/>
            <ellipse cx="61.063" cy="10.5" fill="#A885D8" rx="6.162" ry="6.079"/>
        </g>
        <g fill="#714E46">
            <path d="M91.62 100.987c.783 4.773-2.466 9.272-7.25 10.052-4.793.781-9.306-2.453-10.09-7.223l-11.274-68.65c-.785-4.77 2.461-9.27 7.252-10.05 4.786-.78 9.306 2.451 10.09 7.224l11.271 68.647M112.545 96.647c.781 4.77-2.465 9.268-7.253 10.049-4.787.78-9.306-2.454-10.087-7.223l-2.2-13.388c-.782-4.77 2.461-9.272 7.25-10.053 4.791-.78 9.306 2.454 10.091 7.227l2.2 13.388M133.657 93.324c.785 4.77-2.464 9.27-7.253 10.05-4.787.78-9.303-2.457-10.086-7.223l-2.201-13.39c-.784-4.77 2.463-9.266 7.253-10.049 4.787-.781 9.308 2.453 10.089 7.223l2.198 13.39M154.768 90.006c.781 4.768-2.47 9.269-7.253 10.047-4.789.783-9.307-2.453-10.091-7.225l-2.196-13.384c-.785-4.774 2.464-9.272 7.255-10.053 4.783-.781 9.299 2.455 10.084 7.226l2.201 13.389"/>
            <path d="M138.071 78.319l-52.077 8.486c-7.794 1.27-13.076 8.593-11.805 16.356l6.786 41.326 23.518 24.678 47.235-7.696c7.79-1.268 13.077-8.596 11.8-16.358l-9.035-55.035c-1.276-7.764-8.626-13.027-16.422-11.757"/>
            <path d="M96.402 105.693c-8.154 1.329-15.055 5.643-19.803 11.623L50.546 89.968c-3.639-3.828-9.704-3.994-13.552-.37a9.524 9.524 0 0 0-.369 13.5l59.64 62.594c2.154 2.271 5.173 3.19 8.069 2.842l.003.008.1-.015c.241-.035.485-.075.726-.124.488-.08.983-.165 1.48-.247 17.34-2.825 29.13-19.02 26.295-36.3-2.836-17.277-19.193-28.988-36.536-26.163"/>
            <path d="M104 206h51.256v-63.672H104z"/>
        </g>
    </g>
</svg>
