<svg id="Calque_1" data-name="Calque 1" xmlns="http://www.w3.org/2000/svg" viewBox="0 0 60 60"><title>Autres</title><rect x="0.06" y="0.1" width="60" height="60" style="fill:#fff"/><circle cx="30.3" cy="29.8" r="20.2"/><path d="M18.9,26.3h1.5l2.3,6.5H21.2l-.4-1.3H18.4L18,32.8H16.6Zm-.1,4.1h1.7l-.8-2.6Z" style="fill:#fff"/><path d="M24.7,28v2.9c0,.3,0,.5.1.6a.72.72,0,0,0,.7.4,1.05,1.05,0,0,0,.9-.5,1.48,1.48,0,0,0,.1-.7V28.1h1.3v4.8H26.6v-.7a.1.1,0,0,1-.1.1c0,.1-.1.1-.2.2a2.09,2.09,0,0,1-.6.4,1.27,1.27,0,0,1-.6.1,1.39,1.39,0,0,1-1.4-.8,3.92,3.92,0,0,1-.2-1.3V28Z" style="fill:#fff"/><path d="M28.5,29v-.9h.7V26.8h1.3v1.3h.8V29h-.8v2.5c0,.2,0,.3.1.4a2,2,0,0,0,.5.1h.2v.9h-.6a1.74,1.74,0,0,1-1.2-.3,1.17,1.17,0,0,1-.2-.7v-3h-.8Z" style="fill:#fff"/><path d="M34.7,27.9h.1v1.3h-.4a1.1,1.1,0,0,0-1,.5,2.22,2.22,0,0,0-.1.9v2.3H32V28.1h1.2v.8c.2-.3.4-.5.5-.7a1.69,1.69,0,0,1,1-.3Z" style="fill:#fff"/><path d="M38.7,28.1a2.7,2.7,0,0,1,.8.7,3,3,0,0,1,.4,1v1H36.5a1.1,1.1,0,0,0,.5,1,1.32,1.32,0,0,0,1.4,0l.3-.3H40a1.38,1.38,0,0,1-.5.9,2.14,2.14,0,0,1-1.8.7,2.72,2.72,0,0,1-1.7-.6,2.23,2.23,0,0,1-.7-1.9,2.35,2.35,0,0,1,.7-1.9,2.41,2.41,0,0,1,1.7-.7A1.73,1.73,0,0,1,38.7,28.1Zm-1.9,1.1a.91.91,0,0,0-.3.7h2.2a1.14,1.14,0,0,0-.3-.8,1.08,1.08,0,0,0-.7-.3A1.88,1.88,0,0,0,36.8,29.2Z" style="fill:#fff"/><path d="M41.6,31.3a.76.76,0,0,0,.2.5,1.08,1.08,0,0,0,.9.3,1.27,1.27,0,0,0,.6-.1c.1-.1.2-.2.2-.3s-.1-.2-.2-.3A6.8,6.8,0,0,0,42,31a3.34,3.34,0,0,1-1.2-.5,1.69,1.69,0,0,1-.3-1,2.08,2.08,0,0,1,.5-1.2,2.25,2.25,0,0,1,1.5-.5,2.41,2.41,0,0,1,1.5.4,1.85,1.85,0,0,1,.7,1.2H43.4c0-.2-.1-.3-.1-.4a.78.78,0,0,0-.7-.3c-.3,0-.5,0-.6.1s-.2.2-.2.3.1.2.2.3a6.8,6.8,0,0,0,1.3.4,2.26,2.26,0,0,1,1.1.5,1.27,1.27,0,0,1,.4.9,1.66,1.66,0,0,1-.5,1.2,3.14,3.14,0,0,1-3.4,0,1.35,1.35,0,0,1-.5-1.2h1.2Z" style="fill:#fff"/></svg>