<svg id="Calque_1" data-name="Calque 1" xmlns="http://www.w3.org/2000/svg" viewBox="0 0 41 41"><title>Autres-01</title><circle cx="20.56" cy="20.44" r="20.44"/><path d="M9,16.9h1.52l2.33,6.58H11.35l-.4-1.32H8.52l-.4,1.32H6.7ZM8.93,21h1.72l-.81-2.63Z" style="fill:#fff"/><path d="M14.9,18.62v2.93c0,.3,0,.51.1.61a.73.73,0,0,0,.71.4,1.06,1.06,0,0,0,.91-.51,1.5,1.5,0,0,0,.1-.71V18.72H18v4.86H16.82v-.71a.1.1,0,0,1-.1.1c0,.1-.1.1-.2.2a2.11,2.11,0,0,1-.61.4,1.28,1.28,0,0,1-.61.1,1.41,1.41,0,0,1-1.42-.81,4,4,0,0,1-.2-1.32V18.62Z" style="fill:#fff"/><path d="M18.74,19.63v-.91h.71V17.4h1.32v1.32h.81v.91h-.81v2.53c0,.2,0,.3.1.4a2,2,0,0,0,.51.1h.2v.91H21a1.76,1.76,0,0,1-1.21-.3,1.18,1.18,0,0,1-.2-.71v-3h-.81Z" style="fill:#fff"/><path d="M25,18.52h.1v1.32h-.4a1.11,1.11,0,0,0-1,.51,2.25,2.25,0,0,0-.1.91v2.33H22.28V18.72H23.5v.81c.2-.3.4-.51.51-.71A1.71,1.71,0,0,1,25,18.52Z" style="fill:#fff"/><path d="M29.06,18.72a2.73,2.73,0,0,1,.81.71,3,3,0,0,1,.4,1v1H26.83a1.11,1.11,0,0,0,.51,1,1.34,1.34,0,0,0,1.42,0l.3-.3h1.32a1.4,1.4,0,0,1-.51.91,2.17,2.17,0,0,1-1.82.71,2.75,2.75,0,0,1-1.72-.61,2.26,2.26,0,0,1-.71-1.92,2.38,2.38,0,0,1,.71-1.92A2.44,2.44,0,0,1,28,18.62,1.75,1.75,0,0,1,29.06,18.72Zm-1.92,1.11a.92.92,0,0,0-.3.71h2.23a1.15,1.15,0,0,0-.3-.81,1.09,1.09,0,0,0-.71-.3A1.9,1.9,0,0,0,27.14,19.83Z" style="fill:#fff"/><path d="M32,22a.77.77,0,0,0,.2.51,1.09,1.09,0,0,0,.91.3,1.28,1.28,0,0,0,.61-.1c.1-.1.2-.2.2-.3s-.1-.2-.2-.3a6.88,6.88,0,0,0-1.32-.4,3.38,3.38,0,0,1-1.21-.51,1.71,1.71,0,0,1-.3-1,2.1,2.1,0,0,1,.51-1.21,2.28,2.28,0,0,1,1.52-.51,2.44,2.44,0,0,1,1.52.4A1.87,1.87,0,0,1,35.13,20H33.82c0-.2-.1-.3-.1-.4a.79.79,0,0,0-.71-.3c-.3,0-.51,0-.61.1s-.2.2-.2.3.1.2.2.3a6.88,6.88,0,0,0,1.32.4,2.29,2.29,0,0,1,1.11.51,1.28,1.28,0,0,1,.4.91,1.68,1.68,0,0,1-.51,1.21,3.18,3.18,0,0,1-3.44,0,1.37,1.37,0,0,1-.51-1.21H32Z" style="fill:#fff"/></svg>