<?xml version="1.0" encoding="utf-8"?>
<!-- Generator: Adobe Illustrator 21.0.0, SVG Export Plug-In . SVG Version: 6.00 Build 0)  -->
<svg version="1.1" id="Calque_1" xmlns="http://www.w3.org/2000/svg" xmlns:xlink="http://www.w3.org/1999/xlink" x="0px" y="0px"
	 viewBox="0 0 100 100" style="enable-background:new 0 0 100 100;" xml:space="preserve">
<style type="text/css">
	.st0{fill:#FFF6B6;}
	.st1{fill:#714E46;}
	.st2{fill:#62342D;}
	.st3{fill:#80C9A5;}
	.st4{fill:#CFE9D9;}
	.st5{fill:#483137;}
	.st6{fill:#C3E7F2;}
	.st7{fill:#F3E0D7;}
	.st8{fill:#E1B5A8;}
	.st9{fill:#E4BDB1;}
	.st10{fill:#364044;}
	.st11{fill:#595959;}
	.st12{fill:#FFFFFF;}
	.st13{fill:#FF8AD4;}
	.st14{fill:#A885D8;}
	.st15{fill:#492191;}
	.st16{fill:#EBF1F1;}
	.st17{fill:#C0DDDF;}
</style>
<title>Icone Jeunefemme</title>
<circle id="_Tracé_" class="st0" cx="50.3" cy="44.5" r="44.5"/>
<g id="_Groupe_">
	<path id="_Tracé_2" d="M61,4.1C57.4,1.9,53.1,1.5,49.2,3c-1.5,0.7-1.8,2.1-2.6,2.7c-0.7,0.4-1.5,0.7-2.3,0.8c0.1,0,4.3,1,4.7,1.1
		c1.7,0.4,3.3,1,4.8,1.8c3.7,2,5.1,6.9,5.8,10.8c0.6,3.1-0.6,5.6-1.3,8.6c-0.1,0.4-0.2,0.8-0.2,1.2c-0.8,3.8-0.2,7.8,1.7,11.2
		c1.3,2,8,4.7,9.3,1.4c0.7-1.7-1.6-5-1.6-7c0-1.9,1.2-3.9,1.8-5.9c1.3-4.8,3.3-10.4,1.8-15.3C69.5,9.5,65.2,6.3,61,4.1z"/>
	<g id="_Groupe_2">
		<path id="_Tracé_3" class="st1" d="M65.6,35.2c-3.2-0.9-6.4-0.2-9.6-0.4c-4.5-0.4-8.9-1.2-9.8,4.2c-0.6,3.6-0.8,7.3-1.3,10.9
			c-0.2,1.4-0.4,2.7-0.6,4c-1,4.9-4,8.8-1.1,13.8c3.6,6.1,17,3,21.1-0.8c4.6-4.2,3.1-10.1,1.7-15.2C65.7,50.4,64.9,35,65.6,35.2z"/>
	</g>
	<path id="_Tracé_4" class="st2" d="M48.4,34.6c-2.2,6.7,4.7,10.1,9.7,11.6c6.8,1.9,7.4-2.6,7.1-8.1C59.5,40.1,53.7,36,48.4,34.6z"
		/>
	<path id="_Tracé_5" class="st3" d="M48,23c-0.6,0.4-0.8,1.2-0.4,1.8c0.3,0.4,0.8,0.7,1.3,0.6c0.4,0.3,1,0.3,1.4,0
		c0.6-0.4,0.8-1.2,0.4-1.8C50.1,22.7,49,22.5,48,23z"/>
	<path id="_Tracé_6" class="st4" d="M54.4,32.2c-0.6-0.1-1.2,0.3-1.3,1c-0.1,0.5,0.2,1,0.6,1.2l0,0c0,0,0.1,0.1,0,0l0.2,0.2
		c0.2,0.3,0.4,0.6,0.6,0.9c0.3,0.6,1,0.7,1.6,0.4c0.6-0.3,0.7-1,0.4-1.6C56.1,33.4,55.3,32.7,54.4,32.2z"/>
	<g id="_Groupe_3">
		<path id="_Tracé_7" class="st5" d="M51.7,23.6c-0.1,0.5,0.1,1,0.5,1.3c0.5,0.6,1.4,0.7,2,0.3C55.4,24.3,51.8,23,51.7,23.6z"/>
	</g>
	<g id="_Groupe_4">
		<path id="_Tracé_8" class="st6" d="M63.6,23.8L63.6,23.8h-0.2H63.6z"/>
	</g>
	<path id="_Tracé_9" class="st6" d="M64.9,22.4L64.9,22.4h-0.2H64.9z"/>
	<path id="_Tracé_10" class="st1" d="M68.1,17.8c-0.7-2.3-1.9-4.4-3.6-6.2c-2.5-2-5.4-3.3-8.6-3.8c-2.9-0.2-5.6,1.1-7.3,3.4
		c-2.2,2.9-1.1,8.1-2.5,11.4c-0.8,1.8-2.7,2.4-3.4,4c-0.7,2.2,0.4,4.6,2.5,5.5c2.3,0.8,2.8,3.3,4.2,5.1c1.8,2,4.2,3.5,6.8,4
		c2,0.8,4.1,1,6.3,0.8c3.8-0.8,6.1-5.4,7-8.8c0.7-2.6-0.5-4.9-1.1-7.4C67.8,22.8,69.1,20.6,68.1,17.8z"/>
	<g id="_Groupe_5">
		<path id="_Tracé_11" d="M54.4,19.9c-0.8,0.2-2.5,0.4-2.5,1.6c0,0,0.2,0,0.5-0.1c0.9,0,2.9-0.2,3.1-0.2c1.2-0.2,1.3-1.2,1.1-2.2
			C55.9,19.4,55.2,19.7,54.4,19.9z"/>
	</g>
	<g id="_Groupe_6">
		<path id="_Tracé_12" class="st2" d="M44.8,29.8H46c-0.2-1-0.3-2-0.6-3C43.6,26.7,44.3,28.6,44.8,29.8z"/>
	</g>
	<g id="_Groupe_7">
		<path id="_Tracé_13" d="M65.1,18.7c-0.8-0.1-1.5-0.2-2.3-0.5c0,0.8,0,1.4,0.5,1.7c0.2,0.1,0.5,0.2,0.7,0.2c0.8-0.1,1.7-0.1,2.5,0
			C66.7,18.8,66.1,18.9,65.1,18.7z"/>
	</g>
	<g id="_Groupe_8">
		<path id="_Tracé_14" class="st6" d="M62.2,23L62.2,23H62H62.2z"/>
	</g>
	<g id="_Groupe_9">
		<path id="_Tracé_15" class="st7" d="M62.2,23L62.2,23h-0.1H62.2z"/>
	</g>
	<g id="_Groupe_10">
		<path id="_Tracé_16" class="st7" d="M62.2,23L62.2,23z"/>
	</g>
	<g id="_Groupe_11">
		<polygon id="_Tracé_17" class="st8" points="52.2,27.3 52.2,27.3 52.2,27.3 		"/>
	</g>
	<g id="_Groupe_12">
		<path id="_Tracé_18" class="st9" d="M47.8,24.4L47.8,24.4z"/>
	</g>
	<path id="_Tracé_19" class="st2" d="M62.8,28.2c-0.3-0.2-0.6-0.5-0.7-0.8c-0.5-0.9-0.5-2-1-2.9c-2,0-1.2,4.6-0.5,5.3
		c0.7,0.7,4,1.1,3.2-0.8C63.6,28.7,63.2,28.4,62.8,28.2z"/>
	<g id="_Groupe_13">
		<path id="_Tracé_20" class="st10" d="M45,31.5L45,31.5z"/>
	</g>
	<g id="_Groupe_14">
		<path id="_Tracé_21" d="M52.7,2.8c-10-0.9-17.9,7.9-20.7,17.8c-1.9,6.7-1.5,13.8,2.2,18.8c1.5,2.6,3.7,4.6,6.4,5.9
			c2.7,1.1,5.6,1.6,8.5,1.6c3.9-0.1,7.4-1.7,4.3-5.7c-1.9-2.4-3.8-4.7-5.5-7.3c-0.8-1.3-0.9-2-2.2-2.7c-1-0.5-1.7-0.2-2.2-1.5
			c-0.3-1-0.2-2,0.3-2.9c0.1-0.2,1.8-1.8,2-1c-0.4-1.5,0.1-2.6-0.5-4.2c-1.5-3.3-0.1-7.3,3.2-8.9c3.1-1.7,8.1-1.1,10.3-4.4
			C60.5,5.2,55,3,52.7,2.8z"/>
	</g>
	<path id="_Tracé_22" class="st2" d="M62.9,10.4c-1.4,0-2.2,1.5-3.6,1.7c-2.3,0.3-4.2-0.8-6.5,0.2c-5.1,2.3-5.8,7.2-9.2,10.6
		l0.5-0.4c0.5,3.1,6.5-1.6,7.4-2.4c1-0.9,2-1.8,2.9-2.8c0.6-0.9,1.2-1.7,1.8-2.5c0,0.9,0.3,2.5,1.7,2.5c1.4,0,3-2.4,3.8-3.2
		c-0.3,1.5,3.5,2.8,3.8,0.6C65.7,13.3,64.8,10.5,62.9,10.4z"/>
	<path id="_Tracé_23" class="st11" d="M44.3,43.5c-0.4-0.3-0.9-0.5-1.3-0.7c-0.3-0.2-0.8-0.1-1,0.2c-0.2,0.3-0.1,0.8,0.2,1l0,0
		c0.4,0.3,0.9,0.5,1.3,0.7c0.3,0.2,0.8,0.1,1-0.2C44.7,44.1,44.6,43.7,44.3,43.5L44.3,43.5z"/>
	<path id="_Tracé_24" class="st11" d="M40.4,39.4c-0.3-0.3-0.7-0.3-1,0c-0.3,0.3-0.3,0.7,0,1l0.3,0.4v0.1l0,0l0,0
		c0.1,0.4,0.4,0.6,0.8,0.5c0.4-0.1,0.6-0.4,0.5-0.8C41,40.1,40.7,39.7,40.4,39.4z"/>
	<path id="_Tracé_25" class="st11" d="M38.4,35.7c-0.2-0.3-0.6-0.5-0.9-0.3c-0.3,0.2-0.5,0.6-0.3,0.9l0.6,1.2
		c0.2,0.3,0.6,0.5,0.9,0.3c0.3-0.2,0.5-0.6,0.3-0.9L38.4,35.7z"/>
	<path id="_Tracé_26" class="st11" d="M36.8,31.8c-0.1-0.4-0.4-0.6-0.8-0.5c-0.4,0.1-0.6,0.4-0.5,0.8l0,0l0.2,1
		c0.1,0.4,0.4,0.6,0.8,0.5s0.6-0.4,0.5-0.8L36.8,31.8z"/>
	<path id="_Tracé_27" class="st11" d="M35.1,27.1c-0.1-0.4-0.4-0.6-0.8-0.5c-0.4,0.1-0.6,0.4-0.5,0.8l0.2,0.8
		c0.1,0.4,0.4,0.6,0.8,0.5c0.4-0.1,0.6-0.4,0.5-0.8L35.1,27.1z"/>
	<path id="_Tracé_28" class="st11" d="M34.8,22.9c0,0,0,0,0-0.1c0-0.1,0-0.2,0,0c0.1-0.4-0.1-0.8-0.4-0.9c-0.4-0.1-0.8,0.1-0.9,0.4
		c0,0,0,0,0,0c-0.1,0.4-0.1,0.8,0,1.2c0.1,0.4,0.4,0.6,0.8,0.5c0.4-0.1,0.6-0.4,0.5-0.8L34.8,22.9z"/>
	<path id="_Tracé_29" class="st11" d="M35,17.1c-0.4,0.1-0.6,0.4-0.5,0.8l0,0c-0.2,0.3-0.1,0.8,0.2,1c0.3,0.2,0.8,0.1,1-0.2
		c0.2-0.3,0.3-0.7,0.3-1.1C35.8,17.2,35.4,17,35,17.1C35,17.1,35,17.1,35,17.1z"/>
	<path id="_Tracé_30" class="st11" d="M37.9,12.8c-0.3-0.2-0.7-0.1-1,0.2c0,0,0,0,0,0l-0.3,0.4v0.1l-0.2,0.2
		c-0.3,0.3-0.3,0.7-0.1,1c0.3,0.3,0.7,0.3,1,0.1c0.3-0.3,0.6-0.6,0.8-1C38.4,13.4,38.3,13,37.9,12.8C37.9,12.8,37.9,12.8,37.9,12.8z
		"/>
	<path id="_Tracé_31" class="st11" d="M41.2,8.9c-0.4-0.1-0.8,0.1-0.9,0.4l0,0c-0.4,0.1-0.6,0.5-0.5,0.8c0.1,0.4,0.5,0.6,0.8,0.5
		c0.5-0.1,0.9-0.5,1-1C41.7,9.3,41.5,9,41.2,8.9z"/>
	<path id="_Tracé_32" class="st11" d="M45.7,6.2C45.4,6,45,6,44.8,6.4v0.1l-0.1,0.1h-0.1C44.2,6.6,43.9,7,44,7.4
		c0.1,0.4,0.4,0.6,0.8,0.6l0,0c0.5-0.1,0.9-0.4,1.2-0.9C46.2,6.7,46,6.4,45.7,6.2z"/>
	<path id="_Tracé_33" class="st11" d="M50.7,4.3l-1.1,0.2C49.2,4.6,48.9,5,49,5.3c0.1,0.4,0.4,0.6,0.8,0.6l0,0l1.1-0.2
		c0.4-0.1,0.6-0.4,0.6-0.8C51.4,4.5,51,4.2,50.7,4.3z"/>
	<path id="_Tracé_34" class="st11" d="M47.9,43c-0.3-0.2-0.6-0.5-1-0.8c-0.3-0.2-0.7-0.1-1,0.2c-0.2,0.3-0.1,0.7,0.2,1
		c0.3,0.2,0.6,0.6,1,0.8c0.3,0.2,0.8,0.1,1-0.2C48.3,43.7,48.3,43.2,47.9,43z"/>
	<path id="_Tracé_35" class="st11" d="M43.9,39.2l-0.2-0.1l0,0l-0.1-0.2c-0.3-0.3-0.7-0.3-1,0c-0.3,0.3-0.3,0.7,0,1
		c0.2,0.2,0.4,0.4,0.6,0.6c0.3,0.2,0.8,0.1,1-0.2c0.2-0.3,0.1-0.8-0.2-1L43.9,39.2z"/>
	<path id="_Tracé_36" class="st11" d="M41.3,35.6L41.3,35.6c0,0,0-0.2,0-0.3c-0.1-0.4-0.4-0.6-0.8-0.5c-0.4,0.1-0.6,0.4-0.5,0.8
		c0.1,0.4,0.2,0.8,0.4,1.1c0.3,0.3,0.7,0.3,1,0C41.6,36.4,41.6,35.9,41.3,35.6C41.4,35.8,41.3,35.6,41.3,35.6z"/>
	<path id="_Tracé_37" class="st11" d="M39.5,31.3c-0.1-0.4-0.4-0.6-0.8-0.5s-0.6,0.4-0.5,0.8l0.2,0.8c0.1,0.4,0.4,0.6,0.8,0.5
		c0.4-0.1,0.6-0.4,0.5-0.8L39.5,31.3z"/>
	<path id="_Tracé_38" class="st11" d="M37.9,26.3c-0.4,0.1-0.6,0.4-0.5,0.8v0.3l0,0c-0.1,0.3,0,0.8,0.4,0.9c0.3,0.1,0.6,0,0.8-0.2
		c0.2-0.4,0.2-0.8,0.1-1.2C38.6,26.5,38.2,26.3,37.9,26.3z"/>
	<path id="_Tracé_39" class="st11" d="M38.8,21.7c-0.4-0.1-0.8,0.1-0.9,0.4c0,0,0,0,0,0L37.6,23c-0.1,0.4,0.1,0.8,0.4,0.9
		c0.4,0.1,0.8-0.1,0.9-0.4c0,0,0,0,0,0l0.3-0.9C39.3,22.2,39.1,21.8,38.8,21.7z"/>
	<path id="_Tracé_40" class="st11" d="M40.5,16.5c-0.3-0.2-0.7-0.1-1,0.2c0,0,0,0,0,0c-0.1,0.1-0.1,0.3-0.2,0.4v0.2l0,0
		c-0.2,0.3-0.1,0.8,0.2,1c0.3,0.1,0.6,0.1,0.8-0.1c0.1-0.1,0.1-0.3,0.2-0.4v-0.2l0,0C40.8,17.3,40.8,16.8,40.5,16.5
		C40.5,16.5,40.5,16.5,40.5,16.5z"/>
	<path id="_Tracé_41" class="st11" d="M43.1,12.3c-0.3-0.2-0.7-0.1-1,0.2c0,0,0,0,0,0l-0.3,0.4V13l-0.2,0.2c-0.3,0.3-0.3,0.7-0.1,1
		c0.3,0.3,0.7,0.3,1,0.1c0.3-0.3,0.6-0.6,0.8-1C43.5,12.9,43.4,12.5,43.1,12.3z"/>
	<path id="_Tracé_42" class="st11" d="M45.9,9.5c-0.3-0.2-0.8-0.1-1,0.3l0,0l-0.1,0.2l-0.2,0.2l0,0l0,0c-0.3,0.2-0.4,0.6-0.2,1
		c0.2,0.3,0.6,0.4,1,0.2c0.4-0.3,0.7-0.6,1-1C46.4,9.9,46.2,9.6,45.9,9.5z"/>
	<path id="_Tracé_43" class="st11" d="M48.4,40.3l-0.2-0.1L48.1,40l-0.3-0.4c-0.3-0.3-0.7-0.3-1,0c-0.3,0.3-0.3,0.7,0,1
		c0.2,0.3,0.5,0.6,0.8,0.8c0.3,0.1,0.6,0,0.7-0.3C48.6,41,48.6,40.5,48.4,40.3z"/>
	<path id="_Tracé_44" class="st11" d="M45.1,36.1L45.1,36.1L45.1,36.1L45.1,36.1c-0.1-0.4-0.4-0.6-0.8-0.5
		c-0.4,0.1-0.6,0.4-0.5,0.8c0.1,0.3,0.3,0.6,0.6,0.8c0.3,0.2,0.7,0.1,1-0.2c0,0,0,0,0,0C45.5,36.7,45.4,36.3,45.1,36.1z"/>
	<path id="_Tracé_45" class="st11" d="M42.6,31.5c-0.1-0.4-0.4-0.6-0.8-0.5c-0.4,0.1-0.6,0.4-0.5,0.8l0.1,0.5
		c0.1,0.4,0.4,0.6,0.8,0.5c0.4-0.1,0.6-0.4,0.5-0.8L42.6,31.5z"/>
	<path id="_Tracé_46" class="st11" d="M41.2,27.2c-0.1-0.4-0.4-0.6-0.8-0.5s-0.6,0.4-0.5,0.8l0.2,1.1c0.1,0.4,0.4,0.6,0.8,0.5
		c0.4-0.1,0.6-0.4,0.5-0.8L41.2,27.2z"/>
	<path id="_Tracé_47" class="st11" d="M41.2,23.2c-0.3-0.2-0.7-0.1-1,0.2c0,0,0,0,0,0c-0.2,0.4-0.3,0.8-0.2,1.3
		c0.1,0.4,0.4,0.6,0.8,0.5c0.4-0.1,0.6-0.4,0.5-0.8l0,0v-0.2l0,0C41.6,23.9,41.5,23.4,41.2,23.2z"/>
	<path id="_Tracé_48" class="st11" d="M47.5,34.2c-0.3-0.3-0.7-0.3-1,0c-0.3,0.3-0.3,0.7,0,1l0.6,0.7c0.3,0.3,0.7,0.3,1,0
		c0.3-0.3,0.3-0.7,0-1L47.5,34.2z"/>
	<path id="_Tracé_49" class="st11" d="M49.6,38.1L49.6,38.1V38c-0.1-0.2-0.2-0.3-0.3-0.4c-0.3-0.3-0.7-0.3-1,0
		c-0.3,0.3-0.3,0.7,0,1l0,0v0.1c0.1,0.2,0.2,0.3,0.3,0.4c0.3,0.3,0.7,0.3,1,0C49.9,38.8,49.9,38.4,49.6,38.1z"/>
	<path id="_Tracé_50" class="st11" d="M65.5,7.5c-0.7-0.5-1.5,0.6-0.8,1.2c0.3,0.2,0.6,0.5,0.7,0.9c0.1,0.4,0.4,0.6,0.8,0.5
		c0.4-0.1,0.6-0.4,0.5-0.8C66.5,8.5,66.1,7.9,65.5,7.5z"/>
	<path id="_Tracé_51" class="st11" d="M36.8,38.9c-0.2-0.4-0.6-0.5-1-0.3c-0.4,0.2-0.5,0.6-0.3,1l0,0c0.3,0.5,0.7,0.9,1,1.4
		c0.2,0.4,0.6,0.5,1,0.3c0.4-0.2,0.5-0.6,0.3-1C37.5,39.7,37.1,39.3,36.8,38.9z"/>
	<g id="_Groupe_15">
		<path id="_Tracé_52" class="st12" d="M57.9,33.5L57.9,33.5c0.7,2.3,3,3.7,5.3,3.3c0.9-0.2,1.2-1.2,1.7-4
			C62.6,33.3,60.2,33.6,57.9,33.5z"/>
		<path id="_Tracé_53" class="st2" d="M58.3,34.9c0.5,0.6,1.1,1.2,1.8,1.6c1.1,0.5,2.3,0.6,3.4,0.3c0.5-0.7,0.8-1.5,1-2.4
			C62.5,34.9,60.4,35,58.3,34.9z"/>
		<path id="_Tracé_54" class="st13" d="M61.5,35.4c-0.6,0-1.8,0.4-2,0.7c0.7,0.5,1.4,0.8,2.2,0.9c0.2,0,1.8,0.2,1.8-0.2
			C63.2,35.9,62.4,35.3,61.5,35.4z"/>
		<path id="_Tracé_55" class="st2" d="M63.2,31.8c-0.2,0.1-0.4,0.3-0.6,0.5c-0.8-0.7-1.9-0.2-2.7,0.2c-0.7,0.4-1.4,0.6-2.2,0.7
			c0,0,0.2,0.2,0.3,0.2c0.2,0,0.4,0,0.5,0h1c0.3,0,1.4,0,2.6,0c0.6,0,1.1-0.1,1.7-0.3c0,0,1.2-0.3,1.2-0.3
			C64.4,32.5,63.8,31.5,63.2,31.8z"/>
		<path id="_Tracé_56" class="st2" d="M64.4,34.5c0,0.4-0.1,0.9-0.4,1.3c-0.4,0.7-1.2,1.2-2,1.1c-0.8,0-1.7-0.3-2.4-0.7
			c-0.7-0.4-1.2-1-1.5-1.7c-0.1-0.2-0.2-1-0.4-1c0.1,0.5,0.2,1,0.3,1.6c0.2,0.6,0.5,1.1,1,1.6c0.9,1,2.2,1.5,3.5,1.3
			c1-0.4,1.7-1.2,2-2.2c0.2-0.5,0.2-1,0.2-1.5c-0.1-0.5-0.1-0.9,0-1.4C64.5,33.4,64.4,33.9,64.4,34.5z"/>
	</g>
	<path id="_Tracé_57" class="st14" d="M70.8,58.6c-4.5,0.5-8.1,7-9,10.5c-1.6,5.9,0.5,10.4,2.8,15.6c0.3,0.8,0.6,1.6,0.8,2.4
		c1,3.3,2,7.4,5.7,8.1c4.4,0.9,11.6-5.2,14.2-7.8c6-6.1,9.6-14.2,3.1-20.8C84.5,62.8,76.8,57.9,70.8,58.6z"/>
	<path id="_Tracé_58" class="st15" d="M73.5,57.4c-0.4-0.3-5.6-3.4-5.6-3.3c0.2,1.5,0.1,3.1-0.3,4.6c-0.3,1.2-0.9,2.3-1.7,3.3
		c-0.8,0.9-1.9,1.6-3,2c-1,0.3-2,0-2.6-0.7c-0.4,0-0.7,0-1.1,0c-6.4,1.4-12.5-3.4-17.3-7.4c-0.3-0.3-0.5-0.6-0.7-1
		c-3.2,1.1-6.4,2.5-9.4,4c-4.3,1.6-8,4.7-10.4,8.6c-2.5,3.8-3.5,8.3-2.7,12.8c1.6,7.4,9.2,12.6,17.6,16.2c9.3,3.8,19.5,4.5,29.2,2
		c6.1-1.6,12.8-4,17.4-8.6c2-2,4-4,4-6.8c0-0.1,0-0.2,0-0.4c-0.4-3.1-1.1-6.1-2.2-9C83.3,67.1,79.2,61.2,73.5,57.4z"/>
	<path id="_Tracé_59" class="st16" d="M44.3,70.6c-0.6,0-1.1,0.5-1.1,1.1c0,0.6,0.5,1.1,1.1,1.1c0.6,0,1.1-0.5,1.1-1.1
		C45.4,71.1,44.9,70.6,44.3,70.6z"/>
	<path id="_Tracé_60" class="st16" d="M48.4,85c-0.6,0-1.1,0.5-1.1,1.1s0.5,1.1,1.1,1.1s1.1-0.5,1.1-1.1S49,85,48.4,85z"/>
	<path id="_Tracé_61" class="st17" d="M65.3,51.6L65.3,51.6L65.3,51.6C65.3,51.6,65.3,51.5,65.3,51.6z"/>
	<path id="_Tracé_62" class="st14" d="M66.2,51.7c0.6,2.5,1.5,6.1-0.9,8.1c-1.4,1.2-4.7,1.5-4.6,3.7c0,1.5,0.5,3,1.4,4.2
		c2.7,3.2,6.1,1.6,7.9-1.5c1.5-2.4,2-5.3,1.3-8.1C70.6,55.1,68.3,54,66.2,51.7z"/>
	<path id="_Tracé_63" class="st14" d="M50.4,58.5c-1.7-0.9-5.1-2.5-5.9-4.1c-0.5-0.9,0.5-2.3-0.2-3.1c-0.6-0.8-2.4,0.2-3.2,1
		c-1.9,2.2-2.4,5.4-1.3,8.1c1.9,3.9,5,7.1,8.8,9.1c3.2,2.3,7.7,1.6,10.1-1.6c0.9-1.2,2-3.3,1.1-4.7C58.6,61.1,52.8,59.8,50.4,58.5z"
		/>
	<path id="_Tracé_64" class="st14" d="M20.4,64.1c-3.5,1.4-6,4.4-6.7,8.1c-0.7,7.6,9.1,16,14.7,20c2.9,2,3.8,3,6.1,0
		c4.5-6.5,5-20.6-0.3-26.7C31.2,61.8,25.2,61.9,20.4,64.1z"/>
	<path id="_Tracé_65" class="st16" d="M27,69.4h-0.4c-0.6,0.1-1.1,0.7-1,1.3c0.1,0.5,0.5,0.9,1,1H27c0.6-0.1,1.1-0.7,1-1.3
		C27.9,69.8,27.5,69.4,27,69.4z"/>
	<path id="_Tracé_66" class="st11" d="M68.2,13.2c-0.3,0.2-0.5,0.6-0.3,1c0,0,0,0,0,0l0.3,0.5v0.2l0,0l0,0l0,0
		c0,0.4,0.3,0.7,0.7,0.7c0.4,0,0.7-0.3,0.7-0.7l0,0c-0.1-0.6-0.3-1.1-0.6-1.6C68.8,13.1,68.5,13.1,68.2,13.2z"/>
	<path id="_Tracé_67" class="st11" d="M69.3,18.2c-0.4,0-0.7,0.3-0.7,0.6l0,0v0.2c-0.1,0.2-0.1,0.3-0.1,0.5c0,0.4,0.3,0.7,0.7,0.7
		c0.4,0,0.7-0.3,0.7-0.7l0,0v-0.2c0.1-0.2,0.1-0.3,0.1-0.5C69.9,18.5,69.6,18.2,69.3,18.2z"/>
	<path id="_Tracé_68" d="M60.5,6.5C57.4,4.8,53.4,5.7,50.4,7c-2.3,0.9-4.1,2.6-5.1,4.8c-1.7,2.8-6.2,9.6-2.7,12.6
		c3.5,3,10.8-7.9,12.7-11.7c0.1-0.3,0.3-0.5,0.4-0.8c0.7,1.1,1.2,3.6,2.8,3.7c0.6,0,4-4,4.1-3.8c0.4,2,3.3,5.5,3.7,1.7
		C66.6,10.6,62.7,7.7,60.5,6.5z"/>
	<path id="_Tracé_69" class="st11" d="M51.8,7.1l-1.4,0.3c-0.4,0.1-0.6,0.4-0.6,0.8c0.1,0.4,0.4,0.6,0.8,0.6L52,8.5
		c0.4-0.1,0.6-0.4,0.6-0.8C52.5,7.3,52.1,7,51.8,7.1L51.8,7.1z"/>
	<path id="_Tracé_70" class="st11" d="M55.6,5.9c-0.5,0-0.9,0-1.4,0.1c-0.4,0.1-0.6,0.4-0.6,0.8c0.1,0.4,0.4,0.6,0.8,0.6l0,0
		c0.4,0,0.9,0,1.4-0.1c0.4-0.1,0.6-0.4,0.6-0.8C56.4,6.1,56,5.9,55.6,5.9z"/>
	<path id="_Tracé_71" class="st11" d="M43.6,19c-0.3-0.3-0.7-0.3-1,0c-0.4,0.5-0.7,1.1-0.7,1.7c0,0.4,0.2,0.7,0.6,0.7
		c0.4,0,0.7-0.2,0.7-0.6l0,0v-0.3v-0.1c0-0.1,0-0.2,0-0.2c0,0.1,0.1-0.2,0-0.1c0.4-0.1,0.5-0.6,0.4-0.9C43.6,19.1,43.6,19,43.6,19z"
		/>
	<path id="_Tracé_72" class="st11" d="M45.3,15c-0.3-0.2-0.8-0.1-1,0.2c-0.3,0.3-0.6,0.7-0.7,1.1c-0.1,0.4,0.1,0.8,0.4,0.9
		c0.4,0.1,0.8-0.1,0.9-0.4l0,0l0,0l0.2-0.3l0.4-0.5C45.7,15.8,45.6,15.3,45.3,15C45.3,15.1,45.3,15.1,45.3,15z"/>
	<path id="_Tracé_73" class="st11" d="M48,12.2c-0.3,0.1-0.5,0.2-0.7,0.4c-0.1,0.1-0.1,0.2-0.2,0.3c-0.2,0.3-0.1,0.8,0.2,1
		c0.3,0.3,0.7,0.2,1,0c0,0,0,0,0.1-0.1v-0.2l0,0c0.4-0.1,0.5-0.5,0.4-0.9C48.6,12.3,48.3,12.2,48,12.2L48,12.2z"/>
	<path id="_Tracé_74" class="st11" d="M52.1,9.4c-0.4,0-0.8,0.2-1.1,0.6c-0.2,0.3-0.1,0.8,0.2,1c0.3,0.2,0.6,0.2,0.9,0l0,0l0.4-0.1
		c0.4-0.1,0.6-0.4,0.6-0.8C52.9,9.7,52.5,9.4,52.1,9.4L52.1,9.4z"/>
	<path id="_Tracé_75" class="st11" d="M56.6,8l-1.2,0.2c-0.4,0.1-0.6,0.4-0.6,0.8c0.1,0.4,0.4,0.6,0.8,0.6l1.2-0.2
		c0.4-0.1,0.6-0.4,0.6-0.8C57.3,8.2,57,7.9,56.6,8z"/>
	<path id="_Tracé_76" class="st11" d="M44.5,22c-0.2,0.2-0.4,0.4-0.6,0.5c-0.3,0.3-0.3,0.7-0.1,1s0.7,0.3,1,0.1
		c0.2-0.2,0.4-0.4,0.6-0.5c0.3-0.3,0.3-0.7,0.1-1C45.2,21.8,44.8,21.8,44.5,22L44.5,22z"/>
	<path id="_Tracé_77" class="st11" d="M48.2,18.3c-0.3-0.2-0.7-0.1-1,0.2c0,0,0,0,0,0l-0.7,1c-0.2,0.3-0.1,0.8,0.2,1
		c0.3,0.2,0.8,0.1,1-0.2l0.7-1C48.6,19,48.5,18.5,48.2,18.3z"/>
	<path id="_Tracé_78" class="st11" d="M51.3,14.2c-0.4-0.1-0.8,0.1-0.9,0.4l0,0v0.1l-0.2,0.3l-0.4,0.5c-0.2,0.3-0.1,0.8,0.2,1
		c0.3,0.2,0.8,0.1,1-0.2l0,0c0.3-0.4,0.6-0.8,0.8-1.3C51.9,14.7,51.7,14.3,51.3,14.2z"/>
	<path id="_Tracé_79" class="st11" d="M53.4,11.9c-0.3-0.2-0.8-0.1-1,0.2l-0.3,0.5c-0.2,0.3-0.1,0.8,0.2,1c0.3,0.2,0.8,0.1,1-0.2
		l0,0l0.3-0.5C53.8,12.6,53.8,12.2,53.4,11.9z"/>
	<path id="_Tracé_80" class="st11" d="M58.8,11.2c-0.4-0.1-0.8,0.1-0.9,0.4c0,0,0,0,0,0c-0.1,0.4-0.2,0.8-0.1,1.2
		c0.1,0.4,0.4,0.6,0.8,0.5c0.4-0.1,0.6-0.4,0.5-0.8l0,0l0,0c0,0,0,0,0-0.1v-0.2v-0.2C59.3,11.8,59.2,11.4,58.8,11.2z"/>
	<path id="_Tracé_81" class="st11" d="M60.6,8.2c-0.3-0.3-0.7-0.3-1,0c-0.3,0.3-0.3,0.7,0,1c0-0.1,0,0,0,0v0.1c0,0.1,0,0.3,0,0.4
		c0.1,0.4,0.4,0.6,0.8,0.5c0.4-0.1,0.6-0.4,0.5-0.8C61,9,60.8,8.5,60.6,8.2z"/>
	<path id="_Tracé_82" class="st12" d="M31.8,78.3c-0.6,0-1.2,0.5-1.2,1.2c0,0.6,0.5,1.2,1.2,1.2c0.6,0,1.2-0.5,1.2-1.2
		C32.9,78.8,32.4,78.3,31.8,78.3z"/>
	<path id="_Tracé_83" class="st16" d="M60.5,76.4c-0.6,0-1.2,0.5-1.2,1.2c0,0.6,0.5,1.2,1.2,1.2c0.6,0,1.2-0.5,1.2-1.2
		C61.7,77,61.1,76.4,60.5,76.4z"/>
	<path id="_Tracé_84" class="st16" d="M64.7,87.7h-0.2c-0.6,0-1.2,0.5-1.2,1.2c0,0.6,0.5,1.2,1.2,1.2h0.2c0.6,0,1.2-0.5,1.2-1.2
		C66,88.3,65.4,87.7,64.7,87.7C64.8,87.7,64.8,87.7,64.7,87.7L64.7,87.7z"/>
	<path id="_Tracé_85" class="st16" d="M77,76.2c-0.6,0-1.2,0.5-1.2,1.2c0,0.6,0.5,1.2,1.2,1.2c0.6,0,1.2-0.5,1.2-1.2
		C78.1,76.7,77.6,76.2,77,76.2z"/>
	<path id="_Tracé_86" class="st16" d="M85.4,70.1h-0.2c-0.6,0-1.2,0.5-1.2,1.2c0,0.6,0.5,1.2,1.2,1.2c0,0,0,0,0,0h0.2
		c0.6,0,1.2-0.5,1.2-1.2C86.6,70.6,86.1,70.1,85.4,70.1C85.5,70.1,85.5,70.1,85.4,70.1z"/>
	<path id="_Tracé_87" class="st16" d="M34.2,63c-0.6,0-1.2,0.5-1.2,1.2c0,0.6,0.5,1.2,1.2,1.2c0.6,0,1.2-0.5,1.2-1.2
		C35.4,63.6,34.8,63,34.2,63z"/>
	<path id="_Tracé_88" class="st16" d="M76,64c-0.6,0-1.2,0.5-1.2,1.2c0,0.6,0.5,1.2,1.2,1.2c0.6,0,1.2-0.5,1.2-1.2
		C77.2,64.5,76.7,64,76,64z"/>
	<polygon id="_Tracé_89" class="st8" points="51.9,28 51.9,28 51.9,28 	"/>
	<ellipse id="_Tracé_90" transform="matrix(0.9872 -0.1595 0.1595 0.9872 -3.5953 8.9877)" cx="54.2" cy="26.9" rx="1" ry="1.1"/>
	<ellipse id="_Tracé_91" transform="matrix(0.9919 -0.1271 0.1271 0.9919 -2.6367 8.467)" cx="65" cy="24.9" rx="0.9" ry="0.8"/>
	<path id="_Tracé_92" d="M57.4,25.5c-2-0.6-4.2-0.3-6.1,0.8c-0.1,0.1-0.1,0.2-0.1,0.3c0,0,0,0.1,0.1,0.1c0.2,0.1,0.4,0.1,0.5,0
		c1.6-0.9,3.5-1.1,5.3-0.6h0.2c0.1,0,0.2-0.1,0.3-0.2c0.1-0.1,0-0.3-0.1-0.3C57.5,25.5,57.4,25.5,57.4,25.5z"/>
	<path id="_Tracé_93" d="M66.2,23.9c-0.9-0.2-1.9,0.1-2.7,0.6c-0.2,0.2,0,0.3,0.3,0.3c0.3,0,0.4-0.2,0.6-0.3c0.5-0.2,1-0.3,1.5-0.2
		c0.3,0,0.8,0.3,1.1,0c0.2-0.3,0.1-0.2,0-0.2C66.7,24,66.4,23.9,66.2,23.9z"/>
</g>
</svg>
