<?xml version="1.0" encoding="utf-8"?>
<!-- Generator: Adobe Illustrator 21.0.0, SVG Export Plug-In . SVG Version: 6.00 Build 0)  -->
<svg version="1.1" id="Calque_1" xmlns="http://www.w3.org/2000/svg" xmlns:xlink="http://www.w3.org/1999/xlink" x="0px" y="0px"
	 viewBox="0 0 100 100" style="enable-background:new 0 0 100 100;" xml:space="preserve">
<style type="text/css">
	.st0{fill:#B5E8F7;}
	.st1{fill:#714E46;}
	.st2{fill:#62342D;}
	.st3{fill:#482E26;}
	.st4{fill:#F2DED4;}
	.st5{fill:#765659;}
	.st6{fill:#897075;}
	.st7{fill:#6FAED1;}
	.st8{fill:#FFFFFF;}
	.st9{fill:#BC4C57;}
	.st10{fill:#CD5F68;}
	.st11{fill:#0A6E31;}
	.st12{fill:#221F1F;}
	.st13{fill:#50BE87;}
	.st14{fill:#CEE1CF;}
	.st15{fill:#F4A69F;}
	.st16{fill:#6DBABA;}
	.st17{fill:#94D0AF;}
</style>
<title>Icone Femme</title>
<circle id="_Tracé_" class="st0" cx="49.7" cy="46.4" r="46.4"/>
<g id="_Groupe_">
	<path id="_Tracé_2" class="st1" d="M56.9,45.8c-0.7-2.2-5.7-16.7-3.2-18c-3.3,1.8-5.5,4.6-9.2,6.1c-3.1,1.4-6.7,1.6-9.9,0.6
		c1,5.6,1.5,11.3,1.5,17c0,4.8-2,8.9-3.9,12.7c-2.4,5.2-4,10.1,1.3,16.1c6.1,6.9,16.1,5,23.2,0.7c7.4-4.5,14.1-11.6,14.8-20.4
		C61.8,58.6,59.5,54.4,56.9,45.8z"/>
	<path id="_Tracé_3" class="st2" d="M56.9,43.8c-0.3-1.8-0.4-3.7-0.5-5.5c0.1-1.4,0.2-2.8,0.2-4.3v-0.3c-2.6,2.8-4.8,6.3-8.1,7.9
		c-1,0.5-7.8,4-8.3,2.6c1.7,4.6,6.1,3.2,8.8,1.5c2.7-1.8,3.7-2.6,5.6,1c0.6,1.6,1.4,3.1,2.3,4.6c0.1,0.1,1.6,1.3,1.7,0.9l0,0
		C58.1,49.3,57.3,46.6,56.9,43.8z"/>
	<path id="_Tracé_4" class="st3" d="M48.7,18.9c-1.9-2.6-0.9-6-0.3-8.7c0.9-3.8,1.8-7-4.7-6.7c-4.4,0.2-8.2,3-11.2,5.4
		c-2.5,2.1-4.5,4.7-5.9,7.6c-3.2,6.6-4.4,14.1-3.3,21.4c0.6,3.2,2,7.5,5,9.4c4.5,2.8,6.6-3.1,9.4-6.1c3.2-3.5,7.1-6.6,10.5-9.9
		c2.4-2.4,8.7-4.7,4.9-8.9C51.8,21.2,49.7,20.5,48.7,18.9z"/>
	<path id="_Tracé_5" class="st1" d="M40.1,6.9c-0.2,0-0.5,0.1-0.7,0.2h-0.2h-0.2c-0.5,0.1-0.8,0.5-0.8,1c0.1,0.5,0.5,0.8,1,0.8l0,0
		c0.2,0,0.5-0.1,0.7-0.2h0.2h0.2c0.5-0.1,0.8-0.5,0.8-1S40.6,6.8,40.1,6.9z"/>
	<path id="_Tracé_6" class="st1" d="M33.2,10.9c-0.4,0.1-0.8,0.4-1.1,0.7c-0.3,0.4-0.2,1,0.2,1.3c0.4,0.3,1,0.2,1.3-0.2l0,0
		c-0.1,0.1,0,0,0,0l0,0c0.4-0.1,0.7-0.5,0.6-1C34,11.2,33.6,10.8,33.2,10.9z"/>
	<path id="_Tracé_7" class="st1" d="M29.4,18c-0.4-0.3-1-0.2-1.3,0.2c-0.4,0.5-0.6,1-0.8,1.6c-0.1,0.5,0.3,0.9,0.8,1c0,0,0,0,0,0
		c0.5,0,0.9-0.3,1-0.8c0,0.1,0-0.2,0-0.1v-0.2l0,0l0.4-0.5C29.8,18.8,29.7,18.3,29.4,18z"/>
	<path id="_Tracé_8" class="st1" d="M28,25.5c-0.5-0.2-1,0-1.2,0.5c0,0,0,0,0,0c-0.1,0.5-0.1,0.9,0,1.4c0.1,0.5,0.5,0.8,1,0.8
		c0.5-0.1,0.8-0.5,0.8-1l0,0c0-0.1,0-0.2,0-0.4c0-0.1,0-0.2,0,0c0.2-0.5,0-1-0.5-1.2C28.1,25.6,28.1,25.5,28,25.5z"/>
	<path id="_Tracé_9" class="st1" d="M42.5,10.5c-1.5-0.1-3,0.1-4.4,0.6c-3.3,1.3-5.8,4-6.9,7.4c-0.8,2.1-0.4,4.8-0.8,7.1
		c-0.6,2.3-0.9,4.7-0.9,7.1c0.5,3.4,1.7,6.7,3.8,9.5c2.7,4.5,7.3,4.5,11.5,2c1.9-1.1,3.9-2.4,5.7-3.6C63.4,31.8,58.9,10.8,42.5,10.5
		z"/>
	<g id="_Groupe_2">
		<path id="_Tracé_10" d="M47.7,22.8c-1-0.4-2-1-2.9-1.6c-0.3,1.8-0.2,3.7,1.4,3.9c0.3,0,2.8,0.1,4,0.2c0.4,0,0.7,0.1,0.7,0.2
			C51,23.4,48.7,23.1,47.7,22.8z"/>
	</g>
	<g id="_Groupe_3">
		<path id="_Tracé_11" d="M33.6,21.7c-1.2,0.3-2,0.3-1.8,2c0-0.3,3,0,3.2,0c0.3,0,0.6-0.1,0.9-0.3c0.7-0.4,0.7-1.3,0.5-2.5
			C35.6,21.3,34.6,21.5,33.6,21.7z"/>
	</g>
	<path id="_Tracé_12" class="st2" d="M40.1,26c-0.5,1-0.6,2.3-1.1,3.5c-0.2,0.4-0.4,0.7-0.8,0.9c-0.4,0.3-0.7,0.7-1,1.1
		c-0.9,2.3,2.2,2,3.1,0.8C41.4,31.2,42.2,26,40.1,26z"/>
	<g id="_Groupe_4">
		<path id="_Tracé_13" class="st4" d="M44.3,28.7L44.3,28.7h-0.2H44.3z"/>
	</g>
	<g id="_Groupe_5">
		<g id="_Groupe_6">
			<path id="_Tracé_14" d="M34.5,29.1c-0.6,0.3-1.3,0.2-1.9-0.2c-0.5-0.4-0.5-1.2-0.2-2.2l-0.8-0.3c-0.6,1.8,0,2.7,0.4,3.1
				c1.2,0.9,3,0.6,3.9-0.6c0.3-0.4,0.5-0.9,0.5-1.4h-0.9C35.6,28.3,35.1,28.9,34.5,29.1z"/>
		</g>
	</g>
	<g id="_Groupe_7">
		<g id="_Groupe_8">
			<path id="_Tracé_15" d="M49.2,28.4c0,0.8-0.5,1.6-1.2,1.9c-0.7,0.4-1.5,0.4-2.2,0c-0.6-0.4-0.7-1.3-0.4-2.5l-0.9-0.2
				c-0.6,2,0.2,3,0.7,3.4c1,0.6,2.2,0.7,3.2,0.1c1.1-0.5,1.8-1.6,1.8-2.8L49.2,28.4z"/>
		</g>
	</g>
	<path id="_Tracé_16" class="st5" d="M29.3,19.6L29.3,19.6z"/>
	<path id="_Tracé_17" class="st6" d="M49.7,9.4L49.7,9.4z"/>
	<path id="_Tracé_18" class="st6" d="M61.7,22.6L61.7,22.6z"/>
	<path id="_Tracé_19" class="st7" d="M58.8,56.2L58.8,56.2z"/>
	<g id="_Groupe_9">
		<path id="_Tracé_20" class="st7" d="M35.2,36.2c0.2,0.7,0.3,1.3,0.3,2c0,0.4,0.3,0.7,0.7,0.7c0.4,0,0.7-0.3,0.6-0.7c0,0,0,0,0,0
			c-0.1-0.8-0.2-1.5-0.4-2.3c0-0.4-0.3-0.7-0.7-0.7c-0.4,0-0.7,0.3-0.7,0.7C35.1,36,35.2,36.1,35.2,36.2z"/>
		<path id="_Tracé_21" class="st7" d="M40,36.9c0-0.4-0.3-0.7-0.7-0.7c-0.4,0-0.7,0.4-0.6,0.7c0,0.6,0.2,1.2,0.4,1.8
			c0.1,0.4,0.4,0.6,0.8,0.6c0.4-0.1,0.6-0.4,0.6-0.8c0-0.1,0-0.1-0.1-0.2C40.1,37.9,40,37.4,40,36.9z"/>
		<path id="_Tracé_22" class="st8" d="M35.1,35.8c0.7,3.1,0.9,4.2,2,4.4c2.6,0.5,5.2-1,6.1-3.5h-0.1C40.4,36.7,37.7,36.4,35.1,35.8
			z"/>
		<path id="_Tracé_23" class="st2" d="M43.9,36c-0.3,0,0,0.9,0.2,1h0.1C44.2,37,44.1,36,43.9,36z"/>
		<path id="_Tracé_24" class="st2" d="M35,35.1c0,0-0.6,0.6-0.5,0.7C34.5,36,35.1,35.4,35,35.1L35,35.1z"/>
		<path id="_Tracé_25" class="st9" d="M35.5,37.6c0.1,0.9,0.5,1.8,1,2.5c1.3,0.3,2.8,0.2,4-0.3c0.8-0.4,1.5-1,2-1.7
			C40.2,38.2,37.8,38.1,35.5,37.6z"/>
		<path id="_Tracé_26" class="st10" d="M38.9,38.6c-0.9-0.1-2.2,0.6-2.3,1.5c0,0.3,1.9,0.2,2,0.2c0.9-0.1,1.8-0.4,2.6-0.9
			C41,39.1,39.6,38.7,38.9,38.6z"/>
		<path id="_Tracé_27" class="st2" d="M40.9,35.5c-0.9-0.4-2.2-1-3.1-0.2c-0.2-0.2-0.5-0.4-0.7-0.5c-0.8-0.3-1.4,0.8-2,1.1
			c0,0,1.3,0.3,1.4,0.4c0.6,0.1,1.3,0.2,1.9,0.3c1.3,0,2.6,0,2.9,0h1.2c0.2,0,0.4,0,0.6,0c0,0,0.4-0.2,0.3-0.2
			C42.5,36.1,41.6,35.9,40.9,35.5z"/>
		<path id="_Tracé_28" class="st2" d="M42.7,37.7c-0.4,0.8-1,1.4-1.7,1.8c-0.8,0.5-1.8,0.7-2.7,0.7c-0.9,0-1.8-0.5-2.2-1.3
			c-0.3-0.4-0.4-0.9-0.4-1.4c0-0.6-0.2-1.2-0.4-1.7c0.1,0.5,0.1,1,0,1.5c0,0.5,0.1,1.1,0.3,1.6c0.3,1.1,1.2,2,2.3,2.4
			c1.5,0.2,3-0.3,4-1.4c0.5-0.5,0.9-1,1.1-1.7c0.2-0.5,0.3-1.1,0.3-1.7C42.9,36.7,42.8,37.5,42.7,37.7z"/>
	</g>
	<path id="_Tracé_29" class="st3" d="M55,4.5c-3.1-1.2-6.6-1.4-9.8-0.6c-9.2,2.7,4,10.4,6.4,12.5c3.2,2.8,5.2,6.8,5.3,11.1
		c0.2,4.7-3.2,10.5,0,14.9c-1.3-1.7,7.9-8.1,8.8-9.3c3.9-5.5,4.2-12.8,0.8-18.6C63.7,10,59.7,6.5,55,4.5z"/>
	<path id="_Tracé_30" class="st1" d="M58.1,27.4c-3.3-0.4-3.4,5-3.9,7c0-0.3,2-0.2,3.2-0.2c0.3,0,0.6,0,0.9,0
		C60.9,33,61.3,27.8,58.1,27.4z"/>
	<g id="_Groupe_10">
		<path id="_Tracé_31" class="st2" d="M57.6,30c-0.1,0.7-0.3,1.4-0.4,2.2c1.3,0.6,1.4-0.8,1.3-1.7L57.6,30z"/>
	</g>
	<path id="_Tracé_32" class="st1" d="M45.8,8l-0.7,0.1c-0.5,0.1-0.8,0.5-0.8,1c0.1,0.5,0.5,0.8,1,0.8l0,0l0.7-0.1
		c0.5-0.1,0.8-0.5,0.8-1C46.8,8.3,46.3,7.9,45.8,8z"/>
	<path id="_Tracé_33" class="st1" d="M50.9,10.2c-0.5,0-1,0.4-1,1c0,0.5,0.4,1,1,1h0.1h0.1h0.1l0,0c0.4,0.4,1,0.4,1.4,0
		c0.4-0.4,0.4-1,0-1.4C52.2,10.4,51.6,10.2,50.9,10.2z"/>
	<path id="_Tracé_34" class="st1" d="M56.7,14.6c-0.5-0.3-1-0.1-1.3,0.3c-0.3,0.5-0.1,1,0.3,1.3l0,0l0,0l0,0l0,0l0,0v0.1
		c0,0.5,0.4,1,1,1c0.5,0,1-0.4,1-1C57.6,15.7,57.3,15,56.7,14.6z"/>
	<path id="_Tracé_35" class="st1" d="M58.1,20c-0.5,0.1-0.8,0.7-0.7,1.2c0.2,0.5,0.3,1,0.4,1.5c0,0.5,0.4,1,1,1s1-0.4,1-1
		c0-0.7-0.2-1.4-0.5-2C59.1,20.1,58.6,19.9,58.1,20z"/>
	<path id="_Tracé_36" class="st1" d="M63.1,21.5L63.1,21.5L63.1,21.5c0-0.5-0.4-1-1-1c-0.5,0-1,0.4-1,1c0,0.3,0.1,0.5,0.1,0.8
		c0,0.1,0,0.2,0,0.4v0.1c0,0.5,0.4,1,1,1c0.5,0,1-0.4,1-1c0-0.3-0.1-0.5-0.1-0.8C63.2,21.7,63.2,21.6,63.1,21.5z"/>
	<path id="_Tracé_37" class="st1" d="M63.2,28.5c-0.5,0-0.9,0.4-0.9,0.9v0.1v0.1v0.1l0,0c-0.4,0.4-0.4,1,0,1.4c0.4,0.4,1,0.4,1.4,0
		c0.4-0.5,0.7-1.1,0.7-1.7c0-0.5-0.4-1-1-1C63.3,28.5,63.3,28.5,63.2,28.5z"/>
	<path id="_Tracé_38" class="st11" d="M78.3,61.3c-4.9-1.8-12-7.6-17.2-4.5c-4.5,2.7-6.5,10.7-13,9.7c-6.8-1.1-9.7-8.7-16.9-9.5
		c-4.7-0.4-9.4,0.4-13.7,2.4C1.5,66.8,6.6,82,17.8,91.2c13,10.7,33.2,10.6,48.6,4.9c8.1-3,19.4-10.1,21.7-19.3
		C89.9,70,84,63.4,78.3,61.3z"/>
	<polygon id="_Tracé_39" class="st12" points="62.5,59.5 62.6,59.5 62.6,59.5 	"/>
	<path id="_Tracé_40" class="st12" d="M71.4,61.1L71.4,61.1h-0.1H71.4z"/>
	<path id="_Tracé_41" class="st13" d="M62.4,54.7c-0.8-0.4-1.6-0.8-2.4-1c-1.8,5.7-8.8,7.7-14.1,6.4c-3.9-0.9-7.5-2.9-10.3-5.8
		c-2.4,1.6-4,1.3-2.3,4.6c5.4,9.3,20.9,11,28.1,3.2c1.7-1.8,3.5-3.9,3-6.5C63.8,55.4,63.1,55.1,62.4,54.7z"/>
	<path id="_Tracé_42" class="st14" d="M71.9,76.8h0.2l-0.3-0.2L71.9,76.8z"/>
	<path id="_Tracé_43" class="st15" d="M60.2,75.7l-0.1-0.2L60.2,75.7z"/>
	<path id="_Tracé_44" class="st16" d="M60.5,69.9l0.1,0.2v-0.2L60.5,69.9z"/>
	<path id="_Tracé_45" class="st11" d="M52.7,60.5c-1,0-1.8,0.8-1.8,1.8v1.4c0,1,0.8,1.8,1.8,1.8c1,0,1.8-0.8,1.8-1.8v-1.4
		C54.5,61.4,53.7,60.6,52.7,60.5z"/>
	<path id="_Tracé_46" class="st11" d="M58,59.2c-1,0-1.8,0.8-1.8,1.8c0,0.4,0,0.8,0.1,1.2c0.1,0.2,0.1,0.4,0.2,0.5
		c0.4,0.6,1.1,1,1.9,1c1,0,1.8-0.8,1.8-1.8c0-0.5-0.2-0.9-0.5-1.2C59.6,59.8,58.8,59.2,58,59.2z"/>
	<path id="_Tracé_47" class="st11" d="M63.1,55.6c-0.3-0.6-0.9-1-1.6-1c-1,0-1.8,0.8-1.8,1.8c0,0.6,0.2,1.2,0.7,1.6
		c0.2,0.2,0.5,0.4,0.7,0.5l0,0c0.7,0.7,1.8,0.7,2.5,0c0.7-0.7,0.7-1.8,0-2.5C63.5,55.9,63.3,55.8,63.1,55.6z"/>
	<path id="_Tracé_48" class="st11" d="M46.3,60.9c-1,0-1.8,0.8-1.8,1.8v0.4c0,1,0.8,1.8,1.8,1.8s1.8-0.8,1.8-1.8l0,0v-0.4
		C48.1,61.8,47.3,61,46.3,60.9z"/>
	<path id="_Tracé_49" class="st3" d="M42.1,63.2c-0.7-1.3-1.6-2.4-2.6-3.5c-0.8-0.7-1.7-1.2-2.7-1.5c-1.9-0.8-4.4-1.8-5-4
		c-0.4-1.6,1.2-3.2,1-4.8c-0.2-1.3-2-2.4-3.2-2.6c-0.9-0.1-1.7,0.5-2.5,0.8l-2.8,1.1c-2,0.7-3.8,1.7-5.6,2.9c-3.5,3-5.4,7.4-5.1,12
		c0.7,4.4,3.8,8.1,8.1,9.5c1.7,0.6,3.9,0.5,5.3,1.7c1.4,1.4,1.7,3.6,0.8,5.3c-0.5,1.3-0.3,3.2,1.5,2.9c1.1-0.1,2.2-0.2,3.2-0.5
		c1.7-0.6,3.3-1.8,5-2.6c1.7-0.8,3.1-2,4.2-3.5c2.4-3.5,2.9-7.9,1.3-11.7C42.5,64.1,42.3,63.7,42.1,63.2z"/>
	<path id="_Tracé_50" class="st17" d="M30.7,47.1c-1.5,0.1-3-0.4-4.3-1.3c-0.1,0.1-0.2,0.3-0.3,0.5h0.2c-0.3,0.8-0.4,1.6-0.2,2.4
		c1.4,1.9,4,2.5,6.1,1.3c0.9-0.8,1.3-2,0.9-3.1C32.3,47,31.5,47.1,30.7,47.1z"/>
	<path id="_Tracé_51" class="st1" d="M27.4,52.5c-0.4,0.7-0.6,1.6-0.6,2.4c0,0.5,0.4,1,1,1c0.5,0,1-0.4,1-1c-0.1-0.5,0.1-1,0.3-1.4
		C29.7,52.4,28.1,51.5,27.4,52.5z"/>
	<path id="_Tracé_52" class="st1" d="M33.4,58.8c-0.9-0.2-1.6-0.6-2.1-1.3c-0.4-0.4-1-0.4-1.3,0c0,0,0,0,0,0c-0.4,0.4-0.4,1,0,1.4
		c0.8,0.9,1.8,1.5,3,1.7C34.1,60.9,34.6,59.1,33.4,58.8z"/>
	<path id="_Tracé_53" class="st1" d="M38.3,62.7c-0.1-0.5-0.7-0.8-1.2-0.7c-0.5,0.1-0.8,0.7-0.7,1.2c0.2,0.7,0.4,1.4,0.7,2
		c0.3,0.5,0.9,0.6,1.3,0.3c0.5-0.3,0.6-0.9,0.3-1.3C38.6,63.8,38.4,63.2,38.3,62.7z"/>
	<path id="_Tracé_54" class="st1" d="M38.9,68.8c-0.5,0-0.9,0.4-0.9,0.9c0,0.2,0,0.3,0,0.5c0,0.2,0,0.2,0,0.2c0,0-0.1,0.3,0,0.1
		c-0.3,0.5-0.1,1,0.3,1.3c0.5,0.3,1,0.1,1.3-0.3c0.2-0.6,0.4-1.2,0.3-1.8C39.9,69.2,39.5,68.8,38.9,68.8
		C38.9,68.8,38.9,68.8,38.9,68.8z"/>
	<path id="_Tracé_55" class="st1" d="M31.4,78.1c-0.3,0-0.6,0.2-0.8,0.4l0,0c-0.5,0.1-0.9,0.5-0.9,1c0.1,0.5,0.5,0.9,1,0.9
		c0.3,0,0.6-0.1,0.9-0.3c0.4-0.2,0.7-0.6,0.7-1.1C32.4,78.6,32,78.1,31.4,78.1C31.5,78.1,31.4,78.1,31.4,78.1z"/>
	<path id="_Tracé_56" class="st1" d="M36.5,75c-0.7,0-1.3,0.6-1.4,1.4c0,0.5,0.4,0.9,0.9,0.9c0.4,0,0.7-0.2,0.8-0.5
		c0.3-0.2,0.5-0.5,0.5-0.8C37.5,75.4,37,75,36.5,75z"/>
	<path id="_Tracé_57" class="st1" d="M33.2,71.4c-0.5-0.1-1,0.2-1.2,0.7c-0.1,0.4-0.2,0.7-0.4,1c-0.1,0.1-0.1,0.2-0.2,0.3
		c-0.1,0.1-0.3,0.2-0.4,0.3c-1.1,0.6-0.1,2.2,1,1.7c1.1-0.5,1.8-1.5,2-2.7C34.1,72,33.7,71.5,33.2,71.4
		C33.2,71.4,33.2,71.4,33.2,71.4z"/>
	<path id="_Tracé_58" class="st1" d="M33.3,66.3v-0.1l-0.1-0.4c-0.1-0.4-0.4-0.7-0.6-1c-0.4-0.4-1-0.4-1.4,0c-0.4,0.4-0.4,1,0,1.4
		l0,0l0,0l0,0l0,0c0,0.3,0.2,0.5,0.3,0.8c0.3,0.5,0.9,0.6,1.3,0.3c0.5-0.3,0.6-0.9,0.3-1.3L33.3,66.3z"/>
	<path id="_Tracé_59" class="st1" d="M26.6,60.2c-0.4-0.4-1-0.4-1.4,0c-0.4,0.4-0.4,1,0,1.4l0,0c0.5,0.5,0.8,1,1.3,1.5
		c0.4,0.4,1,0.4,1.4,0c0.4-0.4,0.4-1,0-1.4C27.4,61.2,27,60.6,26.6,60.2z"/>
	<path id="_Tracé_60" class="st1" d="M23.5,52.7c-0.4,0.4-0.7,0.9-1,1.5c-0.3,0.5-0.1,1,0.3,1.3c0.5,0.3,1,0.1,1.3-0.3l0.3-0.6
		l0.2-0.3l0,0l0.2-0.2c0.4-0.4,0.4-1,0-1.4C24.5,52.4,23.9,52.4,23.5,52.7L23.5,52.7z"/>
	<path id="_Tracé_61" class="st1" d="M19.9,54.5c-0.9,0.6-1.5,1.5-1.7,2.5c-0.1,0.5,0.2,1,0.7,1.2s1-0.2,1.2-0.7
		c0.1-0.5,0.4-1,0.8-1.3c0.5-0.3,0.6-0.9,0.3-1.3C20.9,54.4,20.4,54.2,19.9,54.5z"/>
	<path id="_Tracé_62" class="st1" d="M22.4,64.1c-0.5-0.3-1-0.6-1.5-0.8c-0.4-0.3-1-0.2-1.3,0.3c0,0,0,0.1-0.1,0.1
		c-0.3,0.5-0.1,1,0.3,1.3c0.5,0.3,1,0.6,1.5,0.8c0.5,0.3,1,0.1,1.3-0.3C22.9,64.9,22.7,64.3,22.4,64.1L22.4,64.1L22.4,64.1z"/>
	<path id="_Tracé_63" class="st1" d="M27.5,67c-0.5-0.3-1-0.1-1.3,0.3c-0.3,0.5-0.1,1,0.3,1.3l0.3,0.2l0,0H27l0.4,0.4
		c0.4,0.4,1,0.4,1.4,0c0.4-0.4,0.4-1,0-1.4l0,0C28.4,67.6,28,67.3,27.5,67z"/>
	<path id="_Tracé_64" class="st1" d="M28.2,73.5c-0.5,0-0.9,0.4-0.9,0.9v0.4c0,0.5,0.4,1,1,1c0.5,0,1-0.4,1-1v-0.4
		C29.2,73.9,28.8,73.5,28.2,73.5z"/>
	<path id="_Tracé_65" class="st1" d="M20.2,68.2L20.2,68.2L20.2,68.2l-0.3-0.3c-0.4-0.4-1-0.4-1.4,0c-0.4,0.4-0.4,1,0,1.4
		c0.4,0.5,1.1,0.9,1.7,0.9c0.5,0,1-0.4,1-1s-0.4-1-1-1L20.2,68.2z"/>
	<path id="_Tracé_66" class="st1" d="M16.3,61.2c0.2-1.2-1.7-1.5-1.9-0.3c-0.1,0.8,0,1.7,0.3,2.4c0.5,1.1,2.3,0.4,1.8-0.7
		C16.3,62.1,16.2,61.7,16.3,61.2z"/>
	<path id="_Tracé_67" class="st13" d="M70.1,61.6c-1.2-0.7-2.6-1.3-4-1.5c-0.6-0.2-1.3,0.2-1.5,0.8c-0.2,0.6,0.2,1.3,0.8,1.5
		c1.2,0.2,2.4,0.7,3.5,1.3c0.6,0.2,1.3-0.1,1.5-0.7C70.6,62.4,70.5,61.9,70.1,61.6z"/>
	<path id="_Tracé_68" class="st13" d="M79,66.3c-0.4-0.2-0.8-0.5-1.2-0.7c-0.6-0.3-1.3-0.1-1.6,0.4c-0.3,0.6-0.1,1.3,0.4,1.6
		c0.4,0.2,0.8,0.5,1.2,0.7c0.6,0.3,1.3,0.1,1.6-0.4C79.8,67.4,79.6,66.7,79,66.3z"/>
	<path id="_Tracé_69" class="st13" d="M69.1,69.2c-1.2-0.7-2.3-1.6-3.6-2.4s-2.5,1.3-1.2,2s2.3,1.6,3.6,2.4
		C69.1,71.9,70.4,70,69.1,69.2z"/>
	<path id="_Tracé_70" class="st13" d="M78.1,76.8c-1.3-0.6-2.4-1.5-3.3-2.6c-0.5-0.5-1.2-0.5-1.7,0c-0.4,0.5-0.4,1.2,0,1.7
		c1,1.3,2.3,2.3,3.8,3C78.3,79.5,79.5,77.4,78.1,76.8z"/>
	<path id="_Tracé_71" class="st13" d="M59,71.3c-0.2-0.6-0.9-0.9-1.6-0.7c-0.5,0.2-0.8,0.7-0.7,1.3c0.2,0.9,0.6,1.8,1.1,2.6
		c0.4,0.5,1.2,0.6,1.7,0.1c0.4-0.3,0.5-0.8,0.3-1.3C59.4,72.7,59.2,72,59,71.3z"/>
	<path id="_Tracé_72" class="st13" d="M63.9,80.2c-0.5-0.4-1.3-0.3-1.7,0.2c-0.4,0.4-0.4,1.1,0,1.5c1.1,1,2.1,2.2,2.9,3.6
		c0.7,1.4,2.7,0.2,2-1.2C66.2,82.8,65.1,81.4,63.9,80.2z"/>
	<path id="_Tracé_73" class="st13" d="M52.5,75v-0.2l0,0c0-0.3,0-0.5,0-0.8c-0.1-0.7-0.7-1.1-1.3-1c-0.5,0.1-1,0.5-1,1
		c0,0.8,0.1,1.5,0.4,2.3c0.3,0.6,1.1,0.7,1.6,0.4c0.5-0.3,0.7-1,0.4-1.6C52.6,75.3,52.5,75,52.5,75z"/>
	<path id="_Tracé_74" class="st13" d="M51.8,84.5c0.5,1.3,0.8,2.7,0.9,4c0.1,0.7,0.7,1.1,1.3,1c0.5-0.1,1-0.5,1-1
		c-0.1-1.6-0.4-3.2-1-4.7C53.6,82.4,51.3,83,51.8,84.5z"/>
	<path id="_Tracé_75" class="st13" d="M45.3,83.8c-0.1-0.7-0.7-1.1-1.3-1c-0.5,0.1-1,0.5-1,1c-0.1,1.6,0,3.2,0.3,4.8
		c0.2,0.6,0.8,1,1.5,0.8c0.6-0.2,1-0.8,0.8-1.5C45.3,86.5,45.3,85.1,45.3,83.8z"/>
	<path id="_Tracé_76" class="st13" d="M25.3,89l-0.7,2.8c-0.1,0.7,0.3,1.3,1,1.4c0.5,0.1,1.1-0.2,1.3-0.7l0.7-2.8
		c0-0.7-0.5-1.2-1.1-1.3C26,88.4,25.5,88.6,25.3,89z"/>
	<path id="_Tracé_77" class="st13" d="M16.9,78.4c-0.6-0.3-1.3-0.1-1.6,0.4c-0.6,1-1,2.2-1.1,3.4c0,1.5,2.3,1.5,2.4,0
		c0.1-0.8,0.4-1.6,0.8-2.2C17.6,79.5,17.4,78.7,16.9,78.4z"/>
	<path id="_Tracé_78" class="st13" d="M10,73.8c-0.2,0.2-0.3,0.3-0.4,0.5l-0.1,0.2c-0.4,0.5-0.3,1.3,0.2,1.7c0.4,0.3,1.1,0.3,1.5,0
		c0.1-0.2,0.3-0.4,0.4-0.6l0.1-0.2c0.4-0.5,0.3-1.3-0.2-1.7C11,73.4,10.4,73.4,10,73.8L10,73.8z"/>
	<path id="_Tracé_79" class="st13" d="M38,87.2c-0.7,0-1.2,0.5-1.2,1.2l0,0v1.4c0.1,0.7,0.7,1.1,1.3,1c0.5-0.1,1-0.5,1-1v-1.4
		C39.2,87.8,38.7,87.2,38,87.2z"/>
	<path id="_Tracé_80" class="st2" d="M48.2,13.9c-1-0.8-1.7-2-2.7-2.7c-1.6-1-3.5-1.2-5.3-0.8c-3.9,0.8-7.2,3.4-8.8,7.1
		c-0.7,1.3-0.9,2.8-0.6,4.2c0.3-3,2.8-5.8,5.1-7.6c1.6-1.2,3.5-1.9,5.5-1.9c1,0,2,0.1,2.9,0.5c2.5,1,4,3.4,6.1,5.2
		c1.4,1.2,2.7,2.7,3.7,4.3c0.4,0.7,0.8,1.3,1.3,1.9c0.4,0.6,0.8,2,1.4,2.9c0.7-2.8-1.4-6.8-3.1-8.9C51.9,16.5,50.1,15.1,48.2,13.9z"
		/>
</g>
</svg>
