<?xml version="1.0" encoding="utf-8"?>
<!-- Generator: Adobe Illustrator 21.0.0, SVG Export Plug-In . SVG Version: 6.00 Build 0)  -->
<svg version="1.1" id="Calque_1" xmlns="http://www.w3.org/2000/svg" xmlns:xlink="http://www.w3.org/1999/xlink" x="0px" y="0px"
	 viewBox="0 0 100 100" style="enable-background:new 0 0 100 100;" xml:space="preserve">
<style type="text/css">
	.st0{fill:#D9C2F0;}
	.st1{fill:#8FBDCB;}
	.st2{fill:#FFFFFF;}
	.st3{fill:none;}
	.st4{fill:#62342D;}
	.st5{fill:#E0DFE5;}
	.st6{fill:#B3897E;}
	.st7{fill:#E29A81;}
	.st8{fill:#714E46;}
	.st9{fill:#E0B3A7;}
	.st10{fill:#E3BDB1;}
	.st11{fill:#917377;}
	.st12{fill:#595959;}
	.st13{fill:#659BC0;}
	.st14{fill:#085EBD;}
	.st15{fill:#492191;}
	.st16{fill:#4BB4E6;}
</style>
<title>Icone Homme</title>
<circle id="_Tracé_" class="st0" cx="49.4" cy="47.1" r="47.1"/>
<g id="_Groupe_">
	<g id="_Groupe_2">
		<path id="_Tracé_2" class="st1" d="M59.6,62.8L59.6,62.8C59.6,62.8,59.6,62.8,59.6,62.8z"/>
	</g>
	<g id="_Groupe_3">
		<path id="_Tracé_3" class="st1" d="M59.6,62.8v-0.2l0,0V62.8z"/>
	</g>
	<g id="_Groupe_4">
		<path id="_Tracé_4" class="st2" d="M57.1,67C57.1,67,57.1,67.1,57.1,67c-0.4,1,1.4,1.5,1.7,0.6C59,66.6,57.3,66.3,57.1,67z"/>
	</g>
	<g id="_Groupe_5">
		<path id="_Tracé_5" class="st3" d="M57.1,66.6C57.1,66.6,57.1,66.8,57.1,66.6c-0.4,1,1.4,1.5,1.7,0.6C59,66.3,57.3,66,57.1,66.6z
			"/>
	</g>
	<path id="_Tracé_6" d="M54.8,5.7c-4-1.7-8.4-2-12.6-0.8c-1.7,0.4-3.2,1.1-4.7,2c-3.3,2-5.2,5.8-4.7,9.7c0,2.2,0.6,4.3,1.8,6.2
		c0.9-3,0.9-5.3,3.3-7.6c1.2-1.2,2.5-2.2,4-3c2.6-1.4,5.3-2.5,8.1-3.2c1.4-0.4,2.8-0.7,4.2-0.8c0.7,0,2.6,0.5,3.2,0
		C58.4,7.3,55.5,6,54.8,5.7z"/>
	<path id="_Tracé_7" class="st4" d="M59.4,28.7c-0.1-1.9,0.7-11.5,0.1-13.2c-1.6-4.8-11.1,2.4-14.1,3.7c-1.7,0.8-3.4,1.9-4.8,3.2
		c-2.5,2.4-3.7,1.7-3,4.8c1.5,6.4,0.3,15.7-0.5,22.4c-0.4,1.6-0.8,3.2-1,4.9c0,1.7,1.8,3.1,2.7,4.5c2.5,3.8,7.1,5.7,11.6,4.8
		c3.5-0.5,6.7-2.2,9.3-4.6c2-2.2,2.2-5.2,5.2-6C59,53.9,59.7,33.2,59.4,28.7z"/>
	<polygon id="_Tracé_8" class="st5" points="50.1,35.1 50.2,35.1 50.1,35.1 	"/>
	<path id="_Tracé_9" class="st6" d="M53.7,13.9l-0.3,0.4L53.7,13.9z"/>
	<path id="_Tracé_10" class="st6" d="M54.2,13.4v-0.2l-0.5,0.7C53.8,13.7,54,13.5,54.2,13.4z"/>
	<path id="_Tracé_11" class="st7" d="M54.4,32.5c-0.1,0.2-0.3,0.3-0.4,0.5L54.4,32.5l0.2-0.2l0,0L54.4,32.5z"/>
	<path id="_Tracé_12" class="st8" d="M61.4,22.4c-1-0.5-2.3-0.2-3.1-1.1c-1.2-1.6-1.8-3.6-1.7-5.6c0.1-2.7-0.4-5.3-1.3-7.8
		c-1.2-2.9-3.9-2.4-6-1.3c-1.6,0.9-3.4,0.6-5,1.2c-1.1,0.5-2.2,1-3.4,1.4c-2.1,0.4-4.1,1.6-5.4,3.3c-2.1,3.5-0.7,7.8-2.1,11.5
		c-1,2.6-0.4,5.5,1.3,7.7c0.5,1.3,1,2.6,1.2,4c0.3,0.9,0.8,2,1.3,3.3c1.2,2.8,2.5,4.7,5.5,4.9c2.4,0,4.8-0.7,6.9-1.8
		c2.9-1,5.3-2.9,7-5.4c1.3-2.2,1.5-5.2,4-6.5c1.8-1.1,2.8-3.2,2.4-5.3C63,23.8,62.3,22.9,61.4,22.4z"/>
	<path id="_Tracé_13" d="M48.5,17.2c-0.9-0.1-1.8-0.3-2.7-0.6c0,1.4,2,2.4,1.8,2.4c0.2,0,2.5-0.4,3.6-0.6c0.4,0,0.6,0,0.6,0
		C51.5,17,49.5,17.2,48.5,17.2z"/>
	<path id="_Tracé_14" class="st4" d="M59.7,25.2c-0.1,0.9-0.1,1.8-0.2,2.7l1.2-0.2C61,26.6,61.4,24.8,59.7,25.2z"/>
	<path id="_Tracé_15" d="M36.4,17.4c-1,0.5-1.8,0.6-1.3,2c0-0.2,2.6-0.5,2.8-0.6c0.3-0.1,0.6-0.2,0.8-0.4c0.5-0.5,0.4-1.2,0.1-2.1
		C39.1,17,38.1,16.6,36.4,17.4z"/>
	<polygon id="_Tracé_16" class="st9" points="52,25.8 52,25.8 52,25.8 	"/>
	<path id="_Tracé_17" class="st10" d="M56.7,21.6L56.7,21.6z"/>
	<path id="_Tracé_18" class="st11" d="M45.2,36.3c-0.7,0-0.7,1.1,0,1.1C45.9,37.4,45.9,36.3,45.2,36.3z"/>
	<path id="_Tracé_19" class="st8" d="M46.8,33c-2-0.5-6.7-2.4-8.4,0c-0.8,1.7-0.3,3.8,1.2,5c1.3,0.7,2.8,0.8,4.2,0.3
		c2-0.6,4.7-2.7,3.6-5L46.8,33z"/>
	<path id="_Tracé_20" class="st4" d="M47.1,31.8c-0.4,0,0,1,0.3,1.1h0.1C47.5,32.9,47.3,31.8,47.1,31.8z"/>
	<path id="_Tracé_21" class="st4" d="M38.4,31.9c0,0-0.6,0.7-0.5,0.8c0.1,0.1,0.5-0.5,0.5-0.7V31.9z"/>
	<path id="_Tracé_22" d="M64.6,32.2c2.6-3.7,4-8.2,3.7-12.8c-0.2-1.6-0.5-3.1-0.9-4.6C66,9.3,61.5,5.1,55.9,4
		c-1.5-0.4-3.1-0.5-4.6-0.5c-1.9,0-3.7,0.4-5.4,1.2c-1.9,0.8-3.3,2.3-4,4.3c4.9,0.2,10.4,1.3,13.1,6.2c0.8,1.6,1.2,3.3,1.4,5
		c0.1,0.9,0.2,3.1,1.2,3.5c0.3,0.1,1.8-0.9,2.4-0.9c4.6-0.2,3.2,7.4-0.5,7.3c-0.4,1.6-2.5,8-0.7,9.1c0.2,0.1,0.4,0.2,0.6,0.3
		C60.2,36.7,63,34.2,64.6,32.2z"/>
	<path id="_Tracé_23" class="st12" d="M35,9.9c-0.6,0.3-1,0.7-1.3,1.3c-0.4,0.8,0.8,1.3,1.2,0.5c0,0,0-0.2,0,0l0,0l0.2-0.2l0,0l0,0
		l0,0c0.3-0.1,0.5-0.5,0.4-0.9C35.6,10.3,35.3,10,35,9.9z"/>
	<path id="_Tracé_24" d="M50.4,21.5c-0.9-0.7-2-0.8-3-0.3c-0.5,0.3-1.4,1.1-1.2,3.2h0.9c-0.1-1.2,0.1-2,0.7-2.3
		c1.1-0.4,2.3,0.1,2.8,1.2c0.1,0.3,0.2,0.7,0.1,1.1l0.9,0.2C51.8,23.3,51.3,22.1,50.4,21.5z"/>
	<path id="_Tracé_25" d="M38.9,22.1c-0.8-0.6-1.8-0.7-2.7-0.3c-0.5,0.3-1.3,1-1.1,2.9h0.8c-0.1-1,0.1-1.8,0.7-2
		c1.1-0.3,2.2,0.3,2.5,1.3c0.1,0.2,0.1,0.5,0.1,0.7l0.8,0.2C40.2,23.8,39.8,22.7,38.9,22.1z"/>
	<path id="_Tracé_26" class="st2" d="M39,33.5c0,0.1,0,0.3,0,0.4c-0.3,1.6,0.8,3.1,2.4,3.3c0.4,0.1,0.8,0,1.2,0
		c1.6-0.3,4.5-1.6,4-3.5C46.4,32.8,38.9,33.8,39,33.5z"/>
	<path id="_Tracé_27" class="st4" d="M41.1,22c-0.5,1.3-0.3,2.9-0.8,4.2c-0.2,0.5-0.4,0.9-0.8,1.2c-0.4,0.4-0.8,0.9-1,1.4
		c-0.8,2.9,2.9,2.1,3.8,0.5C43.1,28.3,43.6,21.7,41.1,22z"/>
	<path id="_Tracé_28" class="st4" d="M47.8,10c-1.9-0.6-4.3-0.3-6-1.5c-1,0.6-2,1.1-3.1,1.5c-1.7,0.9-3.1,2.4-3.8,4.3
		c-0.2,0.6-0.4,3.5-0.6,3.7c1.7-1.7,1.5-4.6,3.3-6.1c1.1-0.9,2.3-1.6,3.6-2c0.8,0,2.6,1,3.5,1.3c2.4,0.6,4.8,0.8,6.6,2.7
		c1.3,1.4,2.3,3,3.1,4.8c0.6,1.3,1.2,2.9,2,4c0.4-3-0.4-6-2.2-8.5C52.6,12.2,50.3,10.7,47.8,10z"/>
	<path id="_Tracé_29" class="st13" d="M28.7,57.6c-3.1,0.4-6.1,1.4-8.8,2.9l0.2,0.7c0.5,1.1,1.1,2.2,1.6,3.2
		c0.6,1.1,1.1,2.2,1.6,3.2c0.6,1.2,1.3,2.3,2.1,3.4l0.6,0.9l0.3,0.3l0,0c0.4,0.5,0.8,1,1.2,1.4c0.8,1,1.7,1.9,2.7,2.7
		c0.5,0.4,1,0.9,1.5,1.3l0.3,0.3l0,0l0.7,0.5c1.2,0.8,2.4,1.6,3.7,2.2c0.7,0.4,1.4,0.7,2,1l1,0.4l0.3,0.1h0.2l0.6,0.2l1.5-2.5
		c3.3-5.6,3.4-11.4-1.2-16.3C37.8,60.8,33.4,57,28.7,57.6z"/>
	<path id="_Tracé_30" class="st14" d="M86.1,62.3c-2.9-2.2-6-4.1-9.2-5.9c-2.7-1.5-6.4-3.8-9.6-3.9c-4-0.1-7.2,3-10.9,4.4
		c-4.6,1.6-9.1,3-13.9,1.5c-2.9-0.9-5.8-3.4-8.7-3.8C24.2,53.1,5,64.1,8.9,75.7c4.8,14.5,19,21.6,32.6,23.7
		c17,2.5,39.9-2.8,51.2-17.2C99.2,73.8,93.3,67.8,86.1,62.3z"/>
	<path id="_Tracé_31" class="st15" d="M64.5,49.8c-2.2,1.5-4.6,2.8-6.9,4c-5.1,2-10.7,2.3-16,0.8c-1.1-0.3-2-0.8-2.9-1.5
		c-0.7-0.6-1.2-1.7-2.3-1.9c-2.6,0-5.2,1-7.1,2.9c-0.3,2.4,6.9,7.1,13.9,8.4c7.4,1.4,15,0.2,21.6-3.5c1.2-0.7,6.3-4.7,5.4-6.1
		C69.3,51.4,66.1,50.7,64.5,49.8z"/>
	<path id="_Tracé_32" class="st14" d="M64.8,52c-0.3-0.3-0.8-0.3-1.1,0.1c-0.3,0.3-0.3,0.8,0,1.1c0.6,0.6,1.2,1.3,1.7,2
		c0.2,0.4,0.7,0.5,1.1,0.2c0.4-0.2,0.5-0.7,0.3-1.1c0,0,0,0,0,0C66.1,53.5,65.5,52.7,64.8,52z"/>
	<path id="_Tracé_33" class="st14" d="M62.5,56.2L62.4,56c-0.4-0.3-0.7-0.7-0.9-1.1c-0.1-0.4-0.6-0.7-1-0.5c-0.4,0.1-0.7,0.6-0.5,1
		c0,0,0,0,0,0c0.3,0.8,0.9,1.5,1.6,2c0.1,0.1,0.3,0.2,0.5,0.1c0.4,0,0.7-0.3,0.7-0.6C62.8,56.6,62.7,56.3,62.5,56.2z"/>
	<path id="_Tracé_34" class="st14" d="M57.7,56.3c-0.4-1-2-0.5-1.5,0.5c0.3,0.8,0.7,1.6,1.2,2.3c0.6,0.8,2,0,1.4-0.9
		C58.2,57.7,57.9,57,57.7,56.3z"/>
	<path id="_Tracé_35" class="st14" d="M54.1,56.7c0-0.4-0.4-0.8-0.8-0.8c-0.4,0-0.8,0.4-0.8,0.8c0,1.3,0.2,2.7,0.5,4
		c0.2,1,1.8,0.5,1.5-0.5C54.3,59.1,54.1,57.9,54.1,56.7z"/>
	<path id="_Tracé_36" class="st14" d="M48.2,56.9c-0.5,1.3-0.7,2.7-0.4,4c0.2,1,1.8,0.5,1.5-0.5c-0.2-0.9-0.1-1.9,0.3-2.8
		C50.1,56.7,48.6,56,48.2,56.9z"/>
	<path id="_Tracé_37" class="st14" d="M44.1,56.8c-0.5,1-1.1,2-1.7,3c-0.2,0.4-0.1,0.9,0.3,1.1c0,0,0,0,0,0c0.4,0.2,0.9,0,1.1-0.3
		c0.7-0.9,1.3-1.9,1.8-3C46,56.6,44.5,55.9,44.1,56.8z"/>
	<path id="_Tracé_38" class="st14" d="M40,55.7c-0.5,0.7-0.9,1.4-1.2,2.1c-0.5,0.9,0.9,1.6,1.4,0.7c0.3-0.6,0.6-1.2,1-1.8
		C41.9,56,40.7,54.9,40,55.7z"/>
	<path id="_Tracé_39" class="st14" d="M36.5,54c-0.4,0.5-0.9,1-1.5,1.3c-0.4,0.1-0.6,0.6-0.5,1s0.6,0.6,1,0.5
		c0.9-0.4,1.6-1,2.2-1.8C38.4,54.2,37.2,53.1,36.5,54z"/>
	<path id="_Tracé_40" class="st16" d="M63.7,66c-11.4,3.7-23.4,1.8-34.1-2.6c-3.5-1.4-5.4,4.6-2,6c11.7,4.7,25,6.8,37.2,2.8
		C68.5,71.1,67.4,64.9,63.7,66z"/>
	
		<ellipse id="_Tracé_41" transform="matrix(0.9983 -5.756403e-02 5.756403e-02 0.9983 -1.2345 2.8749)" cx="49.3" cy="22.9" rx="1" ry="1"/>
	<path id="_Tracé_42" d="M37.9,22.8c-0.4,0-0.8,0.4-0.7,0.8c0,0,0,0,0,0c0.1,0.4,0.5,0.7,0.9,0.7c0.4,0,0.8-0.4,0.7-0.8
		c0,0,0,0,0,0C38.7,23,38.3,22.7,37.9,22.8C37.9,22.8,37.9,22.8,37.9,22.8z"/>
	<path id="_Tracé_43" class="st16" d="M63.7,80.2c-12.5,3.2-25.8,0.8-37.6-4c-3.9-1.6-6.1,4.4-2.3,6c12.8,5.2,27.5,7.8,41,4.3
		C68.8,85.4,67.7,79.1,63.7,80.2z"/>
	<path id="_Tracé_44" class="st16" d="M81.6,71.4c-0.7,0-1.5,0.3-2,0.9l-5.3,4.3c-1.1,1.2-1.1,3,0,4.2c0.5,0.5,1.2,0.8,2,0.9
		c0.7,0,1.5-0.3,2-0.9l5.3-4.3c1.1-1.2,1.1-3,0-4.2C83,71.7,82.3,71.4,81.6,71.4z"/>
	<path id="_Tracé_45" class="st16" d="M74.1,61.1l-0.6,0.3c-1.6,0.3-2.7,1.8-2.5,3.4c0.2,1.4,1.4,2.4,2.8,2.5
		c0.8,0,1.5-0.2,2.2-0.6c0.4-0.2,0.7-0.4,1-0.6c1.4-0.8,1.8-2.6,1.1-4C77.3,60.8,75.5,60.3,74.1,61.1z"/>
	<path id="_Tracé_46" class="st12" d="M52.4,7.4c-0.9-0.4-1.8-0.8-2.8-1c-0.4-0.1-0.8,0.1-0.9,0.5c-0.1,0.4,0.1,0.8,0.5,0.9
		c0.8,0.2,1.7,0.5,2.4,0.9C52.4,9.1,53.1,7.8,52.4,7.4z"/>
	<path id="_Tracé_47" class="st12" d="M56.9,11.6c-0.1-0.4-0.5-0.6-0.9-0.5c-0.4,0.1-0.6,0.5-0.5,0.9c0.3,0.8,0.8,1.4,1.4,2
		c0.3,0.3,0.7,0.3,1,0c0.3-0.3,0.3-0.7,0-1C57.4,12.6,57.1,12.2,56.9,11.6z"/>
	<path id="_Tracé_48" class="st12" d="M61.2,18.6L61.2,18.6l-0.1-0.2c-0.1-0.2-0.2-0.3-0.4-0.4c-0.3-0.3-0.7-0.3-1,0
		c-0.3,0.3-0.3,0.7,0,1l0,0l0,0l0.1,0.2c0.1,0.2,0.2,0.3,0.3,0.5c0.3,0.3,0.7,0.3,1,0C61.4,19.4,61.4,18.9,61.2,18.6L61.2,18.6z"/>
	<path id="_Tracé_49" class="st12" d="M63.4,31.1c-0.3-0.2-0.8-0.1-1,0.3c-0.2,0.4-0.3,0.8-0.3,1.3c0,0.4,0.3,0.7,0.7,0.7
		c0.4,0,0.7-0.3,0.7-0.7v-0.2v-0.2l0,0v-0.1C63.8,31.8,63.7,31.4,63.4,31.1C63.4,31.1,63.4,31.1,63.4,31.1z"/>
	<path id="_Tracé_50" class="st12" d="M59.9,8.6c-0.5-0.7-1.7,0-1.2,0.7s1.1,1.4,1.7,2.1c0.5,0.7,1.7,0,1.2-0.7
		C61,10,60.4,9.4,59.9,8.6z"/>
	<path id="_Tracé_51" class="st12" d="M64.9,17.6c-0.3-0.9-1.7-0.5-1.4,0.4l0.8,2.1c0.3,0.9,1.7,0.5,1.4-0.4L64.9,17.6z"/>
	<path id="_Tracé_52" class="st12" d="M65.4,18.7c-0.4,0-0.7,0.3-0.7,0.7v0.9c0,0.4,0.3,0.7,0.7,0.7s0.7-0.3,0.7-0.7v-0.9
		C66.1,19,65.8,18.7,65.4,18.7z"/>
</g>
</svg>
