<svg xmlns="http://www.w3.org/2000/svg" xmlns:xlink="http://www.w3.org/1999/xlink" width="80" height="80" viewBox="0 0 80 80">
    <defs>
        <path id="a" d="M.063.08h69.903V57H.063z"/>
        <path id="c" d="M0 .012h43.914V42.93H0z"/>
    </defs>
    <g fill="none" fill-rule="evenodd">
        <circle cx="40" cy="40" r="40" fill="#4BB4E7"/>
        <g transform="translate(7 11)">
            <mask id="b" fill="#fff">
                <use xlink:href="#a"/>
            </mask>
            <path fill="#EF7D00" d="M.063 22.808S4.183 1.308 27.12.08c-1.947 1.333-2.829 2.436-3.439 3.841-.487 1.122.705 2.215 1.766 1.595 2.86-1.672 7.531-3.605 12.573-2.435 11.687 2.713 10.716 9.06 18.821 10.232 0 0-4.962 2.909-10.808 1.285-1.482-.412-2.25 1.683-.853 2.322 2.555 1.167 6.212 1.617 10.749 1.617 8.354 0 13.55 5.751 14.036 8.785-7.128-5.373-18.551-2.204-17.766 2.498.853 5.11 10.638 2.656 10.638 2.656s-6.958 8.12-16.162 7.712c-2.173-.097-3.857.065-5.16.369-1.704.397-1.39 2.884.36 2.854 3.228-.056 7.402.578 10.295 3.598-5.22-1.155-9.036-1.08-15.894 3.694-5.386 3.75-10.727 3.622-14.587 2.139-1.022-.393-1.88.836-1.153 1.651.817.917 2.01 1.823 3.747 2.474-12 .693-22.525-9.707-24.039-22.042L.063 22.808z" mask="url(#b)"/>
        </g>
        <path fill="#F9B000" d="M24.948 65a3.121 3.121 0 0 1 .273-1.606 3.228 3.228 0 0 1 4.109-1.666 12.49 12.49 0 0 0 4.473.822c2.802 0 5.542-.913 8.143-2.712 2.23-1.542 4.232-2.67 6.138-3.433a3.56 3.56 0 0 1-2.91-3.115c-.217-1.841.955-3.485 2.787-3.91 1.298-.3 2.797-.453 4.456-.453.427 0 .872.01 1.323.03.192.009.387.013.58.013 3.495 0 6.634-1.379 9.04-2.91-1.137-.12-2.135-.373-2.98-.754-1.863-.84-3.017-2.292-3.338-4.197-.252-1.502.187-2.963 1.27-4.224 1.896-2.205 5.658-3.574 9.821-3.574.628 0 1.251.031 1.867.093-1.716-.94-4.068-1.757-7.062-1.757-5.266 0-8.986-.576-11.708-1.812-1.503-.682-2.277-2.205-1.925-3.79.35-1.578 1.714-2.68 3.315-2.68.321 0 .645.045.963.132a11.61 11.61 0 0 0 3.649.4c-.942-.689-1.757-1.446-2.563-2.194-2.238-2.08-4.554-4.231-10.216-5.537-.866-.2-1.768-.301-2.68-.301-3.357 0-6.394 1.354-8.35 2.49a3.484 3.484 0 0 1-1.746.475 3.486 3.486 0 0 1-2.903-1.586A3.321 3.321 0 0 1 28.572 14c-2.69.633-5.168 1.627-7.406 2.974-2.952 1.776-5.513 4.178-7.613 7.137-3.203 4.513-4.334 8.9-4.553 9.858l.178 11.734a23.725 23.725 0 0 0 2.363 7.664 24.124 24.124 0 0 0 4.707 6.442c2.569 2.504 5.554 4.27 8.7 5.191"/>
        <g transform="translate(6 18)">
            <mask id="d" fill="#fff">
                <use xlink:href="#c"/>
            </mask>
            <path fill="#9D9D9C" d="M43.914 21.47c0 11.851-9.83 21.459-21.957 21.459C9.831 42.929 0 33.32 0 21.47 0 9.62 9.83.012 21.957.012S43.914 9.62 43.914 21.47" mask="url(#d)"/>
        </g>
        <path fill="#575756" d="M48 39.5C48 50.27 39.27 59 28.5 59S9 50.27 9 39.5 17.73 20 28.5 20 48 28.73 48 39.5"/>
        <path fill="#FFF" d="M47 39.5C47 49.717 38.493 58 28 58S9 49.717 9 39.5 17.507 21 28 21s19 8.283 19 18.5"/>
        <path fill="#DADADA" d="M31 40a3 3 0 1 1-6 0 3 3 0 0 1 6 0"/>
        <path fill="#FFE900" d="M20 26.667c-.563.285-1.11.602-1.634.952a15.446 15.446 0 0 0-2.867 2.45c-.215.23-.417.47-.617.713a15.6 15.6 0 0 0-.568.752 14.552 14.552 0 0 0-2.635 6.985 14.309 14.309 0 0 0 .131 3.795c.108.63.253 1.256.444 1.871.19.616.42 1.222.687 1.815a15.952 15.952 0 0 1-.848-1.763A14.801 14.801 0 0 1 11 38.485c.026-2.634.774-5.283 2.155-7.626.17-.294.356-.58.545-.864a16.893 16.893 0 0 1 3.528-3.784c.55-.437 1.13-.84 1.733-1.211L20 26.667z"/>
        <path fill="#EF7D00" d="M34.416 25a16.544 16.544 0 0 1 3.552 2.23l.204.169.2.173c.134.114.262.236.394.354a17.388 17.388 0 0 1 2.12 2.375 17.862 17.862 0 0 1 1.426 2.251c.042.08.084.155.127.239l.127.254c.164.34.317.686.451 1.038a14.94 14.94 0 0 1 .944 4.36c.103 1.48-.003 2.96-.268 4.398A20.718 20.718 0 0 1 42.45 47l-4.628-2.188c.51-.98.926-2 1.216-3.046.289-1.045.461-2.116.481-3.182a10.588 10.588 0 0 0-.386-3.128 9.295 9.295 0 0 0-.243-.736l-.07-.18c-.024-.06-.055-.127-.082-.19a13.97 13.97 0 0 0-2.472-3.864c-.095-.101-.188-.207-.286-.305l-.147-.151-.15-.147A13.277 13.277 0 0 0 33 27.861L34.416 25z"/>
        <path fill="#F9B000" d="M33.55 26.977a14.368 14.368 0 0 0-3.21-1.176 14.966 14.966 0 0 0-3.474-.403 15.655 15.655 0 0 0-3.522.41c-1.156.273-2.29.673-3.358 1.192L19 25.49a18.18 18.18 0 0 1 5.68-2.153A18.038 18.038 0 0 1 35 24.353l-1.45 2.624z"/>
        <path fill="#9D9D9C" d="M31 39.5a2.5 2.5 0 1 1-5 0 2.5 2.5 0 0 1 5 0"/>
        <path fill="#1D1D1B" d="M42.877 42.834a217.822 217.822 0 0 0-13.17-3.745 1.51 1.51 0 0 0-.167-.409c-.407-.682-1.258-.885-1.9-.453-.642.433-.833 1.337-.426 2.02.407.682 1.257.884 1.9.452.122-.083.227-.182.316-.294a216.281 216.281 0 0 0 13.413 2.59c.188.03.216-.103.034-.161M31.483 50.158l-.008 1.416 1.84.01c-.057.603-.257 1.059-.588 1.374-.33.316-.798.472-1.402.468-.411-.002-.76-.087-1.045-.253a2.021 2.021 0 0 1-.693-.662 2.9 2.9 0 0 1-.384-.924 4.536 4.536 0 0 1-.116-1.056c.002-.377.044-.743.128-1.096a2.96 2.96 0 0 1 .394-.944c.18-.276.414-.496.701-.659.288-.163.637-.243 1.047-.24.442.002.817.125 1.125.368.308.243.516.606.621 1.089l1.743.01a3.303 3.303 0 0 0-.376-1.304 3.177 3.177 0 0 0-.79-.957 3.468 3.468 0 0 0-1.078-.592A3.897 3.897 0 0 0 31.366 46c-.635-.004-1.207.11-1.716.34-.508.23-.938.548-1.289.956a4.34 4.34 0 0 0-.81 1.436 5.561 5.561 0 0 0-.288 1.788 5.378 5.378 0 0 0 .269 1.756c.182.544.447 1.017.793 1.421.347.404.773.722 1.279.954.506.232 1.07.345 1.704.349a2.99 2.99 0 0 0 1.206-.247c.396-.17.758-.471 1.085-.903l.175.977 1.184.007L35 50.18l-3.517-.02zm-7.04 1.254l-2.137-.013 2.12-2.92h.033l-.017 2.933zm1.606-5.072l-1.48-.009-3.56 4.89L21 52.806l3.435.021-.011 1.944 1.577.01.011-1.962 1.068.007.008-1.415-1.068-.007.029-5.064z"/>
    </g>
</svg>
