<?xml version="1.0" encoding="utf-8"?>
<!-- Generator: Adobe Illustrator 21.0.0, SVG Export Plug-In . SVG Version: 6.00 Build 0)  -->
<svg version="1.1" id="Calque_1" xmlns="http://www.w3.org/2000/svg" xmlns:xlink="http://www.w3.org/1999/xlink" x="0px" y="0px"
	 viewBox="0 0 100 100" style="enable-background:new 0 0 100 100;" xml:space="preserve">
<style type="text/css">
	.st0{fill:#FFF6B6;}
	.st1{fill:#1C2633;}
	.st2{clip-path:url(#SVGID_2_);}
	.st3{fill:#704F47;}
	.st4{fill:#FF7800;}
	.st5{fill:#828080;}
	.st6{fill:#82C7A6;}
	.st7{clip-path:url(#SVGID_4_);}
	.st8{fill:#297394;}
	.st9{clip-path:url(#SVGID_6_);}
	.st10{clip-path:url(#SVGID_8_);}
	.st11{fill:#E88A33;}
	.st12{fill:#EDE8E0;}
	.st13{fill:#BAE0D1;}
	.st14{clip-path:url(#SVGID_10_);}
	.st15{fill:#4FB2E3;}
	.st16{clip-path:url(#SVGID_12_);}
	.st17{fill:#C29470;}
	.st18{fill:#E0D9D1;}
	.st19{fill:#D9D1C7;}
	.st20{clip-path:url(#SVGID_14_);}
	.st21{fill:#BA8C69;}
	.st22{clip-path:url(#SVGID_16_);}
	.st23{fill:#B5E8F7;}
	.st24{clip-path:url(#SVGID_18_);}
	.st25{clip-path:url(#SVGID_20_);}
	.st26{clip-path:url(#SVGID_22_);}
	.st27{fill:#FFD178;}
	.st28{clip-path:url(#SVGID_24_);}
	.st29{clip-path:url(#SVGID_26_);}
	.st30{fill:#D6D6D6;}
	.st31{clip-path:url(#SVGID_28_);}
	.st32{clip-path:url(#SVGID_30_);}
	.st33{fill:#F27830;}
	.st34{clip-path:url(#SVGID_32_);}
	.st35{clip-path:url(#SVGID_34_);}
	.st36{fill:#DEBDD9;}
	.st37{clip-path:url(#SVGID_36_);}
	.st38{fill:#EDEDE8;}
	.st39{clip-path:url(#SVGID_38_);}
	.st40{fill:#C2E8DB;}
	.st41{clip-path:url(#SVGID_40_);}
	.st42{fill:#C7A88A;}
	.st43{clip-path:url(#SVGID_42_);}
	.st44{fill:#DED9D4;}
	.st45{clip-path:url(#SVGID_44_);}
	.st46{fill:#BDEDFA;}
	.st47{clip-path:url(#SVGID_46_);}
	.st48{fill:#FFDB94;}
	.st49{clip-path:url(#SVGID_48_);}
	.st50{fill:#F28F3B;}
	.st51{clip-path:url(#SVGID_50_);}
	.st52{clip-path:url(#SVGID_52_);}
	.st53{fill:#E0C9E0;}
	.st54{fill:#66403D;}
</style>
<title>Trouver une Agence-ok</title>
<circle class="st0" cx="50" cy="50" r="50"/>
<path class="st1" d="M39,14.3c-0.6-0.2-1.1-0.2-1.7,0c-0.3,0.1-0.6,0.2-0.8,0.4c0,0.2,0,0.5,0.3,0.6c0.4,0.1,0.7,0.1,1.1,0.1
	c0.3,0,0.6-0.1,0.9-0.3C39.2,14.9,39,14.6,39,14.3"/>
<path d="M37.1,14.3c-0.4,0.1-0.8,0.6-0.1,0.7l0,0c0.8,0.1,1.2-0.4,0.9-0.6C37.8,14.2,37.5,14.1,37.1,14.3"/>
<g>
	<defs>
		<circle id="SVGID_1_" cx="50" cy="50" r="50"/>
	</defs>
	<clipPath id="SVGID_2_">
		<use xlink:href="#SVGID_1_"  style="overflow:visible;"/>
	</clipPath>
	<g class="st2">
		<path class="st3" d="M61.7,47.5c-1.9-0.6-4.6-0.3-6.3-1.4c-5-3.3-9.8-6.9-14.3-10.9c-0.9,1.7-1.9,3.3-2.7,4.7
			c-1.1,1.9-2.3,3.6-3.4,5.5c-0.9,1.5-0.7,3.1-2,4.5c-1.7,1.8-4.9,2.2-6.3,4c-1,1.2-0.7,2.7-0.8,4.2C25,65,14.3,72,22.4,78.2
			c3.3,2.5,7.3,4,11,5.6c3,1.2,6.3,1.4,7.9-1.8c1.4-2.7,1.5-5.7,3.9-7.9c2.1-2,5.2-2.5,7.3-4.4c3-2.7,5.4-6.6,7.5-10.1
			c1.8-3.1,4.1-6.5,3.9-10.3C63.9,48.2,62.6,47.8,61.7,47.5"/>
		<path d="M45,80.7C44.6,79.9,23.5,66.2,20.8,66c-1.8-0.1-3.5,2.7-4.3,3.6c-3.2,3.9-34.5,41.5-35.3,49.2h41.2
			c7.7-7.1,19.1-29.3,22.3-35.6C45.3,82.1,45.4,81.4,45,80.7"/>
		<g>
			<path class="st4" d="M20.8,68.1c0-0.3-0.2-0.6-0.6-0.7c-0.3,0-0.6,0.2-0.6,0.5c0,0.1,0,0.2-0.1,0.3c0,0.1,0,0.1-0.1,0.1
				c0,0.1-0.1,0.1-0.1,0.2c-0.1,0.3,0,0.7,0.3,0.8c0.3,0.1,0.7,0,0.8-0.3C20.6,68.7,20.7,68.4,20.8,68.1"/>
			<path class="st4" d="M23.4,70.3c0.2-0.2,0.2-0.5,0.1-0.7c-0.1-0.3-0.5-0.4-0.7-0.2c0,0,0,0,0,0h-0.1l-0.3,0.3v0.1
				c-0.2,0.2-0.2,0.5-0.1,0.7c0.1,0.3,0.5,0.4,0.7,0.2c0,0,0,0,0,0h0.1L23.4,70.3L23.4,70.3"/>
			<path class="st4" d="M21.7,73.1L21.7,73.1c0.2-0.2,0.3-0.5,0.1-0.8c-0.1-0.3-0.5-0.4-0.7-0.2c0,0,0,0,0,0H21
				c-0.3,0.2-0.4,0.6-0.5,0.9c-0.1,0.3,0.1,0.7,0.4,0.7c0.3,0.1,0.7-0.1,0.7-0.4C21.7,73.2,21.7,73.2,21.7,73.1L21.7,73.1"/>
			<path class="st4" d="M26.6,72.5c0.1-0.3,0-0.7-0.3-0.8c-0.3-0.1-0.7,0-0.8,0.3l0,0l-0.6,0.9c-0.2,0.3-0.2,0.7,0.1,0.9
				c0.2,0.2,0.6,0.2,0.8,0C26.1,73.3,26.4,72.9,26.6,72.5"/>
			<path class="st4" d="M24.4,74.7c-0.3-0.1-0.6,0.1-0.7,0.3c0,0.1,0,0.1,0,0.2l0,0c0,0.1-0.1,0.1-0.1,0.2l0,0
				c-0.2,0.2-0.3,0.5-0.2,0.8c0.1,0.3,0.5,0.4,0.7,0.2c0,0,0,0,0,0h0.1c0.3-0.2,0.6-0.6,0.7-1C25,75.1,24.7,74.8,24.4,74.7"/>
			<path class="st4" d="M28.9,75.6L28.9,75.6c0-0.1,0.1-0.1,0.1-0.2s0.2-0.3,0.2-0.5c0-0.3-0.2-0.6-0.6-0.7c-0.3,0-0.6,0.2-0.6,0.5
				v0.1l0,0c0,0.1-0.1,0.1-0.1,0.2s-0.2,0.3-0.2,0.5c-0.1,0.3,0.1,0.6,0.3,0.7h0.2C28.5,76.2,28.8,75.9,28.9,75.6L28.9,75.6"/>
			<path class="st4" d="M27.8,78.8c0.1-0.3,0-0.7-0.3-0.8c-0.3-0.1-0.7,0-0.8,0.3l0,0c-0.3,0.4-0.5,1-0.6,1.5
				c-0.1,0.3,0.2,0.7,0.5,0.7c0.3,0.1,0.6-0.1,0.7-0.4C27.3,79.6,27.5,79.2,27.8,78.8"/>
			<path class="st4" d="M32.2,77.5L32.2,77.5c0-0.1,0.1-0.1,0.1-0.2s0.2-0.3,0.2-0.5c0-0.3-0.2-0.6-0.6-0.7c-0.3,0-0.6,0.2-0.6,0.5
				v0.1l0,0c0,0.1-0.1,0.1-0.1,0.2S31,77.2,31,77.4c-0.1,0.3,0.1,0.6,0.3,0.7h0.2C31.8,78,32.1,77.8,32.2,77.5L32.2,77.5"/>
			<path class="st4" d="M30.5,81.2c0-0.3-0.2-0.6-0.6-0.7c-0.3,0-0.6,0.2-0.6,0.5l0,0c0,0.1-0.1,0.1-0.1,0.2s-0.2,0.3-0.3,0.4
				c-0.1,0.3,0,0.7,0.3,0.8c0.3,0.1,0.7,0,0.8-0.3C30.2,81.9,30.4,81.5,30.5,81.2"/>
			<path class="st4" d="M34.4,79.2c0-0.3-0.2-0.6-0.6-0.7c-0.3,0-0.6,0.2-0.6,0.5L33,79.7c0,0.3,0.2,0.6,0.6,0.7
				c0.3,0,0.6-0.2,0.6-0.5L34.4,79.2z"/>
			<path class="st4" d="M33.2,84C33.2,83.9,33.2,83.9,33.2,84c0.2-0.2,0.2-0.4,0.3-0.5c0-0.3-0.2-0.6-0.6-0.7
				c-0.3,0-0.6,0.2-0.6,0.5l0,0c0,0.1,0,0.1-0.1,0.1c-0.1,0.1-0.1,0.3-0.2,0.4c-0.1,0.3,0.1,0.6,0.3,0.7h0.2
				C32.8,84.6,33.1,84.3,33.2,84z"/>
			<path class="st4" d="M32,86.3c0-0.3-0.3-0.6-0.6-0.6s-0.6,0.3-0.6,0.6v0.2l0,0v0.2c0-0.1-0.1,0.1-0.1,0.1l-0.1,0.1l0,0
				c-0.3,0.2-0.4,0.5-0.2,0.8c0.2,0.3,0.5,0.4,0.8,0.2C31.8,87.6,32.1,87,32,86.3"/>
			<path class="st4" d="M39,79.6c0-0.3-0.3-0.6-0.6-0.6c-0.3,0-0.6,0.3-0.6,0.6v0.1l0,0v0.1l0,0c-0.1,0.2-0.2,0.3-0.2,0.4
				c-0.1,0.3,0,0.7,0.3,0.8c0.3,0.1,0.7,0,0.8-0.3C38.9,80.4,39,80,39,79.6"/>
			<path class="st4" d="M37.2,83.5c0.1-0.3-0.2-0.7-0.5-0.7c-0.3-0.1-0.6,0.1-0.7,0.4c-0.2,0.4-0.4,0.8-0.6,1.2
				c-0.1,0.3-0.1,0.7,0.3,0.8c0.2,0.2,0.5,0.1,0.7-0.1c0-0.1,0.1-0.1,0.1-0.2C36.7,84.5,37,84,37.2,83.5"/>
			<path class="st4" d="M35.1,87.4c0.2-0.3,0.2-0.7-0.1-0.9c-0.2-0.2-0.6-0.2-0.8,0c-0.3,0.5-0.6,1-0.8,1.5
				c-0.1,0.3-0.1,0.7,0.3,0.8c0.2,0.2,0.5,0.1,0.7-0.1c0-0.1,0.1-0.1,0.1-0.2C34.7,88.3,34.8,87.8,35.1,87.4"/>
			<path class="st4" d="M41.6,82.8c0.3-0.2,0.3-0.6,0.1-0.9c-0.2-0.3-0.6-0.3-0.9-0.1l-0.1,0.1c-0.4,0.5-0.7,1-0.9,1.6
				c-0.1,0.3-0.1,0.7,0.3,0.8c0.2,0.2,0.5,0.1,0.7-0.1c0-0.1,0.1-0.1,0.1-0.2C41.1,83.6,41.3,83.2,41.6,82.8"/>
			<path class="st4" d="M28.9,84.6c0-0.2-0.1-0.3-0.2-0.5c-0.1-0.3-0.5-0.4-0.7-0.2c0,0,0,0,0,0h-0.1c-0.3,0.1-0.4,0.5-0.2,0.7v0.1
				c0,0.3,0.2,0.6,0.6,0.7c0.3,0,0.6-0.2,0.6-0.5C28.8,84.9,28.9,84.7,28.9,84.6"/>
			<path class="st4" d="M17.5,70.7c-0.2-0.1-0.5,0-0.6,0.2c0,0,0,0.1,0,0.2c0,0.1-0.1,0.2-0.1,0.3v0.1c-0.2,0.2-0.3,0.5-0.1,0.7l0,0
				c0.2,0.2,0.4,0.3,0.7,0.2c0.3-0.3,0.5-0.6,0.6-1C17.9,71.1,17.8,70.8,17.5,70.7"/>
			<path class="st4" d="M19.3,75.6c0.1-0.3-0.1-0.5-0.4-0.6s-0.5,0.1-0.6,0.4l0,0l0,0v0.1l0,0v0.1c-0.1,0.2-0.2,0.4-0.4,0.5
				c-0.2,0.2,0,0.6,0.2,0.7c0.3,0.1,0.5,0,0.7-0.2C19,76.3,19.2,75.9,19.3,75.6"/>
			<path class="st4" d="M22,77.8c-0.3-0.2-0.6,0-0.8,0.2c-0.1,0.1-0.2,0.2-0.2,0.4c-0.1,0.1-0.1,0.2-0.2,0.2
				c-0.3,0.2-0.4,0.5-0.2,0.8c0.2,0.3,0.5,0.4,0.8,0.2l0,0c0.4-0.3,0.7-0.7,0.9-1.1C22.4,78.4,22.3,78,22,77.8"/>
			<path class="st4" d="M25.1,83.4c0-0.2-0.1-0.5-0.2-0.7c-0.2-0.3-0.5-0.4-0.8-0.2c-0.3,0.2-0.4,0.5-0.2,0.8l0,0
				c0,0.1,0,0.1-0.1,0.1c-0.2,0.3-0.1,0.6,0.2,0.8c0.3,0.2,0.6,0,0.8-0.2C25,83.9,25.1,83.6,25.1,83.4"/>
			<path class="st4" d="M38.7,88.4c0.1-0.1,0.1-0.2,0.2-0.3l0,0c0.3-0.1,0.4-0.5,0.2-0.7v-0.1c-0.1-0.3-0.5-0.4-0.7-0.2c0,0,0,0,0,0
				h-0.1c-0.3,0.2-0.5,0.5-0.7,0.8c-0.2,0.3-0.1,0.6,0.2,0.8C38.2,88.8,38.6,88.7,38.7,88.4L38.7,88.4"/>
			<path class="st4" d="M12.4,82.9c0-0.3-0.2-0.6-0.6-0.7c-0.3,0-0.6,0.2-0.6,0.5c0,0.1,0,0.2-0.1,0.3c0,0.1,0,0.1-0.1,0.1
				c0,0.1-0.1,0.1-0.1,0.2c-0.1,0.3,0,0.7,0.3,0.8c0.3,0.1,0.7,0,0.8-0.3C12.2,83.5,12.3,83.2,12.4,82.9"/>
			<path class="st4" d="M15.1,85.1c0.2-0.2,0.2-0.5,0.1-0.7c-0.1-0.3-0.5-0.4-0.7-0.2c0,0,0,0,0,0h-0.1l-0.3,0.3v0.1
				c-0.2,0.2-0.2,0.5-0.1,0.7c0.1,0.3,0.5,0.4,0.7,0.2c0,0,0,0,0,0h0.1L15.1,85.1C15,85.2,15,85.1,15.1,85.1"/>
			<path class="st4" d="M13.4,87.9L13.4,87.9c0.2-0.2,0.3-0.5,0.1-0.8c-0.1-0.3-0.5-0.4-0.7-0.2c0,0,0,0,0,0h-0.1
				c-0.3,0.2-0.4,0.6-0.5,0.9c0,0.3,0.2,0.6,0.6,0.7C13.1,88.4,13.3,88.3,13.4,87.9C13.3,88,13.4,88,13.4,87.9"/>
			<path class="st4" d="M18.3,87.3c0.1-0.3,0-0.7-0.3-0.8c-0.3-0.1-0.7,0-0.8,0.3l0,0l-0.6,0.9c-0.3,0.2-0.3,0.6-0.1,0.9
				c0.2,0.3,0.6,0.3,0.9,0.1l0.1-0.1C17.7,88.2,18,87.7,18.3,87.3"/>
			<path class="st4" d="M24,88.4L24,88.4c0-0.1,0.1-0.1,0.1-0.2s0.2-0.3,0.2-0.5c0-0.3-0.2-0.6-0.6-0.7c-0.3,0-0.6,0.2-0.6,0.5v0.1
				l0,0c0,0.1-0.1,0.1-0.1,0.2s-0.2,0.3-0.2,0.5c-0.1,0.3,0.1,0.6,0.3,0.7h0.2C23.6,89,23.9,88.7,24,88.4L24,88.4"/>
			<path class="st4" d="M21.6,82.9L21.6,82.9c0-0.1,0.1-0.1,0.1-0.2s0.2-0.3,0.2-0.5c0-0.3-0.2-0.6-0.6-0.7c-0.3,0-0.6,0.2-0.6,0.5
				v0.1l0,0c0,0.1-0.1,0.1-0.1,0.2s-0.2,0.3-0.2,0.5c-0.1,0.3,0.1,0.6,0.3,0.7h0.2C21.2,83.5,21.5,83.2,21.6,82.9L21.6,82.9"/>
			<path class="st4" d="M20.3,86L20.3,86c0-0.1,0.1-0.1,0.1-0.2s0.2-0.3,0.2-0.5c0-0.3-0.2-0.6-0.6-0.7c-0.3,0-0.6,0.2-0.6,0.5v0.1
				l0,0c0,0.1-0.1,0.1-0.1,0.2s-0.2,0.3-0.2,0.5c-0.1,0.3,0.1,0.6,0.3,0.7h0.2C19.9,86.6,20.2,86.3,20.3,86L20.3,86"/>
			<path class="st4" d="M16.6,82.7L16.6,82.7c0-0.1,0.1-0.1,0.1-0.2s0.2-0.3,0.2-0.5c0-0.3-0.2-0.6-0.6-0.7c-0.3,0-0.6,0.2-0.6,0.5
				v0.1l0,0c0,0.1-0.1,0.1-0.1,0.2s-0.2,0.3-0.2,0.5c-0.1,0.3,0.1,0.6,0.3,0.7h0.2C16.2,83.2,16.5,83,16.6,82.7L16.6,82.7"/>
			<path class="st4" d="M15.9,78.1L15.9,78.1c0-0.1,0.1-0.1,0.1-0.2s0.2-0.3,0.2-0.5c0-0.3-0.2-0.6-0.6-0.7c-0.3,0-0.6,0.2-0.6,0.5
				v0.1l0,0c0,0.1-0.1,0.1-0.1,0.2s-0.2,0.3-0.2,0.5c-0.1,0.3,0.1,0.6,0.3,0.7h0.2C15.5,78.7,15.8,78.4,15.9,78.1L15.9,78.1"/>
			<path class="st4" d="M12.5,80L12.5,80c0-0.1,0.1-0.1,0.1-0.2s0.2-0.3,0.2-0.5c0-0.3-0.2-0.6-0.6-0.7c-0.3,0-0.6,0.2-0.6,0.5v0.1
				l0,0c0,0.1-0.1,0.1-0.1,0.2s-0.2,0.3-0.2,0.5c-0.1,0.3,0.1,0.6,0.3,0.7h0.2C12.1,80.6,12.4,80.3,12.5,80L12.5,80"/>
			<path class="st4" d="M14.1,75.5L14.1,75.5c0-0.1,0.1-0.1,0.1-0.2s0.2-0.3,0.2-0.5c0-0.3-0.2-0.6-0.6-0.7c-0.3,0-0.6,0.2-0.6,0.5
				v0.1l0,0c0,0.1-0.1,0.1-0.1,0.2s-0.2,0.3-0.2,0.5c-0.1,0.3,0.1,0.6,0.3,0.7h0.2C13.7,76.1,14,75.8,14.1,75.5L14.1,75.5"/>
			<path class="st4" d="M9.1,85.5c-0.2-0.1-0.5,0-0.6,0.2c0,0,0,0.1,0,0.2c0,0.1-0.1,0.2-0.1,0.3v0.1c-0.2,0.2-0.3,0.5-0.1,0.7l0,0
				c0.2,0.2,0.4,0.3,0.7,0.2c0.3-0.3,0.5-0.6,0.6-1C9.6,85.9,9.4,85.6,9.1,85.5"/>
		</g>
		<path class="st3" d="M68.8,41.1c0.6,0.1,1.1,0.3,1.6,0.6c0.2,0.2-4.4,8.3-6.5,6.6C61.3,46.1,66.2,40.8,68.8,41.1"/>
		<path class="st3" d="M64.2,34.7c-1.2,0.5-2.6,1.4-3.4,1c-1.1-0.6,1.9-2.9,2.5-3.4c0.9-0.8,1.8-1.7,2.7-2.6
			c0.5-0.6,1.2-1.4,0.7-2.2s-1.5-0.1-2.1,0.3c-3,1.9-5.8,4-8.6,6.2c-1.5,1.1-3,2.3-4.6,3.4c-1,0.8-2.1,1.9-3.4,1.6
			c-1-0.2-2.1-1.4-2.8-0.1c-0.4,0.9-0.6,1.8-0.7,2.8c-0.1,0.8-0.2,1.7-0.4,2.5c-0.2,1.3-0.2,2.5,0,3.8c0,1.9-0.2,3.9-0.6,5.8
			c0.6,2,0.5,3.9,2.8,4.1c2.1,0.2,4.2-0.4,6-1.5c1-0.6,1.2-1.4,2.4-1.2c1,0.2,2,1,3.1,0.8c0.9-0.2,1.5-1.5,2-2.2
			c1.2-1.7,4.8-5.2,3.9-7.5c-0.8-2-1.2-2-0.4-4.3c0.7-1.9,2.8-3.7,2.8-5.9C66.3,34.1,65.3,34.2,64.2,34.7"/>
		<path class="st3" d="M64.3,22.4l-0.9,1.2c-0.6,0.9-0.8,2.7-2,3s-1.9-2-2.1-2.9c-0.5-2.1,1.5-3.6,3.1-4.6c1.8-1.1,3.5-0.8,4.4,1.1
			C65.8,20.8,65,21.5,64.3,22.4"/>
		<path class="st3" d="M65,34.6l-0.5,1c0,0.2,0.5,2.9,0.7,2.8c1.4-0.6,2.9-2.4,2.3-4c-0.3-0.7-1.6-2.4-2.4-1.5
			C64.6,33.4,65.2,34.1,65,34.6"/>
		<path class="st5" d="M58.9,13.1c-1.6-0.9-3.3-0.7-5.3-0.4s-4.7,0.5-6.8,0.7s-4.1,0.4-6,0.7s-4.7,0.5-6.1,1.7
			c-1.2,1-1.7,3.2-1.7,4.8c-0.1,3.2,0.7,6.4,1.1,9.6c0.5,3.9,0.9,7.6,1.3,11.5c0.3,2.9,0.8,6.8,1.2,9.7c0.4,2.5,0.4,4.3,0.8,6.8
			c0.3,1.8,0.1,4.1,2,5.3c1.3,0.6,2.8,0.9,4.2,0.8c2.1-0.1,4.1-0.5,6.2-0.7c2.4-0.2,4.8-0.6,7.2-1.1c2.1-0.4,4.7-0.2,6.6-1.2
			c2.2-1.1,2.5-3.4,2.3-5.9c-0.9-9.6-2.5-19.1-3.3-28.6c-0.2-2.6-0.8-5.3-1.2-8C61.1,16.7,61.1,14.4,58.9,13.1"/>
		<path class="st4" d="M56.8,16.8c-3.6,0.5-7.3,0.7-10.8,1.3c-2.7,0.4-5.6,0.1-8.2,1.1c-3.3,1.3-3.5,4.3-3.1,7.5
			c0.2,1.9,0.4,3.8,0.7,5.6c0.5,4.4,1.1,8.9,1.6,13.3c0.3,2.5,0.6,4.9,0.9,7.4c0.2,2-0.1,4.5,1.1,6.3c0.1,0.2,0.3,0.4,0.5,0.5
			c1.3,1.1,3.3,0.3,4.9,0.1c4.4-0.5,8.9-1.1,13.3-1.6c2.4-0.3,4.7-0.6,7.1-0.8l0,0l-2.1-17.4c-0.8-6.7-1.5-13.4-2.1-20.1
			C60.3,17.4,59.3,16.4,56.8,16.8"/>
		<path d="M60.9,56.1c-1.4,0.2-15.6,1.9-17.3,2.1c-4.6,0.6-4.4-2.9-4.5-3.5c-0.1-1.2-0.2-1.4-0.3-2.3c-0.1-0.5-0.9-7.4-1.2-10.3
			c-0.1-0.8-0.2-1.5-0.3-2.3s-0.2-1.7-0.3-2.6c-0.2-1.5-1.5-12.8-1.7-14.3c-0.4-2.8,2-3.4,3.2-3.5c1.4-0.2,2.5-0.3,3.9-0.5
			c2.9-0.4,5.9-0.7,8.8-1c2-0.2,2.9-0.3,4.9-0.6c1.7-0.2,3.3-0.1,3.6,2.6c0.1,0.7,0.2,1.5,0.3,2.2c0.2,1.9,3.5,29.1,3.7,30.8
			C63.8,53.4,64.2,55.7,60.9,56.1 M55.6,13.9c-4.1,0.5-15.1,1.7-18.4,2.1c-4.3,0.5-3.5,5.9-3.4,7.5c0,0.5,1.8,15,3,25.5
			c0.7,5.9,1.3,10.6,1.3,10.7c0.5,4.5,2.8,5,5.8,4.6c3.2-0.4,12.5-1.5,15.7-1.9c6.6-0.8,6.3-2.6,5.9-6.6c-0.2-1.3-0.9-8.3-1.8-15.7
			S62,24.8,61.6,21.8c-0.1-0.4-0.1-0.8-0.2-1.2C61.2,17.7,60.7,13.3,55.6,13.9"/>
		<path d="M50.9,15.5c-0.9,0.1-1.4,0.2-2.1,0.3s-2.6,0.3-4,0.5c-0.3,0-3.7,0.2-2.5,1.1c0.4,0.3,1.1,0,1.5,0c1-0.1,2.4-0.3,3.6-0.4
			s2.1-0.2,3.7-0.4C52.5,16.4,52,15.4,50.9,15.5"/>
		<path class="st6" d="M38.7,53.1v0.2l0,0C38.8,53.2,38.7,53.2,38.7,53.1z"/>
		<path class="st5" d="M55.6,59c-0.7-0.1-1.3-0.1-2,0c-1,0.1-2,0.2-3,0.4c-0.5,0.1-3.2,0.2-1.9,1.6c0.4,0.2,0.8,0.3,1.3,0.3
			c0.8,0,1.8-0.2,2.7-0.3s1.5-0.2,2.7-0.3S57,59.2,55.6,59"/>
		<g>
			<defs>
				<polygon id="SVGID_3_" points="35.4,23.7 39.2,55.8 63.6,52.2 59.8,20.6 				"/>
			</defs>
			<clipPath id="SVGID_4_">
				<use xlink:href="#SVGID_3_"  style="overflow:visible;"/>
			</clipPath>
			<g class="st7">
				<path class="st8" d="M53.2,25.6l0.1-0.3l0.8-0.1c0.1,0,0.1-0.1,0.1-0.2v-0.5c0-0.1-0.1-0.2-0.2-0.2l-0.9,0.1
					c-0.1,0-0.1,0.1-0.1,0.2v0.5c0,0.1,0,0.1,0.1,0.2S53.1,25.6,53.2,25.6"/>
			</g>
		</g>
		<g>
			<defs>
				<polygon id="SVGID_5_" points="35.4,23.7 39.2,55.8 63.6,52.2 59.8,20.6 				"/>
			</defs>
			<clipPath id="SVGID_6_">
				<use xlink:href="#SVGID_5_"  style="overflow:visible;"/>
			</clipPath>
			<g class="st9">
				<path class="st8" d="M53.5,28l0.5-0.1c0.1,0,0.1-0.1,0.1-0.2v-0.5c0-0.1-0.1-0.2-0.2-0.2l-0.6,0.1c-0.1,0-0.1,0.1-0.1,0.2v0.5
					c0,0.1,0,0.1,0.1,0.2H53.5"/>
			</g>
		</g>
		<g>
			<defs>
				<polygon id="SVGID_7_" points="35.4,23.7 39.2,55.8 63.6,52.2 59.8,20.6 				"/>
			</defs>
			<clipPath id="SVGID_8_">
				<use xlink:href="#SVGID_7_"  style="overflow:visible;"/>
			</clipPath>
			<g class="st10">
				<path class="st11" d="M57.6,30.1l-0.1-0.3l-0.6,0.1c-0.1,0-0.2-0.1-0.2-0.2v-0.5c0-0.1,0.1-0.2,0.2-0.2l0.7-0.1
					c0.1,0,0.2,0.1,0.2,0.2v0.5c0,0.1,0,0.2-0.1,0.2S57.6,30.1,57.6,30.1"/>
			</g>
		</g>
		<polygon class="st12" points="35.5,24.1 39.1,54.8 63.6,51.7 59.9,21.1 		"/>
		<polygon class="st13" points="41.9,24.9 41.2,25.2 49.5,25.4 52.6,23.5 		"/>
		<polygon class="st13" points="39.1,38.3 41.1,39.1 45.8,33.4 52.6,30 48.2,29.6 		"/>
		<g>
			<defs>
				<polygon id="SVGID_9_" points="35.5,24.1 39.1,54.8 63.6,51.7 59.9,21.1 				"/>
			</defs>
			<clipPath id="SVGID_10_">
				<use xlink:href="#SVGID_9_"  style="overflow:visible;"/>
			</clipPath>
			<g class="st14">
				<path class="st15" d="M63.4,24.2l-1.1-1.4c0,0-5.5,0.3-6.6,0.6c-0.6,0.2-1.3,0.3-1.9,0.2c-0.6,0.1-1.3,0.6-0.9,0.9
					c0.6,0.3,1.3,0.3,1.9,0c0.6-0.2,1.3-0.3,2-0.3C58.7,24.8,63,24.2,63.4,24.2"/>
			</g>
		</g>
		<g>
			<defs>
				<polygon id="SVGID_11_" points="35.5,24.1 39.1,54.8 63.6,51.7 59.9,21.1 				"/>
			</defs>
			<clipPath id="SVGID_12_">
				<use xlink:href="#SVGID_11_"  style="overflow:visible;"/>
			</clipPath>
			<g class="st16">
				<path class="st15" d="M36.2,35.8c0.6-0.4,1.4-0.6,1.8-1.2c0.3-0.4,0.6-0.7,0.9-1c0.3-0.3,0.7-0.1,1.4-0.4
					c0.9-0.4,1.4-0.2,0.9,0.6s-1.7,1-1.9,1.4s-0.4,2-2.8,1.4C36.4,36.6,35.6,36.4,36.2,35.8"/>
			</g>
		</g>
		<polygon class="st17" points="39.7,43.3 43.4,45.3 45.4,43.8 41.1,41.6 		"/>
		<polygon class="st18" points="38,45.5 38.8,52.5 42.4,50.2 40.8,47.5 42.8,45.9 39.3,43.9 		"/>
		<polygon class="st17" points="52.6,36.1 53.1,36.7 54.1,36.2 53.6,35.6 		"/>
		<polygon class="st17" points="54.2,38.2 54.8,38.9 55.9,38.4 55.3,37.6 		"/>
		<polygon class="st17" points="50.5,37 50.9,37.7 52,37.2 51.5,36.5 		"/>
		<polygon class="st17" points="51.2,38.1 51.7,38.8 52.8,38.3 52.2,37.6 		"/>
		<polygon class="st17" points="55.2,36.1 55.8,36.7 56.8,36.2 56.2,35.6 		"/>
		<polygon class="st17" points="51.5,31.8 52.1,32.4 53.1,32 52.5,31.4 		"/>
		<polygon class="st17" points="37.4,40.8 37.5,41 38.8,41.8 39.7,40.9 38.1,40 		"/>
		<polygon class="st17" points="59.4,34.5 60.1,35 60.8,34.4 60.1,33.9 		"/>
		<polygon class="st17" points="60.7,33.4 61.4,33.9 61.4,33.9 61.3,32.9 		"/>
		<polygon class="st17" points="56.2,30.9 57.8,31.8 58.5,31.4 56.7,30.7 		"/>
		<polygon class="st17" points="51.9,39.2 52.5,40 53.6,39.5 53,38.7 		"/>
		<polygon class="st17" points="36.6,26.9 35.8,26.9 35.9,27.4 40.4,27.3 41.5,26.7 37.3,26.5 		"/>
		<polygon class="st17" points="42,26.1 43.7,26.1 44,26 42.3,25.9 		"/>
		<polygon class="st17" points="39.1,25.9 40.8,25.9 41.1,25.8 39.4,25.7 		"/>
		<polygon class="st17" points="35.9,25.6 37.6,25.7 37.9,25.5 36.2,25.5 		"/>
		<polygon class="st17" points="45,26.2 46.8,26.3 47.1,26.1 45.3,26 		"/>
		<polygon class="st17" points="52.2,25.8 52.4,25.9 54.1,25.6 53.8,25.5 		"/>
		<polygon class="st17" points="54.8,25.3 55,25.4 56.6,25.1 56.4,25 		"/>
		<polygon class="st17" points="57.4,29.2 60.9,29.5 60.8,28.6 57.6,28.5 		"/>
		<polygon class="st17" points="49.7,28.5 52.4,28.8 52.6,28.3 49.9,28.1 		"/>
		<polygon class="st17" points="41.1,28.7 40.6,29.2 41.4,29.2 42,28.6 		"/>
		<polygon class="st17" points="44.2,27.7 45,27.6 45.4,27.2 44.7,27.2 		"/>
		<polygon class="st17" points="38.8,28.9 38.2,29.5 38.9,29.4 39.6,28.8 		"/>
		<polygon class="st19" points="56.3,25.5 52.3,26.2 52.8,26.6 55.2,26.3 58.2,26.8 60.5,26.3 60.5,25.9 60.4,25.2 		"/>
		<g>
			<defs>
				<polygon id="SVGID_13_" points="35.5,24.1 39.1,54.8 63.6,51.7 59.9,21.1 				"/>
			</defs>
			<clipPath id="SVGID_14_">
				<use xlink:href="#SVGID_13_"  style="overflow:visible;"/>
			</clipPath>
			<g class="st20">
				<path class="st19" d="M53.5,32.7l-3.9,1.4h-0.1c-0.1,0-0.1,0-0.2-0.1l-0.8-1.1l-2,1.1L46,34.6c0.2,0.3,0.4,0.6,0.5,1
					c0.5-0.5,1.2-0.8,1.9-0.9h0.5c0.9,0,1.7,0.3,2.3,0.9l2.2-0.9h0.1l1.4-0.6L53.5,32.7z"/>
			</g>
		</g>
		<polygon class="st18" points="35.7,26.4 35.8,26.9 36.6,26.9 37.3,26.5 41.5,26.7 40.4,27.3 35.9,27.4 35.9,27.5 35.9,27.7 
			43,27.6 44.4,26.5 35.7,25.9 		"/>
		<polygon class="st21" points="36.6,26.9 35.8,26.9 35.9,27.4 40.4,27.3 41.5,26.7 37.3,26.5 		"/>
		<polygon class="st18" points="44.6,29.6 43.2,32.2 46.5,29.4 45.7,29.2 		"/>
		<g>
			<defs>
				<polygon id="SVGID_15_" points="35.5,24.1 39.1,54.8 63.6,51.7 59.9,21.1 				"/>
			</defs>
			<clipPath id="SVGID_16_">
				<use xlink:href="#SVGID_15_"  style="overflow:visible;"/>
			</clipPath>
			<g class="st22">
				<path class="st23" d="M42.6,26.4l1.6,0.1l-1,1H41L42.6,26.4z M42.9,28l1.5-1.5l1.7,0.1l-0.9,1.2L42.9,28z M48.4,25.7
					c0-0.1,0-0.1-0.1-0.1c-0.2,0-3.2-0.1-5.8-0.2l0,0c-0.9,0-5.3-0.3-6-0.3c-0.1,0-0.2,0-0.2,0.1c0,0.1,0,0.1,0.1,0.1
					c0.7,0,5.1,0.3,5.7,0.3l-1,0.5l-7.3-0.5c-0.1,0-0.2,0-0.2,0.1v0.1l8.7,0.6l-1.8,1.1l-6.6,0.1c-0.1,0-0.1,0-0.2,0.1
					c0,0.1,0,0.1,0.1,0.1l9.2-0.1l-0.5,0.4l-7.1,0.7c-0.1,0-0.1,0-0.2,0.1c0,0.1,0,0.1,0.1,0.1l3-0.3l-2.5,2.4
					c-0.1,0.1-0.1,0.2,0,0.2h0.1c0.1,0,0.1,0,0.2-0.1l2.6-2.5l2-0.2l-2,2c-0.1,0.1-0.1,0.2,0,0.2h0.1c0.1,0,0.1,0,0.2-0.1l2.1-2.1
					l7.8-0.7l0,0c0.1,0,0.1,0,0.2-0.1c0-0.1-0.1-0.1-0.2-0.1l-3.2,0.3l0.9-1.1l1.6,0.1l0,0c0.1,0,0.1,0,0.1-0.1s0-0.1-0.1-0.1
					l-5.6-0.3l-1.3-0.1l1.1-0.5c3.8,0.1,5.8,0.2,5.9,0.2C48.3,25.8,48.4,25.8,48.4,25.7"/>
			</g>
		</g>
		<g>
			<defs>
				<polygon id="SVGID_17_" points="35.5,24.1 39.1,54.8 63.6,51.7 59.9,21.1 				"/>
			</defs>
			<clipPath id="SVGID_18_">
				<use xlink:href="#SVGID_17_"  style="overflow:visible;"/>
			</clipPath>
			<g class="st24">
				<path class="st23" d="M41.5,40.1l3.4-4.1l3.1,1.3l-3.4,4.4L41.5,40.1z M45.1,42l2.5-3.4l1,2.2l-2.2,1.9L45.1,42z M47.1,43
					l2.1-1.8c0.1-0.1,0.2-0.3,0.1-0.5L48,38.1l0.5-0.7l0.9-0.4l2.7,4.7l-3.7,1.9L47.1,43z M59,38.1l-1.5,0.8L54,35l1.3-0.6L59,38.1z
					 M55.2,40.1L52,35.9l1.5-0.6l3.4,3.9L55.2,40.1z M52.7,41.4L50,36.8l1.7-0.7l3.1,4.3L52.7,41.4z M54.9,34.1l-1.4,0.6h-0.1
					l-5,2.1l-3.2-1.3l1.3-1.5l2.1-1l0.8,1.1c0.1,0.1,0.2,0.1,0.3,0.1l3.9-1.4L54.9,34.1z M58.5,34.5l3.1-2.3l1.7,0.5l1.3,3H60
					L58.5,34.5z M61,32l-3,2.1l-1.2-0.9l3-1.5L61,32z M42.7,31.6l-1,0.3c0.2-0.4,0.5-1.1,0.7-1.4l1.2-0.3L42.7,31.6z M40.1,32.4
					l0.7-1.4l1.1-0.3c-0.3,0.4-0.5,0.9-0.7,1.4L40.1,32.4z M38.1,31.7l2.2-0.6l-0.7,1.5l-2.3,0.7L38.1,31.7z M32.6,36.1l8,4.3
					l-7.5,9.1c-0.2,0.2-0.3,0.5-0.2,0.8c0,0.1,0.1,0.1,0.2,0.1s0.2-0.1,0.3-0.2l7.7-9.5l3.3,1.8h0.1l1.8,1h0.1l1.9,1h0.2l4.1-2.2
					h0.1c0.1,0,0.1,0,0.1-0.1l0.1-0.1l6.9-3.7c0.1,0,0.1-0.1,0.1-0.2s-0.1-0.2-0.1-0.3l-6-5.7c-0.1-0.1-0.2-0.1-0.3-0.1l-3.8,1.4
					L49,32.6l4-2.1l7,5.4c0.1,0.1,0.2,0.1,0.3,0.1H65l7,16.1c0.2,0.4,0.5,0.8,0.8,0.8h0.1c0.2,0,0.2-0.3,0.1-0.6L65.3,36v-0.1l0,0
					l-2.4-5.2c0-0.1-0.2-0.2-0.3-0.2c-0.1,0-0.2,0.1-0.2,0.2l0.7,1.5l-3.4-1h-0.2l-1.7,0.9l0,0l-2.4-1.3l1.3-0.8
					c0.1-0.1,0.1-0.2,0-0.2c-0.1-0.1-0.2-0.1-0.3,0c0,0,0,0,0,0l0,0l-1.5,0.9l-0.1,0.1c0,0.1,0,0.1,0.1,0.1l2.5,1.3l-1,0.5l-3.1-2.3
					l1.4-0.7c0.1,0,0.1-0.1,0-0.2c-0.1-0.1-0.2-0.1-0.3-0.1l-8.2,4.1c-0.1,0-0.1,0-0.1,0.1L41,39.8l-6.2-3.2l3.9-3.4l4-1.3
					c0.1,0,0.1-0.1,0.2-0.1l1.6-2.7c0-0.1,0-0.1-0.1-0.2s-0.2,0-0.2,0.1l-0.5,0.9l-3,0.8l0,0l-2.6,0.7c-0.1,0-0.2,0.1-0.2,0.2
					L37,33.4l-1,0.3l1.1-2.8c0-0.1,0-0.1-0.1-0.1l0,0c-0.1,0-0.2,0.1-0.3,0.2l-1.3,3v0.2h0.2l2.4-0.8l-3.5,3l-1.6-0.8
					c-0.1,0-0.3,0-0.4,0.1C32.5,35.9,32.5,36,32.6,36.1"/>
			</g>
		</g>
		<g>
			<defs>
				<polygon id="SVGID_19_" points="35.5,24.1 39.1,54.8 63.6,51.7 59.9,21.1 				"/>
			</defs>
			<clipPath id="SVGID_20_">
				<use xlink:href="#SVGID_19_"  style="overflow:visible;"/>
			</clipPath>
			<g class="st25">
				<path class="st23" d="M58.5,26.8l-3.8,1l0,0c-0.1,0-0.2,0-0.2-0.1s0-0.1,0.1-0.2l3.2-0.8l-2.5-0.3l-2.4,0.3l0,0l-4.2,0.5
					c-0.1,0-0.2,0-0.2-0.1s0.1-0.1,0.2-0.1l3.9-0.5l-1.4-1.2c-0.1,0,0-0.1,0-0.1h0.2l1,0.8l2.3-0.4l-1-0.5c-0.1,0-0.1-0.1,0-0.1h0.2
					l1.2,0.6l1.3-0.2l0,0l1.6-0.1l-1.9-0.6c-0.1,0-0.1,0-0.1-0.1c0.1-0.1,0.1-0.1,0.2,0c0,0,0,0,0,0l0,0l2.4,0.7l4.3-0.3
					c0.1,0,0.2,0,0.2,0.1s0,0.1-0.1,0.1l-6.5,0.5l-3.8,0.7l0.3,0.2l2.3-0.3h0.1l3.1,0.4l5.2-1.2c0.1,0,0.2,0,0.3,0.1
					c0.1,0.1,0,0.1,0,0.1l-4.4,1l2.5,1.1c0.1,0,0.2,0.1,0.1,0.2h-0.3l-2.7-1.2H58.5z"/>
			</g>
		</g>
		<g>
			<defs>
				<polygon id="SVGID_21_" points="35.5,24.1 39.1,54.8 63.6,51.7 59.9,21.1 				"/>
			</defs>
			<clipPath id="SVGID_22_">
				<use xlink:href="#SVGID_21_"  style="overflow:visible;"/>
			</clipPath>
			<g class="st26">
				<path class="st27" d="M34,31.3l11.6-2.9h0.2l2,0.2l1-0.9L47.9,27c-0.1,0-0.1-0.1-0.1-0.2s0.1-0.1,0.1-0.2l4.7-2.9
					c0.1-0.1,0.2-0.1,0.3,0c0,0,0,0,0,0l0,0c0.1,0.1,0.1,0.1-0.1,0.2l-4.2,2.9l0.8,0.5l13,0.1c0.3,0.1,0.6,0.2,0.8,0.5
					c0.1,0.2,0.2,0.5,0,0.5h-0.1l-13.6-0.5l-0.8,0.8l16,1.7c0.3,0,0.6,0.2,0.7,0.5c0.1,0.2,0.2,0.6,0,0.6h-0.2L48,29.4L23.7,52.5
					c-0.2,0.2-0.5,0.4-0.8,0.5c-0.2,0-0.7-0.3-0.6-0.6c-0.1-0.6,0.1-1.3,0.5-1.8l24.4-21.4L45.7,29l-12.2,3.3
					c-0.3,0.1-0.3-0.2-0.2-0.4S33.7,31.3,34,31.3"/>
			</g>
		</g>
		<g>
			<defs>
				<polygon id="SVGID_23_" points="35.5,24.1 39.1,54.8 63.6,51.7 59.9,21.1 				"/>
			</defs>
			<clipPath id="SVGID_24_">
				<use xlink:href="#SVGID_23_"  style="overflow:visible;"/>
			</clipPath>
			<g class="st28">
				<path class="st23" d="M36.5,55.8c0.1,0,0.2,0,0.3-0.1l29.5-18.3c0.1-0.1,0.1-0.3,0-0.4c-0.2-0.1-0.4-0.2-0.5-0.1L36.4,54.8
					c-0.3,0.2-0.3,0.4-0.3,0.7S36.3,55.9,36.5,55.8"/>
			</g>
		</g>
		<polygon class="st23" points="60,36.1 61.4,40 61.9,39.7 60.5,35.8 		"/>
		<polygon class="st18" points="45.6,51.6 63.4,50.2 62.5,43 62.3,40.9 		"/>
		<g>
			<defs>
				<polygon id="SVGID_25_" points="35.4,23.7 39.2,55.8 63.6,52.2 59.8,20.6 				"/>
			</defs>
			<clipPath id="SVGID_26_">
				<use xlink:href="#SVGID_25_"  style="overflow:visible;"/>
			</clipPath>
			<g class="st29">
				<path class="st30" d="M41,26.5l1.4-0.4l2,0.2l8.6,0.9l-1.9,1l2.4,1.9l6.3,4.8l1.7,4.5L48.9,47c0.1,0,0.1,0.1,0.2,0.1
					s0.3,0.2,0.5,0.3l12.6-7.8l-2-4.9l-8.5-6.5l2.4-1.2l-11.6-1.2l-1.6,0.4l-0.8,1.3l-5.3,1.4v0.3l5.4-1.5L41,26.5z"/>
			</g>
		</g>
		<g>
			<defs>
				<polygon id="SVGID_27_" points="35.4,23.7 39.2,55.8 63.6,52.2 59.8,20.6 				"/>
			</defs>
			<clipPath id="SVGID_28_">
				<use xlink:href="#SVGID_27_"  style="overflow:visible;"/>
			</clipPath>
			<g class="st31">
				<path d="M51.1,28l2.4,1.9l6.3,4.8l1.7,4.5l-12.1,7.3c0.3,0.1,0.5,0.2,0.7,0.4l12.1-7.5l-2-4.9L51.7,28l2.4-1.2l-11.6-1.2
					L40.9,26l-0.8,1.3l-5.3,1.5V29l5.4-1.5l0.8-1.2l1.4-0.4l2,0.2L53,27L51.1,28z"/>
			</g>
		</g>
		<g>
			<defs>
				<polygon id="SVGID_29_" points="35.4,23.7 39.2,55.8 63.6,52.2 59.8,20.6 				"/>
			</defs>
			<clipPath id="SVGID_30_">
				<use xlink:href="#SVGID_29_"  style="overflow:visible;"/>
			</clipPath>
			<g class="st32">
				<path class="st33" d="M52.5,38.8c0.3,2.9-2.9,7.7-2.9,7.7s-4.1-3.9-4.4-6.8s1.2-4.6,3.2-4.9S52.2,35.8,52.5,38.8"/>
			</g>
		</g>
		<g>
			<defs>
				<polygon id="SVGID_31_" points="35.4,23.7 39.2,55.8 63.6,52.2 59.8,20.6 				"/>
			</defs>
			<clipPath id="SVGID_32_">
				<use xlink:href="#SVGID_31_"  style="overflow:visible;"/>
			</clipPath>
			<g class="st34">
				<path class="st23" d="M51.6,38.6c0.3,1.7-0.9,3.2-2.5,3.5c-1.6,0.1-3-1.2-3.1-2.8c-0.3-1.7,0.9-3.2,2.5-3.5c1.6-0.1,3,1,3.1,2.6
					c0,0,0,0,0,0C51.6,38.5,51.6,38.5,51.6,38.6"/>
			</g>
		</g>
		<g>
			<defs>
				<polygon id="SVGID_33_" points="35.4,23.7 39.2,55.8 63.6,52.2 59.8,20.6 				"/>
			</defs>
			<clipPath id="SVGID_34_">
				<use xlink:href="#SVGID_33_"  style="overflow:visible;"/>
			</clipPath>
			<g class="st35">
				<path class="st36" d="M51.6,38.6h-0.2v0.3c0,0.7-0.2,1.4-0.7,2c-0.4,0.5-1,0.9-1.7,1h-0.3c-0.6,0-1.2-0.3-1.7-0.7
					c-0.5-0.5-0.8-1.2-0.9-1.9V39c0-0.7,0.2-1.4,0.7-2c0.4-0.5,1-0.9,1.7-1h0.3c0.6,0,1.2,0.3,1.7,0.7c0.5,0.5,0.8,1.2,0.9,1.9h0.4
					c0-0.8-0.4-1.6-1-2.1c-0.5-0.6-1.2-0.9-2-0.9h-0.3c-0.8,0.1-1.4,0.5-1.9,1.1c-0.5,0.6-0.8,1.4-0.8,2.2v0.4c0,0.8,0.4,1.6,1,2.1
					c0.5,0.6,1.2,0.9,2,0.9h0.3c0.8-0.1,1.4-0.5,1.9-1.1c0.5-0.6,0.8-1.4,0.8-2.2v-0.4H51.6z"/>
			</g>
		</g>
		<g>
			<defs>
				<polygon id="SVGID_35_" points="35.4,23.7 39.2,55.8 63.6,52.2 59.8,20.6 				"/>
			</defs>
			<clipPath id="SVGID_36_">
				<use xlink:href="#SVGID_35_"  style="overflow:visible;"/>
			</clipPath>
			<g class="st37">
				<path class="st38" d="M44,33.1l-1.2,1.1v0.5l1.5-1.5C44.2,33.2,44.1,33.1,44,33.1 M45.4,33.9L43,36.7l0.1,0.7l2.6-3.2
					C45.7,34.1,45.5,34,45.4,33.9 M44.9,36l-1.7,2.1l0.3,3l1.1,0.6l0.8-1.1c-0.1-0.3-0.2-0.6-0.2-0.9c-0.2-1.1,0.1-2.3,0.6-3.3
					L44.9,36z M45.7,41.2L45.1,42l0.2,0.1c0.1-0.3,0.2-0.5,0.4-0.7L45.7,41.2 M43.6,42l0.1,0.9l1,0.5c0.1-0.2,0.2-0.4,0.4-0.6
					l-0.6-0.3h-0.1L43.6,42z"/>
			</g>
		</g>
		<g>
			<defs>
				<polygon id="SVGID_37_" points="35.4,23.7 39.2,55.8 63.6,52.2 59.8,20.6 				"/>
			</defs>
			<clipPath id="SVGID_38_">
				<use xlink:href="#SVGID_37_"  style="overflow:visible;"/>
			</clipPath>
			<g class="st39">
				<path class="st40" d="M44.4,33.2l-1.5,1.5l0.2,2l2.4-2.8C45.2,33.6,44.8,33.4,44.4,33.2"/>
			</g>
		</g>
		<g>
			<defs>
				<polygon id="SVGID_39_" points="35.4,23.7 39.2,55.8 63.6,52.2 59.8,20.6 				"/>
			</defs>
			<clipPath id="SVGID_40_">
				<use xlink:href="#SVGID_39_"  style="overflow:visible;"/>
			</clipPath>
			<g class="st41">
				<path class="st42" d="M43.7,42.9l0.2,1.8c0,0,0.3-0.5,0.8-1.3L43.7,42.9z"/>
			</g>
		</g>
		<g>
			<defs>
				<polygon id="SVGID_41_" points="35.4,23.7 39.2,55.8 63.6,52.2 59.8,20.6 				"/>
			</defs>
			<clipPath id="SVGID_42_">
				<use xlink:href="#SVGID_41_"  style="overflow:visible;"/>
			</clipPath>
			<g class="st43">
				<path class="st44" d="M46,34.6l-0.8,0.9l1,0.4l0.3-0.3C46.4,35.2,46.2,34.9,46,34.6"/>
			</g>
		</g>
		<g>
			<defs>
				<polygon id="SVGID_43_" points="35.4,23.7 39.2,55.8 63.6,52.2 59.8,20.6 				"/>
			</defs>
			<clipPath id="SVGID_44_">
				<use xlink:href="#SVGID_43_"  style="overflow:visible;"/>
			</clipPath>
			<g class="st45">
				<path class="st46" d="M45.8,34.2l-2.6,3.2l0.1,0.7L45,36l1,0.4c0.1-0.2,0.2-0.3,0.3-0.4l-1-0.4l0.8-0.9
					C45.9,34.6,45.8,34.4,45.8,34.2 M45.4,40.6l-0.8,1.1l-1.1-0.6l0.1,0.9l0.9,0.5h0.1l0.5,0.3c0.1-0.3,0.2-0.5,0.4-0.7L45.1,42
					l0.5-0.7C45.6,41.1,45.5,40.8,45.4,40.6"/>
			</g>
		</g>
		<g>
			<defs>
				<polygon id="SVGID_45_" points="35.4,23.7 39.2,55.8 63.6,52.2 59.8,20.6 				"/>
			</defs>
			<clipPath id="SVGID_46_">
				<use xlink:href="#SVGID_45_"  style="overflow:visible;"/>
			</clipPath>
			<g class="st47">
				<path class="st48" d="M43.2,33h-0.5l0.1,1.2l1.1-1.1C43.7,33,43.4,33,43.2,33"/>
			</g>
		</g>
		<g>
			<defs>
				<polygon id="SVGID_47_" points="35.4,23.7 39.2,55.8 63.6,52.2 59.8,20.6 				"/>
			</defs>
			<clipPath id="SVGID_48_">
				<use xlink:href="#SVGID_47_"  style="overflow:visible;"/>
			</clipPath>
			<g class="st49">
				<path class="st50" d="M46.5,35.6l-0.3,0.3c-0.1,0.1-0.2,0.3-0.3,0.4c-0.6,1-0.8,2.2-0.6,3.3c0,0.3,0.1,0.6,0.2,0.9
					c0.1,0.2,0.2,0.4,0.2,0.6v0.1c0.2-0.3,0.3-0.7,0.4-1c-0.1-0.3-0.2-0.7-0.3-1.1v-0.4c0-0.8,0.3-1.6,0.8-2.2c0-0.1,0-0.1,0.1-0.1
					C46.7,36.1,46.6,35.9,46.5,35.6"/>
			</g>
		</g>
		<g>
			<defs>
				<polygon id="SVGID_49_" points="35.4,23.7 39.2,55.8 63.6,52.2 59.8,20.6 				"/>
			</defs>
			<clipPath id="SVGID_50_">
				<use xlink:href="#SVGID_49_"  style="overflow:visible;"/>
			</clipPath>
			<g class="st51">
				<path class="st46" d="M46.8,37.1c-0.4,0.5-0.6,1.2-0.6,1.8v0.3c0,0.2,0,0.4,0.1,0.5C46.6,38.9,46.8,38,46.8,37.1"/>
			</g>
		</g>
		<g>
			<defs>
				<polygon id="SVGID_51_" points="35.4,23.7 39.2,55.8 63.6,52.2 59.8,20.6 				"/>
			</defs>
			<clipPath id="SVGID_52_">
				<use xlink:href="#SVGID_51_"  style="overflow:visible;"/>
			</clipPath>
			<g class="st52">
				<path class="st53" d="M46.7,36.6L46.7,36.6c-0.6,0.7-0.9,1.5-0.9,2.3v0.4c0,0.4,0.1,0.8,0.3,1.1c0.1-0.2,0.1-0.4,0.2-0.6
					s-0.1-0.3-0.1-0.5V39c0-0.7,0.2-1.3,0.6-1.8v-0.1C46.8,36.9,46.7,36.8,46.7,36.6"/>
			</g>
		</g>
		<path class="st3" d="M60.4,26.4c-0.2-0.6-0.2-1.2,0-1.8c1.9,0.2,8,1.2,6.3,4.5C65.2,31.7,60.9,28.3,60.4,26.4"/>
		<path class="st3" d="M61,33.2c-0.2-0.6-0.2-1.2,0-1.8c1.9,0.2,8,1.2,6.3,4.5C65.9,38.6,61.5,35.2,61,33.2"/>
		<path class="st54" d="M63.3,25.9c-0.7,1.3-2.1-0.3-2.6-1c-0.1-0.1-0.2-0.1-0.4-0.1c-0.1,0.1-0.1,0.2,0,0.4c0.4,0.6,1,1.1,1.7,1.5
			c0.3,0.2,0.7,0.2,1,0.1c0.4-0.1,0.6-0.4,0.8-0.8C64,25.8,63.5,25.6,63.3,25.9"/>
		<path class="st54" d="M63.6,33.1c-0.6,0.7-1.7-0.3-2.2-0.7c-0.2-0.2-0.6,0.1-0.4,0.3c0.7,0.7,2.1,1.7,3,0.7
			C64.2,33.2,63.8,32.8,63.6,33.1"/>
		<path class="st3" d="M37.3,27.7c-1,2.2-2.4,4.1-4.1,5.7c-1.3,1.3-3.3,2.4-4.2,3.9c-0.5,3.7-2,7.2-4.4,10.1
			c-0.2,0.4-0.3,0.9-0.3,1.4v0.3c0.1,3.8,0,9.6,0.2,13.4c2.8,1.5,3,1.6,5.4,3.1c0.3-0.2,0.5-2.1,0.8-2.3c1-0.7,1.8-1.6,2.8-2.3
			c0.6-0.4,1.5-0.6,2-1.2c1.3-1.5,0.4-4.6,0.3-6.4c-0.1-2.9,0.3-5.9,0-8.8c-0.4-2.1,0.1-4.2,1.3-5.9c0.1-0.2,0.3-0.3,0.5-0.5
			s0.5-0.4,0.6-0.6c0.8-0.9,1.3-2.1,1.4-3.3C40,32.2,39.7,28.5,37.3,27.7"/>
		<path class="st54" d="M38.1,30.9c-0.2,0.6-0.6,1.1-1.2,1.3c-0.6,0.1-1.2,0-1.6-0.5c-0.2-0.3-0.6,0.1-0.4,0.3
			c0.5,0.6,1.3,0.9,2.1,0.7c0.9-0.2,1.5-0.9,1.7-1.8C38.7,30.6,38.1,30.5,38.1,30.9"/>
		<path class="st3" d="M82.4,106.5h11.4c1.1-0.6,2.3-1.1,3.5-1.4c2-0.6,3.8-0.5,5.6-1.8h0.1c-0.1-2-0.1-4-0.2-5.9
			c0-0.4-0.1-0.7-0.1-1.1c-0.1-0.1-0.1-0.3-0.1-0.5v-2.1c-2.4-4.8-4.5-9.8-6.3-14.9c-1.2-3.9-2.8-7.7-4.7-11.3
			c-0.5-1-1.4-1.6-2.5-1.7c-0.9-0.1-1.5,0.1-2.2-0.5c-0.5-0.4-1.1-1.1-1.6-1.5c-1.3-0.9-2.6,0.2-4,0.5c-1.6,0.3-2.1-1.2-3.8-1.1
			c-1.9,0.2-3.2,1.8-5.3,1.4c-1.9-0.4-3.1-2-4.3-3.4s-3.7-5.2-5-6.6c-0.3-0.4-2.8-4.9-2.9-4.9c-2.9,0.8-2.5,5.3-2.2,7.3
			c0.5,3.4,2.9,6.6,4.6,9.4c2.2,3.5,6.2,8.6,6.3,12.9c0.1,5.4-5.8,0.4-8.1,0.4c-2.5,0-6.3,0-6.5,3.8c2,0.4,4,0.5,5.5,2.1
			c2.6,2.7,5.1,5.6,8.5,7.4c2.6,1.4,5.6,2.1,8,3.9c2.9,2.1,4.7,6.1,6.1,9.3C82.3,106.2,82.3,106.4,82.4,106.5"/>
		<path class="st54" d="M60.5,53.8c-0.6,0.4-1.4-0.2-1.6-0.8c-0.1-0.3-0.6-0.2-0.5,0.1c0.3,0.9,1.4,1.8,2.4,1.1
			c0.1-0.1,0.1-0.2,0.1-0.4C60.8,53.7,60.6,53.7,60.5,53.8"/>
		<path class="st54" d="M57.7,83.2c0-0.8-1.1-0.9-1.7-0.6c-0.4,0.2-0.6-0.3-0.2-0.5c1-0.5,2.5-0.2,2.5,1
			C58.3,83.4,57.7,83.5,57.7,83.2"/>
	</g>
</g>
</svg>
