<svg xmlns="http://www.w3.org/2000/svg" xmlns:xlink="http://www.w3.org/1999/xlink" width="80" height="80" viewBox="0 0 80 80">
    <defs>
        <path id="a" d="M0 .068h14.649v14.477H0z"/>
        <path id="c" d="M1.63 1.621a5.456 5.456 0 1 0 7.715 7.716A5.456 5.456 0 0 0 1.63 1.62"/>
        <path id="e" d="M1.63 1.621a5.456 5.456 0 1 0 7.715 7.716A5.456 5.456 0 0 0 1.63 1.62"/>
        <path id="g" d="M1.63 1.621a5.456 5.456 0 1 0 7.715 7.716A5.456 5.456 0 0 0 1.63 1.62"/>
        <path id="i" d="M1.63 1.621a5.456 5.456 0 1 0 7.715 7.716A5.456 5.456 0 0 0 1.63 1.62"/>
        <path id="k" d="M1.63 1.621a5.456 5.456 0 1 0 7.715 7.716A5.456 5.456 0 0 0 1.63 1.62"/>
        <path id="m" d="M1.63 1.621a5.456 5.456 0 1 0 7.715 7.716A5.456 5.456 0 0 0 1.63 1.62"/>
        <path id="o" d="M1.63 1.621a5.456 5.456 0 1 0 7.715 7.716A5.456 5.456 0 0 0 1.63 1.62"/>
        <path id="q" d="M1.63 1.621a5.456 5.456 0 1 0 7.715 7.716A5.456 5.456 0 0 0 1.63 1.62"/>
        <path id="s" d="M1.63 1.621a5.456 5.456 0 1 0 7.715 7.716A5.456 5.456 0 0 0 1.63 1.62z"/>
        <path id="u" d="M1.63 1.621a5.456 5.456 0 1 0 7.715 7.716A5.456 5.456 0 0 0 1.63 1.62"/>
        <path id="w" d="M1.63 1.621a5.456 5.456 0 1 0 7.715 7.716A5.456 5.456 0 0 0 1.63 1.62"/>
        <path id="y" d="M1.63 1.621a5.456 5.456 0 1 0 7.715 7.716A5.456 5.456 0 0 0 1.63 1.62"/>
        <path id="A" d="M1.63 1.621a5.456 5.456 0 1 0 7.715 7.716A5.456 5.456 0 0 0 1.63 1.62"/>
        <path id="C" d="M2.41 2.344A7.96 7.96 0 1 0 13.664 13.6 7.96 7.96 0 0 0 2.41 2.344"/>
        <path id="E" d="M2.41 2.344A7.96 7.96 0 1 0 13.664 13.6 7.96 7.96 0 0 0 2.41 2.344"/>
        <path id="G" d="M2.41 2.344A7.96 7.96 0 1 0 13.664 13.6 7.96 7.96 0 0 0 2.41 2.344"/>
        <path id="I" d="M2.41 2.344A7.96 7.96 0 1 0 13.664 13.6 7.96 7.96 0 0 0 2.41 2.344"/>
        <path id="K" d="M2.41 2.344A7.96 7.96 0 1 0 13.664 13.6 7.96 7.96 0 0 0 2.41 2.344"/>
        <path id="M" d="M2.41 2.344A7.96 7.96 0 1 0 13.664 13.6 7.96 7.96 0 0 0 2.41 2.344z"/>
        <path id="O" d="M1.65 1.621a5.456 5.456 0 1 0 7.714 7.716A5.456 5.456 0 0 0 1.65 1.62z"/>
        <path id="Q" d="M2.387 2.344c-3.108 3.124-3.108 8.189 0 11.312a7.931 7.931 0 0 0 11.256 0c3.109-3.123 3.109-8.188 0-11.312A7.914 7.914 0 0 0 8.016.001a7.914 7.914 0 0 0-5.629 2.343z"/>
        <path id="S" d="M.117.008c-.046 0-.08.036-.07.075l.224.84C.28.95.307.968.341.968h3.304c.033 0 .061-.02.069-.047l.223-.84c.01-.038-.023-.074-.069-.074H.117z"/>
        <path id="U" d="M.035 15.48c0 8.539 6.923 15.462 15.462 15.462 8.54 0 15.463-6.923 15.463-15.463S24.037.017 15.497.017.035 6.939.035 15.479"/>
        <path id="W" d="M.05 14.98c0 8.254 6.692 14.946 14.947 14.946 8.255 0 14.947-6.692 14.947-14.947 0-8.255-6.692-14.947-14.947-14.947C6.742.032.05 6.724.05 14.98z"/>
        <path id="Y" d="M.035 15.48c0 8.539 6.923 15.462 15.462 15.462 8.54 0 15.463-6.923 15.463-15.463S24.037.017 15.497.017.035 6.939.035 15.479z"/>
        <path id="aa" d="M.02 13.48c0 7.444 6.257 13.479 13.977 13.479 7.72 0 13.978-6.035 13.978-13.48 0-7.443-6.258-13.478-13.978-13.478S.02 6.036.02 13.48"/>
        <path id="ac" d="M.02 13.48c0 7.444 6.257 13.479 13.977 13.479 7.72 0 13.978-6.035 13.978-13.48 0-7.443-6.258-13.478-13.978-13.478S.02 6.036.02 13.48z"/>
        <path id="ae" d="M6.843.03L4.49.835a4.234 4.234 0 0 0-2.936 3.163L.09 10.464c-.29.972.415 1.957 1.4 1.957h1.38v2.255a12.936 12.936 0 0 0 5.627 1.282c2 0 3.898-.454 5.6-1.27v-2.267h1.38c.986 0 1.691-.985 1.4-1.957l-1.463-6.466A4.234 4.234 0 0 0 12.478.835L10.147.03"/>
        <path id="ag" d="M6.843.03L4.49.835a4.234 4.234 0 0 0-2.936 3.163L.09 10.464c-.29.972.415 1.957 1.4 1.957h1.38v2.255a12.936 12.936 0 0 0 5.627 1.282c2 0 3.898-.454 5.6-1.27v-2.267h1.38c.986 0 1.691-.985 1.4-1.957l-1.463-6.466A4.234 4.234 0 0 0 12.478.835L10.147.03H6.843z"/>
        <path id="ai" d="M6.843.03L4.49.835a4.234 4.234 0 0 0-2.936 3.163L.09 10.464c-.29.972.415 1.957 1.4 1.957h1.38v2.255a12.936 12.936 0 0 0 5.627 1.282c2 0 3.898-.454 5.6-1.27v-2.267h1.38c.986 0 1.691-.985 1.4-1.957l-1.463-6.466A4.234 4.234 0 0 0 12.478.835L10.147.03H6.843z"/>
        <path id="ak" d="M6.843.03L4.49.835a4.234 4.234 0 0 0-2.936 3.163L.09 10.464c-.29.972.415 1.957 1.4 1.957h1.38v2.255a12.936 12.936 0 0 0 5.627 1.282c2 0 3.898-.454 5.6-1.27v-2.267h1.38c.986 0 1.691-.985 1.4-1.957l-1.463-6.466A4.234 4.234 0 0 0 12.478.835L10.147.03H6.843z"/>
        <path id="am" d="M.02 13.48c0 7.444 6.257 13.479 13.977 13.479 7.72 0 13.978-6.035 13.978-13.48 0-7.443-6.258-13.478-13.978-13.478S.02 6.036.02 13.48z"/>
        <path id="ao" d="M.02 13.48c0 7.444 6.257 13.479 13.977 13.479 7.72 0 13.978-6.035 13.978-13.48 0-7.443-6.258-13.478-13.978-13.478S.02 6.036.02 13.48"/>
        <path id="aq" d="M.02 13.48c0 7.444 6.257 13.479 13.977 13.479 7.72 0 13.978-6.035 13.978-13.48 0-7.443-6.258-13.478-13.978-13.478S.02 6.036.02 13.48"/>
        <path id="as" d="M.02 13.48c0 7.444 6.257 13.479 13.977 13.479 7.72 0 13.978-6.035 13.978-13.48 0-7.443-6.258-13.478-13.978-13.478S.02 6.036.02 13.48"/>
        <path id="au" d="M.02 13.48c0 7.444 6.257 13.479 13.977 13.479 7.72 0 13.978-6.035 13.978-13.48 0-7.443-6.258-13.478-13.978-13.478S.02 6.036.02 13.48"/>
        <path id="aw" d="M.02 13.48c0 7.444 6.257 13.479 13.977 13.479 7.72 0 13.978-6.035 13.978-13.48 0-7.443-6.258-13.478-13.978-13.478S.02 6.036.02 13.48z"/>
        <path id="ay" d="M.02 13.48c0 7.444 6.257 13.479 13.977 13.479 7.72 0 13.978-6.035 13.978-13.48 0-7.443-6.258-13.478-13.978-13.478S.02 6.036.02 13.48z"/>
        <path id="aA" d="M.02 13.48c0 7.444 6.257 13.479 13.977 13.479 7.72 0 13.978-6.035 13.978-13.48 0-7.443-6.258-13.478-13.978-13.478S.02 6.036.02 13.48z"/>
        <path id="aC" d="M.02 13.48c0 7.444 6.257 13.479 13.977 13.479 7.72 0 13.978-6.035 13.978-13.48 0-7.443-6.258-13.478-13.978-13.478S.02 6.036.02 13.48z"/>
        <path id="aE" d="M.02 13.48c0 7.444 6.257 13.479 13.977 13.479 7.72 0 13.978-6.035 13.978-13.48 0-7.443-6.258-13.478-13.978-13.478S.02 6.036.02 13.48z"/>
        <path id="aG" d="M.02 13.48c0 7.444 6.257 13.479 13.977 13.479 7.72 0 13.978-6.035 13.978-13.48 0-7.443-6.258-13.478-13.978-13.478S.02 6.036.02 13.48"/>
        <path id="aI" d="M.02 13.48c0 7.444 6.257 13.479 13.977 13.479 7.72 0 13.978-6.035 13.978-13.48 0-7.443-6.258-13.478-13.978-13.478S.02 6.036.02 13.48"/>
        <path id="aK" d="M.02 13.48c0 7.444 6.257 13.479 13.977 13.479 7.72 0 13.978-6.035 13.978-13.48 0-7.443-6.258-13.478-13.978-13.478S.02 6.036.02 13.48"/>
        <path id="aM" d="M.02 13.48c0 7.444 6.257 13.479 13.977 13.479 7.72 0 13.978-6.035 13.978-13.48 0-7.443-6.258-13.478-13.978-13.478S.02 6.036.02 13.48"/>
    </defs>
    <g fill="none" fill-rule="evenodd">
        <circle cx="40" cy="40" r="40" fill="#50BE87"/>
        <path fill="#FF7900" d="M40.376 12.584h-.004a.314.314 0 0 1-.312-.313.305.305 0 0 1 .313-.304h.008a.31.31 0 0 1 .307.313.31.31 0 0 1-.312.304m-1.178.008a.314.314 0 0 1-.316-.299.307.307 0 0 1 .299-.317h.008c.17-.005.316.129.321.3a.31.31 0 0 1-.303.316h-.01m2.357.032h-.014l-.012-.001a.31.31 0 0 1-.293-.326.31.31 0 0 1 .33-.29l-.019.308.022-.308a.31.31 0 0 1 .297.322.31.31 0 0 1-.31.295m-3.534.026a.314.314 0 0 1-.316-.288.306.306 0 0 1 .285-.328h.013c.172-.01.32.119.33.29a.31.31 0 0 1-.312.326m4.708.062h-.028l-.012-.002a.31.31 0 0 1-.278-.339.311.311 0 0 1 .342-.275l-.032.307.035-.307a.31.31 0 0 1 .283.335.31.31 0 0 1-.31.281m-5.887.044a.308.308 0 0 1-.04-.615h.013a.311.311 0 0 1 .343.275.31.31 0 0 1-.316.34m7.057.093a.316.316 0 0 1-.313-.352.31.31 0 0 1 .36-.261c.17.025.288.182.262.351a.311.311 0 0 1-.309.262m-8.228.062a.311.311 0 0 1-.308-.263.309.309 0 0 1 .262-.35l.046.305-.042-.306c.17-.027.33.087.358.255a.309.309 0 0 1-.258.354l-.011.002a.317.317 0 0 1-.047.003m9.392.124a.32.32 0 0 1-.061-.006.31.31 0 0 1-.254-.358.31.31 0 0 1 .361-.25l.014.002a.309.309 0 0 1-.06.612m-10.552.079a.309.309 0 0 1-.06-.611l.06.302-.056-.303a.308.308 0 1 1 .128.604l-.013.002a.317.317 0 0 1-.06.006m11.707.154a.317.317 0 0 1-.068-.007l-.01-.003a.308.308 0 1 1 .14-.601h.005a.309.309 0 0 1-.067.61m-12.85.096a.314.314 0 0 1-.307-.236.305.305 0 0 1 .235-.373.308.308 0 1 1 .072.609m13.993.186a.313.313 0 0 1-.078-.01l-.012-.003a.308.308 0 1 1 .165-.595l-.082.297.085-.297a.309.309 0 0 1-.078.608m-15.14.114a.308.308 0 0 1-.086-.605l.007-.002a.313.313 0 0 1 .387.21.308.308 0 0 1-.212.382l-.009.003a.317.317 0 0 1-.086.012m16.269.214a.313.313 0 0 1-.09-.013l-.014-.005a.308.308 0 0 1-.2-.39.313.313 0 0 1 .394-.196l-.097.293.1-.293a.31.31 0 0 1 .204.387.311.311 0 0 1-.297.217m-17.392.13a.313.313 0 0 1-.297-.209.306.306 0 0 1 .194-.39l.012-.004a.313.313 0 0 1 .393.199.308.308 0 0 1-.201.388.317.317 0 0 1-.101.016m18.508.245a.31.31 0 0 1-.297-.416.31.31 0 0 1 .406-.182.307.307 0 0 1-.11.598m-19.62.149a.307.307 0 0 1-.11-.597l.11.288-.106-.29a.314.314 0 0 1 .404.175.307.307 0 0 1-.177.4l-.011.004a.314.314 0 0 1-.11.02m20.719.272a.314.314 0 0 1-.128-.027.307.307 0 0 1-.167-.404.314.314 0 0 1 .408-.165l-.12.284.124-.282a.307.307 0 0 1-.117.594m-21.81.166a.307.307 0 0 1-.123-.592l.122.283-.117-.286a.314.314 0 0 1 .41.16.307.307 0 0 1-.161.406l-.009.004a.314.314 0 0 1-.123.025m22.89.3a.314.314 0 0 1-.128-.027l-.011-.005a.307.307 0 0 1-.15-.41.314.314 0 0 1 .414-.149l-.132.28.136-.278c.157.07.226.253.155.408a.312.312 0 0 1-.284.182m-23.958.18a.313.313 0 0 1-.283-.173.305.305 0 0 1 .143-.411l.009-.004a.314.314 0 0 1 .416.146.307.307 0 0 1-.148.41.317.317 0 0 1-.137.032m25.016.33a.314.314 0 0 1-.15-.037.307.307 0 0 1-.134-.416.314.314 0 0 1 .42-.132l-.143.274.147-.273a.307.307 0 0 1 .14.414.313.313 0 0 1-.28.17m-26.071.2a.313.313 0 0 1-.276-.163.307.307 0 0 1 .129-.418l.005-.003a.314.314 0 0 1 .423.125.307.307 0 0 1-.126.418l-.008.005a.314.314 0 0 1-.147.036m27.106.356a.314.314 0 0 1-.154-.04.31.31 0 1 1 .302-.54l.007.003c.15.084.202.273.117.42a.313.313 0 0 1-.272.157m-28.133.215a.313.313 0 0 1-.27-.15.307.307 0 0 1 .11-.424l.007-.003a.314.314 0 0 1 .428.108.306.306 0 0 1-.11.422l-.006.004a.313.313 0 0 1-.16.043m29.145.383a.314.314 0 0 1-.169-.05.31.31 0 0 1 .327-.525l.01.006a.306.306 0 0 1 .095.427.313.313 0 0 1-.263.142m-30.146.231a.313.313 0 0 1-.262-.14.306.306 0 0 1 .091-.427l.006-.003a.314.314 0 0 1 .432.088.306.306 0 0 1-.09.428l-.008.005a.313.313 0 0 1-.17.05m31.13.407a.314.314 0 0 1-.184-.06.306.306 0 0 1-.078-.43.314.314 0 0 1 .435-.076l-.178.253.181-.25c.143.095.18.287.083.428a.313.313 0 0 1-.258.135m-32.104.246a.313.313 0 0 1-.254-.129.305.305 0 0 1 .071-.429l.01-.006a.315.315 0 0 1 .434.076.306.306 0 0 1-.078.43.316.316 0 0 1-.183.058m33.06.434a.313.313 0 0 1-.195-.068.306.306 0 0 1-.06-.432.315.315 0 0 1 .437-.06l-.189.247.192-.244a.306.306 0 0 1 .065.432.313.313 0 0 1-.25.125m-34.008.263a.313.313 0 0 1-.246-.119.306.306 0 0 1 .055-.433l.006-.005a.315.315 0 0 1 .438.054.306.306 0 0 1-.055.433l-.006.005a.313.313 0 0 1-.192.065m34.933.455a.314.314 0 0 1-.197-.069l-.007-.006a.306.306 0 0 1-.042-.435.315.315 0 0 1 .44-.04l-.2.237.204-.234a.306.306 0 0 1 .045.434.313.313 0 0 1-.243.113m-35.848.28a.313.313 0 0 1-.239-.11.306.306 0 0 1 .037-.435l.005-.004a.315.315 0 0 1 .44.035.306.306 0 0 1-.036.435l-.006.005a.313.313 0 0 1-.201.073m36.744.478a.313.313 0 0 1-.207-.077l-.008-.007a.306.306 0 0 1-.023-.436.315.315 0 0 1 .44-.023l-.208.23.213-.226c.129.113.14.308.027.435a.313.313 0 0 1-.234.104m-37.628.293a.313.313 0 0 1-.23-.1.306.306 0 0 1 .019-.436l.005-.005a.315.315 0 0 1 .441.018.306.306 0 0 1-.018.436l-.005.006a.313.313 0 0 1-.212.081m38.49.5a.313.313 0 0 1-.223-.093.306.306 0 0 1-.005-.436.315.315 0 0 1 .441-.005l-.218.22.222-.217a.306.306 0 0 1 .009.437.313.313 0 0 1-.225.094m-39.772.742a.313.313 0 0 1-.216-.086.306.306 0 0 1-.01-.437l.226.214-.222-.217a.315.315 0 0 1 .39-.052.306.306 0 0 1 .042-.385l.006-.005c.122-.12.32-.12.441 0a.306.306 0 0 1 0 .436l-.005.006a.315.315 0 0 1-.384.045.306.306 0 0 1-.035.378l-.008.008a.313.313 0 0 1-.225.095m40.6.086a.313.313 0 0 1-.23-.1.305.305 0 0 1 .006-.435.316.316 0 0 1 .442.005l.012.013a.306.306 0 0 1-.018.436.313.313 0 0 1-.211.081m-41.399.771a.313.313 0 0 1-.206-.077.306.306 0 0 1-.028-.436l.235.204-.231-.207a.315.315 0 0 1 .44-.032.306.306 0 0 1 .025.444.313.313 0 0 1-.235.104m42.192.09a.313.313 0 0 1-.236-.107.308.308 0 0 1 .025-.437.313.313 0 0 1 .44.025l.007.009a.306.306 0 0 1-.032.435.314.314 0 0 1-.204.075m-42.952.795a.31.31 0 0 1-.194-.068.303.303 0 0 1-.048-.43l.005-.006a.315.315 0 0 1 .439-.046.306.306 0 0 1 .045.434.32.32 0 0 1-.247.116m43.71.098a.313.313 0 0 1-.243-.113l-.007-.01a.306.306 0 0 1 .05-.433.315.315 0 0 1 .44.05l-.246.192.247-.189a.306.306 0 0 1-.045.434.313.313 0 0 1-.197.07m-44.43.825a.313.313 0 0 1-.187-.061.306.306 0 0 1-.064-.432l.25.184-.246-.19a.315.315 0 0 1 .437-.064.306.306 0 0 1 .06.439.313.313 0 0 1-.25.124m45.149.098a.312.312 0 0 1-.25-.123l-.007-.01a.306.306 0 0 1 .069-.43c.139-.1.334-.07.436.067l-.253.182.255-.18a.307.307 0 0 1-.063.433.314.314 0 0 1-.187.061m-45.832.846a.31.31 0 0 1-.173-.052.303.303 0 0 1-.085-.425l.005-.008a.315.315 0 0 1 .434-.08.306.306 0 0 1 .082.429.32.32 0 0 1-.263.136m46.51.107c-.1 0-.2-.048-.26-.137l-.004-.006a.306.306 0 0 1 .087-.428.314.314 0 0 1 .433.085l.004.007a.306.306 0 0 1-.086.428.314.314 0 0 1-.173.051m-47.151.874a.314.314 0 0 1-.165-.047.306.306 0 0 1-.1-.424l.265.162-.263-.166a.314.314 0 0 1 .428-.104.306.306 0 0 1 .1.433.313.313 0 0 1-.265.146m47.788.107a.313.313 0 0 1-.267-.148.309.309 0 0 1 .1-.427.312.312 0 0 1 .428.097l.005.009a.306.306 0 0 1-.104.424.314.314 0 0 1-.162.045m-48.387.891a.308.308 0 0 1-.15-.039.303.303 0 0 1-.122-.416l.005-.008a.314.314 0 0 1 .425-.116c.15.084.203.272.118.42a.319.319 0 0 1-.276.16m48.981.114a.312.312 0 0 1-.274-.162.307.307 0 0 1 .117-.42.313.313 0 0 1 .425.115l.006.011a.307.307 0 0 1-.125.419.313.313 0 0 1-.149.037m-49.536.916a.314.314 0 0 1-.141-.034.307.307 0 0 1-.137-.415l.278.14-.275-.145a.314.314 0 0 1 .418-.138.307.307 0 0 1 .136.423.313.313 0 0 1-.279.169m50.085.112a.31.31 0 0 1-.275-.163l-.007-.014a.307.307 0 0 1 .142-.413.314.314 0 0 1 .418.14l-.28.136.281-.134a.308.308 0 0 1-.28.448m-50.595.933a.309.309 0 0 1-.128-.028.304.304 0 0 1-.15-.415.314.314 0 0 1 .414-.148.307.307 0 0 1 .15.41.318.318 0 0 1-.286.18m51.104.122a.312.312 0 0 1-.286-.183.311.311 0 1 1 .567-.26l.004.01a.307.307 0 0 1-.285.433m-51.569.952a.307.307 0 0 1-.288-.426l.288.117-.287-.12a.314.314 0 0 1 .406-.173c.16.063.238.242.174.4l-.004.011a.312.312 0 0 1-.289.191m52.03.12a.312.312 0 0 1-.292-.199.307.307 0 0 1 .17-.402.314.314 0 0 1 .413.183.307.307 0 0 1-.292.418m-52.448.968a.308.308 0 0 1-.294-.413l.002-.006a.313.313 0 0 1 .399-.188.308.308 0 0 1 .19.394l-.003.009a.312.312 0 0 1-.294.204m52.864.124a.314.314 0 0 1-.105-.609.313.313 0 0 1 .397.193.307.307 0 0 1-.183.396.312.312 0 0 1-.11.02m-53.236.976a.307.307 0 0 1-.092-.014.305.305 0 0 1-.202-.392.313.313 0 0 1 .393-.199.308.308 0 0 1 .201.388.317.317 0 0 1-.3.217m53.603.13a.31.31 0 0 1-.093-.608.31.31 0 0 1 .389.2l.003.01a.308.308 0 0 1-.3.398m-53.927.99a.305.305 0 0 1-.302-.381l.003-.013a.313.313 0 0 1 .603.163.317.317 0 0 1-.304.23m54.247.131a.312.312 0 0 1-.303-.235.308.308 0 0 1 .22-.379.313.313 0 0 1 .387.233.308.308 0 0 1-.304.381m-54.523 1.005a.308.308 0 0 1-.305-.376l.305.068-.304-.072a.312.312 0 0 1 .61.128l-.002.011a.312.312 0 0 1-.304.241m54.796.13a.314.314 0 0 1-.308-.254.309.309 0 0 1 .242-.365.312.312 0 0 1 .37.239l-.306.063.306-.062a.307.307 0 0 1-.304.38m-55.025 1.011a.309.309 0 0 1-.308-.363l.002-.006a.312.312 0 0 1 .361-.25c.17.029.284.189.254.357l-.002.008a.311.311 0 0 1-.307.254m55.247.13a.311.311 0 0 1-.308-.263.313.313 0 0 1 .615-.107l.003.017a.31.31 0 0 1-.31.353m-55.428 1.017c-.013 0-.027 0-.04-.003a.306.306 0 0 1-.269-.342l.001-.008a.311.311 0 0 1 .351-.265.31.31 0 0 1 .268.347.315.315 0 0 1-.31.271m55.603.137a.313.313 0 0 1-.312-.282.31.31 0 0 1 .274-.343.311.311 0 0 1 .347.27l-.31.037.31-.035a.308.308 0 0 1-.31.353m-55.734 1.023c-.009 0-.018 0-.027-.002a.308.308 0 0 1-.284-.332l.001-.013a.312.312 0 0 1 .343-.275.31.31 0 0 1 .279.339.313.313 0 0 1-.312.283m55.86.133a.31.31 0 0 1-.028-.62.308.308 0 0 1 .339.277v.007a.31.31 0 0 1-.311.336M11.99 38.922h-.016a.307.307 0 0 1-.295-.33.31.31 0 0 1 .33-.29.31.31 0 0 1-.019.62m56.019.136a.31.31 0 0 1-.312-.3.31.31 0 0 1 .293-.325.31.31 0 0 1 .33.29l.001.018a.31.31 0 0 1-.303.317h-.01m-56.051 1.031a.31.31 0 0 1-.312-.308v-.006a.312.312 0 0 1 .312-.308h.001c.172 0 .311.137.311.307v.007a.31.31 0 0 1-.312.308m56.08.133a.31.31 0 0 1-.313-.308v-.008c0-.17.14-.309.312-.309a.31.31 0 0 1 .312.309v.008a.31.31 0 0 1-.312.308m-56.063 1.032a.31.31 0 0 1-.312-.3l.312-.008-.312.005a.31.31 0 0 1 .299-.321.31.31 0 0 1 .325.295v.012a.31.31 0 0 1-.303.317h-.01m56.043.132h-.018a.31.31 0 0 1-.294-.326.31.31 0 0 1 .321-.299.31.31 0 0 1 .303.318v.017a.31.31 0 0 1-.312.29m-55.977 1.03a.31.31 0 0 1-.311-.285l.311-.023-.311.02a.31.31 0 0 1 .284-.334.31.31 0 0 1 .339.292.31.31 0 0 1-.312.33m55.906.13h-.022a.308.308 0 0 1-.289-.34.312.312 0 0 1 .339-.28.31.31 0 0 1 .283.334l-.31-.027.31.028a.313.313 0 0 1-.311.286m-55.792 1.029a.31.31 0 0 1-.31-.273v-.007a.31.31 0 0 1 .273-.343.311.311 0 0 1 .347.27v.008a.31.31 0 0 1-.31.345m55.672.131a.309.309 0 0 1-.31-.353c.021-.17.177-.29.347-.27a.31.31 0 0 1 .274.343l-.002.017a.311.311 0 0 1-.309.263M12.317 44.73a.311.311 0 0 1-.308-.259l.308-.05-.31.044a.309.309 0 0 1 .258-.355.312.312 0 0 1 .359.254l.001.009a.309.309 0 0 1-.308.357m55.339.129a.308.308 0 0 1-.309-.353l.003-.015a.312.312 0 0 1 .615.107l-.308-.054.307.056a.313.313 0 0 1-.308.259m-55.13 1.013a.307.307 0 0 1-.302-.24l-.003-.014a.309.309 0 0 1 .248-.361.312.312 0 0 1 .365.245.312.312 0 0 1-.307.37m54.912.133a.309.309 0 0 1-.306-.37l.001-.01a.312.312 0 0 1 .611.128l-.305-.064.304.07a.311.311 0 0 1-.305.246m-54.65 1.007a.311.311 0 0 1-.301-.232l-.002-.006a.31.31 0 0 1 .226-.375.31.31 0 0 1 .378.22l.002.007a.308.308 0 0 1-.302.386m54.382.127a.308.308 0 0 1-.301-.39.312.312 0 0 1 .607.147l-.004.016a.312.312 0 0 1-.302.227m-54.074.997a.312.312 0 0 1-.3-.223l.3-.086-.3.084a.31.31 0 0 1 .208-.385.311.311 0 0 1 .393.216.308.308 0 0 1-.3.394m53.76.124a.312.312 0 1 1 .092-.61c.165.05.258.222.208.385l-.298-.09.298.092a.314.314 0 0 1-.3.223m-53.406.984a.309.309 0 0 1-.293-.206l-.004-.01a.308.308 0 0 1 .198-.39.313.313 0 0 1 .395.195.31.31 0 0 1-.296.411m53.044.125a.308.308 0 0 1-.296-.406l.003-.01a.313.313 0 0 1 .397-.191c.163.055.25.23.194.392l-.002.004a.312.312 0 0 1-.296.211m-52.64.97a.31.31 0 0 1-.29-.195l-.004-.011a.307.307 0 0 1 .183-.397.313.313 0 0 1 .402.18.309.309 0 0 1-.291.423m52.231.122a.307.307 0 0 1-.288-.428.312.312 0 1 1 .576.239.312.312 0 0 1-.288.19m-51.78.955a.312.312 0 0 1-.286-.185l-.003-.007a.307.307 0 0 1 .161-.406.314.314 0 0 1 .411.159l.004.007a.307.307 0 0 1-.286.432m51.324.116a.313.313 0 0 1-.122-.025.305.305 0 0 1-.159-.416.314.314 0 0 1 .413-.154c.158.07.227.253.156.408l-.284-.127.284.129a.315.315 0 0 1-.288.185m-50.829.941a.312.312 0 0 1-.281-.174l.281-.135-.283.131a.307.307 0 0 1 .14-.413.314.314 0 0 1 .419.137l.005.011a.307.307 0 0 1-.145.412.315.315 0 0 1-.136.031m50.33.115a.313.313 0 0 1-.14-.033.307.307 0 0 1-.14-.414.316.316 0 0 1 .418-.145.305.305 0 0 1 .146.41l-.005.011a.313.313 0 0 1-.28.171m-49.79.919a.31.31 0 0 1-.272-.159l-.006-.01a.307.307 0 0 1 .129-.417.314.314 0 0 1 .422.127.308.308 0 0 1-.273.459m49.245.113a.313.313 0 0 1-.157-.043.306.306 0 0 1-.112-.422.312.312 0 1 1 .539.312.313.313 0 0 1-.27.153m-48.663.898a.307.307 0 0 1-.263-.147l-.005-.007a.306.306 0 0 1 .107-.424.314.314 0 0 1 .429.106.31.31 0 0 1-.268.472M64 54.626a.311.311 0 0 1-.159-.044.305.305 0 0 1-.101-.432.314.314 0 0 1 .43-.1c.146.09.191.28.1.425l-.265-.162.264.164a.316.316 0 0 1-.269.149m-47.442.88a.313.313 0 0 1-.262-.139l-.003-.005a.306.306 0 0 1 .088-.428.314.314 0 0 1 .433.087l.004.008a.306.306 0 0 1-.09.427.313.313 0 0 1-.17.05m46.812.108a.309.309 0 0 1-.254-.491.315.315 0 0 1 .433-.083c.143.096.18.288.083.429l-.258-.174.258.175a.308.308 0 0 1-.262.144m-46.143.852a.313.313 0 0 1-.255-.13l.254-.179-.255.177a.307.307 0 0 1 .067-.43.314.314 0 0 1 .435.063l.007.011c.1.139.068.331-.072.43a.313.313 0 0 1-.181.058m45.47.098a.312.312 0 0 1-.182-.058.305.305 0 0 1-.072-.428l.008-.01a.315.315 0 0 1 .437-.065.306.306 0 0 1 .065.431l-.251-.183.25.186a.315.315 0 0 1-.255.127m-44.761.833a.313.313 0 0 1-.247-.12l-.002-.003a.306.306 0 0 1 .05-.433.315.315 0 0 1 .438.049l.007.009a.306.306 0 0 1-.055.433.313.313 0 0 1-.191.065m44.049.095a.313.313 0 0 1-.196-.069.306.306 0 0 1-.047-.434.318.318 0 0 1 .44-.05.303.303 0 0 1 .046.438.313.313 0 0 1-.243.115m-43.303.805a.31.31 0 0 1-.234-.106l-.007-.009a.306.306 0 0 1 .036-.434.315.315 0 0 1 .44.036.308.308 0 0 1-.235.513m42.552.09a.313.313 0 0 1-.207-.077.306.306 0 0 1-.027-.435.315.315 0 0 1 .44-.037c.132.11.149.305.037.435l-.01.01a.313.313 0 0 1-.233.105m-41.765.778a.313.313 0 0 1-.227-.098l-.004-.004a.308.308 0 0 1 .014-.436.313.313 0 0 1 .44.012l.005.006a.306.306 0 0 1-.014.436.313.313 0 0 1-.214.084m40.976.087c-.08 0-.16-.03-.22-.09a.306.306 0 0 1 0-.437.312.312 0 0 1 .438-.016.308.308 0 0 1 .003.452c-.061.06-.141.09-.221.09M20.287 60a.31.31 0 0 1-.216-.087l-.008-.008a.306.306 0 0 1 0-.436c.122-.12.32-.12.441 0a.308.308 0 0 1-.217.531m39.333.085a.314.314 0 0 1-.226-.095.306.306 0 0 1 .01-.436.316.316 0 0 1 .441 0 .305.305 0 0 1 0 .435l-.01.01a.313.313 0 0 1-.215.086m-38.476.717a.313.313 0 0 1-.211-.081l.211-.227-.215.224a.306.306 0 0 1-.022-.436.315.315 0 0 1 .449-.015c.126.115.135.31.018.436a.313.313 0 0 1-.23.1m37.617.08a.313.313 0 0 1-.234-.105.306.306 0 0 1 .027-.435.316.316 0 0 1 .442.017c.117.126.11.32-.018.436l-.01.009a.313.313 0 0 1-.207.077m-36.73.686a.314.314 0 0 1-.2-.073l-.004-.003a.306.306 0 0 1-.041-.435.315.315 0 0 1 .44-.04l.008.007c.131.11.148.304.036.435a.313.313 0 0 1-.238.109m35.838.076a.313.313 0 0 1-.242-.114.306.306 0 0 1 .045-.434.316.316 0 0 1 .44.036.305.305 0 0 1-.035.434l-.011.009a.313.313 0 0 1-.197.07m-34.92.65a.313.313 0 0 1-.19-.065l.19-.243-.192.242a.308.308 0 0 1-.061-.431.313.313 0 0 1 .434-.064l.011.01c.137.104.161.298.055.432a.313.313 0 0 1-.246.12m33.996.073a.313.313 0 0 1-.255-.13.306.306 0 0 1 .073-.43.312.312 0 0 1 .436.056.308.308 0 0 1-.073.446.314.314 0 0 1-.181.058m-33.048.615a.313.313 0 0 1-.18-.057l.18-.251-.183.249a.307.307 0 0 1-.078-.43.314.314 0 0 1 .433-.077l.01.007c.14.099.173.291.073.43a.313.313 0 0 1-.255.13m32.094.07a.313.313 0 0 1-.258-.136.306.306 0 0 1 .083-.428c.14-.1.335-.067.435.072.1.138.068.33-.072.43l-.013.008a.313.313 0 0 1-.175.054m-31.119.578a.308.308 0 0 1-.174-.054.306.306 0 0 1-.09-.428.314.314 0 0 1 .432-.089.31.31 0 0 1-.168.57m30.14.066a.313.313 0 0 1-.264-.14.305.305 0 0 1 .09-.424l.013-.009a.314.314 0 0 1 .43.1.306.306 0 0 1-.1.424l-.165-.262.163.264a.316.316 0 0 1-.168.047m-29.134.542a.308.308 0 0 1-.153-.04l-.009-.006a.307.307 0 0 1-.111-.422.314.314 0 0 1 .427-.11.31.31 0 0 1-.154.578m28.125.063a.312.312 0 0 1-.27-.153.306.306 0 0 1 .111-.421l.01-.006a.314.314 0 0 1 .426.116.307.307 0 0 1-.117.42l-.154-.268.15.27a.315.315 0 0 1-.156.042m-27.093.503c-.05 0-.1-.012-.146-.037l-.006-.002a.307.307 0 0 1-.13-.417c.08-.15.268-.209.42-.13l.01.005c.151.08.209.267.128.417a.313.313 0 0 1-.276.164m26.059.059a.313.313 0 0 1-.278-.167.307.307 0 0 1 .134-.416.316.316 0 0 1 .424.126.305.305 0 0 1-.127.417l-.01.005a.313.313 0 0 1-.143.035m-25.006.462a.314.314 0 0 1-.137-.032l.137-.276-.139.276a.305.305 0 0 1-.154-.408.315.315 0 0 1 .415-.153l.016.008c.155.075.219.26.143.413a.313.313 0 0 1-.28.172m23.948.055a.312.312 0 0 1-.284-.182.307.307 0 0 1 .156-.408.314.314 0 0 1 .417.143.307.307 0 0 1-.146.413l-.014.006a.315.315 0 0 1-.129.028m-22.874.422a.316.316 0 0 1-.12-.023.307.307 0 0 1-.173-.415.314.314 0 0 1 .414-.155c.16.065.234.245.169.403a.313.313 0 0 1-.29.19m21.793.052a.31.31 0 0 1-.125-.592l.019-.007a.314.314 0 0 1 .406.17.307.307 0 0 1-.171.401l-.118-.285.116.286a.311.311 0 0 1-.127.027m-20.7.38a.312.312 0 0 1-.109-.02l-.008-.003a.307.307 0 0 1-.181-.398.313.313 0 0 1 .403-.179c.16.06.245.24.184.399a.31.31 0 0 1-.29.2m19.608.046a.307.307 0 0 1-.11-.597l.008-.003a.313.313 0 0 1 .402.18.307.307 0 0 1-.183.398l-.007.002a.316.316 0 0 1-.11.02m-18.494.34a.317.317 0 0 1-.1-.016l.1-.292-.103.292a.31.31 0 0 1-.2-.388.312.312 0 0 1 .403-.196.308.308 0 0 1-.1.6m17.376.042a.31.31 0 0 1-.293-.209.31.31 0 0 1 .196-.393l.018-.005a.308.308 0 1 1 .181.59l-.09-.295.089.295a.314.314 0 0 1-.1.017m-16.25.298a.319.319 0 0 1-.083-.011l-.017-.005a.308.308 0 0 1-.206-.386.313.313 0 0 1 .39-.204.307.307 0 0 1-.084.606m15.124.035a.308.308 0 0 1-.082-.606l.007-.003a.308.308 0 1 1 .164.595l-.007.003a.316.316 0 0 1-.082.01m-13.984.258a.32.32 0 0 1-.073-.01l.073-.299-.08.298a.308.308 0 1 1 .145-.6l.009.002a.308.308 0 0 1-.074.609m12.841.03a.309.309 0 0 1-.063-.61.311.311 0 0 1 .376.226.31.31 0 0 1-.231.373l-.018.004a.324.324 0 0 1-.064.006m-11.688.215a.316.316 0 0 1-.056-.005l-.016-.003a.309.309 0 1 1 .127-.604.308.308 0 0 1-.055.612m10.531.025a.31.31 0 0 1-.303-.245.31.31 0 0 1 .243-.366l.018-.003c.17-.03.332.082.362.25a.309.309 0 0 1-.254.357l-.054-.304.053.304a.312.312 0 0 1-.065.007m-9.37.171a.317.317 0 0 1-.047-.003l.046-.305-.053.304a.31.31 0 0 1-.263-.35.311.311 0 0 1 .363-.26c.17.026.288.183.262.351a.311.311 0 0 1-.308.263m8.211.02a.311.311 0 0 1-.308-.263.31.31 0 0 1 .271-.353c.17-.025.33.092.354.26a.309.309 0 0 1-.263.35l-.046-.304.04.306a.328.328 0 0 1-.048.003m-7.042.13a.33.33 0 0 1-.037-.003l.036-.306-.038.306a.309.309 0 0 1 .058-.614l.017.002a.31.31 0 0 1 .273.342.311.311 0 0 1-.31.272m5.878.014a.313.313 0 0 1-.312-.276.307.307 0 0 1 .272-.339l.017-.002c.17-.015.323.11.338.28a.31.31 0 0 1-.284.335l-.027-.307.026.307-.03.002m-4.704.086a.3.3 0 0 1-.035-.002.31.31 0 0 1-.284-.334.31.31 0 0 1 .339-.28.31.31 0 0 1 .293.326.311.311 0 0 1-.313.29m3.525.008a.31.31 0 0 1-.311-.29.31.31 0 0 1 .293-.326.313.313 0 0 1 .334.29.307.307 0 0 1-.29.325h-.007l-.019.001m-2.347.043a.38.38 0 0 1-.01 0l.01-.308-.011.308a.308.308 0 1 1 .003-.617h.017a.31.31 0 0 1 .302.318.31.31 0 0 1-.311.3m1.17.002a.31.31 0 0 1-.312-.308c0-.174.146-.311.321-.309a.31.31 0 0 1 .312.3.31.31 0 0 1-.32.317M21.399 58.648c-.08 0-.16-.03-.22-.09a.304.304 0 0 1-.001-.435l.002-.003c.122-.12.32-.12.442 0a.306.306 0 0 1 0 .436.316.316 0 0 1-.223.092M57.728 22.746a.31.31 0 0 1-.22-.09.303.303 0 0 1-.002-.433l.006-.006c.122-.12.32-.119.441.002.122.12.121.316-.001.436a.32.32 0 0 1-.224.091m-.826.816a.31.31 0 0 1-.218-.087.303.303 0 0 1-.006-.434l.006-.005a.315.315 0 0 1 .441-.003c.123.12.124.315.003.436a.32.32 0 0 1-.226.093m-.826.816a.31.31 0 0 1-.217-.087.303.303 0 0 1-.006-.434l.005-.005a.315.315 0 0 1 .442-.003c.122.12.124.314.003.436a.32.32 0 0 1-.227.093m-.825.816a.31.31 0 0 1-.22-.09.303.303 0 0 1-.002-.433l.006-.006c.122-.12.32-.12.441.002.122.12.121.316-.001.436a.32.32 0 0 1-.224.091m-.826.816a.31.31 0 0 1-.22-.089.303.303 0 0 1-.002-.434l.005-.005c.122-.12.32-.12.442 0a.306.306 0 0 1 0 .436.32.32 0 0 1-.225.092m-.826.816a.31.31 0 0 1-.22-.09.303.303 0 0 1-.002-.433l.006-.005c.121-.12.32-.12.441 0a.306.306 0 0 1 0 .436.32.32 0 0 1-.225.092m-.825.816a.31.31 0 0 1-.22-.09.303.303 0 0 1-.002-.434l.006-.005c.122-.12.32-.12.441.002.122.12.121.316-.001.436a.32.32 0 0 1-.224.091m-.826.816a.31.31 0 0 1-.218-.088.303.303 0 0 1-.006-.433l.006-.006a.315.315 0 0 1 .441-.003c.123.12.124.315.003.437a.32.32 0 0 1-.226.093m-.826.816a.31.31 0 0 1-.22-.09.303.303 0 0 1-.001-.434l.005-.005c.123-.12.32-.12.442.002.121.12.12.316-.002.436a.32.32 0 0 1-.224.09m-.825.817a.31.31 0 0 1-.22-.09.303.303 0 0 1-.002-.434l.006-.005c.122-.12.32-.12.441.002.122.12.12.316-.001.436a.32.32 0 0 1-.224.09m-.826.817a.31.31 0 0 1-.22-.09.303.303 0 0 1-.002-.433l.005-.005c.122-.12.32-.12.442 0a.306.306 0 0 1 0 .436.32.32 0 0 1-.225.092m-.826.816a.31.31 0 0 1-.22-.09.303.303 0 0 1-.001-.434l.005-.005c.123-.12.32-.12.442.001.121.121.12.317-.002.437a.32.32 0 0 1-.224.09m-.826.817a.31.31 0 0 1-.218-.089.303.303 0 0 1-.005-.433l.006-.006a.315.315 0 0 1 .441-.001c.123.12.123.315.002.436a.32.32 0 0 1-.226.093m-.825.816a.31.31 0 0 1-.218-.088.303.303 0 0 1-.006-.434l.006-.005a.315.315 0 0 1 .44-.003c.124.12.125.315.004.436a.32.32 0 0 1-.226.094m-.826.816c-.08 0-.16-.03-.22-.09a.303.303 0 0 1-.001-.434l.005-.005c.122-.12.32-.12.442.001.121.121.12.317-.002.437a.32.32 0 0 1-.224.09m-.826.817a.31.31 0 0 1-.22-.09.303.303 0 0 1-.002-.433l.006-.006c.121-.12.32-.12.441 0a.306.306 0 0 1 0 .437.32.32 0 0 1-.225.092m-.825.815a.31.31 0 0 1-.22-.089.303.303 0 0 1-.003-.433l.006-.006c.122-.12.32-.12.441 0a.306.306 0 0 1 0 .437.32.32 0 0 1-.224.091m-.826.816a.31.31 0 0 1-.22-.09.303.303 0 0 1-.001-.433l.005-.005c.122-.12.32-.12.441.001.122.121.121.316-.001.436a.32.32 0 0 1-.224.091m-.826.816a.31.31 0 0 1-.218-.087.303.303 0 0 1-.006-.434l.006-.005a.315.315 0 0 1 .441-.003c.123.12.125.315.004.436a.32.32 0 0 1-.227.093m-.826.816a.311.311 0 0 1-.217-.087.303.303 0 0 1-.006-.434l.005-.005a.315.315 0 0 1 .442-.003c.123.12.124.315.003.436a.32.32 0 0 1-.227.093m-.825.816a.31.31 0 0 1-.22-.09.303.303 0 0 1-.002-.433l.006-.006c.122-.12.32-.119.441.002.122.12.121.316-.001.436a.32.32 0 0 1-.224.091m-.826.816c-.08 0-.159-.03-.22-.089a.303.303 0 0 1-.002-.433l.005-.006c.122-.12.32-.12.442 0a.306.306 0 0 1 0 .437.32.32 0 0 1-.225.091m-.826.816a.31.31 0 0 1-.219-.089.303.303 0 0 1-.003-.433l.006-.006c.122-.12.32-.12.441 0a.306.306 0 0 1 0 .436.32.32 0 0 1-.225.092m-.825.816a.31.31 0 0 1-.22-.089.303.303 0 0 1-.002-.433l.005-.006c.122-.12.32-.12.442 0a.306.306 0 0 1 0 .436.32.32 0 0 1-.225.092m-.826.816c-.08 0-.16-.03-.22-.089a.303.303 0 0 1-.002-.434l.005-.005c.122-.12.32-.12.442 0a.306.306 0 0 1 0 .436.32.32 0 0 1-.225.092m-.826.816a.31.31 0 0 1-.22-.089.303.303 0 0 1-.002-.434l.006-.005c.122-.12.32-.12.441 0a.306.306 0 0 1 0 .436.32.32 0 0 1-.225.092m-.825.816c-.08 0-.16-.03-.22-.089a.303.303 0 0 1-.003-.434l.006-.005c.122-.12.32-.12.441 0a.306.306 0 0 1 0 .436.32.32 0 0 1-.224.092m-.826.816c-.08 0-.16-.03-.22-.09a.303.303 0 0 1-.002-.433l.005-.005c.122-.12.32-.12.442 0a.306.306 0 0 1 0 .436.32.32 0 0 1-.225.092m-.826.816a.31.31 0 0 1-.218-.088.303.303 0 0 1-.005-.434l.006-.005a.315.315 0 0 1 .441-.002c.123.12.123.316.002.436a.32.32 0 0 1-.226.093m-.825.816a.31.31 0 0 1-.221-.09.303.303 0 0 1 0-.434l.005-.006a.315.315 0 0 1 .442.003.306.306 0 0 1-.003.437.32.32 0 0 1-.223.09m-.826.816a.31.31 0 0 1-.219-.088.303.303 0 0 1-.004-.434l.005-.005a.315.315 0 0 1 .442-.002c.122.12.123.315.001.436a.32.32 0 0 1-.225.093m-.826.816a.31.31 0 0 1-.219-.088.303.303 0 0 1-.004-.434l.006-.005a.315.315 0 0 1 .441-.002c.123.12.123.315.002.436a.32.32 0 0 1-.226.093m-.826.816a.31.31 0 0 1-.219-.09.303.303 0 0 1-.003-.433l.006-.005c.122-.12.32-.12.441 0a.306.306 0 0 1 0 .436.32.32 0 0 1-.225.092m-.825.816a.31.31 0 0 1-.219-.089.303.303 0 0 1-.004-.433l.005-.006a.315.315 0 0 1 .442-.001c.122.12.123.315.001.436a.32.32 0 0 1-.225.093m-.826.816a.31.31 0 0 1-.22-.09.303.303 0 0 1 0-.435l.005-.005a.315.315 0 0 1 .441.003.306.306 0 0 1-.003.436.32.32 0 0 1-.223.09m-.826.817a.31.31 0 0 1-.22-.091.303.303 0 0 1 0-.434l.005-.005a.315.315 0 0 1 .442.003.306.306 0 0 1-.003.436.32.32 0 0 1-.224.09m-.825.817a.31.31 0 0 1-.219-.089.303.303 0 0 1-.004-.433l.005-.006a.315.315 0 0 1 .442-.001c.122.12.123.315.001.436a.32.32 0 0 1-.225.093m-.826.816c-.08 0-.16-.03-.22-.09a.303.303 0 0 1-.002-.433l.005-.006c.122-.12.32-.12.442 0a.306.306 0 0 1 0 .437.32.32 0 0 1-.225.092m-.826.815a.31.31 0 0 1-.218-.088.303.303 0 0 1-.005-.433l.006-.006a.315.315 0 0 1 .441-.001c.123.12.123.315.002.436a.32.32 0 0 1-.226.092m-.825.816a.31.31 0 0 1-.22-.09.303.303 0 0 1-.002-.433l.006-.005c.122-.12.32-.12.441.001.122.121.12.317-.001.437a.32.32 0 0 1-.224.09m-.826.816a.31.31 0 0 1-.221-.09.303.303 0 0 1 0-.434l.006-.005a.315.315 0 0 1 .441.003.306.306 0 0 1-.003.436.32.32 0 0 1-.223.09m-.826.816a.31.31 0 0 1-.219-.088.303.303 0 0 1-.004-.433l.006-.006a.315.315 0 0 1 .441-.001c.122.12.123.315.002.436a.32.32 0 0 1-.226.092m-.826.816a.31.31 0 0 1-.219-.089.303.303 0 0 1-.003-.433l.006-.006c.122-.12.32-.12.441 0a.306.306 0 0 1 0 .437.32.32 0 0 1-.225.091m-.825.816a.31.31 0 0 1-.219-.088.303.303 0 0 1-.004-.434l.005-.005a.315.315 0 0 1 .442-.002c.122.12.123.316.001.437a.32.32 0 0 1-.225.092M58.553 21.932a.312.312 0 0 1-.219-.088.304.304 0 0 1-.004-.435l.003-.003a.315.315 0 0 1 .441-.003c.123.12.124.315.003.437a.316.316 0 0 1-.224.092M21.401 21.934a.313.313 0 0 1-.222-.092.308.308 0 0 1 .001-.437c.123-.12.32-.12.44.001l.003.003a.306.306 0 0 1-.003.436.313.313 0 0 1-.219.09M22.227 22.75c-.08 0-.16-.03-.221-.09a.31.31 0 0 1-.003-.44.312.312 0 0 1 .44-.002l.005.005a.306.306 0 0 1 0 .437.314.314 0 0 1-.221.09m.826.816c-.08 0-.16-.03-.221-.09a.31.31 0 0 1-.003-.44.312.312 0 0 1 .439-.002l.005.006a.306.306 0 0 1 0 .436.313.313 0 0 1-.22.09m.825.816c-.08 0-.16-.03-.22-.09a.31.31 0 0 1-.003-.44.312.312 0 0 1 .438-.002l.006.005a.306.306 0 0 1 0 .437.313.313 0 0 1-.22.09m.825.816c-.08 0-.16-.03-.22-.09a.31.31 0 0 1-.004-.44.312.312 0 0 1 .44-.002l.005.005a.306.306 0 0 1 0 .437.313.313 0 0 1-.221.09m.826.816c-.08 0-.16-.03-.222-.091a.31.31 0 0 1-.001-.44.311.311 0 0 1 .439 0l.005.005c.122.121.12.316-.001.436-.061.06-.14.09-.22.09m.825.816c-.08 0-.16-.03-.22-.09a.31.31 0 0 1-.003-.44.312.312 0 0 1 .439-.002l.005.005a.306.306 0 0 1 0 .437.313.313 0 0 1-.22.09m.825.816c-.08 0-.16-.03-.22-.09a.31.31 0 0 1-.004-.44.312.312 0 0 1 .44-.002l.005.005a.306.306 0 0 1 0 .437.314.314 0 0 1-.221.09m.826.816c-.08 0-.16-.03-.222-.091a.31.31 0 0 1-.001-.44.311.311 0 0 1 .439 0l.005.005c.122.12.121.316-.001.436-.061.06-.14.09-.22.09m.825.816c-.08 0-.159-.03-.22-.09a.31.31 0 0 1-.004-.439.312.312 0 0 1 .439-.004l.005.005c.123.12.123.316.002.437a.313.313 0 0 1-.222.09m.826.817c-.08 0-.16-.03-.221-.091a.31.31 0 0 1-.002-.44.312.312 0 0 1 .44 0l.005.005c.121.12.12.316-.002.436-.06.06-.14.09-.22.09m.826.816c-.08 0-.16-.03-.221-.09a.31.31 0 0 1-.003-.44.312.312 0 0 1 .44-.002l.005.005a.306.306 0 0 1 0 .436.314.314 0 0 1-.221.09m.826.817c-.08 0-.16-.03-.22-.09a.31.31 0 0 1-.005-.439.311.311 0 0 1 .439-.004l.005.005c.123.12.124.316.002.437a.313.313 0 0 1-.221.09m.825.817c-.08 0-.16-.03-.221-.091a.31.31 0 0 1-.002-.44.312.312 0 0 1 .44 0l.005.005c.121.12.12.316-.002.436-.06.06-.14.09-.22.09m.826.816c-.08 0-.16-.03-.22-.09a.31.31 0 0 1-.004-.439.311.311 0 0 1 .438-.004l.006.005c.122.12.123.316.001.436a.313.313 0 0 1-.221.092m.826.816c-.08 0-.16-.03-.221-.09a.31.31 0 0 1-.003-.44.312.312 0 0 1 .439-.003l.005.006a.306.306 0 0 1 0 .436.313.313 0 0 1-.22.09m.825.817c-.08 0-.16-.03-.22-.09a.31.31 0 0 1-.003-.44.312.312 0 0 1 .439-.003l.005.006a.306.306 0 0 1 0 .436.313.313 0 0 1-.22.09m.825.817c-.08 0-.16-.03-.22-.09a.31.31 0 0 1-.004-.44.312.312 0 0 1 .438-.003l.006.005c.122.12.123.315.001.436a.313.313 0 0 1-.221.092m.826.815a.31.31 0 0 1-.223-.53.312.312 0 0 1 .439 0l.005.005c.122.12.121.316-.001.436-.061.06-.14.09-.22.09m.825.815c-.08 0-.16-.03-.22-.09a.31.31 0 0 1-.003-.439.312.312 0 0 1 .439-.003l.005.006a.306.306 0 0 1 0 .436.313.313 0 0 1-.22.09m.825.816c-.08 0-.16-.03-.22-.09a.31.31 0 0 1-.003-.439.312.312 0 0 1 .438-.003l.006.006a.306.306 0 0 1 0 .436.313.313 0 0 1-.22.09m.825.816c-.08 0-.16-.03-.22-.09a.31.31 0 0 1-.004-.44.312.312 0 0 1 .44-.002l.005.006a.306.306 0 0 1 0 .436.313.313 0 0 1-.221.09m.826.816c-.08 0-.16-.03-.22-.09a.31.31 0 0 1-.005-.438.312.312 0 0 1 .439-.005l.005.006c.123.12.124.315.002.436a.313.313 0 0 1-.221.091m.825.816c-.08 0-.159-.03-.22-.09a.31.31 0 0 1-.004-.438.311.311 0 0 1 .439-.005l.005.006c.122.12.123.315.002.436a.313.313 0 0 1-.222.091m.826.816a.313.313 0 0 1-.222-.092.31.31 0 0 1 0-.439.311.311 0 0 1 .439 0l.005.006a.306.306 0 0 1-.003.436.313.313 0 0 1-.22.09m.827.815c-.08 0-.16-.03-.22-.09a.31.31 0 0 1-.005-.438.311.311 0 0 1 .44-.005l.005.006c.122.12.123.315.001.436a.313.313 0 0 1-.221.091m.825.816c-.08 0-.159-.03-.22-.09a.31.31 0 0 1-.004-.439.311.311 0 0 1 .439-.004l.005.006c.123.12.123.315.002.436a.313.313 0 0 1-.222.091m.826.816a.314.314 0 0 1-.22-.089.31.31 0 0 1-.005-.439.311.311 0 0 1 .439-.006l.005.006c.123.12.124.315.003.436a.313.313 0 0 1-.222.092m.826.816c-.08 0-.16-.03-.221-.09a.309.309 0 0 1-.003-.44.311.311 0 0 1 .439-.002l.005.005a.306.306 0 0 1 0 .437c-.06.06-.14.09-.22.09m.825.816a.313.313 0 0 1-.222-.092.31.31 0 0 1 0-.439.312.312 0 0 1 .44 0l.005.006a.306.306 0 0 1-.003.436.314.314 0 0 1-.22.089m.826.816c-.08 0-.16-.03-.22-.09a.31.31 0 0 1-.003-.44.311.311 0 0 1 .438-.002l.006.005a.306.306 0 0 1 0 .436c-.061.06-.141.09-.22.09m.825.817c-.08 0-.16-.03-.22-.09a.31.31 0 0 1-.004-.44.311.311 0 0 1 .439-.002l.006.005a.306.306 0 0 1 0 .437.313.313 0 0 1-.221.09m.825.816a.313.313 0 0 1-.219-.089.31.31 0 0 1-.005-.439.311.311 0 0 1 .438-.006l.006.006c.122.12.124.315.003.436a.313.313 0 0 1-.223.092m.826.816a.313.313 0 0 1-.219-.09.31.31 0 0 1-.006-.438.311.311 0 0 1 .439-.006l.005.006c.123.12.125.315.004.436a.313.313 0 0 1-.223.092m.826.816a.313.313 0 0 1-.222-.092.309.309 0 0 1 0-.44.311.311 0 0 1 .439.001l.005.006a.306.306 0 0 1-.003.436.313.313 0 0 1-.22.089m.827.816c-.08 0-.16-.03-.221-.09a.31.31 0 0 1-.003-.44.311.311 0 0 1 .439-.002l.005.005a.306.306 0 0 1 0 .436c-.06.06-.14.09-.22.09m.825.817c-.08 0-.16-.03-.22-.09a.309.309 0 0 1-.003-.44.311.311 0 0 1 .439-.002l.005.005a.306.306 0 0 1 0 .436c-.06.06-.14.09-.22.09m.825.817c-.08 0-.16-.03-.22-.09a.309.309 0 0 1-.003-.44.311.311 0 0 1 .438-.002l.006.005a.306.306 0 0 1 0 .436c-.061.06-.141.09-.221.09m.826.817a.314.314 0 0 1-.22-.09.31.31 0 0 1-.005-.438.311.311 0 0 1 .438-.006l.006.005c.123.12.124.315.003.437a.313.313 0 0 1-.222.092m.825.816a.313.313 0 0 1-.222-.092.31.31 0 0 1 0-.44.311.311 0 0 1 .44.001l.005.005a.306.306 0 0 1-.003.437.313.313 0 0 1-.22.089m.826.815c-.08 0-.16-.03-.22-.09a.31.31 0 0 1-.003-.439.311.311 0 0 1 .438-.003l.006.006a.306.306 0 0 1 0 .436c-.061.06-.141.09-.22.09m.825.816c-.08 0-.16-.03-.22-.09a.31.31 0 0 1-.004-.439.311.311 0 0 1 .44-.003l.005.006a.306.306 0 0 1 0 .436c-.061.06-.141.09-.221.09m.825.816c-.08 0-.16-.03-.22-.09a.31.31 0 0 1-.003-.439.311.311 0 0 1 .439-.003l.005.006a.306.306 0 0 1 0 .436.313.313 0 0 1-.22.09m.825.816c-.08 0-.16-.03-.22-.09a.31.31 0 0 1-.003-.44.312.312 0 0 1 .438-.002l.006.006a.306.306 0 0 1 0 .436.313.313 0 0 1-.22.09m.825.816c-.08 0-.16-.03-.22-.09a.31.31 0 0 1-.004-.44.312.312 0 0 1 .44-.002l.005.006a.306.306 0 0 1 0 .436c-.061.06-.141.09-.221.09M58.555 58.65c-.08 0-.16-.03-.22-.09a.307.307 0 0 1-.002-.438.313.313 0 0 1 .44-.002l.003.003a.306.306 0 0 1 0 .436c-.061.06-.141.09-.221.09M13.707 40.29a.312.312 0 0 1-.314-.308c0-.17.137-.308.31-.308h.004a.31.31 0 0 1 .312.308.31.31 0 0 1-.312.309"/>
        <path fill="#FF7900" d="M14.875 40.29a.314.314 0 0 1-.316-.308c0-.17.135-.308.308-.308h.008a.31.31 0 0 1 .312.308.31.31 0 0 1-.312.309m1.167 0a.314.314 0 0 1-.316-.309c0-.17.136-.308.308-.308h.008a.31.31 0 0 1 .312.308.31.31 0 0 1-.312.309m1.168 0a.314.314 0 0 1-.316-.309c0-.17.136-.308.308-.308h.008a.31.31 0 0 1 .312.308.31.31 0 0 1-.312.309m1.168 0a.314.314 0 0 1-.316-.309c0-.17.136-.308.308-.308h.008a.31.31 0 0 1 .312.308.31.31 0 0 1-.312.309m1.167 0a.314.314 0 0 1-.316-.309c0-.17.136-.308.309-.308h.007a.31.31 0 0 1 .313.308.31.31 0 0 1-.313.309m1.168 0a.314.314 0 0 1-.316-.309c0-.17.136-.308.308-.308h.008a.31.31 0 0 1 .312.308.31.31 0 0 1-.312.309m1.168 0a.314.314 0 0 1-.316-.309c0-.17.136-.308.308-.308h.008a.31.31 0 0 1 .312.308.31.31 0 0 1-.312.309m1.168 0a.314.314 0 0 1-.317-.309c0-.17.136-.308.309-.308h.008a.31.31 0 0 1 .312.308.31.31 0 0 1-.312.309m1.167 0a.314.314 0 0 1-.316-.309c0-.17.136-.308.309-.308h.007a.31.31 0 0 1 .312.308.31.31 0 0 1-.312.309m1.168 0a.314.314 0 0 1-.316-.309c0-.17.136-.308.308-.308h.008a.31.31 0 0 1 .312.308.31.31 0 0 1-.312.309m1.168 0a.314.314 0 0 1-.316-.309c0-.17.136-.308.308-.308h.008a.31.31 0 0 1 .312.308.31.31 0 0 1-.312.309m1.167 0a.314.314 0 0 1-.316-.309c0-.17.136-.308.309-.308h.007a.31.31 0 0 1 .313.308.31.31 0 0 1-.313.309m1.168 0a.314.314 0 0 1-.316-.309c0-.17.136-.308.308-.308h.008a.31.31 0 0 1 .312.308.31.31 0 0 1-.312.309m1.168 0a.314.314 0 0 1-.316-.309c0-.17.136-.308.308-.308h.008a.31.31 0 0 1 .312.308.31.31 0 0 1-.312.309m1.168 0a.314.314 0 0 1-.316-.309c0-.17.135-.308.308-.308h.008a.31.31 0 0 1 .312.308.31.31 0 0 1-.312.309m1.167 0a.314.314 0 0 1-.316-.309c0-.17.136-.308.309-.308h.007a.31.31 0 0 1 .312.308.31.31 0 0 1-.312.309m1.168 0a.314.314 0 0 1-.316-.309c0-.17.136-.308.308-.308h.008a.31.31 0 0 1 .312.308.31.31 0 0 1-.312.309m1.168 0a.314.314 0 0 1-.316-.309c0-.17.136-.308.308-.308h.008a.31.31 0 0 1 .312.308.31.31 0 0 1-.312.309m1.167 0a.314.314 0 0 1-.316-.309c0-.17.136-.308.309-.308h.007a.31.31 0 0 1 .313.308.31.31 0 0 1-.313.309m1.168 0a.314.314 0 0 1-.316-.309c0-.17.136-.308.308-.308h.008a.31.31 0 0 1 .312.308.31.31 0 0 1-.312.309m1.168 0a.314.314 0 0 1-.316-.309c0-.17.136-.308.308-.308h.008a.31.31 0 0 1 .312.308.31.31 0 0 1-.312.309m1.168 0a.314.314 0 0 1-.316-.309c0-.17.135-.308.308-.308h.008a.31.31 0 0 1 .312.308.31.31 0 0 1-.312.309m1.167 0a.314.314 0 0 1-.316-.309c0-.17.136-.308.309-.308h.007a.31.31 0 0 1 .312.308.31.31 0 0 1-.312.309m1.168 0a.314.314 0 0 1-.316-.309c0-.17.136-.308.308-.308h.008a.31.31 0 0 1 .312.308.31.31 0 0 1-.312.309m1.168 0a.314.314 0 0 1-.316-.309c0-.17.136-.308.308-.308h.008a.31.31 0 0 1 .312.308.31.31 0 0 1-.312.309m1.167 0a.314.314 0 0 1-.316-.309c0-.17.136-.308.309-.308h.007a.31.31 0 0 1 .313.308.31.31 0 0 1-.313.309m1.168 0a.314.314 0 0 1-.316-.309c0-.17.136-.308.308-.308h.008a.31.31 0 0 1 .312.308.31.31 0 0 1-.312.309m1.168 0a.314.314 0 0 1-.316-.309c0-.17.136-.308.308-.308h.008a.31.31 0 0 1 .312.308.31.31 0 0 1-.312.309m1.168 0a.314.314 0 0 1-.316-.309c0-.17.135-.308.308-.308h.008a.31.31 0 0 1 .312.308.31.31 0 0 1-.312.309m1.167 0a.314.314 0 0 1-.316-.309c0-.17.136-.308.309-.308h.007a.31.31 0 0 1 .312.308.31.31 0 0 1-.312.309m1.168 0a.314.314 0 0 1-.316-.309c0-.17.136-.308.308-.308h.008a.31.31 0 0 1 .312.308.31.31 0 0 1-.312.309m1.168 0a.314.314 0 0 1-.316-.309c0-.17.136-.308.308-.308h.008a.31.31 0 0 1 .312.308.31.31 0 0 1-.312.309m1.167 0a.314.314 0 0 1-.316-.309c0-.17.136-.308.309-.308h.007a.31.31 0 0 1 .313.308.31.31 0 0 1-.313.309m1.168 0a.314.314 0 0 1-.316-.309c0-.17.136-.308.308-.308h.008a.31.31 0 0 1 .312.308.31.31 0 0 1-.312.309m1.168 0a.314.314 0 0 1-.316-.309c0-.17.136-.308.308-.308h.008a.31.31 0 0 1 .312.308.31.31 0 0 1-.312.309m1.168 0a.314.314 0 0 1-.316-.309c0-.17.135-.308.308-.308h.008a.31.31 0 0 1 .312.308.31.31 0 0 1-.312.309m1.167 0a.314.314 0 0 1-.316-.309c0-.17.136-.308.309-.308h.007a.31.31 0 0 1 .313.308.31.31 0 0 1-.313.309m1.168 0a.314.314 0 0 1-.316-.309c0-.17.136-.308.308-.308h.008a.31.31 0 0 1 .312.308.31.31 0 0 1-.312.309m1.168 0a.314.314 0 0 1-.316-.309c0-.17.136-.308.308-.308h.008a.31.31 0 0 1 .312.308.31.31 0 0 1-.312.309m1.168 0a.314.314 0 0 1-.317-.309c0-.17.136-.308.309-.308h.008a.31.31 0 0 1 .312.308.31.31 0 0 1-.312.309m1.167 0a.314.314 0 0 1-.316-.309c0-.17.136-.308.308-.308h.008a.31.31 0 0 1 .312.308.31.31 0 0 1-.312.309m1.168 0a.314.314 0 0 1-.316-.309c0-.17.136-.308.308-.308h.008a.31.31 0 0 1 .312.308.31.31 0 0 1-.312.309m1.168 0a.314.314 0 0 1-.316-.309c0-.17.136-.308.308-.308h.008a.31.31 0 0 1 .312.308.31.31 0 0 1-.312.309m1.167 0a.314.314 0 0 1-.316-.309c0-.17.136-.308.309-.308h.007a.31.31 0 0 1 .313.308.31.31 0 0 1-.313.309M66.25 40.29a.312.312 0 0 1-.314-.308c0-.17.138-.308.31-.308h.004a.31.31 0 0 1 .312.308.31.31 0 0 1-.312.309M39.977 14.33a.31.31 0 0 1-.313-.308c0-.17.14-.31.313-.31.172 0 .312.136.312.306v.004a.31.31 0 0 1-.312.309M39.977 15.485a.31.31 0 1 1 0-.621c.172 0 .312.134.312.305v.007a.31.31 0 0 1-.312.309m0 1.154a.31.31 0 1 1 0-.621c.172 0 .312.134.312.305v.007a.31.31 0 0 1-.312.309m0 1.154a.31.31 0 1 1 0-.621c.172 0 .312.134.312.305v.007a.31.31 0 0 1-.312.309m0 1.154a.31.31 0 1 1 0-.621c.172 0 .312.134.312.304v.008a.31.31 0 0 1-.312.309m0 1.153a.31.31 0 1 1 0-.62c.172 0 .312.134.312.304v.008a.31.31 0 0 1-.312.308m0 1.154a.31.31 0 1 1 0-.62c.172 0 .312.134.312.304v.008a.31.31 0 0 1-.312.308m0 1.154a.31.31 0 1 1 0-.62c.172 0 .312.134.312.304v.008a.31.31 0 0 1-.312.308m0 1.154a.31.31 0 1 1 0-.62c.172 0 .312.134.312.304v.008a.31.31 0 0 1-.312.308m0 1.154a.31.31 0 1 1 0-.62c.172 0 .312.134.312.304v.008a.31.31 0 0 1-.312.308m0 1.154a.31.31 0 1 1 0-.62c.172 0 .312.134.312.304v.008a.31.31 0 0 1-.312.308m0 1.154a.31.31 0 1 1 0-.62c.172 0 .312.134.312.304v.008a.31.31 0 0 1-.312.308m0 1.154a.31.31 0 1 1 0-.62c.172 0 .312.134.312.304v.008a.31.31 0 0 1-.312.308m0 1.154a.31.31 0 1 1 0-.62c.172 0 .312.134.312.304v.008a.31.31 0 0 1-.312.308m0 1.154a.31.31 0 1 1 0-.62c.172 0 .312.133.312.304v.007a.31.31 0 0 1-.312.309m0 1.154a.31.31 0 1 1 0-.621c.172 0 .312.134.312.305v.007a.31.31 0 0 1-.312.309m0 1.154a.31.31 0 1 1 0-.621c.172 0 .312.134.312.305v.007a.31.31 0 0 1-.312.309m0 1.154a.31.31 0 1 1 0-.621c.172 0 .312.134.312.305v.007a.31.31 0 0 1-.312.309m0 1.154a.31.31 0 1 1 0-.621c.172 0 .312.134.312.304v.008a.31.31 0 0 1-.312.309m0 1.154a.31.31 0 1 1 0-.621c.172 0 .312.134.312.304v.008a.31.31 0 0 1-.312.309m0 1.154a.31.31 0 1 1 0-.621c.172 0 .312.134.312.304v.008a.31.31 0 0 1-.312.309m0 1.153a.31.31 0 1 1 0-.62c.172 0 .312.134.312.304v.008a.31.31 0 0 1-.312.308m0 1.154a.31.31 0 1 1 0-.62c.172 0 .312.134.312.304v.008a.31.31 0 0 1-.312.308m0 1.154a.31.31 0 1 1 0-.62c.172 0 .312.134.312.304v.008a.31.31 0 0 1-.312.308m0 1.154a.31.31 0 1 1 0-.62c.172 0 .312.134.312.304v.008a.31.31 0 0 1-.312.308m0 1.154a.31.31 0 1 1 0-.62c.172 0 .312.134.312.304v.008a.31.31 0 0 1-.312.308m0 1.154a.31.31 0 1 1 0-.62c.172 0 .312.134.312.304v.008a.31.31 0 0 1-.312.308m0 1.154a.31.31 0 1 1 0-.62c.172 0 .312.134.312.304v.008a.31.31 0 0 1-.312.308m0 1.154a.31.31 0 1 1 0-.62c.172 0 .312.133.312.304v.008a.31.31 0 0 1-.312.308m0 1.154a.31.31 0 1 1 0-.62c.172 0 .312.133.312.304v.007a.31.31 0 0 1-.312.309m0 1.154a.31.31 0 1 1 0-.62c.172 0 .312.133.312.304v.007a.31.31 0 0 1-.312.309m0 1.154a.31.31 0 1 1 0-.621c.172 0 .312.134.312.305v.007a.31.31 0 0 1-.312.309m0 1.154a.31.31 0 1 1 0-.621c.172 0 .312.134.312.305v.007a.31.31 0 0 1-.312.309m0 1.154a.31.31 0 1 1 0-.621c.172 0 .312.134.312.305v.007a.31.31 0 0 1-.312.309m0 1.154a.31.31 0 1 1 0-.621c.172 0 .312.134.312.304v.008a.31.31 0 0 1-.312.309m0 1.154a.31.31 0 1 1 0-.621c.172 0 .312.134.312.304v.008a.31.31 0 0 1-.312.309m0 1.154a.31.31 0 1 1 0-.621c.172 0 .312.134.312.304v.008a.31.31 0 0 1-.312.309m0 1.153a.31.31 0 1 1 0-.62c.172 0 .312.134.312.304v.008a.31.31 0 0 1-.312.308m0 1.154a.31.31 0 1 1 0-.62c.172 0 .312.134.312.304v.008a.31.31 0 0 1-.312.308m0 1.154a.31.31 0 1 1 0-.62c.172 0 .312.134.312.304v.008a.31.31 0 0 1-.312.308m0 1.154a.31.31 0 1 1 0-.62c.172 0 .312.134.312.304v.008a.31.31 0 0 1-.312.308m0 1.154a.31.31 0 1 1 0-.62c.172 0 .312.134.312.304v.008a.31.31 0 0 1-.312.308m0 1.154a.31.31 0 1 1 0-.62c.172 0 .312.134.312.304v.008a.31.31 0 0 1-.312.308m0 1.154a.31.31 0 1 1 0-.62c.172 0 .312.134.312.304v.007a.31.31 0 0 1-.312.309m0 1.154a.31.31 0 1 1 0-.62c.172 0 .312.133.312.304v.007a.31.31 0 0 1-.312.309M39.977 66.254a.31.31 0 0 1-.313-.308c0-.17.14-.31.313-.31.172 0 .312.135.312.306v.004a.31.31 0 0 1-.312.308"/>
        <path fill="#FFF" d="M69.083 40.79a.777.777 0 0 1 1.09 0 .755.755 0 0 1 0 1.076.777.777 0 0 1-1.09 0 .755.755 0 0 1 0-1.077"/>
        <path fill="#595959" d="M52.264 52.104c2.86-2.826 7.498-2.826 10.359 0a7.178 7.178 0 0 1 0 10.237c-2.86 2.826-7.498 2.826-10.359 0a7.178 7.178 0 0 1 0-10.237"/>
        <path fill="#FFD200" d="M53.612 53.436a5.465 5.465 0 0 1 7.664 0 5.31 5.31 0 0 1 0 7.573 5.465 5.465 0 0 1-7.664 0 5.31 5.31 0 0 1 0-7.573"/>
        <path fill="#D6D6D6" d="M12.814 13.12c4.119-4.07 10.797-4.07 14.916 0a10.336 10.336 0 0 1 0 14.74c-4.119 4.07-10.797 4.07-14.916 0a10.336 10.336 0 0 1 0-14.74"/>
        <path fill="#A885D8" d="M14.754 15.037c3.048-3.012 7.989-3.012 11.036 0a7.647 7.647 0 0 1 0 10.906c-3.047 3.011-7.988 3.011-11.036 0a7.647 7.647 0 0 1 0-10.906"/>
        <path fill="#8F8F8F" d="M27.73 52.104a7.178 7.178 0 0 1 0 10.237c-2.86 2.826-7.498 2.826-10.358 0a7.178 7.178 0 0 1 0-10.237c2.86-2.826 7.498-2.826 10.358 0"/>
        <path fill="#FFB4E6" d="M26.383 53.436a5.31 5.31 0 0 1 0 7.573 5.465 5.465 0 0 1-7.664 0 5.31 5.31 0 0 1 0-7.573 5.465 5.465 0 0 1 7.664 0"/>
        <path fill="#D6D6D6" d="M67.18 13.12a10.336 10.336 0 0 1 0 14.74c-4.118 4.07-10.797 4.07-14.916 0a10.336 10.336 0 0 1 0-14.74c4.12-4.07 10.798-4.07 14.917 0"/>
        <path fill="#50BE87" d="M65.24 15.037a7.647 7.647 0 0 1 0 10.906c-3.047 3.011-7.988 3.011-11.036 0a7.648 7.648 0 0 1 0-10.906c3.048-3.012 7.99-3.012 11.037 0"/>
        <path fill="#8F8F8F" d="M57.346 39.982c0-3.997 3.279-7.238 7.324-7.238s7.325 3.24 7.325 7.238-3.28 7.238-7.325 7.238-7.324-3.24-7.324-7.238"/>
        <path fill="#4BB4E6" d="M59.25 39.982c0-2.958 2.427-5.355 5.42-5.355s5.42 2.397 5.42 5.355c0 2.958-2.427 5.355-5.42 5.355s-5.42-2.397-5.42-5.355"/>
        <g transform="translate(8 32.676)">
            <mask id="b" fill="#fff">
                <use xlink:href="#a"/>
            </mask>
            <path fill="#595959" d="M0 7.307C0 3.309 3.28.068 7.324.068c4.046 0 7.325 3.241 7.325 7.239 0 3.997-3.28 7.238-7.325 7.238S0 11.304 0 7.307" mask="url(#b)"/>
        </g>
        <path fill="#FFF6B6" d="M9.905 39.982c0-2.958 2.426-5.355 5.42-5.355 2.993 0 5.419 2.397 5.419 5.355 0 2.958-2.426 5.355-5.42 5.355-2.993 0-5.419-2.397-5.419-5.355"/>
        <path fill="#4BB4E6" d="M15.3 35.782l.34.862c.134.34.304.664.469.99a.887.887 0 0 1-.17 1.032.913.913 0 0 1-1.28 0 .887.887 0 0 1-.17-1.033c.165-.325.335-.65.47-.989l.34-.862z"/>
        <g transform="translate(10 35)">
            <mask id="d" fill="#fff">
                <use xlink:href="#c"/>
            </mask>
            <path fill="#50BE87" d="M4.212 5.597c1.081 1.082 1.177 2.74 1.177 2.74S3.731 8.24 2.65 7.158c-1.08-1.082-1.177-2.74-1.177-2.74s1.658.097 2.74 1.178" mask="url(#d)"/>
        </g>
        <g transform="translate(10 35)">
            <mask id="f" fill="#fff">
                <use xlink:href="#e"/>
            </mask>
            <path fill="#0A6E31" d="M5.39 8.415a.078.078 0 0 1-.056-.023L1.688 4.747a.078.078 0 1 1 .111-.111L5.445 8.28a.078.078 0 0 1-.056.134" mask="url(#f)"/>
        </g>
        <g transform="translate(10 35)">
            <mask id="h" fill="#fff">
                <use xlink:href="#g"/>
            </mask>
            <path fill="#50BE87" d="M8.128 7.159C7.047 8.241 5.39 8.336 5.39 8.336s.096-1.657 1.178-2.739C7.648 4.516 9.306 4.42 9.306 4.42S9.21 6.077 8.128 7.159" mask="url(#h)"/>
        </g>
        <g transform="translate(10 35)">
            <mask id="j" fill="#fff">
                <use xlink:href="#i"/>
            </mask>
            <path fill="#0A6E31" d="M5.39 8.415a.078.078 0 0 1-.056-.134l3.645-3.645a.079.079 0 0 1 .111.11L5.445 8.393a.078.078 0 0 1-.056.023" mask="url(#j)"/>
        </g>
        <g transform="translate(10 35)">
            <mask id="l" fill="#fff">
                <use xlink:href="#k"/>
            </mask>
            <path fill="#0A6E31" d="M8.636 6.573H8.63l-.951-.214c-.043-.01-.075-.106-.071-.216.004-.109.042-.189.085-.18l.951.213c.043.01.075.106.072.216-.004.103-.038.181-.079.181" mask="url(#l)"/>
        </g>
        <g transform="translate(10 35)">
            <mask id="n" fill="#fff">
                <use xlink:href="#m"/>
            </mask>
            <path fill="#0A6E31" d="M7.593 7.617h-.007l-.952-.214c-.043-.01-.075-.106-.071-.216.004-.11.041-.19.085-.18l.952.213c.043.01.075.106.07.215-.003.104-.037.182-.077.182" mask="url(#n)"/>
        </g>
        <g transform="translate(10 35)">
            <mask id="p" fill="#fff">
                <use xlink:href="#o"/>
            </mask>
            <path fill="#0A6E31" d="M7.938 6.123c-.103 0-.192-.031-.2-.072l-.208-.952c-.01-.043.073-.08.184-.085.11-.003.208.029.218.072l.207.952c.01.043-.073.081-.183.085a.65.65 0 0 1-.018 0" mask="url(#p)"/>
        </g>
        <g transform="translate(10 35)">
            <mask id="r" fill="#fff">
                <use xlink:href="#q"/>
            </mask>
            <path fill="#0A6E31" d="M6.891 7.163c-.104 0-.192-.031-.2-.072l-.208-.952c-.01-.043.073-.08.183-.085.112-.004.209.029.219.072l.207.952c.01.043-.073.08-.184.085h-.017" mask="url(#r)"/>
        </g>
        <g transform="translate(10 35)">
            <mask id="t" fill="#fff">
                <use xlink:href="#s"/>
            </mask>
            <path fill="#50BE87" d="M5.8 12.927h-.61l.172-4.631c.007-.112.258-.112.266 0l.172 4.631z" mask="url(#t)"/>
        </g>
        <g transform="translate(10 35)">
            <mask id="v" fill="#fff">
                <use xlink:href="#u"/>
            </mask>
            <path fill="#0A6E31" d="M3.214 6.12a.45.45 0 0 1-.018-.001c-.11-.004-.19-.042-.18-.085l.213-.952c.01-.043.104-.074.216-.07.109.003.19.041.18.084l-.213.952c-.01.04-.096.071-.198.071" mask="url(#v)"/>
        </g>
        <g transform="translate(10 35)">
            <mask id="x" fill="#fff">
                <use xlink:href="#w"/>
            </mask>
            <path fill="#0A6E31" d="M4.258 7.163a.45.45 0 0 1-.018 0c-.11-.004-.19-.042-.18-.086l.212-.951c.01-.043.106-.075.216-.071.11.004.19.042.18.085l-.212.951c-.01.041-.096.072-.198.072" mask="url(#x)"/>
        </g>
        <g transform="translate(10 35)">
            <mask id="z" fill="#fff">
                <use xlink:href="#y"/>
            </mask>
            <path fill="#0A6E31" d="M2.145 6.57c-.04 0-.074-.08-.078-.185-.004-.111.029-.209.072-.218l.951-.208c.044-.01.082.073.085.184.004.111-.028.209-.071.218l-.952.208h-.007" mask="url(#z)"/>
        </g>
        <g transform="translate(10 35)">
            <mask id="B" fill="#fff">
                <use xlink:href="#A"/>
            </mask>
            <path fill="#0A6E31" d="M3.185 7.617c-.04 0-.074-.08-.078-.185-.004-.11.029-.208.072-.218l.951-.207c.044-.01.082.072.085.183.004.111-.028.209-.071.218l-.952.208h-.007" mask="url(#B)"/>
        </g>
        <path fill="#D6D6D6" d="M39.5 58C45.299 58 50 62.701 50 68.5S45.299 79 39.5 79 29 74.299 29 68.5 33.701 58 39.5 58"/>
        <path fill="#085EBD" d="M39 61a8 8 0 1 1 0 16 8 8 0 0 1 0-16"/>
        <path fill="#8F8F8F" d="M40.5 9a7.5 7.5 0 1 1 0 15 7.5 7.5 0 0 1 0-15"/>
        <path fill="#FF8AD4" d="M40.5 11a5.5 5.5 0 1 1 0 11 5.5 5.5 0 0 1 0-11"/>
        <path fill="#FFF" d="M22.749 27H18.25c-.185 0-.306-.219-.226-.408l.047-.109c.125-.295.389-.483.678-.483h3.5c.29 0 .553.188.678.483l.047.11c.08.188-.041.407-.226.407"/>
        <path fill="#FFF" d="M20 26h1v-1h-1z"/>
        <path fill="#FFF" d="M23.66 25h-5.32a.339.339 0 0 1-.34-.336v-6.328c0-.185.153-.336.34-.336h5.32c.187 0 .34.15.34.336v6.328a.339.339 0 0 1-.34.336"/>
        <path fill="#FFF" d="M23.943 19h-.886c-.032 0-.057-.023-.057-.05v-3.503c0-.247.224-.447.5-.447.277 0 .5.2.5.447v3.502c0 .028-.025.051-.057.051"/>
        <path fill="#D6D6D6" d="M23.716 24h-4.432c-.157 0-.284-.107-.284-.24v-4.52c0-.132.127-.24.284-.24h4.432c.157 0 .284.108.284.24v4.52c0 .133-.127.24-.284.24"/>
        <path fill="#595959" d="M21 21a1 1 0 1 1-2 0 1 1 0 0 1 2 0"/>
        <path fill="#000" d="M21 21a1 1 0 1 1-2 0 1 1 0 0 1 2 0"/>
        <path fill="#FFF" d="M20.5 21.25a.25.25 0 1 1-.5 0 .25.25 0 0 1 .5 0"/>
        <path fill="#FF7900" d="M20.5 18.25a.25.25 0 1 1-.5 0 .25.25 0 0 1 .5 0"/>
        <g transform="translate(31 61)">
            <mask id="D" fill="#fff">
                <use xlink:href="#C"/>
            </mask>
            <path fill="#FFF6B6" d="M9.867 4.474V3.96H6.362v.469c0 .634-.198 1.257-.583 1.761a2.925 2.925 0 0 0-.602 1.811 2.949 2.949 0 0 0 2.867 2.909 2.938 2.938 0 0 0 2.417-4.705 2.876 2.876 0 0 1-.594-1.73" mask="url(#D)"/>
            <mask id="F" fill="#fff">
                <use xlink:href="#E"/>
            </mask>
            <path fill="#FFF" d="M9.953 3.96H6.276a.135.135 0 0 1-.135-.135V.148c0-.075.06-.135.135-.135h3.677c.074 0 .135.06.135.135v3.677c0 .074-.06.135-.135.135" mask="url(#F)"/>
            <mask id="H" fill="#fff">
                <use xlink:href="#G"/>
            </mask>
            <path fill="#FFB400" d="M7.626 5.621c-.11 0-.369.57-.369 1.672 0 1.103.259 1.671.369 1.671.11 0 .369-.568.369-1.671 0-1.103-.259-1.672-.369-1.672m0 3.582c-.418 0-.608-.99-.608-1.91 0-.92.19-1.91.608-1.91s.608.99.608 1.91c0 .92-.19 1.91-.608 1.91" mask="url(#H)"/>
            <mask id="J" fill="#fff">
                <use xlink:href="#I"/>
            </mask>
            <path fill="#FFB400" d="M8.114 5.621c-.11 0-.369.57-.369 1.672 0 1.103.26 1.671.37 1.671.11 0 .368-.568.368-1.671 0-1.103-.258-1.672-.369-1.672m0 3.582c-.417 0-.607-.99-.607-1.91 0-.92.19-1.91.607-1.91.418 0 .608.99.608 1.91 0 .92-.19 1.91-.608 1.91" mask="url(#J)"/>
            <mask id="L" fill="#fff">
                <use xlink:href="#K"/>
            </mask>
            <path fill="#FFB400" d="M8.603 5.621c-.11 0-.37.57-.37 1.672 0 1.103.26 1.671.37 1.671.11 0 .369-.568.369-1.671 0-1.103-.259-1.672-.37-1.672m0 3.582c-.417 0-.607-.99-.607-1.91 0-.92.19-1.91.608-1.91.417 0 .608.99.608 1.91 0 .92-.19 1.91-.608 1.91" mask="url(#L)"/>
            <mask id="N" fill="#fff">
                <use xlink:href="#M"/>
            </mask>
            <path fill="#FFB400" d="M8.972 7.293h.615V3.96h-.615zM7.018 7.293h.616V3.96h-.616z" mask="url(#N)"/>
            <path fill="#FF7900" d="M4.304 8.501H2.18c-.066 0-.119-.137-.119-.307 0-.17.053-.308.12-.308h2.124c.066 0 .12.138.12.308 0 .17-.054.307-.12.307M13.895 8.501H11.77c-.066 0-.12-.137-.12-.307 0-.17.054-.308.12-.308h2.125c.066 0 .12.138.12.308 0 .17-.054.307-.12.307M8.225 13.982c-.17 0-.307-.053-.307-.119V11.74c0-.066.137-.12.307-.12.17 0 .308.054.308.12v2.124c0 .066-.138.12-.308.12M5.397 5.485a.119.119 0 0 1-.084-.035L3.811 3.948a.12.12 0 1 1 .169-.169l1.502 1.502a.12.12 0 0 1-.085.204M12.18 12.267a.119.119 0 0 1-.085-.035l-1.503-1.502a.12.12 0 1 1 .17-.17l1.502 1.503a.12.12 0 0 1-.085.204M10.677 5.485a.119.119 0 0 1-.085-.204l1.503-1.502a.12.12 0 0 1 .169.169L10.76 5.45a.119.119 0 0 1-.084.035M3.895 12.267a.119.119 0 0 1-.084-.204l1.502-1.502a.12.12 0 1 1 .169.169L3.98 12.232a.119.119 0 0 1-.085.035" mask="url(#N)"/>
        </g>
        <path fill="#FF7900" d="M67 39l1.796-1.1c.128-.094.204-.21.204-.335 0-.312-.468-.565-1.045-.565-.426 0-.792.138-.955.336-.163-.198-.529-.336-.955-.336-.577 0-1.045.253-1.045.565 0 .125.076.241.204.335L67 39z"/>
        <g transform="translate(59 35)">
            <mask id="P" fill="#fff">
                <use xlink:href="#O"/>
            </mask>
            <path fill="#FFF" d="M6.34 9.231a.118.118 0 0 1-.111-.078L4.546 4.349 3.32 7.817a.118.118 0 0 1-.109.078H3.21a.118.118 0 0 1-.11-.075l-.761-1.969-.762 1.97a.118.118 0 0 1-.11.074h-1.52a.118.118 0 1 1 0-.235h1.439l.843-2.178a.118.118 0 0 1 .22 0l.756 1.956 1.232-3.483a.118.118 0 0 1 .222 0l1.68 4.8.35-1.016a.118.118 0 0 1 .112-.08h4.617a.118.118 0 1 1 0 .236H6.884L6.45 9.152a.118.118 0 0 1-.11.08H6.34z" mask="url(#P)"/>
        </g>
        <g transform="translate(52 14)">
            <mask id="R" fill="#fff">
                <use xlink:href="#Q"/>
            </mask>
            <path fill="#B8EBD6" d="M-4.5-.876h25.032v-.615H-4.501zM-4.5 2.873h25.032v-.616H-4.501zM-4.5 6.621h25.032v-.615H-4.501zM-4.5 10.37h25.032v-.615H-4.501zM-4.5 14.119h25.032v-.616H-4.501zM-4.5 17.867h25.032v-.615H-4.501z" mask="url(#R)"/>
            <path fill="#B8EBD6" d="M17.221 20.58h.615V-4.58h-.615zM13.491 20.58h.615V-4.58h-.615zM9.761 20.58h.615V-4.58h-.615zM6.031 20.58h.615V-4.58h-.615zM2.301 20.58h.615V-4.58h-.615zM-1.429 20.58h.615V-4.58h-.615z" mask="url(#R)"/>
            <path fill="#000" d="M1.842 12.584h-.398a.32.32 0 0 1-.318-.32.32.32 0 0 1 .318-.32h.398a.32.32 0 0 1 .319.32.32.32 0 0 1-.319.32m1.592 0h-.398a.32.32 0 0 1-.318-.32.32.32 0 0 1 .318-.32h.398a.32.32 0 0 1 .319.32.32.32 0 0 1-.319.32m1.592 0h-.398a.32.32 0 0 1-.318-.32.32.32 0 0 1 .318-.32h.398a.32.32 0 0 1 .319.32.32.32 0 0 1-.319.32m1.592 0H6.22a.32.32 0 0 1-.318-.32.32.32 0 0 1 .318-.32h.398a.32.32 0 0 1 .319.32.32.32 0 0 1-.319.32m1.593 0h-.398a.32.32 0 0 1-.319-.32.32.32 0 0 1 .319-.32h.398a.32.32 0 0 1 .318.32.32.32 0 0 1-.318.32" mask="url(#R)"/>
            <path fill="#FF7900" d="M10.938 5.832c0 1.446-2.32 5.421-2.826 6.27a.112.112 0 0 1-.193 0c-.506-.849-2.826-4.824-2.826-6.27a2.93 2.93 0 0 1 2.922-2.937 2.93 2.93 0 0 1 2.923 2.937" mask="url(#R)"/>
            <path fill="#FFF" d="M9.3 5.829c0 .713-.575 1.29-1.285 1.29-.709 0-1.284-.577-1.284-1.29 0-.713.575-1.29 1.284-1.29.71 0 1.285.577 1.285 1.29" mask="url(#R)"/>
        </g>
        <g>
            <path fill="#000" d="M20.103 61.956h-.42c-.115 0-.208-.103-.208-.23v-1.117h.837v1.117c0 .127-.094.23-.21.23M25.305 61.956h-.42c-.115 0-.209-.103-.209-.23v-1.117h.838v1.117c0 .127-.094.23-.21.23"/>
            <path fill="#4BB4E6" d="M20.049 56.375l-.28 1.18h-.556c-.1 0-.179.119-.179.264 0 .146.079.276.18.29l.371.063-.204.394a.998.998 0 0 0-.09.26 2.7 2.7 0 0 0-.055.538v1.315c0 .136.1.246.224.246h6.068c.123 0 .224-.11.224-.246v-1.315a2.7 2.7 0 0 0-.054-.538.997.997 0 0 0-.092-.26l-.203-.394.372-.063c.1-.014.179-.144.179-.29 0-.145-.079-.265-.18-.265h-.555l-.272-1.173c-.047-.204-.213-.346-.404-.346l-4.09-.003c-.19 0-.356.14-.404.343"/>
            <path fill="#FFF" d="M19.382 58.566a.996.996 0 0 0-.092.26 2.7 2.7 0 0 0-.054.538h1.002c.236 0 .291-.362.068-.447l-.924-.351zM25.607 58.566c.042.08.072.169.09.26a2.7 2.7 0 0 1 .055.538H24.75c-.236 0-.291-.362-.068-.447l.925-.351z"/>
            <path fill="#085EBD" d="M25.75 60.682c0 .33-.007.6-.09.6h-6.332c-.083 0-.09-.27-.09-.6h6.512z"/>
            <path fill="#8F8F8F" d="M23.803 60.5h-2.618c-.026 0-.049-.025-.054-.06l-.177-1.09c-.008-.05.018-.096.054-.096h2.972c.036 0 .062.047.054.096l-.177 1.09c-.005.035-.028.06-.054.06"/>
        </g>
        <g transform="translate(21 59)">
            <mask id="T" fill="#fff">
                <use xlink:href="#S"/>
            </mask>
            <path fill="#595959" d="M.046.619h3.97V.12H.046z" mask="url(#T)"/>
            <path fill="#595959" d="M.046.917h3.97v-.5H.046z" mask="url(#T)"/>
            <path fill="#595959" d="M.046 1.214h3.97V.715H.046z" mask="url(#T)"/>
        </g>
        <g>
            <path fill="#D6D6D6" d="M22.6 58.313a.306.306 0 0 0-.3-.313c-.166 0-.3.14-.3.313 0 .172.134.312.3.312.166 0 .3-.14.3-.313"/>
            <path fill="#B5E8F7" d="M20.301 56.06l-.3 1.84c-.008.051.016.1.05.1h4.899c.033 0 .056-.049.048-.099l-.292-1.83c-.006-.036-.026-.06-.049-.06L20.35 56c-.023 0-.043.025-.049.06"/>
        </g>
        <path fill="#FF7900" d="M55 41.5C55 50.06 48.06 57 39.5 57 30.94 57 24 50.06 24 41.5 24 32.94 30.94 26 39.5 26 48.06 26 55 32.94 55 41.5"/>
        <g transform="translate(24 26)">
            <mask id="V" fill="#fff">
                <use xlink:href="#U"/>
            </mask>
            <path fill="#FF7900" d="M30.629 15.48c0 8.356-6.775 15.13-15.132 15.13S.366 23.837.366 15.48C.366 7.121 7.14.346 15.497.346S30.63 7.122 30.63 15.48" mask="url(#V)"/>
        </g>
        <g transform="translate(24 26)">
            <mask id="X" fill="#fff">
                <use xlink:href="#W"/>
            </mask>
            <path fill="#FF7900" d="M38.57 31.224L32.4 21.56a10.244 10.244 0 0 0-8.634-4.731h-.63c-2.12 0-4.187-.658-5.917-1.882l-2.003-1.417A10.244 10.244 0 0 0-.004 17.6L-6.29 31.224h44.86z" mask="url(#X)"/>
        </g>
        <g transform="translate(24 26)">
            <mask id="Z" fill="#fff">
                <use xlink:href="#Y"/>
            </mask>
            <path fill="#FF7900" d="M9.108 30.61h12.748v-3.893H9.108zM11.977 12.764h7.036V8.67h-7.036zM23.423 26.717c1.12 0 1.92-1.083 1.59-2.154l-1.661-7.117a4.652 4.652 0 0 0-.27-.825 4.76 4.76 0 0 0-3.065-2.656l-2.647-.886h-3.751l-2.672.886a4.76 4.76 0 0 0-3.065 2.656 4.648 4.648 0 0 0-.27.825l-1.661 7.117a1.664 1.664 0 0 0 1.59 2.154h15.882z" mask="url(#Z)"/>
            <path fill="#FF7900" d="M14.914 4.618a2.792 2.792 0 0 0-2.792 2.791v1.737c0 1.18.403 2.123 1.05 2.76.244.243.389.568.389.913v.273c0 1.31.866 2.117 1.934 2.117s1.934-.806 1.934-2.117v-.273c0-.345.144-.67.39-.912.645-.638 1.049-1.582 1.049-2.761V7.409a2.792 2.792 0 0 0-2.792-2.791h-1.162z" mask="url(#Z)"/>
            <path fill="#FF7900" d="M14.075 9.467a.298.298 0 1 1-.597 0 .298.298 0 0 1 .597 0M17.724 9.467a.298.298 0 1 1-.597 0 .298.298 0 0 1 .597 0M12.237 8.67l-.26.153v-1.11a3.471 3.471 0 0 1 3.471-3.472h.093a3.471 3.471 0 0 1 3.472 3.471v1.111l-.26-.152c-.83-.346-1.462-1.728-1.533-2.413 0 0-1.466 2.203-4.983 2.413M16.284 11.336c-.162.384-.492.596-.79.596-.296 0-.626-.212-.788-.596h1.578z" mask="url(#Z)"/>
            <path fill="#FF7900" d="M12.237 10.193c-.424-.26-.679-.47-.679-.844a.68.68 0 0 1 .679-.678v1.522zM18.753 10.193c.424-.26.679-.47.679-.844a.68.68 0 0 0-.679-.678v1.522zM16.043 10.56l-.711-.155a.083.083 0 0 1-.065-.09l.216-2.012s-.197 1.495-.498 2.137c-.026.056.011.12.074.12h.984zM12.675 22.223a.44.44 0 0 0-.387.53l.418 1.94a.44.44 0 0 0 .64.293l1.418-.778c.446-.244.711-.725.68-1.232l-.034-.56a.44.44 0 0 0-.48-.411l-2.255.218z" mask="url(#Z)"/>
            <path fill="#FF7900" d="M16.95 24.957h-2.887a.352.352 0 0 1-.352-.351V19.06c0-.194.157-.352.352-.352h2.887c.194 0 .352.158.352.352v5.545a.352.352 0 0 1-.352.351" mask="url(#Z)"/>
            <path fill="#FF7900" d="M18.323 22.03a.9.9 0 0 1-.48-.184l-.541-.416v.522l-1.237-.095a.44.44 0 0 0-.473.42l-.023.56c-.02.509.253.984.704 1.22l1.433.75a.44.44 0 0 0 .635-.306l.38-1.948a.44.44 0 0 0-.398-.522M22.445 10.443h4.722a.52.52 0 0 0 .472-.3l.001-.002a.52.52 0 0 0-.231-.682l-.704-.367a.49.49 0 0 0-.613.134l-.05.065a.49.49 0 0 1-.682.09l-.437-.331a1.44 1.44 0 0 0-1.947.192l-.097.109a.49.49 0 0 1-.576.117l-.227-.108a.49.49 0 0 0-.45.868c.25.141.532.215.819.215" mask="url(#Z)"/>
        </g>
        <g>
            <g transform="translate(25 26)">
                <mask id="ab" fill="#fff">
                    <use xlink:href="#aa"/>
                </mask>
                <path fill="#B5E8F7" d="M27.975 13.48c0 7.444-6.258 13.479-13.978 13.479S.02 20.924.02 13.48C.02 6.036 6.277.001 13.997.001S27.975 6.036 27.975 13.48" mask="url(#ab)"/>
            </g>
            <g transform="translate(25 26)">
                <mask id="ad" fill="#fff">
                    <use xlink:href="#ac"/>
                </mask>
                <path fill="#50BE87" d="M36.041 28.13l-5.769-8.715c-1.76-2.659-4.804-4.268-8.075-4.268h-.59a9.825 9.825 0 0 1-5.532-1.696l-1.873-1.278a9.825 9.825 0 0 0-5.533-1.697h-.001c-3.737 0-7.133 2.096-8.698 5.367L-5.91 28.13H36.04z" mask="url(#ad)"/>
            </g>
        </g>
        <g>
            <g transform="translate(30 39)">
                <mask id="af" fill="#fff">
                    <use xlink:href="#ae"/>
                </mask>
                <path fill="#FF7900" d="M16.878 10.464l-1.464-6.466A4.234 4.234 0 0 0 12.478.835L10.147.03H6.843L4.49.835a4.234 4.234 0 0 0-2.936 3.163L.09 10.464c-.29.972.415 1.957 1.4 1.957h1.38v4.583h11.227v-4.583h1.38c.986 0 1.691-.985 1.4-1.957" mask="url(#af)"/>
            </g>
            <g transform="translate(30 39)">
                <mask id="ah" fill="#fff">
                    <use xlink:href="#ag"/>
                </mask>
                <path fill="#8F8F8F" d="M10.199.023v2.632l-.735.758v12.929H7.527V3.413l-.735-.758V.023z" mask="url(#ah)"/>
            </g>
            <g transform="translate(30 39)">
                <mask id="aj" fill="#fff">
                    <use xlink:href="#ai"/>
                </mask>
                <path fill="#FFD200" d="M7.564 16.342h-.075V3.429l-.734-.758V.023h.074v2.616l.735.759z" mask="url(#aj)"/>
            </g>
            <g transform="translate(30 39)">
                <mask id="al" fill="#fff">
                    <use xlink:href="#ak"/>
                </mask>
                <path fill="#FFD200" d="M9.501 16.342h-.075V3.398l.735-.759V.023h.075V2.67L9.5 3.43z" mask="url(#al)"/>
            </g>
        </g>
        <g>
            <g transform="translate(25 26)">
                <mask id="an" fill="#fff">
                    <use xlink:href="#am"/>
                </mask>
                <path fill="#F4CFB2" d="M13.458 3.805c-1.424 0-2.579 1.113-2.579 2.487v1.547c0 1.05.373 1.89.97 2.459.226.216.36.505.36.812v.244c0 1.167.8 1.885 1.786 1.885.987 0 1.787-.718 1.787-1.885v-.244c0-.307.133-.596.36-.812.596-.568.969-1.409.969-2.46V6.293c0-1.374-1.155-2.487-2.58-2.487h-1.073z" mask="url(#an)"/>
            </g>
            <g transform="translate(25 26)">
                <mask id="ap" fill="#fff">
                    <use xlink:href="#ao"/>
                </mask>
                <path fill="#000" d="M12.716 8.153a.293.293 0 0 1-.583 0c0-.162.13-.294.291-.294.161 0 .292.132.292.294" mask="url(#ap)"/>
            </g>
            <g transform="translate(25 26)">
                <mask id="ar" fill="#fff">
                    <use xlink:href="#aq"/>
                </mask>
                <path fill="#000" d="M16.087 8.153a.292.292 0 0 1-.583 0c0-.162.13-.294.29-.294.162 0 .293.132.293.294" mask="url(#ar)"/>
            </g>
            <g transform="translate(25 26)">
                <mask id="at" fill="#fff">
                    <use xlink:href="#as"/>
                </mask>
                <path fill="#000" d="M10.985 7.415l-.24.136v-.99c0-1.707 1.436-3.092 3.207-3.092h.086c1.77 0 3.207 1.385 3.207 3.092v.99l-.24-.136c-.766-.308-1.35-1.539-1.416-2.148 0 0-1.355 1.961-4.604 2.148" mask="url(#at)"/>
            </g>
            <g transform="translate(25 26)">
                <mask id="av" fill="#fff">
                    <use xlink:href="#au"/>
                </mask>
                <path fill="#000" d="M13.244 7.222l.08-.468 2.265-1.487s-.473 1.353-2.345 1.955" mask="url(#av)"/>
            </g>
            <g transform="translate(25 26)">
                <mask id="ax" fill="#fff">
                    <use xlink:href="#aw"/>
                </mask>
                <path fill="#FFF" d="M14.724 9.789c-.15.378-.455.587-.729.587-.274 0-.58-.209-.729-.587h1.458z" mask="url(#ax)"/>
            </g>
            <g transform="translate(25 26)">
                <mask id="az" fill="#fff">
                    <use xlink:href="#ay"/>
                </mask>
                <path fill="#F4CFB2" d="M10.985 8.771c-.39-.232-.627-.419-.627-.751 0-.333.283-.605.627-.605v1.356z" mask="url(#az)"/>
            </g>
            <g transform="translate(25 26)">
                <mask id="aB" fill="#fff">
                    <use xlink:href="#aA"/>
                </mask>
                <path fill="#F4CFB2" d="M17.005 8.771c.391-.232.627-.419.627-.751a.618.618 0 0 0-.627-.605v1.356z" mask="url(#aB)"/>
            </g>
            <g transform="translate(25 26)">
                <mask id="aD" fill="#fff">
                    <use xlink:href="#aC"/>
                </mask>
                <path fill="#C19372" d="M14.501 9.099l-.656-.138a.074.074 0 0 1-.06-.08l.2-1.793s-.183 1.331-.46 1.903c-.025.05.01.108.067.108h.91z" mask="url(#aD)"/>
            </g>
            <g transform="translate(25 26)">
                <mask id="aF" fill="#fff">
                    <use xlink:href="#aE"/>
                </mask>
                <path fill="#F4CFB2" d="M11.39 19.487a.394.394 0 0 0-.358.472l.387 1.729a.41.41 0 0 0 .591.26l1.31-.692c.412-.218.657-.646.628-1.098l-.031-.5a.401.401 0 0 0-.444-.365l-2.083.194z" mask="url(#aF)"/>
            </g>
            <g transform="translate(25 26)">
                <mask id="aH" fill="#fff">
                    <use xlink:href="#aG"/>
                </mask>
                <path fill="#000" d="M15.34 21.923h-2.668a.32.32 0 0 1-.325-.313v-4.94a.32.32 0 0 1 .325-.313h2.667c.18 0 .325.14.325.313v4.94a.32.32 0 0 1-.325.313" mask="url(#aH)"/>
            </g>
            <g transform="translate(25 26)">
                <mask id="aJ" fill="#fff">
                    <use xlink:href="#aI"/>
                </mask>
                <path fill="#F4CFB2" d="M16.608 19.316a.85.85 0 0 1-.444-.164l-.5-.371v.465l-1.142-.085a.4.4 0 0 0-.437.374l-.021.5c-.02.452.234.875.65 1.086l1.323.667a.409.409 0 0 0 .587-.271l.351-1.736a.394.394 0 0 0-.367-.465" mask="url(#aJ)"/>
            </g>
            <g transform="translate(25 26)">
                <mask id="aL" fill="#fff">
                    <use xlink:href="#aK"/>
                </mask>
                <path fill="#FFF" d="M4.652 7.014h3.285a.568.568 0 0 0 .236-.052l.088-.04a.521.521 0 0 0 .127-.878l-.044-.037a.566.566 0 0 0-.564-.096l-.17.064a.563.563 0 0 1-.63-.164l-.217-.261a.563.563 0 0 0-.877.02l-.162.218a.56.56 0 0 1-.526.215l-.614-.085a.552.552 0 0 0-.603.365.528.528 0 0 0 .375.67l.146.04c.049.014.1.02.15.02" mask="url(#aL)"/>
            </g>
            <g transform="translate(25 26)">
                <mask id="aN" fill="#fff">
                    <use xlink:href="#aM"/>
                </mask>
                <path fill="#FFF" d="M20.415 8.994h4.363a.483.483 0 0 0 .436-.268v-.001a.456.456 0 0 0-.213-.608l-.65-.326a.463.463 0 0 0-.566.12l-.047.057a.463.463 0 0 1-.63.08l-.403-.295a1.365 1.365 0 0 0-1.8.171l-.088.097a.464.464 0 0 1-.533.104l-.21-.096a.463.463 0 0 0-.548.123.427.427 0 0 0 .132.65c.231.126.492.192.757.192" mask="url(#aN)"/>
            </g>
        </g>
    </g>
</svg>
