<?xml version="1.0" encoding="utf-8"?>
<!-- Generator: Adobe Illustrator 21.0.0, SVG Export Plug-In . SVG Version: 6.00 Build 0)  -->
<svg version="1.1" id="Calque_1" xmlns="http://www.w3.org/2000/svg" xmlns:xlink="http://www.w3.org/1999/xlink" x="0px" y="0px"
	 viewBox="0 0 100 100" style="enable-background:new 0 0 100 100;" xml:space="preserve">
<style type="text/css">
	.st0{fill:#B8EBD6;}
	.st1{fill:#714E46;}
	.st2{fill:#FF7900;}
	.st3{fill:#62342D;}
	.st4{fill:#FFF6B6;}
	.st5{fill:#7B7C7F;}
	.st6{fill:#FFFFFF;}
	.st7{fill:#E1E0E6;}
	.st8{fill:#B58A7E;}
	.st9{fill:#E29A81;}
	.st10{fill:#E1B5A8;}
	.st11{fill:#E4BDB1;}
	.st12{fill:#9D676F;}
	.st13{fill:#927276;}
	.st14{fill:#595959;}
	.st15{fill:#E59A7F;}
	.st16{fill:#F4CFB2;}
	.st17{fill:#C19372;}
	.st18{fill:#C69363;}
</style>
<title>Icone le Parent</title>
<ellipse id="_Tracé_" class="st0" cx="50" cy="49.4" rx="50" ry="48.9"/>
<g id="_Groupe_">
	<path id="_Tracé_2" class="st1" d="M62.1,55c-1.2-2.7-1.8-5.6-1.8-8.5c-0.4-2.5-0.5-5.1-0.2-7.6c0-0.2,0.1-0.5,0.2-0.8
		c0.2-0.8,0.5-1.7,0.2-2.3s-0.9-0.4-1.3-0.6c-0.7-0.4-1.3-0.9-1.8-1.4c-1.3-1.2-2.8-2.1-4.4-2.8c-2.9-1.2-11.6-7.6-13.6-3.5
		c-0.7,1.5-0.5,9.8-0.8,11.4c-0.7,4.2-1.1,8.2-2,12.3c-0.1,1.5-1,2.9-2.3,3.7c-1.2,0.7-2.5,1.1-3.3,2.2c-1.1,1.5,1.1,2.9,2.2,3.5
		c1.5,0.9,2.7,2.2,4.3,3.1c2.4,1.4,5,2.3,7.8,2.7c3,0.4,6,0.1,8.8-1c2-0.7,3.8-1.8,5.4-3.2c1.2-1.1,3.7-4.5,3.4-6.3
		C62.7,55.5,62.4,55.5,62.1,55z"/>
</g>
<path id="_Tracé_3" class="st2" d="M82,63.7c-5-4.2-11.1-6.8-17.6-7.7c-0.5,0-3.2,3.3-3.7,3.4c-3.5,3.3-8.2,5.2-13,5.2
	c-1.6,0-3.2-0.8-4.2-2c-0.6-0.8-2.9-0.9-3.8-1.5c-0.9-0.6-1.7-1.4-2.3-2.4c-1.2-2-0.3-2.5-3.1-2.7c-4.3-0.4-8.7,2.2-12.4,4.1
	c-3.2,1.4-6.4,3-9.4,4.9c-3.4,2.6-2.9,6.7-1.6,10.6c2,6.2,6,11.7,11.3,15.5c10.5,7.7,25.8,11.2,38.3,7.2c11.2-3.7,21.4-11.2,25-22.7
	C87,71.3,85.6,66.5,82,63.7z"/>
<path id="_Tracé_4" class="st3" d="M60,47.8c-1.5,0-3-0.1-4.4-0.3c-2-0.5-3.8-1.4-5.5-2.5c-2.4-1.4-5.6-1.9-7-4.7
	c-0.8-1.6-1.4-5.1-3.6-5.4c-0.1,1.6,0.3,3.2,1.1,4.6c0.3,0.7,0.5,1.5,0.7,2.2c0.1,0.4,0.3,0.8,0.5,1.1c1.3,1.9,2.7,3.6,4.3,5.3
	c1.3,1.7,2.9,3.3,4.7,4.6c2,1.4,4.4,1.9,6.7,1.4c1.4-0.4,3.5-1.5,3.1-3.1C60.3,49.9,60.1,48.8,60,47.8z"/>
<path id="_Tracé_5" class="st4" d="M74.8,62.2c-15.5,7.8-33.7,8.2-50.5,4.9c-5.5-1.1-6.8,7.7-1.3,8.8C41.1,79.5,61.2,79,78,70.5
	C83,68.1,79.8,59.8,74.8,62.2z"/>
<path id="_Tracé_6" class="st4" d="M74.6,76.9c-14,6-30.3,6.7-45.2,4.4c-1.8-0.5-3.7,0.6-4.2,2.4c-0.5,1.8,0.6,3.7,2.4,4.1
	c0.1,0,0.3,0.1,0.4,0.1c16.2,2.4,34.1,1.7,49.3-4.9c1.8-0.6,2.8-2.5,2.2-4.3C79,77,77.1,76,75.2,76.6C75,76.6,74.8,76.7,74.6,76.9z"
	/>
<path id="_Tracé_7" class="st5" d="M66,26c-0.6-0.5-2.3-0.3-3.1-0.7v-0.6c-0.5,0.8-0.5,1.9,0,2.7c1.2-0.2,2.5-0.1,3.7,0.3
	C66.3,26.9,66.6,26.5,66,26z"/>
<path id="_Tracé_8" class="st6" d="M49.4,14.2c-0.1-0.4-0.5-0.6-0.8-0.5c-0.3,0.1-0.6,0.4-0.5,0.8l0.2,1.2c0.1,0.4,0.5,0.6,0.8,0.5
	c0.3-0.1,0.6-0.4,0.5-0.8L49.4,14.2z"/>
<g id="_Groupe_2">
	<path id="_Tracé_9" class="st7" d="M49.2,44.5L49.2,44.5z"/>
</g>
<g id="_Groupe_3">
	<path id="_Tracé_10" class="st8" d="M46.6,17.9l-0.3-0.4L46.6,17.9z"/>
</g>
<g id="_Groupe_4">
	<path id="_Tracé_11" class="st8" d="M45.9,17c0.2,0.2,0.3,0.3,0.5,0.5l-0.5-0.7L45.9,17z"/>
</g>
<g id="_Groupe_5">
	<path id="_Tracé_12" class="st9" d="M45,35.2L45,35.2l0.1,0.1l0.4,0.6c-0.1-0.2-0.2-0.4-0.3-0.5L45,35.2z"/>
</g>
<g id="_Groupe_6">
	<path id="_Tracé_13" class="st1" d="M63.2,16.2c-0.4-0.8-1-1.4-1.8-1.3c-0.5,0-1,0.1-1.5,0.3c-0.5,0.2-1,0.2-1.6,0.3h-2
		c0-0.6,0.2-1.1-0.3-1.7c-1.8-2-5-1.1-7.3-2.2c-2.3-1.1-4.7-1.3-5.8,1.5c-1.1,3.8-1.3,7.8-0.7,11.7c0,0.8,0.8,2.2,0.2,2.9
		c-1.2,1.3-2.7-1-4-0.6c-3.7,1-2.4,6.3,0.4,7.5c2.8,1.2,2.8,4,4.1,6c1.8,2.3,4.3,4.1,7.1,4.9c2.1,1,4.5,1.5,6.8,1.5
		c2.9-0.4,4-2.3,5.1-5c0.4-1.1,0.8-2.3,1.1-3.2c1.2-2.6,1.9-5.4,2-8.3c0-1.5-1.1-2.6-1.2-4.1c-0.1-1.5,0.7-3.4,0.7-5.1
		C64.6,19.4,64.1,17.7,63.2,16.2z"/>
</g>
<path id="_Tracé_14" class="st3" d="M59,18.9l-0.3-0.1c-1.6-0.8-3.4-1.2-5.1-1.2c-2,0.1-4,1.1-6.1,1.3c-1.5,0.1-3.7,0-4.6,1.4
	c1.8,1.2,4,0.5,6.1,0.9c4.5,1,7.7,5.2,12.8,4c2-0.4,3.6-2.9,2.2-4.6C62.8,19.3,60.5,19.5,59,18.9z"/>
<g id="_Groupe_7">
	<path id="_Tracé_15" d="M50.1,21.7c-0.9,0-2.9,0-3.1,1.3c0,0,0.2,0,0.6,0c1.1,0,3.3,0.4,3.5,0.4c1.4,0,1.7-1.1,1.6-2.4
		C51.9,21.4,51,21.6,50.1,21.7z"/>
</g>
<g id="_Groupe_8">
	<path id="_Tracé_16" class="st3" d="M38.6,32.3l1.2,0.2c0-0.9-0.2-1.7-0.3-2.6C37.8,29.6,38.2,31.3,38.6,32.3z"/>
</g>
<g id="_Groupe_9">
	<polygon id="_Tracé_17" class="st10" points="47.8,29 47.8,29 47.7,29 	"/>
</g>
<g id="_Groupe_10">
	<path id="_Tracé_18" class="st11" d="M43.3,24.7L43.3,24.7z"/>
</g>
<g id="_Groupe_11">
	<path id="_Tracé_19" d="M62.2,9.6c-4-4-8.5-1.7-13.4-1.8c-3.4,0-7.7-0.7-10.5,2c-3.2,3-2.6,10-1.2,13.9c0.1,0.7,0.3,1.4,0.6,2
		c0.3,0.4,1,0.5,1.4,0.9c1,1.2,1.7,2.6,2,4.1c0.3,1,0.6,2.4,2,2.1c0.5-4.3-0.6-9-0.2-13.4c0.2-2-0.2-2.6,1.5-3.3
		c1.9-0.9,4.2-1.2,6.3-0.8c1.1,0.3,1.6,1.2,2.5,1.6c1.7,0.7,3.5,1,5.3,0.8c1.9-0.2,4.8-0.6,5.6-2.5c0.3-1.9-0.3-3.7-1.6-5.1
		L62.2,9.6z"/>
</g>
<g id="_Groupe_12">
	<path id="_Tracé_20" d="M62,10c0.1,1.5-0.2,2.9-0.9,4.3c-1,1.6-2.9,2-6.2,1.7c-1.7-0.3-3.4-0.8-5-1.6c-2.4-0.8-7.7,0.4-8.5,3.1
		c-0.4,1.5-0.4,3-0.2,4.5c0.3,3.1-3.5,0.5-4.6,0c0.2,1,0,2,0.2,3c0.2,1,0.4,1.8,0.6,2.7c2.8-2,3.2,3.7,4.6,4.4
		c1.4,0.7,1.5-0.8,1.4-1.8c-0.4-3.8-0.3-7.6-0.3-11.5c-0.1-0.7,0.2-1.5,0.7-2c0.5-0.5,1.1-0.9,1.8-1.1c1.4-0.6,2.9-0.8,4.3-0.4
		c1.2,0.5,1.8,1.8,2.9,2.3c2.4,1.1,8.6,1.4,10.6-0.8C65.1,15.1,64.6,10.5,62,10z"/>
</g>
<g id="_Groupe_13">
	<path id="_Tracé_21" class="st12" d="M41.7,12.4c-0.2,0.1-0.5,0.3-0.6,0.5c-0.1,0.3,0,0.6,0.3,0.8c0.3,0.1,0.6,0,0.7-0.2l0,0
		c0.2-0.2,0.3-0.4,0.2-0.7C42.3,12.5,42,12.3,41.7,12.4z"/>
</g>
<g id="_Groupe_14">
	<polygon id="_Tracé_22" class="st13" points="42.2,13.4 42.2,13.4 42.2,13.4 	"/>
</g>
<g id="_Groupe_15">
	<path id="_Tracé_23" class="st12" d="M43.3,9.9L43.3,9.9l-0.2,0.2l-0.4,0.4c-0.2,0.2-0.2,0.6,0,0.8c0.2,0.2,0.6,0.2,0.8,0
		c0,0,0,0,0,0l0,0l0.1-0.1l0.4-0.4c0.2-0.2,0.2-0.6,0-0.8C43.9,9.7,43.6,9.7,43.3,9.9z"/>
</g>
<g id="_Groupe_16">
	<path id="_Tracé_24" class="st12" d="M44.5,10.5c-0.5,0-0.9,0.1-1.3,0.3c-0.3,0.1-0.4,0.5-0.3,0.8c0.1,0.3,0.4,0.4,0.7,0.3
		c0,0,0,0,0,0c0.2-0.1,0.5-0.2,0.7-0.2c0.3,0,0.6-0.2,0.6-0.5C45,10.9,44.8,10.6,44.5,10.5z"/>
</g>
<g id="_Groupe_17">
	<path id="_Tracé_25" class="st12" d="M47.2,11.1H47c-0.1-0.3-0.5-0.4-0.7-0.3c0,0,0,0,0,0c-0.3,0.1-0.4,0.5-0.3,0.8
		c0.3,0.5,0.8,0.8,1.4,0.7c0.3-0.1,0.5-0.4,0.5-0.7c0,0,0,0,0,0C47.8,11.3,47.5,11.1,47.2,11.1C47.2,11.1,47.2,11.1,47.2,11.1z"/>
</g>
<g id="_Groupe_18">
	<path id="_Tracé_26" class="st12" d="M50.4,10.7h-0.8c-0.3,0-0.6,0.2-0.6,0.5c0,0.3,0.2,0.6,0.5,0.6h0.8c0.3,0,0.6-0.2,0.6-0.5
		S50.8,10.7,50.4,10.7L50.4,10.7z"/>
</g>
<g id="_Groupe_19">
	<path id="_Tracé_27" class="st12" d="M43.3,13.4c-0.3,0.2-0.4,0.6-0.5,0.9c-0.1,0.3,0.1,0.6,0.4,0.7c0.3,0,0.6-0.2,0.7-0.5v-0.1
		l0.3-0.3c0.2-0.2,0.2-0.6,0-0.8C44,13,43.6,13.1,43.3,13.4C43.4,13.3,43.3,13.3,43.3,13.4z"/>
</g>
<g id="_Groupe_20">
	<path id="_Tracé_28" class="st12" d="M44.5,13c-0.5,0-0.9,0.1-1.3,0.3c-0.3,0.1-0.4,0.5-0.3,0.8c0.1,0.3,0.5,0.4,0.7,0.3
		c0,0,0,0,0,0c0.2-0.1,0.5-0.2,0.7-0.2c0.3,0,0.6-0.2,0.6-0.5C45,13.3,44.8,13.1,44.5,13z"/>
</g>
<g id="_Groupe_21">
	<path id="_Tracé_29" class="st12" d="M47.3,12.7H47l-0.4-0.1c-0.3-0.1-0.6,0-0.7,0.3c0,0,0,0,0,0c-0.1,0.3,0,0.6,0.3,0.8
		c0.4,0.2,0.8,0.2,1.2,0.2c0.3,0,0.5-0.4,0.5-0.7C47.9,12.8,47.6,12.6,47.3,12.7L47.3,12.7z"/>
</g>
<g id="_Groupe_22">
	<path id="_Tracé_30" class="st12" d="M51.2,12.3c-0.4,0.1-0.8,0.1-1.1,0c-0.3-0.1-0.6,0-0.8,0.4c-0.1,0.3,0,0.6,0.4,0.8
		c0.5,0.2,1.1,0.2,1.7,0.1C52.2,13.3,52,12.2,51.2,12.3z"/>
</g>
<g id="_Groupe_23">
	<path id="_Tracé_31" class="st12" d="M53.1,14.1h-0.3h-0.1l0,0c0,0-0.1-0.1,0,0c-0.2-0.2-0.6-0.2-0.8,0c0,0,0,0,0,0
		c-0.2,0.2-0.2,0.6,0,0.8c0.4,0.4,1,0.6,1.5,0.5c0.4-0.1,0.6-0.5,0.5-0.8S53.4,14,53.1,14.1L53.1,14.1z"/>
</g>
<g id="_Groupe_24">
	<path id="_Tracé_32" class="st12" d="M39.5,17.1c-0.3-0.1-0.6,0-0.8,0.3c0,0,0,0,0,0c-0.2,0.4-0.2,0.9-0.2,1.3
		c0,0.3,0.3,0.6,0.6,0.5c0.3,0,0.5-0.3,0.5-0.6c0,0,0-0.1,0-0.2s0-0.2,0-0.2c0-0.1,0-0.2,0-0.2v-0.1C39.9,17.6,39.8,17.3,39.5,17.1z
		"/>
</g>
<g id="_Groupe_25">
	<path id="_Tracé_33" class="st12" d="M39.8,13.8c-0.3-0.1-0.6,0.1-0.7,0.3c-0.1,0.2-0.1,0.3-0.1,0.5c0,0.1,0,0.2,0,0.3l0,0l0,0
		c-0.1,0.3,0.1,0.6,0.4,0.7c0.3,0,0.6-0.2,0.7-0.5c0-0.1,0-0.3,0-0.4l0,0l0,0l0,0l0,0c0.2-0.3,0.1-0.6-0.1-0.8
		C39.9,13.8,39.9,13.8,39.8,13.8z"/>
</g>
<g id="_Groupe_26">
	<path id="_Tracé_34" class="st12" d="M39.9,10.6c-0.2,0.3-0.3,0.6-0.4,1c-0.1,0.3,0.1,0.6,0.4,0.7c0.3,0,0.6-0.2,0.7-0.5
		c0-0.1,0-0.2,0-0.3l0,0l0,0l0,0c0.2-0.2,0.2-0.6,0-0.8C40.4,10.5,40.1,10.5,39.9,10.6z"/>
</g>
<g id="_Groupe_27">
	<path id="_Tracé_35" class="st12" d="M41.4,17.4c-0.3,0-0.6,0.2-0.7,0.5c-0.1,0.4-0.1,0.9,0,1.3c0,0.3,0.3,0.6,0.6,0.5
		c0.3,0,0.5-0.3,0.5-0.6c0-0.3,0-0.7,0-1C42,17.8,41.8,17.5,41.4,17.4C41.4,17.4,41.4,17.4,41.4,17.4z"/>
</g>
<g id="_Groupe_28">
	<path id="_Tracé_36" class="st12" d="M41.7,15.9c0,0,0-0.1,0-0.2s0,0,0,0v-0.3c0.1-0.3-0.1-0.6-0.4-0.7c-0.3,0-0.6,0.2-0.7,0.5
		c-0.1,0.4-0.1,0.8,0,1.2c0.1,0.3,0.4,0.5,0.7,0.4c0,0,0,0,0,0c0.3-0.1,0.5-0.4,0.4-0.7L41.7,15.9z"/>
</g>
<g id="_Groupe_29">
	<path id="_Tracé_37" class="st12" d="M53.3,9.4l-0.4,0.2h-0.2c0,0-0.2,0,0,0c-0.3,0-0.6,0.2-0.6,0.5c0,0.3,0.2,0.6,0.5,0.6l0,0
		c0.4,0,0.9-0.2,1.3-0.4c0.3-0.1,0.4-0.5,0.3-0.8C54,9.3,53.7,9.2,53.3,9.4C53.4,9.3,53.3,9.3,53.3,9.4z"/>
</g>
<g id="_Groupe_30">
	<path id="_Tracé_38" class="st12" d="M54.2,11.3l-0.6,0.3c-0.3,0.1-0.4,0.5-0.3,0.8c0.1,0.3,0.5,0.4,0.7,0.3c0,0,0,0,0,0l0.6-0.3
		c0.3-0.1,0.4-0.5,0.3-0.8C54.8,11.3,54.5,11.2,54.2,11.3C54.2,11.3,54.2,11.3,54.2,11.3z"/>
</g>
<g id="_Groupe_31">
	<path id="_Tracé_39" class="st12" d="M57.7,9.1l-0.8,0.4c-0.3,0.1-0.4,0.5-0.3,0.8c0.1,0.3,0.5,0.4,0.7,0.3c0,0,0,0,0,0l0.8-0.4
		c0.3-0.1,0.4-0.5,0.3-0.8C58.3,9.1,58,9,57.7,9.1C57.7,9.1,57.7,9.1,57.7,9.1z"/>
</g>
<g id="_Groupe_32">
	<path id="_Tracé_40" class="st12" d="M57.2,11.9c-0.5,0.4-1.1,0.6-1.7,0.8c-0.3,0.1-0.5,0.4-0.5,0.7c0.1,0.3,0.3,0.5,0.7,0.5
		c0.8-0.2,1.6-0.6,2.2-1.1c0.2-0.2,0.2-0.6,0-0.8C57.8,11.7,57.4,11.7,57.2,11.9z"/>
</g>
<g id="_Groupe_33">
	<path id="_Tracé_41" class="st12" d="M60.2,9.8L60,9.9l0,0l0,0l-0.4,0.2c-0.3,0.1-0.4,0.5-0.3,0.8c0.1,0.3,0.4,0.4,0.7,0.3
		c0,0,0,0,0,0c0.3-0.1,0.6-0.3,0.9-0.6c0.2-0.2,0.2-0.6,0-0.8C60.8,9.5,60.5,9.5,60.2,9.8C60.2,9.7,60.2,9.7,60.2,9.8z"/>
</g>
<g id="_Groupe_34">
	<path id="_Tracé_42" class="st12" d="M57.2,13.5l-0.9,0.4c-0.3,0.1-0.4,0.5-0.3,0.8c0.1,0.3,0.4,0.4,0.7,0.3c0,0,0,0,0,0l0.9-0.4
		c0.3-0.1,0.4-0.5,0.3-0.8C57.9,13.5,57.5,13.3,57.2,13.5C57.2,13.5,57.2,13.5,57.2,13.5z"/>
</g>
<g id="_Groupe_35">
	<path id="_Tracé_43" class="st12" d="M60.9,11.2c-0.3,0.3-0.6,0.5-0.9,0.7c-0.7,0.3-0.2,1.4,0.5,1.1c0.4-0.2,0.8-0.5,1.1-0.9
		C62.1,11.6,61.4,10.7,60.9,11.2z"/>
</g>
<path id="_Tracé_44" d="M65.3,33.4c-0.1-0.3-0.1-0.7-0.1-1c-1.2,2-1.6,2.6-4.1,2.2c-2.1-0.1-4.3-0.1-6.4,0.1
	c-2.4,0-5.1,1.3-7.6,0.8c-2.6-1-4.3-3.5-4.2-6.3c-0.6-0.1-1.1-0.1-1.7,0c0.4,4.2,1.3,8.3,2.9,12.3c1.1,3,3,5.6,5.5,7.6
	c3.6,2.7,10.1,3.4,13.6-0.3c1.9-2.4,2.9-5.4,2.8-8.4c0.1-1.6,0-3.2-0.3-4.7C65.7,35.3,65.4,34.2,65.3,33.4z"/>
<path id="_Tracé_45" class="st12" d="M42.1,8.3c-0.3,0.2-0.6,0.4-0.8,0.7c-0.1,0.2-0.1,0.6,0.2,0.7c0.2,0.1,0.5,0.1,0.7-0.2
	c0,0,0,0,0,0c0,0.1,0,0,0,0l0,0l0.3-0.2c0.2-0.1,0.3-0.5,0.2-0.7C42.6,8.4,42.3,8.2,42.1,8.3z"/>
<path id="_Tracé_46" class="st14" d="M48.7,37.7c-0.2-0.1-0.6,0-0.7,0.2c0,0,0,0,0,0l-0.2,0.4c-0.1,0.3,0,0.6,0.2,0.7
	c0.2,0.1,0.6,0,0.7-0.2c0,0,0,0,0,0l0.2-0.4C49.1,38.2,49,37.9,48.7,37.7z"/>
<path id="_Tracé_47" class="st14" d="M48.4,40.9c-0.2-0.2-0.5-0.2-0.7,0c0,0,0,0,0,0c-0.2,0.2-0.2,0.5,0,0.7l0,0
	c0.2,0.2,0.5,0.2,0.7,0c0,0,0,0,0,0C48.6,41.4,48.6,41.1,48.4,40.9z"/>
<path id="_Tracé_48" class="st14" d="M49.1,43.4c-0.1-0.3-0.4-0.4-0.6-0.3c0,0,0,0,0,0c-0.3,0.1-0.4,0.4-0.3,0.7
	c0.1,0.3,0.2,0.6,0.3,0.9c0.1,0.3,0.4,0.4,0.6,0.3c0,0,0,0,0,0c0.3-0.1,0.4-0.4,0.3-0.7C49.3,44,49.2,43.7,49.1,43.4z"/>
<path id="_Tracé_49" class="st14" d="M50.7,36.8c-0.2-0.1-0.6,0-0.7,0.2c0,0,0,0,0,0c-0.1,0.2-0.2,0.5-0.2,0.7
	c0,0.3,0.3,0.5,0.5,0.5c0.3,0,0.5-0.3,0.5-0.6l0,0l0,0v-0.1C51,37.3,50.9,37,50.7,36.8C50.7,36.8,50.7,36.8,50.7,36.8z"/>
<path id="_Tracé_50" class="st14" d="M50.3,39.2c-0.3,0-0.6,0.1-0.6,0.4c0,0.3,0,0.7,0,1c0,0.3,0.3,0.5,0.5,0.5
	c0.3,0,0.5-0.3,0.5-0.6c0-0.1,0-0.3,0-0.4c0-0.1,0-0.2,0-0.3C50.8,39.5,50.6,39.3,50.3,39.2C50.3,39.2,50.3,39.2,50.3,39.2z"/>
<path id="_Tracé_51" class="st14" d="M51.1,43L51.1,43c0,0,0-0.2,0-0.2c0-0.3-0.3-0.5-0.5-0.5c-0.3,0-0.5,0.3-0.5,0.6
	c0,0.2,0,0.4,0.1,0.6c0.1,0.3,0.4,0.4,0.6,0.3c0.3-0.1,0.4-0.4,0.3-0.7L51.1,43z"/>
<path id="_Tracé_52" class="st14" d="M52.5,44.8l-0.2-0.2c-0.2-0.2-0.5-0.2-0.7,0c0,0,0,0,0,0c-0.2,0.2-0.2,0.5,0,0.7
	c0-0.1,0,0,0,0l0.2,0.2c0.2,0.2,0.5,0.2,0.7,0c0,0,0,0,0,0C52.6,45.3,52.6,45,52.5,44.8C52.6,45,52.5,44.9,52.5,44.8z"/>
<path id="_Tracé_53" class="st14" d="M63.5,44c-0.2-0.1-0.5,0-0.6,0.2c0,0,0,0,0,0c-0.1,0.2-0.2,0.4-0.3,0.7
	c-0.1,0.3,0.1,0.5,0.4,0.6c0.3,0,0.5-0.1,0.5-0.4v-0.1l0,0c0-0.1,0.1-0.2,0.1-0.3C63.8,44.4,63.8,44.1,63.5,44
	C63.5,44,63.5,44,63.5,44z"/>
<path id="_Tracé_54" class="st14" d="M64.3,41.3c-0.3,0-0.5,0.3-0.5,0.6c0,0,0,0.1,0,0.2l0,0c0,0,0,0.1,0,0c-0.1,0.3,0,0.6,0.2,0.7
	c0.2,0.1,0.6,0,0.7-0.2c0,0,0,0,0,0c0.1-0.2,0.1-0.5,0-0.7C64.7,41.5,64.5,41.3,64.3,41.3z"/>
<path id="_Tracé_55" class="st14" d="M64.9,39.4L64.9,39.4c0,0,0-0.2,0-0.3c0-0.3-0.3-0.5-0.5-0.5c-0.3,0-0.5,0.3-0.5,0.6
	c0,0.2,0,0.5,0.1,0.7c0.1,0.3,0.4,0.4,0.6,0.3c0.3-0.1,0.4-0.4,0.3-0.7L64.9,39.4z"/>
<path id="_Tracé_56" class="st14" d="M52.5,40.7c-0.3,0-0.5,0.3-0.5,0.6c0,0,0,0.1,0,0.2l0,0c0,0,0,0.1,0,0c-0.1,0.3,0,0.6,0.2,0.7
	c0.2,0.1,0.6,0,0.7-0.2c0,0,0,0,0,0c0.1-0.2,0.1-0.5,0-0.7C53,40.9,52.8,40.7,52.5,40.7z"/>
<path id="_Tracé_57" class="st14" d="M53.4,43.7c-0.1-0.3-0.4-0.4-0.6-0.3c0,0,0,0,0,0c-0.3,0.1-0.4,0.4-0.3,0.7
	c0.1,0.4,0.3,0.8,0.5,1.2c0.4,0.6,1.2,0,0.8-0.6C53.6,44.3,53.5,44,53.4,43.7z"/>
<path id="_Tracé_58" class="st14" d="M57,45h-0.8c-0.3,0-0.5,0.2-0.5,0.5s0.2,0.5,0.5,0.5l0,0H57c0.3,0,0.5-0.2,0.5-0.5
	S57.3,45,57,45z"/>
<path id="_Tracé_59" class="st14" d="M61,43.8c-0.1,0.1-0.1,0.2-0.2,0.3v0.1l0,0l0,0c-0.2,0.2-0.2,0.5,0,0.7c0.2,0.2,0.5,0.2,0.7,0
	c0,0,0,0,0,0c0.1-0.1,0.1-0.2,0.2-0.3l0,0l0,0l0,0c0.2-0.2,0.2-0.5,0-0.7C61.5,43.7,61.2,43.6,61,43.8C61,43.8,61,43.8,61,43.8z"/>
<path id="_Tracé_60" class="st14" d="M62.5,41.7c-0.3,0-0.5,0.1-0.6,0.4v0.2l-0.1,0.4c-0.1,0.3,0.1,0.6,0.4,0.6c0,0,0,0,0,0
	c0.3,0,0.5-0.1,0.6-0.4v-0.2l0.1-0.4C62.9,42,62.7,41.7,62.5,41.7C62.5,41.7,62.5,41.7,62.5,41.7z"/>
<path id="_Tracé_61" class="st14" d="M62.6,39.6c-0.3,0-0.5,0.3-0.5,0.6v0.5c0,0.3,0.3,0.5,0.5,0.5c0.3,0,0.5-0.3,0.5-0.6v-0.4
	C63.1,39.9,62.9,39.6,62.6,39.6C62.6,39.6,62.6,39.6,62.6,39.6z"/>
<path id="_Tracé_62" class="st14" d="M54.1,41.2c-0.7,0-0.6,1.1,0,1C54.6,42.2,54.7,41.2,54.1,41.2z"/>
<path id="_Tracé_63" class="st14" d="M55.2,43.5c-0.2-0.1-0.5,0-0.6,0.2c0,0,0,0,0,0c-0.1,0.2,0,0.5,0.2,0.7h0.2l0,0h0.1
	c0.2,0.2,0.5,0.2,0.7,0c0,0,0,0,0,0c0.2-0.2,0.2-0.5,0-0.7C55.6,43.6,55.4,43.5,55.2,43.5z"/>
<path id="_Tracé_64" class="st14" d="M57.4,43.8h-0.2c-0.3,0-0.5,0.2-0.5,0.5c0,0.3,0.2,0.5,0.5,0.5c0.3,0,0.6-0.1,0.8-0.4
	c0.2-0.2,0.2-0.5,0-0.7C57.9,43.6,57.6,43.7,57.4,43.8z"/>
<path id="_Tracé_65" class="st14" d="M60.4,42.8c-0.2-0.1-0.6,0-0.7,0.2c0,0,0,0,0,0l0,0l0,0c-0.2,0.2-0.2,0.5,0,0.7
	c0.2,0.2,0.5,0.2,0.7,0c0,0,0,0,0,0c0.1-0.1,0.2-0.2,0.2-0.4C60.8,43.2,60.6,42.9,60.4,42.8z"/>
<path id="_Tracé_66" class="st14" d="M61.4,41c-0.2-0.1-0.6,0-0.7,0.2c0,0,0,0,0,0c-0.1,0.2-0.1,0.4-0.2,0.7
	c-0.1,0.3,0.1,0.6,0.4,0.6c0,0,0,0,0,0c0.3,0,0.5-0.1,0.6-0.4v-0.2l0,0v-0.1C61.6,41.5,61.6,41.1,61.4,41z"/>
<path id="_Tracé_67" class="st14" d="M56.4,42.2h-0.1H56c-0.3,0-0.5,0.1-0.6,0.4c0,0,0,0,0,0c-0.1,0.3,0.1,0.6,0.4,0.6
	c0.2,0.1,0.5,0.1,0.7,0.1c0.3,0,0.5-0.2,0.5-0.5s-0.2-0.5-0.5-0.5L56.4,42.2z"/>
<path id="_Tracé_68" class="st14" d="M57.8,41.9L57.8,41.9L57.8,41.9c-0.3,0.1-0.4,0.4-0.4,0.6c0.1,0.2,0.3,0.4,0.5,0.4
	c0.2,0,0.4-0.2,0.6-0.3c0.2-0.2,0.2-0.5,0-0.7C58.4,41.6,58,41.6,57.8,41.9C57.8,41.9,57.8,41.9,57.8,41.9z"/>
<path id="_Tracé_69" class="st13" d="M54.2,40c-0.7,0-0.6,1.1,0,1C54.7,41,54.8,39.9,54.2,40z"/>
<path id="_Tracé_70" class="st1" d="M52.8,37.1l-0.7,0.2c-1.1,2.2,1.6,3.9,3.6,4.3c1.4,0.4,2.8,0.1,4-0.6c1.3-1.1,1.8-2.9,1.1-4.5
	C59.4,34.5,54.7,36.5,52.8,37.1z"/>
<path id="_Tracé_71" class="st6" d="M52.4,36.2h-0.1c0.8,2.7,3.4,4.4,6.2,4c1.1-0.1,1.5-1.3,2.4-4.4C58,36.3,55.2,36.4,52.4,36.2z"
	/>
<path id="_Tracé_72" class="st15" d="M52.1,35.7c-0.2,0-0.4,1.1-0.4,1.1h0.1C52.1,36.7,52.5,35.7,52.1,35.7z"/>
<path id="_Tracé_73" class="st15" d="M60.7,35.4L60.7,35.4c0,0.2,0.4,0.9,0.6,0.7C61.5,35.8,60.8,35.3,60.7,35.4z"/>
<path id="_Tracé_74" d="M59.6,33.9c-1.4,0-2.4,0.6-1.1,2.4c0.8,1.1,2.2,1.8,3.6,1.7c2.1-0.3,2.9-1.3,2.5-3.7
	C62.9,34.3,61.3,34.1,59.6,33.9z"/>
<path id="_Tracé_75" d="M55.1,33.9c-1.5,0.3-3,0.3-4.5,0.1c-1.1,0,0.4,3.5,1.5,3.9c0.3,0.1,0.7,0.3,1,0.4c1.4,0.2,2.9,0.1,4.2-0.5
	c1.1-0.5,2.3-2.5,1.4-3.7C57.8,32.9,56.2,33.6,55.1,33.9z"/>
<g id="_Groupe_36">
	<path id="_Tracé_76" class="st3" d="M59.3,31.2c-0.3-0.3-0.6-0.7-0.8-1.2c-0.5-1.3-0.4-2.8-0.9-4c-2.4-0.2-1.7,6-0.9,7.2
		c1,1.5,4.6,2,3.7-0.6C60.1,32.1,59.7,31.6,59.3,31.2z"/>
</g>
<path id="_Tracé_77" class="st14" d="M52.2,34.6h-0.6c-0.3,0-0.5,0.2-0.5,0.5s0.2,0.5,0.5,0.5h0.6c0.3,0,0.5-0.2,0.5-0.5
	S52.4,34.6,52.2,34.6L52.2,34.6z"/>
<path id="_Tracé_78" class="st14" d="M54.3,34.5h-0.5c-0.3,0-0.5,0.2-0.5,0.5s0.2,0.5,0.5,0.5h0.5c0.3,0,0.5-0.2,0.5-0.5
	S54.6,34.5,54.3,34.5z"/>
<path id="_Tracé_79" class="st14" d="M55.9,34.3L55.9,34.3c-0.3,0-0.5,0.2-0.5,0.5s0.2,0.5,0.5,0.5c0.3,0,0.5-0.1,0.7-0.3
	c0.2-0.2,0.2-0.5,0-0.7C56.5,34.1,56.2,34.1,55.9,34.3C55.9,34.3,55.9,34.3,55.9,34.3z"/>
<path id="_Tracé_80" class="st14" d="M53,36.1L53,36.1h-0.3c-0.3,0-0.5,0.2-0.5,0.5s0.2,0.5,0.5,0.5l0,0c0.2,0,0.4,0,0.6-0.1
	c0.3-0.1,0.4-0.4,0.3-0.7C53.6,36.2,53.3,36.1,53,36.1z"/>
<path id="_Tracé_81" class="st14" d="M55.3,35.8h-0.1H55c-0.3,0-0.5,0.2-0.5,0.5s0.2,0.5,0.5,0.5c0.2,0,0.3,0,0.5-0.1
	c0.3-0.1,0.4-0.4,0.3-0.7C55.7,35.9,55.5,35.7,55.3,35.8z"/>
<path id="_Tracé_82" class="st14" d="M56.8,35.4C56.9,35.3,56.8,35.4,56.8,35.4h-0.2c-0.2,0.2-0.3,0.5-0.1,0.7
	c0.2,0.2,0.5,0.3,0.7,0.1c0,0,0,0,0,0c0.1,0,0.3-0.1,0.4-0.1c0.2-0.2,0.2-0.5,0-0.7C57.4,35.2,57.1,35.2,56.8,35.4
	C56.9,35.4,56.8,35.4,56.8,35.4z"/>
<path id="_Tracé_83" class="st14" d="M54.3,36.8h-0.3c-0.3,0-0.5,0.2-0.5,0.5c0,0.3,0.2,0.5,0.5,0.5h0.3c0.3,0,0.5-0.2,0.5-0.5
	C54.9,37,54.6,36.8,54.3,36.8z"/>
<path id="_Tracé_84" class="st14" d="M56.4,36.7h-0.2l0,0c-0.3,0-0.5,0.2-0.5,0.5s0.2,0.5,0.5,0.5l0,0h0.2c0,0,0.2,0,0,0
	c0.3,0,0.5-0.3,0.5-0.6C56.9,36.9,56.7,36.7,56.4,36.7z"/>
<path id="_Tracé_85" class="st14" d="M61.2,34.8H61c-0.3-0.1-0.5,0-0.7,0.2c-0.1,0.3,0,0.6,0.2,0.7c0.2,0.1,0.5,0.1,0.7,0
	c0.3,0,0.5-0.2,0.5-0.5s-0.2-0.5-0.5-0.5L61.2,34.8z"/>
<path id="_Tracé_86" class="st14" d="M63.4,34.9h-0.4c-0.3,0-0.5,0.2-0.5,0.5s0.2,0.5,0.5,0.5h0.4c0.3,0,0.5-0.2,0.5-0.5
	S63.7,34.9,63.4,34.9z"/>
<path id="_Tracé_87" class="st14" d="M61.1,36.3L61.1,36.3c-0.2-0.2-0.5-0.2-0.7,0c-0.2,0.2-0.2,0.5,0,0.7c0.2,0.2,0.5,0.3,0.8,0.2
	c0.3,0,0.5-0.2,0.5-0.5S61.4,36.2,61.1,36.3L61.1,36.3z"/>
<path id="_Tracé_88" class="st14" d="M62.7,36.3h-0.3c-0.3,0-0.5,0.2-0.5,0.5s0.2,0.5,0.5,0.5h0.3c0.3,0,0.5-0.2,0.5-0.5
	S63,36.3,62.7,36.3z"/>
<ellipse id="_Tracé_89" transform="matrix(0.9958 -9.123580e-02 9.123580e-02 0.9958 -2.2923 4.6065)" cx="49.2" cy="27.4" rx="0.9" ry="1"/>
<ellipse id="_Tracé_90" transform="matrix(0.9985 -5.479155e-02 5.479155e-02 0.9985 -1.3573 3.4145)" cx="61.6" cy="26.5" rx="0.8" ry="0.8"/>
<path id="_Tracé_91" d="M52.4,26.5c-1.8-0.6-3.9-0.5-5.6,0.3c-0.1,0.1-0.1,0.2-0.1,0.3c0,0,0,0,0.1,0.1c0.1,0.1,0.3,0.1,0.5,0
	c1.6-0.7,3.3-0.8,4.9-0.2h0.2c0.1,0,0.2-0.1,0.3-0.1C52.6,26.7,52.6,26.6,52.4,26.5C52.5,26.5,52.4,26.5,52.4,26.5z"/>
<path id="_Tracé_92" d="M62.6,25.6c-0.9-0.2-1.8-0.1-2.5,0.4c-0.2,0.2,0,0.3,0.2,0.3s0.4-0.2,0.5-0.2c0.4-0.1,0.9-0.2,1.4-0.1
	c0.2,0,0.7,0.3,1,0.2c0.2-0.1,0.1-0.2,0-0.2C63,25.8,62.8,25.6,62.6,25.6z"/>
<g id="_Groupe_37">
	<g id="_Groupe_38">
		<path id="_Tracé_93" class="st4" d="M64.5,55.6c-0.8-0.6-1.8-1-2.9-1c-3.3,6.6-12.7,8.6-21.3,5.1c-2-0.8-3.6-2.3-4.5-4.3
			l-0.7-1.1c-0.8,0.5-1.8,1-2.7,1.2c1.8,4.3,5.3,7.7,9.7,9.5c5,1.6,11.3,2,16.1-0.5C64.1,61.4,65.3,56.2,64.5,55.6z"/>
	</g>
</g>
<path id="_Tracé_94" class="st2" d="M35.1,57.4l-0.5,0.4c-0.3,0.3-0.3,0.7-0.1,1c0.3,0.3,0.7,0.3,1,0.1l0,0l0.5-0.4
	c0.3-0.3,0.3-0.7,0.1-1C35.9,57.1,35.4,57.1,35.1,57.4L35.1,57.4z"/>
<path id="_Tracé_95" class="st2" d="M40.3,59.9c-0.3-0.2-0.8-0.1-1,0.2c0,0,0,0,0,0c-0.1,0.2-0.2,0.4-0.2,0.6v0.2V61l0,0
	c-0.2,0.3-0.1,0.7,0.2,1c0.3,0.2,0.8,0.1,1-0.2c0,0,0,0,0,0c0.1-0.2,0.2-0.4,0.2-0.6V61v-0.1l0,0C40.7,60.5,40.7,60.1,40.3,59.9z"/>
<path id="_Tracé_96" class="st2" d="M45.2,61.3c-0.4,0-0.7,0.3-0.7,0.7c0,0,0,0,0,0l0,0c-0.3,0.3-0.3,0.7,0,1c0.3,0.3,0.7,0.3,1,0
	c0.3-0.2,0.4-0.6,0.4-0.9C45.8,61.6,45.5,61.3,45.2,61.3z"/>
<path id="_Tracé_97" class="st2" d="M50.9,62.6c-0.1-0.2-0.3-0.3-0.6-0.3c-0.4,0-0.7,0.3-0.7,0.7c0,0,0,0,0,0c0,0.2,0,0.3,0.1,0.4
	l0,0c0,0.4,0.3,0.7,0.7,0.7c0.4,0,0.7-0.3,0.7-0.7c0-0.2,0-0.3,0-0.5C51.1,62.8,51,62.7,50.9,62.6z"/>
<path id="_Tracé_98" class="st2" d="M56.2,61.6c-0.4,0-0.7,0.3-0.7,0.7c0,0,0,0,0,0v0.9c0,0.4,0.3,0.7,0.7,0.7s0.7-0.3,0.7-0.7
	v-0.9C56.8,61.9,56.5,61.6,56.2,61.6z"/>
<path id="_Tracé_99" class="st2" d="M61.5,59.2c-0.4,0-0.7,0.3-0.7,0.7c0,0,0,0,0,0c0,0.2,0.1,0.5,0.3,0.6c0,0.4,0.3,0.7,0.7,0.7
	c0.4,0,0.7-0.3,0.7-0.7c0-0.3,0-0.5-0.2-0.7C62.2,59.4,61.9,59.2,61.5,59.2z"/>
<g id="_Groupe_39">
	<path id="_Tracé_transparent_" class="st5" d="M49.4,23.7c-1.5,0-2.8,0.6-3.9,1.6c-0.7,0.8-1,1.8-0.8,2.8c0.3,2,2.3,3.2,5.1,3.1
		c2,0,3.9-0.9,5.1-2.4c0.6-1,0.4-2.2-0.3-3C53.3,24.2,51.3,23.5,49.4,23.7z M54.2,28.4c-1.1,1.3-2.8,2.1-4.5,2c-1.9,0-4-0.5-4.3-2.5
		c-0.2-0.8,0.1-1.7,0.6-2.3c0.9-0.8,2.1-1.3,3.3-1.3c1.7-0.2,3.4,0.4,4.5,1.7C54.5,26.7,54.6,27.7,54.2,28.4z"/>
</g>
<g id="_Groupe_40">
	<path id="_Tracé_transparent_2" class="st5" d="M62.7,23.2c-0.6,0-1.1,0.1-1.7,0.3c-1,0.3-1.9,1-2.4,2c-0.2,0.5-0.3,1-0.2,1.5
		c0.1,1.7,1.5,3,3.2,3.1c0.5,0,0.9,0,1.4,0c0.3,0,0.7-0.1,1-0.1c1.5-0.3,2.7-1.6,2.9-3.2c0.1-0.9-0.2-1.8-0.8-2.4
		C65.2,23.5,63.9,23.1,62.7,23.2z M66.4,26.8c-0.2,1.3-1.1,2.3-2.4,2.5c-0.3,0.1-0.6,0.1-0.9,0.1c-0.4,0-0.8,0-1.3,0
		c-1.4,0-2.6-1.1-2.7-2.5c-0.1-0.4,0-0.7,0.1-1.1c0.4-0.8,1.2-1.4,2-1.6c0.5-0.2,1-0.3,1.5-0.3c1.1-0.1,2.2,0.3,3,1
		C66.2,25.5,66.4,26.1,66.4,26.8z"/>
</g>
<g id="_Groupe_41">
	<path id="_Tracé_100" class="st5" d="M58.7,26.1c-0.3-0.3-0.7-0.5-1.1-0.5c-0.9,0-1.8,0.3-2.5,1l-0.4,0.3l0.3,0.6l0.4-0.3
		c0.6-0.5,1.4-0.8,2.2-0.8c0.4,0,0.8,0.3,1,0.7l0.2,0.2c0-0.2,0-0.3,0-0.5C58.8,26.6,58.7,26.4,58.7,26.1z"/>
</g>
<g id="_Groupe_42">
	<path id="_Tracé_101" class="st5" d="M45,26.4c-0.3-0.4-0.5-0.1-1-0.1c-1.4,0-2.8-0.2-4.2-0.2c-1.4,0-3.7,0.6-3.5,2.5
		c1-1.4,2.3-1.1,3.8-0.9c0.5,0.1,5,0.3,5,0.8c0-0.3,0.1-1.1,0-1.7C45.1,26.7,45.1,26.5,45,26.4z"/>
</g>
<g id="_Groupe_43">
	<path id="_Tracé_102" d="M61.9,21.3c-0.9-0.2-1.7-0.5-2.5-0.9c-0.2,0.9-0.2,1.6,0.3,2c0.2,0.2,0.5,0.2,0.8,0.3
		c0.2,0,2.9,0,2.8,0.2C63.7,21.7,62.9,21.7,61.9,21.3z"/>
</g>
<g id="_Groupe_44">
	<g id="_Groupe_45">
		<path id="_Tracé_103" class="st16" d="M66.5,13.3c-1.7,0.1-3.3,1.7-4.9,2.4c-1.9,0.9-4,1.4-6.1,1.6c-2.4,0-5.3-0.5-7.5,0.3
			c1.9,1,3.8,1.7,5.9,2.2l0.8,0.3c4.5,1.4,9.3,1.5,13.8,0.2c1.5-0.4,5.2-1.7,5.2-3.8c0,0,0,0,0-0.1C73.9,14.1,68.5,13.2,66.5,13.3z"
			/>
		<path id="_Tracé_104" class="st17" d="M59,3.1c-1.5-0.8-3.1-1.4-4.7-1.8c-1.2-0.3-2.5-0.4-3.8-0.4c-0.9-0.1-1.8-0.1-2.7,0
			c-2,0.5-2.9,3-3,4.8c0,1,0.5,4.6,0.6,5.7c0,1.7-0.2,3.8,1.4,5l0.8,0.7c0.4,0.4,1,0.7,1.5,0.9c0.7,0.2,1.3,0.3,2,0.3
			c3.4-0.3,6.7-0.9,10-1.9c0.4-0.1,6.1-1.7,5.9-2.3c-0.4-1.5-0.9-2.9-1.7-4.3C63.9,6.9,61.7,4.6,59,3.1z"/>
		<path id="_Tracé_105" class="st16" d="M46.9,12.9c-0.7-3-1.1-6-1.2-9C46,3,46.4,2.1,46.9,1.3c-1.2-0.6-3.7,1.2-4.7,1.8
			c-1.4,1-2.6,2.2-3.7,3.5c-1,1.3-1.5,5.3-1.8,6.9c-1.7,8,8.8,5.8,12.9,4.5C48.3,18.4,47,13.6,46.9,12.9z"/>
		<path id="_Tracé_106" class="st17" d="M45.8,2L45.8,2z"/>
		<path id="_Tracé_107" class="st17" d="M41.2,15.8c-2.1-2.3-2.5-5.8-0.9-8.5c0.8-1.7,2.9-5.5,5.4-5.4c-6.4-0.6-18.9,18.2-3.3,17.9
			c1.7,0,6.5-0.2,5.9-2.6C45.8,18.1,43.1,17.5,41.2,15.8z"/>
		<path id="_Tracé_108" class="st17" d="M45.6,1.9L45.6,1.9z"/>
		<path id="_Tracé_109" class="st17" d="M46.7,2.3c-0.3-0.1-0.6-0.2-0.9-0.2C46.1,2.1,46.4,2.1,46.7,2.3z"/>
		<path id="_Tracé_110" class="st18" d="M45.5,0.6C44.2,1.1,45,2.1,46.1,2c0.7,0,2.3-0.3,2.1-1.2C48.1-0.2,45.9,0.4,45.5,0.6z"/>
	</g>
	<path id="_Tracé_111" class="st6" d="M50.1,14.1c-0.3-0.3-0.7-0.3-1,0c-0.3,0.3-0.3,0.7,0,1c0.1,0.1,0.1,0.2,0.2,0.3v0.2v0.3
		c0.1,0.4,0.5,0.6,0.8,0.5c0.3-0.1,0.6-0.4,0.6-0.8C50.6,15.1,50.4,14.5,50.1,14.1z"/>
	<path id="_Tracé_112" class="st6" d="M48.8,8.9c-0.1-0.4-0.5-0.6-0.8-0.5c-0.3,0.1-0.6,0.4-0.6,0.8l0.2,1.4
		c0.1,0.4,0.5,0.6,0.8,0.5c0.3-0.1,0.6-0.4,0.6-0.8L48.8,8.9z"/>
	<path id="_Tracé_113" class="st6" d="M48.3,4.2c-0.1-0.4-0.5-0.6-0.8-0.5c-0.3,0.1-0.6,0.4-0.6,0.8l0.2,1.2
		c0.1,0.4,0.5,0.6,0.8,0.5c0.3-0.1,0.6-0.4,0.6-0.8L48.3,4.2z"/>
	<path id="_Tracé_114" class="st6" d="M52.3,3.9c-0.6-0.2-1.2-0.3-1.8-0.4c-0.4-0.2-0.8,0-1,0.4c-0.2,0.4,0,0.8,0.4,1c0,0,0,0,0,0
		c0.6,0.2,1.2,0.3,1.8,0.4c0.4,0.1,0.8,0,1-0.4C52.9,4.5,52.7,4,52.3,3.9z"/>
	<path id="_Tracé_115" class="st6" d="M59.2,4.7l-0.8-0.6c-0.3-0.2-0.8-0.2-1,0.2c-0.2,0.3-0.2,0.8,0.2,1l0,0l0.8,0.6
		c0.3,0.2,0.8,0.2,1-0.2C59.6,5.4,59.5,5,59.2,4.7z"/>
	<path id="_Tracé_116" class="st6" d="M62.7,8.7L62.7,8.7c-0.1-0.4-0.5-0.6-0.9-0.4c-0.3,0.1-0.5,0.4-0.5,0.7
		c0,0.2,0.1,0.4,0.2,0.5c0.1,0.1,0.2,0.3,0.4,0.3c0.3,0.2,0.8,0.2,1-0.2C63.2,9.4,63.1,9,62.7,8.7L62.7,8.7z"/>
	<path id="_Tracé_117" class="st6" d="M64.2,11.8c-0.4,0.1-0.6,0.5-0.5,0.8c0.1,0.3,0.4,0.6,0.8,0.5c0.4-0.1,0.6-0.5,0.5-0.8
		C64.9,12,64.6,11.8,64.2,11.8z"/>
	<path id="_Tracé_118" class="st6" d="M57.1,18.4h-0.3l0,0l0,0l0,0l-0.1-0.1c-0.3-0.3-0.7-0.3-1-0.1c-0.3,0.2-0.3,0.7-0.1,1
		c0.5,0.6,1.3,0.9,2,0.7c0.4,0,0.7-0.4,0.6-0.8c0-0.4-0.4-0.7-0.8-0.6c0,0-0.1,0-0.1,0L57.1,18.4z"/>
	<path id="_Tracé_119" class="st6" d="M63,19.1c-0.4-0.2-0.8-0.3-1.3-0.2c-0.4,0-0.7,0.4-0.6,0.8c0,0.4,0.4,0.7,0.8,0.6
		c0,0,0.1,0,0.1,0h0.2c0.3,0.2,0.8,0.2,1-0.2C63.4,19.8,63.3,19.4,63,19.1L63,19.1z"/>
	<path id="_Tracé_120" class="st6" d="M38,11.8c-0.4,0-0.7,0.4-0.7,0.7c0,0,0,0,0,0v0.9c0,0.4,0.4,0.7,0.8,0.7
		c0.4,0,0.7-0.4,0.7-0.8l0,0v-0.9C38.8,12,38.4,11.7,38,11.8C38,11.8,38,11.8,38,11.8z"/>
	<path id="_Tracé_121" class="st6" d="M39.6,7.4c-0.5,0.4-0.8,1.1-0.8,1.7c0,0.4,0.4,0.7,0.8,0.7c0.4,0,0.7-0.4,0.7-0.8l0,0V8.9
		l0,0V8.8l0,0l0.1-0.1l0.3-0.3c0.3-0.3,0.2-0.7-0.1-1C40.2,7.1,39.8,7.1,39.6,7.4L39.6,7.4z"/>
	<path id="_Tracé_122" class="st6" d="M41.6,15c-0.4,0-0.7,0.4-0.7,0.8c0,0.4,0.4,0.7,0.8,0.7l0,0h0.2c0.3,0.3,0.7,0.2,1-0.1
		c0.3-0.3,0.2-0.7-0.1-1C42.5,15.1,42,15,41.6,15z"/>
</g>
</svg>
