<?xml version="1.0" encoding="utf-8"?>
<!-- Generator: Adobe Illustrator 21.0.0, SVG Export Plug-In . SVG Version: 6.00 Build 0)  -->
<svg version="1.1" id="Calque_1" xmlns="http://www.w3.org/2000/svg" xmlns:xlink="http://www.w3.org/1999/xlink" x="0px" y="0px"
	 viewBox="0 0 100 100" style="enable-background:new 0 0 100 100;" xml:space="preserve">
<style type="text/css">
	.st0{fill:#FFE8F7;}
	.st1{fill:#CB8176;}
	.st2{fill:#714E46;}
	.st3{fill:#FFD200;}
	.st4{fill:#62342D;}
	.st5{fill:#7AB3D3;}
	.st6{fill:#69697F;}
	.st7{fill:#FFFFFF;}
	.st8{fill:#085EBD;}
	.st9{fill:#4BB4E6;}
	.st10{fill:#3B3B3C;}
</style>
<title>Icone Garçon</title>
<circle id="_Tracé_" class="st0" cx="50" cy="50" r="50"/>
<g id="_Groupe_">
	<path id="_Tracé_2" class="st1" d="M46.4,53.1c0.8,0.1,1.7,0.1,2.5,0c2.1-0.8,4-2,5.6-3.6c0.8-0.8,1.6-1.5,2.5-2.1
		c0.2-0.1,2.5-0.8,2.5-0.6c-0.5,3.8-0.3,7.7,0.5,11.5c-2.4-0.5-4-4-6.7-3.4c-2.7,0.6-4.4,2.3-6.7,3c-1.6,0.4-7.1-1-6.3-3.5
		C40.9,52.6,44,52.9,46.4,53.1z"/>
	<path id="_Tracé_3" class="st2" d="M40,50.8c0-3.2,0.3-6.5,0-9.7c-0.3-1.8-0.3-3.7,0-5.5c1.4,1.8,2.4,4.6,3.6,6.6
		c1.8,2.8,4.7,5.2,7.2,5.1c1.1,0,7.6-10,7.8-8.9c0.5,2.2,2.2,20.9,2,22.9c-0.2,2-3,2.7-4.1,3.3c-1.2,0.6-2.6,2-4,2l0,0
		c-2.2,0.1-4.5,0-6.7-0.4c-1.8-0.4-5.7-1.7-6.7-3.8c-0.5-1.2,0.4-4,0.5-5.4C39.9,54.9,40,52.8,40,50.8z"/>
	<path id="_Tracé_4" class="st3" d="M28,74.2c-1.2-2.5-3.7-5.4-3-8.3c0.7-2.8,7.7-5.6,11-5.5l1.9,0.1c0.3,2.2,1.6,4.1,3.4,5.3
		c4.2,2.9,9.3,2.9,14.1,2.4c3.8-0.1,6.9-3.2,7-7c0-0.5-0.1-1-0.2-1.5c2.5-0.2,5.3,0,6.4,1.5c1.9,2.8,3.3,6,4,9.3
		c1,3.5,1.8,7.1,2.5,10.8c0.3,1.8,0.5,3.6,0.4,5.5c0,0.7-0.2,1.4-0.6,2l0,0c-2.7,2.8-9.5,4.7-13.4,5.7c-6.9,1.7-14.1,1.9-21.2,0.8
		c-3.4-0.6-13.4-1.7-13.9-5.4c-0.2-2,3-5,3.4-7.1C30.2,79.7,29.6,76.7,28,74.2z"/>
	<path id="_Tracé_5" class="st4" d="M46.5,48.9c1.8,0.5,3.7,0.6,5.5,0.3c3.1-0.8,4.6-3.6,7.8-4.1c-1.6,0.3,1,11,0.6,12.5
		c-1.4,6.3-11.7,2.3-15.2,0c-3.5-2.3-8.2-13.9-2.7-13.8C43.5,43.6,45.6,48.7,46.5,48.9z"/>
	<path id="_Tracé_6" class="st5" d="M69,70.7c0.6,0.7,1.1,1.5,1.4,2.3c0.3,0.6,0.1,1.3-0.4,1.6c-0.6,0.3-1.3,0.1-1.6-0.4
		c0,0,0,0,0,0c-0.2-0.4-0.4-0.8-0.6-1.1l-0.3-0.5v-0.1l-0.1-0.1c-0.4-0.5-0.3-1.2,0.2-1.7C68,70.3,68.6,70.3,69,70.7L69,70.7z"/>
	<path id="_Tracé_7" class="st6" d="M52.5,33.3h0.1l0.2-0.1l0,0c0.7-0.7,1.9-0.7,2.6,0c0.7,0.7,0.7,1.9,0,2.6
		c-0.7,0.7-1.7,1.2-2.7,1.3c-1,0-1.8-0.8-1.8-1.8c0-0.9,0.7-1.6,1.5-1.8L52.5,33.3z"/>
	<path id="_Tracé_8" d="M83,76L83,76c-2.8-5.5-6.8-10.4-11.8-14.1c-2.7-2.1-6.2-2.5-9.4-1.2c-0.3,0.2-0.6,0.3-0.8,0.5
		c1.2,0.1,2.3,0.8,3,1.7c0.3,0.4,0.5,0.7,0.8,1.1c7.3,5.2,11,15.4,10.8,24.6l0,0C79.2,86,85.2,80.5,83,76z"/>
	<path id="_Tracé_9" class="st2" d="M36,32.7c0.7-0.6,1.2-1.5,1.3-2.4c0-1.1,0.6-2.2,0.6-3.4c0.1-4.5,2.5-5.9,6.6-7s8,0.2,12.3,0.2
		c2.3,0,4.6,0.1,7,0c2.3-0.1,5.6-1.6,6.4,1.8c0.6,2.8-1.3,6-1.2,8.9c0.1,2.9,1.3,5.8,0.8,8.7c-0.8,3.9-2.3,7.7-4.3,11.2
		c-3,3.5-6.2,2.9-10.4,2.6c-4.3-0.2-14.8-7.7-15.6-8.8c-0.7-0.8-1.2-1.6-1.7-2.4c0,0-0.3,1.1-1.1,0.8c-1.2-0.7-2.3-1.7-3.3-2.7
		c-1.2-1.4-0.9-5.8,0-7.2C33.6,32.1,35,33.6,36,32.7z"/>
	<path id="_Tracé_10" d="M28.6,16.3c0.3-2,3.2-5.1,5.2-7c0.7-0.3,1.4-0.6,2-1.1c0.4-0.4,0.8-0.7,1.3-1c0.8-0.4,1.6-0.5,2.5-0.5
		c0.6,0,1.3-0.2,1.8-0.6c0.7-0.6,1.2-1.7,2.2-1.7c1,0,1.5,0.5,2.3,0.5c0.9-0.2,1.7-0.5,2.5-0.9c1.3-0.4,2.5,0.1,3.7,0
		c0.6-0.1,1.2-0.3,1.8-0.6c1.2-0.4,2.4-0.3,3.5,0.3c1.7,0.6,3.2-0.2,4.8,0.2c1,0.2,1.7,1,2.6,1.4s1.6,0.4,2.4,0.7
		c0.9,0.5,1.7,1.2,2.4,2c0.7,0.5,1.3,1.1,1.9,1.8c0.3,0.4,0.6,0.8,0.7,1.3c0.1,1.1,0.2,2.2,0.2,3.3c0,0.3,0,0.7,0,1.3
		c-0.1,0.8-0.5,1.6-1,2.2c-3.8,2.9-10.6,2.8-14.4,2.5c-5.2-0.4-15.9-2.9-19.2,2.9c-0.9,1.6-1.4,3.4-1.3,5.3c0,1.4,0.5,2.9-1.3,3.3
		c-3.1,0.8-5.2-6.4-5.8-8.6C28.7,20.9,28.4,18.6,28.6,16.3z"/>
	<path id="_Tracé_11" d="M38.9,20.5C41.7,18,46,18,49.4,18.1c4.1,0.5,8.2,0.6,12.4,0.3c3.6-0.5,6.9-0.8,9.9-3.2
		c0.3-0.2,0.5-0.5,0.8-0.8c0,0.3,0,0.7,0,1.1c-0.1,0.8-0.5,1.6-1,2.2c-0.4,0.4-0.1,1.4-0.3,1.9c-0.2,0.5-0.6,1-0.8,1.7
		c-1.6,0.4-3.2,0.7-4.9,0.8c-3.5,0.4-7.1,0.3-10.6-0.2c-3.6-0.3-7.8-2.8-11.4-1.4c-3.7,1.4-5.2,5-5.5,8.8c-0.1,2.3,0.2,4.7,0.8,6.9
		c0.3,0.9,0.6,1.9-0.8,2c-0.6,0-1.3-0.7-1.7-1.1c-2.5-2.3-5.8-7.2-5.7-10.7C34.8,26.4,35.8,23.1,38.9,20.5z"/>
	<path id="_Tracé_12" class="st4" d="M58.3,32c1.1,0.8,1,2.2,2,3.1c1,0.9,2.1,0.9,1.6,2.2s-3.1,1-3.8,0c-0.7-1-0.2-3.5,0.2-4.9V32z
		"/>
	<path id="_Tracé_13" d="M47.4,31.6c1.1-0.9,2.5-1.1,3.9-0.7c0.7,0.3,2,1.2,1.9,3.7H52c0-1.4-0.4-2.4-1.2-2.7
		c-0.9-0.3-1.9-0.1-2.6,0.5C47.4,33,47,34.1,47.3,35l-1.1,0.3C45.8,33.9,46.3,32.5,47.4,31.6z"/>
	<path id="_Tracé_14" d="M64,31.3c0.8-0.7,2-0.9,3-0.4c0.5,0.3,1.4,1.2,1.2,3.4h-0.9c0.1-1.3-0.2-2.1-0.8-2.5
		c-0.7-0.3-1.5-0.2-2,0.3c-0.7,0.5-1,1.4-0.8,2.2l-0.9,0.2C62.6,33.3,63,32.1,64,31.3z"/>
	<path id="_Tracé_15" class="st7" d="M62.2,41.4c-0.2,3.2-2,4-3,4c-2.4,0.2-4.5-1.5-4.8-3.9C54.9,41.6,62,41.6,62.2,41.4z"/>
	<path id="_Tracé_16" class="st4" d="M35.8,36c0.2,1.4,0.3,2.9,0.2,4.3c0,0.1,0,0.2,0,0.2C34.3,41.1,32.8,34.9,35.8,36z"/>
	<path id="_Tracé_17" class="st4" d="M47.1,20.2c4,0.6,7.4,1.5,11.1,2c2.5,0.3,5,0.3,7.5,0c0.8,0,4.4-1.1,4.5-0.9
		c0.2,0.7,0.2,1.5,0,2.2c-0.4,1.1-0.3,0.8-1.5,1.3c-3.6,1-7.4,1.2-11.1,0.5c-2.9-0.4-4.8-2.4-7.5-3.2c-1.5-0.4-3.2-0.6-4.8-0.6
		c-0.8,0-4.9,0.7-5.1,1.7C40.9,20.5,44.8,19.8,47.1,20.2z"/>
	<path id="_Tracé_18" d="M34.5,60c1.5-0.7,3.1-1.1,4.5-1.8c1.5,1.4,3,2.6,4.7,3.8c2.7,1.7,6,2.5,9.2,2.2c0.8-0.1,1.5-0.3,2.2-0.6
		l0.6-0.2c2.6-0.5,4.6-2.6,5.1-5.3c1.6,0.6,3.2,1,4.9,1.2c0.4,3.4-1.1,6.8-4,8.6c-6.4,4-14.7,3.6-20.6-1.2
		C40.6,66.5,32.2,61.1,34.5,60z"/>
	<path id="_Tracé_19" class="st8" d="M41.1,63.1c-0.2,0.3-0.3,0.7-0.3,1.1c0,0.3-0.3,0.6-0.6,0.6s-0.6-0.3-0.6-0.6
		c0-0.6,0.2-1.2,0.5-1.7C40.4,61.8,41.4,62.4,41.1,63.1z"/>
	<path id="_Tracé_20" class="st8" d="M44.7,64.8c-0.1,0.5-0.2,1-0.2,1.4c0,0.3-0.3,0.6-0.6,0.6s-0.6-0.3-0.6-0.6
		c0-0.6,0.1-1.2,0.2-1.8C43.8,63.7,45,64,44.7,64.8z"/>
	<path id="_Tracé_21" class="st8" d="M48.6,65.6v2c0,0.3-0.3,0.6-0.6,0.6c-0.3,0-0.6-0.3-0.6-0.6v-2c0-0.3,0.3-0.6,0.6-0.6
		C48.3,65,48.6,65.3,48.6,65.6L48.6,65.6z"/>
	<path id="_Tracé_22" class="st8" d="M53.2,65.7l0.4,2c0.1,0.3-0.2,0.6-0.5,0.7c-0.3,0.1-0.6-0.2-0.7-0.5l0,0L52,66
		c-0.1-0.3,0.1-0.7,0.5-0.7C52.8,65.2,53.1,65.4,53.2,65.7L53.2,65.7z"/>
	<path id="_Tracé_23" class="st8" d="M55.6,64.4c0.2,0.3,0.5,0.6,0.8,0.8c0.2,0.2,0.3,0.6,0,0.8c-0.2,0.2-0.6,0.3-0.8,0l0,0
		c-0.4-0.3-0.7-0.7-1-1.1C54.2,64.4,55.2,63.7,55.6,64.4z"/>
	<path id="_Tracé_24" class="st8" d="M60,62.8c0.3,0.3,0.5,0.6,0.7,0.9c0.4,0.7-0.7,1.3-1,0.6c-0.1-0.3-0.3-0.5-0.5-0.7
		C59,63.4,59,63,59.3,62.8C59.5,62.6,59.8,62.6,60,62.8z"/>
	<path id="_Tracé_25" d="M25.1,64.3c5.3-1.9,10.7,0.3,12.4,5C38.9,73.4,39,77.8,38,82c-0.8,3.8-1.1,10.6-7.3,10.4h-0.4
		c-7.8-0.9-22.8-10-17.6-18C15.6,69.8,20,66.3,25.1,64.3z"/>
	<path id="_Tracé_26" d="M50.9,32.1c0.7,0,1.3,0.6,1.3,1.3c0,0.7-0.6,1.3-1.3,1.3c-0.7,0-1.3-0.6-1.3-1.3
		C49.6,32.7,50.2,32.1,50.9,32.1z"/>
	<path id="_Tracé_27" d="M66.3,32c0.6,0,1.1,0.5,1.1,1.1c0,0.6-0.5,1.1-1.1,1.1c-0.6,0-1.1-0.5-1.1-1.1C65.2,32.5,65.7,32,66.3,32z
		"/>
	<path id="_Tracé_28" class="st9" d="M71.1,77.3c1.1,1.2,1.9,2.7,2.4,4.3c0.5,1.4-1.8,2-2.3,0.6c-0.4-1.2-1-2.3-1.8-3.2
		C68.4,77.8,70,76.2,71.1,77.3z"/>
	<path id="_Tracé_29" class="st9" d="M72.2,87v0.2l0,0c0,0.2,0,0.3,0,0.5v0.2V88l0,0c0.3,0.6,0.2,1.3-0.4,1.6s-1.3,0.2-1.6-0.4
		c-0.4-0.8-0.5-1.8-0.2-2.7c0.1-0.6,0.6-1.1,1.3-1.1s1.1,0.6,1.1,1.3C72.3,86.9,72.3,86.9,72.2,87L72.2,87z"/>
	<g id="_Groupe_2">
		<path id="_Tracé_30" class="st9" d="M65.3,79.5"/>
		<path id="_Tracé_31" class="st9" d="M59.7,73.3c0.5-0.5,1.2-0.5,1.7,0c0.3,0.3,0.5,0.7,0.6,1.1l0.2,0.4l0,0l0,0V75l0,0
			c0.5,0.4,0.6,1.2,0.2,1.7c-0.4,0.5-1.2,0.6-1.7,0.2c-0.1-0.1-0.1-0.1-0.2-0.2c-0.3-0.3-0.5-0.7-0.6-1.1l-0.2-0.4l0,0l0,0V75l0,0
			C59.2,74.5,59.2,73.8,59.7,73.3z"/>
		<path id="_Tracé_32" class="st9" d="M63.4,82.6c0.5-0.5,1.2-0.5,1.7,0c0.3,0.3,0.5,0.7,0.6,1.1l0.2,0.4l0,0l0,0v0.1l0,0
			c0.4,0.5,0.3,1.2-0.2,1.7c-0.4,0.4-1.1,0.4-1.5,0c-0.3-0.3-0.5-0.7-0.6-1.1l-0.2-0.4l0,0l0,0v-0.1l0,0C63,83.8,63,83.1,63.4,82.6z
			"/>
		<path id="_Tracé_33" class="st9" d="M62.7,79.3"/>
	</g>
	<path id="_Tracé_34" class="st9" d="M57.3,83.5v4.2c0,0.7-0.5,1.2-1.2,1.2s-1.2-0.5-1.2-1.2v-4.2c0-0.7,0.5-1.2,1.2-1.2
		S57.3,82.9,57.3,83.5z"/>
	<path id="_Tracé_35" class="st9" d="M50.9,74.3c0.3-0.6,1.1-0.8,1.6-0.4c0,0,0,0,0,0c0.6,0.3,0.7,1.1,0.4,1.6
		c-0.4,0.8-0.5,1.7-0.8,2.5c-0.3,0.6-1,0.7-1.6,0.4c-0.6-0.3-0.7-1.1-0.4-1.6C50.5,76,50.5,75.1,50.9,74.3z"/>
	<path id="_Tracé_36" class="st9" d="M45.8,85.4c0-0.7,0.5-1.2,1.2-1.2s1.2,0.5,1.2,1.2c0,0.4-0.1,0.8-0.2,1.2
		c-0.1,0.3-0.2,0.6-0.2,0.9c0,0.7-0.5,1.2-1.2,1.2s-1.2-0.5-1.2-1.2c0-0.4,0.1-0.8,0.2-1.2C45.7,86,45.8,85.7,45.8,85.4z"/>
	<path id="_Tracé_37" class="st9" d="M60.3,90.7c0-0.7,0.5-1.2,1.2-1.2s1.2,0.5,1.2,1.2c0,0.4-0.1,0.8-0.2,1.2
		c-0.1,0.3-0.2,0.6-0.2,0.9c0,0.7-0.5,1.2-1.2,1.2s-1.2-0.5-1.2-1.2c0-0.4,0.1-0.8,0.2-1.2C60.2,91.3,60.3,91,60.3,90.7z"/>
	<path id="_Tracé_38" class="st9" d="M49.1,92c0-0.7,0.5-1.2,1.2-1.2s1.2,0.5,1.2,1.2c0,0.4-0.1,0.8-0.2,1.2
		c-0.1,0.3-0.2,0.6-0.2,0.9c0,0.7-0.5,1.2-1.2,1.2s-1.2-0.5-1.2-1.2l0,0c0-0.4,0.1-0.8,0.2-1.2C49,92.6,49.1,92.3,49.1,92z"/>
	<path id="_Tracé_39" class="st9" d="M38.5,88c0-0.7,0.5-1.2,1.2-1.2s1.2,0.5,1.2,1.2c0,0.4-0.1,0.8-0.2,1.2
		c-0.1,0.3-0.2,0.6-0.2,0.9c0,0.7-0.5,1.2-1.2,1.2s-1.2-0.5-1.2-1.2c0-0.4,0.1-0.8,0.2-1.2C38.4,88.6,38.5,88.3,38.5,88z"/>
	<path id="_Tracé_40" class="st9" d="M42.3,70.4c1.1-1.1,2.7,0.6,1.7,1.7c-0.7,0.7-1.8,1.4-2.2,2.4c-0.2,0.6-0.8,1-1.4,0.8
		c-0.6-0.2-1-0.8-0.8-1.4C40.2,72.5,41.2,71.3,42.3,70.4z"/>
	<path id="_Tracé_41" class="st10" d="M70.3,10.5c0.3-0.3,0.8-0.3,1.1,0c0.3,0.3,0.3,0.8,0,1.1l0,0v0.1c0,0.1-0.1,0.3-0.2,0.4
		c-0.1,0.1-0.2,0.6-0.4,0.8c-0.2,0.3-0.7,0.5-1,0.3c-0.3-0.2-0.5-0.7-0.3-1C69.7,11.5,70,11,70.3,10.5z"/>
	<path id="_Tracé_42" class="st10" d="M62.4,15.3c0.6-0.1,1.1-0.4,1.5-0.8c0.7-0.7,1.8,0.4,1.1,1.1c-0.7,0.7-1.6,1.1-2.5,1.2
		C61.4,16.8,61.4,15.3,62.4,15.3z"/>
	<path id="_Tracé_43" class="st10" d="M50.7,16c1,0,2-0.2,3-0.5c0.9-0.2,1.3,1.2,0.4,1.4c-1.1,0.3-2.3,0.5-3.4,0.5
		c-0.4,0-0.7-0.3-0.7-0.7S50.3,16,50.7,16z"/>
	<path id="_Tracé_44" class="st10" d="M61.4,6.8c0.5-0.1,0.8-0.5,1.1-0.9c0.2-0.4,0.7-0.5,1-0.3c0.4,0.2,0.5,0.7,0.3,1
		c-0.4,0.8-1.2,1.3-2,1.6c-0.4,0.1-0.8-0.1-0.9-0.5C60.8,7.3,61,6.9,61.4,6.8C61.4,6.8,61.4,6.8,61.4,6.8z"/>
	<path id="_Tracé_45" class="st10" d="M54.9,11c0.7,0.1,1.4-0.1,1.9-0.6c0.2-0.3,0.7-0.5,1-0.3c0.3,0.2,0.5,0.7,0.3,1
		c-0.8,0.9-1.9,1.4-3.1,1.4c-0.4,0-0.7-0.3-0.7-0.7S54.5,11,54.9,11z"/>
	<path id="_Tracé_46" class="st10" d="M45.5,13.1c0.9-0.5,1.9-0.9,2.9-1.1c0.4-0.1,0.8,0.1,0.9,0.5c0.1,0.4-0.1,0.8-0.5,0.9
		c-0.9,0.2-1.7,0.5-2.6,0.9C45.4,14.8,44.7,13.5,45.5,13.1z"/>
	<path id="_Tracé_47" class="st10" d="M50,5.5c1.1,0.1,2.2,0,3.3-0.2c0.9-0.2,1.3,1.2,0.4,1.4C52.5,7,51.2,7.1,50,7
		c-0.4,0-0.7-0.3-0.7-0.7S49.6,5.5,50,5.5z"/>
	<path id="_Tracé_48" class="st10" d="M41.5,10.4c0.6-0.5,1.3-0.9,2-1.2c0.9-0.4,1.6,0.9,0.8,1.3c-0.7,0.4-1.4,0.8-2,1.2
		C41.5,12.2,40.7,10.9,41.5,10.4z"/>
	<path id="_Tracé_49" class="st10" d="M37.3,14.9c0.9-0.4,1.6,0.9,0.8,1.3c-0.9,0.4-1.8,1-2.6,1.6c-0.7,0.7-1.8-0.4-1.1-1.1
		C35.3,16,36.2,15.3,37.3,14.9z"/>
	<path id="_Tracé_50" class="st10" d="M33.8,24.6c0.4-0.2,0.8-0.1,1,0.3c0.3,0.7,0.4,1.4,0.4,2.1c0,0.4-0.3,0.7-0.7,0.7
		s-0.7-0.3-0.7-0.7c0-0.5,0-0.9-0.1-1.4C33.3,25.3,33.5,24.8,33.8,24.6z"/>
	<path id="_Tracé_51" class="st10" d="M31.8,19.8c0.2,0.7,0.3,1.5,0.5,2.2c0.2,0.7-1.2,1.3-1.4,0.4c-0.3-0.9-0.3-1.5-0.5-2.2
		C30.1,19.5,31.5,18.9,31.8,19.8z"/>
	<path id="_Tracé_52" class="st10" d="M38,9c0.4,0,0.7,0.3,0.7,0.7c0,0.4-0.3,0.7-0.7,0.7h-0.2c-0.3,0.3-0.8,0.3-1.1,0
		c-0.3-0.3-0.3-0.8,0-1.1l0,0C37.1,9.2,37.5,9,38,9z"/>
	<g id="_Groupe_3">
		<path id="_Tracé_53" d="M67.7,26.9c-0.9-1-2.9-0.1-3.7,0.7c-0.8,0.8-1.8-0.4-1.1-1.1c1.3-1.4,4.3-2.3,5.8-0.7
			C69.4,26.5,68.4,27.6,67.7,26.9z"/>
	</g>
	<g id="_Groupe_4">
		<path id="_Tracé_54" d="M52.1,25.9c-1.4-1.1-3.4-1-4.6,0.2c-0.6,0.8-1.9,0-1.3-0.8c1.7-2.1,4.8-2.4,6.9-0.6c0,0,0.1,0.1,0.1,0.1
			C53.9,25.5,52.8,26.5,52.1,25.9z"/>
	</g>
	<g id="_Groupe_5">
		<path id="_Tracé_55" class="st4" d="M61.3,48.8c-2,0.7-4.1,0.6-6-0.4c-1.3-0.7,0-2,1.4-1.4c1.1,0.5,2.4,0.5,3.6,0
			c0.6-0.2,1.2,0,1.6,0.5C62.2,48.1,61.9,48.5,61.3,48.8L61.3,48.8z"/>
	</g>
</g>
</svg>
