<svg xmlns="http://www.w3.org/2000/svg" xmlns:xlink="http://www.w3.org/1999/xlink" width="50" height="50" viewBox="0 0 50 50">
    <defs>
        <path id="a" d="M0 0h34.357v25.548H0z"/>
    </defs>
    <g fill="none" fill-rule="evenodd" transform="translate(7 2)">
        <mask id="b" fill="#fff">
            <use xlink:href="#a"/>
        </mask>
        <path fill="#000" d="M31.987 2.865H9.478V1.194A1.19 1.19 0 0 0 8.293 0H4.74c-.654 0-1.185.534-1.185 1.194v1.671H0V23.16a2.379 2.379 0 0 0 2.37 2.388h31.987V5.253a2.379 2.379 0 0 0-2.37-2.388zM9.478 8.118a1.19 1.19 0 0 1-1.185 1.194H4.74a1.189 1.189 0 0 1-1.185-1.194v-.955c0-.66.53-1.194 1.185-1.194h3.554a1.19 1.19 0 0 1 1.185 1.194v.955zm10.07 13.849c-4.253 0-7.7-3.475-7.7-7.76 0-4.286 3.447-7.76 7.7-7.76s7.7 3.474 7.7 7.76a7.79 7.79 0 0 1-2.255 5.487 7.668 7.668 0 0 1-5.445 2.273z" mask="url(#b)"/>
    </g>
</svg>
