<svg xmlns="http://www.w3.org/2000/svg" xmlns:xlink="http://www.w3.org/1999/xlink" width="50" height="50" viewBox="0 0 50 50">
    <defs>
        <path id="a" d="M0 0h29.963v29.997H0z"/>
    </defs>
    <g fill="none" fill-rule="evenodd" transform="translate(10 2)">
        <mask id="b" fill="#fff">
            <use xlink:href="#a"/>
        </mask>
        <path fill="#000" d="M27.043 14.998c0-4.072 4.438-.991 2.372-5.985-2.066-4.995-3.029.324-5.905-2.555C20.634 3.58 25.95 2.617 20.96.55s-1.911 2.373-5.978 2.373c-4.066 0-.99-4.444-5.978-2.373-4.989 2.07.324 3.031-2.552 5.91C3.577 9.339 2.615 4.02.55 9.014-1.517 14.008 2.92 10.928 2.92 15c0 4.071-4.439.99-2.37 5.984 2.066 4.995 3.027-.325 5.902 2.553 2.875 2.877-2.437 3.843 2.551 5.911 4.99 2.07 1.912-2.373 5.978-2.373 4.067 0 .989 4.442 5.979 2.373 4.99-2.068-.326-3.032 2.55-5.911 2.875-2.88 3.837 2.442 5.904-2.553 2.068-4.995-2.371-1.914-2.371-5.985M15 22.378c-4.061 0-7.353-3.296-7.353-7.362 0-4.066 3.292-7.362 7.353-7.362 4.06 0 7.353 3.296 7.353 7.362 0 4.066-3.292 7.362-7.353 7.362" mask="url(#b)"/>
    </g>
</svg>
