<svg xmlns="http://www.w3.org/2000/svg" xmlns:xlink="http://www.w3.org/1999/xlink" width="50" height="50" viewBox="0 0 50 50">
    <defs>
        <path id="a" d="M23.183 0c-1.427 0-2.709.259-3.847.777a8.27 8.27 0 0 0-2.882 2.143c-.782.912-1.382 1.978-1.8 3.202-.416 1.223-.625 2.549-.625 3.975 0 1.394.209 2.692.625 3.899.418 1.205 1.018 2.255 1.8 3.147a8.229 8.229 0 0 0 2.882 2.103c1.139.51 2.404.754 3.83.754.929 0 1.849-.192 2.704-.564.887-.384 1.696-1.06 2.425-2.023l.405 2.17h2.656l.037-10.345h-7.896v3.146h4.131c-.122 1.34-.564 2.356-1.304 3.06-.739.707-1.784 1.058-3.14 1.058-.923 0-1.706-.182-2.349-.55a4.509 4.509 0 0 1-1.564-1.46 6.393 6.393 0 0 1-.874-2.048 10.048 10.048 0 0 1-.275-2.347c-.001-.821.09-1.64.274-2.438a6.55 6.55 0 0 1 .875-2.098 4.474 4.474 0 0 1 1.564-1.474c.643-.366 1.426-.548 2.348-.55.991 0 1.835.27 2.53.805.695.536 1.165 1.34 1.408 2.41h3.912c-.104-1.089-.39-2.053-.86-2.892a7.068 7.068 0 0 0-1.787-2.117 7.819 7.819 0 0 0-2.426-1.3A8.85 8.85 0 0 0 23.201 0h-.018zm12.538.586v3.707h-3.567v2.439h3.567v3.61H38.1v-3.61h3.567v-2.44H38.1V.587h-2.38zM7.93.826L0 11.74v3.524h7.71v4.32h3.541v-4.358h2.4V12.08h-2.4V.826h-3.32zm-.295 4.775h.073v6.517H2.915L7.636 5.6z"/>
    </defs>
    <g fill="none" fill-rule="evenodd" transform="translate(4 2)">
        <mask id="b" fill="#fff">
            <use xlink:href="#a"/>
        </mask>
        <path fill="#000" d="M-5 36.667h52.5v-52.5H-5z" mask="url(#b)"/>
    </g>
</svg>
