<?xml version="1.0" encoding="utf-8"?>
<!-- Generator: Adobe Illustrator 21.0.0, SVG Export Plug-In . SVG Version: 6.00 Build 0)  -->
<svg version="1.1" id="Calque_1" xmlns="http://www.w3.org/2000/svg" xmlns:xlink="http://www.w3.org/1999/xlink" x="0px" y="0px"
	 viewBox="0 0 60 60" style="enable-background:new 0 0 60 60;" xml:space="preserve">
<style type="text/css">
	.st0{fill:#FFFFFF;}
</style>
<rect class="st0" width="60" height="60"/>
<g>
	<circle cx="30" cy="30" r="20.5"/>
	<g id="YnW4Sw_1_">
		<g>
			<path class="st0" d="M23.1,17.6c0,0.3,0,0.7,0,1c0,0.5,0.2,0.8,0.8,0.8c4.2,0,8.4,0,12.5,0c0.5,0,0.7-0.3,0.7-0.7
				c0-0.3,0-0.6,0-1c0,0,0,0,0-0.1c1.6-0.2,2.9,1.1,2.9,2.7c0,4,0,8,0,12.1c0,3.6,0,7.2,0,10.8c0,1-0.3,1.9-1.2,2.5
				c-0.5,0.3-1.1,0.5-1.7,0.4c-4.8,0-9.6,0-14.4,0c-1.5,0-2.6-1.1-2.7-2.6c0-3.2,0-6.5,0-9.7c0-0.5,0-1,0-1.6c0-3.9,0-7.9,0-11.8
				c0-1,0.4-1.8,1.3-2.4C22,17.7,22.5,17.5,23.1,17.6z M30.1,22.3L30.1,22.3c-2.2,0-4.4,0-6.6,0c-0.3,0-0.4,0.1-0.4,0.4
				c0,2,0,4.1,0,6.1c0,0.4,0.1,0.5,0.5,0.5c4.3,0,8.7,0,13,0c0.4,0,0.5-0.1,0.5-0.5c0-2,0-4,0-6c0-0.4-0.1-0.5-0.5-0.5
				C34.5,22.3,32.3,22.3,30.1,22.3z M24.2,38.3c-0.2,0-0.5,0-0.7,0c-0.3,0-0.4,0.1-0.4,0.4c0,0.2,0,0.4,0,0.7c0,0.2,0.1,0.4,0.4,0.4
				c0.5,0,1.1,0,1.6,0c0.2,0,0.3-0.1,0.3-0.4c0-0.2,0-0.5,0-0.7c0-0.3-0.1-0.4-0.4-0.4S24.5,38.3,24.2,38.3z M28.1,39.8L28.1,39.8
				c0.3,0,0.5,0,0.8,0c0.2,0,0.3-0.1,0.4-0.3c0-0.3,0-0.5,0-0.8c0-0.2-0.1-0.3-0.4-0.4c-0.5,0-1.1,0-1.6,0c-0.2,0-0.4,0.1-0.4,0.4
				c0,0.2,0,0.5,0,0.7c0,0.3,0.1,0.4,0.4,0.4C27.6,39.8,27.9,39.8,28.1,39.8z M32.1,42.5L32.1,42.5c0.3,0,0.5,0,0.8,0
				c0.3,0,0.4-0.1,0.4-0.4c0-0.2,0-0.5,0-0.7S33.2,41,32.9,41c-0.5,0-1,0-1.5,0c-0.3,0-0.4,0.1-0.4,0.4c0,0.2,0,0.4,0,0.7
				s0.1,0.4,0.4,0.4C31.6,42.5,31.8,42.5,32.1,42.5z M28.1,42.5L28.1,42.5c0.3,0,0.5,0,0.8,0c0.2,0,0.4-0.1,0.4-0.4
				c0-0.2,0-0.5,0-0.7S29.2,41,28.9,41c-0.5,0-1,0-1.6,0c-0.2,0-0.4,0.1-0.4,0.4c0,0.2,0,0.5,0,0.7c0,0.3,0.1,0.4,0.4,0.4
				C27.7,42.5,27.9,42.5,28.1,42.5z M32.1,39.8c0.2,0,0.5,0,0.7,0c0.3,0,0.4-0.1,0.4-0.4c0-0.2,0-0.4,0-0.7c0-0.3-0.1-0.4-0.4-0.4
				c-0.5,0-1,0-1.6,0c-0.2,0-0.4,0.1-0.4,0.4c0,0.2,0,0.5,0,0.7c0,0.3,0.1,0.4,0.4,0.4C31.6,39.8,31.8,39.8,32.1,39.8z M24.2,42.5
				L24.2,42.5c0.3,0,0.5,0,0.8,0s0.4-0.1,0.4-0.4c0-0.2,0-0.5,0-0.7S25.3,41,25,41c-0.5,0-1,0-1.6,0c-0.2,0-0.4,0.1-0.4,0.4
				c0,0.2,0,0.5,0,0.7c0,0.3,0.1,0.4,0.4,0.4C23.7,42.5,23.9,42.5,24.2,42.5z M36,42.5c0.3,0,0.5,0,0.8,0c0.2,0,0.4-0.1,0.4-0.4
				c0-0.2,0-0.5,0-0.7S37.1,41,36.8,41c-0.5,0-1,0-1.5,0c-0.2,0-0.4,0.1-0.4,0.4c0,0.2,0,0.5,0,0.7c0,0.3,0.1,0.4,0.4,0.4
				C35.5,42.5,35.7,42.5,36,42.5z M36,39.8c0.2,0,0.5,0,0.7,0c0.3,0,0.4-0.1,0.4-0.4c0-0.2,0-0.4,0-0.7c0-0.3-0.1-0.4-0.4-0.4
				c-0.5,0-1,0-1.5,0c-0.3,0-0.4,0.1-0.4,0.4c0,0.2,0,0.5,0,0.7c0,0.3,0.1,0.4,0.4,0.4S35.7,39.8,36,39.8z M24.2,34.4L24.2,34.4
				c0.3,0,0.5,0,0.8,0s0.4-0.1,0.4-0.4c0-0.2,0-0.5,0-0.7s-0.1-0.4-0.4-0.4c-0.5,0-1.1,0-1.6,0c-0.2,0-0.3,0.1-0.3,0.4
				c0,0.2,0,0.5,0,0.7s0.1,0.4,0.4,0.4C23.7,34.4,23.9,34.4,24.2,34.4z M32.1,34.4L32.1,34.4c0.3,0,0.5,0,0.8,0
				c0.2,0,0.4-0.1,0.4-0.3c0-0.3,0-0.5,0-0.8c0-0.2-0.1-0.3-0.3-0.3c-0.6,0-1.1,0-1.7,0c-0.2,0-0.3,0.1-0.3,0.3c0,0.3,0,0.5,0,0.8
				c0,0.3,0.1,0.4,0.4,0.4C31.5,34.4,31.8,34.4,32.1,34.4z M28.1,33L28.1,33c-0.2,0-0.5,0-0.7,0c-0.3,0-0.4,0.1-0.4,0.4
				c0,0.2,0,0.5,0,0.7c0,0.3,0.1,0.4,0.4,0.4c0.5,0,1,0,1.6,0c0.2,0,0.4-0.1,0.4-0.3c0-0.3,0-0.5,0-0.8c0-0.2-0.1-0.3-0.4-0.3
				C28.7,33,28.4,33,28.1,33z M24.2,37.1c0.3,0,0.5,0,0.8,0c0.2,0,0.4-0.1,0.4-0.4s0-0.5,0-0.8c0-0.2-0.1-0.3-0.4-0.3
				c-0.5,0-1.1,0-1.6,0c-0.2,0-0.3,0.1-0.4,0.4c0,0.2,0,0.5,0,0.7c0,0.3,0.1,0.4,0.4,0.4C23.7,37.1,24,37.1,24.2,37.1z M28.1,35.7
				c-0.3,0-0.5,0-0.8,0s-0.4,0.1-0.4,0.4c0,0.2,0,0.5,0,0.7c0,0.2,0.1,0.4,0.4,0.4c0.5,0,1,0,1.5,0c0.3,0,0.4-0.1,0.4-0.4
				c0-0.2,0-0.4,0-0.7c0-0.3-0.1-0.4-0.4-0.4C28.7,35.7,28.4,35.7,28.1,35.7z M32,37.1c0.3,0,0.5,0,0.8,0c0.2,0,0.3-0.1,0.4-0.3
				c0-0.2,0-0.5,0-0.7c0-0.2-0.1-0.4-0.4-0.4c-0.5,0-1.1,0-1.6,0c-0.2,0-0.3,0.1-0.3,0.4c0,0.2,0,0.5,0,0.7c0,0.2,0.1,0.3,0.4,0.4
				C31.5,37.1,31.8,37.1,32,37.1z M36,33c-0.3,0-0.5,0-0.8,0c-0.2,0-0.3,0.1-0.3,0.3c0,0.3,0,0.5,0,0.8c0,0.2,0.1,0.3,0.3,0.3
				c0.5,0,1.1,0,1.6,0c0.2,0,0.3-0.1,0.3-0.3c0-0.3,0-0.5,0-0.8c0-0.2-0.1-0.3-0.4-0.3C36.5,33,36.3,33,36,33z M36,37.1
				c0.3,0,0.5,0,0.8,0c0.2,0,0.4-0.1,0.4-0.4c0-0.2,0-0.5,0-0.7c0-0.3-0.1-0.4-0.4-0.4c-0.5,0-1,0-1.5,0c-0.3,0-0.4,0.1-0.4,0.4
				c0,0.2,0,0.5,0,0.7c0,0.3,0.1,0.4,0.4,0.4C35.5,37.1,35.7,37.1,36,37.1z"/>
			<path class="st0" d="M35.1,18.7c-0.4,0-0.9,0-1.3,0c0-0.1,0-0.2,0-0.3c0-1.4,0-2.7,0-4.1c0-0.2,0-0.3-0.3-0.3c-2.3,0-4.5,0-6.8,0
				c-0.2,0-0.3,0.1-0.3,0.3c0,1.4,0,2.7,0,4.1c0,0.1,0,0.1,0,0.2c-0.4,0-0.8,0-1.3,0c0-0.1,0-0.2,0-0.3c0-1.7,0-3.4,0-5.2
				c0-0.4,0.1-0.5,0.5-0.5c3,0,6,0,9,0c0.4,0,0.5,0.1,0.5,0.4c0,1.8,0,3.5,0,5.3C35.1,18.6,35.1,18.6,35.1,18.7z"/>
			<path class="st0" d="M30.1,15.8c-0.7,0-1.3,0-2,0c-0.2,0-0.4-0.1-0.4-0.3c0-0.2,0.1-0.4,0.4-0.4c0.9,0,1.7,0,2.6,0
				c0.5,0,1,0,1.4,0c0.3,0,0.4,0.1,0.4,0.3c0,0.2-0.2,0.3-0.5,0.3C31.4,15.8,30.8,15.8,30.1,15.8z"/>
			<path class="st0" d="M30.1,16.9c0.7,0,1.3,0,2,0c0.3,0,0.4,0.1,0.4,0.3c0,0.2-0.1,0.3-0.4,0.3c-1.3,0-2.7,0-4,0
				c-0.3,0-0.4-0.1-0.4-0.4c0-0.2,0.1-0.3,0.4-0.3C28.8,16.9,29.4,16.9,30.1,16.9L30.1,16.9z"/>
		</g>
	</g>
</g>
</svg>
