<?xml version="1.0" encoding="utf-8"?>
<!-- Generator: Adobe Illustrator 21.0.0, SVG Export Plug-In . SVG Version: 6.00 Build 0)  -->
<svg version="1.1" id="Calque_1" xmlns="http://www.w3.org/2000/svg" xmlns:xlink="http://www.w3.org/1999/xlink" x="0px" y="0px"
	 viewBox="0 0 41 41" style="enable-background:new 0 0 41 41;" xml:space="preserve">
<style type="text/css">
	.st0{fill:#FFFFFF;}
</style>
<title>Icone Mobile</title>
<circle cx="20.5" cy="20.5" r="20.5"/>
<g id="MY09Rf">
	<path class="st0" d="M27.1,20.1v11c0,0.8-0.6,1.5-1.3,1.5c-0.1,0-0.1,0-0.2,0H15.3c-0.8,0-1.5-0.6-1.5-1.3c0-0.1,0-0.1,0-0.2V9
		c0-0.8,0.6-1.5,1.3-1.5c0.1,0,0.1,0,0.2,0h10.3c0.7,0,1.3,0.4,1.4,1.1v8.2C27.1,18,27.1,19,27.1,20.1z M15,10.4v18.7h10.6
		c0.3,0,0.3,0,0.3-0.3V10.5C22.3,10.4,18.6,10.4,15,10.4z M20.5,30.2h-1.2c-0.3,0-0.5,0.2-0.5,0.4c0,0,0,0,0,0.1v0.2
		c0,0.3,0.2,0.5,0.4,0.5c0,0,0,0,0.1,0h2.3c0.2,0,0.4-0.1,0.4-0.3c0.1-0.1,0.1-0.3,0.1-0.4c0-0.3-0.2-0.5-0.4-0.5c0,0,0,0-0.1,0
		H20.5z"/>
	<path class="st0" d="M5.3,19.9c0-1.3,0.2-2.7,0.7-3.9c0.6-1.5,1.5-2.8,2.8-3.8C9,12.1,9.1,12,9.3,11.9c0.3-0.2,0.8-0.1,1,0.2
		c0,0,0,0,0,0.1c0.2,0.3,0.1,0.8-0.2,1c-1.1,0.7-2,1.7-2.5,2.9c-0.5,1.1-0.8,2.3-0.8,3.5c0,1.5,0.3,3,0.9,4.4c0.6,1.1,1.3,2.2,2.3,3
		c0.2,0.2,0.4,0.3,0.4,0.5s0,0.5-0.3,0.7c-0.2,0.2-0.6,0.2-0.8,0C9,28,8.7,27.8,8.4,27.5c-1.3-1.2-2.2-2.8-2.7-4.5
		C5.4,22,5.3,20.9,5.3,19.9z"/>
	<path class="st0" d="M35.6,20.3c0,1.4-0.2,2.7-0.8,4c-0.6,1.5-1.6,2.8-2.9,3.7l-0.6,0.3c-0.3,0.1-0.6-0.1-0.7-0.4c0,0,0,0,0,0
		c-0.1-0.3,0-0.7,0.3-0.9c0.7-0.5,1.4-1.1,1.9-1.8c0.7-1.1,1.1-2.2,1.3-3.5c0.2-1.6,0.1-3.2-0.4-4.7c-0.5-1.5-1.4-2.8-2.6-3.9
		C31,13,30.9,13,30.8,12.9s-0.3-0.7,0-0.9c0.2-0.3,0.6-0.4,0.9-0.2c0,0,0,0,0,0c0.4,0.3,0.8,0.6,1.1,1c0.6,0.6,1.1,1.3,1.5,2.1
		c0.6,1,1,2.1,1.1,3.2C35.5,18.8,35.6,19.6,35.6,20.3z"/>
	<path class="st0" d="M32.3,20.2c0,0.9-0.1,1.8-0.5,2.7c-0.4,0.8-0.9,1.5-1.6,2.1c-0.3,0.3-0.7,0.3-1,0c0,0-0.1-0.1-0.1-0.1
		c-0.2-0.3-0.1-0.8,0.2-1c0.7-0.5,1.2-1.3,1.4-2.1c0.4-1.4,0.3-2.9-0.3-4.2c-0.3-0.6-0.6-1.1-1.1-1.6c-0.3-0.3-0.3-0.7-0.1-1
		c0.2-0.3,0.7-0.3,0.9-0.1c0,0,0,0,0.1,0.1c0.8,0.7,1.3,1.5,1.6,2.5C32.1,18.4,32.3,19.3,32.3,20.2z"/>
	<path class="st0" d="M8.6,19.9c0-0.9,0.2-1.8,0.5-2.7c0.3-0.9,0.9-1.6,1.6-2.1c0.1-0.1,0.3-0.2,0.5-0.2c0.3,0,0.6,0.2,0.7,0.4
		c0.1,0.3,0,0.6-0.2,0.8c-0.7,0.5-1.2,1.3-1.4,2.1c-0.3,1.2-0.3,2.4,0.1,3.6c0.2,0.8,0.6,1.5,1.2,2l0.2,0.2c0.3,0.3,0.2,0.7-0.1,1
		c-0.3,0.2-0.6,0.2-0.9,0c-0.3-0.3-0.6-0.6-0.9-1c-0.7-1-1.1-2.2-1.2-3.5C8.6,20.4,8.6,20.1,8.6,19.9z"/>
</g>
</svg>
