<svg id="Calque_1" data-name="Calque 1" xmlns="http://www.w3.org/2000/svg" viewBox="0 0 60 60"><title>Icone Fixe et Internet</title><rect x="0.05" width="60" height="60" style="fill:#fff"/><circle cx="30" cy="30" r="20.5"/><g id="Pf4K9A"><path d="M30,17H40c1.4,0,2,.6,2,2V30.1a6.37,6.37,0,0,0,.7,2.7c1,1.7,2,3.5,3,5.2.8,1.4.5,1.8-1,1.8H15.1c-1.1,0-1.4-.6-.9-1.5.6-1.1,1.2-2.2,1.9-3.3s1.2-2.1,1.8-3.2a2.92,2.92,0,0,0,.2-.9V19c0-1.3.6-1.9,2-1.9,3.2-.1,6.5-.1,9.9-.1Zm.1,1.6H20.7c-.9,0-1,.1-1,1V30.3c0,1,.1,1.1,1.1,1.1H39.1c1,0,1.3-.3,1.3-1.3V19.7c0-.9-.1-1.1-1.1-1.1ZM30,33H19.9a1.49,1.49,0,0,0-1.5.9c-.6,1.2-1.3,2.3-1.9,3.4-.4.7-.3.8.5.8,2.3,0,4.7-.1,7,0,1.1,0,1.9-.2,2.1-1.3a1.3,1.3,0,0,1,1.6-1c1.2.1,2.4,0,3.6,0,2.3,0,2-.3,3.1,1.9a.82.82,0,0,0,.6.4h8c.7,0,.8-.2.4-.7-.6-1.1-1.3-2.2-1.9-3.4a1.62,1.62,0,0,0-1.7-1Z" style="fill:#fff"/><path d="M30.1,18.6h9.2c1,0,1.1.1,1.1,1.1V30.1c0,1-.3,1.3-1.3,1.3H20.8c-1,0-1.1-.1-1.1-1.1V19.6c0-.9.1-1,1-1Z"/><path d="M30,33h9.9a1.67,1.67,0,0,1,1.7,1c.6,1.1,1.3,2.2,1.9,3.4.3.6.2.7-.4.7h-8a.82.82,0,0,1-.6-.4c-1.1-2.1-.8-1.9-3.1-1.9H27.8c-.8,0-1.4.2-1.6,1-.3,1.2-1,1.4-2.1,1.3-2.3-.1-4.7,0-7,0-.8,0-.9-.1-.5-.8.6-1.1,1.3-2.3,1.9-3.4A1.55,1.55,0,0,1,20,33Z"/></g><g id="vPQ3We"><path d="M29.7,29.7a4.72,4.72,0,0,1-4.4-4.3A4.59,4.59,0,0,1,29,20.5a4.7,4.7,0,0,1,5.4,3,4.21,4.21,0,0,1-.1,3.3,4.51,4.51,0,0,1-3.2,2.8c0,.1.1.3.1.4,2.2-.2,4.2-3.1,3.8-5.5a5.19,5.19,0,0,0-6.1-4.4A5.06,5.06,0,0,0,25,26.3c.6,2.3,3.3,4.4,5.2,3.8v-1c.6-.1.6-.1.6-.6v-1c0-.5,0-.5-.5-.5s-.7-.1-.9-.7a4.11,4.11,0,0,1,0-2.2c.1-.7.3-.8,1-.8.3,0,.4-.1.4-.4V21.5c0-.2-.1-.4-.3-.4a1.43,1.43,0,0,0-1.1.3,4.81,4.81,0,0,0-.9,1.1,5,5,0,0,0-.6,3.4,4.17,4.17,0,0,0,1.5,3C29.8,29.1,29.8,29.3,29.7,29.7Z" style="fill:#fff"/><path d="M29.7,29.7a1,1,0,0,0-.3-1,3.84,3.84,0,0,1-1.5-3,5.75,5.75,0,0,1,.6-3.4,8.7,8.7,0,0,1,.9-1.1,1.43,1.43,0,0,1,1.1-.3c.2,0,.3.2.3.4v1.4c0,.3-.1.4-.4.4-.7,0-.9.1-1,.8a8.1,8.1,0,0,0,0,2.2c.1.5.3.7.9.7s.5,0,.5.5v1c0,.5,0,.6-.6.6v1c-1.9.5-4.6-1.5-5.2-3.8a5.09,5.09,0,1,1,10-1.8c.3,2.5-1.6,5.3-3.8,5.5,0-.1-.1-.2-.1-.4a4.73,4.73,0,0,0,3.2-2.8,5.32,5.32,0,0,0,.1-3.3,4.7,4.7,0,0,0-5.4-3,4.83,4.83,0,0,0-3.7,4.9A4.67,4.67,0,0,0,29.7,29.7Z" style="fill:#fff"/></g></svg>