<?xml version="1.0" encoding="utf-8"?>
<!-- Generator: Adobe Illustrator 21.0.0, SVG Export Plug-In . SVG Version: 6.00 Build 0)  -->
<svg version="1.1" id="Calque_1" xmlns="http://www.w3.org/2000/svg" xmlns:xlink="http://www.w3.org/1999/xlink" x="0px" y="0px"
	 viewBox="0 0 40 40" style="enable-background:new 0 0 40 40;" xml:space="preserve">
<style type="text/css">
	.st0{clip-path:url(#SVGID_2_);}
	.st1{fill:#FFF6B6;}
	.st2{fill:#FFD200;}
	.st3{fill:#FFFFFF;}
	.st4{fill:#FF7900;}
</style>
<g>
	<g>
		<defs>
			<circle id="SVGID_1_" cx="20" cy="20" r="20"/>
		</defs>
		<clipPath id="SVGID_2_">
			<use xlink:href="#SVGID_1_"  style="overflow:visible;"/>
		</clipPath>
		<g class="st0">
			<rect x="-7.2" y="-1.8" class="st1" width="51.5" height="48.1"/>
			<g>
				<path class="st2" d="M18.9,78.3c-4-13.3,3.7-52.7,1.9-53.2C18.9,24.7,6,62.7-3.2,72.9L18.9,78.3z"/>
				<g>
					<g>
						<g>
							<path class="st3" d="M26.5,29.6c-0.4,1.8-0.3,3.1,0.2,3.2c0.6,0.3,1.3-1.1,1.7-2.8c0.5-1.7,0.3-3.1-0.2-3.2
								C27.6,26.6,26.9,28,26.5,29.6z"/>
						</g>
						<g>
							<path class="st2" d="M27,29.2c-0.3,1.1-0.3,2.3,0,2.4c0.3,0,0.8-0.9,1.1-2.1c0.4-1.2,0.3-2.3,0-2.4
								C27.8,26.8,27.4,27.9,27,29.2z"/>
						</g>
						<g>
							<path d="M21.1,22.5c0.4,0,6.2,6,6.2,6c-0.2-0.2,2.4-2.5,2.4-2.5c0.2,0.2-6.2-6-6.2-6C24,19.9,21.1,22.5,21.1,22.5z"/>
						</g>
						<g>
							<path class="st4" d="M25.8,29.3c0.1-0.2,1.3-5.6,1.3-5.6c0.3-0.8,0.9-1.1,1.5-0.9c0.3,0,0.8,0.2,0.8,0.2
								c0.6,0,1.1,0.9,0.9,1.5c0,0.2-1.3,5.6-1.3,5.6C29.3,30.3,25.8,29.3,25.8,29.3z"/>
						</g>
						<path d="M25.3,29.3c0,0.1,0,0.2,0.2,0.3l3.9,0.9c0.1,0,0.2,0,0.3-0.2l0,0c0-0.1,0-0.2-0.2-0.3l-3.9-0.9
							C25.4,29.2,25.3,29.2,25.3,29.3L25.3,29.3z"/>
					</g>
					<g>
						<g>
							<path class="st3" d="M13.2,26.4c-0.5,1.7-1.1,2.9-1.7,2.8C11.1,29,11,27.6,11.4,26c0.4-1.5,1.1-2.9,1.7-2.8
								C13.6,23.3,13.6,24.8,13.2,26.4z"/>
						</g>
						<g>
							<path class="st2" d="M13,25.8c-0.2,1.2-0.8,2.2-1.1,2.1c-0.2-0.1-0.3-1.1,0-2.4c0.2-1.4,0.8-2.2,1.1-2.1
								C13.3,23.3,13.3,24.5,13,25.8z"/>
						</g>
						<g>
							<path d="M21.3,22.6c0.4-0.2-8.3,2.4-8.3,2.4c0.2-0.1-1-3.4-1-3.4c-0.5,0.1,8.3-2.4,8.3-2.4C20.5,19.4,21.3,22.6,21.3,22.6z"
								/>
						</g>
						<g>
							<path class="st4" d="M14,26.4c0.2,0,1.3-5.6,1.3-5.6c0.1-0.7-0.3-1.4-0.9-1.5c0.2,0-0.8-0.2-0.8-0.2
								c-0.9-0.3-1.4,0.3-1.5,0.9c0.1,0-1.3,5.6-1.3,5.6C10.5,25.7,14,26.4,14,26.4z"/>
						</g>
						<path d="M14.5,26.7c0,0.1-0.1,0.2-0.3,0.2l-3.9-0.9c-0.1,0-0.2-0.1-0.2-0.3l0,0c0-0.1,0.1-0.2,0.3-0.2l3.9,0.9
							C14.4,26.5,14.5,26.6,14.5,26.7L14.5,26.7z"/>
					</g>
					<g>
						<g>
							<g>
								<path class="st3" d="M16.2,30.7c-0.4,2-0.4,3.9,0.2,4.1c0.7,0,1.5-1.4,2-3.5c0.4-2,0.4-3.9-0.2-4.1
									C17.5,27.2,16.7,28.6,16.2,30.7z"/>
							</g>
							<g>
								<path class="st3" d="M19.7,31.6c-0.5,2.1-0.4,3.9,0.2,4.1c0.5,0.4,1.5-1.4,2-3.5c0.4-1.9,0.4-3.9-0.2-4.1
									C21.1,28,20.3,29.5,19.7,31.6z"/>
							</g>
							<g>
								<path class="st3" d="M17.7,32.3c-0.4,2-0.4,3.9,0.2,4.1c0.4,0.3,1.5-1.4,2-3.5c0.6-1.9,0.4-3.9-0.2-4.1
									C19.2,28.4,18.2,30.2,17.7,32.3z"/>
							</g>
							<g>
								<path class="st2" d="M17,30.4c-0.4,1-0.1,2.1,0.4,2.2c0.5,0.1,1.1-0.7,1.3-1.8c0.2-1,0.1-2.1-0.4-2.2
									C17.9,28.4,17.3,29.3,17,30.4z"/>
							</g>
							<g>
								<path class="st2" d="M19.8,31c-0.2,1.2-0.1,2.1,0.4,2.2c0.6,0.1,1.1-0.7,1.3-1.8c0.2-1.1,0.1-2.1-0.4-2.2
									C20.7,29.2,20.1,30,19.8,31z"/>
							</g>
							<g>
								<path class="st2" d="M18.2,31.3c-0.2,1.1-0.1,2.1,0.4,2.2c0.4,0.2,1.1-0.7,1.3-1.8c0.3-1,0.1-2.1-0.4-2.2
									C19.2,29.4,18.5,30.2,18.2,31.3z"/>
							</g>
						</g>
					</g>
					<g>
						<path class="st4" d="M16.8,30.6c0.2,0.3,4.7,1.1,4.7,1.1c2,0,3.5-3.9,5.2-10.7c1.9-7.4-1.2-16-1.2-16
							c0.6-0.5-6.4,5.5-8.4,13.7C15.6,26,15,29.2,16.8,30.6z"/>
					</g>
					<g>
						<path d="M21.9,8.9c0.9,0.6,1.4,1.1,2.3,1.3c1.1,0.2,1.8,0.2,2.6-0.2C26,7,25.5,5,25.5,5C25.6,4.9,23.8,6.4,21.9,8.9z"/>
					</g>
					<g>
						<path d="M25.6,14.3c-0.1,1.4-1.6,2-2.8,1.7c-1.1-0.3-2-1.6-1.7-2.8c0.2-1.4,1.6-2,2.8-1.7C25.2,11.9,25.9,13,25.6,14.3z"/>
					</g>
					<g>
						<path d="M23.4,18.2c-0.1,0.6-0.8,1-1.4,0.8c-0.5-0.1-1-0.8-0.8-1.4c0.1-0.7,0.8-1,1.4-0.8C23.2,17,23.6,17.6,23.4,18.2z"/>
					</g>
					<g>
						<path class="st3" d="M21.5,21.5c0.2,0,0.2,0.1,0.2,0.3c0.1-0.1-1.6,6.7-1.6,6.7c-0.1,0.1-0.1,0.2-0.3,0.2c0-0.1,0,0,0,0
							c0-0.2-0.2-0.1-0.2-0.3c0.1-0.1,1.6-6.7,1.6-6.7C21.3,21.6,21.3,21.5,21.5,21.5C21.4,21.3,21.5,21.5,21.5,21.5z"/>
					</g>
					<path d="M23,31.6c-0.1,0.2-0.3,0.4-0.6,0.3l-6.6-1.6c-0.2-0.1-0.4-0.3-0.3-0.6l0,0c0.1-0.2,0.3-0.4,0.6-0.3l6.6,1.6
						C22.9,31.2,23,31.4,23,31.6L23,31.6z"/>
				</g>
			</g>
		</g>
	</g>
</g>
</svg>
