<svg id="Calque_1" data-name="Calque 1" xmlns="http://www.w3.org/2000/svg" viewBox="0 0 60 60"><title>Icone Mobile</title><rect width="60" height="60" style="fill:#fff"/><circle cx="30" cy="30" r="20.5"/><g id="MY09Rf"><path d="M36.6,29.6v11a1.42,1.42,0,0,1-1.5,1.5H24.8a1.42,1.42,0,0,1-1.5-1.5V18.5A1.42,1.42,0,0,1,24.8,17H35.1a1.41,1.41,0,0,1,1.4,1.1v8.2c.1,1.2.1,2.2.1,3.3ZM24.5,19.9V38.6H35.1c.3,0,.3,0,.3-.3V20C31.8,19.9,28.1,19.9,24.5,19.9ZM30,39.7H28.8a.47.47,0,0,0-.5.5v.2a.47.47,0,0,0,.5.5h2.3c.2,0,.4-.1.4-.3a.6.6,0,0,0,.1-.4.47.47,0,0,0-.5-.5Z" style="fill:#fff"/><path d="M14.8,29.4a10.36,10.36,0,0,1,.7-3.9,8.8,8.8,0,0,1,2.8-3.8c.2-.1.3-.2.5-.3a.71.71,0,0,1,1,.3.78.78,0,0,1-.2,1,5.86,5.86,0,0,0-2.5,2.9,8.53,8.53,0,0,0-.8,3.5,11.17,11.17,0,0,0,.9,4.4,9.28,9.28,0,0,0,2.3,3c.2.2.4.3.4.5s0,.5-.3.7a.61.61,0,0,1-.8,0,5.5,5.5,0,0,1-.9-.7,10.46,10.46,0,0,1-2.7-4.5A11.48,11.48,0,0,1,14.8,29.4Z" style="fill:#fff"/><path d="M45.1,29.8a9,9,0,0,1-.8,4,8.73,8.73,0,0,1-2.9,3.7l-.6.3a.57.57,0,0,1-.7-.4.81.81,0,0,1,.3-.9,6.56,6.56,0,0,0,1.9-1.8,8.21,8.21,0,0,0,1.3-3.5,10.64,10.64,0,0,0-.4-4.7,9.26,9.26,0,0,0-2.6-3.9c-.1-.1-.2-.1-.3-.2s-.3-.7,0-.9a.65.65,0,0,1,.9-.2,5.24,5.24,0,0,1,1.1,1,8,8,0,0,1,1.5,2.1,7.65,7.65,0,0,1,1.1,3.2,18,18,0,0,1,.2,2.2Z" style="fill:#fff"/><path d="M41.8,29.7a6.18,6.18,0,0,1-.5,2.7,5.37,5.37,0,0,1-1.6,2.1.7.7,0,0,1-1.1-.1.8.8,0,0,1,.2-1,3.75,3.75,0,0,0,1.4-2.1,6.11,6.11,0,0,0-.3-4.2,5.72,5.72,0,0,0-1.1-1.6.77.77,0,0,1-.1-1,.67.67,0,0,1,1,0A5.15,5.15,0,0,1,41.3,27,8.57,8.57,0,0,1,41.8,29.7Z" style="fill:#fff"/><path d="M18.1,29.4a8.57,8.57,0,0,1,.5-2.7,4.12,4.12,0,0,1,1.6-2.1.76.76,0,0,1,.5-.2.84.84,0,0,1,.7.4.78.78,0,0,1-.2.8,4.35,4.35,0,0,0-1.4,2.1,6.31,6.31,0,0,0,.1,3.6,4.15,4.15,0,0,0,1.2,2l.2.2a.71.71,0,0,1-1,1,9,9,0,0,1-.9-1A7,7,0,0,1,18.2,30C18.1,29.9,18.1,29.6,18.1,29.4Z" style="fill:#fff"/></g></svg>