<?xml version="1.0" encoding="utf-8"?>
<!-- Generator: Adobe Illustrator 21.0.0, SVG Export Plug-In . SVG Version: 6.00 Build 0)  -->
<svg version="1.1" id="Calque_1" xmlns="http://www.w3.org/2000/svg" xmlns:xlink="http://www.w3.org/1999/xlink" x="0px" y="0px"
	 viewBox="0 0 41 41" style="enable-background:new 0 0 41 41;" xml:space="preserve">
<style type="text/css">
	.st0{fill:#FFFFFF;}
</style>
<g>
	<circle cx="20.5" cy="20.5" r="20.5"/>
	<g id="YnW4Sw_1_">
		<g>
			<path class="st0" d="M13.6,8.1c0,0.3,0,0.7,0,1c0,0.5,0.2,0.8,0.8,0.8c4.2,0,8.4,0,12.5,0c0.5,0,0.7-0.3,0.7-0.7c0-0.3,0-0.6,0-1
				c0,0,0,0,0-0.1c1.6-0.2,2.9,1.1,2.9,2.7c0,4,0,8,0,12.1c0,3.6,0,7.2,0,10.8c0,1-0.3,1.9-1.2,2.5c-0.5,0.3-1.1,0.5-1.7,0.4
				c-4.8,0-9.6,0-14.4,0c-1.5,0-2.6-1.1-2.7-2.6c0-3.2,0-6.5,0-9.7c0-0.5,0-1,0-1.6c0-3.9,0-7.9,0-11.8c0-1,0.4-1.8,1.3-2.4
				C12.5,8.2,13,8,13.6,8.1z M20.6,12.8L20.6,12.8c-2.2,0-4.4,0-6.6,0c-0.3,0-0.4,0.1-0.4,0.4c0,2,0,4.1,0,6.1
				c0,0.4,0.1,0.5,0.5,0.5c4.3,0,8.7,0,13,0c0.4,0,0.5-0.1,0.5-0.5c0-2,0-4,0-6c0-0.4-0.1-0.5-0.5-0.5C25,12.8,22.8,12.8,20.6,12.8z
				 M14.7,28.8c-0.2,0-0.5,0-0.7,0c-0.3,0-0.4,0.1-0.4,0.4c0,0.2,0,0.4,0,0.7c0,0.2,0.1,0.4,0.4,0.4c0.5,0,1.1,0,1.6,0
				c0.2,0,0.3-0.1,0.3-0.4c0-0.2,0-0.5,0-0.7c0-0.3-0.1-0.4-0.4-0.4S15,28.8,14.7,28.8z M18.6,30.3L18.6,30.3c0.3,0,0.5,0,0.8,0
				c0.2,0,0.3-0.1,0.4-0.3c0-0.3,0-0.5,0-0.8c0-0.2-0.1-0.3-0.4-0.4c-0.5,0-1.1,0-1.6,0c-0.2,0-0.4,0.1-0.4,0.4c0,0.2,0,0.5,0,0.7
				c0,0.3,0.1,0.4,0.4,0.4C18.1,30.3,18.4,30.3,18.6,30.3z M22.6,33L22.6,33c0.3,0,0.5,0,0.8,0s0.4-0.1,0.4-0.4c0-0.2,0-0.5,0-0.7
				s-0.1-0.4-0.4-0.4c-0.5,0-1,0-1.5,0c-0.3,0-0.4,0.1-0.4,0.4c0,0.2,0,0.4,0,0.7s0.1,0.4,0.4,0.4C22.1,33,22.3,33,22.6,33z
				 M18.6,33L18.6,33c0.3,0,0.5,0,0.8,0c0.2,0,0.4-0.1,0.4-0.4c0-0.2,0-0.5,0-0.7s-0.1-0.4-0.4-0.4c-0.5,0-1,0-1.6,0
				c-0.2,0-0.4,0.1-0.4,0.4c0,0.2,0,0.5,0,0.7c0,0.3,0.1,0.4,0.4,0.4C18.2,33,18.4,33,18.6,33z M22.6,30.3c0.2,0,0.5,0,0.7,0
				c0.3,0,0.4-0.1,0.4-0.4c0-0.2,0-0.4,0-0.7s-0.1-0.4-0.4-0.4c-0.5,0-1,0-1.6,0c-0.2,0-0.4,0.1-0.4,0.4c0,0.2,0,0.5,0,0.7
				c0,0.3,0.1,0.4,0.4,0.4C22.1,30.3,22.3,30.3,22.6,30.3z M14.7,33L14.7,33c0.3,0,0.5,0,0.8,0s0.4-0.1,0.4-0.4c0-0.2,0-0.5,0-0.7
				s-0.1-0.4-0.4-0.4c-0.5,0-1,0-1.6,0c-0.2,0-0.4,0.1-0.4,0.4c0,0.2,0,0.5,0,0.7c0,0.3,0.1,0.4,0.4,0.4C14.2,33,14.4,33,14.7,33z
				 M26.5,33c0.3,0,0.5,0,0.8,0c0.2,0,0.4-0.1,0.4-0.4c0-0.2,0-0.5,0-0.7s-0.1-0.4-0.4-0.4c-0.5,0-1,0-1.5,0c-0.2,0-0.4,0.1-0.4,0.4
				c0,0.2,0,0.5,0,0.7c0,0.3,0.1,0.4,0.4,0.4C26,33,26.2,33,26.5,33z M26.5,30.3c0.2,0,0.5,0,0.7,0c0.3,0,0.4-0.1,0.4-0.4
				c0-0.2,0-0.4,0-0.7s-0.1-0.4-0.4-0.4c-0.5,0-1,0-1.5,0c-0.3,0-0.4,0.1-0.4,0.4c0,0.2,0,0.5,0,0.7c0,0.3,0.1,0.4,0.4,0.4
				S26.2,30.3,26.5,30.3z M14.7,24.9L14.7,24.9c0.3,0,0.5,0,0.8,0s0.4-0.1,0.4-0.4c0-0.2,0-0.5,0-0.7s-0.1-0.4-0.4-0.4
				c-0.5,0-1.1,0-1.6,0c-0.2,0-0.3,0.1-0.3,0.4c0,0.2,0,0.5,0,0.7s0.1,0.4,0.4,0.4C14.2,24.9,14.4,24.9,14.7,24.9z M22.6,24.9
				L22.6,24.9c0.3,0,0.5,0,0.8,0c0.2,0,0.4-0.1,0.4-0.3c0-0.3,0-0.5,0-0.8c0-0.2-0.1-0.3-0.3-0.3c-0.6,0-1.1,0-1.7,0
				c-0.2,0-0.3,0.1-0.3,0.3c0,0.3,0,0.5,0,0.8s0.1,0.4,0.4,0.4C22,24.9,22.3,24.9,22.6,24.9z M18.6,23.5L18.6,23.5
				c-0.2,0-0.5,0-0.7,0c-0.3,0-0.4,0.1-0.4,0.4c0,0.2,0,0.5,0,0.7c0,0.3,0.1,0.4,0.4,0.4c0.5,0,1,0,1.6,0c0.2,0,0.4-0.1,0.4-0.3
				c0-0.3,0-0.5,0-0.8c0-0.2-0.1-0.3-0.4-0.3C19.2,23.5,18.9,23.5,18.6,23.5z M14.7,27.6c0.3,0,0.5,0,0.8,0c0.2,0,0.4-0.1,0.4-0.4
				s0-0.5,0-0.8c0-0.2-0.1-0.3-0.4-0.3c-0.5,0-1.1,0-1.6,0c-0.2,0-0.3,0.1-0.4,0.4c0,0.2,0,0.5,0,0.7c0,0.3,0.1,0.4,0.4,0.4
				C14.2,27.6,14.5,27.6,14.7,27.6z M18.6,26.2c-0.3,0-0.5,0-0.8,0s-0.4,0.1-0.4,0.4c0,0.2,0,0.5,0,0.7s0.1,0.4,0.4,0.4
				c0.5,0,1,0,1.5,0c0.3,0,0.4-0.1,0.4-0.4c0-0.2,0-0.4,0-0.7s-0.1-0.4-0.4-0.4C19.2,26.2,18.9,26.2,18.6,26.2z M22.5,27.6
				c0.3,0,0.5,0,0.8,0c0.2,0,0.3-0.1,0.4-0.3c0-0.2,0-0.5,0-0.7s-0.1-0.4-0.4-0.4c-0.5,0-1.1,0-1.6,0c-0.2,0-0.3,0.1-0.3,0.4
				c0,0.2,0,0.5,0,0.7s0.1,0.3,0.4,0.4C22,27.6,22.3,27.6,22.5,27.6z M26.5,23.5c-0.3,0-0.5,0-0.8,0c-0.2,0-0.3,0.1-0.3,0.3
				c0,0.3,0,0.5,0,0.8c0,0.2,0.1,0.3,0.3,0.3c0.5,0,1.1,0,1.6,0c0.2,0,0.3-0.1,0.3-0.3c0-0.3,0-0.5,0-0.8c0-0.2-0.1-0.3-0.4-0.3
				C27,23.5,26.8,23.5,26.5,23.5z M26.5,27.6c0.3,0,0.5,0,0.8,0c0.2,0,0.4-0.1,0.4-0.4c0-0.2,0-0.5,0-0.7c0-0.3-0.1-0.4-0.4-0.4
				c-0.5,0-1,0-1.5,0c-0.3,0-0.4,0.1-0.4,0.4c0,0.2,0,0.5,0,0.7c0,0.3,0.1,0.4,0.4,0.4C26,27.6,26.2,27.6,26.5,27.6z"/>
			<path class="st0" d="M25.6,9.2c-0.4,0-0.9,0-1.3,0c0-0.1,0-0.2,0-0.3c0-1.4,0-2.7,0-4.1c0-0.2,0-0.3-0.3-0.3c-2.3,0-4.5,0-6.8,0
				c-0.2,0-0.3,0.1-0.3,0.3c0,1.4,0,2.7,0,4.1c0,0.1,0,0.1,0,0.2c-0.4,0-0.8,0-1.3,0c0-0.1,0-0.2,0-0.3c0-1.7,0-3.4,0-5.2
				c0-0.4,0.1-0.5,0.5-0.5c3,0,6,0,9,0c0.4,0,0.5,0.1,0.5,0.4c0,1.8,0,3.5,0,5.3C25.6,9.1,25.6,9.1,25.6,9.2z"/>
			<path class="st0" d="M20.6,6.3c-0.7,0-1.3,0-2,0c-0.2,0-0.4-0.1-0.4-0.3s0.1-0.4,0.4-0.4c0.9,0,1.7,0,2.6,0c0.5,0,1,0,1.4,0
				c0.3,0,0.4,0.1,0.4,0.3s-0.2,0.3-0.5,0.3C21.9,6.3,21.3,6.3,20.6,6.3z"/>
			<path class="st0" d="M20.6,7.4c0.7,0,1.3,0,2,0c0.3,0,0.4,0.1,0.4,0.3C23,7.9,22.9,8,22.6,8c-1.3,0-2.7,0-4,0
				c-0.3,0-0.4-0.1-0.4-0.4c0-0.2,0.1-0.3,0.4-0.3C19.3,7.4,19.9,7.4,20.6,7.4L20.6,7.4z"/>
		</g>
	</g>
</g>
</svg>
