<?xml version="1.0" encoding="utf-8"?>
<!-- Generator: Adobe Illustrator 21.0.0, SVG Export Plug-In . SVG Version: 6.00 Build 0)  -->
<svg version="1.1" id="Calque_1" xmlns="http://www.w3.org/2000/svg" xmlns:xlink="http://www.w3.org/1999/xlink" x="0px" y="0px"
	 viewBox="0 0 40 40" style="enable-background:new 0 0 40 40;" xml:space="preserve">
<style type="text/css">
	.st0{fill:#FFFFFF;}
	.st1{clip-path:url(#SVGID_2_);fill:#9CE8F7;}
	.st2{clip-path:url(#SVGID_2_);}
	.st3{clip-path:url(#SVGID_2_);fill:#FFFFFF;}
	.st4{clip-path:url(#SVGID_2_);fill:#FF7A00;}
	.st5{clip-path:url(#SVGID_2_);fill:#00B5E8;}
	.st6{clip-path:url(#SVGID_2_);fill:#7D4D45;}
	.st7{clip-path:url(#SVGID_2_);fill:#70453D;}
	.st8{clip-path:url(#SVGID_2_);fill:#9E7A73;}
	.st9{clip-path:url(#SVGID_2_);fill:#FFB5E8;}
	.st10{clip-path:url(#SVGID_2_);fill:#FFE8F7;}
	.st11{clip-path:url(#SVGID_2_);fill:#878787;}
	.st12{clip-path:url(#SVGID_2_);fill:#696969;}
</style>
<rect class="st0" width="40" height="40"/>
<g>
	<g>
		<defs>
			<path id="SVGID_1_" d="M16.9,0C8,1.3,1,8.5,0,17.5v4.7c1.2,10,9.6,17.7,19.9,17.7c11.1,0,20.1-9,20.1-20.1
				C40,9.8,32.6,1.4,22.9,0H16.9z"/>
		</defs>
		<clipPath id="SVGID_2_">
			<use xlink:href="#SVGID_1_"  style="overflow:visible;"/>
		</clipPath>
		<rect x="-10.7" y="-5.2" class="st1" width="61.5" height="64.1"/>
		<path class="st2" d="M29.5,32.8L14.4,34c-1.5,0.8-5.2,3.9-4.8,6.7c1.4,9.8,8.4,16.1,8.8,16.2c0.4,0,2.6,0.1,2.7-0.1
			c0-0.2-1.8-9.9-2.6-14.9c-0.2-1.5,1.1-3.4,2.6-3.7c1.6-0.3,1.6-0.2,3.3-0.1c1.7,0.1,4.3,1.8,4.2,3.5c-0.2,5.7-2.8,14.8-2.8,15.1
			c0,0.3,2.4,0.2,2.8,0.2c0.4,0,7.9-4.8,7.9-17.1C36.4,36,29.5,32.8,29.5,32.8"/>
		<path class="st3" d="M28.2,74.2c-0.1,0-0.1,0-0.1-0.1c-0.3-1.1-3.8-11.7-12.7-11.2c-5.6,0.3-9.3-0.3-9.5-1.4
			c-0.1-0.5,0.7-1,2.1-1.3c1.7-0.3,5.1-0.3,8.8-0.2c4.4,0.1,9,0.2,10-0.5c1.3-0.9,1.1-15.1,0.6-24.5c0-0.1,0.1-0.2,0.1-0.2
			c0.1,0,0.2,0.1,0.2,0.1c0.1,2.4,1.2,23.5-0.7,24.7c-1.1,0.7-5.5,0.6-10.1,0.5c-3.5-0.1-7.1-0.2-8.7,0.2c-1.3,0.3-1.9,0.7-1.9,0.9
			c0.1,0.6,2.6,1.4,9.1,1.1c9.8-0.4,12.7,10.5,13,11.4C28.3,74.1,28.3,74.2,28.2,74.2L28.2,74.2z"/>
		<path class="st4" d="M32.3,24.2c0,0,1.9-3.5,4.4-6c-1.4-1.3-7.3-5.1-8.1-5.4c-1.5-0.7-6.9,0.8-6.9,0.8L17,14.4l-7.8,5.1
			c-1.1,0.8-1.2,9.8,1.4,16.1c3.5,0.4,6.1-2.3,6.1-2.3c0-0.4-2.6-8.7-1.5-7.1c0.6,0.8,1.7,7.9,1.7,7.9l4.3,0.5l0.8,0.2l1.1-0.1
			c0.7,0.3,1.9,0.2,2.9,0.2c1-0.1,1.8-0.9,1.7-1.9c-0.1-4-0.1-10.7,0-11.4C27.9,20.8,32.1,23.7,32.3,24.2"/>
		<path class="st5" d="M31.8,31.1l-5,3.4c-0.4,0.3-0.9,0.2-1.2-0.2l-0.4-0.5c-0.3-0.4-0.2-0.9,0.2-1.2l5-3.4
			c0.4-0.3,0.9-0.2,1.2,0.2l0.4,0.5C32.3,30.3,32.2,30.8,31.8,31.1"/>
		<path class="st2" d="M30.5,30.1l-4.9,3.3c-0.1,0.1-0.3,0-0.4-0.1c-0.1-0.1,0-0.3,0.1-0.4l4.9-3.3c0.1-0.1,0.3,0,0.4,0.1
			C30.7,29.9,30.6,30.1,30.5,30.1"/>
		<path class="st6" d="M12.9,35.3c0.5,1.4,2.9,1.8,3.7,2c0.8,0.2,4.7-0.2,8-2.5c-0.2-1.6-0.6-1.9-0.6-1.9c-4.2,1.6-7.3,0.5-7.3,0.5
			L12.9,35.3z"/>
		<path class="st6" d="M36.3,18.6c1.3,0.7,1.1,2,1,3.2c-0.1,0.9-0.8,4.3-4.1,7.1c-1.5-0.4-2.1-1-2.1-1c2.5-3,2.3-5.7,2.3-5.7
			L36.3,18.6z"/>
		<path class="st6" d="M24.2,32.2C24,32.6,23,33.3,23,33.8c0,0.5,0.7,1.4,1.2,1.5s1.5,0,2.4-0.2c0.7-0.2,1.3-0.1,1.4-0.3
			c0.2-0.7-0.7-0.7-1.1-0.5c-0.6,0.3-1.2,0.2-1.5-0.1c-0.3-0.3-0.1-1,0.2-1.4c0.3-0.3,1.7-0.7,1.3-1.7c-0.3-0.6-0.6-0.2-0.8,0.2
			C25.8,31.6,24.3,31.9,24.2,32.2"/>
		<path class="st6" d="M30.4,27.9c0.5,0,1.6-0.1,2,0.1c0.5,0.1,0.9,0.6,0.9,1.1c0,0.5-0.6,1.4-1.1,2.1c-0.4,0.6-0.6,1.2-0.8,1.1
			c-0.8-0.1-0.4-0.9-0.1-1.2c0.5-0.5,0.6-1,0.5-1.4c-0.2-0.4-0.9-0.5-1.3-0.3c-0.4,0.1-1.3,1.4-2.1,0.6c-0.4-0.4,0.1-0.7,0.5-0.7
			C29.3,29.2,30.1,27.9,30.4,27.9"/>
		<path class="st6" d="M16.1,12.1c0.3,0.7,0.5,2.7,0.3,3.2c0.6,1.1,5,1.3,5.5-1.7c-0.7-0.6-1.6-2.9-1.6-2.9L16.1,12.1z"/>
		<path class="st6" d="M20.1,6.5c0.3-0.3,0.8-0.5,1-0.1c0.3,0.4,0,1.7-0.9,1.8C19.4,8.2,20.1,6.5,20.1,6.5"/>
		<path class="st7" d="M20.9,6.3c-0.3,0-0.6,0.5-0.6,0.8l0,0.2C20.4,7.1,20.5,7,20.6,7c0.1,0,0.2,0.1,0.2,0.2c0.1-0.1,0-0.3-0.1-0.3
			c0,0-0.1,0-0.1,0C20.5,6.9,20.8,6.4,20.9,6.3c0.1,0,0.1,0,0.1,0C21,6.4,20.9,6.3,20.9,6.3"/>
		<path class="st6" d="M13.7,8.5c-0.4-0.1-0.9-0.1-1,0.4c0,0.5,0.7,1.5,1.6,1.2C15.2,9.7,13.7,8.5,13.7,8.5"/>
		<path class="st7" d="M13.2,8.7c-0.1,0-0.2,0-0.2,0.1c0,0,0.1,0,0.1,0c0.2,0,0.6,0.3,0.6,0.3c-0.3,0.1-0.2,0.3-0.1,0.4
			c-0.1-0.1,0-0.3,0.1-0.3c0.1,0,0.2,0.1,0.4,0.2l-0.1-0.2C13.8,8.9,13.5,8.7,13.2,8.7"/>
		<path class="st2" d="M14.2,9c0,0.3-0.1,1.8,0.2,2.2c0.3,0.4,3.1,1.4,3.1,1.4c0.3,0.2,0.4,0,1.4-0.2c0.9-0.5,2.3-2.7,2.3-3
			c0-0.3-0.9-2.4-0.9-2.4s-1-1.9-1-2.3c0-0.4-0.4-1.8-1-2c-0.1-0.4,0.2-0.5-0.2-0.6c-0.3,0-1.3-0.1-1.9-0.3c-0.6-0.2-1.8,0-1.8,0.9
			c-0.5-0.1-1,0.9-0.9,1.7c0,0.9,0.2,2.3,0.2,2.3L14.2,9z"/>
		<path class="st6" d="M14.3,6.8c-0.4-0.8-0.4-1.7,0.3-3.4c0.4,0.6,2.5,0,2.5,0c0.3,0.1,1.4,0.5,1.6,1.2c0.1,0.6,0.9,2,1,2.3
			c0.1,0.4,0.4,1.4,0,1.7c-0.4,0.3-1.6,0-2.4,0.5c-0.8,0.5-1.2,1.1-1.8,0.9s-1.1-1.1-1.1-1.8C14.4,7.7,14.3,6.8,14.3,6.8"/>
		<path class="st8" d="M17.2,7.5C17.2,7.5,17.2,7.5,17.2,7.5c-0.3,0.1-0.3,0.8-0.3,0.9c0,0,0.1,0.1,0.2,0.1c0.1,0,0.2,0,0.3,0
			c0.3-0.1,0.5-0.2,0.4-0.3C17.8,8.1,17.5,7.5,17.2,7.5"/>
		<path class="st9" d="M16,10.2c1,0.2,3.1-0.6,3.7-1.2c-0.2,1.1-0.5,2-1.5,2.1C17.2,11.3,16.3,10.6,16,10.2"/>
		<path class="st3" d="M19.3,9.3c-0.7,0.4-1.8,0.9-2.7,1c0.3,0.2,0.7,0.3,1.6,0C18.9,9.9,19.2,9.5,19.3,9.3"/>
		<path class="st10" d="M18.7,10.4c-0.1-0.2-0.7,0-0.9,0.8c0.1,0,0.2,0,0.3,0c0.7-0.1,1.1-0.6,1.3-1.2C19.2,9.9,18.8,10.1,18.7,10.4
			"/>
		<path class="st2" d="M19,11.1c-0.2,0.2-0.5,0.3-0.8,0.3c-0.1,0-0.1,0-0.1,0c0.1,0.1,0.2,0.2,0.3,0.2C18.6,11.5,19,11.3,19,11.1"/>
		<path class="st2" d="M13.5,6.5c-0.2,0-0.4,0-0.5-0.1c-0.1-0.1-0.2-0.4,0-0.4c-0.3-0.1-0.6-0.4-0.7-0.7c0-0.1-0.1-0.3,0-0.4
			c0.1-0.1,0.2-0.2,0.3-0.2c-0.3-0.1-0.5-0.5-0.5-0.8c0-0.3,0.4-0.6,0.7-0.5c-0.1-0.3-0.2-0.6,0-0.9c0.2-0.3,0.6-0.3,0.8,0
			c0.1-0.3,0.1-0.5,0.3-0.7c0.2-0.2,0.6-0.2,0.7,0c0.2-0.3,0.2,0,0.6-0.2C15.5,1.4,16.1,1,16,1.4c0.1-0.2,0.5-0.4,0.8-0.4
			c0.3,0.1,0.4,0.3,0.5,0.6c0.1-0.2,0.5-0.3,0.7-0.2c0.3,0.1,0.4,0.4,0.3,0.7c0.2-0.1,0.5,0,0.6,0.2c0.1,0.2,0.1,0.5,0,0.7
			c0.2,0,0.3,0.3,0.2,0.5c0.3,0.1,0.4,0.4,0.4,0.7c0,0.3-0.2,0.5-0.5,0.6c-0.2-0.5-0.5-0.9-0.9-1.1c-0.1,0-0.1-0.1-0.2-0.1
			c-0.1,0-0.2,0-0.3,0.1c-1,0.4-2.1,0.7-3.2,0.8c-0.2,0-0.4,0-0.5,0.2c-0.1,0.2,0,0.4-0.1,0.5"/>
		<path class="st11" d="M16.9,5.5l-1,0.3c-0.1,0-0.3,0-0.3-0.2l-0.1-0.2c0-0.1,0-0.3,0.2-0.3l1-0.3c0.1,0,0.3,0,0.3,0.2l0.1,0.2
			C17.2,5.3,17.1,5.5,16.9,5.5"/>
		<path class="st12" d="M16.9,5.5l-0.1-0.3l-1,0.3l0,0v0l0,0l0,0v0v0l0,0l0,0v0l0,0v0l-0.1-0.2l0,0h0l0,0l0,0h0h0l0,0l0,0h0l0,0
			l1-0.3l0,0v0l0,0l0,0v0v0l0,0l0,0v0l0,0l0.1,0.2l0,0h0l0,0l0,0h0h0l0,0l0,0h0l0,0h0L16.9,5.5L17,5.8c0.2-0.1,0.4-0.3,0.4-0.5
			c0-0.1,0-0.1,0-0.2l-0.1-0.2v0c-0.1-0.2-0.3-0.4-0.5-0.4c-0.1,0-0.1,0-0.2,0l-1,0.3c-0.2,0.1-0.4,0.3-0.4,0.5c0,0.1,0,0.1,0,0.2v0
			l0.1,0.2v0c0.1,0.2,0.3,0.4,0.5,0.4c0.1,0,0.1,0,0.2,0l1-0.3L16.9,5.5z"/>
		<path class="st11" d="M12.5,6.6c-0.2,0.7-0.1,2.3,0.7,2.7c0.7,0.4,2.9-0.4,3-0.6c0.9-0.9,0.7-1.1,2.6-0.6c0.3,0.1,2.2-1.1,2.2-1.5
			c0-0.7-0.3-1.8-0.8-2.1C18.5,3.9,13.8,5.3,12.5,6.6"/>
		<path class="st12" d="M12.5,6.6l-0.3-0.1c-0.1,0.2-0.1,0.5-0.1,0.9c0,0.4,0.1,0.8,0.2,1.2c0.1,0.4,0.4,0.8,0.7,1
			c0.2,0.1,0.4,0.1,0.7,0.1c0.5,0,1.1-0.1,1.6-0.3c0.3-0.1,0.5-0.2,0.7-0.2c0.1,0,0.2-0.1,0.2-0.1c0,0,0.1,0,0.1,0
			c0,0,0.1,0,0.1-0.1l0,0l0,0c0.3-0.3,0.5-0.5,0.7-0.6c0.1-0.1,0.1-0.1,0.2-0.1c0.1,0,0.1,0,0.3,0c0.2,0,0.6,0.1,1.3,0.2
			c0,0,0.1,0,0.1,0c0.1,0,0.2,0,0.3-0.1c0.2-0.1,0.4-0.2,0.6-0.3c0.3-0.2,0.7-0.4,1-0.6C20.9,7.3,21,7.1,21.1,7
			c0-0.1,0.1-0.1,0.1-0.2c0-0.1,0.1-0.1,0.1-0.2v0v0c0-0.4-0.1-0.9-0.2-1.3C21,5.2,20.9,5,20.8,4.8c-0.1-0.2-0.2-0.3-0.4-0.5l0,0
			l0,0c-0.4-0.1-0.8-0.2-1.3-0.2c-1.1,0-2.5,0.3-3.8,0.7c-0.6,0.2-1.2,0.5-1.7,0.7c-0.5,0.3-0.9,0.5-1.2,0.8l0,0l0,0.1L12.5,6.6
			l0.2,0.2c0.2-0.2,0.6-0.5,1.1-0.8c0.7-0.4,1.7-0.7,2.6-1c0.9-0.3,1.9-0.4,2.7-0.4c0.5,0,0.8,0.1,1.1,0.2l0.1-0.3l-0.1,0.2
			c0.1,0.1,0.2,0.2,0.3,0.3c0.3,0.4,0.4,1.1,0.4,1.6v0v0h0.2l-0.2,0l0,0h0.2l-0.2,0l0.1,0l-0.1,0l0,0l0.1,0l-0.1,0
			c0,0,0,0.1-0.1,0.1c-0.1,0.1-0.2,0.2-0.4,0.4c-0.3,0.2-0.6,0.4-0.9,0.6c-0.1,0.1-0.3,0.1-0.4,0.2c-0.1,0-0.1,0-0.1,0l0,0l0,0l0,0
			v0h0l0,0v0V8l0-0.1l0,0V8l0-0.1c-0.6-0.2-1.1-0.2-1.4-0.2c-0.2,0-0.3,0-0.5,0.1c-0.2,0.1-0.4,0.2-0.5,0.3
			c-0.1,0.1-0.3,0.3-0.5,0.5l0,0l0.1,0.1L16,8.5l0,0l0.1,0.1L16,8.5c0,0,0,0-0.1,0c-0.2,0.1-0.6,0.2-1,0.4c-0.4,0.1-0.9,0.2-1.2,0.2
			c-0.2,0-0.3,0-0.4-0.1c-0.2-0.1-0.4-0.4-0.5-0.7c-0.1-0.3-0.2-0.7-0.2-1c0-0.3,0-0.5,0.1-0.7L12.5,6.6l0.2,0.2L12.5,6.6z"/>
		<rect x="15" y="1.4" transform="matrix(0.971 -0.2391 0.2391 0.971 -0.3117 3.8148)" class="st11" width="1.1" height="3.6"/>
		<polygon class="st12" points="14.6,1.6 14.6,1.7 15.6,1.5 16.4,4.7 15.6,4.9 14.7,1.5 14.6,1.6 14.6,1.7 14.6,1.6 14.5,1.6 
			15.4,5.2 16.7,4.9 15.8,1.2 14.4,1.5 14.5,1.6 		"/>
		<path class="st3" d="M15.9,15.1c-0.1,0.1-0.1,0.3-0.1,0.5c0.1,0.2,0.5,0.1,0.4-0.1c0-0.1,0-0.1,0-0.1C16.4,15.1,16,14.9,15.9,15.1
			"/>
		<path class="st3" d="M15.8,15.7c0,0.2,0.1,0.3,0.2,0.4c0.2,0.1,0.4-0.2,0.2-0.3c0,0,0,0,0-0.1C16.2,15.5,15.8,15.5,15.8,15.7"/>
		<path class="st3" d="M16.2,16.3c0.1,0.1,0.3,0.3,0.4,0.3c0.2,0.1,0.4-0.2,0.2-0.3c-0.1-0.1-0.3-0.2-0.4-0.3
			C16.4,15.9,16.1,16.1,16.2,16.3"/>
		<path class="st3" d="M17,16.8c0.1,0.1,0.3,0.1,0.4,0.2c0.1,0,0.2,0,0.2-0.1c0-0.1,0-0.2-0.1-0.2c-0.1-0.1-0.3-0.1-0.4-0.2
			c-0.1,0-0.2,0-0.2,0.1C16.8,16.7,16.9,16.8,17,16.8"/>
		<path class="st3" d="M17.9,17.1c0.2,0.1,0.3,0.1,0.5,0.1c0.3,0,0.3-0.4,0-0.4c-0.1,0-0.3,0-0.4-0.1C17.8,16.6,17.6,17,17.9,17.1"
			/>
		<path class="st3" d="M18.8,17.3h0.4c0.3,0,0.3-0.4,0-0.4h-0.4C18.6,16.9,18.6,17.3,18.8,17.3"/>
		<path class="st3" d="M19.5,17.3C19.6,17.3,19.6,17.3,19.5,17.3c0.2,0.3,0.6,0.1,0.4-0.2c-0.1-0.1-0.2-0.2-0.3-0.2
			C19.4,16.9,19.3,17.3,19.5,17.3"/>
		<path class="st3" d="M19.7,17.5c0.1,0.1,0.1,0.3,0.1,0.4c0,0.3,0.4,0.3,0.4,0c0-0.2-0.1-0.3-0.1-0.5c0-0.1-0.1-0.2-0.2-0.1
			C19.7,17.3,19.6,17.4,19.7,17.5"/>
		<path class="st3" d="M19.9,18.5c0,0.2,0,0.4,0.1,0.5c0,0.1,0.2,0.1,0.3,0.1c0.1-0.1,0.1-0.2,0.1-0.3c0-0.1-0.1-0.2-0.1-0.3
			C20.3,18.2,19.9,18.2,19.9,18.5"/>
		<path class="st3" d="M20.1,19.4c0,0.2,0.1,0.4,0.1,0.6c0,0.3,0.4,0.1,0.4-0.1c0-0.2-0.1-0.3-0.1-0.5c0-0.1-0.1-0.2-0.2-0.2
			C20.2,19.2,20.1,19.3,20.1,19.4"/>
		<path class="st3" d="M20.2,20.5c0,0.1,0.1,0.3,0.1,0.4c0.1,0.3,0.4,0.1,0.4-0.1c0-0.1-0.1-0.3-0.1-0.4
			C20.6,20.1,20.2,20.2,20.2,20.5"/>
		<path class="st3" d="M20.4,21.6c0.1,0.2,0.1,0.4,0.2,0.6c0.1,0.3,0.5,0.1,0.4-0.1c-0.1-0.2-0.1-0.4-0.2-0.6
			C20.7,21.2,20.3,21.3,20.4,21.6"/>
		<path class="st3" d="M20.7,22.9c0,0.2,0,0.4,0.1,0.5c0,0.1,0.1,0.2,0.2,0.2c0.1,0,0.2-0.1,0.2-0.2c0-0.2,0-0.4-0.1-0.5
			c0-0.1-0.1-0.2-0.2-0.2C20.8,22.7,20.7,22.8,20.7,22.9"/>
		<path class="st3" d="M20.8,23.8c0.1,0.1,0.1,0.3,0.1,0.5c0,0.1,0.1,0.2,0.2,0.2c0.1,0,0.2-0.1,0.2-0.2c0-0.2-0.1-0.4-0.1-0.6
			c0-0.1-0.1-0.2-0.2-0.1C20.8,23.6,20.7,23.7,20.8,23.8"/>
		<path class="st3" d="M21,24.8c0,0.2,0,0.5,0,0.7c0,0.1,0.1,0.2,0.2,0.2c0.1,0,0.2-0.1,0.2-0.2c0-0.2,0-0.5,0-0.7
			C21.4,24.5,21,24.5,21,24.8"/>
		<path class="st3" d="M21.1,25.9c0,0.1,0,0.3,0.1,0.4c0,0.1,0.2,0.2,0.2,0.1c0.1,0,0.2-0.1,0.1-0.2c0-0.1,0-0.3-0.1-0.4
			c0-0.1-0.2-0.2-0.2-0.1C21.1,25.7,21.1,25.8,21.1,25.9"/>
		<path class="st3" d="M21.2,26.7c0,0.2,0,0.4,0.1,0.6c0,0.1,0.1,0.2,0.2,0.1c0.1,0,0.2-0.1,0.1-0.2c-0.1-0.2-0.1-0.3-0.1-0.5
			C21.6,26.4,21.2,26.4,21.2,26.7"/>
		<path class="st3" d="M21.8,27.7c0.1,0,0.2-0.1,0.3-0.1c0.3,0,0.3-0.4,0-0.4c-0.1,0-0.3,0-0.4,0.1C21.4,27.4,21.5,27.8,21.8,27.7"
			/>
		<path class="st3" d="M22.4,27.6c0.1,0,0.3,0,0.4,0c0.3-0.1,0.1-0.5-0.1-0.4c-0.1,0-0.2,0-0.3,0c-0.1,0-0.2,0.1-0.2,0.2
			C22.2,27.5,22.3,27.6,22.4,27.6"/>
		<path class="st3" d="M22.8,27.1c-0.1-0.2-0.1-0.4-0.1-0.6c0-0.3-0.4-0.3-0.4,0c0,0.2,0,0.5,0.1,0.7C22.5,27.4,22.9,27.3,22.8,27.1
			"/>
		<path class="st3" d="M22.6,25.9c0-0.2-0.1-0.5-0.1-0.7c-0.1-0.2-0.5-0.1-0.4,0.1c0.1,0.2,0.1,0.4,0.1,0.6c0,0.1,0.1,0.2,0.2,0.2
			C22.5,26.1,22.6,26,22.6,25.9"/>
		<path class="st3" d="M22.4,24.6c0-0.2,0-0.4,0-0.5c0-0.3-0.4-0.3-0.4,0c0,0.2,0,0.4,0,0.5C22,24.9,22.4,24.9,22.4,24.6"/>
		<path class="st3" d="M22.3,23.4c0-0.2,0-0.3,0-0.5c0-0.3-0.4-0.3-0.4,0c0,0.2,0,0.3,0,0.5C21.9,23.7,22.3,23.7,22.3,23.4"/>
		<path class="st3" d="M22,22.1c0-0.2,0-0.4,0-0.6c0-0.3-0.4-0.3-0.4,0c0,0.2,0,0.4,0,0.6C21.7,22.4,22.1,22.4,22,22.1"/>
		<path class="st3" d="M21.8,21c0-0.2,0-0.5,0-0.7c0-0.3-0.4-0.3-0.4,0c0,0.2,0,0.5,0,0.7C21.5,21.2,21.9,21.2,21.8,21"/>
		<path class="st3" d="M21.7,19.7c0-0.2-0.1-0.4,0-0.7c0-0.3-0.4-0.3-0.4,0c0,0.3,0,0.5,0.1,0.8C21.4,20.1,21.8,20,21.7,19.7"/>
		<path class="st3" d="M21.6,18.7c0-0.2-0.1-0.4-0.1-0.5c0-0.3-0.4-0.3-0.4,0c0,0.2,0,0.4,0.1,0.7C21.3,19,21.7,18.9,21.6,18.7"/>
		<path class="st3" d="M21.4,17.6c0-0.2,0-0.4,0-0.6c0-0.3-0.4-0.3-0.4,0c0,0.2,0,0.5,0,0.7c0,0.1,0.2,0.2,0.2,0.1
			C21.4,17.8,21.5,17.7,21.4,17.6"/>
		<path class="st3" d="M21.3,16.6c0-0.1,0-0.1,0.1-0.2c0.1-0.1,0-0.2-0.1-0.3c-0.1-0.1-0.2,0-0.3,0.1c-0.1,0.1-0.1,0.3-0.1,0.5
			c0,0.1,0.2,0.2,0.2,0.1C21.2,16.8,21.3,16.7,21.3,16.6"/>
		<path class="st3" d="M21.7,16.2c0.1-0.1,0.3-0.3,0.4-0.4c0.2-0.1,0-0.5-0.2-0.3c-0.2,0.1-0.3,0.3-0.5,0.4
			C21.2,16.1,21.5,16.3,21.7,16.2"/>
		<path class="st3" d="M22.4,15.4c0.1-0.1,0.2-0.2,0.3-0.3c0.2-0.2-0.1-0.5-0.3-0.3c-0.1,0.1-0.3,0.3-0.4,0.4
			c-0.1,0.1,0,0.2,0.1,0.3C22.2,15.5,22.3,15.5,22.4,15.4"/>
		<path class="st3" d="M22.8,14.7c0-0.2,0.1-0.4,0.1-0.5c0.1-0.3-0.3-0.4-0.4-0.1c0,0.2-0.1,0.4-0.1,0.5
			C22.3,14.8,22.7,14.9,22.8,14.7"/>
		<path class="st3" d="M22.9,13.9c0-0.1,0-0.3,0.1-0.4c0-0.3-0.3-0.4-0.4-0.1c0,0.1,0,0.3-0.1,0.4C22.5,14.1,22.9,14.2,22.9,13.9"/>
		<path class="st3" d="M22.9,13.3c0,0,0-0.1,0-0.1c-0.1-0.3-0.4-0.1-0.4,0.1c0,0,0,0.1,0,0.1C22.6,13.7,23,13.6,22.9,13.3"/>
		<path class="st3" d="M28.2,12.9c-0.1,0.2-0.2,0.5-0.1,0.7c0,0.1,0.2,0.2,0.2,0.1c0.1,0,0.2-0.1,0.1-0.2c0-0.1,0-0.3,0.1-0.4
			C28.7,12.8,28.3,12.6,28.2,12.9"/>
		<path class="st3" d="M28,13.9c0,0.2,0,0.3,0,0.5c0,0.1,0,0.2,0.1,0.2c0.1,0,0.2,0,0.2-0.1c0-0.2,0.1-0.4,0.1-0.6
			C28.4,13.7,28,13.7,28,13.9"/>
		<path class="st3" d="M27.9,15c0,0.2,0,0.5,0,0.7c0,0.3,0.4,0.3,0.4,0c0-0.2,0-0.5,0-0.7C28.3,14.7,27.9,14.7,27.9,15"/>
		<path class="st3" d="M27.9,16.5c0,0.1,0,0.3,0,0.4c0,0.1,0.1,0.2,0.2,0.2c0.1,0,0.2-0.1,0.2-0.2c0-0.1,0-0.3,0-0.4
			c0-0.1-0.1-0.2-0.2-0.2C28,16.3,28,16.4,27.9,16.5"/>
		<path class="st3" d="M27.8,17.7c0,0.2,0,0.3,0,0.5c0,0.3,0.4,0.3,0.4,0c0-0.2,0-0.3,0-0.5C28.3,17.4,27.9,17.4,27.8,17.7"/>
		<path class="st3" d="M27.8,18.9v0.6c0,0.3,0.4,0.3,0.4,0v-0.6C28.2,18.7,27.8,18.7,27.8,18.9"/>
		<path class="st3" d="M27.8,20.2c-0.1,0.2-0.1,0.4,0,0.6c0.1,0.3,0.5,0.1,0.4-0.1c0-0.1,0-0.3,0-0.4C28.3,20.1,27.9,20,27.8,20.2"
			/>
		<path class="st3" d="M9.5,19.7c0.2,0,0.4,0,0.5,0.2c0.2,0.2,0.5-0.1,0.3-0.3c-0.2-0.2-0.5-0.3-0.8-0.3c-0.1,0-0.2,0.1-0.2,0.2
			C9.3,19.6,9.4,19.7,9.5,19.7"/>
		<path class="st3" d="M10.4,20.4c0.2,0.1,0.4,0.3,0.6,0.4c0.1,0.1,0.2,0.1,0.3,0c0.1-0.1,0.1-0.2,0-0.3c-0.2-0.1-0.4-0.3-0.6-0.4
			c-0.1-0.1-0.2-0.1-0.3,0C10.4,20.1,10.3,20.3,10.4,20.4"/>
		<path class="st3" d="M11.4,21.3c0.2,0.2,0.4,0.4,0.6,0.7c0.1,0.1,0.2,0.1,0.3,0.1c0.1,0,0.1-0.2,0.1-0.3c-0.2-0.3-0.4-0.5-0.7-0.8
			C11.5,20.8,11.2,21.1,11.4,21.3"/>
		<path class="st3" d="M12.4,22.4c0.1,0.2,0.3,0.4,0.5,0.5c0.1,0.1,0.2,0.1,0.3,0c0.1-0.1,0.1-0.2,0-0.3c-0.2-0.1-0.3-0.3-0.4-0.4
			C12.6,22,12.2,22.2,12.4,22.4"/>
		<path class="st3" d="M13.2,23.4c0.1,0.2,0.3,0.4,0.4,0.5c0.1,0.2,0.5,0,0.3-0.2c-0.1-0.2-0.3-0.4-0.4-0.5
			C13.4,23,13,23.2,13.2,23.4"/>
		<path class="st3" d="M14,24.6c0.1,0.2,0.2,0.4,0.3,0.6c0.1,0.2,0.5,0,0.3-0.2c-0.1-0.2-0.2-0.4-0.3-0.6
			C14.3,24.2,13.9,24.4,14,24.6"/>
		<path class="st3" d="M14.9,25.9c0,0.1,0.1,0.2,0.1,0.3c0,0.1,0.2,0.1,0.3,0.1c0.1-0.1,0.1-0.2,0.1-0.3c0-0.1-0.1-0.2-0.1-0.3
			c0-0.1-0.2-0.1-0.3-0.1C14.8,25.6,14.8,25.8,14.9,25.9"/>
		<path class="st3" d="M10.5,35.2c0.2,0.1,0.4,0.1,0.6,0.1c0.3-0.1,0.1-0.4-0.1-0.4c-0.1,0-0.2,0-0.3-0.1
			C10.5,34.7,10.3,35,10.5,35.2"/>
		<path class="st3" d="M11.6,35.3c0.2,0,0.3,0,0.5-0.1c0.1,0,0.2-0.1,0.1-0.2c0-0.1-0.1-0.2-0.2-0.1c-0.1,0.1-0.3,0.1-0.4,0.1
			C11.3,34.9,11.3,35.3,11.6,35.3"/>
		<path class="st3" d="M12.8,35c0.1-0.1,0.2-0.2,0.4-0.2c0.2-0.1,0-0.5-0.2-0.3c-0.1,0.1-0.2,0.2-0.4,0.2
			C12.3,34.8,12.6,35.2,12.8,35"/>
		<path class="st3" d="M13.9,34.5c0.1-0.1,0.2-0.1,0.3-0.2c0.2-0.1,0-0.5-0.2-0.3c-0.1,0.1-0.2,0.1-0.3,0.2
			C13.4,34.3,13.6,34.7,13.9,34.5"/>
		<path class="st3" d="M14.8,33.9c0.1-0.1,0.3-0.2,0.4-0.2c0.2-0.1,0-0.5-0.2-0.3c-0.1,0.1-0.3,0.2-0.4,0.2
			C14.4,33.7,14.6,34,14.8,33.9"/>
		<path class="st3" d="M15.7,33.4c0.1-0.1,0.3-0.2,0.4-0.3c0.2-0.2-0.1-0.5-0.3-0.3c-0.1,0.1-0.2,0.1-0.3,0.2
			C15.3,33.2,15.5,33.5,15.7,33.4"/>
		<path class="st3" d="M16.4,33c0.1-0.1,0.1-0.1,0.2-0.2c0.2-0.1,0-0.5-0.2-0.3c-0.1,0.1-0.1,0.1-0.2,0.2C16,32.8,16.2,33.2,16.4,33
			"/>
		<path class="st3" d="M32.1,23.7c0-0.1,0.1-0.2,0.1-0.4c0-0.1,0-0.2-0.1-0.3c-0.1-0.1-0.2,0-0.3,0.1c-0.1,0.1-0.1,0.3-0.1,0.5
			c0,0.1,0,0.2,0.1,0.2C31.9,23.8,32.1,23.8,32.1,23.7"/>
		<path class="st3" d="M32.5,23c0.1-0.2,0.2-0.3,0.3-0.4c0.2-0.2-0.1-0.5-0.3-0.3c-0.1,0.1-0.3,0.3-0.4,0.5C32,23,32.3,23.2,32.5,23
			"/>
		<path class="st3" d="M33.3,21.9c0.1-0.1,0.2-0.2,0.3-0.3c0.1-0.1,0.1-0.2,0.1-0.3c0-0.1-0.2-0.1-0.3-0.1c-0.2,0.1-0.3,0.3-0.5,0.5
			C32.8,21.9,33.1,22.1,33.3,21.9"/>
		<path class="st3" d="M34.1,20.9c0.1-0.2,0.2-0.3,0.3-0.4c0.1-0.1,0.1-0.2,0-0.3c-0.1-0.1-0.2-0.1-0.3,0c-0.2,0.1-0.3,0.3-0.4,0.5
			c0,0.1,0,0.2,0.1,0.3C33.9,21.1,34,21,34.1,20.9"/>
		<path class="st3" d="M34.8,19.8c0.1-0.2,0.2-0.3,0.3-0.4c0.2-0.2-0.1-0.5-0.3-0.3c-0.1,0.1-0.3,0.3-0.4,0.5
			C34.4,19.9,34.7,20.1,34.8,19.8"/>
		<path class="st3" d="M35.5,18.9c0.1-0.1,0.1-0.3,0.2-0.4c0.2-0.2-0.1-0.5-0.3-0.3c-0.2,0.2-0.3,0.3-0.4,0.6
			C35.1,19,35.5,19.1,35.5,18.9"/>
		<path class="st3" d="M36.2,17.9c0,0,0-0.1,0-0.1c0.2-0.2-0.1-0.5-0.3-0.3c-0.1,0.1-0.1,0.2-0.1,0.4C35.8,18.1,36.2,18.1,36.2,17.9
			"/>
		<path class="st11" d="M12.6,35.9c-0.1,0.1-0.2,0.1-0.3,0.2c-0.1,0.1-0.1,0.2-0.1,0.3c0,0.1,0.2,0.1,0.3,0.1
			c0.1-0.1,0.2-0.1,0.3-0.2c0.1-0.1,0.1-0.2,0.1-0.3C12.8,35.9,12.6,35.8,12.6,35.9"/>
		<path class="st12" d="M12.6,35.9l-0.1-0.1c-0.1,0.1-0.2,0.1-0.3,0.2l0,0c-0.1,0.1-0.1,0.2-0.1,0.3c0,0.1,0,0.1,0,0.2
			c0,0.1,0.1,0.1,0.1,0.1c0,0,0.1,0,0.2,0c0.1,0,0.1,0,0.2-0.1c0.1-0.1,0.2-0.1,0.3-0.2h0c0.1-0.1,0.1-0.2,0.1-0.3
			c0-0.1,0-0.1,0-0.2v0c0-0.1-0.1-0.1-0.1-0.1c0,0-0.1,0-0.2,0c-0.1,0-0.1,0-0.2,0.1h0L12.6,35.9l0.1,0.1l0,0l0,0l0,0l0,0l0,0l0,0
			l0,0l0,0l0,0l0,0c0,0,0,0,0,0.1c-0.1,0.1-0.2,0.1-0.3,0.2l0,0l0,0l0,0l0,0l0,0l0,0l0,0l0,0v0l0,0c0,0,0,0,0-0.1l0,0
			c0.1-0.1,0.2-0.1,0.3-0.2h0L12.6,35.9z"/>
		<path class="st11" d="M11.6,36.8c-0.1,0.1-0.2,0.2-0.3,0.3c-0.2,0.1,0,0.5,0.2,0.3c0.2-0.1,0.3-0.3,0.4-0.5
			C12,36.8,11.7,36.6,11.6,36.8"/>
		<path class="st12" d="M11.6,36.8l-0.1-0.1c-0.1,0.1-0.1,0.2-0.3,0.3c-0.1,0.1-0.2,0.2-0.2,0.3c0,0.1,0,0.2,0.1,0.2
			c0.1,0.1,0.1,0.1,0.2,0.1c0.1,0,0.1,0,0.2,0c0.2-0.1,0.4-0.3,0.5-0.5c0,0,0-0.1,0-0.2c0-0.1,0-0.2-0.1-0.2
			c-0.1-0.1-0.1-0.1-0.2-0.1c-0.1,0-0.2,0.1-0.3,0.2L11.6,36.8l0.1,0.1c0,0,0,0,0,0l0,0l0,0l0,0c-0.1,0.2-0.2,0.3-0.4,0.4l0,0l0,0
			l0,0c0,0,0,0,0,0c0.2-0.1,0.3-0.2,0.4-0.4L11.6,36.8z"/>
		<path class="st11" d="M10.7,38.3c-0.1,0.2-0.1,0.3-0.2,0.5c0,0.1,0,0.2,0.1,0.2c0.1,0,0.2,0,0.2-0.1c0.1-0.2,0.1-0.3,0.2-0.5
			c0-0.1,0-0.2-0.1-0.2C10.8,38.2,10.7,38.2,10.7,38.3"/>
		<path class="st12" d="M10.7,38.3l-0.1,0c-0.1,0.2-0.1,0.3-0.2,0.5c0,0,0,0.1,0,0.1c0,0.1,0,0.1,0.1,0.2c0,0.1,0.1,0.1,0.2,0.1h0
			c0,0,0.1,0,0.1,0c0.1,0,0.1,0,0.2-0.1c0.1,0,0.1-0.1,0.1-0.2l0,0l0,0c0.1-0.2,0.1-0.3,0.2-0.5c0,0,0-0.1,0-0.1
			c0-0.1,0-0.1-0.1-0.2c0-0.1-0.1-0.1-0.2-0.1l0,0c0,0-0.1,0-0.1,0c-0.1,0-0.1,0-0.2,0.1c-0.1,0-0.1,0.1-0.1,0.2l0,0L10.7,38.3
			l0.1,0l0,0l0,0l0,0h0l0,0l0,0l0,0v0c-0.1,0.2-0.1,0.3-0.2,0.5l0,0l0,0l0,0l0,0l0,0l0,0l0,0l0,0c0.1-0.2,0.1-0.3,0.2-0.5h0
			L10.7,38.3z"/>
		<path class="st11" d="M10.4,40.1c0,0.3,0,0.6,0.1,0.9c0.1,0.2,0.4,0.1,0.4-0.1c-0.1-0.3-0.1-0.5-0.1-0.8
			C10.8,39.8,10.4,39.8,10.4,40.1"/>
		<path class="st12" d="M10.4,40.1l-0.1,0c0,0.1,0,0.2,0,0.2c0,0.2,0,0.5,0.1,0.7c0,0.1,0.1,0.1,0.1,0.2c0.1,0,0.1,0.1,0.2,0.1
			c0.1,0,0.2,0,0.2-0.1C11,41.1,11,41,11,40.9c0,0,0-0.1,0-0.1c0-0.2-0.1-0.4-0.1-0.5c0-0.1,0-0.1,0-0.2l0,0c0-0.1,0-0.2-0.1-0.2
			c-0.1-0.1-0.1-0.1-0.2-0.1c-0.1,0-0.2,0-0.2,0.1c-0.1,0.1-0.1,0.1-0.1,0.2L10.4,40.1l0.1,0c0,0,0,0,0,0l0,0l0,0l0,0l0,0
			c0,0.1,0,0.1,0,0.2c0,0.2,0,0.4,0.1,0.6l0,0l0,0l0,0l0,0l0,0c-0.1-0.2-0.1-0.4-0.1-0.6c0-0.1,0-0.1,0-0.2L10.4,40.1z"/>
		<path class="st11" d="M13.2,36.8c-0.1,0.1-0.2,0.2-0.3,0.3c-0.2,0.2,0.1,0.4,0.3,0.3c0.1-0.1,0.2-0.2,0.3-0.3
			C13.6,36.9,13.3,36.7,13.2,36.8"/>
		<path class="st12" d="M13.2,36.8L13.2,36.8c-0.2,0-0.3,0.1-0.4,0.2h0c-0.1,0.1-0.1,0.1-0.1,0.2c0,0.1,0,0.2,0.1,0.2
			c0.1,0.1,0.1,0.1,0.2,0.1c0.1,0,0.2,0,0.2-0.1c0.1-0.1,0.2-0.2,0.3-0.3c0.1-0.1,0.1-0.1,0.1-0.2c0-0.1,0-0.2-0.1-0.2
			c-0.1-0.1-0.1-0.1-0.2-0.1C13.2,36.6,13.1,36.7,13.2,36.8L13.2,36.8L13.2,36.8l0.1,0.1l0,0l0,0l0,0l0,0l0,0
			c-0.1,0.1-0.2,0.2-0.3,0.3l0,0l0,0l0,0l0,0l0,0l0,0l0,0C13.1,37.1,13.2,37,13.2,36.8L13.2,36.8z"/>
		<path class="st11" d="M12.1,38.3c0,0.2-0.1,0.3-0.1,0.5c0,0.1,0,0.2,0.1,0.3c0.1,0,0.2,0,0.3-0.1c0.1-0.2,0.1-0.4,0.2-0.6
			c0-0.1,0-0.2-0.1-0.2C12.3,38.1,12.2,38.2,12.1,38.3"/>
		<path class="st12" d="M12.1,38.3l-0.1,0c0,0.2-0.1,0.3-0.1,0.5v0c0,0,0,0.1,0,0.2c0,0.1,0.1,0.2,0.2,0.3c0.1,0,0.1,0,0.2,0
			c0.1,0,0.1,0,0.2,0c0.1,0,0.1-0.1,0.1-0.1c0.1-0.2,0.1-0.4,0.2-0.6h0l0-0.1c0-0.1,0-0.1-0.1-0.2c0-0.1-0.1-0.1-0.2-0.1
			c0,0-0.1,0-0.1,0c-0.1,0-0.1,0-0.2,0.1c-0.1,0-0.1,0.1-0.1,0.2L12.1,38.3l0.1,0l0,0l0,0l0,0l0,0l0,0l0,0c0,0.2-0.1,0.4-0.2,0.5
			l0,0l0,0l0,0l0,0l0,0l0,0l0,0c0,0,0,0,0,0l0,0c0.1-0.2,0.1-0.3,0.1-0.5L12.1,38.3z"/>
		<path class="st11" d="M14,38c0,0.2-0.1,0.3-0.1,0.5c-0.1,0.2,0.3,0.3,0.4,0.1c0-0.2,0.1-0.3,0.1-0.5C14.5,37.9,14.1,37.8,14,38"/>
		<path class="st12" d="M14,38l-0.1,0c0,0.2-0.1,0.3-0.1,0.5l0,0l0,0c0,0,0,0.1,0,0.1c0,0.1,0,0.2,0.1,0.2c0.1,0.1,0.1,0.1,0.2,0.1
			c0.1,0,0.1,0,0.2-0.1c0.1,0,0.1-0.1,0.1-0.2c0-0.2,0.1-0.3,0.1-0.5c0,0,0-0.1,0-0.1c0-0.1,0-0.2-0.1-0.2c-0.1-0.1-0.1-0.1-0.2-0.1
			c-0.1,0-0.1,0-0.2,0.1c-0.1,0-0.1,0.1-0.1,0.2L14,38l0.1,0l0,0l0,0l0,0l0,0l0,0c0,0.2-0.1,0.3-0.1,0.5l0,0l0,0l0,0l0,0l0,0
			c0-0.2,0.1-0.3,0.1-0.5L14,38z"/>
		<path class="st11" d="M13.6,39.5v0.6c0,0.2,0.4,0.2,0.4,0v-0.6C14,39.2,13.6,39.2,13.6,39.5"/>
		<path class="st12" d="M13.6,39.5h-0.1v0.6c0,0.1,0,0.2,0.1,0.2c0.1,0.1,0.1,0.1,0.2,0.1c0.1,0,0.2,0,0.2-0.1
			c0.1-0.1,0.1-0.1,0.1-0.2v-0.6c0-0.1,0-0.2-0.1-0.2c-0.1-0.1-0.1-0.1-0.2-0.1c-0.1,0-0.2,0-0.2,0.1c-0.1,0.1-0.1,0.1-0.1,0.2H13.6
			h0.1c0,0,0,0,0,0l0,0l0,0c0,0,0,0,0,0v0.6c0,0,0,0,0,0l0,0l0,0c0,0,0,0,0,0v-0.6H13.6z"/>
		<path class="st11" d="M15.5,38.6c-0.2,0.2-0.2,0.4-0.2,0.6c0.1,0.2,0.4,0.1,0.4-0.1c0-0.1,0-0.2,0.1-0.3
			C15.9,38.7,15.7,38.5,15.5,38.6"/>
		<path class="st12" d="M15.5,38.6L15.5,38.6c-0.2,0.1-0.3,0.3-0.3,0.5c0,0.1,0,0.1,0,0.2c0,0.1,0.1,0.1,0.1,0.2
			c0.1,0,0.1,0.1,0.2,0.1c0.1,0,0.2,0,0.2-0.1c0.1-0.1,0.1-0.1,0.1-0.2c0,0,0-0.1,0-0.1l0,0c0,0,0-0.1,0-0.1
			c0.1-0.1,0.1-0.1,0.1-0.2c0-0.1,0-0.2-0.1-0.2c-0.1-0.1-0.1-0.1-0.2-0.1C15.5,38.4,15.4,38.5,15.5,38.6L15.5,38.6L15.5,38.6
			l0.1,0.1l0,0l0,0l0,0c-0.1,0.1-0.1,0.2-0.1,0.3c0,0,0,0.1,0,0.1l0,0l0,0l0,0l0,0l0,0c0,0,0-0.1,0-0.1C15.4,39,15.5,38.8,15.5,38.6
			L15.5,38.6z"/>
		<path class="st11" d="M18,38.4c-0.1,0.1-0.2,0.2-0.3,0.2c-0.1,0.1-0.1,0.2-0.1,0.3c0,0.1,0.2,0.1,0.3,0.1c0.1-0.1,0.2-0.2,0.3-0.2
			c0.1-0.1,0.1-0.2,0.1-0.3C18.2,38.3,18.1,38.3,18,38.4"/>
		<path class="st12" d="M18,38.4L18,38.2c-0.1,0.1-0.2,0.2-0.3,0.2h0c-0.1,0.1-0.1,0.2-0.1,0.3c0,0.1,0,0.1,0,0.2l0,0
			c0.1,0.1,0.2,0.2,0.3,0.2c0.1,0,0.1,0,0.2-0.1c0.1-0.1,0.2-0.2,0.3-0.2v0c0.1-0.1,0.1-0.2,0.1-0.3c0-0.1,0-0.1,0-0.2l0,0l0,0
			c-0.1-0.1-0.2-0.2-0.3-0.2c-0.1,0-0.1,0-0.2,0.1l0,0L18,38.4l0.1,0.1v0v0v0l0,0l0.1,0v0l0,0c0,0,0,0,0,0.1l0,0l0,0
			c-0.1,0.1-0.2,0.2-0.3,0.2l0,0l-0.1,0l0,0c0,0,0,0,0-0.1l0,0c0.1-0.1,0.2-0.2,0.3-0.2l0,0L18,38.4z"/>
		<path class="st11" d="M17,39.3c-0.2,0.2-0.3,0.4-0.2,0.7c0,0.2,0.4,0.2,0.4,0c0-0.1,0-0.3,0.1-0.4C17.4,39.4,17.1,39.1,17,39.3"/>
		<path class="st12" d="M17,39.3l-0.1-0.1c-0.2,0.2-0.3,0.4-0.3,0.7l0,0.1c0,0.1,0.1,0.2,0.1,0.2c0.1,0.1,0.1,0.1,0.2,0.1
			c0.1,0,0.1,0,0.2-0.1c0.1-0.1,0.1-0.1,0.1-0.2l0,0l0,0l0,0l0,0c0-0.1,0-0.2,0.1-0.3l0,0c0.1-0.1,0.1-0.1,0.1-0.2
			c0-0.1,0-0.2-0.1-0.2c-0.1-0.1-0.1-0.1-0.2-0.1c-0.1,0-0.2,0-0.2,0.1L17,39.3l0.1,0.1l0,0l0,0l0,0l0,0l0,0
			C17,39.6,17,39.7,17,39.9l0,0h0l0,0l0,0l0,0l0,0c0,0,0,0,0,0l0,0c0-0.2,0.1-0.4,0.2-0.5L17,39.3z"/>
		<path class="st11" d="M18.5,40.4c0.1-0.2,0.2-0.4,0.3-0.6c0.1-0.2-0.2-0.4-0.3-0.2c-0.1,0.2-0.2,0.4-0.3,0.6
			C18,40.4,18.4,40.6,18.5,40.4"/>
		<path class="st12" d="M18.5,40.4l0.1,0.1c0.1-0.2,0.2-0.4,0.3-0.6c0,0,0-0.1,0-0.2c0-0.1,0-0.2-0.1-0.2c-0.1-0.1-0.1-0.1-0.2-0.1
			c-0.1,0-0.2,0.1-0.3,0.2h0c-0.1,0.2-0.2,0.4-0.3,0.6c0,0,0,0.1,0,0.2c0,0.1,0,0.2,0.1,0.2c0.1,0.1,0.1,0.1,0.2,0.1
			c0.1,0,0.2-0.1,0.3-0.2L18.5,40.4l-0.1-0.1c0,0,0,0,0,0l0,0l0,0l0,0c0.1-0.2,0.2-0.4,0.3-0.6c0,0,0,0,0,0l0,0l0,0l0,0
			c-0.1,0.2-0.2,0.4-0.3,0.6L18.5,40.4z"/>
		<path class="st11" d="M19.6,39c0.1-0.1,0.3-0.2,0.4-0.3c0.1-0.1,0.1-0.2,0-0.3c-0.1-0.1-0.2-0.1-0.3,0c-0.1,0.1-0.3,0.2-0.4,0.3
			c-0.1,0.1-0.1,0.2,0,0.3C19.4,39,19.5,39,19.6,39"/>
		<path class="st12" d="M19.6,39l0.1,0.1c0.1-0.1,0.3-0.2,0.4-0.3l0,0l0,0c0.1-0.1,0.1-0.2,0.1-0.2c0-0.1,0-0.2-0.1-0.2l0,0l0,0
			c-0.1-0.1-0.1-0.1-0.2-0.1c-0.1,0-0.2,0-0.2,0.1c-0.1,0.1-0.3,0.2-0.4,0.3c-0.1,0.1-0.1,0.2-0.1,0.2c0,0.1,0,0.2,0.1,0.2
			c0.1,0.1,0.1,0.1,0.2,0.1c0.1,0,0.2,0,0.2-0.1L19.6,39l-0.1-0.1l-0.1,0l0,0l0,0l0,0l0,0h0c0.1-0.1,0.3-0.2,0.4-0.3l0.1,0l0,0v0
			l0,0l0,0h0c-0.1,0.1-0.3,0.2-0.4,0.3L19.6,39z"/>
		<path class="st11" d="M20.8,38.2c0.2-0.1,0.4-0.1,0.6-0.2c0.2-0.1,0.1-0.4-0.1-0.4c-0.2,0.1-0.4,0.1-0.6,0.2
			C20.5,37.9,20.6,38.2,20.8,38.2"/>
		<path class="st12" d="M20.8,38.2l0,0.1c0.2-0.1,0.4-0.1,0.6-0.2l0,0c0.1,0,0.1-0.1,0.2-0.1c0-0.1,0.1-0.1,0.1-0.2
			c0-0.1,0-0.2-0.1-0.2c-0.1-0.1-0.1-0.1-0.2-0.1c0,0-0.1,0-0.1,0c-0.2,0.1-0.4,0.1-0.6,0.2c-0.1,0-0.1,0.1-0.2,0.1
			c0,0.1-0.1,0.1-0.1,0.2c0,0.1,0,0.2,0.1,0.2c0.1,0.1,0.1,0.1,0.2,0.1c0,0,0.1,0,0.1,0L20.8,38.2l0-0.1l0,0l0,0l0,0l0,0l0,0
			c0.2-0.1,0.4-0.1,0.6-0.2l0,0l0,0l0,0l0,0l0,0h0C21.2,37.9,21,38,20.8,38L20.8,38.2z"/>
		<path class="st11" d="M22.8,37.8c0.2-0.1,0.3-0.1,0.5,0c0.1,0,0.2,0,0.2-0.1c0-0.1,0-0.2-0.1-0.2c-0.3-0.1-0.5-0.1-0.8,0
			c-0.1,0-0.1,0.2-0.1,0.3C22.6,37.8,22.7,37.8,22.8,37.8"/>
		<path class="st12" d="M22.8,37.8l0.1,0.1c0.1,0,0.1,0,0.2,0c0.1,0,0.2,0,0.2,0c0,0,0.1,0,0.1,0c0.1,0,0.1,0,0.2-0.1
			c0.1,0,0.1-0.1,0.1-0.2v0c0,0,0-0.1,0-0.1c0-0.1,0-0.1-0.1-0.2c0-0.1-0.1-0.1-0.2-0.1c-0.1-0.1-0.3-0.1-0.4-0.1
			c-0.2,0-0.3,0-0.5,0.1c-0.1,0-0.1,0.1-0.1,0.1c0,0.1,0,0.1,0,0.2c0,0.1,0,0.1,0,0.2c0.1,0.1,0.2,0.2,0.3,0.2c0.1,0,0.1,0,0.2,0
			L22.8,37.8l-0.1-0.1l0,0c0,0,0,0,0,0h0l0,0l0,0l0,0l0,0l0,0l0,0l0,0l0,0c0.1-0.1,0.3-0.1,0.4-0.1c0.1,0,0.2,0,0.3,0.1l0,0l0,0l0,0
			h0l0,0l0,0l0,0c-0.1,0-0.2-0.1-0.3-0.1c-0.1,0-0.2,0-0.3,0.1L22.8,37.8z"/>
		<path class="st11" d="M24.5,37.9c0.2,0,0.5,0.1,0.7,0.2c0.2,0.1,0.4-0.2,0.2-0.3c-0.3-0.2-0.6-0.3-0.9-0.3
			C24.3,37.5,24.3,37.9,24.5,37.9"/>
		<path class="st12" d="M24.5,37.9l0,0.1c0.2,0,0.4,0.1,0.6,0.2c0.1,0,0.1,0.1,0.2,0.1c0.1,0,0.2,0,0.2-0.1c0.1-0.1,0.1-0.1,0.1-0.2
			c0-0.1,0-0.2-0.1-0.3c-0.3-0.2-0.6-0.3-0.9-0.3l0,0c-0.1,0-0.2,0-0.2,0.1c-0.1,0.1-0.1,0.1-0.1,0.2c0,0.1,0,0.2,0.1,0.2
			c0.1,0.1,0.1,0.1,0.2,0.1L24.5,37.9l0-0.1c0,0,0,0,0,0l0,0l0,0l0,0l0,0c0.3,0,0.6,0.1,0.8,0.3l0,0l0,0.1l0,0l0,0
			c-0.2-0.1-0.5-0.2-0.7-0.3L24.5,37.9z"/>
		<path class="st11" d="M26.3,38.5c0.2,0.1,0.4,0.2,0.6,0.3c0.1,0,0.2,0,0.3-0.1c0-0.1,0-0.2-0.1-0.3c-0.2-0.1-0.4-0.2-0.6-0.3
			c-0.1,0-0.2,0-0.3,0.1C26.1,38.4,26.2,38.5,26.3,38.5"/>
		<path class="st12" d="M26.3,38.5l-0.1,0.1c0.2,0.1,0.4,0.2,0.6,0.3c0,0,0.1,0,0.2,0c0.1,0,0.2-0.1,0.3-0.2v0c0-0.1,0-0.1,0-0.2
			c0-0.1,0-0.1,0-0.2c0-0.1-0.1-0.1-0.1-0.1h0c-0.2-0.1-0.4-0.2-0.6-0.3l0,0c0,0-0.1,0-0.2,0c-0.1,0-0.2,0.1-0.3,0.2
			c0,0.1,0,0.1,0,0.2c0,0.1,0,0.1,0,0.2c0,0.1,0.1,0.1,0.1,0.1L26.3,38.5l0.1-0.1l0,0l0,0l0,0c0,0,0,0,0,0l0,0h0
			c0.2,0.1,0.4,0.2,0.6,0.3h0l0,0l0,0l0,0c0,0,0,0,0,0l0,0c-0.2-0.1-0.4-0.2-0.6-0.3v0L26.3,38.5z"/>
		<path class="st11" d="M27.5,39.3c0.1,0.2,0.3,0.4,0.4,0.6c0.1,0.2,0.5,0,0.3-0.2c-0.1-0.2-0.3-0.4-0.4-0.6
			C27.7,38.9,27.4,39.1,27.5,39.3"/>
		<path class="st12" d="M27.5,39.3l-0.1,0.1c0.1,0.2,0.3,0.4,0.4,0.6v0c0.1,0.1,0.2,0.2,0.3,0.2c0.1,0,0.2,0,0.2-0.1
			c0.1-0.1,0.1-0.1,0.1-0.2c0-0.1,0-0.1-0.1-0.2c-0.1-0.2-0.3-0.4-0.4-0.6c-0.1-0.1-0.2-0.2-0.3-0.2c-0.1,0-0.2,0-0.2,0.1
			c-0.1,0.1-0.1,0.1-0.1,0.2c0,0.1,0,0.1,0.1,0.2L27.5,39.3l0.1-0.1l0,0l0,0l0,0l0,0c0.1,0.2,0.3,0.4,0.4,0.6l0,0l0,0l0,0l0,0l0,0
			l0,0c-0.1-0.2-0.3-0.4-0.4-0.6L27.5,39.3z"/>
		<path class="st11" d="M22.8,36.8c0.1-0.1,0.3-0.1,0.4-0.2c0.1,0,0.2-0.1,0.2-0.2c0-0.1-0.1-0.2-0.2-0.2c-0.2,0-0.4,0.1-0.6,0.2
			C22.4,36.6,22.6,36.9,22.8,36.8"/>
		<path class="st12" d="M22.8,36.8l0.1,0.1c0.1-0.1,0.2-0.1,0.4-0.1c0.1,0,0.1,0,0.2-0.1c0.1-0.1,0.1-0.1,0.1-0.2
			c0-0.1,0-0.2-0.1-0.2c0-0.1-0.1-0.1-0.2-0.1l0,0l0,0c-0.2,0-0.5,0.1-0.7,0.2c-0.1,0.1-0.1,0.2-0.1,0.3c0,0.1,0,0.2,0.1,0.2
			c0.1,0.1,0.1,0.1,0.2,0.1c0.1,0,0.1,0,0.2-0.1L22.8,36.8l-0.1-0.1l0,0l0,0l0-0.1l0,0c0.2-0.1,0.3-0.2,0.6-0.2l0,0l0,0v0h0l0,0v0
			l0,0l0,0l0,0l0,0c0,0,0,0-0.1,0c-0.2,0-0.3,0.1-0.5,0.2L22.8,36.8z"/>
		<path class="st11" d="M24.6,36.6c0.2,0,0.2-0.4,0-0.4C24.4,36.3,24.4,36.6,24.6,36.6"/>
		<path class="st12" d="M24.6,36.6v0.1c0.1,0,0.2,0,0.2-0.1c0.1-0.1,0.1-0.1,0.1-0.2c0-0.1,0-0.2-0.1-0.2c-0.1-0.1-0.1-0.1-0.2-0.1
			c-0.1,0-0.2,0-0.2,0.1c-0.1,0.1-0.1,0.1-0.1,0.2c0,0.1,0,0.2,0.1,0.2c0.1,0.1,0.1,0.1,0.2,0.1V36.6v-0.1c0,0,0,0,0,0l0,0l0,0
			c0,0,0,0,0,0c0,0,0,0,0,0l0,0l0,0c0,0,0,0,0,0V36.6z"/>
		<path class="st11" d="M25.4,36.8c0.2,0.1,0.3,0.1,0.5,0.2c0.1,0,0.2,0,0.3-0.1c0-0.1,0-0.2-0.1-0.3c-0.2-0.1-0.3-0.1-0.5-0.2
			c-0.1,0-0.2,0-0.3,0.1C25.3,36.6,25.3,36.8,25.4,36.8"/>
		<path class="st12" d="M25.4,36.8l-0.1,0.1c0.2,0.1,0.3,0.1,0.5,0.2c0,0,0.1,0,0.2,0c0.1,0,0.2-0.1,0.3-0.2c0-0.1,0-0.1,0-0.2
			c0-0.1,0-0.1,0-0.2c0-0.1-0.1-0.1-0.1-0.1c-0.2-0.1-0.3-0.1-0.5-0.2c0,0-0.1,0-0.2,0c-0.1,0-0.2,0.1-0.3,0.2v0c0,0.1,0,0.1,0,0.2
			c0,0.1,0,0.1,0,0.2c0,0.1,0.1,0.1,0.1,0.1h0L25.4,36.8l0.1-0.1l0,0l0,0l0,0l0,0l0,0l0,0l0,0c0,0,0,0,0,0l0,0l0,0
			c0.1,0.1,0.3,0.1,0.5,0.2l0,0l0,0l0,0l0,0l0,0l0,0l0,0c0,0,0,0,0,0l0,0c-0.2-0.1-0.3-0.1-0.5-0.2h0L25.4,36.8z"/>
		<path class="st11" d="M26.9,37.4c0.2,0,0.4,0.1,0.6,0.1c0.2,0,0.3-0.3,0.1-0.4c-0.2,0-0.4-0.1-0.6-0.1
			C26.7,37,26.6,37.4,26.9,37.4"/>
		<path class="st12" d="M26.9,37.4l0,0.1c0.2,0,0.4,0.1,0.6,0.1l0.1,0c0.1,0,0.2,0,0.2-0.1c0.1-0.1,0.1-0.1,0.1-0.2
			c0-0.1,0-0.1-0.1-0.2c0-0.1-0.1-0.1-0.2-0.1c-0.2,0-0.4-0.1-0.6-0.1l-0.1,0c-0.1,0-0.2,0-0.2,0.1c-0.1,0.1-0.1,0.1-0.1,0.2
			c0,0.1,0,0.1,0.1,0.2c0,0.1,0.1,0.1,0.2,0.1L26.9,37.4l0-0.1l0,0l0,0l0-0.1l0,0l0,0c0.2,0,0.4,0.1,0.6,0.1l0,0l0,0l0,0.1l0,0l0,0
			c-0.2,0-0.4-0.1-0.6-0.1L26.9,37.4z"/>
		<path class="st11" d="M28.3,38.1c0.2,0.1,0.3,0.3,0.5,0.4c0.1,0.1,0.2,0.1,0.3,0c0.1-0.1,0.1-0.2,0-0.3c-0.2-0.1-0.3-0.3-0.5-0.4
			c-0.1-0.1-0.2-0.1-0.3,0C28.3,37.9,28.3,38,28.3,38.1"/>
		<path class="st12" d="M28.3,38.1l-0.1,0.1c0.2,0.1,0.3,0.3,0.5,0.4c0.1,0.1,0.1,0.1,0.2,0.1c0.1,0,0.2,0,0.2-0.1l0,0
			c0.1-0.1,0.1-0.1,0.1-0.2c0-0.1,0-0.2-0.1-0.2c-0.2-0.1-0.3-0.3-0.5-0.4c-0.1-0.1-0.1-0.1-0.2-0.1c-0.1,0-0.2,0-0.2,0.1h0
			c-0.1,0.1-0.1,0.1-0.1,0.2c0,0.1,0,0.2,0.1,0.2v0L28.3,38.1l0.1-0.1l0,0l0,0l0,0l0,0l0,0l0.1,0v0c0.2,0.1,0.3,0.3,0.5,0.4l0,0l0,0
			l0,0l0,0l-0.1,0c-0.2-0.1-0.3-0.3-0.5-0.4v0L28.3,38.1z"/>
		<path class="st11" d="M29.7,39.2c0.1,0.2,0.2,0.3,0.2,0.5c0.1,0.2,0.4,0,0.3-0.2c-0.1-0.2-0.2-0.3-0.2-0.5
			C29.9,38.8,29.6,39,29.7,39.2"/>
		<path class="st12" d="M29.7,39.2l-0.1,0.1c0.1,0.2,0.2,0.3,0.2,0.5c0.1,0.1,0.2,0.2,0.3,0.2c0.1,0,0.2,0,0.2-0.1
			c0.1-0.1,0.1-0.1,0.1-0.2c0-0.1,0-0.1,0-0.2c-0.1-0.2-0.2-0.3-0.2-0.5c-0.1-0.1-0.2-0.2-0.3-0.2c-0.1,0-0.2,0-0.2,0.1
			c-0.1,0.1-0.1,0.1-0.1,0.2c0,0.1,0,0.1,0,0.2L29.7,39.2l0.1-0.1l0,0l0,0l0,0c0,0,0,0,0,0c0.1,0.2,0.2,0.3,0.2,0.5l0,0l0,0l0,0
			c0,0,0,0,0,0c-0.1-0.2-0.2-0.3-0.2-0.5L29.7,39.2z"/>
		<path class="st11" d="M25.9,35.9c0.2,0,0.3,0,0.5,0.1c0.1,0,0.2,0,0.2-0.1c0-0.1,0-0.2-0.1-0.2c-0.2,0-0.3,0-0.5-0.1
			c-0.1,0-0.2,0-0.2,0.1C25.8,35.8,25.8,35.9,25.9,35.9"/>
		<path class="st12" d="M25.9,35.9l0,0.1c0.2,0,0.3,0,0.5,0.1l0.1,0c0.1,0,0.1,0,0.2-0.1c0.1,0,0.1-0.1,0.1-0.2h0c0,0,0-0.1,0-0.1
			c0-0.1,0-0.1-0.1-0.2c0-0.1-0.1-0.1-0.2-0.1l0,0l0,0c-0.2,0-0.3,0-0.5-0.1l-0.1,0c-0.1,0-0.1,0-0.2,0.1c-0.1,0-0.1,0.1-0.1,0.2v0
			c0,0,0,0.1,0,0.1c0,0.1,0,0.1,0.1,0.2c0,0.1,0.1,0.1,0.2,0.1h0L25.9,35.9l0-0.1l0,0l0,0l0,0l0,0l0,0l0,0l0-0.1l0,0v0l0,0l0,0l0,0
			c0.2,0,0.3,0,0.5,0.1h0l0,0l0,0l0,0l0,0l0,0l0,0l0,0.1l0,0v0l0,0l0,0l0,0c-0.2,0-0.3,0-0.5-0.1h0L25.9,35.9z"/>
		<path class="st11" d="M27.7,36.4c0.1,0.1,0.3,0.2,0.4,0.3c0.2,0.1,0.4-0.2,0.2-0.3c-0.1-0.1-0.3-0.2-0.4-0.3
			C27.7,35.9,27.5,36.2,27.7,36.4"/>
		<path class="st12" d="M27.7,36.4l-0.1,0.1c0.1,0.1,0.3,0.2,0.4,0.3c0.1,0,0.1,0,0.2,0c0.1,0,0.2,0,0.2-0.1
			c0.1-0.1,0.1-0.1,0.1-0.2c0-0.1-0.1-0.2-0.2-0.3c-0.1-0.1-0.3-0.2-0.4-0.3c-0.1,0-0.1,0-0.2,0c-0.1,0-0.2,0-0.2,0.1
			c-0.1,0.1-0.1,0.1-0.1,0.2c0,0.1,0.1,0.2,0.2,0.3L27.7,36.4l0.1-0.1c0,0,0,0,0,0l0,0l0,0l0,0c0.1,0.1,0.3,0.2,0.4,0.3c0,0,0,0,0,0
			l0,0l0,0l0,0c-0.1-0.1-0.3-0.2-0.4-0.3L27.7,36.4z"/>
		<path class="st11" d="M29.6,37.2c0.2,0.2,0.3,0.4,0.6,0.5c0.2,0.1,0.4-0.2,0.2-0.3c-0.2-0.1-0.3-0.3-0.5-0.4
			c-0.1-0.1-0.2-0.1-0.3,0C29.5,37,29.5,37.2,29.6,37.2"/>
		<path class="st12" d="M29.6,37.2l-0.1,0.1c0.2,0.2,0.4,0.4,0.6,0.5c0.1,0,0.1,0,0.2,0c0.1,0,0.2,0,0.2-0.1
			c0.1-0.1,0.1-0.1,0.1-0.2c0-0.1-0.1-0.2-0.2-0.3c-0.2-0.1-0.3-0.2-0.4-0.4c-0.1-0.1-0.2-0.1-0.2-0.1c-0.1,0-0.2,0-0.2,0.1
			c-0.1,0.1-0.1,0.1-0.1,0.2c0,0.1,0,0.2,0.1,0.2L29.6,37.2l0.1-0.1l0-0.1l0,0l0,0l0,0l0,0l0,0l0,0l0,0l0,0l0,0l0,0l0,0
			c0.1,0.2,0.3,0.3,0.5,0.5c0,0,0,0,0,0l0,0l0,0l0,0c-0.2-0.1-0.4-0.3-0.5-0.4L29.6,37.2z"/>
		<path class="st11" d="M31,38.6c0.1,0.2,0.3,0.4,0.5,0.6c0.2,0.2,0.4-0.1,0.3-0.3c-0.2-0.2-0.3-0.3-0.4-0.5
			C31.2,38.2,30.9,38.4,31,38.6"/>
		<path class="st12" d="M31,38.6l-0.1,0.1c0.1,0.3,0.3,0.5,0.5,0.7c0.1,0.1,0.1,0.1,0.2,0.1c0.1,0,0.2,0,0.2-0.1
			c0.1-0.1,0.1-0.1,0.1-0.2c0-0.1,0-0.2-0.1-0.2c-0.2-0.1-0.3-0.3-0.4-0.5c0-0.1-0.1-0.1-0.1-0.1c0,0-0.1,0-0.2,0
			c-0.1,0-0.2,0-0.2,0.1c-0.1,0.1-0.1,0.1-0.1,0.2c0,0,0,0.1,0,0.1L31,38.6l0.1-0.1l0,0l0,0l0,0l0,0l0,0c0.1,0.2,0.3,0.4,0.5,0.6
			l0,0l0,0l0,0l0,0c-0.2-0.2-0.3-0.4-0.4-0.6L31,38.6z"/>
		<path class="st11" d="M28.1,35.4c0.1,0,0.2,0,0.3,0c0.1,0,0.2,0,0.3-0.1c0-0.1,0-0.2-0.1-0.3C28.4,35,28.2,35,28,35.1
			c-0.1,0-0.2,0.1-0.1,0.2C27.9,35.4,28,35.4,28.1,35.4"/>
		<path class="st12" d="M28.1,35.4l0,0.1l0.1,0c0.1,0,0.1,0,0.2,0h0c0,0,0.1,0,0.2,0c0.1,0,0.2-0.1,0.3-0.2c0-0.1,0-0.1,0-0.2
			c0-0.1,0-0.1,0-0.2c0-0.1-0.1-0.1-0.1-0.1c-0.1-0.1-0.3-0.1-0.5-0.1c-0.1,0-0.1,0-0.2,0c-0.1,0-0.1,0.1-0.2,0.1
			c0,0.1-0.1,0.1-0.1,0.2c0,0,0,0.1,0,0.1c0,0.1,0.1,0.1,0.1,0.2c0.1,0,0.1,0.1,0.2,0.1l0.1,0h0L28.1,35.4l0-0.1l0,0l0,0l0,0l0,0
			l0,0l0,0c0.1,0,0.1,0,0.2,0c0.1,0,0.2,0,0.3,0.1l0,0l0,0l0,0l0,0l0,0l0,0l0,0c-0.1,0-0.2-0.1-0.3-0.1c0,0-0.1,0-0.1,0h0L28.1,35.4
			z"/>
		<path class="st11" d="M29.5,35.8c0.1,0,0.1,0,0.2,0.1c0.2,0.2,0.4-0.1,0.3-0.3c-0.1-0.1-0.3-0.2-0.5-0.2c-0.1,0-0.2,0.1-0.2,0.2
			C29.3,35.7,29.4,35.8,29.5,35.8"/>
		<path class="st12" d="M29.5,35.8l0,0.1l0,0l0,0l0,0c0.1,0.1,0.1,0.1,0.2,0.1c0.1,0,0.2,0,0.2-0.1c0.1-0.1,0.1-0.1,0.1-0.2
			c0-0.1,0-0.2-0.1-0.2c-0.1-0.1-0.3-0.2-0.5-0.2c0,0-0.1,0-0.1,0c-0.1,0-0.1,0-0.2,0.1c-0.1,0.1-0.1,0.1-0.1,0.2
			c0,0.1,0,0.2,0.1,0.2c0,0.1,0.1,0.1,0.2,0.1l0,0L29.5,35.8l0-0.1l0,0v0h0l0,0v0v0l0,0h0v0l0,0l0,0l0,0l0,0c0,0,0,0,0.1,0l0,0
			c0.1,0,0.2,0.1,0.3,0.1l0,0l0,0l0,0l0,0c0,0-0.1-0.1-0.1-0.1c0,0-0.1,0-0.1,0l-0.1,0L29.5,35.8z"/>
		<path class="st11" d="M30.8,36.4c0.2,0.2,0.4,0.3,0.6,0.3c0.1,0,0.2-0.1,0.2-0.2c0-0.1-0.1-0.2-0.2-0.2c-0.1,0-0.3,0-0.4-0.1
			C30.9,35.9,30.6,36.2,30.8,36.4"/>
		<path class="st12" d="M30.8,36.4l-0.1,0.1c0.2,0.2,0.4,0.3,0.7,0.3c0,0,0.1,0,0.1,0c0.1,0,0.2,0,0.2-0.1c0.1-0.1,0.1-0.1,0.1-0.2
			c0-0.1,0-0.2-0.1-0.2c-0.1-0.1-0.1-0.1-0.2-0.1l0,0l0,0l0,0c-0.1,0-0.2,0-0.2-0.1c-0.1-0.1-0.1-0.1-0.2-0.1c-0.1,0-0.2,0-0.2,0.1
			c-0.1,0.1-0.1,0.1-0.1,0.2c0,0.1,0,0.2,0.1,0.2L30.8,36.4l0.1-0.1l0,0l0,0l0,0l0,0l0,0c0.1,0.1,0.3,0.2,0.4,0.2l0.1,0h0h0l0,0l0,0
			l0,0l-0.1,0l-0.1,0c-0.2,0-0.4-0.1-0.5-0.2L30.8,36.4z"/>
		<path class="st11" d="M32.4,37.4c0.1,0.1,0.2,0.2,0.3,0.3c0.2,0.2,0.4-0.1,0.3-0.3c-0.1-0.1-0.2-0.2-0.3-0.3
			C32.5,37,32.3,37.3,32.4,37.4"/>
		<path class="st12" d="M32.4,37.4L32.4,37.4c0,0.2,0.1,0.3,0.2,0.3c0.1,0.1,0.1,0.1,0.2,0.1c0.1,0,0.2,0,0.2-0.1
			c0.1-0.1,0.1-0.1,0.1-0.2c0-0.1,0-0.2-0.1-0.2c-0.1-0.1-0.2-0.2-0.3-0.3C32.7,37,32.6,37,32.6,37c-0.1,0-0.2,0-0.2,0.1
			c-0.1,0.1-0.1,0.1-0.1,0.2C32.2,37.4,32.3,37.5,32.4,37.4L32.4,37.4L32.4,37.4l0.1-0.1l0,0l0,0l0,0c0.1,0.1,0.2,0.2,0.3,0.3l0,0
			l0,0l0,0l0,0C32.7,37.5,32.6,37.4,32.4,37.4L32.4,37.4z"/>
		<path class="st11" d="M33.3,38.8c0.1,0.2,0.1,0.4,0.2,0.6c0.1,0.2,0.4,0.1,0.4-0.1c-0.1-0.2-0.1-0.4-0.2-0.6
			C33.6,38.4,33.2,38.5,33.3,38.8"/>
		<path class="st12" d="M33.3,38.8l-0.1,0c0.1,0.2,0.1,0.4,0.2,0.6c0,0.1,0.1,0.1,0.1,0.2c0.1,0,0.1,0.1,0.2,0.1
			c0.1,0,0.2,0,0.2-0.1c0.1,0,0.1-0.1,0.1-0.2c0,0,0-0.1,0-0.1c-0.1-0.2-0.1-0.4-0.2-0.6c0-0.1-0.1-0.1-0.1-0.2
			c-0.1,0-0.1-0.1-0.2-0.1c-0.1,0-0.2,0-0.2,0.1c-0.1,0-0.1,0.1-0.1,0.2c0,0,0,0.1,0,0.1L33.3,38.8l0.1,0l0,0l0,0l0,0l0,0l0,0
			c0.1,0.2,0.1,0.4,0.2,0.6l0,0l0,0l0,0l0,0l0,0c-0.1-0.2-0.1-0.4-0.2-0.6L33.3,38.8z"/>
		<path class="st11" d="M28.5,33.9c0.1,0,0.3,0.1,0.4,0.1c0.1,0,0.2,0,0.2-0.1c0-0.1,0-0.2-0.1-0.2c-0.1,0-0.3-0.1-0.4-0.1
			c-0.1,0-0.2,0-0.2,0.1C28.3,33.8,28.4,33.9,28.5,33.9"/>
		<path class="st12" d="M28.5,33.9l0,0.1c0.1,0,0.3,0.1,0.4,0.1h0c0,0,0.1,0,0.1,0c0.1,0,0.1,0,0.2-0.1c0.1,0,0.1-0.1,0.1-0.2l0,0
			l0,0c0,0,0-0.1,0-0.1c0-0.1-0.1-0.3-0.2-0.3l0,0c-0.1,0-0.3-0.1-0.4-0.1h0c0,0-0.1,0-0.1,0c-0.1,0-0.1,0-0.2,0.1
			c-0.1,0-0.1,0.1-0.1,0.2c0,0,0,0.1,0,0.1c0,0.1,0.1,0.3,0.2,0.3L28.5,33.9l0-0.1c0,0,0,0,0-0.1l0,0l0,0l0,0l0,0l0,0
			c0.1,0,0.3,0.1,0.4,0.1h0c0,0,0,0,0,0.1l0,0v0l0,0l0,0l0,0h0c-0.1,0-0.3-0.1-0.4-0.1L28.5,33.9z"/>
		<path class="st11" d="M29.9,34.4c0.2,0.1,0.3,0.1,0.5,0.2c0.1,0,0.2,0,0.2-0.1c0-0.1,0-0.2-0.1-0.2c-0.2-0.1-0.3-0.1-0.5-0.2
			c-0.1,0-0.2,0-0.2,0.1C29.7,34.3,29.8,34.4,29.9,34.4"/>
		<path class="st12" d="M29.9,34.4l0,0.1c0.2,0.1,0.3,0.1,0.5,0.2c0,0,0.1,0,0.1,0c0.1,0,0.1,0,0.2-0.1c0.1,0,0.1-0.1,0.1-0.2
			c0,0,0-0.1,0-0.1c0-0.1,0-0.1-0.1-0.2c0-0.1-0.1-0.1-0.2-0.1h0C30.4,34.1,30.2,34,30,34c0,0-0.1,0-0.1,0c-0.1,0-0.1,0-0.2,0.1
			c-0.1,0-0.1,0.1-0.1,0.2c0,0,0,0.1,0,0.1c0,0.1,0,0.1,0.1,0.2c0,0.1,0.1,0.1,0.2,0.1L29.9,34.4l0-0.1l0,0l0,0l0,0l0,0l0,0l0,0
			c0.2,0.1,0.3,0.1,0.5,0.2v0l0,0l0,0l0,0l0,0l0,0h0l0,0l0,0c-0.2-0.1-0.3-0.1-0.5-0.2L29.9,34.4z"/>
		<path class="st11" d="M31.5,35.3c0.2,0.1,0.3,0.2,0.5,0.3c0.2,0.1,0.4-0.2,0.2-0.3c-0.2-0.1-0.3-0.2-0.5-0.3
			C31.5,34.8,31.3,35.2,31.5,35.3"/>
		<path class="st12" d="M31.5,35.3l-0.1,0.1c0.2,0.1,0.3,0.2,0.5,0.3c0,0,0.1,0,0.1,0c0.1,0,0.2,0,0.2-0.1c0.1-0.1,0.1-0.1,0.1-0.2
			c0-0.1,0-0.1,0-0.2c0,0-0.1-0.1-0.1-0.1c-0.2-0.1-0.3-0.2-0.5-0.3c0,0-0.1,0-0.1,0c-0.1,0-0.2,0-0.2,0.1c-0.1,0.1-0.1,0.1-0.1,0.2
			c0,0.1,0,0.1,0,0.2c0,0,0.1,0.1,0.1,0.1L31.5,35.3l0.1-0.1l0,0l0,0l0,0l0,0l0,0c0.2,0.1,0.3,0.2,0.5,0.3l0,0l0,0l0,0l0,0l0,0
			c-0.2-0.1-0.3-0.2-0.5-0.3L31.5,35.3z"/>
		<path class="st11" d="M33,36.4c0.2,0.2,0.3,0.3,0.5,0.5c0.2,0.2,0.4-0.1,0.3-0.3c-0.2-0.2-0.3-0.3-0.5-0.5
			C33.1,35.9,32.8,36.2,33,36.4"/>
		<path class="st12" d="M33,36.4L33,36.4c0.1,0.3,0.2,0.4,0.4,0.6c0.1,0.1,0.1,0.1,0.2,0.1c0.1,0,0.2,0,0.2-0.1
			c0.1-0.1,0.1-0.1,0.1-0.2c0-0.1,0-0.2-0.1-0.2c-0.2-0.2-0.3-0.3-0.5-0.5c-0.1-0.1-0.1-0.1-0.2-0.1c-0.1,0-0.2,0-0.2,0.1
			c-0.1,0.1-0.1,0.1-0.1,0.2C32.8,36.3,32.8,36.4,33,36.4L33,36.4L33,36.4l0.1-0.1l0,0l0,0l0,0c0.2,0.2,0.3,0.3,0.5,0.5l0,0l0,0l0,0
			l0,0h0C33.4,36.6,33.2,36.4,33,36.4L33,36.4z"/>
		<path class="st11" d="M34.3,37.9c0.1,0.3,0.2,0.5,0.3,0.8c0.1,0.2,0.4,0,0.3-0.2c-0.1-0.3-0.2-0.5-0.3-0.8
			C34.5,37.5,34.2,37.7,34.3,37.9"/>
		<path class="st12" d="M34.3,37.9L34.2,38c0.1,0.3,0.2,0.5,0.3,0.8c0,0.1,0.1,0.1,0.1,0.1c0,0,0.1,0,0.2,0c0.1,0,0.2,0,0.2-0.1
			c0.1-0.1,0.1-0.1,0.1-0.2c0,0,0-0.1,0-0.1c-0.1-0.3-0.2-0.5-0.3-0.8l0,0l0,0c0-0.1-0.1-0.1-0.1-0.1c0,0-0.1,0-0.2,0
			c-0.1,0-0.2,0-0.2,0.1c-0.1,0.1-0.1,0.1-0.1,0.2c0,0,0,0.1,0,0.1h0L34.3,37.9l0.1-0.1l0,0l0-0.1l0,0l0,0v0l0,0l0,0
			c0.1,0.3,0.2,0.5,0.3,0.8l0,0l0,0.1l0,0l0,0v0l0,0c-0.1-0.3-0.2-0.5-0.3-0.8l0,0L34.3,37.9z"/>
		<path class="st12" d="M35.2,40.2l-0.1,0.1c0.1,0.2,0.2,0.5,0.2,0.7c0,0.1,0,0.2,0.1,0.2c0.1,0.1,0.1,0.1,0.2,0.1
			c0.1,0,0.2,0,0.2-0.1c0.1-0.1,0.1-0.1,0.1-0.2v0v0v0c0-0.4-0.1-0.7-0.3-1.1c-0.1-0.1-0.2-0.2-0.3-0.2c-0.1,0-0.2,0-0.2,0.1
			c-0.1,0.1-0.1,0.1-0.1,0.2c0,0.1,0,0.1,0,0.2L35.2,40.2l0.1-0.1l0,0l0,0l0,0c0,0,0,0,0,0c0.2,0.3,0.3,0.6,0.3,0.9l0.1,0l-0.1,0v0
			l0,0l0,0l0,0c0,0,0,0,0,0c0-0.3-0.1-0.6-0.3-0.9L35.2,40.2z"/>
		<path class="st12" d="M13.1,5.4c0,0,0.1,0.1,0.1,0.1c0.1,0.1,0.2,0,0.2-0.1c0.1-0.1,0-0.2-0.1-0.2c0,0-0.1-0.1-0.1-0.1
			c-0.1-0.1-0.2,0-0.2,0.1C13,5.3,13,5.3,13.1,5.4"/>
		<path class="st12" d="M12.5,4.4c0.1,0,0.1,0.1,0.2,0.1c0.2,0.1,0.4-0.2,0.2-0.3c-0.1,0-0.1-0.1-0.2-0.1C12.5,4,12.4,4.3,12.5,4.4"
			/>
		<path class="st12" d="M13.1,4.7c0.1,0.1,0.2,0.1,0.3,0.2c0.2,0.1,0.3-0.2,0.2-0.3c-0.1-0.1-0.2-0.1-0.3-0.2
			C13.1,4.3,12.9,4.6,13.1,4.7"/>
		<path class="st12" d="M13.2,4.3c0,0,0.1,0.1,0.1,0.1c0.2,0.1,0.3-0.2,0.2-0.3c0,0-0.1-0.1-0.1-0.1C13.2,3.8,13,4.1,13.2,4.3"/>
		<path class="st12" d="M12.8,3c0.1,0.1,0.1,0.2,0.2,0.3c0.1,0.2,0.4,0,0.3-0.2C13.2,3,13.1,2.9,13,2.8C12.9,2.7,12.6,2.8,12.8,3"/>
		<path class="st12" d="M13.3,2.7c0,0.1,0.1,0.1,0.1,0.2c0.1,0.2,0.4,0,0.3-0.2c0-0.1-0.1-0.1-0.1-0.2C13.5,2.4,13.2,2.6,13.3,2.7"
			/>
		<path class="st12" d="M13.4,3.6c0.1,0.1,0.1,0.2,0.2,0.3C13.8,4,14,3.7,13.8,3.6c-0.1-0.1-0.1-0.1-0.2-0.2
			C13.6,3.2,13.3,3.4,13.4,3.6"/>
		<path class="st12" d="M14.1,3.6C14.1,3.7,14.2,3.7,14.1,3.6c0.3,0.3,0.5,0,0.3-0.1c0,0-0.1-0.1-0.1-0.1C14.2,3.2,14,3.5,14.1,3.6"
			/>
		<path class="st12" d="M12.6,3.8c0.1,0.1,0.2,0.1,0.2,0.2C13,4.1,13.2,3.8,13,3.7c-0.1-0.1-0.2-0.1-0.2-0.2
			C12.6,3.4,12.4,3.7,12.6,3.8"/>
		<path class="st12" d="M13.9,4.5C13.9,4.5,13.9,4.5,13.9,4.5c0.2,0.2,0.5,0.1,0.3-0.1c-0.1-0.1-0.2-0.2-0.3-0.2
			C13.7,4.1,13.7,4.5,13.9,4.5"/>
		<path class="st12" d="M13.7,5.1C13.7,5.2,13.7,5.2,13.7,5.1c0.2,0.3,0.5,0.1,0.4-0.1C14,5,14,5,13.9,5C13.8,4.8,13.5,5,13.7,5.1"
			/>
		<path class="st12" d="M14.6,4c0,0,0.1,0.1,0.1,0.1c0.1,0.2,0.4-0.1,0.2-0.2c0,0-0.1-0.1-0.1-0.1C14.7,3.6,14.5,3.9,14.6,4"/>
		<path class="st12" d="M14.5,3.2c0,0.1,0.1,0.1,0.1,0.2c0.1,0.2,0.4-0.1,0.2-0.2c0-0.1-0.1-0.1-0.1-0.2C14.6,2.8,14.3,3,14.5,3.2"
			/>
		<path class="st12" d="M13.9,2.8c0,0,0.1,0.1,0.1,0.1c0.2,0.2,0.4-0.1,0.2-0.2c0,0-0.1-0.1-0.1-0.1C14,2.5,13.7,2.7,13.9,2.8"/>
		<path class="st12" d="M13.9,2c0,0,0.1,0.1,0.1,0.1c0.1,0.2,0.4,0,0.3-0.2c0,0-0.1-0.1-0.1-0.1C14,1.7,13.7,1.8,13.9,2"/>
		<path class="st12" d="M14.3,2.3c0,0.1,0.1,0.1,0.1,0.2c0.1,0.2,0.4,0,0.3-0.2c0-0.1-0.1-0.1-0.1-0.2C14.4,1.9,14.2,2.1,14.3,2.3"
			/>
		<path class="st12" d="M16,1.6c0,0.1,0,0.1,0.1,0.2c0.1,0.2,0.4,0.1,0.3-0.1c0-0.1,0-0.1-0.1-0.2C16.3,1.3,16,1.4,16,1.6"/>
		<path class="st12" d="M16.2,2.2c0,0.1,0,0.2,0.1,0.3c0.1,0.2,0.4,0,0.3-0.2c0,0,0-0.1,0-0.1C16.5,2,16.2,2,16.2,2.2"/>
		<path class="st12" d="M16.4,3.1c0,0.1,0,0.2,0,0.2c0,0.2,0.4,0.1,0.3-0.1c0-0.1,0-0.2,0-0.2C16.7,2.8,16.3,2.9,16.4,3.1"/>
		<path class="st12" d="M17,3.2c0,0.1,0,0.1,0,0.2c0,0.2,0.3,0.3,0.3,0.1c0-0.1,0-0.1,0-0.2C17.3,3,17,3,17,3.2"/>
		<path class="st12" d="M17.1,2.3c0,0.1-0.1,0.2-0.1,0.3c-0.1,0.2,0.2,0.4,0.3,0.2c0-0.1,0.1-0.2,0.1-0.3
			C17.5,2.3,17.2,2.1,17.1,2.3"/>
		<path class="st12" d="M16.8,1.5c-0.1,0.1-0.1,0.3-0.1,0.4c0.1,0.2,0.4,0.1,0.3-0.1c0-0.1,0-0.1,0-0.1C17.2,1.5,16.9,1.3,16.8,1.5"
			/>
		<path class="st12" d="M17.6,1.5c0,0.1,0,0.2-0.1,0.3c-0.1,0.2,0.3,0.3,0.3,0.1c0-0.1,0-0.2,0.1-0.3C18,1.4,17.6,1.3,17.6,1.5"/>
		<path class="st12" d="M17.9,2.1c-0.1,0.1-0.1,0.2-0.1,0.3c0,0.1,0.1,0.2,0.2,0.2c0.1,0,0.2-0.1,0.2-0.2l0,0
			C18.3,2.2,18.1,1.9,17.9,2.1"/>
		<path class="st12" d="M17.7,2.8c0,0.1,0,0.2-0.1,0.3c0,0.2,0.3,0.3,0.3,0.1C18,3.1,18,3,18,2.9C18.1,2.7,17.7,2.6,17.7,2.8"/>
		<path class="st12" d="M18.5,2.4c0,0.1-0.1,0.2-0.1,0.2c-0.1,0.2,0.2,0.3,0.3,0.1c0-0.1,0.1-0.2,0.1-0.2
			C18.9,2.3,18.6,2.2,18.5,2.4"/>
		<path class="st12" d="M18.2,3.3c0,0.1-0.1,0.1-0.1,0.2c-0.1,0.2,0.2,0.4,0.3,0.2c0-0.1,0.1-0.1,0.1-0.2
			C18.6,3.3,18.3,3.1,18.2,3.3"/>
		<path class="st12" d="M18.7,3.5C18.7,3.6,18.7,3.6,18.7,3.5c-0.2,0.2,0,0.5,0.2,0.3C19,3.8,19,3.7,19.1,3.6
			C19.1,3.4,18.8,3.3,18.7,3.5"/>
		<path class="st12" d="M19,3.8L19,3.8C18.8,4,19,4.3,19.2,4.1l0,0C19.4,3.9,19.1,3.7,19,3.8"/>
		<path class="st12" d="M14.3,9.7v0.2c0,0.2,0.3,0.2,0.3,0V9.7C14.7,9.5,14.3,9.5,14.3,9.7"/>
		<path class="st12" d="M14.9,10.3v0.2c0,0.2,0.3,0.2,0.3,0v-0.2C15.2,10.1,14.9,10.1,14.9,10.3"/>
		<path class="st12" d="M15.4,10.5c0,0.1,0,0.2,0,0.3c0,0.2,0.4,0.1,0.3-0.1c0-0.1,0-0.2,0-0.3C15.7,10.2,15.3,10.3,15.4,10.5"/>
		<path class="st12" d="M16.2,11.1c0,0.1,0,0.2,0,0.4c0.1,0.2,0.4,0,0.3-0.2c0,0,0-0.1,0-0.1C16.6,10.9,16.2,10.8,16.2,11.1"/>
		<path class="st12" d="M16.7,11.4c0,0.1,0,0.3,0.1,0.4c0.1,0.2,0.4-0.1,0.2-0.2c0,0,0-0.1,0-0.1C17,11.2,16.7,11.2,16.7,11.4"/>
		<path class="st12" d="M17.5,11.6c0,0.1,0.1,0.2,0.1,0.3c0.1,0.2,0.4,0.1,0.3-0.1c0-0.1-0.1-0.2-0.1-0.3
			C17.7,11.3,17.4,11.4,17.5,11.6"/>
		<path class="st12" d="M18.3,11.5c0.1,0.1,0.1,0.2,0.2,0.2c0.2,0.1,0.3-0.2,0.2-0.3c0,0-0.1-0.1-0.1-0.1
			C18.4,11.2,18.1,11.3,18.3,11.5"/>
		<path class="st12" d="M19,11.1c0,0,0.1,0.1,0.1,0.1c0.1,0.2,0.4,0,0.3-0.2c0,0-0.1-0.1-0.1-0.1C19.2,10.7,18.9,10.9,19,11.1"/>
		<path class="st12" d="M19.4,10.8C19.5,10.8,19.5,10.9,19.4,10.8c0.3,0.3,0.5,0,0.3-0.1c0,0-0.1-0.1-0.1-0.1
			C19.5,10.4,19.3,10.6,19.4,10.8"/>
		<path class="st12" d="M19.9,9.7C19.9,9.8,20,9.9,20,10c0.1,0.2,0.4,0,0.3-0.2c-0.1-0.1-0.1-0.2-0.2-0.3C20,9.4,19.7,9.5,19.9,9.7"
			/>
		<path class="st12" d="M20.1,9.2c0,0,0.1,0.1,0.1,0.1c0.2,0.2,0.4-0.1,0.2-0.2c0,0-0.1-0.1-0.1-0.1C20.2,8.8,20,9,20.1,9.2"/>
		<path class="st12" d="M20.1,8.4c0,0,0.1,0.1,0.1,0.1c0.2,0.2,0.4-0.1,0.2-0.2c0,0-0.1-0.1-0.1-0.1C20.2,8,20,8.3,20.1,8.4"/>
		<path class="st12" d="M19.6,8.7C19.6,8.8,19.6,8.8,19.6,8.7c-0.1,0.3,0.2,0.4,0.3,0.2c0,0,0-0.1,0-0.1C20,8.6,19.7,8.5,19.6,8.7"
			/>
		<path class="st12" d="M18.9,9c0,0,0,0.1,0,0.1c0.1,0.2,0.4,0.1,0.3-0.1c0,0,0-0.1,0-0.1C19.1,8.7,18.8,8.8,18.9,9"/>
		<path class="st12" d="M18.3,9.1c0,0,0,0.1,0,0.1c0.1,0.2,0.4,0.1,0.3-0.1c0,0,0-0.1,0-0.1C18.6,8.8,18.3,8.9,18.3,9.1"/>
		<path class="st12" d="M17.8,9.3c0,0.1,0,0.1,0,0.2c0,0.2,0.4,0.1,0.3-0.1c0-0.1,0-0.1,0-0.2C18.1,9,17.8,9.1,17.8,9.3"/>
		<path class="st12" d="M17.4,9.4C17.4,9.4,17.4,9.4,17.4,9.4c0,0.3,0.3,0.4,0.3,0.2c0-0.1,0-0.2,0-0.3C17.6,9.1,17.3,9.2,17.4,9.4"
			/>
		<path class="st12" d="M14.5,10.7c0,0.1,0,0.3,0.1,0.4c0.1,0.2,0.4,0,0.3-0.2c0-0.1-0.1-0.1-0.1-0.2C14.8,10.5,14.5,10.5,14.5,10.7
			"/>
		<path class="st12" d="M15.2,11.3c0,0,0,0.1,0.1,0.1c0.1,0.2,0.4,0,0.3-0.2c0,0,0-0.1-0.1-0.1C15.4,11,15.1,11.2,15.2,11.3"/>
		<path class="st12" d="M15.8,11.6c0.1,0.1,0.1,0.2,0.2,0.3c0.1,0.2,0.4,0,0.3-0.2c-0.1-0.1-0.1-0.2-0.2-0.3
			C16,11.2,15.7,11.4,15.8,11.6"/>
		<path class="st12" d="M17.2,12.3c0,0.1,0.1,0.2,0.1,0.2c0,0.1,0.1,0.1,0.2,0.1c0.1,0,0.2-0.1,0.1-0.2c0-0.1-0.1-0.2-0.1-0.2
			c0-0.1-0.1-0.1-0.2-0.1C17.2,12.1,17.1,12.2,17.2,12.3"/>
		<path class="st12" d="M18.3,12.4c0,0,0.1,0.1,0.1,0.1c0.2,0.2,0.4-0.1,0.2-0.2c0,0-0.1-0.1-0.1-0.1C18.3,12,18.1,12.2,18.3,12.4"
			/>
		<path class="st12" d="M19.1,11.9L19.1,11.9c0.2,0.2,0.5,0,0.3-0.2l-0.1-0.1C19.2,11.5,18.9,11.8,19.1,11.9"/>
		<path class="st12" d="M19.9,11L19.9,11c0.2,0.2,0.5,0,0.3-0.2l-0.1-0.1C20,10.6,19.8,10.9,19.9,11"/>
		<path class="st12" d="M19.5,10c0.1,0.1,0.1,0.2,0.2,0.3c0.1,0.2,0.4,0,0.3-0.2C20,10,19.9,9.9,19.8,9.8C19.7,9.7,19.4,9.8,19.5,10
			"/>
		<path class="st12" d="M20.5,9.7C20.5,9.7,20.5,9.7,20.5,9.7c0.1,0.3,0.4,0.2,0.4,0c0,0,0-0.1,0-0.1C20.8,9.4,20.5,9.5,20.5,9.7"/>
	</g>
</g>
</svg>
