<?xml version="1.0" encoding="utf-8"?>
<!-- Generator: Adobe Illustrator 21.0.0, SVG Export Plug-In . SVG Version: 6.00 Build 0)  -->
<svg version="1.1" id="Calque_1" xmlns="http://www.w3.org/2000/svg" xmlns:xlink="http://www.w3.org/1999/xlink" x="0px" y="0px"
	 viewBox="0 0 40 40" style="enable-background:new 0 0 40 40;" xml:space="preserve">
<style type="text/css">
	.st0{fill:#FFFFFF;}
	.st1{fill:#A0ECD6;}
	.st2{clip-path:url(#SVGID_3_);}
	.st3{fill:#714F47;}
	.st4{fill:#62342D;}
	.st5{fill:#F2CFB2;}
	.st6{fill:#D4B3A7;}
	.st7{fill:#FF7900;}
	.st8{fill:#FDD230;}
	.st9{fill:#D68A8F;}
	.st10{fill:#A6CACA;}
	.st11{fill:#C67289;}
	.st12{fill:#C5E1DF;}
	.st13{fill:#8F8F8F;}
	.st14{fill:#D68780;}
	.st15{fill:#5C7393;}
	.st16{fill:#CDE6F2;}
	.st17{fill:#EEE0D6;}
	.st18{fill:#D9BCB0;}
	.st19{fill:#595959;}
	.st20{fill:#D6D6D6;}
	.st21{fill:#B5E8F7;}
</style>
<rect class="st0" width="40" height="40"/>
<g>
	<g>
		<circle id="SVGID_1_" class="st1" cx="20" cy="20" r="20"/>
	</g>
	<g>
		<defs>
			<circle id="SVGID_2_" cx="20" cy="20" r="20"/>
		</defs>
		<clipPath id="SVGID_3_">
			<use xlink:href="#SVGID_2_"  style="overflow:visible;"/>
		</clipPath>
		<g class="st2">
			<g>
				<g>
					<g id="XMLID_810_">
						<polygon id="XMLID_811_" points="24.1,31.8 23.9,40.3 18.1,40.3 17.6,36.8 15.9,40.3 10.4,40.3 14.2,30 						"/>
					</g>
					<g id="XMLID_808_">
						<path id="XMLID_809_" class="st3" d="M7.7,30.4c-0.1-0.5-0.1-1,0-1.5C7.4,29.5,7,30.2,7,31c0-0.1,0.1-0.2,0.1-0.2
							c0.1,0.1,0.2,0.3,0.3,0.5c0.2,0.2,0.5,0.4,0.8,0.3C8.1,31.4,8,31.2,7.9,31C7.8,30.7,7.7,30.5,7.7,30.4z"/>
					</g>
					<g id="XMLID_806_">
						<path id="XMLID_807_" class="st3" d="M8.8,25.2c-0.2-0.3-0.4-0.5-0.6-0.8C7,25.6,5.5,28.2,5.3,29c-0.2,0.9-0.4,1.9,0,2.8
							c0.1,0.3,0.4,0.8,0.7,0.9h0.1c0.2,0.1,0.5,0.2,0.7,0c0.1-0.2,0-1.2,0.3-2c0.4-1,0.8-2,1.5-2.9c0.2-0.3,0.4-0.5,0.7-0.7
							C8.9,26.6,8.7,25.9,8.8,25.2z"/>
					</g>
					<g id="XMLID_804_">
						<path id="XMLID_805_" class="st4" d="M6.5,31H6.3c-0.1,0.8,0,1.4,0.2,1.9c0.1,0,0.1,0,0.2,0l0,0C6.4,32.5,6.4,31.8,6.5,31z"/>
					</g>
					<g id="XMLID_802_">
						<path id="XMLID_803_" class="st4" d="M6,30.8H5.8c-0.1,0.8-0.1,1.4,0.1,1.9C6,32.8,6,32.8,6.1,32.9C5.9,32.4,5.8,31.7,6,30.8z
							"/>
					</g>
					<g id="XMLID_800_">
						<path id="XMLID_801_" class="st4" d="M5.2,31.3c0,0.1,0,0.3,0.1,0.4c0,0.2,0.1,0.4,0.3,0.5c-0.1-0.1-0.1-0.6-0.1-1
							c0-0.1,0.1-0.9,0.2-0.9l-0.2-0.1C5.3,30.3,5.2,31.2,5.2,31.3z"/>
					</g>
					<g id="XMLID_798_">
						<path id="XMLID_799_" class="st5" d="M8.7,34.3L8.7,34.3L8.7,34.3z"/>
					</g>
					<g id="XMLID_796_">
						<path id="XMLID_797_" d="M10.4,15.1c0.5-0.6,1.5-2.5,2.5-2.5c0.1,0,0.2,0,0.3,0.1c1.3,0.5,0.9,2.5,0.5,3.4
							C12.8,18,11.5,20,10.8,22c-0.3,0.9-0.6,1.5-0.8,2.5s-0.2,2.8-0.4,3.7c0,0-3.1,1.1-4,0.6c-1.1-0.6,0.2-5.6,0.6-6.6
							c0.3-0.9,0.8-1.7,1.4-2.5C8.6,18.2,9.3,16.5,10.4,15.1z"/>
					</g>
					<g id="XMLID_794_">
						<path id="XMLID_795_" class="st4" d="M17.1,9.5c-0.1-0.2-0.3-0.6-0.5-0.7c0,0.4,0.1,0.9,0.1,1.3c0,0.6-0.2,1.2-0.6,1.4
							c-0.2,0.1-2-0.6-2-0.4c0.4,1,2,2.7,1.2,3.7c0.6,1,3.4-0.1,4.1-0.7c0.8-0.7,0.7-1.2,0.1-1.7c-0.1,0-0.1,0.1-0.2,0.1
							c0,0-0.4-0.6-0.1-0.3c0.1,0.1,0.2,0.2,0.3,0.2c0.1,0-1.2-1-1.5-1.5C17.7,10.5,17.4,10,17.1,9.5z"/>
					</g>
					<g id="XMLID_792_">
						<path id="XMLID_793_" class="st3" d="M16.1,7.7c-0.3,0.1-0.2,0.6-0.6,0.5c-0.2,0-0.2-0.3-0.3-0.5c-0.4-0.6-0.8-1.3-1.4-1.7
							c-0.5-0.3-0.8,0-1.1,0.4c-0.2,0.4-0.8,0.6-0.9,1.1c0,0.1,0.1,0.2,0.1,0.3C12,8,11.8,8.1,11.7,8.1c-0.1,0.1-0.2,0.1-0.3,0.1
							s-0.2,0.1-0.3,0.1c-0.2,0.1-0.1,0.2,0,0.4c0,0.1,0.1,0.3,0.2,0.4c0.2,0.6,0.5,1.1,0.9,1.6s0.8,1,1.4,1.4
							c0.1,0.1,0.3,0.2,0.5,0.4c0.5,0.3,0.8,0.4,1.3,0.2c0.4-0.2,0.6-0.6,0.9-1c0.3-0.4,0.6-1,0.6-1.5s-0.3-0.9,0-1.4
							C17.2,8.3,16.8,7.4,16.1,7.7z"/>
					</g>
					<g id="XMLID_790_">
						<path id="XMLID_791_" class="st4" d="M16.2,8.2c0.1,0.1,0.2,0.3,0.2,0.4l0.2-0.2C16.6,8.3,16.5,8,16.2,8.2z"/>
					</g>
					<g id="XMLID_788_">
						<path id="XMLID_789_" class="st6" d="M15.1,9.1L15.1,9.1L15.1,9.1z"/>
					</g>
					<g id="XMLID_786_">
						<path id="XMLID_787_" d="M14.3,5.1c-0.6-0.1-1.1,0.3-1.5,0.6c-0.1,0.1-0.2,0.2-0.3,0.2C12.4,6,12.3,6,12.2,6.1
							c0,0.4-0.1,0.8-0.3,1.1c-0.1,0.3-0.3,0.6-0.4,1c0.1,0.2,0.1,0.3,0.1,0.5c0.2-0.1,0.3-0.1,0.5-0.2c0.3-0.2,0.6-0.4,0.7-0.7
							c0.1-0.2,0.1-0.4,0.2-0.5c0.2-0.3,0.7-0.5,1.1-0.6c0.3-0.1,0.4,0.1,0.6,0.3c0.5,0.6,0.9,1.4,1.4,2c0.4-0.2-0.1-0.7,0-0.9
							c0-0.2,0.2-0.2,0.2-0.5c0-0.2-0.2-0.4-0.2-0.6C15.8,6.3,15.1,5.2,14.3,5.1z"/>
					</g>
					<g id="XMLID_784_">
						<path id="XMLID_785_" d="M12.6,6.1c-0.4,0.4-0.7,0.8-1,1.3c-0.2,0.5-0.4,0.9-0.2,1.3"/>
					</g>
					<g id="XMLID_782_">
						<path id="XMLID_783_" d="M11.6,8.8c0.2-0.3,0.4-0.5,0.7-0.7c0,0,0.1-0.1,0.2-0.1c0.1-0.5,0.6-1,0.9-1.3c0.7-0.7-0.4-1.6-1-1
							c-0.9,0.9-1.5,2-1.2,3.1C11.3,8.8,11.5,8.8,11.6,8.8z"/>
					</g>
					<g id="XMLID_780_">
						<path id="XMLID_781_" class="st4" d="M15.5,9.3c-0.3-0.1-0.8,0.4-0.4,0.7C15.4,10.2,15.9,9.5,15.5,9.3L15.5,9.3z"/>
					</g>
					<g id="XMLID_778_">
						<path id="XMLID_779_" class="st4" d="M13.1,9.6c0.1,0.2,0.2,0.5,0.3,0.7c0,0.1,0,0.2,0,0.3s0,0.2,0,0.3c0.2,0.5,0.7,0,0.7-0.3
							S13.5,9.3,13.1,9.6z"/>
					</g>
					<g id="XMLID_776_">
						<path id="XMLID_777_" d="M14.7,8.9c-0.2,0-0.4,0.1-0.5,0.2c-0.1,0.1-0.1,0.3,0.1,0.6l0.1-0.1c-0.1-0.2-0.1-0.3-0.1-0.4
							C14.4,9.1,14.5,9,14.7,9C14.8,9,15,9.1,15,9.2h0.1C15,9,14.9,8.9,14.7,8.9z"/>
					</g>
					<g id="XMLID_774_">
						<path id="XMLID_775_" class="st0" d="M13.8,11.6c0.4,0.6,0.8,0.5,1,0.4c0.4-0.2,0.6-1,0.4-1.3l0,0
							C15.2,10.8,13.9,11.6,13.8,11.6z"/>
					</g>
					<g id="XMLID_772_">
						<path id="XMLID_773_" class="st7" d="M23.4,13c-1-0.6-4.3-1.4-4.3-1.2c-0.2,1.4-1.8,2.7-2.7,2.4c-0.5-0.2-0.6-1.4-1-1.6
							c-0.6-0.3-2.7-0.2-3,0.4c-0.4,0.5-0.4,1.4-0.3,2c0.1,0.7,0.1,1.4,0.2,2c0.1,0.4,0.1,0.8,0.1,1.2c0.1,1.2,1.7,4.1,1.9,5.2
							c0.3,1.4,0.1,2.9,0.2,4.3c0.1,0.6-3.9,9.5-3.4,9.7c1,0.3,9.3,1.1,10.8,0.8c0.2,0,0.4-4.9,0.6-4.9c0.3,0,0.5,4.9,0.8,4.9
							c0.7,0,1.2-0.1,1.2-0.7c0.1-2.2-0.9-16.7-0.7-18.8c0.1-1.1,0.2-2.1,0.3-3.2c0-0.5,0.2-1.3-0.1-1.8
							C23.9,13.4,23.7,13.1,23.4,13z"/>
					</g>
					<g id="XMLID_770_">
						<path id="XMLID_771_" class="st8" d="M18.8,11.7c0,0.9-0.5,1.5-1.2,2c-0.3,0.3-0.8,0.5-1.3,0.6c-0.2,0-0.8-0.3-0.8-0.3
							c-0.2,0-0.2,0.1-0.3,0.5c0.3,0.3,0.8,0.5,1.2,0.5c0.9,0,2.1-0.8,2.5-1.6c0.2-0.3,0.3-0.6,0.3-0.9c0-0.2,0-0.6-0.1-0.7
							C19.1,11.7,18.8,11.6,18.8,11.7z"/>
					</g>
					<g id="XMLID_768_">
						<path id="XMLID_769_" class="st3" d="M15.8,11.9c-0.1,0-0.1,0.1-0.1,0.2c-0.1,0.2-0.3,0.2-0.5,0.2c0,0.3,0.4,0.6,0.6,0.3
							c0.1-0.1,0.2-0.3,0.2-0.5C16,12.1,16,11.9,15.8,11.9z"/>
					</g>
					<g id="XMLID_766_">
						<path id="XMLID_767_" d="M12.9,10.1c-0.2,0-0.3,0-0.4,0.2c0,0.1-0.1,0.3,0.1,0.5l0.1-0.1c-0.1-0.1-0.1-0.3-0.1-0.4
							C12.6,10.2,12.8,10.2,12.9,10.1c0.1,0.1,0.2,0.2,0.3,0.3h0.1C13.2,10.3,13.1,10.2,12.9,10.1z"/>
					</g>
					<g id="XMLID_764_">
						<path id="XMLID_765_" d="M14,8.3c-0.2,0.1-0.3,0.1-0.5,0.2c0.1,0.2,0.3,0.3,0.5,0.2c0,0,0.4-0.3,0.5-0.4
							c0.1,0,0.1-0.1,0.1-0.1C14.4,7.9,14.1,8.2,14,8.3z"/>
					</g>
					<g id="XMLID_762_">
						<path id="XMLID_763_" d="M11.9,9.7c-0.1,0.2-0.2,0.3,0,0.4l0.4-0.3l0.1-0.1c0-0.1,0-0.2-0.2-0.3C12.2,9.3,12,9.6,11.9,9.7z"/>
					</g>
					<g id="XMLID_760_">
						<path id="XMLID_761_" class="st8" d="M16.1,13.3L15.9,26c0,0.2,0.1,0.4,0.3,0.5h0.4c0.2,0,0.4-0.2,0.4-0.4l0-12.7
							c0-0.2-0.1-0.4-0.3-0.4l-0.3-0.1C16.3,12.8,16.1,13,16.1,13.3z"/>
					</g>
					<g id="XMLID_758_">
						<path id="XMLID_759_" class="st8" d="M11.1,7.8c0,0,2.5-1.4,4.6-1c0.1,0,0.2-0.1,0.1-0.2c-0.2-0.6-0.6-2.4-1.1-2.7
							c-1.1-0.9-4,1-4.2,1.5S11.1,7.8,11.1,7.8z"/>
					</g>
					<g id="XMLID_756_">
						<path id="XMLID_757_" class="st3" d="M17,13.2c-0.4-0.2-0.7-0.5-1.1-0.7s-0.7-0.5-1.1-0.8c-0.1-0.1-0.4-0.5-0.6-0.5
							c-0.2,0-0.4,0.2-0.5,0.4v0.1c-0.1,0.3,0,0.9,0.1,1.2c0.3,0.7,0.9,1.3,1.5,1.7c0.4,0.3,0.9,0.6,1.4,0.8c0.3,0.2,0.7,0.3,1,0.5
							c0.2,0.1,0.4,0.4,0.7,0.5c0.5,0.2,0.7-0.2,0.8-0.6c0.2-0.5,0.3-0.9,0-1.4C18.7,13.7,17.8,13.7,17,13.2z"/>
					</g>
					<g id="XMLID_754_">
						<path id="XMLID_755_" class="st4" d="M14.1,11.3L14.1,11.3C14,11.4,14,11.4,14,11.5c0.2,0.5,0.5,1,1.1,1.5l0.1-0.2
							C14.6,12.3,14.3,11.8,14.1,11.3z"/>
					</g>
					<g id="XMLID_752_">
						<path id="XMLID_753_" class="st4" d="M13.8,11.7c0,0.1,0,0.1-0.1,0.3c0.2,0.5,0.5,1,1.2,1.5l0.1-0.2
							C14.4,12.8,13.9,12.2,13.8,11.7z"/>
					</g>
					<g id="XMLID_750_">
						<path id="XMLID_751_" class="st4" d="M14.3,13.4c-0.3-0.4-0.6-0.8-0.6-0.9c0,0.2,0.1,0.4,0.2,0.6c0.1,0.1,0.2,0.3,0.3,0.4
							c0.1,0.1,0.8,0.7,0.8,0.6l0.1-0.2C15,13.9,14.4,13.4,14.3,13.4z"/>
					</g>
					<g id="XMLID_748_">
						<path id="XMLID_749_" class="st5" d="M13.7,12.5L13.7,12.5L13.7,12.5z"/>
					</g>
					<g id="XMLID_746_">
						<path id="XMLID_747_" d="M25.7,14c-1-0.9-3.3-2.1-4.6-1.9c-0.5,0.1-1,0.6-0.7,2.7c0.1,0.8,3.8,3.2,3.9,3.2
							c0.6-0.1-3.6-3.7-5.5-4.1c-0.2,0-2.6,3.5-1.7,4.1c0.6,0.4,6.4,7.7,10.7,4.1c0.8-0.6,0.9-1.8,1-2.8C29,17.6,26.4,14.6,25.7,14z
							"/>
					</g>
					<g id="XMLID_744_">
						<path id="XMLID_745_" class="st3" d="M11.9,21.3L11.9,21.3L11.9,21.3z"/>
					</g>
					<g id="XMLID_742_">
						<path id="XMLID_743_" class="st4" d="M11.1,20.7c0.1,0,0.3,0.1,0.6,0.2s0.7,0.3,1.1,0.2c0.4-0.1,0.1-0.4,0.2-0.7
							c0.3,0.3,0.6,0.5,1,0.7s0.7,0.7,2.1,1.1c0.1,0-0.9,1.2-1,1.3c-0.3,0.4-2-0.3-2.4-0.5c-0.7-0.3-0.9-0.4-1.5-0.9
							c-0.1-0.1,0-0.2,0-0.4c0-0.2,0.5-0.4,0.5-0.4l0,0l0,0C11.7,21.2,10.7,20.8,11.1,20.7z"/>
					</g>
					<g id="XMLID_740_">
						<path id="XMLID_741_" class="st4" d="M23.2,19.9c-0.7,0.1-1.4,0-2.1-0.2l0,0c-0.4,0.9-1.1,1.7-2.2,1.9
							c-1.4,0.4-3.1,0.4-4.5,0.3c-0.1,0.2-0.2,0.4-0.2,0.6C14,23,13.6,22.7,14,23.1c1.1,1.3,4.8,3.1,7.1,1.6c0.6-0.4,1.2-1,1.7-1.6
							c0.7-0.9,0.8-2.1,0.9-3.3C23.5,19.9,23.4,19.9,23.2,19.9z"/>
					</g>
					<g id="XMLID_738_">
						<path id="XMLID_739_" class="st8" d="M20.1,19.3c0.1,0,0.2,0.1,0.3,0.1c0.6,0.3,1.3,0.4,2,0.4c0.4,0,0.9,0,1.3-0.1
							c0-0.6,0-1.2,0.1-1.8c0.2-1.2,0.1-2.2-0.1-3.5c-0.1-0.4-0.1-1-0.3-1.4c-0.5-0.8-1-1.4-1.9-0.7c-0.6,0.5-1,1.3-1.1,2.1
							C20,16,20.5,17.9,20.1,19.3z"/>
					</g>
					<g id="XMLID_736_">
						<path id="XMLID_737_" class="st9" d="M10.3,22.7L10.3,22.7L10.3,22.7z"/>
					</g>
					<g id="XMLID_734_">
						<path id="XMLID_735_" class="st9" d="M10.4,23L10.4,23L10.4,23z"/>
					</g>
					<g id="XMLID_732_">
						<path id="XMLID_733_" d="M27.4,24.4c0.8-0.1,2.4-0.6,3,0.1C32,26.7,34,40,34,40.3c-0.1,0.4-8.3,2.7-16.9-0.5
							c-1.4-0.5,2.9-13.2,4.7-15C23.4,24.2,26,24.5,27.4,24.4z"/>
					</g>
					<g id="XMLID_730_">
						<path id="XMLID_731_" class="st7" d="M21.1,15c0.2-0.8,0.4-1.6,0.7-2.4c0.1-0.2,0.8-1.1,1-0.8c0.5,0.9,1.3,0.8,2.3,0.8
							c0.4,0,0.7-0.2,0.9-0.5c0.3-0.2,0.5-0.4,0.7-0.7c0.4,0.1,1.2,0,1.5,0.1c0.5,0.1,1.6,0.5,1.6,0.5s-0.7,2-0.8,2.7
							c-0.1,0.6,0.1,1.2,0.1,1.7c0,0.6-0.1,1.4,0,2c0.1,0.5,0.5,1.1,0.8,1.6c0.6,1.2,1.9,3.7,0.5,4.9c-1.2,1-3.3,1.1-4.8,1.1
							c-0.5,0-1,0-1.5-0.2c-0.4-0.1-0.8-0.1-1.2-0.3c-1.1-0.5-1.1-1.8-1.4-2.8s-0.4-2.1-0.6-3.2c-0.2-0.8-0.3-1.6-0.3-2.4
							c0-0.4,0.2-0.9,0.3-1.3C20.9,15.5,21,15.3,21.1,15z"/>
					</g>
					<g id="XMLID_728_">
						<path id="XMLID_729_" class="st10" d="M19.9,19.7L19.9,19.7L19.9,19.7z"/>
					</g>
					<g id="XMLID_726_">
						<path id="XMLID_727_" class="st10" d="M19.9,19.7C19.9,19.7,20,19.7,19.9,19.7C20,19.7,19.9,19.7,19.9,19.7z"/>
					</g>
					<g id="XMLID_724_">
						<path id="XMLID_725_" class="st11" d="M24.6,11.9L24.6,11.9L24.6,11.9z"/>
					</g>
					<g id="XMLID_722_">
						<path id="XMLID_723_" class="st12" d="M26.6,18.5L26.6,18.5L26.6,18.5L26.6,18.5z"/>
					</g>
					<g id="XMLID_720_">
						<path id="XMLID_721_" class="st13" d="M24.2,25.7L24.2,25.7c0,0.1,0.1,0.1,0.1,0.2l0,0l0,0l0,0C24.2,25.8,24.2,25.8,24.2,25.7
							L24.2,25.7z"/>
					</g>
					<g id="XMLID_718_">
						<path id="XMLID_719_" class="st14" d="M19.4,19.9L19.4,19.9L19.4,19.9z"/>
					</g>
					<g id="XMLID_716_">
						<path id="XMLID_717_" class="st0" d="M27.9,13c0.1,0,0.2,0,0.2,0.1s0,0.2-0.1,0.2l0,0l0,0l0,0l0,0l0,0l0,0c0,0,0,0.1-0.1,0.1
							c0,0.1-0.1,0.1-0.2,0.1s-0.1-0.1-0.1-0.2C27.7,13.2,27.8,13.1,27.9,13z"/>
					</g>
					<g id="XMLID_714_">
						<path id="XMLID_715_" class="st0" d="M27.7,14.2c0,0.1-0.1,0.2-0.1,0.3c0,0.2-0.3,0.2-0.3,0c0-0.1,0-0.2,0.1-0.4
							C27.5,14,27.8,14,27.7,14.2z"/>
					</g>
					<g id="XMLID_712_">
						<path id="XMLID_713_" class="st0" d="M27.4,15.5c0.1,0,0.1,0.1,0.1,0.1v0.2c0,0.1-0.1,0.1-0.1,0.1c-0.1,0-0.1-0.1-0.1-0.1
							v-0.2C27.2,15.6,27.3,15.5,27.4,15.5z"/>
					</g>
					<g id="XMLID_710_">
						<path id="XMLID_711_" class="st0" d="M27.1,17.1C27.1,17.1,27.2,17.1,27.1,17.1C27.1,17.1,27.2,17.1,27.1,17.1
							c0-0.1,0.1-0.2,0.1-0.2c0.1,0,0.1,0.1,0.1,0.1v0.1l0,0c0,0,0,0.1,0,0c0,0.1-0.1,0.1-0.1,0.1C27.1,17.2,27.1,17.1,27.1,17.1
							C27.1,17.2,27.1,17.2,27.1,17.1L27.1,17.1z"/>
					</g>
					<g id="XMLID_708_">
						<path id="XMLID_709_" class="st0" d="M27.4,18.7c0,0.1,0,0.2,0,0.4c0,0.2-0.2,0.3-0.3,0.1c0-0.1,0-0.3,0-0.4
							C27.1,18.5,27.4,18.5,27.4,18.7z"/>
					</g>
					<g id="XMLID_706_">
						<path id="XMLID_707_" class="st0" d="M26.3,12.5c0-0.2,0.3-0.2,0.3,0c0,0.1,0,0.2-0.1,0.3c0,0.1-0.1,0.1-0.2,0.1
							s-0.1-0.1-0.1-0.2C26.3,12.6,26.3,12.5,26.3,12.5z"/>
					</g>
					<g id="XMLID_704_">
						<path id="XMLID_705_" class="st0" d="M25.2,13.3L25.2,13.3C25.2,13.2,25.2,13.3,25.2,13.3c0-0.1,0.1-0.1,0.1-0.1
							c0.1,0,0.1,0.1,0.1,0.1v0.1l0,0l0,0l0,0c0,0.1-0.1,0.1-0.1,0.1c-0.1,0-0.1-0.1-0.1-0.1C25.2,13.3,25.2,13.3,25.2,13.3
							L25.2,13.3z"/>
					</g>
					<g id="XMLID_702_">
						<path id="XMLID_703_" class="st0" d="M25.3,14.2c0.1,0.1,0.1,0.1,0,0.2l0,0l0,0l0,0c0,0.1-0.1,0.1-0.1,0.1
							c-0.1,0-0.1-0.1-0.1-0.1c0-0.1,0-0.2,0.1-0.2C25.2,14.2,25.2,14.2,25.3,14.2z"/>
					</g>
					<g id="XMLID_700_">
						<path id="XMLID_701_" class="st0" d="M27,20.1c0,0.1,0,0.2,0,0.3c0,0.2-0.3,0.2-0.3,0c0-0.1,0-0.2,0-0.2
							C26.7,20,27,19.9,27,20.1z"/>
					</g>
					<g id="XMLID_698_">
						<path id="XMLID_699_" class="st0" d="M24.3,13.2L24.3,13.2L24.3,13.2c0-0.1,0.1-0.1,0.1-0.1c0.1,0,0.1,0.1,0.1,0.1v0.1l0,0
							l0,0l0,0c0,0.1-0.1,0.1-0.1,0.1c-0.1,0-0.1-0.1-0.1-0.1S24.3,13.3,24.3,13.2L24.3,13.2z"/>
					</g>
					<g id="XMLID_696_">
						<path id="XMLID_697_" class="st0" d="M24.4,14.4c0,0.1,0,0.2,0,0.3c0,0.2-0.3,0.2-0.3,0c0-0.1,0-0.2,0-0.3
							C24.1,14.2,24.4,14.2,24.4,14.4z"/>
					</g>
					<g id="XMLID_694_">
						<path id="XMLID_695_" class="st0" d="M23.6,13.1c0.1,0,0.1,0.1,0.1,0.2l0,0l0,0v0.1c0,0.1-0.1,0.1-0.1,0.1
							c-0.1,0-0.1-0.1-0.1-0.1C23.5,13.3,23.5,13.2,23.6,13.1C23.4,13.1,23.5,13.1,23.6,13.1z"/>
					</g>
					<g id="XMLID_692_">
						<path id="XMLID_693_" class="st0" d="M23.2,14.2c0-0.2,0.3-0.2,0.3,0c0,0.1,0,0.2-0.1,0.4s-0.3,0.1-0.3-0.1
							C23.2,14.4,23.2,14.3,23.2,14.2z"/>
					</g>
					<g id="XMLID_690_">
						<path id="XMLID_691_" class="st0" d="M22.6,13.1c0.1,0,0.1,0.1,0.1,0.1v0.1c0,0.1,0,0.1-0.1,0.2c-0.1,0-0.2,0-0.2-0.1
							s0-0.1,0-0.2C22.5,13.2,22.6,13.1,22.6,13.1z"/>
					</g>
					<g id="XMLID_688_">
						<path id="XMLID_689_" class="st0" d="M22.6,14.1c0,0.1-0.1,0.2-0.1,0.3c0,0.2-0.3,0.2-0.3,0c0-0.1,0-0.3,0.1-0.4
							C22.4,13.9,22.7,14,22.6,14.1z"/>
					</g>
					<g id="XMLID_686_">
						<path id="XMLID_687_" class="st0" d="M27,12.6L27,12.6L27,12.6c0.1-0.1,0.1-0.1,0.1-0.2c0-0.1,0.1-0.1,0.1-0.1
							c0.1,0,0.1,0.1,0.1,0.1c0,0.1-0.1,0.3-0.1,0.4C27.1,13,26.9,12.8,27,12.6L27,12.6z"/>
					</g>
					<g id="XMLID_684_">
						<path id="XMLID_685_" class="st0" d="M26.7,13.9L26.7,13.9c0-0.1,0-0.1,0-0.1c0-0.2,0.3-0.2,0.3,0c0,0.1,0,0.2-0.1,0.3
							c0,0.1-0.1,0.1-0.2,0.1C26.6,14.2,26.6,14.1,26.7,13.9C26.7,14,26.7,13.9,26.7,13.9z"/>
					</g>
					<g id="XMLID_682_">
						<path id="XMLID_683_" class="st0" d="M26,13.7v0.4c0,0.2-0.3,0.2-0.3,0v-0.4C25.7,13.5,26,13.5,26,13.7z"/>
					</g>
					<g id="XMLID_680_">
						<path id="XMLID_681_" class="st0" d="M22,12.8c0.1,0,0.1,0.1,0.1,0.2c0,0.1,0,0.2,0,0.2c0,0.2-0.3,0.2-0.3,0
							C21.8,13.1,21.8,12.9,22,12.8C21.8,12.8,21.9,12.8,22,12.8z"/>
					</g>
					<g id="XMLID_678_">
						<path id="XMLID_679_" class="st0" d="M21.5,14.3c0.1,0,0.1,0.1,0.1,0.1v0.2c0,0.1-0.1,0.1-0.1,0.1c-0.1,0-0.1-0.1-0.1-0.1
							v-0.2C21.4,14.4,21.4,14.3,21.5,14.3z"/>
					</g>
					<g id="XMLID_676_">
						<path id="XMLID_677_" class="st0" d="M26.8,15.4c0,0.1-0.1,0.3-0.1,0.4c0,0.2-0.3,0.2-0.3,0s0.1-0.3,0.1-0.5
							C26.5,15.2,26.8,15.3,26.8,15.4z"/>
					</g>
					<g id="XMLID_674_">
						<path id="XMLID_675_" class="st0" d="M25.7,15.6c0,0.1-0.1,0.2-0.1,0.3c0,0.2-0.3,0.2-0.3,0s0.1-0.3,0.1-0.4
							C25.6,15.3,25.8,15.5,25.7,15.6z"/>
					</g>
					<g id="XMLID_672_">
						<path id="XMLID_673_" class="st0" d="M26.1,17c0.1,0,0.1,0.1,0.1,0.1v0.1c0,0.1-0.1,0.1-0.1,0.1c-0.1,0-0.1-0.1-0.1-0.1v-0.1
							L26.1,17z"/>
					</g>
					<g id="XMLID_670_">
						<path id="XMLID_671_" class="st0" d="M26,18.3c0.1,0,0.1,0.1,0.1,0.1v0.2c0,0.1-0.1,0.1-0.1,0.1c-0.1,0-0.1-0.1-0.1-0.1v-0.2
							C25.8,18.3,25.9,18.3,26,18.3z"/>
					</g>
					<g id="XMLID_668_">
						<path id="XMLID_669_" class="st0" d="M26.3,20.5v0.6c0,0.2-0.3,0.2-0.3,0v-0.6C26.1,20.3,26.3,20.3,26.3,20.5z"/>
					</g>
					<g id="XMLID_666_">
						<path id="XMLID_667_" class="st0" d="M25.6,20.8v0.3c0,0.2-0.3,0.2-0.3,0v-0.3C25.3,20.6,25.6,20.6,25.6,20.8z"/>
					</g>
					<g id="XMLID_664_">
						<path id="XMLID_665_" class="st0" d="M25.3,18.9c0.1,0,0.1,0.1,0.1,0.1v0.2c0,0.1-0.1,0.1-0.1,0.1l-0.1-0.1V19
							C25.2,19,25.3,18.9,25.3,18.9z"/>
					</g>
					<g id="XMLID_662_">
						<path id="XMLID_663_" class="st0" d="M25.4,17.3c0,0.1,0,0.2-0.1,0.3c0,0.2-0.3,0.2-0.3,0c0-0.1,0-0.2,0.1-0.3
							C25.1,17.1,25.4,17.1,25.4,17.3z"/>
					</g>
					<g id="XMLID_660_">
						<path id="XMLID_661_" class="st0" d="M24.3,15.7L24.3,15.7L24.3,15.7L24.3,15.7c0-0.1,0-0.1,0-0.1c0-0.1,0.1-0.1,0.1-0.1
							c0.1,0,0.1,0.1,0.1,0.1c0,0.1,0,0.2-0.1,0.3s-0.1,0.1-0.2,0C24.2,15.9,24.2,15.8,24.3,15.7L24.3,15.7z"/>
					</g>
					<g id="XMLID_658_">
						<path id="XMLID_659_" class="st0" d="M24.4,16.9v0.5c0,0.2-0.3,0.2-0.3,0v-0.5C24.1,16.7,24.4,16.7,24.4,16.9z"/>
					</g>
					<g id="XMLID_656_">
						<path id="XMLID_657_" class="st0" d="M24.4,18.8v0.3c0,0.2-0.3,0.2-0.3,0v-0.3C24.1,18.6,24.4,18.6,24.4,18.8z"/>
					</g>
					<g id="XMLID_654_">
						<path id="XMLID_655_" class="st0" d="M24.4,20.3c0.1,0,0.1,0.1,0.1,0.1v0.2c0,0.1-0.1,0.1-0.1,0.1c-0.1,0-0.1-0.1-0.1-0.1
							v-0.2C24.3,20.3,24.4,20.3,24.4,20.3z"/>
					</g>
					<g id="XMLID_652_">
						<path id="XMLID_653_" class="st0" d="M24.7,21.7V22c0,0.2-0.3,0.2-0.3,0v-0.3C24.5,21.6,24.7,21.6,24.7,21.7z"/>
					</g>
					<g id="XMLID_650_">
						<path id="XMLID_651_" class="st0" d="M25.4,21.9L25.4,21.9c0.1,0,0.2,0.1,0.2,0.1c0,0.1-0.1,0.1-0.1,0.1h-0.1
							c-0.1,0-0.1-0.1-0.1-0.1S25.3,21.9,25.4,21.9z"/>
					</g>
					<g id="XMLID_648_">
						<path id="XMLID_649_" class="st0" d="M23.1,15.4c0,0.1,0,0.3,0,0.4c0,0.2-0.3,0.2-0.3,0s0-0.3,0.1-0.5
							C22.9,15.2,23.2,15.3,23.1,15.4z"/>
					</g>
					<g id="XMLID_646_">
						<path id="XMLID_647_" class="st0" d="M23,17.1v0.4c0,0.2-0.3,0.2-0.3,0v-0.4C22.8,16.9,23,16.9,23,17.1z"/>
					</g>
					<g id="XMLID_644_">
						<path id="XMLID_645_" class="st0" d="M23.1,18.7V19c0,0.2-0.3,0.2-0.3,0v-0.3C22.8,18.5,23.1,18.5,23.1,18.7z"/>
					</g>
					<g id="XMLID_642_">
						<path id="XMLID_643_" class="st0" d="M23.1,20.1c0.1,0,0.1,0.1,0.1,0.1v0.2c0,0.1-0.1,0.1-0.1,0.1c-0.1,0-0.1-0.1-0.1-0.1
							v-0.2C22.9,20.1,23,20.1,23.1,20.1z"/>
					</g>
					<g id="XMLID_640_">
						<path id="XMLID_641_" class="st0" d="M23.1,21.5c0-0.2,0.3-0.2,0.3,0c0,0.1,0,0.3-0.1,0.4c0,0.1-0.1,0.1-0.2,0.1
							S23,21.9,23,21.8C23.1,21.7,23.1,21.6,23.1,21.5z"/>
					</g>
					<g id="XMLID_638_">
						<path id="XMLID_639_" class="st0" d="M21.8,15.6c0-0.2,0.3-0.2,0.3,0c0,0.1,0,0.3-0.1,0.4c-0.1,0.2-0.3,0.1-0.3-0.1
							C21.8,15.8,21.8,15.7,21.8,15.6z"/>
					</g>
					<g id="XMLID_636_">
						<path id="XMLID_637_" class="st0" d="M21.8,17c0,0.2,0,0.4,0,0.7c0,0.2-0.2,0.3-0.3,0.1c-0.1-0.2-0.1-0.5-0.1-0.7
							C21.5,16.8,21.8,16.8,21.8,17z"/>
					</g>
					<g id="XMLID_634_">
						<path id="XMLID_635_" class="st0" d="M22,18.9v0.4c0,0.2-0.3,0.2-0.3,0v-0.4C21.7,18.7,22,18.7,22,18.9z"/>
					</g>
					<g id="XMLID_632_">
						<path id="XMLID_633_" class="st0" d="M22.2,20.9c0,0.2,0,0.5,0,0.7s-0.2,0.3-0.3,0.1c0-0.3-0.1-0.5-0.1-0.8
							C21.9,20.7,22.2,20.7,22.2,20.9z"/>
					</g>
					<g id="XMLID_630_">
						<path id="XMLID_631_" class="st0" d="M20.9,15.5c0-0.2,0.3-0.2,0.3,0c0,0.1,0,0.3-0.1,0.4c0,0.1-0.1,0.1-0.2,0.1
							s-0.1-0.1-0.1-0.2C20.9,15.6,20.9,15.5,20.9,15.5z"/>
					</g>
					<g id="XMLID_628_">
						<path id="XMLID_629_" class="st0" d="M20.9,17v0.3c0,0.2-0.3,0.2-0.3,0V17C20.7,16.8,20.9,16.8,20.9,17z"/>
					</g>
					<g id="XMLID_626_">
						<path id="XMLID_627_" class="st0" d="M21,18.5c0.1,0,0.1,0.1,0.1,0.1v0.2c0,0.1-0.1,0.1-0.1,0.1c-0.1,0-0.1-0.1-0.1-0.1v-0.2
							C20.9,18.5,21,18.5,21,18.5z"/>
					</g>
					<g id="XMLID_624_">
						<path id="XMLID_625_" class="st4" d="M12.5,19.6c0.1,0.1,0.4,0.5,0.5,0.5c0.3,0.2,0.7,0.4,1,0.7c0.1,0.1,0.3,0.4,0.2,0.5
							c0,0.1-0.3,0.2-0.4,0.2c-0.3,0-0.5,0.1-0.6-0.2c-0.1-0.2-0.1-0.5-0.2-0.6c-0.1-0.1-0.4-0.5-0.4-0.6
							C12.3,19.6,12.5,19.6,12.5,19.6z"/>
					</g>
					<g id="XMLID_622_">
						<path id="XMLID_623_" class="st3" d="M17.3,22.1L17.3,22.1L17.3,22.1z"/>
					</g>
					<g id="XMLID_620_">
						<path id="XMLID_621_" class="st8" d="M28.5,19.2c0.6,0.2,1.2,0.4,1.8,0.5c0.6,0.1,1.3,0.2,1.9,0.3c0.4,0,0.8,0.1,1.2,0.1
							c0.4-2.8-0.9-5.5-1.7-6.7c-0.5-0.8-1.3-1.5-2.3-1.4c-1.9,0.3-1.1,2.9-1,4C28.5,16.6,28.6,18,28.5,19.2z"/>
					</g>
					<g id="XMLID_618_">
						<path id="XMLID_619_" class="st3" d="M29.9,24.8c1.3-1.4,2.3-3.1,2.9-4.9c-0.3,0-0.7-0.1-1-0.1c-0.6-0.1-1.2-0.1-1.8-0.3
							c-0.4-0.1-0.8-0.2-1.1-0.3c-0.1,1-0.7,1.8-1.4,2.3c-0.1,0.1-0.3,0.2-0.5,0.3c-2.5,0.9-8.6-2.4-8.6-2.4
							c-0.6,0.5,1.3,2.6,1.9,3.2C23.4,26.2,26.9,26,29.9,24.8z"/>
					</g>
					<g id="XMLID_616_">
						<path id="XMLID_617_" class="st0" d="M21.1,19.8c0.1,0,0.2,0,0.2,0.1s0,0.1,0.1,0.2c0,0,0,0,0,0.1l0,0c0.1,0.1,0.1,0.2,0,0.2
							c-0.1,0.1-0.2,0.1-0.3,0c0-0.1-0.1-0.1-0.1-0.2s0-0.1,0-0.1C21,20,21,19.9,21.1,19.8z"/>
					</g>
					<g id="XMLID_614_">
						<path id="XMLID_615_" class="st15" d="M21.8,8.7c0.1,0.1,0.1,0.1,0.2,0.1s0.1,0.1,0.1,0.1C22,9,22,9,21.9,9s-0.2-0.1-0.3-0.2
							C21.5,8.7,21.7,8.6,21.8,8.7z"/>
					</g>
					<g id="XMLID_612_">
						<path id="XMLID_613_" class="st15" d="M22.6,9.4c0.1,0.1,0.2,0.2,0.2,0.3s0,0.1,0,0.2c-0.1,0-0.1,0-0.2,0
							c-0.1-0.1-0.1-0.2-0.2-0.2C22.4,9.4,22.5,9.3,22.6,9.4z"/>
					</g>
					<g id="XMLID_610_">
						<path id="XMLID_611_" class="st15" d="M23.1,9.2c0.1,0,0.1,0,0.2,0c0,0.1,0.1,0.1,0.2,0.2c0.1,0.1-0.1,0.3-0.2,0.2
							s-0.1-0.1-0.2-0.2S23,9.2,23.1,9.2z"/>
					</g>
					<g id="XMLID_608_">
						<path id="XMLID_609_" class="st15" d="M24,10c0.1,0.1,0.3,0.3,0.3,0.4c0.1,0.2-0.2,0.3-0.2,0.1c-0.1-0.1-0.2-0.3-0.3-0.4
							C23.7,10,23.9,9.8,24,10z"/>
					</g>
					<g id="XMLID_606_">
						<path id="XMLID_607_" class="st4" d="M26.8,11.5c-0.1,0-0.3-0.2-0.4-0.3c-0.4-0.6-0.6-2.1-0.8-2.8c-0.1-0.3,0-0.4-0.3-0.6
							C25.1,8.2,25.2,8.6,25,9c-0.2,0.5-0.6,1-1,1.1c-0.2,0.1-0.4,0-0.6,0c-0.1,0-0.6-0.2-0.6-0.2c0.1,0,0,1.1,0,1.5
							c-0.1,0.1-0.3,0.3-0.3,0.3c0,0.1,0.2,0.5,0.9,0.9c0.2,0.1,1.1,0.2,1.4,0.1c0.4-0.1,0.8-0.3,1.2-0.5
							C26.3,12.1,26.6,11.8,26.8,11.5z"/>
					</g>
					<g id="XMLID_604_">
						<path id="XMLID_605_" class="st3" d="M21.9,5.1c0.4-0.3,1-0.3,1.4-0.1c0.6,0.2,0.7,0.7,1,1.2c0.1,0.2,0.3,0.6,0.6,0.7
							c0.4,0,0.5-0.4,0.8,0.1c0.2,0.3,0.1,0.6-0.1,0.8c-0.3,0.3-0.1,0.7-0.2,1.1C25.3,9.3,25,9.7,24.7,10s-0.5,0.5-0.9,0.6
							s-0.8,0-1.1-0.3c-0.6-0.4-1.2-1.2-1.5-1.9c-0.2-0.6-0.5-1.4-0.3-2C21,5.9,21.5,5.4,21.9,5.1z"/>
					</g>
					<g id="XMLID_602_">
						<path id="XMLID_603_" d="M23.6,6.7L23.6,6.7C23.4,6.8,23.1,7,23,7c-0.2,0.1-0.3-0.1-0.4-0.2c0.1,0,0.3,0,0.4-0.1
							C23.2,6.6,23.5,6.5,23.6,6.7z"/>
					</g>
					<g id="XMLID_600_">
						<path id="XMLID_601_" class="st4" d="M25.5,7.5l-0.2,0.1c0-0.1-0.1-0.2-0.1-0.4C25.5,7.1,25.5,7.3,25.5,7.5z"/>
					</g>
					<g id="XMLID_598_">
						<path id="XMLID_599_" d="M21.3,7.6l0.3-0.3c0.1,0.1,0.2,0.2,0.1,0.3c0,0,0,0.1-0.1,0.1l-0.4,0.2C21.1,7.8,21.2,7.7,21.3,7.6z"
							/>
					</g>
					<g id="XMLID_596_">
						<path id="XMLID_597_" class="st16" d="M22.3,8L22.3,8L22.3,8C22.3,7.9,22.3,8,22.3,8z"/>
					</g>
					<g id="XMLID_594_">
						<path id="XMLID_595_" class="st17" d="M22.3,8L22.3,8C22.2,8,22.3,8,22.3,8L22.3,8z"/>
					</g>
					<g id="XMLID_592_">
						<path id="XMLID_593_" class="st17" d="M22.3,7.9L22.3,7.9L22.3,7.9z"/>
					</g>
					<g id="XMLID_590_">
						<path id="XMLID_591_" class="st6" d="M24.2,7.7L24.2,7.7L24.2,7.7z"/>
					</g>
					<g id="XMLID_588_">
						<path id="XMLID_589_" class="st6" d="M24.2,7.7L24.2,7.7L24.2,7.7z"/>
					</g>
					<g id="XMLID_586_">
						<path id="XMLID_587_" class="st18" d="M24.6,6.9L24.6,6.9L24.6,6.9z"/>
					</g>
					<g id="XMLID_584_">
						<path id="XMLID_585_" d="M23.3,3.4c0.8-0.1,1.8,0.1,2.4,0.6c1.4,1,1.4,3,0.4,4.2c-0.1,0.2-0.3,0.4-0.4,0.5S25.5,8,25.5,7.9
							c0.1-0.2,0.3-0.4,0.4-0.6c0-0.2-0.1-0.6-0.4-0.5c-0.2,0-0.1,0.3-0.3,0.3c-0.2,0-0.5-0.4-0.6-0.5C24.3,6.4,24,6.2,23.8,6
							c-0.4-0.4-0.9-0.6-1.5-0.6c-0.2,0-0.3,0-0.5,0.1C22,4.7,22.6,3.9,23.3,3.4z"/>
					</g>
					<g id="XMLID_582_">
						<path id="XMLID_583_" d="M22,3.8c0.4-0.2,0.8-0.3,1.3-0.4c-0.7,0.5-1.3,1.3-1.5,2.1c-0.3,0.1-0.5,0.3-0.7,0.5
							c-0.3,0.3-0.3,0.8-0.3,1.2c-0.2-0.3-0.3-0.6-0.3-1s0-0.8,0.2-1.1C20.9,4.5,21.5,4,22,3.8z"/>
					</g>
					<g id="XMLID_580_">
						<path id="XMLID_581_" class="st4" d="M24.3,7.8C24.3,7.8,24.4,7.8,24.3,7.8c0.4,0.2-0.2,0.8-0.5,0.6
							C23.5,8.1,24.1,7.6,24.3,7.8z"/>
					</g>
					<g id="XMLID_578_">
						<path id="XMLID_579_" class="st4" d="M22.9,8.7c-0.1,0.3-0.5,0.6-0.6,0.2c0-0.1,0-0.2,0.1-0.2c0-0.1,0-0.1,0-0.2
							c0-0.2-0.1-0.4-0.1-0.6C22.7,7.6,23,8.5,22.9,8.7z"/>
					</g>
					<g id="XMLID_576_">
						<path id="XMLID_577_" d="M23.6,7.3c0.2,0,0.3,0.2,0.4,0.4h-0.1c0-0.1-0.1-0.2-0.3-0.2c-0.1,0-0.3,0-0.3,0.1
							c-0.1,0.1-0.1,0.2,0,0.4l-0.1,0.1c-0.2-0.3-0.1-0.5,0-0.5C23.3,7.3,23.5,7.2,23.6,7.3z"/>
					</g>
					<g id="XMLID_574_">
						<path id="XMLID_575_" d="M21.9,8.1c0.1,0,0.2,0.1,0.3,0.2h-0.1C22,8.2,22,8.2,21.9,8.1c-0.1,0.1-0.2,0.1-0.2,0.2
							c0,0.1,0,0.2,0,0.3h-0.1c-0.1-0.2-0.1-0.3,0-0.4C21.6,8.1,21.8,8,21.9,8.1z"/>
					</g>
					<g id="XMLID_572_">
						<path id="XMLID_573_" class="st4" d="M22.1,8.6C22.1,8.6,22.1,8.7,22.1,8.6c0.3,0.2-0.2,0.7-0.4,0.5
							C21.4,8.9,21.9,8.5,22.1,8.6z"/>
					</g>
					<g id="XMLID_570_">
						<path id="XMLID_571_" class="st15" d="M23,9.4h0.1c0,0.1,0.1,0.1,0.1,0.2c0.1,0.1,0,0.2-0.1,0.1c0,0-0.1-0.1-0.1-0.2V9.4z"/>
					</g>
					<g id="XMLID_568_">
						<path id="XMLID_569_" class="st4" d="M23.8,9l0.1,0.1l0,0C23.8,9.1,23.7,9,23.8,9z"/>
					</g>
					<g id="XMLID_566_">
						<path id="XMLID_567_" class="st0" d="M23.1,9.4c0.2-0.1,0.4-0.2,0.6-0.3c0,0,0,0.1,0,0.2c-0.2,0.5-0.8,0.8-1.2,0.3
							C22.7,9.6,22.9,9.5,23.1,9.4z"/>
					</g>
					<g id="XMLID_564_">
						<path id="XMLID_565_" class="st4" d="M22.6,9.5c0,0,0-0.1,0.1-0.1s0.2,0,0.2,0c0-0.1,0-0.1,0.1-0.2c0.1,0,0.2-0.1,0.3-0.1
							c0.1,0,0.3,0,0.4-0.1c0,0,0,0,0,0.1c0,0-0.5,0.3-0.7,0.3c-0.1,0-0.2,0.1-0.3,0.1H22.6h-0.1C22.5,9.6,22.5,9.6,22.6,9.5z"/>
					</g>
					<g id="XMLID_562_">
						<path id="XMLID_563_" class="st4" d="M23,9.9c0.2,0,0.4-0.2,0.5-0.3s0.1-0.1,0.1-0.2c0-0.1,0-0.1,0-0.2c0,0,0,0.1,0,0.2
							c0,0.2-0.1,0.5-0.3,0.6c-0.1,0.1-0.3,0.1-0.5,0.1s-0.2-0.2-0.4-0.3c0,0,0-0.1-0.1-0.1C22.7,9.8,22.8,9.9,23,9.9L23,9.9z"/>
					</g>
					<g id="XMLID_560_">
						<circle id="XMLID_561_" cx="23.3" cy="7.7" r="0.2"/>
					</g>
					<g id="XMLID_558_">
						<circle id="XMLID_559_" cx="21.7" cy="8.4" r="0.2"/>
					</g>
					<g id="XMLID_556_">
						<circle id="XMLID_557_" class="st8" cx="25.5" cy="7.9" r="0.2"/>
					</g>
					<g id="XMLID_554_">
						<path id="XMLID_555_" class="st8" d="M26.5,7.6c0,0-4.1-3.6-5.8-2.7c0,0-0.3,0.9-0.3,1.1s-0.8-0.7-0.7-1
							c0.1-0.3,0.8-1.6,0.8-1.8C20.4,3.1,21.4,2,21.4,2L22,0.7l3.1,0.1c0,0,2.9,0.5,2.9,0.7s0.3,2.1,0.1,2.1c-0.2,0-0.8,0.2-0.8,0.2
							l1,2.3L27,7v0.8l-1,0.3L26.5,7.6z"/>
					</g>
					<g id="XMLID_552_">
						<path id="XMLID_553_" d="M28.4,19.5c0.6,0.2,1.2,0.3,1.9,0.4c0.4,0.1,1.1,0.3,1.4-0.1c0.1-0.2,0.1-0.4,0.1-0.6
							c0-0.3,0.1-0.6,0.1-0.9c0.1-0.7,0.1-1.3,0.2-2c-0.2,0-0.5,0.1-0.7,0.1c0.3,0.9,0.1,1.9,0.2,2.8c0,0.3,0,0.7,0.4,0.9
							c0.4,0.2,0.9,0.2,1.4,0.3c0.5,0.1,0.7-0.6,0.2-0.7c-0.2,0-0.4-0.1-0.6-0.1c-0.2,0-0.5,0-0.6-0.1s0,0.1,0-0.1
							c0-0.1,0-0.2,0-0.3c0-0.2,0-0.4,0-0.6c0-0.8,0-1.5-0.2-2.3c-0.1-0.4-0.7-0.3-0.7,0.1c0,0.5-0.1,1.1-0.1,1.6
							c0,0.3,0,0.5-0.1,0.8c0,0.1,0,0.3,0,0.4s0,0.3,0,0.3c0.1-0.1,0.1-0.1,0.2-0.2c-0.1,0.1-0.5,0-0.6-0.1c-0.2,0-0.5-0.1-0.7-0.1
							c-0.5-0.1-0.9-0.2-1.3-0.3C28.1,18.6,27.9,19.3,28.4,19.5L28.4,19.5z"/>
					</g>
					<g id="XMLID_550_">
						<path id="XMLID_551_" d="M20.8,19.2L20.8,19.2c-0.1,0-0.2-0.1-0.2-0.1s-0.1,0-0.1-0.1c0,0,0,0-0.1,0l0,0
							c-0.2-0.1-0.4-0.2-0.5,0c-0.1,0.1-0.2,0.4,0,0.5c0.2,0.2,0.5,0.3,0.8,0.4c0.1,0,0.2,0,0.3-0.1C20.8,19.7,20.8,19.5,20.8,19.2z
							"/>
					</g>
					<g id="XMLID_548_">
						<path id="XMLID_549_" d="M22.4,11.9c0.3,0.5,0.8,0.9,1.4,1.1c0-0.1,0-0.2-0.1-0.2c-0.4,0.4-0.4,1,0,1.4c0-0.1,0-0.1,0-0.2
							c-0.4,0.4-0.3,1,0.1,1.3c0-0.1,0-0.1-0.1-0.2c-0.1,0.2-0.3,0.5-0.2,0.8c0,0.1,0.1,0.2,0.1,0.3c0.1,0.2,0.1,0.3,0.1,0.5
							c-0.1,0.4,0.2,0.8,0.6,0.5c0.2-0.2,0.3-0.5,0.3-0.7c0-0.3,0.1-0.7,0.1-1c0-0.2-0.1-0.3,0-0.4c0-0.1,0.1-0.2,0.1-0.3
							c0-0.3-0.1-0.5-0.2-0.7c0,0.1,0,0.1,0,0.2C25,14,25,13.4,24.7,13c0,0.1-0.1,0.1-0.1,0.2c0.9-0.2,2-0.6,2.4-1.5
							c0.1-0.2-0.2-0.3-0.2-0.1c-0.4,0.9-1.4,1.2-2.2,1.4c-0.1,0-0.1,0.1-0.1,0.2c0.2,0.3,0.2,0.7-0.1,1c-0.1,0.1,0,0.1,0,0.2
							c0.2,0.2,0.2,0.5,0.1,0.7c0,0.1-0.1,0.2-0.1,0.3s0.1,0.3,0.1,0.4c0,0.1,0,0.2,0,0.4s-0.1,0.5-0.1,0.7c0,0.1,0,0.2-0.2,0.2
							s-0.1,0-0.1-0.2c0-0.1,0.1-0.2,0.1-0.3c0-0.1-0.1-0.2-0.1-0.2C24,16.3,24,16.1,24,16s0.1-0.3,0.2-0.4c0-0.1,0-0.2-0.1-0.2
							c-0.3-0.2-0.3-0.6-0.1-0.8c0.1-0.1,0.1-0.1,0-0.2c-0.3-0.3-0.3-0.7,0-1c0.1-0.1,0-0.2-0.1-0.2c-0.5-0.2-0.9-0.5-1.2-1
							C22.5,11.6,22.3,11.7,22.4,11.9L22.4,11.9z"/>
					</g>
					<g id="XMLID_546_">
						<path id="XMLID_547_" d="M15.6,6.5c-0.1,0-0.2-0.1-0.4-0.1c-0.1,0-0.1-0.2,0-0.2s0.2,0.1,0.4,0.1S15.7,6.5,15.6,6.5L15.6,6.5z
							"/>
					</g>
					<g id="XMLID_544_">
						<path id="XMLID_545_" d="M15,6.4c-0.1,0-0.3,0-0.4,0c-0.1,0-0.1,0-0.1-0.1c0,0,0-0.1,0.1-0.1s0.3,0,0.4,0
							C15,6.2,15.1,6.2,15,6.4C15.1,6.3,15.1,6.4,15,6.4L15,6.4z"/>
					</g>
					<g id="XMLID_542_">
						<path id="XMLID_543_" d="M14.1,6.4c-0.1,0-0.2,0-0.3,0s-0.2-0.1-0.1-0.2c0.1-0.1,0.3,0,0.4,0C14.1,6.2,14.2,6.3,14.1,6.4
							C14.2,6.4,14.2,6.4,14.1,6.4L14.1,6.4z"/>
					</g>
					<g id="XMLID_34_">
						<path id="XMLID_541_" d="M13.4,6.5c-0.1,0-0.2,0-0.3,0s-0.1-0.2,0-0.2s0.2,0,0.3,0S13.5,6.5,13.4,6.5L13.4,6.5z"/>
					</g>
					<g id="XMLID_32_">
						<path id="XMLID_33_" d="M12.6,6.6c-0.1,0-0.1,0-0.2,0c-0.1,0.1-0.2-0.1-0.1-0.2c0.1-0.1,0.2-0.1,0.3-0.1
							C12.8,6.4,12.7,6.6,12.6,6.6L12.6,6.6z"/>
					</g>
					<g id="XMLID_30_">
						<path id="XMLID_31_" d="M12,6.8c-0.1,0-0.1,0-0.1,0c-0.1,0.1-0.2-0.1-0.1-0.2c0.1-0.1,0.2-0.1,0.3-0.1s0.1,0.1,0.1,0.1
							C12.1,6.8,12,6.8,12,6.8L12,6.8z"/>
					</g>
					<g id="XMLID_28_">
						<path id="XMLID_29_" d="M11.4,7.1c-0.1,0-0.2,0.1-0.3,0.1S10.9,7.1,11,7c0.1,0,0.2-0.1,0.3-0.1C11.5,6.9,11.5,7.1,11.4,7.1
							L11.4,7.1z"/>
					</g>
					<g id="XMLID_26_">
						<path id="XMLID_27_" d="M15.6,5.9c-1.6-0.3-3.3,0.2-4.7,0.9c-0.1,0.1-0.2-0.1-0.1-0.2c1.5-0.8,3.2-1.3,4.8-1
							C15.7,5.8,15.7,5.9,15.6,5.9L15.6,5.9z"/>
					</g>
					<g id="XMLID_24_">
						<path id="XMLID_25_" class="st0" d="M8.9,9.5c-0.4,0-0.8,0.1-1.2,0.1C7.3,9.6,7.3,9,7.7,9c0.4,0,0.8,0,1.2-0.1
							C9.3,8.9,9.3,9.5,8.9,9.5L8.9,9.5z"/>
					</g>
					<g id="XMLID_22_">
						<path id="XMLID_23_" class="st0" d="M8.8,11.1c0.3-0.2,0.7-0.3,1-0.5s0.1-0.7-0.3-0.5c-0.3,0.2-0.7,0.3-1,0.5
							S8.5,11.3,8.8,11.1L8.8,11.1z"/>
					</g>
					<g id="XMLID_20_">
						<path id="XMLID_21_" class="st0" d="M11,11.9c-0.3,0.4-0.6,0.7-1,1.1c-0.3,0.3-0.7-0.1-0.4-0.4c0.3-0.4,0.6-0.7,1-1.1
							C10.8,11.3,11.2,11.7,11,11.9L11,11.9z"/>
					</g>
					<g id="XMLID_18_">
						<path id="XMLID_19_" class="st3" d="M18.2,13.8c0,0-0.7-1.1-1-1.4c-0.4-0.3-0.3-2-0.6-1.5c-0.3,0.5-0.4,1.1-0.2,1.4
							c0.2,0.2,0.5,0.7,0.2,0.9C16.3,13.4,18.2,13.8,18.2,13.8z"/>
					</g>
					<g id="XMLID_16_">
						<path id="XMLID_17_" class="st8" d="M18,18.7l-0.4-0.3c0.2-2.6,2.1-4.2,2.2-4.3l0.3,0.3L20,14.2l0.1,0.2
							C20.1,14.4,18.2,16.3,18,18.7z"/>
					</g>
					<g id="XMLID_14_">
						<path id="XMLID_15_" class="st8" d="M5.2,27.7c1.9,1,4.5,0,4.6-0.1V27c0,0-2.7,1.1-4.3,0.3l-0.2-0.2L5.2,27.7L5.2,27.7z"/>
					</g>
					<g id="XMLID_12_">
						<path id="XMLID_13_" class="st19" d="M13.6,24L12,18.8c0-0.1-0.1-0.2-0.2-0.2L10,18.2c-0.2,0-0.4,0.2-0.4,0.4l1.5,5.5
							c0,0.1,0.2,0.2,0.3,0.2l2,0.1C13.5,24.5,13.6,24.3,13.6,24z"/>
					</g>
					<g id="XMLID_10_">
						<path id="XMLID_11_" class="st20" d="M13.7,23.9l-1.6-5.2c0-0.1-0.1-0.2-0.2-0.2L10,18.1c-0.2,0-0.4,0.2-0.4,0.4l1.5,5.5
							c0,0.1,0.2,0.2,0.3,0.2l2,0.1C13.6,24.3,13.8,24.1,13.7,23.9z"/>
					</g>
					<g id="XMLID_8_">
						<path id="XMLID_9_" class="st21" d="M13.5,23.6L12.1,19c0-0.1-0.1-0.2-0.2-0.2l-1.6-0.4c-0.2,0-0.4,0.1-0.3,0.4l1.3,4.9
							c0,0.1,0.1,0.2,0.3,0.2l1.8,0.1C13.4,24,13.6,23.8,13.5,23.6z"/>
					</g>
					<g id="XMLID_6_">
						<path id="XMLID_7_" class="st3" d="M20,20.2l-2.7-1.5c0,0-3.5,0.1-3.6,0.8c-0.1,0.6,1.4-0.1,2,0.1c0.6,0.1-0.6,0.3-0.5,0.9
							s0.4,0.3,0.4,0.3s-0.1,0.8,0.3,0.7c0,0,0.3,0.5,0.8,0.2c0,0,2.2-0.1,2.4-0.5C19.3,20.6,20,20.2,20,20.2z"/>
					</g>
					<g id="XMLID_3_">
						<g id="XMLID_4_">
							<path id="XMLID_5_" class="st20" d="M20.6,20.3c-0.5-0.8-1.4,0.2-1.6,0.7c-0.1,0.3-0.2,0.8,0,1.2c0.1,0.3,0.5,0.4,0.7,0.1
								c0.1-0.2-0.1-0.4-0.2-0.2c-0.1,0.1-0.2-0.2-0.3-0.2c0-0.1,0-0.2,0-0.3c0-0.2,0.1-0.4,0.1-0.5c0.1-0.2,0.7-1,0.9-0.5
								C20.5,20.7,20.8,20.5,20.6,20.3L20.6,20.3z"/>
						</g>
					</g>
					<g id="XMLID_1_">
						<g id="XMLID_428_">
							<path id="XMLID_2_" class="st20" d="M21.2,20.6c-0.5-0.8-1.4,0.2-1.6,0.7c-0.1,0.3-0.2,0.8,0,1.2c0.1,0.3,0.5,0.4,0.7,0.2
								l-0.1-0.1c-0.1-0.1-0.2-0.2-0.2-0.3c0,0,0,0,0-0.1l-0.1-0.1c0-0.1,0-0.2,0-0.3c0-0.2,0.1-0.4,0.1-0.5
								c0.1-0.2,0.4-0.6,0.7-0.7h0.1l0,0l0,0c0.1,0,0.2,0,0.3,0.1C21.3,20.7,21.3,20.7,21.2,20.6z"/>
						</g>
					</g>
				</g>
			</g>
		</g>
	</g>
</g>
</svg>
