<?xml version="1.0" encoding="utf-8"?>
<!-- Generator: Adobe Illustrator 21.0.0, SVG Export Plug-In . SVG Version: 6.00 Build 0)  -->
<svg version="1.1" id="Calque_1" xmlns="http://www.w3.org/2000/svg" xmlns:xlink="http://www.w3.org/1999/xlink" x="0px" y="0px"
	 viewBox="0 0 40 40" style="enable-background:new 0 0 40 40;" xml:space="preserve">
<style type="text/css">
	.st0{fill:#FFFFFF;}
	.st1{clip-path:url(#SVGID_2_);fill:#FFE8F7;}
	.st2{clip-path:url(#SVGID_2_);fill:#704F45;}
	.st3{clip-path:url(#SVGID_2_);fill:#595959;}
	.st4{clip-path:url(#SVGID_2_);fill:#8F8F8F;}
	.st5{clip-path:url(#SVGID_2_);fill:#70CFED;}
	.st6{clip-path:url(#SVGID_2_);fill:#FFD100;}
	.st7{clip-path:url(#SVGID_2_);}
	.st8{clip-path:url(#SVGID_2_);fill:#FFFFFF;}
	.st9{clip-path:url(#SVGID_2_);fill:#4A4A4A;}
	.st10{clip-path:url(#SVGID_2_);fill:#2B2B2B;}
	.st11{clip-path:url(#SVGID_2_);fill:#262926;}
	.st12{clip-path:url(#SVGID_2_);fill:#664540;}
	.st13{clip-path:url(#SVGID_2_);fill:#61332E;}
	.st14{clip-path:url(#SVGID_2_);fill:#FAB530;}
	.st15{clip-path:url(#SVGID_2_);fill:#FFF5B8;}
	.st16{clip-path:url(#SVGID_2_);fill:#BF6124;}
	.st17{clip-path:url(#SVGID_2_);fill:#F27830;}
	.st18{clip-path:url(#SVGID_2_);fill:#EDDED6;}
	.st19{clip-path:url(#SVGID_2_);fill:#5C7394;}
	.st20{clip-path:url(#SVGID_2_);fill:#FCD130;}
	.st21{clip-path:url(#SVGID_2_);fill:#D6D6D6;}
</style>
<rect x="0" class="st0" width="40" height="40"/>
<g>
	<g>
		<defs>
			<path id="SVGID_1_" d="M0,18.9v2.2C0.6,31.7,9.3,40,20,40c11.1,0,20-9,20-20S31,0,20,0C9.3,0,0.6,8.4,0,18.9"/>
		</defs>
		<clipPath id="SVGID_2_">
			<use xlink:href="#SVGID_1_"  style="overflow:visible;"/>
		</clipPath>
		<rect x="-10.6" y="-5" class="st1" width="61.3" height="64"/>
		<path class="st2" d="M15.1,9.2c0,0-0.3-0.2-0.4-0.3c0,0-0.2,0.2,0,0.3L15.1,9.2z"/>
		<path class="st2" d="M14.7,9.3c0,0-0.3-0.2-0.4-0.3c0,0-0.2,0.2,0,0.3L14.7,9.3z"/>
		<path class="st2" d="M14.4,9.4c0,0-0.3-0.2-0.4-0.3c0,0-0.2,0.2,0,0.3L14.4,9.4z"/>
		<path class="st3" d="M12.5,11.8l3.9-0.6c0.2,0,0.3-0.2,0.3-0.4l-0.4-1.5C16.2,9.1,16,9,15.8,9L12,9.7c-0.2,0-0.3,0.2-0.3,0.4
			l0.4,1.4C12.1,11.7,12.3,11.9,12.5,11.8"/>
		<path class="st4" d="M12.5,12l3.9-0.6c0.2,0,0.3-0.2,0.3-0.4l-0.4-1.5c0-0.2-0.2-0.3-0.4-0.3L12,9.9c-0.2,0-0.3,0.2-0.3,0.4
			l0.4,1.4C12.1,11.9,12.3,12,12.5,12"/>
		<path class="st5" d="M12.7,11.9l3.5-0.6c0.2,0,0.3-0.2,0.2-0.4l-0.3-1.4c0-0.2-0.2-0.3-0.4-0.2L12.2,10c-0.2,0-0.3,0.2-0.2,0.4
			l0.4,1.3C12.4,11.8,12.5,11.9,12.7,11.9"/>
		<path class="st2" d="M10.9,14.1c0.2,0.1,0.5,0.2,0.7,0.3c0.4-0.5,0.8-0.9,1.3-1.1c0.7-0.4,1.6-0.4,1.7-0.8
			c0.1-0.5,0.2-0.9,0.3-1.3c0.1-0.5,0.3-1.1-0.1-0.6c-0.4,0.5-0.5,0.9-0.5,0.9l-1.7,0.4c0,0-0.7,0.6-0.6,0.9
			C12,12.9,11.5,13.4,10.9,14.1"/>
		<polygon class="st2" points="14.6,12.4 15.4,11.5 14.7,11.6 		"/>
		<path class="st2" d="M11.5,14.6c0.9-0.7,1.7-1.6,1.7-1.6l-1.2-0.3c-0.6,0.4-1.2,0.8-1.7,1.2C10.8,14.1,10.9,14.4,11.5,14.6"/>
		<path class="st6" d="M12.8,13.7c0-0.6-0.8-0.8-1.2-0.9c-0.4-0.1-0.9,0-1,0.5c0,0.2,0.3,0.2,0.3,0c0-0.4,0.6-0.2,0.8-0.1
			c0.3,0.1,0.7,0.2,0.7,0.6C12.5,13.9,12.9,13.9,12.8,13.7"/>
		<path class="st6" d="M12.2,14.4c0.2-0.1,0.5-0.3,0.3-0.6c-0.1-0.3-0.5-0.4-0.8-0.5c-0.4-0.1-1.7-0.3-1.4,0.5
			c0.1,0.2,0.4,0.1,0.3-0.1c-0.1-0.3,2.3,0.1,1.5,0.5C11.9,14.2,12,14.5,12.2,14.4"/>
		<path class="st7" d="M25,28.2l3.1,16.4l-3.4-0.2l-2.4-10.1c-0.1-0.2,0-0.2,0,0l0.9,10c0,0-2.1,0-2.9-0.4c-0.7-0.3-1.6-11.5-2-14.9
			c-0.1-0.6,0.6-2.3,1.2-2.4C21.1,26.4,23.9,26.9,25,28.2"/>
		<path class="st8" d="M22.4,39.3c-1.6-0.2-4.3-0.2-4.4-1.4c-0.1-0.7-0.4-11.2,0.9-15.1c0.1-0.2-2.5,0-2.4-1.1c0,0-0.3-4.7,3.7-5.4
			l2.8,0l2.8,0.8l2.3,1.2c1.5,1.2-0.5,4.1-0.5,4.1s-1.5,9.1-0.4,15.6C27.3,39.1,22.4,39.3,22.4,39.3"/>
		<path class="st7" d="M22.9,16.2c-0.1,0.3-0.2,0.6-0.1,0.9c0.1,0.4,0.2,0.7,0.4,1c0.3,0.6,0.5,1.2,0.5,1.8c0,0.6-0.1,1.3-0.2,1.9
			c-0.3,1.2-0.8,2.5-0.9,3.8c0.4,0,0.9-0.1,1.3,0c-0.1-0.7,0.2-1.4,0.3-2c0.1-0.7,0.2-1.4,0.4-2.1c0.2-0.6,0.3-1.2,0.7-1.8
			c0.5-0.8,1.1-1.5,1.3-2.4l-0.7-0.4L22.9,16.2L22.9,16.2z"/>
		<path class="st7" d="M26.3,32.1c-0.6,0-0.6-0.9,0-0.9C26.9,31.2,26.9,32.1,26.3,32.1 M24.9,32.5c-0.6,0-0.6-0.9,0-0.9
			C25.5,31.5,25.5,32.5,24.9,32.5 M23.6,32.7c-0.6,0-0.6-0.9,0-0.9C24.2,31.7,24.2,32.7,23.6,32.7 M22.1,32.6c-0.6,0-0.6-0.9,0-0.9
			C22.7,31.6,22.7,32.6,22.1,32.6 M20.7,32.4c-0.6,0-0.6-0.9,0-0.9C21.3,31.5,21.3,32.4,20.7,32.4 M19.5,31.9c-0.6,0-0.6-0.9,0-0.9
			C20.1,31,20.1,31.9,19.5,31.9 M18.4,31.3c-0.6,0-0.6-0.9,0-0.9C19,30.4,19,31.3,18.4,31.3 M26.2,30.9c-1.5,0.4-3.1,0.5-4.6,0.3
			c-0.8-0.1-1.6-0.3-2.4-0.6c-0.5-0.2-0.9-0.5-1.3-0.8c0,0.5,0,1-0.1,1.5c0.4,0.5,1,0.9,1.6,1.2c1.3,0.5,2.9,0.7,4.3,0.6
			c1-0.1,2.1-0.3,3-0.6c0-0.5,0-1.1,0-1.6C26.6,30.8,26.4,30.8,26.2,30.9"/>
		<path class="st7" d="M19.7,30.3c1.4,0.6,3,0.7,4.5,0.6c0.9-0.1,1.8-0.3,2.6-0.6c0-0.2,0-0.5,0-0.7c-0.5,0.2-1.1,0.3-1.7,0.4
			c-1.5,0.2-3,0.2-4.4-0.2c-1-0.2-1.9-0.6-2.7-1.2c0,0.2,0,0.4,0,0.6C18.5,29.6,19,30,19.7,30.3"/>
		<path class="st6" d="M26.9,36.4c-0.1,0-0.2,0.1-0.2,0.1c-0.6,0.9-3.2,1.2-4.9,1.1c-1.3,0-2.7-0.3-3.9-1c0,0.6,0,1.1,0.1,1.2
			c0.1,1.3,2.9,1.2,4.4,1.4c0,0,4.9-0.2,4.8-1.2C27.1,37.5,27,37,26.9,36.4"/>
		<path class="st8" d="M27.8,18.3c0,0,2.5,0.7,3.8,4.2c0.2,0.5,3.2,5.6,1.2,8.3c-2.9,3.8-5.5-2.2-5.9-3.4l-0.7-5.1L27.8,18.3z"/>
		<path class="st2" d="M27.5,22C27.5,22,27.5,22,27.5,22c0-0.2,0-0.9,0.1-1.1c0.1-0.2-0.5-0.5-0.5-0.8c0-0.3-0.6,0.2-0.1,0.6
			c0.2,0.2,0,0.7,0,0.7S27.4,22.2,27.5,22"/>
		<path class="st2" d="M23.5,21.5c0,0-0.5,0.3-0.4,0.3c0.1-0.1,0.9-1.1,0.9-1.3c0-0.2,0.6-0.3,0.7-0.6c0.1-0.3,0.4,0.5-0.2,0.6
			c-0.3,0.1-0.2,0.4-0.2,0.4S23.5,21.7,23.5,21.5"/>
		<path class="st9" d="M25.6,18.1l1.6,0.7c0.1,0.1,0.2,0.2,0.2,0.3l-1,4.1c0,0.1-0.3,0.3-0.5,0.2l-1.5-0.8c-0.1-0.1-0.2-0.2-0.2-0.4
			l0.8-3.8C25.1,18.2,25.4,18,25.6,18.1"/>
		<path class="st10" d="M25.5,18.2l1.6,0.7c0.1,0.1,0.2,0.2,0.2,0.3l-1,3.8c-0.1,0.3-0.1,0.5-0.3,0.4l-1.7-0.7
			c-0.1-0.1-0.2-0.2-0.2-0.4l0.9-3.8C25,18.3,25.3,18.1,25.5,18.2"/>
		<path class="st2" d="M27.7,23.7c-0.1-0.6-0.1-1.5-0.3-2c-0.1-0.2-0.1-0.3-0.2-0.4c-0.1-0.1-0.1-0.2-0.1-0.3
			c-0.1-0.3-0.4-0.6-0.6-0.8c-0.2-0.2-0.4-0.4-0.5-0.6c0,0,0-0.1-0.1-0.1c-0.1,0-0.1,0-0.2,0c-0.1,0.1-0.1,0.3,0,0.5
			c0.1,0.1,0.1,0.3,0.2,0.4c0.1,0.1,0.2,0.2,0.2,0.3c0.1,0.2,0.1,0.3,0.3,0.5c0.2,0.2,0.4,0.3,0.6,0.5c0,0-0.6-0.7-1.3-1
			c-0.2-0.1-0.4,0-0.6,0c-0.1,0-0.3,0.1-0.4,0.1c-0.1,0-0.2,0-0.3,0c0,0,0,0,0,0.1l0,0c0,0.1,0.1,0.2,0.2,0.2c0.3,0.1,0.7,0.1,1.1,0
			l0.9,0.9c0,0-0.5-0.3-1.2-0.5c-0.3-0.1-0.4,0.1-0.6,0.3c-0.1,0.1-0.2,0.3-0.4,0.4c0,0,0,0,0,0c0,0,0,0,0,0c0,0.1,0.1,0.1,0.2,0.1
			c0.1,0,0.2,0,0.3-0.1c0.1-0.1,0.2-0.2,0.3-0.3l0.9,0.6c-0.2,0-0.3,0-0.5-0.1c-0.2,0-0.7-0.1-0.8,0.1c-0.1,0.2,0,0.4,0,0.6
			c0,0,0,0.1,0,0.1c0,0.1,0.1,0.1,0.2,0.1c0.1,0,0.1,0,0.2-0.1c0.1-0.1,0.1-0.3,0-0.4c0,0,0.6,0.1,0.7,0.2c0.8,1.9,1.3,1.7,1.3,1.7
			S27.7,24.4,27.7,23.7"/>
		<path class="st2" d="M25,21L25,21C25.1,21,25.1,21,25,21C25.1,21,25.1,21,25,21 M25.3,23.2c0,0.1,0.1,0.1,0.1,0.1
			c0.1,0,0.1,0,0.2-0.1c0,0,0-0.1,0-0.1c0-0.2,0.2-0.4,0.1-0.6c-0.1-0.3-0.6-0.2-0.8-0.3c-0.2,0-0.3,0-0.5,0l1-0.4
			c0.1,0.1,0.1,0.3,0.3,0.4c0.1,0.1,0.2,0.1,0.2,0.1c0.1,0,0.2,0,0.3-0.1c0,0,0,0,0,0c0,0,0,0,0,0c-0.1-0.1-0.2-0.3-0.3-0.4
			c0,0,0-0.1,0-0.1c0.1,0,0.2,0,0.4,0c0.1,0,0.2,0,0.3-0.1l0,0c0,0,0,0,0-0.1c-0.1-0.1-0.2-0.1-0.3-0.1c-0.2,0-0.3-0.1-0.4-0.2
			c0.1,0,0.1,0,0.2,0c0.2,0,0.3,0,0.4-0.1c0,0,0,0,0,0c0,0,0,0,0-0.1c-0.1-0.1-0.2-0.1-0.3-0.1c-0.4-0.1-0.6-0.4-1-0.3
			c-0.2,0.1-0.4,0.1-0.6,0.3c0,0,0,0,0,0c-0.5,0.3-0.9,0.6-1.3,1c0,0-0.1,0.1-0.1,0.1c-0.2,0.5-0.4,1-0.6,1.4c0,0.2,0,0.4,0.1,0.6
			c0.4,0.1,0.7,0.1,1.1,0c0.4-0.1,0.6-0.5,0.9-0.8c0,0,0,0,0.1,0c0,0,0,0,0.1-0.1c0.1-0.1,0.7-0.1,0.7-0.1
			C25.2,22.9,25.2,23.1,25.3,23.2"/>
		<path class="st9" d="M25.3,18.4C25.3,18.4,25.3,18.4,25.3,18.4c-0.1,0-0.1,0.1-0.1,0.1c0,0.1,0,0.1,0,0.1c0,0,0,0,0.1,0
			c0,0,0,0,0-0.1C25.4,18.5,25.3,18.5,25.3,18.4L25.3,18.4z M25.1,18.5c0,0,0-0.1,0.1-0.1c0,0,0.1,0,0.1,0c0.1,0,0.1,0.1,0.1,0.2
			c0,0,0,0.1-0.1,0.1c0,0-0.1,0-0.1,0l0,0C25.2,18.7,25.1,18.6,25.1,18.5"/>
		<path class="st11" d="M25.7,19.6c0,0-0.1,0.1-0.1,0.2c0,0.4,0.3,0.6,0.5,0.9c0,0,0,0,0,0c0.1,0.1,0.2,0.1,0.2,0.2
			c-0.1-0.1-0.1-0.2-0.2-0.3c-0.1-0.1-0.2-0.2-0.2-0.3c-0.1-0.1-0.2-0.2-0.2-0.4C25.7,19.8,25.7,19.7,25.7,19.6"/>
		<path class="st12" d="M25.8,19.6C25.7,19.6,25.7,19.6,25.8,19.6c-0.1,0.1,0,0.2,0,0.3c0.1,0.1,0.1,0.3,0.2,0.4
			c0.1,0.1,0.2,0.2,0.2,0.3c0.1,0.1,0.1,0.2,0.2,0.3c-0.1-0.1-0.1-0.1-0.2-0.2c0,0,0,0,0,0c0.1,0.1,0.2,0.1,0.3,0.2
			c0.1,0.1,0.3,0.2,0.4,0.3C26.7,20.7,26.1,20.2,25.8,19.6C25.8,19.6,25.8,19.6,25.8,19.6"/>
		<path class="st7" d="M29.6,11.6c0.2,0,0.4-0.1,0.6-0.3L30,11.2c0.3-0.1,0.3-0.6,0-0.8c0.2-0.1,0.3-0.3,0.4-0.4
			c0-0.2-0.2-0.4-0.3-0.3c0.1-0.2,0.2-0.4,0.2-0.6c0-0.1,0-0.3-0.1-0.4c-0.1-0.1-0.3-0.1-0.3,0c0.1-0.3,0-0.6-0.2-0.8
			c-0.2-0.2-0.5-0.3-0.8-0.3c0.1-0.2-0.2-0.4-0.4-0.4c-0.2,0-0.4,0.2-0.5,0.4c0-0.2-0.1-0.4-0.3-0.5c-0.2-0.1-0.4,0-0.6,0.1
			c0-0.2-0.4-0.3-0.6-0.2c-0.2,0.1-0.3,0.3-0.4,0.6c-0.1-0.1-0.4-0.1-0.5,0c-0.2,0.1-0.2,0.3-0.2,0.5c-0.2-0.1-0.5,0-0.6,0.1
			c-0.1,0.2-0.2,0.4,0,0.6c-0.2,0-0.4,0.1-0.4,0.3c-0.1,0.2,0,0.4,0.1,0.5c-0.2,0-0.4,0.2-0.4,0.3c-0.1,0.2,0,0.4,0.2,0.5
			c-0.2,0-0.3,0.2-0.3,0.4c0,0.2,0.2,0.3,0.3,0.4c-0.2-0.1-0.4,0.1-0.4,0.4c0,0.2,0.2,0.4,0.4,0.4c-0.2,0.2-0.1,0.7,0.2,0.8
			c0.3,0.1,0.7-0.1,1-0.3c1-0.5,2.3-0.3,3.3-0.6"/>
		<path class="st13" d="M22.7,15.5c0.2-0.1,0.4-0.3,0.5-0.5c0.2-0.3,0.3-0.5,0.5-0.9c0.4-0.8,0.8-1.6,1.1-2.4c0,0.5,0.2,1.3,0.2,1.8
			c0,0.6,0.2,1.2,0.6,1.5c0.2,0.1,0.4,0.1,0.6,0.2c0.1,0,0.7,0.4,0.8,0.3c-0.4,0.6-1.1,2.8-1.1,2.8s-0.5,0.2-1.7-0.4
			c-0.5-0.3-1-0.6-1.3-1.1c-0.2-0.2-0.4-0.5-0.4-0.8C22.3,15.7,22.4,15.6,22.7,15.5"/>
		<path class="st2" d="M26.9,10L26.9,10c0.9,0,2.6,0.6,2.8,1.5c0,0.1,0,0.2,0,0.3c0,0.4-0.2,0.8-0.3,1.1c-0.2,0.6-0.4,1.3-0.8,1.9
			c-0.4,0.6-1.2,1.7-2,1.7c-0.9,0-1.5-1.1-1.8-1.7C24.2,13.1,24.4,10,26.9,10"/>
		<path class="st7" d="M26.7,11.9c0.2,0.1,0.3,0.2,0.5,0.2c-0.2,0.2-0.4,0.4-0.6,0.2c0,0-0.4-0.4-0.5-0.5C26,11.7,26,11.7,26,11.7
			C26.2,11.5,26.5,11.8,26.7,11.9"/>
		<path class="st7" d="M28.9,13c0.2,0.1,0.4,0.1,0.3,0.4c0,0-0.5-0.1-0.6-0.1c-0.1,0-0.1,0-0.2-0.1c-0.1-0.1-0.1-0.2-0.1-0.4
			C28.4,12.8,28.8,13,28.9,13"/>
		<path class="st13" d="M27.4,13.1c0,0.3-0.1,0.5-0.1,0.8c0,0.1,0,0.2,0.1,0.3c0.1,0.1,0.1,0.2,0.1,0.3c0,0.5-0.7,0.2-0.8-0.2
			C26.7,14,27,12.9,27.4,13.1"/>
		<path class="st13" d="M25.8,14.2C25.9,14.1,26,14.1,25.8,14.2l0,0.3c-0.1,0.1-0.1,0-0.1,0L25.8,14.2z"/>
		<path class="st14" d="M22.7,15.5c-0.1,0,0.1,0.8,0.1,0.8c0.2,0.5,0.6,0.8,1,1c0.3,0.1,0.5,0.2,0.8,0.3c0.3,0.1,0.5,0,0.8,0
			c0.1,0,0.7-0.4,0.7-0.4c0.1,0.1,0.2,0.3,0.3,0.4c-0.1,0.1-0.1,0.2-0.2,0.2c-0.1,0.2-0.3,0.3-0.6,0.4c-0.4,0.2-0.9,0.2-1.5,0
			c-0.7-0.2-1.3-0.6-1.7-1.2c-0.2-0.3-0.3-0.5-0.4-0.8c0-0.2-0.2-0.7-0.1-0.8C22.2,15.4,22.6,15.5,22.7,15.5"/>
		<path class="st7" d="M26.5,7.5c0.1-0.2,0.4-0.8,0.7-0.5c-0.1,0.1-0.2,0.3-0.2,0.4c0-0.1,0.7-0.2,0.7-0.2c0.3,0,1.6,0.2,1.6,0.7
			c-0.2,0-0.3,0.1-0.4,0.2c0.3-0.3,1.3,1,1.2,1.3c-0.1,0-0.2,0-0.3,0c0,0.1,0.2,0.3,0.2,0.4c0.1,0.2,0.3,0.9,0.2,1.1
			c-0.1,0.4-0.4,0.4-0.7,0.3c-0.4,0-0.9-0.1-1.3-0.3c-0.2-0.1-0.4-0.2-0.6-0.2c-0.2,0-0.3,0.1-0.5,0c-0.5-0.3-0.5-1-0.5-1.5
			C26.6,8.7,26.2,8.1,26.5,7.5"/>
		<path class="st7" d="M25.6,8c0.2-0.1,0.6-0.3,0.8-0.2c0.4,0.2,0.3,1.1,0.3,1.4c0,0.3,0.1,0.6,0.1,0.9c0,0.4-0.1,0.4-0.5,0.5
			c-0.7,0.1-1.1,0.8-1.3,1.4c-0.3,0-0.3-0.7-0.3-0.9c0-0.4-0.3-0.9-0.3-1.4C24.6,9,25,8.4,25.6,8"/>
		<path class="st2" d="M24.6,10.8c0.7-0.2,0.4,1.3,0.1,1.5c-0.1,0.1-0.4-0.6-0.4-0.7C24.2,11.4,24.2,10.9,24.6,10.8"/>
		<path class="st7" d="M26.2,12.5c0.1,0.1,0.1,0.2,0,0.3C26.1,13,26,13,25.9,12.9c-0.1-0.1-0.1-0.2,0-0.3
			C25.9,12.5,26.1,12.5,26.2,12.5"/>
		<path class="st7" d="M28.3,13.9c0.1,0.1,0.1,0.2,0.1,0.3c-0.1,0.1-0.2,0.1-0.3,0.1C28,14.2,27.9,14.1,28,14
			C28.1,13.9,28.2,13.8,28.3,13.9"/>
		<path class="st7" d="M25.6,12.1c0.4,0.1,0.9,0.5,1.1,0.9c0,0,0,0.1,0,0.1c0,0-0.1,0-0.1,0c0,0,0,0,0,0c-0.2-0.3-0.6-0.7-0.9-0.8
			C25.5,12.2,25.5,12.2,25.6,12.1C25.5,12.1,25.5,12.1,25.6,12.1"/>
		<path class="st7" d="M28.1,13.7c0.1,0,0.1,0,0.2,0.1c0.1,0.1,0.2,0.2,0.3,0.3l0,0c0,0,0,0.1,0,0.1c0,0-0.1,0-0.1,0l0,0
			c-0.1-0.1-0.2-0.2-0.3-0.2c0,0-0.1,0-0.1-0.1c0,0-0.2-0.1-0.2-0.2C27.9,13.6,28,13.6,28.1,13.7"/>
		<path class="st13" d="M24.6,11.2c0,0.1,0,0.2,0,0.4l-0.2,0C24.4,11.4,24.4,11.2,24.6,11.2"/>
		<path class="st13" d="M27.5,15.2C27.6,15.1,27.6,15.2,27.5,15.2l0,0.2c0,0.1-0.1,0-0.1,0L27.5,15.2z"/>
		<path class="st15" d="M25.6,17.7c0.1,0,0.2,0.1,0.2,0.2c0,0,0,0,0,0c0.1,0.1,0.1,0.2,0,0.3c-0.1,0.1-0.3,0.1-0.3,0
			c-0.1-0.1-0.2-0.2-0.2-0.3C25.4,17.8,25.5,17.7,25.6,17.7"/>
		<path class="st15" d="M24.6,17.7c0.1,0,0.2,0.1,0.2,0.2c0,0.1-0.1,0.2-0.2,0.2c-0.1,0.1-0.2,0.1-0.3,0c-0.1-0.1-0.1-0.3,0-0.3
			C24.4,17.8,24.5,17.7,24.6,17.7"/>
		<path class="st15" d="M23.7,17.4c0.3,0,0.3,0.5,0,0.5C23.4,17.9,23.4,17.4,23.7,17.4"/>
		<path class="st15" d="M22.8,16.5c0.1,0,0.1,0,0.2,0.1c0.1,0,0.1,0.1,0.1,0.2c0,0.1-0.1,0.2-0.2,0.2c-0.2,0-0.3-0.1-0.3-0.3
			C22.6,16.7,22.7,16.5,22.8,16.5"/>
		<path class="st15" d="M22.4,15.7L22.4,15.7c0.2,0,0.3,0.1,0.3,0.2c0,0.1-0.1,0.2-0.2,0.2h0c-0.1,0-0.2-0.1-0.2-0.2
			C22.2,15.8,22.3,15.7,22.4,15.7"/>
		<path class="st13" d="M25.3,13.3c0.2-0.2,1,0,0.7,0.4C25.7,14,24.9,13.7,25.3,13.3C25.2,13.3,25.3,13.3,25.3,13.3"/>
		<path class="st13" d="M27.8,14.5C27.8,14.6,27.8,14.5,27.8,14.5c0.2-0.2,0.8,0.1,0.5,0.4C28.1,15.1,27.6,14.8,27.8,14.5"/>
		<path class="st8" d="M26.1,14.5C26.1,14.5,26.1,14.5,26.1,14.5c0.2,0.2,1.2,0.7,1.3,0.7c-0.2,0.2-0.5,0.5-0.9,0.3
			C25.9,15.2,26,14.5,26.1,14.5"/>
		<path class="st2" d="M27.7,23.4c0,0,2,3.9,4.4,4.7c2.4,0.8,2.3,5.3-0.8,4.8c-3.1-0.5-4.8-7.6-4.5-8.9C27,22.7,27.7,23.4,27.7,23.4
			"/>
		<path class="st2" d="M22.7,22.9c0,0-3.4,1.8-7.2,1c-3.8-0.8-4.6,4.5-1.9,4.8c2.7,0.3,9.5-3.6,9.5-4.9
			C23.2,22.4,22.7,22.9,22.7,22.9"/>
		<path class="st4" d="M11.9,25.1C11.9,25.1,11.9,25.1,11.9,25.1L11.9,25.1C11.9,25.1,11.9,25.1,11.9,25.1"/>
		<path class="st4" d="M11.9,25C11.8,25,11.8,25,11.9,25C11.8,25,11.8,25,11.9,25L11.9,25z"/>
		<path class="st4" d="M11.7,25.1L11.7,25.1C11.7,25.2,11.7,25.2,11.7,25.1C11.7,25.2,11.7,25.2,11.7,25.1"/>
		<path class="st4" d="M12.1,25.1C12.1,25.1,12.1,25.1,12.1,25.1C12.1,25.1,12.1,25.1,12.1,25.1C12.1,25.1,12.1,25.1,12.1,25.1"/>
		<path class="st7" d="M20,24.2C20,24.2,20,24.2,20,24.2C20,24.1,20,24.1,20,24.2c-0.1,0-0.1,0-0.1,0c0,0,0,0,0,0c0,0,0,0,0.1,0.1
			c0,0,0.1,0,0.1,0C20.1,24.2,20.1,24.2,20,24.2"/>
		<path class="st16" d="M17.8,16.8c0,0-4.4-0.9-4.8-0.5c-0.4,0.4-0.6,3.7-0.2,4c0.3,0.3,3.3-0.2,3.3-0.2S18.2,18.3,17.8,16.8"/>
		<path class="st17" d="M21.2,20.9c0-0.6-0.6-3.1-2-4c-0.6-0.3-0.6-0.2-1.3,0l-1.7,0.1c-1,0.1-1.9,0.9-2.2,1.9
			c-0.1,0.2-0.1,0.4-0.1,0.6c-0.1,0.3-0.2,0.7-0.3,1c-0.4,1-0.8,2.1-1.2,3.1c-0.1,0.2-0.2,0.4-0.4,0.5c0.3,0.2,0.7,0.5,1,0.7
			c-0.5,0.9,2.2,3.2,0.9,5.4c-1.7,2.8-3.8,9.1-4,10.9c0.4,0.2,10,5.1,14.6,0.4c-1.2-1.5-4-10.7-4.1-12.3
			C20.2,27.1,21.2,23.8,21.2,20.9"/>
		<path class="st2" d="M7.6,22.3c-0.1-0.2,0-0.3,0.1-0.4c0.1-0.3,0.2-0.9,0.1-1c-0.1-0.1-0.5-0.2-0.5-0.2s-0.5-0.6-0.7-0.5
			c-0.2,0-0.3,0.3-0.3,0.5C6.4,20.8,5.9,21.8,6,22c0.1,0.2,0.8,0.8,0.9,0.8c0.1,0.1,2.4,3.5,3.6,3.8c0.3,0.1,0.6,0.1,0.6,0.1
			l0.1-0.1C9.8,25.4,8.4,24.1,7.6,22.3"/>
		<path class="st7" d="M17,7.2c-0.8,0-1.5,0.6-2.1,1.1c-0.5,0.4-0.9,1.1-1.1,1.7c-0.2,0.7-0.4,1.6-0.3,2.3c0,0.8,0.4,1.5-0.2,2.1
			c-0.4,0.4-0.9,1.1-0.9,1.7c0,0.1,0,0.1,0,0.2c0.1-0.1,0.7,0.6,0.9,0.7c0.8,0.2,1.1-0.4,1.9-0.2c0.2-0.7,0.3-1.4,0.1-2
			c-0.1-0.4-0.4-0.7-0.6-1.1c-0.7-1.4-0.5-4,1-4.9c0.6-0.3,1.4-0.2,2-0.5C18.6,7.8,17.8,7.2,17,7.2"/>
		<path class="st13" d="M15.3,15.5c0,0.6,0,1.2-0.2,1.8c1-0.6,1.5-0.2,2.3,0.2c0.1,0,0.1,0.1,0.2,0.2c0.3,0.3,0.7,0.5,1.2,0.6
			c0.1,0,0.3,0,0.4,0c0,0,0.2,0,0.3-0.1c0-0.1,0-0.2,0-0.3v-1c-0.3-0.1-0.6-0.2-0.7-0.6c-0.2-0.7-0.3-1.3-0.4-2
			c-0.1-0.8,0.1-1.7-0.4-2.4c-0.5,0.9-1.8,2.4-2.9,2.3C15.1,14.3,15.3,15,15.3,15.5"/>
		<path class="st2" d="M15.9,8.4c0.2-0.1,0.5-0.1,0.8-0.1c0.9,0.1,1.6,0.5,2,1.3c0.2,0.5,0.3,1,0.3,1.5c0,0.6-0.1,1.2-0.4,1.7
			c-0.2,0.4-0.6,0.6-0.9,0.8c-0.3,0.2-0.7,0.4-1.1,0.6c-0.7,0.3-1.5,0.4-2-0.4c-0.3-0.6-0.5-1.2-0.5-1.9
			C14.1,10.7,14.5,8.8,15.9,8.4"/>
		<path class="st7" d="M17.5,10.7c0.2,0,0.5,0.1,0.5,0.3c0,0,0,0-0.1,0c-0.2,0-0.6,0-0.6-0.1c-0.2,0-0.2-0.3-0.2-0.5
			C17.2,10.5,17.3,10.6,17.5,10.7"/>
		<path class="st7" d="M15.2,10.2c0,0,0.5,0.1,0.5,0.1c-0.1,0.2-0.1,0.3-0.2,0.3c0,0-0.1,0-0.2,0c0,0-0.5-0.3-0.5-0.2
			C14.8,10.1,14.9,10.1,15.2,10.2"/>
		<path class="st2" d="M15.4,12c0.1,0,0.1-0.1,0.1-0.2c0.1-0.2,0.1-0.4,0.2-0.6c0.4,0,0.1,1,0,1.1c-0.2,0.2-0.7,0.2-0.5-0.2
			C15.3,12.1,15.4,12,15.4,12"/>
		<path class="st18" d="M16.8,11.7L16.8,11.7C16.8,11.7,16.8,11.7,16.8,11.7L16.8,11.7z"/>
		<path class="st7" d="M14.7,11.1c-0.1,0.2-0.1,0.3,0,0.4c0.1,0.1,0.2,0.1,0.3,0.1c0.1,0,0.2-0.1,0.2-0.3l0.1,0
			c0,0.2-0.1,0.3-0.3,0.4c-0.2,0.1-0.4,0-0.5-0.1c-0.1-0.1-0.2-0.2,0-0.6L14.7,11.1z"/>
		<path class="st7" d="M16.9,11.4c-0.1,0.3-0.1,0.5,0,0.6c0.1,0.1,0.3,0.1,0.5,0c0.2-0.1,0.3-0.2,0.3-0.4l0.2,0
			c0,0.3-0.2,0.5-0.4,0.6c-0.3,0.1-0.5,0.1-0.7-0.1c-0.1-0.1-0.3-0.3-0.1-0.8L16.9,11.4z"/>
		<path class="st13" d="M16.7,12.6c0.2-0.3,1.1-0.2,0.8,0.3C17.3,13.3,16.4,13.1,16.7,12.6C16.7,12.7,16.7,12.6,16.7,12.6"/>
		<path class="st13" d="M14.4,12.2c0.1-0.2,0.8-0.2,0.6,0.2C14.8,12.8,14.1,12.6,14.4,12.2C14.3,12.3,14.4,12.2,14.4,12.2"/>
		<path class="st19" d="M15.6,12.9c0.1,0,0.1,0.1,0.1,0.1c0,0.1,0,0.2,0,0.2c0,0.1-0.2,0.2-0.2,0c0-0.1,0-0.2,0-0.3
			C15.5,12.9,15.5,12.9,15.6,12.9"/>
		<path class="st13" d="M16.4,13c0,0,0,0.2,0,0.2c0,0,0,0,0,0C16.4,13.1,16.4,13,16.4,13"/>
		<path class="st8" d="M16.3,13.1c0,0-0.1,0.1-0.1,0.1c-0.5,0.3-1.2,0.3-1.2-0.4c0.1,0.1,0.4,0.1,0.6,0.2C15.8,13,16,13.1,16.3,13.1
			"/>
		<path class="st13" d="M15,12.7c0.1,0,0.1-0.1,0.2-0.1c0.1,0,0.1,0.1,0.2,0.2c0.1,0,0.1-0.1,0.2-0.1c0.1,0,0.2,0.1,0.3,0.1
			c0.1,0.1,0.3,0.2,0.4,0.2c0,0-0.1,0-0.1,0c0,0-0.6,0-0.8-0.1c-0.1,0-0.2,0-0.3-0.1c0,0-0.1,0-0.1-0.1c0,0-0.1-0.1-0.1-0.1
			C15,12.8,15,12.7,15,12.7"/>
		<path class="st13" d="M15.2,13.3C15.2,13.3,15.3,13.3,15.2,13.3c0.2,0.1,0.5,0.1,0.7,0.1c0.1,0,0.2-0.1,0.3-0.1
			c0.1,0,0.1-0.1,0.1-0.2c0,0,0,0.1-0.1,0.2c-0.1,0.2-0.4,0.4-0.7,0.4c-0.2,0-0.4-0.1-0.5-0.2C15,13.3,15,13.1,15,12.9
			c0,0,0-0.1,0-0.1C15,13,15.1,13.2,15.2,13.3"/>
		<path class="st7" d="M17.6,7.4c0.3-0.1,0.6-0.2,1-0.1c0.7,0.2,1.2,0.8,1.6,1.4c0.4,0.6,1.3,0.6,1.7,1.2c0.9,1.2-0.4,2.7,0.4,3.9
			c0.4,0.6,1.2,1,1.2,1.8c0.1,1.4-1.4,2.2-2.6,2.2c-1.3,0.1-2.8-0.4-2.7-1.9c0-0.4,0.1-0.5-0.1-0.9c-0.1-0.2-0.2-0.4-0.2-0.6
			c-0.1-0.6,0-1,0.4-1.5c0.3-0.4,0.4-0.9,0.5-1.3c0.2-0.7-0.1-1.5-0.5-2.1c-0.2-0.3-0.5-0.5-0.8-0.7c-0.3-0.2-0.9-0.3-0.9-0.7
			C16.7,7.9,17.3,7.5,17.6,7.4"/>
		<path class="st2" d="M19.3,11.6c0.6,0.1,0.4,1,0,1.2c0,0-0.1,0-0.2,0c-0.2,0-0.6-0.1-0.6,0C18.6,12.5,18.7,11.5,19.3,11.6"/>
		<path class="st13" d="M19.3,12.2c0,0.2,0,0.4-0.3,0.3c0-0.1,0.1-0.3,0.1-0.4L19.3,12.2z"/>
		<path class="st20" d="M20.3,10.7c0,0-3.8-3.5-5.4-2.6c0,0-0.5,0.8-0.5,1c0,0.2-0.8-0.7-0.7-0.9c0.1-0.3,0.8-1.5,0.7-1.7
			c-0.1-0.2,0.9-1.2,0.9-1.2l0.6-1.3l3,0.1c0,0,2.8,0.5,2.8,0.7s0.3,2,0.1,2c-0.2,0-0.7,0.2-0.7,0.2l1,2.2l-1.2,0.9V11l-0.3,0.6
			L20.3,10.7z"/>
		<path class="st2" d="M7.5,21.9c0,0,1.4,2.9,2.9,3.5c0.6,0.2,1.4-1.1,1.8-1.3l2.5,1.5c0,0-2.4,5.7-4.9,4.3c-3-1.6-2.8-7.4-2.8-7.4
			L7.5,21.9z"/>
		<path class="st7" d="M14.7,18.3C14.7,18.4,14.7,18.4,14.7,18.3c-0.2,0.2,0,0.3,0.1,0.2c0,0,0.1-0.1,0.1-0.1
			C15,18.4,14.8,18.2,14.7,18.3"/>
		<path class="st7" d="M14.3,19.5c-0.1,0.1-0.2,0.2-0.3,0.3c-0.1,0.1,0.1,0.3,0.2,0.2c0.1-0.1,0.2-0.2,0.3-0.3
			C14.5,19.6,14.4,19.4,14.3,19.5"/>
		<path class="st7" d="M13.7,20.3c-0.1,0.2-0.1,0.3-0.2,0.5c-0.1,0.1,0.1,0.2,0.2,0.1c0.1-0.2,0.1-0.3,0.2-0.5
			C14,20.3,13.8,20.2,13.7,20.3"/>
		<path class="st7" d="M13.2,21.7c-0.1,0.2-0.2,0.3-0.2,0.5c0,0.1,0.2,0.2,0.2,0.1c0-0.2,0.1-0.3,0.2-0.5
			C13.5,21.7,13.3,21.6,13.2,21.7"/>
		<path class="st7" d="M12.7,22.9c-0.1,0.1-0.2,0.2-0.2,0.4c0,0.1,0.2,0.2,0.2,0.1c0-0.1,0.1-0.2,0.2-0.3
			C13,22.9,12.9,22.8,12.7,22.9"/>
		<path class="st7" d="M15.5,17.9c0.1-0.1,0.2-0.1,0.3-0.2c0,0,0.1-0.1,0-0.1c0,0-0.1-0.1-0.1,0c-0.1,0.1-0.2,0.1-0.3,0.2
			c0,0-0.1,0.1,0,0.1C15.3,17.9,15.4,17.9,15.5,17.9"/>
		<path class="st7" d="M16.4,17.7c0.1,0,0.2,0,0.3,0c0.1,0.1,0.2-0.1,0.1-0.2c-0.1-0.1-0.3-0.1-0.5-0.1
			C16.2,17.5,16.3,17.7,16.4,17.7"/>
		<path class="st20" d="M15.3,17.4c1.1-0.8,1.9,0.4,2.8,0.8c0.4,0.2,2,0.3,1.6-0.6c-0.1-0.2-0.6-0.1-0.5,0.1
			c-0.1,0.1-0.1,0.2-0.2,0.3c-0.1,0-0.1,0-0.2,0c-0.1,0-0.3-0.1-0.4-0.1c-0.2-0.1-0.4-0.2-0.6-0.4c-0.3-0.2-0.6-0.5-1-0.6
			c-0.6-0.2-1.3-0.1-1.9,0.3C14.7,17.3,15.1,17.5,15.3,17.4"/>
		<path class="st7" d="M16.8,17.9c-0.2-0.1-0.4,0-0.5,0.2c-0.1,0.1,0.1,0.2,0.2,0.1c0.1-0.1,0.2-0.1,0.3-0.1
			C16.8,18.1,16.9,17.9,16.8,17.9"/>
		<path class="st7" d="M15.7,18.4c-0.2,0.1-0.3,0.3-0.4,0.5c0,0.1,0,0.1,0,0.1c0,0,0.1,0,0.1,0c0.1-0.2,0.2-0.3,0.3-0.4
			C16,18.5,15.8,18.3,15.7,18.4"/>
		<path class="st7" d="M15,19.6c-0.1,0.1-0.1,0.3-0.2,0.4c-0.1,0.1,0.1,0.2,0.2,0.1c0.1-0.1,0.1-0.3,0.2-0.4
			C15.3,19.6,15.1,19.5,15,19.6"/>
		<path class="st7" d="M14.5,20.7c-0.1,0.2-0.1,0.3-0.2,0.5c-0.1,0.1,0.2,0.2,0.2,0.1c0.1-0.2,0.1-0.3,0.2-0.5
			C14.7,20.7,14.5,20.6,14.5,20.7"/>
		<path class="st7" d="M13.9,22.1c0,0.2-0.1,0.4-0.2,0.5c-0.1,0.1,0.1,0.2,0.2,0.1c0.1-0.2,0.2-0.4,0.2-0.6
			C14.1,22,13.9,21.9,13.9,22.1"/>
		<path class="st7" d="M13.5,23.4c-0.1,0.1-0.2,0.2-0.3,0.4c-0.1,0.1,0.1,0.2,0.2,0.1c0.1-0.1,0.2-0.2,0.3-0.4
			C13.7,23.4,13.5,23.3,13.5,23.4"/>
		<path class="st7" d="M13,24.4C12.9,24.4,12.9,24.4,13,24.4c-0.1,0.1-0.1,0.2,0,0.2c0,0,0.1,0,0.1,0c0,0,0-0.1,0-0.1
			c0-0.1,0-0.1,0-0.1C13.1,24.3,13,24.3,13,24.4"/>
		<path class="st7" d="M17,18.3c-0.2,0-0.4,0.2-0.5,0.4c-0.1,0.1,0.1,0.2,0.2,0.1c0.1-0.1,0.2-0.2,0.4-0.3
			C17.2,18.5,17.1,18.3,17,18.3"/>
		<path class="st7" d="M16,19.3c-0.1,0.1-0.1,0.3-0.2,0.4C15.8,19.9,16,20,16,19.9c0.1-0.1,0.1-0.3,0.2-0.4
			C16.3,19.3,16.1,19.2,16,19.3"/>
		<path class="st7" d="M15.6,20.5c0,0.1-0.1,0.3-0.2,0.4c-0.1,0.1,0.1,0.2,0.2,0.1c0.1-0.1,0.2-0.3,0.2-0.4c0-0.1,0-0.1-0.1-0.1
			C15.6,20.4,15.6,20.4,15.6,20.5"/>
		<path class="st7" d="M15.1,21.7c0,0.1-0.1,0.2-0.1,0.3c0,0,0,0.1,0,0.1c0.1,0,0.1,0,0.1,0c0.1-0.1,0.1-0.2,0.2-0.4
			C15.3,21.7,15.1,21.6,15.1,21.7"/>
		<path class="st7" d="M14.6,23c-0.1,0.2-0.1,0.4-0.3,0.6c-0.1,0.1,0.1,0.2,0.2,0.1c0.1-0.2,0.2-0.4,0.3-0.7
			C14.8,22.9,14.6,22.8,14.6,23"/>
		<path class="st7" d="M13.9,24.3c0,0.2-0.1,0.3-0.2,0.4c-0.1,0.1,0.1,0.3,0.2,0.2c0.1-0.2,0.2-0.3,0.3-0.5
			C14.2,24.2,14,24.2,13.9,24.3"/>
		<path class="st7" d="M17,19.2c-0.1,0.1-0.2,0.2-0.3,0.3c-0.1,0.1,0.1,0.2,0.2,0.1c0.1-0.1,0.1-0.2,0.2-0.3
			C17.2,19.3,17.1,19.1,17,19.2"/>
		<path class="st7" d="M16.4,20.5c-0.1,0.1-0.1,0.3-0.2,0.4c0,0.1,0,0.1,0.1,0.1c0.1,0,0.1,0,0.1-0.1c0.1-0.1,0.1-0.3,0.2-0.4
			c0-0.1,0-0.1-0.1-0.1C16.4,20.4,16.4,20.5,16.4,20.5"/>
		<path class="st7" d="M16,21.6c0,0.1-0.1,0.3-0.2,0.4c-0.1,0.1,0.1,0.2,0.2,0.1c0.1-0.2,0.2-0.3,0.2-0.5C16.2,21.5,16,21.5,16,21.6
			"/>
		<path class="st7" d="M15.6,22.7c-0.1,0.2-0.2,0.4-0.2,0.6c0,0.1,0.2,0.2,0.2,0.1c0-0.2,0.1-0.4,0.2-0.5
			C15.9,22.7,15.7,22.6,15.6,22.7"/>
		<path class="st7" d="M15.2,23.9C15.1,24,15,24.2,15,24.4c0,0.1,0.2,0.2,0.2,0.1c0.1-0.2,0.1-0.4,0.2-0.5
			C15.4,23.8,15.2,23.7,15.2,23.9"/>
		<path class="st7" d="M14.8,24.8c-0.1,0.2-0.1,0.3-0.2,0.5c-0.1,0.1,0.1,0.2,0.2,0.1c0.1-0.2,0.1-0.3,0.2-0.5
			C15,24.7,14.8,24.6,14.8,24.8"/>
		<path class="st7" d="M10.1,39.4c0.1,0.1,0.2,0.1,0.3,0.2c0.1,0.1,0.2-0.1,0.1-0.2c-0.1-0.1-0.2-0.1-0.3-0.2
			C10.1,39.2,9.9,39.4,10.1,39.4"/>
		<path class="st7" d="M11,39.9c0.2,0,0.3,0.1,0.5,0.1c0.1,0,0.2-0.2,0.1-0.2c-0.2,0-0.3-0.1-0.5-0.1C10.9,39.6,10.8,39.8,11,39.9"
			/>
		<path class="st7" d="M12.2,40.2c0.1,0,0.3,0.1,0.4,0.2c0.1,0.1,0.2-0.1,0.1-0.2c-0.2-0.1-0.3-0.2-0.5-0.2
			C12.1,40,12.1,40.2,12.2,40.2"/>
		<path class="st7" d="M11.8,23.9c0.9,0.8,2.2,1.3,3.2,1.9c0.1,0.1,0.2-0.1,0.1-0.2c-1.1-0.5-2.3-1-3.2-1.8
			C11.9,23.7,11.7,23.8,11.8,23.9"/>
		<path class="st7" d="M14.5,7.8c0.1-0.1,0.2-0.1,0.3-0.1c0.1,0,0.2-0.2,0.1-0.2c-0.2,0-0.4,0-0.5,0.2C14.3,7.8,14.4,8,14.5,7.8"/>
		<path class="st7" d="M15.3,7.7c0.2,0,0.4,0.1,0.6,0.2C16,7.9,16.1,7.7,16,7.7c-0.2-0.1-0.4-0.2-0.7-0.2
			C15.2,7.5,15.2,7.7,15.3,7.7"/>
		<path class="st7" d="M16.5,8c0.1,0.1,0.3,0.1,0.4,0.2C17,8.3,17.1,8.1,17,8l-0.4-0.2C16.5,7.8,16.4,8,16.5,8"/>
		<path class="st7" d="M17.7,8.5c0.2,0.1,0.4,0.2,0.5,0.3c0.1,0.1,0.2-0.1,0.1-0.2c-0.2-0.1-0.4-0.2-0.5-0.3
			C17.6,8.2,17.5,8.4,17.7,8.5"/>
		<path class="st7" d="M19,9.2c0.2,0.1,0.3,0.3,0.5,0.4c0.1,0.1,0.3-0.1,0.2-0.2c-0.2-0.1-0.3-0.3-0.5-0.4C19.1,8.9,18.9,9.1,19,9.2
			"/>
		<path class="st7" d="M20.2,10.1c0.1,0.2,0.3,0.3,0.4,0.5c0.1,0.1,0.3,0,0.2-0.1c-0.1-0.2-0.3-0.3-0.4-0.5
			C20.3,9.9,20.1,10,20.2,10.1"/>
		<path class="st7" d="M14.3,8.7c0-0.1,0.1-0.2,0.2-0.3c0.1-0.1-0.1-0.3-0.2-0.2c-0.1,0.1-0.2,0.3-0.2,0.4c0,0.1,0,0.1,0.1,0.1
			C14.2,8.8,14.3,8.7,14.3,8.7"/>
		<path class="st7" d="M14.6,7c0.1-0.1,0.2-0.2,0.3-0.3c0.1-0.1-0.1-0.3-0.2-0.2c-0.1,0.1-0.2,0.2-0.3,0.3C14.3,7,14.5,7.1,14.6,7"
			/>
		<path class="st7" d="M15.3,6.7c0.2,0,0.5,0,0.7-0.1c0.1,0,0.1-0.2,0-0.2c-0.2,0-0.5,0-0.7,0.1C15.2,6.5,15.2,6.8,15.3,6.7"/>
		<path class="st7" d="M16.7,6.9C16.9,7,17.1,7,17.4,7.1c0.1,0,0.2-0.2,0.1-0.2c-0.2-0.1-0.4-0.2-0.7-0.2
			C16.6,6.6,16.6,6.8,16.7,6.9"/>
		<path class="st7" d="M18.1,7.5c0.2,0.1,0.4,0.2,0.6,0.3c0.1,0.1,0.2-0.1,0.1-0.2c-0.2-0.1-0.4-0.3-0.7-0.3
			C18,7.2,17.9,7.5,18.1,7.5"/>
		<path class="st7" d="M19.3,8.4c0.2,0.1,0.4,0.3,0.6,0.4c0.1,0.1,0.2,0,0.2-0.2c-0.2-0.2-0.4-0.4-0.6-0.5
			C19.3,8.1,19.2,8.3,19.3,8.4"/>
		<path class="st7" d="M20.4,9.3c0.2,0.2,0.3,0.3,0.4,0.5c0.1,0.1,0.3,0,0.2-0.1c-0.1-0.2-0.3-0.4-0.5-0.6C20.5,9,20.3,9.2,20.4,9.3
			"/>
		<path class="st7" d="M14.9,6.2C15,6.1,15.2,6,15.4,5.9c0.1,0,0.1-0.2-0.1-0.2c-0.2,0-0.4,0.1-0.6,0.3C14.6,6.1,14.8,6.3,14.9,6.2"
			/>
		<path class="st7" d="M16.1,6c0.2,0,0.5,0,0.7,0c0.1,0,0.1-0.2,0-0.2c-0.2,0-0.5,0-0.7,0C15.9,5.7,15.9,5.9,16.1,6"/>
		<path class="st7" d="M17.6,6.2c0.2,0,0.4,0.1,0.5,0.2c0.1,0.1,0.3-0.1,0.2-0.2C18.1,6.1,17.8,6,17.6,6C17.4,6,17.4,6.2,17.6,6.2"
			/>
		<path class="st7" d="M18.7,6.7c0.2,0.1,0.4,0.2,0.6,0.4c0.1,0.1,0.2-0.1,0.1-0.2c-0.2-0.1-0.4-0.2-0.6-0.4
			C18.7,6.5,18.6,6.7,18.7,6.7"/>
		<path class="st7" d="M20,7.5c0.2,0.1,0.4,0.3,0.6,0.5c0.1,0.1,0.2,0,0.2-0.2c-0.2-0.2-0.4-0.4-0.6-0.6C20,7.2,19.9,7.4,20,7.5"/>
		<path class="st7" d="M21,8.3c0.1,0.2,0.3,0.4,0.4,0.6c0.1,0.1,0.3,0,0.2-0.1c-0.1-0.2-0.3-0.4-0.4-0.6C21.1,8.1,20.9,8.2,21,8.3"
			/>
		<path class="st7" d="M21.6,9.5c0,0,0.1,0.1,0.1,0.1c0,0,0.1,0.1,0.1,0c0,0,0.1-0.1,0-0.1c0,0-0.1-0.1-0.1-0.1c0,0-0.1-0.1-0.1,0
			C21.6,9.3,21.5,9.4,21.6,9.5"/>
		<path class="st7" d="M15.6,5.4c0.2-0.1,0.3-0.2,0.5-0.2C16.2,5.2,16.1,5,16,5c-0.2,0.1-0.3,0.2-0.5,0.2
			C15.4,5.3,15.5,5.5,15.6,5.4"/>
		<path class="st7" d="M16.6,5.2c0.2,0,0.5-0.1,0.7,0c0.1,0,0.1-0.2,0-0.2c-0.3,0-0.5,0-0.7,0C16.4,5,16.5,5.2,16.6,5.2"/>
		<path class="st7" d="M17.8,5.4c0.2,0,0.4,0.1,0.5,0.2c0.1,0.1,0.3-0.1,0.2-0.2c-0.2-0.2-0.4-0.3-0.7-0.3
			C17.7,5.1,17.7,5.4,17.8,5.4"/>
		<path class="st7" d="M19,5.9c0.3,0.1,0.5,0.2,0.7,0.4c0.1,0.1,0.2-0.1,0.1-0.2c-0.2-0.2-0.5-0.3-0.8-0.4C19,5.6,18.9,5.8,19,5.9"
			/>
		<path class="st7" d="M20.3,6.6c0.2,0.1,0.3,0.2,0.4,0.4c0,0.1,0.2,0.1,0.2-0.1c-0.1-0.3-0.2-0.5-0.5-0.6
			C20.3,6.4,20.2,6.5,20.3,6.6"/>
		<path class="st7" d="M21,7.8c0,0,0.1,0.1,0.1,0.1c0.1,0.1,0.3-0.1,0.2-0.2c0,0-0.1-0.1-0.1-0.1C21.1,7.6,20.9,7.7,21,7.8"/>
		<path class="st7" d="M16,4.6c0.2-0.1,0.4-0.1,0.5-0.1c0.1,0,0.1-0.2,0-0.2c-0.2,0-0.4,0.1-0.6,0.1C15.9,4.4,15.9,4.7,16,4.6"/>
		<path class="st7" d="M17.5,4.6c0.2,0,0.4,0.1,0.6,0.2c0.1,0,0.2-0.2,0.1-0.2c-0.2-0.1-0.5-0.1-0.7-0.2C17.3,4.4,17.3,4.6,17.5,4.6
			"/>
		<path class="st7" d="M18.8,4.8c0.2,0,0.4,0.1,0.6,0.3c0.1,0.1,0.2-0.1,0.1-0.2c-0.2-0.1-0.4-0.2-0.6-0.3
			C18.8,4.6,18.7,4.8,18.8,4.8"/>
		<path class="st7" d="M20,5.5c0.2,0.1,0.3,0.2,0.4,0.4c0.1,0.1,0.3,0,0.2-0.1c-0.1-0.2-0.3-0.4-0.5-0.5C20,5.2,19.9,5.4,20,5.5"/>
		<path class="st7" d="M20.7,6.1c0.1,0.2,0.3,0.4,0.4,0.7c0.1,0.1,0.3,0,0.2-0.1C21.1,6.4,21,6.2,20.9,6C20.8,5.8,20.6,5.9,20.7,6.1
			"/>
		<path class="st7" d="M19.3,4.5c0.1-0.1,0.3-0.1,0.4,0c0.1,0.1,0.2-0.1,0.1-0.2c-0.2-0.1-0.4-0.1-0.6,0C19,4.3,19.1,4.5,19.3,4.5"
			/>
		<path class="st7" d="M20.2,4.8c0.2,0,0.3,0.1,0.4,0.3c0.1,0.1,0.3,0,0.2-0.1c-0.2-0.2-0.4-0.3-0.6-0.4C20.1,4.6,20.1,4.8,20.2,4.8
			"/>
		<path class="st7" d="M21,5.3c0.1,0.2,0.2,0.4,0.3,0.6c0,0.1,0.2,0.1,0.2,0c0-0.3-0.1-0.5-0.3-0.7C21.1,5.1,20.9,5.2,21,5.3"/>
		<path class="st7" d="M21.4,6.3c0,0.2,0,0.3,0.1,0.5c0,0.1,0.2,0.1,0.2,0c0-0.2,0-0.3-0.1-0.5C21.6,6.2,21.4,6.2,21.4,6.3"/>
		<path class="st2" d="M12.7,20c0,0-4.3-0.4-5.7-1c-1.4-0.6-1.1-3.2,3.2-5.1l0.6-0.3l1.3,0.5c0,0-2.2,2.2-1.9,2.6
			c0.3,0.4,2.7-0.2,2.7-0.2S12.5,19.4,12.7,20"/>
		<path class="st21" d="M7.9,9.5c0.4,0.2,0.8,0.5,1.2,0.7c0.2,0.1,0.3-0.1,0.2-0.3C8.8,9.7,8.4,9.4,8,9.2C7.9,9.1,7.7,9.4,7.9,9.5"
			/>
		<path class="st21" d="M8.4,7.8c0.4,0.3,0.8,0.6,1.2,1C9.8,8.8,10,8.6,9.8,8.5C9.4,8.2,9,7.9,8.7,7.5C8.5,7.4,8.3,7.6,8.4,7.8"/>
		<path class="st21" d="M9.8,6.1c0.3,0.4,0.6,0.7,0.9,1.2c0.1,0.2,0.4,0,0.3-0.2c-0.2-0.5-0.6-0.9-0.9-1.2C9.9,5.7,9.7,5.9,9.8,6.1"
			/>
		<path class="st21" d="M12.1,5.8c0.1,0.2,0.2,0.4,0.2,0.6c0,0.2,0.3,0.1,0.3-0.1c0-0.2-0.1-0.4-0.2-0.6C12.3,5.5,12.1,5.7,12.1,5.8
			"/>
		<path class="st21" d="M8.3,12.3c0.3,0,0.5-0.1,0.8-0.1c0.2,0,0.2-0.3,0-0.3c-0.3,0-0.5,0.1-0.8,0.1C8.1,12,8.1,12.3,8.3,12.3"/>
		<path class="st13" d="M16,11.2c0,0-0.2-0.2-0.3,0.2c-0.1,0.4-0.1,0.5-0.3,0.5c-0.1,0-0.4,0.1-0.2,0.2c0.2,0.2,0.5,0.3,0.6,0.1
			C16,11.9,16,11.2,16,11.2"/>
		<path class="st7" d="M12.9,16.3c-0.2,1.3-0.4,2.7-0.2,4.1c0,0.1,0.2,0.1,0.1,0c-0.2-1.3,0-2.7,0.2-4C13,16.2,12.9,16.2,12.9,16.3"
			/>
	</g>
</g>
</svg>
