<svg xmlns="http://www.w3.org/2000/svg" xmlns:xlink="http://www.w3.org/1999/xlink" viewBox="0 0 280 190"><defs><style>.cls-1{fill:none;}.cls-2{isolation:isolate;}.cls-3{fill:#ffe8f7;}.cls-4{clip-path:url(#clip-path);}.cls-5{fill:#714f47;}.cls-6{fill:#59595a;}.cls-7{fill:#8f8f8f;}.cls-8{fill:#71ceee;}.cls-9{fill:#ffd200;}.cls-10{fill:#fff;}.cls-11{fill:#4a4a4b;}.cls-12{fill:#2b2c2b;}.cls-13{opacity:0.1;mix-blend-mode:multiply;}.cls-14{fill:#230d0e;}.cls-15{fill:#62342d;}.cls-16{fill:#fbb431;}.cls-17{fill:#fef6b7;}.cls-18{fill:#010101;}.cls-19{fill:#bf6024;}.cls-20{fill:#f27930;}.cls-21{fill:#eddfd6;}.cls-22{fill:#5c7393;}.cls-23{fill:#fdd230;}.cls-24{fill:#d6d6d6;}</style><clipPath id="clip-path"><polyline id="_Masque_" data-name="&lt;Masque&gt;" class="cls-1" points="280 0.25 280 189.75 1.54 189.75 1.54 0.25"/></clipPath></defs><title>Offres Mobile ok</title><g class="cls-2"><g id="Calque_1" data-name="Calque 1"><rect class="cls-3" width="280" height="190"/><g id="_Groupe_" data-name="&lt;Groupe&gt;"><g id="_Ecrêter_le_groupe_" data-name="&lt;Ecrêter le groupe&gt;"><g class="cls-4"><g id="_Groupe_2" data-name="&lt;Groupe&gt;"><g id="_Groupe_3" data-name="&lt;Groupe&gt;"><g id="_Groupe_4" data-name="&lt;Groupe&gt;"><path id="_Tracé_" data-name="&lt;Tracé&gt;" class="cls-5" d="M118.25,30.61s-1.67-1.27-1.93-1.45-.82,1.34-.25,1.8Z"/></g><g id="_Groupe_5" data-name="&lt;Groupe&gt;"><path id="_Tracé_2" data-name="&lt;Tracé&gt;" class="cls-5" d="M116,31s-1.67-1.27-1.93-1.45-.82,1.34-.25,1.8Z"/></g><g id="_Groupe_6" data-name="&lt;Groupe&gt;"><path id="_Tracé_3" data-name="&lt;Tracé&gt;" class="cls-5" d="M114.16,31.89s-1.67-1.27-1.93-1.45-.82,1.34-.25,1.8Z"/></g><g id="_Groupe_7" data-name="&lt;Groupe&gt;"><path id="_Tracé_4" data-name="&lt;Tracé&gt;" class="cls-6" d="M103.77,45l21-3.41a1.82,1.82,0,0,0,1.47-2.22l-2-8.16a1.82,1.82,0,0,0-2.09-1.36L101,33.69A1.82,1.82,0,0,0,99.62,36l2.1,7.73A1.82,1.82,0,0,0,103.77,45Z"/></g><g id="_Groupe_8" data-name="&lt;Groupe&gt;"><path id="_Tracé_5" data-name="&lt;Tracé&gt;" class="cls-7" d="M103.8,45.69l21-3.41a1.82,1.82,0,0,0,1.47-2.22l-2-8.16a1.82,1.82,0,0,0-2.09-1.36l-21.1,3.83a1.82,1.82,0,0,0-1.43,2.26l2.1,7.73A1.82,1.82,0,0,0,103.8,45.69Z"/></g><g id="_Groupe_9" data-name="&lt;Groupe&gt;"><path id="_Tracé_6" data-name="&lt;Tracé&gt;" class="cls-8" d="M105,45.27l19.11-3.1a1.66,1.66,0,0,0,1.34-2l-1.82-7.43a1.66,1.66,0,0,0-1.9-1.24L102.55,35a1.66,1.66,0,0,0-1.3,2.06l1.92,7A1.66,1.66,0,0,0,105,45.27Z"/></g><g id="_Groupe_10" data-name="&lt;Groupe&gt;"><path id="_Tracé_7" data-name="&lt;Tracé&gt;" class="cls-5" d="M95.25,57.6c1.28.57,2.55,1.14,3.84,1.68a28.81,28.81,0,0,1,7-6.15c3.73-2.21,8.6-2,9.08-4.5s1.09-4.76,1.57-7.28,1.53-6-.56-3.35a13,13,0,0,0-2.57,5.12l-9.27,2s-3.71,3.35-3.36,4.82C101.16,50.57,98.52,53.8,95.25,57.6Z"/></g><g id="_Groupe_11" data-name="&lt;Groupe&gt;"><polygon id="_Tracé_8" data-name="&lt;Tracé&gt;" class="cls-5" points="115.3 47.92 119.56 43.16 116.06 43.78 115.3 47.92"/></g><g id="_Groupe_12" data-name="&lt;Groupe&gt;"><path id="_Tracé_9" data-name="&lt;Tracé&gt;" class="cls-5" d="M98.48,60.06c4.63-3.78,9.21-8.42,9.21-8.42L101,49.9a93.26,93.26,0,0,0-9,6.34C94.95,57.39,95.52,58.95,98.48,60.06Z"/></g><g id="_Groupe_13" data-name="&lt;Groupe&gt;"><g id="_Groupe_14" data-name="&lt;Groupe&gt;"><path id="_Tracé_10" data-name="&lt;Tracé&gt;" class="cls-9" d="M105.88,55c-.18-3.14-4.17-4.24-6.69-4.9-2.1-.56-5.13-.25-5.2,2.53,0,1.13,1.73,1.31,1.76.17.06-2.19,3.31-.94,4.45-.54,1.51.53,3.83,1.12,3.94,3,.06,1.14,1.81.84,1.74-.28Z"/></g></g><g id="_Groupe_15" data-name="&lt;Groupe&gt;"><g id="_Groupe_16" data-name="&lt;Groupe&gt;"><path id="_Tracé_11" data-name="&lt;Tracé&gt;" class="cls-9" d="M102.58,59c1.35-.7,2.48-1.87,1.77-3.5s-2.95-2.38-4.5-2.81c-1.92-.53-9-1.51-7.53,2.5.39,1.07,2,.32,1.61-.74-.59-1.62,12.23.72,7.92,2.94-1,.52-.28,2.13.74,1.61Z"/></g></g></g><g id="_Groupe_17" data-name="&lt;Groupe&gt;"><g id="_Groupe_18" data-name="&lt;Groupe&gt;"><path id="_Tracé_12" data-name="&lt;Tracé&gt;" d="M172,133.76l16.85,89.06-18.45-1.23-13.1-54.53c-.39-1,0-1,0,0l4.9,54.12s-11.39-.13-16-2.05c-3.82-1.59-8.89-62.45-11.05-80.67-.4-3.38,3.31-12.74,6.69-13.15C150.76,124.2,165.74,127,172,133.76Z"/></g><g id="_Groupe_19" data-name="&lt;Groupe&gt;"><g id="_Groupe_20" data-name="&lt;Groupe&gt;"><path id="_Tracé_13" data-name="&lt;Tracé&gt;" class="cls-10" d="M157.52,193.84c-8.47-1.11-23.27-.87-24-7.67-.37-3.61-2.24-60.7,4.79-82.11.39-1.2-13.67.18-13-5.85,0,0-1.56-25.56,20.09-29.2l15.27-.07L176,73.48l12.29,6.77c8,6.53-2.57,22.31-2.57,22.31s-8,49.49-2.36,84.57C184.33,192.88,157.52,193.84,157.52,193.84Z"/></g></g><g id="_Groupe_21" data-name="&lt;Groupe&gt;"><g id="_Groupe_22" data-name="&lt;Groupe&gt;"><path id="_Tracé_14" data-name="&lt;Tracé&gt;" d="M160.22,69a8,8,0,0,0-.8,5,23.88,23.88,0,0,0,2.07,5.55,24.82,24.82,0,0,1,2.59,9.88,42.09,42.09,0,0,1-1.27,10.32c-1.54,6.76-4.12,13.42-4.75,20.36a24,24,0,0,1,7.07,0c-.34-3.68,1.12-7.35,1.48-11a64.81,64.81,0,0,1,2.16-11.32,39.11,39.11,0,0,1,3.59-9.5c2.57-4.33,6.12-8,7.28-12.82l-3.58-2-15.32-4.54Z"/></g><g id="_Groupe_23" data-name="&lt;Groupe&gt;"><path id="_Tracé_transparent_" data-name="&lt;Tracé transparent&gt;" d="M178.36,148.27a64.44,64.44,0,0,1-25,1.62,47.07,47.07,0,0,1-12.81-3.49,43.64,43.64,0,0,1-7.07-4.45c-.11,2.72-.21,5.44-.27,8.12a19.19,19.19,0,0,0,8.61,6.34c7.22,2.9,15.47,3.57,23.17,3.17a53.82,53.82,0,0,0,16.38-3.5c0-3,.09-5.92.19-8.82Q180,147.81,178.36,148.27ZM136,150.78c-3.17,0-3.17-4.92,0-4.92S139.19,150.78,136,150.78Zm5.83,3.18c-3.17,0-3.17-4.92,0-4.92S145,154,141.85,154Zm6.89,2.65c-3.17,0-3.17-4.92,0-4.92S151.91,156.6,148.74,156.6Zm7.42.79c-3.17,0-3.17-4.92,0-4.92S159.33,157.4,156.16,157.4Zm7.95.53c-3.17,0-3.17-4.92,0-4.92S167.27,157.93,164.11,157.93Zm7.42-1.06c-3.17,0-3.17-4.92,0-4.92S174.69,156.87,171.53,156.87Zm7.15-2.12c-3.17,0-3.17-4.92,0-4.92S181.85,154.75,178.68,154.75Z"/></g><g id="_Groupe_24" data-name="&lt;Groupe&gt;"><path id="_Tracé_15" data-name="&lt;Tracé&gt;" d="M142.82,145c7.74,3.12,16.41,3.65,24.66,3a52.93,52.93,0,0,0,14.18-3.12q.08-2,.19-4a49.19,49.19,0,0,1-9.21,2.38,62,62,0,0,1-24.11-.82A42.32,42.32,0,0,1,133.79,136q-.1,1.68-.18,3.36C136.68,141.25,139.42,143.61,142.82,145Z"/></g><g id="_Groupe_25" data-name="&lt;Groupe&gt;"><path id="_Tracé_16" data-name="&lt;Tracé&gt;" class="cls-9" d="M182.29,178.34c-.43.23-1,.27-1.29.68-3.38,5.06-17.49,6.25-26.64,6.22-7.32,0-14.9-1.52-21.08-5.53.1,3.5.21,5.82.28,6.46.69,6.8,15.49,6.55,24,7.67,0,0,26.8-1,25.88-6.71C182.94,184.29,182.58,181.34,182.29,178.34Z"/></g></g><g id="_Groupe_26" data-name="&lt;Groupe&gt;"><path id="_Tracé_17" data-name="&lt;Tracé&gt;" class="cls-10" d="M187,80.3s13.66,3.6,20.59,22.77c1,2.78,17.42,30.49,6.34,45.14-15.6,20.62-29.7-11.88-32.07-18.61L178,101.91Z"/></g><g id="_Groupe_27" data-name="&lt;Groupe&gt;"><g id="_Groupe_28" data-name="&lt;Groupe&gt;"><g id="_Groupe_29" data-name="&lt;Groupe&gt;"><path id="_Tracé_18" data-name="&lt;Tracé&gt;" class="cls-5" d="M185.57,100.32v-.16a47.92,47.92,0,0,1,.47-6c.33-1.22-2.8-2.79-2.67-4.53s-3.22.86-.78,3c1.19,1-.07,3.66-.07,3.66S185,101.08,185.57,100.32Z"/></g><g id="_Groupe_30" data-name="&lt;Groupe&gt;"><path id="_Tracé_19" data-name="&lt;Tracé&gt;" class="cls-5" d="M163.48,97.59s-2.45,1.75-2.42,1.66c.29-.8,4.8-5.74,4.93-6.86s3.48-1.79,4-3.45,2.32,2.51-.85,3.16c-1.66.34-1.26,2.39-1.26,2.39S163.75,98.51,163.48,97.59Z"/></g><g id="_Groupe_31" data-name="&lt;Groupe&gt;"><g id="_Groupe_32" data-name="&lt;Groupe&gt;"><path id="_Tracé_20" data-name="&lt;Tracé&gt;" class="cls-11" d="M175.14,79l8.68,3.56a1.59,1.59,0,0,1,.89,1.86l-5.62,22.13a2.49,2.49,0,0,1-2.91,1.2l-8-4.39a1.6,1.6,0,0,1-.88-1.94l4.54-20.72A2.61,2.61,0,0,1,175.14,79Z"/></g><g id="_Groupe_33" data-name="&lt;Groupe&gt;"><path id="_Tracé_21" data-name="&lt;Tracé&gt;" class="cls-12" d="M174.33,79.39,183,82.95a1.59,1.59,0,0,1,.89,1.86l-5.4,20.71c-.27,1.4-.52,2.56-1.7,2.08l-9.39-3.85a1.6,1.6,0,0,1-.88-1.94l4.8-20.6A2.42,2.42,0,0,1,174.33,79.39Z"/></g></g><g id="_Groupe_34" data-name="&lt;Groupe&gt;"><g id="_Groupe_35" data-name="&lt;Groupe&gt;"><path id="_Tracé_22" data-name="&lt;Tracé&gt;" class="cls-5" d="M186.51,109.47c-.76-3.32-.34-8.19-1.58-11.07-.35-.82-.75-1.62-1.15-2.43a13,13,0,0,1-.57-1.74A12.89,12.89,0,0,0,180,89.92a8.63,8.63,0,0,1-2.55-3.27c-.08-.27-.16-.58-.4-.72a.76.76,0,0,0-.86.21,2.53,2.53,0,0,0-.18,2.71,7.82,7.82,0,0,0,1.21,2c.41.5,1,.89,1.31,1.42A12.82,12.82,0,0,0,180,94.94a37.84,37.84,0,0,0,3.11,2.8s-3.31-4-6.79-5.58c-2.06-1-3.66.81-5.7.74-.58,0-1.25-.17-1.67.22a.4.4,0,0,0-.15.31h0a1.48,1.48,0,0,0,1.07,1.14,12.23,12.23,0,0,0,5.93.19l4.76,4.63a36.37,36.37,0,0,0-6.62-3c-1.63-.55-2.31.57-3.21,1.79a9.41,9.41,0,0,1-2.07,2.06.38.38,0,0,0-.17.2.32.32,0,0,0,.06.24,1.51,1.51,0,0,0,1.26.63,3.19,3.19,0,0,0,1.41-.38,5.07,5.07,0,0,0,1.77-1.66l5,3.07c-.94-.13-1.89-.24-2.83-.32-1.17-.1-3.77-.77-4.39.55-.46,1,.23,2.12,0,3.17a1.82,1.82,0,0,0-.1.7.78.78,0,0,0,.84.56,1.45,1.45,0,0,0,.93-.55,1.56,1.56,0,0,0,0-2.23s3.34.68,3.58,1.21c4.45,10.19,7.32,9.28,7.32,9.28A6.31,6.31,0,0,0,186.51,109.47Z"/></g></g><g id="_Groupe_36" data-name="&lt;Groupe&gt;"><path id="_Tracé_transparent_2" data-name="&lt;Tracé transparent&gt;" class="cls-5" d="M173.22,106.86a1.45,1.45,0,0,0,.8.72.78.78,0,0,0,.93-.38,1.82,1.82,0,0,0,0-.7c0-1.07.91-2.06.65-3.1-.35-1.41-3-1.28-4.2-1.42-.94-.11-1.89-.2-2.84-.25l5.52-2a5.07,5.07,0,0,0,1.4,2,3.19,3.19,0,0,0,1.3.66,1.51,1.51,0,0,0,1.37-.36.32.32,0,0,0,.11-.22.38.38,0,0,0-.13-.23,9.41,9.41,0,0,1-1.61-2.43l-.23-.51a8.8,8.8,0,0,0,2,.19,2,2,0,0,0,1.55-.73l0-.07a.4.4,0,0,0-.06-.34c-.3-.49-1-.53-1.55-.67a6.86,6.86,0,0,1-2.3-1.29c.33,0,.66.06,1,.07a3.28,3.28,0,0,0,2.32-.76.47.47,0,0,0,.15-.2.4.4,0,0,0-.09-.33c-.34-.47-1-.45-1.6-.55-2-.34-3.23-2.39-5.44-1.87a15.77,15.77,0,0,0-3.51,1.37l.17-.21c-2.45,1.72-5,3.35-7.24,5.3l-.61.54c-1.17,2.5-2.21,5.56-3.22,7.78a5.13,5.13,0,0,0,.5,3.14,8.73,8.73,0,0,0,5.94-.11c2-.78,3.27-2.78,4.91-4.12a2.29,2.29,0,0,1,.35-.23l.29-.41c.34-.48,3.75-.47,3.75-.47A1.56,1.56,0,0,0,173.22,106.86ZM172,94.92l.28-.18.19.08Z"/></g><g id="_Groupe_37" data-name="&lt;Groupe&gt;"><g id="_Groupe_38" data-name="&lt;Groupe&gt;"><path id="_Tracé_transparent_3" data-name="&lt;Tracé transparent&gt;" class="cls-11" d="M172.61,81.25a1.1,1.1,0,0,1,.37-.56.65.65,0,0,1,.59-.13.84.84,0,0,1,.42,1.1,1.1,1.1,0,0,1-.37.56.65.65,0,0,1-.59.13l-.06,0A.86.86,0,0,1,172.61,81.25Zm.86-.38a.35.35,0,0,0-.3.08.79.79,0,0,0-.26.4h0c-.1.32,0,.65.2.71a.35.35,0,0,0,.3-.08.79.79,0,0,0,.26-.4c.09-.31,0-.62-.18-.7Z"/></g></g><g id="_Groupe_39" data-name="&lt;Groupe&gt;" class="cls-13"><path id="_Tracé_23" data-name="&lt;Tracé&gt;" class="cls-14" d="M182,96.42c-.67-.63-1.5-1.2-2.12-1.77a11.16,11.16,0,0,0-1.6-1.23.8.8,0,0,0-.07-.2c-.93-1.88-2.62-2.73-2.81-5-.06-.68.18-1.06.53-1.15a.87.87,0,0,0,.13.37C178,90.41,180.84,93,182,96.42Z"/></g></g></g></g><g id="_Groupe_40" data-name="&lt;Groupe&gt;"><g id="_Groupe_41" data-name="&lt;Groupe&gt;"><path id="_Tracé_24" data-name="&lt;Tracé&gt;" d="M196.65,43.84a6,6,0,0,0,3-1.37l-.54-.91a2.45,2.45,0,0,0,.23-4.09A3.91,3.91,0,0,0,201.27,35c.16-1.06-.88-2.26-1.88-1.86A9.57,9.57,0,0,0,200.52,30a2.75,2.75,0,0,0-.29-2.07,1.17,1.17,0,0,0-1.82-.14,4.51,4.51,0,0,0-5.23-5.82c.34-1.13-.89-2.29-2.07-2.18a3.34,3.34,0,0,0-2.57,2.19,2.8,2.8,0,0,0-4.73-2c-.23-1.27-2-1.74-3.13-1.13a5.64,5.64,0,0,0-2.25,3.07,2.45,2.45,0,0,0-4,2.51,2.88,2.88,0,0,0-3.53,4.23,2.33,2.33,0,0,0-1.76,4,2.66,2.66,0,0,0-1.43,4.79,1.88,1.88,0,0,0-1.76,2,3.12,3.12,0,0,0,1.73,2.36c-1.09-.42-2.29.81-2.15,2a3.08,3.08,0,0,0,2.31,2.36,2.79,2.79,0,0,0,.91,4.24c1.77.75,3.67-.51,5.39-1.37,5.49-2.73,12.2-1.37,18-3.47"/></g><g id="_Groupe_42" data-name="&lt;Groupe&gt;"><g id="_Groupe_43" data-name="&lt;Groupe&gt;"><path id="_Tracé_25" data-name="&lt;Tracé&gt;" class="cls-15" d="M159.14,64.73a5.8,5.8,0,0,0,2.8-2.85c1-1.83,1.49-2.83,2.47-4.69a97.38,97.38,0,0,0,5.83-12.92,91.28,91.28,0,0,1,.82,9.7c-.13,3.06.92,6.69,3.1,8.39,1,.74,2.18.81,3.23,1.34.53.26,4,2.1,4.58,1.61-2,3.37-6,15-6,15s-2.64.92-9.19-2.36a22.41,22.41,0,0,1-7.23-5.72,10.31,10.31,0,0,1-2.35-4.44C156.95,66,157.52,65.27,159.14,64.73Z"/></g></g><g id="_Groupe_44" data-name="&lt;Groupe&gt;"><g id="_Groupe_45" data-name="&lt;Groupe&gt;"><path id="_Tracé_26" data-name="&lt;Tracé&gt;" class="cls-5" d="M182.09,35.1h.07c4.76.05,13.76,3.09,15.11,8.06a5.21,5.21,0,0,1,.11,1.84,41.09,41.09,0,0,1-1.62,6.11,32,32,0,0,1-4.28,10c-2.12,3.13-6.36,9.07-10.81,9.17-4.91.12-8-5.83-9.49-9.38C167.5,52.12,168.32,34.91,182.09,35.1Z"/></g></g><g id="_Groupe_46" data-name="&lt;Groupe&gt;"><g id="_Groupe_47" data-name="&lt;Groupe&gt;"><g id="_Groupe_48" data-name="&lt;Groupe&gt;"><path id="_Tracé_27" data-name="&lt;Tracé&gt;" d="M180.77,45.24a14.57,14.57,0,0,0,2.89,1.35c-.84,1.19-1.9,2.09-3.16,1-.2-.18-2-2.1-2.94-3-.3-.28-.51-.45-.55-.42C178.1,43.05,179.85,44.61,180.77,45.24Z"/></g></g></g><g id="_Groupe_49" data-name="&lt;Groupe&gt;"><g id="_Groupe_50" data-name="&lt;Groupe&gt;"><g id="_Groupe_51" data-name="&lt;Groupe&gt;"><path id="_Tracé_28" data-name="&lt;Tracé&gt;" d="M192.8,51.53c1.13.45,1.92.58,1.66,2,0-.23-2.79-.47-3-.52a2.28,2.28,0,0,1-.87-.38c-.63-.48-.62-1.27-.49-2.28A14.14,14.14,0,0,0,192.8,51.53Z"/></g></g></g><g id="_Groupe_52" data-name="&lt;Groupe&gt;"><g id="_Groupe_53" data-name="&lt;Groupe&gt;"><path id="_Tracé_29" data-name="&lt;Tracé&gt;" class="cls-15" d="M185.07,52.08c.09,1.41-.55,2.76-.55,4.18a3.5,3.5,0,0,0,.42,1.42,4.48,4.48,0,0,1,.62,1.69c-.11,2.92-3.74.88-4.26-1C180.89,57,182.55,50.9,185.07,52.08Z"/></g></g><g id="_Groupe_54" data-name="&lt;Groupe&gt;"><g id="_Groupe_55" data-name="&lt;Groupe&gt;"><path id="_Tracé_30" data-name="&lt;Tracé&gt;" class="cls-15" d="M176.36,57.72c.29-.51.75-.24.47.27l-.73,1.28c-.29.51-.75.24-.47-.27Z"/></g></g><g id="_Groupe_56" data-name="&lt;Groupe&gt;"><g id="_Groupe_57" data-name="&lt;Groupe&gt;"><path id="_Tracé_31" data-name="&lt;Tracé&gt;" class="cls-16" d="M159.53,65.18c-.28,0,.59,4.14.72,4.46a11,11,0,0,0,5.55,5.67A23.7,23.7,0,0,0,170.24,77a7.14,7.14,0,0,0,4.26-.24c.36-.14,3.57-2.36,3.57-2.35.55.64,1,1.38,1.55,2a9.91,9.91,0,0,1-1,1.24A8.37,8.37,0,0,1,175.5,80a11.81,11.81,0,0,1-7.87.22,16.43,16.43,0,0,1-9-6.5,13.11,13.11,0,0,1-1.93-4.4c-.23-1-1.19-3.83-.32-4.6C156.89,64.31,158.82,65.08,159.53,65.18Z"/></g></g><g id="_Groupe_58" data-name="&lt;Groupe&gt;"><g id="_Groupe_59" data-name="&lt;Groupe&gt;"><path id="_Tracé_32" data-name="&lt;Tracé&gt;" d="M179.7,21.5c.43-1.17,2.36-4.36,3.83-2.91a3.63,3.63,0,0,0-1.2,2.38c0-.49,3.62-1,4.05-1,1.89,0,8.72,1,8.58,3.77a3.15,3.15,0,0,0-2.32,1c1.48-1.4,6.81,5.3,6.6,7a5.93,5.93,0,0,0-1.66.23c.08.81.82,1.41,1.13,2.19.5,1.24,1.37,4.81,1.13,6.18-.37,2.12-2.23,2-4,1.88a22.61,22.61,0,0,1-7.07-1.5,12.89,12.89,0,0,0-3-1.28c-1-.12-1.68.61-2.71-.08-2.56-1.72-2.82-5.19-2.78-7.88C180.3,28.19,178.5,24.79,179.7,21.5Z"/></g></g><g id="_Groupe_60" data-name="&lt;Groupe&gt;"><g id="_Groupe_61" data-name="&lt;Groupe&gt;"><path id="_Tracé_33" data-name="&lt;Tracé&gt;" d="M175,24.45c1-.58,3-1.76,4.24-1.24,2.22,1,1.41,5.95,1.67,7.83a20,20,0,0,1,.36,4.63c-.23,2.31-.68,2.23-2.47,2.45-3.84.48-5.77,4.3-6.79,7.69-1.53.11-1.71-4-1.79-4.92-.19-2.31-1.77-5.05-1.39-7.32A12.75,12.75,0,0,1,175,24.45Z"/></g></g><g id="_Groupe_62" data-name="&lt;Groupe&gt;"><g id="_Groupe_63" data-name="&lt;Groupe&gt;"><path id="_Tracé_34" data-name="&lt;Tracé&gt;" class="cls-5" d="M169.44,39.38c3.82-1.18,2,6.92.51,8.26-.8.69-2.18-3.18-2.22-3.69C167.62,42.48,167.73,39.9,169.44,39.38Z"/></g></g><g id="_Groupe_64" data-name="&lt;Groupe&gt;"><g id="_Groupe_65" data-name="&lt;Groupe&gt;"><path id="_Tracé_35" data-name="&lt;Tracé&gt;" d="M178.09,48.91a1.36,1.36,0,1,1-1.83.32A1.32,1.32,0,0,1,178.09,48.91Z"/></g></g><g id="_Groupe_66" data-name="&lt;Groupe&gt;"><g id="_Groupe_67" data-name="&lt;Groupe&gt;"><path id="_Tracé_36" data-name="&lt;Tracé&gt;" d="M189.6,56.24a1.05,1.05,0,0,1,.3,1.48,1.11,1.11,0,0,1-1.49.39,1.06,1.06,0,0,1-.3-1.48A1.1,1.1,0,0,1,189.6,56.24Z"/></g></g><g id="_Groupe_68" data-name="&lt;Groupe&gt;"><g id="_Groupe_69" data-name="&lt;Groupe&gt;"><path id="_Tracé_37" data-name="&lt;Tracé&gt;" d="M174.83,46.34c2.19.4,4.75,2.8,5.77,4.78a.3.3,0,0,1-.17.46.48.48,0,0,1-.39-.1.52.52,0,0,1-.16-.19c-.88-1.72-3.15-3.87-5-4.2a.53.53,0,0,1-.43-.45A.29.29,0,0,1,174.83,46.34Z"/></g></g><g id="_Groupe_70" data-name="&lt;Groupe&gt;"><g id="_Groupe_71" data-name="&lt;Groupe&gt;"><path id="_Tracé_38" data-name="&lt;Tracé&gt;" d="M188.39,55a6.7,6.7,0,0,1,.93.45,11.42,11.42,0,0,1,1.8,1.47l0,0c.19.17.22.37.09.44a.59.59,0,0,1-.58-.18l0,0a9.9,9.9,0,0,0-1.53-1.26,5.49,5.49,0,0,0-.72-.34c-.2-.08-1.17-.47-.85-.83C187.71,54.52,188.21,54.89,188.39,55Z"/></g></g><g id="_Groupe_72" data-name="&lt;Groupe&gt;"><g id="_Groupe_73" data-name="&lt;Groupe&gt;"><g id="_Groupe_74" data-name="&lt;Groupe&gt;"><path id="_Tracé_39" data-name="&lt;Tracé&gt;" class="cls-15" d="M169.58,41.83c.06.64.05,1.3.07,1.94l-.88-.2C168.52,42.81,168.31,41.55,169.58,41.83Z"/></g></g></g><g id="_Groupe_75" data-name="&lt;Groupe&gt;"><g id="_Groupe_76" data-name="&lt;Groupe&gt;"><path id="_Tracé_40" data-name="&lt;Tracé&gt;" class="cls-15" d="M185.61,63.2c.12-.36.53-.14.41.21l-.3.9c-.12.36-.53.14-.41-.21Z"/></g></g><g id="_Groupe_77" data-name="&lt;Groupe&gt;"><g id="_Groupe_78" data-name="&lt;Groupe&gt;"><path id="_Tracé_41" data-name="&lt;Tracé&gt;" class="cls-17" d="M175.13,76.64a1.28,1.28,0,0,1,1.24.94l.22.23a1.32,1.32,0,0,1-1.86,1.86,2.67,2.67,0,0,1-.91-1.72A1.32,1.32,0,0,1,175.13,76.64Z"/></g></g><g id="_Groupe_79" data-name="&lt;Groupe&gt;"><g id="_Groupe_80" data-name="&lt;Groupe&gt;"><path id="_Tracé_42" data-name="&lt;Tracé&gt;" class="cls-17" d="M169.86,76.9a1.59,1.59,0,1,1-1.46.65A2,2,0,0,1,169.86,76.9Z"/></g></g><g id="_Groupe_81" data-name="&lt;Groupe&gt;"><g id="_Groupe_82" data-name="&lt;Groupe&gt;"><path id="_Tracé_43" data-name="&lt;Tracé&gt;" class="cls-17" d="M164.59,75.32a1.32,1.32,0,0,1,0,2.63A1.32,1.32,0,0,1,164.59,75.32Z"/></g></g><g id="_Groupe_83" data-name="&lt;Groupe&gt;"><g id="_Groupe_84" data-name="&lt;Groupe&gt;"><path id="_Tracé_44" data-name="&lt;Tracé&gt;" class="cls-17" d="M159.85,70.58a1.9,1.9,0,0,1,1.58,1.58,1.33,1.33,0,0,1-1.32,1.32,1.49,1.49,0,0,1-1.58-1.58A1.33,1.33,0,0,1,159.85,70.58Z"/></g></g><g id="_Groupe_85" data-name="&lt;Groupe&gt;"><g id="_Groupe_86" data-name="&lt;Groupe&gt;"><path id="_Tracé_45" data-name="&lt;Tracé&gt;" class="cls-17" d="M157.74,66.1H158a1.32,1.32,0,1,1,0,2.63h-.26a1.32,1.32,0,1,1,0-2.63Z"/></g></g><g id="_Groupe_87" data-name="&lt;Groupe&gt;"><g id="_Groupe_88" data-name="&lt;Groupe&gt;"><path id="_Tracé_46" data-name="&lt;Tracé&gt;" class="cls-15" d="M173.26,53c1.11-1.29,5.36-.08,3.63,2.19-1.37,1.81-5.49-.27-3.67-2.15C173.1,53.18,173.2,53.06,173.26,53Z"/></g></g><g id="_Groupe_89" data-name="&lt;Groupe&gt;"><g id="_Groupe_90" data-name="&lt;Groupe&gt;"><path id="_Tracé_47" data-name="&lt;Tracé&gt;" class="cls-15" d="M187.22,59.75c-.11.11,0,0,0,0,1-.87,4.09.46,2.55,2C188.58,63,185.65,61,187.22,59.75Z"/></g></g><g id="_Groupe_91" data-name="&lt;Groupe&gt;"><g id="_Groupe_92" data-name="&lt;Groupe&gt;"><path id="_Tracé_48" data-name="&lt;Tracé&gt;" class="cls-10" d="M177.57,59.46l.1,0c1,.93,6.54,3.86,6.8,3.61-1.24,1.16-2.5,2.81-4.78,1.64C176.76,63.23,177.24,59.35,177.57,59.46Z"/></g></g></g><g id="_Groupe_93" data-name="&lt;Groupe&gt;"><path id="_Tracé_49" data-name="&lt;Tracé&gt;" class="cls-5" d="M186.19,107.84S197.12,129,210,133.1s12.21,28.53-4.4,26-25.83-41-24.41-48.12S186.19,107.84,186.19,107.84Z"/></g><g id="_Groupe_94" data-name="&lt;Groupe&gt;"><path id="_Tracé_50" data-name="&lt;Tracé&gt;" class="cls-5" d="M159.08,105.28s-18.17,9.65-38.89,5.25S95.06,134.66,110,136.37s51.53-19.45,51.67-26.83S159.08,105.28,159.08,105.28Z"/></g><g id="_Groupe_95" data-name="&lt;Groupe&gt;"><path id="_Tracé_51" data-name="&lt;Tracé&gt;" class="cls-7" d="M100.77,116.88a.39.39,0,0,0,.09-.12h-.08A.89.89,0,0,1,100.77,116.88Z"/></g><g id="_Groupe_96" data-name="&lt;Groupe&gt;"><path id="_Tracé_52" data-name="&lt;Tracé&gt;" class="cls-7" d="M100.54,116.49l-.12.1.11,0S100.54,116.51,100.54,116.49Z"/></g><g id="_Groupe_97" data-name="&lt;Groupe&gt;"><path id="_Tracé_53" data-name="&lt;Tracé&gt;" class="cls-7" d="M99.86,117.22h0a3.23,3.23,0,0,0-.2.35A1.24,1.24,0,0,0,99.86,117.22Z"/></g><g id="_Groupe_98" data-name="&lt;Groupe&gt;"><path id="_Tracé_54" data-name="&lt;Tracé&gt;" class="cls-7" d="M101.86,116.93a2.07,2.07,0,0,1-.17.19l.18-.07A1.08,1.08,0,0,0,101.86,116.93Z"/></g><g id="_Groupe_99" data-name="&lt;Groupe&gt;"><path id="_Tracé_55" data-name="&lt;Tracé&gt;" class="cls-18" d="M144.93,111.86a.58.58,0,0,1-.37,0c-.06,0-.09,0-.12,0a.62.62,0,0,1-.29.3.34.34,0,0,0,0,.18.49.49,0,0,0,.81.18A.42.42,0,0,0,144.93,111.86Z"/></g><g id="_Groupe_100" data-name="&lt;Groupe&gt;"><path id="_Tracé_56" data-name="&lt;Tracé&gt;" class="cls-19" d="M132.64,71.78S108.59,67,106.4,69.22s-3,20.12-1.25,21.87,18-.83,18-.83S135,80.24,132.64,71.78Z"/></g><g id="_Groupe_101" data-name="&lt;Groupe&gt;"><path id="_Tracé_57" data-name="&lt;Tracé&gt;" class="cls-20" d="M151,94.11c-.1-3.49-3.2-17-10.93-21.62-3-1.8-3.43-1.05-6.79-.1l-9.46.27a14.18,14.18,0,0,0-12,10c-.28,1-.45,2-.69,3a40.09,40.09,0,0,1-1.8,5.27l-6.63,16.78a4.07,4.07,0,0,1-2,2.57c1.85,1.26,3.65,2.59,5.46,3.89-2.48,4.71,11.94,17.6,4.71,29.51-9.33,15.37-20.58,49.34-21.69,59.07,2.4,1,54.24,27.72,79.19,2.38-6.58-8-21.87-58-22.1-66.93C146,127.86,151.42,110,151,94.11Z"/></g><g id="_Groupe_102" data-name="&lt;Groupe&gt;"><path id="_Tracé_58" data-name="&lt;Tracé&gt;" class="cls-5" d="M77.32,101.93a1.78,1.78,0,0,1,.68-2.2c.42-1.9,1-5.12.54-5.62a5.94,5.94,0,0,0-2.58-1s-2.86-3-3.86-2.86-1.72,1.86-1.43,2.58-2.43,6.3-1.72,7.58,4.58,4.15,5,4.44,13.23,19,19.6,20.6a14.45,14.45,0,0,0,3.15.43l.39-.37C89.44,118.48,81.55,111.72,77.32,101.93Z"/></g><g id="_Groupe_103" data-name="&lt;Groupe&gt;"><g id="_Groupe_104" data-name="&lt;Groupe&gt;"><path id="_Tracé_59" data-name="&lt;Tracé&gt;" d="M128.52,19.72c-4.37,0-8.37,3-11.5,5.76a20.7,20.7,0,0,0-5.76,9.3,41.21,41.21,0,0,0-1.85,12.53c.23,4.2,2.15,8-1.25,11.59-2.13,2.22-4.89,5.94-4.92,9.2a8.25,8.25,0,0,0,.08,1.2c.55-.47,3.94,3.38,4.86,3.67,4.28,1.35,6.11-2,10.5-1.12,1.31-3.57,1.5-7.85.45-10.72-.74-2-2.37-3.93-3.4-5.88-4-7.44-2.49-21.75,5.21-26.43,3.11-1.89,7.42-1.14,10.71-2.7C137.37,23.4,133,19.71,128.52,19.72Z"/></g></g><g id="_Groupe_105" data-name="&lt;Groupe&gt;"><g id="_Groupe_106" data-name="&lt;Groupe&gt;"><path id="_Tracé_60" data-name="&lt;Tracé&gt;" class="cls-15" d="M119.12,65a39.62,39.62,0,0,1-.89,9.53c5.53-3,8.25-.94,12.27,1a2.39,2.39,0,0,1,1,.84,14.24,14.24,0,0,0,6.35,3.12,12.69,12.69,0,0,0,2.39,0c.16,0,1-.19,1.57-.28a9.89,9.89,0,0,1,0-1.65V72.09c-1.75-.43-3.12-.88-3.8-3.12a77.81,77.81,0,0,1-2.39-10.6c-.7-4.39.36-9.07-2.36-12.91-2.71,5.05-9.52,13.16-15.76,12.7C118,58.2,119.12,62.46,119.12,65Z"/></g></g><g id="_Groupe_107" data-name="&lt;Groupe&gt;"><g id="_Groupe_108" data-name="&lt;Groupe&gt;"><path id="_Tracé_61" data-name="&lt;Tracé&gt;" class="cls-5" d="M122.57,26.61a12.28,12.28,0,0,1,4.32-.3,13.17,13.17,0,0,1,10.85,7.08c1.33,2.58,1.49,5.22,1.63,8.14a16.54,16.54,0,0,1-2,9.44,13.6,13.6,0,0,1-5.09,4.45c-1.86,1-3.87,2.1-5.81,3-3.73,1.74-8.4,2.19-10.63-2a24.74,24.74,0,0,1-2.77-10.24C112.63,38.65,114.86,28.63,122.57,26.61Z"/></g></g><g id="_Groupe_109" data-name="&lt;Groupe&gt;"><g id="_Groupe_110" data-name="&lt;Groupe&gt;"><g id="_Groupe_111" data-name="&lt;Groupe&gt;"><path id="_Tracé_62" data-name="&lt;Tracé&gt;" d="M130.87,38.64c.85.25,2.69.54,2.59,1.84,0,0-.21-.08-.53-.13-1-.13-3.08-.26-3.29-.29-1.32-.21-1.35-1.38-1.08-2.55A11.53,11.53,0,0,0,130.87,38.64Z"/></g></g></g><g id="_Groupe_112" data-name="&lt;Groupe&gt;"><g id="_Groupe_113" data-name="&lt;Groupe&gt;"><g id="_Groupe_114" data-name="&lt;Groupe&gt;"><path id="_Tracé_63" data-name="&lt;Tracé&gt;" d="M118.4,36.06a12.06,12.06,0,0,0,2.74.39c-.29,1-.59,1.66-1.3,1.75a2,2,0,0,1-.88-.13c-.2-.07-2.66-1.37-2.72-1.14C116.57,35.56,117.28,35.86,118.4,36.06Z"/></g></g></g><g id="_Groupe_115" data-name="&lt;Groupe&gt;"><g id="_Groupe_116" data-name="&lt;Groupe&gt;"><path id="_Tracé_64" data-name="&lt;Tracé&gt;" class="cls-5" d="M120,45.77a2.94,2.94,0,0,0,.81-.86c.55-1,.69-2.28,1.3-3.26,2,.18.6,5.31-.18,6.15-1,1.12-4,1.11-3-1.06A3.63,3.63,0,0,1,120,45.77Z"/></g></g><g id="_Groupe_117" data-name="&lt;Groupe&gt;"><g id="_Groupe_118" data-name="&lt;Groupe&gt;"><g id="_Groupe_119" data-name="&lt;Groupe&gt;"><path id="_Tracé_65" data-name="&lt;Tracé&gt;" class="cls-21" d="M127.28,44.09h-.08l.18,0Z"/></g></g></g><g id="_Groupe_120" data-name="&lt;Groupe&gt;"><g id="_Groupe_121" data-name="&lt;Groupe&gt;"><g id="_Groupe_122" data-name="&lt;Groupe&gt;"><g id="_Groupe_123" data-name="&lt;Groupe&gt;"><path id="_Tracé_66" data-name="&lt;Tracé&gt;" d="M116,40.81c-.41,1-.42,1.73,0,2.18a1.71,1.71,0,0,0,1.78.31,1.75,1.75,0,0,0,1.26-1.5l.79.08a2.68,2.68,0,0,1-4.42,1.65c-.37-.4-.88-1.33-.14-3Z"/></g></g></g></g><g id="_Groupe_124" data-name="&lt;Groupe&gt;"><g id="_Groupe_125" data-name="&lt;Groupe&gt;"><g id="_Groupe_126" data-name="&lt;Groupe&gt;"><g id="_Groupe_127" data-name="&lt;Groupe&gt;"><path id="_Tracé_67" data-name="&lt;Tracé&gt;" d="M128,42.46c-.5,1.44-.42,2.57.23,3.18a2.51,2.51,0,0,0,2.64.25,2.57,2.57,0,0,0,1.67-2.32l1.17,0a3.93,3.93,0,0,1-6.27,2.9c-.58-.54-1.42-1.84-.54-4.41Z"/></g></g></g></g><g id="_Groupe_128" data-name="&lt;Groupe&gt;"><g id="_Groupe_129" data-name="&lt;Groupe&gt;"><path id="_Tracé_68" data-name="&lt;Tracé&gt;" class="cls-15" d="M127,49.28c1-1.6,5.78-1.06,4.33,1.71-1.16,2.21-6,.7-4.36-1.66C126.89,49.52,127,49.37,127,49.28Z"/></g></g><g id="_Groupe_130" data-name="&lt;Groupe&gt;"><g id="_Groupe_131" data-name="&lt;Groupe&gt;"><path id="_Tracé_69" data-name="&lt;Tracé&gt;" class="cls-15" d="M114.14,47.18c.74-1.23,4.44-.81,3.32,1.31-.89,1.69-4.6.54-3.35-1.28C114,47.36,114.1,47.25,114.14,47.18Z"/></g></g><g id="_Groupe_132" data-name="&lt;Groupe&gt;"><g id="_Groupe_133" data-name="&lt;Groupe&gt;"><g id="_Groupe_134" data-name="&lt;Groupe&gt;"><path id="_Tracé_70" data-name="&lt;Tracé&gt;" class="cls-22" d="M120.65,50.65a.62.62,0,0,1,.57.66,4.57,4.57,0,0,0,.14,1.31.6.6,0,1,1-1.18.26,5.81,5.81,0,0,1-.17-1.63A.63.63,0,0,1,120.65,50.65Z"/></g></g><g id="_Groupe_135" data-name="&lt;Groupe&gt;"><g id="_Groupe_136" data-name="&lt;Groupe&gt;"><path id="_Tracé_71" data-name="&lt;Tracé&gt;" class="cls-15" d="M125.37,51.29c.19,0,.2,1,.16,1l-.1,0C125.22,52.14,125,51.21,125.37,51.29Z"/></g></g><g id="_Groupe_137" data-name="&lt;Groupe&gt;"><g id="_Groupe_138" data-name="&lt;Groupe&gt;"><path id="_Tracé_72" data-name="&lt;Tracé&gt;" class="cls-10" d="M124.54,51.85c.14,0-.41.71-.5.77-2.66,1.62-6.37,1.38-6.75-2.32.77.63,2.35.72,3.29.91A27.83,27.83,0,0,0,124.54,51.85Z"/></g></g><g id="_Groupe_139" data-name="&lt;Groupe&gt;"><g id="_Groupe_140" data-name="&lt;Groupe&gt;"><path id="_Tracé_73" data-name="&lt;Tracé&gt;" class="cls-15" d="M117.82,49.92c.28-.14.65-.45,1-.4a1.49,1.49,0,0,1,1,.83c.29-.23.57-.49,1-.42a5.42,5.42,0,0,1,1.86.8,7.63,7.63,0,0,0,2.17,1c.09,0-.28.17-.3.17a40.16,40.16,0,0,1-4.31-.46,8.69,8.69,0,0,1-1.89-.54,6.31,6.31,0,0,1-.7-.32s-.39-.31-.28-.32S117.67,50,117.82,49.92Z"/></g></g><g id="_Groupe_141" data-name="&lt;Groupe&gt;"><g id="_Groupe_142" data-name="&lt;Groupe&gt;"><path id="_Tracé_74" data-name="&lt;Tracé&gt;" class="cls-15" d="M118.83,52.92l.18.1a5.28,5.28,0,0,0,3.51.25,3.6,3.6,0,0,0,1.37-.6,4.26,4.26,0,0,0,.73-.87c.08.27-.2.77-.36,1a4.48,4.48,0,0,1-3.64,2,3.57,3.57,0,0,1-2.54-1c-.62-.69-.46-1.89-.69-2.76-.05-.21,0-.45-.06-.65C117.68,51.41,117.89,52.37,118.83,52.92Z"/></g></g></g><g id="_Groupe_143" data-name="&lt;Groupe&gt;"><g id="_Groupe_144" data-name="&lt;Groupe&gt;"><g id="_Groupe_145" data-name="&lt;Groupe&gt;"><g id="_Groupe_146" data-name="&lt;Groupe&gt;"><g id="_Groupe_147" data-name="&lt;Groupe&gt;"><path id="_Tracé_75" data-name="&lt;Tracé&gt;" d="M131.65,20.86a8.16,8.16,0,0,1,5.35-.34c4,1.1,6.68,4.55,8.89,7.8,2.11,3.09,6.8,3.19,9.12,6.4,4.83,6.67-2.33,14.5,2.29,21,2.3,3.23,6.25,5.23,6.61,9.56.61,7.34-7.37,11.73-13.87,12.13-6.81.42-15.14-2-14.42-10.24.17-2,.56-3-.35-4.88a12.17,12.17,0,0,1-1.24-3,10,10,0,0,1,2-8.1A20.81,20.81,0,0,0,139,43.88c1-3.93-.43-8.13-2.92-11.22a17.18,17.18,0,0,0-4.49-3.73c-1.37-.87-5.1-1.56-4.92-3.53S130.15,21.48,131.65,20.86Z"/></g></g></g></g><g id="_Groupe_148" data-name="&lt;Groupe&gt;"><g id="_Groupe_149" data-name="&lt;Groupe&gt;"><path id="_Tracé_76" data-name="&lt;Tracé&gt;" class="cls-5" d="M140.71,43.87c3.12.63,2.26,5.67-.26,6.55a3.12,3.12,0,0,1-.86,0c-1.17-.09-3.05-.34-3.14-.07C137.08,48.42,137.57,43.23,140.71,43.87Z"/></g></g><g id="_Groupe_150" data-name="&lt;Groupe&gt;"><g id="_Groupe_151" data-name="&lt;Groupe&gt;"><g id="_Groupe_152" data-name="&lt;Groupe&gt;"><path id="_Tracé_77" data-name="&lt;Tracé&gt;" class="cls-15" d="M140.89,46.82c0,.88-.16,2.27-1.41,1.57.14-.69.36-1.38.55-2.06Z"/></g></g></g></g><g id="_Groupe_153" data-name="&lt;Groupe&gt;"><path id="_Tracé_78" data-name="&lt;Tracé&gt;" class="cls-23" d="M146.42,39S126,20,117,25c0,0-2.61,4.55-2.51,5.58s-4.17-3.55-3.76-5,4.38-8.35,4-9.39,4.8-6.47,4.8-6.47l3.13-6.89,16.49.42s15,2.71,15,3.76,1.46,11.06.42,10.85-4,1.25-4,1.25L155.82,31l-6.68,5v4.38l-1.48,3.31Z"/></g><g id="_Groupe_154" data-name="&lt;Groupe&gt;"><path id="_Tracé_79" data-name="&lt;Tracé&gt;" class="cls-5" d="M76.88,99.9s7.36,15.86,15.5,18.81c3.1,1.12,7.49-6.06,9.89-7.26l13.78,8.39s-13.17,30.74-26.7,23.3c-16.11-8.86-15.12-40.27-15.12-40.27Z"/></g><g id="_Groupe_155" data-name="&lt;Groupe&gt;"><g id="_Groupe_156" data-name="&lt;Groupe&gt;"><path id="_Tracé_80" data-name="&lt;Tracé&gt;" d="M116.17,80.31l-.49.49a.59.59,0,0,0,.83.83l.49-.49a.59.59,0,0,0-.83-.83Z"/></g></g><g id="_Groupe_157" data-name="&lt;Groupe&gt;"><g id="_Groupe_158" data-name="&lt;Groupe&gt;"><path id="_Tracé_81" data-name="&lt;Tracé&gt;" d="M113.64,86.63l-1.44,1.5c-.53.55.31,1.38.83.83l1.44-1.5c.53-.55-.31-1.38-.83-.83Z"/></g></g><g id="_Groupe_159" data-name="&lt;Groupe&gt;"><g id="_Groupe_160" data-name="&lt;Groupe&gt;"><path id="_Tracé_82" data-name="&lt;Tracé&gt;" d="M110.77,91.21l-1.07,2.51c-.29.69.72,1.29,1,.59l1.07-2.51c.29-.69-.72-1.29-1-.59Z"/></g></g><g id="_Groupe_161" data-name="&lt;Groupe&gt;"><g id="_Groupe_162" data-name="&lt;Groupe&gt;"><path id="_Tracé_83" data-name="&lt;Tracé&gt;" d="M108,98.4a7.88,7.88,0,0,0-1.15,2.88c-.14.74,1,1.06,1.14.31a7,7,0,0,1,1-2.6c.41-.64-.6-1.23-1-.59Z"/></g></g><g id="_Groupe_163" data-name="&lt;Groupe&gt;"><g id="_Groupe_164" data-name="&lt;Groupe&gt;"><path id="_Tracé_84" data-name="&lt;Tracé&gt;" d="M105.38,104.82a4.35,4.35,0,0,0-1.23,2.11.59.59,0,0,0,1.14.31,3.21,3.21,0,0,1,.93-1.59c.55-.52-.28-1.35-.83-.83Z"/></g></g><g id="_Groupe_165" data-name="&lt;Groupe&gt;"><g id="_Groupe_166" data-name="&lt;Groupe&gt;"><path id="_Tracé_85" data-name="&lt;Tracé&gt;" d="M120.14,78l1.59-1.11a.6.6,0,0,0,.21-.81.59.59,0,0,0-.81-.21L119.54,77a.6.6,0,0,0-.21.81.59.59,0,0,0,.81.21Z"/></g></g><g id="_Groupe_167" data-name="&lt;Groupe&gt;"><g id="_Groupe_168" data-name="&lt;Groupe&gt;"><path id="_Tracé_86" data-name="&lt;Tracé&gt;" d="M125.17,76.87a1.65,1.65,0,0,1,1.59.24c.62.44,1.2-.58.59-1a2.75,2.75,0,0,0-2.49-.36c-.71.25-.41,1.39.31,1.14Z"/></g></g><g id="_Groupe_169" data-name="&lt;Groupe&gt;"><g id="_Groupe_170" data-name="&lt;Groupe&gt;"><path id="_Tracé_87" data-name="&lt;Tracé&gt;" class="cls-23" d="M119.16,75c5.86-4.4,10.24,2.31,15.3,4.41,2.35,1,10.69,1.61,8.8-3.26-.48-1.25-3.2-.48-2.73.73l-1,1.38-1.2-.05a8.63,8.63,0,0,1-2.3-.66,16.92,16.92,0,0,1-3.41-2.06,22.45,22.45,0,0,0-5.21-3.39,10.58,10.58,0,0,0-10.06,1.63c-1.48,1.11.72,2.1,1.82,1.28Z"/></g></g><g id="_Groupe_171" data-name="&lt;Groupe&gt;"><g id="_Groupe_172" data-name="&lt;Groupe&gt;"><path id="_Tracé_88" data-name="&lt;Tracé&gt;" d="M127.21,77.86A2.5,2.5,0,0,0,124.29,79a.59.59,0,0,0,1,.59,1.32,1.32,0,0,1,1.59-.59c.72.24,1-.9.31-1.14Z"/></g></g><g id="_Groupe_173" data-name="&lt;Groupe&gt;"><g id="_Groupe_174" data-name="&lt;Groupe&gt;"><path id="_Tracé_89" data-name="&lt;Tracé&gt;" d="M121.54,80.55a5.7,5.7,0,0,0-2.15,2.54.61.61,0,0,0,.21.81.59.59,0,0,0,.81-.21,4.64,4.64,0,0,1,1.73-2.12c.63-.41,0-1.44-.59-1Z"/></g></g><g id="_Groupe_175" data-name="&lt;Groupe&gt;"><g id="_Groupe_176" data-name="&lt;Groupe&gt;"><path id="_Tracé_90" data-name="&lt;Tracé&gt;" d="M117.69,87.1l-1.11,2c-.36.67.65,1.26,1,.59l1.11-2c.36-.67-.65-1.26-1-.59Z"/></g></g><g id="_Groupe_177" data-name="&lt;Groupe&gt;"><g id="_Groupe_178" data-name="&lt;Groupe&gt;"><path id="_Tracé_91" data-name="&lt;Tracé&gt;" d="M114.68,93.34l-1.13,2.71c-.29.7.85,1,1.14.31l1.13-2.71c.29-.7-.85-1-1.14-.31Z"/></g></g><g id="_Groupe_179" data-name="&lt;Groupe&gt;"><g id="_Groupe_180" data-name="&lt;Groupe&gt;"><path id="_Tracé_92" data-name="&lt;Tracé&gt;" d="M111.62,100.6a6.14,6.14,0,0,1-1.1,2.79c-.44.62.58,1.21,1,.59a6.89,6.89,0,0,0,1.22-3.07c.1-.74-1-1.06-1.14-.31Z"/></g></g><g id="_Groupe_181" data-name="&lt;Groupe&gt;"><g id="_Groupe_182" data-name="&lt;Groupe&gt;"><path id="_Tracé_93" data-name="&lt;Tracé&gt;" d="M109.19,107.93l-1.36,2c-.42.63.6,1.22,1,.59l1.36-2c.42-.63-.6-1.22-1-.59Z"/></g></g><g id="_Groupe_183" data-name="&lt;Groupe&gt;"><g id="_Groupe_184" data-name="&lt;Groupe&gt;"><path id="_Tracé_94" data-name="&lt;Tracé&gt;" d="M106.48,113.12l-.23.45a.6.6,0,0,0,.21.81.59.59,0,0,0,.81-.21l.23-.45a.6.6,0,0,0-.21-.81.59.59,0,0,0-.81.21Z"/></g></g><g id="_Groupe_185" data-name="&lt;Groupe&gt;"><g id="_Groupe_186" data-name="&lt;Groupe&gt;"><path id="_Tracé_95" data-name="&lt;Tracé&gt;" d="M128.25,80.22a4.32,4.32,0,0,0-2.8,2c-.41.64.61,1.23,1,.59a3.15,3.15,0,0,1,2.09-1.41c.74-.15.43-1.28-.31-1.14Z"/></g></g><g id="_Groupe_187" data-name="&lt;Groupe&gt;"><g id="_Groupe_188" data-name="&lt;Groupe&gt;"><path id="_Tracé_96" data-name="&lt;Tracé&gt;" d="M123.15,85.77,122.07,88c-.32.68.69,1.28,1,.59l1.08-2.28c.32-.68-.69-1.28-1-.59Z"/></g></g><g id="_Groupe_189" data-name="&lt;Groupe&gt;"><g id="_Groupe_190" data-name="&lt;Groupe&gt;"><path id="_Tracé_97" data-name="&lt;Tracé&gt;" d="M120.63,92a4.51,4.51,0,0,1-.85,2.12c-.45.61.57,1.2,1,.59a5.25,5.25,0,0,0,1-2.4.61.61,0,0,0-.41-.72.59.59,0,0,0-.72.41Z"/></g></g><g id="_Groupe_191" data-name="&lt;Groupe&gt;"><g id="_Groupe_192" data-name="&lt;Groupe&gt;"><path id="_Tracé_98" data-name="&lt;Tracé&gt;" d="M117.9,98.79a5,5,0,0,1-.8,1.69.59.59,0,0,0,.21.81.6.6,0,0,0,.81-.21,6,6,0,0,0,.92-2,.59.59,0,0,0-1.14-.31Z"/></g></g><g id="_Groupe_193" data-name="&lt;Groupe&gt;"><g id="_Groupe_194" data-name="&lt;Groupe&gt;"><path id="_Tracé_99" data-name="&lt;Tracé&gt;" d="M115.19,105.34a10.55,10.55,0,0,1-1.48,3.5c-.42.64.6,1.23,1,.59a11.51,11.51,0,0,0,1.6-3.78c.17-.74-1-1.05-1.14-.31Z"/></g></g><g id="_Groupe_195" data-name="&lt;Groupe&gt;"><g id="_Groupe_196" data-name="&lt;Groupe&gt;"><path id="_Tracé_100" data-name="&lt;Tracé&gt;" d="M111.79,112.79a5.49,5.49,0,0,1-1.14,2.27c-.49.58.34,1.41.83.83a6.8,6.8,0,0,0,1.44-2.79c.18-.74-1-1-1.14-.31Z"/></g></g><g id="_Groupe_197" data-name="&lt;Groupe&gt;"><g id="_Groupe_198" data-name="&lt;Groupe&gt;"><path id="_Tracé_101" data-name="&lt;Tracé&gt;" d="M128.54,84.83a4.57,4.57,0,0,0-1.74,1.86c-.34.68.68,1.27,1,.59a3.44,3.44,0,0,1,1.32-1.44.59.59,0,0,0-.59-1Z"/></g></g><g id="_Groupe_199" data-name="&lt;Groupe&gt;"><g id="_Groupe_200" data-name="&lt;Groupe&gt;"><path id="_Tracé_102" data-name="&lt;Tracé&gt;" d="M124.92,92.24l-.85,2.06a.59.59,0,0,0,.41.72.6.6,0,0,0,.72-.41l.85-2.06a.59.59,0,0,0-.41-.72.6.6,0,0,0-.72.41Z"/></g></g><g id="_Groupe_201" data-name="&lt;Groupe&gt;"><g id="_Groupe_202" data-name="&lt;Groupe&gt;"><path id="_Tracé_103" data-name="&lt;Tracé&gt;" d="M123.08,98a4.47,4.47,0,0,1-.82,2.19c-.43.62.59,1.21,1,.59a5.66,5.66,0,0,0,1-2.78c.07-.76-1.11-.75-1.18,0Z"/></g></g><g id="_Groupe_203" data-name="&lt;Groupe&gt;"><g id="_Groupe_204" data-name="&lt;Groupe&gt;"><path id="_Tracé_104" data-name="&lt;Tracé&gt;" d="M120.91,104.07a11.9,11.9,0,0,0-1,3.07c-.14.74,1,1.06,1.14.31a10.77,10.77,0,0,1,.91-2.78c.33-.68-.68-1.28-1-.59Z"/></g></g><g id="_Groupe_205" data-name="&lt;Groupe&gt;"><g id="_Groupe_206" data-name="&lt;Groupe&gt;"><path id="_Tracé_105" data-name="&lt;Tracé&gt;" d="M118.58,110.3l-1.12,2.94c-.27.71.87,1,1.14.31l1.12-2.94c.27-.71-.87-1-1.14-.31Z"/></g></g><g id="_Groupe_207" data-name="&lt;Groupe&gt;"><g id="_Groupe_208" data-name="&lt;Groupe&gt;"><path id="_Tracé_106" data-name="&lt;Tracé&gt;" d="M116.4,115.14l-1.11,2.49c-.31.69.71,1.29,1,.59l1.11-2.49c.31-.69-.71-1.29-1-.59Z"/></g></g><g id="_Groupe_209" data-name="&lt;Groupe&gt;"><g id="_Groupe_210" data-name="&lt;Groupe&gt;"><path id="_Tracé_107" data-name="&lt;Tracé&gt;" d="M100.27,110.61c4.89,4.56,11.67,7.13,17.55,10.15.67.35,1.27-.67.59-1-5.76-3-12.52-5.5-17.31-10-.55-.52-1.39.31-.83.83Z"/></g></g><g id="_Groupe_211" data-name="&lt;Groupe&gt;"><g id="_Groupe_212" data-name="&lt;Groupe&gt;"><path id="_Tracé_108" data-name="&lt;Tracé&gt;" d="M115,23.45a1.81,1.81,0,0,1,1.77-.57c.74.17,1.05-1,.31-1.14a3,3,0,0,0-2.91.88c-.51.56.32,1.39.83.83Z"/></g></g><g id="_Groupe_213" data-name="&lt;Groupe&gt;"><g id="_Groupe_214" data-name="&lt;Groupe&gt;"><path id="_Tracé_109" data-name="&lt;Tracé&gt;" d="M119.46,22.7a6.31,6.31,0,0,1,3.07.83.59.59,0,0,0,.59-1,7.58,7.58,0,0,0-3.67-1,.59.59,0,0,0,0,1.18Z"/></g></g><g id="_Groupe_215" data-name="&lt;Groupe&gt;"><g id="_Groupe_216" data-name="&lt;Groupe&gt;"><path id="_Tracé_110" data-name="&lt;Tracé&gt;" d="M125.85,24.36l2.09,1c.68.32,1.28-.69.59-1l-2.09-1c-.68-.32-1.28.69-.59,1Z"/></g></g><g id="_Groupe_217" data-name="&lt;Groupe&gt;"><g id="_Groupe_218" data-name="&lt;Groupe&gt;"><path id="_Tracé_111" data-name="&lt;Tracé&gt;" d="M132,26.75l2.92,1.65a.59.59,0,0,0,.59-1l-2.92-1.65a.59.59,0,0,0-.59,1Z"/></g></g><g id="_Groupe_219" data-name="&lt;Groupe&gt;"><g id="_Groupe_220" data-name="&lt;Groupe&gt;"><path id="_Tracé_112" data-name="&lt;Tracé&gt;" d="M139.41,30.69,142.24,33c.58.48,1.42-.35.83-.83l-2.83-2.33c-.58-.48-1.42.35-.83.83Z"/></g></g><g id="_Groupe_221" data-name="&lt;Groupe&gt;"><g id="_Groupe_222" data-name="&lt;Groupe&gt;"><path id="_Tracé_113" data-name="&lt;Tracé&gt;" d="M145.52,35.71l2.08,2.82c.44.6,1.47,0,1-.59l-2.08-2.82c-.44-.6-1.47,0-1,.59Z"/></g></g><g id="_Groupe_223" data-name="&lt;Groupe&gt;"><g id="_Groupe_224" data-name="&lt;Groupe&gt;"><path id="_Tracé_114" data-name="&lt;Tracé&gt;" d="M113.83,27.85a3.08,3.08,0,0,1,.88-1.8.59.59,0,0,0-.83-.83,4.11,4.11,0,0,0-1.19,2.32.61.61,0,0,0,.41.72.59.59,0,0,0,.72-.41Z"/></g></g><g id="_Groupe_225" data-name="&lt;Groupe&gt;"><g id="_Groupe_226" data-name="&lt;Groupe&gt;"><path id="_Tracé_115" data-name="&lt;Tracé&gt;" d="M115.2,19.05,117,17.26c.54-.53-.29-1.36-.83-.83l-1.82,1.79c-.54.53.29,1.36.83.83Z"/></g></g><g id="_Groupe_227" data-name="&lt;Groupe&gt;"><g id="_Groupe_228" data-name="&lt;Groupe&gt;"><path id="_Tracé_116" data-name="&lt;Tracé&gt;" d="M119.46,17.48l3.86-.31c.75-.06.76-1.24,0-1.18l-3.86.31c-.75.06-.76,1.24,0,1.18Z"/></g></g><g id="_Groupe_229" data-name="&lt;Groupe&gt;"><g id="_Groupe_230" data-name="&lt;Groupe&gt;"><path id="_Tracé_117" data-name="&lt;Tracé&gt;" d="M126.78,18.2l3.63,1.22c.72.24,1-.9.31-1.14l-3.63-1.22c-.72-.24-1,.9-.31,1.14Z"/></g></g><g id="_Groupe_231" data-name="&lt;Groupe&gt;"><g id="_Groupe_232" data-name="&lt;Groupe&gt;"><path id="_Tracé_118" data-name="&lt;Tracé&gt;" d="M134.25,21.57a16.6,16.6,0,0,1,3.47,1.75c.64.42,1.23-.6.59-1a17.94,17.94,0,0,0-3.75-1.86c-.71-.26-1,.88-.31,1.14Z"/></g></g><g id="_Groupe_233" data-name="&lt;Groupe&gt;"><g id="_Groupe_234" data-name="&lt;Groupe&gt;"><path id="_Tracé_119" data-name="&lt;Tracé&gt;" d="M140.79,26.19a11.16,11.16,0,0,1,3,2.42c.5.57,1.33-.27.83-.83a12.12,12.12,0,0,0-3.26-2.61c-.66-.37-1.26.65-.59,1Z"/></g></g><g id="_Groupe_235" data-name="&lt;Groupe&gt;"><g id="_Groupe_236" data-name="&lt;Groupe&gt;"><path id="_Tracé_120" data-name="&lt;Tracé&gt;" d="M147.12,31.22a9.47,9.47,0,0,1,2.28,2.93c.34.68,1.36.08,1-.59A10.34,10.34,0,0,0,148,30.39c-.57-.49-1.41.34-.83.83Z"/></g></g><g id="_Groupe_237" data-name="&lt;Groupe&gt;"><g id="_Groupe_238" data-name="&lt;Groupe&gt;"><path id="_Tracé_121" data-name="&lt;Tracé&gt;" d="M117,14.43a5.74,5.74,0,0,1,2.85-1.37c.74-.14.43-1.27-.31-1.14a6.88,6.88,0,0,0-3.37,1.67c-.57.51.27,1.34.83.83Z"/></g></g><g id="_Groupe_239" data-name="&lt;Groupe&gt;"><g id="_Groupe_240" data-name="&lt;Groupe&gt;"><path id="_Tracé_122" data-name="&lt;Tracé&gt;" d="M123.32,13.2l3.88.27c.76.05.75-1.13,0-1.18L123.32,12c-.76-.05-.75,1.13,0,1.18Z"/></g></g><g id="_Groupe_241" data-name="&lt;Groupe&gt;"><g id="_Groupe_242" data-name="&lt;Groupe&gt;"><path id="_Tracé_123" data-name="&lt;Tracé&gt;" d="M131.57,14.66a5.62,5.62,0,0,1,3,1.29c.58.49,1.41-.34.83-.83a7,7,0,0,0-3.81-1.64c-.75-.09-.75,1.09,0,1.18Z"/></g></g><g id="_Groupe_243" data-name="&lt;Groupe&gt;"><g id="_Groupe_244" data-name="&lt;Groupe&gt;"><path id="_Tracé_124" data-name="&lt;Tracé&gt;" d="M137.7,17.41l3.14,2c.64.41,1.23-.61.59-1l-3.14-2c-.64-.41-1.23.61-.59,1Z"/></g></g><g id="_Groupe_245" data-name="&lt;Groupe&gt;"><g id="_Groupe_246" data-name="&lt;Groupe&gt;"><path id="_Tracé_125" data-name="&lt;Tracé&gt;" d="M144.65,21.55a13.12,13.12,0,0,1,3.13,2.86c.47.59,1.3-.25.83-.83a14.07,14.07,0,0,0-3.37-3c-.64-.41-1.23.61-.59,1Z"/></g></g><g id="_Groupe_247" data-name="&lt;Groupe&gt;"><g id="_Groupe_248" data-name="&lt;Groupe&gt;"><path id="_Tracé_126" data-name="&lt;Tracé&gt;" d="M149.93,26.16l2.31,3.36c.43.62,1.45,0,1-.59l-2.31-3.36c-.43-.62-1.45,0-1,.59Z"/></g></g><g id="_Groupe_249" data-name="&lt;Groupe&gt;"><g id="_Groupe_250" data-name="&lt;Groupe&gt;"><path id="_Tracé_127" data-name="&lt;Tracé&gt;" d="M153.19,32.15l.53.76a.6.6,0,0,0,.81.21.59.59,0,0,0,.21-.81l-.53-.76a.6.6,0,0,0-.81-.21.59.59,0,0,0-.21.81Z"/></g></g><g id="_Groupe_251" data-name="&lt;Groupe&gt;"><g id="_Groupe_252" data-name="&lt;Groupe&gt;"><path id="_Tracé_128" data-name="&lt;Tracé&gt;" d="M120.78,10.39l2.6-1.24c.68-.33.09-1.34-.59-1l-2.6,1.24c-.68.33-.09,1.34.59,1Z"/></g></g><g id="_Groupe_253" data-name="&lt;Groupe&gt;"><g id="_Groupe_254" data-name="&lt;Groupe&gt;"><path id="_Tracé_129" data-name="&lt;Tracé&gt;" d="M126.32,9.18A13.94,13.94,0,0,1,130,9c.76.05.75-1.12,0-1.18A15.13,15.13,0,0,0,126,8c-.74.15-.43,1.28.31,1.14Z"/></g></g><g id="_Groupe_255" data-name="&lt;Groupe&gt;"><g id="_Groupe_256" data-name="&lt;Groupe&gt;"><path id="_Tracé_130" data-name="&lt;Tracé&gt;" d="M132.86,10a5.37,5.37,0,0,1,2.93,1.11c.59.46,1.43-.37.83-.83a6.77,6.77,0,0,0-3.76-1.46c-.76-.05-.75,1.12,0,1.18Z"/></g></g><g id="_Groupe_257" data-name="&lt;Groupe&gt;"><g id="_Groupe_258" data-name="&lt;Groupe&gt;"><path id="_Tracé_131" data-name="&lt;Tracé&gt;" d="M139.42,12.78a20,20,0,0,1,4,2.23c.62.44,1.21-.58.59-1a21.25,21.25,0,0,0-4.29-2.35c-.7-.29-1,.85-.31,1.14Z"/></g></g><g id="_Groupe_259" data-name="&lt;Groupe&gt;"><g id="_Groupe_260" data-name="&lt;Groupe&gt;"><path id="_Tracé_132" data-name="&lt;Tracé&gt;" d="M146.46,16.67a3.52,3.52,0,0,1,2.1,2.41.59.59,0,0,0,1.14-.31,4.61,4.61,0,0,0-2.64-3.12c-.69-.29-1.29.72-.59,1Z"/></g></g><g id="_Groupe_261" data-name="&lt;Groupe&gt;"><g id="_Groupe_262" data-name="&lt;Groupe&gt;"><path id="_Tracé_133" data-name="&lt;Tracé&gt;" d="M150.27,23.44l.77.77a.59.59,0,0,0,.83-.83l-.77-.77a.59.59,0,0,0-.83.83Z"/></g></g><g id="_Groupe_263" data-name="&lt;Groupe&gt;"><g id="_Groupe_264" data-name="&lt;Groupe&gt;"><path id="_Tracé_134" data-name="&lt;Tracé&gt;" d="M123.25,5.9a13.73,13.73,0,0,1,2.91-.61c.75-.07.76-1.25,0-1.18a15.17,15.17,0,0,0-3.22.65c-.72.23-.41,1.37.31,1.14Z"/></g></g><g id="_Groupe_265" data-name="&lt;Groupe&gt;"><g id="_Groupe_266" data-name="&lt;Groupe&gt;"><path id="_Tracé_135" data-name="&lt;Tracé&gt;" d="M131.07,5.8a15.84,15.84,0,0,1,3.43.84c.71.26,1-.88.31-1.14a17.16,17.16,0,0,0-3.75-.88c-.75-.09-.74,1.09,0,1.18Z"/></g></g><g id="_Groupe_267" data-name="&lt;Groupe&gt;"><g id="_Groupe_268" data-name="&lt;Groupe&gt;"><path id="_Tracé_136" data-name="&lt;Tracé&gt;" d="M138.37,7.15a7.83,7.83,0,0,1,3.24,1.43c.61.45,1.2-.57.59-1A8.64,8.64,0,0,0,138.69,6c-.74-.14-1.06,1-.31,1.14Z"/></g></g><g id="_Groupe_269" data-name="&lt;Groupe&gt;"><g id="_Groupe_270" data-name="&lt;Groupe&gt;"><path id="_Tracé_137" data-name="&lt;Tracé&gt;" d="M144.83,10.71A4.36,4.36,0,0,1,147,12.79c.35.67,1.36.08,1-.59a5.59,5.59,0,0,0-2.91-2.62c-.7-.29-1,.85-.31,1.14Z"/></g></g><g id="_Groupe_271" data-name="&lt;Groupe&gt;"><g id="_Groupe_272" data-name="&lt;Groupe&gt;"><path id="_Tracé_138" data-name="&lt;Tracé&gt;" d="M148.39,13.78l2.27,3.64c.4.64,1.42.05,1-.59l-2.27-3.64c-.4-.64-1.42-.05-1,.59Z"/></g></g><g id="_Groupe_273" data-name="&lt;Groupe&gt;"><g id="_Groupe_274" data-name="&lt;Groupe&gt;"><path id="_Tracé_139" data-name="&lt;Tracé&gt;" d="M140.71,5.12a2.23,2.23,0,0,1,2.23,0,.59.59,0,0,0,.59-1,3.44,3.44,0,0,0-3.42,0c-.66.36-.07,1.38.59,1Z"/></g></g><g id="_Groupe_275" data-name="&lt;Groupe&gt;"><g id="_Groupe_276" data-name="&lt;Groupe&gt;"><path id="_Tracé_140" data-name="&lt;Tracé&gt;" d="M146,6.95a3.56,3.56,0,0,1,2.38,1.42c.44.61,1.47,0,1-.59a4.88,4.88,0,0,0-3.4-2c-.75-.1-.74,1.08,0,1.18Z"/></g></g><g id="_Groupe_277" data-name="&lt;Groupe&gt;"><g id="_Groupe_278" data-name="&lt;Groupe&gt;"><path id="_Tracé_141" data-name="&lt;Tracé&gt;" d="M150.21,9.83A5.5,5.5,0,0,1,151.66,13c.08.75,1.26.75,1.18,0A6.85,6.85,0,0,0,151,9c-.51-.56-1.35.28-.83.83Z"/></g></g><g id="_Groupe_279" data-name="&lt;Groupe&gt;"><g id="_Groupe_280" data-name="&lt;Groupe&gt;"><path id="_Tracé_142" data-name="&lt;Tracé&gt;" d="M152.34,15.07l.33,2.57c.09.74,1.27.75,1.18,0l-.33-2.57c-.09-.74-1.27-.75-1.18,0Z"/></g></g><path id="_Tracé_143" data-name="&lt;Tracé&gt;" class="cls-5" d="M105.14,89.17S82,86.8,74.51,83.74,68.28,66.19,92,56.24l3-1.71,6.84,2.86s-12,12-10.37,14.1,14.6-1.18,14.6-1.18S104.2,85.87,105.14,89.17Z"/><g id="_Groupe_281" data-name="&lt;Groupe&gt;"><path class="cls-24" d="M78.16,33.78a48,48,0,0,1,6.34,3.92,2.52,2.52,0,0,0,3.42-.9,2.56,2.56,0,0,0-.9-3.42,48,48,0,0,0-6.34-3.92C77.83,28,75.3,32.3,78.16,33.78Z"/></g><g id="_Groupe_282" data-name="&lt;Groupe&gt;"><path class="cls-24" d="M80.8,24.11l6.47,5.24a2.57,2.57,0,0,0,3.54,0,2.52,2.52,0,0,0,0-3.54l-6.47-5.24a2.57,2.57,0,0,0-3.54,0,2.52,2.52,0,0,0,0,3.54Z"/></g><g id="_Groupe_283" data-name="&lt;Groupe&gt;"><path class="cls-24" d="M88.23,15.06a26.85,26.85,0,0,1,4.47,6.08c1.53,2.83,5.85.31,4.32-2.52a31.72,31.72,0,0,0-5.25-7.09c-2.26-2.3-5.79,1.23-3.54,3.54Z"/></g><g id="_Groupe_284" data-name="&lt;Groupe&gt;"><path class="cls-24" d="M100.66,13.42c0,.08.43.92.24.45.09.21.17.43.24.65a12.32,12.32,0,0,1,.41,1.57,2.51,2.51,0,0,0,3.08,1.75,2.56,2.56,0,0,0,1.75-3.08A14.45,14.45,0,0,0,105,10.9a2.52,2.52,0,0,0-3.42-.9,2.56,2.56,0,0,0-.9,3.42Z"/></g><g id="_Groupe_285" data-name="&lt;Groupe&gt;"><path class="cls-24" d="M81.09,49.07l4.21-.44a2.57,2.57,0,0,0,2.5-2.5,2.52,2.52,0,0,0-2.5-2.5l-4.21.44a2.57,2.57,0,0,0-2.5,2.5,2.52,2.52,0,0,0,2.5,2.5Z"/></g><path id="_Tracé_144" data-name="&lt;Tracé&gt;" class="cls-15" d="M123.05,41.71s-1.19-1.11-1.63,1.19-.73,2.84-1.44,2.87-2.2.33-1.16,1.22,2.92,1.46,3.34.67C123.27,45.58,123.05,41.71,123.05,41.71Z"/></g></g></g><g id="_Groupe_286" data-name="&lt;Groupe&gt;"><path d="M105.19,68.89c-1.32,7.34-2.27,15.11-1.25,22.53.22,1.59,2.63.91,2.41-.66-1-6.94,0-14.35,1.25-21.2.28-1.57-2.13-2.25-2.41-.66Z"/></g></g><rect class="cls-1" x="0.77" y="-1.34" width="280" height="190"/></g></g></svg>