<svg xmlns="http://www.w3.org/2000/svg" xmlns:xlink="http://www.w3.org/1999/xlink" width="23" height="27" viewBox="0 0 23 27">
    <defs>
        <path id="a" d="M0 0h22.91v27H0z"/>
    </defs>
    <g fill="none" fill-rule="evenodd">
        <mask id="b" fill="#fff">
            <use xlink:href="#a"/>
        </mask>
        <path fill="#000" d="M11.455 16.749a2.647 2.647 0 1 1 0-5.294 2.647 2.647 0 0 1 0 5.294m8.571-8.279a5.619 5.619 0 0 1-3.867 1.536 5.618 5.618 0 0 1-3.867-1.536 1.863 1.863 0 0 1-1.666.004c-.003 0-.006-.002-.009-.004a5.619 5.619 0 0 1-3.867 1.536A5.619 5.619 0 0 1 2.883 8.47 5.162 5.162 0 0 0 0 13.103v3.573c0 1.316 1.139 2.371 2.455 2.371v6.317c0 .877.759 1.636 1.636 1.636h4.713v-3.993c-.798 0-1.44-.648-1.44-1.446v-2.165c0-1.232.712-2.298 1.747-2.808.612.577 1.436.93 2.344.93.907 0 1.731-.353 2.343-.93a3.128 3.128 0 0 1 1.747 2.808v2.165c0 .798-.642 1.446-1.44 1.446V27h4.768c.877 0 1.582-.76 1.582-1.636v-6.317c1.315 0 2.454-1.055 2.454-2.37v-3.574a5.162 5.162 0 0 0-2.883-4.633m-3.867.265a4.368 4.368 0 1 0 0-8.735 4.368 4.368 0 0 0 0 8.735m-9.409 0A4.368 4.368 0 1 0 6.75 0a4.368 4.368 0 0 0 0 8.735" mask="url(#b)"/>
    </g>
</svg>
