<svg id="Calque_1" data-name="Calque 1" xmlns="http://www.w3.org/2000/svg" xmlns:xlink="http://www.w3.org/1999/xlink" viewBox="0 0 280 180"><defs><style>.cls-1{fill:none;}.cls-2{fill:#a0ecd6;}.cls-3{clip-path:url(#clip-path);}.cls-4{fill:#714f47;}.cls-5{fill:#62342d;}.cls-6{fill:#fff;}.cls-7{fill:#ff7900;}.cls-8{fill:#fdd230;}.cls-9{fill:#a6caca;}.cls-10{fill:#c67289;}.cls-11{fill:#c5e1df;}.cls-12{fill:#8f8f8f;}.cls-13{fill:#5c7393;}.cls-14{fill:#595959;}.cls-15{fill:#d6d6d6;}.cls-16{fill:#b5e8f7;}</style><clipPath id="clip-path"><rect class="cls-1" x="-5.3" y="-3.1" width="304.5" height="183.1"/></clipPath></defs><title>Pass Internetvf</title><rect class="cls-2" width="280" height="180"/><g class="cls-3"><g id="_Groupe_" data-name="&lt;Groupe&gt;"><path id="_Tracé_" data-name="&lt;Tracé&gt;" class="cls-4" d="M74.7,163.1a57.2,57.2,0,0,1-3.7-4.9c-7.7,7.4-16.8,23.4-17.9,28.8s-2.4,12.1-.2,17.5c.9,2.1,2.6,4.8,4.6,5.8a4.88,4.88,0,0,0,.7.3c1.3.5,3.3,1,4.1-.1.7-.9-.2-7.4,1.7-12.4,2.5-6.3,5.2-12.5,9.1-18a28.51,28.51,0,0,1,4.1-4.4C75.8,171.6,74.5,167.4,74.7,163.1Z"/></g><g id="_Groupe_2" data-name="&lt;Groupe&gt;"><path id="_Tracé_2" data-name="&lt;Tracé&gt;" d="M85.1,100.4c3.3-4,9.1-15.5,15.2-15.3a4.53,4.53,0,0,1,1.6.3c8.2,3.2,5.4,15.5,3,21.3-5,12-13,24.2-17.6,36.3-2.1,5.6-3.8,9.4-4.9,15.3-1.2,6.1-1,17.1-2.7,22.9,0,0-19.1,6.8-24.6,3.8-6.7-3.6,1.5-34.9,3.7-40.9a79.48,79.48,0,0,1,8.5-15.7C73.5,119.4,78.1,108.9,85.1,100.4Z"/></g><g id="_Groupe_3" data-name="&lt;Groupe&gt;"><path id="_Tracé_3" data-name="&lt;Tracé&gt;" class="cls-5" d="M126.5,65.8c-.9-1.5-1.8-3.8-3.1-4.7-.3,2.4.4,5.4.3,7.9-.1,3.5-1.4,7.4-3.8,8.8-1,.6-12.7-3.9-12.2-2.7,2.2,6,12.2,16.6,7.4,22.9,4,6.5,21.3-.4,25.6-4.2,4.8-4.2,4.3-7.2.6-10.4a4.89,4.89,0,0,1-1.1.7s-2.4-3.5-.7-2.1c.7.5,1.3,1,1.8,1.4.3-.2-7.2-6.1-9.5-9.2A86,86,0,0,1,126.5,65.8Z"/></g><g id="_Groupe_4" data-name="&lt;Groupe&gt;"><path id="_Tracé_4" data-name="&lt;Tracé&gt;" class="cls-4" d="M120.3,54.2c-1.6.6-1.5,3.8-3.5,3.4-1.1-.2-1.3-2.1-1.8-2.8-2.3-3.8-4.7-7.9-8.5-10.4-2.9-1.9-5.2.2-6.6,2.6-1.5,2.6-5.2,3.9-5.6,7.1a1.83,1.83,0,0,0,.9,1.8c-.7.5-1.4,1-2,1.4a5.31,5.31,0,0,1-1.7.8,7.74,7.74,0,0,0-1.6.7c-1,.6-.6,1.3-.2,2.3.3.8.6,1.7.9,2.5a44.83,44.83,0,0,0,5.3,9.9,38.09,38.09,0,0,0,8.4,8.6c.9.6,2,1.4,3.2,2.2,2.8,1.8,5.2,2.7,8.3,1.1,2.5-1.3,4-3.8,5.6-6,1.9-2.7,3.7-6,3.6-9.5-.1-2.9-1.7-5.7,0-8.5C126.8,58.4,124.5,52.6,120.3,54.2Z"/></g><g id="_Groupe_5" data-name="&lt;Groupe&gt;"><path id="_Tracé_5" data-name="&lt;Tracé&gt;" class="cls-5" d="M121.1,57.6c.4.9,1,1.8,1.4,2.6l1-1C123.3,58,122.6,56.2,121.1,57.6Z"/></g><g id="_Groupe_6" data-name="&lt;Groupe&gt;"><path id="_Tracé_6" data-name="&lt;Tracé&gt;" d="M108.8,38.1c-3.5-.4-6.7,1.8-9.5,3.9-.7.5-1.3,1-1.9,1.5a11.25,11.25,0,0,1-2.1,1.2,20.86,20.86,0,0,1-1.9,6.9c-.9,2-1.8,3.9-2.6,5.9a15.67,15.67,0,0,1,.8,3.1,20.81,20.81,0,0,0,3-1.3,13.83,13.83,0,0,0,4.6-4.4c.6-1.1.5-2.2,1.4-3.2a11.84,11.84,0,0,1,6.6-3.5c2.2-.4,2.2.4,3.7,2.1,3.4,3.8,5.3,9,8.7,12.6,2.5-1.1-.4-4-.1-5.8.3-1.4,1.5-1.5,1.1-3.4-.2-1.2-1.1-2.2-1.4-3.4C118.1,45.7,113.9,38.8,108.8,38.1Z"/></g><g id="_Groupe_7" data-name="&lt;Groupe&gt;"><path id="_Tracé_7" data-name="&lt;Tracé&gt;" d="M98.3,44.5a26.37,26.37,0,0,0-5.9,7.8c-1.3,3-2.6,5.5-.9,8.3"/></g><g id="_Groupe_8" data-name="&lt;Groupe&gt;"><path id="_Tracé_8" data-name="&lt;Tracé&gt;" d="M92.5,61a20.9,20.9,0,0,1,4.2-4.2,6.07,6.07,0,0,0,1-.7c.7-3.2,3.9-6.3,5.9-8.3,3.9-3.9-2.6-9.5-6.5-5.6-5.4,5.3-9.5,12.2-7.3,19.5A10.67,10.67,0,0,1,92.5,61Z"/></g><g id="_Groupe_9" data-name="&lt;Groupe&gt;"><path id="_Tracé_9" data-name="&lt;Tracé&gt;" class="cls-5" d="M116.2,64.3c-1.6-.8-5.1,2.7-2.4,4.2,2.2,1.2,5.1-3.1,2.4-4.2C116.5,64.4,116.3,64.4,116.2,64.3Z"/></g><g id="_Groupe_10" data-name="&lt;Groupe&gt;"><path id="_Tracé_10" data-name="&lt;Tracé&gt;" class="cls-5" d="M101.8,66.4c.3,1.5,1.4,2.9,1.8,4.4a4.3,4.3,0,0,1,0,1.6,4.64,4.64,0,0,0-.1,2c1,3.1,4,.1,4-2C107.5,70.9,104.1,64.6,101.8,66.4Z"/></g><g id="_Groupe_11" data-name="&lt;Groupe&gt;"><path id="_Tracé_11" data-name="&lt;Tracé&gt;" d="M111.3,61.9a2.79,2.79,0,0,0-2.9,1.2c-.3.6-.7,1.8.6,3.6l.8-.5c-.7-1-.9-1.9-.5-2.5a2,2,0,0,1,2-.8,2.08,2.08,0,0,1,1.8,1.4l.9-.3A3,3,0,0,0,111.3,61.9Z"/></g><g id="_Groupe_12" data-name="&lt;Groupe&gt;"><path id="_Tracé_12" data-name="&lt;Tracé&gt;" class="cls-6" d="M106,78.7c2.6,3.5,5.1,2.9,6.4,2.2,2.4-1.1,3.9-5.9,2.5-8.3a.1.1,0,0,0-.1.1C114.6,73.7,106.5,78.8,106,78.7Z"/></g><g id="_Groupe_13" data-name="&lt;Groupe&gt;"><path id="_Tracé_13" data-name="&lt;Tracé&gt;" class="cls-7" d="M165.7,87.2c-6.3-3.5-26.7-8.7-26.8-7.6-1,9-11,16.8-16.8,15-3.1-.9-3.7-8.8-6.1-10.1-3.8-2.1-16.5-1.1-18.6,2.2-2.4,3.7-2.5,9.3-2,13.3s.8,8.4,1.5,12.5c.4,2.5.5,5.1.8,7.5.7,7.3,10.5,25.2,11.8,32.4,1.6,8.9.3,17.8,1.1,26.8.3,3.5-24.3,59.2-20.9,60.2,6.5,2,57.6,6.7,66.7,5.1,1-.2,2.5-30.6,3.5-30.7,2-.1,3.4,30.3,5.1,30.3,4.2,0,7.3-.4,7.5-4.4.3-13.4-5.7-103.6-4.2-116.8.8-6.7,1.5-13.3,1.9-20,.2-3.1,1.3-8.1-.4-11A12.6,12.6,0,0,0,165.7,87.2Z"/></g><g id="_Groupe_14" data-name="&lt;Groupe&gt;"><path id="_Tracé_14" data-name="&lt;Tracé&gt;" class="cls-8" d="M137,79.3c.1,5.6-3.3,9.2-7.3,12.6a15.71,15.71,0,0,1-7.8,3.7c-1.4.2-4.8-2-5.2-2-1.1,0-1.3.9-2,3a12.93,12.93,0,0,0,7.5,2.9c5.3-.1,12.7-5.2,15.8-9.9a12.57,12.57,0,0,0,2-5.7c.1-1.1,0-3.9-.9-4.6C138.9,79.2,136.9,78.7,137,79.3Z"/></g><g id="_Groupe_15" data-name="&lt;Groupe&gt;"><path id="_Tracé_15" data-name="&lt;Tracé&gt;" class="cls-4" d="M118.5,80.5c-.5,0-.5.7-.9,1.1a4.63,4.63,0,0,1-3.3,1.5c.1,2,2.5,3.9,4,2a5.15,5.15,0,0,0,1.3-2.9C119.7,81.7,119.3,80.5,118.5,80.5Z"/></g><g id="_Groupe_16" data-name="&lt;Groupe&gt;"><path id="_Tracé_16" data-name="&lt;Tracé&gt;" d="M100.3,69.6a2.61,2.61,0,0,0-2.6,1.1c-.3.5-.6,1.6.5,3.2l.7-.5a2.37,2.37,0,0,1-.5-2.3,1.8,1.8,0,0,1,1.8-.7,1.84,1.84,0,0,1,1.6,1.3l.8-.2A2.59,2.59,0,0,0,100.3,69.6Z"/></g><g id="_Groupe_17" data-name="&lt;Groupe&gt;"><path id="_Tracé_17" data-name="&lt;Tracé&gt;" d="M107,57.9a18.15,18.15,0,0,1-3,1.1c.8,1.2,1.8,2.1,3.1,1.1.2-.2,2.2-1.9,3.2-2.6l.6-.4C109.8,56,107.9,57.4,107,57.9Z"/></g><g id="_Groupe_18" data-name="&lt;Groupe&gt;"><path id="_Tracé_18" data-name="&lt;Tracé&gt;" d="M94.3,66.7c-.8,1-1.4,1.6-.3,2.5-.2-.2,2.4-2,2.5-2.2a3.28,3.28,0,0,0,.6-.8c.3-.7-.3-1.3-1.1-2.1C96.3,64.3,94.5,66.5,94.3,66.7Z"/></g><g id="_Groupe_19" data-name="&lt;Groupe&gt;"><path id="_Tracé_19" data-name="&lt;Tracé&gt;" class="cls-8" d="M120,89l-1.2,79.2c0,1.5.8,2.7,1.9,2.8l2.2.3c1.2.1,2.2-1.1,2.2-2.8l.9-78.9a2.93,2.93,0,0,0-1.6-2.8l-1.9-.5C121.2,85.9,120.1,87.2,120,89Z"/></g><g id="_Groupe_20" data-name="&lt;Groupe&gt;"><path id="_Tracé_20" data-name="&lt;Tracé&gt;" class="cls-8" d="M89.3,55.1s15.3-8.8,28.6-6a.77.77,0,0,0,.9-1c-1.1-3.9-3.6-14.7-6.6-17-6.9-5.3-24.8,6.1-26.3,9.2S89.3,55.1,89.3,55.1Z"/></g><g id="_Groupe_21" data-name="&lt;Groupe&gt;"><path id="_Tracé_21" data-name="&lt;Tracé&gt;" class="cls-4" d="M125.5,88.8c-2.3-1.2-4.2-2.9-6.5-4.1a26.74,26.74,0,0,1-6.6-5c-.8-.8-2.2-3-3.5-3.2s-2.5,1.4-3.1,2.7c-.1.2-.2.5-.3.7-.8,2.1-.2,5.3.5,7.4,1.7,4.6,5.5,7.9,9.3,10.8a50.77,50.77,0,0,0,8.7,5.1c2.1,1,4.4,1.9,6.4,3.1,1.5.9,2.7,2.3,4.5,2.8,3.2,1,4-1.3,5.1-4,1.1-2.9,2.1-5.8.1-8.5C136.6,91.7,130.6,91.4,125.5,88.8Z"/></g><g id="_Groupe_22" data-name="&lt;Groupe&gt;"><path id="_Tracé_22" data-name="&lt;Tracé&gt;" class="cls-5" d="M108,76.6h-.1a2.84,2.84,0,0,1-.6.9,20.8,20.8,0,0,0,7.1,9.5l.8-1.1C111.2,82.9,108.9,79.9,108,76.6Z"/></g><g id="_Groupe_23" data-name="&lt;Groupe&gt;"><path id="_Tracé_23" data-name="&lt;Tracé&gt;" class="cls-5" d="M105.8,79.2a4.88,4.88,0,0,0-.4,1.9c1.2,3.3,3.4,6.2,7.5,9.2l.8-1.2C109.4,86,106.7,82.6,105.8,79.2Z"/></g><g id="_Groupe_24" data-name="&lt;Groupe&gt;"><path id="_Tracé_24" data-name="&lt;Tracé&gt;" class="cls-5" d="M109.3,89.8c-2-2.2-3.7-4.7-3.8-5.3a6.53,6.53,0,0,0,1,3.6,21,21,0,0,0,1.6,2.2c.4.4,4.7,4.1,4.9,3.8l.7-1.1C113.5,93.2,109.6,90.1,109.3,89.8Z"/></g><g id="_Groupe_25" data-name="&lt;Groupe&gt;"><path id="_Tracé_25" data-name="&lt;Tracé&gt;" d="M179.6,93.3c-6.2-5.5-20.7-13.3-28.4-12.1-3.4.5-6.1,4-4.2,16.6.8,5,23.6,20,24.2,19.9,3.7-.6-22.1-23.1-33.9-25.3-1.4-.3-16.2,21.6-10.5,25.3,3.4,2.3,39.5,47.5,66.4,25.4,4.8-4,5.6-11.3,6.2-17.5C200.5,115.7,184.1,97.3,179.6,93.3Z"/></g><g id="_Groupe_26" data-name="&lt;Groupe&gt;"><path id="_Tracé_26" data-name="&lt;Tracé&gt;" class="cls-5" d="M89.4,135.2c.6-.1,1.6.8,3.5,1.4s4.5,1.7,6.6,1.2c2.6-.5.5-2.8,1.3-4.4a33.42,33.42,0,0,0,6.3,4.3c2.8,1.2,4.1,4.5,13.3,6.6.6.1-5.7,7.3-6.2,8.1-1.8,2.6-12.3-1.8-14.7-2.8-4.5-1.9-5.5-2.7-9.1-5.9-.9-.8,0-1.5.3-2.6s2.9-2.4,3.2-2.4h0C93,138.2,86.7,135.8,89.4,135.2Z"/></g><g id="_Groupe_27" data-name="&lt;Groupe&gt;"><path id="_Tracé_27" data-name="&lt;Tracé&gt;" class="cls-5" d="M164.4,130.4a43.76,43.76,0,0,1-13-1.1h-.1a20.09,20.09,0,0,1-13.7,12.1c-8.5,2.2-19,2.6-27.8,1.7-.3,1.2-1,2.6-1.3,3.6-1,3-3.6,1.4-1.5,3.9,6.7,8,29.9,19.2,43.9,9.6a53,53,0,0,0,10.8-9.8c4.5-5.4,5.1-13,5.3-20.4A20.24,20.24,0,0,1,164.4,130.4Z"/></g><g id="_Groupe_28" data-name="&lt;Groupe&gt;"><path id="_Tracé_28" data-name="&lt;Tracé&gt;" class="cls-8" d="M144.8,126.7a13,13,0,0,0,1.7.8,35.39,35.39,0,0,0,12.4,2.7,37.54,37.54,0,0,0,8.2-.3,94,94,0,0,1,.7-11c1.2-7.6.5-13.9-.9-21.5-.5-2.8-.4-6.1-1.8-8.6-2.8-5.1-6.2-8.9-11.6-4.4-3.7,3.1-6.1,8.2-7.1,12.9C144.7,105.7,147.6,117.9,144.8,126.7Z"/></g><g id="_Groupe_29" data-name="&lt;Groupe&gt;"><path id="_Tracé_29" data-name="&lt;Tracé&gt;" d="M190.4,158.3c4.7-.4,15-4,18.7.9,10.1,13.2,22.5,95.8,22.2,97.6-.5,2.6-51.3,16.7-104.7-2.8-8.4-3.1,17.8-81.9,29.4-93.4C165.3,157,181.6,159,190.4,158.3Z"/></g><g id="_Groupe_30" data-name="&lt;Groupe&gt;"><path id="_Tracé_30" data-name="&lt;Tracé&gt;" class="cls-7" d="M151,99.6c1.4-5,2.3-10.1,4.3-14.8.4-1,5-7.1,6.3-4.9,3.2,5.5,8.3,4.9,14.3,4.9a6.56,6.56,0,0,0,5.5-3.2,14.55,14.55,0,0,0,4.1-4.1c2.7.3,7.5.1,9,.5,3.1.8,9.7,3,9.7,3s-4.6,12.6-5.1,16.5c-.5,3.5.6,7.2.8,10.7.2,3.9-.7,8.6,0,12.4.6,3.4,3.2,6.5,4.8,9.7,3.8,7.6,11.8,23.1,3.3,30.4-7.4,6.4-20.6,6.9-30,6.6a44.73,44.73,0,0,1-9.6-1c-2.3-.6-5.1-.7-7.2-1.7-6.7-3.3-6.7-11.3-8.6-17.2-2-6.5-2.4-13.2-3.7-19.7A79.93,79.93,0,0,1,147,113a20.52,20.52,0,0,1,2-8C149.7,103.2,150.5,101.4,151,99.6Z"/></g><g id="_Groupe_31" data-name="&lt;Groupe&gt;"><path id="_Tracé_31" data-name="&lt;Tracé&gt;" class="cls-9" d="M144,129.1a1.42,1.42,0,0,0,.2-.6A1.42,1.42,0,0,1,144,129.1Z"/></g><g id="_Groupe_32" data-name="&lt;Groupe&gt;"><polygon id="_Tracé_32" data-name="&lt;Tracé&gt;" class="cls-10" points="172.9 80.3 172.8 80.3 172.9 80.2 172.9 80.3"/></g><g id="_Groupe_33" data-name="&lt;Groupe&gt;"><path id="_Tracé_33" data-name="&lt;Tracé&gt;" class="cls-11" d="M185.5,121.5c0,.1-.1.2-.1.3l.1-.3Z"/></g><g id="_Groupe_34" data-name="&lt;Groupe&gt;"><path id="_Tracé_34" data-name="&lt;Tracé&gt;" class="cls-12" d="M170.5,166.1c.1,0,.2,0,.2.1l.3.9c0,.1,0,.2-.1.2h-.1c-.1,0-.1,0-.1-.1l-.3-.9C170.4,166.2,170.4,166.1,170.5,166.1Z"/></g><g id="_Groupe_35" data-name="&lt;Groupe&gt;"><path id="_Tracé_35" data-name="&lt;Tracé&gt;" class="cls-6" d="M193.2,87.5a.87.87,0,1,1,.9,1.5.1.1,0,0,0-.1.1h0l-.1.1h0l-.3.6a.93.93,0,0,1-1.2.3,1,1,0,0,1-.3-1.2A2.21,2.21,0,0,1,193.2,87.5Z"/></g><g id="_Groupe_36" data-name="&lt;Groupe&gt;"><path id="_Tracé_36" data-name="&lt;Tracé&gt;" class="cls-6" d="M192.3,94.8a5.26,5.26,0,0,0-.4,1.7.9.9,0,0,1-1.8,0,5.45,5.45,0,0,1,.5-2.2C191,93.3,192.7,93.8,192.3,94.8Z"/></g><g id="_Groupe_37" data-name="&lt;Groupe&gt;"><path id="_Tracé_37" data-name="&lt;Tracé&gt;" class="cls-6" d="M190.1,103a.9.9,0,0,1,.9.9V105a.9.9,0,1,1-1.8,0v-1.1A1.06,1.06,0,0,1,190.1,103Z"/></g><g id="_Groupe_38" data-name="&lt;Groupe&gt;"><path id="_Tracé_38" data-name="&lt;Tracé&gt;" class="cls-6" d="M188.8,112.9h0v-.2a.9.9,0,1,1,1.8,0,2.2,2.2,0,0,1-.1.8.37.37,0,0,1-.1.3v.1a.9.9,0,1,1-1.8,0c0-.2.1-.4.1-.6S188.8,113,188.8,112.9Z"/></g><g id="_Groupe_39" data-name="&lt;Groupe&gt;"><path id="_Tracé_39" data-name="&lt;Tracé&gt;" class="cls-6" d="M190.4,122.8a8.2,8.2,0,0,0,.2,2.2.89.89,0,0,1-1.7.5,12.41,12.41,0,0,1-.3-2.7A.9.9,0,0,1,190.4,122.8Z"/></g><g id="_Groupe_40" data-name="&lt;Groupe&gt;"><path id="_Tracé_40" data-name="&lt;Tracé&gt;" class="cls-6" d="M183.5,84a.9.9,0,0,1,1.8,0,4.92,4.92,0,0,1-.5,2,.91.91,0,0,1-1.1.6.86.86,0,0,1-.6-1.1A3.31,3.31,0,0,0,183.5,84Z"/></g><g id="_Groupe_41" data-name="&lt;Groupe&gt;"><path id="_Tracé_41" data-name="&lt;Tracé&gt;" class="cls-6" d="M176.9,89h0a.88.88,0,0,1,.9-.8.9.9,0,0,1,.9.9,1.07,1.07,0,0,1-.2.6.1.1,0,0,1-.1.1v.1h0a.88.88,0,0,1-.9.7.9.9,0,0,1-.9-.9,1.07,1.07,0,0,1,.2-.6A.1.1,0,0,0,176.9,89Z"/></g><g id="_Groupe_42" data-name="&lt;Groupe&gt;"><path id="_Tracé_42" data-name="&lt;Tracé&gt;" class="cls-6" d="M177.3,94.9a1,1,0,0,1,.1,1.2h0v.3a.9.9,0,1,1-1.8,0,2,2,0,0,1,.5-1.5A.75.75,0,0,1,177.3,94.9Z"/></g><g id="_Groupe_43" data-name="&lt;Groupe&gt;"><path id="_Tracé_43" data-name="&lt;Tracé&gt;" class="cls-6" d="M187.9,131.4a6.93,6.93,0,0,1,.3,2,.9.9,0,0,1-1.8,0,3.64,3.64,0,0,0-.2-1.5A.89.89,0,0,1,187.9,131.4Z"/></g><g id="_Groupe_44" data-name="&lt;Groupe&gt;"><path id="_Tracé_44" data-name="&lt;Tracé&gt;" class="cls-6" d="M171.2,88.8h0a.88.88,0,0,1,.9-.8.9.9,0,0,1,.9.9,1.07,1.07,0,0,1-.2.6.1.1,0,0,1-.1.1v.1h0a.88.88,0,0,1-.9.7.9.9,0,0,1-.9-.9,1.07,1.07,0,0,1,.2-.6Z"/></g><g id="_Groupe_45" data-name="&lt;Groupe&gt;"><path id="_Tracé_45" data-name="&lt;Tracé&gt;" class="cls-6" d="M171.8,96.1c0,.7-.2,1.3-.2,2a.9.9,0,0,1-1.8,0c0-.7.2-1.3.2-2C170.1,95,171.9,95,171.8,96.1Z"/></g><g id="_Groupe_46" data-name="&lt;Groupe&gt;"><path id="_Tracé_46" data-name="&lt;Tracé&gt;" class="cls-6" d="M166.8,88.1a1,1,0,0,1,.3,1.2c.1-.2,0,.1,0,.1v1a.9.9,0,1,1-1.8,0,4.65,4.65,0,0,1,.3-2A.93.93,0,0,1,166.8,88.1Z"/></g><g id="_Groupe_47" data-name="&lt;Groupe&gt;"><path id="_Tracé_47" data-name="&lt;Tracé&gt;" class="cls-6" d="M164.3,95a.9.9,0,0,1,1.8,0,5.45,5.45,0,0,1-.5,2.2c-.4,1.1-2.1.6-1.7-.5A4.26,4.26,0,0,0,164.3,95Z"/></g><g id="_Groupe_48" data-name="&lt;Groupe&gt;"><path id="_Tracé_48" data-name="&lt;Tracé&gt;" class="cls-6" d="M160.8,88.2a.9.9,0,0,1,.9.9.6.6,0,0,1-.3.6.82.82,0,0,1-.4,1,.93.93,0,0,1-1.2-.3,1.5,1.5,0,0,1-.1-1.3A1.44,1.44,0,0,1,160.8,88.2Z"/></g><g id="_Groupe_49" data-name="&lt;Groupe&gt;"><path id="_Tracé_49" data-name="&lt;Tracé&gt;" class="cls-6" d="M160.6,94.4a6.47,6.47,0,0,0-.4,2,.9.9,0,0,1-1.8,0,6.44,6.44,0,0,1,.5-2.4C159.2,92.9,160.9,93.3,160.6,94.4Z"/></g><g id="_Groupe_50" data-name="&lt;Groupe&gt;"><path id="_Tracé_50" data-name="&lt;Tracé&gt;" class="cls-6" d="M187.9,85.1h0c.1-.2.2-.3.2-.4a1.27,1.27,0,0,0,.1-.6.9.9,0,1,1,1.8,0,3.34,3.34,0,0,1-.9,2.3c-.8.8-2-.4-1.2-1.3Z"/></g><g id="_Groupe_51" data-name="&lt;Groupe&gt;"><path id="_Tracé_51" data-name="&lt;Tracé&gt;" class="cls-6" d="M185.9,93.1v-.7a.9.9,0,0,1,1.8,0,3.84,3.84,0,0,1-.5,2.1.93.93,0,0,1-1.2.3,1,1,0,0,1-.3-1.2A1.69,1.69,0,0,0,185.9,93.1Z"/></g><g id="_Groupe_52" data-name="&lt;Groupe&gt;"><path id="_Tracé_52" data-name="&lt;Tracé&gt;" class="cls-6" d="M181.8,91.7v2.6a.9.9,0,0,1-1.8,0V91.7A.9.9,0,0,1,181.8,91.7Z"/></g><g id="_Groupe_53" data-name="&lt;Groupe&gt;"><path id="_Tracé_53" data-name="&lt;Tracé&gt;" class="cls-6" d="M156.6,86.3a1,1,0,0,1,.3,1.2,3.89,3.89,0,0,0-.2,1.5.9.9,0,0,1-1.8,0,4.94,4.94,0,0,1,.5-2.4A1,1,0,0,1,156.6,86.3Z"/></g><g id="_Groupe_54" data-name="&lt;Groupe&gt;"><path id="_Tracé_54" data-name="&lt;Tracé&gt;" class="cls-6" d="M153.8,95.5a.9.9,0,0,1,.9.9v1a.9.9,0,1,1-1.8,0v-1A.9.9,0,0,1,153.8,95.5Z"/></g><g id="_Groupe_55" data-name="&lt;Groupe&gt;"><path id="_Tracé_55" data-name="&lt;Tracé&gt;" class="cls-6" d="M186.4,102.5a7.06,7.06,0,0,0-.6,2.4.9.9,0,0,1-1.8,0,10.22,10.22,0,0,1,.7-2.9C185,101,186.7,101.5,186.4,102.5Z"/></g><g id="_Groupe_56" data-name="&lt;Groupe&gt;"><path id="_Tracé_56" data-name="&lt;Tracé&gt;" class="cls-6" d="M180,103.7a4.14,4.14,0,0,0-.5,1.9.9.9,0,0,1-1.8,0,5.66,5.66,0,0,1,.8-2.8C179,101.8,180.5,102.7,180,103.7Z"/></g><g id="_Groupe_57" data-name="&lt;Groupe&gt;"><path id="_Tracé_57" data-name="&lt;Tracé&gt;" class="cls-6" d="M182.5,112.3a.9.9,0,0,1,.9.9v.7a.9.9,0,1,1-1.8,0v-.7A1.06,1.06,0,0,1,182.5,112.3Z"/></g><g id="_Groupe_58" data-name="&lt;Groupe&gt;"><path id="_Tracé_58" data-name="&lt;Tracé&gt;" class="cls-6" d="M181.6,119.9a.9.9,0,0,1,.9.9v1.3a.9.9,0,1,1-1.8,0v-1.3A.9.9,0,0,1,181.6,119.9Z"/></g><g id="_Groupe_59" data-name="&lt;Groupe&gt;"><path id="_Tracé_59" data-name="&lt;Tracé&gt;" class="cls-6" d="M183.8,134v4a.9.9,0,0,1-1.8,0v-4A.9.9,0,0,1,183.8,134Z"/></g><g id="_Groupe_60" data-name="&lt;Groupe&gt;"><path id="_Tracé_60" data-name="&lt;Tracé&gt;" class="cls-6" d="M179.1,135.7v2a.9.9,0,0,1-1.8,0v-2C177.4,134.6,179.1,134.6,179.1,135.7Z"/></g><g id="_Groupe_61" data-name="&lt;Groupe&gt;"><path id="_Tracé_61" data-name="&lt;Tracé&gt;" class="cls-6" d="M177.6,123.9a.9.9,0,0,1,.9.9v1a.9.9,0,1,1-1.8,0v-1A.9.9,0,0,1,177.6,123.9Z"/></g><g id="_Groupe_62" data-name="&lt;Groupe&gt;"><path id="_Tracé_62" data-name="&lt;Tracé&gt;" class="cls-6" d="M177.8,113.9c0,.7-.3,1.3-.3,2a.9.9,0,0,1-1.8,0c0-.7.3-1.3.3-2A.9.9,0,1,1,177.8,113.9Z"/></g><g id="_Groupe_63" data-name="&lt;Groupe&gt;"><path id="_Tracé_63" data-name="&lt;Tracé&gt;" class="cls-6" d="M171,104.3h0a.35.35,0,0,1,.1-.2v-.5a.9.9,0,1,1,1.8,0,2.56,2.56,0,0,1-.6,1.9.89.89,0,0,1-1.3-1.2Z"/></g><g id="_Groupe_64" data-name="&lt;Groupe&gt;"><path id="_Tracé_64" data-name="&lt;Tracé&gt;" class="cls-6" d="M171.9,111.6v3a.9.9,0,0,1-1.8,0v-3A.9.9,0,0,1,171.9,111.6Z"/></g><g id="_Groupe_65" data-name="&lt;Groupe&gt;"><path id="_Tracé_65" data-name="&lt;Tracé&gt;" class="cls-6" d="M171.9,123.1v2a.9.9,0,0,1-1.8,0v-2A.9.9,0,0,1,171.9,123.1Z"/></g><g id="_Groupe_66" data-name="&lt;Groupe&gt;"><path id="_Tracé_66" data-name="&lt;Tracé&gt;" class="cls-6" d="M172,132.5a.9.9,0,0,1,.9.9v1a.9.9,0,0,1-1.8,0v-1A.9.9,0,0,1,172,132.5Z"/></g><g id="_Groupe_67" data-name="&lt;Groupe&gt;"><path id="_Tracé_67" data-name="&lt;Tracé&gt;" class="cls-6" d="M173.8,141.7v1.7a.9.9,0,0,1-1.8,0v-1.7A.9.9,0,1,1,173.8,141.7Z"/></g><g id="_Groupe_68" data-name="&lt;Groupe&gt;"><path id="_Tracé_68" data-name="&lt;Tracé&gt;" class="cls-6" d="M177.9,142.8h.3a.9.9,0,1,1,0,1.8h-.3a.9.9,0,1,1,0-1.8Z"/></g><g id="_Groupe_69" data-name="&lt;Groupe&gt;"><path id="_Tracé_69" data-name="&lt;Tracé&gt;" class="cls-6" d="M163.9,102.5a6.61,6.61,0,0,0-.3,2.4.9.9,0,0,1-1.8,0,9.67,9.67,0,0,1,.4-2.9C162.5,101,164.2,101.5,163.9,102.5Z"/></g><g id="_Groupe_70" data-name="&lt;Groupe&gt;"><path id="_Tracé_70" data-name="&lt;Tracé&gt;" class="cls-6" d="M163.3,112.6v2.3a.9.9,0,0,1-1.8,0v-2.3A.9.9,0,0,1,163.3,112.6Z"/></g><g id="_Groupe_71" data-name="&lt;Groupe&gt;"><path id="_Tracé_71" data-name="&lt;Tracé&gt;" class="cls-6" d="M163.6,122.8v2a.9.9,0,0,1-1.8,0v-2A.9.9,0,0,1,163.6,122.8Z"/></g><g id="_Groupe_72" data-name="&lt;Groupe&gt;"><path id="_Tracé_72" data-name="&lt;Tracé&gt;" class="cls-6" d="M163.4,131.2a.9.9,0,0,1,.9.9v1.3a.9.9,0,0,1-1.8,0v-1.3A.9.9,0,0,1,163.4,131.2Z"/></g><g id="_Groupe_73" data-name="&lt;Groupe&gt;"><path id="_Tracé_73" data-name="&lt;Tracé&gt;" class="cls-6" d="M163.5,140.3a.9.9,0,0,1,1.8,0,4.94,4.94,0,0,1-.5,2.4.93.93,0,0,1-1.2.3,1,1,0,0,1-.3-1.2A3.64,3.64,0,0,0,163.5,140.3Z"/></g><g id="_Groupe_74" data-name="&lt;Groupe&gt;"><path id="_Tracé_74" data-name="&lt;Tracé&gt;" class="cls-6" d="M155.5,103.6a.9.9,0,0,1,1.8,0,6.9,6.9,0,0,1-.4,2.5.89.89,0,0,1-1.7-.5A4.23,4.23,0,0,0,155.5,103.6Z"/></g><g id="_Groupe_75" data-name="&lt;Groupe&gt;"><path id="_Tracé_75" data-name="&lt;Tracé&gt;" class="cls-6" d="M155.6,112.2a18.88,18.88,0,0,0,.3,4.1.89.89,0,0,1-1.7.5,22.82,22.82,0,0,1-.4-4.5C153.9,111.1,155.6,111.1,155.6,112.2Z"/></g><g id="_Groupe_76" data-name="&lt;Groupe&gt;"><path id="_Tracé_76" data-name="&lt;Tracé&gt;" class="cls-6" d="M157,124.1v2.3a.9.9,0,0,1-1.8,0v-2.3A.9.9,0,0,1,157,124.1Z"/></g><g id="_Groupe_77" data-name="&lt;Groupe&gt;"><path id="_Tracé_77" data-name="&lt;Tracé&gt;" class="cls-6" d="M158,136.4a21.72,21.72,0,0,0,.3,4.4c.2,1.1-1.5,1.6-1.7.5a26.29,26.29,0,0,1-.4-4.9A.9.9,0,1,1,158,136.4Z"/></g><g id="_Groupe_78" data-name="&lt;Groupe&gt;"><path id="_Tracé_78" data-name="&lt;Tracé&gt;" class="cls-6" d="M150,102.6a.9.9,0,0,1,1.8,0,4.94,4.94,0,0,1-.5,2.4.93.93,0,0,1-1.2.3,1,1,0,0,1-.3-1.2A3.42,3.42,0,0,0,150,102.6Z"/></g><g id="_Groupe_79" data-name="&lt;Groupe&gt;"><path id="_Tracé_79" data-name="&lt;Tracé&gt;" class="cls-6" d="M150.2,112.2v2a.9.9,0,0,1-1.8,0v-2C148.5,111.1,150.2,111.1,150.2,112.2Z"/></g><g id="_Groupe_80" data-name="&lt;Groupe&gt;"><path id="_Tracé_80" data-name="&lt;Tracé&gt;" class="cls-6" d="M150.9,121.4a.9.9,0,0,1,.9.9v1a.9.9,0,1,1-1.8,0v-1A.9.9,0,0,1,150.9,121.4Z"/></g><g id="_Groupe_81" data-name="&lt;Groupe&gt;"><path id="_Tracé_81" data-name="&lt;Tracé&gt;" class="cls-5" d="M97.9,128.3a31.83,31.83,0,0,0,3,3.3c2.1,1.5,4.5,2.3,6,4.4.4.6,1.7,2.3,1.5,3.1s-2,1.3-2.8,1.3c-2.1-.2-3,.6-3.7-1.1-.5-1.2-.3-2.9-1.1-4-.3-.4-2.3-3.1-2.6-3.6C96.6,128.3,97.7,128.1,97.9,128.3Z"/></g><g id="_Groupe_82" data-name="&lt;Groupe&gt;"><path id="_Tracé_82" data-name="&lt;Tracé&gt;" class="cls-8" d="M197,125.8a84.85,84.85,0,0,0,11,2.9c3.9.7,7.8,1.1,11.7,1.6,2.5.3,5,.6,7.5.8,2.3-17.5-5.6-34.4-10.3-41.4-3.1-4.7-8.1-9.6-14.2-8.8-12.1,1.6-6.7,17.7-6,24.9A90.55,90.55,0,0,1,197,125.8Z"/></g><g id="_Groupe_83" data-name="&lt;Groupe&gt;"><path id="_Tracé_83" data-name="&lt;Tracé&gt;" class="cls-4" d="M206.1,160.4A89,89,0,0,0,224,130.1c-2.1-.2-4.1-.5-6.2-.7a109.7,109.7,0,0,1-11.3-1.6c-2.4-.5-4.7-1.1-7-1.8a20.54,20.54,0,0,1-8.9,14.4,13.41,13.41,0,0,1-2.8,1.8c-15.7,5.4-53.1-15-53.3-14.8-3.9,2.9,8.2,16,11.5,19.6C165.8,169,187.2,168.2,206.1,160.4Z"/></g><g id="_Groupe_84" data-name="&lt;Groupe&gt;"><path id="_Tracé_84" data-name="&lt;Tracé&gt;" class="cls-6" d="M151.1,129.6a1.13,1.13,0,0,1,1.5.4,3.58,3.58,0,0,1,.4,1.1c0,.1.1.2.1.3v.1a1,1,0,0,1-.1,1.5,1.22,1.22,0,0,1-1.6,0,3.88,3.88,0,0,1-.6-1.1,3.39,3.39,0,0,0-.3-.8A1.34,1.34,0,0,1,151.1,129.6Z"/></g><g id="_Groupe_85" data-name="&lt;Groupe&gt;"><path id="_Tracé_85" data-name="&lt;Tracé&gt;" class="cls-13" d="M155.5,60.5a2.55,2.55,0,0,0,1.2.8.66.66,0,0,1,.5.8.8.8,0,0,1-.9.5,5.17,5.17,0,0,1-1.8-1.2C153.9,60.8,154.9,59.8,155.5,60.5Z"/></g><g id="_Groupe_86" data-name="&lt;Groupe&gt;"><path id="_Tracé_86" data-name="&lt;Tracé&gt;" class="cls-13" d="M160.7,64.7c.5.5.9,1.2,1.4,1.8a.59.59,0,0,1-.3.9.8.8,0,0,1-1-.2c-.4-.5-.7-1-1.1-1.5C159.1,65.1,160.1,64.1,160.7,64.7Z"/></g><g id="_Groupe_87" data-name="&lt;Groupe&gt;"><path id="_Tracé_87" data-name="&lt;Tracé&gt;" class="cls-13" d="M163.4,63.8a.78.78,0,0,1,1,.2,4.81,4.81,0,0,0,.9,1.1c.6.6-.3,1.6-1,1a5.53,5.53,0,0,1-1.2-1.4A.81.81,0,0,1,163.4,63.8Z"/></g><g id="_Groupe_88" data-name="&lt;Groupe&gt;"><path id="_Tracé_88" data-name="&lt;Tracé&gt;" class="cls-13" d="M169.2,68.6a14.42,14.42,0,0,1,2.2,2.7.85.85,0,0,1-1.5.8,14.31,14.31,0,0,0-1.9-2.4C167.2,69,168.4,67.8,169.2,68.6Z"/></g><g id="_Groupe_89" data-name="&lt;Groupe&gt;"><path id="_Tracé_89" data-name="&lt;Tracé&gt;" class="cls-5" d="M186.9,78c-.4-.3-1.6-1.2-2.7-2.1-2.4-3.9-3.7-12.8-4.7-17.2-.4-1.8-.1-2.5-1.8-3.4-1.2,2.4-.9,5-1.8,7.5-1.1,3-3.5,6.1-6.4,6.9-1.3.4-2.5,0-3.8.1a17.28,17.28,0,0,1-3.6-1.1c.5.2.1,6.7-.2,9.4-.7.7-1.8,1.8-2.1,2,.2.4,1.4,3.2,5.7,5.6,1.1.6,7.1,1,8.8.4a24.71,24.71,0,0,0,7.2-3.2A21.39,21.39,0,0,0,186.9,78Z"/></g><g id="_Groupe_90" data-name="&lt;Groupe&gt;"><path id="_Tracé_90" data-name="&lt;Tracé&gt;" class="cls-4" d="M155.9,38.2c2.3-1.8,6.3-1.8,8.9-.8,3.6,1.4,4.6,4.3,6.3,7.4.8,1.4,1.7,3.9,3.6,4,2.3.2,3.2-2.5,5,.5a4.52,4.52,0,0,1-.4,5.2c-1.8,2-.9,4.5-1.3,6.8-.5,2.8-2.5,5.2-4.5,7.1-1.7,1.6-3.3,3.3-5.6,4-2.5.7-4.9-.2-7.1-1.8a29.31,29.31,0,0,1-9-11.7c-1.4-3.7-3.4-8.9-2.2-12.8C150.6,43.4,153.7,40,155.9,38.2Z"/></g><g id="_Groupe_91" data-name="&lt;Groupe&gt;"><path id="_Tracé_91" data-name="&lt;Tracé&gt;" d="M166.8,48.1a1,1,0,0,0-.5.2c-.9.5-2.8,1.5-3,1.6-1.3.6-1.9-.3-2.3-1.4a11.71,11.71,0,0,0,2.6-.4C164.4,47.8,166.1,47,166.8,48.1Z"/></g><g id="_Groupe_92" data-name="&lt;Groupe&gt;"><path id="_Tracé_92" data-name="&lt;Tracé&gt;" class="cls-5" d="M178.7,53.1l-1,.6a20.94,20.94,0,0,1-.8-2.3C178.3,50.6,178.6,52.1,178.7,53.1Z"/></g><g id="_Groupe_93" data-name="&lt;Groupe&gt;"><path id="_Tracé_93" data-name="&lt;Tracé&gt;" d="M152.6,53.7c.1-.1,1.9-1.7,1.7-1.9.6.7.9,1.2.6,1.8a1.7,1.7,0,0,1-.6.6c-.2.1-2.4,1.3-2.3,1.5C151.2,54.9,151.9,54.5,152.6,53.7Z"/></g><g id="_Groupe_94" data-name="&lt;Groupe&gt;"><path id="_Tracé_94" data-name="&lt;Tracé&gt;" d="M165.1,27.8c5.3-.4,11,.7,14.6,3.4,8.5,6.4,8.9,18.3,2.3,26.2-.9,1.1-1.6,2.3-2.5,3.4-.3.4-1.4-4.2-1.2-5,.4-1.4,2-2.4,2.2-3.9.2-1.2-.9-3.6-2.5-3.3-1.1.2-.7,1.8-2,1.9-1,0-2.8-2.4-3.6-3-1.5-1.1-2.9-2.3-4.4-3.6a14.19,14.19,0,0,0-9.3-3.6,10.59,10.59,0,0,0-3.1.5C156.8,35.8,160.8,30.8,165.1,27.8Z"/></g><g id="_Groupe_95" data-name="&lt;Groupe&gt;"><path id="_Tracé_95" data-name="&lt;Tracé&gt;" d="M156.9,30a20.66,20.66,0,0,1,8.2-2.2c-4.3,3.1-8.2,8-9.4,13a10.2,10.2,0,0,0-4.4,3c-1.7,2-1.8,4.7-1.8,7.2a14.38,14.38,0,0,1-2.1-6,15.67,15.67,0,0,1,1.2-7.1C150,34.5,153.6,31.8,156.9,30Z"/></g><g id="_Groupe_96" data-name="&lt;Groupe&gt;"><path id="_Tracé_96" data-name="&lt;Tracé&gt;" class="cls-5" d="M171.3,55.1c.1,0,.2.1,0,0,2.3,1.5-1.2,5-3.1,3.5C165.9,56.7,169.9,54,171.3,55.1Z"/></g><g id="_Groupe_97" data-name="&lt;Groupe&gt;"><path id="_Tracé_97" data-name="&lt;Tracé&gt;" class="cls-5" d="M162.7,60.7c-.3,1.7-3.2,3.6-3.5.9a4.8,4.8,0,0,1,.4-1.5,3.08,3.08,0,0,0,.3-1.3c-.1-1.3-.7-2.5-.8-3.7C161.1,54,162.9,59.5,162.7,60.7Z"/></g><g id="_Groupe_98" data-name="&lt;Groupe&gt;"><path id="_Tracé_98" data-name="&lt;Tracé&gt;" d="M167.1,51.8a3,3,0,0,1,2.3,2.2l-.9.2a1.92,1.92,0,0,0-1.6-1.5,2,2,0,0,0-2,.5c-.4.5-.3,1.4.3,2.4l-.8.4c-1-1.8-.6-2.9-.2-3.3A2.72,2.72,0,0,1,167.1,51.8Z"/></g><g id="_Groupe_99" data-name="&lt;Groupe&gt;"><path id="_Tracé_99" data-name="&lt;Tracé&gt;" d="M156.1,56.8a2,2,0,0,1,1.6,1.5l-.6.1a1.28,1.28,0,0,0-1.1-1,1.19,1.19,0,0,0-1.3.4c-.3.4-.2.9.2,1.6l-.5.3c-.7-1.2-.4-2-.1-2.3A1.52,1.52,0,0,1,156.1,56.8Z"/></g><g id="_Groupe_100" data-name="&lt;Groupe&gt;"><path id="_Tracé_100" data-name="&lt;Tracé&gt;" class="cls-5" d="M157.5,60.3c.1,0,.2.1,0,0,2,1.2-1,4.2-2.6,2.9C153,61.6,156.3,59.4,157.5,60.3Z"/></g><g id="_Groupe_101" data-name="&lt;Groupe&gt;"><path id="_Tracé_101" data-name="&lt;Tracé&gt;" class="cls-13" d="M163.2,64.8a.65.65,0,0,1,.9.2,8.71,8.71,0,0,0,.9,1.1.64.64,0,1,1-.9.9,6.89,6.89,0,0,1-1.1-1.3C162.9,65.3,162.9,65,163.2,64.8Z"/></g><g id="_Groupe_102" data-name="&lt;Groupe&gt;"><path id="_Tracé_102" data-name="&lt;Tracé&gt;" class="cls-5" d="M167.7,62.5c.2-.1.8.8.7.8h-.1C168.1,63.4,167.4,62.7,167.7,62.5Z"/></g><g id="_Groupe_103" data-name="&lt;Groupe&gt;"><path id="_Tracé_103" data-name="&lt;Tracé&gt;" class="cls-6" d="M163.5,65.3a22.62,22.62,0,0,0,3.9-1.8c.1-.1.1.9,0,1-1.4,3-4.8,5-7.3,2A10.63,10.63,0,0,0,163.5,65.3Z"/></g><g id="_Groupe_104" data-name="&lt;Groupe&gt;"><path id="_Tracé_104" data-name="&lt;Tracé&gt;" class="cls-5" d="M160.3,65.8c.2-.3.3-.8.6-.9a1.23,1.23,0,0,1,1.3.2c.1-.4.2-.8.6-.9a4.92,4.92,0,0,1,2.1-.4,7.27,7.27,0,0,0,2.5-.4c.1,0-.1.3-.2.3a43.79,43.79,0,0,1-4.1,2.2,6.64,6.64,0,0,1-2,.6c-.3,0-.5.1-.8.1,0,0-.5,0-.4-.1C160.2,66.3,160.2,66,160.3,65.8Z"/></g><g id="_Groupe_105" data-name="&lt;Groupe&gt;"><path id="_Tracé_105" data-name="&lt;Tracé&gt;" class="cls-5" d="M163.2,67.8a5.34,5.34,0,0,0,3.2-1.9,3.07,3.07,0,0,0,.8-1.3,4.87,4.87,0,0,0,.1-1.2,2,2,0,0,1,.3,1.1,4.61,4.61,0,0,1-2,3.9,4.08,4.08,0,0,1-2.8.7c-1-.2-1.5-1.4-2.2-2-.2-.2-.3-.4-.4-.5.9.7,1.7,1.4,2.8,1.3C163,67.8,163.1,67.8,163.2,67.8Z"/></g><g id="_Groupe_106" data-name="&lt;Groupe&gt;"><circle id="_Tracé_106" data-name="&lt;Tracé&gt;" cx="165" cy="54.6" r="1.4"/></g><g id="_Groupe_107" data-name="&lt;Groupe&gt;"><circle id="_Tracé_107" data-name="&lt;Tracé&gt;" cx="154.7" cy="58.8" r="1.4"/></g><g id="_Groupe_108" data-name="&lt;Groupe&gt;"><circle id="_Tracé_108" data-name="&lt;Tracé&gt;" class="cls-8" cx="178.7" cy="55.9" r="1.4"/></g><g id="_Groupe_109" data-name="&lt;Groupe&gt;"><path id="_Tracé_109" data-name="&lt;Tracé&gt;" class="cls-8" d="M184.9,53.7S159.6,31.1,149,37c0,0-1.8,5.7-1.7,6.9s-4.9-4.2-4.4-5.9,5.2-9.8,4.7-11.1,5.7-7.6,5.7-7.6l3.7-8.1,19.4.5s17.7,3.2,17.7,4.4,1.7,13,.5,12.8-4.7,1.5-4.7,1.5l6.1,14-7.9,5.9v5.2l-6.2,2Z"/></g><g id="_Groupe_110" data-name="&lt;Groupe&gt;"><path id="_Tracé_110" data-name="&lt;Tracé&gt;" d="M196.2,127.6a76.45,76.45,0,0,0,11.7,2.7c2.3.4,6.8,1.9,8.4-.5.7-1.1.6-2.7.7-4,.2-1.9.3-3.9.5-5.8.3-4.1.7-8.3,1-12.4l-4.6.6c1.7,5.8.8,11.7,1,17.6.1,2.2,0,4.5,2.3,5.5,2.5,1.1,5.8,1.2,8.5,1.8,2.9.6,4.2-3.9,1.2-4.5-1.1-.2-2.3-.5-3.4-.7s-2.9-.2-3.9-.8c-.7-.4,0,.4,0-.5V121c.1-4.8.2-9.5-1.2-14.1-.8-2.6-4.4-1.9-4.6.6-.3,3.4-.6,6.8-.8,10.2-.1,1.6-.3,3.3-.4,4.9-.1.9-.1,1.8-.2,2.7a7.23,7.23,0,0,1-.1,2.1l1.4-1.1c-.9.3-2.8-.3-3.7-.4-1.4-.2-2.8-.5-4.2-.7-2.8-.6-5.6-1.3-8.3-2.1-2.9-.9-4.1,3.6-1.3,4.5Z"/></g><g id="_Groupe_111" data-name="&lt;Groupe&gt;"><path id="_Tracé_111" data-name="&lt;Tracé&gt;" d="M149.2,126h0a8.64,8.64,0,0,1-1.5-.5c-.3-.1-.5-.3-.8-.4-.1-.1-.2-.2-.3-.2l-.2-.2a2.45,2.45,0,0,0-3.3,0,2.35,2.35,0,0,0,0,3.3,12.48,12.48,0,0,0,4.8,2.6,2.59,2.59,0,0,0,1.9-.3A22.22,22.22,0,0,1,149.2,126Z"/></g><g id="_Groupe_112" data-name="&lt;Groupe&gt;"><path id="_Tracé_112" data-name="&lt;Tracé&gt;" d="M159,80.4a16.74,16.74,0,0,0,8.5,7c-.1-.5-.3-1-.4-1.5a5.68,5.68,0,0,0-.1,8.5V93.2a5.16,5.16,0,0,0,.7,8l-.3-1.2c-.8,1.4-1.8,3.1-1.5,4.8a5.09,5.09,0,0,0,.7,1.7,3.45,3.45,0,0,1,.3,3.4c-.7,2.3,1,4.8,3.5,3.1,1.4-1,1.6-2.8,1.8-4.4a18.37,18.37,0,0,0,.3-6.2c-.2-1.2-.5-1.6-.1-2.8a10.55,10.55,0,0,0,.5-1.9,6.23,6.23,0,0,0-1.4-4.5v1.2a6.14,6.14,0,0,0,.8-8.1c-.2.4-.3.9-.5,1.3,5.8-1.5,12.2-3.4,15-9.3.5-1-1-1.9-1.5-.9-2.6,5.5-8.5,7.2-14,8.5a.84.84,0,0,0-.5,1.3,4.37,4.37,0,0,1-.5,6,.82.82,0,0,0,0,1.2,4.14,4.14,0,0,1,.5,4.4c-.3.7-.7.9-.7,1.6a18.66,18.66,0,0,0,.7,2.2,8.88,8.88,0,0,1,.1,2.3,31.76,31.76,0,0,1-.6,4.3c-.2.9,0,1-1,1.1-1.2.1-.7-.1-.4-1a4.22,4.22,0,0,0,.3-1.9,5.07,5.07,0,0,0-.7-1.5,6.18,6.18,0,0,1-.9-2.7,6.42,6.42,0,0,1,1.2-2.5.86.86,0,0,0-.3-1.2,3.36,3.36,0,0,1-.4-5.2.91.91,0,0,0,0-1.2,4,4,0,0,1,.1-6.1c.6-.5.2-1.2-.4-1.5a15.25,15.25,0,0,1-7.5-6.2c-.4-.7-1.9.1-1.3,1.1Z"/></g><g id="_Groupe_113" data-name="&lt;Groupe&gt;"><path id="_Tracé_113" data-name="&lt;Tracé&gt;" d="M117.3,46.7l-2.3-.6c-.7-.2-.5-1.3.2-1.1l2.3.6a.56.56,0,1,1-.2,1.1Z"/></g><g id="_Groupe_114" data-name="&lt;Groupe&gt;"><path id="_Tracé_114" data-name="&lt;Tracé&gt;" d="M113.4,46.3c-.8-.1-1.7-.1-2.5-.2a.55.55,0,0,1-.1-1.1c.8.1,1.7.1,2.5.2a.56.56,0,0,1,.6.5.49.49,0,0,1-.5.6Z"/></g><g id="_Groupe_115" data-name="&lt;Groupe&gt;"><path id="_Tracé_115" data-name="&lt;Tracé&gt;" d="M107.9,46.3a1.81,1.81,0,0,0-1.6.1c-.7.3-1.1-.8-.4-1.1a3.58,3.58,0,0,1,2.5,0,.63.63,0,0,1,.3.8.72.72,0,0,1-.8.2Z"/></g><g id="_Groupe_116" data-name="&lt;Groupe&gt;"><path id="_Tracé_116" data-name="&lt;Tracé&gt;" d="M103.5,46.8c-.6,0-1.2.1-1.8.1s-.8-1.1-.1-1.2,1.2-.1,1.8-.1a.6.6,0,0,1,.1,1.2Z"/></g><g id="_Groupe_117" data-name="&lt;Groupe&gt;"><path id="_Tracé_117" data-name="&lt;Tracé&gt;" d="M98.7,47.6a1.53,1.53,0,0,0-1.3.2c-.6.4-1.3-.6-.6-1a2.82,2.82,0,0,1,2.2-.3c.6.1.4,1.3-.3,1.1Z"/></g><g id="_Groupe_118" data-name="&lt;Groupe&gt;"><path id="_Tracé_118" data-name="&lt;Tracé&gt;" d="M94.6,49a1.61,1.61,0,0,0-.9.3.58.58,0,1,1-.6-1,2.23,2.23,0,0,1,1.8-.4c.3,0,.5.4.5.7a.74.74,0,0,1-.8.4Z"/></g><g id="_Groupe_119" data-name="&lt;Groupe&gt;"><path id="_Tracé_119" data-name="&lt;Tracé&gt;" d="M91,50.7l-2.1.9c-.7.3-1.1-.8-.4-1.1l2.1-.9a.59.59,0,1,1,.4,1.1Z"/></g><g id="_Groupe_120" data-name="&lt;Groupe&gt;"><path id="_Tracé_120" data-name="&lt;Tracé&gt;" d="M117,43.5c-10.1-1.8-20.3,1.2-29.2,5.9-.7.3-1.3-.6-.6-1,9.3-4.8,19.6-7.9,30.1-6,.6,0,.4,1.2-.3,1.1Z"/></g><g id="_Groupe_121" data-name="&lt;Groupe&gt;"><path id="_Tracé_121" data-name="&lt;Tracé&gt;" class="cls-6" d="M75.7,65.8l-7.5.6c-2.4.2-2.6-3.5-.2-3.7l7.5-.6c2.3-.1,2.5,3.5.2,3.7Z"/></g><g id="_Groupe_122" data-name="&lt;Groupe&gt;"><path id="_Tracé_122" data-name="&lt;Tracé&gt;" class="cls-6" d="M75.1,75.8c2-1,4.1-1.9,6.1-2.9s.5-4.3-1.7-3.3c-2,1-4.1,1.9-6.1,2.9s-.4,4.3,1.7,3.3Z"/></g><g id="_Groupe_123" data-name="&lt;Groupe&gt;"><path id="_Tracé_123" data-name="&lt;Tracé&gt;" class="cls-6" d="M88.3,80.8c-2,2.3-4,4.5-6,6.8a1.85,1.85,0,0,1-2.8-2.4c2-2.3,4-4.5,6-6.8,1.6-1.7,4.4.7,2.8,2.4Z"/></g><g id="_Groupe_124" data-name="&lt;Groupe&gt;"><path id="_Tracé_124" data-name="&lt;Tracé&gt;" class="cls-4" d="M133,92.2s-4.3-7-6.5-8.7-2.1-12.6-3.8-9.4-2.7,7.1-1.3,8.6,2.9,4.4,1.4,5.7S133,92.2,133,92.2Z"/></g><g id="_Groupe_125" data-name="&lt;Groupe&gt;"><path id="_Tracé_125" data-name="&lt;Tracé&gt;" class="cls-8" d="M132.1,123l-2.7-1.9c1.3-16.3,12.9-26.3,13.4-26.7l1.6,1.9-.7-1.4.7,1.4C144.8,95.9,133.3,107.7,132.1,123Z"/></g><g id="_Groupe_126" data-name="&lt;Groupe&gt;"><path id="_Tracé_126" data-name="&lt;Tracé&gt;" class="cls-8" d="M52.6,178.6c11.6,6.1,27.8-.3,28.5-.6l-.3-3.7c-.2.1-16.7,7.1-27,1.7l-1.1-1.2-.7,3.5A1.55,1.55,0,0,0,52.6,178.6Z"/></g><g id="_Groupe_127" data-name="&lt;Groupe&gt;"><path id="_Tracé_127" data-name="&lt;Tracé&gt;" class="cls-14" d="M104.5,155.9l-10.1-32a1.83,1.83,0,0,0-1.5-1.3l-11.4-2.4a2,2,0,0,0-2.3,2.4l9.1,33.9a2.16,2.16,0,0,0,1.8,1.5l12.4.5A2,2,0,0,0,104.5,155.9Z"/></g><g id="_Groupe_128" data-name="&lt;Groupe&gt;"><path id="_Tracé_128" data-name="&lt;Tracé&gt;" class="cls-15" d="M105.5,155.1l-10.1-32a1.83,1.83,0,0,0-1.5-1.3l-11.4-2.4a2,2,0,0,0-2.3,2.4l9.1,33.9a2.16,2.16,0,0,0,1.8,1.5l12.4.5A2,2,0,0,0,105.5,155.1Z"/></g><g id="_Groupe_129" data-name="&lt;Groupe&gt;"><path id="_Tracé_129" data-name="&lt;Tracé&gt;" class="cls-16" d="M104.2,153.3l-9-28.6a1.75,1.75,0,0,0-1.3-1.2l-10.2-2.2a1.79,1.79,0,0,0-2.1,2.2l8.1,30.3a1.81,1.81,0,0,0,1.6,1.3l11.1.5A1.77,1.77,0,0,0,104.2,153.3Z"/></g><g id="_Groupe_130" data-name="&lt;Groupe&gt;"><path id="_Tracé_130" data-name="&lt;Tracé&gt;" class="cls-4" d="M144.3,131.9l-17-9.5s-21.7.4-22.4,4.7c-.5,3.4,8.6-.4,12.4.4s-4,1.9-3.2,5.5,2.7,1.9,2.7,1.9-.6,5.1,2.1,4.2c0,0,2.1,3.4,5.1,1.5,0,0,13.9-.6,14.9-3.4C140.1,134.5,144.3,131.9,144.3,131.9Z"/></g><g id="_Groupe_131" data-name="&lt;Groupe&gt;"><g id="_Groupe_132" data-name="&lt;Groupe&gt;"><path id="_Tracé_131" data-name="&lt;Tracé&gt;" class="cls-15" d="M148.4,132.8c-3-5-8.7,1-9.9,4.3-.8,2.2-1.1,5.1,0,7.2.9,1.8,3.2,2.5,4.6.9.9-1-.6-2.5-1.5-1.5-.3.4-1.5-1.1-1.6-1.4a5.92,5.92,0,0,1-.1-1.9,9.4,9.4,0,0,1,.8-3.3c.6-1.4,4.1-6,5.8-3.2.8,1.1,2.7,0,1.9-1.1Z"/></g></g><g id="_Groupe_133" data-name="&lt;Groupe&gt;"><g id="_Groupe_134" data-name="&lt;Groupe&gt;"><path id="_Tracé_132" data-name="&lt;Tracé&gt;" class="cls-15" d="M152.1,134.7c-3-5-8.7,1-9.9,4.3-.8,2.2-1.1,5.1,0,7.2a2.84,2.84,0,0,0,4.3,1.2c-.2-.2-.5-.4-.7-.6a6.53,6.53,0,0,1-1.3-1.6.52.52,0,0,1-.2-.4c-.2-.3-.4-.5-.4-.7a5.92,5.92,0,0,1-.1-1.9,9.4,9.4,0,0,1,.8-3.3c.5-1,2.6-4,4.3-4.1a2,2,0,0,1,.7.1c.1,0,.2.1.3.1h.3a17,17,0,0,1,2.2.4C152.3,135.3,152.3,135,152.1,134.7Z"/></g></g></g></svg>