<svg xmlns="http://www.w3.org/2000/svg" width="20" height="19" viewBox="0 0 20 19">
    <path fill="#FDCC00" fill-rule="evenodd" d="M11.553 17.236l.892-2.62a2.078 2.078 0 0 1 1.997-1.41l2.767.04c2.014.027 2.887-2.54 1.274-3.745l-2.216-1.658a2.08 2.08 0 0 1-.723-2.335l.89-2.62c.65-1.907-1.521-3.53-3.167-2.37l-2.26 1.597a2.08 2.08 0 0 1-2.445-.034L6.346.424C4.733-.783 2.518.78 3.114 2.704l.819 2.643a2.08 2.08 0 0 1-.788 2.315L.885 9.257c-1.646 1.162-.845 3.75 1.17 3.779l2.767.038a2.08 2.08 0 0 1 1.958 1.465l.818 2.642c.596 1.925 3.306 1.962 3.955.055"/>
</svg>
