<svg xmlns="http://www.w3.org/2000/svg" xmlns:xlink="http://www.w3.org/1999/xlink" width="97" height="97" viewBox="0 0 97 97">
    <defs>
        <path id="a" d="M0 0h50.894v52H0z"/>
    </defs>
    <g fill="none" fill-rule="evenodd">
        <circle cx="48.5" cy="48.5" r="48.5" fill="#FF7900"/>
        <g transform="translate(23 23)">
            <mask id="b" fill="#fff">
                <use xlink:href="#a"/>
            </mask>
            <path fill="#FFF" d="M18.71 48.977c-2.888 0-5.238-2.374-5.238-5.291 0-2.917 2.35-5.29 5.239-5.29s5.239 2.373 5.239 5.29-2.35 5.29-5.24 5.29zm0-13.605c-4.546 0-8.232 3.722-8.232 8.314 0 4.592 3.686 8.314 8.233 8.314 4.547 0 8.233-3.722 8.233-8.314 0-4.592-3.686-8.314-8.233-8.314zM30.537 0v20.558h20.358C50.894 9.204 41.779 0 30.536 0zm9.131 48.977c-2.889 0-5.239-2.374-5.239-5.291 0-2.917 2.35-5.29 5.24-5.29 2.888 0 5.238 2.373 5.238 5.29s-2.35 5.29-5.239 5.29zm0-13.605c-4.547 0-8.233 3.722-8.233 8.314 0 4.592 3.686 8.314 8.233 8.314 4.547 0 8.233-3.722 8.233-8.314 0-4.592-3.686-8.314-8.233-8.314zM2.555 13.14a1.485 1.485 0 0 0-1.058-.442C.67 12.698 0 13.375 0 14.209c0 .418.168.796.438 1.07l8.774 8.86c1.091 5.543 5.934 9.721 11.744 9.721H38.92c6.613 0 11.975-5.414 11.975-12.093H11.098L2.555 13.14z" mask="url(#b)"/>
        </g>
    </g>
</svg>
