<svg xmlns="http://www.w3.org/2000/svg" xmlns:xlink="http://www.w3.org/1999/xlink" width="80" height="80" viewBox="0 0 80 80">
    <defs>
        <path id="a" d="M.107 22.337c0 12.32 9.987 22.307 22.307 22.307 12.32 0 22.308-9.987 22.308-22.307C44.722 10.017 34.734.03 22.414.03S.107 10.017.107 22.337zM25.974 4.475c.056-.008.111-.011.167-.023.028-.005.07 0 .067-.038a.248.248 0 0 0-.072-.146c-.02-.02-.045-.03-.063-.053-.026-.03-.013-.05.005-.081a.626.626 0 0 0 .075-.149c.012-.06.02-.12.024-.181.02-.138.27-.161.368-.183.134-.03.36-.094.407-.246.052-.172-.13-.242-.13-.393 0-.11.18-.116.257-.157.067-.034.13-.019.2-.1 0-.008-.005-.014-.006-.02a20.155 20.155 0 0 1 7.598 3.712c-.585.3-1.287 1.036-.105 1.506.202.08.386-.018.565-.116.254-.139.498-.277.771.088.096.128.198.315.096.466-.064.095-.249.23-.367.148-.15-.101.048-.436-.232-.483a.518.518 0 0 0-.5.234c-.133.21.201.514.063.722-.107.163-.31.153-.51.143-.134-.007-.266-.014-.367.03-.511.225-.955.71-1.502.957-.247.111-.542.09-.807.12-.173.02-.46.043-.556.213-.114.202.515.459.63.54.321.222.473.506.11.787-.23.176-.556.092-.886.008-.325-.082-.655-.164-.903-.001a.35.35 0 0 0-.067.06l.003.003c.44.505.588 1.203.39 1.843a1.91 1.91 0 0 1 1.143.035l.016-.01c.075-.037.158-.056.222-.114.105-.096.06-.262.102-.385.042-.122.144-.194.233-.286.062-.062.105-.15.179-.2.115-.081.275-.053.401-.11.206-.093.092-.36.275-.483.13-.086.284-.034.42.007.368.111.604-.111.955-.138.035-.003.094-.063.13-.077.117-.048.273-.057.372.028.082.069.11.187.177.268.105.125.273.187.407.275.15.1.247.123.413.167.18.049.335.217.503.303.132.067.34.163.338.339-.004.25-.345.243-.57.237-.052-.002-.098-.004-.131-.002-.065.003-.332.02-.355.088-.034.1.425.263.495.276.2.033.283-.105.417-.224.113-.1.266-.162.35-.29.071-.108-.003-.225.012-.34.014-.095.092-.094.122-.17.052-.144-.263-.27-.352-.303a1.77 1.77 0 0 0-.262-.073c-.056-.012-.18-.006-.226-.038-.17-.113-.192-.296-.356-.427-.593-.29-.105-.677.16-.334.415.018.516.453.972.488.22.283.482.136.64.487.027.456.119.45.524.735.14.098.082.586.375.507.093-.026.203-.14.278-.199.043-.034.146-.084.173-.132.086-.148-.184-.158-.236-.248-.243-.42.35-.544.643-.529.277.014.298.36.353.563a.707.707 0 0 0 .166.315c.047.05.103.09.164.121.1.052.203.063.297.129.065.056.14.1.22.127.189.418.364.843.526 1.276h-.013c-.321.012-.614.206-.94.1a1.36 1.36 0 0 0-.428-.086c-.279-.005-.473-.13-.731-.199-.201-.052-.43-.171-.636-.184-.263-.017-.497.11-.562.368-.026.104-.036.229-.144.28-.181.086-.39-.087-.565-.121a2.042 2.042 0 0 1-.41-.098.52.52 0 0 1-.16-.105c-.037-.037-.078-.144-.12-.164a1.558 1.558 0 0 0-.664-.163c-.21-.012-.405-.05-.578-.179-.28-.21.053-.28.005-.525-.008-.037-.096-.137-.09-.162.095-.383-.323-.293-.618-.224-.205.02-.43.005-.657-.01-.38-.023-.762-.048-1.059.089a2.933 2.933 0 0 0-.588.083c.055.044.108.091.158.14l2.335 2.336a4.651 4.651 0 0 1 .48 5.99.327.327 0 0 1 .04.042c.206.262 0 .773.017 1.067.022.461.132.686.394 1.056.414.585.942 1.194.818 1.962-.105.65-.746 1.07-.501 1.782.212.618.654.991.809 1.675.125.559.259.7.543 1.125.311.463.732 2.463 1.705 1.383.205-.068.371.027.558.071-3.534 5.911-9.995 9.877-17.366 9.877C11.27 42.55 2.2 33.483 2.2 22.336c0-1.287.123-2.573.368-3.837.254.2.562.18.864.338.069.128.136.117.293.132.304.122.61.31.945.31.427-.107.58-.27.854.08.246.314.873.463 1.242.534.21.04.409.028.578.171.15.128.236.324.362.472.255.302.519.52.908.615.265.066.549.088.818.152l.543-.54c-.744-.122-1.273-.66-1.837-1.12-.315-.254-.63-.506-1.02-.635.008.003.132-1.027-.04-1.174-.435-.37-.939.438-1.303.583-.886.355-1.402-.331-1.479-1.178-.182-1.988 2.89-2.438 4.157-1.463.127.098.566.754.721.707.252-.077.073-.865.084-1.028.03-.494.061-.707.545-.992.271-.157.457-.404.591-.685.088-.185.13-.353.263-.478a1.924 1.924 0 0 1 1.7-2.825h1.47c-.028-.02-.056-.039-.085-.057l-.094-.052a1.21 1.21 0 0 0-.408-.15c-.035-.004-.067 0-.1-.006-.014-.002-.066-.012-.043-.028a.156.156 0 0 1 .058-.01l.083-.013c.058-.012.117-.018.175-.02.205-.006.405.05.604.09.099.022.199.038.299.048a.453.453 0 0 0 .157-.005.222.222 0 0 1 .065 0c.038.003.074.006.068-.015-.02-.038-.1-.07-.076-.123.015-.036.07-.053.105-.07a.937.937 0 0 1 .133-.053c.2-.064.396-.14.603-.187a1.142 1.142 0 0 1 .426-.032c.038.005.102.004.132.03.03.027-.007.074-.027.1a.89.89 0 0 0-.084.121 1.2 1.2 0 0 0-.138.402v.027h1.502c-.165-.175-.522-.307-.638-.52-.144-.267-.029-.603-.236-.863-.217-.272-.573-.27-.852-.438-.398-.238-.607-.698-.992-.95-.372-.24-.62-.174-.91-.107a1.751 1.751 0 0 1-.566.058c-.377-.03-.587-.312-.871-.52-.64-.467-1.453-.67-2.226-.378-.096.037.267 1.207.283 1.273.193.788-.269.287-.57.756-.128.197.128.378.045.542-.349.692-.815-.426-1.212-.675-.225-.14-.458-.165-.695-.205a20.406 20.406 0 0 1 2.487-2.228c.111.007.24-.014.37-.035.145-.024.289-.048.405-.032.559.075 1.05.375 1.578.544.111.035.922.104.856.058-.138-.093-.723-.225-.289-.273.191.04.663.202.748.005.267-.203.392-.197.738-.197.327-.23.642-.4.701-.785-.091-.21.01-.367-.047-.548-.438-.113-.361-.332-.308-.613-.113-.145-.862-.403-1.043-.354.56-.26 1.134-.495 1.721-.704.506.189 1.046.525.93.966.178.03.38.045.552-.021.04-.016.075-.071.121-.063.046.008.069.09.09.128.011.018.02.037.03.056 0 0 .128-.022.141-.023a.606.606 0 0 1 .134.004c.083.008.16.04.225.092.023.02.112.078.09.118-.018.03-.086.026-.114.027-.028 0-.068 0-.101.007-.058.008-.115.017-.173.024a.577.577 0 0 1-.153.013c-.078.05.179.059.26.099.065.033.144.041.21.082.104.07-.12.112-.156.128a2.835 2.835 0 0 0-.215.115.892.892 0 0 0-.24.191.408.408 0 0 0-.096.22.533.533 0 0 0 .064.278c.063.123.138.24.223.35.01.014.02.03.032.044.459.56 1.55 1.36 2.32 1.271.846-.097.775-1.172 1.582-1.474.806-.303 1.643-.515 2.485-.69a6.43 6.43 0 0 0 .688-.205c.318-.099.641-.179.969-.24.055-.011.112-.014.167-.022.017-.003.151-.026.094-.06a.426.426 0 0 0-.136-.033c-.052-.01-.102-.016-.152-.024a1.017 1.017 0 0 1-.28-.065c-.021-.01-.066-.02-.059-.052.007-.033.068-.03.095-.028.11.008.225-.004.337-.004a2.328 2.328 0 0 0 .35-.017zm4.885 3.438c-.108.041-.234.11-.298.21-.085.135-.01.19.017.315.07.32.223-.01.273.419.117.008.258.008.362.071.03.02.205.251.116.273-.1.025-.25-.014-.302.105-.027.06.01.127-.028.188-.028.044-.122.064-.133.116-.028.13.19.034.21.134.02.111-.307.206-.316.372-.006.136-.013.266.158.224.2-.05.336-.23.525-.308.058-.024.183-.015.226-.044.134-.088.295-.068.453-.047.094.012.186.024.273.014.207-.025.345-.253.31-.459-.018-.105-.059-.095-.164-.11-.217-.03-.259-.108-.357-.286-.108-.198-.367-.297-.514-.464-.06-.067-.124-.164-.101-.257.022-.094.22-.226.042-.302a.325.325 0 0 0-.175-.01c-.043.006-.085.011-.126.005-.136-.022-.04-.147-.132-.2a.148.148 0 0 0-.073-.015.819.819 0 0 0-.246.056z"/>
    </defs>
    <g fill="none" fill-rule="evenodd">
        <circle cx="40" cy="40" r="40" fill="#000"/>
        <g transform="translate(18 18)">
            <mask id="b" fill="#fff">
                <use xlink:href="#a"/>
            </mask>
            <path fill="#FFF" d="M-5.47 50.221H50.3V-5.547H-5.47z" mask="url(#b)"/>
        </g>
        <path fill="#FFF" d="M51.198 54.533c-11.763 0-21.279-8.974-21.279-20.028 0-.488.358-.902.853-1.01l4.77-1.036c.518-.112 1.05.143 1.265.605l2.202 4.834a.996.996 0 0 1-.317 1.208l-2.779 2.141c1.683 3.38 4.609 6.095 8.127 7.649l2.274-2.616c.307-.358.835-.479 1.284-.298l5.137 2.072c.486.199.756.7.637 1.187l-1.1 4.49c-.115.47-.56.802-1.074.802"/>
    </g>
</svg>
