<svg xmlns="http://www.w3.org/2000/svg" xmlns:xlink="http://www.w3.org/1999/xlink" width="80" height="80" viewBox="0 0 80 80">
    <defs>
        <path id="a" d="M.093 0v30.025a4.978 4.978 0 0 0 1.418 3.484 4.76 4.76 0 0 0 3.416 1.435h38.916V4.826c0-2.73-2.17-4.826-4.84-4.826H.094zm25.205 19.904h.007l14.437-14.31v4.897l-12.92 12.712h-.01c-1.267 1.286-2.984 1.954-4.875 1.954s-3.607-.668-4.876-1.954h-.033L4.195 10.5v-4.84c5.14 5.194 14.492 14.466 14.492 14.466.838.896 1.976 1.276 3.233 1.276 1.332 0 2.53-.548 3.378-1.499z"/>
    </defs>
    <g fill="none" fill-rule="evenodd">
        <circle cx="40" cy="40" r="40" fill="#000"/>
        <g transform="translate(18 23)">
            <mask id="b" fill="#fff">
                <use xlink:href="#a"/>
            </mask>
            <path fill="#FFF" d="M-5.375 44.844h54.688V-9.844H-5.376z" mask="url(#b)"/>
        </g>
    </g>
</svg>
