<svg xmlns="http://www.w3.org/2000/svg" xmlns:xlink="http://www.w3.org/1999/xlink" width="80" height="80" viewBox="0 0 80 80">
    <defs>
        <path id="a" d="M0 0h44.843v44.843H0z"/>
    </defs>
    <g fill="none" fill-rule="evenodd">
        <circle cx="40" cy="40" r="40" fill="#000"/>
        <g transform="translate(18 18)">
            <mask id="b" fill="#fff">
                <use xlink:href="#a"/>
            </mask>
            <path fill="#FFF" d="M33.576 36.225c-2.081 2.02-9.557.105-17.006-7.333-7.45-7.439-9.452-14.714-7.342-16.986 4.017-4.093 3.888-4.808 7.093-.826 3.206 3.981 2.991 3.735-.18 6.901-1.262 1.262 1.373 4.454 4.134 7.21 2.762 2.756 5.954 5.39 7.218 4.13 3.156-3.153 2.924-3.38 6.911-.179 3.787 3.075 3.452 2.838-.828 7.083zM22.421 0C10.038 0 0 10.038 0 22.421s10.038 22.422 22.421 22.422S44.843 34.804 44.843 22.42C44.843 10.038 34.804 0 22.42 0z" mask="url(#b)"/>
        </g>
    </g>
</svg>
