<svg xmlns="http://www.w3.org/2000/svg" width="97" height="97" viewBox="0 0 97 97">
    <g fill="none" fill-rule="evenodd">
        <circle cx="48.5" cy="48.5" r="48.5" fill="#FF7900"/>
        <path fill="#FFF" d="M59.481 44.37h5.556v-7.407h-5.556v7.407zm0 12.037h5.556V49h-5.556v7.407zm0 11.112h5.556V60.11h-5.556v7.408zm-2.777-37.14l-1.798 1.028.49-2.057-1.47-1.372 1.96-.343.818-1.783.817 1.783 1.96.343-1.47 1.372.49 2.057-1.797-1.028zM50.222 44.37h5.556v-7.407h-5.556v7.407zm0 12.037h5.556V49h-5.556v7.407zm-.926 14.815h6.482V61.037h-6.482v10.185zm-2.723-39.815l.49-2.057-1.47-1.372 1.96-.343.817-1.783.817 1.783 1.961.343-1.47 1.372.49 2.057-1.798-1.028-1.797 1.028zm-4.684 39.815h6.481V61.037H41.89v10.185zm0-14.815h5.555V49H41.89v7.407zm0-12.037h5.555v-7.407H41.89v7.407zm-3.704-16.392l1.961-.343.817-1.783.817 1.783 1.96.343-1.47 1.372.49 2.057-1.797-1.028-1.797 1.028.49-2.057-1.47-1.372zM32.63 44.37h5.555v-7.407H32.63v7.407zm0 12.037h5.555V49H32.63v7.407zm0 11.112h5.555V60.11H32.63v7.408zm35.549 5.012v-38.19c0-1.623-1.333-2.938-2.977-2.938v-2.938h-2.976v-1.527c0-1.623-1.332-2.938-2.976-2.938H38.417c-1.644 0-2.977 1.315-2.977 2.938v1.527h-2.976v2.938c-1.643 0-2.976 1.315-2.976 2.938v38.19H28V74h41.667v-1.469h-1.488z"/>
    </g>
</svg>
