<svg xmlns="http://www.w3.org/2000/svg" xmlns:xlink="http://www.w3.org/1999/xlink" width="97" height="97" viewBox="0 0 97 97">
    <defs>
        <path id="a" d="M.298 0h50v50h-50z"/>
    </defs>
    <g fill="none" fill-rule="evenodd">
        <circle cx="48.5" cy="48.5" r="48.5" fill="#FF7900"/>
        <g transform="translate(23 24)">
            <mask id="b" fill="#fff">
                <use xlink:href="#a"/>
            </mask>
            <path fill="#FFF" d="M39.89 11.762a2.206 2.206 0 0 1-2.092-2.203c0-1.456 2.206-3.677 2.206-3.677s2.205 2.22 2.205 3.677c0 1.18-.926 2.144-2.092 2.203a4.41 4.41 0 0 0 4.298-4.41c0-2.91-4.411-7.352-4.411-7.352s-4.412 4.441-4.412 7.353a4.41 4.41 0 0 0 4.298 4.409zm-14.706 0a2.206 2.206 0 0 1-2.092-2.203c0-1.456 2.206-3.677 2.206-3.677s2.206 2.22 2.206 3.677c0 1.18-.927 2.144-2.093 2.203a4.41 4.41 0 0 0 4.298-4.41C29.71 4.443 25.298 0 25.298 0s-4.412 4.441-4.412 7.353a4.41 4.41 0 0 0 4.298 4.409zm-14.706 0a2.206 2.206 0 0 1-2.092-2.203c0-1.456 2.206-3.677 2.206-3.677s2.206 2.22 2.206 3.677c0 1.18-.927 2.144-2.093 2.203a4.41 4.41 0 0 0 4.299-4.41c0-2.91-4.412-7.352-4.412-7.352S6.18 4.441 6.18 7.353a4.41 4.41 0 0 0 4.298 4.409zm35.408 35.297H4.709v-7.353c0-3.53 2.288-5.882 5.948-5.882 3.66 0 3.66 2.94 7.32 2.94s3.66-2.94 7.32-2.94h.001c3.66 0 3.66 2.94 7.32 2.94s3.66-2.94 7.32-2.94 5.947 2.352 5.948 5.882v7.353zm-1.47-23.53h-1.471v-8.823a1.47 1.47 0 0 0-1.47-1.47h-2.942a1.47 1.47 0 0 0-1.47 1.47v8.823h-8.824v-8.823a1.47 1.47 0 0 0-1.47-1.47h-2.942a1.47 1.47 0 0 0-1.47 1.47v8.823h-8.824v-8.823a1.47 1.47 0 0 0-1.47-1.47H9.12a1.47 1.47 0 0 0-1.47 1.47v8.823H6.18a5.882 5.882 0 0 0-5.882 5.883v5.882c0 .812.658 1.47 1.47 1.47V50h47.059V36.765a1.47 1.47 0 0 0 1.47-1.47v-5.883a5.882 5.882 0 0 0-5.882-5.883z" mask="url(#b)"/>
        </g>
    </g>
</svg>
