<svg xmlns="http://www.w3.org/2000/svg" xmlns:xlink="http://www.w3.org/1999/xlink" width="97" height="97" viewBox="0 0 97 97">
    <defs>
        <path id="a" d="M0 0h45v56H0z"/>
    </defs>
    <g fill="none" fill-rule="evenodd">
        <circle cx="48.5" cy="48.5" r="48.5" fill="#FF7900"/>
        <g transform="translate(26 21)">
            <mask id="b" fill="#fff">
                <use xlink:href="#a"/>
            </mask>
            <path fill="#FFF" d="M37.518 30.582a.652.652 0 0 1-.889.234.643.643 0 0 1-.24-.881.652.652 0 0 1 .888-.234c.312.179.42.573.24.88m-1.962-1.124a.653.653 0 0 1-.888.234.643.643 0 0 1-.24-.88.652.652 0 0 1 .888-.234c.311.178.419.572.24.88m-1.962-1.125a.652.652 0 0 1-.888.234.642.642 0 0 1-.24-.88.652.652 0 0 1 .888-.234c.311.178.419.572.24.88m-1.963-1.125a.652.652 0 0 1-.888.234.643.643 0 0 1-.24-.88.652.652 0 0 1 .888-.234c.312.178.42.573.24.88m-1.962-1.124a.653.653 0 0 1-.888.233.643.643 0 0 1-.24-.88.652.652 0 0 1 .888-.234c.311.179.419.573.24.88m-1.962-1.124a.652.652 0 0 1-.888.234.643.643 0 0 1-.24-.881.652.652 0 0 1 .887-.234c.312.179.42.573.24.88m-.422 17.411c-.093.18-.826 1.404-.826 1.404l-5.319-5.05-3.574 4.81 2 2.519-.286.488-7.211-4.089.287-.488 3.159.407 2.517-5.41-7.113-1.999s.594-1.081.79-1.343c.313-.247 8.088.356 8.088.356l1.874-2.359c.646-.89 1.785-2.47 2.914-2.418.835.767-.187 2.982-.588 3.819l-1.098 2.715s4.48 6.459 4.386 6.638m-10.517-23.68a.652.652 0 0 1 .888-.235c.311.179.419.573.24.88a.652.652 0 0 1-.888.235.642.642 0 0 1-.24-.88m1.962 1.124a.653.653 0 0 1 .888-.234c.312.179.42.573.24.88a.652.652 0 0 1-.888.234.643.643 0 0 1-.24-.88m1.962 1.125a.652.652 0 0 1 .888-.234c.312.179.42.573.24.88a.653.653 0 0 1-.888.234.643.643 0 0 1-.24-.88m1.963 1.124a.652.652 0 0 1 .888-.233c.311.178.419.573.24.88a.652.652 0 0 1-.888.234.643.643 0 0 1-.24-.88m1.962 1.124a.652.652 0 0 1 .888-.233c.312.178.42.572.24.88a.652.652 0 0 1-.888.234.642.642 0 0 1-.24-.88m19.188-5.397L26.087 7.745c-1.806-1.035-3.866-.493-4.903 1.29L2.342 41.087c-1.044 2.198-.212 3.704 1.313 4.815l16.917 9.593c1.805 1.035 4.11.428 5.146-1.355l18.777-31.887c.892-1.533.567-3.301-.692-4.463M25.43 5.337l17.095 9.693c1.138-2.09.265-3.935-1.22-4.9L24.117.521C22.31-.513 20.25.029 19.213 1.812L.371 33.865c-.851 1.898-.17 3.697 1.354 4.727.081-.265 18.797-31.955 18.797-31.955 1.037-1.783 3.102-2.335 4.908-1.3" mask="url(#b)"/>
        </g>
    </g>
</svg>
