<svg xmlns="http://www.w3.org/2000/svg" width="226" height="70" viewBox="0 0 226 70">
    <g fill="none" fill-rule="evenodd">
        <path fill="#B8EBD6" d="M162.566 48.348l.75-.095a.568.568 0 0 1 .585.32l.322.683c.234.497.968.404 1.07-.136l.14-.742a.57.57 0 0 1 .487-.457l.749-.095c.545-.07.683-.796.201-1.06l-.662-.363a.569.569 0 0 1-.285-.603l.14-.742c.104-.54-.545-.895-.945-.519l-.55.517a.567.567 0 0 1-.662.085l-.662-.363c-.482-.264-1.02.242-.786.74l.323.682a.569.569 0 0 1-.125.655l-.55.518c-.4.376-.084 1.045.46.975"/>
        <path fill="#085FBD" d="M203.269 10.223l.75-.095a.567.567 0 0 1 .584.32l.322.683c.235.498.968.404 1.07-.136l.141-.741a.568.568 0 0 1 .486-.458l.75-.095c.545-.07.682-.796.2-1.06l-.662-.363a.568.568 0 0 1-.284-.603l.14-.742c.103-.54-.546-.895-.946-.519l-.55.518a.566.566 0 0 1-.661.084l-.662-.363c-.482-.264-1.02.242-.786.74l.322.682a.568.568 0 0 1-.125.655l-.55.518c-.4.376-.084 1.045.461.975"/>
        <path fill="#FDCC00" d="M19.684 61.242l.032-.998a.75.75 0 0 1 .541-.696l.96-.278c.698-.202.73-1.18.046-1.426l-.939-.34a.75.75 0 0 1-.495-.73l.033-.997c.023-.727-.896-1.06-1.343-.486l-.613.789a.75.75 0 0 1-.848.244l-.939-.339c-.684-.247-1.284.525-.876 1.127l.56.826a.75.75 0 0 1-.029.882l-.613.788c-.446.574.103 1.384.802 1.181l.959-.277a.751.751 0 0 1 .83.3l.56.826c.408.602 1.348.33 1.372-.396"/>
        <path fill="#924EEE" d="M20.254 10.062l.749-.095a.567.567 0 0 1 .584.32l.323.683c.234.497.968.404 1.07-.136l.141-.742a.568.568 0 0 1 .486-.457l.749-.095c.545-.07.683-.796.201-1.06l-.662-.363a.568.568 0 0 1-.284-.603l.14-.742c.103-.54-.546-.895-.946-.519l-.55.517a.567.567 0 0 1-.662.085l-.662-.363c-.482-.265-1.02.242-.786.74l.323.682a.569.569 0 0 1-.125.655l-.55.518c-.4.376-.084 1.045.46.975"/>
        <path fill="#D6D6D6" d="M183.747 25.177c2.104 0 2.108-3.269 0-3.269-2.104 0-2.108 3.27 0 3.27"/>
        <path fill="#D9C2F0" d="M180.026 48.116c2.105 0 2.108-3.27 0-3.27-2.104 0-2.107 3.27 0 3.27"/>
        <path fill="#FDCC00" d="M29.868 65.327c1.515 0 1.518-2.354 0-2.354-1.515 0-1.518 2.354 0 2.354"/>
        <path fill="#50BE87" d="M140.98 67.311l.792.351a.652.652 0 0 1 .383.663l-.09.862c-.064.627.711.971 1.133.502l.58-.644a.651.651 0 0 1 .748-.16l.792.352c.576.256 1.144-.376.828-.922l-.434-.75a.65.65 0 0 1 .079-.76l.58-.645c.42-.469-.005-1.204-.621-1.072l-.848.18a.652.652 0 0 1-.7-.31l-.434-.75c-.315-.546-1.146-.368-1.211.259l-.09.862a.652.652 0 0 1-.511.57l-.848.18c-.617.132-.705.976-.128 1.232"/>
        <path fill="#FFE8F7" d="M109.8 4.373l.793.351a.652.652 0 0 1 .383.663l-.09.862c-.065.627.71.971 1.132.502l.58-.644a.651.651 0 0 1 .749-.16l.791.352c.577.255 1.144-.376.829-.922l-.434-.75a.65.65 0 0 1 .079-.761l.58-.645c.42-.468-.005-1.203-.622-1.071l-.847.18a.652.652 0 0 1-.7-.31l-.434-.75c-.316-.546-1.146-.368-1.212.259l-.089.862a.652.652 0 0 1-.512.57l-.847.18c-.617.132-.705.976-.128 1.232"/>
        <path fill="#DF53AE" d="M59.014 64.476l.023.61a.46.46 0 0 1-.301.449l-.574.21a.459.459 0 0 0 .032.872l.588.168a.459.459 0 0 1 .333.424l.022.61a.46.46 0 0 0 .84.24l.341-.507a.459.459 0 0 1 .507-.186l.588.167a.46.46 0 0 0 .487-.725l-.377-.48a.46.46 0 0 1-.02-.54l.34-.506a.459.459 0 0 0-.538-.687l-.574.21a.46.46 0 0 1-.52-.148l-.377-.48a.46.46 0 0 0-.82.3"/>
        <path fill="#50BE87" d="M80.306 7.398l.022.61a.459.459 0 0 1-.3.449l-.574.21a.459.459 0 0 0 .032.872l.587.168a.459.459 0 0 1 .333.424l.022.61a.46.46 0 0 0 .84.24l.342-.508a.459.459 0 0 1 .507-.185l.587.167a.459.459 0 0 0 .487-.724l-.377-.481a.46.46 0 0 1-.02-.54l.34-.507a.459.459 0 0 0-.538-.686l-.574.21a.46.46 0 0 1-.519-.148l-.377-.48a.459.459 0 0 0-.82.3"/>
        <path fill="#FDCC00" d="M141.268 1.469c-.036.402.1.84.36 1.15.247.297.675.541 1.067.56.853.038 1.63-.549 1.71-1.428.036-.402-.101-.84-.36-1.15-.248-.296-.675-.54-1.068-.559-.853-.038-1.63.548-1.71 1.427"/>
        <path fill="#FFB4E6" d="M140.993 13.947l.057.025c.748.327 1.694.117 2.305-.392.61-.51.985-1.403.798-2.197l-.014-.06c-.192-.813-.69-1.486-1.492-1.786a2.374 2.374 0 0 0-2.336.397 2.375 2.375 0 0 0-.81 2.228c.153.841.727 1.451 1.492 1.785"/>
        <path fill="#B8EBD6" d="M113.23 67.317c-.119 1.322 1.937 1.51 2.056.185.12-1.322-1.936-1.51-2.055-.185"/>
        <path fill="#D6D6D6" d="M82.11 64.892c-.153 1.695 2.482 1.935 2.635.237.153-1.696-2.482-1.935-2.635-.237"/>
        <path fill="#A885D8" d="M185.648 64.037c-.153 1.696 2.483 1.936 2.636.238.152-1.696-2.483-1.936-2.636-.238"/>
        <path fill="#FFF" d="M33.428 9.096c.867 12.63 19.75 7.818 19.75 7.818-2.562-12.64-20.618-20.446-19.75-7.818m10.93 5.19c-2.466-.092-4.41-.617-5.623-1.52-.715-.533-1.683-1.515-1.848-3.892-.11-1.621.416-2.285 1.308-2.786 1.107-.622 3.388.388 6.038 2.53 1.889 1.526 3.41 3.42 4.407 5.45-1.28.162-2.77.273-4.282.218M53.14 17.567S72.08 21.7 72.93 9.069c.848-12.63-17.25-4.145-19.79 8.498m16.33-8.715c-.159 2.377-1.13 3.36-1.841 3.894-1.212.904-3.157 1.432-5.62 1.528a26.761 26.761 0 0 1-4.283-.212c.996-2.032 2.51-3.928 4.398-5.457 2.65-2.145 4.926-3.159 6.034-2.538.892.5 1.421 1.164 1.311 2.785"/>
        <path fill="#FFF" d="M57.393 17.806c.001 1.861-1.903 3.372-4.251 3.374-2.347.001-4.252-1.507-4.253-3.368-.001-1.863 1.901-3.373 4.248-3.374 2.348-.002 4.254 1.505 4.256 3.368"/>
        <path fill="#FFF" d="M77.725 60.866l-.029-39.88a.69.69 0 0 0-.7-.679l-47.632.033a.69.69 0 0 0-.7.678l.028 39.882 49.033-.034z"/>
        <path fill="#000" d="M80.214 26.065c0 .501-.42.91-.941.91l-52.202.035c-.522.001-.942-.407-.942-.908l-.006-7.511c0-.504.42-.91.94-.91l52.203-.036c.52-.001.942.406.942.908l.006 7.512z"/>
        <path fill="#FFF" d="M56.186 17.565l.007 9.425-6.092.004-.007-9.425z"/>
        <path fill="#000" d="M44.965 37.103a8.372 8.372 0 0 1 1.656-2.908c.73-.826 1.642-1.466 2.738-1.919 1.095-.453 2.35-.67 3.765-.652a9.666 9.666 0 0 1 3.075.526 8.01 8.01 0 0 1 2.559 1.43 6.672 6.672 0 0 1 1.739 2.268c.425.895.631 1.895.617 3.002-.016 1.15-.22 2.134-.613 2.953a7.771 7.771 0 0 1-1.545 2.178 12.76 12.76 0 0 1-2.162 1.714c-.805.51-1.613 1.017-2.43 1.516-.814.5-1.608 1.038-2.379 1.614-.77.576-1.454 1.25-2.048 2.025l11.149.139-.053 3.969-17.313-.215c.017-1.323.229-2.47.635-3.442a9.126 9.126 0 0 1 1.635-2.6 13.886 13.886 0 0 1 2.403-2.101c.918-.64 1.887-1.29 2.907-1.95.52-.34 1.075-.686 1.664-1.036.588-.35 1.127-.74 1.616-1.168a6.398 6.398 0 0 0 1.232-1.45c.333-.537.504-1.153.514-1.848.014-1.106-.306-1.973-.96-2.6-.654-.625-1.498-.945-2.53-.958-.697-.009-1.289.142-1.776.45-.487.309-.88.716-1.178 1.222a5.586 5.586 0 0 0-.646 1.684 9.388 9.388 0 0 0-.21 1.836l-4.58-.057c-.029-1.302.145-2.509.52-3.622"/>
        <path fill="#FFF" d="M93.13 9.334c.867 12.63 19.75 7.818 19.75 7.818-2.562-12.64-20.618-20.446-19.75-7.818m10.929 5.19c-2.466-.092-4.41-.617-5.622-1.52-.716-.533-1.684-1.515-1.85-3.892-.108-1.621.417-2.285 1.31-2.785 1.106-.624 3.387.388 6.037 2.529 1.889 1.525 3.41 3.42 4.407 5.451-1.28.162-2.77.272-4.282.217M112.84 17.805s18.941 4.133 19.791-8.498c.848-12.63-17.25-4.145-19.79 8.498m16.33-8.715c-.159 2.377-1.129 3.36-1.841 3.893-1.212.905-3.156 1.433-5.62 1.529-1.512.057-3.004-.05-4.283-.212.997-2.032 2.511-3.928 4.398-5.457 2.65-2.145 4.926-3.159 6.036-2.538.89.5 1.42 1.164 1.31 2.785"/>
        <path fill="#FFF" d="M117.094 18.044c.002 1.861-1.902 3.373-4.25 3.374-2.348.002-4.252-1.507-4.254-3.368-.001-1.863 1.901-3.373 4.248-3.374 2.348-.002 4.256 1.505 4.256 3.368"/>
        <path fill="#FFF" d="M137.426 61.104l-.028-39.881a.69.69 0 0 0-.701-.678l-47.632.033a.69.69 0 0 0-.7.678l.028 39.882 49.033-.034z"/>
        <path fill="#000" d="M139.916 26.303c0 .501-.421.91-.942.91l-52.202.034c-.522.002-.942-.406-.942-.907l-.005-7.511c-.001-.504.419-.91.94-.91l52.202-.036c.521-.001.942.406.943.909l.006 7.511z"/>
        <path fill="#FFF" d="M115.887 17.803l.007 9.426-6.091.004-.007-9.426z"/>
        <path fill="#000" d="M104.668 37.341a8.37 8.37 0 0 1 1.656-2.908c.73-.826 1.642-1.465 2.737-1.918 1.096-.453 2.35-.67 3.766-.653a9.678 9.678 0 0 1 3.075.526 8.023 8.023 0 0 1 2.558 1.431 6.684 6.684 0 0 1 1.74 2.268c.424.895.63 1.895.616 3.001-.015 1.15-.22 2.135-.612 2.954a7.76 7.76 0 0 1-1.546 2.177 12.727 12.727 0 0 1-2.162 1.715 174.43 174.43 0 0 1-2.429 1.516c-.815.5-1.608 1.037-2.38 1.614a10.465 10.465 0 0 0-2.048 2.025l11.15.138-.053 3.97-17.314-.215c.018-1.323.23-2.471.636-3.442a9.125 9.125 0 0 1 1.634-2.6 13.874 13.874 0 0 1 2.404-2.102c.918-.639 1.886-1.288 2.906-1.948.521-.34 1.076-.687 1.665-1.038.588-.35 1.126-.74 1.616-1.167a6.392 6.392 0 0 0 1.231-1.45c.333-.537.505-1.154.514-1.848.015-1.106-.306-1.973-.96-2.6-.654-.626-1.498-.946-2.53-.958-.697-.01-1.288.141-1.775.45-.487.308-.88.716-1.179 1.221a5.57 5.57 0 0 0-.645 1.685 9.36 9.36 0 0 0-.21 1.836l-4.581-.057c-.028-1.302.145-2.51.52-3.623"/>
        <path fill="#FFF" d="M172.355 18.043s18.94 4.133 19.79-8.499c.848-12.63-17.248-4.145-19.79 8.499m16.33-8.716c-.158 2.377-1.129 3.36-1.841 3.894-1.212.904-3.155 1.432-5.619 1.529a26.842 26.842 0 0 1-4.283-.212c.996-2.033 2.51-3.929 4.397-5.457 2.65-2.145 4.926-3.159 6.035-2.538.892.499 1.421 1.163 1.311 2.784M152.644 9.571c.867 12.63 19.75 7.819 19.75 7.819-2.562-12.641-20.618-20.447-19.75-7.819m10.929 5.191c-2.466-.093-4.409-.618-5.622-1.521-.715-.532-1.684-1.514-1.849-3.89-.11-1.623.417-2.287 1.309-2.787 1.106-.623 3.387.387 6.037 2.529 1.889 1.526 3.41 3.42 4.408 5.451-1.28.162-2.771.272-4.283.218"/>
        <path fill="#FFF" d="M176.608 18.281c.002 1.862-1.902 3.373-4.25 3.374-2.348.002-4.252-1.506-4.254-3.368-.001-1.862 1.901-3.372 4.248-3.374 2.348-.002 4.255 1.505 4.256 3.368"/>
        <path fill="#FFF" d="M196.94 61.341l-.028-39.88a.69.69 0 0 0-.701-.679l-47.631.033a.69.69 0 0 0-.7.678l.028 39.882 49.033-.034z"/>
        <path fill="#000" d="M199.43 26.54c0 .502-.421.91-.942.91l-52.202.035c-.521.002-.942-.406-.942-.907l-.005-7.512c-.001-.503.42-.91.94-.91l52.202-.036c.522 0 .942.406.943.91l.006 7.51z"/>
        <path fill="#FFF" d="M175.401 18.04l.007 9.425-6.091.005-.007-9.425z"/>
        <path fill="#000" d="M170.649 55.316l.197-14.773-5.928-.073.046-3.482c.83.032 1.634-.017 2.41-.15a6.424 6.424 0 0 0 2.1-.721 5.08 5.08 0 0 0 1.584-1.397c.434-.58.725-1.303.871-2.169l3.807.047-.304 22.777-4.783-.06zM211.844 39.643l4.472.018.808-5.52-4.426-.017-.854 5.52zm-8.869 3.974l.017-4.009 4.38.017.854-5.519-3.827-.015.017-4.009 4.38.018 1.328-8.813 4.472.018-1.328 8.813 4.472.018 1.283-8.814 4.472.018-1.283 8.814 3.412.013-.017 4.008-4.011-.015-.808 5.52 3.412.013-.017 4.008-4.011-.016-1.283 8.813-4.472-.017 1.283-8.814-4.427-.018-1.328 8.814-4.472-.018 1.329-8.813-3.827-.015zM9.256 39.637l4.473.018.807-5.52-4.426-.017-.854 5.52zM.387 43.61l.017-4.008 4.38.017.854-5.52-3.827-.014.017-4.009 4.38.018 1.329-8.813 4.472.018-1.329 8.813 4.472.017 1.283-8.813 4.472.018-1.283 8.814 3.412.013-.017 4.008-4.01-.016-.809 5.52 3.412.013-.017 4.009-4.01-.016-1.284 8.813-4.472-.018 1.283-8.813-4.426-.018-1.329 8.813-4.472-.017 1.329-8.814-3.827-.015z"/>
    </g>
</svg>
