<svg xmlns="http://www.w3.org/2000/svg" xmlns:xlink="http://www.w3.org/1999/xlink" width="92" height="80" viewBox="0 0 92 80">
    <defs>
        <path id="a" d="M.455.907h41.21v30.911H.454z"/>
        <path id="c" d="M.82 3.364l3.462 29.181 22.225-3.272L23.046.545"/>
        <path id="e" d="M.82 3.364l3.462 29.181 22.225-3.272L23.046.545"/>
        <path id="g" d="M.82 3.364l3.462 29.181 22.225-3.272L23.046.545"/>
        <path id="i" d="M0 2.818l3.28 27.91 22.316-2.818L22.226.09"/>
        <path id="k" d="M0 2.818l3.28 27.91 22.316-2.818L22.226.09"/>
        <path id="m" d="M0 2.818l3.28 27.91 22.316-2.818L22.226.09z"/>
        <path id="o" d="M0 2.818l3.28 27.91 22.316-2.818L22.226.09z"/>
        <path id="q" d="M0 2.818l3.28 27.91 22.316-2.818L22.226.09z"/>
        <path id="s" d="M0 2.818l3.28 27.91 22.316-2.818L22.226.09z"/>
        <path id="u" d="M0 2.818l3.28 27.91 22.316-2.818L22.226.09"/>
        <path id="w" d="M0 2.818l3.28 27.91 22.316-2.818L22.226.09"/>
        <path id="y" d="M.82 3.364l3.462 29.181 22.225-3.272L23.046.545z"/>
        <path id="A" d="M.82 3.364l3.462 29.181 22.225-3.272L23.046.545z"/>
        <path id="C" d="M.82 3.364l3.462 29.181 22.225-3.272L23.046.545"/>
        <path id="E" d="M.82 3.364l3.462 29.181 22.225-3.272L23.046.545"/>
        <path id="G" d="M.82 3.364l3.462 29.181 22.225-3.272L23.046.545z"/>
        <path id="I" d="M.82 3.364l3.462 29.181 22.225-3.272L23.046.545z"/>
        <path id="K" d="M.82 3.364l3.462 29.181 22.225-3.272L23.046.545"/>
        <path id="M" d="M.82 3.364l3.462 29.181 22.225-3.272L23.046.545z"/>
        <path id="O" d="M.82 3.364l3.462 29.181 22.225-3.272L23.046.545"/>
        <path id="Q" d="M.82 3.364l3.462 29.181 22.225-3.272L23.046.545"/>
        <path id="S" d="M.82 3.364l3.462 29.181 22.225-3.272L23.046.545"/>
        <path id="U" d="M.82 3.364l3.462 29.181 22.225-3.272L23.046.545"/>
        <path id="W" d="M.82 3.364l3.462 29.181 22.225-3.272L23.046.545"/>
        <path id="Y" d="M.82 3.364l3.462 29.181 22.225-3.272L23.046.545"/>
    </defs>
    <g fill="none" fill-rule="evenodd">
        <path fill="#704F47" d="M56.658 32.273C54.927 31.727 52.467 32 50.919 31c-4.554-3-9.018-6.273-13.026-9.91-.82 1.546-1.73 3-2.46 4.274-1.001 1.727-2.094 3.272-3.096 5-.82 1.363-.638 2.818-1.822 4.09-1.548 1.637-4.463 2-5.739 3.637-.91 1.09-.637 2.454-.728 3.818-.82 6.273-10.567 12.636-3.188 18.273 3.006 2.273 6.65 3.636 10.02 5.09 2.732 1.092 5.738 1.273 7.195-1.636 1.276-2.454 1.367-5.181 3.553-7.181 1.913-1.819 4.737-2.273 6.65-4 2.732-2.455 4.918-6 6.831-9.182 1.64-2.818 3.734-5.91 3.553-9.364 0-1-1.186-1.364-2.004-1.636"/>
        <g transform="translate(0 48.182)">
            <mask id="b" fill="#fff">
                <use xlink:href="#a"/>
            </mask>
            <path fill="#000" d="M41.446 14.273C41.08 13.546 21.86 1.09 19.402.909c-1.64-.09-3.188 2.455-3.917 3.272C12.57 7.727 1.185 24.818.455 31.818H31.96c7.014-6.454 6.297-9.545 9.212-15.272.547-1.001.638-1.637.274-2.273" mask="url(#b)"/>
        </g>
        <path fill="#FF7800" d="M19.402 51c.09-.273-.091-.636-.456-.636-.273-.092-.637.09-.637.455 0 .09 0 .18-.091.272 0 0 0 .09-.091.09 0 .092-.092.092-.092.182-.182.273 0 .638.274.728.273.181.637 0 .728-.273.183-.272.274-.545.365-.818M21.77 53a.56.56 0 0 0 .091-.637c-.182-.272-.546-.363-.728-.18l-.274.271v.091a.56.56 0 0 0-.09.637c.181.272.546.364.728.181l.273-.271V53M20.222 55.545c.182-.18.273-.454.091-.727-.182-.273-.546-.363-.729-.182-.273.182-.364.546-.455.818-.091.273.091.637.455.637.274.09.638-.091.638-.454v-.092M24.685 55c.182-.273 0-.636-.273-.727-.273-.182-.638 0-.729.272l-.546.819c-.182.272-.182.545 0 .818.182.182.637.182.82 0 .273-.455.546-.818.728-1.182M22.681 57c-.273-.092-.638.091-.638.455 0 .09-.09.09-.09.182a.706.706 0 0 0-.183.727c.182.273.547.363.729.182.273-.182.546-.546.638-.91.09-.273-.183-.545-.456-.636M26.78 57.818c0-.091.091-.091.091-.181.091-.182.182-.274.182-.455.091-.273-.09-.636-.455-.636-.273-.092-.638.09-.638.455v.09c0 .091-.09.091-.09.181-.092.183-.183.273-.183.455-.091.273.091.637.455.637.274 0 .547-.183.638-.546 0 .092 0 0 0 0M25.778 60.727c.182-.273 0-.636-.273-.727-.273-.182-.638 0-.729.273-.273.363-.455.818-.546 1.363-.183.727.91 1.001 1.093.273.09-.546.182-.818.455-1.182M29.786 59.545c0-.09.091-.09.091-.181.091-.182.183-.273.183-.455.09-.273-.092-.636-.456-.636-.273-.091-.637.09-.637.454v.091c0 .091-.092.091-.092.182-.09.182-.182.273-.182.455-.09.272.091.636.456.636.182 0 .546-.182.637-.546-.09 0 0 0 0 0M28.238 62.91c.09-.273-.091-.637-.456-.637-.273-.091-.637.09-.637.454 0 .09-.092.09-.092.182-.09.091-.182.273-.273.363-.182.274 0 .637.273.728.274.181.638 0 .73-.273.181-.181.364-.455.455-.818M31.79 61.091c.091-.273-.091-.636-.455-.636-.274-.091-.638.09-.638.454l-.182.637c-.091.272.09.636.455.636.273.09.638-.09.638-.455l.182-.636zM30.697 65.455c0-.091.091-.091.091-.091.091-.091.091-.273.182-.364.092-.273-.09-.636-.455-.636-.273-.091-.638.09-.638.454 0 .091-.09.091-.09.091-.092.091-.092.273-.183.364-.09.272.091.636.456.636.273.091.546-.182.637-.454M29.604 67.545c0-.272-.273-.545-.547-.545-.273 0-.546.273-.546.545v.364c0-.091-.091.09-.091.09l-.091.093c-.274.18-.365.544-.182.726.182.273.546.364.728.183.547-.274.82-.82.729-1.456M35.98 61.454c0-.273-.273-.545-.546-.545-.274 0-.547.272-.547.545v.182c-.091.182-.182.273-.182.365-.182.271 0 .636.273.726.273.183.638 0 .729-.272.091-.183.273-.546.273-1M34.34 65c.183-.727-.91-1-1.092-.273-.091.364-.365.728-.547 1.091-.09.273-.09.637.273.727.274.182.638.091.73-.272.181-.364.455-.818.637-1.273M32.428 68.546c.182-.274.182-.547 0-.818-.182-.183-.638-.183-.82 0-.364.454-.455.909-.729 1.363-.09.272-.09.637.274.727.273.182.637.091.728-.272.182-.183.274-.637.547-1M38.349 64.363c.182-.272.182-.545 0-.817-.183-.183-.638-.183-.82 0-.365.455-.638.91-.82 1.454-.091.273-.091.636.273.727.274.182.638.092.729-.273.091-.272.364-.727.638-1.09M26.78 66c0-.181-.091-.273-.182-.455-.182-.273-.547-.363-.729-.18-.273.18-.364.454-.182.726-.091.272.091.637.455.637.274.09.638-.092.638-.455-.091 0 0-.182 0-.273M16.396 53.364c-.273-.092-.546.09-.546.363 0 .091-.092.182-.092.273v.091c-.182.182-.273.455-.09.636.09.182.455.273.637.182.273-.182.455-.545.546-.909-.09-.273-.182-.545-.455-.636M18.035 57.818c.092-.273-.09-.546-.364-.546-.273-.09-.546.091-.546.365v.18c-.092.183-.183.274-.365.455-.182.182 0 .547.182.637.274.092.547 0 .638-.182.091-.273.364-.546.455-.91M20.495 59.818c-.273-.182-.546 0-.729.182-.09.09-.182.273-.182.364-.09.09-.09.181-.182.181-.273.182-.364.455-.182.728.182.272.455.363.729.181.364-.272.546-.635.82-1 .09-.09 0-.454-.274-.636M23.319 64.91c0-.182-.091-.455-.182-.637-.182-.273-.456-.364-.729-.182-.273.182-.364.455-.182.727 0 0 0 .091-.091.091-.182.273 0 .636.182.728.273.182.546 0 .729-.182.182-.091.273-.273.273-.546M35.707 69.455c.091-.092.091-.182.182-.274.274-.18.365-.454.182-.727-.182-.272-.546-.363-.728-.182-.274.182-.456.455-.638.728-.182.273 0 .636.182.728.365.181.638 0 .82-.273M11.75 64.455c.091-.274-.09-.636-.455-.636-.273-.092-.638.09-.638.454 0 .09 0 .182-.09.273 0 0 0 .09-.092.09 0 .092-.09.092-.09.182-.183.272 0 .637.272.727.274.182.638 0 .729-.273.182-.272.273-.544.364-.817M14.21 66.454c.182-.18.182-.454.091-.635-.182-.274-.546-.365-.729-.182l-.273.272v.09a.56.56 0 0 0-.091.637c.182.273.547.365.729.182l.273-.272c-.091 0-.091-.092 0-.092M12.661 69c.182-.181.274-.454.091-.728-.182-.273-.546-.363-.728-.18-.274.18-.365.545-.456.817-.09.272.091.637.456.637.273.09.637-.091.637-.455-.09 0 0 0 0-.09M17.125 68.454c.182-.272 0-.636-.274-.727-.273-.182-.637 0-.728.273l-.547.818c-.182.273-.182.545 0 .818.182.182.638.182.82 0 .273-.454.455-.818.729-1.182M22.317 69.455c0-.092.09-.092.09-.182.092-.182.183-.273.183-.454.091-.273-.091-.637-.455-.637-.274-.09-.638.09-.638.455v.09c0 .092-.091.092-.091.182-.091.182-.182.272-.182.454-.091.273.09.637.455.637.273 0 .547-.182.638-.545 0 .09 0 0 0 0M20.13 64.455c0-.092.092-.092.092-.182.091-.182.182-.273.182-.454.091-.273-.091-.637-.455-.637-.274-.09-.638.09-.638.455v.09c0 .092-.091.092-.091.182-.091.182-.182.272-.182.454-.091.273.09.637.455.637.273 0 .547-.182.638-.545M18.946 67.273c0-.091.091-.091.091-.182.092-.182.183-.273.183-.455.09-.272-.091-.636-.456-.636-.273-.09-.637.09-.637.455v.09c0 .091-.092.091-.092.182-.09.182-.182.273-.182.455-.09.273.091.636.456.636.273 0 .546-.182.637-.545 0 .09 0 .09 0 0M15.576 64.273c0-.092.091-.092.091-.182.092-.182.183-.273.183-.454.09-.273-.091-.637-.456-.637-.273-.09-.637.091-.637.455v.09c0 .092-.092.092-.092.182-.09.182-.182.273-.182.454-.09.274.091.637.456.637.182 0 .455-.182.637-.545-.09 0-.09 0 0 0M14.939 60.09c0-.09.09-.09.09-.18.092-.182.183-.274.183-.455.09-.274-.091-.636-.456-.636-.273-.092-.637.09-.637.454v.09c0 .092-.091.092-.091.182-.091.183-.183.273-.183.455-.09.272.092.637.456.637.273 0 .546-.183.638-.546M11.842 61.818c0-.09.09-.09.09-.182.092-.181.183-.272.183-.454.09-.273-.091-.637-.456-.637-.273-.09-.637.091-.637.455v.09c0 .092-.091.092-.091.183-.091.182-.182.272-.182.454-.092.273.09.637.455.637.273 0 .546-.182.638-.546 0 .091 0 0 0 0M13.3 57.727c0-.09.09-.09.09-.182.091-.181.182-.272.182-.454.091-.273-.09-.636-.455-.636-.273-.091-.638.09-.638.454V57c0 .09-.09.09-.09.182-.092.182-.183.273-.183.454-.091.273.091.637.455.637.274 0 .547-.182.638-.546 0 .091 0 0 0 0M8.745 66.818c-.274-.09-.547.091-.547.364 0 .09-.091.182-.091.273v.09c-.182.182-.273.455-.091.637.091.182.455.273.638.182.273-.182.455-.546.546-.91 0-.363-.182-.545-.455-.636"/>
        <path fill="#704F47" d="M63.125 26.455c.455.09 1.002.272 1.458.545.181.182-4.009 7.546-5.92 6-2.37-2 2.093-6.818 4.462-6.545"/>
        <path fill="#704F47" d="M58.935 20.637c-1.093.454-2.37 1.272-3.097.909-1.002-.546 1.73-2.637 2.277-3.091.82-.818 1.73-1.455 2.46-2.364.455-.545 1.093-1.273.637-2-.455-.727-1.366-.09-1.914.273C56.566 16 54.016 18.09 51.466 20c-1.367 1-2.733 2.091-4.19 3.091-.911.727-1.913 1.727-3.098 1.455-.91-.182-1.912-1.273-2.55-.091-.364.727-.547 1.636-.638 2.545-.09.818-.182 1.637-.364 2.273-.273 1.182-.091 2.273 0 3.454C40.808 34 40.079 38 40.079 38c.547 1.818.456 3.546 2.55 3.727 1.823.181 3.917-.363 5.466-1.363.911-.546 1.093-1.273 2.186-1.091.911.182 1.822.909 2.824.727.82-.182 1.366-1.363 1.822-2 1.093-1.546 4.371-4.727 3.552-6.818-.728-1.818-1.093-1.818-.364-3.91.638-1.726 2.55-3.363 2.55-5.363.183-1.818-.728-1.727-1.73-1.272M59.026 9.454l-.82 1.091c-.547.819-.729 2.455-1.821 2.728-1.185.363-1.732-1.819-1.914-2.637-.455-1.909 1.366-3.272 2.825-4.182 1.638-1 3.188-.727 4.007 1-.82.364-1.549 1.182-2.277 2"/>
        <path fill="#704F47" d="M59.663 20.546l-.455.909c0 .181.455 2.636.638 2.545 1.275-.545 2.641-2.182 2.095-3.636-.274-.637-1.458-2.182-2.187-1.364-.455.455.092 1.091-.09 1.546"/>
        <path fill="#828080" d="M54.107 1C52.65.182 51.1.364 49.28.636c-1.822.182-4.28.455-6.194.637-1.822.182-3.734.363-5.466.636-1.638.182-4.28.455-5.555 1.546-1.093.909-1.549 2.909-1.549 4.363-.09 2.91.638 5.818 1.002 8.728.456 3.545.82 6.909 1.184 10.454.274 2.636.73 6.182 1.093 8.818.365 2.273.365 3.91.73 6.182.272 1.636.09 3.727 1.82 4.818 1.094.637 2.642.728 3.827.728 1.913-.091 3.734-.455 5.646-.637 2.187-.182 4.373-.545 6.56-1 1.912-.363 4.28-.182 6.01-1.09 2.005-1 2.278-3.092 2.097-5.364-.82-8.728-2.278-17.364-3.007-26-.182-2.364-.729-4.819-1.092-7.273-.275-1.91-.275-4-2.278-5.182"/>
        <path fill="#FF7800" d="M52.194 4.363c-3.28.455-6.65.637-9.838 1.182-2.46.364-5.1.091-7.47 1-3.005 1.182-3.187 3.91-2.823 6.818.182 1.728.365 3.455.638 5.091.455 4 1.002 8.091 1.457 12.091.274 2.273.547 4.455.82 6.728.182 1.818-.091 4.09 1.002 5.727.091.182.273.363.455.454 1.185 1.001 3.006.273 4.464.092 4.008-.454 8.107-1 12.115-1.455 2.186-.273 4.282-.546 6.467-.728-.638-5.272-1.274-10.545-1.913-15.818a624.15 624.15 0 0 1-1.913-18.272c-.273-2.364-1.184-3.273-3.461-2.91"/>
        <path fill="#1C2633" d="M35.98 2.09c-.273-.09-.729-.181-1.548 0-.274.092-.547.183-.729.364 0 .182 0 .455.273.546.182.09.729.09 1.002.09s.547-.09.82-.272c.364-.182.182-.455.182-.727"/>
        <path fill="#000" d="M34.25 2.09c-.365.092-.73.546-.091.637.728.091 1.093-.364.82-.545-.092-.182-.365-.273-.73-.091M51.1 1.727c-3.734.455-13.754 1.546-16.759 1.91-3.918.454-3.188 5.363-3.098 6.817 0 .455 1.64 13.637 2.733 23.182.637 5.364 1.184 9.637 1.184 9.728.455 4.09 2.55 4.545 5.283 4.181 2.915-.363 11.387-1.363 14.301-1.727 6.013-.727 5.74-2.364 5.374-6-.182-1.182-.82-7.545-1.638-14.273-.729-6.727-1.55-13.909-1.914-16.636-.091-.364-.091-.727-.181-1.09-.182-2.637-.638-6.637-5.284-6.092m4.828 38.364c-1.276.182-14.21 1.727-15.76 1.909-4.19.545-4.006-2.636-4.098-3.182-.091-1.09-.182-1.273-.273-2.09-.09-.455-.82-6.728-1.093-9.364-.092-.728-.183-1.364-.274-2.091-.09-.819-.182-1.546-.273-2.364-.182-1.364-1.366-11.636-1.548-13-.365-2.545 1.821-3.09 2.914-3.182 1.276-.182 2.278-.273 3.553-.454 2.641-.364 5.374-.637 8.017-.91 1.821-.181 2.64-.272 4.462-.545 1.549-.182 3.007-.09 3.28 2.364.09.909.09 1.09.273 2 .183 1.727 3.188 26.454 3.37 28 .09.454.456 2.545-2.55 2.909"/>
        <path fill="#000" d="M46.82 3.182c-.82.09-1.275.182-1.914.273-.636.09-2.367.272-3.643.454-.273 0-3.37.182-2.277 1 .365.273 1.002 0 1.366 0 .91-.09 2.187-.273 3.28-.364 1.184-.181 1.913-.181 3.37-.363 1.276-.182.82-1.091-.182-1"/>
        <path fill="#82C7A6" d="M35.707 37.363v.182c.091-.09 0-.09 0-.182"/>
        <path fill="#828080" d="M51.1 42.727c-.546-.09-1.274 0-1.821 0-.456 0-1.73.182-2.733.364-.455.09-2.915.182-1.73 1.454.273.273.911.273 1.184.273.728 0 1.64-.182 2.46-.273.91-.09 1.366-.181 2.46-.272 1-.091 1.456-1.364.18-1.546"/>
        <g>
            <g transform="translate(31.881 7.273)">
                <mask id="d" fill="#fff">
                    <use xlink:href="#c"/>
                </mask>
                <path fill="#297394" d="M17.034 5.091l.09-.273.729-.09c.092 0 .092-.092.092-.182V4.09c0-.09-.092-.182-.182-.182L16.942 4c-.09 0-.09.091-.09.182v.454c0 .091 0 .091.09.182 0 .091 0 .273.092.273" mask="url(#d)"/>
            </g>
            <g transform="translate(31.881 7.273)">
                <mask id="f" fill="#fff">
                    <use xlink:href="#e"/>
                </mask>
                <path fill="#297394" d="M17.307 7.273l.455-.091c.091 0 .091-.091.091-.182v-.455c0-.09-.09-.181-.182-.181l-.546.09c-.091 0-.091.091-.091.182v.455c0 .09 0 .09.09.182h.183" mask="url(#f)"/>
            </g>
            <g transform="translate(31.881 7.273)">
                <mask id="h" fill="#fff">
                    <use xlink:href="#g"/>
                </mask>
                <path fill="#E88A33" d="M21.041 9.182l-.09-.273-.546.091a.195.195 0 0 1-.183-.182v-.454c0-.091.09-.182.183-.182l.636-.091c.092 0 .182.09.182.182v.454c0 .091 0 .182-.09.182-.092 0-.092.273-.092.273" mask="url(#h)"/>
            </g>
        </g>
        <g>
            <path fill="#EDE8E0" d="M32.792 11l3.28 27.91 22.316-2.819-3.37-27.818z"/>
            <path fill="#BAE0D1" d="M38.622 11.727l-.638.273 7.56.182 2.824-1.728zM36.071 23.909l1.822.727 4.281-5.182 6.194-3.09L44.36 16z"/>
        </g>
        <g>
            <g transform="translate(32.792 8.182)">
                <mask id="j" fill="#fff">
                    <use xlink:href="#i"/>
                </mask>
                <path fill="#4FB2E3" d="M25.414 2.91l-1.003-1.273s-5.01.272-6.01.545c-1.004.273-1.277.182-1.732.182-.546.09-1.183.545-.82.818.547.273 1.003.273 1.73 0 .73-.182 1.095-.364 1.822-.273 1.732.546 5.649 0 6.013 0" mask="url(#j)"/>
            </g>
            <g transform="translate(32.792 8.182)">
                <mask id="l" fill="#fff">
                    <use xlink:href="#k"/>
                </mask>
                <path fill="#4FB2E3" d="M.638 13.454c.546-.363 1.275-.545 1.64-1.09.364-.546.546-.637.82-.91.272-.272.637-.09 1.274-.363.82-.364 1.276-.182.82.545-.364.818-1.548.91-1.73 1.273-.274.364-.365 1.818-2.55 1.273-.092 0-.82-.182-.274-.728" mask="url(#l)"/>
            </g>
        </g>
        <g>
            <path fill="#C29470" d="M36.618 28.454l3.37 1.819 1.822-1.364-3.917-2z"/>
            <path fill="#E0D9D1" d="M35.07 30.455l.728 6.363 3.28-2.09-1.458-2.455 1.822-1.455L36.253 29z"/>
            <path fill="#C29470" d="M48.368 21.91l.455.545.911-.455-.455-.545zM49.826 23.818l.546.637L51.374 24l-.546-.727zM46.455 22.727l.365.637 1.002-.455-.456-.636zM47.093 23.727l.456.637 1.002-.455-.547-.636zM50.737 21.91l.546.545.911-.455-.546-.545zM47.366 18l.547.545.91-.363-.546-.546zM34.523 26.182l.09.181 1.185.728.82-.818-1.458-.819zM54.563 20.455l.636.454.638-.545-.638-.455zM55.747 19.454l.637.455-.09-.91zM51.648 17.182l1.457.818.638-.364-1.64-.636zM47.731 24.727l.547.728 1-.455-.545-.727zM33.794 13.545h-.729l.092.455 4.099-.091 1.002-.545-3.826-.182zM38.713 12.818h1.548l.274-.09-1.549-.092zM36.071 12.636h1.549l.273-.09-1.548-.092zM33.156 12.364l1.549.09.273-.181H33.43zM41.446 12.91l1.64.09.272-.182-1.64-.09zM48.004 12.545l.182.091 1.548-.273-.272-.09zM50.372 12.09l.182.092 1.458-.273-.182-.091zM52.741 15.637l3.188.272-.092-.818-2.915-.09zM45.727 15l2.46.273.18-.455-2.458-.182zM37.893 15.182l-.455.455h.728l.547-.546zM40.717 14.273l.729-.091.364-.364h-.638zM35.798 15.364l-.547.545.638-.09.638-.546z"/>
            <path fill="#D9D1C7" d="M51.738 12.273l-3.643.636.455.364L50.736 13l2.733.455L55.564 13v-.364l-.09-.636z"/>
        </g>
        <g transform="translate(32.792 8.182)">
            <mask id="n" fill="#fff">
                <use xlink:href="#m"/>
            </mask>
            <path fill="#D9D1C7" d="M16.396 10.637l-3.552 1.272h-.092c-.09 0-.09 0-.182-.09l-.728-1-1.822 1-.456.545c.183.273.365.636.456.909.455-.455 1.093-.727 1.73-.818h.456c.82 0 1.548.272 2.095.818l2.004-.818h.091l1.275-.546-1.275-1.272z" mask="url(#n)"/>
        </g>
        <g>
            <path fill="#E0D9D1" d="M32.974 13.09l.092.455h.728l.638-.363 3.826.182-1.002.545-4.1.09v.274l6.468-.091 1.275-1-7.925-.546z"/>
            <path fill="#BA8C69" d="M33.794 13.545h-.729l.092.455 4.099-.091 1.002-.545-3.826-.182z"/>
            <path fill="#E0D9D1" d="M41.081 16l-1.275 2.364 3.006-2.546-.729-.182z"/>
        </g>
        <g>
            <g transform="translate(32.792 8.182)">
                <mask id="p" fill="#fff">
                    <use xlink:href="#o"/>
                </mask>
                <path fill="#B5E8F7" d="M11.75 4.273c0-.091-.09-.091-.09-.091-.183 0-2.916-.09-5.284-.182-.82 0-4.828-.273-5.465-.273-.091 0-.182 0-.182.091 0 0 0 .091.09.091.638 0 4.646.273 5.193.273l-.911.455-6.65-.455c-.09 0-.182 0-.182.09v.092l7.925.545-1.64 1L-1.458 6c-.09 0-.182.091-.182.091 0 .091 0 .091.091.091l8.38-.09-.455.363-6.467.636c-.091 0-.182.091-.182.091 0 .09 0 .09.09.09L2.55 7 .273 9.182c-.09.09-.09.182 0 .182h.091c.091 0 .091 0 .182-.091L2.915 7l1.822-.182-1.822 1.819c-.091.09-.091.181 0 .181h.09c.092 0 .092 0 .183-.09l1.913-1.91 7.105-.636c.09 0 .182-.09.182-.09 0-.092-.091-.092-.182-.092l-2.915.273.82-1 1.457.09c.091 0 .091 0 .091-.09 0-.091 0-.091-.09-.091l-5.102-.273-1.184-.09 1.002-.455c3.461.09 5.283.182 5.374.182 0-.182.091-.182.091-.273zm-5.01 2.09L8.108 5l1.548.091-.82 1.091-2.094.182zM6.468 4.91L7.925 5l-.911.91H5.01l1.457-1z" mask="url(#p)"/>
            </g>
            <g transform="translate(32.792 8.182)">
                <mask id="r" fill="#fff">
                    <use xlink:href="#q"/>
                </mask>
                <path fill="#B5E8F7" d="M-2.641 13.727l7.287 3.91-6.832 8.272c-.182.182-.273.546-.182.727 0 .091.09.091.182.091.091 0 .182-.09.273-.181l7.014-8.637 3.006 1.637h.091l1.64.909h.09l1.731.909h.182l3.735-2h.091s.092 0 .092-.091l.09-.091 6.286-3.364c.09 0 .09-.09.09-.182 0-.09-.09-.181-.09-.272l-5.466-5.182c-.09-.091-.182-.091-.273-.091l-3.461 1.273-.638-.818 3.644-1.91 6.376 4.91c.091.09.182.09.273.09h4.281l6.377 14.637c.182.363.455.727.728.727h.091c.183 0 .183-.273.092-.545l-7.014-14.819v-.09l-2.186-4.728c0-.09-.183-.182-.274-.182-.09 0-.182.091-.182.182l.638 1.364-3.097-.91h-.183l-1.548.819-2.186-1.182 1.184-.727c.091-.091.091-.182 0-.182-.091-.09-.182-.09-.273 0l-1.367.818-.09.091c0 .091.09.091.09.091l2.278 1.182-.911.454-2.824-2.09 1.275-.637c.091 0 .091-.09 0-.182-.09-.09-.182-.09-.273-.09l-7.47 3.727s-.09 0-.09.09L5.01 17.092l-5.648-2.91 3.553-3.09 3.644-1.182c.09 0 .09-.09.182-.09l1.457-2.455c0-.091 0-.091-.091-.182-.091 0-.182 0-.182.09l-.456.819-2.732.727-2.369.637c-.09 0-.182.09-.182.181l-.82 1.637-.91.273L1.458 9c0-.09 0-.09-.092-.09-.09 0-.182.09-.273.181L-.09 11.818V12h.182l2.186-.727L-.91 14l-1.457-.727c-.091 0-.182 0-.365.09 0 .183 0 .273.092.364zm5.01-4l2.003-.545-.637 1.364-2.095.636.728-1.455zm1.821.637l.638-1.273 1.002-.273c-.182.273-.456.818-.638 1.273l-1.002.273zm2.369-.728l-.911.273c.182-.363.455-1 .637-1.273l1.093-.272-.82 1.272zM23.228 10l-2.733 1.91-1.093-.819 2.733-1.364 1.093.273zm-2.277 2.273l2.823-2.091 1.549.454 1.184 2.728h-4.19l-1.366-1.091zm-3.28-.364l-1.275.546h-.091l-4.554 1.909-2.915-1.182 1.184-1.364 1.913-.909.728 1c.092.091.183.091.274.091l3.552-1.273 1.184 1.182zm-2.004 6.637l-2.459-4.182 1.549-.637 2.823 3.91-1.913.909zm2.278-1.182l-2.915-3.818L16.396 13l3.097 3.546-1.548.818zm3.461-1.818l-1.366.727-3.188-3.546 1.184-.545 3.37 3.364zM10.566 20l1.913-1.636c.091-.091.182-.273.091-.455l-1.184-2.363.456-.637.82-.363 2.459 4.272-3.37 1.728L10.566 20zm-1.821-.909l2.277-3.09.91 2-2.003 1.726-1.184-.636zm-3.28-1.727l3.097-3.728 2.824 1.182-3.097 4-2.824-1.454z" mask="url(#r)"/>
            </g>
            <g transform="translate(32.792 8.182)">
                <mask id="t" fill="#fff">
                    <use xlink:href="#s"/>
                </mask>
                <path fill="#B5E8F7" d="M20.95 5.273l-3.46.909c-.092 0-.183 0-.183-.091s0-.091.091-.182l2.915-.727-2.277-.273-2.186.273-3.826.454c-.091 0-.182 0-.182-.09 0-.092.09-.092.182-.092L15.576 5l-1.275-1.091c-.091 0 0-.091 0-.091h.182l.911.727 2.095-.363-.91-.455c-.092 0-.092-.09 0-.09h.181l1.093.545L19.038 4l1.457-.091-1.73-.546c-.092 0-.092-.09-.092-.09s.091-.091.182 0l2.187.636 3.916-.273c.092 0 .183 0 .183.091s0 .091-.091.091l-5.921.455-3.462.636.274.182 2.095-.273h.09l2.824.364 4.737-1.091c.091 0 .182 0 .273.09.091.092 0 .092 0 .092l-4.008.909 2.278 1c.09 0 .182.09.09.181h-.272l-2.46-1.09h-.638z" mask="url(#t)"/>
            </g>
            <g transform="translate(32.792 8.182)">
                <mask id="v" fill="#fff">
                    <use xlink:href="#u"/>
                </mask>
                <path fill="#FFD178" d="M-1.366 9.363L9.2 6.727h.182l1.822.182.91-.818-.819-.637c-.091 0-.091-.09-.091-.181s.091-.091.091-.182l4.281-2.637c.091-.09.182-.09.274 0 .09.091.09.091-.092.182l-3.825 2.637.728.454 11.842.091c.182 0 .638.273.729.455.09.181.182.454 0 .454h-.091l-12.389-.454-.728.727 14.574 1.545c.273 0 .547.182.638.455.09.182.182.545 0 .545h-.183L11.386 7.636l-22.135 21c-.273.273-.546.365-.728.455-.182 0-.638-.273-.547-.545 0-.454-.09-1.183.456-1.637L10.657 7.454l-1.366-.181-11.113 3c-.273.09-.273-.182-.182-.364.091-.091.364-.546.638-.546" mask="url(#v)"/>
            </g>
            <g transform="translate(32.792 8.182)">
                <mask id="x" fill="#fff">
                    <use xlink:href="#w"/>
                </mask>
                <path fill="#B5E8F7" d="M.91 31.636c.092 0 .183 0 .274-.09l26.871-16.637a.276.276 0 0 0 0-.364c-.182-.09-.364-.182-.455-.09L.82 30.726c-.273.182-.273.364-.273.636 0 .273.182.365.364.273" mask="url(#x)"/>
            </g>
        </g>
        <g>
            <path fill="#B5E8F7" d="M55.109 21.91l1.275 3.545.456-.273-1.276-3.546z"/>
            <path fill="#E0D9D1" d="M41.992 36l16.214-1.272-.82-6.547-.182-1.909z"/>
        </g>
        <g>
            <g transform="translate(31.881 7.273)">
                <mask id="z" fill="#fff">
                    <use xlink:href="#y"/>
                </mask>
                <path fill="#D6D6D6" d="M5.92 5.91l1.276-.365 1.822.182 7.833.818-1.73.91 2.186 1.727 5.739 4.363 1.548 4.091-11.477 6.91c.09 0 .09.09.182.09.182.091.273.182.455.273l11.478-7.09-1.822-4.455-7.743-5.91 2.186-1.09L7.287 5.273l-1.457.363L5.1 6.818.273 8.091v.273L5.193 7l.728-1.09z" mask="url(#z)"/>
            </g>
            <g transform="translate(31.881 7.273)">
                <mask id="B" fill="#fff">
                    <use xlink:href="#A"/>
                </mask>
                <path fill="#000" d="M15.12 7.273L17.307 9l5.738 4.364 1.549 4.09-11.022 6.637c.182.09.455.182.638.364l11.022-6.819-1.822-4.454-7.742-5.91 2.185-1.09L7.287 5.09l-1.458.364-.728 1.181L.273 8v.182l4.92-1.364.727-1.09 1.276-.364 1.821.181 7.834.819-1.73.909z" mask="url(#B)"/>
            </g>
            <g transform="translate(31.881 7.273)">
                <mask id="D" fill="#fff">
                    <use xlink:href="#C"/>
                </mask>
                <path fill="#F27830" d="M16.396 17.09c.273 2.637-2.642 7-2.642 7s-3.734-3.545-4.007-6.181c-.274-2.636 1.093-4.182 2.914-4.455 1.822-.272 3.462.91 3.735 3.637" mask="url(#D)"/>
            </g>
            <g transform="translate(31.881 7.273)">
                <mask id="F" fill="#fff">
                    <use xlink:href="#E"/>
                </mask>
                <path fill="#B5E8F7" d="M15.576 16.91c.182 1.545-.819 3-2.277 3.181-1.367.182-2.641-1-2.824-2.545-.182-1.546.82-3 2.277-3.182 1.458-.182 2.733 1 2.824 2.545" mask="url(#F)"/>
            </g>
            <g transform="translate(31.881 7.273)">
                <mask id="H" fill="#fff">
                    <use xlink:href="#G"/>
                </mask>
                <path fill="#DEBDD9" d="M15.576 16.91h-.181v.272A2.93 2.93 0 0 1 14.757 19c-.365.455-.91.818-1.55.91h-.272a2.2 2.2 0 0 1-1.55-.637c-.455-.455-.727-1-.819-1.727v-.273c0-.727.273-1.364.638-1.818.365-.455.91-.819 1.548-.91h.273a2.2 2.2 0 0 1 1.549.637c.455.454.729 1 .82 1.727h.364c-.09-.818-.363-1.454-.91-1.909-.456-.454-1.094-.818-1.823-.818h-.273c-.728.09-1.275.454-1.73 1a3.173 3.173 0 0 0-.73 2v.364c.092.818.366 1.454.912 1.909.455.454 1.093.818 1.821.818h.274c.728-.091 1.275-.455 1.73-1a3.173 3.173 0 0 0 .73-2v-.364h-.183z" mask="url(#H)"/>
            </g>
            <g transform="translate(31.881 7.273)">
                <mask id="J" fill="#fff">
                    <use xlink:href="#I"/>
                </mask>
                <path fill="#EDEDE8" d="M8.29 20l.09.818.911.455c.091-.182.182-.364.365-.546l-.547-.272h-.091L8.289 20zm1.912-.727L9.656 20l.182.09c.09-.18.182-.454.364-.635v-.182zm-.729-4.728l-1.548 1.91.273 2.727 1.002.545.729-1c-.091-.272-.182-.545-.182-.818-.091-1.273.09-2.273.546-3l-.82-.364zm.456-1.909l-2.186 2.546.09.636 2.37-2.909c0-.09-.183-.182-.274-.273zm-1.275-.727l-1.094 1v.455L8.927 12c-.091 0-.182-.09-.273-.09z" mask="url(#J)"/>
            </g>
            <g transform="translate(31.881 7.273)">
                <mask id="L" fill="#fff">
                    <use xlink:href="#K"/>
                </mask>
                <path fill="#C2E8DB" d="M9.018 12L7.65 13.364l.183 1.818 2.186-2.545A6.128 6.128 0 0 0 9.018 12" mask="url(#L)"/>
            </g>
            <g transform="translate(31.881 7.273)">
                <mask id="N" fill="#fff">
                    <use xlink:href="#M"/>
                </mask>
                <path fill="#C7A88A" d="M8.38 20.818l.183 1.636s.273-.454.728-1.181l-.91-.455z" mask="url(#N)"/>
            </g>
            <g transform="translate(31.881 7.273)">
                <mask id="P" fill="#fff">
                    <use xlink:href="#O"/>
                </mask>
                <path fill="#DED9D4" d="M10.475 13.273l-.728.818.91.364.274-.273c-.091-.364-.274-.636-.456-.91" mask="url(#P)"/>
            </g>
            <g transform="translate(31.881 7.273)">
                <mask id="R" fill="#fff">
                    <use xlink:href="#Q"/>
                </mask>
                <path fill="#BDEDFA" d="M9.929 18.727l-.73 1-1.001-.545.091.818.82.455h.09l.456.272c.091-.181.183-.454.365-.636l-.365-.09.456-.637c0-.273-.091-.455-.182-.637m.364-5.818l-2.368 2.91.09.636 1.55-1.91.91.364c.091-.182.182-.273.273-.363l-.91-.364.728-.818c-.182-.182-.273-.364-.273-.455" mask="url(#R)"/>
            </g>
            <g transform="translate(31.881 7.273)">
                <mask id="T" fill="#fff">
                    <use xlink:href="#S"/>
                </mask>
                <path fill="#FFDB94" d="M7.925 11.818h-.456l.092 1.091 1.002-1c-.183-.09-.456-.09-.638-.09" mask="url(#T)"/>
            </g>
            <g transform="translate(31.881 7.273)">
                <mask id="V" fill="#fff">
                    <use xlink:href="#U"/>
                </mask>
                <path fill="#F28F3B" d="M10.93 14.182l-.273.273c-.09.09-.182.272-.273.363-.455.728-.729 1.728-.546 3 0 .273.09.546.182.818.09.182.182.364.182.546v.09c.091-.272.273-.545.364-.908-.09-.273-.182-.637-.273-1V17c0-.727.273-1.454.729-2 0-.09.09-.09.09-.09 0-.183-.09-.455-.181-.728" mask="url(#V)"/>
            </g>
            <g transform="translate(31.881 7.273)">
                <mask id="X" fill="#fff">
                    <use xlink:href="#W"/>
                </mask>
                <path fill="#BDEDFA" d="M11.204 15.546c-.365.454-.547 1.09-.547 1.636v.273c0 .181 0 .363.091.454.274-.727.456-1.636.456-2.363" mask="url(#X)"/>
            </g>
            <g transform="translate(31.881 7.273)">
                <mask id="Z" fill="#fff">
                    <use xlink:href="#Y"/>
                </mask>
                <path fill="#E0C9E0" d="M11.113 15.091l-.091.09a3.173 3.173 0 0 0-.729 2v.365c0 .363.091.636.274 1 .09-.182.09-.364.182-.546 0-.182-.091-.273-.091-.454v-.273c0-.637.182-1.182.546-1.637v-.09c0-.182-.09-.364-.09-.455" mask="url(#Z)"/>
            </g>
        </g>
        <g>
            <path fill="#704F47" d="M55.474 13.09a2.518 2.518 0 0 1 0-1.636c1.73.182 7.287 1.091 5.738 4.091-1.366 2.364-5.283-.727-5.738-2.454M56.02 19.273a2.518 2.518 0 0 1 0-1.636c1.73.181 7.287 1.09 5.738 4.09-1.275 2.455-5.283-.636-5.738-2.454"/>
            <path fill="#66403D" d="M58.115 12.636c-.638 1.182-1.913-.272-2.369-.909-.182-.273-.546 0-.364.273.455.545.91 1.09 1.549 1.364.273.181.637.181.91.09.366-.09.547-.363.73-.727.181-.182-.274-.363-.456-.09M58.388 19.182c-.547.636-1.548-.273-2.003-.636-.182-.182-.548.09-.366.272.639.637 1.913 1.546 2.733.637.183-.182-.182-.546-.364-.273"/>
            <path fill="#704F47" d="M34.432 14.273c-.73 2-2.278 3.636-3.735 5.182-1.184 1.182-3.006 2.182-3.826 3.545-.364 3.364-1.913 6.455-4.008 9.182-.182.364-.273.818-.273 1.273v.272c.091 3.455 0 8.728.182 12.182 2.55 1.364 2.733 1.454 4.919 2.818.273-.181.455-1.909.729-2.09.91-.638 1.64-1.455 2.55-2.091.547-.365 1.366-.546 1.822-1.091 1.184-1.364.364-4.182.273-5.818-.09-2.637.273-5.364 0-8-.273-2 0-3.546 1.184-5.364.091-.182.274-.273.456-.455.182-.181.455-.363.546-.545.729-.818 1.093-1.91 1.276-3 .364-1.91.09-5.273-2.095-6"/>
            <path fill="#66403D" d="M35.16 17.182c-.182.545-.546 1-1.093 1.182-.546.181-1.093-.091-1.457-.455-.182-.273-.547.09-.364.273a1.89 1.89 0 0 0 1.913.636c.82-.182 1.366-.818 1.548-1.636 0-.273-.547-.364-.547 0"/>
            <path fill="#704F47" d="M74.54 80H91.544c.026-1.803.09-.61 0-2.337V73.99c-1.95-4.908-2.006-8.808-3.37-13.264-1.185-3.454-2.46-7.182-4.282-10.272-.546-1-1.184-1.364-2.277-1.546-.82-.09-1.366.091-2.004-.454-.455-.364-1.002-1-1.457-1.364-1.185-.818-2.369.182-3.644.454-1.457.273-1.913-1.09-3.461-1-1.731.182-2.915 1.637-4.828 1.273-1.73-.363-2.824-1.818-3.917-3.09-1.184-1.364-3.37-4.728-4.554-6-.274-.364-2.55-4.455-2.642-4.455-2.642.727-2.277 4.818-2.004 6.636.455 3.091 2.642 6 4.19 8.546 2.004 3.181 5.648 7.818 5.739 11.727.09 4.909-5.283.363-7.378.363-2.278 0-5.74 0-5.921 3.455 1.822.364 3.643.455 5.01 1.91 2.368 2.454 4.645 5.09 7.742 6.726 2.369 1.273 5.101 1.91 7.287 3.546 2.642 1.909 3.024-.091 4.299 2.818.09 0 .375-.09.466 0"/>
            <path fill="#66403D" d="M55.564 38c-.546.363-1.275-.182-1.457-.727-.091-.273-.547-.182-.456.09.274.819 1.276 1.638 2.187 1 .273-.181 0-.545-.274-.363M53.014 64.727c0-.727-1.003-.818-1.548-.546-.366.183-.547-.272-.183-.454.911-.455 2.278-.181 2.278.909 0 .273-.547.364-.547.091"/>
        </g>
    </g>
</svg>
