<svg xmlns="http://www.w3.org/2000/svg" xmlns:xlink="http://www.w3.org/1999/xlink" width="101" height="104" viewBox="0 0 101 104">
    <defs>
        <path id="a" d="M.03.435h57.987v51.522H.03z"/>
    </defs>
    <g fill="none" fill-rule="evenodd">
        <g transform="translate(36.364 26.667)">
            <mask id="b" fill="#fff">
                <use xlink:href="#a"/>
            </mask>
            <path fill="#62342D" d="M55.527 18.728c-2.316-.999-5.638-1.061-7.576-2.697C42.213 11.177 36.707 6.05 31.918.435a767.22 767.22 0 0 1-4.046 5.449c-1.615 2.146-3.418 4.162-5.056 6.29-.944 1.23-.804 2.814-1.834 4.049-1.221 1.47-3.1 2.19-4.207 3.737-.859 1.201-1.91 2.69-2.157 4.142-.213 1.26-.396 2.495-.976 3.665-1.371 2.773-2.535 5.46-5.125 7.385-1.907 1.421-3.27 3.547-4.776 5.359-2.114 2.539-5.343 5.052-2.743 7.796 3.902 4.119 9.322 8.245 14.295 10.999 3.568 1.972 7.575 2.607 10.043-1.098 2.104-3.155 2.71-6.769 5.956-9.16 2.919-2.151 6.815-2.356 9.697-4.396 4.109-2.907 7.671-7.34 10.709-11.322 2.698-3.544 5.974-7.491 6.315-12.138.09-1.263-1.402-1.995-2.486-2.464" mask="url(#b)"/>
        </g>
        <path fill="#62342D" d="M99.224 40.054c.612.134 1.211.44 1.769.965.255.242-6.374 9.09-8.559 6.811-2.77-2.891 3.78-8.435 6.79-7.776"/>
        <path fill="#62342D" d="M94.477 31.187c-.812.464-3.312 1.731-4.223 1.079-1.254-.898 2.841-3.246 3.594-3.801 1.232-.908 2.63-1.718 3.802-2.708.742-.63 1.67-1.588 1.144-2.628-.548-1.088-1.83-.334-2.648.03-4.03 1.783-7.817 4.102-11.612 6.315-2.024 1.183-4.131 2.312-6.187 3.429-1.418.772-2.878 2.042-4.46 1.463-1.16-.426-2.387-2.052-3.458-.507-.622.89-.998 2.065-1.317 3.258-.282 1.058-.52 2.13-.84 3.033-.533 1.492-.528 3.06-.51 4.622.024 1.734-1.645 6.993-1.645 6.993.444 2.562.029 4.787 2.938 5.43 2.468.542 5.456.145 7.733-.941 1.33-.638 1.664-1.576 3.21-1.076 1.261.403 2.322 1.527 3.732 1.458 1.152-.059 2.155-1.662 2.87-2.442 1.695-1.843 3.333-3.684 4.696-5.784.844-1.295 1.768-2.488 2.311-3.946.489-1.316 1.314-2.644 1.594-4.051.31-1.563-.792-2.845-.549-4.308.259-1.553 1.956-2.397 2.183-4.069.074-.528.087-1.218-.46-1.54-.707-.415-1.279.337-1.898.691M96.45 15.916c-.5.446-.949.903-1.311 1.32-.882.998-1.476 3.028-3.102 3.262-1.725.247-2.166-2.641-2.298-3.734-.314-2.57 2.45-4.05 4.727-4.991 2.51-1.038 4.602-.447 5.508 1.938-1.184.365-2.466 1.263-3.524 2.205"/>
        <path fill="#62342D" d="M95.684 31.102l-.84 1.16c-.01.281.245 3.696.47 3.635 1.899-.519 4.073-2.58 3.557-4.665-.228-.928-1.616-3.311-2.85-2.245-.61.527.067 1.55-.337 2.115"/>
        <path fill="#8F8F8F" d="M93.228 3.5c-1.808-1.367-3.98-1.3-6.472-1.296-2.546.006-5.893-.04-8.436-.079-2.464-.035-5.075-.086-7.536-.07-2.19.012-5.895-.06-7.765 1.205-1.668 1.129-2.523 3.662-2.8 5.6-.557 3.92-.046 7.89-.004 11.828.051 4.85-.034 9.347-.098 14.2-.047 3.607-.047 8.365.085 11.974.11 3.054-.104 5.335.038 8.388.101 2.205-.464 5.009 1.658 6.684 1.328 1.047 3.45 1.427 5.07 1.56 2.564.21 5.141 0 7.71.058 3.001.069 5.987-.069 8.977-.263 2.629-.168 5.844.439 8.318-.456 2.81-1.02 3.602-3.757 3.69-6.843.336-11.745-.305-23.582.176-35.25.131-3.22-.184-6.587-.341-9.86-.134-2.734.24-5.484-2.27-7.38"/>
        <path fill="#595959" d="M68.153 2.017c-.343-.23-.933-.446-2.004-.304-.411.055-.8.218-1.054.421 0 .332-.058.745.28 1 .267.2 1.006.336 1.349.326.416-.009.736-.07 1.094-.261.522-.28.295-.751.335-1.182"/>
        <path fill="#242B37" d="M66.349 1.047c-.662.098-1.21.723-.259.954 1.207.289 1.869-.422 1.478-.788-.179-.166-.57-.262-1.219-.166"/>
        <path fill="#8F8F8F" d="M67.93.985l-.242.227-.241.228c.012.01.015.015.015.018v-.003h.007l-.005.003h-.002s0 .016-.02.04a.374.374 0 0 1-.087.08.865.865 0 0 1-.274.12 1.677 1.677 0 0 1-.446.056c-.157 0-.336-.019-.53-.059l-.003-.003L66.02 2l.074-.308h.005a1.181 1.181 0 0 1-.201-.055c-.04-.015-.065-.03-.085-.04l-.015.021v.004l-.012-.004.012.004-.03-.007.03.003-.06-.009h-.022l.032-.009.04-.025.025.022.032-.034a.827.827 0 0 1 .212-.126c.092-.037.2-.068.306-.08.187-.025.349-.037.486-.037.184 0 .326.022.423.046a.51.51 0 0 1 .175.074l.241-.228.242-.227a1.18 1.18 0 0 0-.458-.219 2.487 2.487 0 0 0-.623-.07c-.177 0-.371.015-.588.04a2.354 2.354 0 0 0-.408.098c-.194.07-.364.163-.503.283a.826.826 0 0 0-.177.212.552.552 0 0 0-.082.28c0 .086.025.179.072.259a.617.617 0 0 0 .135.157c.08.07.174.123.279.169.107.046.226.08.36.108v.003L66.02 2l-.075.305c.244.052.476.077.69.077.426-.004.787-.096 1.058-.25.135-.077.25-.172.336-.286a.647.647 0 0 0 .14-.39.58.58 0 0 0-.062-.256.71.71 0 0 0-.177-.215"/>
        <path fill="#000" d="M88.528 3.196c-5.182.002-19.063-.122-23.205-.119-5.482.003-5.274 6.815-5.344 8.695-.026.685-.018 18.755-.01 31.862l.01 13.433c-.023 5.593 2.794 6.525 6.48 6.523l19.84-.01c8.29 0 8.264-2.305 8.261-7.33-.002-1.616.053-10.322.107-19.567.055-9.303.107-19.155.107-22.896 0-.504.018-1.012.037-1.519.133-3.56.182-9.075-6.283-9.072"/>
        <path fill="#8F8F8F" d="M82.398 4.859c-1.172.021-1.758.104-2.63.067-.85-.03-3.212-.003-5.027.016-.419.006-4.608-.403-3.21 1.154.401.446 1.388.252 1.89.283 1.248.08 2.957.027 4.471.034 1.668.009 2.58.006 4.56 0 1.67-.007 1.282-1.579-.054-1.554"/>
        <path fill="#000" d="M67.836 55.602c-1.72.166-3.144.107-4.836-.457l-1.519-.786c-1.004 2.124-.423 5.212 1.25 6.926 1.41 1.445 3.977 1.374 5.878 1.167 2.135-.232 4.381-.306 4.691-2.42.199-1.333 1.075-3 1.022-4.352-.007-.183-5.917-.132-6.486-.078"/>
        <path fill="#FFF" d="M92.647 52.922c.008-2.132.013-4.265.018-6.395.013-3.646.023-7.295.033-10.944h-.005c.005-1.455.007-2.912.01-4.37.005-2.377.081-14.76.087-17.137.002-1.236-.006-1.475.002-2.714.02-3.401-1.98-3.758-4.072-3.791-2.493-.043-3.626-.069-6.12-.112-3.651-.064-7.3-.128-10.952-.189-1.698-.025-3.14-.06-4.838-.089-1.483-.02-4.486.11-4.504 2.933l-.12 18.885c-.015 2.026-.03 4.05-.043 6.075h-.002l-.092 13.017c-.008 1.19-.013 2.232-.028 3.738-.013 1.27-.341 4.161 4.947 4.248 2.11.035 19.775.29 21.518.33 4.128.098 4.158-2.771 4.161-3.485"/>
        <path fill="#EEE0D6" d="M86.117 24.106l.056.003c-.031-.003-.065-.006-.099-.013.016.007.028.01.043.01"/>
        <path fill="#9FA8BE" d="M74.843 52.811l-.01.018.01-.018"/>
        <path fill="#2B3445" d="M63.521 32.274c.022.021.04.046.062.068-.022-.022-.04-.047-.062-.068z"/>
        <path fill="#2B3445" d="M63.553 32.317v-.019l-.003.019h.003zM72.775 26.166l.021-.024h-.003zM69.71 32.317v-.019l-.004.019zM77.908 28.197l.015.016zM86.125 30.774c0-.004 0-.008.003-.01l-.01.01h.007zM92.28 32.315l.002-.015-.006.015h.003z"/>
        <path fill="#D6D6D6" d="M87.579 30.817c-.851-.074-22.166-.058-22.81.021-.176.022-.391.05-.528.219-.142.172-.176.55-.176.792 0 .317.008.629.003.945-.006.186.013.358.092.517.152.3.436.407.685.456.074.014.163.022.26.027.15.009.313.011.439.02.475.019 20.698.043 21.48.027.4-.008.815-.041 1.206-.172.145-.047.247-.085.329-.26.097-.216.1-.486.115-.737.03-.479.053-1.465-.36-1.692-.225-.125-.496-.142-.735-.163M82.47 35.945c-.836-.074-17.083-.058-17.712.022-.172.021-.384.049-.52.218-.137.172-.173.55-.173.792 0 .317.008.629.003.946-.003.185.012.358.09.516.15.3.43.407.673.456.072.014.162.022.257.028.145.008.304.01.428.019.467.019 15.644.043 16.41.027.394-.008.799-.041 1.183-.172.142-.047.242-.085.322-.26.095-.215.098-.486.113-.737.029-.478.055-1.465-.353-1.691-.221-.126-.484-.142-.722-.164M77.375 40.047c-.812-.073-12.029-.057-12.64.022-.166.022-.37.05-.503.219-.132.172-.167.546-.167.792 0 .317.007.626.002.945-.005.186.013.355.088.517.145.3.414.407.652.453.07.016.155.025.247.03.142.008.297.011.417.02.452.018 10.633.043 11.374.027.382-.009.775-.041 1.147-.173.137-.049.235-.084.312-.262.095-.213.095-.483.11-.735.03-.478.052-1.464-.34-1.69-.217-.126-.472-.143-.7-.165M73.225 44.15c-.846-.074-7.824-.057-8.46.022-.174.022-.388.049-.526.218-.138.172-.174.547-.174.793 0 .316.008.628.003.948-.003.183.013.352.093.513.149.3.433.407.677.456.073.014.164.022.26.028.15.01.31.013.433.019.474.019 6.369.044 7.145.027.395-.008.804-.04 1.192-.172.146-.05.248-.085.326-.262.099-.213.101-.484.117-.735.028-.478.052-1.464-.357-1.691-.224-.126-.492-.142-.729-.164"/>
        <path fill="#62342D" d="M63.7 17.436c-1.275 2.654-3.565 4.566-5.817 6.381-1.71 1.378-4.31 2.484-5.74 4.195-.978 4.475-3.6 8.497-6.794 11.784a5.017 5.017 0 0 0-.528 1.662l-.039.352c-.48 4.885-1.159 9.85-1.417 14.76-.163 3.14-.53 6.771-2.897 9.071 2.89-2.807 6.778-3.52 10.146-5.462 1.292-.748 2.395-1.74 3.763-2.367.83-.383 1.959-.53 2.648-1.18 1.754-1.66 1.182-5.626 1.346-7.835.265-3.581 1.274-7.261 1.268-10.848-.002-2.818.524-4.825 2.4-7.114.169-.204.422-.375.69-.541.306-.19.633-.373.87-.596 1.047-.973 1.795-2.432 2.143-3.853.61-2.479.804-7.101-2.043-8.41M90.782 20.65a3.892 3.892 0 0 1 .304-2.188c2.428.491 9.975 2.572 7.294 6.19-2.24 3.02-7.262-1.621-7.598-4.002M90.783 28.855a3.892 3.892 0 0 1 .302-2.188c2.428.491 9.977 2.575 7.295 6.19-2.238 3.021-7.261-1.622-7.597-4.002"/>
        <path fill="#714E46" d="M64.417 21.927c-.315.905-.953 1.579-1.798 1.763-.794.173-1.583-.301-2.019-1.049-.242-.41-.823-.025-.581.388.584 1 1.561 1.587 2.62 1.427 1.157-.169 2.007-1.12 2.427-2.326.159-.458-.49-.655-.649-.203M94.26 20.329c-1.007 1.552-2.446-.767-2.95-1.706-.198-.372-.725-.034-.525.338.452.84 1.01 1.673 1.754 2.225.34.252.758.405 1.169.336.471-.08.81-.445 1.08-.856.23-.35-.3-.686-.528-.337M94.237 29.503c-.895.92-2.304-.677-2.822-1.419-.27-.388-.879-.006-.606.388.82 1.175 2.597 2.935 3.927 1.572.33-.338-.169-.88-.499-.541"/>
        <path fill="#D6D6D6" d="M81.6 59.074c-.785-.213-1.8-.237-2.508-.299-.646-.052-2.447-.006-3.83.025-.58.012-4.078-.194-2.649 1.794.34.474 1.197.52 1.642.581.952.13 2.256.046 3.408.056 1.27.012 1.969.006 3.474-.003 1.278-.007 2.147-1.702.463-2.154"/>
        <path fill="#FF7900" d="M41.657 57.596c-2.175-.382-4.749 2.75-5.881 3.803C34.188 62.883 22.262 77.083 0 104h55.344L69.43 79.125C53.097 65.154 43.84 57.978 41.657 57.596z"/>
        <g fill="#87B2D3">
            <path d="M30.8 67.957c-.492.466-.878 1.013-1.37 1.48-.773.73.437 1.85 1.21 1.121.492-.466.881-1.016 1.373-1.482.77-.728-.44-1.853-1.213-1.12M35.695 63.952c-.406.41-.803.828-1.068 1.345-.215.422-.114.942.314 1.194.391.228.979.108 1.194-.314a3.27 3.27 0 0 1 .231-.388l.006-.012.007-.006c.169-.206.363-.394.55-.582a.88.88 0 0 0 0-1.237.889.889 0 0 0-1.234 0M39.979 59.83c-.271.141-.514.348-.714.581-.087.105-.17.213-.25.32.043-.061-.101.12-.144.167a.882.882 0 0 0 0 1.233c.332.333.904.342 1.237 0 .055-.058.105-.12.157-.184l.166-.216a.216.216 0 0 1-.025.031c.022-.024.04-.052.062-.074.068-.083.139-.157.212-.23.01-.013.028-.025.043-.04.047-.028.09-.056.139-.08.419-.222.545-.8.314-1.194-.25-.425-.776-.536-1.197-.314M33.744 74.036c-.403-.216-.979-.068-1.182.36-.05.108-.108.212-.17.31l-.015.02c-.049.06-.101.12-.154.178-.033.04-.07.076-.107.11l-.105.093a2.284 2.284 0 0 1-.265.172c-.412.237-.514.821-.267 1.21.267.415.794.5 1.21.264.6-.345 1.12-.911 1.415-1.536.206-.43.074-.95-.36-1.181M15.51 90.164c-.403-.215-.979-.068-1.182.36-.049.108-.107.212-.17.31l-.014.02c-.05.06-.102.12-.154.178-.034.04-.071.077-.108.11l-.105.093a2.284 2.284 0 0 1-.264.172c-.413.237-.514.822-.268 1.21.268.415.794.5 1.21.264.6-.345 1.12-.91 1.415-1.535.206-.431.074-.951-.36-1.182M36.964 69.87a.942.942 0 0 0-1.168.268c-.426.548-.936 1.039-1.363 1.587-.26.336-.075.824.306 1.02a.94.94 0 0 0 1.165-.267c.43-.548.937-1.039 1.366-1.59.258-.336.072-.824-.306-1.018M20.652 84.101a.942.942 0 0 0-1.168.268c-.426.548-.936 1.039-1.362 1.587-.262.336-.075.824.306 1.02a.94.94 0 0 0 1.164-.267c.43-.548.937-1.04 1.366-1.59.258-.336.072-.824-.306-1.018M35.652 83.101a.942.942 0 0 0-1.168.268c-.426.548-.936 1.039-1.362 1.587-.262.336-.075.824.306 1.02a.94.94 0 0 0 1.164-.267c.43-.548.937-1.04 1.366-1.59.258-.336.072-.824-.306-1.018M30.652 79.101a.942.942 0 0 0-1.168.268c-.426.548-.936 1.039-1.362 1.587-.262.336-.075.824.306 1.02a.94.94 0 0 0 1.164-.267c.43-.548.937-1.04 1.366-1.59.258-.336.072-.824-.306-1.018M18.652 97.101a.942.942 0 0 0-1.168.268c-.426.548-.936 1.039-1.362 1.587-.262.336-.075.824.306 1.02a.94.94 0 0 0 1.164-.267c.43-.548.937-1.04 1.366-1.59.258-.336.072-.824-.306-1.018M29.652 86.101a.942.942 0 0 0-1.168.268c-.426.548-.936 1.039-1.362 1.587-.262.336-.075.824.306 1.02a.94.94 0 0 0 1.164-.267c.43-.548.937-1.04 1.366-1.59.258-.336.072-.824-.306-1.018M49.652 100.101a.942.942 0 0 0-1.168.268c-.426.548-.936 1.039-1.362 1.587-.262.336-.075.824.306 1.02a.94.94 0 0 0 1.164-.267c.43-.548.937-1.04 1.366-1.59.258-.336.072-.824-.306-1.018M42.652 80.101a.942.942 0 0 0-1.168.268c-.426.548-.936 1.039-1.362 1.587-.262.336-.075.824.306 1.02a.94.94 0 0 0 1.164-.267c.43-.548.937-1.04 1.366-1.59.258-.336.072-.824-.306-1.018M59.652 80.101a.942.942 0 0 0-1.168.268c-.426.548-.936 1.039-1.362 1.587-.262.336-.075.824.306 1.02a.94.94 0 0 0 1.164-.267c.43-.548.937-1.04 1.366-1.59.258-.336.072-.824-.306-1.018M55.652 78.101a.942.942 0 0 0-1.168.268c-.426.548-.936 1.039-1.362 1.587-.262.336-.075.824.306 1.02a.94.94 0 0 0 1.164-.267c.43-.548.937-1.04 1.366-1.59.258-.336.072-.824-.306-1.018M25.652 78.101a.942.942 0 0 0-1.168.268c-.426.548-.936 1.039-1.362 1.587-.262.336-.075.824.306 1.02a.94.94 0 0 0 1.164-.267c.43-.548.937-1.04 1.366-1.59.258-.336.072-.824-.306-1.018M39.276 67.01a.845.845 0 0 0-.788.527c-.028.021-.052.046-.08.064-.154.114-.311.231-.45.363-.341.33-.332.905 0 1.234a.884.884 0 0 0 1.238 0 1.19 1.19 0 0 1 .114-.098c.15-.111.298-.225.437-.351.25-.234.378-.526.403-.868.03-.474-.425-.87-.874-.87M42.356 63.138c-.256.012-.403.064-.634.163a2.83 2.83 0 0 0-.17.077l-.052.015-.024.003-.013.003h.006c-.387.096-.686.419-.686.843 0 .459.397.899.874.877.256-.015.403-.067.634-.166.059-.025.114-.052.17-.08.018-.006.036-.006.055-.01l.021-.005.013-.003-.006.003c.387-.099.686-.419.686-.85 0-.452-.397-.898-.874-.87M39.159 74.19c-.431 0-.751.3-.847.688l.003-.006-.009.025c-.074.086-.15.166-.23.249a.882.882 0 0 0 0 1.234.883.883 0 0 0 1.233 0c.376-.376.693-.763.724-1.317.024-.474-.419-.874-.874-.874M45.084 67.922c-.397-.231-.975-.108-1.194.317a2.682 2.682 0 0 1-.185.298l-.015.019c-.05.061-.105.117-.16.175l-.114.108c-.01.009-.077.058-.108.086a2.431 2.431 0 0 1-.27.163c-.422.218-.545.8-.315 1.197.25.421.773.53 1.198.31a3.596 3.596 0 0 0 1.477-1.476c.219-.422.111-.948-.314-1.197M38.565 89.204c-.397-.231-.976-.108-1.194.317a2.682 2.682 0 0 1-.185.298l-.016.019c-.049.061-.104.117-.16.175l-.113.108c-.01.009-.077.058-.108.086a2.431 2.431 0 0 1-.271.163c-.422.218-.545.8-.314 1.197.25.421.773.53 1.197.31a3.596 3.596 0 0 0 1.478-1.476c.218-.422.11-.948-.314-1.197M34.565 100.204c-.397-.231-.976-.108-1.194.317a2.682 2.682 0 0 1-.185.298l-.016.019c-.049.061-.104.117-.16.175l-.113.108c-.01.009-.077.058-.108.086a2.431 2.431 0 0 1-.271.163c-.422.218-.545.8-.314 1.197.25.421.773.53 1.197.31a3.596 3.596 0 0 0 1.478-1.476c.218-.422.11-.948-.314-1.197M43.79 74.443l-.7.698a.886.886 0 0 0 0 1.237.887.887 0 0 0 1.238 0l.698-.702a.882.882 0 0 0 0-1.233.887.887 0 0 0-1.237 0M39.27 97.57l-.699.7a.886.886 0 0 0 0 1.236.887.887 0 0 0 1.237 0l.699-.701a.882.882 0 0 0 0-1.234.887.887 0 0 0-1.237 0M46.867 71.367l-.698.699a.882.882 0 0 0 0 1.233.883.883 0 0 0 1.234 0l.699-.698a.876.876 0 0 0 0-1.234.883.883 0 0 0-1.235 0M25.27 82.572l-.699.699a.882.882 0 0 0 0 1.234.883.883 0 0 0 1.235 0l.698-.699a.876.876 0 0 0 0-1.234.883.883 0 0 0-1.234 0M33.27 79.572l-.699.699a.882.882 0 0 0 0 1.234.883.883 0 0 0 1.235 0l.698-.699a.876.876 0 0 0 0-1.234.883.883 0 0 0-1.234 0M27.27 93.572l-.699.699a.882.882 0 0 0 0 1.234.883.883 0 0 0 1.235 0l.698-.699a.876.876 0 0 0 0-1.234.883.883 0 0 0-1.234 0M51.357 67.124a.88.88 0 0 0-.862.739.846.846 0 0 0-.246.6c0 .461.4.892.874.874.382-.016.773-.194.948-.551.123-.252.16-.51.16-.79a.88.88 0 0 0-.874-.872M47.136 64.28c-1.126 0-1.126 1.748 0 1.748 1.127 0 1.127-1.748 0-1.748M38.539 85.665c-1.127 0-1.127 1.747 0 1.747 1.126 0 1.126-1.747 0-1.747M27.539 73.665c-1.127 0-1.127 1.747 0 1.747 1.126 0 1.126-1.747 0-1.747M53.173 74.074c-.397-.234-.97-.105-1.195.314-.021.04-.043.083-.07.123l-.016.021-.009.016c-.09.101-.188.197-.283.292a3.16 3.16 0 0 0-.554.71c-.225.422-.108.949.314 1.198.4.23.972.104 1.194-.314a.77.77 0 0 1 .07-.12l.016-.028.013-.015c.086-.102.184-.197.28-.292.212-.21.412-.443.554-.708.224-.422.107-.95-.314-1.197M23.445 89.202c-.397-.234-.97-.104-1.194.314-.021.04-.043.083-.07.123l-.016.022-.01.015c-.089.102-.187.197-.282.292a3.16 3.16 0 0 0-.554.711c-.225.422-.108.948.314 1.197.4.23.972.105 1.194-.314a.77.77 0 0 1 .07-.12l.016-.027.012-.016c.086-.101.185-.197.28-.292.213-.21.413-.443.554-.708.225-.421.108-.95-.314-1.197M23.445 94.202c-.397-.234-.97-.104-1.194.314-.021.04-.043.083-.07.123l-.016.022-.01.015c-.089.102-.187.197-.282.292a3.16 3.16 0 0 0-.554.711c-.225.422-.108.948.314 1.197.4.23.972.105 1.194-.314a.77.77 0 0 1 .07-.12l.016-.027.012-.016c.086-.101.185-.197.28-.292.213-.21.413-.443.554-.708.225-.421.108-.95-.314-1.197M61.445 84.202c-.397-.234-.97-.104-1.194.314-.021.04-.043.083-.07.123l-.016.022-.01.015c-.089.102-.187.197-.282.292a3.16 3.16 0 0 0-.554.711c-.225.422-.108.948.314 1.197.4.23.972.105 1.194-.314a.77.77 0 0 1 .07-.12l.016-.027.012-.016c.086-.101.185-.197.28-.292.213-.21.413-.443.554-.708.225-.421.108-.95-.314-1.197M56.445 94.202c-.397-.234-.97-.104-1.194.314-.021.04-.043.083-.07.123l-.016.022-.01.015c-.089.102-.187.197-.282.292a3.16 3.16 0 0 0-.554.711c-.225.422-.108.948.314 1.197.4.23.972.105 1.194-.314a.77.77 0 0 1 .07-.12l.016-.027.012-.016c.086-.101.185-.197.28-.292.213-.21.413-.443.554-.708.225-.421.108-.95-.314-1.197M47.445 79.202c-.397-.234-.97-.104-1.194.314-.021.04-.043.083-.07.123l-.016.022-.01.015c-.089.102-.187.197-.282.292a3.16 3.16 0 0 0-.554.711c-.225.422-.108.948.314 1.197.4.23.972.105 1.194-.314a.77.77 0 0 1 .07-.12l.016-.027.012-.016c.086-.101.185-.197.28-.292.213-.21.413-.443.554-.708.225-.421.108-.95-.314-1.197M47.445 96.202c-.397-.234-.97-.104-1.194.314-.021.04-.043.083-.07.123l-.016.022-.01.015c-.089.102-.187.197-.282.292a3.16 3.16 0 0 0-.554.711c-.225.422-.108.948.314 1.197.4.23.972.105 1.194-.314a.77.77 0 0 1 .07-.12l.016-.027.012-.016c.086-.101.185-.197.28-.292.213-.21.413-.443.554-.708.225-.421.108-.95-.314-1.197M11.445 97.202c-.397-.234-.97-.104-1.194.314-.021.04-.043.083-.07.123l-.016.022-.01.015c-.089.102-.187.197-.282.292a3.16 3.16 0 0 0-.554.711c-.225.422-.108.948.314 1.197.4.23.972.105 1.194-.314a.77.77 0 0 1 .07-.12l.016-.027.012-.016c.086-.101.185-.197.28-.292.213-.21.413-.443.554-.708.225-.421.108-.95-.314-1.197M51.445 81.202c-.397-.234-.97-.104-1.194.314-.021.04-.043.083-.07.123l-.016.022-.01.015c-.089.102-.187.197-.282.292a3.16 3.16 0 0 0-.554.711c-.225.422-.108.948.314 1.197.4.23.972.105 1.194-.314a.77.77 0 0 1 .07-.12l.016-.027.012-.016c.086-.101.185-.197.28-.292.213-.21.413-.443.554-.708.225-.421.108-.95-.314-1.197M44.445 91.202c-.397-.234-.97-.104-1.194.314-.021.04-.043.083-.07.123l-.016.022-.01.015c-.089.102-.187.197-.282.292a3.16 3.16 0 0 0-.554.711c-.225.422-.108.948.314 1.197.4.23.972.105 1.194-.314a.77.77 0 0 1 .07-.12l.016-.027.012-.016c.086-.101.185-.197.28-.292.213-.21.413-.443.554-.708.225-.421.108-.95-.314-1.197M52.445 89.202c-.397-.234-.97-.104-1.194.314-.021.04-.043.083-.07.123l-.016.022-.01.015c-.089.102-.187.197-.282.292a3.16 3.16 0 0 0-.554.711c-.225.422-.108.948.314 1.197.4.23.972.105 1.194-.314a.77.77 0 0 1 .07-.12l.016-.027.012-.016c.086-.101.185-.197.28-.292.213-.21.413-.443.554-.708.225-.421.108-.95-.314-1.197M32.445 89.202c-.397-.234-.97-.104-1.194.314-.021.04-.043.083-.07.123l-.016.022-.01.015c-.089.102-.187.197-.282.292a3.16 3.16 0 0 0-.554.711c-.225.422-.108.948.314 1.197.4.23.972.105 1.194-.314a.77.77 0 0 1 .07-.12l.016-.027.012-.016c.086-.101.185-.197.28-.292.213-.21.413-.443.554-.708.225-.421.108-.95-.314-1.197M33.445 94.202c-.397-.234-.97-.104-1.194.314-.021.04-.043.083-.07.123l-.016.022-.01.015c-.089.102-.187.197-.282.292a3.16 3.16 0 0 0-.554.711c-.225.422-.108.948.314 1.197.4.23.972.105 1.194-.314a.77.77 0 0 1 .07-.12l.016-.027.012-.016c.086-.101.185-.197.28-.292.213-.21.413-.443.554-.708.225-.421.108-.95-.314-1.197M55.693 71.343a1.63 1.63 0 0 0-.637.166c-.055.024-.11.049-.169.077a.26.26 0 0 1-.052.012l-.022.006-.012.003.003-.003c-.388.095-.683.419-.683.846 0 .459.397.899.874.874.255-.012.403-.065.634-.163.058-.025.114-.052.17-.08a.156.156 0 0 1 .051-.01l.025-.005.01-.003h-.004c.388-.096.687-.416.687-.847 0-.455-.4-.898-.875-.873M44.888 85.548a1.63 1.63 0 0 0-.637.166l-.17.077c-.015.006-.033.009-.051.012l-.022.006-.012.003.003-.003c-.388.096-.684.419-.684.846 0 .459.398.899.875.874.255-.012.403-.064.634-.163.058-.024.114-.052.169-.08a.156.156 0 0 1 .052-.01l.025-.005.01-.003h-.004c.388-.096.686-.416.686-.846 0-.456-.4-.899-.874-.874M52.888 84.548a1.63 1.63 0 0 0-.637.166l-.17.077c-.015.006-.033.009-.051.012l-.022.006-.012.003.003-.003c-.388.096-.684.419-.684.846 0 .459.398.899.875.874.255-.012.403-.064.634-.163.058-.024.114-.052.169-.08a.156.156 0 0 1 .052-.01l.025-.005.01-.003h-.004c.388-.096.686-.416.686-.846 0-.456-.4-.899-.874-.874M58.306 74.074c-.388-.227-.982-.11-1.194.317a6.308 6.308 0 0 1-.36.64c-.034.037-.068.074-.102.108-.015.012-.024.024-.033.028-.04.027-.08.049-.124.073-.421.225-.547.797-.314 1.197.247.419.776.536 1.195.311.6-.317.95-.89 1.246-1.477.213-.428.117-.944-.314-1.197M26.45 100.202c-.389-.227-.983-.11-1.195.317a6.308 6.308 0 0 1-.36.64 3.46 3.46 0 0 1-.102.108c-.015.012-.024.025-.034.028-.04.027-.08.049-.123.074-.421.224-.548.797-.314 1.197.247.418.776.535 1.195.31.6-.317.95-.889 1.246-1.477.212-.427.117-.944-.314-1.197M57.45 88.202c-.389-.227-.983-.11-1.195.317a6.308 6.308 0 0 1-.36.64 3.46 3.46 0 0 1-.102.108c-.015.012-.024.025-.034.028-.04.027-.08.049-.123.074-.421.224-.548.797-.314 1.197.247.418.776.535 1.195.31.6-.317.95-.889 1.246-1.477.212-.427.117-.944-.314-1.197M65.45 78.202c-.389-.227-.983-.11-1.195.317a6.308 6.308 0 0 1-.36.64 3.46 3.46 0 0 1-.102.108c-.015.012-.024.025-.034.028-.04.027-.08.049-.123.074-.421.224-.548.797-.314 1.197.247.418.776.535 1.195.31.6-.317.95-.889 1.246-1.477.212-.427.117-.944-.314-1.197"/>
        </g>
    </g>
</svg>
