<svg xmlns="http://www.w3.org/2000/svg" xmlns:xlink="http://www.w3.org/1999/xlink" width="85" height="104" viewBox="0 0 85 104">
    <defs>
        <path id="a" d="M.08 4.42L4.641 42.76l29.279-4.3L29.36.717"/>
        <path id="c" d="M.08 4.42L4.641 42.76l29.279-4.3L29.36.717"/>
        <path id="e" d="M.08 4.42L4.641 42.76l29.279-4.3L29.36.717"/>
        <path id="g" d="M0 3.647l4.22 36.118 28.725-3.646L28.607.118"/>
        <path id="i" d="M0 3.647l4.22 36.118 28.725-3.646L28.607.118"/>
        <path id="k" d="M0 3.647l4.22 36.118 28.725-3.646L28.607.118z"/>
        <path id="m" d="M0 3.647l4.22 36.118 28.725-3.646L28.607.118z"/>
        <path id="o" d="M0 3.647l4.22 36.118 28.725-3.646L28.607.118z"/>
        <path id="q" d="M0 3.647l4.22 36.118 28.725-3.646L28.607.118z"/>
        <path id="s" d="M0 3.647l4.22 36.118 28.725-3.646L28.607.118"/>
        <path id="u" d="M0 3.647l4.22 36.118 28.725-3.646L28.607.118"/>
        <path id="w" d="M.08 4.42L4.641 42.76l29.279-4.3L29.36.717z"/>
        <path id="y" d="M.08 4.42L4.641 42.76l29.279-4.3L29.36.717z"/>
        <path id="A" d="M.08 4.42L4.641 42.76l29.279-4.3L29.36.717"/>
        <path id="C" d="M.08 4.42L4.641 42.76l29.279-4.3L29.36.717"/>
        <path id="E" d="M.08 4.42L4.641 42.76l29.279-4.3L29.36.717z"/>
        <path id="G" d="M.08 4.42L4.641 42.76l29.279-4.3L29.36.717z"/>
        <path id="I" d="M.08 4.42L4.641 42.76l29.279-4.3L29.36.717"/>
        <path id="K" d="M.08 4.42L4.641 42.76l29.279-4.3L29.36.717z"/>
        <path id="M" d="M.08 4.42L4.641 42.76l29.279-4.3L29.36.717"/>
        <path id="O" d="M.08 4.42L4.641 42.76l29.279-4.3L29.36.717"/>
        <path id="Q" d="M.08 4.42L4.641 42.76l29.279-4.3L29.36.717"/>
        <path id="S" d="M.08 4.42L4.641 42.76l29.279-4.3L29.36.717"/>
        <path id="U" d="M.08 4.42L4.641 42.76l29.279-4.3L29.36.717"/>
        <path id="W" d="M.08 4.42L4.641 42.76l29.279-4.3L29.36.717"/>
    </defs>
    <g fill="none" fill-rule="evenodd">
        <path fill="#704F47" d="M74.589 41.955c-2.248-.71-5.443-.355-7.454-1.655-5.915-3.9-11.712-8.155-16.918-12.882-1.065 2.01-2.248 3.9-3.194 5.555-1.302 2.245-2.721 4.254-4.023 6.5-1.065 1.772-.828 3.663-2.366 5.318-2.011 2.127-5.797 2.6-7.453 4.727-1.184 1.418-.829 3.191-.947 4.964-1.065 8.154-13.724 16.427-4.14 23.754 3.903 2.955 8.636 4.728 13.013 6.619 3.55 1.418 7.454 1.654 9.347-2.128 1.656-3.19 1.774-6.736 4.614-9.336 2.484-2.364 6.152-2.955 8.636-5.2 3.55-3.191 6.39-7.8 8.874-11.936 2.13-3.664 4.85-7.682 4.614-12.173 0-1.3-1.54-1.773-2.603-2.127"/>
        <path fill="#000" d="M26.2 63.818c-2.13-.118-4.14 3.191-5.087 4.254C18.589 71.145 11.55 83.122 0 104h44.052c4.425-8.273 7.9-14.89 10.424-19.854.71-1.301.828-2.128.355-2.955-.473-.945-25.437-17.136-28.631-17.373z"/>
        <path fill="#FF7800" d="M26.2 66.3c.118-.355-.119-.827-.592-.827-.355-.119-.828.117-.828.591 0 .117 0 .236-.118.355 0 0 0 .117-.119.117 0 .12-.118.12-.118.236-.237.355 0 .829.355.946.355.236.828 0 .947-.355.236-.353.354-.708.473-1.063M29.276 68.9c.237-.237.237-.591.118-.828-.236-.354-.71-.472-.946-.235-.119.117-.237.235-.355.354v.118c-.237.236-.237.59-.118.827.236.355.71.474.946.236l.355-.353v-.12M27.265 72.209c.237-.236.355-.591.118-.946-.236-.354-.71-.471-.946-.236-.355.236-.473.71-.592 1.063-.118.355.119.829.592.829.355.117.828-.12.828-.591v-.12M33.062 71.5c.237-.355 0-.827-.355-.945-.355-.237-.828 0-.946.354l-.71 1.064c-.237.354-.237.709 0 1.063.236.237.828.237 1.065 0 .355-.59.71-1.063.946-1.536M30.459 74.1c-.355-.12-.828.118-.828.591 0 .118-.118.118-.118.237-.237.235-.355.59-.237.945.237.355.71.472.946.236.355-.236.71-.709.829-1.181.118-.356-.237-.71-.592-.828M35.783 75.163c0-.118.118-.118.118-.235.119-.236.237-.356.237-.59.118-.357-.118-.828-.592-.828-.355-.12-.828.117-.828.59v.118c0 .12-.118.12-.118.236-.118.238-.237.355-.237.591-.118.355.119.828.592.828.355 0 .71-.237.828-.71 0 .12 0 0 0 0M34.481 78.945c.237-.354 0-.827-.354-.945-.355-.237-.829 0-.947.354-.355.473-.592 1.064-.71 1.773-.236.945 1.183 1.301 1.42.355.118-.71.237-1.064.591-1.537M39.688 77.41c0-.12.118-.12.118-.237.118-.237.236-.355.236-.591.119-.355-.118-.827-.591-.827-.355-.119-.828.118-.828.59v.119c0 .118-.119.118-.119.236-.118.236-.236.355-.236.59-.118.355.118.828.591.828.237 0 .71-.236.829-.709-.119 0 0 0 0 0M33.45 96.685c0-.119.118-.119.118-.237.118-.236.237-.354.237-.59.118-.355-.119-.828-.592-.828-.355-.118-.828.118-.828.591v.118c0 .118-.118.118-.118.237-.119.236-.237.354-.237.59-.118.355.118.828.592.828.236 0 .71-.237.828-.71-.118 0 0 0 0 0M37.676 81.782c.118-.354-.118-.827-.591-.827-.355-.118-.829.117-.829.59 0 .118-.118.118-.118.237-.118.118-.237.355-.355.472-.237.355 0 .828.355.946.355.235.828 0 .947-.355a2.28 2.28 0 0 0 .591-1.063M42.29 79.418c.118-.354-.118-.827-.592-.827-.354-.118-.828.117-.828.591l-.236.827c-.119.355.118.828.591.828.355.118.828-.119.828-.591l.237-.828zM40.87 85.09c0-.117.119-.117.119-.117.118-.118.118-.355.237-.473.118-.355-.119-.827-.592-.827-.355-.118-.828.118-.828.59 0 .119-.118.119-.118.119-.119.118-.119.354-.237.473-.118.354.118.827.591.827.355.118.71-.237.829-.591M39.45 87.809c0-.355-.354-.71-.71-.71-.354 0-.709.355-.709.71v.473c0-.119-.118.118-.118.118l-.119.12c-.355.234-.473.707-.236.943.236.355.71.473.946.238.71-.356 1.065-1.065.947-1.892M47.732 79.89c0-.354-.355-.709-.71-.709-.354 0-.71.355-.71.71v.236c-.118.236-.236.354-.236.474-.237.353 0 .827.355.944.355.238.828 0 .946-.353.119-.238.355-.71.355-1.302M45.603 84.5c.237-.945-1.183-1.3-1.42-.355-.118.473-.473.946-.71 1.419-.118.354-.118.827.355.945.355.236.829.118.947-.354.237-.473.591-1.064.828-1.655M43.118 89.11c.237-.356.237-.71 0-1.064-.236-.238-.828-.238-1.064 0-.474.59-.592 1.182-.947 1.773-.118.353-.118.827.355.944.355.237.828.12.947-.353.236-.238.354-.829.71-1.3M38.077 95.242c.237-.356.237-.71 0-1.064-.237-.237-.828-.237-1.065 0-.473.591-.591 1.182-.946 1.773-.119.353-.119.827.355.944.355.238.828.12.946-.353.237-.238.355-.829.71-1.3M13.077 93.242c.237-.356.237-.71 0-1.064-.237-.237-.828-.237-1.065 0-.473.591-.591 1.182-.946 1.773-.119.353-.119.827.355.944.355.238.828.12.946-.353.237-.238.355-.829.71-1.3M7.077 99.242c.237-.356.237-.71 0-1.064-.237-.237-.828-.237-1.065 0-.473.591-.591 1.182-.946 1.773-.119.353-.119.827.355.944.355.238.828.12.946-.353.237-.238.355-.829.71-1.3M17.077 101.242c.237-.356.237-.71 0-1.064-.237-.237-.828-.237-1.065 0-.473.591-.591 1.182-.946 1.773-.119.353-.119.827.355.944.355.238.828.12.946-.353.237-.238.355-.829.71-1.3M50.809 83.672c.236-.354.236-.709 0-1.062-.237-.238-.829-.238-1.065 0-.473.59-.828 1.182-1.065 1.89-.118.354-.118.827.355.945.355.237.828.12.946-.354.119-.355.474-.946.829-1.419M35.783 85.8c0-.236-.118-.355-.237-.591-.236-.355-.71-.472-.946-.236-.355.236-.473.591-.237.946-.118.353.119.827.592.827.355.117.828-.12.828-.59-.118 0 0-.237 0-.356M20.543 94.95c0-.236-.118-.355-.237-.592-.236-.354-.71-.471-.946-.235-.355.235-.474.591-.237.946-.118.353.118.827.592.827.355.117.828-.12.828-.59-.118 0 0-.237 0-.357M45.543 97.95c0-.236-.118-.355-.237-.592-.236-.354-.71-.471-.946-.235-.355.235-.474.591-.237.946-.118.353.118.827.592.827.355.117.828-.12.828-.59-.118 0 0-.237 0-.357M22.296 69.373c-.355-.12-.71.118-.71.472 0 .119-.118.237-.118.355v.118c-.237.237-.355.591-.119.828.119.236.592.354.828.236.355-.236.592-.709.71-1.182-.118-.355-.236-.709-.591-.827M24.425 75.163c.118-.354-.118-.709-.473-.709-.355-.117-.71.118-.71.474v.235c-.118.237-.237.356-.473.591-.237.236 0 .71.236.827.355.12.71 0 .829-.236.118-.355.473-.71.591-1.182M27.62 77.763c-.355-.236-.71 0-.947.237-.118.118-.236.354-.236.474-.119.117-.119.235-.237.235-.355.236-.473.59-.237.946.237.354.592.472.947.236.473-.355.71-.826 1.065-1.3.118-.117 0-.591-.355-.828M31.287 84.382c0-.236-.118-.59-.236-.827-.237-.355-.592-.474-.947-.236-.355.236-.473.59-.236.944 0 0 0 .12-.119.12-.236.354 0 .825.237.945.355.236.71 0 .947-.237.236-.118.354-.354.354-.709M47.378 90.291c.118-.119.118-.236.236-.355.355-.236.474-.591.237-.946-.237-.353-.71-.471-.947-.236-.354.236-.591.59-.828.946-.236.355 0 .827.237.946.473.236.828 0 1.065-.355M42.4 95.66c.118-.12.118-.237.236-.356.355-.235.473-.59.237-.945-.237-.354-.71-.472-.947-.237-.355.237-.591.591-.828.947-.237.354 0 .826.237.945.473.237.828 0 1.064-.354M15.4 96.66c.118-.12.118-.237.236-.356.355-.235.473-.59.237-.945-.237-.354-.71-.472-.947-.237-.355.237-.591.591-.828.947-.237.354 0 .826.237.945.473.237.828 0 1.064-.354M16.262 83.791c.118-.355-.118-.827-.592-.827-.355-.12-.828.117-.828.591 0 .117 0 .236-.118.355 0 0 0 .117-.118.117 0 .119-.119.119-.119.236-.236.354 0 .828.355.945.355.237.828 0 .947-.354.236-.354.355-.708.473-1.063M19.456 86.39c.237-.235.237-.59.119-.826-.237-.355-.71-.474-.947-.236l-.355.353v.119c-.236.236-.236.59-.118.827.237.354.71.474.947.236l.354-.353c-.118 0-.118-.12 0-.12M36.38 102.186c.236-.235.236-.59.117-.826-.236-.356-.71-.474-.946-.236l-.355.353v.118c-.237.237-.237.591-.118.828.236.354.71.474.946.236l.355-.353c-.118 0-.118-.12 0-.12M17.445 89.7c.237-.236.355-.59.118-.946-.236-.355-.71-.472-.946-.235-.355.235-.473.709-.592 1.062-.118.355.119.829.592.829.355.117.828-.119.828-.591-.118 0 0 0 0-.119M23.242 88.99c.237-.354 0-.827-.355-.945-.355-.236-.828 0-.946.355l-.71 1.063c-.237.355-.237.71 0 1.064.236.236.828.236 1.065 0 .354-.59.591-1.064.946-1.536M26.189 93.04c.236-.354 0-.827-.355-.945-.355-.236-.828 0-.947.355-.236.354-.473.71-.71 1.063-.236.355-.236.71 0 1.064.237.236.829.236 1.065 0 .355-.59.592-1.064.947-1.536M22.189 100.04c.236-.354 0-.827-.355-.945-.355-.236-.828 0-.947.355-.236.354-.473.71-.71 1.063-.236.355-.236.71 0 1.064.237.236.829.236 1.065 0 .355-.59.592-1.064.947-1.536M29.986 90.291c0-.119.118-.119.118-.236.119-.236.237-.355.237-.59.118-.355-.118-.828-.592-.828-.355-.118-.828.117-.828.59v.118c0 .12-.118.12-.118.236-.118.238-.237.355-.237.591-.118.355.119.828.592.828.355 0 .71-.237.828-.709 0 .119 0 0 0 0M35.45 90.685c0-.12.118-.12.118-.237.118-.236.237-.354.237-.59.118-.355-.119-.828-.592-.828-.355-.118-.828.117-.828.591v.117c0 .12-.118.12-.118.236-.119.238-.237.355-.237.591-.118.355.118.829.592.829.355 0 .71-.238.828-.71 0 .119 0 0 0 0M29.45 95.685c0-.12.118-.12.118-.237.118-.236.237-.354.237-.59.118-.355-.119-.828-.592-.828-.355-.118-.828.117-.828.591v.117c0 .12-.118.12-.118.236-.119.238-.237.355-.237.591-.118.355.118.829.592.829.355 0 .71-.238.828-.71 0 .119 0 0 0 0M32.45 91.685c0-.12.118-.12.118-.237.118-.236.237-.354.237-.59.118-.355-.119-.828-.592-.828-.355-.118-.828.117-.828.591v.117c0 .12-.118.12-.118.236-.119.238-.237.355-.237.591-.118.355.118.829.592.829.355 0 .71-.238.828-.71 0 .119 0 0 0 0M30.45 101.685c0-.12.118-.12.118-.237.118-.236.237-.354.237-.59.118-.355-.119-.828-.592-.828-.355-.118-.828.117-.828.591v.117c0 .12-.118.12-.118.236-.119.238-.237.355-.237.591-.118.355.118.829.592.829.355 0 .71-.238.828-.71 0 .119 0 0 0 0M10.45 101.685c0-.12.118-.12.118-.237.118-.236.237-.354.237-.59.118-.355-.119-.828-.592-.828-.355-.118-.828.117-.828.591v.117c0 .12-.118.12-.118.236-.119.238-.237.355-.237.591-.118.355.118.829.592.829.355 0 .71-.238.828-.71 0 .119 0 0 0 0M42.45 101.685c0-.12.118-.12.118-.237.118-.236.237-.354.237-.59.118-.355-.119-.828-.592-.828-.355-.118-.828.117-.828.591v.117c0 .12-.118.12-.118.236-.119.238-.237.355-.237.591-.118.355.118.829.592.829.355 0 .71-.238.828-.71 0 .119 0 0 0 0M27.147 83.791c0-.119.118-.119.118-.236.118-.236.237-.355.237-.59.118-.355-.119-.828-.592-.828-.355-.118-.828.117-.828.59v.118c0 .12-.119.12-.119.236-.118.238-.236.355-.236.591-.118.355.118.828.591.828.355 0 .71-.237.829-.709M25.608 87.455c0-.119.119-.119.119-.237.118-.236.236-.354.236-.59.118-.355-.118-.828-.591-.828-.355-.118-.829.118-.829.59v.12c0 .117-.118.117-.118.235-.118.237-.237.355-.237.591-.118.355.119.828.592.828.355 0 .71-.237.828-.71 0 .119 0 .119 0 0M25.45 98.685c0-.119.118-.119.118-.237.118-.236.237-.354.237-.59.118-.355-.119-.828-.592-.828-.355-.118-.828.118-.828.591v.118c0 .118-.118.118-.118.237-.119.236-.237.354-.237.59-.118.355.118.828.592.828.355 0 .71-.237.828-.71 0 .119 0 .119 0 0M21.231 83.555c0-.12.118-.12.118-.237.119-.236.237-.354.237-.59.118-.355-.118-.828-.592-.828-.354-.118-.828.118-.828.591v.118c0 .119-.118.119-.118.236-.118.237-.237.355-.237.59-.118.356.119.829.592.829.237 0 .591-.238.828-.71-.118 0-.118 0 0 0M20.403 78.118c0-.118.118-.118.118-.235.118-.237.237-.356.237-.591.118-.356-.119-.828-.592-.828-.355-.119-.828.117-.828.591v.117c0 .12-.118.12-.118.237-.119.237-.237.354-.237.59-.118.355.118.829.592.829.354 0 .71-.238.828-.71M16.38 80.364c0-.119.119-.119.119-.237.118-.236.236-.354.236-.59.119-.355-.118-.828-.591-.828-.355-.118-.829.118-.829.591v.118c0 .118-.118.118-.118.237-.118.236-.236.354-.236.59-.119.355.118.828.591.828.355 0 .71-.237.828-.71 0 .119 0 0 0 0M18.273 75.045c0-.118.119-.118.119-.236.118-.236.236-.354.236-.59.119-.355-.118-.828-.591-.828-.355-.118-.828.118-.828.59v.119c0 .118-.119.118-.119.236-.118.237-.236.355-.236.591-.119.355.118.828.591.828.355 0 .71-.237.828-.71 0 .119 0 0 0 0M12.358 86.864c-.355-.119-.71.118-.71.472 0 .119-.118.237-.118.355v.118c-.237.236-.355.591-.119.827.119.237.592.355.829.237.354-.237.591-.71.71-1.182 0-.473-.237-.71-.592-.827M8.075 93.03c-.354-.117-.71.119-.71.473 0 .119-.118.237-.118.355v.118c-.236.237-.355.591-.118.827.118.237.592.355.828.237.355-.237.592-.71.71-1.182 0-.473-.237-.71-.592-.827"/>
        <path fill="#704F47" d="M82.988 34.391c.592.118 1.303.355 1.895.71.235.235-5.207 9.808-7.69 7.8-3.078-2.6 2.72-8.865 5.795-8.51"/>
        <path fill="#704F47" d="M77.547 26.828c-1.42.59-3.078 1.654-4.023 1.181-1.301-.709 2.248-3.427 2.958-4.018 1.065-1.063 2.248-1.89 3.194-3.073.592-.709 1.42-1.654.828-2.6-.591-.945-1.774-.118-2.485.355-3.55 2.127-6.861 4.845-10.174 7.327-1.774 1.3-3.549 2.718-5.442 4.018-1.183.946-2.484 2.246-4.022 1.891-1.184-.236-2.485-1.654-3.313-.118-.473.946-.71 2.127-.828 3.31-.119 1.063-.237 2.127-.474 2.954-.354 1.536-.118 2.954 0 4.49.237 1.655-.71 6.855-.71 6.855.71 2.364.592 4.61 3.313 4.846 2.366.235 5.086-.473 7.099-1.773 1.183-.71 1.42-1.655 2.84-1.418 1.182.236 2.365 1.182 3.667.945 1.065-.236 1.775-1.772 2.366-2.6 1.42-2.01 5.678-6.145 4.614-8.863-.946-2.364-1.42-2.364-.473-5.082.828-2.246 3.311-4.373 3.311-6.973.238-2.364-.945-2.245-2.246-1.654M77.665 12.29L76.6 13.71c-.711 1.064-.948 3.19-2.366 3.545-1.54.473-2.25-2.363-2.486-3.427-.591-2.482 1.775-4.254 3.669-5.436 2.128-1.3 4.14-.946 5.204 1.3-1.063.473-2.011 1.536-2.957 2.6"/>
        <path fill="#704F47" d="M78.493 26.71l-.592 1.181c0 .236.592 3.427.829 3.31 1.656-.71 3.43-2.837 2.72-4.728-.354-.827-1.892-2.837-2.839-1.773-.591.591.119 1.418-.118 2.01"/>
        <path fill="#828080" d="M71.277 1.3C69.382.236 67.37.473 65.005.827c-2.366.237-5.56.591-8.045.828-2.366.236-4.85.472-7.099.827-2.128.236-5.56.59-7.215 2.009-1.42 1.182-2.012 3.782-2.012 5.673-.118 3.782.828 7.563 1.302 11.345.591 4.61 1.064 8.982 1.538 13.591.355 3.427.946 8.036 1.42 11.464.473 2.954.473 5.082.946 8.036.355 2.127.118 4.846 2.366 6.264 1.42.827 3.43.945 4.97.945 2.484-.118 4.85-.59 7.333-.827 2.84-.236 5.679-.71 8.52-1.3 2.483-.473 5.56-.236 7.807-1.418 2.603-1.3 2.958-4.018 2.722-6.973-1.065-11.345-2.958-22.573-3.905-33.8-.236-3.073-.947-6.264-1.419-9.455-.356-2.481-.356-5.2-2.957-6.736"/>
        <path fill="#FF7800" d="M68.791 5.672c-4.259.591-8.636.828-12.777 1.537-3.195.473-6.626.118-9.702 1.3-3.904 1.536-4.14 5.082-3.667 8.863.236 2.246.473 4.491.828 6.619.592 5.2 1.301 10.518 1.893 15.718.355 2.954.71 5.79 1.065 8.745.236 2.364-.119 5.318 1.301 7.446.118.236.355.472.592.59 1.538 1.302 3.904.355 5.797.12 5.206-.59 10.53-1.301 15.735-1.892 2.84-.355 5.562-.71 8.4-.946-.828-6.854-1.655-13.709-2.484-20.563a812.1 812.1 0 0 1-2.485-23.755c-.355-3.072-1.538-4.254-4.496-3.782"/>
        <path fill="#1C2633" d="M47.732 2.718c-.355-.118-.946-.236-2.01 0-.356.118-.71.236-.947.473 0 .236 0 .59.355.709.236.118.946.118 1.301.118s.71-.118 1.065-.355c.473-.236.236-.59.236-.945"/>
        <path fill="#000" d="M45.485 2.718c-.474.118-.947.709-.119.827.947.118 1.42-.473 1.065-.709-.118-.236-.473-.354-.946-.118M67.371 2.245c-4.85.591-17.864 2.01-21.767 2.482-5.089.591-4.141 6.973-4.024 8.864 0 .59 2.13 17.727 3.55 30.136.827 6.973 1.537 12.527 1.537 12.646.592 5.318 3.313 5.909 6.862 5.436 3.786-.473 14.79-1.773 18.575-2.245 7.81-.946 7.454-3.073 6.98-7.8-.237-1.537-1.065-9.81-2.128-18.555-.947-8.745-2.013-18.082-2.486-21.627-.118-.473-.118-.946-.235-1.418-.237-3.428-.829-8.628-6.864-7.919m6.272 49.873c-1.658.236-18.458 2.246-20.469 2.482-5.442.709-5.204-3.427-5.324-4.136-.118-1.419-.236-1.655-.355-2.719-.117-.59-1.064-8.745-1.42-12.172-.118-.946-.236-1.773-.354-2.719-.117-1.063-.237-2.009-.355-3.072-.237-1.773-1.775-15.128-2.012-16.9-.473-3.31 2.367-4.018 3.786-4.137 1.657-.236 2.958-.354 4.614-.59 3.431-.473 6.98-.828 10.413-1.182 2.366-.237 3.43-.355 5.796-.71 2.011-.236 3.905-.118 4.26 3.073.117 1.182.117 1.418.354 2.6.238 2.246 4.14 34.391 4.379 36.4.117.591.591 3.31-3.313 3.782"/>
        <path fill="#000" d="M61.812 4.136c-1.065.119-1.657.237-2.486.355-.827.118-3.075.354-4.732.59-.354 0-4.377.237-2.958 1.3.474.355 1.303 0 1.775 0 1.183-.117 2.84-.354 4.26-.472 1.538-.236 2.484-.236 4.376-.473 1.658-.236 1.066-1.418-.235-1.3"/>
        <path fill="#82C7A6" d="M47.378 48.572v.237c.118-.117 0-.117 0-.237"/>
        <path fill="#828080" d="M67.371 55.545c-.71-.118-1.655 0-2.366 0-.591 0-2.247.237-3.55.473-.59.118-3.785.237-2.246 1.891.354.355 1.183.355 1.537.355.946 0 2.13-.237 3.196-.355 1.183-.118 1.774-.236 3.194-.354 1.3-.119 1.892-1.773.235-2.01"/>
        <g>
            <g transform="translate(43 9)">
                <mask id="b" fill="#fff">
                    <use xlink:href="#a"/>
                </mask>
                <path fill="#297394" d="M21.44 6.689l.12-.358.959-.12c.121 0 .121-.12.121-.239v-.597c0-.12-.121-.239-.24-.239l-1.081.12c-.119 0-.119.12-.119.239v.597c0 .12 0 .12.119.239 0 .12 0 .358.121.358" mask="url(#b)"/>
            </g>
            <g transform="translate(43 9)">
                <mask id="d" fill="#fff">
                    <use xlink:href="#c"/>
                </mask>
                <path fill="#297394" d="M21.8 9.556l.6-.12c.12 0 .12-.12.12-.239V8.6c0-.12-.12-.239-.24-.239l-.72.12c-.12 0-.12.119-.12.238v.598c0 .12 0 .12.12.239h.24" mask="url(#d)"/>
            </g>
            <g transform="translate(43 9)">
                <mask id="f" fill="#fff">
                    <use xlink:href="#e"/>
                </mask>
                <path fill="#E88A33" d="M26.72 12.064l-.12-.358-.72.12a.257.257 0 0 1-.24-.24v-.597c0-.12.12-.239.24-.239l.84-.12c.12 0 .24.12.24.24v.597c0 .12 0 .239-.12.239s-.12.358-.12.358" mask="url(#f)"/>
            </g>
        </g>
        <g>
            <path fill="#EDE8E0" d="M44 14.647l4.22 36.118 28.725-3.647-4.338-36z"/>
            <path fill="#BAE0D1" d="M51.503 15.588l-.82.353 9.73.235 3.635-2.235zM48.22 31.353l2.346.94 5.51-6.705 7.972-4-5.158-.47z"/>
        </g>
        <g>
            <g transform="translate(44 11)">
                <mask id="h" fill="#fff">
                    <use xlink:href="#g"/>
                </mask>
                <path fill="#4FB2E3" d="M32.71 3.765l-1.29-1.647s-6.448.353-7.737.706c-1.29.353-1.642.235-2.229.235-.702.118-1.522.706-1.054 1.059.704.353 1.29.353 2.227 0 .938-.235 1.408-.47 2.345-.353 2.228.706 7.27 0 7.739 0" mask="url(#h)"/>
            </g>
            <g transform="translate(44 11)">
                <mask id="j" fill="#fff">
                    <use xlink:href="#i"/>
                </mask>
                <path fill="#4FB2E3" d="M.82 17.412c.704-.471 1.642-.706 2.111-1.412.47-.706.704-.824 1.055-1.177.352-.353.821-.117 1.642-.47 1.055-.47 1.641-.236 1.055.706-.469 1.058-1.993 1.176-2.228 1.647-.351.47-.469 2.353-3.282 1.647-.118 0-1.056-.236-.352-.941" mask="url(#j)"/>
            </g>
        </g>
        <g>
            <path fill="#C29470" d="M48.978 36.627l4.385 2.345 2.37-1.758-5.096-2.58z"/>
            <path fill="#E0D9D1" d="M46.963 39.207l.948 8.207 4.267-2.697-1.897-3.165 2.37-1.876-4.147-2.345z"/>
            <path fill="#C29470" d="M64.266 28.186l.593.704 1.185-.586-.593-.704zM66.163 30.649l.711.82 1.304-.586-.711-.938zM61.778 29.241l.474.821 1.304-.586-.593-.82zM62.608 30.531l.592.82 1.304-.585-.711-.821zM67.348 28.186l.711.704 1.186-.586-.711-.704zM62.963 23.145l.711.703 1.185-.469-.71-.703zM46.252 33.696l.118.235 1.541.938 1.067-1.055-1.897-1.056zM72.326 26.31l.829.587.83-.704-.83-.586zM73.867 25.02l.83.587-.119-1.173zM68.534 22.09l1.896 1.055.83-.47-2.134-.82zM63.438 31.82l.71.939 1.303-.586-.71-.938zM45.304 17.4h-.948l.118.586 5.334-.117 1.303-.704-4.978-.234zM51.704 16.462h2.015l.355-.117-2.015-.117zM48.267 16.227h2.015l.355-.117-2.015-.117zM44.474 15.876l2.015.117.355-.234H44.83zM55.26 16.58l2.133.117.355-.235-2.133-.117zM63.793 16.11l.237.117 2.013-.351-.354-.118zM66.874 15.524l.237.117 1.896-.352-.236-.117zM69.956 20.097l4.148.352-.12-1.056-3.792-.117zM60.83 19.276l3.2.352.236-.587-3.2-.234zM50.637 19.51l-.592.587h.948l.71-.704zM54.311 18.338l.948-.117.475-.469h-.83zM47.91 19.745l-.71.703.83-.117.829-.704z"/>
            <path fill="#D9D1C7" d="M68.652 15.759l-4.741.82.592.47 2.845-.352 3.555.586 2.726-.586v-.47l-.117-.82z"/>
        </g>
        <g transform="translate(44 11)">
            <mask id="l" fill="#fff">
                <use xlink:href="#k"/>
            </mask>
            <path fill="#D9D1C7" d="M21.103 13.765l-4.572 1.647h-.117c-.117 0-.117 0-.235-.118L15.241 14l-2.344 1.294-.587.706c.235.353.47.824.587 1.177.586-.589 1.406-.941 2.227-1.06h.586c1.056 0 1.993.354 2.697 1.06l2.58-1.06h.116l1.642-.705-1.642-1.647z" mask="url(#l)"/>
        </g>
        <g>
            <path fill="#E0D9D1" d="M44.237 17.575l.118.562h.945l.828-.45 4.963.225-1.3.675-5.318.113v.337l8.39-.112 1.655-1.238-10.281-.675z"/>
            <path fill="#BA8C69" d="M45.3 18.137h-.945l.118.563 5.318-.113 1.3-.675-4.964-.225z"/>
            <path fill="#E0D9D1" d="M54.755 21.175L53.1 24.1l3.9-3.15-.945-.225z"/>
        </g>
        <g>
            <g transform="translate(44 11)">
                <mask id="n" fill="#fff">
                    <use xlink:href="#m"/>
                </mask>
                <path fill="#B5E8F7" d="M15.124 5.53c0-.118-.117-.118-.117-.118-.235 0-3.752-.118-6.8-.235-1.055 0-6.214-.353-7.035-.353-.117 0-.234 0-.234.117 0 0 0 .118.117.118.82 0 5.98.353 6.683.353L6.565 6l-8.558-.588c-.117 0-.235 0-.235.118v.117l10.2.706-2.11 1.294-7.738.118c-.117 0-.234.118-.234.118 0 .117 0 .117.117.117l10.786-.117-.586.47-8.324.824c-.118 0-.235.117-.235.117 0 .118 0 .118.117.118l3.518-.353-2.931 2.824c-.118.117-.118.235 0 .235h.117c.117 0 .117 0 .234-.118l3.049-2.94 2.344-.236-2.344 2.353c-.118.117-.118.235 0 .235h.117c.117 0 .117 0 .234-.118l2.462-2.47L15.71 8c.117 0 .235-.117.235-.117 0-.118-.118-.118-.235-.118l-3.751.353 1.055-1.294 1.876.117c.117 0 .117 0 .117-.117 0-.118 0-.118-.117-.118l-6.566-.353L6.8 6.236l1.29-.589c4.455.118 6.8.236 6.917.236 0-.236.117-.236.117-.353zM8.676 8.236l1.758-1.765 1.993.117L11.372 8l-2.696.236zm-.352-1.883l1.876.118-1.173 1.176H6.448l1.876-1.294z" mask="url(#n)"/>
            </g>
            <g transform="translate(44 11)">
                <mask id="p" fill="#fff">
                    <use xlink:href="#o"/>
                </mask>
                <path fill="#B5E8F7" d="M-3.4 17.765l9.38 5.059-8.794 10.706c-.234.235-.351.705-.234.94 0 .118.117.118.234.118.118 0 .235-.117.352-.235l9.028-11.176 3.869 2.117h.117l2.11 1.177h.117l2.228 1.176h.234l4.807-2.588h.118s.117 0 .117-.118l.117-.117 8.09-4.353c.117 0 .117-.118.117-.236 0-.117-.117-.235-.117-.353l-7.035-6.705c-.117-.118-.234-.118-.351-.118l-4.456 1.647-.82-1.059 4.69-2.47 8.206 6.353c.117.117.235.117.352.117h5.51l8.207 18.941c.235.47.586.942.938.942h.117c.235 0 .235-.353.118-.706l-9.028-19.177v-.117l-2.814-6.118c0-.118-.234-.235-.351-.235-.118 0-.235.117-.235.235l.82 1.765L28.374 12h-.235l-1.993 1.059-2.814-1.53 1.524-.94c.118-.118.118-.236 0-.236-.117-.118-.234-.118-.351 0l-1.76 1.059-.116.118c0 .117.117.117.117.117l2.931 1.53-1.172.588-3.635-2.706 1.641-.824c.118 0 .118-.117 0-.235-.117-.118-.234-.118-.351-.118l-9.614 4.824s-.117 0-.117.118l-5.98 7.294-7.269-3.765 4.573-4 4.69-1.53c.117 0 .117-.117.234-.117l1.876-3.176c0-.118 0-.118-.117-.236-.118 0-.235 0-.235.118l-.586 1.059-3.517.94-3.049.824c-.117 0-.234.118-.234.236l-1.055 2.117-1.173.353 1.29-3.294c0-.117 0-.117-.117-.117-.118 0-.235.117-.352.235l-1.524 3.53v.235h.234l2.814-.942-4.103 3.53-1.876-.941c-.117 0-.235 0-.47.117 0 .236 0 .353.118.47zm6.448-5.177l2.58-.706-.821 1.765-2.697.824.938-1.883zm2.345.824l.82-1.647 1.29-.353c-.234.353-.586 1.059-.82 1.647l-1.29.353zm3.048-.941l-1.172.353c.235-.47.586-1.294.82-1.647l1.408-.353L8.44 12.47zm21.456.47l-3.518 2.47-1.406-1.058 3.517-1.765 1.407.353zm-2.931 2.941l3.634-2.705 1.993.588 1.524 3.53h-5.393l-1.758-1.413zm-4.221-.47l-1.641.706h-.118l-5.862 2.47-3.751-1.53 1.524-1.764 2.462-1.176.938 1.294c.117.118.234.118.351.118l4.573-1.648 1.524 1.53zM20.165 24L17 18.588l1.993-.823 3.635 5.059L20.166 24zm2.932-1.53l-3.752-4.94 1.759-.706 3.986 4.588-1.993 1.059zm4.455-2.352l-1.759.94-4.103-4.587 1.524-.706 4.338 4.353zM13.6 25.882l2.462-2.117c.117-.118.235-.353.117-.588l-1.524-3.06.586-.823 1.056-.47 3.165 5.53-4.338 2.234-1.524-.706zm-2.345-1.176l2.931-4 1.173 2.588-2.58 2.236-1.524-.824zm-4.22-2.235l3.986-4.824 3.634 1.53-3.986 5.176-3.634-1.882z" mask="url(#p)"/>
            </g>
            <g transform="translate(44 11)">
                <mask id="r" fill="#fff">
                    <use xlink:href="#q"/>
                </mask>
                <path fill="#B5E8F7" d="M26.966 6.823L22.51 8c-.117 0-.234 0-.234-.118s0-.118.117-.235l3.752-.941-2.931-.353-2.814.353-4.924.588c-.117 0-.235 0-.235-.118 0-.117.118-.117.235-.117l4.572-.589-1.641-1.411c-.117 0 0-.118 0-.118h.234l1.173.941 2.696-.47-1.172-.589c-.117 0-.117-.117 0-.117h.234l1.407.706 1.524-.236 1.876-.117-2.227-.706c-.118 0-.118-.118-.118-.118s.118-.118.235 0l2.814.824 5.041-.353c.117 0 .235 0 .235.117 0 .118 0 .118-.118.118l-7.62.588-4.455.824.351.235 2.697-.353h.117l3.635.47 6.096-1.411c.117 0 .235 0 .352.118.117.117 0 .117 0 .117l-5.159 1.177L31.186 8c.117 0 .235.117.117.235H30.952l-3.166-1.412h-.82z" mask="url(#r)"/>
            </g>
            <g transform="translate(44 11)">
                <mask id="t" fill="#fff">
                    <use xlink:href="#s"/>
                </mask>
                <path fill="#FFD178" d="M-1.759 12.117l13.6-3.411h.235l2.345.235 1.172-1.059-1.055-.823c-.117 0-.117-.118-.117-.236 0-.117.117-.117.117-.235l5.51-3.412c.118-.117.235-.117.352 0 .117.118.117.118-.117.236l-4.924 3.411.938.589 15.24.117c.235 0 .822.353.939.588.117.236.234.589 0 .589h-.117l-15.945-.589-.938.942 18.758 2c.352 0 .704.235.821.588.117.235.235.706 0 .706h-.234l-20.166-2.47-28.49 27.176c-.351.353-.703.471-.937.588-.235 0-.821-.353-.704-.705 0-.588-.117-1.53.586-2.119L13.717 9.647l-1.758-.235-14.304 3.882c-.352.118-.352-.235-.234-.47.117-.118.469-.707.82-.707" mask="url(#t)"/>
            </g>
            <g transform="translate(44 11)">
                <mask id="v" fill="#fff">
                    <use xlink:href="#u"/>
                </mask>
                <path fill="#B5E8F7" d="M1.172 40.94c.118 0 .235 0 .352-.117l34.586-21.53a.359.359 0 0 0 0-.47c-.234-.117-.469-.235-.586-.117L1.055 39.764c-.352.236-.352.471-.352.824s.235.472.47.353" mask="url(#v)"/>
            </g>
        </g>
        <g>
            <path fill="#B5E8F7" d="M72.917 28.294l1.633 4.588.583-.352L73.5 27.94z"/>
            <path fill="#E0D9D1" d="M56.117 46.529l20.766-1.646-1.05-8.472-.233-2.47z"/>
        </g>
        <g>
            <g transform="translate(43 9)">
                <mask id="x" fill="#fff">
                    <use xlink:href="#w"/>
                </mask>
                <path fill="#D6D6D6" d="M6.8 7.764l1.68-.478 2.4.239L21.2 8.6l-2.28 1.194 2.88 2.27 7.56 5.733 2.04 5.375-15.12 9.078c.12 0 .12.12.24.12.24.119.36.238.6.358l15.12-9.317-2.4-5.853-10.2-7.764 2.88-1.433L8.6 6.928l-1.92.478-.96 1.552-6.36 1.673v.358l6.48-1.792.96-1.433z" mask="url(#x)"/>
            </g>
            <g transform="translate(43 9)">
                <mask id="z" fill="#fff">
                    <use xlink:href="#y"/>
                </mask>
                <path fill="#000" d="M18.92 9.556l2.88 2.269 7.56 5.733 2.04 5.375-14.52 8.72c.24.12.6.239.84.478l14.52-8.959-2.4-5.853-10.2-7.763 2.88-1.434L8.6 6.69l-1.92.478-.96 1.552-6.36 1.792v.239l6.48-1.792.96-1.433 1.68-.478 2.4.24L21.2 8.36l-2.28 1.195z" mask="url(#z)"/>
            </g>
            <g transform="translate(43 9)">
                <mask id="B" fill="#fff">
                    <use xlink:href="#A"/>
                </mask>
                <path fill="#F27830" d="M20.6 22.455c.36 3.464-3.48 9.198-3.48 9.198s-4.92-4.659-5.28-8.123c-.36-3.464 1.44-5.494 3.84-5.852 2.4-.359 4.56 1.194 4.92 4.777" mask="url(#B)"/>
            </g>
            <g transform="translate(43 9)">
                <mask id="D" fill="#fff">
                    <use xlink:href="#C"/>
                </mask>
                <path fill="#B5E8F7" d="M19.52 22.217c.24 2.03-1.08 3.941-3 4.18-1.8.24-3.48-1.314-3.72-3.344-.24-2.03 1.08-3.942 3-4.18 1.92-.24 3.6 1.313 3.72 3.344" mask="url(#D)"/>
            </g>
            <g transform="translate(43 9)">
                <mask id="F" fill="#fff">
                    <use xlink:href="#E"/>
                </mask>
                <path fill="#DEBDD9" d="M19.52 22.217h-.24v.358c0 .956-.36 1.792-.84 2.389-.48.597-1.2 1.075-2.04 1.194h-.36a2.903 2.903 0 0 1-2.04-.836c-.6-.597-.96-1.314-1.08-2.27v-.357c0-.956.36-1.792.84-2.39.48-.597 1.2-1.074 2.04-1.194h.36c.84 0 1.56.359 2.04.836.6.598.96 1.314 1.08 2.27h.48c-.12-1.075-.48-1.911-1.2-2.509-.6-.597-1.44-1.075-2.4-1.075h-.36c-.96.12-1.68.598-2.28 1.314-.6.717-.96 1.673-.96 2.628v.478c.12 1.075.48 1.911 1.2 2.508.6.597 1.44 1.075 2.4 1.075h.36c.96-.12 1.68-.597 2.28-1.314.6-.716.96-1.672.96-2.627v-.478h-.24z" mask="url(#F)"/>
            </g>
            <g transform="translate(43 9)">
                <mask id="H" fill="#fff">
                    <use xlink:href="#G"/>
                </mask>
                <path fill="#EDEDE8" d="M9.92 26.278l.12 1.075 1.2.597c.12-.239.24-.478.48-.717l-.72-.358h-.12l-.96-.597zm2.52-.956l-.72.956.24.12c.12-.24.24-.598.48-.837v-.239zm-.96-6.21l-2.04 2.507.36 3.584 1.32.716.96-1.313c-.12-.359-.24-.717-.24-1.075-.12-1.673.12-2.987.72-3.942l-1.08-.478zm.6-2.51L9.2 19.948l.12.836 3.12-3.822c0-.12-.24-.239-.36-.358zm-1.68-.955l-1.44 1.314v.597l1.8-1.791c-.12 0-.24-.12-.36-.12z" mask="url(#H)"/>
            </g>
            <g transform="translate(43 9)">
                <mask id="J" fill="#fff">
                    <use xlink:href="#I"/>
                </mask>
                <path fill="#C2E8DB" d="M10.88 15.767l-1.8 1.792.24 2.388 2.88-3.344c-.48-.358-.84-.597-1.32-.836" mask="url(#J)"/>
            </g>
            <g transform="translate(43 9)">
                <mask id="L" fill="#fff">
                    <use xlink:href="#K"/>
                </mask>
                <path fill="#C7A88A" d="M10.04 27.353l.24 2.15s.36-.598.96-1.553l-1.2-.597z" mask="url(#L)"/>
            </g>
            <g transform="translate(43 9)">
                <mask id="N" fill="#fff">
                    <use xlink:href="#M"/>
                </mask>
                <path fill="#DED9D4" d="M12.8 17.439l-.96 1.075 1.2.478.36-.359c-.12-.477-.36-.836-.6-1.194" mask="url(#N)"/>
            </g>
            <g transform="translate(43 9)">
                <mask id="P" fill="#fff">
                    <use xlink:href="#O"/>
                </mask>
                <path fill="#BDEDFA" d="M12.08 24.606l-.96 1.314-1.32-.717.12 1.075 1.08.597h.12l.6.358c.12-.238.24-.597.48-.836l-.48-.12.6-.835c0-.359-.12-.597-.24-.836m.48-7.645l-3.12 3.822.12.837 2.04-2.509 1.2.478c.12-.239.24-.358.36-.478l-1.2-.478.96-1.075c-.24-.238-.36-.477-.36-.597" mask="url(#P)"/>
            </g>
            <g transform="translate(43 9)">
                <mask id="R" fill="#fff">
                    <use xlink:href="#Q"/>
                </mask>
                <path fill="#FFDB94" d="M9.44 15.528h-.6l.12 1.433 1.32-1.314c-.24-.12-.6-.12-.84-.12" mask="url(#R)"/>
            </g>
            <g transform="translate(43 9)">
                <mask id="T" fill="#fff">
                    <use xlink:href="#S"/>
                </mask>
                <path fill="#F28F3B" d="M13.4 18.633l-.36.359c-.12.12-.24.358-.36.478-.6.955-.96 2.269-.72 3.941 0 .359.12.717.24 1.075.12.24.24.478.24.717v.12c.12-.359.36-.717.48-1.195-.12-.358-.24-.836-.36-1.314v-.478c0-.955.36-1.91.96-2.628 0-.119.12-.119.12-.119 0-.239-.12-.597-.24-.956" mask="url(#T)"/>
            </g>
            <g transform="translate(43 9)">
                <mask id="V" fill="#fff">
                    <use xlink:href="#U"/>
                </mask>
                <path fill="#BDEDFA" d="M13.76 20.425c-.48.597-.72 1.433-.72 2.15v.358c0 .24 0 .478.12.598.36-.956.6-2.15.6-3.106" mask="url(#V)"/>
            </g>
            <g transform="translate(43 9)">
                <mask id="X" fill="#fff">
                    <use xlink:href="#W"/>
                </mask>
                <path fill="#E0C9E0" d="M13.64 19.828l-.12.12c-.6.716-.96 1.672-.96 2.627v.478c0 .478.12.836.36 1.314.12-.24.12-.478.24-.717 0-.239-.12-.358-.12-.597v-.358c0-.837.24-1.553.72-2.15v-.12c0-.239-.12-.478-.12-.597" mask="url(#X)"/>
            </g>
        </g>
        <g>
            <path fill="#704F47" d="M73.61 16.842a3.292 3.292 0 0 1 0-2.132c2.244.237 9.454 1.421 7.445 5.33-1.773 3.078-6.855-.948-7.445-3.198M74.318 24.895a3.292 3.292 0 0 1 0-2.132c2.246.237 9.455 1.421 7.446 5.33-1.655 3.197-6.855-.83-7.446-3.198"/>
            <path fill="#66403D" d="M77.036 16.25c-.827 1.54-2.482-.355-3.073-1.184-.236-.356-.709 0-.472.355.59.71 1.181 1.421 2.009 1.776.354.237.827.237 1.182.119.473-.119.709-.474.945-.948.236-.237-.355-.473-.59-.118M77.39 24.776c-.709.83-2.007-.355-2.598-.829-.237-.236-.71.119-.474.356.828.829 2.482 2.013 3.545.829.238-.237-.236-.71-.473-.356"/>
            <path fill="#704F47" d="M46.309 18.382c-.946 2.605-2.955 4.737-4.846 6.75-1.536 1.54-3.9 2.842-4.963 4.618-.473 4.382-2.482 8.408-5.2 11.96-.237.474-.355 1.067-.355 1.659v.355c.118 4.5 0 11.368.237 15.868 3.309 1.777 3.545 1.894 6.381 3.67.355-.235.591-2.485.946-2.722 1.182-.83 2.127-1.895 3.309-2.724.709-.475 1.773-.71 2.364-1.421 1.536-1.776.472-5.447.354-7.579-.118-3.434.355-6.987 0-10.421-.354-2.605 0-4.618 1.536-6.987.119-.237.355-.355.591-.592.237-.237.591-.474.71-.71.945-1.066 1.418-2.487 1.654-3.908.473-2.487.118-6.869-2.718-7.816"/>
            <path fill="#66403D" d="M47.255 22.17c-.237.711-.71 1.304-1.419 1.54-.709.237-1.418-.118-1.89-.592-.237-.355-.71.119-.473.356.59.71 1.536 1.065 2.482.829 1.063-.237 1.772-1.066 2.009-2.132 0-.355-.71-.474-.71 0"/>
        </g>
    </g>
</svg>
