<svg xmlns="http://www.w3.org/2000/svg" width="118" height="76" viewBox="0 0 118 76">
    <g fill="none" fill-rule="evenodd">
        <path fill="#085EBD" d="M6.651 33.635c0 .208-.169.376-.378.376a.377.377 0 0 1-.378-.376.377.377 0 1 1 .757 0M20.614 33.635c0 .208-.169.376-.378.376a.377.377 0 0 1-.378-.376.377.377 0 1 1 .757 0"/>
        <path fill="#FFD200" d="M.097 58.831h13.109v-8.82H.097z"/>
        <path fill="#000" d="M65.25 111.871H16.118c-2.694 0-4.898-2.19-4.898-4.866v-63.66c0-2.676 2.204-4.866 4.898-4.866h49.134c2.694 0 4.899 2.19 4.899 4.867v63.659c0 2.677-2.205 4.866-4.9 4.866"/>
        <path fill="#4BB4E6" d="M75.038 61.351L62.54 41.257l-.007.01c-1.422-2.274-2.882-2.612-2.882-2.612l-9.699-3.3H41.69l-9.699 3.3s-1.54.36-2.998 2.805L16.62 61.35s-1.901 2.835-1.06 5.326c.554 1.642 2.049 2.78 5.048 2.78h4.373c-.37 8.477-.135 16.046 1.735 16.046H64.88c1.33 0 1.581-7.569 1.358-16.046h4.812c2.999 0 4.494-1.138 5.048-2.78.841-2.491-1.06-5.326-1.06-5.326"/>
        <path fill="#6D4B1F" d="M55.552 69.454s2.21.128 2.192-1.358c-.02-1.657-1.835-5.248-11.613-5.234v6.592h9.421z"/>
        <path fill="#8F8F8F" d="M-1 124.864h118.467V69.482H-1z"/>
        <path fill="#FFF" d="M59.02 69.482v-2.33c0-2.005 1.65-3.645 3.67-3.645h34.765c2.018 0 3.67 1.64 3.67 3.646v2.329H59.019zM111.573 61.684H60.687a.732.732 0 0 1-.732-.728V26.772c0-.4.33-.728.732-.728h50.886c.403 0 .732.327.732.728v34.184c0 .4-.33.728-.732.728"/>
        <path fill="#8F8F8F" d="M93.93 43.864c0 2.37-1.935 4.291-4.32 4.291-2.386 0-4.32-1.921-4.32-4.29 0-2.37 1.934-4.292 4.32-4.292 2.385 0 4.32 1.921 4.32 4.291M93.93 52.472c0-2.37-1.935-4.291-4.32-4.291-2.386 0-4.32 1.921-4.32 4.291v17.01h8.64v-17.01z"/>
        <path fill="#8F8F8F" d="M87.316 51.456h4.587v-6.988h-4.587z"/>
        <path fill="#FFF" d="M41.936 36.567l5.71 10.626L50.4 36.025z"/>
        <path fill="#5B3C1A" d="M41.688 31.77v3.6c0 2.269 2.11 3.109 4.476 3.109 2.365 0 4.3-.84 4.3-3.11v-3.6h-8.776z"/>
        <path fill="#6D4B1F" d="M59.203 17.782c0 9.352-5.81 16.23-12.978 16.23s-12.978-6.878-12.978-16.23c0-9.353 5.81-13.936 12.978-13.936 7.167 0 12.978 4.583 12.978 13.936"/>
        <path fill="#000" d="M36.696 11.762l-.59 5.35-3.54-.707C32.566 6.036 38.28.868 46.226.868c7.946 0 13.823 5.297 12.977 15.662l-2.135-7.137-1.165.598-.403-2.585-10.8 3.465 1.225-1.882-9.229 2.773z"/>
        <path fill="#6D4B1F" d="M60.92 19.214c0 2.033-1.322 3.681-2.951 3.681-1.63 0-2.952-1.648-2.952-3.681 0-2.034 1.322-3.007 2.952-3.007s2.95.973 2.95 3.007M36.696 19.214c0 2.033-1.321 3.681-2.95 3.681-1.63 0-2.952-1.648-2.952-3.681 0-2.034 1.322-3.007 2.951-3.007 1.63 0 2.951.973 2.951 3.007"/>
        <path fill="#000" d="M43.042 17.7c0 .647-.528 1.172-1.18 1.172-.65 0-1.178-.525-1.178-1.171 0-.647.528-1.171 1.179-1.171s1.179.524 1.179 1.17M56.679 17.7c0 .647-.528 1.172-1.18 1.172-.65 0-1.178-.525-1.178-1.171 0-.647.528-1.171 1.179-1.171s1.179.524 1.179 1.17"/>
        <path fill="#5B3C1A" d="M48.89 16.633v5.477c0 .57.204.85.65.85h1.884c.447 0 .797-.362.515-.85l-3.05-5.477z"/>
        <path fill="#FFF" d="M52.494 26.733c0 1.069-1.745 1.935-3.897 1.935-2.153 0-3.897-.866-3.897-1.935h7.794z"/>
        <path fill="#4BB4E6" d="M44.774 28.591c-1.038 0-1.922.316-2.326.766-3.592-.331-5.94-3.534-6.987-5.352 1.307-.69 2.093-2.54 1.814-4.594-.307-2.264-1.795-3.947-3.423-4.007.016-.828.066-1.655.172-2.474.367-2.83 1.273-5.626 3.152-7.82 3.42-3.996 8.586-4.242 13.482-3.604-3.504-1.59-9.707-1.745-13.496 1.5-3.404 2.915-4.67 7.977-4.097 12.502-1.56.481-2.55 2.498-2.242 4.768.322 2.37 1.934 4.106 3.649 4.007 1.066 1.94 3.669 5.69 7.913 6.054.36.497 1.283.856 2.389.856 1.417 0 2.566-.583 2.566-1.301s-1.149-1.3-2.566-1.3"/>
    </g>
</svg>
