<svg id="Calque_1" data-name="Calque 1" xmlns="http://www.w3.org/2000/svg" xmlns:xlink="http://www.w3.org/1999/xlink" viewBox="0 0 125 76"><defs><style>.cls-1{fill:none;}.cls-2{clip-path:url(#clip-path);}.cls-3{fill:#704f47;}.cls-4{fill:#ff7800;}.cls-5{fill:#828080;}.cls-6{fill:#1c2633;}.cls-7{fill:#82c7a6;}.cls-8{clip-path:url(#clip-path-49);}.cls-9{fill:#297394;}.cls-10{fill:#e88a33;}.cls-11{fill:#ede8e0;}.cls-12{fill:#bae0d1;}.cls-13{clip-path:url(#clip-path-52);}.cls-14{fill:#4fb2e3;}.cls-15{fill:#c29470;}.cls-16{fill:#e0d9d1;}.cls-17{fill:#d9d1c7;}.cls-18{fill:#ba8c69;}.cls-19{fill:#b5e8f7;}.cls-20{fill:#ffd178;}.cls-21{fill:#d6d6d6;}.cls-22{fill:#f27830;}.cls-23{fill:#debdd9;}.cls-24{fill:#edede8;}.cls-25{fill:#c2e8db;}.cls-26{fill:#c7a88a;}.cls-27{fill:#ded9d4;}.cls-28{fill:#bdedfa;}.cls-29{fill:#ffdb94;}.cls-30{fill:#f28f3b;}.cls-31{fill:#e0c9e0;}.cls-32{fill:#66403d;}</style><clipPath id="clip-path"><rect class="cls-1" x="2" y="-4.3" width="120.2" height="80.6"/></clipPath><clipPath id="clip-path-49"><polygon class="cls-1" points="47.9 11.7 51.7 43.8 76.1 40.2 72.3 8.6 47.9 11.7"/></clipPath><clipPath id="clip-path-52"><polygon class="cls-1" points="48 12.1 51.6 42.8 76.1 39.7 72.4 9.1 48 12.1"/></clipPath></defs><title>Trouver une Agence</title><g class="cls-2"><path class="cls-3" d="M74.2,35.5c-1.9-.6-4.6-.3-6.3-1.4A117.25,117.25,0,0,1,53.6,23.2c-.9,1.7-1.9,3.3-2.7,4.7-1.1,1.9-2.3,3.6-3.4,5.5-.9,1.5-.7,3.1-2,4.5-1.7,1.8-4.9,2.2-6.3,4-1,1.2-.7,2.7-.8,4.2C37.5,53,26.8,60,34.9,66.2c3.3,2.5,7.3,4,11,5.6,3,1.2,6.3,1.4,7.9-1.8,1.4-2.7,1.5-5.7,3.9-7.9,2.1-2,5.2-2.5,7.3-4.4,3-2.7,5.4-6.6,7.5-10.1,1.8-3.1,4.1-6.5,3.9-10.3,0-1.1-1.3-1.5-2.2-1.8"/></g><g class="cls-2"><path d="M57.5,68.7C57.1,67.9,36,54.2,33.3,54c-1.8-.1-3.5,2.7-4.3,3.6C25.8,61.5-5.5,99.1-6.3,106.8H34.9C42.6,99.7,54,77.5,57.2,71.2c.6-1.1.7-1.8.3-2.5"/></g><g class="cls-2"><path class="cls-4" d="M33.3,56.1a.61.61,0,0,0-1.2-.2.37.37,0,0,1-.1.3.1.1,0,0,1-.1.1c0,.1-.1.1-.1.2a.6.6,0,0,0,1.1.5,3.55,3.55,0,0,0,.4-.9"/></g><g class="cls-2"><path class="cls-4" d="M35.9,58.3a.62.62,0,0,0,.1-.7.55.55,0,0,0-.8-.2l-.3.3v.1a.62.62,0,0,0-.1.7.55.55,0,0,0,.8.2l.3-.3v-.1"/></g><g class="cls-2"><path class="cls-4" d="M34.2,61.1h0a.61.61,0,0,0,.1-.8.55.55,0,0,0-.8-.2,1.62,1.62,0,0,0-.5.9.61.61,0,1,0,1.2.2v-.1"/></g><g class="cls-2"><path class="cls-4" d="M39.1,60.5A.6.6,0,1,0,38,60l-.6.9a.64.64,0,0,0,.9.9c.3-.5.6-.9.8-1.3"/></g><g class="cls-2"><path class="cls-4" d="M36.9,62.7a.53.53,0,0,0-.7.5h0c0,.1-.1.1-.1.2h0a.78.78,0,0,0-.2.8.55.55,0,0,0,.8.2,1.83,1.83,0,0,0,.7-1c.1-.3-.2-.6-.5-.7"/></g><g class="cls-2"><path class="cls-4" d="M41.4,63.6h0c0-.1.1-.1.1-.2s.2-.3.2-.5a.61.61,0,0,0-1.2-.2v.1h0c0,.1-.1.1-.1.2s-.2.3-.2.5a.53.53,0,0,0,.5.7.73.73,0,0,0,.7-.6h0"/></g><g class="cls-2"><path class="cls-4" d="M40.3,66.8a.6.6,0,1,0-1.1-.5,3.39,3.39,0,0,0-.6,1.5.62.62,0,0,0,1.2.3,2.54,2.54,0,0,1,.5-1.3"/></g><g class="cls-2"><path class="cls-4" d="M44.7,65.5h0c0-.1.1-.1.1-.2s.2-.3.2-.5a.61.61,0,0,0-1.2-.2v.1h0c0,.1-.1.1-.1.2s-.2.3-.2.5a.53.53,0,0,0,.5.7.82.82,0,0,0,.7-.6h0"/></g><g class="cls-2"><path class="cls-4" d="M43,69.2a.61.61,0,0,0-1.2-.2h0c0,.1-.1.1-.1.2s-.2.3-.3.4a.6.6,0,1,0,1.1.5,1.93,1.93,0,0,0,.5-.9"/></g><g class="cls-2"><path class="cls-4" d="M46.9,67.2a.61.61,0,0,0-1.2-.2l-.2.7a.61.61,0,0,0,1.2.2Z"/></g><g class="cls-2"><path class="cls-4" d="M45.7,72a.1.1,0,0,1,.1-.1c.1-.1.1-.3.2-.4a.61.61,0,0,0-1.2-.2h0a.1.1,0,0,1-.1.1c-.1.1-.1.3-.2.4a.53.53,0,0,0,.5.7c.3.1.6-.2.7-.5Z"/></g><g class="cls-2"><path class="cls-4" d="M44.5,74.3a.6.6,0,0,0-1.2,0v.2h0v.2c0-.1-.1.1-.1.1l-.1.1h0a.58.58,0,1,0,.6,1,1.48,1.48,0,0,0,.8-1.6"/></g><g class="cls-2"><path class="cls-4" d="M51.5,67.6a.6.6,0,0,0-1.2,0v.1h0v.1h0c-.1.2-.2.3-.2.4a.6.6,0,1,0,1.1.5,2.43,2.43,0,0,0,.3-1.1"/></g><g class="cls-2"><path class="cls-4" d="M49.7,71.5a.62.62,0,0,0-1.2-.3,6.72,6.72,0,0,1-.6,1.2c-.1.3-.1.7.3.8a.5.5,0,0,0,.8-.3c.2-.4.5-.9.7-1.4"/></g><g class="cls-2"><path class="cls-4" d="M47.6,75.4a.64.64,0,0,0-.9-.9,10.93,10.93,0,0,0-.8,1.5c-.1.3-.1.7.3.8a.5.5,0,0,0,.8-.3c.2-.2.3-.7.6-1.1"/></g><g class="cls-2"><path class="cls-4" d="M54.1,70.8a.64.64,0,1,0-.9-.9,5.07,5.07,0,0,0-.9,1.6c-.1.3-.1.7.3.8a.5.5,0,0,0,.8-.3,5.23,5.23,0,0,1,.7-1.2"/></g><g class="cls-2"><path class="cls-4" d="M41.4,72.6c0-.2-.1-.3-.2-.5a.55.55,0,0,0-.8-.2.54.54,0,0,0-.2.8.61.61,0,0,0,1.2.2c-.1,0,0-.2,0-.3"/></g><g class="cls-2"><path class="cls-4" d="M30,58.7a.44.44,0,0,0-.6.4c0,.1-.1.2-.1.3v.1a.49.49,0,0,0-.1.7.62.62,0,0,0,.7.2,1.7,1.7,0,0,0,.6-1c-.1-.3-.2-.6-.5-.7"/></g><g class="cls-2"><path class="cls-4" d="M31.8,63.6a.51.51,0,1,0-1-.2h0v.1h0v.1a1.76,1.76,0,0,1-.4.5c-.2.2,0,.6.2.7a.57.57,0,0,0,.7-.2,9.29,9.29,0,0,0,.5-1"/></g><g class="cls-2"><path class="cls-4" d="M34.5,65.8c-.3-.2-.6,0-.8.2a.76.76,0,0,0-.2.4c-.1.1-.1.2-.2.2a.58.58,0,1,0,.6,1,4.81,4.81,0,0,0,.9-1.1c.1-.1,0-.5-.3-.7"/></g><g class="cls-2"><path class="cls-4" d="M37.6,71.4a1.85,1.85,0,0,0-.2-.7.58.58,0,0,0-1,.6h0a.1.1,0,0,1-.1.1.6.6,0,0,0,.2.8c.3.2.6,0,.8-.2a.6.6,0,0,0,.3-.6"/></g><g class="cls-2"><path class="cls-4" d="M51.2,76.4c.1-.1.1-.2.2-.3h0a.54.54,0,0,0,.2-.8.55.55,0,0,0-.8-.2,2.7,2.7,0,0,0-.7.8.6.6,0,0,0,.2.8.66.66,0,0,0,.9-.3"/></g><g class="cls-2"><path class="cls-4" d="M24.9,70.9a.61.61,0,0,0-1.2-.2.37.37,0,0,1-.1.3.1.1,0,0,1-.1.1c0,.1-.1.1-.1.2a.6.6,0,1,0,1.1.5,3.55,3.55,0,0,0,.4-.9"/></g><g class="cls-2"><path class="cls-4" d="M27.6,73.1a.62.62,0,0,0,.1-.7.55.55,0,0,0-.8-.2l-.3.3v.1a.62.62,0,0,0-.1.7.55.55,0,0,0,.8.2l.3-.3c-.1,0-.1-.1,0-.1"/></g><g class="cls-2"><path class="cls-4" d="M25.9,75.9h0a.61.61,0,0,0,.1-.8.55.55,0,0,0-.8-.2,1.62,1.62,0,0,0-.5.9.61.61,0,0,0,1.2.2c-.1,0,0,0,0-.1"/></g><g class="cls-2"><path class="cls-4" d="M30.8,75.3a.6.6,0,1,0-1.1-.5l-.6.9a.64.64,0,1,0,.9.9,14.8,14.8,0,0,1,.8-1.3"/></g><g class="cls-2"><path class="cls-4" d="M36.5,76.4h0c0-.1.1-.1.1-.2s.2-.3.2-.5a.61.61,0,0,0-1.2-.2v.1h0c0,.1-.1.1-.1.2s-.2.3-.2.5a.53.53,0,0,0,.5.7.73.73,0,0,0,.7-.6h0"/></g><g class="cls-2"><path class="cls-4" d="M34.1,70.9h0c0-.1.1-.1.1-.2s.2-.3.2-.5a.61.61,0,0,0-1.2-.2v.1h0c0,.1-.1.1-.1.2s-.2.3-.2.5a.53.53,0,0,0,.5.7.73.73,0,0,0,.7-.6h0"/></g><g class="cls-2"><path class="cls-4" d="M32.8,74h0c0-.1.1-.1.1-.2s.2-.3.2-.5a.61.61,0,0,0-1.2-.2v.1h0c0,.1-.1.1-.1.2s-.2.3-.2.5a.53.53,0,0,0,.5.7.73.73,0,0,0,.7-.6h0"/></g><g class="cls-2"><path class="cls-4" d="M29.1,70.7h0c0-.1.1-.1.1-.2s.2-.3.2-.5a.61.61,0,0,0-1.2-.2v.1h0c0,.1-.1.1-.1.2s-.2.3-.2.5a.53.53,0,0,0,.5.7,1,1,0,0,0,.7-.6h0"/></g><g class="cls-2"><path class="cls-4" d="M28.4,66.1h0c0-.1.1-.1.1-.2s.2-.3.2-.5a.61.61,0,0,0-1.2-.2v.1h0c0,.1-.1.1-.1.2s-.2.3-.2.5a.53.53,0,0,0,.5.7.73.73,0,0,0,.7-.6h0"/></g><g class="cls-2"><path class="cls-4" d="M25,68h0c0-.1.1-.1.1-.2s.2-.3.2-.5a.61.61,0,0,0-1.2-.2v.1h0c0,.1-.1.1-.1.2s-.2.3-.2.5a.53.53,0,0,0,.5.7A.73.73,0,0,0,25,68h0"/></g><g class="cls-2"><path class="cls-4" d="M26.6,63.5h0c0-.1.1-.1.1-.2s.2-.3.2-.5a.61.61,0,0,0-1.2-.2v.1h0c0,.1-.1.1-.1.2s-.2.3-.2.5a.53.53,0,0,0,.5.7.73.73,0,0,0,.7-.6h0"/></g><g class="cls-2"><path class="cls-4" d="M21.6,73.5a.44.44,0,0,0-.6.4c0,.1-.1.2-.1.3v.1a.49.49,0,0,0-.1.7.62.62,0,0,0,.7.2,1.7,1.7,0,0,0,.6-1,.67.67,0,0,0-.5-.7"/></g><g class="cls-2"><path class="cls-3" d="M81.3,29.1a5.23,5.23,0,0,1,1.6.6c.2.2-4.4,8.3-6.5,6.6-2.6-2.2,2.3-7.5,4.9-7.2"/></g><g class="cls-2"><path class="cls-3" d="M76.7,22.7c-1.2.5-2.6,1.4-3.4,1-1.1-.6,1.9-2.9,2.5-3.4a33.15,33.15,0,0,0,2.7-2.6c.5-.6,1.2-1.4.7-2.2s-1.5-.1-2.1.3A104.05,104.05,0,0,0,68.5,22c-1.5,1.1-3,2.3-4.6,3.4-1,.8-2.1,1.9-3.4,1.6-1-.2-2.1-1.4-2.8-.1a8.23,8.23,0,0,0-.7,2.8,16.37,16.37,0,0,1-.4,2.5,12.11,12.11,0,0,0,0,3.8,32.08,32.08,0,0,1-.6,5.8c.6,2,.5,3.9,2.8,4.1a9.81,9.81,0,0,0,6-1.5c1-.6,1.2-1.4,2.4-1.2,1,.2,2,1,3.1.8.9-.2,1.5-1.5,2-2.2,1.2-1.7,4.8-5.2,3.9-7.5-.8-2-1.2-2-.4-4.3.7-1.9,2.8-3.7,2.8-5.9.2-2-.8-1.9-1.9-1.4"/></g><g class="cls-2"><path class="cls-3" d="M76.8,10.4l-.9,1.2c-.6.9-.8,2.7-2,3s-1.9-2-2.1-2.9c-.5-2.1,1.5-3.6,3.1-4.6,1.8-1.1,3.5-.8,4.4,1.1a8.43,8.43,0,0,0-2.5,2.2"/></g><g class="cls-2"><path class="cls-3" d="M77.5,22.6l-.5,1c0,.2.5,2.9.7,2.8,1.4-.6,2.9-2.4,2.3-4-.3-.7-1.6-2.4-2.4-1.5-.5.5.1,1.2-.1,1.7"/></g><g class="cls-2"><path class="cls-5" d="M71.4,1.1C69.8.2,68.1.4,66.1.7s-4.7.5-6.8.7-4.1.4-6,.7-4.7.5-6.1,1.7C46,4.8,45.5,7,45.5,8.6c-.1,3.2.7,6.4,1.1,9.6.5,3.9.9,7.6,1.3,11.5.3,2.9.8,6.8,1.2,9.7.4,2.5.4,4.3.8,6.8.3,1.8.1,4.1,2,5.3a8.76,8.76,0,0,0,4.2.8c2.1-.1,4.1-.5,6.2-.7a59.68,59.68,0,0,0,7.2-1.1c2.1-.4,4.7-.2,6.6-1.2,2.2-1.1,2.5-3.4,2.3-5.9-.9-9.6-2.5-19.1-3.3-28.6-.2-2.6-.8-5.3-1.2-8-.3-2.1-.3-4.4-2.5-5.7"/></g><g class="cls-2"><path class="cls-4" d="M69.3,4.8c-3.6.5-7.3.7-10.8,1.3-2.7.4-5.6.1-8.2,1.1-3.3,1.3-3.5,4.3-3.1,7.5.2,1.9.4,3.8.7,5.6.5,4.4,1.1,8.9,1.6,13.3.3,2.5.6,4.9.9,7.4.2,2-.1,4.5,1.1,6.3a1.21,1.21,0,0,0,.5.5c1.3,1.1,3.3.3,4.9.1,4.4-.5,8.9-1.1,13.3-1.6,2.4-.3,4.7-.6,7.1-.8h0L75.2,28.1Q74,18.05,73.1,8c-.3-2.6-1.3-3.6-3.8-3.2"/></g><g class="cls-2"><path class="cls-6" d="M51.5,2.3a3.05,3.05,0,0,0-1.7,0,2,2,0,0,0-.8.4c0,.2,0,.5.3.6a3.75,3.75,0,0,0,1.1.1,1.61,1.61,0,0,0,.9-.3c.4-.2.2-.5.2-.8"/></g><g class="cls-2"><path d="M49.6,2.3c-.4.1-.8.6-.1.7h0c.8.1,1.2-.4.9-.6-.1-.2-.4-.3-.8-.1"/></g><g class="cls-2"><path d="M73.4,44.1c-1.4.2-15.6,1.9-17.3,2.1-4.6.6-4.4-2.9-4.5-3.5-.1-1.2-.2-1.4-.3-2.3-.1-.5-.9-7.4-1.2-10.3-.1-.8-.2-1.5-.3-2.3s-.2-1.7-.3-2.6c-.2-1.5-1.5-12.8-1.7-14.3-.4-2.8,2-3.4,3.2-3.5,1.4-.2,2.5-.3,3.9-.5,2.9-.4,5.9-.7,8.8-1,2-.2,2.9-.3,4.9-.6,1.7-.2,3.3-.1,3.6,2.6a16.6,16.6,0,0,0,.3,2.2c.2,1.9,3.5,29.1,3.7,30.8.1.5.5,2.8-2.8,3.2M68.1,1.9C64,2.4,53,3.6,49.7,4c-4.3.5-3.5,5.9-3.4,7.5,0,.5,1.8,15,3,25.5.7,5.9,1.3,10.6,1.3,10.7.5,4.5,2.8,5,5.8,4.6,3.2-.4,12.5-1.5,15.7-1.9,6.6-.8,6.3-2.6,5.9-6.6-.2-1.3-.9-8.3-1.8-15.7S74.5,12.8,74.1,9.8c-.1-.4-.1-.8-.2-1.2-.2-2.9-.7-7.3-5.8-6.7"/></g><g class="cls-2"><path d="M63.4,3.5c-.9.1-1.4.2-2.1.3s-2.6.3-4,.5c-.3,0-3.7.2-2.5,1.1.4.3,1.1,0,1.5,0,1-.1,2.4-.3,3.6-.4s2.1-.2,3.7-.4c1.4-.2.9-1.2-.2-1.1"/></g><g class="cls-2"><path class="cls-7" d="M51.2,41.1v.2h0c.1-.1,0-.1,0-.2Z"/></g><g class="cls-2"><path class="cls-5" d="M68.1,47a13.35,13.35,0,0,0-2,0,25.08,25.08,0,0,0-3,.4c-.5.1-3.2.2-1.9,1.6a2.08,2.08,0,0,0,1.3.3c.8,0,1.8-.2,2.7-.3s1.5-.2,2.7-.3,1.6-1.5.2-1.7"/></g><g class="cls-8"><path class="cls-9" d="M65.7,13.6l.1-.3.8-.1c.1,0,.1-.1.1-.2v-.5a.22.22,0,0,0-.2-.2l-.9.1c-.1,0-.1.1-.1.2v.5c0,.1,0,.1.1.2s0,.3.1.3"/></g><g class="cls-8"><path class="cls-9" d="M66,16l.5-.1c.1,0,.1-.1.1-.2v-.5a.22.22,0,0,0-.2-.2l-.6.1c-.1,0-.1.1-.1.2v.5c0,.1,0,.1.1.2H66"/></g><g class="cls-8"><path class="cls-10" d="M70.1,18.1l-.1-.3-.6.1a.22.22,0,0,1-.2-.2v-.5a.22.22,0,0,1,.2-.2l.7-.1a.22.22,0,0,1,.2.2v.5c0,.1,0,.2-.1.2s-.1.3-.1.3"/></g><polygon class="cls-11" points="48 12.1 51.6 42.8 76.1 39.7 72.4 9.1 48 12.1"/><polygon class="cls-12" points="54.4 12.9 53.7 13.2 62 13.4 65.1 11.5 54.4 12.9"/><polygon class="cls-12" points="51.6 26.3 53.6 27.1 58.3 21.4 65.1 18 60.7 17.6 51.6 26.3"/><g class="cls-13"><path class="cls-14" d="M75.9,12.2l-1.1-1.4s-5.5.3-6.6.6a4.9,4.9,0,0,1-1.9.2c-.6.1-1.3.6-.9.9a2.11,2.11,0,0,0,1.9,0,4.65,4.65,0,0,1,2-.3c1.9.6,6.2,0,6.6,0"/></g><g class="cls-13"><path class="cls-14" d="M48.7,23.8c.6-.4,1.4-.6,1.8-1.2a4.67,4.67,0,0,1,.9-1c.3-.3.7-.1,1.4-.4.9-.4,1.4-.2.9.6s-1.7,1-1.9,1.4-.4,2-2.8,1.4c-.1,0-.9-.2-.3-.8"/></g><polygon class="cls-15" points="52.2 31.3 55.9 33.3 57.9 31.8 53.6 29.6 52.2 31.3"/><polygon class="cls-16" points="50.5 33.5 51.3 40.5 54.9 38.2 53.3 35.5 55.3 33.9 51.8 31.9 50.5 33.5"/><polygon class="cls-15" points="65.1 24.1 65.6 24.7 66.6 24.2 66.1 23.6 65.1 24.1"/><polygon class="cls-15" points="66.7 26.2 67.3 26.9 68.4 26.4 67.8 25.6 66.7 26.2"/><polygon class="cls-15" points="63 25 63.4 25.7 64.5 25.2 64 24.5 63 25"/><polygon class="cls-15" points="63.7 26.1 64.2 26.8 65.3 26.3 64.7 25.6 63.7 26.1"/><polygon class="cls-15" points="67.7 24.1 68.3 24.7 69.3 24.2 68.7 23.6 67.7 24.1"/><polygon class="cls-15" points="64 19.8 64.6 20.4 65.6 20 65 19.4 64 19.8"/><polygon class="cls-15" points="49.9 28.8 50 29 51.3 29.8 52.2 28.9 50.6 28 49.9 28.8"/><polygon class="cls-15" points="71.9 22.5 72.6 23 73.3 22.4 72.6 21.9 71.9 22.5"/><polygon class="cls-15" points="73.2 21.4 73.9 21.9 73.9 21.9 73.8 20.9 73.2 21.4"/><polygon class="cls-15" points="68.7 18.9 70.3 19.8 71 19.4 69.2 18.7 68.7 18.9"/><polygon class="cls-15" points="64.4 27.2 65 28 66.1 27.5 65.5 26.7 64.4 27.2"/><polygon class="cls-15" points="49.1 14.9 48.3 14.9 48.4 15.4 52.9 15.3 54 14.7 49.8 14.5 49.1 14.9"/><polygon class="cls-15" points="54.5 14.1 56.2 14.1 56.5 14 54.8 13.9 54.5 14.1"/><polygon class="cls-15" points="51.6 13.9 53.3 13.9 53.6 13.8 51.9 13.7 51.6 13.9"/><polygon class="cls-15" points="48.4 13.6 50.1 13.7 50.4 13.5 48.7 13.5 48.4 13.6"/><polygon class="cls-15" points="57.5 14.2 59.3 14.3 59.6 14.1 57.8 14 57.5 14.2"/><polygon class="cls-15" points="64.7 13.8 64.9 13.9 66.6 13.6 66.3 13.5 64.7 13.8"/><polygon class="cls-15" points="67.3 13.3 67.5 13.4 69.1 13.1 68.9 13 67.3 13.3"/><polygon class="cls-15" points="69.9 17.2 73.4 17.5 73.3 16.6 70.1 16.5 69.9 17.2"/><polygon class="cls-15" points="62.2 16.5 64.9 16.8 65.1 16.3 62.4 16.1 62.2 16.5"/><polygon class="cls-15" points="53.6 16.7 53.1 17.2 53.9 17.2 54.5 16.6 53.6 16.7"/><polygon class="cls-15" points="56.7 15.7 57.5 15.6 57.9 15.2 57.2 15.2 56.7 15.7"/><polygon class="cls-15" points="51.3 16.9 50.7 17.5 51.4 17.4 52.1 16.8 51.3 16.9"/><polygon class="cls-17" points="68.8 13.5 64.8 14.2 65.3 14.6 67.7 14.3 70.7 14.8 73 14.3 73 13.9 72.9 13.2 68.8 13.5"/><g class="cls-13"><path class="cls-17" d="M66,20.7l-3.9,1.4H62c-.1,0-.1,0-.2-.1L61,20.9,59,22l-.5.6a4.67,4.67,0,0,1,.5,1,3.38,3.38,0,0,1,1.9-.9h.5a3.17,3.17,0,0,1,2.3.9l2.2-.9H66l1.4-.6Z"/></g><polygon class="cls-16" points="48.2 14.4 48.3 14.9 49.1 14.9 49.8 14.5 54 14.7 52.9 15.3 48.4 15.4 48.4 15.5 48.4 15.7 55.5 15.6 56.9 14.5 48.2 13.9 48.2 14.4"/><polygon class="cls-18" points="49.1 14.9 48.3 14.9 48.4 15.4 52.9 15.3 54 14.7 49.8 14.5 49.1 14.9"/><polygon class="cls-16" points="57.1 17.6 55.7 20.2 59 17.4 58.2 17.2 57.1 17.6"/><g class="cls-13"><path class="cls-19" d="M55.1,14.4l1.6.1-1,1H53.5Zm.3,1.6,1.5-1.5,1.7.1-.9,1.2Zm5.5-2.3a.1.1,0,0,0-.1-.1c-.2,0-3.2-.1-5.8-.2h0c-.9,0-5.3-.3-6-.3-.1,0-.2,0-.2.1a.1.1,0,0,0,.1.1c.7,0,5.1.3,5.7.3l-1,.5-7.3-.5c-.1,0-.2,0-.2.1v.1l8.7.6L53,15.5l-6.6.1a.35.35,0,0,0-.2.1c0,.1,0,.1.1.1l9.2-.1-.5.4-7.1.7a.35.35,0,0,0-.2.1c0,.1,0,.1.1.1l3-.3-2.5,2.4c-.1.1-.1.2,0,.2h.1c.1,0,.1,0,.2-.1l2.6-2.5,2-.2-2,2c-.1.1-.1.2,0,.2h.1c.1,0,.1,0,.2-.1l2.1-2.1,7.8-.7h0a.35.35,0,0,0,.2-.1c0-.1-.1-.1-.2-.1l-3.2.3.9-1.1,1.6.1h0c.1,0,.1,0,.1-.1s0-.1-.1-.1l-5.6-.3-1.3-.1,1.1-.5c3.8.1,5.8.2,5.9.2,0-.2.1-.2.1-.3"/></g><g class="cls-13"><path class="cls-19" d="M54,28.1,57.4,24l3.1,1.3-3.4,4.4ZM57.6,30l2.5-3.4,1,2.2-2.2,1.9Zm2,1,2.1-1.8a.44.44,0,0,0,.1-.5l-1.3-2.6.5-.7.9-.4,2.7,4.7-3.7,1.9Zm11.9-4.9-1.5.8L66.5,23l1.3-.6Zm-3.8,2-3.2-4.2,1.5-.6,3.4,3.9Zm-2.5,1.3-2.7-4.6,1.7-.7,3.1,4.3Zm2.2-7.3-1.4.6h-.1l-5,2.1-3.2-1.3L59,22l2.1-1,.8,1.1a.37.37,0,0,0,.3.1l3.9-1.4Zm3.6.4,3.1-2.3,1.7.5,1.3,3H72.5ZM73.5,20l-3,2.1-1.2-.9,3-1.5Zm-18.3-.4-1,.3c.2-.4.5-1.1.7-1.4l1.2-.3Zm-2.6.8.7-1.4,1.1-.3a9.08,9.08,0,0,0-.7,1.4Zm-2-.7,2.2-.6-.7,1.5-2.3.7Zm-5.5,4.4,8,4.3-7.5,9.1a.83.83,0,0,0-.2.8c0,.1.1.1.2.1s.2-.1.3-.2l7.7-9.5,3.3,1.8H57l1.8,1h.1l1.9,1H61l4.1-2.2h.1a.1.1,0,0,0,.1-.1l.1-.1,6.9-3.7c.1,0,.1-.1.1-.2s-.1-.2-.1-.3l-6-5.7a.37.37,0,0,0-.3-.1l-3.8,1.4-.7-.9,4-2.1,7,5.4a.37.37,0,0,0,.3.1h4.7l7,16.1c.2.4.5.8.8.8h.1c.2,0,.2-.3.1-.6L77.8,24v-.1h0l-2.4-5.2c0-.1-.2-.2-.3-.2a.22.22,0,0,0-.2.2l.7,1.5-3.4-1H72l-1.7.9h0l-2.4-1.3,1.3-.8c.1-.1.1-.2,0-.2a.19.19,0,0,0-.3,0l-1.5.9-.1.1a.1.1,0,0,0,.1.1l2.5,1.3-1,.5-3.1-2.3,1.4-.7c.1,0,.1-.1,0-.2a.37.37,0,0,0-.3-.1l-8.2,4.1a.1.1,0,0,0-.1.1l-5.1,6.2-6.2-3.2,3.9-3.4,4-1.3c.1,0,.1-.1.2-.1L57,17.1c0-.1,0-.1-.1-.2s-.2,0-.2.1l-.5.9-3,.8h0l-2.6.7a.22.22,0,0,0-.2.2l-.9,1.8-1,.3,1.1-2.8c0-.1,0-.1-.1-.1h0c-.1,0-.2.1-.3.2l-1.3,3v.2h.2l2.4-.8-3.5,3-1.6-.8a.76.76,0,0,0-.4.1c0,.2,0,.3.1.4"/></g><g class="cls-13"><path class="cls-19" d="M71,14.8l-3.8,1h0c-.1,0-.2,0-.2-.1s0-.1.1-.2l3.2-.8-2.5-.3-2.4.3h0l-4.2.5c-.1,0-.2,0-.2-.1s.1-.1.2-.1l3.9-.5-1.4-1.2c-.1,0,0-.1,0-.1h.2l1,.8,2.3-.4-1-.5c-.1,0-.1-.1,0-.1h.2l1.2.6,1.3-.2h0l1.6-.1-1.9-.6a.1.1,0,0,1-.1-.1.14.14,0,0,1,.2,0l2.4.7,4.3-.3c.1,0,.2,0,.2.1s0,.1-.1.1l-6.5.5-3.8.7.3.2,2.3-.3h.1l3.1.4,5.2-1.2a.37.37,0,0,1,.3.1c.1.1,0,.1,0,.1l-4.4,1,2.5,1.1c.1,0,.2.1.1.2h-.3l-2.7-1.2Z"/></g><g class="cls-13"><path class="cls-20" d="M46.5,19.3l11.6-2.9h.2l2,.2,1-.9-.9-.7c-.1,0-.1-.1-.1-.2s.1-.1.1-.2l4.7-2.9a.19.19,0,0,1,.3,0c.1.1.1.1-.1.2l-4.2,2.9.8.5,13,.1a1.37,1.37,0,0,1,.8.5c.1.2.2.5,0,.5h-.1L62,15.9l-.8.8,16,1.7a.75.75,0,0,1,.7.5c.1.2.2.6,0,.6h-.2L60.5,17.4,36.2,40.5a2.51,2.51,0,0,1-.8.5c-.2,0-.7-.3-.6-.6a2.11,2.11,0,0,1,.5-1.8L59.7,17.2,58.2,17,46,20.3c-.3.1-.3-.2-.2-.4s.4-.6.7-.6"/></g><g class="cls-13"><path class="cls-19" d="M49,43.8a.37.37,0,0,0,.3-.1L78.8,25.4a.3.3,0,0,0,0-.4c-.2-.1-.4-.2-.5-.1L48.9,42.8c-.3.2-.3.4-.3.7s.2.4.4.3"/></g><polygon class="cls-19" points="72.5 24.1 73.9 28 74.4 27.7 73 23.8 72.5 24.1"/><polygon class="cls-16" points="58.1 39.6 75.9 38.2 75 31 74.8 28.9 58.1 39.6"/><g class="cls-8"><path class="cls-21" d="M53.5,14.5l1.4-.4,2,.2,8.6.9-1.9,1L66,18.1l6.3,4.8L74,27.4,61.4,35c.1,0,.1.1.2.1s.3.2.5.3l12.6-7.8-2-4.9-8.5-6.5L66.6,15,55,13.8l-1.6.4-.8,1.3-5.3,1.4v.3l5.4-1.5Z"/></g><g class="cls-8"><path d="M63.6,16,66,17.9l6.3,4.8L74,27.2,61.9,34.5a2.51,2.51,0,0,1,.7.4l12.1-7.5-2-4.9L64.2,16l2.4-1.2L55,13.6l-1.6.4-.8,1.3-5.3,1.5V17l5.4-1.5.8-1.2,1.4-.4,2,.2,8.6.9Z"/></g><g class="cls-8"><path class="cls-22" d="M65,26.8c.3,2.9-2.9,7.7-2.9,7.7s-4.1-3.9-4.4-6.8,1.2-4.6,3.2-4.9,3.8,1,4.1,4"/></g><g class="cls-8"><path class="cls-19" d="M64.1,26.6a3.08,3.08,0,0,1-2.5,3.5,3,3,0,0,1-3.1-2.8A3.08,3.08,0,0,1,61,23.8a2.86,2.86,0,0,1,3.1,2.8"/></g><g class="cls-8"><path class="cls-23" d="M64.1,26.6h-.2v.3a3.22,3.22,0,0,1-.7,2,2.7,2.7,0,0,1-1.7,1h-.3a2.41,2.41,0,0,1-1.7-.7,3.1,3.1,0,0,1-.9-1.9V27a3.22,3.22,0,0,1,.7-2A2.7,2.7,0,0,1,61,24h.3a2.41,2.41,0,0,1,1.7.7,3.1,3.1,0,0,1,.9,1.9h.4a3,3,0,0,0-1-2.1,2.88,2.88,0,0,0-2-.9H61a2.87,2.87,0,0,0-1.9,1.1,3.49,3.49,0,0,0-.8,2.2v.4a3,3,0,0,0,1,2.1,2.88,2.88,0,0,0,2,.9h.3a2.87,2.87,0,0,0,1.9-1.1,3.49,3.49,0,0,0,.8-2.2v-.4Z"/></g><g class="cls-8"><path class="cls-24" d="M56.5,21.1l-1.2,1.1v.5l1.5-1.5c-.1,0-.2-.1-.3-.1m1.4.8-2.4,2.8.1.7,2.6-3.2c0-.1-.2-.2-.3-.3M57.4,24l-1.7,2.1.3,3,1.1.6.8-1.1a2.92,2.92,0,0,1-.2-.9,5.45,5.45,0,0,1,.6-3.3Zm.8,5.2-.6.8.2.1a2.51,2.51,0,0,1,.4-.7v-.2m-2.1.8.1.9,1,.5a2.09,2.09,0,0,1,.4-.6l-.6-.3h-.1Z"/></g><g class="cls-8"><path class="cls-25" d="M56.9,21.2l-1.5,1.5.2,2L58,21.9a6.73,6.73,0,0,0-1.1-.7"/></g><g class="cls-8"><path class="cls-26" d="M56.2,30.9l.2,1.8s.3-.5.8-1.3Z"/></g><g class="cls-8"><path class="cls-27" d="M58.5,22.6l-.8.9,1,.4.3-.3a3.13,3.13,0,0,0-.5-1"/></g><g class="cls-8"><path class="cls-28" d="M58.3,22.2l-2.6,3.2.1.7L57.5,24l1,.4a1.38,1.38,0,0,1,.3-.4l-1-.4.8-.9a.91.91,0,0,1-.3-.5m-.4,6.4-.8,1.1L56,29.1l.1.9.9.5h.1l.5.3a2.51,2.51,0,0,1,.4-.7l-.4-.1.5-.7a1.45,1.45,0,0,0-.2-.7"/></g><g class="cls-8"><path class="cls-29" d="M55.7,21h-.5l.1,1.2,1.1-1.1a1.7,1.7,0,0,0-.7-.1"/></g><g class="cls-8"><path class="cls-30" d="M59,23.6l-.3.3c-.1.1-.2.3-.3.4a4.81,4.81,0,0,0-.6,3.3,2.92,2.92,0,0,0,.2.9,1.42,1.42,0,0,1,.2.6v.1a10.38,10.38,0,0,0,.4-1c-.1-.3-.2-.7-.3-1.1v-.4a3.49,3.49,0,0,1,.8-2.2.1.1,0,0,1,.1-.1,3.09,3.09,0,0,0-.2-.8"/></g><g class="cls-8"><path class="cls-28" d="M59.3,25.1a3,3,0,0,0-.6,1.8v.3a.75.75,0,0,0,.1.5,8,8,0,0,0,.5-2.6"/></g><g class="cls-8"><path class="cls-31" d="M59.2,24.6l-.1.1a3.49,3.49,0,0,0-.8,2.2v.4a2.28,2.28,0,0,0,.3,1.1c.1-.2.1-.4.2-.6s-.1-.3-.1-.5V27a2.79,2.79,0,0,1,.6-1.8v-.1a4.33,4.33,0,0,0-.1-.5"/></g><g class="cls-2"><path class="cls-3" d="M72.9,14.4a2.78,2.78,0,0,1,0-1.8c1.9.2,8,1.2,6.3,4.5-1.5,2.6-5.8-.8-6.3-2.7"/></g><g class="cls-2"><path class="cls-3" d="M73.5,21.2a2.78,2.78,0,0,1,0-1.8c1.9.2,8,1.2,6.3,4.5-1.4,2.7-5.8-.7-6.3-2.7"/></g><g class="cls-2"><path class="cls-32" d="M75.8,13.9c-.7,1.3-2.1-.3-2.6-1a.25.25,0,1,0-.4.3,4.86,4.86,0,0,0,1.7,1.5,1.18,1.18,0,0,0,1,.1c.4-.1.6-.4.8-.8.2-.2-.3-.4-.5-.1"/></g><g class="cls-2"><path class="cls-32" d="M76.1,21.1c-.6.7-1.7-.3-2.2-.7-.2-.2-.6.1-.4.3.7.7,2.1,1.7,3,.7.2-.2-.2-.6-.4-.3"/></g><g class="cls-2"><path class="cls-3" d="M49.8,15.7a17.63,17.63,0,0,1-4.1,5.7c-1.3,1.3-3.3,2.4-4.2,3.9a20.39,20.39,0,0,1-4.4,10.1,3.19,3.19,0,0,0-.3,1.4v.3c.1,3.8,0,9.6.2,13.4,2.8,1.5,3,1.6,5.4,3.1.3-.2.5-2.1.8-2.3,1-.7,1.8-1.6,2.8-2.3.6-.4,1.5-.6,2-1.2,1.3-1.5.4-4.6.3-6.4-.1-2.9.3-5.9,0-8.8a7.88,7.88,0,0,1,1.3-5.9c.1-.2.3-.3.5-.5s.5-.4.6-.6a6.52,6.52,0,0,0,1.4-3.3c.4-2.1.1-5.8-2.3-6.6"/></g><g class="cls-2"><path class="cls-32" d="M50.6,18.9a2,2,0,0,1-1.2,1.3,1.6,1.6,0,0,1-1.6-.5c-.2-.3-.6.1-.4.3a2.07,2.07,0,0,0,2.1.7,2.25,2.25,0,0,0,1.7-1.8c0-.3-.6-.4-.6,0"/></g><g class="cls-2"><path class="cls-3" d="M94.9,94.5h11.4a17,17,0,0,1,3.5-1.4c2-.6,3.8-.5,5.6-1.8h.1c-.1-2-.1-4-.2-5.9,0-.4-.1-.7-.1-1.1a.75.75,0,0,1-.1-.5V81.7a120.85,120.85,0,0,1-6.3-14.9,62.56,62.56,0,0,0-4.7-11.3,3,3,0,0,0-2.5-1.7c-.9-.1-1.5.1-2.2-.5-.5-.4-1.1-1.1-1.6-1.5-1.3-.9-2.6.2-4,.5-1.6.3-2.1-1.2-3.8-1.1-1.9.2-3.2,1.8-5.3,1.4-1.9-.4-3.1-2-4.3-3.4s-3.7-5.2-5-6.6c-.3-.4-2.8-4.9-2.9-4.9-2.9.8-2.5,5.3-2.2,7.3.5,3.4,2.9,6.6,4.6,9.4,2.2,3.5,6.2,8.6,6.3,12.9.1,5.4-5.8.4-8.1.4-2.5,0-6.3,0-6.5,3.8,2,.4,4,.5,5.5,2.1,2.6,2.7,5.1,5.6,8.5,7.4,2.6,1.4,5.6,2.1,8,3.9,2.9,2.1,4.7,6.1,6.1,9.3.1,0,.1.2.2.3"/></g><path class="cls-32" d="M73,41.8c-.6.4-1.4-.2-1.6-.8-.1-.3-.6-.2-.5.1.3.9,1.4,1.8,2.4,1.1a.25.25,0,1,0-.3-.4"/><path class="cls-32" d="M70.2,71.2c0-.8-1.1-.9-1.7-.6-.4.2-.6-.3-.2-.5,1-.5,2.5-.2,2.5,1,0,.3-.6.4-.6.1"/><rect class="cls-1" width="125" height="76"/></svg>