<svg id="Calque_1" data-name="Calque 1" xmlns="http://www.w3.org/2000/svg" viewBox="0 0 180 160.02"><defs><style>.cls-1{fill:#b8ebd6;}.cls-2{fill:#8f8f8f;}.cls-3{fill:#3f403f;}.cls-4{fill:#714e46;}.cls-5{fill:#ffd200;}.cls-6{fill:#62342d;}.cls-7{fill:#020202;}.cls-8{fill:#fff;}.cls-9{fill:#595959;}.cls-10{fill:#b5e8f7;}.cls-11{fill:#90756f;}</style></defs><title>Achat de crédit </title><rect class="cls-1" y="0.02" width="180" height="160"/><g id="_Groupe_" data-name="&lt;Groupe&gt;"><g id="_Groupe_2" data-name="&lt;Groupe&gt;"><g id="_Groupe_3" data-name="&lt;Groupe&gt;"><polygon id="_Tracé_" data-name="&lt;Tracé&gt;" class="cls-2" points="123.13 97.64 123.12 97.65 123.13 97.64 123.13 97.64"/><circle id="_Tracé_2" data-name="&lt;Tracé&gt;" class="cls-3" cx="138.14" cy="65.81" r="2.47"/><path id="_Tracé_3" data-name="&lt;Tracé&gt;" class="cls-4" d="M55.84,91c-.12-1.1-6.34-1.15-6.34-1.15s-1.82,13.29-2.38,17.86a26.85,26.85,0,0,1-3.06,1.94A43,43,0,0,0,39,111.9a9.94,9.94,0,0,0-2.66,2.3c-1,1.45-.4,2.46.3,2.14,1-.47,3.91-1.86,3.91-1.86-1.51,1.16-3.47,3.27-3,3.86.13.18.9-.24,2.51-1.6,4.82-4.06,7.62-4.53,7.62-4.53a20.93,20.93,0,0,1-.75,2.48.77.77,0,0,0,.75,1.05c.48-.1,1.4-4.09,2-5.35a1.83,1.83,0,0,0-.41-2C50.59,105.12,55.95,92,55.84,91Z" transform="translate(0 0.02)"/><path id="_Tracé_4" data-name="&lt;Tracé&gt;" class="cls-5" d="M68.63,102,62,160h9l8-41.28a.62.62,0,0,1,1.19.24L77,160h7c3.29,0,9.43-60.55,9.43-60.55S74.45,95.66,68.63,102Z" transform="translate(0 0.02)"/><path id="_Tracé_5" data-name="&lt;Tracé&gt;" d="M77.1,132.32l12.74-2c4.48-.55,4.65-29.46,4.05-33.94-3.33-24.74,1.34-21.26.78-26.4,0,0-5-12.19-11-11.56l-7.56.71L66,62.17,58.59,68.1c-5.3,4.31-.81,13.95-.81,13.95s8.74,16.72,4.07,47.58C61.28,133.43,73.28,132.79,77.1,132.32Z" transform="translate(0 0.02)"/><path id="_Tracé_6" data-name="&lt;Tracé&gt;" class="cls-6" d="M62.26,55.26c1.83,3.74,4,10.9,4.15,11.13s3.39,2.15,5.27,3.57a1.28,1.28,0,0,0,1.7-.45c1.21-2,1.08-2.78,2.65-5.67-.52-1.92-2.94-9.35-4-12a21.24,21.24,0,0,1-7.65,3.31" transform="translate(0 0.02)"/><path id="_Tracé_7" data-name="&lt;Tracé&gt;" class="cls-6" d="M55.18,49.07a2.2,2.2,0,0,0-2.82-.93,1.2,1.2,0,0,0-.6.49,1.42,1.42,0,0,0,0,1,12.4,12.4,0,0,0,3.17,5.12,3.49,3.49,0,0,0,1.93,1.28.86.86,0,0,0,.8-.23,1,1,0,0,0,.18-.48,6.76,6.76,0,0,0,0-2.16" transform="translate(0 0.02)"/><path id="_Tracé_8" data-name="&lt;Tracé&gt;" class="cls-6" d="M72.31,44.25a5.2,5.2,0,0,1,.4-2.59.92.92,0,0,1,.31-.44.78.78,0,0,1,.45-.1,2.18,2.18,0,0,1,1.58.91,5,5,0,0,1,.76,1.71,14.2,14.2,0,0,1,.42,5.46,2.57,2.57,0,0,1-.34,1.13,1,1,0,0,1-1,.47c-.42-.11-.65-.53-.84-.92" transform="translate(0 0.02)"/><path id="_Tracé_9" data-name="&lt;Tracé&gt;" class="cls-7" d="M55.27,51.75c-1.82-4.25-4.92-11.17-5-12.43-.1-2.51.17-7.11,7.53-10.45C62.39,26.8,69,29,70.39,31.62c.35.69,3.44,10.88,4,15.19a94.92,94.92,0,0,0-13.78,4.77" transform="translate(0 0.02)"/><path id="_Tracé_10" data-name="&lt;Tracé&gt;" class="cls-4" d="M70.79,38.91c-.91-1.72-.61-.89-2.6-3.3-.59-.71-4.12-.11-7.5.85s-6.8,2.45-7.34,3.85a15.51,15.51,0,0,1,.41,3.6,22.48,22.48,0,0,0,1.64,8.71,48,48,0,0,0,3,4.1,26.43,26.43,0,0,0,9.53,5.33,12.34,12.34,0,0,0,1.39-.2,7.87,7.87,0,0,0,2.84-1.37,25,25,0,0,0,2.79-8.72,21,21,0,0,0-.55-4.09A67.61,67.61,0,0,0,70.79,38.91Z" transform="translate(0 0.02)"/><path id="_Tracé_11" data-name="&lt;Tracé&gt;" class="cls-6" d="M60.12,45.92l-.06-.07a1.12,1.12,0,0,0-.21-.18,1.79,1.79,0,0,0-1.1-.26,2.4,2.4,0,0,0-.8.18,3.58,3.58,0,0,0-.77.47,4,4,0,0,0-1.29,1.31v-.09A1,1,0,0,1,56,47a2.79,2.79,0,0,1,.69-.84,5.48,5.48,0,0,1,.64-.51,2.66,2.66,0,0,1,1-.42,2.28,2.28,0,0,1,1.15.06A1,1,0,0,1,60.12,45.92Z" transform="translate(0 0.02)"/><path id="_Tracé_12" data-name="&lt;Tracé&gt;" class="cls-6" d="M70.56,42.51l0-.08a.61.61,0,0,0-.2-.16,3.17,3.17,0,0,0-1-.27,2.72,2.72,0,0,0-1.66.37,2.44,2.44,0,0,0-.71.69l-.29.42c-.09.14-.17.29-.13.41s-.11-.09,0-.35.12-.27.21-.44a2.6,2.6,0,0,1,.41-.58A2.69,2.69,0,0,1,69,41.75a2.49,2.49,0,0,1,1,.19C70.2,42.06,70.52,42.22,70.56,42.51Z" transform="translate(0 0.02)"/><path id="_Tracé_13" data-name="&lt;Tracé&gt;" class="cls-6" d="M62.85,49.66v-.17c0-.11,0-.27,0-.47a9.87,9.87,0,0,0-.07-1.66,10.36,10.36,0,0,0-1.09-3.48c-.1-.2-.22-.4-.34-.61a2,2,0,0,0-.43-.54l.14.07a1.76,1.76,0,0,1,.36.28,6,6,0,0,1,1,1.33,6.34,6.34,0,0,1,.75,2.34A6,6,0,0,1,62.85,49.66Z" transform="translate(0 0.02)"/><path id="_Tracé_14" data-name="&lt;Tracé&gt;" class="cls-7" d="M67.88,62.06s2.3,1.45,2.85,1.26.53-.7,1.38-2.52c0-.09.07-.25,0-.31C71,59.63,67.78,61.83,67.88,62.06Z" transform="translate(0 0.02)"/><path id="_Tracé_transparent_" data-name="&lt;Tracé transparent&gt;" class="cls-5" d="M64.33,42.95a1.52,1.52,0,0,1-2.68.81A15,15,0,0,0,52.11,47l.25.82a1.52,1.52,0,0,0,1.1.75c.69,1.67,2.09,4.43,6.31,3.17s3.4-3.81,3.42-4.74.59-1,.59-1,.52-.24,1,.53,1.25,3.34,5.47,2.08,3.86-4.35,3.52-6.12a1.51,1.51,0,0,0,.5-1.23l-.25-.83A15,15,0,0,0,64.33,42.95ZM62.44,46.5c0,1.72.06,3.64-3.17,4.41s-4.25-1.1-4.68-2-.71-1.86-.43-2.09a9.74,9.74,0,0,1,6.74-2A1.55,1.55,0,0,1,62.44,46.5Zm10.62-3.13c.13,1,.31,3.12-2.81,4.25s-4.13-.5-5.07-1.94a1.55,1.55,0,0,1,.35-2.27,9.73,9.73,0,0,1,6.74-2C72.62,41.42,72.92,42.38,73.06,43.37Z" transform="translate(0 0.02)"/><path id="_Tracé_transparent_2" data-name="&lt;Tracé transparent&gt;" d="M62.44,46.5c0,1.72.06,3.64-3.17,4.41s-4.25-1.1-4.69-2-.71-1.86-.43-2.09a9.74,9.74,0,0,1,6.74-2A1.55,1.55,0,0,1,62.44,46.5Zm10.62-3.13c.13,1,.31,3.12-2.81,4.25s-4.13-.5-5.07-1.94a1.55,1.55,0,0,1,.35-2.27,9.73,9.73,0,0,1,6.74-2C72.62,41.42,72.92,42.38,73.06,43.37Z" transform="translate(0 0.02)"/><path id="_Tracé_15" data-name="&lt;Tracé&gt;" class="cls-8" d="M61.71,54.74s5.48.54,8.4-1.73C70.11,53,70,61.18,61.71,54.74Z" transform="translate(0 0.02)"/><path id="_Tracé_16" data-name="&lt;Tracé&gt;" class="cls-6" d="M70.24,57.22l0,.13a2,2,0,0,1-.09.37,2.55,2.55,0,0,1-.78,1.12,2.7,2.7,0,0,1-1.89.63,2.57,2.57,0,0,1-1.08-.32,4.14,4.14,0,0,1-.87-.66s.18,0,.47,0,.71.08,1.15.08a4.32,4.32,0,0,0,1.43-.29,4.9,4.9,0,0,0,.82-.4A4,4,0,0,0,70.24,57.22Z" transform="translate(0 0.02)"/><path id="_Tracé_17" data-name="&lt;Tracé&gt;" class="cls-7" d="M50.5,39.61s-3.9-3.42-2.09-3.68-.59-3.12,1.33-3.07.58-3.17,2.58-2.55,1.22-3,2.9-2.3,2.32-2.94,3.86-1.56,2.36-3.18,3.58-1,2.79-1.91,4,.29,2.73-1.41,3.25,1.15,3-1,2.44,2.26S70.53,36,71,36.64s-3.48-4.27-4.66-4.23-9.4,2.74-9.4,2.74Z" transform="translate(0 0.02)"/><path id="_Tracé_18" data-name="&lt;Tracé&gt;" d="M80.51,59.21s11-9,14.1-9.32,10.87.08,10.45,4.78,2.11,10.95,2.11,10.95S85.84,77.17,85.4,77.76,78.34,61.77,80.51,59.21Z" transform="translate(0 0.02)"/><path id="_Tracé_19" data-name="&lt;Tracé&gt;" class="cls-6" d="M84.55,55.63l8.91-3.91L113.4,13.39l20.54,11.06,6.82-3.34,3.85,4.16s-7.47,9.24-9.2,11.72-26.56,24.35-26.56,24.35L96.73,64S85,62.49,84.55,55.63Z" transform="translate(0 0.02)"/><path id="_Tracé_20" data-name="&lt;Tracé&gt;" class="cls-9" d="M153.1,50.58l-50-43.38a2.61,2.61,0,0,0-3.68.25L75,35.41a2.61,2.61,0,0,0,.25,3.69l50,43.71a2.61,2.61,0,0,0,3.7-.26l24.44-28.29A2.61,2.61,0,0,0,153.1,50.58Z" transform="translate(0 0.02)"/><path id="_Tracé_21" data-name="&lt;Tracé&gt;" class="cls-2" d="M152.87,49.12l-50-43.38A2.61,2.61,0,0,0,99.19,6L74.73,34A2.61,2.61,0,0,0,75,37.64l50,43.71a2.61,2.61,0,0,0,3.7-.26L153.14,52.8A2.61,2.61,0,0,0,152.87,49.12Z" transform="translate(0 0.02)"/><path id="_Tracé_22" data-name="&lt;Tracé&gt;" class="cls-10" d="M146,47.62,104.38,11.5a2.18,2.18,0,0,0-3.07.21L80.94,35a2.18,2.18,0,0,0,.21,3.07l41.66,36.4a2.18,2.18,0,0,0,3.08-.22l20.36-23.56A2.18,2.18,0,0,0,146,47.62Z" transform="translate(0 0.02)"/><rect id="_Rectangle_" data-name="&lt;Rectangle&gt;" class="cls-4" x="110.43" y="7.12" width="9.15" height="14.13" rx="4.54" ry="4.54" transform="translate(23.61 -57.03) rotate(30.91)"/><rect id="_Rectangle_2" data-name="&lt;Rectangle&gt;" class="cls-4" x="118.96" y="11.82" width="9.15" height="14.13" rx="4.54" ry="4.54" transform="translate(27.24 -60.75) rotate(30.91)"/><rect id="_Rectangle_3" data-name="&lt;Rectangle&gt;" class="cls-4" x="126.49" y="16.21" width="9.15" height="14.13" rx="4.54" ry="4.54" transform="translate(30.56 -64) rotate(30.91)"/><rect id="_Rectangle_4" data-name="&lt;Rectangle&gt;" class="cls-4" x="136.86" y="15.76" width="9.15" height="14.13" rx="4.54" ry="4.54" transform="translate(31.81 -69.38) rotate(30.91)"/><rect id="_Rectangle_5" data-name="&lt;Rectangle&gt;" class="cls-4" x="87.71" y="51.22" width="9.15" height="18.97" rx="4.54" ry="4.54" transform="translate(11.03 135.56) rotate(-75.98)"/><line id="_Tracé_23" data-name="&lt;Tracé&gt;" class="cls-3" x1="84.73" y1="27.35" x2="93.61" y2="17.56"/><path id="_Tracé_24" data-name="&lt;Tracé&gt;" class="cls-3" d="M85.17,27.77,94.06,18c.55-.6-.35-1.5-.89-.89l-8.88,9.78c-.55.6.35,1.5.89.89Z" transform="translate(0 0.02)"/><path id="_Tracé_25" data-name="&lt;Tracé&gt;" d="M56.49,70.86a145.41,145.41,0,0,0-7.63,17.77,4,4,0,0,0,1.42,4.45c2.31,1.73,4.29,1.77,7.68-2.3l7.39-8.49Z" transform="translate(0 0.02)"/><path id="_Tracé_26" data-name="&lt;Tracé&gt;" class="cls-5" d="M77.9,63.24a8,8,0,0,0-2.09-4l-1.1.32a18.46,18.46,0,0,1,1,4c0,.72-1.67,4.85-2.42,5.47-.44.54-3.85-.78-4.79-1.39a7.19,7.19,0,0,1-2.34-1.86c-.08-.12-.7-2-1-3l-1,.83a3.59,3.59,0,0,0-.55,1.64,2.37,2.37,0,0,0,.08.5,3.22,3.22,0,0,0,.35.7,3.06,3.06,0,0,0,.3.35c.29.29.6.56.92.82,2.77,1.61,6.44,4.3,8.38,4.71a3,3,0,0,0,.93-.94,29.64,29.64,0,0,0,2.1-4.1A19.14,19.14,0,0,0,78,63.59C77.94,63.47,77.92,63.36,77.9,63.24Z" transform="translate(0 0.02)"/><path id="_Tracé_27" data-name="&lt;Tracé&gt;" class="cls-5" d="M51.63,90.5a7.77,7.77,0,0,1-2.31-3.25q-.24.69-.46,1.37a4,4,0,0,0,1.42,4.45c2.09,1.57,3.91,1.75,6.76-1.25A6.65,6.65,0,0,1,51.63,90.5Z" transform="translate(0 0.02)"/><polygon id="_Tracé_28" data-name="&lt;Tracé&gt;" class="cls-5" points="71.03 71.18 76.61 92.88 80.39 91.89 75.41 69.59 71.03 71.18"/><polygon id="_Tracé_29" data-name="&lt;Tracé&gt;" class="cls-5" points="81.18 77.16 81.98 79.35 88.95 77.75 88.35 75.17 81.18 77.16"/></g><g id="_Groupe_4" data-name="&lt;Groupe&gt;"><path id="_Tracé_30" data-name="&lt;Tracé&gt;" class="cls-2" d="M69.85,18.39a16,16,0,0,1,3.3,1.93,1.57,1.57,0,0,0,2.13-.56,1.6,1.6,0,0,0-.56-2.13,16,16,0,0,0-3.3-1.93,1.61,1.61,0,0,0-2.13.56,1.57,1.57,0,0,0,.56,2.13Z" transform="translate(0 0.02)"/></g><g id="_Groupe_5" data-name="&lt;Groupe&gt;"><path id="_Tracé_31" data-name="&lt;Tracé&gt;" class="cls-2" d="M72.57,10.43a16,16,0,0,1,3.18,2.47,1.56,1.56,0,0,0,2.2-2.2,19.31,19.31,0,0,0-3.81-3,1.56,1.56,0,0,0-1.57,2.69Z" transform="translate(0 0.02)"/></g><g id="_Groupe_6" data-name="&lt;Groupe&gt;"><path id="_Tracé_32" data-name="&lt;Tracé&gt;" class="cls-2" d="M78.53,3.72,81,7.5c1.09,1.67,3.79.11,2.69-1.57L81.22,2.15C80.13.48,77.43,2,78.53,3.72Z" transform="translate(0 0.02)"/></g><g id="_Groupe_7" data-name="&lt;Groupe&gt;"><path id="_Tracé_33" data-name="&lt;Tracé&gt;" class="cls-2" d="M85,1.54a5,5,0,0,0,.6,2.72,1.57,1.57,0,0,0,2.13.56,1.59,1.59,0,0,0,.56-2.13c-.16-.32,0,.2-.06-.12,0-.15-.08-.3-.12-.45s0-.09,0,.08q0-.1,0-.2a3.79,3.79,0,0,1,0-.47A1.56,1.56,0,0,0,86.53,0,1.6,1.6,0,0,0,85,1.54Z" transform="translate(0 0.02)"/></g><g id="_Groupe_8" data-name="&lt;Groupe&gt;"><path id="_Tracé_34" data-name="&lt;Tracé&gt;" class="cls-6" d="M67.47,50.22a7.3,7.3,0,0,1-2-3.27,1.11,1.11,0,0,0-1.42-.77c0,.07,0,.15,0,.22a34,34,0,0,1,.44,4,9.56,9.56,0,0,0,1.24,1.48C66.9,52.92,68.55,51.27,67.47,50.22Z" transform="translate(0 0.02)"/></g><g id="_Groupe_9" data-name="&lt;Groupe&gt;"><path id="_Tracé_35" data-name="&lt;Tracé&gt;" d="M75.61,60.51l.15.29c.22.45.9.05.67-.39l-.15-.29c-.22-.45-.9-.05-.67.39Z" transform="translate(0 0.02)"/></g><g id="_Groupe_10" data-name="&lt;Groupe&gt;"><path id="_Tracé_36" data-name="&lt;Tracé&gt;" d="M76.65,63a.56.56,0,0,1,.09.44c-.1.49.65.7.75.21a1.37,1.37,0,0,0-.17-1c-.26-.43-.94,0-.67.39Z" transform="translate(0 0.02)"/></g><g id="_Groupe_11" data-name="&lt;Groupe&gt;"><path id="_Tracé_37" data-name="&lt;Tracé&gt;" d="M76.06,65.4l-.29.44c-.28.42.4.81.67.39l.29-.44c.28-.42-.4-.81-.67-.39Z" transform="translate(0 0.02)"/></g><g id="_Groupe_12" data-name="&lt;Groupe&gt;"><path id="_Tracé_38" data-name="&lt;Tracé&gt;" d="M74.86,67.89l-.29.59c-.22.45.45.84.67.39l.29-.59c.22-.45-.45-.84-.67-.39Z" transform="translate(0 0.02)"/></g><g id="_Groupe_13" data-name="&lt;Groupe&gt;"><path id="_Tracé_39" data-name="&lt;Tracé&gt;" d="M73.84,70.2l-.15.44c-.16.48.59.68.75.21l.15-.44c.16-.48-.59-.68-.75-.21Z" transform="translate(0 0.02)"/></g><g id="_Groupe_14" data-name="&lt;Groupe&gt;"><path id="_Tracé_40" data-name="&lt;Tracé&gt;" d="M73.93,73.63l.14.44c.15.47.91.27.75-.21l-.14-.44c-.15-.47-.91-.27-.75.21Z" transform="translate(0 0.02)"/></g><g id="_Groupe_15" data-name="&lt;Groupe&gt;"><path id="_Tracé_41" data-name="&lt;Tracé&gt;" d="M74.54,77l.29.88c.16.47.91.27.75-.21l-.29-.88c-.16-.47-.91-.27-.75.21Z" transform="translate(0 0.02)"/></g><g id="_Groupe_16" data-name="&lt;Groupe&gt;"><path id="_Tracé_42" data-name="&lt;Tracé&gt;" d="M75.23,79.82a.73.73,0,0,1,.19.46c0,.5.81.5.78,0a1.6,1.6,0,0,0-.42-1c-.33-.38-.88.18-.55.55Z" transform="translate(0 0.02)"/></g><g id="_Groupe_17" data-name="&lt;Groupe&gt;"><path id="_Tracé_43" data-name="&lt;Tracé&gt;" d="M76,82.43l.29,1.17a.39.39,0,0,0,.75-.21l-.29-1.17a.39.39,0,0,0-.75.21Z" transform="translate(0 0.02)"/></g><g id="_Groupe_18" data-name="&lt;Groupe&gt;"><path id="_Tracé_44" data-name="&lt;Tracé&gt;" d="M76.78,85.76l.44,1a.39.39,0,0,0,.53.14.4.4,0,0,0,.14-.53l-.44-1a.39.39,0,0,0-.53-.14.4.4,0,0,0-.14.53Z" transform="translate(0 0.02)"/></g><g id="_Groupe_19" data-name="&lt;Groupe&gt;"><path id="_Tracé_45" data-name="&lt;Tracé&gt;" d="M77.49,89.18l.28.89c.15.48.9.27.75-.21L78.24,89c-.15-.48-.9-.27-.75.21Z" transform="translate(0 0.02)"/></g><g id="_Groupe_20" data-name="&lt;Groupe&gt;"><path id="_Tracé_46" data-name="&lt;Tracé&gt;" d="M64.66,64.15a.66.66,0,0,0,0,1c.37.33.93-.22.55-.55v.13c.36-.35-.19-.9-.55-.55Z" transform="translate(0 0.02)"/></g><g id="_Groupe_21" data-name="&lt;Groupe&gt;"><path id="_Tracé_47" data-name="&lt;Tracé&gt;" d="M65.52,67.07l.45.43c.36.35.91-.2.55-.55l-.45-.43c-.36-.35-.91.2-.55.55Z" transform="translate(0 0.02)"/></g><g id="_Groupe_22" data-name="&lt;Groupe&gt;"><path id="_Tracé_48" data-name="&lt;Tracé&gt;" d="M68.11,68.59l.15.29c.23.45.9.05.67-.39l-.15-.29c-.23-.45-.9-.05-.67.39Z" transform="translate(0 0.02)"/></g><g id="_Groupe_23" data-name="&lt;Groupe&gt;"><path id="_Tracé_49" data-name="&lt;Tracé&gt;" d="M70.56,70.09a.3.3,0,0,1,.22.1c.29.4,1,0,.67-.39a1,1,0,0,0-.69-.46c-.49-.08-.7.67-.21.75Z" transform="translate(0 0.02)"/></g><g id="_Groupe_24" data-name="&lt;Groupe&gt;"><path id="_Tracé_50" data-name="&lt;Tracé&gt;" d="M82.11,78.46h.15a.39.39,0,0,0,0-.78h-.15a.39.39,0,0,0,0,.78Z" transform="translate(0 0.02)"/></g><g id="_Groupe_25" data-name="&lt;Groupe&gt;"><path id="_Tracé_51" data-name="&lt;Tracé&gt;" d="M83.73,78.17h.15a.39.39,0,0,0,0-.78h-.15a.39.39,0,0,0,0,.78Z" transform="translate(0 0.02)"/></g><g id="_Groupe_26" data-name="&lt;Groupe&gt;"><path id="_Tracé_52" data-name="&lt;Tracé&gt;" d="M85.15,78l.44-.15c.47-.16.27-.91-.21-.75l-.44.15c-.47.16-.27.91.21.75Z" transform="translate(0 0.02)"/></g><g id="_Groupe_27" data-name="&lt;Groupe&gt;"><path id="_Tracé_53" data-name="&lt;Tracé&gt;" d="M87.07,77.22A.75.75,0,0,0,88,77a.39.39,0,0,0-.14-.53.4.4,0,0,0-.53.14l.08,0c-.45-.21-.85.46-.39.67Z" transform="translate(0 0.02)"/></g><path id="_Tracé_54" data-name="&lt;Tracé&gt;" class="cls-11" d="M116.84,16.06a2.81,2.81,0,0,1-3.07.95,2.91,2.91,0,0,1-1.92-2.59,3,3,0,0,1,1.68-2.77,2.51,2.51,0,0,1,.72-.23,3,3,0,0,1,1.76.35,3.58,3.58,0,0,1,1.6,1.5,2.38,2.38,0,0,1,.05,2.15" transform="translate(0 0.02)"/><path id="_Tracé_55" data-name="&lt;Tracé&gt;" class="cls-11" d="M125.19,20.88a2.81,2.81,0,0,1-3.07.95,2.91,2.91,0,0,1-1.92-2.59,3,3,0,0,1,1.68-2.77,2.51,2.51,0,0,1,.72-.23,3,3,0,0,1,1.76.35,3.58,3.58,0,0,1,1.6,1.5,2.38,2.38,0,0,1,.05,2.15" transform="translate(0 0.02)"/><path id="_Tracé_56" data-name="&lt;Tracé&gt;" class="cls-11" d="M132.76,24.93a2.81,2.81,0,0,1-3.07.95,2.91,2.91,0,0,1-1.92-2.59,3,3,0,0,1,1.68-2.77,2.51,2.51,0,0,1,.72-.23,3,3,0,0,1,1.76.35,3.58,3.58,0,0,1,1.6,1.5,2.38,2.38,0,0,1,.05,2.15" transform="translate(0 0.02)"/><path id="_Tracé_57" data-name="&lt;Tracé&gt;" class="cls-11" d="M143.59,24a2.81,2.81,0,0,1-3.07.95,2.91,2.91,0,0,1-1.92-2.59,3,3,0,0,1,1.68-2.77,2.51,2.51,0,0,1,.72-.23,3,3,0,0,1,1.76.35,3.58,3.58,0,0,1,1.6,1.5,2.38,2.38,0,0,1,.05,2.15" transform="translate(0 0.02)"/><path id="_Tracé_58" data-name="&lt;Tracé&gt;" class="cls-11" d="M97.66,63.42a2.81,2.81,0,0,1-3.07.95,2.91,2.91,0,0,1-1.92-2.59A3,3,0,0,1,94.35,59a2.51,2.51,0,0,1,.72-.23,3,3,0,0,1,1.76.35,3.58,3.58,0,0,1,1.6,1.5,2.38,2.38,0,0,1,.05,2.15" transform="translate(0 0.02)"/><g id="_Groupe_28" data-name="&lt;Groupe&gt;"><path id="_Tracé_59" data-name="&lt;Tracé&gt;" d="M55.21,44.86a13.63,13.63,0,0,1,3.48-1.22A1.83,1.83,0,0,0,60.1,42.4c.15-.48-.62-.62-.76-.15-.24.8-1.64.78-2.3,1a8.94,8.94,0,0,0-2.27,1c-.43.26,0,.9.45.64Z" transform="translate(0 0.02)"/></g><g id="_Groupe_29" data-name="&lt;Groupe&gt;"><path id="_Tracé_60" data-name="&lt;Tracé&gt;" d="M69.82,40a13.63,13.63,0,0,0-3.46,1.27,1.83,1.83,0,0,1-1.88-.06c-.42-.28.08-.87.5-.6.69.46,1.76-.44,2.38-.72a8.94,8.94,0,0,1,2.4-.67c.5-.07.56.7.06.78Z" transform="translate(0 0.02)"/></g><g id="_Groupe_30" data-name="&lt;Groupe&gt;"><path id="_Tracé_61" data-name="&lt;Tracé&gt;" class="cls-8" d="M58.52,70.25h.42a.39.39,0,0,0,0-.78h-.42a.39.39,0,0,0,0,.78Z" transform="translate(0 0.02)"/></g><g id="_Groupe_31" data-name="&lt;Groupe&gt;"><path id="_Tracé_62" data-name="&lt;Tracé&gt;" class="cls-8" d="M60,71.25l.53.53a.39.39,0,0,0,.55-.55l-.53-.53a.39.39,0,0,0-.55.55Z" transform="translate(0 0.02)"/></g><g id="_Groupe_32" data-name="&lt;Groupe&gt;"><path id="_Tracé_63" data-name="&lt;Tracé&gt;" class="cls-8" d="M61,73.07l.32.74a.39.39,0,0,0,.53.14.4.4,0,0,0,.14-.53l-.32-.74a.39.39,0,0,0-.53-.14.4.4,0,0,0-.14.53Z" transform="translate(0 0.02)"/></g><g id="_Groupe_33" data-name="&lt;Groupe&gt;"><path id="_Tracé_64" data-name="&lt;Tracé&gt;" class="cls-8" d="M61.86,75.49a.72.72,0,0,1,.16.44.39.39,0,0,0,.78,0,1.45,1.45,0,0,0-.26-.83c-.29-.4-1,0-.67.39Z" transform="translate(0 0.02)"/></g><g id="_Groupe_34" data-name="&lt;Groupe&gt;"><path id="_Tracé_65" data-name="&lt;Tracé&gt;" class="cls-8" d="M62.12,77.3V78a.39.39,0,0,0,.78,0V77.3a.39.39,0,0,0-.78,0Z" transform="translate(0 0.02)"/></g><g id="_Groupe_35" data-name="&lt;Groupe&gt;"><path id="_Tracé_66" data-name="&lt;Tracé&gt;" class="cls-8" d="M62.24,79.82l.11.53c.1.49.85.28.75-.21L63,79.61c-.1-.49-.85-.28-.75.21Z" transform="translate(0 0.02)"/></g><g id="_Groupe_36" data-name="&lt;Groupe&gt;"><path id="_Tracé_67" data-name="&lt;Tracé&gt;" class="cls-8" d="M62.13,82.24a2.12,2.12,0,0,1-.27,1c-.24.44.43.83.67.39a3,3,0,0,0,.38-1.35c0-.5-.76-.5-.78,0Z" transform="translate(0 0.02)"/></g><g id="_Groupe_37" data-name="&lt;Groupe&gt;"><path id="_Tracé_68" data-name="&lt;Tracé&gt;" class="cls-8" d="M61.39,84.88a1.75,1.75,0,0,1-.17.75c-.21.45.46.85.67.39a2.68,2.68,0,0,0,.27-1.14.39.39,0,0,0-.78,0Z" transform="translate(0 0.02)"/></g><g id="_Groupe_38" data-name="&lt;Groupe&gt;"><path id="_Tracé_69" data-name="&lt;Tracé&gt;" class="cls-8" d="M60.69,87.1l-.22.42c-.23.44.44.84.67.39l.22-.42c.23-.44-.44-.84-.67-.39Z" transform="translate(0 0.02)"/></g><g id="_Groupe_39" data-name="&lt;Groupe&gt;"><path id="_Tracé_70" data-name="&lt;Tracé&gt;" class="cls-8" d="M89.78,66.26c.11,0,.12.07.14.19a.39.39,0,0,0,.48.27.4.4,0,0,0,.27-.48.87.87,0,0,0-.5-.66c-.45-.21-.85.46-.39.67Z" transform="translate(0 0.02)"/></g><g id="_Groupe_40" data-name="&lt;Groupe&gt;"><path id="_Tracé_71" data-name="&lt;Tracé&gt;" class="cls-8" d="M90.66,68.24l.21.53c.18.46.94.26.75-.21L91.41,68c-.18-.46-.94-.26-.75.21Z" transform="translate(0 0.02)"/></g><g id="_Groupe_41" data-name="&lt;Groupe&gt;"><path id="_Tracé_72" data-name="&lt;Tracé&gt;" class="cls-8" d="M91.47,70.16a.09.09,0,0,1,0,.08c-.09.49.66.7.75.21a.91.91,0,0,0-.39-1c-.4-.3-.79.38-.39.67Z" transform="translate(0 0.02)"/></g><g id="_Groupe_42" data-name="&lt;Groupe&gt;"><path id="_Tracé_73" data-name="&lt;Tracé&gt;" class="cls-8" d="M92,72.14v.53a.39.39,0,0,0,.78,0v-.53a.39.39,0,0,0-.78,0Z" transform="translate(0 0.02)"/></g><g id="_Groupe_43" data-name="&lt;Groupe&gt;"><path id="_Tracé_74" data-name="&lt;Tracé&gt;" class="cls-8" d="M92.2,74.78l.13.63c.1.49.85.28.75-.21L93,74.57c-.1-.49-.85-.28-.75.21Z" transform="translate(0 0.02)"/></g><g id="_Groupe_44" data-name="&lt;Groupe&gt;"><path id="_Tracé_75" data-name="&lt;Tracé&gt;" class="cls-8" d="M65.19,104.63l.62.32c.45.23.84-.44.39-.67l-.62-.32c-.45-.23-.84.44-.39.67Z" transform="translate(0 0.02)"/></g><g id="_Groupe_45" data-name="&lt;Groupe&gt;"><path id="_Tracé_76" data-name="&lt;Tracé&gt;" class="cls-8" d="M69.21,105.62l2.18-.31c.49-.07.28-.82-.21-.75l-2.18.31c-.49.07-.28.82.21.75Z" transform="translate(0 0.02)"/></g><g id="_Groupe_46" data-name="&lt;Groupe&gt;"><path id="_Tracé_77" data-name="&lt;Tracé&gt;" class="cls-8" d="M74.4,105h1.25a.39.39,0,0,0,0-.78H74.4a.39.39,0,0,0,0,.78Z" transform="translate(0 0.02)"/></g><g id="_Groupe_47" data-name="&lt;Groupe&gt;"><path id="_Tracé_78" data-name="&lt;Tracé&gt;" class="cls-8" d="M79.8,104.36l1.87-.32c.49-.08.28-.83-.21-.75l-1.87.32c-.49.08-.28.83.21.75Z" transform="translate(0 0.02)"/></g><g id="_Groupe_48" data-name="&lt;Groupe&gt;"><path id="_Tracé_79" data-name="&lt;Tracé&gt;" class="cls-8" d="M85.21,102.85l2.18-.92c.46-.19.06-.87-.39-.67l-2.18.92c-.46.19-.06.87.39.67Z" transform="translate(0 0.02)"/></g><g id="_Groupe_49" data-name="&lt;Groupe&gt;"><path id="_Tracé_80" data-name="&lt;Tracé&gt;" class="cls-8" d="M90.23,100.21,91.78,99c.39-.31-.16-.86-.55-.55l-1.56,1.25c-.39.31.16.86.55.55Z" transform="translate(0 0.02)"/></g><g id="_Groupe_50" data-name="&lt;Groupe&gt;"><path id="_Tracé_81" data-name="&lt;Tracé&gt;" class="cls-8" d="M93.05,97.12l.31-.31a.39.39,0,0,0-.55-.55l-.31.31a.39.39,0,0,0,.55.55Z" transform="translate(0 0.02)"/></g><g id="_Groupe_51" data-name="&lt;Groupe&gt;"><path id="_Tracé_82" data-name="&lt;Tracé&gt;" class="cls-8" d="M64.33,108.77l1.24.33a.39.39,0,0,0,.21-.75L64.54,108a.39.39,0,0,0-.21.75Z" transform="translate(0 0.02)"/></g><g id="_Groupe_52" data-name="&lt;Groupe&gt;"><path id="_Tracé_83" data-name="&lt;Tracé&gt;" class="cls-8" d="M67.86,109.38h2.49a.39.39,0,0,0,0-.78H67.86a.39.39,0,0,0,0,.78Z" transform="translate(0 0.02)"/></g><g id="_Groupe_53" data-name="&lt;Groupe&gt;"><path id="_Tracé_84" data-name="&lt;Tracé&gt;" class="cls-8" d="M72.95,110.28l1.86-.33c.49-.09.28-.84-.21-.75l-1.86.33c-.49.09-.28.84.21.75Z" transform="translate(0 0.02)"/></g><g id="_Groupe_54" data-name="&lt;Groupe&gt;"><path id="_Tracé_85" data-name="&lt;Tracé&gt;" class="cls-8" d="M78.25,109.72l1.55-.32c.49-.1.28-.85-.21-.75L78,109c-.49.1-.28.85.21.75Z" transform="translate(0 0.02)"/></g><g id="_Groupe_55" data-name="&lt;Groupe&gt;"><path id="_Tracé_86" data-name="&lt;Tracé&gt;" class="cls-8" d="M82.38,109l1.25-.62c.45-.22.05-.9-.39-.67l-1.25.62c-.45.22-.05.9.39.67Z" transform="translate(0 0.02)"/></g><g id="_Groupe_56" data-name="&lt;Groupe&gt;"><path id="_Tracé_87" data-name="&lt;Tracé&gt;" class="cls-8" d="M86.12,107.77l2.18-1.25a.39.39,0,0,0-.39-.67l-2.18,1.25a.39.39,0,0,0,.39.67Z" transform="translate(0 0.02)"/></g><g id="_Groupe_57" data-name="&lt;Groupe&gt;"><path id="_Tracé_88" data-name="&lt;Tracé&gt;" class="cls-8" d="M89.83,105.55l.92-.64c.41-.28,0-1-.39-.67l-.92.64c-.41.28,0,1,.39.67Z" transform="translate(0 0.02)"/></g><g id="_Groupe_58" data-name="&lt;Groupe&gt;"><path id="_Tracé_89" data-name="&lt;Tracé&gt;" class="cls-8" d="M92.82,103.17a1,1,0,0,1,.69-.63.39.39,0,0,0-.21-.75A1.78,1.78,0,0,0,92.07,103c-.16.48.59.68.75.21Z" transform="translate(0 0.02)"/></g></g><g id="_Groupe_59" data-name="&lt;Groupe&gt;"><path id="_Tracé_90" data-name="&lt;Tracé&gt;" class="cls-2" d="M50,37.29l.42.29c.49.34,1-.47.47-.81l-.42-.29c-.49-.34-1,.47-.47.81Z" transform="translate(0 0.02)"/></g><g id="_Groupe_60" data-name="&lt;Groupe&gt;"><path id="_Tracé_91" data-name="&lt;Tracé&gt;" class="cls-2" d="M51.22,34.78l.57.42a.47.47,0,0,0,.64-.17.48.48,0,0,0-.17-.64L51.69,34a.47.47,0,0,0-.64.17.48.48,0,0,0,.17.64Z" transform="translate(0 0.02)"/></g><g id="_Groupe_61" data-name="&lt;Groupe&gt;"><path id="_Tracé_92" data-name="&lt;Tracé&gt;" class="cls-2" d="M53.11,32.72l.43.42c.43.42,1.09-.24.66-.66l-.43-.42c-.43-.42-1.09.24-.66.66Z" transform="translate(0 0.02)"/></g><g id="_Groupe_62" data-name="&lt;Groupe&gt;"><path id="_Tracé_93" data-name="&lt;Tracé&gt;" class="cls-2" d="M55.91,30.62l.42.43c.42.43,1.08-.23.66-.66L56.57,30c-.42-.43-1.08.23-.66.66Z" transform="translate(0 0.02)"/></g><g id="_Groupe_63" data-name="&lt;Groupe&gt;"><path id="_Tracé_94" data-name="&lt;Tracé&gt;" class="cls-2" d="M58.55,29.37l.42.57a.48.48,0,0,0,.64.17.47.47,0,0,0,.17-.64l-.42-.57a.48.48,0,0,0-.64-.17.47.47,0,0,0-.17.64Z" transform="translate(0 0.02)"/></g><g id="_Groupe_64" data-name="&lt;Groupe&gt;"><path id="_Tracé_95" data-name="&lt;Tracé&gt;" class="cls-2" d="M62.3,27.73v.57a.47.47,0,0,0,.93,0v-.57a.47.47,0,0,0-.93,0Z" transform="translate(0 0.02)"/></g><g id="_Groupe_65" data-name="&lt;Groupe&gt;"><path id="_Tracé_96" data-name="&lt;Tracé&gt;" class="cls-2" d="M65.13,28.28l.14.57a.47.47,0,0,0,.9-.25L66,28a.47.47,0,0,0-.9.25Z" transform="translate(0 0.02)"/></g><g id="_Groupe_66" data-name="&lt;Groupe&gt;"><path id="_Tracé_97" data-name="&lt;Tracé&gt;" class="cls-2" d="M68,28.82l.14.28c.27.54,1.08.06.81-.47l-.14-.28c-.27-.54-1.08-.06-.81.47Z" transform="translate(0 0.02)"/></g><g id="_Groupe_67" data-name="&lt;Groupe&gt;"><path id="_Tracé_98" data-name="&lt;Tracé&gt;" class="cls-2" d="M71.13,29.48l-.14.28c-.27.53.53,1,.81.47l.14-.28c.27-.53-.53-1-.81-.47Z" transform="translate(0 0.02)"/></g><g id="_Groupe_68" data-name="&lt;Groupe&gt;"><path id="_Tracé_99" data-name="&lt;Tracé&gt;" class="cls-2" d="M52.89,37.29l.28.42c.33.5,1.14,0,.81-.47l-.28-.42c-.33-.5-1.14,0-.81.47Z" transform="translate(0 0.02)"/></g><g id="_Groupe_69" data-name="&lt;Groupe&gt;"><path id="_Tracé_100" data-name="&lt;Tracé&gt;" class="cls-2" d="M54.33,35.9l.42.28c.5.33,1-.47.47-.81l-.42-.28c-.5-.33-1,.47-.47.81Z" transform="translate(0 0.02)"/></g><g id="_Groupe_70" data-name="&lt;Groupe&gt;"><path id="_Tracé_101" data-name="&lt;Tracé&gt;" class="cls-2" d="M55.86,34.18l.28.42c.33.5,1.14,0,.81-.47l-.28-.42c-.33-.5-1.14,0-.81.47Z" transform="translate(0 0.02)"/></g><g id="_Groupe_71" data-name="&lt;Groupe&gt;"><path id="_Tracé_102" data-name="&lt;Tracé&gt;" class="cls-2" d="M58.34,32.26a.83.83,0,0,0,.38.94c.51.33,1-.48.47-.81l.05.11a.47.47,0,0,0-.9-.25Z" transform="translate(0 0.02)"/></g><g id="_Groupe_72" data-name="&lt;Groupe&gt;"><path id="_Tracé_103" data-name="&lt;Tracé&gt;" class="cls-2" d="M61.07,31.93l.14.28c.27.54,1.08.06.81-.47l-.14-.28c-.27-.54-1.08-.06-.81.47Z" transform="translate(0 0.02)"/></g><g id="_Groupe_73" data-name="&lt;Groupe&gt;"><path id="_Tracé_104" data-name="&lt;Tracé&gt;" class="cls-2" d="M63.54,31.19l.28.28a.47.47,0,0,0,.66-.66l-.28-.28a.47.47,0,0,0-.66.66Z" transform="translate(0 0.02)"/></g><g id="_Groupe_74" data-name="&lt;Groupe&gt;"><path id="_Tracé_105" data-name="&lt;Tracé&gt;" class="cls-2" d="M66,31.5l.28.42c.33.5,1.14,0,.81-.47L66.84,31c-.33-.5-1.14,0-.81.47Z" transform="translate(0 0.02)"/></g><g id="_Groupe_75" data-name="&lt;Groupe&gt;"><path id="_Tracé_106" data-name="&lt;Tracé&gt;" class="cls-2" d="M68.84,32.21l.14.28c.27.54,1.08.06.81-.47l-.14-.28c-.27-.54-1.08-.06-.81.47Z" transform="translate(0 0.02)"/></g><g id="_Groupe_76" data-name="&lt;Groupe&gt;"><path id="_Tracé_107" data-name="&lt;Tracé&gt;" class="cls-2" d="M67.52,34.09v.14a.47.47,0,0,0,.93,0v-.14a.47.47,0,0,0-.93,0Z" transform="translate(0 0.02)"/></g><g id="_Groupe_77" data-name="&lt;Groupe&gt;"><path id="_Tracé_108" data-name="&lt;Tracé&gt;" class="cls-2" d="M64.4,33.52l.14.42c.19.57,1.09.32.9-.25l-.14-.42c-.19-.57-1.09-.32-.9.25Z" transform="translate(0 0.02)"/></g><g id="_Groupe_78" data-name="&lt;Groupe&gt;"><path id="_Tracé_109" data-name="&lt;Tracé&gt;" class="cls-2" d="M61.51,34.46l.28.57c.27.54,1.08.07.81-.47L62.32,34c-.27-.54-1.08-.07-.81.47Z" transform="translate(0 0.02)"/></g><g id="_Groupe_79" data-name="&lt;Groupe&gt;"><path id="_Tracé_110" data-name="&lt;Tracé&gt;" class="cls-2" d="M59.2,34.67l-.14.42c-.19.57.71.82.9.25l.14-.42c.19-.57-.71-.82-.9-.25Z" transform="translate(0 0.02)"/></g><g id="_Groupe_80" data-name="&lt;Groupe&gt;"><path id="_Tracé_111" data-name="&lt;Tracé&gt;" class="cls-2" d="M57.39,36.39a.47.47,0,0,0,0-.93.47.47,0,0,0,0,.93Z" transform="translate(0 0.02)"/></g></g></svg>