<svg xmlns="http://www.w3.org/2000/svg" xmlns:xlink="http://www.w3.org/1999/xlink" width="180" height="160" viewBox="0 0 180 160">
    <defs>
        <path id="a" d="M0 0h180v160H0z"/>
        <path id="c" d="M.01 0h91.003v87.805H.01z"/>
        <path id="e" d="M.022.215h91.004V88.02H.022z"/>
        <path id="g" d="M0 260.574h141.89V.215H0z"/>
        <path id="h" d="M.029 16.146l19.08 15.38 12.828-15.913L12.857.233"/>
        <path id="j" d="M.029 16.146l19.08 15.38 12.828-15.913L12.857.233"/>
        <path id="l" d="M.029 16.146l19.08 15.38 12.828-15.913L12.857.233"/>
        <path id="n" d="M.029 16.146l19.08 15.38 12.828-15.913L12.857.233z"/>
        <path id="p" d="M.029 16.146l19.08 15.38 12.828-15.913L12.857.233z"/>
        <path id="r" d="M.029 16.146l19.08 15.38 12.828-15.913L12.857.233z"/>
        <path id="t" d="M.029 16.146l19.08 15.38 12.828-15.913L12.857.233z"/>
        <path id="v" d="M.029 16.146l19.08 15.38 12.828-15.913L12.857.233z"/>
        <path id="x" d="M.029 16.146l19.08 15.38 12.828-15.913L12.857.233"/>
        <path id="z" d="M.029 16.146l19.08 15.38 12.828-15.913L12.857.233z"/>
        <path id="B" d="M.029 16.146l19.08 15.38 12.828-15.913L12.857.233z"/>
        <path id="D" d="M.029 16.146l19.08 15.38 12.828-15.913L12.857.233z"/>
        <path id="F" d="M0 0h152.791v99.492H0z"/>
        <path id="H" d="M.01.162h54.817v64.93H.01z"/>
        <path id="J" d="M0 .307h50.773V64.69H0z"/>
        <path id="L" d="M0 271.234h141.89V10.875H0z"/>
    </defs>
    <g fill="none" fill-rule="evenodd">
        <mask id="b" fill="#fff">
            <use xlink:href="#a"/>
        </mask>
        <use fill="#F4CFB2" fill-rule="nonzero" xlink:href="#a"/>
        <g mask="url(#b)">
            <path fill="#8F8F8F" d="M126.64 114.836l-.008.01.008-.01z"/>
            <path fill="#3F403F" d="M146.61 78.485a2.825 2.825 0 1 1-5.65 0 2.825 2.825 0 0 1 5.65 0"/>
            <path fill="#714F47" d="M49.797 107.27c-.142-1.261-7.243-1.311-7.243-1.311s-2.077 15.18-2.722 20.398c-.899.616-2.786 1.936-3.493 2.21-2.127.829-4.39 1.782-5.777 2.576-1.033.592-2.507 1.838-3.036 2.622-1.114 1.65-.455 2.81.347 2.444 1.182-.54 4.47-2.13 4.47-2.13-1.729 1.327-3.963 3.73-3.475 4.411.15.208 1.023-.274 2.871-1.83 5.5-4.634 8.702-5.173 8.702-5.173s-.365 1.572-.861 2.834c-.347.882.6 1.259.857 1.204.551-.118 1.6-4.667 2.3-6.114.42-.869-.035-1.706-.467-2.237 1.54-3.766 7.652-18.801 7.527-19.904"/>
            <path fill="#50BE87" d="M57.688 182.942l9.015 1.434 9.581-45.442c.293-.726 1.373-.509 1.362.274L74.488 185.4s4.114.83 7.58-.614c3.468-1.445 10.655-67.857 10.655-67.857s-21.669-4.334-28.314 2.89l-6.721 63.123z"/>
            <path fill="#000" d="M74.078 154.463l14.547-2.254c5.115-.63 5.315-33.643 4.627-38.751-3.807-28.245 1.526-24.274.886-30.141 0 0-5.717-13.924-12.595-13.198l-8.628.816-11.559 3.422-8.415 6.776c-6.052 4.922-.927 15.926-.927 15.926s9.976 19.091 4.65 54.33c-.657 4.346 13.053 3.612 17.414 3.074"/>
            <path fill="#62352D" d="M57.133 66.47c2.095 4.273 4.547 12.444 4.743 12.705.194.257 3.876 2.46 6.019 4.075.539.406 1.544.139 1.937-.517 1.38-2.304 1.235-3.17 3.028-6.477-.59-2.189-3.353-10.671-4.538-13.697-2.558 1.792-5.64 3.125-8.737 3.78M49.042 59.398c-.519-1.14-2.072-1.561-3.221-1.061-.278.12-.547.295-.69.562-.189.35-.121.778-.022 1.162.58 2.243 2.047 4.148 3.62 5.849.61.66 1.31 1.335 2.2 1.46.326.046.7-.006.909-.263.125-.154.17-.357.203-.552a7.731 7.731 0 0 0 .019-2.463M68.61 53.894a5.939 5.939 0 0 1 .454-2.952c.082-.19.183-.386.358-.497.151-.097.34-.118.52-.11.714.031 1.366.47 1.8 1.039.435.569.68 1.259.871 1.949.562 2.02.725 4.149.48 6.23-.054.452-.132.917-.383 1.296-.251.38-.72.65-1.16.539-.476-.12-.746-.61-.96-1.051"/>
            <path fill="#020202" d="M49.146 62.462c-2.083-4.847-5.62-12.75-5.676-14.194-.11-2.862.198-8.121 8.601-11.934 5.208-2.363 12.798.114 14.34 3.138.4.782 3.93 12.428 4.53 17.347a108.404 108.404 0 0 0-15.74 5.446"/>
            <path fill="#714F47" d="M66.87 47.797c-1.04-1.96-.693-1.02-2.967-3.764-.669-.806-4.706-.13-8.57.97-3.899 1.11-7.763 2.794-8.385 4.397 0 0 .553 2.299.47 4.11-.174 3.728 1.186 8.748 1.866 9.95.334.588 1.612 2.42 3.383 4.68 1.285 1.045 4.803 4.2 10.886 6.088.53-.056 1.063-.115 1.589-.233 1.109-.248 2.274-.844 3.243-1.564 1.569-3.136 2.829-6.387 3.186-9.963-.15-2.244-.393-3.993-.627-4.676-.597-1.741-2.259-6.569-4.075-9.995"/>
            <path fill="#62352D" d="M54.682 55.8s-.02-.03-.068-.083a1.298 1.298 0 0 0-.24-.206c-.23-.157-.66-.334-1.254-.3-.292.015-.614.08-.916.208a4.1 4.1 0 0 0-.874.533c-.554.444-1.23.9-1.475 1.495l.01-.097c.011-.064.031-.16.087-.282.105-.245.376-.589.788-.959.203-.184.429-.388.725-.588.291-.197.68-.392 1.128-.476.441-.085.924-.072 1.316.066.39.136.68.39.773.689M66.604 51.91s-.013-.034-.053-.087a.694.694 0 0 0-.231-.186c-.24-.12-.653-.254-1.183-.312a3.102 3.102 0 0 0-1.898.42c-.321.193-.585.472-.809.785-.112.155-.22.32-.328.483-.102.158-.198.326-.151.464.005.006-.121-.1 0-.395.057-.141.136-.307.24-.505.106-.196.244-.425.472-.664.455-.494 1.336-.88 2.13-.87.398 0 .768.083 1.094.219.31.135.674.31.717.647M57.68 61.402c2.004.422 4.215-.385 5.478-1.998.229.858.014 1.822-.558 2.5-.205.244-.452.45-.716.63-.456.31-.977.54-1.526.593-1.105.107-2.239-.592-2.64-1.626M57.807 60.07l.014-.19c.009-.125.028-.305.032-.536.02-.46.017-1.117-.082-1.892a11.815 11.815 0 0 0-1.241-3.976c-.117-.234-.252-.46-.385-.693-.138-.228-.281-.449-.486-.618 0 0 .057.018.159.076.102.056.245.16.407.318.314.317.75.808 1.14 1.515.394.699.734 1.616.86 2.667a6.905 6.905 0 0 1-.418 3.329"/>
            <path fill="#020202" d="M53.204 50.752l-.133.04a1.46 1.46 0 0 0-.152.052l-.093.034-.103.045c-.289.123-.657.351-1.066.674-.41.322-.864.74-1.377 1.197-.509.46-1.092.948-1.724 1.454 0 0 0-.197.086-.528.085-.33.25-.794.565-1.296a4.417 4.417 0 0 1 1.48-1.458 3.318 3.318 0 0 1 1.197-.43c.223-.03.454-.034.68-.001.227.035.447.108.64.217M59.322 49.232l.14-.064c.043-.022.1-.045.165-.07l.103-.042.12-.04c.334-.115.813-.212 1.398-.27.586-.058 1.283-.08 2.058-.114.775-.03 1.63-.092 2.542-.176 0 0-.152-.14-.477-.316a5.38 5.38 0 0 0-1.462-.527 5.595 5.595 0 0 0-2.344.002c-.44.097-.903.269-1.32.535-.206.136-.4.295-.562.477-.16.185-.286.392-.361.605M63.553 74.229s2.623 1.653 3.26 1.435c.786-.27.607-.794 1.58-2.877.05-.108.085-.284-.008-.357-1.256-.977-4.956 1.536-4.832 1.799"/>
            <path fill="#FDD230" d="M69.46 52.888c.152 1.13.35 3.557-3.21 4.85-3.562 1.295-4.712-.575-5.791-2.21-1.08-1.635.402-2.592.402-2.592 4.094-2.919 7.693-2.31 7.693-2.31.412.04.753 1.13.906 2.262m-12.123 3.576c-.003 1.96.066 4.154-3.618 5.035-3.684.88-4.855-1.256-5.35-2.284-.494-1.026-.811-2.125-.489-2.385 0 0 2.668-2.489 7.694-2.31 0 0 1.766-.016 1.763 1.944m2.156-4.054s-.158 1.194-1.227 1.485c-1.051.345-1.837-.565-1.837-.565-6.729-.06-10.893 3.662-10.893 3.662l.282.939c.348.74 1.252.862 1.252.862.79 1.902 2.389 5.062 7.205 3.618 4.817-1.444 3.881-4.353 3.905-5.416.023-1.063.668-1.165.668-1.165s.595-.27 1.199.605c.604.875 1.426 3.818 6.24 2.371 4.817-1.445 4.412-4.965 4.023-6.987 0 0 .69-.6.57-1.406l-.282-.943s-5.524-.813-11.105 2.94"/>
            <path fill="#000" d="M69.46 52.888c.152 1.13.351 3.557-3.21 4.85-3.561 1.294-4.711-.575-5.791-2.21s.403-2.592.403-2.592c4.093-2.919 7.692-2.31 7.692-2.31.412.04.753 1.13.906 2.262m-12.123 3.576c-.003 1.96.066 4.154-3.618 5.035-3.684.88-4.855-1.256-5.35-2.284-.494-1.026-.811-2.125-.489-2.385 0 0 2.669-2.489 7.694-2.31 0 0 1.766-.016 1.763 1.944"/>
            <path fill="#FFF" d="M56.502 65.872s6.264.614 9.59-1.98c0 0-.177 9.331-9.59 1.98"/>
            <path fill="#62352D" d="M66.245 68.701l-.018.148c-.01.1-.042.238-.097.418a2.91 2.91 0 0 1-.895 1.281 3.085 3.085 0 0 1-2.153.718 2.937 2.937 0 0 1-1.231-.365 4.745 4.745 0 0 1-.997-.75s.2 0 .535.032c.335.027.806.093 1.308.088a4.934 4.934 0 0 0 1.635-.327c.299-.113.611-.257.934-.453.32-.196.655-.443.979-.79"/>
            <path fill="#020202" d="M43.703 48.597s-4.458-3.903-2.39-4.204c2.07-.3-.678-3.568 1.515-3.505 2.194.064.662-3.62 2.942-2.907 2.28.713 1.393-3.463 3.308-2.625 1.916.837 2.653-3.352 4.412-1.783 1.76 1.57 2.692-3.635 4.093-1.129 1.4 2.507 3.19-2.178 4.591.328 1.401 2.507 3.114-1.609 3.707 1.31.591 2.92 3.401-1.164 2.782 2.577-.62 3.741-2.09 7.774-1.555 8.54.534.768-3.98-4.881-5.319-4.83-1.34.052-10.736 3.133-10.736 3.133l-7.35 5.095z"/>
            <path fill="#000" d="M77.971 70.972S90.541 60.64 94.068 60.33c3.528-.309 12.411.093 11.934 5.46-.477 5.365 2.404 12.502 2.404 12.502S84.056 91.48 83.557 92.16c-.499.68-8.06-18.256-5.586-21.189"/>
            <path fill="#62352D" d="M82.59 66.893l10.178-4.47 22.76-43.762 23.46 12.632 7.789-3.814 4.394 4.751s-8.53 10.552-10.509 13.384c-1.978 2.833-30.326 27.805-30.326 27.805l-13.84 3.022s-13.404-1.715-13.907-9.548"/>
            <g transform="translate(70.876 10.86)">
                <mask id="d" fill="#fff">
                    <use xlink:href="#c"/>
                </mask>
                <path fill="#595A5A" d="M89.984 50.262L32.879.73a2.985 2.985 0 0 0-4.202.29L.748 32.944a2.985 2.985 0 0 0 .283 4.213l57.12 49.91a2.985 2.985 0 0 0 4.222-.296L90.287 54.47a2.985 2.985 0 0 0-.303-4.207" mask="url(#d)"/>
            </g>
            <g transform="translate(70.607 8.976)">
                <mask id="f" fill="#fff">
                    <use xlink:href="#e"/>
                </mask>
                <path fill="#8F8F8F" d="M89.996 50.477L32.891.945a2.985 2.985 0 0 0-4.202.29L.761 33.159a2.985 2.985 0 0 0 .282 4.213l57.12 49.91a2.985 2.985 0 0 0 4.222-.296L90.3 54.684a2.985 2.985 0 0 0-.303-4.207" mask="url(#f)"/>
            </g>
            <path fill="#000" d="M152.786 57.748l-47.563-41.255a2.486 2.486 0 0 0-3.5.241L78.46 43.324a2.486 2.486 0 0 0 .235 3.509l47.575 41.57a2.486 2.486 0 0 0 3.517-.246l23.25-26.905a2.486 2.486 0 0 0-.252-3.504"/>
            <path fill="#714F47" d="M113.999 26.952l-1.565-.937a4.327 4.327 0 0 1-1.486-5.918l3.857-6.443a4.327 4.327 0 0 1 5.918-1.486l1.565.937a4.327 4.327 0 0 1 1.486 5.918l-3.858 6.443A4.327 4.327 0 0 1 114 26.952"/>
            <path fill="#91766F" d="M115.23 17.143l-.079.007h-.002c-.16.013-.296.069-.364.182l-1.529 2.554c-.192.322.015.802.46 1.069l4.27 2.556c.446.267.968.222 1.16-.099l1.496-2.499c.129-.215-.01-.536-.308-.715l-5.103-3.055z"/>
            <path fill="#714F47" d="M123.74 32.326l-1.566-.937a4.327 4.327 0 0 1-1.486-5.918l3.858-6.444a4.327 4.327 0 0 1 5.918-1.486l1.565.937a4.327 4.327 0 0 1 1.485 5.918l-3.857 6.444a4.327 4.327 0 0 1-5.918 1.486"/>
            <path fill="#91766F" d="M124.971 22.517l-.08.007h-.002c-.16.012-.296.068-.363.181l-1.53 2.555c-.192.321.015.802.46 1.068l4.271 2.557c.446.266.967.222 1.16-.099l1.495-2.5c.13-.215-.009-.535-.308-.714l-5.103-3.055z"/>
            <path fill="#714F47" d="M132.344 37.332l-1.564-.937a4.327 4.327 0 0 1-1.486-5.918l3.857-6.444a4.327 4.327 0 0 1 5.918-1.486l1.565.937a4.327 4.327 0 0 1 1.486 5.918l-3.858 6.444a4.327 4.327 0 0 1-5.918 1.486"/>
            <path fill="#91766F" d="M133.576 27.523l-.079.007h-.002c-.16.012-.296.068-.364.181l-1.529 2.555c-.192.321.015.802.46 1.068l4.27 2.557c.446.266.968.222 1.16-.099l1.496-2.5c.129-.215-.01-.535-.308-.714l-5.104-3.055z"/>
            <path fill="#714F47" d="M144.183 36.824l-1.565-.937a4.327 4.327 0 0 1-1.486-5.918l3.857-6.443a4.327 4.327 0 0 1 5.918-1.486l1.565.937a4.327 4.327 0 0 1 1.486 5.917l-3.857 6.444a4.327 4.327 0 0 1-5.918 1.486"/>
            <path fill="#91766F" d="M145.415 27.016l-.08.006h-.002c-.16.013-.296.069-.364.182l-1.529 2.554c-.192.321.015.802.46 1.069l4.27 2.556c.446.267.968.222 1.16-.099l1.496-2.499c.13-.215-.009-.535-.308-.714l-5.103-3.055z"/>
            <path fill="#714F47" d="M102.153 74.428l-.442 1.77a4.327 4.327 0 0 1-5.231 3.14L83.83 76.18a4.327 4.327 0 0 1-3.14-5.231l.441-1.77a4.327 4.327 0 0 1 5.232-3.14l12.648 3.158a4.327 4.327 0 0 1 3.141 5.231"/>
            <path fill="#91766F" d="M91 75.747l.046.078.001.002c.09.157.225.282.398.325l3.926.98a.936.936 0 0 0 1.125-.692l1.206-4.828a.937.937 0 0 0-.668-1.14l-3.84-.959a.625.625 0 0 0-.753.463l-1.44 5.77z"/>
            <path fill="#3F403F" d="M82.787 34.566l10.145-11.172M83.298 35.077l10.145-11.172c.623-.687-.395-1.712-1.022-1.022L82.276 34.055c-.624.687.395 1.712 1.022 1.022"/>
            <path fill="#000" d="M50.54 84.281s-5.866 11.417-8.717 20.286a4.595 4.595 0 0 0 1.623 5.079c2.635 1.981 4.899 2.024 8.771-2.622l8.436-9.691L50.54 84.28z"/>
            <path fill="#FFD200" d="M74.986 75.58c-.378-1.706-1.157-3.344-2.391-4.55l-1.251.366c.004.016 1.192 3.235 1.188 4.556-.002.823-1.904 5.538-2.76 6.25-.498.62-4.391-.892-5.474-1.586-1.022-.655-1.926-1.07-2.677-2.12-.095-.132-.805-2.299-1.178-3.455l-1.114.948c-.35.627-.624 1.28-.625 1.877.013.195.043.383.095.567.095.276.232.545.4.804.098.13.211.262.345.395.332.33.684.64 1.045.94 3.165 1.839 7.349 4.907 9.57 5.376.418-.251.769-.634 1.057-1.072.95-1.44 1.685-3.111 2.394-4.68.614-1.359 1.129-2.765 1.453-4.22a8.348 8.348 0 0 0-.077-.396M44.99 106.713c-1.206-.972-2.081-2.278-2.642-3.71-.184.528-.36 1.05-.525 1.564a4.595 4.595 0 0 0 1.623 5.079c2.386 1.794 4.468 1.998 7.714-1.428-2.21.37-4.386-.067-6.17-1.505"/>
            <path fill="#FFD200" d="M67.146 84.626l6.365 24.779 4.32-1.137-5.684-25.46zM78.74 91.446l.91 2.5 7.956-1.818-.682-2.955z"/>
            <path fill="#000" d="M71.465 86.558a1.023 1.023 0 1 1-2.046 0 1.023 1.023 0 0 1 2.046 0M72.943 92.583a1.023 1.023 0 1 1-2.046 0 1.023 1.023 0 0 1 2.046 0M74.307 98.266a1.023 1.023 0 1 1-2.046 0 1.023 1.023 0 0 1 2.046 0M75.444 103.722a1.023 1.023 0 1 1-2.046 0 1.023 1.023 0 0 1 2.046 0"/>
            <g>
                <g transform="translate(97.795 35.895)">
                    <mask id="i" fill="#fff">
                        <use xlink:href="#h"/>
                    </mask>
                    <path fill="#FFF" d="M6.07 10.275l-3.83 4.751a1.237 1.237 0 1 0 1.926 1.552l1.952-2.422.749 7.036c.072.68.682 1.17 1.361 1.097a1.24 1.24 0 0 0 1.1-1.364l-.749-7.036 2.418 1.949a1.238 1.238 0 0 0 1.555-1.929L7.81 10.087a1.238 1.238 0 0 0-1.74.188" mask="url(#i)"/>
                </g>
                <g transform="translate(97.795 35.895)">
                    <mask id="k" fill="#fff">
                        <use xlink:href="#j"/>
                    </mask>
                    <path fill="#FF7900" d="M15.07 12.756l3.829-4.75a1.238 1.238 0 0 0-1.925-1.552L15.02 8.874l-.748-7.036A1.235 1.235 0 0 0 12.91.742a1.24 1.24 0 0 0-1.1 1.364l.749 7.036-2.417-1.948a1.238 1.238 0 0 0-1.555 1.929l4.741 3.821c.532.429 1.31.344 1.74-.188" mask="url(#k)"/>
                </g>
                <g transform="translate(97.795 35.895)">
                    <mask id="m" fill="#fff">
                        <use xlink:href="#l"/>
                    </mask>
                    <path fill="#FFF" d="M11.567 22.664c.856-1.062 2.152-1.049 3.169-.23.987.797 1.275 2.06.42 3.122-.857 1.062-2.152 1.05-3.14.253-1.017-.82-1.305-2.083-.449-3.145m2.955 2.382c.546-.678.176-1.397-.395-1.857-.6-.483-1.38-.692-1.927-.015-.546.678-.176 1.397.424 1.88.57.46 1.352.67 1.898-.008" mask="url(#m)"/>
                </g>
                <g transform="translate(97.795 35.895)">
                    <mask id="o" fill="#fff">
                        <use xlink:href="#n"/>
                    </mask>
                    <path fill="#FFF" d="M14.212 21.484l.523-.649.46.372.008-.01a1.129 1.129 0 0 1 .112-1.219.654.654 0 0 1 .144-.13l.633.51a1.64 1.64 0 0 0-.222.227c-.402.5-.182.963.254 1.314l1.118.902-.55.682-2.48-2z" mask="url(#o)"/>
                </g>
                <g transform="translate(97.795 35.895)">
                    <mask id="q" fill="#fff">
                        <use xlink:href="#p"/>
                    </mask>
                    <path fill="#FFF" d="M16.36 20.379c-.606-.553-.337-1.28.113-1.837.399-.495.99-1.002 1.584-.523l1.29 1.04c.226.182.47.34.622.359l-.558.692a1.282 1.282 0 0 1-.279-.146c.051.398-.123.781-.367 1.084-.38.471-.917.656-1.425.247-.561-.452-.355-.984-.071-1.453.274-.468.603-.846.324-1.07-.292-.236-.498-.07-.692.17-.209.26-.24.514.01.754l-.55.683zm1.775-1.17c.008.196-.18.44-.313.682-.127.247-.21.497.04.698.253.205.474.058.653-.163.43-.533.023-.893-.126-1.013l-.254-.205z" mask="url(#q)"/>
                </g>
                <g transform="translate(97.795 35.895)">
                    <mask id="s" fill="#fff">
                        <use xlink:href="#r"/>
                    </mask>
                    <path fill="#FFF" d="M17.741 17.105l.523-.648.346.278.011-.015a1.138 1.138 0 0 1 .2-1.091c.585-.726 1.14-.58 1.754-.085l1.525 1.23-.55.682-1.4-1.13c-.408-.328-.707-.37-.962-.053-.299.37-.22.695.283 1.101l1.3 1.048-.55.682-2.48-1.999z" mask="url(#s)"/>
                </g>
                <g transform="translate(97.795 35.895)">
                    <mask id="u" fill="#fff">
                        <use xlink:href="#t"/>
                    </mask>
                    <path fill="#FFF" d="M24.156 13.899c.408.329.982 1.03.06 2.173-.395.49-1.086.877-1.68.454l.547-.678c.305.143.557.006.751-.235.306-.38.187-.76-.172-1.042l-.326-.263-.008.01c.139.357.024.756-.217 1.054-.6.745-1.422.606-2.103.057-.643-.518-.93-1.36-.368-2.057.264-.327.575-.488.995-.42l.007-.01-.33-.266.522-.649 2.322 1.872zm-1.636-.248c-.403-.325-.875-.476-1.231-.034-.31.385-.11.824.26 1.121.354.287.852.465 1.189.047.313-.39.137-.848-.218-1.134z" mask="url(#u)"/>
                </g>
                <g transform="translate(97.795 35.895)">
                    <mask id="w" fill="#fff">
                        <use xlink:href="#v"/>
                    </mask>
                    <path fill="#FFF" d="M24.019 12.194c.447.329.814.276 1.12-.104.221-.274.232-.63.113-.797l.484-.601c.43.664.35 1.273-.103 1.836-.631.783-1.56.836-2.327.217-.744-.6-.895-1.57-.287-2.324.682-.846 1.721-.683 2.445-.02l-1.445 1.793zm.463-1.458c-.396-.216-.698-.214-.965.118-.349.432-.114.828.07.992l.895-1.11z" mask="url(#w)"/>
                </g>
            </g>
            <path fill="#FFF" d="M114.73 61.323l1.743 2.658-.008.01-3.002-1.096-.856 1.062 3.425 2.76.57-.706-2.404-1.937.008-.01 3.08 1.096.47-.581-1.75-2.798.008-.01 2.427 1.957.57-.706-3.425-2.761z"/>
            <g>
                <g transform="translate(97.795 35.895)">
                    <mask id="y" fill="#fff">
                        <use xlink:href="#x"/>
                    </mask>
                    <path fill="#FFF" d="M19.945 23.49c.632-.784 1.556-.87 2.348-.233.787.634.898 1.556.266 2.34-.627.779-1.552.866-2.339.231-.791-.638-.902-1.56-.275-2.338m2.101 1.693c.376-.466.09-.926-.303-1.244-.398-.32-.909-.502-1.284-.036-.372.462-.087.922.311 1.243.394.317.904.498 1.276.037" mask="url(#y)"/>
                </g>
                <g transform="translate(97.795 35.895)">
                    <mask id="A" fill="#fff">
                        <use xlink:href="#z"/>
                    </mask>
                    <path fill="#FFF" d="M21.287 21.963l.523-.65.345.28.012-.015a1.138 1.138 0 0 1 .2-1.092c.585-.726 1.14-.58 1.753-.085l1.526 1.23-.55.682-1.401-1.129c-.408-.328-.706-.37-.962-.053-.298.37-.22.694.284 1.1l1.3 1.048-.55.683-2.48-2z" mask="url(#A)"/>
                </g>
                <g transform="translate(97.795 35.895)">
                    <mask id="C" fill="#fff">
                        <use xlink:href="#B"/>
                    </mask>
                    <path fill="#FFF" d="M25.333 19.82c.447.329.814.275 1.12-.104.22-.274.231-.63.113-.797l.484-.601c.43.664.35 1.273-.103 1.836-.631.783-1.56.835-2.327.217-.744-.6-.895-1.57-.287-2.325.682-.845 1.721-.682 2.445-.019l-1.445 1.793zm.463-1.458c-.396-.216-.698-.214-.966.118-.348.432-.113.828.071.992l.895-1.11z" mask="url(#C)"/>
                </g>
                <g transform="translate(97.795 35.895)">
                    <mask id="E" fill="#fff">
                        <use xlink:href="#D"/>
                    </mask>
                    <path fill="#FFF" d="M29.336 17.69c.278.47.251.837-.128 1.308-.113.14-.235.272-.361.4l-.562-.453c.115-.122.242-.241.346-.38.166-.255-.017-.529-.276-.61l-3.03-1 .588-.731 2.151.806.008-.01-1.26-1.912.57-.706 1.954 3.289z" mask="url(#E)"/>
                </g>
            </g>
            <g transform="translate(20 3)">
                <mask id="G" fill="#fff">
                    <use xlink:href="#F"/>
                </mask>
                <g mask="url(#G)">
                    <g transform="translate(0 -4.684)">
                        <path fill="#8F8F8F" d="M106.64 116.52l-.008.01.008-.01z"/>
                        <path fill="#3F403F" d="M126.61 80.168a2.825 2.825 0 1 1-5.65 0 2.825 2.825 0 0 1 5.65 0"/>
                        <path fill="#714F47" d="M29.797 108.954c-.142-1.261-7.243-1.312-7.243-1.312s-2.077 15.182-2.722 20.399c-.899.616-2.786 1.935-3.493 2.21-2.127.829-4.39 1.782-5.777 2.576-1.033.592-2.507 1.838-3.036 2.622-1.114 1.65-.455 2.81.347 2.444 1.182-.541 4.47-2.13 4.47-2.13-1.729 1.326-3.963 3.73-3.475 4.41.15.21 1.023-.273 2.871-1.83 5.5-4.633 8.702-5.172 8.702-5.172s-.365 1.571-.861 2.833c-.347.883.6 1.26.857 1.205.551-.118 1.6-4.667 2.3-6.114.42-.869-.035-1.706-.467-2.237 1.54-3.766 7.652-18.801 7.527-19.904"/>
                        <path fill="#FFD200" d="M44.409 121.502l-6.721 63.124 9.015 1.434 9.581-45.442c.293-.726 1.373-.509 1.362.274l-3.158 46.192s4.114.83 7.58-.614c3.468-1.445 10.655-67.857 10.655-67.857s-21.669-4.334-28.314 2.89"/>
                        <path fill="#000" d="M54.078 156.147l14.547-2.254c5.115-.63 5.315-33.643 4.627-38.751-3.807-28.245 1.526-24.274.886-30.141 0 0-5.717-13.924-12.595-13.198l-8.628.816-11.559 3.422-8.415 6.775c-6.052 4.923-.927 15.927-.927 15.927s9.976 19.091 4.65 54.33c-.657 4.346 13.053 3.612 17.414 3.074"/>
                        <path fill="#62352D" d="M37.133 68.153c2.095 4.274 4.547 12.445 4.743 12.705.194.258 3.876 2.461 6.019 4.076.539.406 1.544.139 1.937-.517 1.38-2.304 1.235-3.17 3.028-6.477-.59-2.189-3.353-10.671-4.538-13.697-2.558 1.792-5.64 3.125-8.737 3.78M29.042 61.082c-.519-1.14-2.072-1.561-3.221-1.061-.278.12-.547.295-.69.562-.189.35-.121.778-.022 1.162.58 2.243 2.047 4.148 3.62 5.849.61.66 1.31 1.335 2.2 1.46.326.046.7-.007.909-.263.125-.155.17-.357.203-.552a7.731 7.731 0 0 0 .019-2.464M48.61 55.578a5.939 5.939 0 0 1 .454-2.952c.082-.19.183-.386.358-.498.151-.097.34-.117.52-.109.714.031 1.366.47 1.8 1.039.435.569.68 1.259.871 1.949.562 2.02.725 4.149.48 6.23-.054.452-.132.917-.383 1.296s-.72.65-1.16.539c-.476-.12-.746-.61-.96-1.052"/>
                        <path fill="#020202" d="M29.146 64.146c-2.083-4.847-5.62-12.75-5.676-14.194-.11-2.862.198-8.121 8.601-11.934 5.208-2.363 12.798.113 14.34 3.138.4.782 3.93 12.428 4.53 17.347a108.404 108.404 0 0 0-15.74 5.446"/>
                        <path fill="#714F47" d="M46.87 49.48c-1.04-1.96-.693-1.02-2.967-3.763-.669-.806-4.706-.13-8.57.97-3.899 1.11-7.763 2.794-8.385 4.397 0 0 .553 2.299.47 4.109-.174 3.728 1.186 8.75 1.866 9.95.334.589 1.612 2.42 3.383 4.68 1.285 1.046 4.803 4.2 10.886 6.09.53-.057 1.063-.116 1.589-.234 1.109-.248 2.274-.844 3.243-1.565 1.569-3.135 2.829-6.387 3.186-9.962-.15-2.244-.393-3.993-.627-4.676-.597-1.742-2.259-6.569-4.075-9.995"/>
                        <path fill="#62352D" d="M34.682 57.484s-.02-.03-.068-.084a1.298 1.298 0 0 0-.24-.205c-.23-.157-.66-.334-1.254-.3-.292.014-.614.08-.916.208a4.1 4.1 0 0 0-.874.533c-.554.444-1.23.9-1.475 1.495l.01-.097c.011-.064.031-.16.087-.282.105-.245.376-.589.788-.96.203-.183.429-.387.725-.587.291-.197.68-.392 1.128-.476.441-.085.924-.072 1.316.066.39.135.68.39.773.689M46.604 53.593s-.013-.033-.053-.086a.694.694 0 0 0-.231-.186c-.24-.121-.653-.254-1.183-.312a3.102 3.102 0 0 0-1.898.42c-.321.193-.585.472-.809.785-.112.155-.22.32-.328.483-.102.158-.198.326-.151.464.005.005-.121-.1 0-.395.057-.141.136-.307.24-.505.106-.196.244-.425.472-.664.455-.494 1.336-.88 2.13-.87.398 0 .768.083 1.094.219.31.135.674.31.717.647M37.68 63.086c2.004.421 4.215-.385 5.478-1.998.229.858.014 1.822-.558 2.5-.205.244-.452.45-.716.63-.456.31-.977.54-1.526.593-1.105.107-2.239-.592-2.64-1.626M37.807 61.754l.014-.19c.009-.125.028-.305.032-.536.02-.46.017-1.117-.082-1.892a11.815 11.815 0 0 0-1.241-3.976c-.117-.234-.252-.46-.385-.694-.138-.227-.281-.448-.486-.617 0 0 .057.018.159.076.102.056.245.16.407.317.314.318.75.81 1.14 1.515.394.7.734 1.617.86 2.668a6.905 6.905 0 0 1-.418 3.329"/>
                        <path fill="#020202" d="M33.204 52.436l-.133.04a1.46 1.46 0 0 0-.152.052l-.093.034-.103.045c-.289.123-.657.351-1.066.674-.41.322-.864.74-1.377 1.197-.509.46-1.092.948-1.724 1.454 0 0 0-.197.086-.528.085-.33.25-.794.565-1.296a4.417 4.417 0 0 1 1.48-1.458 3.318 3.318 0 0 1 1.197-.43c.223-.03.454-.034.68-.001.227.035.447.108.64.217M39.322 50.916l.14-.064c.043-.022.1-.045.165-.07l.103-.042.12-.04c.334-.116.813-.212 1.398-.27.586-.058 1.283-.08 2.058-.114.775-.03 1.63-.092 2.542-.176 0 0-.152-.14-.477-.316a5.38 5.38 0 0 0-1.462-.527 5.595 5.595 0 0 0-2.344.002c-.44.096-.903.269-1.32.534-.206.137-.4.296-.562.478-.16.185-.286.392-.361.605M43.553 75.912s2.623 1.654 3.26 1.436c.786-.27.607-.794 1.58-2.877.05-.108.085-.284-.008-.357-1.256-.977-4.956 1.536-4.832 1.798"/>
                        <path fill="#FDD230" d="M49.46 54.572c.152 1.129.35 3.557-3.21 4.85-3.562 1.294-4.712-.575-5.791-2.21-1.08-1.635.402-2.592.402-2.592 4.094-2.92 7.693-2.31 7.693-2.31.412.04.753 1.13.906 2.262m-12.123 3.576c-.003 1.96.066 4.154-3.618 5.035-3.684.88-4.855-1.256-5.35-2.284-.494-1.026-.811-2.126-.489-2.385 0 0 2.668-2.489 7.694-2.31 0 0 1.766-.016 1.763 1.944m2.156-4.054s-.158 1.194-1.227 1.485c-1.051.345-1.837-.565-1.837-.565-6.729-.06-10.893 3.661-10.893 3.661l.282.94c.348.74 1.252.862 1.252.862.79 1.901 2.389 5.062 7.205 3.617 4.817-1.443 3.881-4.352 3.905-5.415.023-1.063.668-1.165.668-1.165s.595-.27 1.199.605c.604.874 1.426 3.818 6.24 2.371 4.817-1.445 4.412-4.966 4.023-6.987 0 0 .69-.6.57-1.406l-.282-.943s-5.524-.813-11.105 2.94"/>
                        <path fill="#000" d="M49.46 54.571c.152 1.13.351 3.558-3.21 4.851-3.561 1.294-4.711-.576-5.791-2.21-1.08-1.635.403-2.592.403-2.592 4.093-2.92 7.692-2.31 7.692-2.31.412.04.753 1.13.906 2.261m-12.123 3.577c-.003 1.96.066 4.154-3.618 5.034-3.684.882-4.855-1.255-5.35-2.283-.494-1.026-.811-2.126-.489-2.385 0 0 2.669-2.489 7.694-2.31 0 0 1.766-.016 1.763 1.944"/>
                        <path fill="#FFF" d="M36.502 67.556s6.264.614 9.59-1.98c0 0-.177 9.331-9.59 1.98"/>
                        <path fill="#62352D" d="M46.245 70.385l-.018.148c-.01.099-.042.238-.097.418a2.91 2.91 0 0 1-.895 1.281 3.085 3.085 0 0 1-2.153.718 2.937 2.937 0 0 1-1.231-.365 4.745 4.745 0 0 1-.997-.75s.2 0 .535.032c.335.026.806.093 1.308.088a4.934 4.934 0 0 0 1.635-.327c.299-.113.611-.258.934-.453.32-.197.655-.443.979-.79"/>
                        <path fill="#020202" d="M23.703 50.281s-4.458-3.903-2.39-4.204c2.07-.3-.678-3.568 1.515-3.505 2.194.064.662-3.62 2.942-2.907 2.28.713 1.393-3.463 3.308-2.625 1.916.837 2.653-3.352 4.412-1.783 1.76 1.57 2.692-3.636 4.093-1.13 1.4 2.508 3.19-2.177 4.591.33 1.401 2.506 3.114-1.61 3.707 1.31.591 2.918 3.401-1.165 2.782 2.576-.62 3.741-2.09 7.773-1.555 8.54.534.768-3.98-4.881-5.319-4.83-1.34.052-10.736 3.133-10.736 3.133l-7.35 5.095z"/>
                        <path fill="#000" d="M57.971 72.656s12.57-10.333 16.097-10.642c3.528-.31 12.411.093 11.934 5.459-.477 5.366 2.404 12.503 2.404 12.503s-24.35 13.189-24.849 13.869c-.499.68-8.06-18.256-5.586-21.19"/>
                        <path fill="#62352D" d="M62.59 68.577l10.178-4.47 22.76-43.762 23.46 12.632 7.789-3.814 4.394 4.751s-8.53 10.552-10.509 13.384c-1.978 2.833-30.326 27.805-30.326 27.805l-13.84 3.021S63.092 76.41 62.59 68.577"/>
                        <path fill="#000" d="M132.786 59.432L85.223 18.177a2.486 2.486 0 0 0-3.5.241L58.46 45.008a2.486 2.486 0 0 0 .235 3.509l47.575 41.57a2.486 2.486 0 0 0 3.517-.246l23.25-26.905a2.486 2.486 0 0 0-.252-3.504"/>
                        <path fill="#EA7E31" d="M80.31 10.18L64.289 28.697l-5.875 6.789zM100.4 68.467a3.132 3.132 0 0 0-.482-.68 7.178 7.178 0 0 0-.578-.565 7.192 7.192 0 0 0-.639-.488 3.059 3.059 0 0 0-.742-.38 1.594 1.594 0 0 0-.761-.074c-.254.037-.488.178-.7.424-.212.245-.318.495-.319.752 0 .257.06.504.184.743.122.238.283.465.482.68.2.215.39.403.575.562.188.162.402.326.642.49.24.166.487.292.742.38.256.09.51.116.764.078.254-.038.488-.179.7-.424.212-.245.318-.496.318-.753a1.595 1.595 0 0 0-.185-.745M96.645 72.827a2.904 2.904 0 0 0-.459-.683c-.198-.22-.4-.429-.614-.621a6.895 6.895 0 0 0-.7-.56 2.834 2.834 0 0 0-.718-.376 1.38 1.38 0 0 0-.704-.051c-.228.04-.445.175-.648.4-.187.21-.288.43-.302.66-.018.228.027.46.135.695.108.231.257.463.454.695.196.233.41.455.638.662.27.245.532.452.786.62.251.163.49.279.718.338.229.06.442.064.65.008.205-.056.404-.185.587-.386.203-.23.31-.466.324-.703a1.36 1.36 0 0 0-.147-.698M106.298 61.651a3.14 3.14 0 0 0-.483-.68 7.178 7.178 0 0 0-.578-.564 7.22 7.22 0 0 0-.639-.488 3.055 3.055 0 0 0-.742-.38 1.595 1.595 0 0 0-.76-.075c-.255.037-.488.179-.7.424-.212.245-.318.496-.32.753 0 .257.061.503.184.742.122.238.283.465.483.68.199.216.39.403.575.562.187.163.401.326.641.491.24.165.487.291.743.38.255.089.51.115.763.078.255-.038.488-.18.7-.424.212-.246.319-.497.319-.753a1.598 1.598 0 0 0-.186-.746"/>
                        <g transform="rotate(26 -9.012 232.38)">
                            <mask id="I" fill="#fff">
                                <use xlink:href="#H"/>
                            </mask>
                            <path fill="#EA7E31" d="M24.505 15.211a1.24 1.24 0 0 1-.028.124.562.562 0 0 1-.095.21.303.303 0 0 1-.14.1.403.403 0 0 1-.177.017 1.409 1.409 0 0 1-.213-.041l-.003.011c.078.09.145.178.202.265a.994.994 0 0 1 .166.581c-.001.111-.021.24-.06.384-.036.137-.086.26-.15.372a.897.897 0 0 1-.237.273.766.766 0 0 1-.325.14.931.931 0 0 1-.405-.025c-.205-.055-.353-.143-.445-.265a.898.898 0 0 1-.17-.433 2.139 2.139 0 0 1 .007-.541c.026-.195.052-.393.081-.592.013-.078.02-.147.024-.208a.37.37 0 0 0-.021-.158.295.295 0 0 0-.094-.12.533.533 0 0 0-.186-.083.683.683 0 0 0-.315-.02.493.493 0 0 0-.23.117.698.698 0 0 0-.159.22 1.795 1.795 0 0 0-.105.293c-.06.228-.055.429.014.602.07.174.224.296.462.367l-.096.359a1.23 1.23 0 0 1-.416-.226.877.877 0 0 1-.242-.33 1.086 1.086 0 0 1-.079-.415 2.098 2.098 0 0 1 .207-.86.965.965 0 0 1 .232-.312.784.784 0 0 1 .355-.174c.14-.032.31-.021.507.031l1.563.415c.145.039.236-.013.273-.154a.287.287 0 0 0 .008-.12l.302.08a2.269 2.269 0 0 1-.012.116zm-.987 3.74l-2.642-.7-.133.501-.302-.08.134-.502-.268-.071a2.012 2.012 0 0 1-.341-.121.688.688 0 0 1-.245-.181.536.536 0 0 1-.118-.267.902.902 0 0 1 .031-.373 2.69 2.69 0 0 1 .103-.296l.308.082c-.02.047-.04.091-.056.132-.016.04-.03.08-.042.123a.487.487 0 0 0-.015.24c.016.061.048.11.092.15.045.038.1.068.168.09.068.022.141.044.22.065l.258.068.154-.582.302.08-.154.582 2.641.701-.095.36zm-.428 1.932a1.43 1.43 0 0 1-.28.564c-.129.15-.278.267-.45.347-.172.081-.36.126-.565.137a2.006 2.006 0 0 1-.626-.068 2.022 2.022 0 0 1-.577-.25 1.504 1.504 0 0 1-.422-.4 1.333 1.333 0 0 1-.188-1.155c.084-.316.238-.56.463-.735.225-.174.514-.237.862-.19l-.095.36c-.233-.009-.43.036-.591.136-.161.1-.273.27-.337.509a.936.936 0 0 0-.011.48c.037.148.104.281.2.398.094.116.211.217.35.3a1.683 1.683 0 0 0 .918.244 1.34 1.34 0 0 0 .454-.087.948.948 0 0 0 .62-1 .894.894 0 0 0-.32-.566 1.006 1.006 0 0 0-.313-.18l.096-.36c.344.145.588.35.73.616.144.266.17.565.082.9zM21.885 25.1l-4.072-1.082.685-2.583.332.088-.583 2.195 1.47.39.52-1.95.33.088-.517 1.95 1.938.515-.103.389zm-1.156 4.795c-.105.397-.277.697-.516.903-.238.204-.512.34-.82.406-.309.067-.637.08-.984.041-.348-.04-.68-.1-1-.185a6.998 6.998 0 0 1-.966-.337 3.03 3.03 0 0 1-.834-.523 1.873 1.873 0 0 1-.515-.762c-.108-.297-.11-.644-.005-1.041.107-.402.281-.704.522-.905.24-.202.515-.336.824-.402.308-.067.636-.08.983-.041.347.04.68.101.999.185.324.087.646.199.967.337.322.138.6.313.834.523.235.21.406.463.512.757.106.293.106.642 0 1.044zm-1.156 4.355c-.106.397-.278.698-.517.903a1.83 1.83 0 0 1-.82.407c-.309.067-.636.08-.984.04-.347-.039-.68-.1-.999-.185a7 7 0 0 1-.967-.336 3.032 3.032 0 0 1-.834-.523 1.87 1.87 0 0 1-.514-.762c-.108-.297-.11-.644-.005-1.04.107-.403.28-.705.521-.906.241-.202.516-.336.824-.402.309-.067.636-.08.983-.04.348.038.681.1 1 .184.323.086.645.199.967.337.32.138.6.313.834.523.234.21.405.463.511.757.107.293.107.642 0 1.043zm-1.156 4.356c-.106.397-.278.697-.517.903-.238.204-.512.34-.82.406-.309.067-.636.08-.984.04-.347-.039-.68-.1-1-.185a6.97 6.97 0 0 1-.967-.336 3.026 3.026 0 0 1-.833-.523 1.876 1.876 0 0 1-.515-.761c-.108-.298-.11-.645-.004-1.042.106-.401.28-.704.521-.905.241-.202.515-.336.824-.402.308-.067.636-.08.983-.04.347.038.681.1 1 .185.323.085.645.198.966.336.321.138.6.312.834.523.235.21.406.463.512.757.106.293.106.642 0 1.044zm-1.54 5.507c-.11.376-.27.663-.49.86a1.624 1.624 0 0 1-.77.387c-.296.065-.62.077-.974.025a7.569 7.569 0 0 1-1.095-.228 7.214 7.214 0 0 1-.993-.367 2.904 2.904 0 0 1-.808-.52 1.68 1.68 0 0 1-.468-.748c-.09-.282-.076-.628.035-1.017.077-.271.185-.49.322-.668.135-.171.292-.302.474-.401.175-.094.373-.159.584-.19a3.1 3.1 0 0 1 .645-.028c.223.015.45.045.677.098.224.045.443.1.655.162.36.104.7.227 1.015.377.313.147.58.327.79.536.216.207.361.457.443.738.082.281.068.605-.042.984zm-1.236 4.12c-.11.376-.27.663-.489.86a1.624 1.624 0 0 1-.77.387c-.297.064-.62.077-.975.025a7.569 7.569 0 0 1-1.095-.229 7.214 7.214 0 0 1-.993-.366 2.904 2.904 0 0 1-.808-.52 1.68 1.68 0 0 1-.468-.748c-.09-.282-.076-.629.035-1.018.077-.27.186-.49.322-.667.135-.171.292-.302.474-.402.175-.093.373-.158.584-.188a3.1 3.1 0 0 1 .645-.03c.223.016.45.046.677.098.224.045.443.101.655.163.36.104.7.227 1.015.377.313.146.58.326.791.535.215.208.36.458.442.739.082.28.068.605-.042.984zm36.402-37.839L13.505.162C11.894 1.894 6.79 8.685 7.32 24.79c.553 16.783-5.77 27.79-7.31 30.209l.744.197 36.8 9.77c1.998.531 4.049-.66 4.58-2.658l6.283-23.666L54.7 14.974a3.744 3.744 0 0 0-2.658-4.58z" mask="url(#I)"/>
                        </g>
                        <path fill="#EA7E31" d="M115.285 51.89a.916.916 0 0 0-.248-.327l-.366-.317-.007.009c.017.046.012.101-.018.164a1.373 1.373 0 0 1-.084.161c-.082.137-.17.276-.264.417a2.75 2.75 0 0 0-.225.41.893.893 0 0 0-.081.378c.003.119.061.228.174.326a.547.547 0 0 0 .467.132.66.66 0 0 0 .234-.086.789.789 0 0 0 .198-.166c.093-.107.165-.224.217-.35a.925.925 0 0 0 .003-.75M103.349 65.06a3.114 3.114 0 0 0-.483-.68 7.183 7.183 0 0 0-.578-.565 7.192 7.192 0 0 0-.638-.488 3.058 3.058 0 0 0-.743-.38 1.594 1.594 0 0 0-.76-.075c-.255.037-.488.179-.7.424-.212.245-.318.496-.32.753 0 .256.061.503.184.742.122.239.283.466.483.68.199.216.39.403.574.562.188.163.402.327.642.491.24.165.488.292.742.38.256.089.511.115.765.078.254-.038.487-.18.7-.424.211-.246.318-.496.318-.753s-.062-.505-.186-.746M93.729 75.988a2.904 2.904 0 0 0-.46-.683c-.198-.22-.4-.428-.614-.621a6.895 6.895 0 0 0-.7-.56 2.834 2.834 0 0 0-.717-.376 1.38 1.38 0 0 0-.705-.051c-.228.04-.445.175-.647.4-.188.21-.288.43-.302.66-.019.228.026.46.134.695.108.231.258.463.454.695.196.233.41.455.638.662.27.245.532.452.787.62.25.163.489.279.717.339.229.06.442.063.65.007.205-.056.405-.185.588-.386.202-.23.309-.466.324-.703a1.36 1.36 0 0 0-.147-.698"/>
                        <path fill="#FFF" d="M96.67 52.958c6.582-14.707 14.147-18.573 16.354-19.423l-.446-.386c-2.208.85-9.772 4.716-16.355 19.423-6.86 15.327-17.368 22.447-19.812 23.947l.446.386c2.444-1.5 12.952-8.62 19.813-23.947"/>
                        <path fill="#EA7E31" d="M96.223 52.572c6.583-14.707 14.147-18.573 16.355-19.423l-.893-.773c-2.208.85-9.771 4.717-16.354 19.424-6.86 15.326-17.369 22.447-19.813 23.947l.893.772c2.444-1.5 12.952-8.62 19.812-23.947"/>
                        <path fill="#FFF" d="M95.331 51.8c6.583-14.707 14.147-18.573 16.354-19.424l-.446-.386c-2.208.85-9.772 4.716-16.354 19.423-6.86 15.327-17.37 22.448-19.813 23.947l.446.387c2.444-1.5 12.953-8.62 19.813-23.947"/>
                        <g transform="rotate(26 33.069 151.877)">
                            <mask id="K" fill="#fff">
                                <use xlink:href="#J"/>
                            </mask>
                            <path fill="#100E0B" d="M44.588 34.482c-.53-16.104 4.574-22.894 6.185-24.626L14.871.324a.515.515 0 0 0-.629.365l-.829 3.122-8.587 32.344L.017 54.266a.515.515 0 0 0 .365.63l36.896 9.795c1.54-2.419 7.863-13.425 7.31-30.209" mask="url(#K)"/>
                        </g>
                        <path fill="#FFF" stroke="#FFF" stroke-width=".2" d="M100.268 69.965c-.212.245-.446.386-.7.424a1.59 1.59 0 0 1-.764-.077 3.104 3.104 0 0 1-.742-.38 7.244 7.244 0 0 1-.642-.491 7.325 7.325 0 0 1-.575-.562c-.2-.215-.36-.442-.482-.68a1.59 1.59 0 0 1-.184-.743c.002-.257.107-.507.32-.752.211-.245.445-.387.699-.424.254-.037.507-.013.76.074.254.087.501.214.743.38s.455.33.639.488c.187.163.38.351.577.565.198.213.359.44.484.68.124.24.186.489.186.745 0 .257-.107.508-.32.753m.649-1.567a3.03 3.03 0 0 0-.52-.835 6.992 6.992 0 0 0-.722-.727 6.962 6.962 0 0 0-.817-.605 3.036 3.036 0 0 0-.901-.394 1.879 1.879 0 0 0-.917 0c-.305.075-.593.271-.865.585-.27.311-.42.624-.453.938-.033.314.01.618.13.91.118.292.292.571.52.836.227.264.468.507.72.726.25.216.523.417.817.605.295.187.596.32.902.394.306.076.612.074.916-.005.305-.08.591-.275.86-.585.272-.315.425-.628.458-.938a1.85 1.85 0 0 0-.128-.905M103.216 66.558c-.212.245-.445.386-.699.424-.254.037-.509.01-.764-.078a3.104 3.104 0 0 1-.743-.38 7.343 7.343 0 0 1-.642-.49 7.325 7.325 0 0 1-.575-.563c-.2-.214-.36-.442-.482-.68a1.585 1.585 0 0 1-.183-.742c0-.257.107-.508.32-.753.21-.245.444-.386.698-.424.254-.037.507-.013.761.074.253.088.5.214.743.38.242.167.454.33.638.489.188.162.38.35.578.565.198.212.358.44.483.679.124.24.187.49.187.746-.001.256-.108.507-.32.753m.648-1.567a3.028 3.028 0 0 0-.52-.835 6.961 6.961 0 0 0-.722-.727 6.962 6.962 0 0 0-.816-.605 3.025 3.025 0 0 0-.902-.394 1.88 1.88 0 0 0-.917 0c-.304.075-.593.27-.865.585-.269.31-.42.623-.453.938-.032.314.01.618.13.91.118.292.292.57.52.835.227.265.468.508.721.727.25.216.522.417.817.605.295.187.595.319.902.394.306.076.612.074.915-.006.305-.08.592-.274.86-.585.273-.314.425-.627.458-.938a1.85 1.85 0 0 0-.128-.904M106.165 63.15c-.212.245-.445.386-.7.424a1.59 1.59 0 0 1-.763-.078 3.107 3.107 0 0 1-.743-.38 7.236 7.236 0 0 1-.642-.49 7.325 7.325 0 0 1-.574-.563 3.02 3.02 0 0 1-.483-.68 1.59 1.59 0 0 1-.183-.742c.001-.257.107-.508.319-.753.212-.245.445-.386.699-.424.254-.037.507-.013.761.074.253.088.5.214.742.381.242.166.455.328.64.488.187.162.38.35.577.565.197.212.358.44.483.679.124.24.187.49.186.746 0 .256-.107.507-.32.753m.65-1.567a3.03 3.03 0 0 0-.52-.836 6.997 6.997 0 0 0-.723-.727 6.956 6.956 0 0 0-.816-.604 3.036 3.036 0 0 0-.902-.394 1.876 1.876 0 0 0-.917 0c-.304.075-.593.27-.865.585-.269.31-.42.623-.452.938-.033.314.01.618.129.91.118.292.292.57.52.835.227.265.468.508.72.727.25.216.523.417.818.605.295.187.595.319.902.394.306.076.611.074.916-.006.304-.08.59-.274.86-.585.272-.314.425-.627.458-.938a1.85 1.85 0 0 0-.129-.904M109.69 56.48l-.259-.224-1.32 1.525-1.151-.996 1.486-1.717-.259-.224-1.75 2.02 3.187 2.758.263-.304-1.517-1.312zM112.49 54.642l-.243.281a1.008 1.008 0 0 1 .282.626.876.876 0 0 1-.042.323.944.944 0 0 1-.553.567c-.144.052-.291.072-.442.06a1.34 1.34 0 0 1-.446-.122 1.684 1.684 0 0 1-.718-.621 1.336 1.336 0 0 1-.183-.424 1.024 1.024 0 0 1-.005-.445.935.935 0 0 1 .22-.426c.162-.187.338-.291.526-.31.188-.02.385.027.591.137l.243-.28c-.292-.197-.579-.266-.858-.208-.279.057-.525.21-.738.456a1.403 1.403 0 0 0-.306.552 1.327 1.327 0 0 0-.031.569c.03.187.098.368.203.544.107.175.243.334.41.478.166.144.344.257.532.336.189.08.378.122.568.124.19.003.375-.035.556-.115a1.43 1.43 0 0 0 .5-.384c.226-.261.334-.543.321-.844-.011-.302-.14-.594-.387-.874M112.357 52.287l-.236-.204-.393.455-.202-.173a4.719 4.719 0 0 1-.17-.155.5.5 0 0 1-.111-.156.29.29 0 0 1-.017-.174.478.478 0 0 1 .118-.21c.029-.033.06-.063.092-.092l.108-.094-.24-.208a2.687 2.687 0 0 0-.223.22.904.904 0 0 0-.192.323.536.536 0 0 0-.01.29c.023.094.07.184.14.271.07.087.155.173.254.258l.21.181-.34.393.235.204.34-.392 2.067 1.788.243-.281-2.067-1.788.394-.456zM115.282 52.64a1.278 1.278 0 0 1-.217.351.791.791 0 0 1-.197.165.656.656 0 0 1-.234.086.554.554 0 0 1-.468-.132c-.113-.097-.171-.206-.174-.325a.89.89 0 0 1 .081-.379 2.75 2.75 0 0 1 .225-.41c.094-.14.182-.279.264-.416.027-.044.055-.097.084-.16.03-.064.035-.119.018-.165l.007-.009.366.317a.911.911 0 0 1 .248.327.932.932 0 0 1-.003.75m.797-.956c-.095.11-.199.117-.312.019l-1.223-1.058a1.075 1.075 0 0 0-.443-.251.78.78 0 0 0-.394.001.966.966 0 0 0-.346.178 2.124 2.124 0 0 0-.29.278 1.854 1.854 0 0 0-.273.405 1.077 1.077 0 0 0-.11.407.874.874 0 0 0 .072.403c.057.132.148.26.275.386l.243-.281c-.182-.168-.267-.345-.254-.532.013-.186.097-.369.252-.547.072-.083.146-.156.222-.217a.69.69 0 0 1 .24-.129.492.492 0 0 1 .257-.003c.088.021.18.073.275.156a.533.533 0 0 1 .13.155c.025.05.035.1.032.149a.365.365 0 0 1-.05.151 2.07 2.07 0 0 1-.113.177c-.113.166-.223.332-.332.496a2.18 2.18 0 0 0-.244.484.896.896 0 0 0-.037.463c.03.15.124.294.285.434.115.1.233.166.353.2a.76.76 0 0 0 .352.016.89.89 0 0 0 .334-.14c.106-.073.205-.163.298-.27a1.59 1.59 0 0 0 .221-.319 1.005 1.005 0 0 0 .106-.595 2.51 2.51 0 0 0-.065-.326l.007-.009c.06.051.117.095.173.13a.41.41 0 0 0 .168.063.305.305 0 0 0 .169-.029.566.566 0 0 0 .177-.146 1.176 1.176 0 0 0 .142-.2l-.237-.204a.296.296 0 0 1-.06.105M96.468 74.227c-.183.202-.382.33-.586.387a1.241 1.241 0 0 1-.651-.007 2.504 2.504 0 0 1-.718-.34 6.613 6.613 0 0 1-.786-.619 6.933 6.933 0 0 1-.638-.661 3.181 3.181 0 0 1-.454-.696 1.394 1.394 0 0 1-.135-.696c.014-.23.115-.45.303-.659.202-.225.42-.36.647-.4.227-.042.462-.032.704.051.239.082.477.206.718.377.24.17.476.352.7.559.214.193.416.4.614.621.197.224.352.452.46.683.113.223.16.464.146.698-.014.238-.121.473-.324.702m.715-1.435c-.098-.28-.26-.559-.476-.828a6.519 6.519 0 0 0-.747-.783 7.722 7.722 0 0 0-.517-.434 4.184 4.184 0 0 0-.565-.384 3.07 3.07 0 0 0-.593-.257 1.779 1.779 0 0 0-.608-.086 1.52 1.52 0 0 0-.602.153c-.2.099-.394.249-.582.459-.27.3-.435.605-.477.899-.047.297-.017.59.093.876.106.281.276.557.498.823.221.268.465.523.731.764.294.265.588.488.884.686.297.202.593.333.887.404.29.075.576.07.863-.01.282-.081.552-.269.816-.558.265-.293.42-.578.469-.866a1.65 1.65 0 0 0-.074-.858M93.551 77.388c-.183.202-.382.33-.586.387a1.241 1.241 0 0 1-.65-.007 2.504 2.504 0 0 1-.718-.34 6.613 6.613 0 0 1-.787-.619 6.933 6.933 0 0 1-.638-.661 3.181 3.181 0 0 1-.454-.696 1.394 1.394 0 0 1-.135-.696c.014-.23.115-.45.303-.659.202-.225.42-.36.647-.4.227-.042.462-.032.704.051.24.082.477.206.718.377.24.17.476.352.7.559.214.193.417.4.614.621.197.224.352.452.46.683.113.223.16.464.147.698-.015.238-.122.473-.325.702m.716-1.435c-.098-.28-.26-.559-.477-.828a6.519 6.519 0 0 0-.747-.783 7.722 7.722 0 0 0-.517-.434 4.184 4.184 0 0 0-.565-.384 3.07 3.07 0 0 0-.593-.257 1.779 1.779 0 0 0-.607-.086 1.52 1.52 0 0 0-.603.153c-.2.099-.394.25-.581.459-.27.3-.436.605-.478.899-.047.297-.017.59.093.876.107.281.276.557.498.823.221.268.465.523.732.764.293.265.587.488.884.686.296.202.592.333.886.404.29.075.576.07.863-.01.283-.081.552-.269.816-.558.265-.293.42-.578.47-.866a1.65 1.65 0 0 0-.074-.858"/>
                        <path fill="#714F47" d="M93.999 28.636l-1.565-.937a4.327 4.327 0 0 1-1.486-5.918l3.857-6.444a4.327 4.327 0 0 1 5.918-1.485l1.565.937a4.327 4.327 0 0 1 1.486 5.917l-3.858 6.444A4.327 4.327 0 0 1 94 28.636"/>
                        <path fill="#91766F" d="M95.23 18.827l-.079.007h-.002c-.16.013-.296.069-.364.181l-1.529 2.555c-.192.321.015.802.46 1.068l4.27 2.557c.446.267.968.222 1.16-.099l1.496-2.499c.129-.216-.01-.536-.308-.715l-5.103-3.055z"/>
                        <path fill="#714F47" d="M103.74 34.01l-1.566-.937a4.327 4.327 0 0 1-1.486-5.918l3.858-6.444a4.327 4.327 0 0 1 5.918-1.486l1.565.937a4.327 4.327 0 0 1 1.485 5.918l-3.857 6.444a4.327 4.327 0 0 1-5.918 1.486"/>
                        <path fill="#91766F" d="M104.971 24.2l-.08.008h-.002c-.16.012-.296.068-.363.181l-1.53 2.555c-.192.321.015.802.46 1.068l4.271 2.557c.446.266.967.222 1.16-.1l1.495-2.498c.13-.216-.009-.536-.308-.715l-5.103-3.055z"/>
                        <path fill="#714F47" d="M112.344 39.016l-1.564-.937a4.327 4.327 0 0 1-1.486-5.918l3.857-6.444a4.327 4.327 0 0 1 5.918-1.486l1.565.937a4.327 4.327 0 0 1 1.486 5.918l-3.858 6.444a4.327 4.327 0 0 1-5.918 1.486"/>
                        <path fill="#91766F" d="M113.576 29.207l-.079.007h-.002c-.16.012-.296.068-.364.181l-1.529 2.555c-.192.321.015.802.46 1.068l4.27 2.557c.446.266.968.222 1.16-.1l1.496-2.498c.129-.216-.01-.536-.308-.715l-5.104-3.055z"/>
                        <path fill="#714F47" d="M124.183 38.508l-1.565-.937a4.327 4.327 0 0 1-1.486-5.918l3.857-6.443a4.327 4.327 0 0 1 5.918-1.486l1.565.937a4.327 4.327 0 0 1 1.486 5.917l-3.857 6.444a4.327 4.327 0 0 1-5.918 1.486"/>
                        <path fill="#91766F" d="M125.415 28.7l-.08.006h-.002c-.16.013-.296.069-.364.182l-1.529 2.554c-.192.321.015.802.46 1.069l4.27 2.556c.446.267.968.222 1.16-.099l1.496-2.499c.13-.215-.009-.536-.308-.715l-5.103-3.055z"/>
                        <path fill="#714F47" d="M82.153 76.112l-.442 1.77a4.327 4.327 0 0 1-5.231 3.14L63.83 77.865a4.327 4.327 0 0 1-3.14-5.231l.441-1.77a4.327 4.327 0 0 1 5.232-3.14l12.648 3.158a4.327 4.327 0 0 1 3.141 5.231"/>
                        <path fill="#91766F" d="M71 77.43l.046.078.001.003c.09.157.225.281.398.325l3.926.98a.936.936 0 0 0 1.125-.692l1.206-4.828a.937.937 0 0 0-.668-1.14l-3.84-.959a.625.625 0 0 0-.753.463l-1.44 5.77z"/>
                        <path fill="#000" d="M30.54 85.965s-5.866 11.417-8.717 20.286a4.595 4.595 0 0 0 1.623 5.079c2.635 1.98 4.899 2.024 8.771-2.622l8.436-9.691L30.54 85.965z"/>
                        <path fill="#FFD200" d="M54.986 77.264c-.378-1.706-1.157-3.344-2.391-4.55l-1.251.366c.004.016 1.192 3.235 1.188 4.556-.002.823-1.904 5.537-2.76 6.25-.498.62-4.391-.892-5.474-1.586-1.022-.655-1.926-1.07-2.677-2.12-.095-.132-.805-2.3-1.178-3.455l-1.114.948c-.35.627-.624 1.28-.625 1.877.013.195.043.382.095.567.095.276.232.545.4.804.098.13.211.262.345.395.332.33.684.64 1.045.94 3.165 1.839 7.349 4.907 9.57 5.376.418-.251.769-.634 1.057-1.072.95-1.44 1.685-3.111 2.394-4.68.614-1.36 1.129-2.765 1.453-4.22a8.348 8.348 0 0 0-.077-.396M24.99 108.397c-1.206-.972-2.081-2.278-2.642-3.71-.184.528-.36 1.05-.525 1.564a4.595 4.595 0 0 0 1.623 5.079c2.386 1.794 4.468 1.998 7.714-1.428-2.21.37-4.386-.067-6.17-1.505"/>
                        <path fill="#FFD200" d="M47.146 86.31l6.365 24.779 4.32-1.137-5.684-25.46zM58.74 93.13l.91 2.5 7.956-1.818-.682-2.956z"/>
                        <path fill="#000" d="M51.465 88.242a1.023 1.023 0 1 1-2.046 0 1.023 1.023 0 0 1 2.046 0M52.943 94.266a1.023 1.023 0 1 1-2.046 0 1.023 1.023 0 0 1 2.046 0M54.307 99.95a1.023 1.023 0 1 1-2.046 0 1.023 1.023 0 0 1 2.046 0M55.444 105.406a1.023 1.023 0 1 1-2.046 0 1.023 1.023 0 0 1 2.046 0"/>
                        <mask id="M" fill="#fff">
                            <use xlink:href="#L"/>
                        </mask>
                        <path fill="#606060" d="M0 271.234h130.556V140.677H0z" mask="url(#M)"/>
                    </g>
                </g>
            </g>
        </g>
    </g>
</svg>
