<svg xmlns="http://www.w3.org/2000/svg" xmlns:xlink="http://www.w3.org/1999/xlink" width="180" height="330" viewBox="0 0 180 330">
    <defs>
        <path id="a" d="M0 0h180v330H0z"/>
        <path id="c" d="M0 .206h200.053V193.46H0z"/>
    </defs>
    <g fill="none" fill-rule="evenodd">
        <mask id="b" fill="#fff">
            <use xlink:href="#a"/>
        </mask>
        <use fill="#50BE87" fill-rule="nonzero" xlink:href="#a"/>
        <g mask="url(#b)">
            <path fill="#044F6F" d="M146.717 188.574L20.003 240.073c-10.095 4.103-21.604-.754-25.706-10.85l-48.165-118.508c-4.103-10.095.755-21.604 10.849-25.705l126.714-51.5c10.095-4.103 21.603.754 25.706 10.848l48.165 118.51c4.103 10.094-.755 21.603-10.85 25.706"/>
            <g transform="rotate(-10 300.186 399.924)">
                <mask id="d" fill="#fff">
                    <use xlink:href="#c"/>
                </mask>
                <path fill="#F2EEED" d="M184.461 164.302L50.73 193.015c-10.653 2.288-21.144-4.494-23.432-15.148L.443 52.795C-1.843 42.14 4.94 31.65 15.592 29.365L149.324.65c10.654-2.287 21.144 4.494 23.431 15.148L199.61 140.87c2.287 10.654-4.495 21.144-15.148 23.432" mask="url(#d)"/>
            </g>
            <path fill="#034E6E" d="M108.887 65.416L-40.82 126.26l-6.392-15.73c-3.536-8.7.65-18.618 9.348-22.153L80.34 40.337c8.7-3.536 18.618.65 22.154 9.349l6.393 15.73z"/>
            <path fill="#7EB6A9" d="M102.293 62.633l-140.329 57.032-7.486-18.42L94.806 44.212z"/>
            <path fill="#6687A8" d="M6.968 133.427l-16.456 6.688-6.688-16.456L.28 116.971zM28.68 124.602l-16.456 6.689-6.687-16.457 16.456-6.688zM50.393 115.778l-16.456 6.688-6.687-16.456 16.456-6.689zM73.364 106.442l-16.456 6.689-6.689-16.456 16.456-6.689zM95.192 97.57l-16.457 6.69-6.688-16.457 16.456-6.688zM118.161 88.235l-16.456 6.689-6.688-16.456 16.456-6.689z"/>
            <path fill="#696A6C" d="M-9.87 139.176l.382.94 16.456-6.69-.381-.938zM11.843 130.351l.382.94 16.456-6.689-.382-.938zM33.556 121.527l.382.939 16.456-6.689-.382-.938zM56.526 112.191l.382.94 16.456-6.69-.381-.938zM78.353 103.32l.383.939L95.19 97.57l-.381-.938zM101.324 93.985l.381.939 16.456-6.688-.381-.94z"/>
            <path fill="#EC633F" d="M18.455 224.924L2 231.612l-6.688-16.456 16.456-6.688z"/>
            <path fill="#7F9FBA" d="M40.511 215.96l-16.456 6.688-6.689-16.456 16.458-6.688zM62.224 207.135l-16.456 6.688-6.688-16.456 16.456-6.689zM83.937 198.31L67.48 205l-6.688-16.457 16.456-6.688zM106.907 188.975l-16.456 6.688-6.689-16.456 16.457-6.688z"/>
            <path fill="#6687A8" d="M128.734 180.104l-16.456 6.688-14.463-35.586 16.456-6.688zM151.704 170.768l-16.456 6.688L128.56 161l16.456-6.688z"/>
            <path fill="#696A6C" d="M1.618 230.673l.381.939 16.457-6.689-.382-.938zM23.674 221.71l.381.938 16.456-6.688-.381-.94zM45.387 212.885l.381.938 16.456-6.689-.381-.938zM67.1 204.06l.38.938 16.457-6.688-.381-.938zM90.07 194.724l.381.939 16.456-6.689-.381-.938zM111.897 185.853l.381.938 16.456-6.687-.381-.94zM134.867 176.518l.381.938 16.457-6.689-.382-.938z"/>
            <path fill="#6687A8" d="M15.65 154.788l-16.457 6.688-6.688-16.457 16.457-6.687z"/>
            <path fill="#7F9FBA" d="M37.362 145.963l-16.456 6.688-6.688-16.456 16.456-6.688zM59.076 137.139l-16.457 6.687-6.688-16.456 16.456-6.688zM82.045 127.803L65.59 134.49 58.9 118.035l16.458-6.689z"/>
            <path fill="#6687A8" d="M112.278 139.613L95.822 146.3l-15.094-37.138 16.457-6.688zM126.842 109.597l-16.456 6.687-6.687-16.456 16.456-6.688z"/>
            <path fill="#696A6C" d="M-1.188 160.537l.381.938 16.456-6.687-.381-.94zM20.525 151.712l.381.939 16.457-6.688-.382-.94zM42.238 142.888l.381.938 16.457-6.688-.382-.939zM65.208 133.552l.381.939 16.456-6.689-.381-.938zM95.392 145.241l.43 1.06 16.456-6.688-.43-1.06zM110.005 115.345l.381.939 16.457-6.688-.382-.94z"/>
            <path fill="#6687A8" d="M2 184.433l-16.457 6.688-6.688-16.456 16.456-6.688zM24.055 175.469l-16.456 6.688L.91 165.701l16.456-6.688z"/>
            <path fill="#7F9FBA" d="M45.768 166.644l-16.456 6.689-6.689-16.457 16.456-6.688zM67.48 157.82l-16.455 6.688-6.689-16.456 16.456-6.689zM90.451 148.484l-16.456 6.689-6.689-16.457 16.457-6.688z"/>
            <path fill="#6687A8" d="M135.248 130.277l-16.456 6.689-6.688-16.456 16.456-6.689z"/>
            <path fill="#696A6C" d="M-14.84 190.182l.383.94L2 184.431l-.383-.938zM7.217 181.219l.382.938 16.456-6.689-.382-.938zM28.93 172.394l.382.938 16.456-6.688-.381-.939zM50.642 163.569l.383.939 16.456-6.689-.381-.938zM73.613 154.233l.382.94 16.457-6.69-.383-.937zM118.41 136.027l.383.938 16.456-6.688-.383-.938z"/>
            <path fill="#6687A8" d="M10.68 205.794l-16.456 6.688-6.688-16.456 16.456-6.688z"/>
            <path fill="#7F9FBA" d="M54.45 188.005l-16.457 6.688-6.688-16.456 16.456-6.688zM76.162 179.18l-16.456 6.688-6.689-16.456 16.457-6.687zM99.133 169.845l-16.457 6.688-6.688-16.456 16.456-6.688z"/>
            <path fill="#6687A8" d="M143.93 151.638l-16.457 6.688-6.688-16.456 16.456-6.688z"/>
            <path fill="#696A6C" d="M-6.158 211.543l.383.938 16.456-6.687-.382-.94zM37.611 193.754l.382.939 16.457-6.688-.382-.94zM59.324 184.93l.382.938 16.457-6.688-.382-.939zM82.294 175.594l.383.938 16.456-6.687-.383-.94zM127.092 157.387l.382.939 16.456-6.688-.382-.94z"/>
            <path fill="#755743" d="M126.706 166.813c-9.078.538-15.608 7.447-20.474 14.513-4.82 7-9.514 14.819-12.482 22.933-6.321-13.054-7.196-27.133-7.893-41.534-.355-7.336-.712-14.67-1.99-21.916-1.016-5.768-2.34-11.951-5.38-17.066.162-.809-.064-1.667-.898-2.217-.41-.272-.806-.49-1.195-.683-.065-.042-.133-.067-.202-.095-9.484-4.46-12.492 13.329-13.424 19.319-1.76 11.307-1.318 22.826-.674 34.233-6.984-.961-13.993 2.81-17.322 9.016-9.527-4.228-19.918 3.131-20.075 13.25-5.4.177-10.432 4.107-12.468 9.304-3.72 9.49 1.76 20.702 4.703 29.646 7.78 23.646 15.59 47.28 23.43 70.904.67 2.018 2.453 2.453 4.008 1.917.086.003.17.012.26.011 12.732-.076 25.804-1.707 37.813-6.142 4.694-1.735 6.527-4.751 6.42-9.689-.136-6.149.163-12.195 1.267-18.257 2.23-12.254 7.69-23.07 13.877-33.746 5.445-9.397 10.96-18.84 13.597-29.474 1.694-6.829 2.45-13.69 4.918-20.333 2.46-6.616 5.48-12.994 7.383-19.811.633-2.27-.775-4.227-3.199-4.083"/>
            <path fill="#6C5342" d="M83.868 140.81c-.98-5.57-2.255-11.521-5.077-16.53a32.7 32.7 0 0 1 .626 2.545c1.556 7.59.876 15.365.918 23.047.053 9.564-.102 19.118.184 28.68.254 8.529.718 17.203 2.819 25.507.735 2.907 1.95 8.164 5.082 9.52 4.809 2.083 7.34-8.11 8.465-11.042 4.58-11.962 10.783-23.35 20.056-32.266l.39-.371c-4.47 2.78-8.1 7.072-11.099 11.426-4.819 7-9.514 14.818-12.483 22.934-6.32-13.055-7.196-27.134-7.892-41.535-.354-7.336-.711-14.67-1.989-21.916M13.133 210.027c1.758-4.149 5.394-10.909 10.472-10.919.07-.836.19-1.665.35-2.485-5.114.493-9.783 4.29-11.727 9.247-1.193 3.045-1.436 6.268-1.123 9.537a67.458 67.458 0 0 1 2.028-5.38M115.392 212.465c-8.685 16.4-23.23 29.883-28.34 48.073-2.368 8.433-1.836 17.01-3.401 25.53-1.293 7.04-4.832 13.135-11.342 16.473-12.229 6.273-25.575.755-35.598-7.146 1.219 3.675 2.433 7.351 3.651 11.025.67 2.018 2.454 2.453 4.008 1.916.086.005.169.013.259.012 12.733-.076 25.805-1.707 37.814-6.143 4.694-1.734 6.527-4.75 6.419-9.688-.134-6.148.164-12.195 1.267-18.257 2.23-12.254 7.69-23.07 13.877-33.746 5.447-9.396 10.96-18.84 13.599-29.475.406-1.642.76-3.285 1.094-4.927a593.83 593.83 0 0 1-3.307 6.353M31.171 185.096c5.409-3.661 9.988-2.058 14.51 1.158 3.142-6.03 10.557-11.582 16.965-9.327 2.498-11.403-.323-23.38.637-34.94.37-4.469.985-8.978 2.133-13.327-1.482 4.192-2.253 8.863-2.648 11.406-1.76 11.308-1.319 22.827-.674 34.233-6.984-.96-13.992 2.812-17.322 9.017-7.757-3.443-16.086.798-18.998 7.955 1.245-2.43 3.026-4.57 5.397-6.175"/>
            <path fill="#FFE2CC" fill-opacity=".2" d="M127.276 168.435c-2.091-.858-4.043.258-5.03 2.1-1.24 2.316-2.432 4.625-3.548 7.004l.077.031c-.562 1.551-.35 3.25 1.119 4.368 1.461 1.11 4.21 1.034 5.24-.715a130.394 130.394 0 0 0 4.241-7.759c.934-1.86-.278-4.282-2.1-5.03M76.895 130.306c.124-1.483.228-2.968.304-4.462.122-2.372-2.258-4.347-4.505-4.291-2.579.066-4.106 2.128-4.29 4.505a232.01 232.01 0 0 0-.225 3.191c2.913-.156 5.851.312 8.716 1.057"/>
            <path fill="#FFF" d="M36.289 334.841l73.03-12.877-6.2-35.164-73.03 12.878z"/>
            <path fill="#E6E6E6" d="M102.314 296.252c-11.738 6.284-24.894 10.457-38.126 11.948-11.2 1.26-23.844.683-33.566-5.499l5.667 32.14 73.029-12.877-4.753-26.952c-.752.425-1.505.84-2.251 1.24"/>
            <path fill="#355375" d="M34.64 349.465l83.769-14.77-6.2-35.164L28.44 314.3z"/>
            <path fill="#284868" d="M47.316 336.742c5.262-7.598 12.306-13.945 20.32-18.528 8.022-4.588 17.096-7.327 26.27-8.316 6.642-.717 13.337-.466 19.994-.778l-1.691-9.588-83.769 14.77 6.2 35.163 6.109-1.077c1.893-4.043 4.02-7.968 6.567-11.646M112.266 318.014c-1.77-1.676-4.757-.377-6.878.031-2.545.491-5.077.796-7.243 2.322-.575.405-.499 1.54.24 1.738 2.719.728 5.337.105 8.065-.331 2.28-.365 5.04-.148 6.175-2.442.236-.479-.013-.99-.359-1.318M112.548 326.916c-2.62.484-5.25.92-7.857 1.454-1.958.4-4.043.826-5.21 2.565-.315.47-.282 1.13.202 1.486 1.687 1.236 3.73.993 5.715.699 2.633-.39 5.254-.882 7.878-1.32 3.128-.526 2.402-5.462-.728-4.884"/>
        </g>
    </g>
</svg>
