<svg id="Calque_1" data-name="Calque 1" xmlns="http://www.w3.org/2000/svg" viewBox="0 0 180 330"><title>le calculateur de frais ok</title><rect width="180" height="330" style="fill:#d9c2f0"/><g id="_Groupe_" data-name="&lt;Groupe&gt;"><g id="_Groupe_2" data-name="&lt;Groupe&gt;"><rect id="_Rectangle_" data-name="&lt;Rectangle&gt;" x="6.28" y="93.68" width="112.9" height="91.98" rx="12.75" ry="12.75" transform="translate(-28.85 16.97) rotate(-12.55)" style="fill:#ededee"/></g><g id="_Groupe_3" data-name="&lt;Groupe&gt;"><rect id="_Rectangle_2" data-name="&lt;Rectangle&gt;" x="13.65" y="102.89" width="86.4" height="16.98" rx="5.7" ry="5.7" transform="translate(-22.84 15.01) rotate(-12.55)" style="fill:#b5e8f7"/><path id="_Tracé_transparent_" data-name="&lt;Tracé transparent&gt;" d="M97.4,113.53,21,130.52a6.49,6.49,0,0,1-7.74-4.92L11.37,117a6.49,6.49,0,0,1,4.92-7.74l76.38-17a6.49,6.49,0,0,1,7.74,4.92l1.92,8.62A6.49,6.49,0,0,1,97.4,113.53Zm-80.07.42a1.67,1.67,0,0,0-1.26,2L18,124.55a1.67,1.67,0,0,0,2,1.26l76.38-17a1.67,1.67,0,0,0,1.26-2L95.7,98.21a1.67,1.67,0,0,0-2-1.26Z" style="fill:#8f8f8f"/></g><g id="_Groupe_4" data-name="&lt;Groupe&gt;"><g id="_Groupe_5" data-name="&lt;Groupe&gt;"><rect id="_Rectangle_3" data-name="&lt;Rectangle&gt;" x="18.85" y="139.23" width="12.3" height="11.65" rx="3.91" ry="3.91" transform="translate(-30.92 8.9) rotate(-12.55)" style="fill:#8f8f8f"/></g><g id="_Groupe_6" data-name="&lt;Groupe&gt;"><rect id="_Rectangle_4" data-name="&lt;Rectangle&gt;" x="36.26" y="135.35" width="12.3" height="11.65" rx="3.91" ry="3.91" transform="translate(-29.66 12.59) rotate(-12.55)" style="fill:#8f8f8f"/></g><g id="_Groupe_7" data-name="&lt;Groupe&gt;"><rect id="_Rectangle_5" data-name="&lt;Rectangle&gt;" x="53.67" y="131.48" width="12.3" height="11.65" rx="3.91" ry="3.91" transform="translate(-28.4 16.28) rotate(-12.55)" style="fill:#8f8f8f"/></g><g id="_Groupe_8" data-name="&lt;Groupe&gt;"><rect id="_Rectangle_6" data-name="&lt;Rectangle&gt;" x="71.08" y="127.6" width="12.3" height="11.65" rx="3.91" ry="3.91" transform="translate(-27.14 19.97) rotate(-12.55)" style="fill:#8f8f8f"/></g><g id="_Groupe_9" data-name="&lt;Groupe&gt;"><rect id="_Rectangle_7" data-name="&lt;Rectangle&gt;" x="88.49" y="123.73" width="12.3" height="11.65" rx="3.91" ry="3.91" transform="translate(-25.89 23.66) rotate(-12.55)" style="fill:#8f8f8f"/></g><g id="_Groupe_10" data-name="&lt;Groupe&gt;"><rect id="_Rectangle_8" data-name="&lt;Rectangle&gt;" x="22.34" y="154.9" width="12.3" height="11.65" rx="3.91" ry="3.91" transform="translate(-34.24 10.03) rotate(-12.55)" style="fill:#8f8f8f"/></g><g id="_Groupe_11" data-name="&lt;Groupe&gt;"><rect id="_Rectangle_9" data-name="&lt;Rectangle&gt;" x="39.75" y="151.02" width="12.3" height="11.65" rx="3.91" ry="3.91" transform="translate(-32.98 13.72) rotate(-12.55)" style="fill:#8f8f8f"/></g><g id="_Groupe_12" data-name="&lt;Groupe&gt;"><rect id="_Rectangle_10" data-name="&lt;Rectangle&gt;" x="57.16" y="147.15" width="12.3" height="11.65" rx="3.91" ry="3.91" transform="translate(-31.72 17.41) rotate(-12.55)" style="fill:#8f8f8f"/></g><g id="_Groupe_13" data-name="&lt;Groupe&gt;"><rect id="_Rectangle_11" data-name="&lt;Rectangle&gt;" x="74.57" y="143.27" width="12.3" height="11.65" rx="3.91" ry="3.91" transform="translate(-30.46 21.1) rotate(-12.55)" style="fill:#8f8f8f"/></g><g id="_Groupe_14" data-name="&lt;Groupe&gt;"><rect id="_Rectangle_12" data-name="&lt;Rectangle&gt;" x="91.98" y="139.4" width="12.3" height="11.65" rx="3.91" ry="3.91" transform="translate(-29.21 24.79) rotate(-12.55)" style="fill:#8f8f8f"/></g><g id="_Groupe_15" data-name="&lt;Groupe&gt;"><rect id="_Rectangle_13" data-name="&lt;Rectangle&gt;" x="25.82" y="170.57" width="12.3" height="11.65" rx="3.91" ry="3.91" transform="translate(-37.56 11.16) rotate(-12.55)" style="fill:#8f8f8f"/></g><g id="_Groupe_16" data-name="&lt;Groupe&gt;"><rect id="_Rectangle_14" data-name="&lt;Rectangle&gt;" x="43.23" y="166.69" width="12.3" height="11.65" rx="3.91" ry="3.91" transform="translate(-36.3 14.85) rotate(-12.55)" style="fill:#8f8f8f"/></g><g id="_Groupe_17" data-name="&lt;Groupe&gt;"><rect id="_Rectangle_15" data-name="&lt;Rectangle&gt;" x="60.64" y="162.82" width="12.3" height="11.65" rx="3.91" ry="3.91" transform="translate(-35.04 18.54) rotate(-12.55)" style="fill:#8f8f8f"/></g><g id="_Groupe_18" data-name="&lt;Groupe&gt;"><rect id="_Rectangle_16" data-name="&lt;Rectangle&gt;" x="78.05" y="158.94" width="12.3" height="11.65" rx="3.91" ry="3.91" transform="translate(-33.79 22.23) rotate(-12.55)" style="fill:#8f8f8f"/></g><g id="_Groupe_19" data-name="&lt;Groupe&gt;"><rect id="_Rectangle_17" data-name="&lt;Rectangle&gt;" x="95.47" y="155.07" width="12.3" height="11.65" rx="3.91" ry="3.91" transform="translate(-32.53 25.92) rotate(-12.55)" style="fill:#8f8f8f"/></g></g></g><path id="_Tracé_" data-name="&lt;Tracé&gt;" d="M121.11,252.75H143a46.29,46.29,0,0,1,6.66-2.68c3.94-1.14,7.32-1,10.71-3.49l.11-.07c-.17-3.8-.27-7.6-.34-11.4-.06-.68-.1-1.35-.12-2a1.39,1.39,0,0,1-.28-.88c0-1.36-.05-2.74-.09-4.11-4.34-9-9-19.19-12.17-28.6-2.43-7.28-5.1-15.21-9.1-21.75a5.82,5.82,0,0,0-4.88-3.23c-1.72-.19-2.84.28-4.3-.88-.91-.72-2-2.16-3.06-2.84-2.56-1.72-5.05.45-7.71.87-3.17.5-4-2.4-7.29-2.06-3.72.38-6.22,3.52-10.11,2.65-3.57-.8-6-3.8-8.29-6.49-2.41-2.9-7.11-9.91-9.62-12.73-.62-.7-5.37-9.4-5.65-9.33-5,1.32-4.26,10-3.67,13.77,1,6.48,5.48,12.6,8.94,18,4.23,6.65,11.85,16.61,12,24.77.24,10.46-11.2.74-15.62.72-4.8,0-12.08,0-12.44,7.26,3.89.7,7.71,1,10.55,4,5,5.19,9.78,10.84,16.33,14.28,5,2.65,10.81,4.06,15.43,7.51,5.53,4.12,9,11.76,11.74,17.88C120.89,252.2,121,252.48,121.11,252.75Z" style="fill:#714e46"/><path id="_Tracé_2" data-name="&lt;Tracé&gt;" d="M164,330h16c0-9-.1-79.19,0-79.8,1.1-6.51-15.81-23.71-19.3-28.78-1.12-1.63-2.19-2.29-3.61-2.23-1.85.08-45.09,18.45-48.33,22-2.16,2.37-1.61,4.24.77,8.45C110.64,251.62,163.32,328.82,164,330Z" style="fill:#085ebd"/><path id="_Tracé_3" data-name="&lt;Tracé&gt;" d="M112.71,242.06a1.19,1.19,0,0,0-1.67,1.68l.37.39.17.24c.08.13.16.27.23.4a1.19,1.19,0,0,0,1.62.42,1.21,1.21,0,0,0,.42-1.63A6.06,6.06,0,0,0,112.71,242.06Z" style="fill:#263e4e"/><path id="_Tracé_4" data-name="&lt;Tracé&gt;" d="M119,240a1.18,1.18,0,0,0-1.11-.79,1.19,1.19,0,0,0-1.18,1.19,1.56,1.56,0,0,0,.23.81,2.05,2.05,0,0,0,.17.21,1.18,1.18,0,0,0,1.11.79,1.19,1.19,0,0,0,1.18-1.19,1.56,1.56,0,0,0-.23-.81A2,2,0,0,0,119,240Z" style="fill:#263e4e"/><path id="_Tracé_5" data-name="&lt;Tracé&gt;" d="M121.9,245.49v0h0a1.18,1.18,0,0,0-2.33.26,2.73,2.73,0,0,0,1,1.79,1.19,1.19,0,1,0,1.67-1.68Z" style="fill:#263e4e"/><path id="_Tracé_6" data-name="&lt;Tracé&gt;" d="M125.85,236.88a1.19,1.19,0,0,0-1.63-.42,1.21,1.21,0,0,0-.42,1.63,14.5,14.5,0,0,1,.84,1.93,1.21,1.21,0,0,0,1.46.82,1.19,1.19,0,0,0,.82-1.46A20,20,0,0,0,125.85,236.88Z" style="fill:#263e4e"/><path id="_Tracé_7" data-name="&lt;Tracé&gt;" d="M127.17,242.64a1.2,1.2,0,0,0,0,1.68l0,0a3,3,0,0,1,.19.31l0,.06,0,.11a1.18,1.18,0,0,0,2.36-.11,3.4,3.4,0,0,0-1-2.1A1.2,1.2,0,0,0,127.17,242.64Z" style="fill:#263e4e"/><path id="_Tracé_8" data-name="&lt;Tracé&gt;" d="M133.18,236.2h0l-.23-.33a6.07,6.07,0,0,0-.64-.84,1.19,1.19,0,1,0-1.67,1.68l.08.09h0l.23.33a6.08,6.08,0,0,0,.64.84,1.19,1.19,0,1,0,1.67-1.68Z" style="fill:#263e4e"/><path id="_Tracé_9" data-name="&lt;Tracé&gt;" d="M137.26,241.27a1.19,1.19,0,0,0-1.63-.42,1.21,1.21,0,0,0-.42,1.63,10.25,10.25,0,0,0,1.78,2.45c1.07,1.09,2.75-.59,1.67-1.68A8,8,0,0,1,137.26,241.27Z" style="fill:#263e4e"/><path id="_Tracé_10" data-name="&lt;Tracé&gt;" d="M139.49,232.7h0l-.23-.33a6,6,0,0,0-.64-.84,1.19,1.19,0,0,0-1.67,1.68l.08.09h0l.23.33a6,6,0,0,0,.64.84,1.19,1.19,0,0,0,1.67-1.68Z" style="fill:#263e4e"/><path id="_Tracé_11" data-name="&lt;Tracé&gt;" d="M144,239.1a1.19,1.19,0,0,0-1.67,1.68l.06.07,0,0c.08.12.15.24.23.37.16.28.3.57.45.86a1.19,1.19,0,0,0,1.63.42,1.21,1.21,0,0,0,.42-1.63A7.34,7.34,0,0,0,144,239.1Z" style="fill:#263e4e"/><path id="_Tracé_12" data-name="&lt;Tracé&gt;" d="M144.65,230.73a1.19,1.19,0,1,0-1.67,1.68l1,.95a1.19,1.19,0,0,0,1.67-1.68Z" style="fill:#263e4e"/><path id="_Tracé_13" data-name="&lt;Tracé&gt;" d="M151.3,237.49c-.06-.09-.11-.19-.16-.29a2.8,2.8,0,0,0-.48-.66,1.19,1.19,0,1,0-1.67,1.68h0c.06.09.11.19.16.29a2.84,2.84,0,0,0,.48.66,1.19,1.19,0,0,0,1.67-1.69Z" style="fill:#263e4e"/><path id="_Tracé_14" data-name="&lt;Tracé&gt;" d="M153.93,241.73a1.19,1.19,0,1,0-1.19,2.05l.31.18h0a2.3,2.3,0,0,1,.21.21c-.18-.19.09.23.09.17a1.5,1.5,0,0,1,0,.15v0a.82.82,0,0,0,0,.1,1.19,1.19,0,1,0,2.37,0A3.38,3.38,0,0,0,153.93,241.73Z" style="fill:#263e4e"/><path id="_Tracé_15" data-name="&lt;Tracé&gt;" d="M149.82,223.55a1.19,1.19,0,0,0-1.19,2.05l.17.09h0l0,0,.13.13h0l0,0a6.72,6.72,0,0,1,.46.83,1.19,1.19,0,0,0,1.63.42,1.21,1.21,0,0,0,.42-1.63A4.27,4.27,0,0,0,149.82,223.55Z" style="fill:#263e4e"/><path id="_Tracé_16" data-name="&lt;Tracé&gt;" d="M154.32,230.47c-1.06-1.11-2.73.58-1.67,1.69a15.16,15.16,0,0,1,1.41,2.29,1.19,1.19,0,1,0,2-1.2A18,18,0,0,0,154.32,230.47Z" style="fill:#263e4e"/><path id="_Tracé_17" data-name="&lt;Tracé&gt;" d="M158.79,237.82a1.21,1.21,0,0,0-1.46-.82,1.19,1.19,0,0,0-.82,1.46,12.79,12.79,0,0,0,1.71,2.81,1.21,1.21,0,0,0,1.62.42,1.19,1.19,0,0,0,.42-1.63A10.89,10.89,0,0,1,158.79,237.82Z" style="fill:#263e4e"/><path id="_Tracé_18" data-name="&lt;Tracé&gt;" d="M157.69,222.58a1.21,1.21,0,0,0-1.46-.82,1.19,1.19,0,0,0-.82,1.46,14.34,14.34,0,0,0,1.71,3.13,1.21,1.21,0,0,0,1.63.42,1.19,1.19,0,0,0,.42-1.63A12.06,12.06,0,0,1,157.69,222.58Z" style="fill:#263e4e"/><path id="_Tracé_19" data-name="&lt;Tracé&gt;" d="M147.92,245.27a2,2,0,0,0-.91-.19,1.52,1.52,0,1,0,1.47.66A2.33,2.33,0,0,0,147.92,245.27Z" style="fill:#263e4e"/><path id="_Tracé_20" data-name="&lt;Tracé&gt;" d="M113.72,250.05a1,1,0,0,0,0,1.42c.15.15.3.3.45.47h0l.07.12a1,1,0,0,0,2-.1,3,3,0,0,0-1.1-1.91A1,1,0,0,0,113.72,250.05Z" style="fill:#263e4e"/><path id="_Tracé_21" data-name="&lt;Tracé&gt;" d="M123.58,252a1,1,0,0,0-1.42,1.42l0,0,.08.12,0,.06,0,.11c.14.37.29.73.46,1.08a1,1,0,0,0,1.38.36,1,1,0,0,0,.36-1.37A6.41,6.41,0,0,0,123.58,252Z" style="fill:#263e4e"/><path id="_Tracé_22" data-name="&lt;Tracé&gt;" d="M129.92,249.72a1.16,1.16,0,0,0-.4,1.56c.15.29.31.56.47.84a1.16,1.16,0,0,1,.18.59,1.14,1.14,0,1,0,2.28,0,5.92,5.92,0,0,0-1-2.58A1.14,1.14,0,0,0,129.92,249.72Z" style="fill:#263e4e"/><path id="_Tracé_23" data-name="&lt;Tracé&gt;" d="M142.18,250.19a2.28,2.28,0,0,0-1.33-.25,1.14,1.14,0,1,0,0,2.28h.1l.12.24a1.14,1.14,0,0,0,1.56.4,1.16,1.16,0,0,0,.4-1.56A2.79,2.79,0,0,0,142.18,250.19Z" style="fill:#263e4e"/><path id="_Tracé_24" data-name="&lt;Tracé&gt;" d="M80.35,149.57c-.62-1.31-2.29-3.66-2.66-4.84-.2-.64-2.42,1.69-2.56,4.34-.1,1.88,2.72,3.37,4.52,2.17C80.21,150.87,81.44,151.87,80.35,149.57Z" style="fill:#66413e"/><path id="_Tracé_25" data-name="&lt;Tracé&gt;" d="M71,204c-.66.05-3.81,3.64-3.14,3.59,1.75-.14,6,2.42,7.74,2.3.67,0,.29-.19.66-.75C78.4,206,73.61,203.84,71,204Z" style="fill:#66413e"/><path id="_Tracé_26" data-name="&lt;Tracé&gt;" d="M164,232.93c-.1-.18-.2-.36-.3-.54l0-.08,0-.06v0a1.17,1.17,0,0,0-2.34,0,4.3,4.3,0,0,0,.68,1.88,1.17,1.17,0,0,0,1.6.41A1.19,1.19,0,0,0,164,232.93Z" style="fill:#263e4e"/><path id="_Tracé_27" data-name="&lt;Tracé&gt;" d="M168.44,241.63a12.53,12.53,0,0,1-1.38-1.83,1.19,1.19,0,0,0-1.6-.41A1.17,1.17,0,0,0,165,241a15.9,15.9,0,0,0,1.75,2.31C167.85,244.37,169.5,242.71,168.44,241.63Z" style="fill:#263e4e"/><path id="_Tracé_28" data-name="&lt;Tracé&gt;" d="M162.77,248.52l-.1-.11a2,2,0,0,0-.13-.18c-.11-.16-.2-.32-.3-.48a6,6,0,0,0-.78-1,1.17,1.17,0,1,0-1.64,1.66l.1.11a2,2,0,0,0,.13.18c.11.16.2.32.3.48a6,6,0,0,0,.78,1,1.17,1.17,0,1,0,1.65-1.66Z" style="fill:#263e4e"/><g id="_Groupe_20" data-name="&lt;Groupe&gt;"><path d="M121.25,99.23c.26-.29.52-.56.8-.82a8.83,8.83,0,0,1,.73-.6,11.2,11.2,0,0,1,1-.61l.51-.27s.51-.23.32-.15a2.58,2.58,0,0,0,1.75-3.08A2.52,2.52,0,0,0,123.25,92a14.62,14.62,0,0,0-5.54,3.74,2.56,2.56,0,0,0,0,3.54,2.53,2.53,0,0,0,3.54,0Z" style="fill:#ededee"/></g><g id="_Groupe_21" data-name="&lt;Groupe&gt;"><path id="_Tracé_29" data-name="&lt;Tracé&gt;" d="M123,112.44l6.19-1.43c2.16-.5,1.25-3.82-.92-3.32l-6.19,1.43c-2.16.5-1.25,3.82.92,3.32Z" style="fill:#ededee"/></g><g id="_Groupe_22" data-name="&lt;Groupe&gt;"><path id="_Tracé_30" data-name="&lt;Tracé&gt;" d="M126.16,124.46a5,5,0,0,1,4,1.05,1.73,1.73,0,0,0,2.36-.62,1.76,1.76,0,0,0-.62-2.36,8.4,8.4,0,0,0-6.69-1.4c-2.17.42-1.25,3.74.92,3.32Z" style="fill:#ededee"/></g><g id="_Groupe_23" data-name="&lt;Groupe&gt;"><path id="_Tracé_31" data-name="&lt;Tracé&gt;" d="M127.89,138.08a31.24,31.24,0,0,0,5.79,2.24,1.72,1.72,0,0,0,.92-3.32,26.63,26.63,0,0,1-5-1.9c-2-1-3.72,2-1.74,3Z" style="fill:#ededee"/></g><rect x="-0.5" y="-0.5" width="180" height="330" style="fill:none"/></svg>