<svg xmlns="http://www.w3.org/2000/svg" width="300" height="201" viewBox="0 0 300 201">
    <g fill="none" fill-rule="evenodd">
        <path fill="#B5E8F7" d="M22.692 58.807C28.158 54.614 128.758-17.927 140.4 4.183c11.64 22.11-124.175 79.985-.647 37.066C263.28-1.67 294.972-6.872 275.569 17.839c-19.402 24.71-36.218 52.673-14.228 52.673 21.99 0 51.093 23.41 32.984 35.115-18.11 11.705-44.625 22.11-30.398 30.563 14.23 8.454.648 16.908-6.467 20.81-7.114 3.902-148.75 27.312-183.675 24.06-34.925-3.251-87.31.65-53.68-17.558s62.734-45.52 38.805-37.716c-23.93 7.803-58.207-3.251-33.631-21.46 24.576-18.207-65.321 2.602-2.587-45.52"/>
        <path fill="#8F8F8F" d="M48.291 200.852h123.116V113.59H48.29z"/>
        <path fill="#FF7900" d="M48.29 124.093h123.117v-19.63H48.29z"/>
        <path fill="#A885D8" d="M60.188 104.463H52.63a.573.573 0 0 1-.573-.573V89.098c0-.79.64-1.431 1.431-1.431h5.84c.79 0 1.431.64 1.431 1.431v14.792a.573.573 0 0 1-.572.573"/>
        <path fill="#D9C2F0" d="M54.351 87.667h4.116V82.7H54.35z"/>
        <path fill="#FFD200" d="M66.052 104.453h-6.41a.572.572 0 0 1-.573-.572V92.853c0-.79.64-1.43 1.432-1.43h4.693c.79 0 1.43.64 1.43 1.43v11.028a.572.572 0 0 1-.572.572"/>
        <path fill="#FFF6B6" d="M61.362 91.423h2.97v-3.747h-2.97z"/>
        <path fill="#482E26" d="M165.188 70.756c-6.807-2.075-7.719 5.53-7.719 5.53l-4.622 19.35c-2.431 2.65-11.302 10.906-16.251 15.066l-2.664.507a2.547 2.547 0 0 0-2.021 1.286l-.718 1.273c-2.696 2.167-4.68 4.206-3.621 5.781 4.146 5.362 11.45-1.602 12.302-2.446l.01.012 19.24-14.88c1.292-1 2.466-2.24 2.998-3.786 2.604-7.58 10.704-25.366 3.066-27.693"/>
        <path fill="#714E46" d="M88.454 74.479c-.001 1.836 1.183 3.326 2.645 3.327 1.462.002 2.649-1.486 2.65-3.322.003-1.836-1.182-2.716-2.644-2.718-1.463-.001-2.649.876-2.65 2.713M108.948 74.5c-.002 1.836 1.182 3.326 2.644 3.327 1.463.002 2.65-1.486 2.652-3.322.001-1.837-1.183-2.717-2.646-2.718-1.462-.001-2.648.876-2.65 2.713"/>
        <path fill="#0A6E31" d="M120.543 93.155l7.748 18.578-53.96-.055 7.802-18.558a5.724 5.724 0 0 1 4.06-3.375l11.296-2.457 7.71.008 11.284 2.47a5.723 5.723 0 0 1 4.06 3.389"/>
        <path fill="#714E46" d="M95.521 85.454c-6.334-7.83-5.432-15.565-5.432-15.565-.234-6.114 4.81-11.26 11.276-11.254 6.466.007 11.5 5.163 11.253 11.277 0 0 .886 7.736-5.464 15.554l-11.633-.012z"/>
        <path fill="#000" d="M96.908 84.124c-.891 0-1.753-.409-2.28-1.127-5.41-7.375-4.539-13.108-4.539-13.108-.234-6.114 4.81-11.26 11.276-11.253 6.466.006 11.5 5.162 11.253 11.276 0 0 .86 5.735-4.566 13.098-.529.718-1.391 1.124-2.282 1.123l-8.862-.009z"/>
        <path fill="#714E46" d="M95.519 87.793l11.632.011.004-3.527-11.632-.012z"/>
        <path fill="#595959" d="M123.753 193.096h-44.8l-1.718-9.584h48.235z"/>
        <path fill="#000" d="M93.194 187.27v-2.085c0-.264-.064-.525-.188-.764l-1.584-4.618a.942.942 0 0 1-.105-.5l.243-14.814h-8.531l.918 14.635a.962.962 0 0 1-.307.759l-4.61 4.385c-.348.33-.542.773-.542 1.233v1.768h14.706zM124.127 185.433a1.704 1.704 0 0 0-.534-1.165l-4.612-4.385a.965.965 0 0 1-.306-.76l.918-14.634h-8.531l.242 14.814a.936.936 0 0 1-.104.5l-1.585 4.618c-.123.239-.188.5-.188.764v2.089H124.135v-1.84h-.008z"/>
        <path fill="#4BB4E6" d="M82.544 178.46h10.36v-21.24h-10.36zM109.754 178.46h10.36v-21.24h-10.36z"/>
        <path fill="#FFF" d="M132.615 162.985H70.043l2.383-12.487h57.806z"/>
        <path fill="#FFF" d="M114.934 182.311v-21.863h-27.21v21.863a5.725 5.725 0 0 1-5.725 5.725h-1.943a8.587 8.587 0 0 0-8.587 8.587v4.23h59.72v-4.23a8.587 8.587 0 0 0-8.587-8.587h-1.943a5.725 5.725 0 0 1-5.725-5.725"/>
        <path fill="#000" d="M71.469 200.852h59.72v-4.229h-59.72z"/>
        <path fill="#492191" d="M134.016 121.558h-3.784v-13.36c0-6.323-5.126-11.449-11.45-11.449H83.876c-6.323 0-11.45 5.126-11.45 11.45v13.359h-3.783a2.862 2.862 0 0 0-2.862 2.862v4.832h6.646v21.245h57.806v-21.245h6.647v-4.832a2.862 2.862 0 0 0-2.863-2.862"/>
        <path fill="#D6D6D6" d="M87.724 169.688h27.21v-6.703h-27.21z"/>
        <path fill="#482E26" d="M168.412 65.873l-10.444.67.154-4.318 10.578-1.717z"/>
        <path fill="#482E26" d="M146.22 52.463c-.139-.846.904-1.962 1.573-3.02.231-.364.45-.725.621-1.09.248-.525.399-1.055.331-1.611-.31-2.562.065-4.26.173-4.676.095-.282.156-.437.156-.437 1.804-5.006 5.513-7.536 12.557-8.285 7.298-.776 12.66 2.83 14.424 9.842 2 7.952-3.231 13.673-6.42 16.752 0 0-4.336 4.308-10.418 4.178-5.729-.021-8.004-3.468-8.855-5.333a17.378 17.378 0 0 1-1.937-4.58s-2.12-.699-2.205-1.74"/>
        <path fill="#A885D8" d="M147.189 95.512c4.575-18.9 10.779-28.968 10.779-28.968l10.444-.671s6.904 3.478 5.673 30.495c-.536 11.77.023 27.461.023 27.461h-30.01l.324-7.97c.28-6.853 1.153-13.682 2.767-20.347"/>
        <path fill="#000" d="M152.134 48.87a1.077 1.077 0 1 0 2.128-.334 1.077 1.077 0 0 0-2.128.334M149.93 39.704c2.164-3.962 5.782-5.73 11.701-6.36 7.298-.776 12.66 2.83 14.424 9.842 1.847 7.341-2.408 13.293-7.315 17.52l-.016-6.345c-.018-.774.078-1.603.476-2.268.836-1.4 2.021-3.977.492-5.417-2.02-1.9-4.686 1.763-4.686 1.763l-2.224-.017a.23.23 0 0 1-.223-.178l-.242-5.782c.002-1.172-.63-1.681-2.22-1.813l-10.168-.945z"/>
        <path fill="#595959" d="M171.154 133.225c-1.062 2.378-1.969 5.97-2.03 8.574l-.424 13.537h-21.753l-2.102-31.507h28.145s.127 5.002-1.836 9.396"/>
        <path fill="#482E26" d="M152.955 155.337l4.9 36.783c.087.594-.25 1.172-.849 1.452l-11.818 5.662c-.897.42-.557 1.62.456 1.618l19.856-.065c.363 0 .654-.267.644-.588l.004-44.862h-13.193z"/>
        <path fill="#000" d="M166.322 200.242c.321.005-.281.587-.645.588l-20.372.002c-1.72 0-2.078-2.267-.456-2.763l11.722-4.335a.282.282 0 0 1 .405.232c.125 1.43.302 6.142 9.346 6.276"/>
        <path fill="#595959" d="M116.924 72.566a2.53 2.53 0 0 1-3.56-.234l-5.42-6.182c-.915-1.043-.025-1.75 1.018-2.665s1.86-1.704 2.775-.661l5.421 6.183a2.53 2.53 0 0 1-.234 3.56"/>
        <path fill="#8F8F8F" d="M110.61 61.81l-3.524 3.09-1.676-1.911 3.525-3.09z"/>
        <path fill="#D6D6D6" d="M109.19 60.189l-3.525 3.09-.255-.29 3.525-3.09z"/>
        <path fill="#8F8F8F" d="M109.58 62.208c.567.646.587 1.556.044 2.032-.543.475-1.442.337-2.009-.309-.566-.646-.586-1.556-.043-2.031.543-.476 1.442-.338 2.008.308"/>
        <path fill="#482E26" d="M168.933 75.092c-1.556-6.944-8.62-3.984-8.62-3.984l-19.11 5.533c-3.504-.808-15.062-4.447-21.124-6.698l-1.755-2.067a2.546 2.546 0 0 0-2.117-1.122l-1.46.004c-3.216-1.275-5.969-1.993-6.817-.296-2.616 6.253 7.046 9.168 8.2 9.491l-.005.015 22.437 9.388c1.508.63 3.167 1.04 4.773.738 7.878-1.476 27.344-3.21 25.598-11.002"/>
        <path fill="#000" d="M155.15 46.383h-3.579l-.114-1.113 3.694.234z"/>
        <path fill="#492191" d="M206.28 148.083h-24.108c-.79 0-1.431-.641-1.431-1.431v-9.935a2.863 2.863 0 0 1 2.862-2.863h21.245a2.863 2.863 0 0 1 2.863 2.863v9.935c0 .79-.64 1.43-1.432 1.43"/>
        <path fill="#595959" d="M185.625 177.75l.593-27.32h16.016l.593 27.32h-17.202zm-3.36-29.667v52.74h2.859l.45-20.727h17.303l.45 20.726h2.86v-52.74h-23.922z"/>
        <path fill="#FFF" d="M186.597 90.646h51.941V30.84h-51.941z"/>
        <path fill="#000" d="M209.28 43.953h-10.794a2.191 2.191 0 0 0 0 4.383h5.503l-8.86 8.859a2.191 2.191 0 1 0 3.1 3.099l8.86-8.859v5.503a2.191 2.191 0 1 0 4.383 0V46.144c0-1.21-.981-2.191-2.192-2.191"/>
        <path fill="#F60" d="M215.855 59.13h10.794a2.191 2.191 0 0 0 0-4.383h-5.503l8.859-8.86a2.191 2.191 0 1 0-3.1-3.099l-8.859 8.86v-5.504a2.191 2.191 0 1 0-4.383 0v10.794c0 1.21.981 2.192 2.192 2.192"/>
        <path fill="#000" d="M197.502 67.31c.382 0 .702.107.962.322.259.215.408.5.448.853h-.696a.632.632 0 0 0-.243-.407.733.733 0 0 0-.47-.165c-.281 0-.5.101-.655.302-.156.202-.233.475-.233.82 0 .335.078.601.235.798.157.197.375.295.652.295a.686.686 0 0 0 .504-.19c.128-.126.207-.307.237-.542h.697c-.037.415-.186.741-.447.98-.26.237-.59.356-.99.356-.48 0-.868-.157-1.163-.473-.296-.316-.444-.724-.444-1.224 0-.507.147-.921.44-1.243.292-.322.681-.483 1.166-.483M199.937 69.474c0 .241.048.427.146.558.098.132.24.197.426.197.192 0 .336-.067.432-.201.096-.134.145-.319.145-.554 0-.244-.05-.432-.149-.563a.51.51 0 0 0-.433-.197.492.492 0 0 0-.42.197c-.099.131-.147.319-.147.563m.572-1.25c.378 0 .677.116.897.346.22.23.33.532.33.904 0 .375-.112.677-.337.904-.224.227-.52.34-.89.34-.375 0-.673-.114-.892-.345-.22-.23-.33-.53-.33-.9 0-.38.112-.684.336-.91.225-.225.52-.338.886-.338M202.705 69.47c0 .216.051.397.154.542a.486.486 0 0 0 .419.217c.185 0 .325-.068.418-.203.093-.136.14-.323.14-.561 0-.238-.05-.423-.147-.554a.486.486 0 0 0-.416-.197.484.484 0 0 0-.424.206c-.096.138-.144.32-.144.55zm1.758-2.083v3.268h-.618v-.302h-.01c-.14.244-.379.366-.718.366-.326 0-.585-.12-.775-.357-.191-.238-.286-.542-.286-.91 0-.361.096-.655.29-.884a.944.944 0 0 1 .758-.343.94.94 0 0 1 .405.089c.126.06.224.147.294.263h.01v-1.19h.65zM206.545 69.218c-.03-.177-.087-.306-.169-.385a.49.49 0 0 0-.353-.119.514.514 0 0 0-.375.135.58.58 0 0 0-.16.369h1.057zm-.499-.993a1.068 1.068 0 0 1 1.005.606c.099.197.149.423.149.68 0 .024-.002.064-.005.119h-1.707c.006.189.056.336.149.441.093.105.235.158.427.158.12 0 .229-.03.328-.09a.4.4 0 0 0 .19-.217h.572c-.168.531-.537.797-1.108.797a1.382 1.382 0 0 1-.601-.142 1.025 1.025 0 0 1-.442-.428 1.345 1.345 0 0 1-.165-.675c0-.24.056-.46.167-.66.112-.197.26-.345.444-.443a1.26 1.26 0 0 1 .597-.146zM210.215 68.225c.345 0 .575.13.691.393.18-.262.42-.393.718-.393.297 0 .514.075.653.224.139.15.208.355.208.618v1.588h-.65v-1.369c0-.207-.031-.35-.093-.43-.063-.08-.165-.119-.305-.119-.29 0-.434.199-.434.595v1.323h-.65v-1.396c0-.202-.033-.339-.096-.412-.065-.073-.164-.11-.298-.11-.125 0-.23.05-.313.149a.584.584 0 0 0-.127.391v1.378h-.65v-2.366h.614v.32h.01a.84.84 0 0 1 .722-.384M213.547 69.982c0 .201.133.302.398.302.348-.003.523-.181.526-.536v-.251c-.052.052-.183.09-.393.114-.183.022-.317.06-.403.112-.085.054-.128.14-.128.259m.54-1.757c.69.003 1.034.227 1.034.672v1.254c0 .232.028.4.083.504h-.66a.927.927 0 0 1-.045-.23c-.192.196-.458.294-.796.294-.247 0-.444-.063-.588-.188-.145-.125-.218-.299-.218-.522 0-.216.068-.384.206-.503.14-.125.395-.204.764-.238.263-.028.43-.062.5-.103a.205.205 0 0 0 .104-.19c0-.107-.032-.186-.096-.238-.064-.052-.17-.078-.32-.078-.137 0-.241.029-.311.085-.07.056-.111.147-.124.272h-.65a.723.723 0 0 1 .32-.59c.199-.134.464-.201.797-.201M217.006 68.225c.055 0 .103.007.142.022v.605a1.115 1.115 0 0 0-.233-.023c-.427 0-.641.253-.641.76v1.066h-.65v-2.366h.618v.439h.01a.797.797 0 0 1 .304-.366.8.8 0 0 1 .45-.137M218.503 68.225c.32 0 .581.081.783.244.2.164.311.381.33.653h-.637c-.043-.272-.203-.408-.48-.408-.171 0-.306.07-.406.21-.099.141-.148.328-.148.56 0 .222.047.402.142.54a.455.455 0 0 0 .398.205c.296 0 .468-.16.517-.48h.627c-.043.314-.164.554-.364.72-.2.167-.458.25-.775.25-.351 0-.638-.112-.86-.337-.224-.224-.335-.516-.335-.876 0-.39.11-.702.33-.934.22-.232.512-.347.878-.347M220.644 67.387v1.231h.014a.79.79 0 0 1 .298-.288.802.802 0 0 1 .398-.105c.302 0 .52.076.656.228.136.153.204.394.204.723v1.479h-.65v-1.346c0-.192-.031-.335-.094-.43-.062-.094-.17-.142-.322-.142-.174 0-.302.053-.382.158-.081.105-.122.279-.122.52v1.24h-.65v-3.268h.65zM223.258 69.982c0 .201.133.302.398.302.348-.003.523-.181.526-.536v-.251c-.052.052-.183.09-.393.114-.183.022-.317.06-.403.112-.085.054-.128.14-.128.259m.54-1.757c.69.003 1.034.227 1.034.672v1.254c0 .232.028.4.083.504h-.66a.927.927 0 0 1-.045-.23c-.192.196-.458.294-.796.294-.248 0-.444-.063-.589-.188-.145-.125-.217-.299-.217-.522 0-.216.068-.384.206-.503.14-.125.395-.204.764-.238.263-.028.43-.062.5-.103a.205.205 0 0 0 .104-.19c0-.107-.032-.186-.096-.238-.064-.052-.17-.078-.32-.078-.137 0-.241.029-.311.085-.07.056-.111.147-.124.272h-.65a.723.723 0 0 1 .32-.59c.199-.134.464-.201.797-.201M226.694 68.225c.302 0 .521.076.657.228.135.153.204.395.204.728v1.474h-.65v-1.341c0-.195-.031-.34-.094-.435-.063-.094-.17-.142-.323-.142-.177 0-.304.054-.384.16-.08.107-.12.283-.12.527v1.23h-.649V68.29h.618v.33h.014c.162-.263.404-.394.727-.394M228.872 67.58v.709h.476v.434h-.476v1.172c0 .11.019.183.055.22.037.036.11.054.22.054a.934.934 0 0 0 .201-.018v.508c-.091.016-.219.023-.384.023-.25 0-.436-.043-.558-.128-.122-.086-.183-.234-.183-.444v-1.387h-.394v-.434h.394v-.71h.65zM197.093 74.213l1.017 1.505 1.052-1.505h.382l-1.228 1.751 1.3 1.843h-.414l-1.092-1.586-1.107 1.586h-.388l1.294-1.853-1.219-1.741z"/>
        <path fill="#000" d="M199.982 74.213L201 75.718l1.052-1.505h.383l-1.228 1.751 1.298 1.843h-.412l-1.093-1.586-1.107 1.586h-.388l1.294-1.853-1.218-1.741z"/>
        <path fill="#000" d="M202.872 74.213l1.017 1.505 1.052-1.505h.382l-1.228 1.751 1.3 1.843h-.414l-1.092-1.586-1.107 1.586h-.388l1.294-1.853-1.219-1.741z"/>
        <path fill="#000" d="M205.761 74.213l1.017 1.505 1.052-1.505h.383l-1.228 1.751 1.298 1.843h-.412l-1.093-1.586-1.107 1.586h-.388l1.294-1.853-1.218-1.741z"/>
        <path fill="#000" d="M208.651 74.213l1.017 1.505 1.052-1.505h.382l-1.228 1.751 1.3 1.843h-.414l-1.092-1.586-1.107 1.586h-.388l1.294-1.853-1.219-1.741z"/>
        <path fill="#000" d="M211.54 74.213l1.017 1.505 1.052-1.505h.383l-1.228 1.751 1.298 1.843h-.412l-1.093-1.586-1.107 1.586h-.388l1.294-1.853-1.218-1.741z"/>
        <path fill="#000" d="M214.43 74.213l1.017 1.505 1.052-1.505h.382l-1.228 1.751 1.3 1.843h-.414l-1.092-1.586-1.107 1.586h-.388l1.294-1.853-1.219-1.741z"/>
        <path fill="#000" d="M217.32 74.213l1.016 1.505 1.052-1.505h.383l-1.228 1.751 1.298 1.843h-.412l-1.093-1.586-1.107 1.586h-.388l1.294-1.853-1.218-1.741z"/>
        <path fill="#000" d="M220.209 74.213l1.017 1.505 1.052-1.505h.382l-1.228 1.751 1.299 1.843h-.413l-1.092-1.586-1.108 1.586h-.388l1.294-1.853-1.218-1.741z"/>
        <path fill="#000" d="M223.098 74.213l1.017 1.505 1.052-1.505h.383l-1.228 1.751 1.298 1.843h-.412l-1.093-1.586-1.107 1.586h-.388l1.294-1.853-1.218-1.741z"/>
        <path fill="#000" d="M225.988 74.213l1.017 1.505 1.052-1.505h.382l-1.228 1.751 1.299 1.843h-.413l-1.092-1.586-1.108 1.586h-.388l1.294-1.853-1.218-1.741z"/>
    </g>
</svg>
