<svg xmlns="http://www.w3.org/2000/svg" width="236" height="120" viewBox="0 0 236 120">
    <g fill="none" fill-rule="evenodd">
        <path fill="#B5E8F7" d="M-7.107 31.554c4.792-3.676 92.985-67.27 103.19-47.887 10.206 19.383-108.86 70.12-.566 32.495C203.81-21.464 231.592-26.025 214.582-4.361c-17.009 21.663-31.75 46.176-12.473 46.176S246.9 62.338 231.025 72.6c-15.876 10.261-39.122 19.383-26.649 26.794 12.474 7.41.568 14.822-5.67 18.242-6.236 3.421-130.404 23.944-161.021 21.093-30.617-2.85-76.542.57-47.06-15.392 29.483-15.962 54.997-39.906 34.019-33.064-20.978 6.84-51.028-2.85-29.483-18.813 21.545-15.963-57.265 2.28-2.268-39.906"/>
        <path fill="#8F8F8F" d="M15.335 156.08h107.932v-76.5H15.335z"/>
        <path fill="#FF7900" d="M15.335 88.788h107.932V71.579H15.335z"/>
        <path fill="#A885D8" d="M25.764 71.58H19.14a.502.502 0 0 1-.502-.503V58.11c0-.694.561-1.255 1.254-1.255h5.12c.693 0 1.254.561 1.254 1.255v12.967a.502.502 0 0 1-.502.502"/>
        <path fill="#D9C2F0" d="M20.648 56.855h3.608v-4.353h-3.608z"/>
        <path fill="#FFD200" d="M30.906 71.57h-5.62a.502.502 0 0 1-.502-.5v-9.668c0-.693.562-1.255 1.255-1.255h4.114c.693 0 1.255.562 1.255 1.255v9.667a.502.502 0 0 1-.502.502"/>
        <path fill="#FFF6B6" d="M26.794 60.147h2.603v-3.284h-2.603z"/>
        <path fill="#482E26" d="M117.815 42.03c-5.967-1.82-6.767 4.847-6.767 4.847l-4.052 16.964c-2.132 2.323-9.908 9.56-14.247 13.208l-2.336.444a2.233 2.233 0 0 0-1.771 1.128l-.63 1.115c-2.363 1.9-4.101 3.688-3.174 5.07 3.634 4.699 10.038-1.406 10.785-2.146l.009.01 16.866-13.044c1.133-.876 2.163-1.964 2.629-3.32 2.283-6.644 9.384-22.236 2.688-24.277"/>
        <path fill="#714E46" d="M50.545 45.293c-.002 1.61 1.036 2.916 2.318 2.917 1.282.002 2.323-1.302 2.324-2.912.002-1.61-1.036-2.382-2.318-2.383-1.282-.001-2.322.768-2.324 2.378M68.51 45.312c0 1.61 1.037 2.916 2.319 2.917 1.282.001 2.322-1.303 2.324-2.913.002-1.61-1.037-2.382-2.318-2.383-1.282 0-2.323.768-2.324 2.379"/>
        <path fill="#0A6E31" d="M78.676 61.666l6.793 16.287-47.305-.049 6.84-16.269a5.018 5.018 0 0 1 3.559-2.959l9.903-2.153 6.758.007 9.893 2.165a5.017 5.017 0 0 1 3.559 2.97"/>
        <path fill="#714E46" d="M56.74 54.914c-5.552-6.864-4.762-13.645-4.762-13.645-.206-5.36 4.217-9.871 9.885-9.865 5.669.006 10.082 4.526 9.866 9.885 0 0 .776 6.782-4.791 13.636l-10.198-.01z"/>
        <path fill="#000" d="M57.956 53.749c-.781-.001-1.536-.359-1.998-.988-4.744-6.466-3.98-11.492-3.98-11.492-.205-5.36 4.217-9.87 9.885-9.865 5.669.005 10.082 4.526 9.866 9.885 0 0 .753 5.028-4.004 11.483-.463.63-1.219.985-2 .985l-7.769-.008z"/>
        <path fill="#714E46" d="M56.738 56.965l10.198.01.003-3.092-10.197-.01z"/>
        <path fill="#4BB4E6" d="M45.363 136.45h9.082v-18.62h-9.082zM69.218 136.45H78.3v-18.62h-9.082z"/>
        <path fill="#FFF" d="M89.259 122.884H34.404l2.09-10.948H87.17z"/>
        <path fill="#492191" d="M90.488 86.566H87.17V74.854c0-5.543-4.494-10.037-10.037-10.037H46.53c-5.544 0-10.038 4.494-10.038 10.038v11.71h-3.317a2.51 2.51 0 0 0-2.51 2.51v4.235h5.827v18.626H87.17V93.31h5.827v-4.235a2.51 2.51 0 0 0-2.51-2.51"/>
        <path fill="#482E26" d="M120.641 37.749l-9.156.588.135-3.786 9.274-1.505z"/>
        <path fill="#482E26" d="M101.186 25.993c-.121-.742.793-1.72 1.38-2.647.202-.32.393-.637.544-.956.217-.46.349-.926.29-1.413-.272-2.246.057-3.735.151-4.1.084-.246.138-.382.138-.382 1.58-4.389 4.832-6.607 11.008-7.264 6.397-.68 11.098 2.481 12.645 8.629 1.753 6.97-2.833 11.986-5.63 14.686 0 0-3.8 3.776-9.131 3.663-5.023-.02-7.017-3.041-7.764-4.676a15.235 15.235 0 0 1-1.698-4.014s-1.858-.614-1.933-1.526"/>
        <path fill="#A885D8" d="M102.036 63.732c4.01-16.57 9.449-25.395 9.449-25.395l9.156-.588s6.052 3.049 4.973 26.733c-.47 10.32.02 24.075.02 24.075H99.325l.285-6.988c.245-6.007 1.011-11.994 2.426-17.837"/>
        <path fill="#000" d="M106.371 22.843a.944.944 0 1 0 1.865-.293.944.944 0 0 0-1.865.293M104.438 14.807c1.897-3.473 5.07-5.024 10.259-5.575 6.398-.681 11.098 2.48 12.645 8.628 1.619 6.435-2.111 11.654-6.413 15.359l-.015-5.562c-.015-.679.07-1.406.418-1.989.733-1.227 1.772-3.487.432-4.748-1.772-1.666-4.109 1.545-4.109 1.545l-1.95-.015a.202.202 0 0 1-.195-.156l-.212-5.07c.002-1.026-.552-1.473-1.946-1.588l-8.914-.829z"/>
        <path fill="#595959" d="M123.045 96.794c-.93 2.084-1.726 5.234-1.78 7.516l-.372 11.868h-19.07l-1.842-27.62h24.673s.112 4.384-1.609 8.236"/>
        <path fill="#482E26" d="M107.09 116.178l4.296 32.248c.076.52-.22 1.027-.744 1.272l-10.36 4.964c-.786.367-.489 1.42.4 1.418l17.406-.057c.319 0 .574-.234.565-.515l.004-39.33H107.09z"/>
        <path fill="#595959" d="M75.504 43.616a2.217 2.217 0 0 1-3.12-.205l-4.753-5.42c-.802-.914-.022-1.534.893-2.336.914-.802 1.63-1.494 2.432-.58l4.753 5.421c.801.914.709 2.318-.205 3.12"/>
        <path fill="#8F8F8F" d="M69.969 34.187l-3.09 2.709-1.47-1.676 3.09-2.709z"/>
        <path fill="#D6D6D6" d="M68.722 32.766l-3.09 2.709-.222-.255 3.09-2.709z"/>
        <path fill="#8F8F8F" d="M69.065 34.536c.497.566.514 1.363.039 1.78-.476.418-1.265.297-1.761-.27-.497-.566-.514-1.364-.038-1.78.475-.418 1.264-.297 1.76.27"/>
        <path fill="#482E26" d="M121.098 45.83c-1.364-6.087-7.557-3.492-7.557-3.492l-16.753 4.85c-3.072-.708-13.205-3.898-18.518-5.871l-1.54-1.812a2.232 2.232 0 0 0-1.855-.984l-1.28.003c-2.82-1.117-5.233-1.747-5.976-.259-2.294 5.482 6.177 8.037 7.188 8.32l-.004.014 19.67 8.23c1.322.553 2.776.91 4.184.647 6.906-1.294 23.972-2.815 22.44-9.645"/>
        <path fill="#000" d="M109.015 20.662h-3.137l-.101-.976 3.238.206z"/>
        <path fill="#492191" d="M153.838 109.82h-21.134a1.255 1.255 0 0 1-1.255-1.255v-8.71a2.51 2.51 0 0 1 2.51-2.51h18.625a2.51 2.51 0 0 1 2.51 2.51v8.71c0 .693-.562 1.254-1.256 1.254"/>
        <path fill="#595959" d="M135.731 135.827l.52-23.95h14.04l.52 23.95h-15.08zm-2.945-26.008v46.235h2.506l.394-18.17h15.17l.395 18.17h2.506V109.82h-20.971z"/>
        <path fill="#FFF" d="M136.583 59.466h45.536V7.036h-45.536z"/>
        <path fill="#000" d="M156.469 18.532h-9.463a1.921 1.921 0 0 0 0 3.842h4.825l-7.767 7.767a1.921 1.921 0 1 0 2.717 2.717l7.767-7.767v4.825a1.921 1.921 0 1 0 3.842 0v-9.463c0-1.061-.86-1.921-1.921-1.921"/>
        <path fill="#F60" d="M162.233 31.837h9.463a1.921 1.921 0 0 0 0-3.842h-4.825l7.767-7.767a1.921 1.921 0 1 0-2.718-2.717l-7.766 7.767v-4.825a1.92 1.92 0 1 0-3.843 0v9.463c0 1.061.86 1.921 1.922 1.921"/>
        <path fill="#000" d="M146.144 39.008c.334 0 .615.094.842.283.227.188.358.438.393.748h-.61a.554.554 0 0 0-.212-.357.643.643 0 0 0-.413-.145.684.684 0 0 0-.574.265c-.137.177-.204.416-.204.718 0 .294.068.528.206.7a.692.692 0 0 0 .572.26.601.601 0 0 0 .441-.167c.112-.111.182-.27.208-.476h.61c-.031.364-.162.65-.39.859-.23.208-.519.313-.87.313-.42 0-.76-.139-1.019-.415-.26-.277-.389-.635-.389-1.074 0-.443.13-.807.385-1.089.258-.282.598-.423 1.024-.423M148.278 40.905c0 .212.043.375.128.49.086.115.21.172.373.172.169 0 .295-.059.38-.176.084-.118.126-.28.126-.486 0-.213-.044-.378-.13-.493a.447.447 0 0 0-.38-.173.432.432 0 0 0-.369.173c-.085.115-.128.28-.128.493m.501-1.095c.332 0 .594.101.787.303.192.202.29.466.29.792 0 .33-.1.594-.296.793-.197.2-.457.299-.78.299-.33 0-.59-.101-.783-.303-.192-.202-.289-.465-.289-.789 0-.334.099-.6.295-.798.197-.198.456-.297.776-.297M150.705 40.902c0 .19.045.348.135.475.089.127.211.19.367.19.163 0 .285-.059.367-.178.081-.12.122-.283.122-.491 0-.21-.043-.371-.129-.486a.426.426 0 0 0-.364-.172.425.425 0 0 0-.372.18c-.084.12-.126.281-.126.482zm1.54-1.826v2.865h-.54v-.265h-.009c-.123.214-.333.32-.63.32a.825.825 0 0 1-.68-.312c-.167-.209-.25-.475-.25-.798 0-.316.084-.574.254-.775.17-.2.391-.3.664-.3.126 0 .244.025.355.078.111.052.197.128.259.23h.008v-1.043h.57zM154.071 40.68c-.026-.154-.076-.267-.148-.336a.43.43 0 0 0-.31-.105.45.45 0 0 0-.328.119.509.509 0 0 0-.14.323h.926zm-.437-.87a.937.937 0 0 1 .88.532 1.305 1.305 0 0 1 .127.7h-1.497a.596.596 0 0 0 .131.387c.081.092.206.138.375.138.104 0 .2-.026.287-.078a.35.35 0 0 0 .166-.19h.502c-.147.465-.471.698-.971.698a1.212 1.212 0 0 1-.527-.125.898.898 0 0 1-.388-.375 1.179 1.179 0 0 1-.144-.592c0-.21.048-.403.146-.577a.958.958 0 0 1 .39-.39c.161-.085.335-.128.523-.128zM157.288 39.81c.303 0 .505.115.607.345a.729.729 0 0 1 .63-.345c.259 0 .45.066.571.197.122.131.183.312.183.541v1.393h-.57v-1.2c0-.182-.028-.307-.082-.377-.055-.07-.144-.104-.267-.104-.254 0-.381.174-.381.521v1.16h-.57v-1.224c0-.177-.028-.297-.084-.361-.057-.064-.144-.096-.261-.096a.345.345 0 0 0-.275.13.512.512 0 0 0-.11.343v1.208h-.57v-2.075h.537v.281h.009a.737.737 0 0 1 .633-.337M160.21 41.35c0 .177.116.266.349.266.305-.003.458-.16.461-.47v-.22c-.046.045-.16.079-.345.1a.896.896 0 0 0-.353.098c-.075.047-.112.122-.112.227m.473-1.54c.605.002.906.199.906.589v1.1c0 .203.025.35.073.44h-.578a.813.813 0 0 1-.04-.2c-.168.171-.401.257-.698.257-.217 0-.389-.055-.516-.165a.571.571 0 0 1-.19-.457c0-.19.06-.337.18-.441.123-.11.347-.18.67-.21.23-.023.376-.053.438-.09a.18.18 0 0 0 .092-.166c0-.093-.028-.163-.084-.208-.056-.046-.15-.069-.281-.069-.12 0-.212.025-.273.075-.062.049-.097.129-.108.238h-.57a.634.634 0 0 1 .28-.517c.175-.118.407-.177.699-.177M163.242 39.81c.048 0 .09.007.125.02v.53a.977.977 0 0 0-.205-.02c-.375 0-.562.222-.562.666v.935h-.57v-2.075h.542v.386h.008a.699.699 0 0 1 .267-.321.702.702 0 0 1 .395-.12M164.554 39.81c.281 0 .51.072.687.215a.772.772 0 0 1 .288.572h-.558c-.037-.238-.177-.358-.42-.358a.413.413 0 0 0-.356.185c-.087.123-.13.286-.13.49 0 .195.041.353.124.473a.4.4 0 0 0 .35.18c.259 0 .41-.14.453-.42h.55c-.038.275-.145.485-.32.631-.175.146-.401.219-.68.219-.307 0-.559-.099-.754-.295-.195-.197-.293-.453-.293-.768 0-.343.097-.615.289-.819.193-.203.45-.305.77-.305M166.432 39.076v1.08h.012a.692.692 0 0 1 .26-.254.703.703 0 0 1 .35-.092c.264 0 .456.067.575.2.119.135.179.346.179.635v1.296h-.57v-1.18c0-.168-.028-.294-.082-.377-.055-.083-.15-.124-.283-.124-.153 0-.264.046-.335.138-.071.092-.106.244-.106.455v1.088h-.57v-2.865h.57zM168.723 41.35c0 .177.116.266.349.266.305-.003.458-.16.461-.47v-.22c-.046.045-.16.079-.345.1a.896.896 0 0 0-.353.098c-.075.047-.112.122-.112.227m.473-1.54c.605.002.907.199.907.589v1.1c0 .203.024.35.072.44h-.578a.813.813 0 0 1-.04-.2c-.168.171-.4.257-.698.257-.216 0-.389-.055-.515-.165a.571.571 0 0 1-.19-.457c0-.19.059-.337.18-.441.122-.11.346-.18.67-.21.23-.023.376-.053.437-.09a.18.18 0 0 0 .092-.166c0-.093-.028-.163-.084-.208-.056-.046-.15-.069-.281-.069-.12 0-.211.025-.273.075-.061.049-.097.129-.108.238h-.57a.634.634 0 0 1 .28-.517c.175-.118.408-.177.7-.177M171.735 39.81c.265 0 .457.067.576.2.119.134.179.347.179.639v1.292h-.57v-1.176c0-.17-.027-.298-.082-.381-.055-.083-.15-.124-.283-.124-.156 0-.267.046-.337.14-.07.094-.105.247-.105.461v1.08h-.57v-2.075h.542v.29h.012a.701.701 0 0 1 .638-.346M173.645 39.244v.622h.417v.381h-.417v1.028c0 .096.016.16.048.192s.096.048.193.048a.819.819 0 0 0 .176-.016v.446c-.08.013-.192.02-.337.02-.22 0-.382-.038-.49-.113-.106-.075-.16-.204-.16-.389v-1.216h-.345v-.38h.345v-.623h.57zM145.785 45.06l.891 1.32.923-1.32h.335l-1.077 1.535 1.139 1.616h-.362l-.958-1.39-.97 1.39h-.34l1.134-1.624-1.068-1.527z"/>
        <path fill="#000" d="M148.318 45.06l.891 1.32.923-1.32h.335l-1.077 1.535 1.139 1.616h-.362l-.958-1.39-.97 1.39h-.34l1.134-1.624-1.068-1.527z"/>
        <path fill="#000" d="M150.851 45.06l.892 1.32.922-1.32H153l-1.076 1.535 1.138 1.616h-.362l-.957-1.39-.971 1.39h-.34l1.134-1.624-1.068-1.527z"/>
        <path fill="#000" d="M153.384 45.06l.892 1.32.922-1.32h.335l-1.076 1.535 1.138 1.616h-.362l-.957-1.39-.971 1.39h-.34l1.134-1.624-1.068-1.527z"/>
        <path fill="#000" d="M155.918 45.06l.891 1.32.922-1.32h.335l-1.076 1.535 1.139 1.616h-.362l-.958-1.39-.97 1.39h-.34l1.133-1.624-1.068-1.527z"/>
        <path fill="#000" d="M158.45 45.06l.892 1.32.922-1.32h.335l-1.076 1.535 1.138 1.616h-.361l-.958-1.39-.971 1.39h-.34l1.134-1.624-1.068-1.527z"/>
        <path fill="#000" d="M160.984 45.06l.891 1.32.923-1.32h.335l-1.077 1.535 1.139 1.616h-.362l-.958-1.39-.97 1.39h-.34l1.134-1.624-1.068-1.527z"/>
        <path fill="#000" d="M163.517 45.06l.891 1.32.923-1.32h.334l-1.076 1.535 1.139 1.616h-.362l-.958-1.39-.97 1.39h-.34l1.134-1.624-1.068-1.527z"/>
        <path fill="#000" d="M166.05 45.06l.891 1.32.922-1.32h.335l-1.076 1.535 1.139 1.616h-.362l-.958-1.39-.97 1.39h-.34l1.134-1.624-1.068-1.527z"/>
        <path fill="#000" d="M168.583 45.06l.891 1.32.923-1.32h.335l-1.077 1.535 1.139 1.616h-.362l-.958-1.39-.97 1.39h-.34l1.134-1.624-1.068-1.527z"/>
        <path fill="#000" d="M171.116 45.06l.891 1.32.923-1.32h.335l-1.077 1.535 1.139 1.616h-.362l-.958-1.39-.97 1.39h-.34l1.134-1.624-1.068-1.527z"/>
    </g>
</svg>
