<svg xmlns="http://www.w3.org/2000/svg" xmlns:xlink="http://www.w3.org/1999/xlink" width="180" height="160" viewBox="0 0 180 160">
    <defs>
        <path id="a" d="M0 0h180v160H0z"/>
    </defs>
    <g fill="none" fill-rule="evenodd">
        <mask id="b" fill="#fff">
            <use xlink:href="#a"/>
        </mask>
        <use fill="#4BB4E7" fill-rule="nonzero" xlink:href="#a"/>
        <g mask="url(#b)">
            <path fill="#7A573F" d="M58.966 80.58l-27.35 18.46-11.882 6.42 17.435 31.969 7.504-3.656 2.657-1.413 12.307-.133 13.38-6.783z"/>
            <path fill="#515151" d="M23 101.075l-43.879 15.581 30.51 40.776 31.896-15.296z"/>
            <path fill="#FFF" d="M108.64 12.085l-70.36 13.67 25.458 128.446 97.275-18.898-20.177-101.8z"/>
            <path fill="#CCC" d="M113.916 38.74l26.92-5.23-32.203-21.425zM148.512 104.57l-84.93 16.5 1.52 7.676 84.931-16.498zM145.484 89.294l-84.93 16.5 1.52 7.676 84.931-16.5zM142.456 74.016l-84.93 16.502 1.52 7.674 84.93-16.497zM139.27 57.947l-84.93 16.5 1.521 7.676 84.93-16.497zM108.733 48.016L51.312 59.171l1.52 7.676 57.422-11.154z"/>
            <path fill="#7A573F" d="M38.266 69.009l19.232-13.434s2.71-2.464 4.068-.36c.796 1.23 2.956 8.045-3.937 13.024-2.05 1.484-8.162 6.869-8.162 6.869s1.694 13.39-1.117 20.565l-19.261 4.899L31.56 87.4s5.853-16.145 6.705-18.391"/>
            <g>
                <path fill="#FF7900" d="M59.162 43.498l-10.583 1.961-1.978-10.477 10.58-1.96z"/>
                <path fill="#FFF" d="M57.207 42.814l-7.055 1.306-.243-1.286 7.056-1.306z"/>
            </g>
        </g>
    </g>
</svg>
