<svg xmlns="http://www.w3.org/2000/svg" width="71" height="94" viewBox="0 0 71 94">
    <path fill="#C5C5C5" fill-rule="evenodd" d="M56 36c0 1.105-1.203 2-2.688 2H15.688C14.203 38 13 37.105 13 36s1.203-2 2.688-2h37.624c1.485 0 2.688.895 2.688 2m-2.688 11H15.688C14.203 47 13 46.105 13 45s1.203-2 2.688-2h37.624c1.485 0 2.688.895 2.688 2s-1.203 2-2.688 2m0 13H15.688C14.203 60 13 59.105 13 58s1.203-2 2.688-2h37.624c1.485 0 2.688.895 2.688 2s-1.203 2-2.688 2M28.167 71H16.833C15.27 71 14 70.105 14 69s1.269-2 2.833-2h11.334C29.73 67 31 67.895 31 69s-1.269 2-2.833 2M43.692 0H0V94h71V27.647H54.615c-6.032 0-10.922-4.95-10.923-11.058V0zm10.974 21H71L50 0v15.75c0 2.9 2.09 5.25 4.666 5.25"/>
</svg>
