<svg xmlns="http://www.w3.org/2000/svg" xmlns:xlink="http://www.w3.org/1999/xlink" width="180" height="330" viewBox="0 0 180 330">
    <defs>
        <path id="a" d="M0 0h180v330H0z"/>
        <path id="c" d="M.408.685h231.137v44.738H.408z"/>
        <path id="e" d="M.842.684h149.78v73.421H.843z"/>
        <path id="g" d="M0 .685h129.132v80.981H0z"/>
    </defs>
    <g fill="none" fill-rule="evenodd">
        <mask id="b" fill="#fff">
            <use xlink:href="#a"/>
        </mask>
        <use fill="#A885D8" fill-rule="nonzero" xlink:href="#a"/>
        <g mask="url(#b)">
            <g transform="rotate(-10 724.592 668.104)">
                <mask id="d" fill="#fff">
                    <use xlink:href="#c"/>
                </mask>
                <path fill="#7D8993" d="M21.018 14.911h19.473v-1.094H191.51v1.094h18.378c11.608 0 21.018 9.41 21.018 21.02v9.492l.639-6.076c0-28.761-15.508-38.662-26.45-38.662H191.51v6.566H40.49V.685H26.793C16.243.685 1.454 9.38.408 31.817c1.913-9.638 10.41-16.906 20.61-16.906" mask="url(#d)"/>
            </g>
            <path fill="#5D5E69" d="M99.325 216.207l-56.649 9.99-27.236 4.802-56.65 9.989-1.426 15.53-10.594-60.082 148.724-26.224 10.595 60.083-6.764-14.088zm30.954-75.597l-1.649-9.348c-2.015-11.432-12.917-19.065-24.348-17.05l-18.1 3.192 2.091 11.854-148.724 26.225-2.09-11.855-19.178 3.381c-10.045 1.771-17.15 10.404-17.36 20.228-.03 1.356.067 2.734.312 4.122l15.124 85.77c.898 5.096 3.539 9.264 7.227 12.333-.633-.556-1.198-.942-1.827-1.942l34.653-6.11-1.126 10.476-3.473 31.45 74.081-13.063 27.236-4.803 73.732-13 .348-.062-14.02-28.364-4.64-9.46 33.76-5.954c1.563-3.609 2.184-7.412 1.446-11.597L130.28 140.61z"/>
            <path fill="#EAE5E5" d="M113.14 243.774l14.195-2.502c7.428-1.31 13.353-5.689 15.865-12.799l-.893.158-33.76 5.952 4.593 9.191z"/>
            <path fill="#343643" d="M84.852 109.86l-1.14-6.467-9.311-52.808L-74.324 76.81l9.311 52.808 1.14 6.466zM-62.732 142.55l.19 1.078 2.09 11.855 148.725-26.224-2.09-11.855-.19-1.078zM95.494 170.212l-148.725 26.224 10.594 60.081 1.427-15.53L15.44 231l27.236-4.803 56.649-9.989 6.763 14.088z"/>
            <path fill="#7D8993" d="M25.892 290.273l-74.08 13.062-.62.11.95 5.388 74.7-13.172 27.235-4.802 73.733-13-.95-5.39-73.733 13.002z"/>
            <g>
                <g transform="rotate(-10 1356.422 398.556)">
                    <mask id="f" fill="#fff">
                        <use xlink:href="#e"/>
                    </mask>
                    <path fill="#EAE5E5" d="M17.315-7.874c.827-3.774 6.253-7.1 12.554-7.1h91.258c6.302 0 12.922 3.326 13.712 7.1 5.243 25.055 10.485 50.109 15.725 75.164.789 3.773-6.474 6.815-14.875 6.815H14.01A710.76 710.76 0 0 1 .841 67.29L17.316-7.874z" mask="url(#f)"/>
                </g>
                <path stroke="#FFF" stroke-width="3.047" d="M90.45 272.584l-77.656 13.693M86.931 262.436l-106.43 18.767M83.646 252.965l-103.202 18.197M80.361 243.493l-99.973 17.628M77.077 234.021l-96.744 17.059"/>
            </g>
            <g transform="rotate(-10 273.59 411.365)">
                <mask id="h" fill="#fff">
                    <use xlink:href="#g"/>
                </mask>
                <path fill="#EAE5E5" d="M117.105 1.014l-.126-.329H11.827l-.066.329C5.459 2.016 0 7.434 0 13.838v141.878c0 7.124 4.703 13.498 11.827 13.498H116.98c7.125 0 12.153-6.374 12.153-13.498V13.838c0-6.406-5.69-11.823-12.027-12.824" mask="url(#h)"/>
            </g>
            <g>
                <path fill="#EAE5E5" d="M100.724 143.442a3.687 3.687 0 1 1-7.263 1.282 3.687 3.687 0 0 1 7.263-1.282"/>
                <path fill="#7D8993" d="M112.708 141.329a3.688 3.688 0 1 1-7.264 1.28 3.688 3.688 0 0 1 7.264-1.28"/>
            </g>
        </g>
    </g>
</svg>
