<svg xmlns="http://www.w3.org/2000/svg" xmlns:xlink="http://www.w3.org/1999/xlink" width="201" height="120" viewBox="0 0 201 120">
    <defs>
        <path id="a" d="M.724.082h28.743v27H.724z"/>
        <path id="c" d="M0 169.11h215.183V.082H0z"/>
    </defs>
    <g fill="none" fill-rule="evenodd">
        <path fill="#FF7900" d="M-2.834 124.1h203.75v-7.35H-2.835z"/>
        <g transform="translate(-11 -9.192)">
            <path fill="#085EBD" d="M54.327 40.333s22.139 23.41 26.388 25.86c4.25 2.45 33.769 2.722 33.769 2.722s.335 11.16-.113 11.57c-.446.407-27.282 6.532-37.01 3.537-9.729-2.994-28.29-17.285-29.967-26.813-1.678-9.527 1.006-19.463 6.933-16.876"/>
            <path fill="#A6CACA" d="M101.217 78.204l.008.017-.008-.017zM101.217 78.204"/>
            <path fill="#714E46" d="M125.384 68.033c.555-1.011.834-2.69.115-3.47-.6.81-1.135 1.652-1.82 2.392a27.748 27.748 0 0 1-1.77 1.76c-1.681 1.52-3.497 2.487-5.366 3.033 2.73-.533 5.624-.304 8.445-1.646-.32.028-.63.002-.92-.092.413-.69.929-1.272 1.316-1.977"/>
            <path fill="#714E46" d="M131.777 67.434c-.676-.165-4.225 2.384-7.443 2.687-3.6.339-7.225.547-10.696.026a2.61 2.61 0 0 1-1.302.925c-3.111.951-6.283 1.514-9.496 2l-.07.006c-.828 1.664-1.664 3.324-2.688 4.866 5.667 2.551 16.55 3.322 19.89 2.377 3.404-.962 7.386-2.148 10.093-5.202 1.024-1.153 2.285-3.063 2.488-4.644.02-.15.037-.323.047-.511.059-.982-.04-2.34-.823-2.53"/>
            <path fill="#62342D" d="M132.238 67.697c-1.437 1.877-3.578 3.265-6.542 4.25l.095.872c2.904-.962 5.018-2.5 6.569-4.311-.067-.307-.05-.434-.06-.752l-.062-.06zM125.521 74.353l.084.956c3.057-.944 5.096-2.254 6.68-4.072.228-.698.228-.698.32-1.307-1.448 1.92-3.916 3.446-7.084 4.423M127.644 75.833c-.267.142-3.244 1.116-3.25.954l.04.904c.01.253 3.42-1.055 3.733-1.227.44-.24.978-.59 1.474-1.017.573-.493 1.287-1.295 1.577-2.09-.21.36-1.838 1.562-3.574 2.476M131.218 73.357a.415.415 0 0 0 .023-.063.135.135 0 0 1-.023.063"/>
            <path fill="#87ACCB" d="M58.79 169.075c4.188-23.066 6.278-109.059 5.938-110.329-1.089-4.06-.784-8.175-2.413-12.071-.348-.833-6.862-6.613-7.908-4.866-2.672 4.469-5.017 4.733-9.95 4.679-1.866-.02-3.521-1.075-4.428-2.614-1.364-.885-2.405-2.054-3.32-3.375-2.217.24-5.515 1.363-6.742 1.662-2.499.612-8.975 2.617-8.975 2.617s4.12 8.758 4.514 11.976c.349 2.835-6.417 3.645-6.588 6.48-.165 2.777-5.082 85.976-1.09 105.84h40.963z"/>
            <path fill="#000" d="M95.954 169.075v-49.87c0-8.197-6.706-14.903-14.903-14.903H67.576c-8.197 0-14.903 6.706-14.903 14.904v49.869h43.281z"/>
            <path fill="#A6CACA" d="M70.185 82.831l.008.017-.008-.017zM70.185 82.831a4.799 4.799 0 0 1-.196-.472c.063.162.125.325.196.472"/>
            <path fill="#C67289" d="M46.962 42.817l.055-.006-.01-.02z"/>
            <path fill="#C5E1DF" d="M36.382 76.357c.026.09.055.18.076.27l-.061-.276-.015.006z"/>
            <path fill="#FFF" d="M30.358 48.532c-.345-.187-.779-.096-.984.25-.195.325-.095.798.249.986a.803.803 0 0 1 .093.054l.019.017c.024.025.048.05.07.077l.004.002.011.019c.102.149.18.313.258.475.173.35.66.451.981.265.356-.204.438-.629.266-.98-.226-.462-.5-.91-.967-1.165M31.05 54.56c.15.466.315.936.321 1.429.014.926 1.452.94 1.438.012-.01-.627-.179-1.22-.37-1.812-.285-.877-1.675-.513-1.39.371M32.766 61.212a.724.724 0 0 0-.724.713l-.007.9c-.004.39.32.72.713.723.391.003.72-.32.723-.712l.008-.9a.726.726 0 0 0-.713-.724M33.804 69.308c-.006-.02-.01-.042-.015-.065.01.036-.009-.091-.009-.116a.729.729 0 0 0-.714-.725c-.383-.002-.731.322-.725.713.005.211.037.42.088.623.018.074.04.146.06.218.022.078.036.315.026.059.017.392.305.722.713.725.374.003.742-.322.724-.713a2.131 2.131 0 0 0-.088-.492 7.108 7.108 0 0 1-.06-.227M32.454 77.382c-.006.607-.024 1.193-.169 1.784-.22.9 1.16 1.294 1.383.394.176-.715.217-1.433.223-2.166.008-.927-1.43-.94-1.437-.012M38.284 45.803c-.013-.925-1.45-.938-1.436-.011.007.58.19 1.089.37 1.631.123.372.485.615.88.51.361-.096.632-.51.51-.88-.136-.409-.318-.813-.324-1.25M43.638 49.9c-.008-.026-.017-.052-.02-.08 0 .003 0 .006.002.01-.075-.321-.339-.571-.693-.574-.375-.003-.742.322-.723.713.008.21.048.324.127.514l.049.107c.008.026.016.052.02.08v-.01c.074.322.338.572.692.575.375.002.741-.322.723-.714a1.315 1.315 0 0 0-.127-.513 1.961 1.961 0 0 0-.05-.108M43.273 54.68c-.267.264-.268.658-.061.946l.01.037c.003.027.008.068.008.09.003.052.002.102.002.155-.003.391.32.72.713.724.392.003.721-.32.725-.712.002-.451-.07-.885-.38-1.232-.262-.29-.747-.272-1.017-.008M34.398 84.396c-.174.53-.214 1.07-.218 1.625-.008.929 1.428.94 1.436.013.005-.456.025-.819.165-1.246.29-.883-1.096-1.27-1.383-.392M48.313 49.76c-.01-.027-.018-.053-.022-.082l.001.01c-.074-.32-.337-.57-.691-.573-.377-.004-.743.32-.725.713.01.21.05.324.128.513.016.037.032.073.05.107a.394.394 0 0 1 .02.082l-.002-.01c.076.322.338.57.693.573.376.002.742-.322.724-.712a1.312 1.312 0 0 0-.127-.514 3.016 3.016 0 0 0-.05-.108M47.726 55.764c.008.545.159 1.075.167 1.62.012.925 1.45.939 1.437.012-.008-.546-.158-1.077-.166-1.62-.014-.925-1.452-.938-1.438-.012M51.91 49.249c-.363.207-.43.624-.267.981-.058-.127.024.072.026.084.007.025.037.207.038.185.018.208.012.418.01.626a.726.726 0 0 0 .713.725.725.725 0 0 0 .725-.713c.004-.57-.023-1.099-.264-1.622-.164-.356-.665-.449-.981-.266M53.843 54.916c-.015-.925-1.452-.94-1.438-.012.01.628.179 1.22.37 1.812.284.878 1.676.514 1.389-.37-.15-.466-.314-.936-.321-1.43M56.763 49.37c-.39-.04-.722.349-.724.713a.669.669 0 0 0 .22.513c-.087.314-.006.646.304.83.31.187.82.107.986-.248.158-.34.238-.7.12-1.067-.14-.429-.457-.695-.906-.741M56.927 54.415c.166.52.315 1.059.32 1.608.011.926 1.449.939 1.44.012-.01-.677-.166-1.35-.37-1.991-.28-.88-1.67-.516-1.39.37M34.685 46.643l-.027-.038a2.017 2.017 0 0 1-.163-.302 1.222 1.222 0 0 1-.085-.455.727.727 0 0 0-.712-.724c-.384-.003-.734.321-.726.713.014.686.265 1.356.735 1.863.631.68 1.655-.33 1.025-1.01a1.065 1.065 0 0 0-.047-.047M36.259 53.15c.006.006-.016-.18-.018-.205-.003-.113 0-.228 0-.342.007-.928-1.43-.94-1.437-.013-.006.62.085 1.15.353 1.713.168.354.662.45.98.268.36-.208.436-.629.268-.982a1.978 1.978 0 0 1-.146-.438M39.66 52.091l-.019 2.157c-.007.926 1.43.938 1.439.012l.017-2.157c.008-.927-1.43-.94-1.438-.012M60.174 47.866c-.362.209-.427.625-.266.981.179.395.164.834.16 1.256-.005.927 1.432.938 1.44.012.004-.699-.06-1.341-.353-1.983-.161-.357-.665-.447-.981-.266M62.453 55.333a.726.726 0 0 0-.725.713l-.007.809a.725.725 0 0 0 .713.724.724.724 0 0 0 .726-.712l.006-.809a.726.726 0 0 0-.713-.725M35.84 60.876c.214.649.487 1.278.497 1.97.012.924 1.45.94 1.437.011-.012-.835-.287-1.57-.545-2.352-.29-.875-1.682-.512-1.39.37M41.025 61.9c.24.493.422.968.427 1.526.011.926 1.448.94 1.44.012-.012-.82-.264-1.526-.62-2.254-.408-.832-1.653-.116-1.247.715M38.893 68.885a.726.726 0 0 0-.725.713l-.004.54a.724.724 0 0 0 .713.724c.39.004.72-.32.724-.713l.004-.54a.726.726 0 0 0-.712-.724M39.65 75.091a.725.725 0 0 0-.724.713l-.009 1.078a.724.724 0 0 0 .712.725.726.726 0 0 0 .726-.713l.008-1.079a.726.726 0 0 0-.713-.724M37.758 86.575l-.026 3.235c-.008.927 1.43.939 1.437.011l.027-3.234c.008-.927-1.43-.938-1.438-.012M41.52 87.954l-.013 1.617c-.007.927 1.43.939 1.438.013l.012-1.618c.008-.926-1.429-.939-1.437-.012M42.857 78.351a.724.724 0 0 0-.724.713l-.007.808a.726.726 0 0 0 .712.727.727.727 0 0 0 .726-.714l.007-.81a.727.727 0 0 0-.714-.724M42.745 70.175c.015.554.242 1.072.256 1.619.024.926 1.462.94 1.438.012-.015-.553-.243-1.072-.257-1.619-.024-.924-1.46-.94-1.437-.012M48.36 62.45a.395.395 0 0 1-.01-.018 1.307 1.307 0 0 1-.043-.176c.006.014-.01-.13-.011-.159-.003-.077-.002-.155-.002-.232a.725.725 0 0 0-.713-.724.725.725 0 0 0-.725.712c-.003.574.07 1.148.468 1.59.261.292.746.274 1.016.01.281-.277.268-.7.027-.992l-.006-.01M47.611 68.33l-.02 2.424c-.007.928 1.431.94 1.438.012l.02-2.425c.008-.928-1.43-.94-1.438-.011M47.534 77.763l-.014 1.615c-.006.928 1.431.94 1.439.012l.012-1.615c.008-.93-1.43-.94-1.437-.012M47.382 85.397a.725.725 0 0 0-.725.713l-.007.808a.725.725 0 0 0 .713.725c.392.002.721-.32.725-.712l.007-.81a.727.727 0 0 0-.713-.724M45.793 92.841l-.012 1.348c-.007.927 1.43.939 1.439.012l.01-1.348c.008-.928-1.429-.94-1.437-.012M42.461 93.712l-.27-.002a.726.726 0 0 0-.724.712.726.726 0 0 0 .714.725l.268.003a.726.726 0 0 0 .725-.713.725.725 0 0 0-.713-.725M54.166 61.027c.204.656.234 1.283.228 1.967-.007.927 1.43.94 1.437.012.006-.804-.037-1.578-.275-2.35-.273-.882-1.665-.518-1.39.37M54.613 69.195l-.016 1.886c-.007.928 1.43.94 1.437.012l.015-1.886c.008-.928-1.428-.94-1.436-.012M54.275 77.548l-.015 1.616c-.006.928 1.43.94 1.438.013l.013-1.618c.008-.927-1.43-.939-1.436-.011M54.398 84.376a.725.725 0 0 0-.724.713l-.01 1.079c-.003.391.321.72.714.723.391.004.72-.32.724-.712l.009-1.078a.727.727 0 0 0-.713-.725M54.247 91.833c.006-.928-1.43-.94-1.438-.012-.005.698.059 1.341.351 1.982.163.357.666.447.982.265.363-.208.428-.623.266-.98-.18-.394-.165-.833-.161-1.255M60.96 61.97c.008-.927-1.429-.939-1.436-.012-.006.71.066 1.399.278 2.08.274.882 1.665.517 1.388-.37a5.412 5.412 0 0 1-.23-1.699M60.814 68.976c-.01 1.109-.014 2.227-.272 3.312-.214.899 1.168 1.294 1.383.392.289-1.21.315-2.454.325-3.693.009-.925-1.428-.938-1.436-.011M59.655 78.67l-.015 1.886c-.007.927 1.43.94 1.438.012l.015-1.885c.008-.928-1.43-.94-1.438-.013M58.765 88.635c-.01 1.205-.04 2.395-.273 3.58-.18.905 1.203 1.303 1.383.393.259-1.312.317-2.624.327-3.961.008-.927-1.428-.94-1.437-.012M65.458 61.199c.008-.928-1.43-.94-1.437-.012-.004.698.06 1.34.352 1.981.162.357.664.448.981.267.363-.209.428-.625.266-.98-.18-.396-.164-.834-.162-1.256M65.215 69.012l-.014 1.618c-.006.927 1.43.938 1.438.012l.014-1.618c.007-.926-1.43-.938-1.438-.012M64.643 76.483a.725.725 0 0 0-.725.713l-.007.808a.726.726 0 0 0 .713.724.726.726 0 0 0 .725-.712l.006-.809a.725.725 0 0 0-.712-.724M64.435 83.19c-.412-.227-1.01-.09-1.224.353-.135.28-.239.574-.326.872a8.89 8.89 0 0 1-.081.262.678.678 0 0 0-.021.046.91.91 0 0 0 .041 1.251c.348.334.946.337 1.275-.026.234-.259.354-.537.464-.865.096-.288.13-.47.226-.67.213-.442.093-.977-.354-1.224M62.014 90.897c-.405.012-.799.23-.983.6-.139.274-.16.568-.162.87-.004.49.457.884.931.87.455-.017.789-.361.856-.787a.901.901 0 0 0 .289-.682.91.91 0 0 0-.931-.87"/>
            <path fill="#5C7393" d="M60.222 26.788c-.28.273-.563.558-.943.69-.291.102-.483.376-.396.684.077.276.406.49.698.388.577-.201 1.016-.558 1.443-.976.52-.508-.284-1.293-.802-.786M55.962 30.274c-.43.432-.771.946-1.112 1.445-.172.253-.052.614.204.761.28.16.607.052.777-.2.29-.422.57-.854.934-1.22.511-.514-.292-1.3-.803-.786M53.753 29.52c-.258-.148-.633-.068-.777.2-.186.344-.482.612-.763.887-.519.508.285 1.293.803.786.345-.338.711-.686.94-1.112a.556.556 0 0 0-.203-.76M49.073 33.39c-.667.667-1.317 1.354-1.756 2.198-.406.784.777 1.477 1.186.692.387-.745.95-1.33 1.539-1.92.625-.626-.344-1.595-.97-.97"/>
            <path fill="#62342D" d="M54.707 33.455s-2.388.952-2.905.899c-1.029-.106-2.05.195-3.07-.105-2.328-.689-4.336-3.214-5.201-5.639-.711-2-.423-4.15-1.437-6.079-1.32.761-1.071 1.29-1.436 2.793-1.057 4.338-2.398 14.138-5.187 15.453 1.63 4.038 5.375 5.642 9.343 6.87 1.4.435 2.873-.062 4.283-.058 1.007.003 1.923.118 2.866-.301 1.384-.616 4.144-1.599 4.17-3.456.008-.71-.741-1.217-1.054-1.86-.356-.734-.833-8.333-.372-8.517"/>
            <path fill="#714E46" d="M59.849 8.647c-1.913-1.467-5.1-1.476-7.275-.625-2.895 1.134-3.709 3.534-5.127 6.056-.623 1.11-1.418 3.189-2.948 3.292-1.886.129-2.608-2.058-4.069.378-.765 1.277-.724 3.137.329 4.265 1.484 1.592.755 3.667 1.073 5.57.379 2.261 2.014 4.216 3.663 5.764 1.363 1.278 2.722 2.7 4.588 3.26 2.008.603 3.994-.142 5.763-1.445 3.04-2.243 6.026-6.078 7.336-9.551 1.127-2.984 2.75-7.234 1.754-10.451-.703-2.272-3.226-5.086-5.087-6.513"/>
            <path fill="#000" d="M51.041 16.722c.016-.029.183.04.431.16.762.371 2.279 1.239 2.443 1.314 1.024.466 1.563-.272 1.901-1.154-.747-.084-1.409-.089-2.131-.323-.709-.232-2.13-.88-2.644.003"/>
            <path fill="#62342D" d="M41.334 20.792l.783.488c.211-.619.45-1.243.619-1.87-1.14-.699-1.378.57-1.402 1.382"/>
            <path fill="#000" d="M62.578 21.315c-.118-.116-1.518-1.396-1.424-1.507-.467.542-.768.99-.515 1.457.087.156.235.316.46.48.13.096 1.993 1.086 1.875 1.208.705-.723.211-1.038-.396-1.638"/>
            <path fill="#CDE6F2" d="M57.852 23.17l.067.004a.709.709 0 0 1-.168-.03c.033.009.063.02.101.026"/>
            <path fill="#EEE0D6" d="M57.852 23.17l.067.004a1.283 1.283 0 0 1-.118-.014c.017.004.032.008.051.01M57.75 23.145c.017.006.034.01.052.015l-.022-.007-.03-.008z"/>
            <path fill="#D4B3A7" d="M48.079 22.027h.003l-.003-.005z"/>
            <path fill="#D4B3A7" d="M48.079 22.027h.003l-.003-.005z"/>
            <path fill="#D9BCB0" d="M45.884 17.867l.003-.038a.071.071 0 0 0-.003.038"/>
            <g transform="translate(37.382)">
                <mask id="b" fill="#fff">
                    <use xlink:href="#a"/>
                </mask>
                <path fill="#000" d="M28.452 8.419c-1.173-2.82-4.078-4.992-6.742-6.451C19.867.958 17.515.348 15.045.152c-3.207-.256-6.611.184-9.358 1.351a9.547 9.547 0 0 0-3.21 3.486C.497 8.66.503 13.198 1.005 17.232c.37 2.98 1.244 5.957 1.663 8.94.213.3.428.6.655.888.267.341 1.17-3.45.993-4.046-.347-1.165-1.606-1.968-1.793-3.175-.153-.98.73-2.962 2.021-2.692.884.185.579 1.485 1.632 1.516.817.023 2.314-1.976 2.957-2.455 1.228-.912 2.402-1.901 3.55-2.915 2.076-1.838 4.753-2.865 7.573-2.912a7.27 7.27 0 0 1 2.489.4 8.095 8.095 0 0 1 3.546 2.45c1.39 1.66 1.466 3.812 1.452 5.868.919-1.524 1.549-3.089 1.69-4.87.155-1.95-.228-4.002-.981-5.81" mask="url(#b)"/>
            </g>
            <path fill="#62342D" d="M54.37 27.015c.255 1.351 2.644 2.904 2.891.764.041-.346-.16-.787-.327-1.249-.126-.348-.233-.707-.205-1.048.086-1.039.608-2.02.627-3.05-1.676-.902-3.178 3.562-2.986 4.583"/>
            <path fill="#000" d="M50.787 19.695c-.971.212-1.662.874-1.85 1.773l.717.142c.128-.614.61-1.07 1.293-1.217.649-.141 1.292.036 1.6.439.331.438.255 1.127-.215 1.942l.637.35c.836-1.45.462-2.325.164-2.718-.476-.627-1.419-.913-2.346-.71M59.69 23.768c-.663.145-1.137.6-1.264 1.213l.49.098c.087-.42.418-.732.884-.834.445-.097.885.025 1.096.302.227.298.175.772-.147 1.33l.436.24c.572-.995.315-1.593.113-1.862-.328-.43-.973-.625-1.607-.487"/>
            <path fill="#5C7393" d="M53.91 30.296a.538.538 0 0 0-.724.2c-.183.337-.465.598-.734.867-.494.496.22 1.249.715.753.33-.33.68-.67.906-1.085.143-.262.085-.583-.163-.735"/>
            <path fill="#62342D" d="M50.234 28.476c-.16-.058-.63.626-.602.642.03.014.059.022.088.024.21.013.778-.57.514-.666"/>
            <path fill="#FFF" d="M53.692 30.726c-1.081-.448-2.132-.855-3.139-1.451-.107-.063-.055.707-.017.789 1.124 2.441 3.888 4.062 5.95 1.604-.853.08-2.028-.623-2.794-.942"/>
            <path fill="#595959" d="M115.79 169.075h22.07c-.378-.95-.721-1.9-.996-2.845-1.317-4.517-1.594-7.824-2.135-12.5-1.176-10.183-.062-21.73-.954-31.938-.433-4.953-2.948-14.631-9.883-13.818a3.792 3.792 0 0 0-1.243.362c-4.34 2.118-4.213 12.283-5.083 16.309-1.846 8.538-1.196 17.587-2.138 26.207-.511 4.675-.806 9.427-.223 14.11.176 1.404.358 2.772.586 4.113"/>
            <path fill="#714E46" d="M93.161 99.924l-.76 6.564c-.303.077-.674.074-1.04.045.142-.546.324-1.126.54-1.74.581-1.644.988-3.257 1.26-4.87"/>
            <path fill="#62342D" d="M93.387 88.4c-.108-1.4-.483-3.287 0-4.427 1.216 1.426 2.104 3.686 3.256 5.32 1.59 2.256 4.177 4.21 6.374 4.11.965-.044 6.606-8.131 6.845-7.176 1.23 4.931-.705 16.262 5.198 18.343.199 6.008-14.17 9.099-18.71 8.508-5.012-.652-5.95-2.826-4.988-6.544.365.028.736.03 1.038-.045l.761-6.565a29.135 29.135 0 0 1-1.26 4.87 20.987 20.987 0 0 0-.54 1.74c-.314-.024-.624-.067-.886-.095-.68-2.73 2.913-7.049 3.09-10.182.142-2.532.032-5.113-.178-7.857"/>
            <path fill="#714E46" d="M92.335 78.055c1.285-.313 2.64 1.807 3.792.673.605-.595-.052-1.929-.083-2.633-.164-3.51-.417-7.27 1.008-10.578 1.084-2.513 3.537-2.154 5.446-1.196 2.095 1.05 5.11.305 6.778 2.19.478.542.333.974.232 1.56a41.73 41.73 0 0 0 1.956.046c.507-.001.996-.104 1.48-.208.462-.1.918-.2 1.387-.218.952-.034.915.585 1.158 1.452.193.68.351 1.37.488 2.062.605 3.016 1.014 5.771.885 8.835-.134 3.147-.616 6.4-1.758 9.35-.311.803-.671 1.826-1.124 2.855-1.065 2.423-2.241 4.097-4.967 4.368-2.225.22-4.31-.723-6.333-1.509-2.449-.952-5.072-2.352-6.512-4.645-1.211-1.93-1.403-4.512-3.7-5.584-2.554-1.194-3.607-5.97-.133-6.82"/>
            <path fill="#714E46" d="M93.277 80.676c.11.774.144 1.58.205 2.368l-1.084-.182c-.357-.916-.697-2.439.879-2.186"/>
            <path fill="#D4B3A7" d="M100.344 81.127l-.004-.006.007.006z"/>
            <path fill="#000" d="M92.807 62.477c2.134-1.857 5.172-1.79 7.95-1.613.656.041 1.297.09 1.909.12a7.478 7.478 0 0 0 1.881-.144c1.219 1.466 2.655 2.741 4.29 3.733 1.46.886 2.916 1.771 4.334 2.715.19.823.488 1.615.83 2.39-.866.217-1.741.363-2.568.44-1.585.148-3.5-.212-4.937-.906-.876-.421-1.326-1.207-2.303-1.511-1.767-.551-4.219-.12-5.902.571-1.605.66-1.287 1.208-1.528 2.989-.54 3.992.448 8.235-.194 12.147-2.113.369-1.49-2.846-2.506-3.831-.811-.788-1.623-.348-2.193-1.729-.368-.892-.293-1.933-.613-2.845-1.197-3.432-1.496-9.876 1.55-12.526"/>
            <path fill="#000" d="M102.532 62.045c2.554.475 5.14 1.097 7.328 2.495 2.189 1.4 3.94 3.712 4.049 6.307"/>
            <path fill="#000" d="M113.579 70.326c-1.508-.485-3.057-.82-4.61-.945-.307-.025-.626-.008-.94-.01-1.902-1.785-5.335-2.43-7.51-2.848-4.302-.826-2.48-7.396 1.811-6.57 5.88 1.13 11.602 3.842 13.378 9.567-.702.227-1.414.487-2.13.806"/>
            <path fill="#62342D" d="M109.852 78.015c.463 1.157.357 2.49.754 3.684.131.394.416.745.718 1.073.4.437.826.835.947 1.24.738 2.497-2.604 1.869-3.518.482-.692-1.048-1.158-6.712 1.1-6.48"/>
            <path fill="#000" d="M101.605 79.18c.74-.638 1.734-.833 2.479-.486.465.217 1.24.842 1.205 2.591l-.75-.013c.018-.983-.257-1.657-.775-1.9-.478-.222-1.15-.073-1.668.375-.544.468-.754 1.125-.563 1.754l-.72.218c-.277-.923.017-1.87.792-2.539"/>
            <path fill="#FFF" d="M112.523 87.937c-.193 3.46-2.115 4.135-3.238 4.301-2.06.304-5.165-2.164-5.294-4.386.038-.006.077-.01.115-.017.595.584 8.097.345 8.417.102"/>
            <path fill="#FF7900" d="M70.184 141.832c.906 9.107.655 18.138.583 27.242h53.464c.031-3.224.174-6.446.672-9.683 1.02-6.645.537-13.506 1.097-20.21.192-2.28.286-4.673.62-6.933.554-3.765.822-7.697 1.193-11.48.363-3.695.618-7.949-1.25-11.313-1.65-2.972-11.987-7.213-14.988-5.267-1.851 1.2-2.305 3.884-4.73 4.743-4.62 1.635-10.758-1.623-14.324-4.264-.7-.519-1.193-1.227-1.293-2.002-.462.097-.953.475-1.575.616-5.536 1.246-12.427 2.495-17.415 5.701-1.257.808-2.493 2.671-3.274 4.32-1.289 2.72-.422 7.283-.278 10.145.31 6.14.891 12.269 1.498 18.385"/>
            <path fill="#595959" d="M92.44 101.916c2.376 3.753 6.213 4.595 10.316 5.09 2.244.273 4.73-.007 6.78-1.03.987-.493 1.894-1.181 2.495-2.145.79-1.27 1.317-1.465 2.678-.378-.449 1.869-2.049 4.176-3.637 5.206-3.53 2.285-10.67 2.153-14.739.481-1.43-.586-2.813-1.621-3.824-2.818-.54-.641-1.73-2.522-1.436-3.373.079-.229 1.11-1.44 1.368-1.033"/>
            <path fill="#FFF" d="M125.1 122.848c.62.025 1.057.548 1.057 1.148v.63c0 .602-.568 1.08-1.149 1.056-.62-.025-1.056-.548-1.056-1.148v-.63c0-.602.567-1.08 1.149-1.056M124.268 116.025c0-1.422 2.205-1.328 2.205.093-.001.827-.015 1.722-.365 2.487-.25.546-.752.923-1.38.726-.52-.163-.978-.834-.726-1.382.28-.61.265-1.252.266-1.924M118.484 125.998c.618.026 1.055.549 1.055 1.15v1.26c0 .602-.568 1.08-1.149 1.056-.619-.026-1.056-.549-1.056-1.148v-1.261c0-.602.568-1.08 1.15-1.057M119.428 119.066c.619.025 1.057.548 1.057 1.149v.316c0 .6-.569 1.078-1.15 1.054-.619-.025-1.055-.547-1.055-1.148v-.315c0-.6.567-1.08 1.148-1.056M120.69 111.503c.617.026 1.055.548 1.055 1.149v1.575c0 .601-.568 1.08-1.149 1.056-.619-.026-1.056-.548-1.056-1.148v-1.576c0-.601.568-1.08 1.15-1.056M112.81 123.478c.62.025 1.056.548 1.056 1.149v1.26c0 .602-.566 1.08-1.148 1.057-.62-.027-1.055-.549-1.055-1.15v-1.26c0-.602.566-1.08 1.146-1.056M114.513 115.945c.4.426.362 1.011.04 1.447v.001c.013-.016.01-.01-.003.015-.01.028-.02.056-.027.084l-.004.01a4.025 4.025 0 0 0-.023.506c0 .602-.566 1.08-1.148 1.057-.619-.026-1.056-.548-1.056-1.15 0-.747.145-1.448.66-2.016.407-.445 1.172-.366 1.561.046M114.135 110.615c-.028.013.004-.054.012-.047.002-.008.006-.015.007-.023 0-.016.003-.036.006-.066.028-.25.023-.505.023-.756 0-.602.567-1.08 1.15-1.056.618.025 1.055.548 1.055 1.148-.002.858-.067 1.665-.66 2.332-.402.45-1.176.362-1.56-.046-.402-.426-.36-1.001-.045-1.44l.012-.046M106.192 128.205c.62.025 1.057.548 1.057 1.148v.631c0 .601-.568 1.08-1.148 1.056-.62-.027-1.057-.55-1.057-1.15v-.63c0-.6.568-1.079 1.148-1.055M106.509 121.587c.617.025 1.055.548 1.055 1.148v.316c0 .601-.567 1.08-1.149 1.056-.618-.026-1.055-.547-1.055-1.15v-.313c0-.602.567-1.08 1.149-1.057M105.933 116.641c-.013.016-.01.01.005-.015l.026-.084.002-.01c.022-.167.022-.337.022-.506.002-.602.568-1.081 1.15-1.057.619.026 1.056.547 1.056 1.15 0 .747-.143 1.449-.66 2.016-.405.445-1.172.366-1.56-.046-.4-.426-.363-1.011-.04-1.448M100.205 124.739c.62.025 1.056.547 1.056 1.148v.316c0 .6-.567 1.079-1.148 1.055-.619-.025-1.057-.548-1.057-1.148v-.316c0-.601.569-1.08 1.15-1.055M100.836 118.12c.618.026 1.056.548 1.056 1.149v1.261c0 .602-.569 1.08-1.15 1.056-.619-.026-1.056-.548-1.056-1.148v-1.262c0-.6.57-1.08 1.15-1.055M101.781 111.188c.619.026 1.057.548 1.057 1.15v.944c0 .601-.568 1.08-1.15 1.055-.619-.025-1.056-.547-1.056-1.148v-.945c0-.602.569-1.08 1.15-1.056M94.218 126.944c.619.027 1.057.548 1.057 1.149v1.576c0 .6-.568 1.08-1.15 1.056-.619-.027-1.056-.548-1.056-1.15V128c0-.601.568-1.08 1.15-1.056M94.848 118.751c.619.026 1.057.548 1.057 1.148v1.261c0 .602-.568 1.08-1.15 1.056-.619-.026-1.055-.548-1.055-1.15v-1.259c0-.601.567-1.08 1.148-1.056M95.92 113.11c.47.496.614 1.083.614 1.748.001.601-.567 1.08-1.149 1.055-.618-.025-1.054-.547-1.056-1.149l-.002-.127-.012-.014a1.114 1.114 0 0 1 .046-1.56 1.112 1.112 0 0 1 1.558.046M88.86 122.532c.62.026 1.057.548 1.057 1.15v1.26c0 .601-.569 1.08-1.149 1.056-.62-.027-1.056-.55-1.056-1.148v-1.262c0-.6.568-1.08 1.149-1.056M89.49 114.339c.62.026 1.057.548 1.057 1.148v1.576c0 .601-.568 1.08-1.149 1.056-.62-.025-1.055-.547-1.055-1.148v-1.576c0-.601.567-1.08 1.148-1.056M90.436 108.667c1.424 0 1.328 2.204-.092 2.204-1.423 0-1.329-2.204.092-2.204M85.394 113.079c.619.025 1.057.548 1.057 1.149v1.89c0 .601-.568 1.08-1.15 1.056-.619-.026-1.055-.548-1.055-1.148v-1.892c0-.6.567-1.08 1.148-1.055M84.764 107.091c.62.01 1.126.265 1.462.788.239.375.225.881.225 1.306 0 .601-.568 1.08-1.15 1.056-.582-.024-.997-.489-1.046-1.044a1.13 1.13 0 0 1-.639-1.05c.025-.613.547-1.065 1.148-1.056"/>
            <path fill="#000" d="M112.26 79.447c.662-.572 1.555-.745 2.222-.436.416.195 1.11.756 1.08 2.323l-.673-.012c.017-.88-.23-1.485-.694-1.702-.429-.2-1.03-.066-1.494.336-.488.42-.678 1.008-.506 1.572l-.644.195c-.25-.827.015-1.676.71-2.276M102.736 74.656c.894-.072 1.616-.368 2.47-.614.032 1.114-.222 2.163-1.547 2.12-.215-.008-2.262-.264-3.26-.323-.326-.02-.537-.018-.542.02.159-1.196 2-1.134 2.88-1.203M114.888 74.874c.953.322 1.64.4 1.267 1.532.062-.189-2.426-.277-2.615-.31-.324-.058-.562-.15-.735-.273-.51-.363-.424-.995-.208-1.812-.042.167 2.105.8 2.29.863"/>
            <path fill="#595959" d="M87.802 169.075a33.621 33.621 0 0 1-1.162-3.253c-1.315-4.517-1.593-7.825-2.133-12.5-1.177-10.183-.062-21.731-.954-31.938-.434-4.952-2.949-14.632-9.884-13.818a3.802 3.802 0 0 0-1.242.361c-4.34 2.118-7.65 18.379-8.594 26.999-.283 2.594 2.63 19.553 6.316 34.149h17.653z"/>
            <path fill="#714E46" d="M92.494 73.415c.782-.847 1.46-2.408.949-3.34-.777.643-1.5 1.33-2.342 1.882-.7.459-1.414.892-2.144 1.281-1.998 1.07-3.994 1.57-5.939 1.648 2.777.141 5.53 1.062 8.592.442a2.32 2.32 0 0 1-.87-.312c.567-.57 1.208-1.01 1.754-1.6"/>
            <path fill="#714E46" d="M100.745 72.062c-.676-.166-4.225 2.383-7.443 2.687-3.6.338-7.225.546-10.696.026-.33.427-.767.76-1.301.925-3.113.951-6.284 1.514-9.496 1.999-.024.003-.047.003-.072.007-.827 1.663-1.664 3.323-2.687 4.866 5.667 2.55 16.55 3.321 19.89 2.377 3.404-.962 7.386-2.149 10.093-5.202 1.024-1.154 2.285-3.064 2.488-4.645.02-.15.037-.323.047-.51.06-.982-.04-2.34-.823-2.53"/>
            <path fill="#62342D" d="M101.206 72.324c-1.437 1.878-3.577 3.265-6.542 4.25l.095.873c2.904-.962 5.018-2.501 6.569-4.312-.067-.307-.05-.433-.06-.751l-.062-.06zM94.49 78.98l.083.957c3.057-.945 5.096-2.255 6.68-4.072.228-.698.228-.698.32-1.307-1.448 1.919-3.916 3.445-7.084 4.423M96.612 80.46c-.267.142-3.244 1.116-3.25.954l.04.904c.01.253 3.42-1.054 3.733-1.227.44-.24.977-.59 1.474-1.016.574-.493 1.287-1.295 1.578-2.091-.211.361-1.84 1.563-3.575 2.477M100.186 77.984a.415.415 0 0 0 .023-.062.135.135 0 0 1-.023.062"/>
            <path fill="#085EBD" d="M23.295 44.96s22.14 23.41 26.387 25.86c4.25 2.45 33.77 2.723 33.77 2.723s.335 11.16-.112 11.569c-.447.407-27.283 6.533-37.011 3.538-9.729-2.994-28.29-17.285-29.967-26.813-1.677-9.527 1.006-19.463 6.933-16.876"/>
            <path fill="#000" d="M53.033 21.637c0 .6-.405 1.086-.906 1.086-.499 0-.904-.486-.904-1.086 0-.6.405-1.087.904-1.087.501 0 .906.487.906 1.087M61.581 25.476c0 .6-.406 1.087-.906 1.087s-.905-.487-.905-1.087.406-1.087.905-1.087c.5 0 .906.487.906 1.087"/>
            <mask id="d" fill="#fff">
                <use xlink:href="#c"/>
            </mask>
            <path fill="#595959" d="M177.403 126.35h13.474V90.828h-13.474z" mask="url(#d)"/>
            <path fill="#000" d="M144.124 126.76h14.292V99.401h-14.292z" mask="url(#d)"/>
            <path fill="#FF7900" d="M147.79 100.207h6.963V93.71h-6.963z" mask="url(#d)"/>
            <path fill="#000" d="M178.918 91.156h10.444v-9.051h-10.444z" mask="url(#d)"/>
        </g>
        <path fill="#FFF" d="M129 58h50.77V18H129z"/>
        <path fill="#000" d="M151.432 30.308h-10.756a2.184 2.184 0 0 0 0 4.367h5.484l-8.828 8.828a2.184 2.184 0 1 0 3.088 3.088l8.828-8.828v5.484a2.183 2.183 0 1 0 4.367 0V32.492a2.183 2.183 0 0 0-2.183-2.184"/>
        <path fill="#F60" d="M157.338 45.692h10.755a2.184 2.184 0 0 0 0-4.367h-5.483l8.827-8.828a2.184 2.184 0 1 0-3.088-3.088l-8.828 8.828v-5.484a2.183 2.183 0 1 0-4.367 0v10.755c0 1.207.977 2.184 2.184 2.184"/>
    </g>
</svg>
