<svg xmlns="http://www.w3.org/2000/svg" xmlns:xlink="http://www.w3.org/1999/xlink" width="80" height="80" viewBox="0 0 80 80">
    <defs>
        <circle id="a" cx="40" cy="40" r="40"/>
        <path id="c" d="M13.045.05C10.97 4.389 6.87 9.592.11 13.984h109.5C102.85 9.592 98.75 4.39 96.677.05"/>
        <path id="d" d="M13.045.05C10.97 4.389 6.87 9.592.11 13.984h109.5C102.85 9.592 98.75 4.39 96.677.05"/>
        <path id="e" d="M13.045.05C10.97 4.389 6.87 9.592.11 13.984h109.5C102.85 9.592 98.75 4.39 96.677.05"/>
        <path id="f" d="M13.045.05C10.97 4.389 6.87 9.592.11 13.984h109.5C102.85 9.592 98.75 4.39 96.677.05"/>
        <path id="h" d="M13.045.05C10.97 4.389 6.87 9.592.11 13.984h109.5C102.85 9.592 98.75 4.39 96.677.05"/>
        <path id="j" d="M13.045.05C10.97 4.389 6.87 9.592.11 13.984h109.5C102.85 9.592 98.75 4.39 96.677.05"/>
        <path id="l" d="M13.045.05C10.97 4.389 6.87 9.592.11 13.984h109.5C102.85 9.592 98.75 4.39 96.677.05"/>
        <path id="n" d="M13.045.05C10.97 4.389 6.87 9.592.11 13.984h109.5C102.85 9.592 98.75 4.39 96.677.05"/>
        <path id="p" d="M13.045.05C10.97 4.389 6.87 9.592.11 13.984h109.5C102.85 9.592 98.75 4.39 96.677.05"/>
    </defs>
    <g fill="none" fill-rule="evenodd">
        <mask id="b" fill="#fff">
            <use xlink:href="#a"/>
        </mask>
        <use fill="#FFF" xlink:href="#a"/>
        <g mask="url(#b)">
            <path fill="#2888D1" d="M-40 86h98V26h-98z"/>
            <path fill="#B5E8F7" d="M-8 86h38V56H-8zM30 86h22V40H30z"/>
            <path fill="#085EBD" d="M-8 86h38V72H-8z"/>
            <path fill="#FF7900" d="M9 16l-49 10h98z"/>
            <path fill="#000" d="M-40 26h98v-2h-98zM-32 40v46h1.115V41.125h81.77V86H52V40z"/>
            <path fill="#000" d="M-10 46v40h1.284V47.122h35.432V86H28V46z"/>
            <path fill="#0A6E31" d="M56.463 58.336c.086-.114-.179-.474-.406-.974.2.134.366.174.406.11.102-.135-.288-.61-.525-1.26-.213-.656-.289-.724-.493-.704a.308.308 0 0 0-.073.012.305.305 0 0 0-.073-.012c-.204-.02-.28.048-.493.704-.237.65-.626 1.125-.524 1.26.039.064.205.024.405-.11-.227.5-.492.86-.405.974.039.064.205.024.405-.11-.227.5-.492.86-.405.974.039.064.205.024.405-.11-.227.5-.492.86-.405.974.039.064.205.024.405-.11-.227.5-.492.86-.405.974.039.064.205.024.405-.11-.227.5-.492.86-.405.974.039.064.205.024.405-.11-.227.5-.492.86-.405.974.039.063.205.024.405-.11-.227.5-.492.86-.405.974.039.063.205.024.405-.11-.227.5-.492.86-.405.974.06.097.415-.042.74-.412-.108.683-.4 1.224-.274 1.338.055.06.238-.025.428-.235.104.577.41.93.519.864.11-.055.069-.384.067-.82.173.173.332.246.383.19.114-.103-.114-.56-.24-1.153.265.228.509.307.558.228.086-.115-.179-.474-.406-.974.2.134.366.173.406.11.086-.115-.179-.474-.406-.974.2.134.366.173.406.11.086-.115-.179-.474-.406-.974.2.134.366.174.406.11.086-.115-.179-.474-.406-.974.2.134.366.174.406.11.086-.114-.179-.474-.406-.974.2.134.366.174.406.11.086-.114-.179-.474-.406-.974.2.134.366.174.406.11.086-.114-.179-.474-.406-.974.2.134.366.174.406.11"/>
            <path fill="#50BE87" d="M53.821 57.48c.072-.094-.148-.392-.336-.807.166.111.304.144.336.092.085-.112-.238-.507-.434-1.045-.177-.543-.24-.6-.409-.583-.02 0-.04.004-.06.01a.253.253 0 0 0-.061-.01c-.169-.017-.232.04-.409.583-.196.538-.519.933-.434 1.045.032.052.17.02.336-.092-.188.415-.408.713-.336.808.032.052.17.02.336-.092-.188.415-.408.713-.336.808.032.052.17.02.336-.092-.188.415-.408.713-.336.808.032.052.17.019.336-.092-.188.415-.408.712-.336.808.032.052.17.019.336-.092-.188.415-.408.712-.336.808.032.052.17.019.336-.092-.188.415-.408.712-.336.807.032.053.17.02.336-.091-.188.414-.408.712-.336.807.032.053.17.02.336-.091-.188.414-.408.712-.336.807.05.08.344-.035.614-.34-.09.565-.332 1.013-.228 1.107.046.05.197-.02.355-.194.086.478.34.771.43.715.09-.045.057-.318.055-.679.144.144.275.204.318.158.095-.085-.095-.464-.199-.955.22.188.422.254.462.188.072-.095-.148-.393-.336-.807.166.11.304.144.336.091.072-.095-.148-.393-.336-.807.166.11.304.144.336.091.072-.095-.148-.392-.336-.807.166.11.304.144.336.092.072-.096-.148-.393-.336-.808.166.111.304.144.336.092.072-.096-.148-.393-.336-.808.166.111.304.144.336.092.072-.095-.148-.393-.336-.808.166.111.304.144.336.092.072-.095-.148-.393-.336-.808.166.111.304.144.336.092"/>
            <path fill="#FFF" d="M-43.444 55.03a.223.223 0 0 1-.125-.407c7.817-5.252 11.355-11.163 12.768-14.22a.223.223 0 0 1 .203-.129h83.054c.087 0 .166.05.203.13 1.413 3.056 4.95 8.967 12.768 14.22a.223.223 0 0 1-.125.407H-43.444z"/>
            <path fill="#000" d="M52.456 40.051h-83.054a.447.447 0 0 0-.406.26c-1.403 3.034-4.918 8.905-12.69 14.127a.445.445 0 0 0 .25.816H65.302a.447.447 0 0 0 .25-.816c-7.773-5.222-11.287-11.093-12.69-14.128a.447.447 0 0 0-.406-.259m0 .446c2.06 4.456 6.132 9.8 12.846 14.311H-43.444c6.713-4.51 10.785-9.855 12.846-14.31h83.054"/>
            <g>
                <g transform="translate(-44 40)">
                    <mask id="g" fill="#fff">
                        <use xlink:href="#f"/>
                    </mask>
                    <path fill="#FF7900" d="M46.364 14.918H39.63c2.152-4.745 3.397-10.64 3.973-15.385h4.976c-.321 4.744-1.016 10.64-2.216 15.385" mask="url(#g)"/>
                </g>
                <g transform="translate(-44 40)">
                    <mask id="i" fill="#fff">
                        <use xlink:href="#h"/>
                    </mask>
                    <path fill="#FF7900" d="M58.227 14.918h-6.733c.476-4.745.75-10.64.878-15.385h4.976c.128 4.744.403 10.64.879 15.385" mask="url(#i)"/>
                </g>
                <g transform="translate(-44 40)">
                    <mask id="k" fill="#fff">
                        <use xlink:href="#j"/>
                    </mask>
                    <path fill="#FF7900" d="M70.09 14.918h-6.733c-1.2-4.745-1.895-10.64-2.217-15.385h4.977c.576 4.744 1.821 10.64 3.972 15.385" mask="url(#k)"/>
                </g>
                <g transform="translate(-44 40)">
                    <mask id="m" fill="#fff">
                        <use xlink:href="#l"/>
                    </mask>
                    <path fill="#FF7900" d="M81.952 14.918H75.22c-2.876-4.745-4.541-10.64-5.311-15.385h4.976c1.025 4.744 3.24 10.64 7.067 15.385" mask="url(#m)"/>
                </g>
                <g transform="translate(-44 40)">
                    <mask id="o" fill="#fff">
                        <use xlink:href="#n"/>
                    </mask>
                    <path fill="#FF7900" d="M93.815 14.918h-6.732c-4.552-4.745-7.187-10.64-8.406-15.385h4.976c1.474 4.744 4.66 10.64 10.162 15.385" mask="url(#o)"/>
                </g>
                <g transform="translate(-44 40)">
                    <mask id="q" fill="#fff">
                        <use xlink:href="#p"/>
                    </mask>
                    <path fill="#FF7900" d="M105.678 14.918h-6.732c-6.228-4.745-9.833-10.64-11.501-15.385h4.976c1.923 4.744 6.079 10.64 13.257 15.385" mask="url(#q)"/>
                </g>
            </g>
            <g>
                <path fill="#000" d="M-46 54.25H65.951v-1.364H-46z"/>
                <path fill="#085EBD" d="M-31.837 38.61H52.19v-8.607h-84.027z"/>
                <path fill="#4BB4E6" d="M-.114 34.337a.336.336 0 1 1-.671 0 .336.336 0 0 1 .671 0M3.435 34.337a.336.336 0 1 1-.671 0 .336.336 0 0 1 .67 0M6.983 34.337a.336.336 0 1 1-.67 0 .336.336 0 0 1 .67 0M10.532 34.337a.336.336 0 1 1-.67 0 .336.336 0 0 1 .67 0M14.08 34.337a.336.336 0 1 1-.67 0 .336.336 0 0 1 .67 0M17.63 34.337a.336.336 0 1 1-.672 0 .336.336 0 0 1 .672 0M21.178 34.337a.336.336 0 1 1-.67 0 .336.336 0 0 1 .67 0M24.727 34.337a.336.336 0 1 1-.671 0 .336.336 0 0 1 .67 0M28.276 34.337a.336.336 0 1 1-.672 0 .336.336 0 0 1 .672 0M31.824 34.337a.336.336 0 1 1-.67 0 .336.336 0 0 1 .67 0M35.373 34.337a.336.336 0 1 1-.671 0 .336.336 0 0 1 .671 0M38.922 34.337a.335.335 0 1 1-.671 0 .335.335 0 0 1 .67 0M42.47 34.337a.336.336 0 1 1-.67 0 .336.336 0 0 1 .67 0M46.02 34.337a.336.336 0 1 1-.672 0 .336.336 0 0 1 .671 0M49.568 34.337a.336.336 0 1 1-.671 0 .336.336 0 0 1 .67 0"/>
            </g>
        </g>
    </g>
</svg>
