<svg id="Calque_1" data-name="Calque 1" xmlns="http://www.w3.org/2000/svg" viewBox="0 0 180 159.91"><defs><style>.cls-1{fill:#fb7900;}.cls-2{fill:#fff;}.cls-3{fill:#0a6e31;}.cls-4{fill:#50be87;}.cls-5{fill:#ffd200;}.cls-6{fill:#ffb400;}.cls-7{fill:#3b3b3c;}.cls-8{fill:#c19372;}</style></defs><title>Paiement marchand</title><rect id="_Rectangle_" data-name="&lt;Rectangle&gt;" y="79.06" width="180" height="15.24"/><rect id="_Rectangle_2" data-name="&lt;Rectangle&gt;" x="6.16" y="21.91" width="67.63" height="61.65" rx="4.75" ry="4.75"/><rect id="_Rectangle_3" data-name="&lt;Rectangle&gt;" x="16.16" y="12.38" width="6.19" height="11.91"/><rect id="_Rectangle_4" data-name="&lt;Rectangle&gt;" x="6.16" width="28.58" height="15.72" rx="4.91" ry="4.91"/><rect id="_Rectangle_5" data-name="&lt;Rectangle&gt;" class="cls-1" x="11.95" y="3.63" width="16.51" height="7.03" rx="2.38" ry="2.38"/><rect id="_Rectangle_6" data-name="&lt;Rectangle&gt;" class="cls-2" x="12.87" y="29.42" width="21.03" height="16.11" rx="5.01" ry="5.01"/><g id="_Groupe_" data-name="&lt;Groupe&gt;"><rect id="_Rectangle_7" data-name="&lt;Rectangle&gt;" class="cls-2" x="13.32" y="51.79" width="10.29" height="9.84" rx="2.28" ry="2.28"/><rect id="_Rectangle_8" data-name="&lt;Rectangle&gt;" class="cls-2" x="27.23" y="51.79" width="10.29" height="9.84" rx="2.28" ry="2.28"/><rect id="_Rectangle_9" data-name="&lt;Rectangle&gt;" class="cls-2" x="41.14" y="51.79" width="10.29" height="9.84" rx="2.28" ry="2.28"/><rect id="_Rectangle_10" data-name="&lt;Rectangle&gt;" class="cls-2" x="55.04" y="51.79" width="10.29" height="9.84" rx="2.28" ry="2.28"/></g><g id="_Groupe_2" data-name="&lt;Groupe&gt;"><rect id="_Rectangle_11" data-name="&lt;Rectangle&gt;" class="cls-2" x="13.32" y="64.91" width="10.29" height="9.84" rx="2.28" ry="2.28"/><rect id="_Rectangle_12" data-name="&lt;Rectangle&gt;" class="cls-2" x="27.23" y="64.91" width="10.29" height="9.84" rx="2.28" ry="2.28"/><rect id="_Rectangle_13" data-name="&lt;Rectangle&gt;" class="cls-2" x="41.14" y="64.91" width="10.29" height="9.84" rx="2.28" ry="2.28"/><rect id="_Rectangle_14" data-name="&lt;Rectangle&gt;" class="cls-2" x="55.04" y="64.91" width="10.29" height="9.84" rx="2.28" ry="2.28"/></g><g id="_Groupe_3" data-name="&lt;Groupe&gt;"><g id="_Groupe_4" data-name="&lt;Groupe&gt;"><path id="_Tracé_" data-name="&lt;Tracé&gt;" class="cls-3" d="M129.73,18.29s-2.1-15.85-11-17.82a7.58,7.58,0,0,0-6.16,5.12S125.79,4,129.73,25.19Z" transform="translate(0 -0.09)"/><path id="_Tracé_2" data-name="&lt;Tracé&gt;" class="cls-3" d="M129.73,25.19s19.58-8.82,17-19.61L140.56.47a16.69,16.69,0,0,1-5.79,14c-6.84,5.75-5,3.84-5,3.84Z" transform="translate(0 -0.09)"/><path id="_Tracé_3" data-name="&lt;Tracé&gt;" class="cls-4" d="M128.72,17.81s3-15.36,11.85-17.34a7.63,7.63,0,0,1,6.23,5.12S133.68,4,129.73,25.19Z" transform="translate(0 -0.09)"/><path id="_Tracé_4" data-name="&lt;Tracé&gt;" class="cls-4" d="M129.73,25.19S110,16.38,112.56,5.59a7.55,7.55,0,0,1,2.34-3.36C117.26.15,118.73.47,118.73.47a16.92,16.92,0,0,0,5.88,14c6.84,5.75,5.12,3.84,5.12,3.84Z" transform="translate(0 -0.09)"/><rect id="_Rectangle_15" data-name="&lt;Rectangle&gt;" class="cls-4" x="125.93" y="15.46" width="7.11" height="9.64" rx="0.71" ry="0.71"/></g><g id="_Groupe_5" data-name="&lt;Groupe&gt;"><g id="_Groupe_6" data-name="&lt;Groupe&gt;"><rect id="_Tracé_5" data-name="&lt;Tracé&gt;" class="cls-5" x="101.52" y="31.06" width="54.81" height="49.08"/></g><g id="_Groupe_7" data-name="&lt;Groupe&gt;"><rect id="_Tracé_6" data-name="&lt;Tracé&gt;" class="cls-5" x="99.07" y="22.03" width="59.72" height="11.04"/></g><g id="_Groupe_8" data-name="&lt;Groupe&gt;"><rect id="_Tracé_7" data-name="&lt;Tracé&gt;" class="cls-6" x="101.41" y="33.08" width="55.04" height="5.36"/></g><g id="_Groupe_9" data-name="&lt;Groupe&gt;"><rect id="_Tracé_8" data-name="&lt;Tracé&gt;" class="cls-4" x="124.02" y="22.42" width="10.23" height="57.73"/></g><g id="_Groupe_10" data-name="&lt;Groupe&gt;"><rect id="_Tracé_9" data-name="&lt;Tracé&gt;" class="cls-4" x="124.02" y="21.29" width="10.23" height="11.78"/></g><g id="_Groupe_11" data-name="&lt;Groupe&gt;"><rect id="_Tracé_10" data-name="&lt;Tracé&gt;" class="cls-3" x="124.02" y="33.08" width="10.23" height="5.36"/></g></g><polygon id="_Tracé_11" data-name="&lt;Tracé&gt;" class="cls-4" points="125.93 19.44 118.36 31.34 114.24 27.27 122.27 17.72 125.93 19.44"/><polygon id="_Tracé_12" data-name="&lt;Tracé&gt;" class="cls-4" points="132.4 16.23 142.62 39.2 137.51 42.22 129.73 18.2 132.4 16.23"/></g><g id="_Groupe_12" data-name="&lt;Groupe&gt;"><path id="_Rectangle_16" data-name="&lt;Rectangle&gt;" class="cls-7" d="M72.65,30.2h40.78a2.62,2.62,0,0,1,2.62,2.62v81.37a2.63,2.63,0,0,1-2.62,2.63H72.65A2.63,2.63,0,0,1,70,114.19V32.83A2.63,2.63,0,0,1,72.65,30.2Z"/><rect id="_Rectangle_17" data-name="&lt;Rectangle&gt;" class="cls-2" x="71.85" y="38.66" width="42.38" height="62.06" rx="3.44" ry="3.44"/><circle id="_Tracé_13" data-name="&lt;Tracé&gt;" class="cls-2" cx="93.73" cy="109.92" r="4.57"/><path id="_Tracé_14" data-name="&lt;Tracé&gt;" class="cls-8" d="M70,160c1.75-17.19-1.79-39.07-2.3-56.37s0-34.67-1.85-51.88c-.12-1.11-.14-2.47.8-3.07s2.49.23,3.27,1.25c2.21,2.91,2.58,6.78,2.87,10.43.9,11.49,1.74,23,3.71,34.35a18,18,0,0,0,1.64,5.58A5.85,5.85,0,0,0,87.81,102a19.47,19.47,0,0,0,3.45-4.56L96,89.61A10.59,10.59,0,0,1,99.12,86a3.62,3.62,0,0,1,4.44.2c1.57,1.65.46,4.35-.72,6.31l-6.64,11c-1,1.72-3.49,10-2.24,13.85,0,0,10,.31,14.39,0-2.1,5.67-4.19,13.92-6.29,19.59a11.85,11.85,0,0,1-1.72,3.44A9.72,9.72,0,0,0,99.07,142a5.21,5.21,0,0,0-.4,2.26A132.79,132.79,0,0,0,99,160H70" transform="translate(0 -0.09)"/></g></svg>