<svg xmlns="http://www.w3.org/2000/svg" xmlns:xlink="http://www.w3.org/1999/xlink" width="180" height="160" viewBox="0 0 180 160">
    <defs>
        <path id="a" d="M0 0h180v160H0z"/>
        <path id="c" d="M.46.179h57.818v65.308H.46z"/>
        <path id="e" d="M0 167.863h245.878V.577H0z"/>
        <path id="g" d="M.25.517h73.448v88.329H.25z"/>
    </defs>
    <g fill="none" fill-rule="evenodd">
        <mask id="b" fill="#fff">
            <use xlink:href="#a"/>
        </mask>
        <use fill="#A885D8" fill-rule="nonzero" xlink:href="#a"/>
        <g mask="url(#b)">
            <g transform="translate(-22 24)">
                <g transform="translate(88.93 .398)">
                    <mask id="d" fill="#fff">
                        <use xlink:href="#c"/>
                    </mask>
                    <path fill="#FFB400" d="M11.426 9.79c-.046-.589-.004-1.694.786-2.484.662-.66 1.536-.8 2.153-.8 1.372 0 2.804.647 3.93 1.774 2.188 2.186 3.987 5.663 5.206 10.06.034.118.067.234.098.352-.117-.03-.235-.063-.354-.096-4.396-1.22-7.873-3.02-10.058-5.205-1.022-1.022-1.663-2.334-1.761-3.6m28.418-2.109c1.789-1.788 4.022-2.857 5.972-2.857.69 0 1.66.146 2.353.838 1.679 1.681.736 5.57-2.02 8.325-2.834 2.836-6.65 4.787-9.964 6.07h-3.27c1.198-3.714 3.36-8.806 6.929-12.376m6.272 12.376a25.75 25.75 0 0 0 3.32-2.785c2.155-2.155 3.597-4.806 4.06-7.467.506-2.916-.237-5.622-2.042-7.428-1.44-1.439-3.388-2.2-5.637-2.2-3.203 0-6.577 1.539-9.258 4.218-4.29 4.29-6.79 10.213-8.135 14.437-.997-4.246-2.983-9.98-6.842-13.838-2.07-2.072-4.718-3.135-7.217-3.135-2.043 0-3.986.71-5.437 2.162-3.226 3.225-2.79 8.89.973 12.653 1.342 1.342 2.91 2.458 4.563 3.383H.46v16.52h4.13v28.909h49.56v-28.91h4.128v-16.52H46.116" mask="url(#d)"/>
                </g>
                <mask id="f" fill="#fff">
                    <use xlink:href="#e"/>
                </mask>
                <path fill="#FFD200" d="M97.65 61.756h16.52V34.912H97.65zM93.519 32.846h20.651v-8.26H93.519zM122.429 61.756h16.518V34.912H122.43zM122.429 32.846h20.65v-8.26h-20.65z" mask="url(#f)"/>
                <path fill="#000" d="M157.857 42.174h.055c.948.775 2.05 1.476 3.21 2.13 1.134.641 2.284 1.327 3.644 1.672.695.175 1.41.345 2.2.424 1.59.162 3.377.026 4.804-.262.731-.147 1.388-.402 2.033-.523.362.274.388.765.548 1.166.476 1.19.98 2.452 1.426 3.712.591 1.68 1.125 3.392 2.27 4.553.598.498 1.287.942 1.959 1.458.215.164.441.386.654.458.18.062.414.058.623.108.553.125 1.171.284 1.74.4 1.305.266 2.514.471 3.18 1.4.228.564.824 1.665.227 2.223.061.138.128.213.11.407-.03.308-.246.68-.376 1.034-.135.366-.265.708-.43.95-1.718 1.035-3.794 1.491-6.183 1.98a24.263 24.263 0 0 1-3.636.447c-1.266.06-2.69.173-3.719-.23l-.055-.026c-1.141-.606-1.633-2.382-2.293-3.684-.334-.658-.688-1.294-1.147-1.843-.462-.55-.925-1.088-1.418-1.567-.976-.951-1.922-2.001-3.023-2.948-.744-.639-1.717-1.257-2.615-1.863-.545-.37-.82-.511-1.576-.62-.438-.062-1.034-.076-1.33.114-.225.145-.414.796-.483 1.224-.244 1.493-.177 3.235-.171 4.86.004 1.138.01 2.254.067 3.338.055 1.1.129 2.168.037 3.148-.395.093-1.065.083-1.464.005-.153-5.088-.501-10.509-1.55-14.896-.03-.132-.062-.298-.11-.433-.06-.168-.159-.279-.192-.46-.153-.846-.06-2.013.126-2.85.327-1.488 1.051-2.797 1.83-3.945.245-.362.622-.907 1.028-1.061M43.785 30.898v-5.97h5.948a4.96 4.96 0 0 0 4.96-4.96v-3.895a4.96 4.96 0 0 0-4.96-4.96H32.92a4.964 4.964 0 0 0-4.96 4.96v3.895a4.963 4.963 0 0 0 4.96 4.96h5.906v5.97h-5.203a5.663 5.663 0 0 0-5.663 5.664v27.323a2.29 2.29 0 0 0 2.293 2.292h51.152a2.29 2.29 0 0 0 2.293-2.292V36.562a5.663 5.663 0 0 0-5.663-5.664h-34.25" mask="url(#f)"/>
                <path fill="#FF7900" d="M31.953 20.646v-5.46h18.632v5.467H31.953z" mask="url(#f)"/>
                <path fill="#FFF" d="M63.036 37.523c0-.88.714-1.595 1.596-1.595h3.186c.882 0 1.59.715 1.59 1.595v2.514c0 .88-.708 1.597-1.59 1.597h-3.186a1.596 1.596 0 0 1-1.596-1.597v-2.514M63.036 45.1c0-.876.714-1.59 1.596-1.59h3.186c.882 0 1.59.71 1.59 1.59v2.513a1.59 1.59 0 0 1-1.59 1.596h-3.186a1.595 1.595 0 0 1-1.596-1.596V45.1M54.986 37.523c0-.88.716-1.595 1.596-1.595H59.7c.881 0 1.596.715 1.596 1.595v2.514c0 .88-.715 1.597-1.596 1.597h-3.118c-.88 0-1.596-.717-1.596-1.597v-2.514M54.986 45.1c0-.876.716-1.59 1.596-1.59H59.7c.881 0 1.596.71 1.596 1.59v2.513c0 .883-.715 1.596-1.596 1.596h-3.118c-.88 0-1.596-.713-1.596-1.596V45.1M77.457 47.612c0 .883-.714 1.597-1.596 1.597H72.75a1.595 1.595 0 0 1-1.596-1.597V45.1c0-.876.714-1.59 1.596-1.59h3.11c.883 0 1.597.71 1.597 1.59v2.512M77.457 40.037c0 .88-.714 1.597-1.596 1.597H72.75a1.597 1.597 0 0 1-1.596-1.597v-2.514c0-.88.714-1.595 1.596-1.595h3.11c.883 0 1.597.714 1.597 1.595v2.514M34.198 37.523c0-.88.71-1.595 1.591-1.595h11.5c.882 0 1.597.715 1.597 1.595v10.09c0 .883-.715 1.596-1.597 1.596h-11.5a1.591 1.591 0 0 1-1.591-1.596v-10.09" mask="url(#f)"/>
                <path fill="#595959" d="M77.457 58.48a2.534 2.534 0 0 1-2.535 2.534H36.734a2.535 2.535 0 0 1-2.536-2.535v-2.506c0-1.4 1.136-2.534 2.536-2.534h38.188c1.4 0 2.535 1.133 2.535 2.534v2.506" mask="url(#f)"/>
                <path fill="#8F8F8F" d="M76.052 56.198c0-.957-.708-1.729-1.582-1.729H37.206c-.874 0-1.583.772-1.583 1.729v2.064c0 .948.709 1.722 1.583 1.722H74.47c.874 0 1.582-.769 1.582-1.722v-2.064" mask="url(#f)"/>
                <path fill="#FFF" d="M59.399 57.482c0 .38-.28.686-.625.686h-5.9c-.344 0-.618-.306-.618-.686 0-.382.274-.692.618-.692h5.9c.344 0 .625.31.625.692" mask="url(#f)"/>
                <path fill="#595959" d="M233.208 66.176H20.196v101.687h184.672z" mask="url(#f)"/>
                <path fill="#333" d="M245.878 72.295c0 3.54-2.798 6.41-6.25 6.41H6.25c-3.453 0-6.25-2.87-6.25-6.41s2.797-6.41 6.25-6.41h233.377c3.452 0 6.25 2.87 6.25 6.41" mask="url(#f)"/>
            </g>
        </g>
        <g mask="url(#b)">
            <g transform="rotate(20 -58.768 168.88)">
                <path fill="#1D1D1B" d="M21.389 16.275c.341.646 1.167.879 1.84.522l7.28-3.867c.676-.359.945-1.17.602-1.817l-.366-.689c-.344-.648-1.168-.882-1.843-.522l-7.281 3.866c-.675.357-.944 1.17-.598 1.82l.366.687z"/>
                <g transform="translate(16.545 .12)">
                    <mask id="h" fill="#fff">
                        <use xlink:href="#g"/>
                    </mask>
                    <path fill="#333" d="M32.796 85.24c1.785 3.36 6.043 4.593 9.512 2.75l27.557-14.632c3.47-1.84 4.833-6.06 3.048-9.419L41.153 4.126C39.364.764 35.106-.47 31.64 1.37L4.08 16.003C.614 17.847-.75 22.065 1.036 25.43l31.76 59.811z" mask="url(#h)"/>
                </g>
                <path fill="#1D1D1B" d="M72.53 73.557a3.607 3.607 0 0 1-6.37 3.383 3.604 3.604 0 0 1 1.491-4.875 3.607 3.607 0 0 1 4.879 1.492"/>
                <path fill="#FFF" d="M46.45 11.958l-.005.002-24.117 12.808 28.547 53.763 8.633-4.585.007-.003L82.53 61.721 53.98 7.96z"/>
                <circle cx="52.681" cy="42.656" r="12.291" fill="#32C832" transform="rotate(-30 52.68 42.656)"/>
                <path fill="#FFF" d="M56.5 34.385a1.278 1.278 0 0 0-1.743-.476 1.26 1.26 0 0 0-.58.736l-2.836 10.13-3.533-1.161a1.26 1.26 0 0 0-1.461.921l-.184.7c-.083.316-.046.665.131.971.152.263.382.452.643.556l6.09 2.412a1.264 1.264 0 0 0 1.72-.993L56.66 35.22a1.285 1.285 0 0 0-.16-.834"/>
                <path fill="#1D1D1B" d="M39.65 11.46a.677.677 0 0 1-.279.912l-4.628 2.459a.669.669 0 0 1-.908-.282.667.667 0 0 1 .275-.91l4.627-2.457a.679.679 0 0 1 .912.278M32.339 15.388a.886.886 0 0 1-1.563.829.885.885 0 1 1 1.563-.83"/>
                <path fill="#C19372" d="M67.201 140.12s-25.358-27.437-32.473-54.198c-6.894-25.925-18.175-47.706-12.006-50.633l23.442 44.088c1.513-.002 3.372-1.176 3.855-6.607.85-9.545.887-14 1.08-17.182.193-3.182.193-10.182 6.557-10.606 6.363-.424 5.515 5.303 5.303 10.818-.212 5.515.212 14.425 0 20.046-.212 5.621 2.588 8.76 7.473 6.116a779.514 779.514 0 0 1 9.678-5.139s4.26 5.28 6.812 21.72c2.552 16.439 9.976 32.139 17.613 41.577H67.2z"/>
                <path fill="#FF7900" d="M2.178 31.836a.477.477 0 0 1-.443-.3A24.679 24.679 0 0 1 3.87 9.18a.477.477 0 1 1 .805.515 23.72 23.72 0 0 0-2.053 21.487.477.477 0 0 1-.444.653M7.357 29.78a.477.477 0 0 1-.444-.301 19.097 19.097 0 0 1 1.652-17.296.476.476 0 1 1 .804.513A18.141 18.141 0 0 0 7.8 29.126a.477.477 0 0 1-.443.654"/>
                <path fill="#FFF" d="M2.178 31.836a.477.477 0 0 1-.443-.3A24.679 24.679 0 0 1 3.87 9.18a.477.477 0 1 1 .805.515 23.72 23.72 0 0 0-2.053 21.487.477.477 0 0 1-.444.653M12.845 27.6a.477.477 0 0 1-.443-.3 13.178 13.178 0 0 1 1.142-11.935.476.476 0 1 1 .804.514 12.227 12.227 0 0 0-1.059 11.068.477.477 0 0 1-.444.654M7.357 29.78a.477.477 0 0 1-.444-.301 19.097 19.097 0 0 1 1.652-17.296.476.476 0 1 1 .804.513A18.141 18.141 0 0 0 7.8 29.126a.477.477 0 0 1-.443.654"/>
            </g>
        </g>
    </g>
</svg>
