<svg id="Calque_1" data-name="Calque 1" xmlns="http://www.w3.org/2000/svg" viewBox="0 0 180.8 160"><defs><style>.cls-1{fill:#fff6b6;}.cls-2{fill:#c19372;}.cls-3{fill:#141819;}.cls-4{fill:#f1634c;}.cls-5{fill:#9caac1;}.cls-6{fill:#fff;}.cls-7{fill:#dca327;}.cls-8{fill:#efeff0;}.cls-9{fill:#d6d6d6;}.cls-10{fill:#ff7900;}</style></defs><title>Paiement de factures</title><rect class="cls-1" x="0.8" width="180" height="160"/><g id="_Groupe_" data-name="&lt;Groupe&gt;"><path id="_Tracé_" data-name="&lt;Tracé&gt;" class="cls-2" d="M101.75,63.2c.56.07,13.23.78,11.06,2.57-1.78,1.47-7.42.54-7.57,3.57-.12,2.45,3.52,2.1,5.17,2.38,2,.33,4.61.85,3.77,3.53-1.09,3.49-7,2.23-9.59,2.69-5.81,1-3.24,3,1.27,2.86,2.12-.06,16.17.67,11.85,4.94-2.26,2.23-5.29,1.4-8.08,2-2.57.56-6.11.06-8.14,2C107.43,91,114,89,119.78,91c2.32.79,4.1,2.45,1.24,4.12S101,97.23,96,98a14.57,14.57,0,0,0-4.2,1.32c-3.19,1.56-5.73,4.14-8.29,6.87-3.4,3.65-6.75,7.75-10.52,10.88-2.71,2.26-5.91,2.59-9.27,3-.64.07-10.07,1.85-9.25,2.88L43.08,108.71c-1.48-1.84-6.81-6.58-5.45-9.09.94-1.73,5.45-2.88,7.16-3.69a34.66,34.66,0,0,0,7.51-4.41c7.3-6.05,11-15.4,17.4-22.26,4.59-4.94,7-9,14.42-8.6C90.08,61,95.85,62.52,101.75,63.2Z" transform="translate(0.8)"/><path id="_Tracé_2" data-name="&lt;Tracé&gt;" class="cls-3" d="M81.74,98.53l0,.11Z" transform="translate(0.8)"/><path id="_Tracé_3" data-name="&lt;Tracé&gt;" class="cls-3" d="M81.8,98.27l0,.07Z" transform="translate(0.8)"/><path id="_Tracé_4" data-name="&lt;Tracé&gt;" class="cls-3" d="M81.83,98.16l0,.12Z" transform="translate(0.8)"/><path id="_Tracé_5" data-name="&lt;Tracé&gt;" class="cls-3" d="M81.78,98.34l0,.11Z" transform="translate(0.8)"/><path id="_Tracé_6" data-name="&lt;Tracé&gt;" class="cls-3" d="M81.75,98.45v0Z" transform="translate(0.8)"/><path id="_Tracé_7" data-name="&lt;Tracé&gt;" class="cls-3" d="M81.72,98.64v0Z" transform="translate(0.8)"/><polygon id="_Tracé_8" data-name="&lt;Tracé&gt;" class="cls-3" points="82.72 97.93 82.72 97.93 82.72 97.93 82.72 97.93"/><path id="_Tracé_9" data-name="&lt;Tracé&gt;" class="cls-3" d="M81.85,98.1l0,.06Z" transform="translate(0.8)"/><path id="_Tracé_10" data-name="&lt;Tracé&gt;" class="cls-3" d="M81.92,97.93l-.07.17Z" transform="translate(0.8)"/><path id="_Tracé_11" data-name="&lt;Tracé&gt;" class="cls-3" d="M83.66,101.95l0,0Z" transform="translate(0.8)"/><path id="_Tracé_12" data-name="&lt;Tracé&gt;" class="cls-3" d="M83.75,102l-.08,0Z" transform="translate(0.8)"/><path id="_Tracé_13" data-name="&lt;Tracé&gt;" class="cls-3" d="M83.62,101.93l-.12-.06Z" transform="translate(0.8)"/><path id="_Tracé_14" data-name="&lt;Tracé&gt;" class="cls-3" d="M81.7,98.83s0,0,0,.07S81.7,98.86,81.7,98.83Z" transform="translate(0.8)"/><path id="_Tracé_15" data-name="&lt;Tracé&gt;" class="cls-3" d="M81.7,99.28c0-.06,0-.12,0-.18s0,.12,0,.18Z" transform="translate(0.8)"/><path id="_Tracé_16" data-name="&lt;Tracé&gt;" class="cls-3" d="M81.69,98.9c0,.05,0,.1,0,.15S81.69,99,81.69,98.9Z" transform="translate(0.8)"/><path id="_Tracé_17" data-name="&lt;Tracé&gt;" class="cls-3" d="M81.71,98.71s0,.08,0,.12S81.7,98.75,81.71,98.71Z" transform="translate(0.8)"/><path id="_Tracé_18" data-name="&lt;Tracé&gt;" class="cls-4" d="M85.65,78.1c-.37,1.2-2.83,3.3-4,1.92-1.6-1.93.28-3.69,2-4.09C85,75.64,86.24,76.16,85.65,78.1Z" transform="translate(0.8)"/><path id="_Tracé_19" data-name="&lt;Tracé&gt;" class="cls-5" d="M115.94,88.31v0Z" transform="translate(0.8)"/><path id="_Tracé_20" data-name="&lt;Tracé&gt;" class="cls-6" d="M58,124l-1.5.89a.73.73,0,0,1-.74-1.25l1.5-.89A.73.73,0,0,1,58,124Z" transform="translate(0.8)"/><path id="_Tracé_21" data-name="&lt;Tracé&gt;" class="cls-6" d="M52.52,127.54l-1.5.89a.73.73,0,0,1-.74-1.25l1.5-.89A.73.73,0,0,1,52.52,127.54Z" transform="translate(0.8)"/><path id="_Tracé_22" data-name="&lt;Tracé&gt;" class="cls-6" d="M47.75,130.63l-1.5.89a.73.73,0,0,1-.74-1.25l1.5-.89A.73.73,0,0,1,47.75,130.63Z" transform="translate(0.8)"/><path id="_Tracé_23" data-name="&lt;Tracé&gt;" class="cls-6" d="M43.05,133.41l-1.31.78a.73.73,0,0,1-.74-1.25l1.31-.78A.73.73,0,0,1,43.05,133.41Z" transform="translate(0.8)"/><path id="_Tracé_24" data-name="&lt;Tracé&gt;" class="cls-6" d="M37.64,135.27a.74.74,0,0,1-.25,1l-1.13.67a.73.73,0,1,1-.74-1.25l1.13-.67A.73.73,0,0,1,37.64,135.27Z" transform="translate(0.8)"/><path id="_Tracé_25" data-name="&lt;Tracé&gt;" class="cls-6" d="M32,139.69l-1.69,1a.73.73,0,0,1-.74-1.25l1.69-1A.73.73,0,0,1,32,139.69Z" transform="translate(0.8)"/><path id="_Tracé_26" data-name="&lt;Tracé&gt;" class="cls-6" d="M30.83,135.07l-1.5.89a.73.73,0,0,1-.74-1.25l1.5-.89A.73.73,0,0,1,30.83,135.07Z" transform="translate(0.8)"/><path id="_Tracé_27" data-name="&lt;Tracé&gt;" class="cls-6" d="M35.86,131a.73.73,0,0,1-.25,1l-1.13.67a.73.73,0,0,1-.74-1.25l1.13-.67A.73.73,0,0,1,35.86,131Z" transform="translate(0.8)"/><path id="_Tracé_28" data-name="&lt;Tracé&gt;" class="cls-6" d="M41.32,128.35l-1.5.89a.73.73,0,0,1-.74-1.25l1.5-.89A.73.73,0,0,1,41.32,128.35Z" transform="translate(0.8)"/><path id="_Tracé_29" data-name="&lt;Tracé&gt;" class="cls-6" d="M47,123.31a.73.73,0,0,1,.74,1.25,7.22,7.22,0,0,1-2,.89c-.91.22-1.3-1.19-.38-1.4A5.86,5.86,0,0,0,47,123.31Z" transform="translate(0.8)"/><path id="_Tracé_30" data-name="&lt;Tracé&gt;" class="cls-6" d="M54.79,121.11l-1.69,1a.73.73,0,0,1-.74-1.25l1.69-1A.73.73,0,0,1,54.79,121.11Z" transform="translate(0.8)"/><path id="_Tracé_31" data-name="&lt;Tracé&gt;" class="cls-6" d="M21.72,135.77l-1.5.89a.73.73,0,0,1-.74-1.25l1.5-.89A.73.73,0,0,1,21.72,135.77Z" transform="translate(0.8)"/><path id="_Tracé_32" data-name="&lt;Tracé&gt;" class="cls-6" d="M27.39,132.91l-1.31.78a.73.73,0,0,1-.74-1.25l1.31-.78A.73.73,0,0,1,27.39,132.91Z" transform="translate(0.8)"/><path id="_Tracé_33" data-name="&lt;Tracé&gt;" class="cls-6" d="M32.09,130.12l-1.31.78a.73.73,0,0,1-.74-1.25l1.31-.78A.73.73,0,0,1,32.09,130.12Z" transform="translate(0.8)"/><path id="_Tracé_34" data-name="&lt;Tracé&gt;" class="cls-6" d="M38.06,125.65a.73.73,0,0,1,.74,1.25l-1.5.89a1.28,1.28,0,0,1-1.3-.33.74.74,0,0,1,.81-1.08Z" transform="translate(0.8)"/><path id="_Tracé_35" data-name="&lt;Tracé&gt;" class="cls-6" d="M44.13,122.89a.73.73,0,0,1-.25,1l-.75.45a.73.73,0,0,1-.74-1.25l.75-.45A.73.73,0,0,1,44.13,122.89Z" transform="translate(0.8)"/><path id="_Tracé_36" data-name="&lt;Tracé&gt;" class="cls-6" d="M48.71,119.92a.73.73,0,0,1-.25,1l-.27.17-.15.13-.11.12c-.06.07-.07.08,0,0a.74.74,0,0,1-1,.28.73.73,0,0,1-.28-1,3.35,3.35,0,0,1,1.09-1A.73.73,0,0,1,48.71,119.92Z" transform="translate(0.8)"/><path id="_Tracé_37" data-name="&lt;Tracé&gt;" class="cls-7" d="M42.07,88.34c1.1.69,19.68,29.76,20,33.34.2,2.38-3.32,4.56-4.53,5.57-4.22,3.53-27,18.79-33.3,24l-25-42.16c.11.19,34.53-17.92,39.56-20.45C40.24,87.9,41.22,87.81,42.07,88.34Z" transform="translate(0.8)"/><path id="_Tracé_38" data-name="&lt;Tracé&gt;" class="cls-6" d="M59.87,120.38a.67.67,0,0,1,.26.91,4.68,4.68,0,0,1-1.42,1.42c-.73.46-1.42-.7-.68-1.15a3.08,3.08,0,0,0,.93-.92A.68.68,0,0,1,59.87,120.38Z" transform="translate(0.8)"/><g id="_Groupe_2" data-name="&lt;Groupe&gt;"><path id="_Tracé_39" data-name="&lt;Tracé&gt;" class="cls-6" d="M54.48,124.32c0-.08,0,0,0,0Z" transform="translate(0.8)"/><path id="_Tracé_40" data-name="&lt;Tracé&gt;" class="cls-6" d="M55.76,124.7a1.81,1.81,0,0,1-.9,1,.67.67,0,0,1-.68-1.15l.11-.07.12-.08.06-.06h0a.67.67,0,0,1,1.28.38Z" transform="translate(0.8)"/></g><path id="_Tracé_41" data-name="&lt;Tracé&gt;" class="cls-6" d="M51.34,128a2.88,2.88,0,0,0-.86.64.69.69,0,0,1-.91.26.67.67,0,0,1-.26-.91,4.09,4.09,0,0,1,1.35-1.14A.67.67,0,0,1,51.34,128Z" transform="translate(0.8)"/><path id="_Tracé_42" data-name="&lt;Tracé&gt;" class="cls-6" d="M47,131a6.67,6.67,0,0,1-1.59,1.21.67.67,0,0,1-.68-1.15,5.39,5.39,0,0,0,1.31-1C46.63,129.45,47.59,130.39,47,131Z" transform="translate(0.8)"/><path id="_Tracé_43" data-name="&lt;Tracé&gt;" class="cls-6" d="M41.51,134.32c-.57.36-1,.84-1.63,1.2a.67.67,0,0,1-.68-1.15c.58-.36,1.05-.84,1.63-1.2C41.56,132.71,42.24,133.86,41.51,134.32Z" transform="translate(0.8)"/><path id="_Tracé_44" data-name="&lt;Tracé&gt;" class="cls-6" d="M36.8,137.82a4.55,4.55,0,0,0-1.14.88c-.58.65-1.54-.29-1-.93a5.81,5.81,0,0,1,1.42-1.11A.67.67,0,0,1,36.8,137.82Z" transform="translate(0.8)"/><path id="_Tracé_45" data-name="&lt;Tracé&gt;" class="cls-6" d="M32.82,141.35a3.63,3.63,0,0,0-1,.78c-.57.65-1.54-.29-1-.93a5.16,5.16,0,0,1,1.25-1A.67.67,0,0,1,32.82,141.35Z" transform="translate(0.8)"/><path id="_Tracé_46" data-name="&lt;Tracé&gt;" class="cls-6" d="M28.9,144.61l-1.21.72a.67.67,0,0,1-.68-1.15l1.21-.72A.67.67,0,0,1,28.9,144.61Z" transform="translate(0.8)"/><path id="_Tracé_47" data-name="&lt;Tracé&gt;" class="cls-6" d="M28.82,140.92l-1.38.82a.67.67,0,0,1-.68-1.15l1.38-.82A.67.67,0,0,1,28.82,140.92Z" transform="translate(0.8)"/><path id="_Tracé_48" data-name="&lt;Tracé&gt;" class="cls-6" d="M32.6,137.16a4.23,4.23,0,0,1-1.77,1.62.67.67,0,0,1-.68-1.15,3,3,0,0,0,1.28-1.12C31.82,135.74,33,136.4,32.6,137.16Z" transform="translate(0.8)"/><path id="_Tracé_49" data-name="&lt;Tracé&gt;" class="cls-6" d="M36.32,132.72a.67.67,0,0,1,.26.91,3.54,3.54,0,0,1-1.18,1,.67.67,0,0,1-.68-1.15,2,2,0,0,0,.69-.54A.68.68,0,0,1,36.32,132.72Z" transform="translate(0.8)"/><path id="_Tracé_50" data-name="&lt;Tracé&gt;" class="cls-6" d="M41.42,130.63l-1.73,1A.67.67,0,0,1,39,130.5l1.73-1A.67.67,0,0,1,41.42,130.63Z" transform="translate(0.8)"/><path id="_Tracé_51" data-name="&lt;Tracé&gt;" class="cls-6" d="M44.9,126.71l.09-.08c.09-.08.16-.17.24-.25a.67.67,0,0,1,1,.93,1.83,1.83,0,0,1-1.69.8.67.67,0,0,1,.25-1.31l.09-.05Z" transform="translate(0.8)"/><path id="_Tracé_52" data-name="&lt;Tracé&gt;" class="cls-6" d="M51,124.26l-1.21.72a.67.67,0,0,1-.68-1.15l1.21-.72A.67.67,0,0,1,51,124.26Z" transform="translate(0.8)"/><path id="_Tracé_53" data-name="&lt;Tracé&gt;" class="cls-6" d="M25.89,139.14l-1.38.82a.67.67,0,0,1-.68-1.15l1.38-.82A.67.67,0,0,1,25.89,139.14Z" transform="translate(0.8)"/><path id="_Tracé_54" data-name="&lt;Tracé&gt;" class="cls-6" d="M30.22,135.4l-1.38.82a.67.67,0,0,1-.68-1.15l1.38-.82A.67.67,0,0,1,30.22,135.4Z" transform="translate(0.8)"/><path id="_Tracé_55" data-name="&lt;Tracé&gt;" class="cls-6" d="M34.79,130.75a.68.68,0,0,1-.23.92l-.25.16-.14.12-.1.11,0,0a.68.68,0,0,1-.91.26.67.67,0,0,1-.26-.91,3.08,3.08,0,0,1,1-.94A.68.68,0,0,1,34.79,130.75Z" transform="translate(0.8)"/><path id="_Tracé_56" data-name="&lt;Tracé&gt;" class="cls-6" d="M40,126.94a.68.68,0,0,1-.23.92l-.87.51a.67.67,0,0,1-.68-1.15l.87-.51A.68.68,0,0,1,40,126.94Z" transform="translate(0.8)"/><path id="_Tracé_57" data-name="&lt;Tracé&gt;" class="cls-6" d="M45.8,123.82l-1.73,1a.67.67,0,0,1-.68-1.15l1.73-1A.67.67,0,0,1,45.8,123.82Z" transform="translate(0.8)"/><path id="_Tracé_58" data-name="&lt;Tracé&gt;" class="cls-6" d="M51,120.29c-.2.12-.41.25-.6.38a3,3,0,0,0-.43.36.68.68,0,0,1-.91.26.67.67,0,0,1-.26-.91,4.65,4.65,0,0,1,1.53-1.25A.67.67,0,0,1,51,120.29Z" transform="translate(0.8)"/><path id="_Tracé_59" data-name="&lt;Tracé&gt;" class="cls-6" d="M46.89,119l-1.73,1a.67.67,0,0,1-.68-1.15l1.73-1A.67.67,0,0,1,46.89,119Z" transform="translate(0.8)"/><path id="_Tracé_60" data-name="&lt;Tracé&gt;" class="cls-6" d="M42.36,122.35c-.36.23-.71.64-1.11.89-.73.46-1.41-.69-.68-1.15.36-.23.71-.64,1.11-.89C42.41,120.74,43.09,121.89,42.36,122.35Z" transform="translate(0.8)"/><path id="_Tracé_61" data-name="&lt;Tracé&gt;" class="cls-6" d="M37.51,126.4l-1.38.82a.67.67,0,0,1-.68-1.15l1.38-.82A.67.67,0,0,1,37.51,126.4Z" transform="translate(0.8)"/><path id="_Tracé_62" data-name="&lt;Tracé&gt;" class="cls-6" d="M32.83,128.63a.68.68,0,0,1-.23.92l-.86.51a.67.67,0,1,1-.68-1.15l.86-.51A.68.68,0,0,1,32.83,128.63Z" transform="translate(0.8)"/><path id="_Tracé_63" data-name="&lt;Tracé&gt;" class="cls-6" d="M28.29,131.4a.67.67,0,0,1,.26.91,3.53,3.53,0,0,1-1.18,1,.67.67,0,0,1-.68-1.15,2,2,0,0,0,.69-.54A.68.68,0,0,1,28.29,131.4Z" transform="translate(0.8)"/><path id="_Tracé_64" data-name="&lt;Tracé&gt;" class="cls-6" d="M23.49,135.35a.68.68,0,0,1-.23.92l-.52.31a.67.67,0,0,1-.68-1.15l.52-.31A.68.68,0,0,1,23.49,135.35Z" transform="translate(0.8)"/><path id="_Tracé_65" data-name="&lt;Tracé&gt;" class="cls-6" d="M23.82,131.72c-.75.46-1.4,1-2.15,1.51a.67.67,0,0,1-.68-1.15c.75-.46,1.4-1,2.15-1.51A.67.67,0,0,1,23.82,131.72Z" transform="translate(0.8)"/><path id="_Tracé_66" data-name="&lt;Tracé&gt;" class="cls-6" d="M28.95,127.74l-1.38.82a.67.67,0,0,1-.68-1.15l1.38-.82A.67.67,0,0,1,28.95,127.74Z" transform="translate(0.8)"/><path id="_Tracé_67" data-name="&lt;Tracé&gt;" class="cls-6" d="M35.08,123.14a16,16,0,0,1-2.46,1.72.67.67,0,0,1-.68-1.15,14.13,14.13,0,0,0,2.18-1.5C34.76,121.64,35.73,122.57,35.08,123.14Z" transform="translate(0.8)"/><path id="_Tracé_68" data-name="&lt;Tracé&gt;" class="cls-6" d="M39.68,120.2,38.3,121a.67.67,0,0,1-.68-1.15l1.38-.82A.67.67,0,0,1,39.68,120.2Z" transform="translate(0.8)"/><path id="_Tracé_69" data-name="&lt;Tracé&gt;" class="cls-6" d="M45.08,116.3,43,117.53a.67.67,0,0,1-.68-1.15l2.08-1.23A.67.67,0,0,1,45.08,116.3Z" transform="translate(0.8)"/><path id="_Tracé_70" data-name="&lt;Tracé&gt;" class="cls-6" d="M42.33,112.71a.68.68,0,0,1-.23.92l-1,.62a.67.67,0,1,1-.68-1.15l1-.62A.68.68,0,0,1,42.33,112.71Z" transform="translate(0.8)"/><path id="_Tracé_71" data-name="&lt;Tracé&gt;" class="cls-6" d="M37.32,116.66a13.37,13.37,0,0,1-2.46,1.72.67.67,0,0,1-.68-1.15,11.83,11.83,0,0,0,2.18-1.5C37,115.14,37.95,116.07,37.32,116.66Z" transform="translate(0.8)"/><path id="_Tracé_72" data-name="&lt;Tracé&gt;" class="cls-6" d="M30.57,121.4l-1.21.72a.67.67,0,0,1-.68-1.15l1.21-.72A.67.67,0,0,1,30.57,121.4Z" transform="translate(0.8)"/><path id="_Tracé_73" data-name="&lt;Tracé&gt;" class="cls-6" d="M25.54,123.84a.68.68,0,0,1-.23.92l-1,.62a.67.67,0,0,1-.68-1.15l1-.62A.68.68,0,0,1,25.54,123.84Z" transform="translate(0.8)"/><path id="_Tracé_74" data-name="&lt;Tracé&gt;" class="cls-6" d="M20.77,128.15l-1.21.72a.67.67,0,0,1-.68-1.15l1.21-.72A.67.67,0,0,1,20.77,128.15Z" transform="translate(0.8)"/><path id="_Tracé_75" data-name="&lt;Tracé&gt;" class="cls-6" d="M19.27,124.83l-1.38.82a.67.67,0,0,1-.68-1.15l1.38-.82A.67.67,0,0,1,19.27,124.83Z" transform="translate(0.8)"/><path id="_Tracé_76" data-name="&lt;Tracé&gt;" class="cls-6" d="M24.12,121.22a6.66,6.66,0,0,1-1.6,1.21.67.67,0,0,1-.68-1.15,5.39,5.39,0,0,0,1.31-1C23.73,119.65,24.7,120.58,24.12,121.22Z" transform="translate(0.8)"/><path id="_Tracé_77" data-name="&lt;Tracé&gt;" class="cls-6" d="M30.35,117.09l-1.9,1.13a.67.67,0,0,1-.68-1.15l1.9-1.13A.67.67,0,0,1,30.35,117.09Z" transform="translate(0.8)"/><path id="_Tracé_78" data-name="&lt;Tracé&gt;" class="cls-6" d="M36.08,112.44a.68.68,0,0,1-.23.92l-1,.62a.67.67,0,0,1-.68-1.15l1-.62A.68.68,0,0,1,36.08,112.44Z" transform="translate(0.8)"/><path id="_Tracé_79" data-name="&lt;Tracé&gt;" class="cls-6" d="M41.59,109.24l-1.21.72a.67.67,0,0,1-.68-1.15l1.21-.72A.67.67,0,0,1,41.59,109.24Z" transform="translate(0.8)"/><path id="_Tracé_80" data-name="&lt;Tracé&gt;" class="cls-6" d="M38.43,106.68c-.57.36-1.05.84-1.63,1.2-.74.46-1.42-.7-.68-1.15.57-.36,1.05-.84,1.63-1.2C38.49,105.07,39.17,106.22,38.43,106.68Z" transform="translate(0.8)"/><path id="_Tracé_81" data-name="&lt;Tracé&gt;" class="cls-6" d="M32.75,110a.68.68,0,0,1-.23.92l-1,.62a.67.67,0,0,1-.68-1.15l1-.62A.68.68,0,0,1,32.75,110Z" transform="translate(0.8)"/><path id="_Tracé_82" data-name="&lt;Tracé&gt;" class="cls-6" d="M27.77,113.94l-1.38.82a.67.67,0,0,1-.68-1.15l1.38-.82A.67.67,0,0,1,27.77,113.94Z" transform="translate(0.8)"/><path id="_Tracé_83" data-name="&lt;Tracé&gt;" class="cls-6" d="M23.09,116.17a.68.68,0,0,1-.23.92l-.52.31a.67.67,0,0,1-.68-1.15l.52-.31A.68.68,0,0,1,23.09,116.17Z" transform="translate(0.8)"/><path id="_Tracé_84" data-name="&lt;Tracé&gt;" class="cls-6" d="M19.06,119.34l-1.38.82A.67.67,0,0,1,17,119l1.38-.82A.67.67,0,0,1,19.06,119.34Z" transform="translate(0.8)"/><path id="_Tracé_85" data-name="&lt;Tracé&gt;" class="cls-6" d="M14.79,121.09a.68.68,0,0,1-.23.92l-.69.41a.67.67,0,0,1-.68-1.15l.69-.41A.68.68,0,0,1,14.79,121.09Z" transform="translate(0.8)"/><path id="_Tracé_86" data-name="&lt;Tracé&gt;" class="cls-6" d="M15.17,118.22l-1.73,1a.67.67,0,0,1-.68-1.15l1.73-1A.67.67,0,0,1,15.17,118.22Z" transform="translate(0.8)"/><path id="_Tracé_87" data-name="&lt;Tracé&gt;" class="cls-6" d="M18.59,115.41l-1.9,1.13a.67.67,0,0,1-.68-1.15l1.9-1.13A.67.67,0,0,1,18.59,115.41Z" transform="translate(0.8)"/><path id="_Tracé_88" data-name="&lt;Tracé&gt;" class="cls-6" d="M25.34,111.41l-2.59,1.54a.67.67,0,0,1-.68-1.15l2.59-1.54A.67.67,0,0,1,25.34,111.41Z" transform="translate(0.8)"/><path id="_Tracé_89" data-name="&lt;Tracé&gt;" class="cls-6" d="M30.7,108.22l-1.9,1.13a.67.67,0,0,1-.68-1.15l1.9-1.13A.67.67,0,0,1,30.7,108.22Z" transform="translate(0.8)"/><path id="_Tracé_90" data-name="&lt;Tracé&gt;" class="cls-6" d="M35.74,104a.68.68,0,0,1-.23.92l-.87.51a.67.67,0,1,1-.68-1.15l.87-.51A.68.68,0,0,1,35.74,104Z" transform="translate(0.8)"/><path id="_Tracé_91" data-name="&lt;Tracé&gt;" class="cls-6" d="M35.49,100.93l-1.38.82a.67.67,0,0,1-.68-1.15l1.38-.82A.67.67,0,0,1,35.49,100.93Z" transform="translate(0.8)"/><path id="_Tracé_92" data-name="&lt;Tracé&gt;" class="cls-6" d="M30.41,104.19,29,105a.67.67,0,0,1-.68-1.15l1.38-.82A.67.67,0,0,1,30.41,104.19Z" transform="translate(0.8)"/><path id="_Tracé_93" data-name="&lt;Tracé&gt;" class="cls-6" d="M26,107l-1.38.82a.67.67,0,0,1-.68-1.15l1.38-.82A.67.67,0,0,1,26,107Z" transform="translate(0.8)"/><path id="_Tracé_94" data-name="&lt;Tracé&gt;" class="cls-6" d="M21.69,109.6l-1.21.72a.67.67,0,0,1-.68-1.15l1.21-.72A.67.67,0,0,1,21.69,109.6Z" transform="translate(0.8)"/><path id="_Tracé_95" data-name="&lt;Tracé&gt;" class="cls-6" d="M16.7,111.31a.68.68,0,0,1-.23.92l-1,.62a.67.67,0,0,1-.68-1.15l1-.62A.68.68,0,0,1,16.7,111.31Z" transform="translate(0.8)"/><path id="_Tracé_96" data-name="&lt;Tracé&gt;" class="cls-6" d="M11.55,115.38,10,116.3a.67.67,0,0,1-.68-1.15l1.56-.92A.67.67,0,0,1,11.55,115.38Z" transform="translate(0.8)"/><path id="_Tracé_97" data-name="&lt;Tracé&gt;" class="cls-6" d="M10.44,111.13l-1.38.82a.67.67,0,0,1-.68-1.15L9.75,110A.67.67,0,0,1,10.44,111.13Z" transform="translate(0.8)"/><path id="_Tracé_98" data-name="&lt;Tracé&gt;" class="cls-6" d="M15.07,107.37a.68.68,0,0,1-.23.92l-1,.62a.67.67,0,0,1-.68-1.15l1-.62A.68.68,0,0,1,15.07,107.37Z" transform="translate(0.8)"/><path id="_Tracé_99" data-name="&lt;Tracé&gt;" class="cls-6" d="M20.09,104.93l-1.38.82A.67.67,0,0,1,18,104.6l1.38-.82A.67.67,0,0,1,20.09,104.93Z" transform="translate(0.8)"/><path id="_Tracé_100" data-name="&lt;Tracé&gt;" class="cls-6" d="M25.29,100.29a.67.67,0,0,1,.68,1.15,6.66,6.66,0,0,1-1.82.82c-.84.2-1.2-1.09-.35-1.29A5.4,5.4,0,0,0,25.29,100.29Z" transform="translate(0.8)"/><path id="_Tracé_101" data-name="&lt;Tracé&gt;" class="cls-6" d="M32.51,98.26,31,99.19A.67.67,0,0,1,30.27,98l1.56-.92A.67.67,0,0,1,32.51,98.26Z" transform="translate(0.8)"/><path id="_Tracé_102" data-name="&lt;Tracé&gt;" class="cls-6" d="M38.22,94.88l-1.56.92A.67.67,0,0,1,36,94.65l1.56-.92A.67.67,0,0,1,38.22,94.88Z" transform="translate(0.8)"/><path id="_Tracé_103" data-name="&lt;Tracé&gt;" class="cls-6" d="M42.15,91.53a.68.68,0,0,1-.23.92l-.35.21a.67.67,0,0,1-.68-1.15l.35-.21A.68.68,0,0,1,42.15,91.53Z" transform="translate(0.8)"/><path id="_Tracé_104" data-name="&lt;Tracé&gt;" class="cls-6" d="M7.55,106.92a.68.68,0,0,1-.23.92l-.86.51a.67.67,0,1,1-.68-1.15l.86-.51A.68.68,0,0,1,7.55,106.92Z" transform="translate(0.8)"/><path id="_Tracé_105" data-name="&lt;Tracé&gt;" class="cls-6" d="M12.78,104.83l-1.38.82a.67.67,0,0,1-.68-1.15l1.38-.82A.67.67,0,0,1,12.78,104.83Z" transform="translate(0.8)"/><path id="_Tracé_106" data-name="&lt;Tracé&gt;" class="cls-6" d="M18,102.2l-1.21.72a.67.67,0,0,1-.68-1.15l1.21-.72A.67.67,0,0,1,18,102.2Z" transform="translate(0.8)"/><path id="_Tracé_107" data-name="&lt;Tracé&gt;" class="cls-6" d="M22.32,99.63l-1.21.72a.67.67,0,0,1-.68-1.15l1.21-.72A.67.67,0,0,1,22.32,99.63Z" transform="translate(0.8)"/><path id="_Tracé_108" data-name="&lt;Tracé&gt;" class="cls-6" d="M27.83,95.5a.67.67,0,0,1,.68,1.15l-1.38.82a.61.61,0,0,1-.64,0,.61.61,0,0,1-.55-.32.68.68,0,0,1,.75-1Z" transform="translate(0.8)"/><path id="_Tracé_109" data-name="&lt;Tracé&gt;" class="cls-6" d="M33.42,93a.68.68,0,0,1-.23.92l-.69.41a.67.67,0,1,1-.68-1.15l.69-.41A.68.68,0,0,1,33.42,93Z" transform="translate(0.8)"/><path id="_Tracé_110" data-name="&lt;Tracé&gt;" class="cls-6" d="M37.64,90.23a.68.68,0,0,1-.23.92l-.25.16-.14.12-.1.11,0,0a.68.68,0,0,1-.91.26.67.67,0,0,1-.26-.91,3.09,3.09,0,0,1,1-.94A.68.68,0,0,1,37.64,90.23Z" transform="translate(0.8)"/><path id="_Tracé_111" data-name="&lt;Tracé&gt;" class="cls-6" d="M41.75,88.49a.68.68,0,0,1-.23.92l-.52.31a.67.67,0,0,1-.68-1.15l.52-.31A.68.68,0,0,1,41.75,88.49Z" transform="translate(0.8)"/><path id="_Tracé_112" data-name="&lt;Tracé&gt;" class="cls-6" d="M14.74,129.66l-1.21.72a.67.67,0,0,1-.68-1.15l1.21-.72A.67.67,0,0,1,14.74,129.66Z" transform="translate(0.8)"/><path id="_Tracé_113" data-name="&lt;Tracé&gt;" class="cls-6" d="M22,141.33a.68.68,0,0,1-.23.92l-1,.62a.67.67,0,1,1-.68-1.15l1-.62A.68.68,0,0,1,22,141.33Z" transform="translate(0.8)"/><path id="_Tracé_114" data-name="&lt;Tracé&gt;" class="cls-6" d="M13.52,125.67l-1.21.72a.67.67,0,0,1-.68-1.15l1.21-.72A.67.67,0,0,1,13.52,125.67Z" transform="translate(0.8)"/><path id="_Tracé_115" data-name="&lt;Tracé&gt;" class="cls-6" d="M18.33,134l-1.38.82a.67.67,0,0,1-.68-1.15l1.38-.82A.67.67,0,0,1,18.33,134Z" transform="translate(0.8)"/><path id="_Tracé_116" data-name="&lt;Tracé&gt;" class="cls-6" d="M25.44,143.1a6.66,6.66,0,0,1-1.6,1.21.67.67,0,0,1-.68-1.15,5.4,5.4,0,0,0,1.31-1C25.05,141.52,26,142.46,25.44,143.1Z" transform="translate(0.8)"/><path id="_Tracé_117" data-name="&lt;Tracé&gt;" class="cls-6" d="M17,131.18l-1.9,1.13a.67.67,0,0,1-.68-1.15L16.3,130A.67.67,0,0,1,17,131.18Z" transform="translate(0.8)"/><path id="_Tracé_118" data-name="&lt;Tracé&gt;" class="cls-6" d="M11,119.13l-2.59,1.54a.67.67,0,0,1-.68-1.15L10.32,118A.67.67,0,0,1,11,119.13Z" transform="translate(0.8)"/><path id="_Tracé_119" data-name="&lt;Tracé&gt;" class="cls-6" d="M7.34,116.39l-1.21.72A.67.67,0,0,1,5.45,116l1.21-.72A.67.67,0,0,1,7.34,116.39Z" transform="translate(0.8)"/><path id="_Tracé_120" data-name="&lt;Tracé&gt;" class="cls-6" d="M25.18,146.13a.68.68,0,0,1-.23.92l-1,.62a.67.67,0,0,1-.68-1.15l1-.62A.68.68,0,0,1,25.18,146.13Z" transform="translate(0.8)"/><path id="_Tracé_121" data-name="&lt;Tracé&gt;" class="cls-6" d="M20.64,136.26a.68.68,0,0,1-.23.92l-1,.62a.67.67,0,0,1-.68-1.15l1-.62A.68.68,0,0,1,20.64,136.26Z" transform="translate(0.8)"/><path id="_Tracé_122" data-name="&lt;Tracé&gt;" class="cls-6" d="M4.27,113.19,2.88,114a.67.67,0,0,1-.68-1.15L3.58,112A.67.67,0,0,1,4.27,113.19Z" transform="translate(0.8)"/><path id="_Tracé_123" data-name="&lt;Tracé&gt;" class="cls-6" d="M2.18,110.45,1,111.17A.67.67,0,0,1,.28,110l1.21-.72A.67.67,0,0,1,2.18,110.45Z" transform="translate(0.8)"/><path id="_Tracé_124" data-name="&lt;Tracé&gt;" class="cls-6" d="M53.18,118a.73.73,0,0,1-.25,1l-.56.33a.73.73,0,0,1-.74-1.25l.56-.33A.73.73,0,0,1,53.18,118Z" transform="translate(0.8)"/><path id="_Tracé_125" data-name="&lt;Tracé&gt;" class="cls-6" d="M55.68,120.76l-1.21.72a.67.67,0,0,1-.68-1.15l1.21-.72A.67.67,0,0,1,55.68,120.76Z" transform="translate(0.8)"/><path id="_Tracé_126" data-name="&lt;Tracé&gt;" class="cls-6" d="M58.75,117.93a.68.68,0,0,1-.23.92l-.52.31a.67.67,0,1,1-.68-1.15l.52-.31A.68.68,0,0,1,58.75,117.93Z" transform="translate(0.8)"/><path id="_Tracé_127" data-name="&lt;Tracé&gt;" class="cls-6" d="M56.36,116.39l-1.73,1a.67.67,0,0,1-.68-1.15l1.73-1A.67.67,0,0,1,56.36,116.39Z" transform="translate(0.8)"/><path id="_Tracé_128" data-name="&lt;Tracé&gt;" class="cls-6" d="M56.19,112.43a.68.68,0,0,1-.23.92l-.86.51a.67.67,0,1,1-.68-1.15l.86-.51A.68.68,0,0,1,56.19,112.43Z" transform="translate(0.8)"/><path id="_Tracé_129" data-name="&lt;Tracé&gt;" class="cls-6" d="M51.18,115.41a.68.68,0,0,1-.23.92l-1,.62a.67.67,0,1,1-.68-1.15l1-.62A.68.68,0,0,1,51.18,115.41Z" transform="translate(0.8)"/><path id="_Tracé_130" data-name="&lt;Tracé&gt;" class="cls-6" d="M50.68,112.74l-1.56.92a.67.67,0,0,1-.68-1.15l1.56-.92A.67.67,0,0,1,50.68,112.74Z" transform="translate(0.8)"/><path id="_Tracé_131" data-name="&lt;Tracé&gt;" class="cls-6" d="M53.55,109.55a.68.68,0,0,1-.23.92l-.52.31a.67.67,0,0,1-.68-1.15l.52-.31A.68.68,0,0,1,53.55,109.55Z" transform="translate(0.8)"/><path id="_Tracé_132" data-name="&lt;Tracé&gt;" class="cls-6" d="M52,107.5l-1.38.82a.67.67,0,0,1-.68-1.15l1.38-.82A.67.67,0,0,1,52,107.5Z" transform="translate(0.8)"/><path id="_Tracé_133" data-name="&lt;Tracé&gt;" class="cls-6" d="M47.07,110.2l-1.38.82a.67.67,0,0,1-.68-1.15l1.38-.82A.67.67,0,0,1,47.07,110.2Z" transform="translate(0.8)"/><path id="_Tracé_134" data-name="&lt;Tracé&gt;" class="cls-6" d="M47.36,105a.68.68,0,0,1-.23.92c-.36.2-.8.26-1.14.44a.67.67,0,1,1-.68-1.15c.36-.2.8-.26,1.14-.44A.68.68,0,0,1,47.36,105Z" transform="translate(0.8)"/><path id="_Tracé_135" data-name="&lt;Tracé&gt;" class="cls-6" d="M50,103.22a.68.68,0,0,1-.23.92l-.35.21a.67.67,0,1,1-.68-1.15l.35-.21A.68.68,0,0,1,50,103.22Z" transform="translate(0.8)"/><path id="_Tracé_136" data-name="&lt;Tracé&gt;" class="cls-6" d="M48.39,100.46a.68.68,0,0,1-.23.92l-1,.62a.67.67,0,1,1-.68-1.15l1-.62A.68.68,0,0,1,48.39,100.46Z" transform="translate(0.8)"/><path id="_Tracé_137" data-name="&lt;Tracé&gt;" class="cls-6" d="M43.9,103.67l-1.56.92a.67.67,0,0,1-.68-1.15l1.56-.92A.67.67,0,0,1,43.9,103.67Z" transform="translate(0.8)"/><path id="_Tracé_138" data-name="&lt;Tracé&gt;" class="cls-6" d="M41.88,100.65l-1.38.82a.67.67,0,0,1-.68-1.15l1.38-.82A.67.67,0,0,1,41.88,100.65Z" transform="translate(0.8)"/><path id="_Tracé_139" data-name="&lt;Tracé&gt;" class="cls-6" d="M46.26,97.27a.68.68,0,0,1-.23.92l-.69.41a.67.67,0,0,1-.68-1.15l.69-.41A.68.68,0,0,1,46.26,97.27Z" transform="translate(0.8)"/><path id="_Tracé_140" data-name="&lt;Tracé&gt;" class="cls-6" d="M44.12,93.79a.67.67,0,0,1,.68,1.15,4.6,4.6,0,0,1-1.82.74A.67.67,0,0,1,42.3,95a.69.69,0,0,1,.67-.68A3.24,3.24,0,0,0,44.12,93.79Z" transform="translate(0.8)"/><path id="_Tracé_141" data-name="&lt;Tracé&gt;" class="cls-6" d="M40.48,97.51l-1.56.92a.67.67,0,0,1-.68-1.15l1.56-.92A.67.67,0,0,1,40.48,97.51Z" transform="translate(0.8)"/><path id="_Tracé_142" data-name="&lt;Tracé&gt;" class="cls-6" d="M121.28,70.12l-.1-.14Z" transform="translate(0.8)"/><polygon id="_Tracé_143" data-name="&lt;Tracé&gt;" class="cls-8" points="96.95 142.92 88.49 24.2 105.12 11.07 164.04 8.73 172.79 138.83 96.95 142.92"/><polygon id="_Tracé_144" data-name="&lt;Tracé&gt;" class="cls-9" points="88.49 24.2 103.69 21.52 104.7 11.21 88.49 24.2"/><path id="_Tracé_145" data-name="&lt;Tracé&gt;" class="cls-2" d="M100.27,74.82c5.46-.45,10.31-4.19,15.85-4.53,3.52-.22,8.06.17,4.91,4.69-1.68,2.41-5.29,3.7-7.79,5A70.92,70.92,0,0,0,94.31,94.44c-3.45,3.69-7.13,7.21-11.73,9.41-4.44,2.12-5.38-3.14-5.49-7.91-.06-2.44.1-4.74.13-5.87.11-5.48,3.18-21.6,7.72-17C90.17,78.28,95.11,75.24,100.27,74.82Z" transform="translate(0.8)"/><path id="_Tracé_146" data-name="&lt;Tracé&gt;" class="cls-6" d="M87.86,68.51c2.9,3,.44,7.88,6.16,7.36,4.92-.45,9.17-2.23,13.7-4.13,2.62-1.1,11.5-4.17,13.57-1l.66.66c-1.55-1.66-6.4-.3-8.3.18a60.71,60.71,0,0,0-9.92,3.8c-3.43,1.54-7.48,3.42-11.33,3-2.26-.22-3.63-.88-4.66-2.88C87.24,74.64,85.38,65.93,87.86,68.51Z" transform="translate(0.8)"/><path id="_Tracé_147" data-name="&lt;Tracé&gt;" class="cls-6" d="M114.15,80.45c-1.55.88-3.08,1.72-4.58,2.58a45.34,45.34,0,0,0-8.15,5.66c-2.49,2.28-4,5.41-6.45,7.61-4.51,4-8.15,8.91-12.36,13.2-2.61,2.66-4.41,5.47-7.69,7.45a26,26,0,0,1-6,2.67c-2.54.75-4.84.09-7.34.77a11.64,11.64,0,0,1-.84-2.31c2.48-1,6.11-.9,8.8-1.46a17.25,17.25,0,0,0,6.07-2.78c6.29-4,10.7-10.3,15.57-15.82,3.73-4.24,6.54-9.27,11.14-12.7,2.54-1.9,23.05-9.42,19-15.18C124.47,74.47,117.34,78.64,114.15,80.45Z" transform="translate(0.8)"/></g><g id="_Groupe_3" data-name="&lt;Groupe&gt;"><path id="_Tracé_148" data-name="&lt;Tracé&gt;" class="cls-10" d="M97.49,30.86h9.58c2.86,0,2.87-4.45,0-4.45H97.49c-2.86,0-2.87,4.45,0,4.45Z" transform="translate(0.8)"/></g><g id="_Groupe_4" data-name="&lt;Groupe&gt;"><path id="_Tracé_149" data-name="&lt;Tracé&gt;" class="cls-9" d="M99.67,47.86c17.88-2.16,36-1.36,53.81-3.95,2.82-.41,1.62-4.7-1.18-4.29-17.44,2.53-35.15,1.68-52.63,3.79-2.81.34-2.84,4.79,0,4.45Z" transform="translate(0.8)"/></g><g id="_Groupe_5" data-name="&lt;Groupe&gt;"><path id="_Tracé_150" data-name="&lt;Tracé&gt;" class="cls-9" d="M99.38,57.68a145.52,145.52,0,0,1,27.46,0c2.85.26,2.83-4.19,0-4.45a145.52,145.52,0,0,0-27.46,0c-2.83.27-2.85,4.73,0,4.45Z" transform="translate(0.8)"/></g><g id="_Groupe_6" data-name="&lt;Groupe&gt;"><path id="_Tracé_151" data-name="&lt;Tracé&gt;" class="cls-9" d="M106.39,69.19c7.49-.43,14.88-1.77,22.35-2.41a135.69,135.69,0,0,1,22.33,0c2.86.23,2.84-4.23,0-4.45a134.68,134.68,0,0,0-22.33,0c-7.47.65-14.86,2-22.35,2.41-2.85.16-2.87,4.62,0,4.45Z" transform="translate(0.8)"/></g><g id="_Groupe_7" data-name="&lt;Groupe&gt;"><path id="_Tracé_152" data-name="&lt;Tracé&gt;" class="cls-9" d="M102.63,99.34l30.81.08a49.84,49.84,0,0,0,11.78-.86c5.32-1.27,10-2.34,15.56-2.44,2.86,0,2.87-4.5,0-4.45-9.37.16-18,3.33-27.34,3.3l-30.81-.08c-2.86,0-2.87,4.44,0,4.45Z" transform="translate(0.8)"/></g><g id="_Groupe_8" data-name="&lt;Groupe&gt;"><path id="_Tracé_153" data-name="&lt;Tracé&gt;" class="cls-9" d="M103.16,112.47q28.86-.84,57.64-3.34c2.83-.25,2.86-4.7,0-4.45Q132,107.18,103.16,108c-2.86.08-2.87,4.53,0,4.45Z" transform="translate(0.8)"/></g><g id="_Groupe_9" data-name="&lt;Groupe&gt;"><path id="_Tracé_154" data-name="&lt;Tracé&gt;" class="cls-9" d="M105.89,123.86a459.63,459.63,0,0,1,53.83-4.09c2.86-.05,2.87-4.5,0-4.45a469.59,469.59,0,0,0-55,4.25c-2.83.38-1.62,4.67,1.18,4.29Z" transform="translate(0.8)"/></g><g id="_Groupe_10" data-name="&lt;Groupe&gt;"><path id="_Tracé_155" data-name="&lt;Tracé&gt;" class="cls-9" d="M149.53,131.39a17.64,17.64,0,0,1,6.95-1.9c2.85-.18,2.87-4.63,0-4.45a23.17,23.17,0,0,0-9.19,2.51c-2.55,1.3-.3,5.14,2.25,3.84Z" transform="translate(0.8)"/></g></svg>