<svg xmlns="http://www.w3.org/2000/svg" xmlns:xlink="http://www.w3.org/1999/xlink" width="80" height="80" viewBox="0 0 80 80">
    <defs>
        <circle id="a" cx="40" cy="40" r="40"/>
        <path id="c" d="M.25.517h73.448v88.329H.25z"/>
        <path id="e" d="M14.356 19.624a2.678 2.678 0 0 1-3.812 0L0 9.134v12.62a1.677 1.677 0 0 0 1.667 1.683H25V9.136L14.356 19.624zm-3.034-1.573c.65.653 1.7.654 2.353.004l8.392-8.393c.316-.316.433-.751.433-1.2V3.245c0-.93-.746-1.683-1.667-1.683H4.16c-.441 0-.864.178-1.176.494a1.685 1.685 0 0 0-.484 1.19v5.216c0 .447.161.887.475 1.202l8.347 8.387zM10 5.88c0-.495.209-.843.7-.935.01-.002.019-.011.028-.017H14.2c.013.01.027.019.042.025.439.118.658.387.66.841.004 1.289.001 2.577.002 3.865v.216h2.43c-.055.062-.086.101-.12.135l-3.844 3.873c-.578.578-1.264.574-1.84-.005a886.177 886.177 0 0 1-3.82-3.848c-.04-.04-.077-.088-.143-.163H10v-.458V5.88z"/>
    </defs>
    <g fill="none" fill-rule="evenodd">
        <mask id="b" fill="#fff">
            <use xlink:href="#a"/>
        </mask>
        <use fill="#FFF" fill-rule="nonzero" xlink:href="#a"/>
        <g mask="url(#b)">
            <path fill="#1D1D1B" d="M20.757 17.61c.1.723.796 1.224 1.55 1.119l8.165-1.144c.758-.106 1.288-.777 1.187-1.502l-.109-.772c-.1-.727-.796-1.229-1.553-1.121l-8.164 1.143c-.757.104-1.287.776-1.185 1.505l.109.771z"/>
            <g transform="rotate(20 8.679 62.009)">
                <mask id="d" fill="#fff">
                    <use xlink:href="#c"/>
                </mask>
                <path fill="#333" d="M32.796 85.24c1.785 3.36 6.043 4.593 9.512 2.75l27.557-14.632c3.47-1.84 4.833-6.06 3.048-9.419L41.153 4.126C39.364.764 35.106-.47 31.64 1.37L4.08 16.003C.614 17.847-.75 22.065 1.036 25.43l31.76 59.811z" mask="url(#d)"/>
            </g>
            <path fill="#4BB4E7" d="M45.784 22.124h-.006l-27.043 3.787 8.437 60.285 9.682-1.357h.006l25.809-3.613-8.442-60.283z"/>
            <g transform="rotate(-8 281.676 -167.766)">
                <mask id="f" fill="#fff">
                    <use xlink:href="#e"/>
                </mask>
                <g fill="#FFF" mask="url(#f)">
                    <path d="M0 0h25v25H0z"/>
                </g>
            </g>
            <path fill="#1D1D1B" d="M39.563 19.33a.677.677 0 0 1-.573.762l-5.19.727a.669.669 0 0 1-.756-.575.667.667 0 0 1 .569-.76l5.189-.728c.365-.05.71.207.761.574M31.35 20.52a.886.886 0 0 1-1.752.244.885.885 0 1 1 1.753-.243"/>
            <path fill="#FF7900" d="M-2.617 25.661a.477.477 0 0 1-.314-.434A24.679 24.679 0 0 1 6.722 4.95a.477.477 0 1 1 .58.76 23.72 23.72 0 0 0-9.279 19.488.477.477 0 0 1-.64.462M2.953 25.5a.477.477 0 0 1-.314-.434 19.097 19.097 0 0 1 7.467-15.689.476.476 0 1 1 .58.757 18.141 18.141 0 0 0-7.093 14.904.477.477 0 0 1-.64.462"/>
            <path fill="#FFF" d="M-2.617 25.661a.477.477 0 0 1-.314-.434A24.679 24.679 0 0 1 6.722 4.95a.477.477 0 1 1 .58.76 23.72 23.72 0 0 0-9.279 19.488.477.477 0 0 1-.64.462M8.856 25.33a.477.477 0 0 1-.314-.435 13.178 13.178 0 0 1 5.155-10.825.476.476 0 1 1 .58.757 12.227 12.227 0 0 0-4.781 10.04.477.477 0 0 1-.64.462M2.953 25.5a.477.477 0 0 1-.314-.434 19.097 19.097 0 0 1 7.467-15.689.476.476 0 1 1 .58.757 18.141 18.141 0 0 0-7.093 14.904.477.477 0 0 1-.64.462"/>
        </g>
    </g>
</svg>
