<svg xmlns="http://www.w3.org/2000/svg" xmlns:xlink="http://www.w3.org/1999/xlink" width="80" height="80" viewBox="0 0 80 80">
    <defs>
        <circle id="a" cx="40" cy="40" r="40"/>
        <path id="c" d="M.25.517h73.448v88.329H.25z"/>
        <path id="e" d="M18.828 10.417H8.984V5.556c0-1.918 1.574-3.473 3.516-3.473s3.516 1.555 3.516 3.473v3.472h2.109V5.556C18.125 2.5 15.594 0 12.5 0S6.875 2.5 6.875 5.556v4.86H4.062v12.5c0 1.151.945 2.084 2.11 2.084h14.765V12.5c0-1.15-.944-2.083-2.109-2.083zM8.404 17.825c.27.377.536.757.798 1.14.334.49.064 1.09-.53 1.167-.292.037-.524-.086-.693-.319-.159-.22-.312-.444-.469-.668l-.1-.139c-.2.284-.386.556-.582.823a.757.757 0 0 1-1.035.183c-.259-.166-.468-.63-.185-1.035l.717-1.033c.056-.083.153-.168.152-.252 0-.084-.097-.17-.155-.252-.24-.348-.48-.694-.721-1.04-.328-.47.01-1.021.404-1.122a.757.757 0 0 1 .831.291c.169.236.333.474.499.711.021.031.045.061.075.102l.084-.114c.16-.229.316-.46.482-.685.181-.247.429-.375.742-.322.313.052.52.24.606.542.065.227.009.438-.126.63-.264.378-.525.758-.794 1.131-.07.097-.066.167 0 .26zm5.063 0c.27.377.536.757.797 1.14.335.49.065 1.09-.53 1.167-.292.037-.524-.086-.692-.319-.16-.22-.313-.444-.47-.668-.029-.043-.06-.083-.1-.139-.2.284-.386.556-.582.823a.757.757 0 0 1-1.035.183c-.258-.166-.467-.63-.185-1.035.24-.344.478-.688.717-1.033.056-.083.153-.168.153-.252-.001-.084-.098-.17-.155-.252-.24-.348-.48-.694-.722-1.04-.328-.47.01-1.021.404-1.122a.757.757 0 0 1 .832.291c.168.236.332.474.498.711l.075.102.085-.114c.16-.229.316-.46.481-.685.182-.247.43-.375.743-.322.313.052.52.24.606.542.065.227.008.438-.127.63-.264.378-.524.758-.793 1.131-.07.097-.067.167 0 .26zm5.118 0c.27.377.536.757.798 1.14.335.49.064 1.09-.53 1.167-.292.037-.524-.086-.692-.319-.16-.22-.313-.444-.47-.668l-.1-.139c-.2.284-.386.556-.582.823a.757.757 0 0 1-1.035.183c-.259-.166-.467-.63-.185-1.035.24-.344.478-.688.717-1.033.056-.083.153-.168.152-.252 0-.084-.097-.17-.154-.252-.24-.348-.481-.694-.722-1.04-.328-.47.01-1.021.404-1.122a.757.757 0 0 1 .831.291c.17.236.333.474.5.711.02.031.044.061.074.102l.085-.114c.16-.229.315-.46.48-.685.182-.247.43-.375.743-.322.314.052.52.24.607.542.065.227.008.438-.127.63-.264.378-.524.758-.793 1.131-.07.097-.067.167 0 .26z"/>
    </defs>
    <g fill="none" fill-rule="evenodd">
        <mask id="b" fill="#fff">
            <use xlink:href="#a"/>
        </mask>
        <use fill="#FFF" fill-rule="nonzero" xlink:href="#a"/>
        <g mask="url(#b)">
            <path fill="#1D1D1B" d="M20.757 17.61c.1.723.796 1.224 1.55 1.119l8.165-1.144c.758-.106 1.288-.777 1.187-1.502l-.109-.772c-.1-.727-.796-1.229-1.553-1.121l-8.164 1.143c-.757.104-1.287.776-1.185 1.505l.109.771z"/>
            <g transform="rotate(20 8.679 62.009)">
                <mask id="d" fill="#fff">
                    <use xlink:href="#c"/>
                </mask>
                <path fill="#333" d="M32.796 85.24c1.785 3.36 6.043 4.593 9.512 2.75l27.557-14.632c3.47-1.84 4.833-6.06 3.048-9.419L41.153 4.126C39.364.764 35.106-.47 31.64 1.37L4.08 16.003C.614 17.847-.75 22.065 1.036 25.43l31.76 59.811z" mask="url(#d)"/>
            </g>
            <path fill="#A885D8" d="M45.784 22.124h-.006l-27.043 3.787 8.437 60.285 9.682-1.357h.006l25.809-3.613-8.442-60.283z"/>
            <g transform="rotate(-8 281.676 -167.766)">
                <mask id="f" fill="#fff">
                    <use xlink:href="#e"/>
                </mask>
                <g fill="#FFF" mask="url(#f)">
                    <path d="M0 0h25v25H0z"/>
                </g>
            </g>
            <path fill="#1D1D1B" d="M39.563 19.33a.677.677 0 0 1-.573.762l-5.19.727a.669.669 0 0 1-.756-.575.667.667 0 0 1 .569-.76l5.189-.728c.365-.05.71.207.761.574M31.35 20.52a.886.886 0 0 1-1.752.244.885.885 0 1 1 1.753-.243"/>
            <path fill="#FF7900" d="M-2.617 25.661a.477.477 0 0 1-.314-.434A24.679 24.679 0 0 1 6.722 4.95a.477.477 0 1 1 .58.76 23.72 23.72 0 0 0-9.279 19.488.477.477 0 0 1-.64.462M2.953 25.5a.477.477 0 0 1-.314-.434 19.097 19.097 0 0 1 7.467-15.689.476.476 0 1 1 .58.757 18.141 18.141 0 0 0-7.093 14.904.477.477 0 0 1-.64.462"/>
            <path fill="#FFF" d="M-2.617 25.661a.477.477 0 0 1-.314-.434A24.679 24.679 0 0 1 6.722 4.95a.477.477 0 1 1 .58.76 23.72 23.72 0 0 0-9.279 19.488.477.477 0 0 1-.64.462M8.856 25.33a.477.477 0 0 1-.314-.435 13.178 13.178 0 0 1 5.155-10.825.476.476 0 1 1 .58.757 12.227 12.227 0 0 0-4.781 10.04.477.477 0 0 1-.64.462M2.953 25.5a.477.477 0 0 1-.314-.434 19.097 19.097 0 0 1 7.467-15.689.476.476 0 1 1 .58.757 18.141 18.141 0 0 0-7.093 14.904.477.477 0 0 1-.64.462"/>
        </g>
    </g>
</svg>
