<svg xmlns="http://www.w3.org/2000/svg" xmlns:xlink="http://www.w3.org/1999/xlink" width="80" height="80" viewBox="0 0 80 80">
    <defs>
        <circle id="a" cx="40" cy="40" r="40"/>
        <path id="c" d="M.25.517h73.448v88.329H.25z"/>
        <path id="e" d="M10.006 7.004H2.67c-.891 0-1.614.75-1.614 1.675s.723 1.674 1.614 1.674h3.44l-5.608 5.82a1.718 1.718 0 0 0-.426 1.622c.148.581.586 1.035 1.145 1.19a1.574 1.574 0 0 0 1.563-.443l5.608-5.82v3.57c0 .925.723 1.675 1.614 1.675.891 0 1.614-.75 1.614-1.675V8.679c0-.925-.723-1.675-1.614-1.675zm14.492-.576a1.573 1.573 0 0 0-2.282 0l-5.608 5.82v-3.57c0-.924-.723-1.674-1.614-1.674-.891 0-1.614.75-1.614 1.675v7.613c0 .925.723 1.675 1.614 1.675h7.336c.891 0 1.614-.75 1.614-1.675s-.723-1.675-1.614-1.675h-3.44l5.608-5.82a1.72 1.72 0 0 0 0-2.369z"/>
    </defs>
    <g fill="none" fill-rule="evenodd">
        <mask id="b" fill="#fff">
            <use xlink:href="#a"/>
        </mask>
        <use fill="#FFF" fill-rule="nonzero" xlink:href="#a"/>
        <g mask="url(#b)">
            <path fill="#1D1D1B" d="M20.757 17.61c.1.723.796 1.224 1.55 1.119l8.165-1.144c.758-.106 1.288-.777 1.187-1.502l-.109-.772c-.1-.727-.796-1.229-1.553-1.121l-8.164 1.143c-.757.104-1.287.776-1.185 1.505l.109.771z"/>
            <g transform="rotate(20 8.679 62.009)">
                <mask id="d" fill="#fff">
                    <use xlink:href="#c"/>
                </mask>
                <path fill="#333" d="M32.796 85.24c1.785 3.36 6.043 4.593 9.512 2.75l27.557-14.632c3.47-1.84 4.833-6.06 3.048-9.419L41.153 4.126C39.364.764 35.106-.47 31.64 1.37L4.08 16.003C.614 17.847-.75 22.065 1.036 25.43l31.76 59.811z" mask="url(#d)"/>
            </g>
            <path fill="#FF7900" d="M45.784 22.124h-.006l-27.043 3.787 8.437 60.285 9.682-1.357h.006l25.809-3.613-8.442-60.283z"/>
            <g transform="rotate(-8 281.676 -167.766)">
                <mask id="f" fill="#fff">
                    <use xlink:href="#e"/>
                </mask>
                <g fill="#FFF" mask="url(#f)">
                    <path d="M0 0h25v25H0z"/>
                </g>
            </g>
            <path fill="#1D1D1B" d="M39.563 19.33a.677.677 0 0 1-.573.762l-5.19.727a.669.669 0 0 1-.756-.575.667.667 0 0 1 .569-.76l5.189-.728c.365-.05.71.207.761.574M31.35 20.52a.886.886 0 0 1-1.752.244.885.885 0 1 1 1.753-.243"/>
            <path fill="#FF7900" d="M-2.617 25.661a.477.477 0 0 1-.314-.434A24.679 24.679 0 0 1 6.722 4.95a.477.477 0 1 1 .58.76 23.72 23.72 0 0 0-9.279 19.488.477.477 0 0 1-.64.462M2.953 25.5a.477.477 0 0 1-.314-.434 19.097 19.097 0 0 1 7.467-15.689.476.476 0 1 1 .58.757 18.141 18.141 0 0 0-7.093 14.904.477.477 0 0 1-.64.462"/>
            <path fill="#FFF" d="M-2.617 25.661a.477.477 0 0 1-.314-.434A24.679 24.679 0 0 1 6.722 4.95a.477.477 0 1 1 .58.76 23.72 23.72 0 0 0-9.279 19.488.477.477 0 0 1-.64.462M8.856 25.33a.477.477 0 0 1-.314-.435 13.178 13.178 0 0 1 5.155-10.825.476.476 0 1 1 .58.757 12.227 12.227 0 0 0-4.781 10.04.477.477 0 0 1-.64.462M2.953 25.5a.477.477 0 0 1-.314-.434 19.097 19.097 0 0 1 7.467-15.689.476.476 0 1 1 .58.757 18.141 18.141 0 0 0-7.093 14.904.477.477 0 0 1-.64.462"/>
        </g>
    </g>
</svg>
