<svg id="Calque_1" data-name="Calque 1" xmlns="http://www.w3.org/2000/svg" viewBox="0 0 180 160"><defs><style>.cls-1{fill:#ffe8f7;}.cls-2{fill:#c19372;}.cls-3{fill:#0d1025;}.cls-4{fill:#141819;}.cls-5{fill:#fff;}.cls-6{fill:#9caac1;}.cls-7{fill:#0a6e31;}.cls-8{fill:#6d6e71;}.cls-9{fill:#b5e8f7;}.cls-10{fill:#231f20;}.cls-11{fill:#714e46;}</style></defs><title>Transfert d&amp;apos;argent</title><rect class="cls-1" width="180" height="160"/><g id="_Groupe_" data-name="&lt;Groupe&gt;"><g id="_Groupe_2" data-name="&lt;Groupe&gt;"><path id="_Tracé_" data-name="&lt;Tracé&gt;" class="cls-2" d="M69.36,63.76c-1.18.36-4.78,1.25-5.74.11C62.3,62.31,68.28,60.5,69.41,60c1.86-.81,3.9-1.44,5.71-2.38,1.15-.59,2.64-1.56,2.29-3.09s-2.24-1-3.4-.78a155.36,155.36,0,0,0-16.84,4.7c-3,.93-4.63-1.54-7.61-.71-1.5.42-6.15,4-6.25,3.78-.63-1.22-1.43-2.48-1.33-3.72.21-2.63,2.68-5.2,3.63-7.68.28-.73,2-8.33-.7-7.34-.77.28-1.6,2.14-2.06,2.75a43.76,43.76,0,0,1-3.91,4,30.84,30.84,0,0,0-5.26,7.14,32,32,0,0,0-3.42,9.15c-.66,3.12,2.15,16.83,1.65,20-.45,2.82-6.6,14.32-6.93,18.38-.24,2.93-.52,2.73-.79,5.66a6.92,6.92,0,0,0,.5,2.81c.29,1.31-.26,2.59-.48,3.87-1.16,6.74-3.56,25.51-3.62,27.66h.09c6.58.88,13.2,1.55,19.81,2.1,2.57.22,5.13.27,7.7.32,1.7,0,4.77,1.14,5.33-1.37.32-1.43,2.25-46.75,3.21-50.77.39-1.65,0-4.85.65-6.4S71,77.52,70.88,75.31s-5.53-3.48-3.71-5,10.28-4.11,8.46-7.6C74.92,61.36,70.66,63.37,69.36,63.76Z"/><path id="_Tracé_2" data-name="&lt;Tracé&gt;" class="cls-3" d="M70,29.48,53.34,28.07a5,5,0,0,0-5.72,4.24c-.11.88-1.81,21.05-2.58,30.26-.47,5.57-.85,10.15-.9,10.7-.41,4.64,2.62,5.66,5.36,5.89l14.75,1.25c6.17.52,7.5-1.39,7.85-5.56l3.26-38.33C75.66,33.2,75.46,30,70,29.48Z"/><path id="_Tracé_3" data-name="&lt;Tracé&gt;" class="cls-4" d="M58.6,88.25l-.11.05Z"/><path id="_Tracé_4" data-name="&lt;Tracé&gt;" class="cls-4" d="M58.73,88.17l-.08,0Z"/><path id="_Tracé_5" data-name="&lt;Tracé&gt;" class="cls-5" d="M70.52,64.8l.73-9h0l.29-3.61c.16-2,1-12.17,1.18-14.14.08-1,.09-1.22.18-2.24.24-2.81-1.25-3.2-2.83-3.33l-4.62-.4-8.27-.71L53.54,31c-1.12-.09-3.4-.14-3.6,2.19-.13,1.58-1.18,14-1.32,15.58l-.43,5h0l-.77,9-.14,1.69c-.08,1-.16,1.84-.26,3.08-.09,1-.53,3.41,3.46,3.75,1.59.14,14.93,1.23,16.24,1.35,3.11.29,3.32-2.08,3.37-2.67Z"/><path id="_Tracé_6" data-name="&lt;Tracé&gt;" class="cls-2" d="M72.83,67.35c-.92.85-1.73,4,0,4.4,2.42.6,3.19-1.86,2.8-3.56C75.33,66.85,74.32,66,72.83,67.35Z"/><path id="_Tracé_7" data-name="&lt;Tracé&gt;" class="cls-2" d="M72.46,71.78c-.74.69-1.4,3.21,0,3.55,2,.48,2.58-1.5,2.26-2.88C74.47,71.38,73.65,70.67,72.46,71.78Z"/><path id="_Tracé_8" data-name="&lt;Tracé&gt;" class="cls-6" d="M54.26,59.73l0,0Z"/><path id="_Tracé_9" data-name="&lt;Tracé&gt;" class="cls-7" d="M58.52,107.52c0-1.56-.27-2.43-1-2.93-1-.65-30.86-4.28-33.8-3-2,.83-2.35,4.74-2.7,6.19-1.21,5.07-4.7,30.89-6.45,38.4l42.64,3.62C57,149.76,58.41,112.87,58.52,107.52Z"/><path id="_Tracé_10" data-name="&lt;Tracé&gt;" class="cls-5" d="M90.37,26.5c-1.81.83-3.74,1.38-5.59,2.11-.7.28-.2,1.33.5,1.06,1.85-.73,3.77-1.28,5.59-2.11A.59.59,0,0,0,90.37,26.5Z"/><path id="_Tracé_11" data-name="&lt;Tracé&gt;" class="cls-5" d="M94.58,37.33a23.75,23.75,0,0,0-7.46,1.33c-.71.24-.2,1.3.5,1.06a22,22,0,0,1,6.86-1.22C95.23,38.49,95.33,37.32,94.58,37.33Z"/><path id="_Tracé_12" data-name="&lt;Tracé&gt;" class="cls-5" d="M96.59,46.91c-2.36-.19-4.71.06-7.06.11-.75,0-.85,1.18-.1,1.17,2.36,0,4.71-.29,7.06-.11A.59.59,0,0,0,96.59,46.91Z"/><path id="_Tracé_13" data-name="&lt;Tracé&gt;" class="cls-5" d="M97.08,54.94,91,54.43a.59.59,0,0,0-.1,1.17l6.07.52A.59.59,0,0,0,97.08,54.94Z"/><path id="_Tracé_14" data-name="&lt;Tracé&gt;" class="cls-5" d="M93,65.26a34.45,34.45,0,0,0-4.2-2.06c-.7-.3-1.1.8-.41,1.1a32.24,32.24,0,0,1,3.93,1.92C92.94,66.6,93.62,65.65,93,65.26Z"/><path id="_Tracé_15" data-name="&lt;Tracé&gt;" class="cls-5" d="M91.58,74.55c-1.67-1.21-3.24-2.55-4.91-3.76-.61-.44-1.2.57-.59,1C87.75,73,89.32,74.35,91,75.56,91.6,76,92.19,75,91.58,74.55Z"/><path id="_Tracé_16" data-name="&lt;Tracé&gt;" class="cls-5" d="M85.61,82.74a27.66,27.66,0,0,1-3.82-3.52.59.59,0,0,0-.9.76,29.28,29.28,0,0,0,4,3.73C85.53,84.17,86.2,83.21,85.61,82.74Z"/><path id="_Tracé_17" data-name="&lt;Tracé&gt;" class="cls-5" d="M45.43,83.21a24.08,24.08,0,0,1-3.31,6.4c-.42.63.54,1.3,1,.67a25.18,25.18,0,0,0,3.45-6.67C46.75,82.89,45.65,82.48,45.43,83.21Z"/><path id="_Tracé_18" data-name="&lt;Tracé&gt;" class="cls-5" d="M37.51,81.34c-1.75,1.45-3.87,2.42-5.51,4-.54.52.21,1.42.76.9,1.65-1.58,3.76-2.55,5.51-4A.59.59,0,0,0,37.51,81.34Z"/><path id="_Tracé_19" data-name="&lt;Tracé&gt;" class="cls-5" d="M33.71,73.81c-.91.16-1.76.49-2.65.72-.73.19-.52,1.34.22,1.15.89-.23,1.74-.56,2.65-.72A.59.59,0,0,0,33.71,73.81Z"/><path id="_Tracé_20" data-name="&lt;Tracé&gt;" class="cls-5" d="M33.78,65.32c-3.15-.25-6.29.38-9.44.37-.75,0-.86,1.17-.1,1.17,3.15,0,6.29-.62,9.44-.37A.59.59,0,0,0,33.78,65.32Z"/><path id="_Tracé_21" data-name="&lt;Tracé&gt;" class="cls-5" d="M28.57,56.44a18.27,18.27,0,0,0-3.4-.55.59.59,0,0,0-.1,1.17,16.61,16.61,0,0,1,3.1.48C28.89,57.74,29.3,56.64,28.57,56.44Z"/><path id="_Tracé_22" data-name="&lt;Tracé&gt;" class="cls-5" d="M35,49c-2.85-1-5.81-1.87-8.25-3.7-.61-.45-1.28.51-.67,1,2.52,1.89,5.57,2.83,8.52,3.84A.59.59,0,0,0,35,49Z"/><path id="_Tracé_23" data-name="&lt;Tracé&gt;" class="cls-5" d="M30.68,37.4l-1.34-.82a.6.6,0,0,0-.82.14.59.59,0,0,0,.14.82l1.34.82a.6.6,0,0,0,.82-.14A.59.59,0,0,0,30.68,37.4Z"/><path id="_Tracé_24" data-name="&lt;Tracé&gt;" class="cls-5" d="M37.26,33.19a21.75,21.75,0,0,1-5.48-3c-.58-.48-1.25.48-.67,1a22.88,22.88,0,0,0,5.75,3.13C37.55,34.59,38,33.49,37.26,33.19Z"/><path id="_Tracé_25" data-name="&lt;Tracé&gt;" class="cls-5" d="M47.78,16.16l1.44,4.24c.39,1.14,1.5.76,1.11-.38l-1.44-4.24C48.5,14.64,47.39,15,47.78,16.16Z"/><path id="_Tracé_26" data-name="&lt;Tracé&gt;" class="cls-5" d="M44.14,24.72c-.93-.82-1.93-1.54-2.86-2.36-.57-.5-1.24.46-.67,1,.93.82,1.93,1.54,2.86,2.36C44,26.18,44.7,25.21,44.14,24.72Z"/><path id="_Tracé_27" data-name="&lt;Tracé&gt;" class="cls-5" d="M61.28,19.91a7.06,7.06,0,0,1,.12-4.15.59.59,0,0,0-1.1-.41,8.2,8.2,0,0,0-.17,4.77C60.3,20.86,61.45,20.65,61.28,19.91Z"/><path id="_Tracé_28" data-name="&lt;Tracé&gt;" class="cls-5" d="M70.36,16.65a18.21,18.21,0,0,0-1.22,5.1c-.11,1.17,1.06,1.27,1.17.1a15.11,15.11,0,0,1,1-4.2C71.7,16.63,70.78,15.62,70.36,16.65Z"/><path id="_Tracé_29" data-name="&lt;Tracé&gt;" class="cls-5" d="M82.63,18.66a22.1,22.1,0,0,0-2.95,3.58c-.41.62.49,1.38.9.74a22.09,22.09,0,0,1,2.95-3.58C84.07,18.88,83.16,18.14,82.63,18.66Z"/><path id="_Tracé_30" data-name="&lt;Tracé&gt;" class="cls-5" d="M24.14,102.42a.59.59,0,0,0-.82.14,4.09,4.09,0,0,0-.57,1.66.59.59,0,0,0,1.17.1,2.69,2.69,0,0,1,.36-1.08A.6.6,0,0,0,24.14,102.42Z"/><g id="_Groupe_3" data-name="&lt;Groupe&gt;"><path id="_Tracé_31" data-name="&lt;Tracé&gt;" class="cls-5" d="M23.09,108.16c.05,0,0,0,0,0Z"/><path id="_Tracé_transparent_" data-name="&lt;Tracé transparent&gt;" class="cls-5" d="M23.09,108.16h0a.58.58,0,0,0-.78-.86,1.58,1.58,0,0,0-.44,1.08.59.59,0,1,0,1.17.1v-.12l0-.12,0-.07Z"/></g><path id="_Tracé_32" data-name="&lt;Tracé&gt;" class="cls-5" d="M21.38,112a2.52,2.52,0,0,1-.17.92.6.6,0,0,0,.14.82.59.59,0,0,0,.82-.14,3.57,3.57,0,0,0,.38-1.5A.59.59,0,0,0,21.38,112Z"/><path id="_Tracé_33" data-name="&lt;Tracé&gt;" class="cls-5" d="M20.66,116.59a5.83,5.83,0,0,0-.34,1.71.59.59,0,0,0,1.17.1,4.71,4.71,0,0,1,.27-1.41C22,116.29,20.94,115.89,20.66,116.59Z"/><path id="_Tracé_34" data-name="&lt;Tracé&gt;" class="cls-5" d="M20.17,122.17c-.06.59-.26,1.15-.32,1.74A.59.59,0,0,0,21,124c.06-.59.26-1.15.32-1.74A.59.59,0,0,0,20.17,122.17Z"/><path id="_Tracé_35" data-name="&lt;Tracé&gt;" class="cls-5" d="M19.21,127.2a4,4,0,0,1-.26,1.23c-.29.7.81,1.1,1.1.41a5.06,5.06,0,0,0,.33-1.54A.59.59,0,0,0,19.21,127.2Z"/><path id="_Tracé_36" data-name="&lt;Tracé&gt;" class="cls-5" d="M17.95,131.68a3.17,3.17,0,0,1-.25,1.06c-.29.7.81,1.1,1.1.41a4.5,4.5,0,0,0,.31-1.36A.59.59,0,0,0,17.95,131.68Z"/><path id="_Tracé_37" data-name="&lt;Tracé&gt;" class="cls-5" d="M19.81,134.66l-.12,1.4a.59.59,0,0,0,1.17.1l.12-1.4A.59.59,0,0,0,19.81,134.66Z"/><path id="_Tracé_38" data-name="&lt;Tracé&gt;" class="cls-5" d="M21.32,130.26a3.69,3.69,0,0,0-.6,2,.59.59,0,0,0,1.17.1,2.59,2.59,0,0,1,.39-1.43C22.74,130.33,21.78,129.66,21.32,130.26Z"/><path id="_Tracé_39" data-name="&lt;Tracé&gt;" class="cls-5" d="M23.4,125.64a.59.59,0,0,0-.82.14,3.09,3.09,0,0,0-.37,1.32.59.59,0,1,0,1.17.1,1.75,1.75,0,0,1,.16-.75A.6.6,0,0,0,23.4,125.64Z"/><path id="_Tracé_40" data-name="&lt;Tracé&gt;" class="cls-5" d="M23.1,120.83,23,122.58a.59.59,0,0,0,1.17.1l.15-1.75A.59.59,0,0,0,23.1,120.83Z"/><path id="_Tracé_41" data-name="&lt;Tracé&gt;" class="cls-5" d="M24.85,116.65v0l0-.1c0-.1.07-.19.11-.29a.59.59,0,0,0-1.1-.41,1.6,1.6,0,0,0,0,1.63.58.58,0,0,0,.93-.7S24.85,116.68,24.85,116.65Z"/><path id="_Tracé_42" data-name="&lt;Tracé&gt;" class="cls-5" d="M24.47,110.89l-.1,1.23a.59.59,0,0,0,1.17.1l.1-1.23A.59.59,0,0,0,24.47,110.89Z"/><path id="_Tracé_43" data-name="&lt;Tracé&gt;" class="cls-5" d="M25.43,105.86l-.1,1.23a.59.59,0,0,0,1.17.1l.1-1.23A.59.59,0,0,0,25.43,105.86Z"/><path id="_Tracé_44" data-name="&lt;Tracé&gt;" class="cls-5" d="M26.49,102.36a.59.59,0,0,0-.63.53l0,.53a.59.59,0,0,0,1.17.1l0-.53A.59.59,0,0,0,26.49,102.36Z"/><path id="_Tracé_45" data-name="&lt;Tracé&gt;" class="cls-5" d="M22.32,136.28l-.12,1.4a.59.59,0,0,0,1.17.1l.12-1.4A.59.59,0,0,0,22.32,136.28Z"/><path id="_Tracé_46" data-name="&lt;Tracé&gt;" class="cls-5" d="M23.61,131.45l-.12,1.4a.59.59,0,0,0,1.17.1l.12-1.4A.59.59,0,0,0,23.61,131.45Z"/><path id="_Tracé_47" data-name="&lt;Tracé&gt;" class="cls-5" d="M25.54,126.09a.59.59,0,0,0-.63.53c0,.09,0,.17,0,.25s0,.14,0,.16l0,.12c0,.07,0,.08,0,0a.6.6,0,0,0,.14.82.59.59,0,0,0,.82-.14,2.69,2.69,0,0,0,.35-1.15A.59.59,0,0,0,25.54,126.09Z"/><path id="_Tracé_48" data-name="&lt;Tracé&gt;" class="cls-5" d="M26.54,120.53a.59.59,0,0,0-.63.53l-.07.88A.59.59,0,1,0,27,122l.07-.88A.59.59,0,0,0,26.54,120.53Z"/><path id="_Tracé_49" data-name="&lt;Tracé&gt;" class="cls-5" d="M26.79,114.79l-.15,1.75a.59.59,0,0,0,1.17.1l.15-1.75A.59.59,0,0,0,26.79,114.79Z"/><path id="_Tracé_50" data-name="&lt;Tracé&gt;" class="cls-5" d="M27.6,109.39c0,.21,0,.41-.07.62a2.59,2.59,0,0,1-.12.48.6.6,0,0,0,.14.82.59.59,0,0,0,.82-.14,4.06,4.06,0,0,0,.4-1.67A.59.59,0,0,0,27.6,109.39Z"/><path id="_Tracé_51" data-name="&lt;Tracé&gt;" class="cls-5" d="M28.62,103.66l-.15,1.75a.59.59,0,0,0,1.17.1l.15-1.75A.59.59,0,0,0,28.62,103.66Z"/><path id="_Tracé_52" data-name="&lt;Tracé&gt;" class="cls-5" d="M31.79,102.28a.59.59,0,0,0-.63.53l-.07.88a.59.59,0,0,0,1.17.1l.07-.88A.59.59,0,0,0,31.79,102.28Z"/><path id="_Tracé_53" data-name="&lt;Tracé&gt;" class="cls-5" d="M31.36,107.36a.59.59,0,0,0-.63.53l-.09,1.05a.59.59,0,0,0,1.17.1l.09-1.05A.59.59,0,0,0,31.36,107.36Z"/><path id="_Tracé_54" data-name="&lt;Tracé&gt;" class="cls-5" d="M30.19,112.08,30,113.83a.59.59,0,0,0,1.17.1l.15-1.75A.59.59,0,0,0,30.19,112.08Z"/><path id="_Tracé_55" data-name="&lt;Tracé&gt;" class="cls-5" d="M29.25,116.94c0,.37-.23.8-.28,1.21a.59.59,0,0,0,1.17.1c0-.37.23-.8.28-1.21A.59.59,0,0,0,29.25,116.94Z"/><path id="_Tracé_56" data-name="&lt;Tracé&gt;" class="cls-5" d="M27.92,122.3l-.12,1.4a.59.59,0,0,0,1.17.1l.12-1.4A.59.59,0,0,0,27.92,122.3Z"/><path id="_Tracé_57" data-name="&lt;Tracé&gt;" class="cls-5" d="M27.94,126.82a.59.59,0,0,0-.63.53l-.07.88a.59.59,0,1,0,1.17.1l.07-.88A.59.59,0,0,0,27.94,126.82Z"/><path id="_Tracé_58" data-name="&lt;Tracé&gt;" class="cls-5" d="M27.49,131.45a.59.59,0,0,0-.82.14,3.08,3.08,0,0,0-.37,1.32.59.59,0,1,0,1.17.1,1.74,1.74,0,0,1,.16-.75A.6.6,0,0,0,27.49,131.45Z"/><path id="_Tracé_59" data-name="&lt;Tracé&gt;" class="cls-5" d="M26.22,136.73a.59.59,0,0,0-.63.53l0,.53a.59.59,0,0,0,1.17.1l0-.53A.59.59,0,0,0,26.22,136.73Z"/><path id="_Tracé_60" data-name="&lt;Tracé&gt;" class="cls-5" d="M28.95,135.08c-.08.76-.29,1.5-.37,2.26a.59.59,0,0,0,1.17.1c.08-.76.29-1.5.37-2.26A.59.59,0,0,0,28.95,135.08Z"/><path id="_Tracé_61" data-name="&lt;Tracé&gt;" class="cls-5" d="M30.12,129.54l-.12,1.4a.59.59,0,0,0,1.17.1l.12-1.4A.59.59,0,0,0,30.12,129.54Z"/><path id="_Tracé_62" data-name="&lt;Tracé&gt;" class="cls-5" d="M31.41,123a14,14,0,0,0-.42,2.59.59.59,0,0,0,1.17.1,12.35,12.35,0,0,1,.35-2.28C32.71,122.65,31.61,122.24,31.41,123Z"/><path id="_Tracé_63" data-name="&lt;Tracé&gt;" class="cls-5" d="M32,118.23l-.12,1.4a.59.59,0,0,0,1.17.1l.12-1.4A.59.59,0,0,0,32,118.23Z"/><path id="_Tracé_64" data-name="&lt;Tracé&gt;" class="cls-5" d="M33,112.5l-.18,2.1a.59.59,0,0,0,1.17.1l.18-2.1A.59.59,0,0,0,33,112.5Z"/><path id="_Tracé_65" data-name="&lt;Tracé&gt;" class="cls-5" d="M33.65,106.73l-.13,1.58a.59.59,0,0,0,1.17.1l.13-1.58A.59.59,0,0,0,33.65,106.73Z"/><path id="_Tracé_66" data-name="&lt;Tracé&gt;" class="cls-5" d="M35.06,103.27a.59.59,0,0,0-.63.53l0,.53a.59.59,0,0,0,1.17.1l0-.53A.59.59,0,0,0,35.06,103.27Z"/><path id="_Tracé_67" data-name="&lt;Tracé&gt;" class="cls-5" d="M37.26,103.69l-.12,1.4a.59.59,0,0,0,1.17.1l.12-1.4A.59.59,0,0,0,37.26,103.69Z"/><path id="_Tracé_68" data-name="&lt;Tracé&gt;" class="cls-5" d="M37,108.61,36.9,110a.59.59,0,0,0,1.17.1l.12-1.4A.59.59,0,0,0,37,108.61Z"/><path id="_Tracé_69" data-name="&lt;Tracé&gt;" class="cls-5" d="M36.85,113.3a.59.59,0,0,0-.63.53l-.09,1.05a.59.59,0,1,0,1.17.1l.09-1.05A.59.59,0,0,0,36.85,113.3Z"/><path id="_Tracé_70" data-name="&lt;Tracé&gt;" class="cls-5" d="M35.65,118.74a11.7,11.7,0,0,0-.42,2.59.59.59,0,0,0,1.17.1,10.34,10.34,0,0,1,.35-2.28C37,118.43,35.88,118,35.65,118.74Z"/><path id="_Tracé_71" data-name="&lt;Tracé&gt;" class="cls-5" d="M34.49,125.85l-.1,1.23a.59.59,0,0,0,1.17.1l.1-1.23A.59.59,0,0,0,34.49,125.85Z"/><path id="_Tracé_72" data-name="&lt;Tracé&gt;" class="cls-5" d="M34.49,130.73a.59.59,0,0,0-.63.53l-.09,1.05a.59.59,0,0,0,1.17.1l.09-1.05A.59.59,0,0,0,34.49,130.73Z"/><path id="_Tracé_73" data-name="&lt;Tracé&gt;" class="cls-5" d="M32.91,136.12l-.1,1.23a.59.59,0,0,0,1.17.1l.1-1.23A.59.59,0,0,0,32.91,136.12Z"/><path id="_Tracé_74" data-name="&lt;Tracé&gt;" class="cls-5" d="M36.1,136l-.12,1.4a.59.59,0,0,0,1.17.1l.12-1.4A.59.59,0,0,0,36.1,136Z"/><path id="_Tracé_75" data-name="&lt;Tracé&gt;" class="cls-5" d="M37.09,130.85a5.82,5.82,0,0,0-.34,1.71.59.59,0,0,0,1.17.1,4.72,4.72,0,0,1,.27-1.41C38.47,130.56,37.37,130.16,37.09,130.85Z"/><path id="_Tracé_76" data-name="&lt;Tracé&gt;" class="cls-5" d="M38,124.38l-.16,1.93a.59.59,0,0,0,1.17.1l.16-1.93A.59.59,0,0,0,38,124.38Z"/><path id="_Tracé_77" data-name="&lt;Tracé&gt;" class="cls-5" d="M39.44,118.1a.59.59,0,0,0-.63.53l-.09,1.05a.59.59,0,1,0,1.17.1l.09-1.05A.59.59,0,0,0,39.44,118.1Z"/><path id="_Tracé_78" data-name="&lt;Tracé&gt;" class="cls-5" d="M39.85,112.55l-.1,1.23a.59.59,0,0,0,1.17.1l.1-1.23A.59.59,0,0,0,39.85,112.55Z"/><path id="_Tracé_79" data-name="&lt;Tracé&gt;" class="cls-5" d="M41.5,107a.59.59,0,0,0-1.17-.1c0,.36.1.73.09,1.07a.59.59,0,1,0,1.17.1C41.6,107.76,41.48,107.38,41.5,107Z"/><path id="_Tracé_80" data-name="&lt;Tracé&gt;" class="cls-5" d="M41.38,103.63a.59.59,0,0,0-.63.53l0,.35a.59.59,0,0,0,1.17.1l0-.35A.59.59,0,0,0,41.38,103.63Z"/><path id="_Tracé_81" data-name="&lt;Tracé&gt;" class="cls-5" d="M44.18,103.87a.59.59,0,0,0-.63.53l-.09,1.05a.59.59,0,1,0,1.17.1l.09-1.05A.59.59,0,0,0,44.18,103.87Z"/><path id="_Tracé_82" data-name="&lt;Tracé&gt;" class="cls-5" d="M43.36,108.62l-.13,1.58a.59.59,0,0,0,1.17.1l.13-1.58A.59.59,0,0,0,43.36,108.62Z"/><path id="_Tracé_83" data-name="&lt;Tracé&gt;" class="cls-5" d="M43.08,114.06c-.06.59-.26,1.15-.32,1.74a.59.59,0,0,0,1.17.1c.06-.59.26-1.15.32-1.74A.59.59,0,0,0,43.08,114.06Z"/><path id="_Tracé_84" data-name="&lt;Tracé&gt;" class="cls-5" d="M42.65,119.78a.59.59,0,0,0-.63.53l-.09,1.05a.59.59,0,0,0,1.17.1l.09-1.05A.59.59,0,0,0,42.65,119.78Z"/><path id="_Tracé_85" data-name="&lt;Tracé&gt;" class="cls-5" d="M41.43,125.21l-.12,1.4a.59.59,0,0,0,1.17.1l.12-1.4A.59.59,0,0,0,41.43,125.21Z"/><path id="_Tracé_86" data-name="&lt;Tracé&gt;" class="cls-5" d="M41.45,129.74a.59.59,0,0,0-.63.53l0,.53a.59.59,0,1,0,1.17.1l0-.53A.59.59,0,0,0,41.45,129.74Z"/><path id="_Tracé_87" data-name="&lt;Tracé&gt;" class="cls-5" d="M40.49,134.12l-.12,1.4a.59.59,0,0,0,1.17.1l.12-1.4A.59.59,0,0,0,40.49,134.12Z"/><path id="_Tracé_88" data-name="&lt;Tracé&gt;" class="cls-5" d="M40.74,138.14a.59.59,0,0,0-.63.53l-.06.7a.59.59,0,1,0,1.17.1l.06-.7A.59.59,0,0,0,40.74,138.14Z"/><path id="_Tracé_89" data-name="&lt;Tracé&gt;" class="cls-5" d="M43,138l-.15,1.75a.59.59,0,0,0,1.17.1l.15-1.75A.59.59,0,0,0,43,138Z"/><path id="_Tracé_90" data-name="&lt;Tracé&gt;" class="cls-5" d="M43.76,133l-.16,1.93a.59.59,0,0,0,1.17.1l.16-1.93A.59.59,0,0,0,43.76,133Z"/><path id="_Tracé_91" data-name="&lt;Tracé&gt;" class="cls-5" d="M44.34,126.16l-.22,2.63a.59.59,0,0,0,1.17.1l.22-2.63A.59.59,0,0,0,44.34,126.16Z"/><path id="_Tracé_92" data-name="&lt;Tracé&gt;" class="cls-5" d="M44.8,120.73l-.16,1.93a.59.59,0,0,0,1.17.1l.16-1.93A.59.59,0,0,0,44.8,120.73Z"/><path id="_Tracé_93" data-name="&lt;Tracé&gt;" class="cls-5" d="M46.22,115.15a.59.59,0,0,0-.63.53l-.07.88a.59.59,0,0,0,1.17.1l.07-.88A.59.59,0,0,0,46.22,115.15Z"/><path id="_Tracé_94" data-name="&lt;Tracé&gt;" class="cls-5" d="M46.5,109.06l-.12,1.4a.59.59,0,0,0,1.17.1l.12-1.4A.59.59,0,0,0,46.5,109.06Z"/><path id="_Tracé_95" data-name="&lt;Tracé&gt;" class="cls-5" d="M47.49,104.32a.59.59,0,0,0-.63.53l-.06.7a.59.59,0,0,0,1.17.1L48,105A.59.59,0,0,0,47.49,104.32Z"/><path id="_Tracé_96" data-name="&lt;Tracé&gt;" class="cls-5" d="M51,105.8a2.83,2.83,0,0,1,0-1.11.59.59,0,0,0-1.17-.1A4,4,0,0,0,50,106.3a.59.59,0,0,0,.78.28A.6.6,0,0,0,51,105.8Z"/><path id="_Tracé_97" data-name="&lt;Tracé&gt;" class="cls-5" d="M49.51,109l-.13,1.58a.59.59,0,0,0,1.17.1l.13-1.58A.59.59,0,0,0,49.51,109Z"/><path id="_Tracé_98" data-name="&lt;Tracé&gt;" class="cls-5" d="M48.71,114.19l-.12,1.4a.59.59,0,0,0,1.17.1l.12-1.4A.59.59,0,0,0,48.71,114.19Z"/><path id="_Tracé_99" data-name="&lt;Tracé&gt;" class="cls-5" d="M48.09,119.42l-.12,1.4a.59.59,0,0,0,1.17.1l.12-1.4A.59.59,0,0,0,48.09,119.42Z"/><path id="_Tracé_100" data-name="&lt;Tracé&gt;" class="cls-5" d="M47.53,124l-.12,1.4a.59.59,0,0,0,1.17.1l.12-1.4A.59.59,0,0,0,47.53,124Z"/><path id="_Tracé_101" data-name="&lt;Tracé&gt;" class="cls-5" d="M47.16,128.34l-.1,1.23a.59.59,0,0,0,1.17.1l.1-1.23A.59.59,0,0,0,47.16,128.34Z"/><path id="_Tracé_102" data-name="&lt;Tracé&gt;" class="cls-5" d="M47.71,132.91a.59.59,0,0,0-.63.53L47,134.5a.59.59,0,1,0,1.17.1l.09-1.05A.59.59,0,0,0,47.71,132.91Z"/><path id="_Tracé_103" data-name="&lt;Tracé&gt;" class="cls-5" d="M46.47,138.51l-.13,1.58a.59.59,0,0,0,1.17.1l.13-1.58A.59.59,0,0,0,46.47,138.51Z"/><path id="_Tracé_104" data-name="&lt;Tracé&gt;" class="cls-5" d="M50.23,137.77l-.12,1.4a.59.59,0,0,0,1.17.1l.12-1.4A.59.59,0,0,0,50.23,137.77Z"/><path id="_Tracé_105" data-name="&lt;Tracé&gt;" class="cls-5" d="M51.43,132.7a.59.59,0,0,0-.63.53l-.09,1.05a.59.59,0,0,0,1.17.1l.09-1.05A.59.59,0,0,0,51.43,132.7Z"/><path id="_Tracé_106" data-name="&lt;Tracé&gt;" class="cls-5" d="M51.43,127.82l-.12,1.4a.59.59,0,0,0,1.17.1l.12-1.4A.59.59,0,0,0,51.43,127.82Z"/><path id="_Tracé_107" data-name="&lt;Tracé&gt;" class="cls-5" d="M53.14,123.4a4.72,4.72,0,0,1,0-1.43.59.59,0,0,0-1.17-.1,5.81,5.81,0,0,0,0,1.75C52.15,124.35,53.3,124.14,53.14,123.4Z"/><path id="_Tracé_108" data-name="&lt;Tracé&gt;" class="cls-5" d="M51.95,115.52l-.13,1.58a.59.59,0,0,0,1.17.1l.13-1.58A.59.59,0,0,0,51.95,115.52Z"/><path id="_Tracé_109" data-name="&lt;Tracé&gt;" class="cls-5" d="M52.44,109.74l-.13,1.58a.59.59,0,0,0,1.17.1l.13-1.58A.59.59,0,0,0,52.44,109.74Z"/><path id="_Tracé_110" data-name="&lt;Tracé&gt;" class="cls-5" d="M53.57,105.37a.59.59,0,0,0-.63.53l0,.35a.59.59,0,1,0,1.17.1l0-.35A.59.59,0,0,0,53.57,105.37Z"/><path id="_Tracé_111" data-name="&lt;Tracé&gt;" class="cls-5" d="M18.21,143.55l-.12,1.4a.59.59,0,0,0,1.17.1l.12-1.4A.59.59,0,0,0,18.21,143.55Z"/><path id="_Tracé_112" data-name="&lt;Tracé&gt;" class="cls-5" d="M19.3,138.54a3.69,3.69,0,0,0-.6,2,.59.59,0,0,0,1.17.1,2.59,2.59,0,0,1,.39-1.43C20.71,138.6,19.75,137.93,19.3,138.54Z"/><path id="_Tracé_113" data-name="&lt;Tracé&gt;" class="cls-5" d="M20.57,143.73l-.12,1.4a.59.59,0,0,0,1.17.1l.12-1.4A.59.59,0,0,0,20.57,143.73Z"/><path id="_Tracé_114" data-name="&lt;Tracé&gt;" class="cls-5" d="M21.69,140.69l-.12,1.4a.59.59,0,0,0,1.17.1l.12-1.4A.59.59,0,0,0,21.69,140.69Z"/><path id="_Tracé_115" data-name="&lt;Tracé&gt;" class="cls-5" d="M25.86,140a.59.59,0,0,0-.82.14,3.08,3.08,0,0,0-.37,1.32.59.59,0,1,0,1.17.1,1.75,1.75,0,0,1,.16-.75A.6.6,0,0,0,25.86,140Z"/><path id="_Tracé_116" data-name="&lt;Tracé&gt;" class="cls-5" d="M25.4,143.29a.59.59,0,0,0-.63.53l0,.53a.59.59,0,0,0,1.17.1l0-.53A.59.59,0,0,0,25.4,143.29Z"/><path id="_Tracé_117" data-name="&lt;Tracé&gt;" class="cls-5" d="M27.56,143.42c-.08.76-.29,1.5-.37,2.26a.59.59,0,0,0,1.17.1c.08-.76.29-1.5.37-2.26A.59.59,0,0,0,27.56,143.42Z"/><path id="_Tracé_118" data-name="&lt;Tracé&gt;" class="cls-5" d="M28.4,139.83l-.12,1.4a.59.59,0,0,0,1.17.1l.12-1.4A.59.59,0,0,0,28.4,139.83Z"/><path id="_Tracé_119" data-name="&lt;Tracé&gt;" class="cls-5" d="M32.86,140a.59.59,0,0,0-.63.53l-.09,1.05a.59.59,0,0,0,1.17.1l.09-1.05A.59.59,0,0,0,32.86,140Z"/><path id="_Tracé_120" data-name="&lt;Tracé&gt;" class="cls-5" d="M31.94,143.92l-.1,1.23a.59.59,0,0,0,1.17.1l.1-1.23A.59.59,0,0,0,31.94,143.92Z"/><path id="_Tracé_121" data-name="&lt;Tracé&gt;" class="cls-5" d="M35,144.68l-.12,1.4a.59.59,0,0,0,1.17.1l.12-1.4A.59.59,0,0,0,35,144.68Z"/><path id="_Tracé_122" data-name="&lt;Tracé&gt;" class="cls-5" d="M35.48,139.83a5.82,5.82,0,0,0-.34,1.71.59.59,0,0,0,1.17.1,4.71,4.71,0,0,1,.27-1.41C36.86,139.54,35.76,139.14,35.48,139.83Z"/><path id="_Tracé_123" data-name="&lt;Tracé&gt;" class="cls-5" d="M38.77,144.41l-.12,1.4a.59.59,0,0,0,1.17.1l.12-1.4A.59.59,0,0,0,38.77,144.41Z"/><path id="_Tracé_124" data-name="&lt;Tracé&gt;" class="cls-5" d="M52.93,144.61l-.12,1.4a.59.59,0,0,0,1.17.1l.12-1.4A.59.59,0,0,0,52.93,144.61Z"/><path id="_Tracé_125" data-name="&lt;Tracé&gt;" class="cls-5" d="M53,139.51l-.1,1.23a.59.59,0,0,0,1.17.1l.1-1.23A.59.59,0,0,0,53,139.51Z"/><path id="_Tracé_126" data-name="&lt;Tracé&gt;" class="cls-5" d="M53.38,135.13l-.1,1.23a.59.59,0,0,0,1.17.1l.1-1.23A.59.59,0,0,0,53.38,135.13Z"/><path id="_Tracé_127" data-name="&lt;Tracé&gt;" class="cls-5" d="M54.43,130.39l.1-1.16a.59.59,0,0,0-1.17-.1l-.12,1.4a1,1,0,0,0,.69.82A.59.59,0,0,0,54.43,130.39Z"/><path id="_Tracé_128" data-name="&lt;Tracé&gt;" class="cls-5" d="M54.4,123.87a.59.59,0,0,0-.63.53l-.06.7a.59.59,0,0,0,1.17.1l.06-.7A.59.59,0,0,0,54.4,123.87Z"/><path id="_Tracé_129" data-name="&lt;Tracé&gt;" class="cls-5" d="M54.94,119.51a.59.59,0,0,0-.63.53c0,.09,0,.17,0,.26s0,.14,0,.16l0,.12c0,.07,0,.08,0,0a.6.6,0,0,0,.14.82.59.59,0,0,0,.82-.14,2.7,2.7,0,0,0,.35-1.15A.59.59,0,0,0,54.94,119.51Z"/><circle id="_Tracé_130" data-name="&lt;Tracé&gt;" class="cls-5" cx="57.9" cy="75.21" r="2.12" transform="translate(-21.94 126.54) rotate(-85.15)"/></g><g id="_Groupe_4" data-name="&lt;Groupe&gt;"><path id="_Tracé_131" data-name="&lt;Tracé&gt;" class="cls-8" d="M125,37.28,91.6,35.62A5.43,5.43,0,0,0,86,41.88L93.1,87.41A5.43,5.43,0,0,0,97.88,92l19.64,2.12a5.43,5.43,0,0,0,6-4.63l6.61-46A5.43,5.43,0,0,0,125,37.28Z"/><path id="_Tracé_132" data-name="&lt;Tracé&gt;" class="cls-3" d="M121.74,91.37l6.61-46a5.43,5.43,0,0,0-5.11-6.2L89.86,37.53a5.43,5.43,0,0,0-5.63,6.26l7.14,45.52a5.43,5.43,0,0,0,4.78,4.56L115.78,96A5.43,5.43,0,0,0,121.74,91.37Z"/><g id="_Groupe_5" data-name="&lt;Groupe&gt;"><path id="_Tracé_133" data-name="&lt;Tracé&gt;" class="cls-9" d="M99.24,67.74,92,67.48l.59,3.73c.6.06,1.22.17,1.58.17,1.79,0,3.57,0,5.36.06C99.49,70.2,99.4,69,99.24,67.74Z"/><path id="_Tracé_transparent_2" data-name="&lt;Tracé transparent&gt;" class="cls-10" d="M92.23,71.6,91.52,67l8.1.29,0,.35c.15,1.14.24,2.37.3,3.75l0,.46-.46,0c-1.22-.06-2.47-.06-3.68-.06H94.17a8.14,8.14,0,0,1-.9-.09l-.71-.09Zm.27-3.68L93,70.83l.42.05a7.63,7.63,0,0,0,.8.08h1.66c1.07,0,2.17,0,3.26,0,0-1-.12-2-.23-2.86Z"/></g><g id="_Groupe_6" data-name="&lt;Groupe&gt;"><path id="_Tracé_134" data-name="&lt;Tracé&gt;" class="cls-9" d="M114.73,72.55c1.91.12,3.83.21,5.74.26l.51-4.29-6.07-.22C114.88,69.71,114.81,71.13,114.73,72.55Z"/><path id="_Tracé_transparent_3" data-name="&lt;Tracé transparent&gt;" class="cls-10" d="M114.29,72.94l0-.42c.09-1.57.15-3,.19-4.24v-.42l6.95.25-.61,5.12h-.38c-1.69,0-3.52-.12-5.76-.26Zm1-4.21c0,1.05-.08,2.18-.15,3.42,1.87.11,3.46.18,4.93.22l.41-3.46Z"/></g><g id="_Groupe_7" data-name="&lt;Groupe&gt;"><path id="_Tracé_135" data-name="&lt;Tracé&gt;" class="cls-9" d="M114.08,68.27,106.75,68c0,1.31.16,2.68.3,4l3.5.28c1.11.09,2.22.15,3.33.22C114,71.08,114,69.67,114.08,68.27Z"/><path id="_Tracé_transparent_4" data-name="&lt;Tracé transparent&gt;" class="cls-10" d="M106.67,72.37l-.09-.92a33.55,33.55,0,0,1-.24-3.45v-.43l8.17.29v.42c0,1.26-.1,2.65-.2,4.23l0,.42-.91-.06-2.85-.19-2.94-.23Zm.51-3.93c0,1,.13,2,.23,2.93l0,.23.21,0,2.94.23,2.84.19h.07c.07-1.24.12-2.35.16-3.37Z"/></g><g id="_Groupe_8" data-name="&lt;Groupe&gt;"><path id="_Tracé_136" data-name="&lt;Tracé&gt;" class="cls-9" d="M106.22,71.74c-.07-1.21-.24-2.5-.27-3.76l-5.87-.21c.15,1.23.22,2.48.27,3.73,2,.11,3.92.27,5.88.42Z"/><path id="_Tracé_transparent_5" data-name="&lt;Tracé transparent&gt;" class="cls-10" d="M100,71.89v-.38c-.05-1.44-.14-2.61-.27-3.69l-.06-.49,6.75.24V68c0,.75.08,1.52.15,2.26,0,.5.09,1,.12,1.48l0,.66-.48,0c-2.18-.18-4-.32-5.87-.42Zm.61-3.69c.09.87.16,1.81.2,2.89,1.6.1,3.19.22,5,.36,0-.38-.06-.77-.1-1.16-.06-.63-.11-1.28-.14-1.92Z"/></g><g id="_Groupe_9" data-name="&lt;Groupe&gt;"><path id="_Tracé_137" data-name="&lt;Tracé&gt;" class="cls-9" d="M99.62,77.18c0-1.6,0-3.24-.06-4.88-1,0-2-.08-3-.08s-1.82,0-2.74,0c-.17,0-.62-.06-1.07-.11L93.49,77a28.28,28.28,0,0,0,6.13.84C99.62,77.59,99.62,77.38,99.62,77.18Z"/><path id="_Tracé_transparent_6" data-name="&lt;Tracé transparent&gt;" class="cls-10" d="M94.12,77.56l-.76-.21-.25-.08-.88-5.65.94.11.63.07h2.73c.89,0,1.82,0,3,.08l.39,0v.39c0,1,0,2.07,0,3.09,0,.6,0,1.2,0,1.8v1.07l-1-.07A30.3,30.3,0,0,1,94.12,77.56Zm-.26-.93a26.56,26.56,0,0,0,5.24.71h.09v-.16c0-.6,0-1.2,0-1.8,0-.89,0-1.79,0-2.69-1,0-1.83-.07-2.61-.06H93.8l-.57-.05Z"/></g><g id="_Groupe_10" data-name="&lt;Groupe&gt;"><path id="_Tracé_138" data-name="&lt;Tracé&gt;" class="cls-9" d="M114.37,78.58q2.71,0,5.42,0l.59-4.91c-1.9,0-3.8-.15-5.69-.26C114.58,75.12,114.46,76.85,114.37,78.58Z"/><path id="_Tracé_transparent_7" data-name="&lt;Tracé transparent&gt;" class="cls-10" d="M113.93,79l0-.44c.06-1.18.14-2.37.21-3.56l.13-2.06.42,0c2.29.14,4,.22,5.68.26h.46L120.16,79h-.36c-1.85,0-3.68,0-5.43,0Zm1.15-5.17L115,75.05c-.07,1-.13,2.08-.19,3.11,1.49,0,3,0,4.61,0l.49-4.09C118.49,74,117,73.93,115.07,73.82Z"/></g><g id="_Groupe_11" data-name="&lt;Groupe&gt;"><path id="_Tracé_139" data-name="&lt;Tracé&gt;" class="cls-9" d="M113.83,73.32l-2.09-.13-4.61-.36c0,.14,0,.29,0,.43q.17,2.56.3,5.11l1.2.07c1.62.07,3.24.11,4.86.13C113.61,76.83,113.72,75.08,113.83,73.32Z"/><path id="_Tracé_transparent_8" data-name="&lt;Tracé transparent&gt;" class="cls-10" d="M107.06,78.77l0-.38q-.13-2.55-.3-5.11l-.08-.91,1.15.09,4,.31,1.36.09,1.15.07-.08,1.23c-.09,1.48-.19,3-.26,4.43l0,.4h-.4c-1.79,0-3.38-.07-4.87-.13l-.69,0Zm.52-5.48q.16,2.34.28,4.69H108l.68,0c1.37.06,2.83.1,4.44.13.07-1.34.15-2.69.24-4l0-.39-.31,0-1.37-.09-4-.31Z"/></g><g id="_Groupe_12" data-name="&lt;Groupe&gt;"><path id="_Tracé_140" data-name="&lt;Tracé&gt;" class="cls-9" d="M106.29,72.76c-1.68-.13-3.36-.26-5-.38l-.86,0c0,1.35,0,2.7.06,4,0,.5,0,1,0,1.5l.42,0c1.91.18,3.82.31,5.73.42C106.52,76.47,106.4,74.62,106.29,72.76Z"/><path id="_Tracé_transparent_9" data-name="&lt;Tracé transparent&gt;" class="cls-10" d="M100,78.25l0-3.37c0-.84,0-1.68,0-2.52V71.9l1.32.07c1.68.11,3.37.24,5,.38l.36,0,.06,1c.1,1.64.2,3.28.29,4.92l0,.47-.47,0c-2.22-.13-4-.26-5.75-.42Zm.76-5.46c0,.7,0,1.39,0,2.08l0,2.61h0c1.57.15,3.25.28,5.25.39-.08-1.48-.17-3-.26-4.44l0-.28c-1.56-.12-3.12-.24-4.68-.35Z"/></g><g id="_Groupe_13" data-name="&lt;Groupe&gt;"><path id="_Tracé_141" data-name="&lt;Tracé&gt;" class="cls-9" d="M106.68,79.47c0-.1,0-.21,0-.31-2.07-.12-4.13-.27-6.19-.48q0,2.3.05,4.6l6.28.41Q106.78,81.58,106.68,79.47Z"/><path id="_Tracé_transparent_10" data-name="&lt;Tracé transparent&gt;" class="cls-10" d="M100.11,83.68v-.39q0-2,0-4V78.22l.47,0c2,.19,4,.35,6.17.47l.38,0,0,.69c.06,1.38.11,2.8.13,4.24v.45L104.62,84l-4.12-.27Zm.79-4.53v.15q0,1.8,0,3.6l3.74.25,1.71.11c0-1.25-.06-2.49-.11-3.69C104.37,79.44,102.61,79.31,100.9,79.15Z"/></g><g id="_Groupe_14" data-name="&lt;Groupe&gt;"><path id="_Tracé_142" data-name="&lt;Tracé&gt;" class="cls-9" d="M113.47,79.68c0-.09,0-.18,0-.27-1.86,0-3.72-.08-5.57-.17l-.41,0c0,.35,0,.69.05,1,0,1.17.07,2.33.09,3.5,1.88.12,3.76.23,5.64.31Q113.39,81.87,113.47,79.68Z"/><path id="_Tracé_transparent_11" data-name="&lt;Tracé transparent&gt;" class="cls-10" d="M107.23,84.14v-.39c0-1.16,0-2.32-.09-3.49l-.07-1.5.87.05c1.76.09,3.58.14,5.56.17h.43l0,.7q-.09,2.19-.19,4.38l0,.42-.42,0c-1.64-.07-3.43-.16-5.65-.31Zm.71-4.49,0,.58c0,1,.07,2.08.09,3.12,1.85.12,3.41.2,4.83.26q.09-1.9.16-3.8C111.25,79.79,109.57,79.74,107.94,79.66Z"/></g><g id="_Groupe_15" data-name="&lt;Groupe&gt;"><path id="_Tracé_143" data-name="&lt;Tracé&gt;" class="cls-9" d="M114.28,80.46q-.07,1.81-.16,3.62c1.67.06,3.33.1,5,.09l.57-4.78q-2.68,0-5.36,0C114.31,79.76,114.29,80.11,114.28,80.46Z"/><path id="_Tracé_transparent_12" data-name="&lt;Tracé transparent&gt;" class="cls-10" d="M113.68,84.49l0-.42q.09-1.81.16-3.62l.07-1.45h.4c1.8,0,3.6,0,5.35,0h.48l-.67,5.62h-.37c-1.5,0-3.09,0-5-.09Zm1-4q-.06,1.6-.14,3.2c1.57.05,2.92.07,4.19.07l.47-3.93c-1.48,0-3,0-4.49,0Z"/></g><g id="_Groupe_16" data-name="&lt;Groupe&gt;"><path id="_Tracé_144" data-name="&lt;Tracé&gt;" class="cls-9" d="M99.63,78.61a37.84,37.84,0,0,1-6-.74l.8,5.12c1.75.06,3.5.15,5.24.25C99.66,81.69,99.65,80.15,99.63,78.61Z"/><path id="_Tracé_transparent_13" data-name="&lt;Tracé transparent&gt;" class="cls-10" d="M94.08,83.39l-1-6.1.62.17a24.28,24.28,0,0,0,4.37.6l1.56.13.37,0,0,1.69q0,1.65,0,3.31v.45l-.45,0c-2.11-.12-3.72-.2-5.23-.25Zm.07-5,.65,4.15c1.31,0,2.71.11,4.46.21q0-1.43,0-2.86V79l-1.16-.09A29.06,29.06,0,0,1,94.15,78.42Z"/></g><g id="_Groupe_17" data-name="&lt;Groupe&gt;"><path id="_Tracé_145" data-name="&lt;Tracé&gt;" class="cls-9" d="M99.83,89.08c-.07-1.67-.11-3.33-.14-5-1.71-.1-3.41-.19-5.13-.25l.25,1.62A4.28,4.28,0,0,0,98.6,89l1.26.14A.4.4,0,0,1,99.83,89.08Z"/><path id="_Tracé_transparent_14" data-name="&lt;Tracé transparent&gt;" class="cls-10" d="M98,89.35a4.71,4.71,0,0,1-3.54-3.84l-.33-2.12.51,0c1.88.06,3.73.16,5.14.25l.39,0v.39c0,1.36.06,3.16.14,5l.18.59-.62,0-1.26-.14A4.67,4.67,0,0,1,98,89.35Zm-2.89-5.09.17,1.11a3.87,3.87,0,0,0,3.4,3.24l.76.08c-.06-1.52-.09-3-.11-4.23C98.08,84.4,96.59,84.32,95.06,84.26Z"/></g><g id="_Groupe_18" data-name="&lt;Groupe&gt;"><path id="_Tracé_146" data-name="&lt;Tracé&gt;" class="cls-9" d="M106.81,84.53l-6.27-.41c0,1.64.06,3.29.13,4.93a.39.39,0,0,1,0,.21l6.09.66Q106.82,87.22,106.81,84.53Z"/><path id="_Tracé_transparent_15" data-name="&lt;Tracé transparent&gt;" class="cls-10" d="M100,89.61l.29-.54c-.08-1.75-.11-3.48-.13-4.93v-.45l.45,0,4.12.27,2.54.17v.39c0,1.75,0,3.57-.09,5.4l0,.45Zm1-5c0,1.31.06,2.8.12,4.32l5.23.56c.05-1.53.08-3.05.07-4.52l-1.76-.12Z"/></g><g id="_Groupe_19" data-name="&lt;Groupe&gt;"><path id="_Tracé_147" data-name="&lt;Tracé&gt;" class="cls-9" d="M113.24,84.89c-1.86-.08-3.73-.18-5.59-.3,0,1.81,0,3.61-.1,5.42l5.34.58Q113.1,87.74,113.24,84.89Z"/><path id="_Tracé_transparent_16" data-name="&lt;Tracé transparent&gt;" class="cls-10" d="M107.12,90.38l0-.39c.08-1.92.11-3.69.1-5.4v-.45l.45,0c2.17.14,3.95.24,5.58.3l.42,0,0,.42c-.1,2-.22,3.88-.35,5.7l0,.43Zm1-5.34c0,1.46,0,3-.09,4.6l4.52.49c.11-1.55.21-3.17.3-4.83C111.39,85.23,109.87,85.15,108.07,85Z"/></g><g id="_Groupe_20" data-name="&lt;Groupe&gt;"><path id="_Tracé_148" data-name="&lt;Tracé&gt;" class="cls-9" d="M119,85c-1.65,0-3.3,0-4.94-.09q-.15,2.88-.36,5.75l.36,0a4.28,4.28,0,0,0,4.7-3.65Z"/><path id="_Tracé_transparent_17" data-name="&lt;Tracé transparent&gt;" class="cls-10" d="M113.27,91l0-.4c.14-1.9.26-3.83.36-5.74l0-.41.41,0c1.88.07,3.45.1,4.93.09h.47l-.3,2.52a4.68,4.68,0,0,1-5.16,4Zm1.21-5.69c-.09,1.65-.19,3.3-.31,4.94a3.85,3.85,0,0,0,4.2-3.3l.19-1.57C117.31,85.43,116,85.4,114.47,85.35Z"/></g><path id="_Tracé_149" data-name="&lt;Tracé&gt;" class="cls-4" d="M106.23,91.53l-.08,0Z"/><path id="_Tracé_150" data-name="&lt;Tracé&gt;" class="cls-4" d="M106.4,91.43l0,0Z"/><path id="_Tracé_151" data-name="&lt;Tracé&gt;" class="cls-4" d="M106.47,91.38l-.08.05Z"/><path id="_Tracé_152" data-name="&lt;Tracé&gt;" class="cls-4" d="M106.35,91.46l-.07,0Z"/><path id="_Tracé_153" data-name="&lt;Tracé&gt;" class="cls-4" d="M106.28,91.51l0,0Z"/><path id="_Tracé_154" data-name="&lt;Tracé&gt;" class="cls-4" d="M106.15,91.57l-.05,0Z"/><polygon id="_Tracé_155" data-name="&lt;Tracé&gt;" class="cls-4" points="106.62 91.27 106.62 91.27 106.61 91.27 106.62 91.27"/><path id="_Tracé_156" data-name="&lt;Tracé&gt;" class="cls-4" d="M106.51,91.35l0,0Z"/><path id="_Tracé_157" data-name="&lt;Tracé&gt;" class="cls-4" d="M106.61,91.27l-.11.09Z"/><path id="_Tracé_158" data-name="&lt;Tracé&gt;" class="cls-4" d="M103.32,90.9l0,0Z"/><path id="_Tracé_159" data-name="&lt;Tracé&gt;" class="cls-4" d="M103.28,90.85l0,.05Z"/><path id="_Tracé_160" data-name="&lt;Tracé&gt;" class="cls-4" d="M103.34,90.92l.07.07Z"/><path id="_Tracé_161" data-name="&lt;Tracé&gt;" class="cls-4" d="M106,91.63l0,0Z"/><path id="_Tracé_162" data-name="&lt;Tracé&gt;" class="cls-4" d="M105.69,91.72l.14,0-.14,0Z"/><path id="_Tracé_163" data-name="&lt;Tracé&gt;" class="cls-11" d="M137.43,85.72c-1.24-3.74-2.79-7.36-4.27-11a21.2,21.2,0,0,1-1.61-4.1c.16-3.55-2.67-5.27-4.08-6-2.69-.11-2.63.29-3.37,11.42-.22,3.38-5.78,6.87-8.33,9.17-1.85,1.67-3.65,1.1-4.85-1-1.37-2.34-1.65-6-3.93-7.65-.76-.57-5.22-3.15-5.26-.91,0,1.13,1.21,2.93,1.57,4a51.69,51.69,0,0,1,2.07,6.68c.78,4.49,2.38,8.8,2.85,13.33.77,7.36-1,15.55-3.27,22.64l23.27,10.89c2-4.92-.48-17.06,1.54-21.75.51-1.17,5.54-5.59,9.23-9.07C141.08,99.86,139.25,91.2,137.43,85.72Z"/><path id="_Tracé_164" data-name="&lt;Tracé&gt;" class="cls-9" d="M136.36,121.65c-.1-1.42-.47-2.18-1.25-2.58-1-.51-31.2-1.5-34-.14-1.88.9-2,4.47-2.17,5.81-.78,4.69-2.07,28.32-3.18,35.25h42.92C138.45,160,136.71,126.5,136.36,121.65Z"/><path id="_Tracé_165" data-name="&lt;Tracé&gt;" class="cls-5" d="M103.57,120a.58.58,0,0,0-.79.21,4,4,0,0,0-.43,1.68.58.58,0,0,0,1.16,0,2.66,2.66,0,0,1,.27-1.1A.59.59,0,0,0,103.57,120Z"/><g id="_Groupe_21" data-name="&lt;Groupe&gt;"><path id="_Tracé_166" data-name="&lt;Tracé&gt;" class="cls-5" d="M103,125.71c0-.05,0,0,0,0Z"/><path id="_Tracé_transparent_18" data-name="&lt;Tracé transparent&gt;" class="cls-5" d="M103,125.71h0a.58.58,0,0,0-.84-.78,1.56,1.56,0,0,0-.34,1.1.58.58,0,0,0,1.16,0s0-.08,0-.12,0-.09,0-.12l0-.07Z"/></g><path id="_Tracé_167" data-name="&lt;Tracé&gt;" class="cls-5" d="M101.66,129.67a2.48,2.48,0,0,1-.09.92.59.59,0,0,0,.21.79.58.58,0,0,0,.79-.21,3.53,3.53,0,0,0,.25-1.51A.58.58,0,0,0,101.66,129.67Z"/><path id="_Tracé_168" data-name="&lt;Tracé&gt;" class="cls-5" d="M101.33,134.2a5.76,5.76,0,0,0-.19,1.71.58.58,0,0,0,1.16,0,4.64,4.64,0,0,1,.15-1.41C102.67,133.79,101.55,133.49,101.33,134.2Z"/><path id="_Tracé_169" data-name="&lt;Tracé&gt;" class="cls-5" d="M101.31,139.73c0,.58-.16,1.15-.17,1.74a.58.58,0,0,0,1.16,0c0-.58.16-1.15.17-1.74A.58.58,0,0,0,101.31,139.73Z"/><path id="_Tracé_170" data-name="&lt;Tracé&gt;" class="cls-5" d="M100.79,144.76a3.91,3.91,0,0,1-.15,1.23c-.23.71.89,1,1.12.31a5,5,0,0,0,.19-1.54A.58.58,0,0,0,100.79,144.76Z"/><path id="_Tracé_171" data-name="&lt;Tracé&gt;" class="cls-5" d="M99.92,149.27a3.13,3.13,0,0,1-.15,1.06c-.23.71.89,1,1.12.31a4.46,4.46,0,0,0,.19-1.37A.58.58,0,0,0,99.92,149.27Z"/><path id="_Tracé_172" data-name="&lt;Tracé&gt;" class="cls-5" d="M99.23,153.61v1.21a.58.58,0,0,0,1.16,0v-1.21A.58.58,0,0,0,99.23,153.61Z"/><path id="_Tracé_173" data-name="&lt;Tracé&gt;" class="cls-5" d="M102,152v1.39a.58.58,0,0,0,1.16,0V152A.58.58,0,0,0,102,152Z"/><path id="_Tracé_174" data-name="&lt;Tracé&gt;" class="cls-5" d="M103.12,147.59a3.65,3.65,0,0,0-.43,2,.58.58,0,0,0,1.16,0,2.56,2.56,0,0,1,.27-1.44C104.52,147.54,103.52,147,103.12,147.59Z"/><path id="_Tracé_175" data-name="&lt;Tracé&gt;" class="cls-5" d="M104.78,142.87a.58.58,0,0,0-.79.21,3.05,3.05,0,0,0-.25,1.33.58.58,0,0,0,1.16,0,1.73,1.73,0,0,1,.09-.75A.59.59,0,0,0,104.78,142.87Z"/><path id="_Tracé_176" data-name="&lt;Tracé&gt;" class="cls-5" d="M104.09,138.17v1.73a.58.58,0,0,0,1.16,0v-1.73A.58.58,0,0,0,104.09,138.17Z"/><path id="_Tracé_177" data-name="&lt;Tracé&gt;" class="cls-5" d="M105.46,133.91v0l0-.11c0-.1.05-.2.08-.29a.58.58,0,0,0-1.12-.31,1.58,1.58,0,0,0,.15,1.6.58.58,0,0,0,.86-.76S105.46,133.94,105.46,133.91Z"/><path id="_Tracé_178" data-name="&lt;Tracé&gt;" class="cls-5" d="M104.61,128.28v1.21a.58.58,0,0,0,1.16,0v-1.21A.58.58,0,0,0,104.61,128.28Z"/><path id="_Tracé_179" data-name="&lt;Tracé&gt;" class="cls-5" d="M104.61,153.43v1.39a.58.58,0,0,0,1.16,0v-1.39A.58.58,0,0,0,104.61,153.43Z"/><path id="_Tracé_180" data-name="&lt;Tracé&gt;" class="cls-5" d="M105.47,148.58V150a.58.58,0,0,0,1.16,0v-1.39A.58.58,0,0,0,105.47,148.58Z"/><path id="_Tracé_181" data-name="&lt;Tracé&gt;" class="cls-5" d="M106.92,143.14a.58.58,0,0,0-.58.58c0,.09,0,.17,0,.25s0,.14,0,.16l0,.12c0,.07,0,.08,0,0a.59.59,0,0,0,.21.79.58.58,0,0,0,.79-.21,2.65,2.65,0,0,0,.25-1.16A.58.58,0,0,0,106.92,143.14Z"/><path id="_Tracé_182" data-name="&lt;Tracé&gt;" class="cls-5" d="M107.44,137.59a.58.58,0,0,0-.58.58V139a.58.58,0,1,0,1.16,0v-.87A.58.58,0,0,0,107.44,137.59Z"/><path id="_Tracé_183" data-name="&lt;Tracé&gt;" class="cls-5" d="M107.21,131.92v1.73a.58.58,0,0,0,1.16,0v-1.73A.58.58,0,0,0,107.21,131.92Z"/><path id="_Tracé_184" data-name="&lt;Tracé&gt;" class="cls-5" d="M107.56,126.55c0,.21,0,.41,0,.62a2.58,2.58,0,0,1-.08.48.59.59,0,0,0,.21.79.58.58,0,0,0,.79-.21,4,4,0,0,0,.25-1.68A.58.58,0,0,0,107.56,126.55Z"/><path id="_Tracé_185" data-name="&lt;Tracé&gt;" class="cls-5" d="M110.33,129v1.73a.58.58,0,0,0,1.16,0V129A.58.58,0,0,0,110.33,129Z"/><path id="_Tracé_186" data-name="&lt;Tracé&gt;" class="cls-5" d="M109.81,133.83c0,.36-.16.8-.17,1.21a.58.58,0,0,0,1.16,0c0-.36.16-.8.17-1.21A.58.58,0,0,0,109.81,133.83Z"/><path id="_Tracé_187" data-name="&lt;Tracé&gt;" class="cls-5" d="M108.94,139.21v1.39a.58.58,0,0,0,1.16,0v-1.39A.58.58,0,0,0,108.94,139.21Z"/><path id="_Tracé_188" data-name="&lt;Tracé&gt;" class="cls-5" d="M109.35,143.66a.58.58,0,0,0-.58.58v.87a.58.58,0,1,0,1.16,0v-.87A.58.58,0,0,0,109.35,143.66Z"/><path id="_Tracé_189" data-name="&lt;Tracé&gt;" class="cls-5" d="M109.29,148.25a.58.58,0,0,0-.79.21,3,3,0,0,0-.25,1.33.58.58,0,1,0,1.16,0,1.73,1.73,0,0,1,.09-.75A.59.59,0,0,0,109.29,148.25Z"/><path id="_Tracé_190" data-name="&lt;Tracé&gt;" class="cls-5" d="M108.48,153.55a.58.58,0,0,0-.58.58v.52a.58.58,0,0,0,1.16,0v-.52A.58.58,0,0,0,108.48,153.55Z"/><path id="_Tracé_191" data-name="&lt;Tracé&gt;" class="cls-5" d="M111,151.7c0,.76-.16,1.5-.17,2.26a.58.58,0,0,0,1.16,0c0-.75.16-1.5.17-2.26A.58.58,0,0,0,111,151.7Z"/><path id="_Tracé_192" data-name="&lt;Tracé&gt;" class="cls-5" d="M111.72,146.15v1.39a.58.58,0,0,0,1.16,0v-1.39A.58.58,0,0,0,111.72,146.15Z"/><path id="_Tracé_193" data-name="&lt;Tracé&gt;" class="cls-5" d="M112.43,139.58a13.79,13.79,0,0,0-.19,2.58.58.58,0,0,0,1.16,0,12.19,12.19,0,0,1,.15-2.27C113.69,139.16,112.57,138.84,112.43,139.58Z"/><path id="_Tracé_194" data-name="&lt;Tracé&gt;" class="cls-5" d="M112.59,134.87v1.39a.58.58,0,0,0,1.16,0v-1.39A.58.58,0,0,0,112.59,134.87Z"/><path id="_Tracé_195" data-name="&lt;Tracé&gt;" class="cls-5" d="M113.11,129.15v2.08a.58.58,0,0,0,1.16,0v-2.08A.58.58,0,0,0,113.11,129.15Z"/><path id="_Tracé_196" data-name="&lt;Tracé&gt;" class="cls-5" d="M117,129.61a.58.58,0,0,0-.58.58v1a.58.58,0,1,0,1.16,0v-1A.58.58,0,0,0,117,129.61Z"/><path id="_Tracé_197" data-name="&lt;Tracé&gt;" class="cls-5" d="M116.25,135.07a11.52,11.52,0,0,0-.19,2.58.58.58,0,0,0,1.16,0,10.19,10.19,0,0,1,.15-2.27C117.53,134.65,116.42,134.34,116.25,135.07Z"/><path id="_Tracé_198" data-name="&lt;Tracé&gt;" class="cls-5" d="M115.71,142.16v1.21a.58.58,0,0,0,1.16,0v-1.21A.58.58,0,0,0,115.71,142.16Z"/><path id="_Tracé_199" data-name="&lt;Tracé&gt;" class="cls-5" d="M116.11,147a.58.58,0,0,0-.58.58v1a.58.58,0,0,0,1.16,0v-1A.58.58,0,0,0,116.11,147Z"/><path id="_Tracé_200" data-name="&lt;Tracé&gt;" class="cls-5" d="M115,152.39v1.21a.58.58,0,0,0,1.16,0v-1.21A.58.58,0,0,0,115,152.39Z"/><path id="_Tracé_201" data-name="&lt;Tracé&gt;" class="cls-5" d="M118.14,152v1.39a.58.58,0,0,0,1.16,0V152A.58.58,0,0,0,118.14,152Z"/><path id="_Tracé_202" data-name="&lt;Tracé&gt;" class="cls-5" d="M118.68,146.86a5.75,5.75,0,0,0-.19,1.72.58.58,0,0,0,1.16,0,4.65,4.65,0,0,1,.15-1.41C120,146.46,118.9,146.15,118.68,146.86Z"/><path id="_Tracé_203" data-name="&lt;Tracé&gt;" class="cls-5" d="M119,140.42v1.91a.58.58,0,0,0,1.16,0v-1.91A.58.58,0,0,0,119,140.42Z"/><path id="_Tracé_204" data-name="&lt;Tracé&gt;" class="cls-5" d="M119.93,134.12a.58.58,0,0,0-.58.58v1a.58.58,0,1,0,1.16,0v-1A.58.58,0,0,0,119.93,134.12Z"/><path id="_Tracé_205" data-name="&lt;Tracé&gt;" class="cls-5" d="M119.87,128.63v1.21a.58.58,0,0,0,1.16,0v-1.21A.58.58,0,0,0,119.87,128.63Z"/><path id="_Tracé_206" data-name="&lt;Tracé&gt;" class="cls-5" d="M123.17,129.84c0,.58-.16,1.15-.17,1.73a.58.58,0,0,0,1.16,0c0-.58.16-1.15.17-1.73A.58.58,0,0,0,123.17,129.84Z"/><path id="_Tracé_207" data-name="&lt;Tracé&gt;" class="cls-5" d="M123.23,135.51a.58.58,0,0,0-.58.58v1a.58.58,0,0,0,1.16,0v-1A.58.58,0,0,0,123.23,135.51Z"/><path id="_Tracé_208" data-name="&lt;Tracé&gt;" class="cls-5" d="M122.47,140.95v1.39a.58.58,0,0,0,1.16,0v-1.39A.58.58,0,0,0,122.47,140.95Z"/><path id="_Tracé_209" data-name="&lt;Tracé&gt;" class="cls-5" d="M122.88,145.4a.58.58,0,0,0-.58.58v.52a.58.58,0,0,0,1.16,0V146A.58.58,0,0,0,122.88,145.4Z"/><path id="_Tracé_210" data-name="&lt;Tracé&gt;" class="cls-5" d="M122.3,149.79v1.39a.58.58,0,0,0,1.16,0v-1.39A.58.58,0,0,0,122.3,149.79Z"/><path id="_Tracé_211" data-name="&lt;Tracé&gt;" class="cls-5" d="M122.88,153.72a.58.58,0,0,0-.58.58V155a.58.58,0,0,0,1.16,0v-.69A.58.58,0,0,0,122.88,153.72Z"/><path id="_Tracé_212" data-name="&lt;Tracé&gt;" class="cls-5" d="M124.84,152.18v1.73a.58.58,0,0,0,1.16,0v-1.73A.58.58,0,0,0,124.84,152.18Z"/><path id="_Tracé_213" data-name="&lt;Tracé&gt;" class="cls-5" d="M125.42,148.4v1.91a.58.58,0,0,0,1.16,0V148.4A.58.58,0,0,0,125.42,148.4Z"/><path id="_Tracé_214" data-name="&lt;Tracé&gt;" class="cls-5" d="M125.42,141.64v2.6a.58.58,0,0,0,1.16,0v-2.6A.58.58,0,0,0,125.42,141.64Z"/><path id="_Tracé_215" data-name="&lt;Tracé&gt;" class="cls-5" d="M125.42,136.26v1.91a.58.58,0,0,0,1.16,0v-1.91A.58.58,0,0,0,125.42,136.26Z"/><path id="_Tracé_216" data-name="&lt;Tracé&gt;" class="cls-5" d="M126.35,130.65a.58.58,0,0,0-.58.58v.87a.58.58,0,1,0,1.16,0v-.87A.58.58,0,0,0,126.35,130.65Z"/><path id="_Tracé_217" data-name="&lt;Tracé&gt;" class="cls-5" d="M128.72,129.5v1.39a.58.58,0,0,0,1.16,0V129.5A.58.58,0,0,0,128.72,129.5Z"/><path id="_Tracé_218" data-name="&lt;Tracé&gt;" class="cls-5" d="M128.55,134.7v1.39a.58.58,0,0,0,1.16,0V134.7A.58.58,0,0,0,128.55,134.7Z"/><path id="_Tracé_219" data-name="&lt;Tracé&gt;" class="cls-5" d="M128.37,139.21v1.39a.58.58,0,0,0,1.16,0v-1.39A.58.58,0,0,0,128.37,139.21Z"/><path id="_Tracé_220" data-name="&lt;Tracé&gt;" class="cls-5" d="M128.37,143.55v1.21a.58.58,0,0,0,1.16,0v-1.21A.58.58,0,0,0,128.37,143.55Z"/><path id="_Tracé_221" data-name="&lt;Tracé&gt;" class="cls-5" d="M129.3,148a.58.58,0,0,0-.58.58v1a.58.58,0,0,0,1.16,0v-1A.58.58,0,0,0,129.3,148Z"/><path id="_Tracé_222" data-name="&lt;Tracé&gt;" class="cls-5" d="M128.54,153.61v1.56a.58.58,0,0,0,1.16,0v-1.56A.58.58,0,0,0,128.54,153.61Z"/><path id="_Tracé_223" data-name="&lt;Tracé&gt;" class="cls-5" d="M132.19,152.57V154a.58.58,0,0,0,1.16,0v-1.39A.58.58,0,0,0,132.19,152.57Z"/><path id="_Tracé_224" data-name="&lt;Tracé&gt;" class="cls-5" d="M132.94,147.48a.58.58,0,0,0-.58.58v1a.58.58,0,0,0,1.16,0v-1A.58.58,0,0,0,132.94,147.48Z"/><path id="_Tracé_225" data-name="&lt;Tracé&gt;" class="cls-5" d="M132.54,142.68v1.39a.58.58,0,0,0,1.16,0v-1.39A.58.58,0,0,0,132.54,142.68Z"/><path id="_Tracé_226" data-name="&lt;Tracé&gt;" class="cls-5" d="M133.84,138.19a4.66,4.66,0,0,1-.15-1.41.58.58,0,0,0-1.16,0,5.74,5.74,0,0,0,.19,1.71C132.95,139.21,134.07,138.9,133.84,138.19Z"/><path id="_Tracé_227" data-name="&lt;Tracé&gt;" class="cls-5" d="M132,130.54v1.56a.58.58,0,0,0,1.16,0v-1.56A.58.58,0,0,0,132,130.54Z"/><path id="_Tracé_228" data-name="&lt;Tracé&gt;" class="cls-5" d="M132,124.81v1.56a.58.58,0,0,0,1.16,0v-1.56A.58.58,0,0,0,132,124.81Z"/><path id="_Tracé_229" data-name="&lt;Tracé&gt;" class="cls-5" d="M132.77,120.42a.58.58,0,0,0-.58.58v.35a.58.58,0,1,0,1.16,0V121A.58.58,0,0,0,132.77,120.42Z"/><path id="_Tracé_230" data-name="&lt;Tracé&gt;" class="cls-5" d="M136.58,152.86a.58.58,0,0,0-.58.58v.87a.58.58,0,0,0,1.16,0v-.87A.58.58,0,0,0,136.58,152.86Z"/><path id="_Tracé_231" data-name="&lt;Tracé&gt;" class="cls-5" d="M135.83,148.06v1.39a.58.58,0,0,0,1.16,0v-1.39A.58.58,0,0,0,135.83,148.06Z"/><path id="_Tracé_232" data-name="&lt;Tracé&gt;" class="cls-5" d="M135.48,143v1.21a.58.58,0,0,0,1.16,0V143A.58.58,0,0,0,135.48,143Z"/><path id="_Tracé_233" data-name="&lt;Tracé&gt;" class="cls-5" d="M135.48,138.69v1.21a.58.58,0,0,0,1.16,0v-1.21A.58.58,0,0,0,135.48,138.69Z"/><path id="_Tracé_234" data-name="&lt;Tracé&gt;" class="cls-5" d="M136.12,133.94v-1.15a.58.58,0,0,0-1.16,0v1.39a1,1,0,0,0,.75.75A.59.59,0,0,0,136.12,133.94Z"/><path id="_Tracé_235" data-name="&lt;Tracé&gt;" class="cls-5" d="M135.54,127.53a.58.58,0,0,0-.58.58v.69a.58.58,0,0,0,1.16,0v-.69A.58.58,0,0,0,135.54,127.53Z"/><path id="_Tracé_236" data-name="&lt;Tracé&gt;" class="cls-5" d="M135.72,123.19a.58.58,0,0,0-.58.58c0,.08,0,.17,0,.25s0,.14,0,.16l0,.12c0,.07,0,.08,0,0a.59.59,0,0,0,.21.79.58.58,0,0,0,.79-.21,2.66,2.66,0,0,0,.25-1.16A.58.58,0,0,0,135.72,123.19Z"/><path id="_Tracé_237" data-name="&lt;Tracé&gt;" class="cls-5" d="M135.19,119.38a.58.58,0,0,0-.58.58v.52a.58.58,0,0,0,1.16,0V120A.58.58,0,0,0,135.19,119.38Z"/><path id="_Tracé_238" data-name="&lt;Tracé&gt;" class="cls-5" d="M116.55,157.53v1.21a.58.58,0,0,0,1.16,0v-1.21A.58.58,0,0,0,116.55,157.53Z"/><path id="_Tracé_239" data-name="&lt;Tracé&gt;" class="cls-5" d="M104.71,157.29a.58.58,0,0,0-.58.58v1a.58.58,0,1,0,1.16,0v-1A.58.58,0,0,0,104.71,157.29Z"/><path id="_Tracé_240" data-name="&lt;Tracé&gt;" class="cls-5" d="M120,156.68v1.21a.58.58,0,0,0,1.16,0v-1.21A.58.58,0,0,0,120,156.68Z"/><path id="_Tracé_241" data-name="&lt;Tracé&gt;" class="cls-5" d="M111.72,156.8v1.39a.58.58,0,0,0,1.16,0V156.8A.58.58,0,0,0,111.72,156.8Z"/><path id="_Tracé_242" data-name="&lt;Tracé&gt;" class="cls-5" d="M101.88,155.51a5.74,5.74,0,0,0-.19,1.71.58.58,0,0,0,1.16,0,4.65,4.65,0,0,1,.15-1.41C103.21,155.11,102.1,154.8,101.88,155.51Z"/><path id="_Tracé_243" data-name="&lt;Tracé&gt;" class="cls-5" d="M114.44,156.54v1.91a.58.58,0,0,0,1.16,0v-1.91A.58.58,0,0,0,114.44,156.54Z"/><path id="_Tracé_244" data-name="&lt;Tracé&gt;" class="cls-5" d="M126,155.67v2.6a.58.58,0,0,0,1.16,0v-2.6A.58.58,0,0,0,126,155.67Z"/><path id="_Tracé_245" data-name="&lt;Tracé&gt;" class="cls-5" d="M129.64,157.18v1.21a.58.58,0,0,0,1.16,0v-1.21A.58.58,0,0,0,129.64,157.18Z"/><path id="_Tracé_246" data-name="&lt;Tracé&gt;" class="cls-5" d="M99.74,157a.58.58,0,0,0-.58.58v1a.58.58,0,0,0,1.16,0v-1A.58.58,0,0,0,99.74,157Z"/><path id="_Tracé_247" data-name="&lt;Tracé&gt;" class="cls-5" d="M109.06,156.06a.58.58,0,0,0-.58.58v1a.58.58,0,1,0,1.16,0v-1A.58.58,0,0,0,109.06,156.06Z"/><path id="_Tracé_248" data-name="&lt;Tracé&gt;" class="cls-5" d="M133.37,158v1.39a.58.58,0,0,0,1.16,0V158A.58.58,0,0,0,133.37,158Z"/><path id="_Tracé_249" data-name="&lt;Tracé&gt;" class="cls-5" d="M108.26,123.9a.63.63,0,0,0-.63.63v.57a.63.63,0,0,0,1.26,0v-.57A.63.63,0,0,0,108.26,123.9Z"/><path id="_Tracé_250" data-name="&lt;Tracé&gt;" class="cls-5" d="M105.13,123.25v1.21a.58.58,0,0,0,1.16,0v-1.21A.58.58,0,0,0,105.13,123.25Z"/><path id="_Tracé_251" data-name="&lt;Tracé&gt;" class="cls-5" d="M105.88,119.72a.58.58,0,0,0-.58.58v.52a.58.58,0,1,0,1.16,0v-.52A.58.58,0,0,0,105.88,119.72Z"/><path id="_Tracé_252" data-name="&lt;Tracé&gt;" class="cls-5" d="M108.08,120.82v1.73a.58.58,0,0,0,1.16,0v-1.73A.58.58,0,0,0,108.08,120.82Z"/><path id="_Tracé_253" data-name="&lt;Tracé&gt;" class="cls-5" d="M111.08,119.2a.58.58,0,0,0-.58.58v.87a.58.58,0,1,0,1.16,0v-.87A.58.58,0,0,0,111.08,119.2Z"/><path id="_Tracé_254" data-name="&lt;Tracé&gt;" class="cls-5" d="M111.08,124.23a.58.58,0,0,0-.58.58v1a.58.58,0,1,0,1.16,0v-1A.58.58,0,0,0,111.08,124.23Z"/><path id="_Tracé_255" data-name="&lt;Tracé&gt;" class="cls-5" d="M113.28,123.42V125a.58.58,0,0,0,1.16,0v-1.56A.58.58,0,0,0,113.28,123.42Z"/><path id="_Tracé_256" data-name="&lt;Tracé&gt;" class="cls-5" d="M114.38,119.9a.58.58,0,0,0-.58.58V121a.58.58,0,0,0,1.16,0v-.52A.58.58,0,0,0,114.38,119.9Z"/><path id="_Tracé_257" data-name="&lt;Tracé&gt;" class="cls-5" d="M116.58,120.13v1.39a.58.58,0,0,0,1.16,0v-1.39A.58.58,0,0,0,116.58,120.13Z"/><path id="_Tracé_258" data-name="&lt;Tracé&gt;" class="cls-5" d="M116.75,125v1.39a.58.58,0,0,0,1.16,0V125A.58.58,0,0,0,116.75,125Z"/><path id="_Tracé_259" data-name="&lt;Tracé&gt;" class="cls-5" d="M121,123.08a.58.58,0,1,0-1.16,0c0,.35.16.71.17,1a.58.58,0,0,0,1.16,0C121.19,123.77,121,123.41,121,123.08Z"/><path id="_Tracé_260" data-name="&lt;Tracé&gt;" class="cls-5" d="M120.62,119.72a.58.58,0,0,0-.58.58v.35a.58.58,0,1,0,1.16,0v-.35A.58.58,0,0,0,120.62,119.72Z"/><path id="_Tracé_261" data-name="&lt;Tracé&gt;" class="cls-5" d="M123.4,119.72a.58.58,0,0,0-.58.58v1a.58.58,0,1,0,1.16,0v-1A.58.58,0,0,0,123.4,119.72Z"/><path id="_Tracé_262" data-name="&lt;Tracé&gt;" class="cls-5" d="M123,124.47V126a.58.58,0,0,0,1.16,0v-1.56A.58.58,0,0,0,123,124.47Z"/><path id="_Tracé_263" data-name="&lt;Tracé&gt;" class="cls-5" d="M126.12,124.64V126a.58.58,0,0,0,1.16,0v-1.39A.58.58,0,0,0,126.12,124.64Z"/><path id="_Tracé_264" data-name="&lt;Tracé&gt;" class="cls-5" d="M126.69,119.9a.58.58,0,0,0-.58.58v.69a.58.58,0,1,0,1.16,0v-.69A.58.58,0,0,0,126.69,119.9Z"/><path id="_Tracé_265" data-name="&lt;Tracé&gt;" class="cls-5" d="M130.32,121.05a2.79,2.79,0,0,1-.09-1.1.58.58,0,0,0-1.16,0,4,4,0,0,0,.25,1.68.58.58,0,0,0,.79.21A.59.59,0,0,0,130.32,121.05Z"/><path id="_Tracé_266" data-name="&lt;Tracé&gt;" class="cls-5" d="M129.07,124.29v1.56a.58.58,0,0,0,1.16,0v-1.56A.58.58,0,0,0,129.07,124.29Z"/><polygon id="_Tracé_267" data-name="&lt;Tracé&gt;" class="cls-9" points="92.06 62.62 88.66 43.41 122.27 44.64 120.39 64.3 92.06 62.62"/></g><g id="_Groupe_22" data-name="&lt;Groupe&gt;"><path id="_Tracé_268" data-name="&lt;Tracé&gt;" class="cls-5" d="M71.83,9c3.3-5.75,10.41-7.61,16.57-5.82,6.68,1.94,11.51,7.54,15.29,13.07.39.57,1.33,0,.94-.55C100.27,9.37,94.48,2.91,86.46,1.67,80.37.72,74,3,70.89,8.48a.54.54,0,0,0,.94.55Z"/></g><g id="_Groupe_23" data-name="&lt;Groupe&gt;"><path id="_Tracé_269" data-name="&lt;Tracé&gt;" class="cls-5" d="M107.36,12.39l1,4.91a12.57,12.57,0,0,1,.48,2.45q.45,1.1-.31.69a9.76,9.76,0,0,0-1.1-.27,57.34,57.34,0,0,0-8.8-.68c-.7,0-.7,1.05,0,1.09,2.36.12,4.75.15,7.1.43.94.11,3.11,1.16,4,.5.62-.47.28-1.43.16-2-.47-2.45-1-4.91-1.43-7.36-.13-.68-1.18-.39-1,.29Z"/></g></g></svg>