<svg xmlns="http://www.w3.org/2000/svg" xmlns:xlink="http://www.w3.org/1999/xlink" width="180" height="160" viewBox="0 0 180 160">
    <defs>
        <path id="a" d="M0 0h180v160H0z"/>
        <path id="c" d="M1.181.201h65.39v95.45H1.181z"/>
        <path id="e" d="M0 .333h13.917V14.25H0z"/>
        <path id="g" d="M.338.353h13.916V14.27H.338z"/>
        <path id="i" d="M.127.03h8.035v16.973H.127z"/>
        <path id="j" d="M.076.054H56.87v94.59H.076z"/>
    </defs>
    <g fill="none" fill-rule="evenodd">
        <mask id="b" fill="#fff">
            <use xlink:href="#a"/>
        </mask>
        <use fill="#50BE87" fill-rule="nonzero" xlink:href="#a"/>
        <g mask="url(#b)">
            <path fill="#A78065" d="M13.2 57.697c.469-1.884 7.843-9.212 15.215 10.692 7.367 19.907 4.598 21.87 5.601 30.075 1.001 8.205 23.288 19.191 23.288 19.191s1.297.808-3.212 5.529c-4.504 4.726-9.201 10.988-16.666 26.686-7.869 16.55-26.118 49.791-26.118 49.791h-32.061v-10.9s37.207-63.79 37.219-68.83c.01-5.04.764-9.525 2.14-22.832.853-8.237 1.276-7.452-.698-20.786-1.961-13.236-5.513-15.352-4.708-18.616"/>
            <g transform="translate(18.482 28.8)">
                <mask id="d" fill="#fff">
                    <use xlink:href="#c"/>
                </mask>
                <path fill="#292929" d="M17.583 89.758c.91 4.083 5.077 6.639 9.291 5.697l33.53-7.474c4.22-.939 6.903-5.017 5.989-9.107L50.17 6.099c-.914-4.084-5.073-6.642-9.292-5.704L7.353 7.869C3.128 8.81.445 12.893 1.36 16.986l16.223 72.772z" mask="url(#d)"/>
            </g>
            <path fill="#707070" d="M64.132 112.803a3.981 3.981 0 0 1-3.02 4.74 3.965 3.965 0 0 1-4.728-3.013 3.968 3.968 0 0 1 3.003-4.736 3.978 3.978 0 0 1 4.745 3.009M47.391 37.28a.758.758 0 0 1-.567.89l-5.628 1.252a.749.749 0 0 1-.892-.564.747.747 0 0 1 .567-.881l5.632-1.252a.748.748 0 0 1 .888.556M38.764 39.424a1.118 1.118 0 1 1-2.183.487 1.118 1.118 0 0 1 2.183-.487"/>
            <path fill="#A78065" d="M18.63 97.098c.702-6.487.702-12.475-.7-20.785-2.23-13.193-5.514-15.353-4.706-18.617.468-1.883 7.53-9.09 15.212 10.693 3.559 9.173 3.456 36.415 4.995 45.224.968 5.55-6.078.306-6.218-.113-.143-.418-8.582-16.402-8.582-16.402"/>
            <path fill="#FFF" d="M78.206 103.17L63.624 37.757l-9.165 2.04-9.216 2.053-20.131 4.49 14.584 65.413 8.466-1.887 2.037-.453v.004z"/>
            <g transform="rotate(-10 394.637 -168.793)">
                <mask id="f" fill="#fff">
                    <use xlink:href="#e"/>
                </mask>
                <path fill="#000" d="M12.12.333H3.277a1.796 1.796 0 0 0 0 3.592h4.51l-7.26 7.26a1.796 1.796 0 1 0 2.54 2.539l7.26-7.26v4.51a1.796 1.796 0 1 0 3.59 0V2.129c0-.992-.803-1.796-1.795-1.796" mask="url(#f)"/>
            </g>
            <g transform="rotate(-10 378.377 -255.912)">
                <mask id="h" fill="#fff">
                    <use xlink:href="#g"/>
                </mask>
                <path fill="#F60" d="M2.133 14.27h8.846a1.796 1.796 0 0 0 0-3.592h-4.51l7.26-7.26A1.796 1.796 0 1 0 11.188.88l-7.26 7.26v-4.51a1.796 1.796 0 1 0-3.591 0v8.845c0 .992.803 1.796 1.795 1.796" mask="url(#h)"/>
            </g>
            <path fill="#A78065" d="M78.885 69.358a4.109 4.109 0 0 1-3.083 4.925l-8.51 1.946a4.11 4.11 0 0 1-4.922-3.088 4.107 4.107 0 0 1 3.083-4.92l8.508-1.95a4.11 4.11 0 0 1 4.924 3.087M82.657 86.721a4.111 4.111 0 0 1-3.086 4.926l-9.288 2.126a4.107 4.107 0 0 1-4.925-3.079 4.115 4.115 0 0 1 3.088-4.927l9.289-2.133a4.108 4.108 0 0 1 4.922 3.087M84.182 95.206a4.118 4.118 0 0 1-3.089 4.924l-6.69 1.536a4.106 4.106 0 0 1-4.922-3.083 4.102 4.102 0 0 1 3.086-4.925l6.69-1.54a4.117 4.117 0 0 1 4.925 3.088M81.138 77.953a4.365 4.365 0 0 1-3.276 5.225l-9.86 2.263a4.35 4.35 0 0 1-5.218-3.276 4.352 4.352 0 0 1 3.267-5.224l9.861-2.265a4.367 4.367 0 0 1 5.226 3.277"/>
            <g>
                <g transform="matrix(-1 0 0 1 149.18 53.212)">
                    <mask id="k" fill="#fff">
                        <use xlink:href="#j"/>
                    </mask>
                    <path fill="#292929" d="M48.133 1.83L28.883.948 9.643.064C4.589-.167.307 3.738.076 8.788l2.766 75.084c-.229 5.047 3.678 9.332 8.726 9.565l13.05.598 13.05.598c5.05.232 9.334-3.675 9.563-8.727l9.63-74.512c.227-5.048-3.677-9.332-8.728-9.565" mask="url(#k)"/>
                </g>
                <path fill="#707070" d="M131.028 115.232a3.233 3.233 0 0 0 3.373 3.08l2.387-.111a3.223 3.223 0 0 0 3.074-3.37l-.004-.15a3.233 3.233 0 0 0-3.375-3.075l-2.387.113a3.225 3.225 0 0 0-3.073 3.37l.005.143zM119.03 115.784a3.228 3.228 0 0 0 3.372 3.076l2.388-.11a3.228 3.228 0 0 0 3.076-3.371l-.009-.147a3.228 3.228 0 0 0-3.37-3.075l-2.386.112a3.224 3.224 0 0 0-3.076 3.37l.005.145zM107.031 116.334a3.228 3.228 0 0 0 3.373 3.075l2.387-.109a3.228 3.228 0 0 0 3.076-3.37l-.005-.143a3.226 3.226 0 0 0-3.373-3.078l-2.389.11a3.224 3.224 0 0 0-3.074 3.37l.005.145zM130.937 104.454a3.406 3.406 0 0 0 3.553 3.241l2.513-.115a3.4 3.4 0 0 0 3.24-3.552l-.007-.152a3.396 3.396 0 0 0-3.55-3.243l-2.513.115a3.396 3.396 0 0 0-3.239 3.553l.003.153zM118.3 105.032a3.404 3.404 0 0 0 3.553 3.242l2.513-.114a3.4 3.4 0 0 0 3.24-3.555l-.007-.15a3.4 3.4 0 0 0-3.55-3.243l-2.516.12a3.396 3.396 0 0 0-3.238 3.548l.005.152zM105.663 105.612a3.4 3.4 0 0 0 3.553 3.24l2.514-.117a3.396 3.396 0 0 0 3.24-3.55l-.01-.153a3.4 3.4 0 0 0-3.551-3.24l-2.513.117a3.402 3.402 0 0 0-3.241 3.552l.008.15zM131.163 126.015a3.131 3.131 0 0 0 3.273 2.985l2.317-.109a3.13 3.13 0 0 0 2.982-3.27l-.006-.14a3.13 3.13 0 0 0-3.272-2.984l-2.315.106a3.128 3.128 0 0 0-2.985 3.273l.006.14zM119.523 126.55a3.134 3.134 0 0 0 3.273 2.984l2.314-.11a3.133 3.133 0 0 0 2.985-3.27l-.009-.139a3.128 3.128 0 0 0-3.27-2.987l-2.317.106a3.136 3.136 0 0 0-2.984 3.272l.008.144zM107.883 127.08a3.13 3.13 0 0 0 3.27 2.985l2.317-.106a3.129 3.129 0 0 0 2.982-3.273l-.005-.136a3.132 3.132 0 0 0-3.273-2.987l-2.314.106a3.135 3.135 0 0 0-2.985 3.27l.008.142zM131.176 136.473a2.972 2.972 0 0 0 3.107 2.833l2.2-.097a2.98 2.98 0 0 0 2.837-3.107l-.008-.134a2.979 2.979 0 0 0-3.106-2.84l-2.198.104a2.979 2.979 0 0 0-2.84 3.107l.008.134zM120.115 136.982a2.98 2.98 0 0 0 3.112 2.834l2.198-.101a2.976 2.976 0 0 0 2.834-3.108l-.005-.13a2.976 2.976 0 0 0-3.106-2.838l-2.201.102a2.972 2.972 0 0 0-2.834 3.108l.002.133zM109.06 137.488a2.98 2.98 0 0 0 3.106 2.835l2.202-.101a2.97 2.97 0 0 0 2.833-3.108l-.003-.132a2.976 2.976 0 0 0-3.108-2.837l-2.202.1a2.979 2.979 0 0 0-2.833 3.108l.005.135z"/>
                <path fill="#714E46" d="M147.145 88.894s11.419 12.216 13.955 15.8c1.309 1.843 2.54 5.075 3.782 11.823 2.158 11.744 4.164 24.289 4.805 25.888C170.326 144 202 203.066 202 203.066h-36.732s-15.493-48.87-18.052-52.388c-2.56-3.517-6.512-7.59-9.593-13.747-3.562-7.125-3.987-9.16-9.496-16.288-7.319-9.474-10.018-10.449-9.67-13.549.618-5.605 8.959-2.96 16.178 3.123 6.174 5.2 8.892 8.988 11.414 9.265l1.096-30.588z"/>
                <path fill="#FFF" d="M102.048 64.316l16.43-.75 21.114-.967a1.61 1.61 0 0 1 1.687 1.537l-1.07 29.603a1.611 1.611 0 0 1-1.536 1.683l-7.65.351-24.918 1.143a1.61 1.61 0 0 1-1.684-1.538l-3.916-29.375a1.622 1.622 0 0 1 1.543-1.687"/>
                <g transform="translate(110.378 65.633)">
                    <circle cx="12.291" cy="12.291" r="12.291" fill="#32C832"/>
                    <path fill="#FFF" d="M19.665 7.02c0-.71-.569-1.284-1.271-1.284a1.26 1.26 0 0 0-.87.347l-7.522 7.355-2.478-2.772a1.26 1.26 0 0 0-1.727.067l-.508.514c-.23.232-.373.553-.373.907 0 .304.105.582.28.802h-.001l4.069 5.135a1.264 1.264 0 0 0 1.985 0l8.138-10.27c.174-.22.278-.498.278-.802"/>
                </g>
            </g>
            <path stroke="#333" stroke-dasharray="0,5" stroke-linecap="round" stroke-linejoin="round" stroke-width="2" d="M39.993 28.29c31.855-21.702 57.33-15.811 76.423 17.672"/>
            <path fill="#333" d="M119.485 46.12l-6 2.324 5.087 2.441z"/>
        </g>
    </g>
</svg>
