<svg xmlns="http://www.w3.org/2000/svg" xmlns:xlink="http://www.w3.org/1999/xlink" width="154" height="154" viewBox="0 0 154 154">
    <defs>
        <circle id="a" cx="77" cy="77" r="77"/>
        <path id="c" d="M0 111.65h159.775V0H0z"/>
    </defs>
    <g fill="none" fill-rule="evenodd">
        <mask id="b" fill="#fff">
            <use xlink:href="#a"/>
        </mask>
        <use fill="#FF8AD4" fill-rule="nonzero" xlink:href="#a"/>
        <g mask="url(#b)">
            <g transform="translate(-13.475 32.725)">
                <path fill="#3884A8" d="M154.265 84.7c.214 0 .421.077.584.217l4.608 3.958c.637.548.253 1.6-.585 1.6H22.077c-.942 0-1.252-1.274-.417-1.714l6.599-3.478a5.043 5.043 0 0 1 2.353-.583h123.653z"/>
                <mask id="d" fill="#fff">
                    <use xlink:href="#c"/>
                </mask>
                <path fill="#8470AA" d="M46.2 88.55h9.625v-1.925H46.2z" mask="url(#d)"/>
                <path fill="#595959" d="M123.2 88.55h9.625v-1.925H123.2zM38.5 86.625h3.85v-23.1H38.5zM136.675 86.625h3.85v-23.1h-3.85z" mask="url(#d)"/>
                <path fill="#D6D6D6" d="M140.525 73.15H38.5l4.029-1.925h93.967z" mask="url(#d)"/>
                <path fill="#FFF" d="M113.575 73.15h-53.9l6.69-1.925h42.206z" mask="url(#d)"/>
                <path fill="#D6D6D6" d="M140.525 61.6H38.5l2.98-1.424a5.327 5.327 0 0 1 2.283-.501h91.5c.806 0 1.596.174 2.281.5l2.981 1.425zM140.525 84.7H38.5l4.029-1.925h93.967z" mask="url(#d)"/>
                <path fill="#8F8F8F" d="M140.407 61.6H40.543c-2.182 0-3.968 1.743-3.968 3.873v19.204c0 2.13 1.786 3.873 3.968 3.873h99.864c2.182 0 3.968-1.743 3.968-3.873V65.473c0-2.13-1.786-3.873-3.968-3.873m0 2.905c.538 0 .992.443.992.968v19.204c0 .525-.454.968-.992.968H40.543c-.538 0-.992-.443-.992-.968V65.473c0-.525.454-.968.992-.968h99.864" mask="url(#d)"/>
                <path fill="#8F8F8F" d="M38.5 75.075h103.95V73.15H38.5zM130.9 60.638H48.125l1.63-.963h80.167z" mask="url(#d)"/>
                <path fill="#000" d="M86.625 59.675H92.4V53.9h-5.775z" mask="url(#d)"/>
                <path fill="#000" d="M133.131 55.825H47.82a1.62 1.62 0 0 1-1.619-1.62V1.62c0-.895.725-1.62 1.619-1.62h85.312a1.62 1.62 0 0 1 1.619 1.62v52.585a1.62 1.62 0 0 1-1.619 1.62M69.185 57.75h38.73c1 0 1.81.987 1.81 1.925h-42.35c0-.938.81-1.925 1.81-1.925" mask="url(#d)"/>
                <path fill="#595959" d="M102.025 68.338h.962v-.963h-.962zM102.437 65.451l.652 1.784.611-1.785.25 1.477-.189.422-1.403.026-.333-1.262z" mask="url(#d)"/>
                <path fill="#000" d="M102.024 66.576l-.02-1.126H82.06l-8.91 1.126h28.875l-3.98.799 3.98-.8" mask="url(#d)"/>
                <path fill="#595959" d="M130.742 69.104l-.322-1.729H102.28l-.214 1.73-.04 2.13.36 1.915h28.192l.323-1.915z" mask="url(#d)"/>
                <path fill="#0E0E10" d="M132.825 73.15H103.95s1.039.962 1.308.962h26.38c.163 0 1.187-.962 1.187-.962" mask="url(#d)"/>
                <path fill="#000" d="M105.875 71.225h19.25V69.3h-19.25zM132.825 67.375H103.97l-.02-1.925h19.6z" mask="url(#d)"/>
                <path fill="#595959" d="M101.867 69.105l-.323-1.73H73.365l-.215 1.73.105 2.13.216 1.915h28.231l.323-1.915z" mask="url(#d)"/>
                <path fill="#0E0E10" d="M102.025 73.15H73.15s1.038.962 1.308.962h26.38c.163 0 1.187-.962 1.187-.962" mask="url(#d)"/>
                <path fill="#000" d="M75.075 71.225h19.25V69.3h-19.25zM73.4 71.278a.325.325 0 0 0-.071.077v-.11h-.179v.942h.186v-.422c0-.053.005-.1.014-.142a.277.277 0 0 1 .043-.099.182.182 0 0 1 .075-.06.305.305 0 0 1 .12-.02h.03v-.218h-.029a.29.29 0 0 0-.188.052" mask="url(#d)"/>
                <path fill="#FF7900" d="M78.736 70.705h-.027v.077h-.015v-.077h-.028v-.012h.07v.012zm-1.736.52h1.925V69.3H77v1.925z" mask="url(#d)"/>
                <path fill="#8F8F8F" d="M123.2 84.7H92.4l2.3-1.925h24.349zM75.075 84.7h-30.8l2.567-1.925h23.1z" mask="url(#d)"/>
                <path fill="#D6D6D6" d="M121.275 78.916l-19.25.009 1.053-1.894 15.22-.031z" mask="url(#d)"/>
                <path fill="#FFD200" d="M102.025 86.625h19.25V80.85h-19.25z" mask="url(#d)"/>
                <path fill="#FFB400" d="M121.275 84.7h.962v-3.85h-.962zM119.35 84.7h.963v-3.85h-.963zM103.95 84.7h.962v-3.85h-.962z" mask="url(#d)"/>
                <path fill="#B5E8F7" d="M77 82.771l-25.025.004 3.316-1.894 20.845-.031z" mask="url(#d)"/>
                <path fill="#4BB4E6" d="M51.975 84.7H77v-1.925H51.975z" mask="url(#d)"/>
                <path fill="#FFF" d="M59.675 85.662H77V84.7H59.675z" mask="url(#d)"/>
                <path fill="#0B5FA5" d="M53.9 85.662h3.85V84.7H53.9z" mask="url(#d)"/>
                <path fill="#FFB400" d="M75.075 78.925L53.9 78.922 57.042 77h17.401z" mask="url(#d)"/>
                <path fill="#FF7900" d="M53.9 82.775h21.175v-3.85H53.9z" mask="url(#d)"/>
                <path fill="#FFB400" d="M55.825 82.775h.962V80.85h-.962zM75.075 82.775h.962V80.85h-.962zM57.75 82.775h.962V80.85h-.962z" mask="url(#d)"/>
                <path fill="#2B2B2B" d="M48.125 50.05H130.9V3.85H48.125z" mask="url(#d)"/>
                <path fill="#FF7900" d="M96.854 31.01h-.194v.536h-.1v-.535h-.197v-.087h.49v.087zM84.7 34.65h13.475V21.175H84.7V34.65z" mask="url(#d)"/>
                <path fill="#7F634F" d="M61.6 75.357s6.253-1.398 5.746 2.033c-.384 2.592-2.311 3.566-2.467 3.451-.156-.115-3.279-5.484-3.279-5.484" mask="url(#d)"/>
                <path fill="#000" d="M59.675 77s-.11 1.6-2.285 3.018c-2.174 1.419-3.565 2.668-3.475 4.407.09 1.738-1.94-5.32-1.94-5.32s4.756-1.602 4.892-1.556c.136.046 2.808-.549 2.808-.549M65.45 77s.217 1.657.87 1.894c.651.237 1.055-.952 1.055-.952L65.45 77zM63.525 80.85s.195 1.689 1.172 1.902c.978.213.723-1.108.723-1.108l-1.895-.794zM63.525 84.7s.333 1.734 1.293 1.912c.959.177.542-1.467.542-1.467l-1.835-.445zM65.45 88.55s.251 1.555.962 1.925v-1.703l-.962-.222z" mask="url(#d)"/>
                <path fill="#7F634F" d="M1.925 111.65s45.13-19.517 45.681-24.69c.171-1.607-.639-5.237-.873-6.757-.279-1.811.441-4.278 3.138-4.247 2.587.03 15.367-1.282 16.31-.757.943.526 1.64 2.11.853 7.804-.786 5.695-2.96 7.265-4.127 7.476-6.2 1.122-5.243 3.328-5.655 4.645-.8 2.547-22.957 15.946-22.957 15.946" mask="url(#d)"/>
                <path fill="#000" d="M67.375 101.128c0 1.558-1.363 2.822-3.044 2.822h-7.387c-1.681 0-3.044-1.264-3.044-2.822V45.172c0-1.558 1.363-2.822 3.044-2.822h7.387c1.68 0 3.044 1.264 3.044 2.822v55.956z" mask="url(#d)"/>
                <path fill="#000" d="M65.45 99.462c0 1.414-1.17 2.563-2.61 2.563H56.51c-1.441 0-2.609-1.149-2.609-2.563V44.914c0-1.415 1.168-2.564 2.609-2.564h6.331c1.44 0 2.61 1.149 2.61 2.564v54.548z" mask="url(#d)"/>
                <path fill="#000" d="M53.9 84.7h11.55v-1.925H53.9z" mask="url(#d)"/>
                <path fill="#595959" d="M55.825 91.438a.962.962 0 1 1 1.925 0 .962.962 0 0 1-1.925 0M63.525 93.362a.962.962 0 1 1 1.925 0 .962.962 0 0 1-1.925 0M57.75 93.362a.962.962 0 1 1 1.924 0 .962.962 0 0 1-1.924 0M53.9 73.15a1.925 1.925 0 1 1 3.85 0 1.925 1.925 0 0 1-3.85 0M57.75 48.125a1.925 1.925 0 1 1 3.85 0 1.925 1.925 0 0 1-3.85 0" mask="url(#d)"/>
                <path fill="#61625F" d="M59.676 59.84c-.97 0-1.76.79-1.76 1.76s.79 1.76 1.76 1.76 1.758-.79 1.758-1.76a1.76 1.76 0 0 0-1.758-1.76m0 3.685a1.928 1.928 0 0 1-1.926-1.926 1.926 1.926 0 0 1 3.85 0 1.927 1.927 0 0 1-1.924 1.926" mask="url(#d)"/>
                <path fill="#595959" d="M59.754 69.3c-2.391 0-4.58-1.4-5.854-3.746l.142-.104c1.244 2.289 3.379 3.655 5.712 3.655 2.22 0 4.298-1.27 5.558-3.397l.138.11c-1.29 2.18-3.42 3.482-5.696 3.482M54.042 57.75l-.142-.106c1.277-2.344 3.458-3.744 5.835-3.744 2.288 0 4.425 1.325 5.715 3.544l-.14.11c-1.258-2.165-3.342-3.458-5.575-3.458-2.32 0-4.448 1.366-5.693 3.654M61.6 73.15a1.925 1.925 0 1 1 3.85 0 1.925 1.925 0 0 1-3.85 0" mask="url(#d)"/>
                <path fill="#8F8F8F" d="M56.788 82.775h-.305v-1.379h-.658v-.185c.347 0 .662-.07.73-.361h.233v1.925zM59.716 81.532c-.014-.391.16-.682.467-.682.254 0 .455.195.455.554 0 .34-.173.51-.353.66-.182.146-.372.269-.407.507h.745v.204h-.948c.029-.456.203-.619.408-.787.245-.201.37-.32.37-.587 0-.209-.127-.347-.28-.347-.203 0-.29.247-.283.478h-.174z" mask="url(#d)"/>
                <path fill="#61625F" d="M60.156 62.393c.193 0 .266-.155.266-.308 0-.16-.073-.315-.266-.315s-.266.154-.266.315c0 .153.073.308.266.308m0-.793c.303 0 .482.212.482.485a.457.457 0 0 1-.482.477.457.457 0 0 1-.481-.477c0-.273.178-.485.481-.485" mask="url(#d)"/>
                <path fill="#61625F" d="M59.675 61.6h.229v.4l.408-.4h.286l-.408.38.448.583h-.288l-.314-.433-.132.122v.31h-.229z" mask="url(#d)"/>
                <path fill="#8F8F8F" d="M63.902 81.662c.026.003.05.003.074.003.144 0 .27-.105.27-.31 0-.198-.107-.305-.252-.305-.186 0-.266.19-.268.411h-.17c.01-.36.154-.611.438-.611.247 0 .433.158.433.508 0 .165-.088.309-.196.376v.005c.172.051.257.232.257.46 0 .378-.223.576-.49.576-.288 0-.479-.227-.473-.617h.17c.007.246.109.417.303.417.167 0 .309-.136.309-.366 0-.238-.134-.363-.303-.363a.64.64 0 0 0-.102.008v-.192zM56.44 85.97v-.941h-.004l-.467.942h.47zm.158 0h.19v.204h-.19v.451h-.158v-.45h-.615v-.223l.638-1.252h.135v1.27zM60.558 82.979h-.58l-.077.553.003.006a.32.32 0 0 1 .268-.138c.256 0 .466.22.466.66 0 .325-.169.64-.504.64-.25 0-.453-.204-.459-.551h.173c.01.198.13.347.302.347.165 0 .305-.149.305-.456 0-.255-.132-.437-.325-.437-.11 0-.201.073-.268.182l-.148-.01.134-1h.71v.204zM63.727 84.078c0 .235.108.422.294.422.184 0 .286-.195.286-.42 0-.234-.092-.43-.286-.43-.19 0-.294.19-.294.428zm.55-.82c-.016-.17-.104-.283-.238-.283-.29 0-.336.428-.344.718l.004.006c.08-.174.2-.248.354-.248.273 0 .434.264.434.614 0 .275-.116.635-.474.635-.42 0-.488-.512-.488-.91 0-.521.118-1.015.522-1.015.234 0 .38.177.4.484h-.17zM56.788 86.827c-.3.392-.544 1.11-.571 1.723h-.2a3.259 3.259 0 0 1 .588-1.704h-.78v-.221h.962v.202zM60.162 87.42c.136 0 .237-.112.237-.304 0-.19-.101-.29-.24-.29-.138 0-.251.1-.251.29 0 .208.113.305.254.305m0 .929c.172 0 .294-.158.294-.369 0-.205-.134-.36-.296-.36-.17 0-.303.144-.303.363 0 .227.127.366.305.366m-.016-1.725c.314 0 .435.243.435.483 0 .168-.08.323-.198.392.172.073.255.238.255.473 0 .366-.21.577-.476.577-.275 0-.487-.19-.487-.577 0-.224.091-.398.25-.473-.118-.063-.2-.22-.2-.392 0-.312.2-.483.421-.483M63.988 86.825c-.204 0-.281.217-.281.449 0 .208.117.4.283.4.18 0 .293-.192.293-.416 0-.232-.103-.433-.295-.433zm-.26 1.236c.011.185.124.289.262.289.21 0 .313-.243.323-.732l-.003-.005c-.065.16-.193.261-.332.261-.291 0-.453-.258-.453-.632 0-.366.194-.617.471-.617.267 0 .491.19.491.905 0 .654-.15 1.02-.497 1.02-.24 0-.413-.163-.435-.489h.172zM60.156 92.2c.296 0 .298-.481.298-.764 0-.28-.002-.76-.298-.76-.295 0-.298.48-.298.76 0 .283.003.764.298.764m0-1.725c.453 0 .482.545.482.964 0 .416-.03.961-.482.961-.452 0-.481-.545-.481-.961 0-.42.029-.964.481-.964M56.634 91.072c-.03-.26-.152-.391-.301-.391-.256 0-.365.36-.365.743 0 .42.109.77.366.77.188 0 .297-.227.31-.53h.144c-.027.458-.195.736-.466.736-.334 0-.497-.422-.497-.957 0-.533.178-.968.509-.968.225 0 .41.206.443.597h-.143zM56.788 77v1.925h-.248l-.34-.54h-.375v-.851h.394l.302-.52zM57.75 77.355h.962V77h-.962zM61.6 77.355h.962V77H61.6zM56.788 73.15v1.925h-.248l-.34-.542h-.375v-.849h.394l.302-.519zM57.75 73.505h.962v-.355h-.962z" mask="url(#d)"/>
                <path fill="#8F8F8F" d="M57.75 74.112h.354v-.962h-.354zM61.754 78.684h1.617v-1.443h-1.617v1.443zm-.154.241h1.925V77H61.6v1.925z" mask="url(#d)"/>
                <path fill="#8F8F8F" d="M61.6 77.963h1.925V77H61.6zM61.6 73.503h.962v-.353H61.6zM63.525 74.112h.354v-.962h-.354z" mask="url(#d)"/>
                <path fill="#8F8F8F" d="M61.754 74.834h1.617v-1.443h-1.617v1.443zm-.154.241h1.925V73.15H61.6v1.925z" mask="url(#d)"/>
                <path fill="#8F8F8F" d="M61.6 74.112h1.925v-.962H61.6z" mask="url(#d)"/>
                <path fill="#595959" d="M61.6 68.338c0 .532-.302.962-.674.962h-2.502c-.372 0-.674-.43-.674-.962s.302-.963.674-.963h2.502c.372 0 .674.431.674.963M61.6 54.863c0 .531-.302.962-.674.962h-2.503c-.372 0-.673-.43-.673-.962s.301-.963.673-.963h2.503c.372 0 .674.43.674.963" mask="url(#d)"/>
                <path fill="#61625F" d="M59.511 59.675l-1.761-1.766.164-.159 1.761 1.766zM63.361 63.525L61.6 61.759l.164-.159 1.761 1.766zM61.759 59.675l-.159-.164 1.766-1.761.159.164zM57.909 63.525l-.159-.164 1.767-1.761.158.164z" mask="url(#d)"/>
                <path fill="#8F8F8F" d="M60.637 48.125c-.53 0-.962-.444-.962-.99 0-.41.24-.771.61-.922l.073.191a.781.781 0 0 0-.483.73c0 .433.342.785.762.785s.763-.352.763-.784a.782.782 0 0 0-.51-.74l.065-.195a.987.987 0 0 1 .645.935c0 .546-.432.99-.963.99" mask="url(#d)"/>
                <path fill="#8F8F8F" d="M59.675 47.163h.428V46.2h-.428z" mask="url(#d)"/>
                <path fill="#FF7900" d="M63.525 94.806a.482.482 0 1 1 .963 0 .482.482 0 0 1-.963 0" mask="url(#d)"/>
                <path fill="#8F8F8F" d="M54.862 94.325v.962l-.962-.506zM56.788 94.325v.962l-.963-.506zM61.6 95.287v-.962l.962.506z" mask="url(#d)"/>
                <path fill="#8F8F8F" d="M61.6 95.287v-.962l.962.506zM57.75 95.287v-.962l.962.506z" mask="url(#d)"/>
                <path fill="#8F8F8F" d="M57.75 95.287h.962v-.962h-.962zM59.675 95.287h.963v-.962h-.963z" mask="url(#d)"/>
                <path fill="#8F8F8F" d="M58.003 96.25l-.253-.104.71-1.821.252.104z" mask="url(#d)"/>
                <path fill="#2A2B2B" d="M61.79 102.025c-.111 0-.18.071-.19.198h.378c0-.125-.072-.198-.188-.198M59.862 102.025c-.088 0-.187.108-.187.455 0 .191.009.507.188.507.186-.002.203-.318.203-.523 0-.24-.071-.439-.204-.439" mask="url(#d)"/>
                <path fill="#2A2B2B" d="M59.675 102.222c0 .064.04.122.11.122a.35.35 0 0 0 .227-.097v-.222c-.228.029-.337.088-.337.197M57.968 102.025c-.184 0-.218.278-.218.481 0 .203.034.481.218.481.181 0 .216-.278.216-.48 0-.204-.035-.482-.216-.482" mask="url(#d)"/>
                <path fill="#8F8F8F" d="M59.675 67.866l.963-.491v.963z" mask="url(#d)"/>
                <path fill="#8F8F8F" d="M59.675 68.338v-.225h.7c-.002-.002.14-.057.14-.24a.321.321 0 0 0-.148-.273h-.501v-.225l.526.004c.01.005.245.128.245.494 0 .3-.157.432-.25.463l-.712.002z" mask="url(#d)"/>
                <path fill="#7F634F" d="M67.778 78.925s1.779.01 1.49 2.474c-.121 1.04-.643 2.62-1.893 3.301" mask="url(#d)"/>
                <path fill="#7F634F" d="M67.497 82.775s1.972.247 1.791 2.697c-.076 1.031-.566 2.558-1.913 3.078" mask="url(#d)"/>
                <path fill="#7F634F" d="M67.492 84.7s2.18.92 1.752 2.808c-.18.796-.719.884-1.869 1.042" mask="url(#d)"/>
                <path fill="#FF7900" d="M39.37 92.4s6.546 2.668 6.83 10.92l-10.317 7.075L0 111.65 39.37 92.4z" mask="url(#d)"/>
                <path fill="#7F634F" d="M48.125 75.831c6.582-1.678 11.347-.348 11.543 1.89.11 1.244-1.09 2.385-3.555 2.591-2.465.207-3.275.84-3.275.84s4.155 8.435-1.348 15.098l-3.293-5.54M68.476 78.671l-1.517.245c-.555.075-1.153-.323-1.432-1.207-.278-.884.248-1.932.757-2.152l.95-.411c.51-.22 1.567.066 1.845.95.28.884.48 2.262-.603 2.575M68.86 82.527l-1.714.24c-.627.073-1.304-.332-1.623-1.223-.241-.773.151-1.546.65-1.84l1.27-.731c.574-.219 1.304.331 1.622 1.222.319.891.369 2.113-.205 2.332M68.963 85.908l-1.617.636c-.592.22-1.278.002-1.666-.759-.388-.76-.273-1.664.256-2.007l1.34-.87c.528-.343 1.278-.001 1.666.76.388.76.55 1.897.021 2.24" mask="url(#d)"/>
                <path fill="#7F634F" d="M69.08 87.46l-1.483.907c-.546.32-1.252.242-1.752-.407-.5-.65-.53-1.53-.066-1.954l1.175-1.077c.463-.425 1.252-.241 1.752.408.5.65.838 1.699.374 2.124" mask="url(#d)"/>
            </g>
        </g>
    </g>
</svg>
