<svg xmlns="http://www.w3.org/2000/svg" xmlns:xlink="http://www.w3.org/1999/xlink" width="80" height="80" viewBox="0 0 80 80">
    <defs>
        <circle id="a" cx="40" cy="40" r="40"/>
        <path id="c" d="M0 .156h79.844V80H0z"/>
    </defs>
    <g fill="none" fill-rule="evenodd">
        <mask id="b" fill="#fff">
            <use xlink:href="#a"/>
        </mask>
        <use fill="#FF7900" fill-rule="nonzero" xlink:href="#a"/>
        <g mask="url(#b)">
            <g transform="rotate(-20 88.877 77.856)">
                <mask id="d" fill="#fff">
                    <use xlink:href="#c"/>
                </mask>
                <path fill="#8F8F8F" d="M79.844 40.078C79.844 62.126 61.97 80 39.922 80S0 62.126 0 40.078C0 18.029 17.874.156 39.922.156s39.922 17.873 39.922 39.922" mask="url(#d)"/>
            </g>
            <path fill="#595959" d="M63.467 46.91c6.737 18.51-2.807 38.979-21.318 45.717-18.512 6.737-38.98-2.807-45.717-21.319-6.738-18.51 2.806-38.98 21.318-45.717 18.511-6.737 38.98 2.807 45.717 21.318"/>
            <path fill="#E8E8E8" d="M61.87 47.49c6.418 17.63-2.672 37.124-20.302 43.54-17.63 6.417-37.124-2.673-43.54-20.303C-8.39 53.097.7 33.604 18.33 27.187 35.96 20.77 55.454 29.86 61.87 47.49"/>
            <path fill="#D6D6D6" d="M35.376 57.134a5.775 5.775 0 1 1-10.854 3.95 5.775 5.775 0 0 1 10.854-3.95"/>
            <path fill="#FFD200" d="M8.184 43.507a27.065 27.065 0 0 0-2.074 2.6 26.952 26.952 0 0 0-1.753 2.842 26.89 26.89 0 0 0-1.4 3.048 28.467 28.467 0 0 0-.561 1.588 28.312 28.312 0 0 0-.46 1.623 27.26 27.26 0 0 0 .05 13.508A27.278 27.278 0 0 0 4.56 75.13a27.723 27.723 0 0 0 1.89 2.936 29.48 29.48 0 0 0 2.25 2.696 29.66 29.66 0 0 1-2.481-2.512 28.166 28.166 0 0 1-5.363-9.187c-1.598-4.52-2.026-9.494-1.23-14.32.094-.605.219-1.204.35-1.803A30.623 30.623 0 0 1 1.7 47.684a30.08 30.08 0 0 1 1.678-3.31 30.422 30.422 0 0 1 2.074-3.1l2.732 2.233z"/>
            <path fill="#FF7900" d="M32.122 29.036c2.59.207 5.168.74 7.644 1.597l.464.162.46.172c.309.113.61.242.915.363a32.788 32.788 0 0 1 3.537 1.734 33.52 33.52 0 0 1 5.61 4.022c.124.111.244.214.372.332l.384.36c.503.486.99.987 1.447 1.511a27.274 27.274 0 0 1 4.41 6.958c1.114 2.5 1.862 5.134 2.305 7.795.442 2.663.566 5.354.44 8.007l-9.507-.836c.279-2.025.364-4.059.213-6.058-.152-1.997-.525-3.964-1.163-5.826a19.308 19.308 0 0 0-2.652-5.177c-.28-.39-.583-.76-.892-1.12l-.237-.266c-.08-.09-.176-.186-.262-.279-.177-.189-.36-.37-.543-.553a25.703 25.703 0 0 0-2.323-2.047c-.406-.321-.826-.622-1.25-.92a26.216 26.216 0 0 0-2.662-1.6c-.233-.114-.462-.238-.697-.346l-.352-.168-.356-.16a24.785 24.785 0 0 0-5.986-1.792l.681-5.865z"/>
            <path fill="#FFB400" d="M31.485 34.822a24.85 24.85 0 0 0-6.309-.202 25.115 25.115 0 0 0-6.235 1.414c-1.01.368-1.999.806-2.963 1.3a27.112 27.112 0 0 0-2.8 1.67 27.941 27.941 0 0 0-4.949 4.332l-2.722-2.218a31.864 31.864 0 0 1 5.198-5.377 31.36 31.36 0 0 1 3.077-2.207 30.165 30.165 0 0 1 10.667-4.136 30.523 30.523 0 0 1 7.734-.404l-.698 5.828z"/>
            <path fill="#8F8F8F" d="M33.75 57.635a4.161 4.161 0 1 1-7.82 2.846 4.161 4.161 0 0 1 7.82-2.846"/>
            <path fill="#000" d="M57.107 55.425c-8.37.49-16.745 1.234-25.078 2.223a2.548 2.548 0 0 0-4.1-.096 2.53 2.53 0 0 0 .457 3.556 2.548 2.548 0 0 0 3.941-1.141 423.166 423.166 0 0 0 24.816-4.257c.345-.07.314-.305-.036-.285"/>
        </g>
    </g>
</svg>
