<svg xmlns="http://www.w3.org/2000/svg" xmlns:xlink="http://www.w3.org/1999/xlink" width="30" height="30" viewBox="0 0 30 30">
    <defs>
        <path id="a" d="M26.786 0H0v26.786A3.214 3.214 0 0 0 3.214 30H30V3.214A3.214 3.214 0 0 0 26.786 0zm1.071 20.357l-8.233-9.353c-.297-.385-.778-.385-1.074 0l-6.121 7.115-3.382-4.748c-.296-.385-.777-.385-1.071 0L3 18.946c-.502-.378-.84-.794-.857-1.655V2.143H26.25c.888 0 1.607.72 1.607 1.607v16.607zm-19.733-15a2.679 2.679 0 1 0-.173 5.354 2.679 2.679 0 0 0 .173-5.354z"/>
    </defs>
    <g fill="none" fill-rule="evenodd">
        <mask id="b" fill="#fff">
            <use xlink:href="#a"/>
        </mask>
        <g fill="#000" mask="url(#b)">
            <path d="M0 0h30v30H0z"/>
        </g>
    </g>
</svg>
