<svg xmlns="http://www.w3.org/2000/svg" xmlns:xlink="http://www.w3.org/1999/xlink" width="154" height="154" viewBox="0 0 154 154">
    <defs>
        <circle id="a" cx="77" cy="77" r="77"/>
        <path id="c" d="M0 .574h50.868v33.787H0z"/>
    </defs>
    <g fill="none" fill-rule="evenodd">
        <mask id="b" fill="#fff">
            <use xlink:href="#a"/>
        </mask>
        <use fill="#50BE87" fill-rule="nonzero" xlink:href="#a"/>
        <g mask="url(#b)">
            <path fill="#464646" d="M115.228 117.126h-53.21v-1.801h53.21c3.47 0 6.093-1.882 7.79-5.596 1.203-2.63 1.505-5.28 1.551-5.745l-4.43-46.551 1.793-.17 4.444 46.711-.004.077c-.011.13-1.132 13.075-11.144 13.075zm-42.05-34.72l.167-6.847 10.825-.002v6.848H73.178zM84.2 84.021l.043 6.847-11.266-.006.169-6.835 11.054-.006zm-.252 23.77H72.208l.17-6.845h11.537l.034 6.844zM72.77 99.325l.169-6.837h11.305l.033 6.837H72.77zm24.677 1.621l.219 6.844H85.931l-.033-6.844h11.549zm-.277-8.466l.228 6.845h-11.5l-.031-6.837 11.303-.008zM85.824 82.405v-6.848h10.811l.22 6.837-11.03.011zm11.078 1.62l.22 6.835-11.255.008-.043-6.843h11.078zm13.353 16.922l.404 6.844H98.926l-.22-6.844h11.55zm-.152-8.466l.406 6.845h-11.49l-.227-6.845h11.311zm-11.627-10.08l-.22-6.842h10.834l.404 6.843H98.476zm11.118 1.624l.413 6.835H98.743l-.22-6.835h11.071zM70.496 43.772h40.98l1.12 14.778H70.273l.224-14.778zm51.588-9.123H60.49v73.142s.362 6.318-2.068 11.754h59.61c9.928 0 10.942-14.386 10.942-14.386l-6.89-70.51z"/>
            <path fill="#8F8F8F" d="M110.66 107.791l-.405-6.844H98.707l.219 6.844zM72.208 107.791h11.741l-.034-6.844H72.378zM46.445 116.6h.349c13.22 0 13.695-9.756 13.695-11.175V34.446S61.051 23.1 46.794 23.1h-.349c-14.255 0-13.697 11.346-13.697 11.346v70.979c0 1.419.48 11.176 13.697 11.176M72.647 56.937l.203-11.55h37.077l1.013 11.55H72.647zm38.828-13.164H70.497l-.224 14.777h42.323l-1.12-14.777z"/>
            <path fill="#FFF" d="M72.85 45.387l-.203 11.55h38.293l-1.013-11.55z"/>
            <path fill="#595959" d="M60.49 107.791v-2.366c0 1.419-.478 11.176-13.697 11.176h-.347c-13.219 0-13.697-9.757-13.697-11.176v2.366s-.065 1.15.058 2.887c.104 1.74.397 4.084 1.125 6.458 1.183 3.906 3.526 7.893 8.137 9.435a10.422 10.422 0 0 0 .388-2.772c0-.113.007-.224.018-.332.003-.038.013-.077.016-.113.01-.07.018-.141.033-.21.013-.065.033-.127.05-.191l.03-.12c.009-.026.02-.05.028-.077a3.241 3.241 0 0 1 6.31 1.043 16.4 16.4 0 0 1-.34 3.338c5.224-.614 8.167-3.9 9.82-7.592 2.43-5.436 2.068-11.754 2.068-11.754"/>
            <g transform="translate(-1.925 110.103)">
                <mask id="d" fill="#fff">
                    <use xlink:href="#c"/>
                </mask>
                <path fill="#000" d="M47.957 10.47a3.154 3.154 0 0 0-.663 0 3.244 3.244 0 0 0-2.737 2.183c-.009.028-.02.05-.028.078-.012.038-.02.079-.03.118-.018.064-.036.126-.05.192-.014.068-.022.139-.032.209-.004.038-.013.075-.016.115a3.123 3.123 0 0 0-.018.33c0 .313-.02.62-.047.92-.06.648-.175 1.266-.34 1.852-.681 2.44-2.174 4.343-3.478 5.625-3.743 3.67-9.547 5.917-15.124 5.786-7.399-.137-15.511-3.583-18.088-7.684-.972-1.548-1.07-3.055-.292-4.74.478-1.064 3.152-4.691 17.124-7.06 4.418-.745 8.721-1.15 11.719-1.362-.729-2.374-1.021-4.715-1.126-6.458-10.065.697-29.5 3.2-33.617 12.174-1.695 3.7-1.451 7.47.697 10.9 4.246 6.76 15.26 10.56 23.47 10.715h.478c7.116 0 14.466-2.903 19.298-7.643 2.9-2.846 4.757-6.153 5.47-9.685.226-1.095.34-2.214.34-3.34a3.242 3.242 0 0 0-2.91-3.225" mask="url(#d)"/>
            </g>
            <path fill="#8F8F8F" d="M85.825 75.558v6.847l11.028-.011-.219-6.836z"/>
            <path fill="#4BB4E6" d="M97.665 107.791l-.219-6.844H85.9l.031 6.844z"/>
            <path fill="#8F8F8F" d="M98.257 75.559l.219 6.844h11.018l-.404-6.844zM110.006 90.86l-.412-6.836H98.523l.219 6.836zM110.51 99.326l-.407-6.845h-11.31l.227 6.845zM97.397 99.326l-.227-6.845-11.304.008.033 6.837zM85.867 90.868l11.254-.008-.22-6.836H85.826zM84.245 92.49H72.94l-.17 6.836h11.507zM73.345 75.56l-.168 6.845h10.992v-6.847zM72.978 90.863l11.267.007-.044-6.848-11.053.007z"/>
            <path fill="#8F8F8F" d="M121.931 57.262l-1.792.17 4.43 46.551c-.046.465-.349 3.116-1.551 5.747-1.697 3.712-4.32 5.596-7.79 5.596h-53.21v1.8h53.21c10.012 0 11.132-12.945 11.144-13.076l.005-.077-4.446-46.711z"/>
        </g>
    </g>
</svg>
