<svg xmlns="http://www.w3.org/2000/svg" xmlns:xlink="http://www.w3.org/1999/xlink" width="154" height="154" viewBox="0 0 154 154">
    <defs>
        <circle id="a" cx="77" cy="77" r="77"/>
        <path id="c" d="M0 101.022h153.766V.11H0z"/>
        <path id="e" d="M0 101.022h153.766V.11H0z"/>
    </defs>
    <g fill="none" fill-rule="evenodd">
        <mask id="b" fill="#fff">
            <use xlink:href="#a"/>
        </mask>
        <use fill="#D8D8D8" fill-rule="nonzero" xlink:href="#a"/>
        <g mask="url(#b)">
            <path fill="#50BE87" d="M0 93.92h153.766V-10.03H0z"/>
            <path fill="#58585B" d="M0 173.25h153.766V87.685H0z"/>
            <path fill="#58585B" d="M70.456 104.147h5.842v-35.16h-5.842z"/>
            <g transform="translate(0 27.1)">
                <path fill="#57C3EF" d="M12.954 51.798S8.7 52.944 7.008 56.471c-1.69 3.529-4.085 6.53-4.882 9.676-.196.776-.184 1.007-.184 1.007s-.103 3.6 2.76 4.357c2.86.755 3.054.524 18.008.019 14.952-.503 18.226-.754 21.642-1.49 2.414-.52 4.007-3.612 4.007-3.612s-.538-.738-.668-3.007c-.13-2.268 1.799-5.58 1.463-10.552 0 0-4.815-2.663-10.097-1.42-2.482.583-10.633.765-13.754.387-3.122-.378-12.349-.038-12.349-.038"/>
                <path fill="#1268B2" d="M25.948 67.287c-6.056 0-9.763-1.59-16.743-.99-5.066.436-7.116 2.409-7.116 2.409s.392 2.416 3.094 3.048c6.84 1.602 7.85-.08 17.875-.055 9.398.024 11.922 1.777 17.88.247 4.39-1.127 7.43-5.334 7.43-5.334-7.286-3.244-15.482.675-22.42.675"/>
                <path fill="#57C3EF" d="M49.154 52.87s-1.889 7.82-2.218 9.101c-.324 1.28-1.069 2.829-1.116 3.287-.046.458.53 2.704.857 2.613.325-.092.162.436.395-.617.234-1.053 3.793-3.61 2.082-14.385"/>
                <path fill="#FAAE17" d="M39.605 59.14c4.443-3.25 18.737-2.71 22.455-.137 2.854 1.976 4.384 4.455 4.384 6.52 0 3.67-4.143 10.032-5.555 13.624 1.677 2.902 3.646 5.511 5.452 8.285.43.64.37 2.877 0 4.158-.617 2.134-3.003 4.641-6.98 4.641H43.308c-5.148 0-7.451-2.507-8.231-4.641-.402-1.1-.165-3.227 0-3.95.141-.625 1.012-1.59 1.573-2.296 1.581-1.99 3.344-4.139 4.738-6.091-1.535-3.838-5.987-10.771-5.987-13.624 0-2.082 1.265-4.34 4.204-6.489"/>
                <path fill="#FFE900" d="M58.16 76.472c.7-1.413 4.472-7.388 4.542-10.409.032-1.397-1.257-3.085-2.455-4.097-2.194-1.857-16.312-2.106-18.83.108-.632.555-1.934 2.283-1.934 3.887 0 2.491 3.85 9.27 4.514 10.51.333.621 1.53.996 7.068.996 5.717 0 6.745-.288 7.095-.995M44.752 80.295c-.94 0-1.645.914-1.991 1.387-1.236 1.687-3.898 4.812-4.108 5.29-.502 1.144 7.927 2.33 12.279 2.303 4.48-.028 12.391-.804 11.852-1.922-.362-.751-2.45-4.049-3.459-5.8-.324-.563-.725-1.258-1.831-1.258H44.752z"/>
                <mask id="d" fill="#fff">
                    <use xlink:href="#c"/>
                </mask>
                <path fill="#58585B" d="M51.36 42.34h43.156v-8.708H51.36zM75.842 76.912c0 .569-1.217 1.032-2.718 1.032-1.5 0-2.717-.463-2.717-1.032 0-.57 1.217-1.033 2.717-1.033 1.501 0 2.718.463 2.718 1.033" mask="url(#d)"/>
                <path fill="#231F20" d="M147.564 70.024h-41.092l4.721-7.069h31.877z" mask="url(#d)"/>
                <path fill="#939597" d="M131.808 68.385h-9.245l.486-1.157h8.142z" mask="url(#d)"/>
                <path fill="#472F91" d="M67.74 82.668s2.036 2.522 2.876 3.688c.84 1.164 4.218 2.075 8.744 2.188 4.528.112 9.276-1.217 12.156-1.054 2.879.163 10.718 1.863 15.537 1.725 3.479-.1 7.283-1.078 7.718-4.774.675-5.738 2.17-8.154 2.5-10.652.314-2.383-.172-2.967-.801-4.241l-15.924 3.964-27.519 6.27-5.287 2.886z" mask="url(#d)"/>
                <path fill="#8071B3" d="M67.695 82.623s1.97-3.795 5.546-7.777c3.577-3.985 4.794-5.481 4.794-5.481s4.026-1.907 10.585-.692c6.557 1.216 11.036.104 11.866-.195.832-.3 5.185-1.037 9.745-.419 4.56.616 6.28 1.49 6.28 1.49s-1.288.622-1.96 5.638c-.675 5.016-1.938 6.827-3.938 8.059 0 0-3.165 1.51-7.692 1.397-4.527-.111-4.95-1.983-10.896-2.131-5.945-.149-6.557 1.233-13.044.897-5.072-.265-7.093-2.038-11.286-.786" mask="url(#d)"/>
            </g>
            <g transform="translate(0 27.1)">
                <path fill="#231F20" d="M148.619 53.613c0 .85-.69 1.537-1.537 1.537h-40.105a1.536 1.536 0 0 1-1.537-1.537V26.209c0-.85.688-1.537 1.537-1.537h40.105c.848 0 1.537.688 1.537 1.537v27.404z"/>
                <mask id="f" fill="#fff">
                    <use xlink:href="#e"/>
                </mask>
                <path fill="#231F20" d="M123.568 58.878h7.111v-4.87h-7.111z" mask="url(#f)"/>
                <path fill="#231F20" d="M130.679 58.37l-6.984.126-7.494 2.115H138.3z" mask="url(#f)"/>
                <path fill="#FEFEFE" d="M145.55 27.04h-37.043a.525.525 0 0 0-.526.525v24.693c0 .29.235.525.526.525h37.044c.29 0 .524-.236.524-.525V27.565a.524.524 0 0 0-.524-.525" mask="url(#f)"/>
                <path fill="#231F20" d="M45.482 67.602l1.174-4.098h8.987l.909 4.126z" mask="url(#f)"/>
                <path fill="#231F20" d="M59.104 82.104a1.982 1.982 0 0 1-1.982 1.981h-12.21a1.98 1.98 0 0 1-1.982-1.98V68.061c0-1.094.887-1.981 1.982-1.981h12.21c1.095 0 1.982.887 1.982 1.981v14.042z" mask="url(#f)"/>
                <path fill="#FEFEFE" d="M57.527 80.785c0 .816-.661 1.476-1.477 1.476H45.983c-.815 0-1.476-.66-1.476-1.476V69.174c0-.816.66-1.476 1.476-1.476H56.05c.816 0 1.477.66 1.477 1.476v11.611z" mask="url(#f)"/>
                <path fill="#FFE900" d="M53.69 65.955c0 .186-.15.335-.335.336l-4.675.003a.336.336 0 0 1 0-.672l4.675-.003c.185 0 .335.15.335.336" mask="url(#f)"/>
                <path fill="#231F20" d="M45.482 82.662l1.174 4.098h8.987l.909-4.127z" mask="url(#f)"/>
                <path fill="#FFE900" d="M53.69 84.309a.336.336 0 0 0-.335-.336l-4.675-.004a.336.336 0 0 0 0 .672l4.675.003c.185 0 .335-.15.335-.335" mask="url(#f)"/>
                <path fill="#231F20" d="M18.463 61.35a.808.808 0 0 1-.564-.23l-3.604-3.05a.8.8 0 0 1-.284-.592l-.146-6.051a.803.803 0 0 1 .301-.647l6.399-5.593a.801.801 0 0 1 .525-.198l20.051-.057c.224.01.43.09.583.25.152.159.231.374.22.594l-.335 6.39a.802.802 0 0 1-.175.46l-6.396 7.95a.801.801 0 0 1-.717.476l-15.843.297h-.015" mask="url(#f)"/>
                <path fill="#F4811F" d="M18.332 59.099l-2.693-2.164-.116-4.377 2.835 1.982z" mask="url(#f)"/>
                <path fill="#472F91" d="M88.957 32.33c0 .718-.581 1.298-1.298 1.298H58.88c-.717 0-1.299-.58-1.299-1.298V12.57c0-.716.582-1.297 1.3-1.297h28.78c.716 0 1.297.58 1.297 1.298v19.76z" mask="url(#f)"/>
                <path fill="#8071B3" d="M86.8 21.519a1.008 1.008 0 1 1-.003 2.015 1.008 1.008 0 0 1 .003-2.015" mask="url(#f)"/>
                <path fill="#FEFEFE" d="M78.492 13.008H60.255v18.885h24.74V13.009z" mask="url(#f)"/>
                <path fill="#57C3EF" d="M88.348 49.735c0 .257.217.465.487.465h2.902a.477.477 0 0 0 .487-.465v-.275a.477.477 0 0 0-.487-.467h-2.902a.476.476 0 0 0-.487.467v.275z" mask="url(#f)"/>
                <path fill="#57C3EF" d="M85.633 75.83c0 1.341 1.12 2.429 2.503 2.429h10.987c1.382 0 2.5-1.088 2.5-2.429V51.988c0-1.34-1.118-2.427-2.5-2.427H88.136c-1.384 0-2.503 1.088-2.503 2.427V75.83z" mask="url(#f)"/>
                <path fill="#ABD8F4" d="M94.791 75.991a1.27 1.27 0 1 1-2.537 0 1.269 1.269 0 1 1 2.537 0" mask="url(#f)"/>
                <path fill="#FEFEFE" d="M96.853 52.53h-9.615V73.8h12.618V52.53z" mask="url(#f)"/>
                <path fill="#ABD8F4" d="M94.82 51.265c0 .138-.107.25-.237.25H92.74a.243.243 0 0 1-.237-.25c0-.139.105-.25.237-.25h1.843c.13 0 .237.111.237.25M91.9 51.265a.311.311 0 1 1-.623 0 .311.311 0 0 1 .623 0" mask="url(#f)"/>
                <path fill="#939597" d="M23.155 56.942a1.156 1.156 0 1 1-2.313 0 1.157 1.157 0 1 1 2.313 0M27.655 56.942a1.157 1.157 0 1 1-2.315 0 1.157 1.157 0 0 1 2.315 0M32.153 56.942a1.157 1.157 0 1 1-2.315 0 1.157 1.157 0 0 1 2.315 0" mask="url(#f)"/>
            </g>
            <path fill="#F4811F" d="M78.97 49.44a6.09 6.09 0 1 1-12.18-.001 6.09 6.09 0 0 1 12.18 0"/>
            <path fill="#FEFEFE" d="M70.895 45.465l5.65 3.975-5.65 3.975z"/>
            <path fill="#F4811F" d="M135.404 66.716a7.78 7.78 0 1 1-15.559-.001 7.78 7.78 0 0 1 15.559.001"/>
            <path fill="#FEFEFE" d="M127.626 60.747l1.558 3.956 4.208.235-3.245 2.73 1.042 4.05-3.563-2.218-3.566 2.218 1.044-4.05-3.247-2.73 4.21-.235z"/>
            <path fill="#F4811F" d="M56.056 101.81a5.056 5.056 0 1 1-10.112-.002 5.056 5.056 0 0 1 10.112.002"/>
            <path fill="#FEFEFE" d="M50.975 100.141c.386-.525.889-1 1.69-.806.51.125 1.066.685 1.169 1.224.101.526-.107 1.094-.286 1.507a5.018 5.018 0 0 1-.675 1.144 9.49 9.49 0 0 1-1.352 1.405c-.173.146-.386.385-.52.39-.256.006-.701-.538-.937-.756-.613-.56-1.122-1.134-1.508-1.87-.244-.47-.525-1.077-.416-1.796.049-.318.322-.719.546-.909.257-.22.783-.472 1.326-.339.425.105.737.444.963.806"/>
            <path fill="#F4811F" d="M29.902 69.088a1.877 1.877 0 1 1 1.777-1.973 1.876 1.876 0 0 1-1.777 1.973zm1.954-4.402a3.237 3.237 0 0 0-4.347.22l-1.11-1.065a4.777 4.777 0 0 1 3.159-1.416 4.778 4.778 0 0 1 3.271 1.068l-.973 1.193zm1.728-2.116a5.976 5.976 0 0 0-8.046.444l-1.107-1.062a7.49 7.49 0 0 1 4.986-2.256 7.495 7.495 0 0 1 5.14 1.687l-.973 1.187zm1.728-2.113a8.69 8.69 0 0 0-5.957-1.954 8.69 8.69 0 0 0-5.787 2.622l-1.107-1.063a10.22 10.22 0 0 1 6.815-3.092 10.212 10.212 0 0 1 7.006 2.297l-.97 1.19zM93.511 84.657a5.027 5.027 0 1 0 0 10.054 5.027 5.027 0 0 0 0-10.054"/>
            <path fill="#FEFEFE" d="M96.658 90.57h-2.215v2.217H92.67V90.57h-2.215V88.8h2.215v-2.217h1.773V88.8h2.215z"/>
        </g>
    </g>
</svg>
