<svg xmlns="http://www.w3.org/2000/svg" xmlns:xlink="http://www.w3.org/1999/xlink" width="154" height="154" viewBox="0 0 154 154">
    <defs>
        <circle id="a" cx="77" cy="77" r="77"/>
        <path id="c" d="M0 .3h153.7V154H0z"/>
    </defs>
    <g fill="none" fill-rule="evenodd">
        <mask id="b" fill="#fff">
            <use xlink:href="#a"/>
        </mask>
        <use fill="#FF7900" fill-rule="nonzero" xlink:href="#a"/>
        <g mask="url(#b)">
            <g transform="rotate(-20 171.089 149.874)">
                <mask id="d" fill="#fff">
                    <use xlink:href="#c"/>
                </mask>
                <path fill="#8F8F8F" d="M153.7 77.15c0 42.443-34.407 76.85-76.85 76.85S0 119.593 0 77.15 34.407.3 76.85.3s76.85 34.407 76.85 76.85" mask="url(#d)"/>
            </g>
            <path fill="#595959" d="M122.174 90.3c12.97 35.635-5.403 75.036-41.038 88.006-35.634 12.97-75.036-5.403-88.005-41.038-12.97-35.634 5.403-75.035 41.038-88.005 35.634-12.97 75.035 5.403 88.005 41.038"/>
            <path fill="#F9F9F9" d="M119.101 91.419c12.353 33.937-5.145 71.462-39.083 83.815-33.937 12.352-71.463-5.146-83.815-39.084-12.352-33.937 5.146-71.462 39.084-83.815 33.937-12.352 71.462 5.146 83.814 39.084"/>
            <path fill="#D6D6D6" d="M68.099 109.982c2.1 5.77-.875 12.149-6.645 14.249-5.769 2.1-12.148-.875-14.248-6.644-2.1-5.77.875-12.149 6.644-14.249 5.77-2.1 12.149.875 14.249 6.644"/>
            <path fill="#FFD200" d="M15.754 83.751a52.101 52.101 0 0 0-3.992 5.005 51.882 51.882 0 0 0-3.374 5.471 51.763 51.763 0 0 0-2.696 5.867 54.799 54.799 0 0 0-1.08 3.056 54.501 54.501 0 0 0-.885 3.126c-2.122 8.41-2.148 17.44.094 26.003a52.51 52.51 0 0 0 4.96 12.345 53.366 53.366 0 0 0 3.636 5.652 56.75 56.75 0 0 0 4.331 5.188 57.096 57.096 0 0 1-4.775-4.834 54.22 54.22 0 0 1-10.322-17.685c-3.078-8.702-3.902-18.277-2.37-27.567.182-1.163.422-2.317.675-3.47a58.95 58.95 0 0 1 .897-3.428 57.12 57.12 0 0 1 2.419-6.687 57.904 57.904 0 0 1 3.23-6.375 58.563 58.563 0 0 1 3.993-5.966l5.259 4.3z"/>
            <path fill="#FF7900" d="M61.835 55.895a59.628 59.628 0 0 1 14.715 3.073l.893.313.886.331c.594.216 1.173.465 1.76.698a63.116 63.116 0 0 1 6.81 3.338 64.526 64.526 0 0 1 10.798 7.742c.24.214.471.412.716.64l.74.692a47.157 47.157 0 0 1 2.786 2.91c3.53 4.027 6.36 8.58 8.488 13.393 2.145 4.813 3.584 9.884 4.437 15.006.852 5.127 1.09 10.306.848 15.413l-18.3-1.608c.535-3.9.7-7.814.408-11.662-.291-3.845-1.01-7.632-2.238-11.216-1.21-3.589-2.93-6.974-5.105-9.966a32.728 32.728 0 0 0-1.718-2.157l-.455-.511c-.154-.172-.338-.357-.505-.536-.34-.364-.692-.714-1.044-1.065a49.48 49.48 0 0 0-4.474-3.941 51.595 51.595 0 0 0-2.405-1.769 50.466 50.466 0 0 0-5.125-3.08c-.447-.221-.888-.46-1.342-.668l-.677-.323-.684-.306a47.712 47.712 0 0 0-11.524-3.451l1.311-11.29z"/>
            <path fill="#FFB400" d="M60.61 67.032a47.835 47.835 0 0 0-12.145-.388 48.347 48.347 0 0 0-12.003 2.722 50.4 50.4 0 0 0-5.705 2.5 52.192 52.192 0 0 0-5.389 3.216 53.786 53.786 0 0 0-9.527 8.34l-5.24-4.27A61.338 61.338 0 0 1 20.606 68.8a60.37 60.37 0 0 1 5.924-4.247 59.145 59.145 0 0 1 6.45-3.5 58.068 58.068 0 0 1 14.083-4.462 58.757 58.757 0 0 1 14.888-.778l-1.343 11.22z"/>
            <path fill="#8F8F8F" d="M64.97 110.947a8.01 8.01 0 1 1-15.055 5.48 8.01 8.01 0 0 1 15.055-5.48"/>
            <path fill="#000" d="M109.93 106.694a814.627 814.627 0 0 0-48.274 4.279 4.869 4.869 0 0 0-1.029-1.077 4.904 4.904 0 0 0-6.863.892 4.87 4.87 0 0 0 .879 6.844 4.904 4.904 0 0 0 7.587-2.196 814.594 814.594 0 0 0 47.77-8.194c.664-.134.606-.588-.07-.548"/>
        </g>
    </g>
</svg>
