<svg xmlns="http://www.w3.org/2000/svg" width="40" height="40" viewBox="0 0 40 40">
    <g fill="none" fill-rule="nonzero">
        <g>
            <path fill="#000" d="M17.602 32.793V21.704H14v-4.406h3.602v-3.473C17.602 10.053 19.837 8 23.1 8c1.564 0 2.907.121 3.297.174v3.942h-2.264c-1.775 0-2.117.872-2.117 2.145v3.037h4.005l-.55 4.406h-3.455v11.09"/>
            <circle cx="20" cy="20" r="20" fill="#3B5998"/>
        </g>
        <path fill="#FFF" d="M17.602 32.793V21.704H14v-4.406h3.602v-3.473C17.602 10.053 19.837 8 23.1 8c1.564 0 2.907.121 3.297.174v3.942h-2.264c-1.775 0-2.117.872-2.117 2.145v3.037h4.005l-.55 4.406h-3.455v11.09"/>
    </g>
</svg>
