<svg xmlns="http://www.w3.org/2000/svg" width="40" height="40" viewBox="0 0 40 40">
    <g fill="none" fill-rule="nonzero">
        <circle cx="20" cy="20" r="20" fill="#337AB7"/>
        <path fill="#FFF" d="M15.254 29h-3.94V16.315h3.94V29zm-1.972-14.415c-1.26 0-2.282-1.044-2.282-2.303a2.282 2.282 0 0 1 4.563 0c0 1.26-1.022 2.303-2.281 2.303zM30 29h-3.931v-6.175c0-1.472-.03-3.359-2.049-3.359-2.048 0-2.362 1.599-2.362 3.253V29h-3.936V16.315h3.779v1.73h.055c.526-.996 1.811-2.048 3.728-2.048 3.987 0 4.72 2.625 4.72 6.035V29H30z"/>
    </g>
</svg>
