<svg xmlns="http://www.w3.org/2000/svg" xmlns:xlink="http://www.w3.org/1999/xlink" width="80" height="80" viewBox="0 0 80 80">
    <defs>
        <path id="a" d="M.018.073h25.864V48H.018z"/>
        <path id="c" d="M0 54h61V0H0z"/>
    </defs>
    <g fill="none" fill-rule="evenodd">
        <circle cx="40" cy="40" r="40" fill="#FF7900"/>
        <g transform="translate(10 10)">
            <path fill="#1D1D1B" d="M61 51.715A2.283 2.283 0 0 1 58.72 54H37.28A2.283 2.283 0 0 1 35 51.715V8.285A2.283 2.283 0 0 1 37.28 6h21.44C59.978 6 61 7.023 61 8.286v43.429z"/>
            <g transform="translate(35 6)">
                <mask id="b" fill="#fff">
                    <use xlink:href="#a"/>
                </mask>
                <path fill="#FEFEFE" d="M2.348.221A2.194 2.194 0 0 0 .165 2.423V45.65c0 1.214.98 2.2 2.183 2.2h21.205a2.194 2.194 0 0 0 2.182-2.2V2.423A2.194 2.194 0 0 0 23.553.22H2.348zM23.553 48H2.348a2.342 2.342 0 0 1-2.33-2.349V2.423a2.342 2.342 0 0 1 2.33-2.35h21.205a2.342 2.342 0 0 1 2.329 2.35V45.65A2.342 2.342 0 0 1 23.552 48z" mask="url(#b)"/>
            </g>
            <mask id="d" fill="#fff">
                <use xlink:href="#c"/>
            </mask>
            <path fill="#FEFEFE" d="M37 46h22V11H37z" mask="url(#d)"/>
            <path fill="#FEFEFE" d="M37.143 45.854h21.714V11.146H37.143v34.708zM37 46h22V11H37v35z" mask="url(#d)"/>
            <path fill="#D9D9D9" d="M59 24v22H37v-6.363a26.303 26.303 0 0 1 5.994-8.7 25.207 25.207 0 0 1 7.324-4.906A24.383 24.383 0 0 1 59 24" mask="url(#d)"/>
            <path fill="#FEFEFE" d="M37.143 45.852h21.714V24.155c-2.952.146-5.82.822-8.526 2.008a24.908 24.908 0 0 0-7.256 4.859 25.89 25.89 0 0 0-5.932 8.6v6.23zM59 46H37l.006-6.423a26.034 26.034 0 0 1 5.972-8.664 25.043 25.043 0 0 1 7.298-4.887 24.264 24.264 0 0 1 8.65-2.023L59 24v22z" mask="url(#d)"/>
            <path fill="#EE7D00" d="M46 52h4v-4h-4z" mask="url(#d)"/>
            <path fill="#FEFEFE" d="M46.143 51.857h3.714v-3.714h-3.714v3.714zM46 52h4v-4h-4v4z" mask="url(#d)"/>
            <path fill="#6AC4EF" d="M39 25h13.805c.66 0 1.195-.544 1.195-1.215v-8.57c0-.67-.535-1.215-1.195-1.215H41.928c-.66 0-1.195.544-1.195 1.216v8.569s-.06.73-1.733 1.215" mask="url(#d)"/>
            <path fill="#FEFEFE" d="M37.947 24.853H50.78c.595 0 1.079-.505 1.079-1.126v-8.454c0-.62-.484-1.126-1.079-1.126H40.32c-.595 0-1.079.505-1.079 1.126v8.454c-.002.034-.066.648-1.294 1.126M50.78 25H37l.485-.144c1.544-.46 1.615-1.128 1.615-1.135v-8.448c0-.702.547-1.273 1.22-1.273h10.46c.673 0 1.22.571 1.22 1.273v8.454C52 24.43 51.453 25 50.78 25" mask="url(#d)"/>
            <path fill="#F8AF00" d="M50 26c-2.595.97-4.96 2.33-7 4v-3.009c0-.547.501-.991 1.119-.991H50z" mask="url(#d)"/>
            <path fill="#FEFEFE" d="M44.122 26.145c-.547 0-.992.497-.992 1.108v3.417c1.853-1.886 3.948-3.407 6.234-4.525h-5.242zM43 31v-3.747c0-.691.503-1.253 1.122-1.253H50l-.296.14c-2.43 1.144-4.649 2.742-6.595 4.748L43 31z" mask="url(#d)"/>
            <path fill="#EE7D00" d="M58 37H44.195c-.66 0-1.195-.544-1.195-1.215v-4.882A25.776 25.776 0 0 1 50.475 26h4.596c.661 0 1.196.544 1.196 1.215v8.57S56.326 36.514 58 37" mask="url(#d)"/>
            <path fill="#FEFEFE" d="M43.141 30.943v4.784c0 .62.484 1.126 1.079 1.126h12.832c-1.228-.478-1.29-1.091-1.293-1.12v-8.46c0-.621-.485-1.126-1.08-1.126h-4.405a24.592 24.592 0 0 0-7.133 4.796zM58 37H44.22c-.673 0-1.22-.57-1.22-1.273V30.88l.023-.022a24.733 24.733 0 0 1 7.209-4.851l.027-.006h4.42c.673 0 1.22.57 1.22 1.272v8.455c.001 0 .086.673 1.616 1.129L58 37z" mask="url(#d)"/>
            <path fill="#FFE800" d="M44 18a1 1 0 1 1-2 0 1 1 0 0 1 2 0" mask="url(#d)"/>
            <path fill="#FEFEFE" d="M42 16.135a.866.866 0 0 0 0 1.73.866.866 0 0 0 0-1.73M42 18a1.001 1.001 0 0 1 0-2 1.001 1.001 0 0 1 0 2" mask="url(#d)"/>
            <path fill="#FEFEFE" d="M42.5 18c-.276 0-.5-.417-.5-.929 0-.04.017-.071.038-.071.021 0 .038.032.038.071 0 .434.19.787.424.787.234 0 .424-.353.424-.787 0-.04.017-.071.038-.071.02 0 .038.032.038.071 0 .512-.224.929-.5.929" mask="url(#d)"/>
            <path fill="#FEFEFE" d="M43 17.25c0 .138-.115.25-.256.25a.255.255 0 0 1-.244-.174.255.255 0 0 1-.244.174.253.253 0 0 1-.256-.25c0-.138.115-.25.256-.25.114 0 .211.073.244.174a.255.255 0 0 1 .244-.174c.141 0 .256.112.256.25" mask="url(#d)"/>
            <path fill="#FEFEFE" d="M42.302 17.155c-.064 0-.116.042-.116.095s.052.095.116.095c.05 0 .094-.027.11-.066l.01-.029-.01-.029c-.016-.04-.06-.066-.11-.066zm.276.095l.011.03c.015.038.06.065.11.065.063 0 .115-.042.115-.095s-.052-.095-.116-.095c-.05 0-.094.027-.109.066l-.011.03zm.12.25a.34.34 0 0 1-.193-.058l-.005.013-.005-.013a.34.34 0 0 1-.193.058c-.167 0-.302-.112-.302-.25s.135-.25.302-.25c.073 0 .14.021.194.058l.004-.013.005.013a.34.34 0 0 1 .193-.058c.167 0 .302.112.302.25s-.135.25-.302.25z" mask="url(#d)"/>
            <path fill="#EE7D00" d="M42.5 17.25a.25.25 0 1 1-.5 0 .25.25 0 0 1 .5 0" mask="url(#d)"/>
            <path fill="#FEFEFE" d="M42.25 17.171a.079.079 0 1 0 0 .158.079.079 0 0 0 0-.158m0 .329a.25.25 0 1 1 0-.5.25.25 0 0 1 0 .5" mask="url(#d)"/>
            <path fill="#EE7D00" d="M43.5 17.25a.25.25 0 1 1-.5 0 .25.25 0 0 1 .5 0" mask="url(#d)"/>
            <path fill="#FEFEFE" d="M43.25 17.171a.079.079 0 0 0 0 .158.079.079 0 0 0 0-.158m0 .329a.25.25 0 1 1 0-.5.25.25 0 0 1 0 .5" mask="url(#d)"/>
            <path fill="#1D1D1B" d="M42.5 17.252a.25.25 0 1 1-.5-.003.25.25 0 0 1 .5.003" mask="url(#d)"/>
            <path fill="#FEFEFE" d="M42.25 17.2a.05.05 0 0 0-.051.051c0 .054.102.054.102 0a.05.05 0 0 0-.05-.051m0 .3a.25.25 0 1 1-.001-.5.25.25 0 0 1 0 .5" mask="url(#d)"/>
            <path fill="#1D1D1B" d="M42.5 17.252a.25.25 0 1 1-.5-.003.25.25 0 0 1 .5.003" mask="url(#d)"/>
            <path fill="#FEFEFE" d="M42.25 17.2a.05.05 0 0 0-.051.051c0 .054.102.054.102 0a.05.05 0 0 0-.05-.051m0 .3a.25.25 0 1 1-.001-.5.25.25 0 0 1 0 .5" mask="url(#d)"/>
            <path fill="#FFE800" d="M44 20a1 1 0 1 1-2 0 1 1 0 0 1 2 0" mask="url(#d)"/>
            <path fill="#FEFEFE" d="M42 18.135a.866.866 0 0 0 0 1.73.866.866 0 0 0 0-1.73M42 20a1.001 1.001 0 0 1 0-2 1.001 1.001 0 0 1 0 2" mask="url(#d)"/>
            <path fill="#FEFEFE" d="M43 19c0 .552-.224 1-.5 1s-.5-.448-.5-1h1z" mask="url(#d)"/>
            <path fill="#FEFEFE" d="M42.097 19.173c.024.368.195.654.403.654.208 0 .38-.286.403-.654h-.806zM42.5 20c-.276 0-.5-.41-.5-.914V19h1v.086c0 .504-.224.914-.5.914z" mask="url(#d)"/>
            <path fill="#FEFEFE" d="M42.078 19.142c.02.4.201.716.422.716.22 0 .402-.315.422-.716h-.844zM42.5 20c-.276 0-.5-.417-.5-.929V19h1v.071c0 .512-.224.929-.5.929z" mask="url(#d)"/>
            <path fill="#FEFEFE" d="M43 19.25c0 .138-.115.25-.256.25a.255.255 0 0 1-.244-.174.255.255 0 0 1-.244.174.253.253 0 0 1-.256-.25c0-.138.115-.25.256-.25.114 0 .211.073.244.174a.255.255 0 0 1 .244-.174c.141 0 .256.112.256.25" mask="url(#d)"/>
            <path fill="#FEFEFE" d="M42.302 19.154c-.064 0-.116.043-.116.096 0 .053.052.096.116.096.05 0 .094-.028.11-.067l.01-.03-.01-.028c-.016-.04-.06-.067-.11-.067zm.276.096l.011.03c.015.038.06.066.11.066.063 0 .115-.043.115-.096 0-.053-.052-.096-.116-.096-.05 0-.094.028-.109.067l-.011.029zm.12.25a.34.34 0 0 1-.193-.058l-.005.013-.005-.013a.34.34 0 0 1-.193.058c-.167 0-.302-.112-.302-.25s.135-.25.302-.25c.073 0 .14.021.193.058l.005-.013.005.013a.34.34 0 0 1 .193-.058c.167 0 .302.112.302.25s-.135.25-.302.25z" mask="url(#d)"/>
            <path fill="#FEFEFE" d="M42.384 19.398h-.268c-.064 0-.116-.09-.116-.199 0-.11.052-.199.116-.199h.268c.064 0 .116.089.116.199 0 .11-.052.198-.116.198" mask="url(#d)"/>
            <path fill="#FEFEFE" d="M42.384 19.398h-.268c-.064 0-.116-.09-.116-.199 0-.11.052-.199.116-.199h.268c.064 0 .116.089.116.199 0 .11-.052.198-.116.198" mask="url(#d)"/>
            <path fill="#FFE800" d="M44 16a1 1 0 1 1-2 0 1 1 0 0 1 2 0" mask="url(#d)"/>
            <path fill="#FEFEFE" d="M42 14.135a.866.866 0 0 0 0 1.73.866.866 0 0 0 0-1.73M42 16a1.001 1.001 0 0 1 0-2 1.001 1.001 0 0 1 0 2M42.5 16.5c-.276 0-.5-.195-.5-.434 0-.037.034-.066.076-.066.041 0 .075.03.075.066 0 .167.157.303.349.303.192 0 .35-.136.35-.303 0-.037.033-.066.074-.066.042 0 .076.03.076.066 0 .24-.224.434-.5.434" mask="url(#d)"/>
            <path fill="#FEFEFE" d="M43 15c0 .276-.115.5-.256.5-.114 0-.211-.147-.244-.349-.033.202-.13.349-.244.349-.141 0-.256-.224-.256-.5h1z" mask="url(#d)"/>
            <path fill="#FEFEFE" d="M42.157 15.258a.15.15 0 0 0 .133.089.149.149 0 0 0 .134-.09h-.267zm.42 0a.15.15 0 0 0 .133.089.15.15 0 0 0 .133-.09h-.266zm.133.242a.277.277 0 0 1-.21-.098.277.277 0 0 1-.21.098c-.16 0-.29-.143-.29-.319v-.076h.47L42.5 15l.03.105H43v.076c0 .176-.13.319-.29.319z" mask="url(#d)"/>
            <path fill="#EE7D00" d="M42.5 15.25a.25.25 0 1 1-.5 0 .25.25 0 0 1 .5 0" mask="url(#d)"/>
            <path fill="#FEFEFE" d="M42.25 15.171a.079.079 0 1 0 0 .158.079.079 0 0 0 0-.158m0 .329a.25.25 0 1 1 0-.5.25.25 0 0 1 0 .5" mask="url(#d)"/>
            <path fill="#EE7D00" d="M43.5 15.25a.25.25 0 1 1-.5 0 .25.25 0 0 1 .5 0" mask="url(#d)"/>
            <path fill="#FEFEFE" d="M43.25 15.171a.079.079 0 0 0 0 .158.079.079 0 0 0 0-.158m0 .329a.25.25 0 1 1 0-.5.25.25 0 0 1 0 .5" mask="url(#d)"/>
            <path fill="#1D1D1B" d="M42.492 15.247a.246.246 0 0 1-.492 0 .246.246 0 1 1 .492 0" mask="url(#d)"/>
            <path fill="#FEFEFE" d="M42.248 15.25c0 .002.001.002.002.002l.124-.002h-.126zm.002.25a.25.25 0 1 1 0-.5.25.25 0 0 1 0 .5z" mask="url(#d)"/>
            <path fill="#1D1D1B" d="M43.493 15.247a.247.247 0 1 1 0 0" mask="url(#d)"/>
            <path fill="#FEFEFE" d="M43.248 15.25c0 .001 0 .002.002.002l.124-.002h-.126zm.002.25a.25.25 0 1 1 0-.5.25.25 0 0 1 0 .5z" mask="url(#d)"/>
            <path fill="#FFE800" d="M44 23a1 1 0 1 1-2 0 1 1 0 0 1 2 0" mask="url(#d)"/>
            <path fill="#FEFEFE" d="M42 22.135a.866.866 0 0 0 0 1.73.866.866 0 0 0 0-1.73M42 24a1.001 1.001 0 0 1 0-2 1.001 1.001 0 0 1 0 2" mask="url(#d)"/>
            <path fill="#FEFEFE" d="M43 23c0 .552-.224 1-.5 1s-.5-.448-.5-1h1zM42.097 22.173c.024.368.195.654.403.654.208 0 .38-.286.403-.654h-.806zM42.5 23c-.276 0-.5-.41-.5-.914V22h1v.086c0 .504-.224.914-.5.914z" mask="url(#d)"/>
            <path fill="#FEFEFE" d="M42.078 22.142c.02.4.201.716.422.716.22 0 .402-.315.422-.716h-.844zM42.5 23c-.276 0-.5-.417-.5-.929V22h1v.071c0 .512-.224.929-.5.929z" mask="url(#d)"/>
            <path fill="#FEFEFE" d="M42.932 22.265s0-.053-.15-.118c-.09-.04-.345-.147-.539-.147-.127 0-.228.046-.24.186-.03.354.13.814.41.814.279 0 .498-.538.498-.538h.177s.22.538.5.538c.279 0 .439-.46.408-.814-.011-.14-.112-.186-.24-.186-.193 0-.447.107-.538.147-.15.065-.15.118-.15.118h-.136z" mask="url(#d)"/>
            <path fill="#FEFEFE" d="M41.877 22.387h.246l.02.042c.051.114.225.408.404.408.072 0 .136-.037.19-.11a.736.736 0 0 0 .123-.481c-.002-.02-.008-.083-.155-.083h-.001c-.117 0-.282.04-.479.118a.353.353 0 0 0-.093.05v.053h-.264v-.054a.359.359 0 0 0-.093-.049c-.25-.098-.4-.125-.48-.118-.147 0-.153.062-.154.083a.736.736 0 0 0 .121.481c.055.073.12.11.191.11.18 0 .353-.294.404-.407l.02-.043zm.67.613c-.249 0-.442-.33-.504-.45h-.086c-.062.12-.255.45-.504.45-.11 0-.212-.057-.293-.164a.918.918 0 0 1-.156-.608c.008-.085.056-.228.291-.228h.001c.131 0 .312.044.523.127.032.013.109.043.153.095h.056a.404.404 0 0 1 .154-.095c.21-.083.39-.127.522-.127h.001c.235 0 .283.143.291.228a.917.917 0 0 1-.156.608c-.08.107-.182.164-.293.164z" mask="url(#d)"/>
            <path fill="#FEFEFE" d="M41.877 22.387h.246l.02.042c.051.114.225.408.404.408.072 0 .136-.037.19-.11a.736.736 0 0 0 .123-.481c-.002-.02-.008-.083-.155-.083h-.001c-.117 0-.282.04-.479.118a.353.353 0 0 0-.093.05v.053h-.264v-.054a.359.359 0 0 0-.093-.049c-.25-.098-.4-.125-.48-.118-.147 0-.153.062-.154.083a.736.736 0 0 0 .121.481c.055.073.12.11.191.11.18 0 .353-.294.404-.407l.02-.043zm.67.613c-.249 0-.442-.33-.504-.45h-.086c-.062.12-.255.45-.504.45-.11 0-.212-.057-.293-.164a.918.918 0 0 1-.156-.608c.008-.085.056-.228.291-.228h.001c.131 0 .312.044.523.127.032.013.109.043.153.095h.056a.404.404 0 0 1 .154-.095c.21-.083.39-.127.522-.127h.001c.235 0 .283.143.291.228a.917.917 0 0 1-.156.608c-.08.107-.182.164-.293.164z" mask="url(#d)"/>
            <path fill="#1D1D1B" d="M43.828 22.838c-.075.108-.162.162-.259.162-.245 0-.484-.443-.556-.613l-.013-.05v-.088a.504.504 0 0 1 .122-.07c.27-.115.507-.179.668-.179.196 0 .204.087.206.115.022.256-.045.546-.168.723" mask="url(#d)"/>
            <path fill="#FEFEFE" d="M43.162 22.358l.006.02c.058.128.238.424.39.424.058 0 .11-.032.157-.097a.807.807 0 0 0 .121-.498c-.004.002-.03-.009-.093-.009-.127 0-.316.05-.534.139a.581.581 0 0 0-.047.02m.396.643c-.294 0-.527-.521-.537-.543L43 22.369v-.125l.037-.029a.512.512 0 0 1 .12-.066c.235-.096.443-.149.586-.149.158 0 .243.061.253.181.021.234-.042.492-.16.656-.078.107-.174.163-.278.163" mask="url(#d)"/>
            <path fill="#1D1D1B" d="M42.172 22.838c.075.108.162.162.26.162.244 0 .483-.443.555-.613l.013-.05v-.088a.504.504 0 0 0-.122-.07c-.27-.115-.507-.179-.668-.179-.196 0-.204.087-.206.115-.022.256.045.546.168.723" mask="url(#d)"/>
            <path fill="#FEFEFE" d="M42.257 22.198c-.08 0-.1.018-.1.018a.84.84 0 0 0 .128.489c.047.065.099.097.157.097.153 0 .333-.296.396-.44v-.003a.556.556 0 0 0-.047-.022c-.218-.09-.408-.139-.534-.139m.185.802c-.104 0-.2-.056-.277-.163a1.02 1.02 0 0 1-.16-.657c.005-.081.054-.18.252-.18.143 0 .351.053.585.149a.52.52 0 0 1 .121.066l.037.03-.004.156-.011.04c-.015.038-.249.559-.543.559" mask="url(#d)"/>
            <path fill="#1D1D1B" d="M55 27.5h.5V27H55z" mask="url(#d)"/>
            <path fill="#FEFEFE" d="M55.22 27.78h.56v-.56h-.56v.56zM55 28h1v-1h-1v1z" mask="url(#d)"/>
            <path fill="#1D1D1B" d="M54 27.5h.5V27H54z" mask="url(#d)"/>
            <path fill="#FEFEFE" d="M54.22 27.78h.56v-.56h-.56v.56zM54 28h1v-1h-1v1z" mask="url(#d)"/>
            <path fill="#1D1D1B" d="M54 27.5h.5V27H54z" mask="url(#d)"/>
            <path fill="#FEFEFE" d="M54.22 27.78h.559v-.56h-.558v.56zM54 28h1v-1h-1v1z" mask="url(#d)"/>
            <path fill="#1D1D1B" d="M26 51.715A2.283 2.283 0 0 1 23.72 54H2.28A2.283 2.283 0 0 1 0 51.715V8.285A2.283 2.283 0 0 1 2.28 6h21.44C24.978 6 26 7.023 26 8.286v43.429z" mask="url(#d)"/>
            <path fill="#FEFEFE" d="M2.341 6.148c-1.21 0-2.193.99-2.193 2.205v43.294c0 1.216.984 2.205 2.193 2.205h21.317c1.21 0 2.194-.99 2.194-2.205V8.353a2.202 2.202 0 0 0-2.194-2.205H2.341zM23.658 54H2.341A2.35 2.35 0 0 1 0 51.647V8.353A2.35 2.35 0 0 1 2.341 6h21.317A2.35 2.35 0 0 1 26 8.353v43.294A2.35 2.35 0 0 1 23.658 54z" mask="url(#d)"/>
            <path fill="#FEFEFE" d="M2 46h22V11H2z" mask="url(#d)"/>
            <path fill="#FEFEFE" d="M1.143 45.854h21.714V11.146H1.143v34.708zM1 46h22V11H1v35z" mask="url(#d)"/>
            <path fill="#D9D9D9" d="M24 24v22H2v-6.363a26.303 26.303 0 0 1 5.994-8.7 25.206 25.206 0 0 1 7.324-4.906A24.383 24.383 0 0 1 24 24" mask="url(#d)"/>
            <path fill="#FEFEFE" d="M1.143 45.852h21.714V24.155c-2.952.146-5.82.822-8.526 2.008a24.906 24.906 0 0 0-7.256 4.859 25.89 25.89 0 0 0-5.932 8.6v6.23zM23 46H1l.006-6.423a26.034 26.034 0 0 1 5.972-8.664 25.044 25.044 0 0 1 7.298-4.887 24.26 24.26 0 0 1 8.65-2.023L23 24v22z" mask="url(#d)"/>
            <path fill="#EE7D00" d="M11 52h4v-4h-4z" mask="url(#d)"/>
            <path fill="#FEFEFE" d="M11.143 51.857h3.714v-3.714h-3.714v3.714zM11 52h4v-4h-4v4z" mask="url(#d)"/>
            <path fill="#6AC4EF" d="M3 25h13.805c.66 0 1.195-.544 1.195-1.215v-8.57c0-.67-.535-1.215-1.195-1.215H5.928c-.66 0-1.195.544-1.195 1.216v8.569S4.673 24.515 3 25" mask="url(#d)"/>
            <path fill="#FEFEFE" d="M2.947 24.853H15.78c.595 0 1.079-.505 1.079-1.126v-8.454c0-.62-.484-1.126-1.079-1.126H5.32c-.595 0-1.079.505-1.079 1.126v8.454c-.002.034-.066.648-1.294 1.126M15.78 25H2l.485-.144c1.544-.46 1.615-1.128 1.615-1.135v-8.448c0-.702.547-1.273 1.22-1.273h10.46c.673 0 1.22.571 1.22 1.273v8.454C17 24.43 16.453 25 15.78 25" mask="url(#d)"/>
            <path fill="#F8AF00" d="M14 26c-2.595.97-4.96 2.33-7 4v-3.009c0-.547.501-.991 1.119-.991H14z" mask="url(#d)"/>
            <path fill="#FEFEFE" d="M8.122 26.145c-.547 0-.992.497-.992 1.108v3.417c1.853-1.886 3.948-3.407 6.234-4.525H8.122zM7 31v-3.747C7 26.562 7.503 26 8.122 26H14l-.296.14c-2.43 1.144-4.649 2.742-6.595 4.748L7 31z" mask="url(#d)"/>
            <path fill="#EE7D00" d="M22 37H8.195C7.535 37 7 36.456 7 35.785v-4.882A25.774 25.774 0 0 1 14.475 26h4.596c.661 0 1.196.544 1.196 1.215v8.57S20.326 36.514 22 37" mask="url(#d)"/>
            <path fill="#FEFEFE" d="M7.141 30.943v4.784c0 .62.484 1.126 1.079 1.126h12.832c-1.228-.478-1.29-1.091-1.293-1.12v-8.46c0-.621-.485-1.126-1.08-1.126h-4.405a24.59 24.59 0 0 0-7.133 4.796zM22 37H8.22C7.547 37 7 36.43 7 35.727V30.88l.023-.022a24.734 24.734 0 0 1 7.209-4.851l.027-.006h4.42c.673 0 1.22.57 1.22 1.272v8.455c.001 0 .086.673 1.616 1.129L22 37z" mask="url(#d)"/>
            <path fill="#FFE800" d="M7 18a1 1 0 1 1-2 0 1 1 0 0 1 2 0" mask="url(#d)"/>
            <path fill="#FEFEFE" d="M6 16.135a.866.866 0 0 0 0 1.73.866.866 0 0 0 0-1.73M6 18a1.001 1.001 0 0 1 0-2 1.001 1.001 0 0 1 0 2" mask="url(#d)"/>
            <path fill="#FEFEFE" d="M6.5 18c-.276 0-.5-.417-.5-.929 0-.04.017-.071.038-.071.021 0 .038.032.038.071 0 .434.19.787.424.787.234 0 .424-.353.424-.787 0-.04.017-.071.038-.071.02 0 .038.032.038.071 0 .512-.224.929-.5.929" mask="url(#d)"/>
            <path fill="#FEFEFE" d="M7 17.25c0 .138-.115.25-.256.25a.255.255 0 0 1-.244-.174.255.255 0 0 1-.244.174.253.253 0 0 1-.256-.25c0-.138.115-.25.256-.25.114 0 .211.073.244.174A.255.255 0 0 1 6.744 17c.141 0 .256.112.256.25" mask="url(#d)"/>
            <path fill="#FEFEFE" d="M6.302 17.155c-.064 0-.116.042-.116.095s.052.095.116.095c.05 0 .094-.027.11-.066l.01-.029-.01-.029c-.016-.04-.06-.066-.11-.066zm.276.095l.011.03c.015.038.06.065.11.065.063 0 .115-.042.115-.095s-.052-.095-.116-.095c-.05 0-.094.027-.109.066l-.011.03zm.12.25a.34.34 0 0 1-.193-.058l-.005.013-.005-.013a.34.34 0 0 1-.193.058c-.167 0-.302-.112-.302-.25s.135-.25.302-.25c.073 0 .14.021.194.058l.004-.013.005.013A.34.34 0 0 1 6.698 17c.167 0 .302.112.302.25s-.135.25-.302.25z" mask="url(#d)"/>
            <path fill="#EE7D00" d="M6.5 17.25a.25.25 0 1 1-.5 0 .25.25 0 0 1 .5 0" mask="url(#d)"/>
            <path fill="#FEFEFE" d="M6.25 17.171a.079.079 0 1 0 0 .158.079.079 0 0 0 0-.158m0 .329a.25.25 0 1 1 0-.5.25.25 0 0 1 0 .5" mask="url(#d)"/>
            <path fill="#EE7D00" d="M7.5 17.25a.25.25 0 1 1-.5 0 .25.25 0 0 1 .5 0" mask="url(#d)"/>
            <path fill="#FEFEFE" d="M7.25 17.171a.079.079 0 1 0 0 .158.079.079 0 0 0 0-.158m0 .329a.25.25 0 1 1 0-.5.25.25 0 0 1 0 .5" mask="url(#d)"/>
            <path fill="#1D1D1B" d="M6.5 17.252a.25.25 0 1 1-.5-.003.25.25 0 0 1 .5.003" mask="url(#d)"/>
            <path fill="#FEFEFE" d="M6.25 17.2a.05.05 0 0 0-.051.051c0 .055.102.055.102 0a.05.05 0 0 0-.051-.051m0 .3a.25.25 0 1 1 0-.5.25.25 0 0 1 0 .5" mask="url(#d)"/>
            <path fill="#1D1D1B" d="M6.5 17.252a.25.25 0 1 1-.5-.003.25.25 0 0 1 .5.003" mask="url(#d)"/>
            <path fill="#FEFEFE" d="M6.25 17.2a.05.05 0 0 0-.051.051c0 .054.102.054.102 0a.05.05 0 0 0-.05-.051m0 .3a.25.25 0 1 1-.001-.5.25.25 0 0 1 0 .5" mask="url(#d)"/>
            <path fill="#FFE800" d="M7 20a1 1 0 1 1-2 0 1 1 0 0 1 2 0" mask="url(#d)"/>
            <path fill="#FEFEFE" d="M6 18.135a.866.866 0 0 0 0 1.73.866.866 0 0 0 0-1.73M6 20a1.001 1.001 0 0 1 0-2 1.001 1.001 0 0 1 0 2" mask="url(#d)"/>
            <path fill="#FEFEFE" d="M7 19c0 .552-.224 1-.5 1s-.5-.448-.5-1h1z" mask="url(#d)"/>
            <path fill="#FEFEFE" d="M6.097 19.173c.024.368.195.654.403.654.208 0 .38-.286.403-.654h-.806zM6.5 20c-.276 0-.5-.41-.5-.914V19h1v.086c0 .504-.224.914-.5.914z" mask="url(#d)"/>
            <path fill="#FEFEFE" d="M6.078 19.142c.02.4.201.716.422.716.22 0 .402-.315.422-.716h-.844zM6.5 20c-.276 0-.5-.417-.5-.929V19h1v.071c0 .512-.224.929-.5.929z" mask="url(#d)"/>
            <path fill="#FEFEFE" d="M7 19.25c0 .138-.115.25-.256.25a.255.255 0 0 1-.244-.174.255.255 0 0 1-.244.174.253.253 0 0 1-.256-.25c0-.138.115-.25.256-.25.114 0 .211.073.244.174A.255.255 0 0 1 6.744 19c.141 0 .256.112.256.25" mask="url(#d)"/>
            <path fill="#FEFEFE" d="M6.302 19.154c-.064 0-.116.043-.116.096 0 .053.052.096.116.096.05 0 .094-.028.11-.067l.01-.03-.01-.028c-.016-.04-.06-.067-.11-.067zm.276.096l.011.03c.015.038.06.066.11.066.063 0 .115-.043.115-.096 0-.053-.052-.096-.116-.096-.05 0-.094.028-.109.067l-.011.029zm.12.25a.34.34 0 0 1-.193-.058l-.005.013-.005-.013a.34.34 0 0 1-.193.058c-.167 0-.302-.112-.302-.25s.135-.25.302-.25c.073 0 .14.021.193.058l.005-.013.005.013A.34.34 0 0 1 6.698 19c.167 0 .302.112.302.25s-.135.25-.302.25z" mask="url(#d)"/>
            <path fill="#FEFEFE" d="M6.384 19.398h-.268c-.064 0-.116-.09-.116-.199 0-.11.052-.199.116-.199h.268c.064 0 .116.089.116.199 0 .11-.052.198-.116.198" mask="url(#d)"/>
            <path fill="#FEFEFE" d="M6.384 19.398h-.268c-.064 0-.116-.09-.116-.199 0-.11.052-.199.116-.199h.268c.064 0 .116.089.116.199 0 .11-.052.198-.116.198" mask="url(#d)"/>
            <path fill="#FFE800" d="M7 16a1 1 0 1 1-2 0 1 1 0 0 1 2 0" mask="url(#d)"/>
            <path fill="#FEFEFE" d="M6 14.135a.866.866 0 0 0 0 1.73.866.866 0 0 0 0-1.73M6 16a1.001 1.001 0 0 1 0-2 1.001 1.001 0 0 1 0 2M6.5 16.5c-.276 0-.5-.195-.5-.434 0-.037.034-.066.076-.066.041 0 .075.03.075.066 0 .167.157.303.349.303.192 0 .35-.136.35-.303 0-.037.033-.066.074-.066.042 0 .076.03.076.066 0 .24-.224.434-.5.434" mask="url(#d)"/>
            <path fill="#FEFEFE" d="M7 15c0 .276-.115.5-.256.5-.114 0-.211-.147-.244-.349-.033.202-.13.349-.244.349-.141 0-.256-.224-.256-.5h1z" mask="url(#d)"/>
            <path fill="#FEFEFE" d="M6.157 15.258a.15.15 0 0 0 .133.089.149.149 0 0 0 .134-.09h-.267zm.42 0a.15.15 0 0 0 .133.089.15.15 0 0 0 .133-.09h-.266zm.133.242a.277.277 0 0 1-.21-.098.277.277 0 0 1-.21.098c-.16 0-.29-.143-.29-.319v-.076h.47L6.5 15l.03.105H7v.076c0 .176-.13.319-.29.319z" mask="url(#d)"/>
            <path fill="#EE7D00" d="M6.5 15.25a.25.25 0 1 1-.5 0 .25.25 0 0 1 .5 0" mask="url(#d)"/>
            <path fill="#FEFEFE" d="M6.25 15.171a.079.079 0 1 0 0 .158.079.079 0 0 0 0-.158m0 .329a.25.25 0 1 1 0-.5.25.25 0 0 1 0 .5" mask="url(#d)"/>
            <path fill="#EE7D00" d="M7.5 15.25a.25.25 0 1 1-.5 0 .25.25 0 0 1 .5 0" mask="url(#d)"/>
            <path fill="#FEFEFE" d="M7.25 15.171a.079.079 0 1 0 0 .158.079.079 0 0 0 0-.158m0 .329a.25.25 0 1 1 0-.5.25.25 0 0 1 0 .5" mask="url(#d)"/>
            <path fill="#1D1D1B" d="M6.492 15.247a.246.246 0 0 1-.492 0 .246.246 0 1 1 .492 0" mask="url(#d)"/>
            <path fill="#FEFEFE" d="M6.248 15.25c0 .002.001.002.002.002l.124-.002h-.126zm.002.25a.25.25 0 1 1 0-.5.25.25 0 0 1 0 .5z" mask="url(#d)"/>
            <path fill="#1D1D1B" d="M7.493 15.247a.247.247 0 1 1 0 0" mask="url(#d)"/>
            <path fill="#FEFEFE" d="M6.248 15.25s0 .002.002.002l.124-.002h-.126zm.002.25a.25.25 0 1 1 0-.5.25.25 0 0 1 0 .5z" mask="url(#d)"/>
            <path fill="#FFE800" d="M7 23a1 1 0 1 1-2 0 1 1 0 0 1 2 0" mask="url(#d)"/>
            <path fill="#FEFEFE" d="M6 22.135a.866.866 0 0 0 0 1.73.866.866 0 0 0 0-1.73M6 24a1.001 1.001 0 0 1 0-2 1.001 1.001 0 0 1 0 2" mask="url(#d)"/>
            <path fill="#FEFEFE" d="M7 23c0 .552-.224 1-.5 1s-.5-.448-.5-1h1zM6.097 22.173c.024.368.195.654.403.654.208 0 .38-.286.403-.654h-.806zM6.5 23c-.276 0-.5-.41-.5-.914V22h1v.086c0 .504-.224.914-.5.914z" mask="url(#d)"/>
            <path fill="#FEFEFE" d="M6.078 22.142c.02.4.201.716.422.716.22 0 .402-.315.422-.716h-.844zM6.5 23c-.276 0-.5-.417-.5-.929V22h1v.071c0 .512-.224.929-.5.929z" mask="url(#d)"/>
            <path fill="#FEFEFE" d="M5.932 22.265s0-.053-.15-.118c-.09-.04-.345-.147-.54-.147-.126 0-.227.046-.238.186-.03.354.129.814.408.814.28 0 .5-.538.5-.538h.176s.22.538.5.538c.279 0 .439-.46.408-.814-.011-.14-.112-.186-.24-.186-.193 0-.447.107-.538.147-.15.065-.15.118-.15.118h-.136z" mask="url(#d)"/>
            <path fill="#FEFEFE" d="M5.877 22.387h.246l.02.042c.051.114.225.408.404.408.071 0 .136-.037.19-.11a.736.736 0 0 0 .123-.481c-.002-.02-.008-.083-.155-.083h-.001c-.117 0-.282.04-.479.118a.353.353 0 0 0-.093.05v.053h-.264v-.054a.358.358 0 0 0-.093-.049 1.429 1.429 0 0 0-.479-.118c-.148 0-.154.062-.155.083a.736.736 0 0 0 .121.481c.055.073.12.11.191.11.18 0 .353-.294.404-.407l.02-.043zm.67.613c-.249 0-.442-.33-.504-.45h-.086c-.062.12-.255.45-.504.45-.11 0-.212-.057-.293-.164a.918.918 0 0 1-.156-.608c.008-.085.056-.228.291-.228h.001c.131 0 .312.044.523.127.032.013.109.043.153.095h.056a.404.404 0 0 1 .154-.095c.21-.083.39-.127.522-.127h.001c.235 0 .283.143.291.228a.917.917 0 0 1-.156.608c-.08.107-.182.164-.293.164z" mask="url(#d)"/>
            <path fill="#FEFEFE" d="M5.877 22.387h.246l.02.042c.051.114.225.408.404.408.071 0 .136-.037.19-.11a.736.736 0 0 0 .123-.481c-.002-.02-.008-.083-.155-.083h-.001c-.117 0-.282.04-.479.118a.353.353 0 0 0-.093.05v.053h-.264v-.054a.358.358 0 0 0-.093-.049 1.429 1.429 0 0 0-.479-.118c-.148 0-.154.062-.155.083a.736.736 0 0 0 .121.481c.055.073.12.11.191.11.18 0 .353-.294.404-.407l.02-.043zm.67.613c-.249 0-.442-.33-.504-.45h-.086c-.062.12-.255.45-.504.45-.11 0-.212-.057-.293-.164a.918.918 0 0 1-.156-.608c.008-.085.056-.228.291-.228h.001c.131 0 .312.044.523.127.032.013.109.043.153.095h.056a.404.404 0 0 1 .154-.095c.21-.083.39-.127.522-.127h.001c.235 0 .283.143.291.228a.917.917 0 0 1-.156.608c-.08.107-.182.164-.293.164z" mask="url(#d)"/>
            <path fill="#1D1D1B" d="M7.828 22.838c-.075.108-.162.162-.26.162-.244 0-.483-.443-.555-.613L7 22.337v-.088a.505.505 0 0 1 .122-.07c.27-.115.507-.179.668-.179.196 0 .204.087.206.115.022.256-.045.546-.168.723" mask="url(#d)"/>
            <path fill="#FEFEFE" d="M6.162 22.358l.006.02c.057.128.237.424.39.424.058 0 .11-.032.157-.097a.806.806 0 0 0 .121-.498c-.005.002-.03-.009-.093-.009-.127 0-.316.05-.535.139a.664.664 0 0 0-.046.02m.396.643c-.295 0-.527-.521-.537-.543L6 22.369v-.125l.037-.029a.516.516 0 0 1 .12-.066c.235-.096.443-.149.586-.149.158 0 .243.061.253.181a1.02 1.02 0 0 1-.16.656c-.078.107-.174.163-.278.163" mask="url(#d)"/>
            <path fill="#1D1D1B" d="M6.172 22.838c.075.108.162.162.259.162.245 0 .484-.443.556-.613l.013-.05v-.088a.504.504 0 0 0-.122-.07C6.608 22.064 6.37 22 6.21 22c-.196 0-.204.087-.206.115-.022.256.045.546.168.723" mask="url(#d)"/>
            <path fill="#FEFEFE" d="M5.257 22.198c-.08 0-.1.018-.1.018a.84.84 0 0 0 .128.489c.047.065.099.097.157.097.153 0 .333-.296.396-.44v-.003a.556.556 0 0 0-.047-.022c-.218-.09-.408-.139-.534-.139m.185.802c-.104 0-.2-.056-.277-.163a1.02 1.02 0 0 1-.16-.657c.005-.081.054-.18.252-.18.143 0 .351.053.585.149a.52.52 0 0 1 .121.066l.037.03-.004.156-.011.04c-.015.038-.249.559-.543.559" mask="url(#d)"/>
            <path fill="#1D1D1B" d="M19 27.5h.5V27H19z" mask="url(#d)"/>
            <path fill="#FEFEFE" d="M19.22 27.78h.56v-.56h-.56v.56zM19 28h1v-1h-1v1z" mask="url(#d)"/>
            <path fill="#1D1D1B" d="M18 27.5h.5V27H18z" mask="url(#d)"/>
            <path fill="#FEFEFE" d="M18.22 27.78h.56v-.56h-.56v.56zM18 28h1v-1h-1v1z" mask="url(#d)"/>
            <path fill="#1D1D1B" d="M18 27.5h.5V27H18z" mask="url(#d)"/>
            <path fill="#FEFEFE" d="M18.22 27.78h.559v-.56h-.558v.56zM18 28h1v-1h-1v1z" mask="url(#d)"/>
            <path fill="#1D1D1B" d="M44 45.715A2.283 2.283 0 0 1 41.72 48H20.28A2.283 2.283 0 0 1 18 45.715V2.285A2.283 2.283 0 0 1 20.28 0h21.44C42.978 0 44 1.023 44 2.286v43.429z" mask="url(#d)"/>
            <path fill="#FEFEFE" d="M20.341.148c-1.21 0-2.193.99-2.193 2.205v43.294c0 1.216.984 2.205 2.193 2.205h21.317c1.21 0 2.194-.99 2.194-2.205V2.353A2.202 2.202 0 0 0 41.658.148H20.341zM41.658 48H20.341A2.35 2.35 0 0 1 18 45.647V2.353A2.35 2.35 0 0 1 20.341 0h21.317A2.35 2.35 0 0 1 44 2.353v43.294A2.35 2.35 0 0 1 41.658 48z" mask="url(#d)"/>
            <path fill="#FEFEFE" d="M19 39h22V4H19z" mask="url(#d)"/>
            <path fill="#D9D9D9" d="M41 17v22H19v-6.363a26.303 26.303 0 0 1 5.994-8.7 25.203 25.203 0 0 1 7.324-4.906A24.383 24.383 0 0 1 41 17" mask="url(#d)"/>
            <path fill="#EE7D00" d="M29 45h4v-4h-4z" mask="url(#d)"/>
            <path fill="#6AC4EF" d="M20 19h13.805c.66 0 1.195-.544 1.195-1.215v-8.57C35 8.546 34.465 8 33.805 8H22.928c-.66 0-1.195.544-1.195 1.216v8.569S21.673 18.514 20 19" mask="url(#d)"/>
            <path fill="#F8AF00" d="M33 19c-2.595.97-4.96 2.33-7 4v-3.009c0-.547.501-.991 1.119-.991H33z" mask="url(#d)"/>
            <path fill="#EE7D00" d="M41 30H27.195c-.66 0-1.195-.544-1.195-1.215v-4.882A25.768 25.768 0 0 1 33.475 19h4.596c.661 0 1.196.544 1.196 1.215v8.57S39.326 29.514 41 30" mask="url(#d)"/>
            <path fill="#FFE800" d="M26 11a1 1 0 1 1-2 0 1 1 0 0 1 2 0" mask="url(#d)"/>
            <path fill="#1D1D1B" d="M24.5 12c-.276 0-.5-.417-.5-.929 0-.04.017-.071.038-.071.021 0 .038.032.038.071 0 .434.19.787.424.787.234 0 .424-.353.424-.787 0-.04.017-.071.038-.071.02 0 .038.032.038.071 0 .512-.224.929-.5.929" mask="url(#d)"/>
            <path fill="#FEFEFE" d="M26 11.25c0 .138-.115.25-.256.25a.255.255 0 0 1-.244-.174.255.255 0 0 1-.244.174.253.253 0 0 1-.256-.25c0-.138.115-.25.256-.25.114 0 .211.073.244.174a.255.255 0 0 1 .244-.174c.141 0 .256.112.256.25" mask="url(#d)"/>
            <path fill="#EE7D00" d="M24.5 11.25a.25.25 0 1 1-.5 0 .25.25 0 0 1 .5 0M25.5 11.25a.25.25 0 1 1-.5 0 .25.25 0 0 1 .5 0" mask="url(#d)"/>
            <path fill="#1D1D1B" d="M25.5 11.252a.25.25 0 1 1-.5-.003.25.25 0 0 1 .5.003" mask="url(#d)"/>
            <path fill="#1D1D1B" d="M25.5 11.252a.25.25 0 1 1-.5-.003.25.25 0 0 1 .5.003" mask="url(#d)"/>
            <path fill="#FFE800" d="M26 13a1 1 0 1 1-2 0 1 1 0 0 1 2 0" mask="url(#d)"/>
            <path fill="#FEFEFE" d="M25 13c0 .552-.224 1-.5 1s-.5-.448-.5-1h1z" mask="url(#d)"/>
            <path fill="#1D1D1B" d="M24.078 13.142c.02.4.201.716.422.716.22 0 .402-.315.422-.716h-.844zM24.5 14c-.276 0-.5-.417-.5-.929V13h1v.071c0 .512-.224.929-.5.929z" mask="url(#d)"/>
            <path fill="#FEFEFE" d="M26 13.25c0 .138-.115.25-.256.25a.255.255 0 0 1-.244-.174.255.255 0 0 1-.244.174.253.253 0 0 1-.256-.25c0-.138.115-.25.256-.25.114 0 .211.073.244.174a.255.255 0 0 1 .244-.174c.141 0 .256.112.256.25" mask="url(#d)"/>
            <path fill="#1D1D1B" d="M25.384 13.398h-.268c-.064 0-.116-.09-.116-.199 0-.11.052-.199.116-.199h.268c.064 0 .116.089.116.199 0 .11-.052.199-.116.199" mask="url(#d)"/>
            <path fill="#1D1D1B" d="M25.384 13.398h-.268c-.064 0-.116-.09-.116-.199 0-.11.052-.199.116-.199h.268c.064 0 .116.089.116.199 0 .11-.052.199-.116.199" mask="url(#d)"/>
            <path fill="#FFE800" d="M26 9a1 1 0 1 1-2 0 1 1 0 0 1 2 0" mask="url(#d)"/>
            <path fill="#1D1D1B" d="M25.5 9.5c-.276 0-.5-.195-.5-.434 0-.037.034-.066.076-.066.041 0 .075.03.075.066 0 .167.157.303.349.303.192 0 .35-.136.35-.303 0-.037.033-.066.074-.066.042 0 .076.03.076.066 0 .24-.224.434-.5.434" mask="url(#d)"/>
            <path fill="#FEFEFE" d="M26 9c0 .276-.115.5-.256.5-.114 0-.211-.147-.244-.349-.033.202-.13.349-.244.349-.141 0-.256-.224-.256-.5h1z" mask="url(#d)"/>
            <path fill="#EE7D00" d="M24.5 9.25a.25.25 0 1 1-.5 0 .25.25 0 0 1 .5 0M25.5 9.25a.25.25 0 1 1-.5 0 .25.25 0 0 1 .5 0" mask="url(#d)"/>
            <path fill="#1D1D1B" d="M25.492 9.247a.246.246 0 0 1-.492 0 .246.246 0 1 1 .492 0" mask="url(#d)"/>
            <path fill="#1D1D1B" d="M25.493 9.247a.247.247 0 1 1-.494 0 .247.247 0 0 1 .494 0" mask="url(#d)"/>
            <path fill="#FFE800" d="M26 15a1 1 0 1 1-2 0 1 1 0 0 1 2 0" mask="url(#d)"/>
            <path fill="#FEFEFE" d="M25 15c0 .552-.224 1-.5 1s-.5-.448-.5-1h1z" mask="url(#d)"/>
            <path fill="#1D1D1B" d="M24.078 15.142c.02.4.201.716.422.716.22 0 .402-.315.422-.716h-.844zM24.5 16c-.276 0-.5-.417-.5-.929V15h1v.071c0 .512-.224.929-.5.929z" mask="url(#d)"/>
            <path fill="#FEFEFE" d="M24.932 15.265s0-.053-.15-.118c-.09-.04-.345-.147-.54-.147-.126 0-.227.046-.238.186-.03.354.129.814.408.814.28 0 .5-.538.5-.538h.176s.22.538.5.538c.279 0 .439-.46.408-.814-.011-.14-.112-.186-.24-.186-.193 0-.447.107-.538.147-.15.065-.15.118-.15.118h-.136z" mask="url(#d)"/>
            <path fill="#FEFEFE" d="M24.877 15.387h.246l.02.042c.051.114.225.408.404.408.072 0 .136-.037.19-.11a.736.736 0 0 0 .123-.481c-.002-.02-.008-.083-.155-.083h-.001c-.117 0-.282.04-.479.118a.353.353 0 0 0-.093.05v.053h-.264v-.054a.359.359 0 0 0-.093-.049 1.434 1.434 0 0 0-.479-.118c-.143-.002-.154.062-.155.083a.736.736 0 0 0 .121.481c.055.073.12.11.191.11.18 0 .353-.294.404-.407l.02-.043zm.67.613c-.249 0-.442-.33-.504-.45h-.086c-.062.12-.255.45-.504.45-.11 0-.212-.057-.293-.164a.918.918 0 0 1-.156-.608c.008-.085.056-.228.291-.228h.001c.131 0 .312.044.523.127.032.012.109.043.153.094h.056a.404.404 0 0 1 .154-.094c.21-.083.39-.127.522-.127h.001c.235 0 .283.143.291.228a.917.917 0 0 1-.156.608c-.08.107-.182.164-.293.164z" mask="url(#d)"/>
            <path fill="#1D1D1B" d="M25.828 15.838c-.075.107-.162.162-.259.162-.245 0-.484-.442-.556-.613l-.013-.05v-.088a.514.514 0 0 1 .122-.07c.27-.115.507-.179.668-.179.196 0 .204.087.206.115.022.256-.045.546-.168.723" mask="url(#d)"/>
            <path fill="#1D1D1B" d="M24.172 15.838c.075.107.162.162.26.162.244 0 .483-.442.555-.613l.013-.05v-.088a.512.512 0 0 0-.122-.07c-.27-.115-.507-.179-.668-.179-.196 0-.204.087-.206.115-.022.256.045.546.168.723M36 21.5h.5V21H36z" mask="url(#d)"/>
            <path fill="#1D1D1B" d="M36 21.5h.5V21H36zM35 21.5h.5V21H35z" mask="url(#d)"/>
        </g>
    </g>
</svg>
