<svg xmlns="http://www.w3.org/2000/svg" xmlns:xlink="http://www.w3.org/1999/xlink" width="62" height="70" viewBox="0 0 62 70">
    <defs>
        <path id="a" d="M.101.07h36.92v31.985H.1z"/>
        <path id="c" d="M.038.007h16.844v14.319H.038z"/>
        <path id="e" d="M.004.089h15.62v17.783H.005z"/>
        <path id="g" d="M.038.059h.803V.93H.038z"/>
        <path id="i" d="M.056.088h.427v.71H.056z"/>
        <path id="k" d="M.027.058h.775v.428H.027z"/>
    </defs>
    <g fill="none" fill-rule="evenodd">
        <path fill="#FFF" d="M15.087.14c.993.817 2.098 1.48 3.13 2.242.393.29-.098.863-.488.576-1.033-.762-2.138-1.426-3.13-2.242-.377-.31.112-.885.488-.575M10.673 6.189c1.59.442 3.06 1.147 4.43 2.063.404.27-.089.844-.49.576a14.17 14.17 0 0 0-4.071-1.896c-.465-.13-.338-.874.131-.743M7.835 11.82c1.498.275 2.922.82 4.383 1.236.463.133.336.877-.132.744-1.46-.417-2.885-.961-4.383-1.236-.478-.088-.347-.832.132-.744M6.167 16.739l3.893.69c.483.085.351.828-.132.743l-3.893-.69c-.482-.085-.35-.829.132-.743M7.045 23.848c.968-.281 1.96-.442 2.956-.589.484-.071.55.681.071.752-.931.137-1.86.283-2.765.545-.467.135-.73-.573-.262-.708M6.372 29.866c1.241-.477 2.44-1.054 3.681-1.53.456-.176.654.554.203.727-1.24.476-2.44 1.054-3.681 1.53-.456.175-.653-.555-.203-.727M8.734 35.955c1.022-.45 2.038-.929 2.96-1.563.402-.275.835.343.433.62-.973.669-2.052 1.177-3.131 1.652-.447.196-.705-.514-.262-.709"/>
        <g transform="translate(.114 37.77)">
            <mask id="b" fill="#fff">
                <use xlink:href="#a"/>
            </mask>
            <path fill="#724F47" d="M36.878 12.99c.245-.307.115-1.355.046-1.737-.046-.255-.652-.728-.794-1.062-.252-.595-.343-1.25-.52-1.87-.575-2.025-1.336-4.493-2.64-6.392-.48-.7-1.033-1.32-1.68-1.813-.416-.319-1.27 1.163-1.522 1.342-1.116.797-1.493.438-2.826.64-3.875.583-5.8 3.352-7.893 6.312C18.032 9.848 8.243 16.963.101 22.957l9.744 12.426C16.78 29.259 22.66 22.288 29.95 16.584c.828-.647 6.3-2.805 6.928-3.593" mask="url(#b)"/>
        </g>
        <path fill="#F5B596" d="M35.026 50.449c.112-.036.218-.076.323-.116.086-.075.172-.154.26-.237l-.583.353zM31.336 40.106c.139-.046.27-.096.399-.146.104-.096.209-.197.315-.303l-.714.45z"/>
        <path fill="#DFA289" d="M26.585 43.763l.418.098a2.091 2.091 0 0 0-.344-.105.519.519 0 0 0-.074.007"/>
        <g transform="translate(0 55.499)">
            <mask id="d" fill="#fff">
                <use xlink:href="#c"/>
            </mask>
            <path fill="#492191" d="M15.81 10.7c-1.148-4.573-4.967-5.173-7.437-8.783L7.33.05C3.844-.42-1.921 3.144-3.89 4.463L4.9 25.964c3.836-3.087 6.316-5.713 9.623-9.214 3.785-4.007 2.065-2.953 1.287-6.05" mask="url(#d)"/>
        </g>
        <g transform="translate(4.576 51.953)">
            <mask id="f" fill="#fff">
                <use xlink:href="#e"/>
            </mask>
            <path fill="#111425" d="M14.212 12.112c-1.003-1.18-1.927-2.396-2.86-3.635C10.411 7.23 9.52 5.944 8.59 4.69c-.703-.95-1.597-1.822-2.237-2.806C5.89 1.173 5.62.474 4.723.158 3.333-.332.657 1.909.143 3.136c-.604 1.443.904 3.018 1.594 4.09a70.911 70.911 0 0 0 6.117 8.12c.882 1.013 2.298 3.45 3.989 3.238 1.526-.192 3.2-1.993 3.668-3.36.451-1.313-.535-2.212-1.3-3.112" mask="url(#f)"/>
        </g>
        <g transform="translate(0 58.93)">
            <mask id="h" fill="#fff">
                <use xlink:href="#g"/>
            </mask>
            <path fill="#F1F2F2" d="M.513.075C.246.175.02.33-.202.503c-.242.19.052.565.295.375C.284.728.467.6.697.515.985.407.8-.032.513.075" mask="url(#h)"/>
        </g>
        <path fill="#F1F2F2" d="M2.995 58.232c-.017-.12-.142-.234-.269-.204-.24.056-.432.176-.624.326-.242.19.052.565.294.375.12-.094.243-.193.395-.229.126-.03.222-.13.204-.268"/>
        <g transform="translate(0 60.875)">
            <mask id="j" fill="#fff">
                <use xlink:href="#i"/>
            </mask>
            <path fill="#F1F2F2" d="M.41.179C.293.077.07.059-.078.139l-.437.235c-.149.08-.176.232-.059.334.117.103.339.121.488.04L.35.514C.5.433.527.281.41.18" mask="url(#j)"/>
        </g>
        <path fill="#F1F2F2" d="M2.508 59.49l-.6.47c-.242.19.052.565.294.376l.6-.471c.242-.19-.052-.565-.294-.375M2.69 61.345a.24.24 0 0 0-.334-.04l-.3.235a.24.24 0 0 0-.04.335.24.24 0 0 0 .334.04l.3-.235a.24.24 0 0 0 .04-.335M4.398 59.583l-.375.294c-.242.19.052.565.294.375l.376-.294c.241-.19-.053-.565-.295-.375M4.512 58.646c.106-.075.117-.237.04-.335-.078-.1-.21-.112-.313-.052a.204.204 0 0 0-.008.003l-.014.005-.061.013a.576.576 0 0 0-.222.092c-.107.075-.118.237-.04.335.077.1.209.112.313.053l.008-.004.013-.005.062-.013a.576.576 0 0 0 .222-.092M.886 63.911l-.375.294c-.242.19.052.565.294.375l.375-.294c.242-.19-.052-.565-.294-.375M3.29 62.572a.24.24 0 0 0-.335-.04l-.225.176a.24.24 0 0 0-.04.335.24.24 0 0 0 .334.04l.225-.176a.24.24 0 0 0 .04-.335M5.364 61.16l.002-.014.002-.006.004-.009.008-.012a.072.072 0 0 0 .006-.007l.006-.005c.015-.014.032-.027.049-.04a.24.24 0 0 0 .04-.334.24.24 0 0 0-.334-.041.622.622 0 0 0-.256.41.24.24 0 0 0 .208.266.241.241 0 0 0 .265-.208M1.894 65.12a.24.24 0 0 0-.334-.041l-.3.235a.24.24 0 0 0-.041.335.24.24 0 0 0 .335.04l.3-.235a.24.24 0 0 0 .04-.334M3.778 63.582l-.375.294c-.242.19.052.565.294.375l.375-.294c.242-.19-.052-.565-.294-.375M5.689 62.387c-.19-.242-.565.052-.376.294.19.242.565-.052.376-.294M1.136 68.015a.24.24 0 0 0-.334-.04 3.272 3.272 0 0 1-.05.039l-.06.04a.672.672 0 0 1-.058.028c-.003 0-.004 0-.006.002-.02.001-.054-.001-.01.002a.242.242 0 0 0-.265.208c-.015.125.079.256.208.265.206.016.378-.086.535-.209a.24.24 0 0 0 .04-.335M5.359 65.27l.014.002c.13.011.25-.077.266-.208a.24.24 0 0 0-.208-.266.622.622 0 0 0-.46.15.24.24 0 0 0-.04.335.24.24 0 0 0 .334.04 1.324 1.324 0 0 1 .062-.043.646.646 0 0 1 .032-.01M3.479 66.575c-.017-.119-.143-.235-.27-.204-.297.072-.535.258-.773.444-.242.19.052.564.294.375.16-.126.34-.297.545-.347.126-.03.222-.13.204-.268M6.68 63.73l-.375.294c-.241.19.053.564.295.375l.375-.294c.242-.19-.052-.565-.294-.375M2.46 68.854l-.525.412c-.242.19.052.565.294.375l.525-.412c.242-.19-.052-.564-.294-.375M4.77 67.165a2.93 2.93 0 0 1-.184.136.313.313 0 0 0-.048.023c-.015.008-.045.01-.026.01-.13-.007-.25.074-.265.209-.015.123.078.257.208.265.24.015.429-.127.61-.268.241-.19-.053-.565-.295-.375M7.398 65.65a.24.24 0 0 0-.334-.041l-.3.235a.24.24 0 0 0-.041.335.24.24 0 0 0 .335.04l.3-.235a.24.24 0 0 0 .04-.335M9.092 64.564c-.19-.242-.565.052-.376.294.19.242.565-.052.376-.294M9.867 66.016a.24.24 0 0 0-.335-.04l-.225.176a.24.24 0 0 0-.04.335.24.24 0 0 0 .334.04l.225-.176a.24.24 0 0 0 .04-.335M8.31 67.661c.236-.196-.058-.572-.295-.375-.174.144-.293.343-.466.487-.236.196.057.571.294.375.174-.145.293-.343.466-.487M6.064 68.815l-.6.47c-.242.19.052.566.294.376l.6-.47c.242-.19-.052-.565-.294-.376M9.87 68.8a.24.24 0 0 0-.335-.04l-.336.263a.24.24 0 0 0-.04.334.24.24 0 0 0 .334.04l.336-.262a.24.24 0 0 0 .04-.335M10.987 67.985c.106-.075.117-.236.04-.335-.078-.1-.21-.112-.313-.052l-.008.003-.014.005-.061.013a.574.574 0 0 0-.222.092c-.107.075-.118.237-.041.335.078.1.21.113.313.053l.008-.004a.238.238 0 0 0 .014-.005l.061-.013a.574.574 0 0 0 .223-.092"/>
        <g transform="translate(10.867 69.339)">
            <mask id="l" fill="#fff">
                <use xlink:href="#k"/>
            </mask>
            <path fill="#F1F2F2" d="M.752.149a.24.24 0 0 0-.334-.04l-.3.235a.24.24 0 0 0-.04.334.24.24 0 0 0 .334.04l.3-.235A.24.24 0 0 0 .752.15" mask="url(#l)"/>
        </g>
        <path fill="#F1F2F2" d="M5.776 55.478c.025-.022.051-.044.078-.065a.24.24 0 0 0 .04-.334.24.24 0 0 0-.334-.041c-.07.055-.14.114-.194.185a.333.333 0 0 0-.013.401c.073.108.238.117.335.04a.226.226 0 0 0 .088-.186M6.92 54.415c.083-.161.253-.278.392-.387.242-.19-.052-.565-.294-.375-.213.167-.415.343-.541.586-.06.116.022.266.134.31.13.051.25-.019.31-.134M8.537 52.886a.24.24 0 0 0-.335-.04l-.225.176a.24.24 0 0 0-.04.335.24.24 0 0 0 .334.04l.225-.176a.24.24 0 0 0 .04-.335M6.333 56.524l.002-.014.002-.006a.157.157 0 0 0 .004-.009l.008-.012.006-.007.005-.005.05-.04a.24.24 0 0 0 .04-.334.24.24 0 0 0-.334-.041.622.622 0 0 0-.256.41.24.24 0 0 0 .208.266.241.241 0 0 0 .265-.208M7.848 55.189c.048-.046.101-.086.154-.127a.24.24 0 0 0 .04-.335.24.24 0 0 0-.334-.04c-.203.159-.458.368-.282.645.07.11.24.115.334.04a.222.222 0 0 0 .088-.183M9.827 53.45a.24.24 0 0 0-.335-.041 2.68 2.68 0 0 1-.05.039c-.009.006-.055.036-.059.04a.625.625 0 0 1-.059.028l-.006.002c-.019.001-.054-.001-.01.002-.129-.01-.248.075-.264.208-.015.125.078.256.207.266.206.015.379-.087.535-.21a.24.24 0 0 0 .04-.334M10.482 54.208l-.375.294c-.242.19.052.565.294.375l.375-.294c.242-.19-.052-.565-.294-.375M9.316 55.425a.24.24 0 0 0-.335-.04l-.3.235a.24.24 0 0 0-.04.334.24.24 0 0 0 .334.04l.3-.235a.24.24 0 0 0 .041-.334M7.915 56.342l-.376.294c-.242.19.053.565.295.375l.375-.294c.242-.19-.052-.565-.294-.375M7.166 57.473a.24.24 0 0 0-.334-.04l-.3.235a.24.24 0 0 0-.04.335.24.24 0 0 0 .334.04l.3-.235a.24.24 0 0 0 .04-.335M7.68 58.282a.24.24 0 0 0-.335-.04l-.3.235a.24.24 0 0 0-.04.335.24.24 0 0 0 .334.04l.3-.235a.24.24 0 0 0 .04-.335M9.164 57.24a.24.24 0 0 0-.335-.04l-.3.235a.24.24 0 0 0-.04.334.24.24 0 0 0 .334.04l.3-.234a.24.24 0 0 0 .041-.335M10.649 56.197a.24.24 0 0 0-.335-.04l-.3.235a.24.24 0 0 0-.04.335.24.24 0 0 0 .334.04l.3-.235a.24.24 0 0 0 .04-.335M11.474 55.55a.24.24 0 0 0-.335-.04l-.075.059a.24.24 0 0 0-.04.334.24.24 0 0 0 .334.04l.075-.058a.24.24 0 0 0 .04-.335M11.786 56.335l-.375.294c-.242.19.052.565.294.375l.375-.294c.242-.19-.052-.565-.294-.375M10.51 57.335l-.45.353c-.241.19.053.565.295.375l.45-.353c.242-.19-.052-.565-.294-.375M8.968 58.303l-.376.294c-.241.19.053.564.295.375l.375-.294c.242-.19-.053-.565-.294-.375M8.01 59.477a.24.24 0 0 0-.334-.04l-.075.058a.24.24 0 0 0-.04.335.24.24 0 0 0 .334.04l.075-.058a.24.24 0 0 0 .04-.335M8.398 60.203l-.45.353c-.242.19.052.565.294.375l.45-.353c.242-.19-.052-.565-.294-.375M10.142 59.26a.24.24 0 0 0-.335-.04l-.3.234a.24.24 0 0 0-.04.335.24.24 0 0 0 .334.04l.3-.235a.24.24 0 0 0 .04-.335M11.91 58.115a.24.24 0 0 0-.334-.04l-.3.235a.24.24 0 0 0-.041.335.24.24 0 0 0 .335.04l.3-.235a.24.24 0 0 0 .04-.335M13.02 57.367a.24.24 0 0 0-.335-.04l-.15.117a.24.24 0 0 0-.04.335.24.24 0 0 0 .334.04l.15-.117a.24.24 0 0 0 .04-.335M13.768 58.476a.24.24 0 0 0-.335-.04l-.15.117a.24.24 0 0 0-.04.335.24.24 0 0 0 .335.04l.15-.117a.24.24 0 0 0 .04-.335M12.375 59.326a.24.24 0 0 0-.335-.04l-.3.235a.24.24 0 0 0-.04.335.24.24 0 0 0 .334.04l.3-.235a.24.24 0 0 0 .04-.335M10.757 60.353a.24.24 0 0 0-.335-.04l-.075.058a.24.24 0 0 0-.04.334.24.24 0 0 0 .334.041l.075-.059a.24.24 0 0 0 .04-.334M9.272 61.395a.24.24 0 0 0-.334-.04l-.15.117a.24.24 0 0 0-.041.335.24.24 0 0 0 .335.04l.15-.117a.24.24 0 0 0 .04-.335M10.32 62.268a.24.24 0 0 0-.334-.04l-.3.235a.24.24 0 0 0-.04.335.24.24 0 0 0 .334.04l.3-.235a.24.24 0 0 0 .04-.335M11.73 61.285a.24.24 0 0 0-.335-.04l-.3.234a.24.24 0 0 0-.04.335.24.24 0 0 0 .334.04l.3-.235a.24.24 0 0 0 .04-.334M13.17 60.586c.048-.046.102-.086.154-.127a.24.24 0 0 0 .04-.335.24.24 0 0 0-.334-.04c-.203.159-.458.368-.282.645.07.11.24.115.335.04a.22.22 0 0 0 .087-.183M14.608 59.392a.24.24 0 0 0-.335-.04l-.15.117a.24.24 0 0 0-.04.335.24.24 0 0 0 .334.04l.15-.117a.24.24 0 0 0 .04-.335M15.447 60.309a.24.24 0 0 0-.334-.04l-.15.117a.24.24 0 0 0-.04.334.24.24 0 0 0 .334.04l.15-.117a.24.24 0 0 0 .04-.334M13.837 61.268l-.375.294c-.242.19.052.565.294.375l.375-.294c.242-.19-.052-.565-.294-.375M12.821 62.367a.24.24 0 0 0-.334-.04l-.3.235a.24.24 0 0 0-.041.335.24.24 0 0 0 .335.04l.3-.235a.24.24 0 0 0 .04-.335M11.337 63.41a.24.24 0 0 0-.335-.04l-.3.235a.24.24 0 0 0-.04.334.24.24 0 0 0 .334.041l.3-.235a.24.24 0 0 0 .04-.335M11.534 64.588a.24.24 0 0 0-.335-.04l-.3.235a.24.24 0 0 0-.04.335.24.24 0 0 0 .334.04l.3-.235a.24.24 0 0 0 .04-.335M13.168 63.428a.24.24 0 0 0-.334-.04l-.3.235a.24.24 0 0 0-.041.334.24.24 0 0 0 .334.04l.3-.234a.24.24 0 0 0 .041-.335M14.728 62.327a.24.24 0 0 0-.335-.041l-.225.177a.24.24 0 0 0-.04.334.24.24 0 0 0 .334.04l.225-.176a.24.24 0 0 0 .04-.334M15.703 61.562c-.19-.242-.565.052-.375.294.19.242.565-.052.375-.294M12.357 65.639a.24.24 0 0 0-.334-.041l-.226.176a.24.24 0 0 0-.04.335.24.24 0 0 0 .335.04l.225-.176a.24.24 0 0 0 .04-.334M13.617 64.772a.24.24 0 0 0-.335-.04l-.225.176a.24.24 0 0 0-.04.335.24.24 0 0 0 .334.04l.225-.176a.24.24 0 0 0 .04-.335M15.117 63.596a.24.24 0 0 0-.334-.04l-.15.117a.24.24 0 0 0-.041.335.24.24 0 0 0 .335.04l.15-.117a.24.24 0 0 0 .04-.335M16.142 63.007l.001-.014.003-.006.003-.009.009-.012.005-.006.006-.006.05-.04a.24.24 0 0 0 .04-.334.24.24 0 0 0-.335-.04.621.621 0 0 0-.256.41.24.24 0 0 0 .208.265.241.241 0 0 0 .266-.208M17.492 63.612c.106-.084.197-.2.137-.345-.066-.156-.23-.169-.366-.116a1.443 1.443 0 0 0-.349.187.24.24 0 0 0-.04.335c.08.103.23.119.334.04a.417.417 0 0 1 .024-.016l.005-.003.068-.037a.235.235 0 0 0 .187-.045M16.332 64.218a.24.24 0 0 0-.335-.04l-.3.235a.24.24 0 0 0-.04.335.24.24 0 0 0 .335.04l.3-.235a.24.24 0 0 0 .04-.335M14.941 65.612c.1-.078.125-.236.04-.335-.075-.088-.187-.147-.306-.121a.58.58 0 0 0-.237.123.24.24 0 0 0-.04.335.24.24 0 0 0 .334.04l.003-.001a.233.233 0 0 0 .206-.041M13.48 66.454a.24.24 0 0 0-.334-.04l-.075.058a.24.24 0 0 0-.04.334.24.24 0 0 0 .334.041l.075-.059a.24.24 0 0 0 .04-.334M14.304 67.504a.24.24 0 0 0-.334-.04l-.225.176a.24.24 0 0 0-.04.334.24.24 0 0 0 .334.041l.225-.176a.24.24 0 0 0 .04-.335M15.714 66.52a.24.24 0 0 0-.335-.04l-.225.176a.24.24 0 0 0-.04.335.24.24 0 0 0 .334.04l.225-.176a.24.24 0 0 0 .04-.335M17.048 65.595c-.19-.242-.565.052-.375.294.19.242.565-.052.375-.294M18.19 64.579a.24.24 0 0 0-.335-.04l-.3.235a.24.24 0 0 0-.04.334.24.24 0 0 0 .334.041l.3-.235a.24.24 0 0 0 .04-.335M14.96 68.684l.017-.007a.143.143 0 0 0 .01-.003l.018-.004c.127-.028.223-.132.204-.269-.016-.12-.142-.231-.268-.203a.727.727 0 0 0-.408.215c-.126.137-.088.341.011.478.076.105.235.118.335.04a.235.235 0 0 0 .081-.247M16.704 67.319a.24.24 0 0 0-.335-.04l-.3.235a.24.24 0 0 0-.04.334.24.24 0 0 0 .334.04l.3-.234a.24.24 0 0 0 .04-.335M18.413 66.1a.24.24 0 0 0-.334-.04l-.3.235a.24.24 0 0 0-.041.334.24.24 0 0 0 .335.04l.3-.234a.24.24 0 0 0 .04-.335M16.169 69.495c.106-.075.117-.237.04-.335-.078-.1-.21-.112-.313-.052l-.008.003a.121.121 0 0 0-.014.005l-.061.013a.575.575 0 0 0-.222.092c-.107.075-.118.237-.04.335.077.1.209.113.312.053l.008-.004a.178.178 0 0 0 .014-.005l.062-.013a.577.577 0 0 0 .222-.092M17.811 68.268a.24.24 0 0 0-.334-.04l-.3.235a.24.24 0 0 0-.041.334.24.24 0 0 0 .335.04l.3-.234a.24.24 0 0 0 .04-.335M19.2 66.877l.002-.002a.24.24 0 0 0 .04-.335.24.24 0 0 0-.334-.04c-.053.041-.112.087-.146.146a.363.363 0 0 0-.055.21.322.322 0 0 0 .07.17c.076.106.235.119.334.041a.231.231 0 0 0 .089-.19"/>
        <path fill="#EF6351" d="M29.415 38.138c-3.498 3.464-.965 4.857 2.32 1.822-.13.05-.26.1-.4.146l.715-.449c-.106.106-.211.207-.315.303 4.827-1.9 2.735-6.83-2.32-1.822"/>
        <path fill="#FFF" d="M61.868 54.232c-.543-1.323-1.32-2.526-1.986-3.787-.211-.4-.87-.14-.657.265.666 1.26 1.442 2.464 1.985 3.787.174.423.832.158.658-.265M57.66 56.693l-1.379-3.42c-.17-.425-.829-.16-.658.264l1.38 3.42c.17.425.828.16.657-.264M50.966 57.29c.07-.945.026-1.888-.032-2.831-.028-.458-.733-.374-.705.08.054.883.101 1.764.035 2.647-.034.455.668.56.702.104M45.283 58.526c.293-1.192.684-2.358.977-3.551.108-.438-.584-.535-.69-.102-.293 1.193-.684 2.359-.977 3.552-.108.437.584.534.69.101M39.427 57.065c.293-.988.615-1.975 1.09-2.894.207-.4-.41-.725-.617-.325-.502.97-.843 2.018-1.153 3.061-.128.433.552.587.68.158"/>
        <path fill="#085EBD" d="M58.649 41.166a1.958 1.958 0 0 0 1.772-2.127L57.564 7.612a1.958 1.958 0 0 0-2.127-1.773l-31.43 2.857a1.958 1.958 0 0 0-1.773 2.127L25.09 42.25a1.958 1.958 0 0 0 2.127 1.773l31.43-2.857z"/>
        <path fill="#FFF" d="M49.646 41.984l-1.244-13.68 4.593-.417.202-5.395-5.28.48-.31-3.404c-.14-1.543.193-2.634 2.407-2.835l2.824-.258-.434-4.769c-.494-.02-2.183-.013-4.133.164-4.071.37-6.632 3.108-6.217 7.671l.357 3.932-4.604.418.485 5.332 4.604-.419 1.244 13.68 5.506-.5z"/>
        <path fill="#724F47" d="M27.356 42.95c.177-.472 1.504-1.12 2.188-1.46 1.406-.695 4.232-.3 4.365-2.58.004-.076-2.405-.041-2.584-.09-1.371-.377-2.452-1.314-3.965-1.146-2.242.25-3.625 1.98-4.793 3.743-2.216 3.344-4.934 5.775-.906 9.428 1.168 1.06 2.665.403 3.966-.411 1.399-.875 1.157-1.891 1.469-3.475.23-1.174-.067-3.136.26-4.01"/>
        <path fill="#FF8AD4" d="M31.692 39.727c.592.205 1.226.26 1.858.242.202-.27.333-.613.359-1.06.004-.075-2.405-.04-2.584-.09a6.91 6.91 0 0 1-.86-.308c.172.558.561.984 1.227 1.216"/>
        <path fill="#FFF" d="M27.415 43.759c.168-.825.536-1.481 1.554-1.817 1.313-.434 3.017-.315 4.15-1.171.268-.202.474-.444.622-.744.167-.339.069-.942.242-1.21-1.696 2.63-4.172 1.391-6.414 2.732-1.327.794-.93 2.387-.955 3.642-.021 1.105.311 1.915-.301 2.972-.52.894-1.387 1.599-2.288 2.085 1.089-.174 2.257-.631 2.784-1.682.487-.973.316-2.037.414-3.062.06-.624.085-1.219.192-1.745"/>
        <path fill="#724F47" d="M34.475 48.098c.926-.152 1.012-1.122.398-1.573a2.856 2.856 0 0 1-.792-.25.5.5 0 0 1-.26-.264c-.319.011-.578.114-.771.308-.441.445-.374 1.04.193 1.774.415.051.83.071 1.232.005M38.976 49.607c-.233-1.084-1.737-2.113-2.574-2.611.119.642-.064 1.321-.674 1.794-.395.307-.855.441-1.34.481.155.143.308.28.46.41 1.175 1.007 2.137 1.517 2.859 1.517.431 0 .79-.18 1.039-.518.233-.318.313-.689.23-1.073"/>
        <path fill="#FFF" d="M33.878 45.665c-.548 0-.885.225-1.072.412-.212.215-.65.814-.149 1.755.216.404.542.757.769.986.42.425.811.793 1.199 1.124 1.257 1.076 2.265 1.6 3.082 1.6.545 0 1-.228 1.316-.66a1.64 1.64 0 0 0 .289-1.347c-.275-1.278-1.976-2.408-2.965-2.968l-.05-.028c-.499-.284-1.538-.874-2.419-.874m0 .687c.728 0 1.73.586 2.13.812.77.436 3.387 2.05 2.461 3.313a.895.895 0 0 1-.762.378c-.777 0-1.815-.731-2.636-1.434a19.02 19.02 0 0 1-1.156-1.084c-.374-.38-1.157-1.236-.621-1.776.148-.15.352-.21.584-.21"/>
        <path fill="#724F47" d="M34.467 45.23a.58.58 0 0 1 .283 0c.183.042.355.11.515.197a1.018 1.018 0 0 0 .249-1.992l-.037-.017a2.38 2.38 0 0 0-.168-.006c-.66 0-1.09.322-1.177.884-.052.331.053.648.214.931a.562.562 0 0 1 .121.004M41.807 47.757c-.174-1.125-1.618-2.212-2.714-2.886a3.007 3.007 0 0 1-1.693-.211c-.023.208-.08.42-.172.636a2.025 2.025 0 0 1-1.042 1.079c.173.332.263.702.248 1.066a46.98 46.98 0 0 0 1.834 1.497c.512.402 1.064.794 1.7.794.459 0 .895-.202 1.332-.618.41-.388.585-.858.507-1.357"/>
        <path fill="#FFF" d="M35.31 43.069c-.836 0-1.403.439-1.517 1.174-.134.864.548 1.608.915 2.008l.023.025c.416.455.902.923 1.485 1.43a47.283 47.283 0 0 0 1.84 1.502c.535.42 1.167.867 1.912.867.551 0 1.064-.233 1.569-.712.624-.593.676-1.23.61-1.659-.126-.81-.765-1.63-1.956-2.507a15.028 15.028 0 0 0-2.166-1.31c-.769-.373-1.864-.818-2.716-.818m0 .686c.835 0 2.036.565 2.416.75.904.439 5.075 2.713 3.34 4.36-.395.374-.752.524-1.097.524-.5 0-.974-.317-1.488-.72a46.832 46.832 0 0 1-1.814-1.48 17.65 17.65 0 0 1-1.43-1.377c-.307-.336-.85-.913-.765-1.463.068-.44.404-.594.838-.594"/>
        <path fill="#724F47" d="M43.22 47.609c-.813 0-1.6-.561-2.122-.983a42.85 42.85 0 0 0-.85-.664l-.387-.299c-.551-.427-1.129-.892-1.622-1.396-.49-.5-1.069-1.243-1.047-1.95.01-.315.14-.596.38-.812.262-.237.61-.357 1.032-.357.974 0 2.172.654 2.748.968l.032.017c.247.134 1.115.626 1.942 1.311.932.773 1.465 1.508 1.584 2.186.087.499-.053.972-.405 1.37-.357.404-.79.609-1.286.609zM37.707 51.198c-.722 0-1.684-.51-2.86-1.516-.379-.325-.764-.686-1.177-1.104-.946-.96-1.154-1.72-.62-2.259.204-.206.483-.31.828-.31.79 0 1.776.56 2.25.829l.05.028c.756.428 2.543 1.552 2.798 2.741.082.384.003.755-.23 1.073a1.24 1.24 0 0 1-1.039.518z"/>
        <path fill="#724F47" d="M39.968 49.732c-.636 0-1.188-.392-1.7-.794a46.985 46.985 0 0 1-1.827-1.49 17.85 17.85 0 0 1-1.458-1.404l-.022-.025c-.35-.382-.938-1.023-.83-1.723.088-.562.517-.884 1.178-.884.787 0 1.83.426 2.566.784.374.182 3.664 1.826 3.932 3.56.078.5-.097.97-.507 1.358-.437.416-.873.618-1.332.618"/>
        <path fill="#724F47" d="M43.22 47.609c-.813 0-1.6-.561-2.122-.983a42.85 42.85 0 0 0-.85-.664l-.387-.299c-.551-.427-1.729-1.275-2.222-1.779-.49-.5-.469-.86-.447-1.566.01-.316.14-.597.38-.813.262-.237.61-.357 1.032-.357.974 0 2.172.654 2.748.968l.032.017c.247.134 1.115.626 1.942 1.311.932.773 1.465 1.508 1.584 2.186.087.499-.053.972-.405 1.37-.357.404-.79.609-1.286.609zM34.475 48.098c.926-.152 1.012-1.122.398-1.573a2.856 2.856 0 0 1-.792-.25.5.5 0 0 1-.26-.264c-.319.011-.578.114-.771.308-.441.445-.374 1.04.193 1.774.415.051.83.071 1.232.005M38.976 49.607c-.233-1.084-1.737-2.113-2.574-2.611.119.642-.064 1.321-.674 1.794-.395.307-.855.441-1.34.481.155.143.308.28.46.41 1.175 1.007 2.137 1.517 2.859 1.517.431 0 .79-.18 1.039-.518.233-.318.313-.689.23-1.073M34.467 45.23a.58.58 0 0 1 .283 0c.183.042.355.11.515.197a1.018 1.018 0 0 0 .249-1.992l-.037-.017a2.38 2.38 0 0 0-.168-.006c-.66 0-1.09.322-1.177.884-.052.331.053.648.214.931a.562.562 0 0 1 .121.004"/>
        <path fill="#724F47" d="M41.807 47.757c-.174-1.125-1.618-2.212-2.714-2.886a3.007 3.007 0 0 1-1.693-.211c-.023.208-.08.42-.172.636a2.025 2.025 0 0 1-1.042 1.079c.173.332.263.702.248 1.066a46.98 46.98 0 0 0 1.834 1.497c.512.402 1.064.794 1.7.794.459 0 .895-.202 1.332-.618.41-.388.585-.858.507-1.357"/>
        <path fill="#FF8AD4" d="M34.522 48.374c.926-.153 1.358-1.18.743-1.63-.371-.172-1.403-.629-1.445-.733-.318.011-.578.114-.77.308-.44.445-.583.75-.015 1.483.414.05 1.084.638 1.487.572M35.18 45.657c1.914.779 2.077-1.259.334-2.222-.012-.007-.025-.011-.037-.017a2.45 2.45 0 0 0-.168-.006c-.66 0-1.09.322-1.177.884-.051.331-.057.506.104.79.04-.004.784.484.944.571"/>
        <path fill="#724F47" d="M44.91 45.63c-.119-.678-.652-1.413-1.585-2.186a12.98 12.98 0 0 0-1.94-1.31l-.033-.018-.202-.11c.129.5.066 1.056-.266 1.621a2.563 2.563 0 0 1-1.97 1.269c.31.268.633.524.947.767l.387.299c.298.228.578.444.85.664.521.422 1.309.983 2.121.983.496 0 .929-.205 1.287-.61.352-.397.491-.87.404-1.37"/>
        <path fill="#FF8AD4" d="M40.184 43.541c.553-.812-.622-1.907-1.43-2.202-.093-.034.1-.123.042-.183a2.372 2.372 0 0 0-.192-.008c-.423 0-.77.12-1.032.357a1.12 1.12 0 0 0-.38.813c-.012.39-.078.514.161.88.758.449 2.293 1.134 2.831.343"/>
        <path fill="#FFF" d="M45.248 45.57c-.318-1.813-3.138-3.432-3.7-3.738l-.03-.017c-.648-.353-1.853-1.01-2.914-1.01-.51 0-.935.15-1.262.445-.31.28-.481.646-.494 1.057-.016.532.241 1.063.57 1.52a.693.693 0 0 1 .098-.037c.042-.011-.062-.038-.02-.049-.42-.535-.435-1.226.014-1.844.741-1.02 2.237-.476 3.167-.082 1.2.507 2.427 1.27 3.275 2.274.57.675 1.31 1.757.71 2.598a1.55 1.55 0 0 1-.107.16c.001.13-.222.233-.338.354-.638.66-1.51.307-2.317 0-.008.048.136.331.123.381-.005.02-.165-.197-.172-.18.376.185.941.55 1.368.55.59 0 1.124-.25 1.543-.725.424-.478.592-1.051.486-1.657"/>
    </g>
</svg>
