<svg xmlns="http://www.w3.org/2000/svg" xmlns:xlink="http://www.w3.org/1999/xlink" width="1280" height="194" viewBox="0 0 1280 194">
    <defs>
        <path id="a" d="M0 .258h83.916v16.684H0z"/>
        <path id="c" d="M0 .152h48.951v9.814H0z"/>
        <path id="e" d="M0 .091h27.972V5.98H0z"/>
        <path id="g" d="M0 .121h37.296v7.852H0z"/>
    </defs>
    <g fill="none" fill-rule="evenodd">
        <path fill="#4BB4E6" fill-rule="nonzero" d="M0 0h1280v194H0z"/>
        <path fill="#FFF" d="M98.48 86.76c8.125 18.349 33.325 1.06 33.325 1.06-10.624-17.457-41.45-19.406-33.324-1.06m18.91 1.874c-3.682 1.183-6.829 1.443-9.105.747-1.342-.409-3.301-1.352-4.832-4.805-1.041-2.356-.626-3.628.417-4.852 1.291-1.52 5.198-1.237 10.262.532 3.61 1.26 6.874 3.267 9.446 5.758-1.797.928-3.933 1.89-6.189 2.62"/>
        <path fill="#FFF" d="M130.817 88.814s30.046-4.07 24.551-23.053c-5.496-18.981-27.566 3.147-24.55 23.053m19.348-21.521c1.037 3.573.135 5.534-.627 6.697-1.298 1.975-3.873 3.79-7.443 5.249-2.193.892-4.442 1.532-6.408 1.98.378-3.514 1.592-7.106 3.55-10.357 2.749-4.564 5.554-7.27 7.516-6.952 1.576.255 2.71.946 3.412 3.383"/>
        <path fill="#FFB4E6" d="M190.24 140.945l-22.556-61.84a1.11 1.11 0 0 0-1.416-.676L96.04 104.05a1.11 1.11 0 0 0-.65 1.427l22.556 61.841 72.294-26.372z"/>
        <g transform="rotate(-20 334.788 -206.302)">
            <mask id="b" fill="#fff">
                <use xlink:href="#a"/>
            </mask>
            <path fill="#FF8AD4" d="M83.916 15.26c0 .892-.652 1.619-1.46 1.619l-80.988.063c-.809.002-1.46-.725-1.46-1.616L0 1.943C-.002 1.046.65.323 1.457.32L82.446.258c.807-.001 1.461.723 1.462 1.619l.008 13.382z" mask="url(#b)"/>
        </g>
        <path fill="#FFF" d="M134.904 85.992l5.823 15.964-9.384 3.423-5.822-15.964z"/>
        <g>
            <path fill="#FFF" d="M1137.011 24.801c-1.25 11.639 16.444 10.241 16.444 10.241-.265-11.916-15.194-21.878-16.444-10.24m8.961 6.453c-2.194-.474-3.852-1.26-4.794-2.273-.555-.598-1.266-1.645-1.032-3.836.162-1.494.74-2.015 1.62-2.33 1.092-.393 2.974.888 5.005 3.257 1.448 1.688 2.506 3.653 3.074 5.66a24.057 24.057 0 0 1-3.873-.478"/>
            <path fill="#FFF" d="M1152.687 35.156s16.287 6.694 19.044-4.5c2.756-11.193-14.772-6.438-19.044 4.5m15.984-5.24c-.518 2.107-1.542 2.835-2.263 3.201-1.227.62-3.049.787-5.268.485a24.302 24.302 0 0 1-3.797-.865c1.212-1.666 2.867-3.128 4.796-4.201 2.71-1.506 4.906-2.056 5.8-1.324.718.588 1.087 1.267.732 2.703"/>
            <path fill="#A885D8" d="M1167.854 79.975l6.798-38.706a.656.656 0 0 0-.517-.77l-43.03-7.554a.656.656 0 0 0-.749.547l-6.798 38.707 44.296 7.776z"/>
            <g transform="rotate(10 391.705 6466.827)">
                <mask id="d" fill="#fff">
                    <use xlink:href="#c"/>
                </mask>
                <path fill="#492191" d="M48.951 8.976c0 .525-.38.953-.851.953L.856 9.966c-.471.001-.852-.426-.852-.95L0 1.142C-.001.615.379.19.85.189L48.093.152c.471-.001.853.425.853.952l.005 7.872z" mask="url(#d)"/>
            </g>
            <path fill="#FFF" d="M1155.48 35l-1.73 9.846-5.903-1.037 1.73-9.844z"/>
        </g>
        <g>
            <path fill="#FFF" d="M330.717 14.537c-.727 6.648 9.116 5.802 9.116 5.802-.115-6.802-8.39-12.45-9.116-5.802m4.965 3.66c-1.218-.264-2.138-.708-2.659-1.285-.307-.34-.7-.935-.563-2.187.094-.853.417-1.153.907-1.335.608-.227 1.65.5 2.773 1.847.801.96 1.384 2.078 1.694 3.223a12.998 12.998 0 0 1-2.152-.263M339.96 20.74s9.039 3.777 10.602-2.621c1.563-6.398-8.196-3.636-10.601 2.62m8.902-3.035c-.294 1.205-.865 1.623-1.267 1.834-.684.357-1.698.458-2.93.291a13.13 13.13 0 0 1-2.11-.483 8.489 8.489 0 0 1 2.679-2.412c1.51-.867 2.733-1.187 3.228-.771.398.333.601.72.4 1.541"/>
            <path fill="#FFB401" d="M348.503 44.08l3.568-20.32a.362.362 0 0 0-.305-.41l-24.862-4.367c-.2-.035-.393.09-.426.281l-3.568 20.322 25.593 4.495z"/>
            <g transform="rotate(10 67.675 1867.146)">
                <mask id="f" fill="#fff">
                    <use xlink:href="#e"/>
                </mask>
                <path fill="#FFD203" d="M27.972 5.386c0 .315-.217.571-.486.571L.489 5.98c-.27 0-.486-.256-.486-.57L0 .685C0 .369.216.114.486.113L27.482.091c.27 0 .487.255.487.571l.003 4.724z" mask="url(#f)"/>
            </g>
            <path fill="#FF7900" d="M341.016 19.305l-1.038 5.907-2.952-.517 1.038-5.907z"/>
        </g>
        <g>
            <path fill="#FFF" d="M1208.23 138.458c3.593 8.162 14.394.623 14.394.623-4.668-7.778-17.987-8.783-14.394-.623m8.173.917c-1.583.507-2.941.607-3.927.29-.581-.188-1.432-.615-2.109-2.15-.46-1.049-.287-1.61.158-2.147.55-.667 2.239-.524 4.433.283a11.46 11.46 0 0 1 4.106 2.593 17.33 17.33 0 0 1-2.66 1.131M1223.038 139.458s12.955-1.663 10.495-10.094c-2.46-8.43-11.888 1.266-10.495 10.094m8.256-9.44c.464 1.587.084 2.451-.24 2.963-.552.868-1.655 1.66-3.19 2.29-.942.384-1.91.658-2.758.847.148-1.555.655-3.14 1.485-4.57 1.166-2.008 2.365-3.193 3.214-3.043.681.12 1.174.431 1.489 1.513"/>
            <path fill="#FFB401" d="M1248.463 160.715l-9.428-25.843a.482.482 0 0 0-.625-.27l-31.619 11.532c-.256.094-.394.367-.305.61l9.428 25.843 32.549-11.872z"/>
            <g transform="rotate(-20 1011.401 -3339.897)">
                <mask id="h" fill="#fff">
                    <use xlink:href="#g"/>
                </mask>
                <path fill="#FFD203" d="M37.296 7.18c0 .42-.29.763-.649.763l-35.994.03c-.36 0-.65-.341-.65-.76L0 .913C0 .492.289.152.647.151l35.995-.03c.36 0 .65.34.65.762l.004 6.298z" mask="url(#h)"/>
            </g>
            <path fill="#FF7900" d="M1223.3 137.099l2.74 7.513-3.754 1.37-2.739-7.513z"/>
        </g>
    </g>
</svg>
