<svg xmlns="http://www.w3.org/2000/svg" xmlns:xlink="http://www.w3.org/1999/xlink" width="183" height="195" viewBox="0 0 183 195">
    <defs>
        <path id="a" d="M101.011.67c-7.868 0-37.253 33.669-44.421 35.929C24.131 46.835.477 78.516.477 116.014c0 45.78 35.256 82.891 78.746 82.891 43.49 0 102.837-49.64 102.837-95.419 0-10.486 3.397-31.833 3.451-49.597v-.855c-.027-8.676-.889-16.429-3.386-21.543"/>
        <path id="c" d="M101.011.67c-7.868 0-37.253 33.669-44.421 35.929C24.131 46.835.477 78.516.477 116.014c0 45.78 35.256 82.891 78.746 82.891 43.49 0 102.837-49.64 102.837-95.419 0-10.486 3.397-31.833 3.451-49.597v-.855c-.027-8.676-.889-16.429-3.386-21.543C167.611 1.764 129.48.669 101.011.669z"/>
        <path id="e" d="M101.011.67c-7.868 0-37.253 33.669-44.421 35.929C24.131 46.835.477 78.516.477 116.014c0 45.78 35.256 82.891 78.746 82.891 43.49 0 102.837-49.64 102.837-95.419 0-10.486 3.397-31.833 3.451-49.597v-.855c-.027-8.676-.889-16.429-3.386-21.543"/>
        <path id="g" d="M101.011.67c-7.868 0-37.253 33.669-44.421 35.929C24.131 46.835.477 78.516.477 116.014c0 45.78 35.256 82.891 78.746 82.891 43.49 0 102.837-49.64 102.837-95.419 0-10.486 3.397-31.833 3.451-49.597v-.855c-.027-8.676-.889-16.429-3.386-21.543"/>
        <path id="i" d="M101.011.67c-7.868 0-37.253 33.669-44.421 35.929C24.131 46.835.477 78.516.477 116.014c0 45.78 35.256 82.891 78.746 82.891 43.49 0 102.837-49.64 102.837-95.419 0-10.486 3.397-31.833 3.451-49.597v-.855c-.027-8.676-.889-16.429-3.386-21.543"/>
        <path id="k" d="M101.011.67c-7.868 0-37.253 33.669-44.421 35.929C24.131 46.835.477 78.516.477 116.014c0 45.78 35.256 82.891 78.746 82.891 43.49 0 102.837-49.64 102.837-95.419 0-10.486 3.397-31.833 3.451-49.597v-.855c-.027-8.676-.889-16.429-3.386-21.543"/>
        <path id="m" d="M101.011.67c-7.868 0-37.253 33.669-44.421 35.929C24.131 46.835.477 78.516.477 116.014c0 45.78 35.256 82.891 78.746 82.891 43.49 0 102.837-49.64 102.837-95.419 0-10.486 3.397-31.833 3.451-49.597v-.855c-.027-8.676-.889-16.429-3.386-21.543"/>
        <path id="o" d="M101.011.67c-7.868 0-37.253 33.669-44.421 35.929C24.131 46.835.477 78.516.477 116.014c0 45.78 35.256 82.891 78.746 82.891 43.49 0 102.837-49.64 102.837-95.419 0-10.486 3.397-31.833 3.451-49.597v-.855c-.027-8.676-.889-16.429-3.386-21.543"/>
        <path id="q" d="M101.011.67c-7.868 0-37.253 33.669-44.421 35.929C24.131 46.835.477 78.516.477 116.014c0 45.78 35.256 82.891 78.746 82.891 43.49 0 102.837-49.64 102.837-95.419 0-10.486 3.397-31.833 3.451-49.597v-.855c-.027-8.676-.889-16.429-3.386-21.543"/>
        <path id="s" d="M101.011.67c-7.868 0-37.253 33.669-44.421 35.929C24.131 46.835.477 78.516.477 116.014c0 45.78 35.256 82.891 78.746 82.891 43.49 0 102.837-49.64 102.837-95.419 0-10.486 3.397-31.833 3.451-49.597v-.855c-.027-8.676-.889-16.429-3.386-21.543"/>
        <path id="u" d="M101.011.67c-7.868 0-37.253 33.669-44.421 35.929C24.131 46.835.477 78.516.477 116.014c0 45.78 35.256 82.891 78.746 82.891 43.49 0 102.837-49.64 102.837-95.419 0-10.486 3.397-31.833 3.451-49.597v-.855c-.027-8.676-.889-16.429-3.386-21.543"/>
        <path id="w" d="M101.011.67c-7.868 0-37.253 33.669-44.421 35.929C24.131 46.835.477 78.516.477 116.014c0 45.78 35.256 82.891 78.746 82.891 43.49 0 102.837-49.64 102.837-95.419 0-10.486 3.397-31.833 3.451-49.597v-.855c-.027-8.676-.889-16.429-3.386-21.543"/>
        <path id="y" d="M101.011.67c-7.868 0-37.253 33.669-44.421 35.929C24.131 46.835.477 78.516.477 116.014c0 45.78 35.256 82.891 78.746 82.891 43.49 0 102.837-49.64 102.837-95.419 0-10.486 3.397-31.833 3.451-49.597v-.855c-.027-8.676-.889-16.429-3.386-21.543"/>
        <path id="A" d="M101.011.67c-7.868 0-37.253 33.669-44.421 35.929C24.131 46.835.477 78.516.477 116.014c0 45.78 35.256 82.891 78.746 82.891 43.49 0 102.837-49.64 102.837-95.419 0-10.486 3.397-31.833 3.451-49.597v-.855c-.027-8.676-.889-16.429-3.386-21.543"/>
        <path id="C" d="M101.011.67c-7.868 0-37.253 33.669-44.421 35.929C24.131 46.835.477 78.516.477 116.014c0 45.78 35.256 82.891 78.746 82.891 43.49 0 102.837-49.64 102.837-95.419 0-10.486 3.397-31.833 3.451-49.597v-.855c-.027-8.676-.889-16.429-3.386-21.543"/>
        <path id="E" d="M101.011.67c-7.868 0-37.253 33.669-44.421 35.929C24.131 46.835.477 78.516.477 116.014c0 45.78 35.256 82.891 78.746 82.891 43.49 0 102.837-49.64 102.837-95.419 0-10.486 3.397-31.833 3.451-49.597v-.855c-.027-8.676-.889-16.429-3.386-21.543"/>
        <path id="G" d="M101.011.67c-7.868 0-37.253 33.669-44.421 35.929C24.131 46.835.477 78.516.477 116.014c0 45.78 35.256 82.891 78.746 82.891 43.49 0 102.837-49.64 102.837-95.419 0-10.486 3.397-31.833 3.451-49.597v-.855c-.027-8.676-.889-16.429-3.386-21.543"/>
        <path id="I" d="M101.011.67c-7.868 0-37.253 33.669-44.421 35.929C24.131 46.835.477 78.516.477 116.014c0 45.78 35.256 82.891 78.746 82.891 43.49 0 102.837-49.64 102.837-95.419 0-10.486 3.397-31.833 3.451-49.597v-.855c-.027-8.676-.889-16.429-3.386-21.543"/>
        <path id="K" d="M101.011.67c-7.868 0-37.253 33.669-44.421 35.929C24.131 46.835.477 78.516.477 116.014c0 45.78 35.256 82.891 78.746 82.891 43.49 0 102.837-49.64 102.837-95.419 0-10.486 3.397-31.833 3.451-49.597v-.855c-.027-8.676-.889-16.429-3.386-21.543"/>
        <path id="M" d="M101.011.67c-7.868 0-37.253 33.669-44.421 35.929C24.131 46.835.477 78.516.477 116.014c0 45.78 35.256 82.891 78.746 82.891 43.49 0 102.837-49.64 102.837-95.419 0-10.486 3.397-31.833 3.451-49.597v-.855c-.027-8.676-.889-16.429-3.386-21.543C167.611 1.764 129.48.669 101.011.669z"/>
        <path id="O" d="M101.011.67c-7.868 0-37.253 33.669-44.421 35.929C24.131 46.835.477 78.516.477 116.014c0 45.78 35.256 82.891 78.746 82.891 43.49 0 102.837-49.64 102.837-95.419 0-10.486 3.397-31.833 3.451-49.597v-.855c-.027-8.676-.889-16.429-3.386-21.543"/>
        <path id="Q" d="M101.011.67c-7.868 0-37.253 33.669-44.421 35.929C24.131 46.835.477 78.516.477 116.014c0 45.78 35.256 82.891 78.746 82.891 43.49 0 102.837-49.64 102.837-95.419 0-10.486 3.397-31.833 3.451-49.597v-.855c-.027-8.676-.889-16.429-3.386-21.543"/>
        <path id="S" d="M101.011.67c-7.868 0-37.253 33.669-44.421 35.929C24.131 46.835.477 78.516.477 116.014c0 45.78 35.256 82.891 78.746 82.891 43.49 0 102.837-49.64 102.837-95.419 0-10.486 3.397-31.833 3.451-49.597v-.855c-.027-8.676-.889-16.429-3.386-21.543"/>
        <path id="U" d="M101.011.67c-7.868 0-37.253 33.669-44.421 35.929C24.131 46.835.477 78.516.477 116.014c0 45.78 35.256 82.891 78.746 82.891 43.49 0 102.837-49.64 102.837-95.419 0-10.486 3.397-31.833 3.451-49.597v-.855c-.027-8.676-.889-16.429-3.386-21.543"/>
        <path id="W" d="M101.011.67c-7.868 0-37.253 33.669-44.421 35.929C24.131 46.835.477 78.516.477 116.014c0 45.78 35.256 82.891 78.746 82.891 43.49 0 102.837-49.64 102.837-95.419 0-10.486 3.397-31.833 3.451-49.597v-.855c-.027-8.676-.889-16.429-3.386-21.543"/>
        <path id="Y" d="M101.011.67c-7.868 0-37.253 33.669-44.421 35.929C24.131 46.835.477 78.516.477 116.014c0 45.78 35.256 82.891 78.746 82.891 43.49 0 102.837-49.64 102.837-95.419 0-10.486 3.397-31.833 3.451-49.597v-.855c-.027-8.676-.889-16.429-3.386-21.543"/>
        <path id="aa" d="M101.011.67c-7.868 0-37.253 33.669-44.421 35.929C24.131 46.835.477 78.516.477 116.014c0 45.78 35.256 82.891 78.746 82.891 43.49 0 102.837-49.64 102.837-95.419 0-10.486 3.397-31.833 3.451-49.597v-.855c-.027-8.676-.889-16.429-3.386-21.543"/>
        <path id="ac" d="M101.011.67c-7.868 0-37.253 33.669-44.421 35.929C24.131 46.835.477 78.516.477 116.014c0 45.78 35.256 82.891 78.746 82.891 43.49 0 102.837-49.64 102.837-95.419 0-10.486 3.397-31.833 3.451-49.597v-.855c-.027-8.676-.889-16.429-3.386-21.543"/>
        <path id="ae" d="M101.011.67c-7.868 0-37.253 33.669-44.421 35.929C24.131 46.835.477 78.516.477 116.014c0 45.78 35.256 82.891 78.746 82.891 43.49 0 102.837-49.64 102.837-95.419 0-10.486 3.397-31.833 3.451-49.597v-.855c-.027-8.676-.889-16.429-3.386-21.543"/>
        <path id="ag" d="M101.011.67c-7.868 0-37.253 33.669-44.421 35.929C24.131 46.835.477 78.516.477 116.014c0 45.78 35.256 82.891 78.746 82.891 43.49 0 102.837-49.64 102.837-95.419 0-10.486 3.397-31.833 3.451-49.597v-.855c-.027-8.676-.889-16.429-3.386-21.543"/>
        <path id="ai" d="M101.011.67c-7.868 0-37.253 33.669-44.421 35.929C24.131 46.835.477 78.516.477 116.014c0 45.78 35.256 82.891 78.746 82.891 43.49 0 102.837-49.64 102.837-95.419 0-10.486 3.397-31.833 3.451-49.597v-.855c-.027-8.676-.889-16.429-3.386-21.543"/>
        <path id="ak" d="M101.011.67c-7.868 0-37.253 33.669-44.421 35.929C24.131 46.835.477 78.516.477 116.014c0 45.78 35.256 82.891 78.746 82.891 43.49 0 102.837-49.64 102.837-95.419 0-10.486 3.397-31.833 3.451-49.597v-.855c-.027-8.676-.889-16.429-3.386-21.543"/>
        <path id="am" d="M101.011.67c-7.868 0-37.253 33.669-44.421 35.929C24.131 46.835.477 78.516.477 116.014c0 45.78 35.256 82.891 78.746 82.891 43.49 0 102.837-49.64 102.837-95.419 0-10.486 3.397-31.833 3.451-49.597v-.855c-.027-8.676-.889-16.429-3.386-21.543C167.611 1.764 129.48.669 101.011.669z"/>
        <path id="ao" d="M101.011.67c-7.868 0-37.253 33.669-44.421 35.929C24.131 46.835.477 78.516.477 116.014c0 45.78 35.256 82.891 78.746 82.891 43.49 0 102.837-49.64 102.837-95.419 0-10.486 3.397-31.833 3.451-49.597v-.855c-.027-8.676-.889-16.429-3.386-21.543"/>
        <path id="aq" d="M101.011.67c-7.868 0-37.253 33.669-44.421 35.929C24.131 46.835.477 78.516.477 116.014c0 45.78 35.256 82.891 78.746 82.891 43.49 0 102.837-49.64 102.837-95.419 0-10.486 3.397-31.833 3.451-49.597v-.855c-.027-8.676-.889-16.429-3.386-21.543"/>
        <path id="as" d="M101.011.67c-7.868 0-37.253 33.669-44.421 35.929C24.131 46.835.477 78.516.477 116.014c0 45.78 35.256 82.891 78.746 82.891 43.49 0 102.837-49.64 102.837-95.419 0-10.486 3.397-31.833 3.451-49.597v-.855c-.027-8.676-.889-16.429-3.386-21.543C167.611 1.764 129.48.669 101.011.669z"/>
        <path id="au" d="M101.011.67c-7.868 0-37.253 33.669-44.421 35.929C24.131 46.835.477 78.516.477 116.014c0 45.78 35.256 82.891 78.746 82.891 43.49 0 102.837-49.64 102.837-95.419 0-10.486 3.397-31.833 3.451-49.597v-.855c-.027-8.676-.889-16.429-3.386-21.543C167.611 1.764 129.48.669 101.011.669z"/>
        <path id="aw" d="M101.011.67c-7.868 0-37.253 33.669-44.421 35.929C24.131 46.835.477 78.516.477 116.014c0 45.78 35.256 82.891 78.746 82.891 43.49 0 102.837-49.64 102.837-95.419 0-10.486 3.397-31.833 3.451-49.597v-.855c-.027-8.676-.889-16.429-3.386-21.543"/>
        <path id="ay" d="M101.011.67c-7.868 0-37.253 33.669-44.421 35.929C24.131 46.835.477 78.516.477 116.014c0 45.78 35.256 82.891 78.746 82.891 43.49 0 102.837-49.64 102.837-95.419 0-10.486 3.397-31.833 3.451-49.597v-.855c-.027-8.676-.889-16.429-3.386-21.543"/>
        <path id="aA" d="M101.011.67c-7.868 0-37.253 33.669-44.421 35.929C24.131 46.835.477 78.516.477 116.014c0 45.78 35.256 82.891 78.746 82.891 43.49 0 102.837-49.64 102.837-95.419 0-10.486 3.397-31.833 3.451-49.597v-.855c-.027-8.676-.889-16.429-3.386-21.543"/>
        <path id="aC" d="M101.011.67c-7.868 0-37.253 33.669-44.421 35.929C24.131 46.835.477 78.516.477 116.014c0 45.78 35.256 82.891 78.746 82.891 43.49 0 102.837-49.64 102.837-95.419 0-10.486 3.397-31.833 3.451-49.597v-.855c-.027-8.676-.889-16.429-3.386-21.543"/>
        <path id="aE" d="M101.011.67c-7.868 0-37.253 33.669-44.421 35.929C24.131 46.835.477 78.516.477 116.014c0 45.78 35.256 82.891 78.746 82.891 43.49 0 102.837-49.64 102.837-95.419 0-10.486 3.397-31.833 3.451-49.597v-.855c-.027-8.676-.889-16.429-3.386-21.543"/>
        <path id="aG" d="M101.011.67c-7.868 0-37.253 33.669-44.421 35.929C24.131 46.835.477 78.516.477 116.014c0 45.78 35.256 82.891 78.746 82.891 43.49 0 102.837-49.64 102.837-95.419 0-10.486 3.397-31.833 3.451-49.597v-.855c-.027-8.676-.889-16.429-3.386-21.543"/>
        <path id="aI" d="M101.011.67c-7.868 0-37.253 33.669-44.421 35.929C24.131 46.835.477 78.516.477 116.014c0 45.78 35.256 82.891 78.746 82.891 43.49 0 102.837-49.64 102.837-95.419 0-10.486 3.397-31.833 3.451-49.597v-.855c-.027-8.676-.889-16.429-3.386-21.543"/>
        <path id="aK" d="M101.011.67c-7.868 0-37.253 33.669-44.421 35.929C24.131 46.835.477 78.516.477 116.014c0 45.78 35.256 82.891 78.746 82.891 43.49 0 102.837-49.64 102.837-95.419 0-10.486 3.397-31.833 3.451-49.597v-.855c-.027-8.676-.889-16.429-3.386-21.543"/>
        <path id="aM" d="M101.011.67c-7.868 0-37.253 33.669-44.421 35.929C24.131 46.835.477 78.516.477 116.014c0 45.78 35.256 82.891 78.746 82.891 43.49 0 102.837-49.64 102.837-95.419 0-10.486 3.397-31.833 3.451-49.597v-.855c-.027-8.676-.889-16.429-3.386-21.543"/>
        <path id="aO" d="M101.011.67c-7.868 0-37.253 33.669-44.421 35.929C24.131 46.835.477 78.516.477 116.014c0 45.78 35.256 82.891 78.746 82.891 43.49 0 102.837-49.64 102.837-95.419 0-10.486 3.397-31.833 3.451-49.597v-.855c-.027-8.676-.889-16.429-3.386-21.543"/>
        <path id="aQ" d="M101.011.67c-7.868 0-37.253 33.669-44.421 35.929C24.131 46.835.477 78.516.477 116.014c0 45.78 35.256 82.891 78.746 82.891 43.49 0 102.837-49.64 102.837-95.419 0-10.486 3.397-31.833 3.451-49.597v-.855c-.027-8.676-.889-16.429-3.386-21.543"/>
        <path id="aS" d="M101.011.67c-7.868 0-37.253 33.669-44.421 35.929C24.131 46.835.477 78.516.477 116.014c0 45.78 35.256 82.891 78.746 82.891 43.49 0 102.837-49.64 102.837-95.419 0-10.486 3.397-31.833 3.451-49.597v-.855c-.027-8.676-.889-16.429-3.386-21.543"/>
        <path id="aU" d="M101.011.67c-7.868 0-37.253 33.669-44.421 35.929C24.131 46.835.477 78.516.477 116.014c0 45.78 35.256 82.891 78.746 82.891 43.49 0 102.837-49.64 102.837-95.419 0-10.486 3.397-31.833 3.451-49.597v-.855c-.027-8.676-.889-16.429-3.386-21.543"/>
        <path id="aW" d="M101.011.67c-7.868 0-37.253 33.669-44.421 35.929C24.131 46.835.477 78.516.477 116.014c0 45.78 35.256 82.891 78.746 82.891 43.49 0 102.837-49.64 102.837-95.419 0-10.486 3.397-31.833 3.451-49.597v-.855c-.027-8.676-.889-16.429-3.386-21.543"/>
        <path id="aY" d="M101.011.67c-7.868 0-37.253 33.669-44.421 35.929C24.131 46.835.477 78.516.477 116.014c0 45.78 35.256 82.891 78.746 82.891 43.49 0 102.837-49.64 102.837-95.419 0-10.486 3.397-31.833 3.451-49.597v-.855c-.027-8.676-.889-16.429-3.386-21.543"/>
        <path id="ba" d="M101.011.67c-7.868 0-37.253 33.669-44.421 35.929C24.131 46.835.477 78.516.477 116.014c0 45.78 35.256 82.891 78.746 82.891 43.49 0 102.837-49.64 102.837-95.419 0-10.486 3.397-31.833 3.451-49.597v-.855c-.027-8.676-.889-16.429-3.386-21.543"/>
        <path id="bc" d="M101.011.67c-7.868 0-37.253 33.669-44.421 35.929C24.131 46.835.477 78.516.477 116.014c0 45.78 35.256 82.891 78.746 82.891 43.49 0 102.837-49.64 102.837-95.419 0-10.486 3.397-31.833 3.451-49.597v-.855c-.027-8.676-.889-16.429-3.386-21.543"/>
        <path id="be" d="M101.011.67c-7.868 0-37.253 33.669-44.421 35.929C24.131 46.835.477 78.516.477 116.014c0 45.78 35.256 82.891 78.746 82.891 43.49 0 102.837-49.64 102.837-95.419 0-10.486 3.397-31.833 3.451-49.597v-.855c-.027-8.676-.889-16.429-3.386-21.543"/>
        <path id="bg" d="M101.011.67c-7.868 0-37.253 33.669-44.421 35.929C24.131 46.835.477 78.516.477 116.014c0 45.78 35.256 82.891 78.746 82.891 43.49 0 102.837-49.64 102.837-95.419 0-10.486 3.397-31.833 3.451-49.597v-.855c-.027-8.676-.889-16.429-3.386-21.543"/>
        <path id="bi" d="M101.011.67c-7.868 0-37.253 33.669-44.421 35.929C24.131 46.835.477 78.516.477 116.014c0 45.78 35.256 82.891 78.746 82.891 43.49 0 102.837-49.64 102.837-95.419 0-10.486 3.397-31.833 3.451-49.597v-.855c-.027-8.676-.889-16.429-3.386-21.543"/>
        <path id="bk" d="M101.011.67c-7.868 0-37.253 33.669-44.421 35.929C24.131 46.835.477 78.516.477 116.014c0 45.78 35.256 82.891 78.746 82.891 43.49 0 102.837-49.64 102.837-95.419 0-10.486 3.397-31.833 3.451-49.597v-.855c-.027-8.676-.889-16.429-3.386-21.543"/>
        <path id="bm" d="M101.011.67c-7.868 0-37.253 33.669-44.421 35.929C24.131 46.835.477 78.516.477 116.014c0 45.78 35.256 82.891 78.746 82.891 43.49 0 102.837-49.64 102.837-95.419 0-10.486 3.397-31.833 3.451-49.597v-.855c-.027-8.676-.889-16.429-3.386-21.543"/>
        <path id="bo" d="M101.011.67c-7.868 0-37.253 33.669-44.421 35.929C24.131 46.835.477 78.516.477 116.014c0 45.78 35.256 82.891 78.746 82.891 43.49 0 102.837-49.64 102.837-95.419 0-10.486 3.397-31.833 3.451-49.597v-.855c-.027-8.676-.889-16.429-3.386-21.543"/>
        <path id="bq" d="M101.011.67c-7.868 0-37.253 33.669-44.421 35.929C24.131 46.835.477 78.516.477 116.014c0 45.78 35.256 82.891 78.746 82.891 43.49 0 102.837-49.64 102.837-95.419 0-10.486 3.397-31.833 3.451-49.597v-.855c-.027-8.676-.889-16.429-3.386-21.543"/>
        <path id="bs" d="M101.011.67c-7.868 0-37.253 33.669-44.421 35.929C24.131 46.835.477 78.516.477 116.014c0 45.78 35.256 82.891 78.746 82.891 43.49 0 102.837-49.64 102.837-95.419 0-10.486 3.397-31.833 3.451-49.597v-.855c-.027-8.676-.889-16.429-3.386-21.543"/>
        <path id="bu" d="M101.011.67c-7.868 0-37.253 33.669-44.421 35.929C24.131 46.835.477 78.516.477 116.014c0 45.78 35.256 82.891 78.746 82.891 43.49 0 102.837-49.64 102.837-95.419 0-10.486 3.397-31.833 3.451-49.597v-.855c-.027-8.676-.889-16.429-3.386-21.543"/>
        <path id="bw" d="M101.011.67c-7.868 0-37.253 33.669-44.421 35.929C24.131 46.835.477 78.516.477 116.014c0 45.78 35.256 82.891 78.746 82.891 43.49 0 102.837-49.64 102.837-95.419 0-10.486 3.397-31.833 3.451-49.597v-.855c-.027-8.676-.889-16.429-3.386-21.543"/>
        <path id="by" d="M101.011.67c-7.868 0-37.253 33.669-44.421 35.929C24.131 46.835.477 78.516.477 116.014c0 45.78 35.256 82.891 78.746 82.891 43.49 0 102.837-49.64 102.837-95.419 0-10.486 3.397-31.833 3.451-49.597v-.855c-.027-8.676-.889-16.429-3.386-21.543"/>
        <path id="bA" d="M101.011.67c-7.868 0-37.253 33.669-44.421 35.929C24.131 46.835.477 78.516.477 116.014c0 45.78 35.256 82.891 78.746 82.891 43.49 0 102.837-49.64 102.837-95.419 0-10.486 3.397-31.833 3.451-49.597v-.855c-.027-8.676-.889-16.429-3.386-21.543"/>
        <path id="bC" d="M101.011.67c-7.868 0-37.253 33.669-44.421 35.929C24.131 46.835.477 78.516.477 116.014c0 45.78 35.256 82.891 78.746 82.891 43.49 0 102.837-49.64 102.837-95.419 0-10.486 3.397-31.833 3.451-49.597v-.855c-.027-8.676-.889-16.429-3.386-21.543"/>
        <path id="bE" d="M101.011.67c-7.868 0-37.253 33.669-44.421 35.929C24.131 46.835.477 78.516.477 116.014c0 45.78 35.256 82.891 78.746 82.891 43.49 0 102.837-49.64 102.837-95.419 0-10.486 3.397-31.833 3.451-49.597v-.855c-.027-8.676-.889-16.429-3.386-21.543"/>
        <path id="bG" d="M101.011.67c-7.868 0-37.253 33.669-44.421 35.929C24.131 46.835.477 78.516.477 116.014c0 45.78 35.256 82.891 78.746 82.891 43.49 0 102.837-49.64 102.837-95.419 0-10.486 3.397-31.833 3.451-49.597v-.855c-.027-8.676-.889-16.429-3.386-21.543"/>
        <path id="bI" d="M101.011.67c-7.868 0-37.253 33.669-44.421 35.929C24.131 46.835.477 78.516.477 116.014c0 45.78 35.256 82.891 78.746 82.891 43.49 0 102.837-49.64 102.837-95.419 0-10.486 3.397-31.833 3.451-49.597v-.855c-.027-8.676-.889-16.429-3.386-21.543"/>
        <path id="bK" d="M101.011.67c-7.868 0-37.253 33.669-44.421 35.929C24.131 46.835.477 78.516.477 116.014c0 45.78 35.256 82.891 78.746 82.891 43.49 0 102.837-49.64 102.837-95.419 0-10.486 3.397-31.833 3.451-49.597v-.855c-.027-8.676-.889-16.429-3.386-21.543"/>
        <path id="bM" d="M101.011.67c-7.868 0-37.253 33.669-44.421 35.929C24.131 46.835.477 78.516.477 116.014c0 45.78 35.256 82.891 78.746 82.891 43.49 0 102.837-49.64 102.837-95.419 0-10.486 3.397-31.833 3.451-49.597v-.855c-.027-8.676-.889-16.429-3.386-21.543"/>
        <path id="bO" d="M101.011.67c-7.868 0-37.253 33.669-44.421 35.929C24.131 46.835.477 78.516.477 116.014c0 45.78 35.256 82.891 78.746 82.891 43.49 0 102.837-49.64 102.837-95.419 0-10.486 3.397-31.833 3.451-49.597v-.855c-.027-8.676-.889-16.429-3.386-21.543"/>
        <path id="bQ" d="M101.011.67c-7.868 0-37.253 33.669-44.421 35.929C24.131 46.835.477 78.516.477 116.014c0 45.78 35.256 82.891 78.746 82.891 43.49 0 102.837-49.64 102.837-95.419 0-10.486 3.397-31.833 3.451-49.597v-.855c-.027-8.676-.889-16.429-3.386-21.543"/>
        <path id="bS" d="M101.011.67c-7.868 0-37.253 33.669-44.421 35.929C24.131 46.835.477 78.516.477 116.014c0 45.78 35.256 82.891 78.746 82.891 43.49 0 102.837-49.64 102.837-95.419 0-10.486 3.397-31.833 3.451-49.597v-.855c-.027-8.676-.889-16.429-3.386-21.543"/>
        <path id="bU" d="M101.011.67c-7.868 0-37.253 33.669-44.421 35.929C24.131 46.835.477 78.516.477 116.014c0 45.78 35.256 82.891 78.746 82.891 43.49 0 102.837-49.64 102.837-95.419 0-10.486 3.397-31.833 3.451-49.597v-.855c-.027-8.676-.889-16.429-3.386-21.543"/>
        <path id="bW" d="M101.011.67c-7.868 0-37.253 33.669-44.421 35.929C24.131 46.835.477 78.516.477 116.014c0 45.78 35.256 82.891 78.746 82.891 43.49 0 102.837-49.64 102.837-95.419 0-10.486 3.397-31.833 3.451-49.597v-.855c-.027-8.676-.889-16.429-3.386-21.543"/>
        <path id="bY" d="M101.011.67c-7.868 0-37.253 33.669-44.421 35.929C24.131 46.835.477 78.516.477 116.014c0 45.78 35.256 82.891 78.746 82.891 43.49 0 102.837-49.64 102.837-95.419 0-10.486 3.397-31.833 3.451-49.597v-.855c-.027-8.676-.889-16.429-3.386-21.543"/>
        <path id="ca" d="M101.011.67c-7.868 0-37.253 33.669-44.421 35.929C24.131 46.835.477 78.516.477 116.014c0 45.78 35.256 82.891 78.746 82.891 43.49 0 102.837-49.64 102.837-95.419 0-10.486 3.397-31.833 3.451-49.597v-.855c-.027-8.676-.889-16.429-3.386-21.543"/>
        <path id="cc" d="M101.011.67c-7.868 0-37.253 33.669-44.421 35.929C24.131 46.835.477 78.516.477 116.014c0 45.78 35.256 82.891 78.746 82.891 43.49 0 102.837-49.64 102.837-95.419 0-10.486 3.397-31.833 3.451-49.597v-.855c-.027-8.676-.889-16.429-3.386-21.543"/>
        <path id="ce" d="M101.011.67c-7.868 0-37.253 33.669-44.421 35.929C24.131 46.835.477 78.516.477 116.014c0 45.78 35.256 82.891 78.746 82.891 43.49 0 102.837-49.64 102.837-95.419 0-10.486 3.397-31.833 3.451-49.597v-.855c-.027-8.676-.889-16.429-3.386-21.543"/>
        <path id="cg" d="M101.011.67c-7.868 0-37.253 33.669-44.421 35.929C24.131 46.835.477 78.516.477 116.014c0 45.78 35.256 82.891 78.746 82.891 43.49 0 102.837-49.64 102.837-95.419 0-10.486 3.397-31.833 3.451-49.597v-.855c-.027-8.676-.889-16.429-3.386-21.543"/>
        <path id="ci" d="M101.011.67c-7.868 0-37.253 33.669-44.421 35.929C24.131 46.835.477 78.516.477 116.014c0 45.78 35.256 82.891 78.746 82.891 43.49 0 102.837-49.64 102.837-95.419 0-10.486 3.397-31.833 3.451-49.597v-.855c-.027-8.676-.889-16.429-3.386-21.543"/>
        <path id="ck" d="M101.011.67c-7.868 0-37.253 33.669-44.421 35.929C24.131 46.835.477 78.516.477 116.014c0 45.78 35.256 82.891 78.746 82.891 43.49 0 102.837-49.64 102.837-95.419 0-10.486 3.397-31.833 3.451-49.597v-.855c-.027-8.676-.889-16.429-3.386-21.543"/>
        <path id="cm" d="M101.011.67c-7.868 0-37.253 33.669-44.421 35.929C24.131 46.835.477 78.516.477 116.014c0 45.78 35.256 82.891 78.746 82.891 43.49 0 102.837-49.64 102.837-95.419 0-10.486 3.397-31.833 3.451-49.597v-.855c-.027-8.676-.889-16.429-3.386-21.543"/>
        <path id="co" d="M101.011.67c-7.868 0-37.253 33.669-44.421 35.929C24.131 46.835.477 78.516.477 116.014c0 45.78 35.256 82.891 78.746 82.891 43.49 0 102.837-49.64 102.837-95.419 0-10.486 3.397-31.833 3.451-49.597v-.855c-.027-8.676-.889-16.429-3.386-21.543"/>
        <path id="cq" d="M101.011.67c-7.868 0-37.253 33.669-44.421 35.929C24.131 46.835.477 78.516.477 116.014c0 45.78 35.256 82.891 78.746 82.891 43.49 0 102.837-49.64 102.837-95.419 0-10.486 3.397-31.833 3.451-49.597v-.855c-.027-8.676-.889-16.429-3.386-21.543"/>
        <path id="cs" d="M101.011.67c-7.868 0-37.253 33.669-44.421 35.929C24.131 46.835.477 78.516.477 116.014c0 45.78 35.256 82.891 78.746 82.891 43.49 0 102.837-49.64 102.837-95.419 0-10.486 3.397-31.833 3.451-49.597v-.855c-.027-8.676-.889-16.429-3.386-21.543"/>
        <path id="cu" d="M101.011.67c-7.868 0-37.253 33.669-44.421 35.929C24.131 46.835.477 78.516.477 116.014c0 45.78 35.256 82.891 78.746 82.891 43.49 0 102.837-49.64 102.837-95.419 0-10.486 3.397-31.833 3.451-49.597v-.855c-.027-8.676-.889-16.429-3.386-21.543"/>
        <path id="cw" d="M101.011.67c-7.868 0-37.253 33.669-44.421 35.929C24.131 46.835.477 78.516.477 116.014c0 45.78 35.256 82.891 78.746 82.891 43.49 0 102.837-49.64 102.837-95.419 0-10.486 3.397-31.833 3.451-49.597v-.855c-.027-8.676-.889-16.429-3.386-21.543"/>
        <path id="cy" d="M101.011.67c-7.868 0-37.253 33.669-44.421 35.929C24.131 46.835.477 78.516.477 116.014c0 45.78 35.256 82.891 78.746 82.891 43.49 0 102.837-49.64 102.837-95.419 0-10.486 3.397-31.833 3.451-49.597v-.855c-.027-8.676-.889-16.429-3.386-21.543"/>
        <path id="cA" d="M101.011.67c-7.868 0-37.253 33.669-44.421 35.929C24.131 46.835.477 78.516.477 116.014c0 45.78 35.256 82.891 78.746 82.891 43.49 0 102.837-49.64 102.837-95.419 0-10.486 3.397-31.833 3.451-49.597v-.855c-.027-8.676-.889-16.429-3.386-21.543"/>
        <path id="cC" d="M101.011.67c-7.868 0-37.253 33.669-44.421 35.929C24.131 46.835.477 78.516.477 116.014c0 45.78 35.256 82.891 78.746 82.891 43.49 0 102.837-49.64 102.837-95.419 0-10.486 3.397-31.833 3.451-49.597v-.855c-.027-8.676-.889-16.429-3.386-21.543"/>
        <path id="cE" d="M101.011.67c-7.868 0-37.253 33.669-44.421 35.929C24.131 46.835.477 78.516.477 116.014c0 45.78 35.256 82.891 78.746 82.891 43.49 0 102.837-49.64 102.837-95.419 0-10.486 3.397-31.833 3.451-49.597v-.855c-.027-8.676-.889-16.429-3.386-21.543"/>
        <path id="cG" d="M101.011.67c-7.868 0-37.253 33.669-44.421 35.929C24.131 46.835.477 78.516.477 116.014c0 45.78 35.256 82.891 78.746 82.891 43.49 0 102.837-49.64 102.837-95.419 0-10.486 3.397-31.833 3.451-49.597v-.855c-.027-8.676-.889-16.429-3.386-21.543"/>
        <path id="cI" d="M101.011.67c-7.868 0-37.253 33.669-44.421 35.929C24.131 46.835.477 78.516.477 116.014c0 45.78 35.256 82.891 78.746 82.891 43.49 0 102.837-49.64 102.837-95.419 0-10.486 3.397-31.833 3.451-49.597v-.855c-.027-8.676-.889-16.429-3.386-21.543"/>
        <path id="cK" d="M101.011.67c-7.868 0-37.253 33.669-44.421 35.929C24.131 46.835.477 78.516.477 116.014c0 45.78 35.256 82.891 78.746 82.891 43.49 0 102.837-49.64 102.837-95.419 0-10.486 3.397-31.833 3.451-49.597v-.855c-.027-8.676-.889-16.429-3.386-21.543"/>
        <path id="cM" d="M101.011.67c-7.868 0-37.253 33.669-44.421 35.929C24.131 46.835.477 78.516.477 116.014c0 45.78 35.256 82.891 78.746 82.891 43.49 0 102.837-49.64 102.837-95.419 0-10.486 3.397-31.833 3.451-49.597v-.855c-.027-8.676-.889-16.429-3.386-21.543"/>
        <path id="cO" d="M101.011.67c-7.868 0-37.253 33.669-44.421 35.929C24.131 46.835.477 78.516.477 116.014c0 45.78 35.256 82.891 78.746 82.891 43.49 0 102.837-49.64 102.837-95.419 0-10.486 3.397-31.833 3.451-49.597v-.855c-.027-8.676-.889-16.429-3.386-21.543"/>
        <path id="cQ" d="M101.011.67c-7.868 0-37.253 33.669-44.421 35.929C24.131 46.835.477 78.516.477 116.014c0 45.78 35.256 82.891 78.746 82.891 43.49 0 102.837-49.64 102.837-95.419 0-10.486 3.397-31.833 3.451-49.597v-.855c-.027-8.676-.889-16.429-3.386-21.543"/>
        <path id="cS" d="M101.011.67c-7.868 0-37.253 33.669-44.421 35.929C24.131 46.835.477 78.516.477 116.014c0 45.78 35.256 82.891 78.746 82.891 43.49 0 102.837-49.64 102.837-95.419 0-10.486 3.397-31.833 3.451-49.597v-.855c-.027-8.676-.889-16.429-3.386-21.543"/>
        <path id="cU" d="M101.011.67c-7.868 0-37.253 33.669-44.421 35.929C24.131 46.835.477 78.516.477 116.014c0 45.78 35.256 82.891 78.746 82.891 43.49 0 102.837-49.64 102.837-95.419 0-10.486 3.397-31.833 3.451-49.597v-.855c-.027-8.676-.889-16.429-3.386-21.543"/>
        <path id="cW" d="M101.011.67c-7.868 0-37.253 33.669-44.421 35.929C24.131 46.835.477 78.516.477 116.014c0 45.78 35.256 82.891 78.746 82.891 43.49 0 102.837-49.64 102.837-95.419 0-10.486 3.397-31.833 3.451-49.597v-.855c-.027-8.676-.889-16.429-3.386-21.543"/>
        <path id="cY" d="M101.011.67c-7.868 0-37.253 33.669-44.421 35.929C24.131 46.835.477 78.516.477 116.014c0 45.78 35.256 82.891 78.746 82.891 43.49 0 102.837-49.64 102.837-95.419 0-10.486 3.397-31.833 3.451-49.597v-.855c-.027-8.676-.889-16.429-3.386-21.543"/>
        <path id="da" d="M101.011.67c-7.868 0-37.253 33.669-44.421 35.929C24.131 46.835.477 78.516.477 116.014c0 45.78 35.256 82.891 78.746 82.891 43.49 0 102.837-49.64 102.837-95.419 0-10.486 3.397-31.833 3.451-49.597v-.855c-.027-8.676-.889-16.429-3.386-21.543"/>
        <path id="dc" d="M101.011.67c-7.868 0-37.253 33.669-44.421 35.929C24.131 46.835.477 78.516.477 116.014c0 45.78 35.256 82.891 78.746 82.891 43.49 0 102.837-49.64 102.837-95.419 0-10.486 3.397-31.833 3.451-49.597v-.855c-.027-8.676-.889-16.429-3.386-21.543"/>
        <path id="de" d="M101.011.67c-7.868 0-37.253 33.669-44.421 35.929C24.131 46.835.477 78.516.477 116.014c0 45.78 35.256 82.891 78.746 82.891 43.49 0 102.837-49.64 102.837-95.419 0-10.486 3.397-31.833 3.451-49.597v-.855c-.027-8.676-.889-16.429-3.386-21.543"/>
        <path id="dg" d="M101.011.67c-7.868 0-37.253 33.669-44.421 35.929C24.131 46.835.477 78.516.477 116.014c0 45.78 35.256 82.891 78.746 82.891 43.49 0 102.837-49.64 102.837-95.419 0-10.486 3.397-31.833 3.451-49.597v-.855c-.027-8.676-.889-16.429-3.386-21.543"/>
        <path id="di" d="M101.011.67c-7.868 0-37.253 33.669-44.421 35.929C24.131 46.835.477 78.516.477 116.014c0 45.78 35.256 82.891 78.746 82.891 43.49 0 102.837-49.64 102.837-95.419 0-10.486 3.397-31.833 3.451-49.597v-.855c-.027-8.676-.889-16.429-3.386-21.543"/>
        <path id="dk" d="M101.011.67c-7.868 0-37.253 33.669-44.421 35.929C24.131 46.835.477 78.516.477 116.014c0 45.78 35.256 82.891 78.746 82.891 43.49 0 102.837-49.64 102.837-95.419 0-10.486 3.397-31.833 3.451-49.597v-.855c-.027-8.676-.889-16.429-3.386-21.543"/>
        <path id="dm" d="M101.011.67c-7.868 0-37.253 33.669-44.421 35.929C24.131 46.835.477 78.516.477 116.014c0 45.78 35.256 82.891 78.746 82.891 43.49 0 102.837-49.64 102.837-95.419 0-10.486 3.397-31.833 3.451-49.597v-.855c-.027-8.676-.889-16.429-3.386-21.543"/>
        <path id="do" d="M101.011.67c-7.868 0-37.253 33.669-44.421 35.929C24.131 46.835.477 78.516.477 116.014c0 45.78 35.256 82.891 78.746 82.891 43.49 0 102.837-49.64 102.837-95.419 0-10.486 3.397-31.833 3.451-49.597v-.855c-.027-8.676-.889-16.429-3.386-21.543"/>
        <path id="dq" d="M101.011.67c-7.868 0-37.253 33.669-44.421 35.929C24.131 46.835.477 78.516.477 116.014c0 45.78 35.256 82.891 78.746 82.891 43.49 0 102.837-49.64 102.837-95.419 0-10.486 3.397-31.833 3.451-49.597v-.855c-.027-8.676-.889-16.429-3.386-21.543"/>
        <path id="ds" d="M101.011.67c-7.868 0-37.253 33.669-44.421 35.929C24.131 46.835.477 78.516.477 116.014c0 45.78 35.256 82.891 78.746 82.891 43.49 0 102.837-49.64 102.837-95.419 0-10.486 3.397-31.833 3.451-49.597v-.855c-.027-8.676-.889-16.429-3.386-21.543"/>
        <path id="du" d="M101.011.67c-7.868 0-37.253 33.669-44.421 35.929C24.131 46.835.477 78.516.477 116.014c0 45.78 35.256 82.891 78.746 82.891 43.49 0 102.837-49.64 102.837-95.419 0-10.486 3.397-31.833 3.451-49.597v-.855c-.027-8.676-.889-16.429-3.386-21.543"/>
    </defs>
    <g fill="none" fill-rule="evenodd">
        <g transform="translate(0 -4.617)">
            <mask id="b" fill="#fff">
                <use xlink:href="#a"/>
            </mask>
            <path fill="#D9C2F0" d="M157.97 116.014c0 45.78-35.257 82.89-78.747 82.89S.477 161.795.477 116.015c0-45.779 35.256-82.89 78.746-82.89 43.49 0 78.746 37.111 78.746 82.89" mask="url(#b)"/>
        </g>
        <g transform="translate(0 -4.617)">
            <mask id="d" fill="#fff">
                <use xlink:href="#c"/>
            </mask>
            <path fill="#8F8F8F" d="M133.191 161.526l-.012.014.012-.014z" mask="url(#d)"/>
        </g>
        <g transform="translate(0 -4.617)">
            <mask id="f" fill="#fff">
                <use xlink:href="#e"/>
            </mask>
            <path fill="#3F403F" d="M161.27 107.723c0 2.31-1.778 4.181-3.972 4.181s-3.973-1.871-3.973-4.18c0-2.31 1.779-4.182 3.973-4.182s3.972 1.872 3.972 4.181" mask="url(#f)"/>
        </g>
        <g transform="translate(0 -4.617)">
            <mask id="h" fill="#fff">
                <use xlink:href="#g"/>
            </mask>
            <path fill="#714E46" d="M25.146 150.327c-.2-1.866-10.184-1.94-10.184-1.94s-2.92 22.469-3.827 30.19c-1.265.912-3.918 2.864-4.912 3.272-2.99 1.226-6.174 2.637-8.122 3.811-1.454.876-3.526 2.721-4.269 3.881-1.567 2.443-.64 4.16.487 3.617 1.662-.8 6.284-3.152 6.284-3.152-2.429 1.963-5.57 5.52-4.884 6.528.21.31 1.438-.406 4.036-2.709 7.733-6.858 12.235-7.656 12.235-7.656s-.512 2.327-1.21 4.195c-.488 1.305.844 1.863 1.204 1.782.776-.174 2.25-6.907 3.235-9.05.591-1.284-.05-2.523-.657-3.31 2.165-5.573 10.76-27.827 10.584-29.459" mask="url(#h)"/>
        </g>
        <g transform="translate(0 -4.617)">
            <mask id="j" fill="#fff">
                <use xlink:href="#i"/>
            </mask>
            <path fill="#FFD200" d="M45.691 168.9l-9.45 93.426 12.675 2.122 13.473-67.257c.41-1.073 1.929-.752 1.914.406l-4.44 68.368s5.784 1.228 10.659-.91c4.875-2.138 14.98-100.431 14.98-100.431s-30.467-6.415-39.811 4.276" mask="url(#j)"/>
        </g>
        <g transform="translate(0 -4.617)">
            <mask id="l" fill="#fff">
                <use xlink:href="#k"/>
            </mask>
            <path fill="#000" d="M59.287 220.176l20.453-3.336c7.193-.934 7.474-49.794 6.506-57.354-5.353-41.805 2.146-35.927 1.245-44.61 0 0-8.038-20.609-17.708-19.534L57.65 96.549l-16.252 5.066-11.832 10.027c-8.51 7.285-1.303 23.573-1.303 23.573S42.29 163.47 34.8 215.627c-.924 6.43 18.354 5.344 24.486 4.549" mask="url(#l)"/>
        </g>
        <g transform="translate(0 -4.617)">
            <mask id="n" fill="#fff">
                <use xlink:href="#m"/>
            </mask>
            <path fill="#62352D" d="M35.461 89.94c2.946 6.325 6.392 18.42 6.669 18.804.273.381 5.449 3.643 8.462 6.032.758.601 2.172.205 2.724-.765 1.941-3.41 1.736-4.692 4.258-9.586-.83-3.24-4.714-15.794-6.381-20.272-3.597 2.651-7.93 4.624-12.285 5.594" mask="url(#n)"/>
        </g>
        <g transform="translate(0 -4.617)">
            <mask id="p" fill="#fff">
                <use xlink:href="#o"/>
            </mask>
            <path fill="#62352D" d="M24.084 79.474c-.73-1.688-2.913-2.31-4.53-1.571-.39.178-.768.438-.97.831-.263.518-.17 1.152-.03 1.721.816 3.32 2.879 6.14 5.09 8.656.858.977 1.842 1.977 3.092 2.162.46.068.987-.01 1.28-.39.175-.228.238-.528.285-.817a12.04 12.04 0 0 0 .027-3.645" mask="url(#p)"/>
        </g>
        <g transform="translate(0 -4.617)">
            <mask id="r" fill="#fff">
                <use xlink:href="#q"/>
            </mask>
            <path fill="#62352D" d="M51.598 71.328a9.198 9.198 0 0 1 .638-4.37c.116-.281.257-.57.503-.736.213-.143.478-.173.73-.162 1.006.046 1.923.695 2.533 1.538.611.842.955 1.863 1.224 2.884.79 2.99 1.02 6.141.674 9.222-.075.669-.185 1.357-.538 1.918-.353.561-1.01.961-1.63.797-.67-.178-1.049-.902-1.35-1.556" mask="url(#r)"/>
        </g>
        <g transform="translate(0 -4.617)">
            <mask id="t" fill="#fff">
                <use xlink:href="#s"/>
            </mask>
            <path fill="#020202" d="M24.231 84.01c-2.929-7.175-7.903-18.872-7.98-21.01-.156-4.235.277-12.02 12.092-17.661 7.323-3.498 17.994.167 20.164 4.643.561 1.158 5.525 18.395 6.368 25.675a147.333 147.333 0 0 0-22.13 8.06" mask="url(#t)"/>
        </g>
        <g transform="translate(0 -4.617)">
            <mask id="v" fill="#fff">
                <use xlink:href="#u"/>
            </mask>
            <path fill="#714E46" d="M49.15 62.303c-1.46-2.9-.974-1.51-4.17-5.57-.94-1.193-6.618-.193-12.05 1.435-5.483 1.644-10.916 4.136-11.79 6.509 0 0 .778 3.402.66 6.08-.244 5.52 1.67 12.95 2.625 14.728.47.872 2.265 3.582 4.756 6.928 1.807 1.546 6.754 6.215 15.306 9.011.747-.084 1.495-.171 2.234-.345 1.56-.367 3.198-1.25 4.56-2.317 2.206-4.64 3.978-9.453 4.48-14.744-.21-3.321-.553-5.91-.882-6.92-.838-2.58-3.175-9.723-5.729-14.795" mask="url(#v)"/>
        </g>
        <g transform="translate(0 -4.617)">
            <mask id="x" fill="#fff">
                <use xlink:href="#w"/>
            </mask>
            <path fill="#62352D" d="M32.015 74.149s-.03-.046-.097-.124a1.772 1.772 0 0 0-.338-.305c-.323-.231-.927-.493-1.762-.443a3.703 3.703 0 0 0-1.287.307c-.428.19-.832.47-1.23.79-.779.657-1.728 1.331-2.073 2.213l.013-.144c.016-.094.044-.236.123-.418.148-.363.528-.871 1.107-1.418.287-.273.603-.575 1.02-.871.41-.292.955-.58 1.586-.704.621-.127 1.3-.108 1.851.098.549.2.954.575 1.087 1.019" mask="url(#x)"/>
        </g>
        <g transform="translate(0 -4.617)">
            <mask id="z" fill="#fff">
                <use xlink:href="#y"/>
            </mask>
            <path fill="#62352D" d="M48.778 68.39s-.019-.05-.075-.127a.984.984 0 0 0-.325-.275c-.337-.18-.919-.377-1.663-.463a4.192 4.192 0 0 0-2.669.622c-.45.285-.822.699-1.137 1.162-.158.23-.31.474-.462.715-.143.233-.278.482-.212.686.007.008-.17-.149 0-.584.08-.21.191-.455.337-.748.15-.29.343-.63.664-.983.64-.73 1.88-1.302 2.996-1.286.56 0 1.078.122 1.537.323.436.2.947.46 1.01.958" mask="url(#z)"/>
        </g>
        <g transform="translate(0 -4.617)">
            <mask id="B" fill="#fff">
                <use xlink:href="#A"/>
            </mask>
            <path fill="#62352D" d="M36.409 80.468l.019-.282c.013-.183.039-.45.045-.792.027-.681.024-1.653-.115-2.8a18.319 18.319 0 0 0-.883-3.829 18.394 18.394 0 0 0-.862-2.057c-.164-.346-.355-.68-.542-1.026-.194-.336-.394-.663-.683-.914 0 0 .08.028.224.112.143.084.345.237.572.471a10.1 10.1 0 0 1 1.603 2.242 11.128 11.128 0 0 1 1.209 3.948c.177 1.55.026 3.302-.587 4.927" mask="url(#B)"/>
        </g>
        <g transform="translate(0 -4.617)">
            <mask id="D" fill="#fff">
                <use xlink:href="#C"/>
            </mask>
            <path fill="#020202" d="M44.487 101.424s3.689 2.446 4.583 2.124c1.107-.399.854-1.175 2.222-4.257.072-.16.12-.42-.011-.528-1.765-1.446-6.968 2.273-6.794 2.661" mask="url(#D)"/>
        </g>
        <g transform="translate(0 -4.617)">
            <mask id="F" fill="#fff">
                <use xlink:href="#E"/>
            </mask>
            <path fill="#FFD200" d="M52.793 69.838c.214 1.672.493 5.266-4.513 7.18-5.008 1.915-6.625-.852-8.143-3.272-1.52-2.42.566-3.837.566-3.837 5.756-4.32 10.817-3.418 10.817-3.418.578.06 1.058 1.673 1.273 3.347m-17.045 5.294c-.005 2.901.092 6.147-5.088 7.452-5.18 1.303-6.826-1.858-7.522-3.381-.694-1.518-1.14-3.146-.687-3.53 0 0 3.75-3.683 10.818-3.418 0 0 2.483-.024 2.479 2.877m3.03-6.001s-.221 1.768-1.725 2.199c-1.477.51-2.582-.837-2.582-.837-9.461-.09-15.316 5.419-15.316 5.419l.397 1.39c.489 1.096 1.76 1.276 1.76 1.276 1.11 2.815 3.358 7.493 10.13 5.355 6.773-2.137 5.457-6.442 5.49-8.016.033-1.573.94-1.724.94-1.724s.837-.398 1.686.896c.85 1.294 2.005 5.651 8.775 3.51 6.772-2.14 6.203-7.35 5.655-10.342 0 0 .97-.888.803-2.082l-.397-1.395s-7.768-1.204-15.615 4.35" mask="url(#F)"/>
        </g>
        <g transform="translate(0 -4.617)">
            <mask id="H" fill="#fff">
                <use xlink:href="#G"/>
            </mask>
            <path fill="#000" d="M52.793 69.838c.214 1.672.493 5.265-4.513 7.18-5.008 1.915-6.625-.852-8.144-3.272-1.518-2.42.567-3.837.567-3.837 5.756-4.32 10.817-3.418 10.817-3.418.578.06 1.058 1.672 1.273 3.347m-17.046 5.293c-.004 2.902.093 6.148-5.087 7.452-5.179 1.304-6.826-1.857-7.522-3.38-.694-1.518-1.14-3.146-.687-3.53 0 0 3.752-3.683 10.818-3.418 0 0 2.483-.024 2.478 2.876" mask="url(#H)"/>
        </g>
        <g transform="translate(0 -4.617)">
            <mask id="J" fill="#fff">
                <use xlink:href="#I"/>
            </mask>
            <path fill="#FFF" d="M34.574 89.056s8.806.908 13.483-2.93c0 0-.249 13.81-13.483 2.93" mask="url(#J)"/>
        </g>
        <g transform="translate(0 -4.617)">
            <mask id="L" fill="#fff">
                <use xlink:href="#K"/>
            </mask>
            <path fill="#62352D" d="M48.272 93.243l-.025.219c-.013.146-.06.353-.137.619-.16.52-.538 1.255-1.259 1.896-.708.632-1.8 1.145-3.026 1.063a3.98 3.98 0 0 1-1.73-.541c-.524-.3-.978-.686-1.403-1.11 0 0 .282 0 .753.047.47.04 1.133.139 1.84.131a6.638 6.638 0 0 0 2.297-.484c.421-.167.86-.381 1.313-.67.452-.291.922-.656 1.377-1.17" mask="url(#L)"/>
        </g>
        <g transform="translate(0 -4.617)">
            <mask id="N" fill="#fff">
                <use xlink:href="#M"/>
            </mask>
            <path fill="#020202" d="M16.577 63.488s-6.268-5.776-3.36-6.222c2.91-.445-.954-5.28 2.13-5.187 3.084.094.93-5.357 4.135-4.303 3.206 1.055 1.96-5.125 4.653-3.887 2.693 1.24 3.73-4.96 6.203-2.636 2.474 2.323 3.785-5.382 5.755-1.672 1.97 3.71 4.486-3.224 6.456.485 1.97 3.71 4.378-2.38 5.211 1.94.832 4.32 4.783-1.724 3.912 3.813-.87 5.537-2.938 11.505-2.187 12.641.751 1.136-5.594-7.225-7.478-7.15-1.884.077-15.096 4.637-15.096 4.637l-10.334 7.541z" mask="url(#N)"/>
        </g>
        <g transform="translate(0 -4.617)">
            <mask id="P" fill="#fff">
                <use xlink:href="#O"/>
            </mask>
            <path fill="#000" d="M64.76 96.604s17.674-15.293 22.634-15.75c4.96-.458 17.45.137 16.779 8.079-.67 7.942 3.38 18.505 3.38 18.505s-34.236 19.52-34.938 20.526c-.702 1.008-11.334-27.019-7.854-31.36" mask="url(#P)"/>
        </g>
        <g transform="translate(0 -4.617)">
            <mask id="R" fill="#fff">
                <use xlink:href="#Q"/>
            </mask>
            <path fill="#62352D" d="M71.254 90.567l14.312-6.616 32-64.77 32.987 18.695 10.952-5.644 6.179 7.033S155.69 54.88 152.908 59.073s-42.641 41.153-42.641 41.153l-19.46 4.471s-18.847-2.537-19.553-14.13" mask="url(#R)"/>
        </g>
        <g transform="translate(0 -4.617)">
            <mask id="T" fill="#fff">
                <use xlink:href="#S"/>
            </mask>
            <path fill="#595959" d="M181.307 82.026l-80.293-73.31c-1.745-1.593-4.387-1.401-5.908.43l-39.27 47.249c-1.526 1.836-1.349 4.629.398 6.235l80.313 73.87c1.752 1.611 4.416 1.416 5.937-.438l39.25-47.81c1.512-1.844 1.322-4.63-.427-6.226" mask="url(#T)"/>
        </g>
        <g transform="translate(0 -4.617)">
            <mask id="V" fill="#fff">
                <use xlink:href="#U"/>
            </mask>
            <path fill="#8F8F8F" d="M180.946 79.555l-80.293-73.31c-1.745-1.593-4.387-1.401-5.908.43l-39.27 47.249c-1.526 1.837-1.349 4.63.398 6.235l80.313 73.87c1.752 1.612 4.416 1.416 5.937-.438l39.25-47.81c1.512-1.844 1.322-4.629-.427-6.226" mask="url(#V)"/>
        </g>
        <g transform="translate(0 -4.617)">
            <mask id="X" fill="#fff">
                <use xlink:href="#W"/>
            </mask>
            <path fill="#FFF" d="M169.954 77.032l-66.876-61.06c-1.454-1.327-3.654-1.167-4.921.357L65.449 55.683c-1.271 1.53-1.123 3.856.33 5.194l66.894 61.526c1.46 1.343 3.678 1.18 4.945-.365l32.69-39.82c1.26-1.537 1.103-3.857-.354-5.186" mask="url(#X)"/>
        </g>
        <g transform="translate(0 -4.617)">
            <mask id="Z" fill="#fff">
                <use xlink:href="#Y"/>
            </mask>
            <path fill="#714E46" d="M114.317 30.759c-3.468-2.186-4.607-6.96-2.531-10.61l4.107-7.222c2.076-3.65 6.612-4.848 10.08-2.663 3.467 2.185 4.606 6.96 2.53 10.61l-4.106 7.22c-2.076 3.651-6.612 4.85-10.08 2.665" mask="url(#Z)"/>
        </g>
        <g transform="translate(0 -4.617)">
            <mask id="ab" fill="#fff">
                <use xlink:href="#aa"/>
            </mask>
            <path fill="#714E46" d="M128.012 38.712c-3.468-2.185-4.607-6.96-2.53-10.61l4.106-7.222c2.076-3.65 6.612-4.848 10.08-2.663 3.467 2.186 4.606 6.96 2.53 10.61l-4.106 7.22c-2.076 3.651-6.612 4.85-10.08 2.665" mask="url(#ab)"/>
        </g>
        <g transform="translate(0 -4.617)">
            <mask id="ad" fill="#fff">
                <use xlink:href="#ac"/>
            </mask>
            <path fill="#714E46" d="M140.112 46.121c-3.468-2.185-4.607-6.96-2.531-10.61l4.107-7.222c2.076-3.649 6.612-4.848 10.08-2.663 3.467 2.186 4.606 6.96 2.53 10.61l-4.106 7.22c-2.076 3.651-6.612 4.85-10.08 2.665" mask="url(#ad)"/>
        </g>
        <g transform="translate(0 -4.617)">
            <mask id="af" fill="#fff">
                <use xlink:href="#ae"/>
            </mask>
            <path fill="#714E46" d="M156.757 45.37c-3.468-2.185-4.607-6.96-2.53-10.61l4.106-7.222c2.076-3.65 6.612-4.848 10.08-2.663 3.467 2.185 4.606 6.96 2.53 10.61l-4.106 7.22c-2.076 3.651-6.612 4.85-10.08 2.665" mask="url(#af)"/>
        </g>
        <g transform="translate(0 -4.617)">
            <mask id="ah" fill="#fff">
                <use xlink:href="#ag"/>
            </mask>
            <path fill="#714E46" d="M98.45 103.03c-.978 4.127-4.988 6.66-8.91 5.63l-15.296-4.021c-3.921-1.03-6.328-5.25-5.35-9.379.98-4.127 4.99-6.661 8.91-5.63l15.298 4.02c3.92 1.031 6.328 5.252 5.349 9.38" mask="url(#ah)"/>
        </g>
        <g transform="translate(0 -4.617)">
            <mask id="aj" fill="#fff">
                <use xlink:href="#ai"/>
            </mask>
            <path fill="#3F403F" d="M71.532 42.721l14.264-16.535" mask="url(#aj)"/>
        </g>
        <g transform="translate(0 -4.617)">
            <mask id="al" fill="#fff">
                <use xlink:href="#ak"/>
            </mask>
            <path fill="#3F403F" d="M72.25 43.477l14.264-16.535c.877-1.017-.555-2.533-1.436-1.512-4.755 5.512-9.51 11.023-14.264 16.536-.877 1.017.555 2.532 1.436 1.511" mask="url(#al)"/>
        </g>
        <g transform="translate(0 -4.617)">
            <mask id="an" fill="#fff">
                <use xlink:href="#am"/>
            </mask>
            <path fill="#000" d="M26.192 116.303s-8.25 16.897-12.258 30.025c-.843 2.76.079 5.772 2.281 7.516 3.707 2.932 6.89 2.995 12.334-3.88l11.86-14.344-14.217-19.317z" mask="url(#an)"/>
        </g>
        <g transform="translate(0 -4.617)">
            <mask id="ap" fill="#fff">
                <use xlink:href="#ao"/>
            </mask>
            <path fill="#FFD200" d="M60.564 103.424c-.532-2.524-1.628-4.95-3.363-6.735l-1.76.544c.008.022 1.677 4.787 1.672 6.742-.003 1.218-2.677 8.195-3.88 9.252-.701.915-6.175-1.322-7.698-2.35-1.436-.968-2.708-1.582-3.764-3.136-.133-.196-1.132-3.403-1.656-5.114l-1.566 1.402c-.492.928-.877 1.894-.88 2.778.019.289.06.567.134.84.134.409.327.807.564 1.19.136.193.296.388.484.585.467.488.963.946 1.469 1.392 4.45 2.72 10.333 7.262 13.456 7.955.588-.371 1.08-.939 1.487-1.586 1.334-2.132 2.369-4.605 3.365-6.926.863-2.013 1.587-4.093 2.044-6.247-.032-.193-.066-.39-.108-.586" mask="url(#ap)"/>
        </g>
        <g transform="translate(0 -4.617)">
            <mask id="ar" fill="#fff">
                <use xlink:href="#aq"/>
            </mask>
            <path fill="#FFD200" d="M18.387 149.503c-1.696-1.439-2.926-3.372-3.715-5.492-.26.783-.506 1.556-.738 2.316-.843 2.761.079 5.774 2.282 7.516 3.355 2.656 6.282 2.958 10.847-2.113-3.108.547-6.168-.099-8.676-2.227" mask="url(#ar)"/>
        </g>
        <g transform="translate(0 -4.617)">
            <mask id="at" fill="#fff">
                <use xlink:href="#as"/>
            </mask>
            <path fill="#FFD200" d="M49.54 116.813l8.95 36.673 6.073-1.682-7.991-37.683z" mask="url(#at)"/>
        </g>
        <g transform="translate(0 -4.617)">
            <mask id="av" fill="#fff">
                <use xlink:href="#au"/>
            </mask>
            <path fill="#FFD200" d="M65.841 126.907l1.28 3.7 11.186-2.691-.959-4.374z" mask="url(#av)"/>
        </g>
        <g transform="translate(0 -4.617)">
            <mask id="ax" fill="#fff">
                <use xlink:href="#aw"/>
            </mask>
            <path fill="#62352D" d="M43.829 81.42a12.465 12.465 0 0 1-3.154-5.517c-.33-1.205-1.376-1.549-2.273-1.307.026.124.057.25.077.373.368 2.278.608 4.522.715 6.74a16.039 16.039 0 0 0 1.983 2.503c1.731 1.772 4.386-1.017 2.652-2.792" mask="url(#ax)"/>
        </g>
        <g transform="translate(0 -4.617)">
            <mask id="az" fill="#fff">
                <use xlink:href="#ay"/>
            </mask>
            <path fill="#000" d="M56.891 98.806l.236.496c.359.758 1.438.093 1.079-.664l-.236-.496c-.359-.757-1.438-.092-1.079.664" mask="url(#az)"/>
        </g>
        <g transform="translate(0 -4.617)">
            <mask id="aB" fill="#fff">
                <use xlink:href="#aA"/>
            </mask>
            <path fill="#000" d="M58.555 103.013c.14.24.198.462.143.74-.164.827 1.04 1.18 1.205.35.124-.623.05-1.206-.269-1.754-.419-.72-1.5-.06-1.079.664" mask="url(#aB)"/>
        </g>
        <g transform="translate(0 -4.617)">
            <mask id="aD" fill="#fff">
                <use xlink:href="#aC"/>
            </mask>
            <path fill="#000" d="M57.607 107.08l-.468.747c-.444.709.638 1.369 1.08.664l.467-.747c.444-.71-.638-1.37-1.079-.664" mask="url(#aD)"/>
        </g>
        <g transform="translate(0 -4.617)">
            <mask id="aF" fill="#fff">
                <use xlink:href="#aE"/>
            </mask>
            <path fill="#000" d="M55.691 111.28l-.465.997c-.354.756.724 1.424 1.08.664l.464-.996c.354-.757-.724-1.425-1.079-.664" mask="url(#aF)"/>
        </g>
        <g transform="translate(0 -4.617)">
            <mask id="aH" fill="#fff">
                <use xlink:href="#aG"/>
            </mask>
            <path fill="#000" d="M54.053 115.19l-.236.744c-.256.804.951 1.15 1.205.35.08-.248.158-.497.236-.745.256-.804-.95-1.15-1.205-.35" mask="url(#aH)"/>
        </g>
        <g transform="translate(0 -4.617)">
            <mask id="aJ" fill="#fff">
                <use xlink:href="#aI"/>
            </mask>
            <path fill="#000" d="M54.201 120.99l.23.746c.247.802 1.454.46 1.205-.35l-.23-.745c-.247-.803-1.454-.46-1.205.349" mask="url(#aJ)"/>
        </g>
        <g transform="translate(0 -4.617)">
            <mask id="aL" fill="#fff">
                <use xlink:href="#aK"/>
            </mask>
            <path fill="#000" d="M55.178 126.685l.471 1.488c.254.8 1.461.457 1.206-.35l-.472-1.488c-.253-.8-1.46-.456-1.205.35" mask="url(#aL)"/>
        </g>
        <g transform="translate(0 -4.617)">
            <mask id="aN" fill="#fff">
                <use xlink:href="#aM"/>
            </mask>
            <path fill="#000" d="M56.278 131.445c.188.223.286.475.303.772.049.84 1.299.847 1.25 0a2.776 2.776 0 0 0-.67-1.703c-.533-.635-1.414.298-.883.93" mask="url(#aN)"/>
        </g>
        <g transform="translate(0 -4.617)">
            <mask id="aP" fill="#fff">
                <use xlink:href="#aO"/>
            </mask>
            <path fill="#000" d="M57.555 135.86l.471 1.985c.195.82 1.401.472 1.205-.35l-.47-1.985c-.196-.821-1.4-.474-1.206.35" mask="url(#aP)"/>
        </g>
        <g transform="translate(0 -4.617)">
            <mask id="aR" fill="#fff">
                <use xlink:href="#aQ"/>
            </mask>
            <path fill="#000" d="M58.779 141.48l.707 1.736c.135.329.588.396.856.236.322-.194.356-.576.224-.9l-.708-1.737c-.134-.33-.588-.396-.855-.236-.323.194-.356.576-.224.9" mask="url(#aR)"/>
        </g>
        <g transform="translate(0 -4.617)">
            <mask id="aT" fill="#fff">
                <use xlink:href="#aS"/>
            </mask>
            <path fill="#000" d="M59.917 147.27l.444 1.497c.238.806 1.445.462 1.205-.35l-.444-1.497c-.237-.807-1.444-.462-1.205.35" mask="url(#aT)"/>
        </g>
        <g transform="translate(0 -4.617)">
            <mask id="aV" fill="#fff">
                <use xlink:href="#aU"/>
            </mask>
            <path fill="#000" d="M39.313 104.96c-.45.449-.459 1.209.012 1.648.6.559 1.487-.368.884-.93l-.012.212c.584-.585-.3-1.514-.884-.93" mask="url(#aV)"/>
        </g>
        <g transform="translate(0 -4.617)">
            <mask id="aX" fill="#fff">
                <use xlink:href="#aW"/>
            </mask>
            <path fill="#000" d="M40.689 109.896l.723.728c.582.584 1.467-.345.884-.93l-.723-.728c-.582-.585-1.467.344-.884.93" mask="url(#aX)"/>
        </g>
        <g transform="translate(0 -4.617)">
            <mask id="aZ" fill="#fff">
                <use xlink:href="#aY"/>
            </mask>
            <path fill="#000" d="M44.844 112.466l.24.495c.365.754 1.444.089 1.08-.665l-.24-.494c-.365-.755-1.444-.09-1.08.664" mask="url(#aZ)"/>
        </g>
        <g transform="translate(0 -4.617)">
            <mask id="bb" fill="#fff">
                <use xlink:href="#ba"/>
            </mask>
            <path fill="#000" d="M48.779 115c.135.022.27.04.357.166.471.675 1.556.02 1.08-.664-.282-.404-.626-.691-1.105-.771-.787-.132-1.127 1.136-.332 1.268" mask="url(#bb)"/>
        </g>
        <g transform="translate(0 -4.617)">
            <mask id="bd" fill="#fff">
                <use xlink:href="#bc"/>
            </mask>
            <path fill="#000" d="M67.33 129.153h.236c.804 0 .805-1.316 0-1.316h-.236c-.804 0-.806 1.316 0 1.316" mask="url(#bd)"/>
        </g>
        <g transform="translate(0 -4.617)">
            <mask id="bf" fill="#fff">
                <use xlink:href="#be"/>
            </mask>
            <path fill="#000" d="M69.923 128.657h.236c.804 0 .805-1.316 0-1.316h-.236c-.804 0-.806 1.316 0 1.316" mask="url(#bf)"/>
        </g>
        <g transform="translate(0 -4.617)">
            <mask id="bh" fill="#fff">
                <use xlink:href="#bg"/>
            </mask>
            <path fill="#000" d="M72.206 128.37l.706-.252c.757-.271.432-1.543-.333-1.27l-.705.254c-.758.272-.432 1.542.332 1.269" mask="url(#bh)"/>
        </g>
        <g transform="translate(0 -4.617)">
            <mask id="bj" fill="#fff">
                <use xlink:href="#bi"/>
            </mask>
            <path fill="#000" d="M75.285 127.043c.616.3 1.174.135 1.58-.425.208-.284.04-.734-.223-.9-.32-.202-.651-.045-.855.236l.129-.047c-.726-.352-1.361.782-.631 1.136" mask="url(#bj)"/>
        </g>
        <g transform="translate(0 -4.617)">
            <mask id="bl" fill="#fff">
                <use xlink:href="#bk"/>
            </mask>
            <path fill="#90756F" d="M123.092 23.677c-1.095 1.55-3.182 2.213-4.922 1.598-1.739-.616-3.014-2.446-3.086-4.375-.072-1.93 1.042-3.843 2.692-4.686a3.872 3.872 0 0 1 1.16-.39c.963-.151 1.95.137 2.821.6 1.067.566 2.023 1.423 2.57 2.542.544 1.12.636 2.516.084 3.632" mask="url(#bl)"/>
        </g>
        <g transform="translate(0 -4.617)">
            <mask id="bn" fill="#fff">
                <use xlink:href="#bm"/>
            </mask>
            <path fill="#90756F" d="M136.5 31.836c-1.095 1.55-3.182 2.214-4.922 1.598-1.739-.616-3.014-2.445-3.086-4.375-.072-1.93 1.042-3.843 2.692-4.686a3.872 3.872 0 0 1 1.159-.39c.964-.151 1.951.137 2.822.6 1.067.567 2.023 1.424 2.569 2.543.545 1.119.637 2.515.085 3.631" mask="url(#bn)"/>
        </g>
        <g transform="translate(0 -4.617)">
            <mask id="bp" fill="#fff">
                <use xlink:href="#bo"/>
            </mask>
            <path fill="#90756F" d="M148.651 38.672c-1.095 1.55-3.182 2.214-4.922 1.598-1.739-.615-3.014-2.445-3.086-4.374-.072-1.93 1.042-3.844 2.692-4.687a3.872 3.872 0 0 1 1.159-.39c.964-.15 1.951.138 2.822.6 1.067.567 2.023 1.424 2.569 2.543.545 1.119.637 2.516.085 3.631" mask="url(#bp)"/>
        </g>
        <g transform="translate(0 -4.617)">
            <mask id="br" fill="#fff">
                <use xlink:href="#bq"/>
            </mask>
            <path fill="#90756F" d="M166.04 37.129c-1.096 1.55-3.183 2.213-4.923 1.598-1.739-.616-3.014-2.446-3.086-4.375-.072-1.93 1.042-3.843 2.692-4.686a3.872 3.872 0 0 1 1.16-.39c.963-.151 1.95.137 2.821.6 1.067.566 2.023 1.423 2.57 2.542.544 1.12.636 2.516.084 3.632" mask="url(#br)"/>
        </g>
        <g transform="translate(0 -4.617)">
            <mask id="bt" fill="#fff">
                <use xlink:href="#bs"/>
            </mask>
            <path fill="#90756F" d="M92.296 103.727c-1.095 1.55-3.182 2.214-4.922 1.598-1.74-.616-3.014-2.445-3.086-4.375-.072-1.93 1.042-3.843 2.692-4.686a3.872 3.872 0 0 1 1.159-.39c.964-.15 1.95.137 2.822.6 1.067.567 2.023 1.424 2.569 2.543.545 1.119.637 2.516.085 3.631" mask="url(#bt)"/>
        </g>
        <g transform="translate(0 -4.617)">
            <mask id="bv" fill="#fff">
                <use xlink:href="#bu"/>
            </mask>
            <path fill="#000" d="M24.144 72.353c1.805-1.146 3.613-1.452 5.587-2.062 1.11-.343 1.92-.902 2.265-2.093.235-.81-.996-1.05-1.228-.248-.389 1.344-2.634 1.319-3.687 1.62-1.3.371-2.502.973-3.652 1.703-.689.438.027 1.517.715 1.08" mask="url(#bv)"/>
        </g>
        <g transform="translate(0 -4.617)">
            <mask id="bx" fill="#fff">
                <use xlink:href="#bw"/>
            </mask>
            <path fill="#000" d="M47.603 64.2c-2.085.32-3.667 1.292-5.56 2.14-1.064.477-2.028.587-3.013-.103-.67-.47.136-1.477.8-1.013 1.11.78 2.83-.74 3.825-1.212 1.229-.582 2.52-.92 3.849-1.124.796-.124.893 1.19.099 1.311" mask="url(#bx)"/>
        </g>
        <g transform="translate(0 -4.617)">
            <mask id="bz" fill="#fff">
                <use xlink:href="#by"/>
            </mask>
            <path fill="#FFF" d="M29.454 115.27h.667c.804 0 .805-1.315 0-1.315h-.667c-.804 0-.806 1.316 0 1.316" mask="url(#bz)"/>
        </g>
        <g transform="translate(0 -4.617)">
            <mask id="bB" fill="#fff">
                <use xlink:href="#bA"/>
            </mask>
            <path fill="#FFF" d="M31.88 116.96c.28.297.561.594.843.89.57.602 1.453-.329.884-.93l-.844-.89c-.569-.6-1.453.33-.884.93" mask="url(#bB)"/>
        </g>
        <g transform="translate(0 -4.617)">
            <mask id="bD" fill="#fff">
                <use xlink:href="#bC"/>
            </mask>
            <path fill="#FFF" d="M33.462 120.041l.507 1.245c.134.33.588.396.855.236.323-.194.357-.576.224-.9l-.507-1.245c-.134-.33-.588-.396-.855-.236-.323.194-.356.576-.224.9" mask="url(#bD)"/>
        </g>
        <g transform="translate(0 -4.617)">
            <mask id="bF" fill="#fff">
                <use xlink:href="#bE"/>
            </mask>
            <path fill="#FFF" d="M34.812 124.133c.16.238.245.444.25.736.018.846 1.268.848 1.25 0-.01-.51-.14-.983-.421-1.4-.462-.684-1.547-.028-1.08.664" mask="url(#bF)"/>
        </g>
        <g transform="translate(0 -4.617)">
            <mask id="bH" fill="#fff">
                <use xlink:href="#bG"/>
            </mask>
            <path fill="#FFF" d="M35.232 127.182v1.245c0 .846 1.25.848 1.25 0v-1.245c0-.847-1.25-.849-1.25 0" mask="url(#bH)"/>
        </g>
        <g transform="translate(0 -4.617)">
            <mask id="bJ" fill="#fff">
                <use xlink:href="#bI"/>
            </mask>
            <path fill="#FFF" d="M35.423 131.448l.17.89c.157.83 1.362.479 1.204-.35-.055-.297-.111-.594-.168-.89-.157-.829-1.362-.478-1.206.35" mask="url(#bJ)"/>
        </g>
        <g transform="translate(0 -4.617)">
            <mask id="bL" fill="#fff">
                <use xlink:href="#bK"/>
            </mask>
            <path fill="#FFF" d="M35.245 135.543a3.721 3.721 0 0 1-.44 1.62c-.393.74.687 1.405 1.079.665.378-.714.578-1.47.61-2.285.036-.847-1.214-.846-1.25 0" mask="url(#bL)"/>
        </g>
        <g transform="translate(0 -4.617)">
            <mask id="bN" fill="#fff">
                <use xlink:href="#bM"/>
            </mask>
            <path fill="#FFF" d="M34.057 139.99c-.006.447-.084.86-.267 1.265-.344.76.734 1.43 1.079.664a4.739 4.739 0 0 0 .438-1.93c.01-.847-1.24-.847-1.25 0" mask="url(#bN)"/>
        </g>
        <g transform="translate(0 -4.617)">
            <mask id="bP" fill="#fff">
                <use xlink:href="#bO"/>
            </mask>
            <path fill="#FFF" d="M32.943 143.744l-.346.708c-.368.751.71 1.418 1.079.664l.346-.707c.368-.752-.71-1.418-1.079-.665" mask="url(#bP)"/>
        </g>
        <g transform="translate(0 -4.617)">
            <mask id="bR" fill="#fff">
                <use xlink:href="#bQ"/>
            </mask>
            <path fill="#FFF" d="M79.65 108.535c.171.083.193.123.221.321.049.355.471.542.769.46.359-.1.485-.46.436-.81a1.46 1.46 0 0 0-.795-1.107c-.726-.352-1.362.781-.631 1.136" mask="url(#bR)"/>
        </g>
        <g transform="translate(0 -4.617)">
            <mask id="bT" fill="#fff">
                <use xlink:href="#bS"/>
            </mask>
            <path fill="#FFF" d="M81.052 111.88l.338.89c.295.777 1.505.438 1.205-.35a230.59 230.59 0 0 0-.338-.889c-.295-.777-1.504-.438-1.205.35" mask="url(#bT)"/>
        </g>
        <g transform="translate(0 -4.617)">
            <mask id="bV" fill="#fff">
                <use xlink:href="#bU"/>
            </mask>
            <path fill="#FFF" d="M82.35 115.124a.153.153 0 0 1 .046.14c-.138.828 1.066 1.183 1.205.35.114-.684-.094-1.213-.62-1.625-.645-.508-1.269.634-.63 1.135" mask="url(#bV)"/>
        </g>
        <g transform="translate(0 -4.617)">
            <mask id="bX" fill="#fff">
                <use xlink:href="#bW"/>
            </mask>
            <path fill="#FFF" d="M83.226 118.465v.89c0 .846 1.25.848 1.25 0v-.89c0-.846-1.25-.848-1.25 0" mask="url(#bX)"/>
        </g>
        <g transform="translate(0 -4.617)">
            <mask id="bZ" fill="#fff">
                <use xlink:href="#bY"/>
            </mask>
            <path fill="#FFF" d="M83.53 122.922l.206 1.059c.161.829 1.366.478 1.205-.35l-.206-1.059c-.16-.83-1.366-.479-1.205.35" mask="url(#bZ)"/>
        </g>
        <g transform="translate(0 -4.617)">
            <mask id="cb" fill="#fff">
                <use xlink:href="#ca"/>
            </mask>
            <path fill="#FFF" d="M40.166 173.369l.996.534c.715.384 1.35-.751.631-1.136l-.996-.534c-.715-.384-1.349.75-.63 1.136" mask="url(#cb)"/>
        </g>
        <g transform="translate(0 -4.617)">
            <mask id="cd" fill="#fff">
                <use xlink:href="#cc"/>
            </mask>
            <path fill="#FFF" d="M46.616 175.047l3.5-.53c.793-.12.455-1.389-.333-1.269l-3.499.53c-.793.12-.456 1.388.332 1.27" mask="url(#cd)"/>
        </g>
        <g transform="translate(0 -4.617)">
            <mask id="cf" fill="#fff">
                <use xlink:href="#ce"/>
            </mask>
            <path fill="#FFF" d="M54.954 174.042h2c.804 0 .806-1.315 0-1.315h-2c-.804 0-.806 1.315 0 1.315" mask="url(#cf)"/>
        </g>
        <g transform="translate(0 -4.617)">
            <mask id="ch" fill="#fff">
                <use xlink:href="#cg"/>
            </mask>
            <path fill="#FFF" d="M63.613 172.925c1-.18 2-.357 2.998-.536.792-.141.456-1.41-.332-1.268l-2.998.535c-.792.141-.456 1.41.332 1.269" mask="url(#ch)"/>
        </g>
        <g transform="translate(0 -4.617)">
            <mask id="cj" fill="#fff">
                <use xlink:href="#ci"/>
            </mask>
            <path fill="#FFF" d="M72.306 170.36l3.507-1.56c.74-.329.102-1.462-.63-1.136l-3.508 1.56c-.738.33-.102 1.463.631 1.137" mask="url(#cj)"/>
        </g>
        <g transform="translate(0 -4.617)">
            <mask id="cl" fill="#fff">
                <use xlink:href="#ck"/>
            </mask>
            <path fill="#FFF" d="M80.362 165.91c.834-.7 1.667-1.403 2.5-2.104.629-.528-.261-1.454-.883-.93-.834.7-1.667 1.403-2.501 2.104-.628.528.26 1.455.884.93" mask="url(#cl)"/>
        </g>
        <g transform="translate(0 -4.617)">
            <mask id="cn" fill="#fff">
                <use xlink:href="#cm"/>
            </mask>
            <path fill="#FFF" d="M84.896 160.692l.5-.526c.57-.6-.314-1.53-.884-.93l-.5.525c-.57.6.314 1.53.884.93" mask="url(#cn)"/>
        </g>
        <g transform="translate(0 -4.617)">
            <mask id="cp" fill="#fff">
                <use xlink:href="#co"/>
            </mask>
            <path fill="#FFF" d="M38.778 180.37l1.992.56c.778.22 1.11-1.05.332-1.27l-1.992-.558c-.778-.219-1.11 1.05-.332 1.268" mask="url(#cp)"/>
        </g>
        <g transform="translate(0 -4.617)">
            <mask id="cr" fill="#fff">
                <use xlink:href="#cq"/>
            </mask>
            <path fill="#FFF" d="M44.454 181.41h4c.804 0 .806-1.315 0-1.315h-4c-.804 0-.806 1.316 0 1.316" mask="url(#cr)"/>
        </g>
        <g transform="translate(0 -4.617)">
            <mask id="ct" fill="#fff">
                <use xlink:href="#cs"/>
            </mask>
            <path fill="#FFF" d="M52.614 182.932l2.994-.563c.79-.149.455-1.417-.333-1.27l-2.993.565c-.791.148-.456 1.416.332 1.268" mask="url(#ct)"/>
        </g>
        <g transform="translate(0 -4.617)">
            <mask id="cv" fill="#fff">
                <use xlink:href="#cu"/>
            </mask>
            <path fill="#FFF" d="M61.134 181.987l2.496-.547c.787-.171.454-1.44-.332-1.268l-2.496.546c-.787.172-.454 1.44.332 1.269" mask="url(#cv)"/>
        </g>
        <g transform="translate(0 -4.617)">
            <mask id="cx" fill="#fff">
                <use xlink:href="#cw"/>
            </mask>
            <path fill="#FFF" d="M67.77 180.795l2-1.053c.72-.379.086-1.514-.632-1.136-.667.35-1.333.701-2 1.053-.719.378-.087 1.514.631 1.136" mask="url(#cx)"/>
        </g>
        <g transform="translate(0 -4.617)">
            <mask id="cz" fill="#fff">
                <use xlink:href="#cy"/>
            </mask>
            <path fill="#FFF" d="M73.77 178.69c1.166-.703 2.332-1.404 3.5-2.106.697-.42.068-1.557-.632-1.136-1.167.701-2.333 1.404-3.5 2.106-.698.42-.069 1.557.631 1.135" mask="url(#cz)"/>
        </g>
        <g transform="translate(0 -4.617)">
            <mask id="cB" fill="#fff">
                <use xlink:href="#cA"/>
            </mask>
            <path fill="#FFF" d="M79.721 174.932l1.485-1.076c.66-.476.034-1.617-.63-1.135l-1.486 1.075c-.658.477-.034 1.618.631 1.136" mask="url(#cB)"/>
        </g>
        <g transform="translate(0 -4.617)">
            <mask id="cD" fill="#fff">
                <use xlink:href="#cC"/>
            </mask>
            <path fill="#FFF" d="M84.52 170.917a1.595 1.595 0 0 1 1.108-1.073c.775-.222.446-1.493-.332-1.27-.956.275-1.666 1.01-1.98 1.993-.257.804.949 1.15 1.205.35" mask="url(#cD)"/>
        </g>
        <g transform="translate(0 -4.617)">
            <mask id="cF" fill="#fff">
                <use xlink:href="#cE"/>
            </mask>
            <path fill="#8F8F8F" d="M15.725 59.567l.672.491c.794.58 1.545-.787.757-1.364l-.672-.49c-.795-.582-1.545.786-.757 1.363" mask="url(#cF)"/>
        </g>
        <g transform="translate(0 -4.617)">
            <mask id="cH" fill="#fff">
                <use xlink:href="#cG"/>
            </mask>
            <path fill="#8F8F8F" d="M17.727 55.328l.909.715c.327.257.834.052 1.026-.283.228-.401.054-.827-.27-1.08-.302-.24-.605-.477-.908-.715-.327-.257-.835-.054-1.026.283-.228.4-.054.826.269 1.08" mask="url(#cH)"/>
        </g>
        <g transform="translate(0 -4.617)">
            <mask id="cJ" fill="#fff">
                <use xlink:href="#cI"/>
            </mask>
            <path fill="#8F8F8F" d="M20.768 51.839l.688.71c.69.711 1.752-.405 1.06-1.117l-.686-.71c-.69-.711-1.752.404-1.061 1.117" mask="url(#cJ)"/>
        </g>
        <g transform="translate(0 -4.617)">
            <mask id="cL" fill="#fff">
                <use xlink:href="#cK"/>
            </mask>
            <path fill="#8F8F8F" d="M25.264 48.3l.675.722c.677.727 1.738-.39 1.06-1.115l-.674-.724c-.678-.725-1.738.392-1.061 1.117" mask="url(#cL)"/>
        </g>
        <g transform="translate(0 -4.617)">
            <mask id="cN" fill="#fff">
                <use xlink:href="#cM"/>
            </mask>
            <path fill="#8F8F8F" d="M29.505 46.184l.68.956c.245.343.646.51 1.027.283.32-.193.51-.74.269-1.08l-.681-.956c-.245-.344-.645-.512-1.026-.283-.321.192-.511.74-.27 1.08" mask="url(#cN)"/>
        </g>
        <g transform="translate(0 -4.617)">
            <mask id="cP" fill="#fff">
                <use xlink:href="#cO"/>
            </mask>
            <path fill="#8F8F8F" d="M35.515 43.407v.955c0 1.017 1.5 1.018 1.5 0v-.955c0-1.015-1.5-1.017-1.5 0" mask="url(#cP)"/>
        </g>
        <g transform="translate(0 -4.617)">
            <mask id="cR" fill="#fff">
                <use xlink:href="#cQ"/>
            </mask>
            <path fill="#8F8F8F" d="M40.066 44.337l.227.955c.234.985 1.681.568 1.446-.42-.075-.318-.15-.636-.227-.955-.234-.985-1.68-.567-1.446.42" mask="url(#cR)"/>
        </g>
        <g transform="translate(0 -4.617)">
            <mask id="cT" fill="#fff">
                <use xlink:href="#cS"/>
            </mask>
            <path fill="#8F8F8F" d="M44.667 45.252l.23.476c.439.905 1.733.107 1.295-.797l-.23-.476c-.438-.905-1.733-.107-1.295.797" mask="url(#cT)"/>
        </g>
        <g transform="translate(0 -4.617)">
            <mask id="cV" fill="#fff">
                <use xlink:href="#cU"/>
            </mask>
            <path fill="#8F8F8F" d="M49.708 46.366l-.23.475c-.439.904.855 1.704 1.294.797.078-.159.154-.317.23-.476.438-.903-.855-1.703-1.294-.796" mask="url(#cV)"/>
        </g>
        <g transform="translate(0 -4.617)">
            <mask id="cX" fill="#fff">
                <use xlink:href="#cW"/>
            </mask>
            <path fill="#8F8F8F" d="M20.418 59.567c.15.239.302.478.454.717.533.84 1.832.051 1.295-.797l-.454-.717c-.533-.841-1.833-.052-1.295.797" mask="url(#cX)"/>
        </g>
        <g transform="translate(0 -4.617)">
            <mask id="cZ" fill="#fff">
                <use xlink:href="#cY"/>
            </mask>
            <path fill="#8F8F8F" d="M22.728 57.223l.681.478c.805.565 1.557-.802.757-1.363l-.68-.478c-.806-.565-1.558.801-.758 1.363" mask="url(#cZ)"/>
        </g>
        <g transform="translate(0 -4.617)">
            <mask id="db" fill="#fff">
                <use xlink:href="#da"/>
            </mask>
            <path fill="#8F8F8F" d="M25.182 54.313c.15.24.302.478.454.717.533.841 1.832.052 1.295-.798l-.454-.716c-.533-.84-1.833-.051-1.295.797" mask="url(#db)"/>
        </g>
        <g transform="translate(0 -4.617)">
            <mask id="dd" fill="#fff">
                <use xlink:href="#dc"/>
            </mask>
            <path fill="#8F8F8F" d="M29.165 51.067c-.156.653.074 1.232.608 1.592.815.55 1.568-.816.757-1.363l.08.191c.237-.986-1.21-1.406-1.445-.42" mask="url(#dd)"/>
        </g>
        <g transform="translate(0 -4.617)">
            <mask id="df" fill="#fff">
                <use xlink:href="#de"/>
            </mask>
            <path fill="#8F8F8F" d="M33.55 50.506c.078.159.155.317.23.475.44.906 1.734.108 1.296-.796-.076-.16-.153-.317-.23-.476-.438-.905-1.733-.108-1.295.797" mask="url(#df)"/>
        </g>
        <g transform="translate(0 -4.617)">
            <mask id="dh" fill="#fff">
                <use xlink:href="#dg"/>
            </mask>
            <path fill="#8F8F8F" d="M37.512 49.259l.454.477c.683.72 1.744-.396 1.06-1.116-.15-.16-.302-.318-.453-.478-.684-.72-1.745.397-1.06 1.117" mask="url(#dh)"/>
        </g>
        <g transform="translate(0 -4.617)">
            <mask id="dj" fill="#fff">
                <use xlink:href="#di"/>
            </mask>
            <path fill="#8F8F8F" d="M41.516 49.776c.15.239.302.478.454.717.533.84 1.832.051 1.295-.797l-.454-.717c-.533-.841-1.833-.052-1.295.797" mask="url(#dj)"/>
        </g>
        <g transform="translate(0 -4.617)">
            <mask id="dl" fill="#fff">
                <use xlink:href="#dk"/>
            </mask>
            <path fill="#8F8F8F" d="M46.028 50.983l.23.476c.439.905 1.733.107 1.295-.797l-.23-.476c-.438-.905-1.733-.107-1.295.797" mask="url(#dl)"/>
        </g>
        <g transform="translate(0 -4.617)">
            <mask id="dn" fill="#fff">
                <use xlink:href="#dm"/>
            </mask>
            <path fill="#8F8F8F" d="M43.909 54.153v.24c0 1.015 1.5 1.017 1.5 0v-.24c0-1.015-1.5-1.017-1.5 0" mask="url(#dn)"/>
        </g>
        <g transform="translate(0 -4.617)">
            <mask id="dp" fill="#fff">
                <use xlink:href="#do"/>
            </mask>
            <path fill="#8F8F8F" d="M38.893 53.188l.228.715c.304.96 1.753.549 1.446-.419l-.228-.716c-.304-.96-1.753-.548-1.446.42" mask="url(#dp)"/>
        </g>
        <g transform="translate(0 -4.617)">
            <mask id="dr" fill="#fff">
                <use xlink:href="#dq"/>
            </mask>
            <path fill="#8F8F8F" d="M34.256 54.79c.151.319.302.638.454.955.431.91 1.726.111 1.295-.796-.15-.318-.303-.637-.454-.955-.432-.91-1.726-.11-1.295.797" mask="url(#dr)"/>
        </g>
        <g transform="translate(0 -4.617)">
            <mask id="dt" fill="#fff">
                <use xlink:href="#ds"/>
            </mask>
            <path fill="#8F8F8F" d="M30.538 55.133l-.231.715c-.312.964 1.136 1.378 1.446.42l.23-.715c.313-.964-1.135-1.378-1.445-.42" mask="url(#dt)"/>
        </g>
        <g transform="translate(0 -4.617)">
            <mask id="dv" fill="#fff">
                <use xlink:href="#du"/>
            </mask>
            <path fill="#8F8F8F" d="M27.644 58.047c.965 0 .967-1.579 0-1.579-.965 0-.967 1.58 0 1.58" mask="url(#dv)"/>
        </g>
        <g fill="#CCC">
            <path d="M118.412 51.08l-12.203 14.542a1.055 1.055 0 0 1-1.616-1.356l12.203-14.543a1.055 1.055 0 0 1 1.616 1.356m4.04 3.39l-12.203 14.543a1.055 1.055 0 0 1-1.616-1.356l12.203-14.543a1.055 1.055 0 0 1 1.616 1.356m-2.062 10.66l-6.102 7.272a1.055 1.055 0 0 1-1.615-1.356l6.101-7.271a1.055 1.055 0 0 1 1.616 1.356m-5.73-22.706L95 65.854l16.967 14.237a3.164 3.164 0 0 0 4.457-.39l2.712-3.232 4.848 4.068-.78-8.916 12.88-15.35-16.966-14.237a3.164 3.164 0 0 0-4.458.39"/>
        </g>
    </g>
</svg>
