<svg xmlns="http://www.w3.org/2000/svg" xmlns:xlink="http://www.w3.org/1999/xlink" width="18" height="20" viewBox="0 0 18 20">
    <defs>
        <path id="a" d="M0 .053h17.982v3.435H0z"/>
    </defs>
    <g fill="none" fill-rule="evenodd">
        <path fill="#FF7900" d="M2.89 2.12c.284 4.172 6.47 2.583 6.47 2.583C8.521.528 2.606-2.05 2.89 2.12m3.58 1.714c-.807-.03-1.444-.204-1.841-.502-.235-.176-.552-.5-.606-1.285-.036-.536.136-.755.429-.92.362-.206 1.11.128 1.977.835a5.401 5.401 0 0 1 1.444 1.8c-.419.054-.908.09-1.403.072M9.36 4.79s6.193 1.344 6.47-2.764c.278-4.108-5.64-1.348-6.47 2.764m5.34-2.835c-.053.773-.37 1.093-.603 1.267-.396.294-1.032.466-1.837.497a8.818 8.818 0 0 1-1.4-.07 5.337 5.337 0 0 1 1.437-1.774c.867-.698 1.611-1.027 1.974-.825.291.162.464.378.428.905"/>
        <path fill="#FFF" d="M10.8 5c0 .788-.644 1.428-1.44 1.429-.795 0-1.44-.638-1.44-1.427"/>
        <path fill="#FF7900" d="M17.28 19.988l-.01-14.035a.238.238 0 0 0-.236-.239L.957 5.726a.238.238 0 0 0-.237.238L.73 20l16.55-.012z"/>
        <g transform="translate(0 5)">
            <mask id="b" fill="#fff">
                <use xlink:href="#a"/>
            </mask>
            <path fill="#FFD203" d="M17.982 3.142c0 .183-.14.333-.313.333L.315 3.488c-.174 0-.313-.15-.313-.333L0 .4C0 .215.14.066.312.066L17.667.053c.173 0 .313.149.313.333l.002 2.756z" mask="url(#b)"/>
        </g>
        <path fill="#FF7900" d="M10.078 5l.002 3.57-2.158.001-.002-3.57z"/>
    </g>
</svg>
