<svg xmlns="http://www.w3.org/2000/svg" xmlns:xlink="http://www.w3.org/1999/xlink" width="54" height="61" viewBox="0 0 54 61">
    <defs>
        <path id="a" d="M0 .152h48.951v9.814H0z"/>
    </defs>
    <g fill="none" fill-rule="evenodd">
        <path fill="#FFF" d="M14.011 5.801c-1.25 11.639 16.444 10.241 16.444 10.241C30.19 4.126 15.261-5.836 14.011 5.802m8.961 6.453c-2.194-.474-3.852-1.26-4.794-2.273-.555-.598-1.266-1.645-1.032-3.836.162-1.494.74-2.015 1.62-2.33 1.092-.393 2.974.888 5.005 3.257 1.448 1.688 2.506 3.653 3.074 5.66a24.057 24.057 0 0 1-3.873-.478"/>
        <path fill="#FFF" d="M29.687 16.156s16.287 6.694 19.044-4.5c2.756-11.193-14.772-6.438-19.044 4.5m15.984-5.24c-.518 2.107-1.542 2.835-2.263 3.201-1.227.62-3.049.787-5.268.485a24.302 24.302 0 0 1-3.797-.865c1.212-1.666 2.867-3.128 4.796-4.201 2.71-1.506 4.906-2.056 5.8-1.324.718.588 1.087 1.267.732 2.703"/>
        <path fill="#A885D8" d="M44.854 60.975l6.798-38.706a.656.656 0 0 0-.517-.77l-43.03-7.554a.656.656 0 0 0-.749.547L.558 53.199l44.296 7.776z"/>
        <g transform="rotate(10 -61.21 39.352)">
            <mask id="b" fill="#fff">
                <use xlink:href="#a"/>
            </mask>
            <path fill="#492191" d="M48.951 8.976c0 .525-.38.953-.851.953L.856 9.966c-.471.001-.852-.426-.852-.95L0 1.142C-.001.615.379.19.85.189L48.093.152c.471-.001.853.425.853.952l.005 7.872z" mask="url(#b)"/>
        </g>
        <path fill="#FFF" d="M32.48 16l-1.73 9.846-5.903-1.037 1.73-9.844z"/>
    </g>
</svg>
