<svg xmlns="http://www.w3.org/2000/svg" xmlns:xlink="http://www.w3.org/1999/xlink" width="46" height="47" viewBox="0 0 46 47">
    <defs>
        <path id="a" d="M0 .121h37.296v7.852H0z"/>
    </defs>
    <g fill="none" fill-rule="evenodd">
        <path fill="#FFF" d="M5.23 12.458c3.593 8.162 14.394.623 14.394.623-4.668-7.778-17.987-8.783-14.394-.623m8.173.917c-1.583.507-2.941.607-3.927.29-.581-.188-1.432-.615-2.109-2.15-.46-1.049-.287-1.61.158-2.147.55-.667 2.239-.524 4.433.283a11.46 11.46 0 0 1 4.106 2.593 17.33 17.33 0 0 1-2.66 1.131M20.038 13.458s12.955-1.663 10.495-10.094c-2.46-8.43-11.888 1.266-10.495 10.094m8.256-9.44c.464 1.587.084 2.451-.24 2.963-.552.868-1.655 1.66-3.19 2.29-.942.384-1.91.658-2.758.847.148-1.555.655-3.14 1.485-4.57 1.166-2.008 2.365-3.193 3.214-3.043.681.12 1.174.431 1.489 1.513"/>
        <path fill="#FFB401" d="M45.463 34.715L36.035 8.872a.482.482 0 0 0-.625-.27L3.791 20.134c-.256.094-.394.367-.305.61l9.428 25.843 32.549-11.872z"/>
        <g transform="rotate(-20 52.61 8.379)">
            <mask id="b" fill="#fff">
                <use xlink:href="#a"/>
            </mask>
            <path fill="#FFD203" d="M37.296 7.18c0 .42-.29.763-.649.763l-35.994.03c-.36 0-.65-.341-.65-.76L0 .913C0 .492.289.152.647.151l35.995-.03c.36 0 .65.34.65.762l.004 6.298z" mask="url(#b)"/>
        </g>
        <path fill="#FF7900" d="M20.3 11.099l2.74 7.513-3.754 1.37-2.739-7.513z"/>
    </g>
</svg>
