<svg xmlns="http://www.w3.org/2000/svg" xmlns:xlink="http://www.w3.org/1999/xlink" width="100" height="110" viewBox="0 0 100 110">
    <defs>
        <path id="a" d="M0 .258h83.916v16.684H0z"/>
    </defs>
    <g fill="none" fill-rule="evenodd">
        <path fill="#FFF" d="M7.48 28.76c8.125 18.349 33.325 1.06 33.325 1.06C30.181 12.363-.645 10.414 7.481 28.76m18.91 1.874c-3.682 1.183-6.829 1.443-9.105.747-1.342-.409-3.301-1.352-4.832-4.805-1.041-2.356-.626-3.628.417-4.852 1.291-1.52 5.198-1.237 10.262.532 3.61 1.26 6.874 3.267 9.446 5.758-1.797.928-3.933 1.89-6.189 2.62"/>
        <path fill="#FFF" d="M39.817 30.814s30.046-4.07 24.551-23.053c-5.496-18.981-27.566 3.147-24.55 23.053M59.165 9.293c1.037 3.573.135 5.534-.627 6.697-1.298 1.975-3.873 3.79-7.443 5.249-2.193.892-4.442 1.532-6.408 1.98.378-3.514 1.592-7.106 3.55-10.357 2.749-4.564 5.554-7.27 7.516-6.952 1.576.255 2.71.946 3.412 3.383"/>
        <path fill="#FFB4E6" d="M99.24 82.945l-22.556-61.84a1.11 1.11 0 0 0-1.416-.676L5.04 46.05a1.11 1.11 0 0 0-.65 1.427l22.556 61.841L99.24 82.945z"/>
        <g transform="rotate(-20 124.821 22.742)">
            <mask id="b" fill="#fff">
                <use xlink:href="#a"/>
            </mask>
            <path fill="#FF8AD4" d="M83.916 15.26c0 .892-.652 1.619-1.46 1.619l-80.988.063c-.809.002-1.46-.725-1.46-1.616L0 1.943C-.002 1.046.65.323 1.457.32L82.446.258c.807-.001 1.461.723 1.462 1.619l.008 13.382z" mask="url(#b)"/>
        </g>
        <path fill="#FFF" d="M43.904 27.992l5.823 15.964-9.384 3.423-5.822-15.964z"/>
    </g>
</svg>
