<svg xmlns="http://www.w3.org/2000/svg" xmlns:xlink="http://www.w3.org/1999/xlink" width="27" height="29" viewBox="0 0 27 29">
    <defs>
        <path id="a" d="M0 .08h26.973v5.152H0z"/>
    </defs>
    <g fill="none" fill-rule="evenodd">
        <path fill="#A6A6A6" d="M3.335 3.181c.426 6.257 9.705 3.873 9.705 3.873C11.782.792 2.908-3.075 3.335 3.181m5.37 2.571C7.494 5.707 6.54 5.446 5.943 5c-.352-.264-.828-.75-.909-1.928-.054-.803.205-1.132.644-1.38.543-.308 1.664.192 2.966 1.253a8.102 8.102 0 0 1 2.166 2.7c-.629.081-1.362.135-2.105.108M13.04 7.185s9.29 2.016 9.706-4.146c.416-6.162-8.46-2.022-9.706 4.146m8.009-4.252c-.078 1.16-.554 1.64-.903 1.9-.594.44-1.548.698-2.756.745a13.227 13.227 0 0 1-2.1-.103 8.006 8.006 0 0 1 2.156-2.662c1.3-1.047 2.416-1.541 2.96-1.238.437.243.697.567.643 1.358"/>
        <path fill="#A6A6A6" d="M25.92 28.982L25.905 7.93a.356.356 0 0 0-.354-.358L1.435 7.59a.357.357 0 0 0-.355.358L1.095 29l24.825-.018z"/>
        <g transform="translate(0 6.5)">
            <mask id="b" fill="#fff">
                <use xlink:href="#a"/>
            </mask>
            <path fill="#C5C5C5" d="M26.973 4.712c0 .276-.21.5-.47.5l-26.031.02c-.26 0-.47-.224-.47-.499L0 .6C0 .323.209.1.468.1L26.5.08c.26 0 .47.223.47.5l.003 4.132z" mask="url(#b)"/>
        </g>
        <path fill="#A6A6A6" d="M15.116 6.5l.004 5.355-3.236.002-.004-5.355z"/>
    </g>
</svg>
