<svg xmlns="http://www.w3.org/2000/svg" xmlns:xlink="http://www.w3.org/1999/xlink" width="31" height="34" viewBox="0 0 31 34">
    <defs>
        <path id="a" d="M0 .091h27.972V5.98H0z"/>
    </defs>
    <g fill="none" fill-rule="evenodd">
        <path fill="#FFF" d="M8.717 3.537c-.727 6.648 9.116 5.802 9.116 5.802-.115-6.802-8.39-12.45-9.116-5.802m4.965 3.66c-1.218-.264-2.138-.708-2.659-1.285-.307-.34-.7-.935-.563-2.187.094-.853.417-1.153.907-1.335.608-.227 1.65.5 2.773 1.847.801.96 1.384 2.078 1.694 3.223a12.998 12.998 0 0 1-2.152-.263M17.96 9.74S27 13.517 28.563 7.119c1.563-6.398-8.196-3.636-10.601 2.62m8.902-3.035c-.294 1.205-.865 1.623-1.267 1.834-.684.357-1.698.458-2.93.291a13.13 13.13 0 0 1-2.11-.483 8.489 8.489 0 0 1 2.679-2.412c1.51-.867 2.733-1.187 3.228-.771.398.333.601.72.4 1.541"/>
        <path fill="#FFB401" d="M26.503 33.08l3.568-20.32a.362.362 0 0 0-.305-.41L4.904 7.983c-.2-.035-.393.09-.426.281L.91 28.586l25.593 4.495z"/>
        <g transform="rotate(10 -30.46 21.407)">
            <mask id="b" fill="#fff">
                <use xlink:href="#a"/>
            </mask>
            <path fill="#FFD203" d="M27.972 5.386c0 .315-.217.571-.486.571L.489 5.98c-.27 0-.486-.256-.486-.57L0 .685C0 .369.216.114.486.113L27.482.091c.27 0 .487.255.487.571l.003 4.724z" mask="url(#b)"/>
        </g>
        <path fill="#FF7900" d="M19.016 8.305l-1.038 5.907-2.952-.517 1.038-5.907z"/>
    </g>
</svg>
