<svg xmlns="http://www.w3.org/2000/svg" xmlns:xlink="http://www.w3.org/1999/xlink" width="483" height="355" viewBox="0 0 483 355">
    <defs>
        <path id="a" d="M.388 1.033h1.145v1.015H.388z"/>
        <path id="c" d="M0 .043h15.35v2.75H0z"/>
        <path id="e" d="M1.27 132.254c-4.534 47.166-3.73 149.66 169.759 154.27 173.488 4.611 295.349-53.48 298.31-132.79.86-23.013-2.535-44.076-9.793-62.701-17.755-45.564-58.63-76.53-116.894-85.727C324.687 2.47 298.835.45 269.308.45 163.928.446 11.472 26.154 1.271 132.254"/>
        <path id="g" d="M1.27 132.254c-4.534 47.166-3.73 149.66 169.759 154.27 173.488 4.611 295.349-53.48 298.31-132.79.86-23.013-2.535-44.076-9.793-62.701-17.755-45.564-58.63-76.53-116.894-85.727C324.687 2.47 298.835.45 269.308.45 163.928.446 11.472 26.154 1.271 132.254"/>
        <path id="i" d="M1.27 132.254c-4.534 47.166-3.73 149.66 169.759 154.27 173.488 4.611 295.349-53.48 298.31-132.79.86-23.013-2.535-44.076-9.793-62.701-17.755-45.564-58.63-76.53-116.894-85.727C324.687 2.47 298.835.45 269.308.45 163.928.446 11.472 26.154 1.271 132.254"/>
        <path id="k" d="M1.27 132.254c-4.534 47.166-3.73 149.66 169.759 154.27 173.488 4.611 295.349-53.48 298.31-132.79.86-23.013-2.535-44.076-9.793-62.701-17.755-45.564-58.63-76.53-116.894-85.727C324.687 2.47 298.835.45 269.308.45 163.928.446 11.472 26.154 1.271 132.254"/>
        <path id="m" d="M1.27 132.254c-4.534 47.166-3.73 149.66 169.759 154.27 173.488 4.611 295.349-53.48 298.31-132.79.86-23.013-2.535-44.076-9.793-62.701-17.755-45.564-58.63-76.53-116.894-85.727C324.687 2.47 298.835.45 269.308.45 163.928.446 11.472 26.154 1.271 132.254"/>
        <path id="o" d="M1.27 132.254c-4.534 47.166-3.73 149.66 169.759 154.27 173.488 4.611 295.349-53.48 298.31-132.79.86-23.013-2.535-44.076-9.793-62.701-17.755-45.564-58.63-76.53-116.894-85.727C324.687 2.47 298.835.45 269.308.45 163.928.446 11.472 26.154 1.271 132.254"/>
        <path id="q" d="M1.27 132.254c-4.534 47.166-3.73 149.66 169.759 154.27 173.488 4.611 295.349-53.48 298.31-132.79.86-23.013-2.535-44.076-9.793-62.701-17.755-45.564-58.63-76.53-116.894-85.727C324.687 2.47 298.835.45 269.308.45 163.928.446 11.472 26.154 1.271 132.254"/>
        <path id="s" d="M1.27 132.254c-4.534 47.166-3.73 149.66 169.759 154.27 173.488 4.611 295.349-53.48 298.31-132.79.86-23.013-2.535-44.076-9.793-62.701-17.755-45.564-58.63-76.53-116.894-85.727C324.687 2.47 298.835.45 269.308.45 163.928.446 11.472 26.154 1.271 132.254"/>
        <path id="u" d="M1.27 132.254c-4.534 47.166-3.73 149.66 169.759 154.27 173.488 4.611 295.349-53.48 298.31-132.79.86-23.013-2.535-44.076-9.793-62.701-17.755-45.564-58.63-76.53-116.894-85.727C324.687 2.47 298.835.45 269.308.45 163.928.446 11.472 26.154 1.271 132.254"/>
        <path id="w" d="M1.27 132.254c-4.534 47.166-3.73 149.66 169.759 154.27 173.488 4.611 295.349-53.48 298.31-132.79.86-23.013-2.535-44.076-9.793-62.701-17.755-45.564-58.63-76.53-116.894-85.727C324.687 2.47 298.835.45 269.308.45 163.928.446 11.472 26.154 1.271 132.254"/>
        <path id="y" d="M1.27 132.254c-4.534 47.166-3.73 149.66 169.759 154.27 173.488 4.611 295.349-53.48 298.31-132.79.86-23.013-2.535-44.076-9.793-62.701-17.755-45.564-58.63-76.53-116.894-85.727C324.687 2.47 298.835.45 269.308.45 163.928.446 11.472 26.154 1.271 132.254"/>
        <path id="A" d="M1.27 132.254c-4.534 47.166-3.73 149.66 169.759 154.27 173.488 4.611 295.349-53.48 298.31-132.79.86-23.013-2.535-44.076-9.793-62.701-17.755-45.564-58.63-76.53-116.894-85.727C324.687 2.47 298.835.45 269.308.45 163.928.446 11.472 26.154 1.271 132.254"/>
        <path id="C" d="M1.27 132.254c-4.534 47.166-3.73 149.66 169.759 154.27 173.488 4.611 295.349-53.48 298.31-132.79.86-23.013-2.535-44.076-9.793-62.701-17.755-45.564-58.63-76.53-116.894-85.727C324.687 2.47 298.835.45 269.308.45 163.928.446 11.472 26.154 1.271 132.254"/>
        <path id="E" d="M1.27 132.254c-4.534 47.166-3.73 149.66 169.759 154.27 173.488 4.611 295.349-53.48 298.31-132.79.86-23.013-2.535-44.076-9.793-62.701-17.755-45.564-58.63-76.53-116.894-85.727C324.687 2.47 298.835.45 269.308.45 163.928.446 11.472 26.154 1.271 132.254"/>
        <path id="G" d="M1.27 132.254c-4.534 47.166-3.73 149.66 169.759 154.27 173.488 4.611 295.349-53.48 298.31-132.79.86-23.013-2.535-44.076-9.793-62.701-17.755-45.564-58.63-76.53-116.894-85.727C324.687 2.47 298.835.45 269.308.45 163.928.446 11.472 26.154 1.271 132.254"/>
        <path id="I" d="M1.27 132.254c-4.534 47.166-3.73 149.66 169.759 154.27 173.488 4.611 295.349-53.48 298.31-132.79.86-23.013-2.535-44.076-9.793-62.701-17.755-45.564-58.63-76.53-116.894-85.727C324.687 2.47 298.835.45 269.308.45 163.928.446 11.472 26.154 1.271 132.254"/>
        <path id="K" d="M1.27 132.254c-4.534 47.166-3.73 149.66 169.759 154.27 173.488 4.611 295.349-53.48 298.31-132.79.86-23.013-2.535-44.076-9.793-62.701-17.755-45.564-58.63-76.53-116.894-85.727C324.687 2.47 298.835.45 269.308.45 163.928.446 11.472 26.154 1.271 132.254"/>
        <path id="M" d="M1.27 132.254c-4.534 47.166-3.73 149.66 169.759 154.27 173.488 4.611 295.349-53.48 298.31-132.79.86-23.013-2.535-44.076-9.793-62.701-17.755-45.564-58.63-76.53-116.894-85.727C324.687 2.47 298.835.45 269.308.45 163.928.446 11.472 26.154 1.271 132.254"/>
        <path id="O" d="M1.27 132.254c-4.534 47.166-3.73 149.66 169.759 154.27 173.488 4.611 295.349-53.48 298.31-132.79.86-23.013-2.535-44.076-9.793-62.701-17.755-45.564-58.63-76.53-116.894-85.727C324.687 2.47 298.835.45 269.308.45 163.928.446 11.472 26.154 1.271 132.254"/>
        <path id="Q" d="M1.27 132.254c-4.534 47.166-3.73 149.66 169.759 154.27 173.488 4.611 295.349-53.48 298.31-132.79.86-23.013-2.535-44.076-9.793-62.701-17.755-45.564-58.63-76.53-116.894-85.727C324.687 2.47 298.835.45 269.308.45 163.928.446 11.472 26.154 1.271 132.254"/>
        <path id="S" d="M1.27 132.254c-4.534 47.166-3.73 149.66 169.759 154.27 173.488 4.611 295.349-53.48 298.31-132.79.86-23.013-2.535-44.076-9.793-62.701-17.755-45.564-58.63-76.53-116.894-85.727C324.687 2.47 298.835.45 269.308.45 163.928.446 11.472 26.154 1.271 132.254"/>
        <path id="U" d="M1.27 132.254c-4.534 47.166-3.73 149.66 169.759 154.27 173.488 4.611 295.349-53.48 298.31-132.79.86-23.013-2.535-44.076-9.793-62.701-17.755-45.564-58.63-76.53-116.894-85.727C324.687 2.47 298.835.45 269.308.45 163.928.446 11.472 26.154 1.271 132.254"/>
        <path id="W" d="M1.27 132.254c-4.534 47.166-3.73 149.66 169.759 154.27 173.488 4.611 295.349-53.48 298.31-132.79.86-23.013-2.535-44.076-9.793-62.701-17.755-45.564-58.63-76.53-116.894-85.727C324.687 2.47 298.835.45 269.308.45 163.928.446 11.472 26.154 1.271 132.254"/>
        <path id="Y" d="M1.27 132.254c-4.534 47.166-3.73 149.66 169.759 154.27 173.488 4.611 295.349-53.48 298.31-132.79.86-23.013-2.535-44.076-9.793-62.701-17.755-45.564-58.63-76.53-116.894-85.727C324.687 2.47 298.835.45 269.308.45 163.928.446 11.472 26.154 1.271 132.254"/>
        <path id="aa" d="M1.27 132.254c-4.534 47.166-3.73 149.66 169.759 154.27 173.488 4.611 295.349-53.48 298.31-132.79.86-23.013-2.535-44.076-9.793-62.701-17.755-45.564-58.63-76.53-116.894-85.727C324.687 2.47 298.835.45 269.308.45 163.928.446 11.472 26.154 1.271 132.254"/>
        <path id="ac" d="M1.27 132.254c-4.534 47.166-3.73 149.66 169.759 154.27 173.488 4.611 295.349-53.48 298.31-132.79.86-23.013-2.535-44.076-9.793-62.701-17.755-45.564-58.63-76.53-116.894-85.727C324.687 2.47 298.835.45 269.308.45 163.928.446 11.472 26.154 1.271 132.254"/>
        <path id="ae" d="M1.27 132.254c-4.534 47.166-3.73 149.66 169.759 154.27 173.488 4.611 295.349-53.48 298.31-132.79.86-23.013-2.535-44.076-9.793-62.701-17.755-45.564-58.63-76.53-116.894-85.727C324.687 2.47 298.835.45 269.308.45 163.928.446 11.472 26.154 1.271 132.254"/>
        <path id="ag" d="M1.27 132.254c-4.534 47.166-3.73 149.66 169.759 154.27 173.488 4.611 295.349-53.48 298.31-132.79.86-23.013-2.535-44.076-9.793-62.701-17.755-45.564-58.63-76.53-116.894-85.727C324.687 2.47 298.835.45 269.308.45 163.928.446 11.472 26.154 1.271 132.254"/>
        <path id="ai" d="M1.27 132.254c-4.534 47.166-3.73 149.66 169.759 154.27 173.488 4.611 295.349-53.48 298.31-132.79.86-23.013-2.535-44.076-9.793-62.701-17.755-45.564-58.63-76.53-116.894-85.727C324.687 2.47 298.835.45 269.308.45 163.928.446 11.472 26.154 1.271 132.254"/>
        <path id="ak" d="M1.27 132.254c-4.534 47.166-3.73 149.66 169.759 154.27 173.488 4.611 295.349-53.48 298.31-132.79.86-23.013-2.535-44.076-9.793-62.701-17.755-45.564-58.63-76.53-116.894-85.727C324.687 2.47 298.835.45 269.308.45 163.928.446 11.472 26.154 1.271 132.254"/>
        <path id="am" d="M1.27 132.254c-4.534 47.166-3.73 149.66 169.759 154.27 173.488 4.611 295.349-53.48 298.31-132.79.86-23.013-2.535-44.076-9.793-62.701-17.755-45.564-58.63-76.53-116.894-85.727C324.687 2.47 298.835.45 269.308.45 163.928.446 11.472 26.154 1.271 132.254"/>
        <path id="ao" d="M1.27 132.254c-4.534 47.166-3.73 149.66 169.759 154.27 173.488 4.611 295.349-53.48 298.31-132.79.86-23.013-2.535-44.076-9.793-62.701-17.755-45.564-58.63-76.53-116.894-85.727C324.687 2.47 298.835.45 269.308.45 163.928.446 11.472 26.154 1.271 132.254"/>
        <path id="aq" d="M1.27 132.254c-4.534 47.166-3.73 149.66 169.759 154.27 173.488 4.611 295.349-53.48 298.31-132.79.86-23.013-2.535-44.076-9.793-62.701-17.755-45.564-58.63-76.53-116.894-85.727C324.687 2.47 298.835.45 269.308.45 163.928.446 11.472 26.154 1.271 132.254"/>
        <path id="as" d="M1.27 132.254c-4.534 47.166-3.73 149.66 169.759 154.27 173.488 4.611 295.349-53.48 298.31-132.79.86-23.013-2.535-44.076-9.793-62.701-17.755-45.564-58.63-76.53-116.894-85.727C324.687 2.47 298.835.45 269.308.45 163.928.446 11.472 26.154 1.271 132.254"/>
        <path id="au" d="M1.27 132.254c-4.534 47.166-3.73 149.66 169.759 154.27 173.488 4.611 295.349-53.48 298.31-132.79.86-23.013-2.535-44.076-9.793-62.701-17.755-45.564-58.63-76.53-116.894-85.727C324.687 2.47 298.835.45 269.308.45 163.928.446 11.472 26.154 1.271 132.254"/>
        <path id="aw" d="M1.27 132.254c-4.534 47.166-3.73 149.66 169.759 154.27 173.488 4.611 295.349-53.48 298.31-132.79.86-23.013-2.535-44.076-9.793-62.701-17.755-45.564-58.63-76.53-116.894-85.727C324.687 2.47 298.835.45 269.308.45 163.928.446 11.472 26.154 1.271 132.254"/>
        <path id="ax" d="M1.27 132.254c-4.534 47.166-3.73 149.66 169.759 154.27 173.488 4.611 295.349-53.48 298.31-132.79.86-23.013-2.535-44.076-9.793-62.701-17.755-45.564-58.63-76.53-116.894-85.727C324.687 2.47 298.835.45 269.308.45 163.928.446 11.472 26.154 1.271 132.254"/>
        <path id="az" d="M1.27 132.254c-4.534 47.166-3.73 149.66 169.759 154.27 173.488 4.611 295.349-53.48 298.31-132.79.86-23.013-2.535-44.076-9.793-62.701-17.755-45.564-58.63-76.53-116.894-85.727C324.687 2.47 298.835.45 269.308.45 163.928.446 11.472 26.154 1.271 132.254"/>
        <path id="aB" d="M1.27 132.254c-4.534 47.166-3.73 149.66 169.759 154.27 173.488 4.611 295.349-53.48 298.31-132.79.86-23.013-2.535-44.076-9.793-62.701-17.755-45.564-58.63-76.53-116.894-85.727C324.687 2.47 298.835.45 269.308.45 163.928.446 11.472 26.154 1.271 132.254"/>
        <path id="aD" d="M1.27 132.254c-4.534 47.166-3.73 149.66 169.759 154.27 173.488 4.611 295.349-53.48 298.31-132.79.86-23.013-2.535-44.076-9.793-62.701-17.755-45.564-58.63-76.53-116.894-85.727C324.687 2.47 298.835.45 269.308.45 163.928.446 11.472 26.154 1.271 132.254"/>
        <path id="aF" d="M1.27 132.254c-4.534 47.166-3.73 149.66 169.759 154.27 173.488 4.611 295.349-53.48 298.31-132.79.86-23.013-2.535-44.076-9.793-62.701-17.755-45.564-58.63-76.53-116.894-85.727C324.687 2.47 298.835.45 269.308.45 163.928.446 11.472 26.154 1.271 132.254"/>
        <path id="aH" d="M1.27 132.254c-4.534 47.166-3.73 149.66 169.759 154.27 173.488 4.611 295.349-53.48 298.31-132.79.86-23.013-2.535-44.076-9.793-62.701-17.755-45.564-58.63-76.53-116.894-85.727C324.687 2.47 298.835.45 269.308.45 163.928.446 11.472 26.154 1.271 132.254"/>
        <path id="aJ" d="M1.27 132.254c-4.534 47.166-3.73 149.66 169.759 154.27 173.488 4.611 295.349-53.48 298.31-132.79.86-23.013-2.535-44.076-9.793-62.701-17.755-45.564-58.63-76.53-116.894-85.727C324.687 2.47 298.835.45 269.308.45 163.928.446 11.472 26.154 1.271 132.254"/>
        <path id="aK" d="M1.27 132.254c-4.534 47.166-3.73 149.66 169.759 154.27 173.488 4.611 295.349-53.48 298.31-132.79.86-23.013-2.535-44.076-9.793-62.701-17.755-45.564-58.63-76.53-116.894-85.727C324.687 2.47 298.835.45 269.308.45 163.928.446 11.472 26.154 1.271 132.254"/>
        <path id="aM" d="M1.27 132.254c-4.534 47.166-3.73 149.66 169.759 154.27 173.488 4.611 295.349-53.48 298.31-132.79.86-23.013-2.535-44.076-9.793-62.701-17.755-45.564-58.63-76.53-116.894-85.727C324.687 2.47 298.835.45 269.308.45 163.928.446 11.472 26.154 1.271 132.254"/>
        <path id="aO" d="M1.27 132.254c-4.534 47.166-3.73 149.66 169.759 154.27 173.488 4.611 295.349-53.48 298.31-132.79.86-23.013-2.535-44.076-9.793-62.701-17.755-45.564-58.63-76.53-116.894-85.727C324.687 2.47 298.835.45 269.308.45 163.928.446 11.472 26.154 1.271 132.254"/>
        <path id="aQ" d="M1.27 132.254c-4.534 47.166-3.73 149.66 169.759 154.27 173.488 4.611 295.349-53.48 298.31-132.79.86-23.013-2.535-44.076-9.793-62.701-17.755-45.564-58.63-76.53-116.894-85.727C324.687 2.47 298.835.45 269.308.45 163.928.446 11.472 26.154 1.271 132.254"/>
        <path id="aS" d="M1.27 132.254c-4.534 47.166-3.73 149.66 169.759 154.27 173.488 4.611 295.349-53.48 298.31-132.79.86-23.013-2.535-44.076-9.793-62.701-17.755-45.564-58.63-76.53-116.894-85.727C324.687 2.47 298.835.45 269.308.45 163.928.446 11.472 26.154 1.271 132.254"/>
        <path id="aU" d="M1.27 132.254c-4.534 47.166-3.73 149.66 169.759 154.27 173.488 4.611 295.349-53.48 298.31-132.79.86-23.013-2.535-44.076-9.793-62.701-17.755-45.564-58.63-76.53-116.894-85.727C324.687 2.47 298.835.45 269.308.45 163.928.446 11.472 26.154 1.271 132.254"/>
        <path id="aW" d="M1.27 132.254c-4.534 47.166-3.73 149.66 169.759 154.27 173.488 4.611 295.349-53.48 298.31-132.79.86-23.013-2.535-44.076-9.793-62.701-17.755-45.564-58.63-76.53-116.894-85.727C324.687 2.47 298.835.45 269.308.45 163.928.446 11.472 26.154 1.271 132.254"/>
        <path id="aY" d="M1.27 132.254c-4.534 47.166-3.73 149.66 169.759 154.27 173.488 4.611 295.349-53.48 298.31-132.79.86-23.013-2.535-44.076-9.793-62.701-17.755-45.564-58.63-76.53-116.894-85.727C324.687 2.47 298.835.45 269.308.45 163.928.446 11.472 26.154 1.271 132.254"/>
        <path id="ba" d="M1.27 132.254c-4.534 47.166-3.73 149.66 169.759 154.27 173.488 4.611 295.349-53.48 298.31-132.79.86-23.013-2.535-44.076-9.793-62.701-17.755-45.564-58.63-76.53-116.894-85.727C324.687 2.47 298.835.45 269.308.45 163.928.446 11.472 26.154 1.271 132.254"/>
        <path id="bc" d="M1.27 132.254c-4.534 47.166-3.73 149.66 169.759 154.27 173.488 4.611 295.349-53.48 298.31-132.79.86-23.013-2.535-44.076-9.793-62.701-17.755-45.564-58.63-76.53-116.894-85.727C324.687 2.47 298.835.45 269.308.45 163.928.446 11.472 26.154 1.271 132.254"/>
        <path id="bd" d="M1.27 132.254c-4.534 47.166-3.73 149.66 169.759 154.27 173.488 4.611 295.349-53.48 298.31-132.79.86-23.013-2.535-44.076-9.793-62.701-17.755-45.564-58.63-76.53-116.894-85.727C324.687 2.47 298.835.45 269.308.45 163.928.446 11.472 26.154 1.271 132.254"/>
        <path id="be" d="M1.27 132.254c-4.534 47.166-3.73 149.66 169.759 154.27 173.488 4.611 295.349-53.48 298.31-132.79.86-23.013-2.535-44.076-9.793-62.701-17.755-45.564-58.63-76.53-116.894-85.727C324.687 2.47 298.835.45 269.308.45 163.928.446 11.472 26.154 1.271 132.254"/>
        <path id="bg" d="M1.27 132.254c-4.534 47.166-3.73 149.66 169.759 154.27 173.488 4.611 295.349-53.48 298.31-132.79.86-23.013-2.535-44.076-9.793-62.701-17.755-45.564-58.63-76.53-116.894-85.727C324.687 2.47 298.835.45 269.308.45 163.928.446 11.472 26.154 1.271 132.254"/>
        <path id="bi" d="M1.27 132.254c-4.534 47.166-3.73 149.66 169.759 154.27 173.488 4.611 295.349-53.48 298.31-132.79.86-23.013-2.535-44.076-9.793-62.701-17.755-45.564-58.63-76.53-116.894-85.727C324.687 2.47 298.835.45 269.308.45 163.928.446 11.472 26.154 1.271 132.254"/>
        <path id="bk" d="M1.27 132.254c-4.534 47.166-3.73 149.66 169.759 154.27 173.488 4.611 295.349-53.48 298.31-132.79.86-23.013-2.535-44.076-9.793-62.701-17.755-45.564-58.63-76.53-116.894-85.727C324.687 2.47 298.835.45 269.308.45 163.928.446 11.472 26.154 1.271 132.254"/>
        <path id="bm" d="M1.27 132.254c-4.534 47.166-3.73 149.66 169.759 154.27 173.488 4.611 295.349-53.48 298.31-132.79.86-23.013-2.535-44.076-9.793-62.701-17.755-45.564-58.63-76.53-116.894-85.727C324.687 2.47 298.835.45 269.308.45 163.928.446 11.472 26.154 1.271 132.254"/>
        <path id="bo" d="M1.27 132.254c-4.534 47.166-3.73 149.66 169.759 154.27 173.488 4.611 295.349-53.48 298.31-132.79.86-23.013-2.535-44.076-9.793-62.701-17.755-45.564-58.63-76.53-116.894-85.727C324.687 2.47 298.835.45 269.308.45 163.928.446 11.472 26.154 1.271 132.254"/>
        <path id="bq" d="M1.27 132.254c-4.534 47.166-3.73 149.66 169.759 154.27 173.488 4.611 295.349-53.48 298.31-132.79.86-23.013-2.535-44.076-9.793-62.701-17.755-45.564-58.63-76.53-116.894-85.727C324.687 2.47 298.835.45 269.308.45 163.928.446 11.472 26.154 1.271 132.254"/>
        <path id="bs" d="M1.27 132.254c-4.534 47.166-3.73 149.66 169.759 154.27 173.488 4.611 295.349-53.48 298.31-132.79.86-23.013-2.535-44.076-9.793-62.701-17.755-45.564-58.63-76.53-116.894-85.727C324.687 2.47 298.835.45 269.308.45 163.928.446 11.472 26.154 1.271 132.254"/>
        <path id="bu" d="M1.27 132.254c-4.534 47.166-3.73 149.66 169.759 154.27 173.488 4.611 295.349-53.48 298.31-132.79.86-23.013-2.535-44.076-9.793-62.701-17.755-45.564-58.63-76.53-116.894-85.727C324.687 2.47 298.835.45 269.308.45 163.928.446 11.472 26.154 1.271 132.254"/>
        <path id="bw" d="M1.27 132.254c-4.534 47.166-3.73 149.66 169.759 154.27 173.488 4.611 295.349-53.48 298.31-132.79.86-23.013-2.535-44.076-9.793-62.701-17.755-45.564-58.63-76.53-116.894-85.727C324.687 2.47 298.835.45 269.308.45 163.928.446 11.472 26.154 1.271 132.254"/>
        <path id="by" d="M1.27 132.254c-4.534 47.166-3.73 149.66 169.759 154.27 173.488 4.611 295.349-53.48 298.31-132.79.86-23.013-2.535-44.076-9.793-62.701-17.755-45.564-58.63-76.53-116.894-85.727C324.687 2.47 298.835.45 269.308.45 163.928.446 11.472 26.154 1.271 132.254"/>
        <path id="bA" d="M1.27 132.254c-4.534 47.166-3.73 149.66 169.759 154.27 173.488 4.611 295.349-53.48 298.31-132.79.86-23.013-2.535-44.076-9.793-62.701-17.755-45.564-58.63-76.53-116.894-85.727C324.687 2.47 298.835.45 269.308.45 163.928.446 11.472 26.154 1.271 132.254"/>
        <path id="bC" d="M1.27 132.254c-4.534 47.166-3.73 149.66 169.759 154.27 173.488 4.611 295.349-53.48 298.31-132.79.86-23.013-2.535-44.076-9.793-62.701-17.755-45.564-58.63-76.53-116.894-85.727C324.687 2.47 298.835.45 269.308.45 163.928.446 11.472 26.154 1.271 132.254"/>
        <path id="bE" d="M1.27 132.254c-4.534 47.166-3.73 149.66 169.759 154.27 173.488 4.611 295.349-53.48 298.31-132.79.86-23.013-2.535-44.076-9.793-62.701-17.755-45.564-58.63-76.53-116.894-85.727C324.687 2.47 298.835.45 269.308.45 163.928.446 11.472 26.154 1.271 132.254"/>
        <path id="bG" d="M1.27 132.254c-4.534 47.166-3.73 149.66 169.759 154.27 173.488 4.611 295.349-53.48 298.31-132.79.86-23.013-2.535-44.076-9.793-62.701-17.755-45.564-58.63-76.53-116.894-85.727C324.687 2.47 298.835.45 269.308.45 163.928.446 11.472 26.154 1.271 132.254"/>
        <path id="bI" d="M1.27 132.254c-4.534 47.166-3.73 149.66 169.759 154.27 173.488 4.611 295.349-53.48 298.31-132.79.86-23.013-2.535-44.076-9.793-62.701-17.755-45.564-58.63-76.53-116.894-85.727C324.687 2.47 298.835.45 269.308.45 163.928.446 11.472 26.154 1.271 132.254"/>
        <path id="bK" d="M1.27 132.254c-4.534 47.166-3.73 149.66 169.759 154.27 173.488 4.611 295.349-53.48 298.31-132.79.86-23.013-2.535-44.076-9.793-62.701-17.755-45.564-58.63-76.53-116.894-85.727C324.687 2.47 298.835.45 269.308.45 163.928.446 11.472 26.154 1.271 132.254"/>
        <path id="bM" d="M1.27 132.254c-4.534 47.166-3.73 149.66 169.759 154.27 173.488 4.611 295.349-53.48 298.31-132.79.86-23.013-2.535-44.076-9.793-62.701-17.755-45.564-58.63-76.53-116.894-85.727C324.687 2.47 298.835.45 269.308.45 163.928.446 11.472 26.154 1.271 132.254"/>
        <path id="bO" d="M1.27 132.254c-4.534 47.166-3.73 149.66 169.759 154.27 173.488 4.611 295.349-53.48 298.31-132.79.86-23.013-2.535-44.076-9.793-62.701-17.755-45.564-58.63-76.53-116.894-85.727C324.687 2.47 298.835.45 269.308.45 163.928.446 11.472 26.154 1.271 132.254"/>
        <path id="bQ" d="M1.27 132.254c-4.534 47.166-3.73 149.66 169.759 154.27 173.488 4.611 295.349-53.48 298.31-132.79.86-23.013-2.535-44.076-9.793-62.701-17.755-45.564-58.63-76.53-116.894-85.727C324.687 2.47 298.835.45 269.308.45 163.928.446 11.472 26.154 1.271 132.254"/>
        <path id="bS" d="M1.27 132.254c-4.534 47.166-3.73 149.66 169.759 154.27 173.488 4.611 295.349-53.48 298.31-132.79.86-23.013-2.535-44.076-9.793-62.701-17.755-45.564-58.63-76.53-116.894-85.727C324.687 2.47 298.835.45 269.308.45 163.928.446 11.472 26.154 1.271 132.254"/>
        <path id="bU" d="M1.27 132.254c-4.534 47.166-3.73 149.66 169.759 154.27 173.488 4.611 295.349-53.48 298.31-132.79.86-23.013-2.535-44.076-9.793-62.701-17.755-45.564-58.63-76.53-116.894-85.727C324.687 2.47 298.835.45 269.308.45 163.928.446 11.472 26.154 1.271 132.254"/>
        <path id="bW" d="M1.27 132.254c-4.534 47.166-3.73 149.66 169.759 154.27 173.488 4.611 295.349-53.48 298.31-132.79.86-23.013-2.535-44.076-9.793-62.701-17.755-45.564-58.63-76.53-116.894-85.727C324.687 2.47 298.835.45 269.308.45 163.928.446 11.472 26.154 1.271 132.254"/>
        <path id="bY" d="M1.27 132.254c-4.534 47.166-3.73 149.66 169.759 154.27 173.488 4.611 295.349-53.48 298.31-132.79.86-23.013-2.535-44.076-9.793-62.701-17.755-45.564-58.63-76.53-116.894-85.727C324.687 2.47 298.835.45 269.308.45 163.928.446 11.472 26.154 1.271 132.254"/>
        <path id="ca" d="M1.27 132.254c-4.534 47.166-3.73 149.66 169.759 154.27 173.488 4.611 295.349-53.48 298.31-132.79.86-23.013-2.535-44.076-9.793-62.701-17.755-45.564-58.63-76.53-116.894-85.727C324.687 2.47 298.835.45 269.308.45 163.928.446 11.472 26.154 1.271 132.254"/>
        <path id="cc" d="M1.27 132.254c-4.534 47.166-3.73 149.66 169.759 154.27 173.488 4.611 295.349-53.48 298.31-132.79.86-23.013-2.535-44.076-9.793-62.701-17.755-45.564-58.63-76.53-116.894-85.727C324.687 2.47 298.835.45 269.308.45 163.928.446 11.472 26.154 1.271 132.254"/>
        <path id="ce" d="M1.27 132.254c-4.534 47.166-3.73 149.66 169.759 154.27 173.488 4.611 295.349-53.48 298.31-132.79.86-23.013-2.535-44.076-9.793-62.701-17.755-45.564-58.63-76.53-116.894-85.727C324.687 2.47 298.835.45 269.308.45 163.928.446 11.472 26.154 1.271 132.254"/>
        <path id="cg" d="M1.27 132.254c-4.534 47.166-3.73 149.66 169.759 154.27 173.488 4.611 295.349-53.48 298.31-132.79.86-23.013-2.535-44.076-9.793-62.701-17.755-45.564-58.63-76.53-116.894-85.727C324.687 2.47 298.835.45 269.308.45 163.928.446 11.472 26.154 1.271 132.254"/>
        <path id="ci" d="M1.27 132.254c-4.534 47.166-3.73 149.66 169.759 154.27 173.488 4.611 295.349-53.48 298.31-132.79.86-23.013-2.535-44.076-9.793-62.701-17.755-45.564-58.63-76.53-116.894-85.727C324.687 2.47 298.835.45 269.308.45 163.928.446 11.472 26.154 1.271 132.254"/>
        <path id="ck" d="M1.27 132.254c-4.534 47.166-3.73 149.66 169.759 154.27 173.488 4.611 295.349-53.48 298.31-132.79.86-23.013-2.535-44.076-9.793-62.701-17.755-45.564-58.63-76.53-116.894-85.727C324.687 2.47 298.835.45 269.308.45 163.928.446 11.472 26.154 1.271 132.254"/>
        <path id="cm" d="M1.27 132.254c-4.534 47.166-3.73 149.66 169.759 154.27 173.488 4.611 295.349-53.48 298.31-132.79.86-23.013-2.535-44.076-9.793-62.701-17.755-45.564-58.63-76.53-116.894-85.727C324.687 2.47 298.835.45 269.308.45 163.928.446 11.472 26.154 1.271 132.254"/>
        <path id="cn" d="M1.27 132.254c-4.534 47.166-3.73 149.66 169.759 154.27 173.488 4.611 295.349-53.48 298.31-132.79.86-23.013-2.535-44.076-9.793-62.701-17.755-45.564-58.63-76.53-116.894-85.727C324.687 2.47 298.835.45 269.308.45 163.928.446 11.472 26.154 1.271 132.254"/>
        <path id="co" d="M1.27 132.254c-4.534 47.166-3.73 149.66 169.759 154.27 173.488 4.611 295.349-53.48 298.31-132.79.86-23.013-2.535-44.076-9.793-62.701-17.755-45.564-58.63-76.53-116.894-85.727C324.687 2.47 298.835.45 269.308.45 163.928.446 11.472 26.154 1.271 132.254"/>
        <path id="cq" d="M1.27 132.254c-4.534 47.166-3.73 149.66 169.759 154.27 173.488 4.611 295.349-53.48 298.31-132.79.86-23.013-2.535-44.076-9.793-62.701-17.755-45.564-58.63-76.53-116.894-85.727C324.687 2.47 298.835.45 269.308.45 163.928.446 11.472 26.154 1.271 132.254"/>
        <path id="cs" d="M1.27 132.254c-4.534 47.166-3.73 149.66 169.759 154.27 173.488 4.611 295.349-53.48 298.31-132.79.86-23.013-2.535-44.076-9.793-62.701-17.755-45.564-58.63-76.53-116.894-85.727C324.687 2.47 298.835.45 269.308.45 163.928.446 11.472 26.154 1.271 132.254"/>
        <path id="cu" d="M1.27 132.254c-4.534 47.166-3.73 149.66 169.759 154.27 173.488 4.611 295.349-53.48 298.31-132.79.86-23.013-2.535-44.076-9.793-62.701-17.755-45.564-58.63-76.53-116.894-85.727C324.687 2.47 298.835.45 269.308.45 163.928.446 11.472 26.154 1.271 132.254"/>
        <path id="cw" d="M1.27 132.254c-4.534 47.166-3.73 149.66 169.759 154.27 173.488 4.611 295.349-53.48 298.31-132.79.86-23.013-2.535-44.076-9.793-62.701-17.755-45.564-58.63-76.53-116.894-85.727C324.687 2.47 298.835.45 269.308.45 163.928.446 11.472 26.154 1.271 132.254"/>
        <path id="cx" d="M1.27 132.254c-4.534 47.166-3.73 149.66 169.759 154.27 173.488 4.611 295.349-53.48 298.31-132.79.86-23.013-2.535-44.076-9.793-62.701-17.755-45.564-58.63-76.53-116.894-85.727C324.687 2.47 298.835.45 269.308.45 163.928.446 11.472 26.154 1.271 132.254"/>
        <path id="cz" d="M1.27 132.254c-4.534 47.166-3.73 149.66 169.759 154.27 173.488 4.611 295.349-53.48 298.31-132.79.86-23.013-2.535-44.076-9.793-62.701-17.755-45.564-58.63-76.53-116.894-85.727C324.687 2.47 298.835.45 269.308.45 163.928.446 11.472 26.154 1.271 132.254"/>
        <path id="cB" d="M171.029 286.524c173.488 4.611 295.349-53.48 298.31-132.79.86-23.013-2.535-44.076-9.793-62.701-17.755-45.564-58.63-76.53-116.894-85.727C324.687 2.47 298.835.45 269.308.45 163.928.446 11.472 26.154 1.271 132.254c-4.535 47.166-3.73 149.66 169.758 154.27z"/>
        <path id="cD" d="M0 .408h81.349V16.28H0z"/>
    </defs>
    <g fill="none" fill-rule="evenodd">
        <path fill="#D9C2F0" d="M10.132 200.651C5.601 247.764 6.404 350.138 179.77 354.744c173.365 4.606 295.14-53.42 298.1-132.637.858-22.986-2.534-44.026-9.787-62.63-17.743-45.51-58.589-76.44-116.812-85.626-82.022-12.94-328.09-8.87-341.139 126.8"/>
        <path fill="#492191" d="M144.953 15.28l4.026-.131c1.464-.048 2.645-1.308 2.596-2.772-.047-1.462-1.306-2.643-2.77-2.596l-4.026.13c-1.461.048-2.643 1.308-2.596 2.77.048 1.464 1.309 2.645 2.77 2.598M171.861 15.808l2.616.36c2.374.328 4.56-.882 4.806-2.66.245-1.78-1.533-3.536-3.907-3.864l-2.616-.36c-2.371-.327-4.56.884-4.805 2.661-.245 1.779 1.533 3.536 3.906 3.863M182.198 5.652c.222-.012.443-.02.666-.027l.233.003.07.01.23.052.046.021.327.22c1.136.976 2.86.932 3.881-.201.985-1.094.935-2.907-.202-3.883-1.62-1.391-3.451-1.793-5.538-1.685-1.495.077-2.68 1.393-2.602 2.889.078 1.496 1.393 2.678 2.889 2.6M240.432 60.745c.406 1.613 1.917 2.665 3.319 2.31 1.404-.353 2.233-1.994 1.827-3.607l-.896-3.554c-.407-1.612-1.915-2.665-3.319-2.31-1.402.352-2.233 1.994-1.827 3.608l.896 3.553zM133.143 5.077c1.614 1.118 3.49 1.162 5.371.91 1.476-.196 2.54-1.594 2.343-3.066-.199-1.475-1.595-2.538-3.069-2.341-.18.024-.36.048-.541.068-.11.012-.448.026-.584.035a5.992 5.992 0 0 1-.349-.04l-.007-.003.006.004-.035-.005c-1.203-.719-2.758-.552-3.65.615-.87 1.14-.708 2.977.515 3.823"/>
        <g transform="translate(135.262 -.888)">
            <mask id="b" fill="#fff">
                <use xlink:href="#a"/>
            </mask>
            <path fill="#492191" d="M1.046 1.528c-.282-.188-.164-.085 0 0" mask="url(#b)"/>
        </g>
        <path fill="#492191" d="M241.968 78.706l-.93 5.228c-.28 1.583.807 3.138 2.389 3.419 1.584.282 3.139-.805 3.42-2.388l.928-5.227c.281-1.583-.804-3.137-2.388-3.419-1.582-.28-3.139.805-3.42 2.387M216.187 37.955c-17.746-11.207-44.29-13.255-67.579-13.207-25.022.052-50.007 4.47-74.096 11.023-21.41 5.825-38.67 15.235-43.94 31.244-5.662 17.188-5.614 33.622-5.28 50.366.292 14.29 2.446 31.017 22.351 36.759 21.173 6.103 48.761 6.72 73.034 5.876 3.574-.125 7.125-.266 10.669-.422 5.971 14.28 24.658 25.047 37.686 30.068 10.887 4.191 7.062-3.55 5.469-9.337a104.486 104.486 0 0 1-2.197-9.713c-.831-4.76-1.294-9.67-1.205-14.568 1.957-.3 3.913-.609 5.872-.96 12.38-2.214 22.52-2.117 32.35-11.105 15.942-14.575 23.796-37.498 26.458-58.416 3.053-24.016-5.492-38.705-19.592-47.608M14.17 91.943c1.242-.04 2.145-1.083 2.148-2.294.002-.723.44-1.699.827-2.543.506-1.1.22-2.407-.896-3.013-1.011-.549-2.507-.204-3.013.895-.71 1.547-1.356 3.075-1.36 4.805-.003 1.212 1.114 2.187 2.293 2.15M55.105 26.592c1.194-.876 2.243-1.714 3.55-2.165 1.141-.395 1.676-1.794 1.244-2.88-.46-1.16-1.736-1.642-2.879-1.246-1.67.579-3.131 1.68-4.542 2.716a2.24 2.24 0 0 0-.474 3.101 2.241 2.241 0 0 0 3.101.474M15.636 51.544a2.24 2.24 0 0 0 3.09-.542c.85-1.212 1.578-2.34 2.67-3.187.956-.739 1.017-2.235.26-3.126-.806-.951-2.17-1-3.126-.26-1.398 1.082-2.43 2.592-3.436 4.025a2.24 2.24 0 0 0 .542 3.09M70.727 15.29c.974.65 2.562.598 3.492-.114.215-.164.432-.328.659-.485l.018-.013.024-.011.1-.022-.014.002c1.091-.23 1.912-.906 1.885-1.773-.03-.924-1.183-1.783-2.528-1.687-1.576.113-2.67.802-3.717 1.604-.93.711-.892 1.848.081 2.499M213.112 26.329c.205 1.152 1.343 2.262 2.5 2.442.267.04.537.083.807.138l.02.005.026.009.086.058-.012-.01c.92.629 1.977.754 2.584.133.646-.661.467-2.088-.533-2.992-1.173-1.059-2.427-1.37-3.731-1.572-1.157-.179-1.952.637-1.747 1.789M100.808 10.996l2.806-.538a2.114 2.114 0 0 0 1.661-2.452 2.112 2.112 0 0 0-2.45-1.662l-2.806.537a2.115 2.115 0 0 0-1.663 2.452 2.115 2.115 0 0 0 2.452 1.663M116.153 7.668l3.446-.113c1.378-.044 2.49-1.232 2.445-2.609-.045-1.377-1.232-2.49-2.609-2.445l-3.446.112a2.552 2.552 0 0 0-2.445 2.61c.044 1.376 1.231 2.49 2.609 2.445M5.385 97.737c0-.382.127-.987.25-1.561.158-.738.257-1.496.259-2.252.002-1.264-1.162-2.282-2.392-2.242-1.296.042-2.24 1.129-2.242 2.392-.001.382-.127.987-.25 1.56-.16.74-.258 1.498-.26 2.253-.001 1.264 1.163 2.282 2.393 2.242 1.296-.042 2.24-1.129 2.242-2.392M5.714 76.067c1.297-.042 2.242-1.129 2.243-2.392 0-.382.127-.986.25-1.561.158-.738.257-1.496.258-2.252.003-1.264-1.161-2.281-2.392-2.241-1.295.041-2.24 1.128-2.241 2.392-.002.382-.128.986-.251 1.56a10.967 10.967 0 0 0-.26 2.253c0 1.263 1.163 2.281 2.393 2.241M3.126 129.879c-1.03 1.1-.942 2.771.062 3.84.01.128.015.257.02.387.05 1.51 1.349 2.73 2.86 2.682 1.51-.05 2.731-1.351 2.682-2.862-.055-1.625-.532-3.01-1.706-4.174-1.073-1.064-2.906-.952-3.918.127M38.01 167.232l-3.457-1.045c-1.382-.417-2.885.387-3.303 1.77-.417 1.382.389 2.884 1.77 3.301l3.457 1.046c1.383.418 2.885-.386 3.303-1.769.418-1.383-.387-2.885-1.77-3.303M63.259 173.788l-3.247-.456a2.427 2.427 0 0 0-2.716 2.048c-.182 1.298.75 2.532 2.047 2.714l3.248.456a2.427 2.427 0 0 0 2.715-2.046 2.428 2.428 0 0 0-2.047-2.716M84.185 175.996l-3.257.378a2.428 2.428 0 0 0-2.11 2.666c.15 1.3 1.363 2.262 2.664 2.11l3.257-.377c1.303-.152 2.264-1.364 2.112-2.665a2.427 2.427 0 0 0-2.666-2.112M105.213 175.996l-3.257.378a2.428 2.428 0 0 0-2.11 2.666c.15 1.3 1.363 2.262 2.664 2.11l3.258-.377c1.302-.152 2.263-1.364 2.111-2.665a2.427 2.427 0 0 0-2.666-2.112M39.783 158.29l-3.069-1.554c-1.226-.62-2.767-.114-3.387 1.112-.621 1.227-.116 2.767 1.11 3.388l3.068 1.553a2.544 2.544 0 0 0 3.387-1.111c.621-1.227.116-2.768-1.11-3.389M16.323 142.812c.67 1.2 2.23 1.641 3.43.971 1.2-.67 1.643-2.23.973-3.43l-1.678-3.003c-.67-1.199-2.23-1.641-3.431-.971-1.2.671-1.641 2.231-.971 3.43l1.677 3.003zM157.482 5.919l3.462.009c1.384.003 2.542-1.148 2.545-2.531.004-1.384-1.147-2.543-2.53-2.546l-3.463-.01c-1.384-.004-2.541 1.148-2.545 2.533-.003 1.384 1.148 2.541 2.531 2.545M143.511 189.205a11.773 11.773 0 0 1-.784-.667l-.243-.26a5.98 5.98 0 0 1-.214-.346c-.668-1.158-2.287-1.464-3.385-.771-1.163.733-1.44 2.225-.77 3.384.925 1.607 2.523 2.501 3.851 3.72.985.904 2.548.872 3.47-.113.906-.967.872-2.565-.113-3.468-.577-.53-1.196-.999-1.812-1.479M183.054 198.469c-.557.67-.877 1.376-1.12 2.21-.082.274-.143.556-.213.833-.038.151-.078.301-.122.45 0 0-.277.717-.117.35-.525 1.209-.259 2.61.973 3.28 1.083.587 2.758.234 3.282-.975.308-.714.556-1.434.744-2.188.063-.255.13-.51.2-.762l.03-.052c.72-1 .715-2.366-.236-3.257-.92-.862-2.573-.901-3.42.111M239.28 144.898c-1.399-.48-2.862.296-3.37 1.65-.04.107-.063.174-.073.214l-.041.07-.405.588c-.128.129-.262.25-.398.37l-.164.125-.118.063c-1.28.672-1.866 2.224-1.216 3.55.622 1.27 2.267 1.889 3.549 1.217 1.812-.95 3.171-2.568 3.887-4.475.509-1.355-.313-2.912-1.651-3.372M251.62 118.71c-1.525.049-2.654 1.332-2.647 2.826 0 .118.003.19.007.232l-.014.085-.174.715c-.077.17-.162.336-.25.501l-.112.182-.09.105c-.99 1.116-.987 2.829.125 3.87 1.065 1 2.88.994 3.871-.125 1.401-1.582 2.12-3.64 2.113-5.743-.005-1.493-1.367-2.696-2.828-2.649M226.307 37.483c-.436 1.545.491 3.086 1.99 3.557.119.036.192.057.237.066l.079.04.66.403c.148.132.288.27.425.41l.146.171.075.124c.805 1.348 2.523 1.892 3.923 1.108 1.341-.75 1.914-2.572 1.109-3.922-1.14-1.908-2.975-3.286-5.085-3.949-1.5-.47-3.14.512-3.559 1.992M14.41 107.178c.333-3.271-4.733-3.909-5.065-.63-.235 2.31.143 4.625-.09 6.932-.332 3.271 4.733 3.908 5.066.63.234-2.31-.145-4.625.09-6.932M20.243 67.744c.715-.837.7-2.101-.12-2.87-.802-.752-2.16-.742-2.906.094-1.023 1.147-1.137 2.484-1.09 3.957a2.075 2.075 0 0 0 2.12 1.988 2.076 2.076 0 0 0 1.989-2.122 39.597 39.597 0 0 1-.017-.641c-.002-.075.012-.264.02-.393l.004-.013zM43.481 41.892c1.432-1.247 3.204-2.016 4.635-3.263 1.077-.94 1.334-2.53.417-3.685-.859-1.08-2.607-1.353-3.683-.416-1.432 1.248-3.202 2.016-4.635 3.264-1.077.938-1.334 2.53-.417 3.683.859 1.08 2.607 1.354 3.683.417M67.552 30.497l.187-.14.134-.077c.267-.152.549-.28.827-.408.63-.29 1.278-.538 1.922-.793 1.144-.452 1.578-1.95 1.077-3.01-.552-1.165-1.863-1.53-3.01-1.077-1.401.553-2.845 1.095-4.041 2.04-.965.766-1.054 2.261-.28 3.186.808.963 2.219 1.044 3.184.28M26.897 55.092c1.108.596 2.449.15 3.062-.92l.122-.199.094-.12c.194-.24.407-.464.619-.686.477-.501.987-.973 1.49-1.447.896-.846.744-2.397-.113-3.196-.944-.878-2.298-.732-3.195.114-1.097 1.034-2.238 2.071-2.998 3.393-.614 1.067-.142 2.49.92 3.061M85.483 23.837c1.46-.099 2.918-.768 4.286-.86 1.304-.086 2.36-1.132 2.317-2.472-.04-1.271-1.168-2.404-2.472-2.317-1.46.098-2.918.768-4.287.86-1.303.086-2.36 1.132-2.317 2.47.041 1.272 1.168 2.405 2.473 2.319M192.727 20.089c1.4.427 3 .32 4.312.721 1.248.383 2.609-.22 3.044-1.487.413-1.202-.237-2.662-1.487-3.045-1.4-.428-3-.32-4.312-.721-1.25-.383-2.61.22-3.045 1.486-.414 1.203.238 2.662 1.488 3.046M206.856 14.872c1.708.883 3.71 1.275 5.31 2.103 1.523.788 3.266.593 3.913-.582.613-1.113-.076-2.828-1.602-3.617-1.708-.883-3.71-1.274-5.31-2.102-1.524-.788-3.267-.594-3.913.58-.614 1.115.078 2.83 1.602 3.618M102.358 15.158a2.275 2.275 0 0 0-2.18 2.326 2.273 2.273 0 0 0 2.327 2.178l1.35-.043a2.274 2.274 0 0 0 2.18-2.325 2.275 2.275 0 0 0-2.326-2.18l-1.351.044zM118.213 13.805a2.418 2.418 0 0 0 2.473 2.317l2.875-.093a2.419 2.419 0 0 0 2.317-2.472 2.42 2.42 0 0 0-2.473-2.318l-2.875.093a2.418 2.418 0 0 0-2.317 2.473M19.398 154.406c-1.127-1.057-2.955-.997-4.01.13-1.059 1.129-1 2.954.13 4.011l2.635 2.47c1.128 1.057 2.954.997 4.01-.13 1.058-1.128.998-2.953-.13-4.012l-2.635-2.469M55.001 165.912a9.654 9.654 0 0 1-.364.005l-.066-.015c-.888-.778-2.242-.773-3.067.108-.794.848-.788 2.29.1 3.077 1.025.907 2.192 1.219 3.538 1.177a2.197 2.197 0 0 0 2.105-2.247 2.197 2.197 0 0 0-2.246-2.105M74.064 166.953c-1.032.307-2.063.091-3.118-.062a2.411 2.411 0 0 0-2.708 2.018c-.188 1.287.73 2.52 2.018 2.708 1.925.28 3.716.326 5.596-.236 1.248-.372 1.775-1.988 1.32-3.109-.522-1.288-1.86-1.693-3.108-1.32"/>
        <path fill="#492191" d="M130.284 177.917c-.526-.492-1.051-.983-1.575-1.476-1.012-.947-2.648-.894-3.596.117-.947 1.011-.894 2.648.117 3.596.526.491 1.05.983 1.575 1.475 1.011.947 2.648.895 3.596-.117.947-1.01.894-2.648-.117-3.595M208.85 168.227l-2.05.67c-1.319.43-2.06 1.89-1.63 3.208.43 1.317 1.89 2.06 3.208 1.629l2.051-.67c1.317-.431 2.058-1.89 1.63-3.208-.432-1.317-1.891-2.058-3.208-1.629M118.111 180.834c-1.012-.948-2.648-.895-3.596.117-.947 1.011-.894 2.648.117 3.596l1.575 1.475c1.011.947 2.648.893 3.596-.117.947-1.012.894-2.648-.117-3.595l-1.575-1.476M94.232 167.624l-2.33-.205c-1.496-.132-2.855 1.008-2.986 2.504-.133 1.495 1.006 2.856 2.503 2.988.777.067 1.552.136 2.328.205 1.496.13 2.856-1.01 2.988-2.505.132-1.496-1.009-2.855-2.503-2.987M160.183 196.505h.008l-.014-.002-.08-.015-.036-.008-.108-.064a16.483 16.483 0 0 1-.885-.785c-1.064-.998-2.787-.943-3.784.122-.998 1.065-.944 2.789.122 3.787 1.263 1.183 2.571 2.21 4.38 2.249 1.46.033 2.635-1.364 2.59-2.764-.043-1.314-.991-2.267-2.193-2.52M115.548 170.163a2.49 2.49 0 0 0-2.546-2.386l-1.48.048c-1.343.044-2.429 1.202-2.385 2.546.044 1.345 1.203 2.43 2.546 2.387l1.48-.048a2.491 2.491 0 0 0 2.385-2.547M188.677 180.238c-1.32-.35-2.815.458-3.135 1.819a8.668 8.668 0 0 0-.227 2.317c.01.286.036.573.046.86.005.147.004.296-.002.444l-.001.071c-.014.04-.034.108-.061.22-.318 1.36.44 2.768 1.82 3.135 1.32.35 2.815-.46 3.134-1.82.178-.759.26-1.537.226-2.315-.01-.287-.034-.574-.045-.861a5.782 5.782 0 0 1 .003-.446v-.068a1.94 1.94 0 0 0 .06-.221c.32-1.36-.438-2.769-1.818-3.135M135.311 196.028c-.216-.188-.442-.367-.66-.555-.11-.097-.22-.199-.324-.305l-.05-.049-.12-.193c-.775-1.163-2.322-1.57-3.533-.812-1.156.725-1.586 2.37-.81 3.532a8.598 8.598 0 0 0 1.538 1.746c.216.188.443.367.66.555.11.098.218.2.322.304l.052.05.119.194c.775 1.16 2.323 1.57 3.533.811 1.157-.725 1.586-2.37.811-3.532a8.633 8.633 0 0 0-1.538-1.746M156.695 207.253a12.3 12.3 0 0 0-2.415-1.396c-.313-.136-.629-.26-.941-.396a7.63 7.63 0 0 1-.48-.23l-.074-.035a2.93 2.93 0 0 0-.217-.17c-1.352-.997-3.133-.993-4.006.135-.838 1.08-.487 2.917.865 3.916a12.3 12.3 0 0 0 2.416 1.396c.311.136.629.26.941.396.162.071.32.148.479.228l.074.037c.04.035.105.087.217.17 1.352.997 3.132.992 4.007-.136.837-1.079.486-2.917-.866-3.915M176.994 209.057a12.357 12.357 0 0 0-2.743-.51c-.34-.026-.68-.036-1.019-.06a7.503 7.503 0 0 1-.528-.056l-.082-.01a3.293 3.293 0 0 0-.261-.087c-1.607-.49-3.284.108-3.733 1.463-.43 1.298.514 2.912 2.122 3.403.898.272 1.82.449 2.743.51.34.026.68.036 1.02.06.176.013.351.032.526.055l.084.01c.048.02.127.047.261.088 1.606.488 3.284-.108 3.733-1.464.428-1.296-.516-2.912-2.123-3.402M197.221 163.196l-3.51.115c-1.618.051-2.924 1.444-2.871 3.062.052 1.618 1.445 2.923 3.063 2.87l3.51-.113c1.619-.053 2.925-1.446 2.872-3.064-.053-1.617-1.445-2.922-3.064-2.87M220.478 155.52c-1.43.047-2.465 1.078-2.739 2.383v-.01l-.002.015-.016.088-.01.04-.068.117c-.27.334-.563.649-.853.96-1.085 1.158-1.024 3.028.133 4.113 1.156 1.083 3.029 1.024 4.112-.133 1.285-1.373 2.402-2.793 2.444-4.759.035-1.586-1.482-2.863-3.001-2.814M256.14 69.946l-.042-.141c-.012-.072-.063-.3-.074-.403a7.217 7.217 0 0 1-.003-.932c.033-.796.005-1.463-.233-2.25-.48-1.58-2.36-2.377-3.862-1.845-1.476.521-2.186 2.006-1.927 3.467.016.136.012.276.013.412-.002.273-.026.545-.036.818-.04.977.156 1.964.46 2.89.511 1.568 2.332 2.385 3.86 1.844 1.583-.559 2.358-2.293 1.845-3.86M244.638 102.516c-1.565.069-2.677 1.281-2.855 2.754-.024.135-.069.268-.107.399-.082.26-.184.513-.274.77-.322.924-.423 1.925-.403 2.9.032 1.649 1.536 2.961 3.156 2.89 1.676-.073 2.923-1.506 2.89-3.155v-.148l.047-.407c.063-.304.165-.599.268-.892.264-.751.432-1.398.433-2.22.002-1.65-1.563-2.961-3.155-2.891M233.522 137.323l.206-.308c.176-.219.38-.413.582-.607.522-.496.924-.946 1.264-1.607.682-1.326-.037-3.024-1.346-3.624-1.286-.59-2.68-.073-3.43 1.038l-.25.276c-.174.176-.36.337-.54.508-.638.609-1.132 1.372-1.517 2.164-.654 1.34.015 3.015 1.346 3.624 1.379.632 2.97-.006 3.624-1.346l.061-.118zM244.059 44.96c.05.178.086.36.132.539.16.645.476 1.25.85 1.795.633.924 1.976 1.108 2.868.466.925-.667 1.099-1.945.465-2.868l-.055-.084-.124-.248c-.078-.197-.13-.402-.181-.607-.131-.524-.276-.954-.581-1.422-.614-.936-1.99-1.097-2.868-.465-.862.622-1.04 1.725-.594 2.628l.088.265zM226.232 27.345l.22.174c.14.121.269.254.405.379.488.45 1.085.783 1.696 1.033 1.037.426 2.26-.156 2.653-1.183.408-1.065-.148-2.229-1.184-2.653l-.092-.04-.24-.14a4.815 4.815 0 0 1-.484-.407c-.397-.367-.753-.646-1.265-.87-1.028-.447-2.267.175-2.654 1.185-.38.993.076 2.013.945 2.522"/>
        <g fill-rule="nonzero">
            <path fill="#FFF" d="M72.948 66.576v8.576c0 1.552-.816 3.12-3.376 3.12-2.128 0-3.328-1.184-3.328-3.328v-.704h1.52v.48c0 1.328.352 2.272 1.84 2.272 1.392 0 1.824-.8 1.824-2.064v-8.352h1.52zm2.576 1.776v-1.776H77.3v1.776c0 1.264-.528 2.352-1.76 2.352v-.8c.72 0 .928-.816.928-1.552h-.944zm9.264 6.768v-1.392c-.528.384-1.552.4-2.464.56-.896.16-1.664.48-1.664 1.488 0 .896.768 1.216 1.6 1.216 1.792 0 2.528-1.12 2.528-1.872zm2.208 1.792v1.056c-.24.144-.544.224-.976.224-.704 0-1.152-.384-1.152-1.28-.752.88-1.76 1.28-2.912 1.28-1.504 0-2.736-.672-2.736-2.32 0-1.872 1.392-2.272 2.8-2.544 1.504-.288 2.784-.192 2.784-1.216 0-1.184-.976-1.376-1.84-1.376-1.152 0-2 .352-2.064 1.568h-1.36c.08-2.048 1.664-2.768 3.504-2.768 1.488 0 3.104.336 3.104 2.272v4.256c0 .64 0 .928.432.928.112 0 .24-.016.416-.08zM88.34 78v-8.272h1.36V78h-1.36zm1.36-11.424v1.664h-1.36v-1.664h1.36zm13.584 5.808h-1.408c-.208-1.04-.928-1.648-2.048-1.648-1.968 0-2.576 1.552-2.576 3.232 0 1.52.688 3.024 2.416 3.024 1.312 0 2.096-.768 2.272-2.016h1.392c-.304 2.016-1.568 3.216-3.648 3.216-2.528 0-3.872-1.76-3.872-4.224 0-2.48 1.28-4.432 3.904-4.432 1.872 0 3.376.88 3.568 2.848zm1.12 1.488c0-2.432 1.392-4.336 4.016-4.336s4.016 1.904 4.016 4.336c0 2.416-1.392 4.32-4.016 4.32s-4.016-1.904-4.016-4.32zm1.44 0c0 2 1.152 3.12 2.576 3.12 1.424 0 2.576-1.12 2.576-3.12 0-2.016-1.152-3.136-2.576-3.136-1.424 0-2.576 1.12-2.576 3.136zM114.036 78v-8.272h1.28v1.312h.032c.576-1.024 1.504-1.504 2.688-1.504 2.176 0 2.848 1.248 2.848 3.024V78h-1.36v-5.6c0-1.008-.64-1.664-1.68-1.664-1.648 0-2.448 1.104-2.448 2.592V78h-1.36zm15.648-8.272L126.66 78h-1.456l-3.072-8.272h1.52l2.32 6.896h.032l2.256-6.896h1.424zm6.96 5.648h1.344c-.368 1.824-1.68 2.816-3.536 2.816-2.64 0-3.888-1.824-3.968-4.352 0-2.48 1.632-4.304 3.888-4.304 2.928 0 3.824 2.736 3.744 4.736h-6.192c-.048 1.44.768 2.72 2.576 2.72 1.12 0 1.904-.544 2.144-1.616zm-4.72-2.304h4.752c-.064-1.296-1.04-2.336-2.384-2.336-1.424 0-2.272 1.072-2.368 2.336zM139.476 78v-8.272h1.28v1.744h.032c.656-1.328 1.568-1.984 3.04-1.936v1.44c-2.192 0-2.992 1.248-2.992 3.344V78h-1.36zm7.264-10.752v2.48h1.648v1.2h-1.648v5.136c0 .624.176.736 1.024.736h.624V78h-1.04c-1.408 0-1.968-.288-1.968-1.808v-5.264h-1.408v-1.2h1.408v-2.48h1.36zM149.972 78v-8.272h1.36V78h-1.36zm1.36-11.424v1.664h-1.36v-1.664h1.36zm1.584 8.816h1.36c.048 1.216 1.104 1.6 2.224 1.6.848 0 2-.192 2-1.232 0-1.056-1.344-1.232-2.704-1.536-1.344-.304-2.704-.752-2.704-2.336 0-1.664 1.648-2.352 3.088-2.352 1.824 0 3.28.576 3.392 2.592h-1.36c-.096-1.056-1.024-1.392-1.92-1.392-.816 0-1.76.224-1.76 1.056 0 .976 1.44 1.136 2.704 1.44 1.36.304 2.704.752 2.704 2.352 0 1.968-1.84 2.608-3.52 2.608-1.856 0-3.424-.752-3.504-2.8zM165.892 78v-8.272h1.28v1.216h.032c.608-.928 1.536-1.408 2.672-1.408 1.008 0 1.936.4 2.272 1.408a3.06 3.06 0 0 1 2.592-1.408c1.648 0 2.752.688 2.752 2.4V78h-1.36v-5.424c0-1.024-.272-1.84-1.6-1.84-1.312 0-2.16.832-2.16 2.112V78h-1.36v-5.424c0-1.072-.336-1.84-1.552-1.84-1.616 0-2.208 1.488-2.208 2.112V78h-1.36zm19.36-2.624h1.344c-.368 1.824-1.68 2.816-3.536 2.816-2.64 0-3.888-1.824-3.968-4.352 0-2.48 1.632-4.304 3.888-4.304 2.928 0 3.824 2.736 3.744 4.736h-6.192c-.048 1.44.768 2.72 2.576 2.72 1.12 0 1.904-.544 2.144-1.616zm-4.72-2.304h4.752c-.064-1.296-1.04-2.336-2.384-2.336-1.424 0-2.272 1.072-2.368 2.336zm7.072 2.32h1.36c.048 1.216 1.104 1.6 2.224 1.6.848 0 2-.192 2-1.232 0-1.056-1.344-1.232-2.704-1.536-1.344-.304-2.704-.752-2.704-2.336 0-1.664 1.648-2.352 3.088-2.352 1.824 0 3.28.576 3.392 2.592h-1.36c-.096-1.056-1.024-1.392-1.92-1.392-.816 0-1.76.224-1.76 1.056 0 .976 1.44 1.136 2.704 1.44 1.36.304 2.704.752 2.704 2.352 0 1.968-1.84 2.608-3.52 2.608-1.856 0-3.424-.752-3.504-2.8zM90.796 86.8v1.872h-4.624l-.448 2.544.032.032c.608-.624 1.312-.864 2.192-.864 2.208 0 3.456 1.712 3.456 3.808 0 2.304-1.904 4.08-4.16 4.032-2.176 0-4.128-1.2-4.16-3.552h2.272c.112.992.848 1.68 1.84 1.68 1.184 0 1.936-1.04 1.936-2.16 0-1.168-.72-2.096-1.936-2.096-.816 0-1.264.288-1.712.896h-2.048L84.54 86.8h6.256zm1.232 5.552c0-4.368 1.888-5.776 4.096-5.776 2.24 0 4.128 1.408 4.128 5.776 0 4.464-1.888 5.872-4.128 5.872-2.208 0-4.096-1.408-4.096-5.872zm2.272 0c0 1.264 0 4 1.824 4 1.856 0 1.856-2.736 1.856-4 0-1.168 0-3.904-1.856-3.904-1.824 0-1.824 2.736-1.824 3.904zm11.6 8.56V89.728h2.16v1.056h.032c.544-.88 1.44-1.28 2.464-1.28 2.592 0 3.76 2.096 3.76 4.448 0 2.208-1.216 4.272-3.632 4.272-.992 0-1.936-.432-2.48-1.248h-.032v3.936H105.9zm4.176-4.4c1.488 0 1.968-1.28 1.968-2.624 0-1.312-.528-2.672-1.984-2.672-1.488 0-1.968 1.328-1.968 2.672s.512 2.624 1.984 2.624zm5.344-2.64c0-2.64 1.68-4.368 4.272-4.368 2.608 0 4.288 1.728 4.288 4.368 0 2.624-1.68 4.352-4.288 4.352-2.592 0-4.272-1.728-4.272-4.352zm2.272 0c0 1.312.464 2.64 2 2.64 1.552 0 2.016-1.328 2.016-2.64 0-1.328-.464-2.656-2.016-2.656-1.536 0-2 1.328-2 2.656zM125.516 98v-8.272h2.272V98h-2.272zm2.272-11.424v1.872h-2.272v-1.872h2.272zM129.58 98v-8.272h2.16v1.152h.048c.576-.928 1.568-1.376 2.528-1.376 2.416 0 3.024 1.36 3.024 3.408V98h-2.272v-4.672c0-1.36-.4-2.032-1.456-2.032-1.232 0-1.76.688-1.76 2.368V98h-2.272zm12.368-10.752v2.48h1.664v1.52h-1.664v4.096c0 .768.192.96.96.96.24 0 .464-.016.704-.064v1.776c-.384.064-.88.08-1.328.08-1.392 0-2.608-.32-2.608-1.968v-4.88H138.3v-1.52h1.376v-2.48h2.272zm2.352 8.064h2.16c.016.992.848 1.392 1.744 1.392.656 0 1.488-.256 1.488-1.056 0-.688-.944-.928-2.576-1.28-1.312-.288-2.624-.752-2.624-2.208 0-2.112 1.824-2.656 3.6-2.656 1.808 0 3.472.608 3.648 2.64h-2.16c-.064-.88-.736-1.12-1.552-1.12-.512 0-1.264.096-1.264.768 0 .816 1.28.928 2.576 1.232 1.328.304 2.624.784 2.624 2.32 0 2.176-1.888 2.88-3.776 2.88-1.92 0-3.792-.72-3.888-2.912z"/>
            <path fill="#492191" d="M158.572 95.12v-1.392c-.528.384-1.552.4-2.464.56-.896.16-1.664.48-1.664 1.488 0 .896.768 1.216 1.6 1.216 1.792 0 2.528-1.12 2.528-1.872zm2.208 1.792v1.056c-.24.144-.544.224-.976.224-.704 0-1.152-.384-1.152-1.28-.752.88-1.76 1.28-2.912 1.28-1.504 0-2.736-.672-2.736-2.32 0-1.872 1.392-2.272 2.8-2.544 1.504-.288 2.784-.192 2.784-1.216 0-1.184-.976-1.376-1.84-1.376-1.152 0-2 .352-2.064 1.568h-1.36c.08-2.048 1.664-2.768 3.504-2.768 1.488 0 3.104.336 3.104 2.272v4.256c0 .64 0 .928.432.928.112 0 .24-.016.416-.08zm6.384-1.792v-1.392c-.528.384-1.552.4-2.464.56-.896.16-1.664.48-1.664 1.488 0 .896.768 1.216 1.6 1.216 1.792 0 2.528-1.12 2.528-1.872zm2.208 1.792v1.056c-.24.144-.544.224-.976.224-.704 0-1.152-.384-1.152-1.28-.752.88-1.76 1.28-2.912 1.28-1.504 0-2.736-.672-2.736-2.32 0-1.872 1.392-2.272 2.8-2.544 1.504-.288 2.784-.192 2.784-1.216 0-1.184-.976-1.376-1.84-1.376-1.152 0-2 .352-2.064 1.568h-1.36c.08-2.048 1.664-2.768 3.504-2.768 1.488 0 3.104.336 3.104 2.272v4.256c0 .64 0 .928.432.928.112 0 .24-.016.416-.08zm6.384-1.792v-1.392c-.528.384-1.552.4-2.464.56-.896.16-1.664.48-1.664 1.488 0 .896.768 1.216 1.6 1.216 1.792 0 2.528-1.12 2.528-1.872zm2.208 1.792v1.056c-.24.144-.544.224-.976.224-.704 0-1.152-.384-1.152-1.28-.752.88-1.76 1.28-2.912 1.28-1.504 0-2.736-.672-2.736-2.32 0-1.872 1.392-2.272 2.8-2.544 1.504-.288 2.784-.192 2.784-1.216 0-1.184-.976-1.376-1.84-1.376-1.152 0-2 .352-2.064 1.568h-1.36c.08-2.048 1.664-2.768 3.504-2.768 1.488 0 3.104.336 3.104 2.272v4.256c0 .64 0 .928.432.928.112 0 .24-.016.416-.08z"/>
            <path fill="#FFF" d="M72.172 115.376h1.344c-.368 1.824-1.68 2.816-3.536 2.816-2.64 0-3.888-1.824-3.968-4.352 0-2.48 1.632-4.304 3.888-4.304 2.928 0 3.824 2.736 3.744 4.736h-6.192c-.048 1.44.768 2.72 2.576 2.72 1.12 0 1.904-.544 2.144-1.616zm-4.72-2.304h4.752c-.064-1.296-1.04-2.336-2.384-2.336-1.424 0-2.272 1.072-2.368 2.336zm7.6 4.928v-8.272h1.28v1.312h.032c.576-1.024 1.504-1.504 2.688-1.504 2.176 0 2.848 1.248 2.848 3.024V118h-1.36v-5.6c0-1.008-.64-1.664-1.68-1.664-1.648 0-2.448 1.104-2.448 2.592V118h-1.36zm20.32-11.2v1.872h-4.624l-.448 2.544.032.032c.608-.624 1.312-.864 2.192-.864 2.208 0 3.456 1.712 3.456 3.808 0 2.304-1.904 4.08-4.16 4.032-2.176 0-4.128-1.2-4.16-3.552h2.272c.112.992.848 1.68 1.84 1.68 1.184 0 1.936-1.04 1.936-2.16 0-1.168-.72-2.096-1.936-2.096-.816 0-1.264.288-1.712.896h-2.048l1.104-6.192h6.256zm1.232 5.552c0-4.368 1.888-5.776 4.096-5.776 2.24 0 4.128 1.408 4.128 5.776 0 4.464-1.888 5.872-4.128 5.872-2.208 0-4.096-1.408-4.096-5.872zm2.272 0c0 1.264 0 4 1.824 4 1.856 0 1.856-2.736 1.856-4 0-1.168 0-3.904-1.856-3.904-1.824 0-1.824 2.736-1.824 3.904zm6.624 0c0-4.368 1.888-5.776 4.096-5.776 2.24 0 4.128 1.408 4.128 5.776 0 4.464-1.888 5.872-4.128 5.872-2.208 0-4.096-1.408-4.096-5.872zm2.272 0c0 1.264 0 4 1.824 4 1.856 0 1.856-2.736 1.856-4 0-1.168 0-3.904-1.856-3.904-1.824 0-1.824 2.736-1.824 3.904zm11.84 5.648v-11.424h8.032v2.112h-5.52v2.64h4.784v1.952h-4.784V118h-2.512zm21.248-11.424V118h-1.36v-1.12h-.032c-.448.912-1.504 1.312-2.64 1.312-2.544 0-3.808-2.016-3.808-4.352 0-2.336 1.248-4.304 3.776-4.304.848 0 2.064.32 2.672 1.296h.032v-4.256h1.36zm-6.4 7.36c0 1.552.8 3.056 2.56 3.056 1.824 0 2.528-1.568 2.528-3.12 0-1.632-.736-3.136-2.608-3.136-1.856 0-2.48 1.584-2.48 3.2zm14.208 1.44h1.344c-.368 1.824-1.68 2.816-3.536 2.816-2.64 0-3.888-1.824-3.968-4.352 0-2.48 1.632-4.304 3.888-4.304 2.928 0 3.824 2.736 3.744 4.736h-6.192c-.048 1.44.768 2.72 2.576 2.72 1.12 0 1.904-.544 2.144-1.616zm-4.72-2.304h4.752c-.064-1.296-1.04-2.336-2.384-2.336-1.424 0-2.272 1.072-2.368 2.336zm19.072-.688h-1.408c-.208-1.04-.928-1.648-2.048-1.648-1.968 0-2.576 1.552-2.576 3.232 0 1.52.688 3.024 2.416 3.024 1.312 0 2.096-.768 2.272-2.016h1.392c-.304 2.016-1.568 3.216-3.648 3.216-2.528 0-3.872-1.76-3.872-4.224 0-2.48 1.28-4.432 3.904-4.432 1.872 0 3.376.88 3.568 2.848zm1.52 5.616v-8.272h1.28v1.744h.032c.656-1.328 1.568-1.984 3.04-1.936v1.44c-2.192 0-2.992 1.248-2.992 3.344V118h-1.36zm11.088-2.624h1.344c-.368 1.824-1.68 2.816-3.536 2.816-2.64 0-3.888-1.824-3.968-4.352 0-2.48 1.632-4.304 3.888-4.304 2.928 0 3.824 2.736 3.744 4.736h-6.192c-.048 1.44.768 2.72 2.576 2.72 1.12 0 1.904-.544 2.144-1.616zm-4.72-2.304h4.752c-.064-1.296-1.04-2.336-2.384-2.336-1.424 0-2.272 1.072-2.368 2.336zm1.312-4.48l1.376-2.288h1.744l-2.096 2.288h-1.024zm13.68-2.016V118h-1.36v-1.12h-.032c-.448.912-1.504 1.312-2.64 1.312-2.544 0-3.808-2.016-3.808-4.352 0-2.336 1.248-4.304 3.776-4.304.848 0 2.064.32 2.672 1.296h.032v-4.256h1.36zm-6.4 7.36c0 1.552.8 3.056 2.56 3.056 1.824 0 2.528-1.568 2.528-3.12 0-1.632-.736-3.136-2.608-3.136-1.856 0-2.48 1.584-2.48 3.2zm8.576 4.064v-8.272h1.36V118h-1.36zm1.36-11.424v1.664h-1.36v-1.664h1.36zm4 .672v2.48h1.648v1.2h-1.648v5.136c0 .624.176.736 1.024.736h.624v1.2h-1.04c-1.408 0-1.968-.288-1.968-1.808v-5.264h-1.408v-1.2h1.408v-2.48h1.36z"/>
        </g>
        <path fill="#FF7900" d="M158.236 84.001c.246 3.71 5.605 2.297 5.605 2.297-.727-3.713-5.851-6.007-5.605-2.297m3.102 1.525c-.7-.027-1.251-.181-1.596-.447-.203-.156-.478-.444-.524-1.143-.031-.476.118-.671.371-.818.314-.183.961.114 1.713.743a4.784 4.784 0 0 1 1.251 1.601c-.363.048-.786.08-1.215.064"/>
        <path fill="#FF7900" d="M163.503 86.327s5.375 1.214 5.616-2.497c.241-3.71-4.895-1.218-5.616 2.497m4.634-2.56c-.045.698-.32.986-.522 1.143-.344.266-.896.421-1.595.45a7.357 7.357 0 0 1-1.215-.063 4.79 4.79 0 0 1 1.248-1.603c.752-.63 1.398-.928 1.713-.746.252.147.403.342.371.818"/>
        <path fill="#FFF" d="M164.874 86.315c0 .547-.54.99-1.207.991-.666 0-1.206-.442-1.207-.99"/>
        <path fill="#FF7900" d="M170.644 98.965l-.008-11.716a.2.2 0 0 0-.2-.2l-13.517.01a.2.2 0 0 0-.198.2l.008 11.716 13.915-.01z"/>
        <g transform="translate(156 86.225)">
            <mask id="d" fill="#fff">
                <use xlink:href="#c"/>
            </mask>
            <path fill="#FFD203" d="M15.35 2.516c0 .147-.12.267-.267.267L.27 2.793A.267.267 0 0 1 0 2.528L0 .32C0 .173.119.053.266.053l14.815-.01c.148 0 .267.119.267.267l.002 2.206z" mask="url(#d)"/>
        </g>
        <path fill="#FF7900" d="M164.531 86.244l.002 2.77h-1.729l-.002-2.769z"/>
        <g>
            <g transform="rotate(-3 1497.125 -606.363)">
                <mask id="f" fill="#fff">
                    <use xlink:href="#e"/>
                </mask>
                <path fill="#C19372" d="M273.055 145.52c-2.728.814-11.01 2.844-13.227.254-3.043-3.555 10.726-7.695 13.35-8.824 4.296-1.846 8.993-3.285 13.168-5.42 2.65-1.355 6.074-3.565 5.286-7.035-.826-3.641-5.153-2.28-7.829-1.772-13.168 2.5-26.016 6.766-38.798 10.711-6.829 2.108-10.659-3.503-17.523-1.61-3.457.953-14.174 9.06-14.406 8.614-1.441-2.791-3.304-5.644-3.075-8.48.482-5.98 6.186-11.856 8.354-17.49.641-1.664 4.697-18.971-1.606-16.726-1.772.631-3.677 4.876-4.75 6.274-2.546 3.322-6.039 6.213-9.01 9.18-5.191 5.187-8.485 9.883-12.12 16.26-3.712 6.51-6.329 13.577-7.871 20.85-1.51 7.118 4.957 38.339 3.792 45.517-1.04 6.415-15.196 32.618-15.97 41.88-.558 6.682-1.191 6.22-1.817 12.892-.28 2.974.56 3.826 1.14 6.408.674 2.99-.588 5.895-1.095 8.814-2.671 15.347-8.193 58.119-8.354 63.008.07.01.138.02.208.028 15.15 2 30.406 3.524 45.636 4.79 5.921.492 11.812.622 17.746.72 3.927.066 10.992 2.598 12.289-3.118.74-3.263 5.183-106.498 7.391-115.656.905-3.753-.073-11.057 1.495-14.568 1.563-3.503 31.433-24.158 31.102-29.194-.31-4.724-12.739-7.922-8.542-11.346 4.246-3.463 23.676-9.368 19.493-17.302-1.645-3.12-11.475 1.449-14.457 2.34" mask="url(#f)"/>
            </g>
            <g transform="rotate(-3 1497.125 -606.363)">
                <mask id="h" fill="#fff">
                    <use xlink:href="#g"/>
                </mask>
                <path fill="#0D1025" d="M274.443 67.43c-8.88-.747-31.197-2.62-38.295-3.216-9.396-.79-12.745 6.106-13.174 9.653-.244 2.016-4.164 47.958-5.941 68.942-1.074 12.69-1.955 23.126-2.07 24.387-.955 10.576 6.04 12.896 12.36 13.427l33.997 2.855c14.213 1.193 17.273-3.167 18.088-12.67l7.502-87.322c.652-7.601.193-14.993-12.467-16.057" mask="url(#h)"/>
            </g>
            <g transform="rotate(-3 1497.125 -606.363)">
                <mask id="j" fill="#fff">
                    <use xlink:href="#i"/>
                </mask>
                <path fill="#141819" d="M248.26 201.298" mask="url(#j)"/>
            </g>
            <g transform="rotate(-3 1497.125 -606.363)">
                <mask id="l" fill="#fff">
                    <use xlink:href="#k"/>
                </mask>
                <path fill="#141819" d="M248.565 201.124c-.064.039-.129.076-.194.114.065-.038.13-.075.194-.114" mask="url(#l)"/>
            </g>
            <g transform="rotate(-3 1497.125 -606.363)">
                <mask id="n" fill="#fff">
                    <use xlink:href="#m"/>
                </mask>
                <path fill="#FFF" d="M275.731 147.874c.566-6.855 1.129-13.71 1.693-20.564l-.007-.001c.226-2.737.45-5.476.675-8.214.366-4.469 2.347-27.732 2.714-32.202.192-2.324.212-2.776.411-5.1.55-6.393-2.882-7.29-6.522-7.596-4.337-.365-6.302-.542-10.64-.91-6.349-.539-12.697-1.076-19.046-1.608-2.95-.246-5.457-.48-8.408-.723-2.584-.212-7.83-.31-8.285 4.995-.309 3.595-2.727 31.89-3.037 35.484-.327 3.805-.658 7.61-.986 11.414l-1.78 20.616c-.127 1.459-.232 2.687-.331 3.84-.191 2.239-.36 4.198-.61 7.03-.21 2.38-1.218 7.777 7.976 8.548 3.67.308 34.395 2.805 37.426 3.085 7.173.66 7.655-4.73 7.767-6.075l.99-12.019" mask="url(#n)"/>
            </g>
            <g transform="rotate(-3 1497.125 -606.363)">
                <mask id="p" fill="#fff">
                    <use xlink:href="#o"/>
                </mask>
                <path fill="#C19372" d="M281.05 153.69c-2.124 1.94-3.985 9.052-.006 10.018 5.582 1.356 7.36-4.234 6.458-8.12-.703-3.028-3.03-5.023-6.452-1.898" mask="url(#p)"/>
            </g>
            <g transform="rotate(-3 1497.125 -606.363)">
                <mask id="r" fill="#fff">
                    <use xlink:href="#q"/>
                </mask>
                <path fill="#C19372" d="M280.186 163.78c-1.714 1.564-3.216 7.303-.005 8.082 4.504 1.093 5.937-3.417 5.21-6.553-.568-2.442-2.444-4.052-5.205-1.53" mask="url(#r)"/>
            </g>
            <g transform="rotate(-3 1497.125 -606.363)">
                <mask id="t" fill="#fff">
                    <use xlink:href="#s"/>
                </mask>
                <path fill="#9CAAC1" d="M238.263 136.328l-.035.046c-.002.007.01-.012.035-.046" mask="url(#t)"/>
            </g>
            <g transform="rotate(-3 1497.125 -606.363)">
                <mask id="v" fill="#fff">
                    <use xlink:href="#u"/>
                </mask>
                <path fill="#0A6E31" d="M248.067 245.215c.073-3.559-.62-5.54-2.315-6.676-2.207-1.477-71.111-9.747-77.879-6.901-4.499 1.892-5.426 10.792-6.223 14.105-2.78 11.56-10.822 70.377-14.853 87.488l98.258 8.25c-.443-.036 2.756-84.087 3.012-96.266" mask="url(#v)"/>
            </g>
            <g transform="rotate(-3 1497.125 -606.363)">
                <mask id="x" fill="#fff">
                    <use xlink:href="#w"/>
                </mask>
                <path fill="#FFF" d="M321.47 60.63c-4.18 1.886-8.608 3.148-12.877 4.81-1.62.632-.453 3.04 1.16 2.412 4.27-1.663 8.697-2.926 12.876-4.812 1.584-.715.426-3.127-1.16-2.41" mask="url(#x)"/>
            </g>
            <g transform="rotate(-3 1497.125 -606.363)">
                <mask id="z" fill="#fff">
                    <use xlink:href="#y"/>
                </mask>
                <path fill="#FFF" d="M331.16 85.302c-5.9.065-11.625 1.137-17.2 3.024-1.644.556-.47 2.963 1.16 2.411 5.09-1.723 10.426-2.716 15.81-2.776 1.725-.019 1.97-2.679.23-2.66" mask="url(#z)"/>
            </g>
            <g transform="rotate(-3 1497.125 -606.363)">
                <mask id="B" fill="#fff">
                    <use xlink:href="#A"/>
                </mask>
                <path fill="#FFF" d="M335.788 107.12c-5.427-.422-10.85.144-16.277.24-1.722.03-1.969 2.69-.228 2.66 5.427-.096 10.85-.662 16.277-.24 1.735.134 1.964-2.525.228-2.66" mask="url(#B)"/>
            </g>
            <g transform="rotate(-3 1497.125 -606.363)">
                <mask id="D" fill="#fff">
                    <use xlink:href="#C"/>
                </mask>
                <path fill="#FFF" d="M336.925 125.43l-13.988-1.174c-1.735-.146-1.964 2.514-.229 2.66l13.988 1.175c1.734.145 1.963-2.515.23-2.66" mask="url(#D)"/>
            </g>
            <g transform="rotate(-3 1497.125 -606.363)">
                <mask id="F" fill="#fff">
                    <use xlink:href="#E"/>
                </mask>
                <path fill="#FFF" d="M327.462 148.927c-3.088-1.839-6.367-3.29-9.674-4.697-1.603-.683-2.526 1.827-.936 2.505 3.093 1.315 6.166 2.654 9.055 4.374 1.486.885 3.047-1.293 1.555-2.182" mask="url(#F)"/>
            </g>
            <g transform="rotate(-3 1497.125 -606.363)">
                <mask id="H" fill="#fff">
                    <use xlink:href="#G"/>
                </mask>
                <path fill="#FFF" d="M324.255 170.099c-3.85-2.756-7.462-5.82-11.313-8.575-1.414-1.011-2.767 1.302-1.37 2.3 3.85 2.756 7.463 5.82 11.313 8.575 1.414 1.012 2.766-1.302 1.37-2.3" mask="url(#H)"/>
            </g>
            <g transform="rotate(-3 1497.125 -606.363)">
                <mask id="J" fill="#fff">
                    <use xlink:href="#I"/>
                </mask>
                <path fill="#FFF" d="M310.494 188.755c-3.118-2.463-6.187-5.026-8.79-8.03-1.133-1.307-3.197.413-2.063 1.722 2.747 3.172 6.006 5.89 9.298 8.49 1.364 1.078 2.908-1.113 1.555-2.182" mask="url(#J)"/>
            </g>
            <g transform="rotate(-3 1497.125 -606.363)">
                <mask id="L" fill="#fff">
                    <use xlink:href="#K"/>
                </mask>
                <path fill="#FFF" d="M217.92 189.818c-1.602 5.294-4.529 10.019-7.62 14.577-.968 1.431 1.24 2.968 2.208 1.537 3.21-4.735 6.282-9.69 7.945-15.188.497-1.645-2.035-2.575-2.533-.926" mask="url(#L)"/>
            </g>
            <g transform="rotate(-3 1497.125 -606.363)">
                <mask id="N" fill="#fff">
                    <use xlink:href="#M"/>
                </mask>
                <path fill="#FFF" d="M199.667 185.573c-4.034 3.308-8.914 5.503-12.705 9.112-1.247 1.189.485 3.236 1.741 2.04 3.79-3.609 8.671-5.802 12.704-9.112 1.342-1.1-.4-3.14-1.74-2.04" mask="url(#N)"/>
            </g>
            <g transform="rotate(-3 1497.125 -606.363)">
                <mask id="P" fill="#fff">
                    <use xlink:href="#O"/>
                </mask>
                <path fill="#FFF" d="M190.903 168.4c-2.087.362-4.055 1.117-6.102 1.63-1.676.421-1.197 3.05.496 2.624 2.046-.513 4.015-1.267 6.1-1.63 1.714-.298 1.223-2.924-.494-2.624" mask="url(#P)"/>
            </g>
            <g transform="rotate(-3 1497.125 -606.363)">
                <mask id="R" fill="#fff">
                    <use xlink:href="#Q"/>
                </mask>
                <path fill="#FFF" d="M191.065 149.078c-7.269-.56-14.486.874-21.748.853-1.728-.004-1.97 2.655-.228 2.66 7.262.021 14.485-1.414 21.748-.853 1.735.133 1.965-2.525.228-2.66" mask="url(#R)"/>
            </g>
            <g transform="rotate(-3 1497.125 -606.363)">
                <mask id="T" fill="#fff">
                    <use xlink:href="#S"/>
                </mask>
                <path fill="#FFF" d="M179.058 128.842c-2.576-.712-5.183-1.018-7.84-1.242-1.735-.146-1.964 2.514-.229 2.66 2.413.203 4.794.44 7.133 1.086 1.668.46 2.612-2.041.936-2.504" mask="url(#T)"/>
            </g>
            <g transform="rotate(-3 1497.125 -606.363)">
                <mask id="V" fill="#fff">
                    <use xlink:href="#U"/>
                </mask>
                <path fill="#FFF" d="M193.812 111.855c-6.57-2.217-13.378-4.256-19.002-8.425-1.398-1.035-2.944 1.152-1.556 2.183 5.811 4.307 12.835 6.457 19.622 8.746 1.648.557 2.583-1.948.936-2.504" mask="url(#V)"/>
            </g>
            <g transform="rotate(-3 1497.125 -606.363)">
                <mask id="X" fill="#fff">
                    <use xlink:href="#W"/>
                </mask>
                <path fill="#FFF" d="M183.927 85.46l-3.09-1.867c-.628-.378-1.436-.3-1.88.323-.405.565-.302 1.481.325 1.86l3.091 1.866c.628.38 1.437.3 1.881-.322.403-.565.302-1.48-.327-1.86" mask="url(#X)"/>
            </g>
            <g transform="rotate(-3 1497.125 -606.363)">
                <mask id="Z" fill="#fff">
                    <use xlink:href="#Y"/>
                </mask>
                <path fill="#FFF" d="M199.091 75.876c-4.415-1.88-8.91-3.75-12.638-6.82-1.341-1.104-2.882 1.09-1.555 2.183 3.894 3.207 8.644 5.178 13.258 7.141 1.604.683 2.526-1.826.935-2.504" mask="url(#Z)"/>
            </g>
            <g transform="rotate(-3 1497.125 -606.363)">
                <mask id="ab" fill="#fff">
                    <use xlink:href="#aa"/>
                </mask>
                <path fill="#FFF" d="M223.322 37.075l3.316 9.655c.891 2.594 3.446 1.736 2.556-.859l-3.316-9.654c-.891-2.594-3.447-1.736-2.556.858" mask="url(#ab)"/>
            </g>
            <g transform="rotate(-3 1497.125 -606.363)">
                <mask id="ad" fill="#fff">
                    <use xlink:href="#ac"/>
                </mask>
                <path fill="#FFF" d="M214.945 56.58c-2.137-1.86-4.445-3.515-6.583-5.375-1.308-1.14-2.846 1.059-1.555 2.182 2.138 1.86 4.447 3.515 6.583 5.375 1.31 1.14 2.846-1.059 1.555-2.182" mask="url(#ad)"/>
            </g>
            <g transform="rotate(-3 1497.125 -606.363)">
                <mask id="af" fill="#fff">
                    <use xlink:href="#ae"/>
                </mask>
                <path fill="#FFF" d="M254.43 45.624c-.763-3.22-.881-6.296.27-9.444.591-1.621-1.943-2.543-2.535-.925-1.307 3.579-1.259 7.187-.39 10.859.395 1.668 3.052 1.19 2.655-.49" mask="url(#af)"/>
            </g>
            <g transform="rotate(-3 1497.125 -606.363)">
                <mask id="ah" fill="#fff">
                    <use xlink:href="#ag"/>
                </mask>
                <path fill="#FFF" d="M275.358 38.19c-1.468 3.591-2.418 7.529-2.809 11.615-.253 2.66 2.437 2.882 2.69.226.318-3.331 1.063-6.627 2.263-9.564.95-2.324-1.19-4.612-2.144-2.276" mask="url(#ah)"/>
            </g>
            <g transform="rotate(-3 1497.125 -606.363)">
                <mask id="aj" fill="#fff">
                    <use xlink:href="#ai"/>
                </mask>
                <path fill="#FFF" d="M303.619 42.779a50.483 50.483 0 0 0-6.794 8.16c-.95 1.423 1.125 3.134 2.085 1.697a50.433 50.433 0 0 1 6.793-8.162c1.242-1.206-.855-2.89-2.084-1.695" mask="url(#aj)"/>
            </g>
            <g transform="rotate(-3 1497.125 -606.363)">
                <mask id="al" fill="#fff">
                    <use xlink:href="#ak"/>
                </mask>
                <path fill="#FFF" d="M168.853 233.588c-.564-.394-1.506-.303-1.88.322-.703 1.17-1.176 2.421-1.323 3.78-.186 1.712 2.504 1.935 2.69.225a6.082 6.082 0 0 1 .84-2.468c.375-.625.308-1.415-.327-1.86" mask="url(#al)"/>
            </g>
            <g transform="rotate(-3 1497.125 -606.363)">
                <mask id="an" fill="#fff">
                    <use xlink:href="#am"/>
                </mask>
                <path fill="#FFF" d="M166.436 246.673c.122-.114.06-.068 0 0" mask="url(#an)"/>
            </g>
            <g transform="rotate(-3 1497.125 -606.363)">
                <mask id="ap" fill="#fff">
                    <use xlink:href="#ao"/>
                </mask>
                <path fill="#FFF" d="M166.436 246.673s0 .002-.003.003c.003-.005.004-.01.006-.017.477-.497.563-1.258.096-1.806-.459-.536-1.363-.655-1.903-.16-.712.652-.935 1.543-1.016 2.469-.062.725.499 1.381 1.232 1.442a1.358 1.358 0 0 0 1.459-1.216l.025-.266c.006-.054.036-.216.046-.283.017-.055.036-.108.055-.162l.003-.004" mask="url(#ap)"/>
            </g>
            <g transform="rotate(-3 1497.125 -606.363)">
                <mask id="ar" fill="#fff">
                    <use xlink:href="#aq"/>
                </mask>
                <path fill="#FFF" d="M162.493 255.505c-.058.677-.093 1.564-.401 2.102-.363.634-.32 1.411.326 1.861.556.388 1.519.31 1.88-.323.606-1.058.783-2.218.886-3.414.148-1.715-2.542-1.941-2.69-.226" mask="url(#ar)"/>
            </g>
            <g transform="rotate(-3 1497.125 -606.363)">
                <mask id="at" fill="#fff">
                    <use xlink:href="#as"/>
                </mask>
                <path fill="#FFF" d="M160.84 265.858c-.512 1.248-.675 2.575-.79 3.907-.149 1.714 2.542 1.939 2.69.226.096-1.108.208-2.172.634-3.208.655-1.6-1.882-2.515-2.534-.925" mask="url(#at)"/>
            </g>
            <g transform="rotate(-3 1497.125 -606.363)">
                <mask id="av" fill="#fff">
                    <use xlink:href="#au"/>
                </mask>
                <path fill="#FFF" d="M159.7 278.574c-.143 1.337-.61 2.614-.747 3.955-.173 1.714 2.516 1.938 2.69.225.136-1.341.604-2.616.747-3.954.181-1.713-2.508-1.936-2.69-.226" mask="url(#av)"/>
            </g>
            <g transform="rotate(-3 1497.125 -606.363)">
                <mask id="ay" fill="#fff">
                    <use xlink:href="#ax"/>
                </mask>
                <path fill="#FFF" d="M167.155 286.48c-.558-.388-1.516-.308-1.882.323-.55.952-.757 1.932-.85 3.015-.064.726.499 1.381 1.23 1.444a1.36 1.36 0 0 0 1.46-1.218c.052-.593.066-1.182.368-1.704.366-.63.315-1.411-.326-1.86" mask="url(#ay)"/>
            </g>
            <g transform="rotate(-3 1497.125 -606.363)">
                <mask id="aA" fill="#fff">
                    <use xlink:href="#az"/>
                </mask>
                <path fill="#FFF" d="M166.464 275.526l-.343 3.989c-.147 1.715 2.543 1.941 2.69.226l.342-3.99c.147-1.714-2.542-1.94-2.69-.225" mask="url(#aA)"/>
            </g>
            <g transform="rotate(-3 1497.125 -606.363)">
                <mask id="aC" fill="#fff">
                    <use xlink:href="#aB"/>
                </mask>
                <path fill="#FFF" d="M170.502 265.998l.019-.106c.021-.08.044-.16.07-.239.068-.223.16-.44.25-.653.284-.672-.131-1.472-.8-1.716-.712-.26-1.45.12-1.733.791-.51 1.202-.833 2.595.03 3.716.445.579 1.36.612 1.902.16.54-.451.595-1.184.244-1.75.004-.068.01-.135.018-.203" mask="url(#aC)"/>
            </g>
            <g transform="rotate(-3 1497.125 -606.363)">
                <mask id="aE" fill="#fff">
                    <use xlink:href="#aD"/>
                </mask>
                <path fill="#FFF" d="M169.627 252.89l-.24 2.792c-.148 1.715 2.543 1.94 2.69.226l.24-2.792c.147-1.716-2.543-1.94-2.69-.226" mask="url(#aE)"/>
            </g>
            <g transform="rotate(-3 1497.125 -606.363)">
                <mask id="aG" fill="#fff">
                    <use xlink:href="#aF"/>
                </mask>
                <path fill="#FFF" d="M171.83 241.423l-.239 2.792c-.148 1.715 2.543 1.941 2.69.226l.24-2.792c.148-1.716-2.543-1.94-2.69-.226" mask="url(#aG)"/>
            </g>
            <g transform="rotate(-3 1497.125 -606.363)">
                <mask id="aI" fill="#fff">
                    <use xlink:href="#aH"/>
                </mask>
                <path fill="#FFF" d="M174.277 233.458c-.734-.062-1.398.492-1.46 1.217l-.103 1.197c-.062.725.497 1.38 1.231 1.443.733.06 1.397-.492 1.46-1.217l.102-1.197c.063-.725-.498-1.382-1.23-1.443" mask="url(#aI)"/>
            </g>
            <g transform="rotate(-3 1497.125 -606.363)">
                <mask id="aL" fill="#fff">
                    <use xlink:href="#aK"/>
                </mask>
                <path fill="#FFF" d="M174.378 274.85a1.358 1.358 0 0 0-1.46 1.217l-.17 1.995c-.063.725.497 1.381 1.231 1.443a1.357 1.357 0 0 0 1.458-1.217l.17-1.995a1.35 1.35 0 0 0-1.229-1.442" mask="url(#aL)"/>
            </g>
            <g transform="rotate(-3 1497.125 -606.363)">
                <mask id="aN" fill="#fff">
                    <use xlink:href="#aM"/>
                </mask>
                <path fill="#FFF" d="M174.96 261.775l-.343 3.99c-.147 1.714 2.542 1.94 2.69.226l.343-3.99c.147-1.716-2.544-1.942-2.69-.226" mask="url(#aN)"/>
            </g>
            <g transform="rotate(-3 1497.125 -606.363)">
                <mask id="aP" fill="#fff">
                    <use xlink:href="#aO"/>
                </mask>
                <path fill="#FFF" d="M176.829 249.477c-.04.472-.09.943-.16 1.412-.048.332-.208.967-.277 1.089-.36.635-.32 1.408.327 1.86.553.387 1.522.313 1.88-.323.661-1.165.806-2.503.92-3.812.147-1.716-2.542-1.941-2.69-.226" mask="url(#aP)"/>
            </g>
            <g transform="rotate(-3 1497.125 -606.363)">
                <mask id="aR" fill="#fff">
                    <use xlink:href="#aQ"/>
                </mask>
                <path fill="#FFF" d="M179.17 236.414l-.343 3.99c-.147 1.713 2.543 1.94 2.69.225l.342-3.989c.148-1.715-2.542-1.941-2.69-.226" mask="url(#aR)"/>
            </g>
            <g transform="rotate(-3 1497.125 -606.363)">
                <mask id="aT" fill="#fff">
                    <use xlink:href="#aS"/>
                </mask>
                <path fill="#FFF" d="M186.483 233.278c-.733-.061-1.396.492-1.459 1.216l-.172 1.996a1.35 1.35 0 0 0 1.232 1.442 1.358 1.358 0 0 0 1.459-1.217l.17-1.995c.063-.724-.497-1.381-1.23-1.442" mask="url(#aT)"/>
            </g>
            <g transform="rotate(-3 1497.125 -606.363)">
                <mask id="aV" fill="#fff">
                    <use xlink:href="#aU"/>
                </mask>
                <path fill="#FFF" d="M185.49 244.846c-.733-.06-1.397.492-1.46 1.217l-.205 2.394c-.062.725.498 1.38 1.23 1.442.734.061 1.397-.491 1.46-1.216l.205-2.394c.063-.725-.497-1.381-1.23-1.443" mask="url(#aV)"/>
            </g>
            <g transform="rotate(-3 1497.125 -606.363)">
                <mask id="aX" fill="#fff">
                    <use xlink:href="#aW"/>
                </mask>
                <path fill="#FFF" d="M182.805 255.603l-.343 3.99c-.147 1.714 2.542 1.94 2.69.225l.342-3.989c.147-1.715-2.542-1.941-2.69-.226" mask="url(#aX)"/>
            </g>
            <g transform="rotate(-3 1497.125 -606.363)">
                <mask id="aZ" fill="#fff">
                    <use xlink:href="#aY"/>
                </mask>
                <path fill="#FFF" d="M180.635 266.671c-.096.836-.537 1.819-.644 2.758-.194 1.712 2.496 1.934 2.69.226.096-.836.537-1.819.643-2.758.196-1.712-2.495-1.934-2.69-.226" mask="url(#aZ)"/>
            </g>
            <g transform="rotate(-3 1497.125 -606.363)">
                <mask id="bb" fill="#fff">
                    <use xlink:href="#ba"/>
                </mask>
                <path fill="#FFF" d="M177.555 278.868l-.274 3.192c-.147 1.714 2.543 1.939 2.69.225l.275-3.191c.147-1.715-2.544-1.941-2.69-.226" mask="url(#bb)"/>
            </g>
            <g transform="rotate(-3 1497.125 -606.363)">
                <mask id="bf" fill="#fff">
                    <use xlink:href="#be"/>
                </mask>
                <path fill="#FFF" d="M185.6 280.393c-.545 1.94-.789 3.898-.961 5.9-.148 1.714 2.542 1.94 2.69.225.151-1.758.325-3.495.804-5.2.464-1.65-2.066-2.582-2.533-.925" mask="url(#bf)"/>
            </g>
            <g transform="rotate(-3 1497.125 -606.363)">
                <mask id="bh" fill="#fff">
                    <use xlink:href="#bg"/>
                </mask>
                <path fill="#FFF" d="M186.885 269.607l-.274 3.19c-.147 1.716 2.542 1.942 2.69.227l.273-3.191c.149-1.716-2.542-1.942-2.69-.226" mask="url(#bh)"/>
            </g>
            <g transform="rotate(-3 1497.125 -606.363)">
                <mask id="bj" fill="#fff">
                    <use xlink:href="#bi"/>
                </mask>
                <path fill="#FFF" d="M189.226 256.544l-.411 4.786c-.147 1.716 2.542 1.942 2.69.226l.412-4.786c.147-1.715-2.544-1.941-2.69-.226" mask="url(#bj)"/>
            </g>
            <g transform="rotate(-3 1497.125 -606.363)">
                <mask id="bl" fill="#fff">
                    <use xlink:href="#bk"/>
                </mask>
                <path fill="#FFF" d="M190.76 243.414l-.308 3.59c-.147 1.715 2.542 1.94 2.69.226l.308-3.59c.147-1.715-2.543-1.941-2.69-.226" mask="url(#bl)"/>
            </g>
            <g transform="rotate(-3 1497.125 -606.363)">
                <mask id="bn" fill="#fff">
                    <use xlink:href="#bm"/>
                </mask>
                <path fill="#FFF" d="M194.012 235.518c-.733-.062-1.398.491-1.46 1.217l-.102 1.196a1.352 1.352 0 0 0 1.23 1.443c.734.06 1.398-.492 1.46-1.217l.103-1.196c.063-.726-.497-1.381-1.231-1.443" mask="url(#bn)"/>
            </g>
            <g transform="rotate(-3 1497.125 -606.363)">
                <mask id="bp" fill="#fff">
                    <use xlink:href="#bo"/>
                </mask>
                <path fill="#FFF" d="M199.077 236.478l-.274 3.192c-.148 1.715 2.543 1.94 2.69.226l.275-3.192c.147-1.715-2.544-1.94-2.69-.226" mask="url(#bp)"/>
            </g>
            <g transform="rotate(-3 1497.125 -606.363)">
                <mask id="br" fill="#fff">
                    <use xlink:href="#bq"/>
                </mask>
                <path fill="#FFF" d="M198.521 247.682l-.273 3.191c-.149 1.716 2.542 1.94 2.69.226l.274-3.191c.147-1.715-2.544-1.941-2.69-.226" mask="url(#br)"/>
            </g>
            <g transform="rotate(-3 1497.125 -606.363)">
                <mask id="bt" fill="#fff">
                    <use xlink:href="#bs"/>
                </mask>
                <path fill="#FFF" d="M198.145 258.365c-.733-.061-1.396.492-1.458 1.215l-.206 2.394c-.063.725.498 1.381 1.23 1.443.734.061 1.398-.492 1.46-1.217l.206-2.394c.062-.724-.499-1.38-1.232-1.441" mask="url(#bt)"/>
            </g>
            <g transform="rotate(-3 1497.125 -606.363)">
                <mask id="bv" fill="#fff">
                    <use xlink:href="#bu"/>
                </mask>
                <path fill="#FFF" d="M195.368 270.766c-.618 1.911-.791 3.913-.962 5.9-.148 1.716 2.543 1.94 2.69.226.15-1.745.263-3.523.804-5.201.53-1.637-2.002-2.564-2.532-.925" mask="url(#bv)"/>
            </g>
            <g transform="rotate(-3 1497.125 -606.363)">
                <mask id="bx" fill="#fff">
                    <use xlink:href="#bw"/>
                </mask>
                <path fill="#FFF" d="M192.708 286.97l-.24 2.792c-.148 1.715 2.543 1.941 2.69.226l.24-2.792c.148-1.715-2.543-1.941-2.69-.226" mask="url(#bx)"/>
            </g>
            <g transform="rotate(-3 1497.125 -606.363)">
                <mask id="bz" fill="#fff">
                    <use xlink:href="#by"/>
                </mask>
                <path fill="#FFF" d="M200.717 283.625l-.377 4.388c-.147 1.715 2.542 1.94 2.69.226l.377-4.388c.147-1.715-2.543-1.941-2.69-.226" mask="url(#bz)"/>
            </g>
            <g transform="rotate(-3 1497.125 -606.363)">
                <mask id="bB" fill="#fff">
                    <use xlink:href="#bA"/>
                </mask>
                <path fill="#FFF" d="M204.114 269.312c-.733-.061-1.398.492-1.46 1.217l-.206 2.394c-.061.724.499 1.38 1.232 1.442.733.061 1.396-.493 1.459-1.216l.205-2.395c.063-.724-.497-1.381-1.23-1.442" mask="url(#bB)"/>
            </g>
            <g transform="rotate(-3 1497.125 -606.363)">
                <mask id="bD" fill="#fff">
                    <use xlink:href="#bC"/>
                </mask>
                <path fill="#FFF" d="M205.064 256.668l-.24 2.793c-.147 1.715 2.543 1.94 2.69.226l.24-2.793c.147-1.715-2.542-1.94-2.69-.226" mask="url(#bD)"/>
            </g>
            <g transform="rotate(-3 1497.125 -606.363)">
                <mask id="bF" fill="#fff">
                    <use xlink:href="#bE"/>
                </mask>
                <path fill="#FFF" d="M208.85 244.129c.038-.727-.478-1.379-1.23-1.442-.714-.06-1.422.489-1.459 1.216-.043.815.237 1.665.197 2.428-.036.726.48 1.38 1.23 1.442.715.06 1.423-.49 1.46-1.216.042-.814-.236-1.665-.197-2.428" mask="url(#bF)"/>
            </g>
            <g transform="rotate(-3 1497.125 -606.363)">
                <mask id="bH" fill="#fff">
                    <use xlink:href="#bG"/>
                </mask>
                <path fill="#FFF" d="M208.571 236.338c-.733-.061-1.396.492-1.458 1.216l-.069.799c-.062.724.498 1.38 1.23 1.442.734.061 1.397-.492 1.46-1.216l.068-.799c.062-.724-.498-1.381-1.23-1.442" mask="url(#bH)"/>
            </g>
            <g transform="rotate(-3 1497.125 -606.363)">
                <mask id="bJ" fill="#fff">
                    <use xlink:href="#bI"/>
                </mask>
                <path fill="#FFF" d="M215.028 236.88c-.734-.062-1.398.492-1.46 1.216l-.206 2.394a1.353 1.353 0 0 0 1.232 1.443 1.359 1.359 0 0 0 1.458-1.217l.205-2.394a1.35 1.35 0 0 0-1.23-1.442" mask="url(#bJ)"/>
            </g>
            <g transform="rotate(-3 1497.125 -606.363)">
                <mask id="bL" fill="#fff">
                    <use xlink:href="#bK"/>
                </mask>
                <path fill="#FFF" d="M213.15 247.705l-.309 3.59c-.147 1.715 2.543 1.94 2.69.225l.308-3.59c.148-1.715-2.542-1.94-2.69-.225" mask="url(#bL)"/>
            </g>
            <g transform="rotate(-3 1497.125 -606.363)">
                <mask id="bN" fill="#fff">
                    <use xlink:href="#bM"/>
                </mask>
                <path fill="#FFF" d="M212.49 260.105c-.141 1.338-.604 2.617-.745 3.955-.182 1.713 2.509 1.934 2.69.226.141-1.339.604-2.617.745-3.955.181-1.713-2.508-1.937-2.69-.226" mask="url(#bN)"/>
            </g>
            <g transform="rotate(-3 1497.125 -606.363)">
                <mask id="bP" fill="#fff">
                    <use xlink:href="#bO"/>
                </mask>
                <path fill="#FFF" d="M211.506 273.147c-.733-.061-1.397.492-1.46 1.216l-.205 2.394c-.062.725.498 1.38 1.231 1.442.732.061 1.396-.492 1.46-1.216l.204-2.393c.063-.725-.498-1.382-1.23-1.443" mask="url(#bP)"/>
            </g>
            <g transform="rotate(-3 1497.125 -606.363)">
                <mask id="bR" fill="#fff">
                    <use xlink:href="#bQ"/>
                </mask>
                <path fill="#FFF" d="M208.684 285.5l-.274 3.19c-.147 1.715 2.542 1.941 2.69.226l.273-3.19c.147-1.716-2.542-1.942-2.69-.227" mask="url(#bR)"/>
            </g>
            <g transform="rotate(-3 1497.125 -606.363)">
                <mask id="bT" fill="#fff">
                    <use xlink:href="#bS"/>
                </mask>
                <path fill="#FFF" d="M215.406 287.67l-.514 5.984c-.147 1.715 2.542 1.942 2.69.226l.513-5.983c.148-1.716-2.542-1.942-2.69-.226" mask="url(#bT)"/>
            </g>
            <g transform="rotate(-3 1497.125 -606.363)">
                <mask id="bV" fill="#fff">
                    <use xlink:href="#bU"/>
                </mask>
                <path fill="#FFF" d="M216.468 275.305l-.377 4.388c-.147 1.715 2.543 1.94 2.69.226l.377-4.388c.147-1.715-2.543-1.941-2.69-.226" mask="url(#bV)"/>
            </g>
            <g transform="rotate(-3 1497.125 -606.363)">
                <mask id="bX" fill="#fff">
                    <use xlink:href="#bW"/>
                </mask>
                <path fill="#FFF" d="M219.728 262.587c-.733-.061-1.397.492-1.46 1.217l-.171 1.995c-.062.725.497 1.38 1.231 1.443.732.06 1.397-.492 1.46-1.217l.17-1.995c.063-.725-.497-1.382-1.23-1.443" mask="url(#bX)"/>
            </g>
            <g transform="rotate(-3 1497.125 -606.363)">
                <mask id="bZ" fill="#fff">
                    <use xlink:href="#bY"/>
                </mask>
                <path fill="#FFF" d="M220.377 248.714l-.273 3.19c-.148 1.716 2.542 1.942 2.69.226l.274-3.19c.147-1.716-2.543-1.941-2.69-.226" mask="url(#bZ)"/>
            </g>
            <g transform="rotate(-3 1497.125 -606.363)">
                <mask id="cb" fill="#fff">
                    <use xlink:href="#ca"/>
                </mask>
                <path fill="#FFF" d="M222.659 237.923a1.359 1.359 0 0 0-1.46 1.217l-.137 1.595a1.352 1.352 0 0 0 1.232 1.443c.733.062 1.397-.492 1.459-1.217l.137-1.595a1.352 1.352 0 0 0-1.231-1.443" mask="url(#cb)"/>
            </g>
            <g transform="rotate(-3 1497.125 -606.363)">
                <mask id="cd" fill="#fff">
                    <use xlink:href="#cc"/>
                </mask>
                <path fill="#FFF" d="M230.855 241.283c-.273-.764-.07-1.757-.003-2.539.147-1.715-2.544-1.941-2.69-.226-.115 1.329-.202 2.637.254 3.912.247.686 1.188.92 1.8.632.715-.338.885-1.093.639-1.78" mask="url(#cd)"/>
            </g>
            <g transform="rotate(-3 1497.125 -606.363)">
                <mask id="cf" fill="#fff">
                    <use xlink:href="#ce"/>
                </mask>
                <path fill="#FFF" d="M227.305 248.49l-.309 3.592c-.147 1.715 2.544 1.941 2.691.225l.308-3.59c.147-1.715-2.543-1.941-2.69-.226" mask="url(#cf)"/>
            </g>
            <g transform="rotate(-3 1497.125 -606.363)">
                <mask id="ch" fill="#fff">
                    <use xlink:href="#cg"/>
                </mask>
                <path fill="#FFF" d="M225.47 260.39l-.274 3.192c-.148 1.715 2.542 1.941 2.69.226l.274-3.191c.148-1.716-2.543-1.942-2.69-.226" mask="url(#ch)"/>
            </g>
            <g transform="rotate(-3 1497.125 -606.363)">
                <mask id="cj" fill="#fff">
                    <use xlink:href="#ci"/>
                </mask>
                <path fill="#FFF" d="M224.039 272.324l-.274 3.191c-.147 1.715 2.542 1.941 2.69.226l.273-3.19c.149-1.717-2.542-1.942-2.69-.227" mask="url(#cj)"/>
            </g>
            <g transform="rotate(-3 1497.125 -606.363)">
                <mask id="cl" fill="#fff">
                    <use xlink:href="#ck"/>
                </mask>
                <path fill="#FFF" d="M222.744 282.662l-.273 3.192c-.148 1.714 2.542 1.94 2.69.225l.273-3.19c.147-1.716-2.542-1.942-2.69-.227" mask="url(#cl)"/>
            </g>
            <g transform="rotate(-3 1497.125 -606.363)">
                <mask id="cp" fill="#fff">
                    <use xlink:href="#co"/>
                </mask>
                <path fill="#FFF" d="M235.675 281.383c-.243-1.094-.172-2.16-.078-3.268.147-1.713-2.544-1.94-2.69-.225-.113 1.331-.179 2.667.114 3.982.372 1.675 3.028 1.197 2.654-.49" mask="url(#cp)"/>
            </g>
            <g transform="rotate(-3 1497.125 -606.363)">
                <mask id="cr" fill="#fff">
                    <use xlink:href="#cq"/>
                </mask>
                <path fill="#FFF" d="M232.93 263.428l-.307 3.59c-.147 1.716 2.542 1.942 2.69.227l.308-3.59c.148-1.716-2.543-1.942-2.69-.227" mask="url(#cr)"/>
            </g>
            <g transform="rotate(-3 1497.125 -606.363)">
                <mask id="ct" fill="#fff">
                    <use xlink:href="#cs"/>
                </mask>
                <path fill="#FFF" d="M234.062 250.264l-.309 3.59c-.147 1.716 2.543 1.942 2.69.226l.31-3.59c.146-1.715-2.544-1.941-2.691-.226" mask="url(#ct)"/>
            </g>
            <g transform="rotate(-3 1497.125 -606.363)">
                <mask id="cv" fill="#fff">
                    <use xlink:href="#cu"/>
                </mask>
                <path fill="#FFF" d="M236.677 240.305c-.733-.061-1.396.492-1.459 1.217l-.067.797a1.351 1.351 0 0 0 1.23 1.444c.732.06 1.397-.492 1.46-1.218l.068-.797c.063-.725-.499-1.382-1.232-1.443" mask="url(#cv)"/>
            </g>
            <g transform="rotate(-3 1497.125 -606.363)">
                <mask id="cy" fill="#fff">
                    <use xlink:href="#cx"/>
                </mask>
                <path fill="#FFF" d="M238.572 282.451c-.733-.06-1.397.492-1.459 1.218l-.137 1.595a1.35 1.35 0 0 0 1.231 1.441c.733.062 1.396-.49 1.458-1.215l.138-1.596c.062-.725-.498-1.382-1.23-1.443" mask="url(#cy)"/>
            </g>
            <g transform="rotate(-3 1497.125 -606.363)">
                <mask id="cA" fill="#fff">
                    <use xlink:href="#cz"/>
                </mask>
                <path fill="#FFF" d="M239.832 272.512a1.357 1.357 0 0 0-1.459 1.218 8.316 8.316 0 0 1-.073.581c.003-.06-.086.31-.102.357-.032.09-.068.18-.108.268-.063.148-.081.18-.05.098-.37.628-.315 1.413.325 1.86.561.391 1.513.306 1.881-.323.481-.818.735-1.674.818-2.615.062-.726-.499-1.382-1.232-1.444" mask="url(#cA)"/>
            </g>
            <g transform="rotate(-3 1497.125 -606.363)">
                <mask id="cC" fill="#fff">
                    <use xlink:href="#cB"/>
                </mask>
                <path fill="#FFF" d="M251.5 172.014c-.227 2.651-2.586 4.619-5.268 4.393-2.683-.225-4.672-2.557-4.444-5.21.228-2.65 2.587-4.617 5.268-4.392 2.683.225 4.672 2.557 4.444 5.209" mask="url(#cC)"/>
            </g>
        </g>
        <g>
            <path fill="#FF7900" d="M406.732 72.624c-5.183 23.034 30.374 23.993 30.374 23.993 2.23-23.912-25.192-47.026-30.374-23.993m16.35 14.823c-4.26-1.415-7.378-3.34-9.019-5.57-.968-1.314-2.142-3.562-1.168-7.898.668-2.956 1.94-3.878 3.765-4.321 2.265-.554 5.715 2.41 9.211 7.583 2.493 3.687 4.145 7.846 4.812 11.986-2.322-.358-4.987-.918-7.6-1.78"/>
            <path fill="#FF7900" d="M434.827 96.684s30.914 16.99 39.1-5.177c8.183-22.165-27.951-16.155-39.1 5.177m33.167-7.319c-1.538 4.174-3.756 5.44-5.284 6.034-2.598 1.004-6.275.964-10.632-.112-2.674-.665-5.224-1.613-7.375-2.55 2.82-3.13 6.473-5.756 10.583-7.534 5.768-2.495 10.286-3.155 11.895-1.483 1.292 1.345 1.866 2.801.813 5.645M456.134 185.9l21.107-71.364a1.262 1.262 0 0 0-.866-1.567L393.1 88.896a1.28 1.28 0 0 0-1.585.857l-21.105 71.365 85.725 24.782z"/>
            <path fill="#FFD203" d="M478.946 124.901a1.72 1.72 0 0 1-2.127 1.15l-91.267-26.385a1.687 1.687 0 0 1-1.165-2.1l3.976-13.442a1.713 1.713 0 0 1 2.125-1.152l91.268 26.384a1.692 1.692 0 0 1 1.165 2.103l-3.975 13.442z"/>
            <path fill="#FF7900" d="M441.454 97.52l-4.987 16.866-10.65-3.079 4.988-16.865zM121.546 255.851c3.6 11.545 19.617 2.864 19.617 2.864-5.134-11.177-23.217-14.407-19.617-2.864m11.048 2.388c-2.252.464-4.128.408-5.427-.16-.766-.335-1.862-1.032-2.54-3.205-.462-1.482-.133-2.217.563-2.88.863-.826 3.152-.395 6.028 1.004 2.05.997 3.847 2.419 5.204 4.085-1.122.436-2.448.87-3.828 1.156"/>
            <path fill="#FF7900" d="M140.17 259.329s18.063-.381 16.017-12.31c-2.046-11.927-16.535-.007-16.017 12.31m12.837-11.74c.387 2.245-.272 3.375-.798 4.029-.896 1.11-2.537 2.035-4.745 2.673-1.357.39-2.73.623-3.924.758.448-2.111 1.397-4.211 2.764-6.052 1.92-2.584 3.755-4.034 4.897-3.704.917.265 1.545.764 1.806 2.296M172.469 293.446l-8.914-37.06a.646.646 0 0 0-.785-.474l-43.105 10.649a.656.656 0 0 0-.483.786l8.915 37.06 44.372-10.961z"/>
            <path fill="#FFD203" d="M166.966 260.547a.88.88 0 0 1-.65 1.054l-47.24 11.67a.864.864 0 0 1-1.054-.633l-1.68-6.98a.877.877 0 0 1 .648-1.056l47.241-11.67a.867.867 0 0 1 1.056.634l1.679 6.98z"/>
            <path fill="#FF7900" d="M143.323 258.002l2.107 8.76-5.512 1.36-2.107-8.758zM284.82 168.842c-.284 6.748 9.782 5.244 9.782 5.244-.592-6.848-9.498-11.99-9.782-5.244m5.363 3.36c-1.272-.186-2.25-.573-2.825-1.119-.34-.322-.785-.896-.732-2.166.037-.866.348-1.19.84-1.406.61-.268 1.733.394 2.982 1.677a8.68 8.68 0 0 1 1.967 3.136c-.672.016-1.451-.01-2.232-.122"/>
            <path fill="#FF7900" d="M293.963 174.218s9.577 3.243 10.75-3.41c1.174-6.653-8.698-3.156-10.75 3.41m8.97-3.717c-.22 1.252-.78 1.72-1.18 1.963-.68.412-1.719.585-3.001.5a13.71 13.71 0 0 1-2.208-.35 8.751 8.751 0 0 1 2.596-2.652c1.498-.99 2.737-1.402 3.276-1.01.432.314.669.695.518 1.549M304.521 198.288l2.302-21.158a.363.363 0 0 0-.323-.398l-24.69-2.625a.365.365 0 0 0-.402.32l-2.302 21.158 25.415 2.703z"/>
            <path fill="#FFD203" d="M307.833 179.965a.49.49 0 0 1-.54.43l-27.059-2.877a.486.486 0 0 1-.435-.534l.434-3.985a.488.488 0 0 1 .539-.43l27.06 2.877c.27.029.463.267.435.534l-.434 3.985z"/>
            <path fill="#FF7900" d="M295.873 174.123l-.543 5-3.158-.336.544-5z"/>
        </g>
        <g transform="translate(0 242)">
            <mask id="cE" fill="#fff">
                <use xlink:href="#cD"/>
            </mask>
            <path fill="#B5E8F7" d="M2.808 10.692l7.097-.059c.207-2.41 2.252-4.32 4.727-4.32h1.994C17.86 2.96 24.15.408 31.73.408c7.58 0 13.87 2.552 15.102 5.905h10.124a4.755 4.755 0 0 1 4.67 3.897l16.914-.14c1.545 0 2.809 1.258 2.809 2.796 0 1.537-1.264 2.794-2.809 2.794l-75.732.62C1.264 16.28 0 15.025 0 13.488c0-1.537 1.264-2.795 2.808-2.795" mask="url(#cE)"/>
        </g>
    </g>
</svg>
