<svg xmlns="http://www.w3.org/2000/svg" xmlns:xlink="http://www.w3.org/1999/xlink" width="55" height="50" viewBox="0 0 55 50">
    <defs>
        <path id="a" d="M0 0h39.999v33.85H0z"/>
    </defs>
    <g fill="none" fill-rule="evenodd">
        <g transform="translate(8)">
            <mask id="b" fill="#fff">
                <use xlink:href="#a"/>
            </mask>
            <path fill="#000" d="M18.19 12.28l-9.766 1.542c.55.659 1.4.975 2.24.833l9.007-1.372-.6-.347a4.248 4.248 0 0 1-.881-.656zm-11.494.568l10.696-1.631a4.301 4.301 0 0 1-.428-1.207L4.457 12.013c.549.66 1.4.977 2.24.835h-.001zM.025 9.473c.086.523.373.99.798 1.298.426.308.954.432 1.469.344l14.61-2.317a4.288 4.288 0 0 1 2.288-3.434 4.167 4.167 0 0 1 4.082.139l5.356 3.138.014.008.012.007a.616.616 0 0 1 .21.815.597.597 0 0 1-.79.256l-5.47-3.204a2.977 2.977 0 0 0-3.015.014 3.073 3.073 0 0 0-1.496 2.657 3.07 3.07 0 0 0 1.52 2.643l8.444 4.897c.455.265.97.404 1.496.404h9.24c.666 0 1.206-.548 1.206-1.224v-8.57c0-.36-.156-.701-.426-.934a1.196 1.196 0 0 0-.978-.273L33.77 7.344 22.46.598a4.764 4.764 0 0 0-4.037-.274L1.31 7.26A2.001 2.001 0 0 0 .027 9.473H.025zM21.81 21.57l9.766-1.542a2.394 2.394 0 0 0-2.241-.832l-9.007 1.37.6.348c.32.179.617.4.882.656zm11.494-.568l-10.696 1.63c.202.379.346.786.427 1.208l12.508-2.003a2.395 2.395 0 0 0-2.241-.835h.002zm6.67 3.375a1.995 1.995 0 0 0-.798-1.298 1.944 1.944 0 0 0-1.47-.344l-14.61 2.317a4.285 4.285 0 0 1-2.287 3.434 4.166 4.166 0 0 1-4.081-.14l-5.356-3.137-.014-.008-.013-.007a.618.618 0 0 1-.211-.815.598.598 0 0 1 .79-.256l5.47 3.204a2.977 2.977 0 0 0 3.016-.014 3.068 3.068 0 0 0 1.496-2.657 3.068 3.068 0 0 0-1.52-2.643l-8.443-4.897a2.972 2.972 0 0 0-1.496-.404H1.206C.54 16.713 0 17.26 0 17.938v8.569c0 .359.156.7.427.934.27.232.628.332.978.273l4.825-1.207 11.31 6.746a4.763 4.763 0 0 0 4.037.274l17.112-6.937a2 2 0 0 0 1.283-2.212h.002z" mask="url(#b)"/>
        </g>
        <path fill="#FB7900" d="M0 45h55v5H0z"/>
    </g>
</svg>
