<svg xmlns="http://www.w3.org/2000/svg" width="55" height="49" viewBox="0 0 55 49">
    <g fill="none" fill-rule="evenodd">
        <path fill="#000" d="M9.75 3.909c0 16.875 13.678 30.526 30.526 30.526.744 0 1.375-.513 1.54-1.224l1.579-6.842a1.598 1.598 0 0 0-.921-1.816l-7.369-3.158a1.577 1.577 0 0 0-1.842.454L30 25.836a24.382 24.382 0 0 1-11.658-11.658l3.987-3.263c.546-.44.73-1.197.454-1.842l-3.158-7.368a1.59 1.59 0 0 0-1.81-.915l-6.841 1.58A1.577 1.577 0 0 0 9.75 3.908"/>
        <path fill="#FB7900" d="M0 44h55v5H0z"/>
    </g>
</svg>
