<svg xmlns="http://www.w3.org/2000/svg" width="55" height="55" viewBox="0 0 55 55">
    <g fill="none" fill-rule="evenodd">
        <path fill="#000" d="M44.99 14.536a1.223 1.223 0 0 0-.386-.078c-.251-.004-.425-.117-.659-.179-.181-.048-.387-.154-.573-.166-.236-.015-.448.1-.506.332-.024.092-.033.207-.13.253-.164.077-.352-.079-.51-.11-.123-.024-.252-.038-.37-.088a.469.469 0 0 1-.144-.093c-.033-.033-.071-.13-.108-.149-.2-.1-.379-.136-.599-.147-.192-.01-.365-.045-.523-.161-.253-.189.05-.253.004-.472-.007-.034-.086-.124-.08-.147.085-.345-.292-.264-.558-.201-.496.047-1.119-.126-1.547.07-.174.009-.355.031-.53.076.05.04.097.081.143.126l2.105 2.106a4.193 4.193 0 0 1 .433 5.4.294.294 0 0 1 .036.037c.186.234.002.697.015.962.02.416.119.619.355.952.374.528.85 1.077.737 1.77-.094.585-.671.964-.451 1.605.192.558.59.894.729 1.51.113.504.234.631.49 1.014.28.418.66 2.22 1.537 1.248a.416.416 0 0 1 .151-.021 17.883 17.883 0 0 1-2.667 3.4 17.812 17.812 0 0 1-12.634 5.233 17.81 17.81 0 0 1-12.634-5.233 17.811 17.811 0 0 1-5.234-12.635c0-1.12.102-2.224.304-3.306.146.042.3.072.45.151.063.116.123.105.265.119.274.11.55.28.85.28.385-.098.523-.244.77.07.222.283.787.419 1.12.483.191.036.368.025.521.154.137.115.213.293.327.428.23.271.467.467.818.554.24.059.495.079.738.137l.49-.49c-.67-.11-1.147-.595-1.656-1.009-.283-.23-.568-.456-.92-.573.008.003.12-.925-.036-1.058-.392-.334-.846.395-1.174.526-.8.32-1.264-.298-1.334-1.062-.162-1.792 2.607-2.197 3.747-1.32.115.089.51.68.65.638.228-.07.066-.78.076-.927.027-.445.055-.638.49-.894.246-.144.414-.365.534-.618.08-.166.117-.319.237-.431a1.735 1.735 0 0 1 1.534-2.548h1.325l-.076-.05a1.293 1.293 0 0 0-.084-.047 1.095 1.095 0 0 0-.369-.135c-.031-.003-.06 0-.09-.005-.012-.002-.06-.01-.038-.025.012-.009.039-.007.052-.009l.075-.012c.052-.01.105-.018.158-.019.184-.005.365.045.544.082.09.018.179.036.27.043a.408.408 0 0 0 .142-.005c.036-.01.127.019.12-.013-.018-.034-.09-.063-.069-.11.014-.033.064-.05.093-.064a.878.878 0 0 1 .12-.046c.181-.057.358-.126.543-.168a1.015 1.015 0 0 1 .384-.029c.034.004.093.003.119.027.03.028-.006.066-.024.089a.801.801 0 0 0-.075.11c-.061.11-.108.237-.126.362v.024h1.355c-.148-.157-.47-.277-.574-.469-.13-.24-.027-.543-.213-.777-.195-.246-.517-.244-.768-.395-.358-.214-.547-.63-.894-.855-.525-.342-.777 0-1.33-.045-.341-.027-.53-.281-.786-.469-.475-.347-1.056-.532-1.635-.44.198-.153.4-.303.604-.448.01 0 .019.001.028.003.504.068.944.339 1.423.49.1.032.83.092.771.052-.125-.084-.652-.202-.26-.246.172.037.597.183.674.005.24-.183.354-.178.665-.178.295-.207.578-.361.632-.707-.082-.19.008-.332-.043-.494-.394-.103-.325-.3-.277-.553-.044-.056-.193-.13-.363-.195l.11-.047c.432-.183.87-.348 1.312-.495.27.169.46.39.39.654.161.028.342.04.498-.019.036-.013.068-.064.11-.057.046.008.061.082.08.116.01.017.02.033.027.05 0 .001.116-.02.128-.02a.552.552 0 0 1 .12.003.38.38 0 0 1 .204.083c.02.018.1.07.08.107-.016.027-.076.023-.102.024-.03.001-.061.002-.091.006-.052.008-.104.016-.156.022-.046.006-.092.019-.138.012-.07.045.161.053.234.089.06.03.131.038.187.074.097.063-.107.1-.14.116-.066.031-.13.066-.193.103a.804.804 0 0 0-.216.173.365.365 0 0 0-.087.198.482.482 0 0 0 .057.251c.054.112.128.214.201.315l.03.04c.413.503 1.396 1.225 2.09 1.146.763-.088.7-1.057 1.426-1.33a15.123 15.123 0 0 1 2.24-.622c.212-.044.417-.117.621-.184.286-.095.578-.157.874-.217.05-.01.1-.013.15-.02.017-.002.137-.023.085-.053-.036-.02-.082-.023-.122-.03l-.138-.021c-.085-.013-.173-.023-.251-.06-.02-.009-.06-.017-.054-.045.007-.034.06-.027.085-.025.1.007.203-.004.304-.004.106 0 .212 0 .317-.015.05-.007.1-.01.15-.02.025-.006.064.001.06-.035a.222.222 0 0 0-.064-.132c-.018-.017-.04-.027-.056-.045-.024-.027-.012-.045.004-.073.025-.043.054-.086.068-.134.014-.052.013-.11.021-.163.018-.124.244-.146.332-.165.122-.027.325-.085.367-.222.046-.148-.103-.213-.116-.338a17.773 17.773 0 0 1 6.947 3.283c-.401.322-.643.817.213 1.158.325.129.597-.252.887-.235.143.131.284.265.424.4.026.078.029.158-.02.23-.058.085-.224.206-.331.133-.135-.091.044-.393-.209-.435a.467.467 0 0 0-.451.21c-.12.19.182.464.057.652-.162.245-.563.056-.79.156-.46.203-.861.64-1.354.862-.223.1-.49.08-.728.11-.155.017-.414.037-.5.19-.104.183.463.414.57.487.289.2.425.457.097.708-.41.314-1.16-.29-1.612.006a.33.33 0 0 0-.06.054 1.746 1.746 0 0 1 .355 1.665 1.74 1.74 0 0 1 1.03.032l.015-.01c.067-.033.143-.05.2-.102.093-.087.053-.235.091-.347.04-.114.13-.176.21-.258.056-.056.097-.136.162-.181.103-.073.247-.047.361-.099.186-.084.083-.325.248-.435.117-.078.256-.031.378.006.331.1.544-.1.86-.125.032-.003.086-.057.119-.07.104-.043.245-.051.335.026.073.062.098.168.158.241.094.114.247.17.368.248.135.09.223.112.372.151.162.044.302.196.453.273.119.06.307.147.304.306-.004.278-.469.204-.631.212-.058.002-.3.019-.32.08-.031.09.383.237.447.248.179.03.254-.096.375-.202.103-.09.24-.146.316-.262.064-.097-.003-.203.01-.305.012-.087.084-.086.11-.155.049-.13-.236-.242-.317-.272a1.589 1.589 0 0 0-.235-.066c-.05-.01-.162-.006-.204-.034-.153-.103-.173-.267-.32-.385-.535-.262-.096-.61.145-.302.373.016.464.409.874.44.196.249.434.116.576.43.025.411.107.405.473.662.125.088.073.529.338.457.084-.023.183-.126.25-.18.04-.03.132-.076.157-.119.077-.133-.166-.142-.213-.223-.219-.38.315-.49.58-.477a.233.233 0 0 1 .183.1c.02.035.038.071.057.107.037.099.054.214.078.3a.642.642 0 0 0 .149.283.554.554 0 0 0 .113.09 17.959 17.959 0 0 1 .624 1.468c-.166.044-.331.085-.507.027zm-28.874-6.42c.43-.431.88-.837 1.348-1.219.058.316.24.909.252.954.174.708-.242.259-.515.682-.114.177.116.34.042.487-.315.624-.735-.384-1.093-.608a.975.975 0 0 0-.224-.102l.19-.194zM28.75.5C17.566.5 8.5 9.566 8.5 20.75S17.566 41 28.75 41 49 31.934 49 20.75 39.934.5 28.75.5zm4.862 17.204l-5.274 5.275-6.313 6.312c.035.04.07.077.106.113l.036.034c.024.024.048.047.072.068l.041.036a2.507 2.507 0 0 0 .179.139 1.862 1.862 0 0 0 .116.075c.012.007.023.015.035.021.037.021.073.04.11.059l.014.006c.033.016.065.03.098.043l.039.016.074.026.045.014a1.954 1.954 0 0 0 .189.048l.044.01.082.012.035.005c.04.005.079.01.119.012l.022.002.099.005h.159l.062-.001c.014 0 .027.008.041.007.05-.002.099 0 .149 0H36.9l-3.984-3.966 5.748-5.752.123-.125c.958-.959.96-2.503.002-3.465l-2.104-2.103-3.074 3.074zm-13.75 9.431l5.509-5.508 1.341-1.341s7.87-7.822 7.848-7.848a2.543 2.543 0 0 0-.105-.109l-.033-.031a2.49 2.49 0 0 0-.184-.158l-.033-.025a1.986 1.986 0 0 0-.213-.133l-.035-.018a1.5 1.5 0 0 0-.19-.08c-.01-.004-.022-.009-.034-.012a1.65 1.65 0 0 0-.11-.033l-.01-.003a2.092 2.092 0 0 0-.339-.055c-.01 0-.022.008-.033.007-.038-.002-.077.004-.116.004h-.012c-.033 0-.067-.01-.1-.01-.062 0-.124-.004-.186-.001h-.042c-.063.004-.127.011-.192.011h-12.91l3.984 3.873-3.404 3.396-2.472 2.467a2.52 2.52 0 0 0-.709 2.123c.07.507.292.994.677 1.38l1.834 1.834.27.27zm.813 3.382a1.747 1.747 0 0 1-.374-1.662 1.749 1.749 0 0 1-1.018-.006c-.028.374-.017.746-.08 1.12-.082.49-.332.926-.514 1.383-.052.132-.124.302-.093.448.05.234.296.267.165.535-.095.193-.241.365-.362.543-.067.098-.129.206-.127.329 0 .09.056.17.045.26-.015.123-.127.207-.151.327-.03.147.048.33.108.462.255.552 1.305 1.465 1.977 1.264.245-.074.39-.468.368-.698-.03-.317-.217-.15-.435-.225-.403-.141.308-.978.278-1.248-.013-.113-.105-.206-.109-.328-.011-.328.63-.889.905-1.006.285-.12.492-.331.732-.507-.483-.22-.92-.55-1.315-.991zM36.41 8.513c.106.007.234.008.328.065.028.018.186.228.106.248-.09.022-.227-.013-.275.094-.024.053.01.115-.026.17-.025.04-.11.058-.12.105-.026.119.173.03.19.122.02.1-.278.187-.285.337-.006.123-.012.242.143.204.182-.045.306-.208.475-.28.053-.022.167-.014.205-.04.195-.127.45-.004.66-.03.187-.022.313-.23.281-.416-.016-.096-.053-.087-.149-.1-.197-.027-.235-.098-.323-.26-.099-.18-.334-.27-.467-.42-.054-.062-.113-.15-.092-.234.02-.086.199-.206.038-.275-.089-.038-.183.01-.274-.004-.123-.02-.036-.133-.12-.181-.066-.039-.226.013-.289.037a.554.554 0 0 0-.27.191c-.078.122-.01.172.016.287.062.29.202-.008.248.38z"/>
        <path fill="#FB7900" d="M0 50h55v5H0z"/>
    </g>
</svg>
