<?xml version="1.0" encoding="utf-8"?>
<!-- Generator: Adobe Illustrator 21.0.0, SVG Export Plug-In . SVG Version: 6.00 Build 0)  -->
<svg version="1.1" id="Calque_1" xmlns="http://www.w3.org/2000/svg" xmlns:xlink="http://www.w3.org/1999/xlink" x="0px" y="0px"
	 viewBox="0 0 100 100" style="enable-background:new 0 0 100 100;" xml:space="preserve">
<style type="text/css">
	.st0{fill:#D6D6D6;}
	.st1{fill:#714E46;}
	.st2{fill:#62342D;}
	.st3{fill:#FFB400;}
	.st4{fill:#7A4B3E;}
	.st5{fill:#E1B5A8;}
	.st6{fill:#FFFFFF;}
	.st7{fill:#595959;}
</style>
<title>Icone Jeunefille</title>
<circle id="_Tracé_" class="st0" cx="49.9" cy="49.9" r="49.9"/>
<g id="_Groupe_">
	<path id="_Tracé_2" class="st1" d="M64.1,54.2c0.2-1,1.4-4.5,0.7-5.4c-1.1-1.5-6,0-7.6,0c-1.3,0.1-2.5-0.1-3.8-0.3
		c-0.6-0.2-1.7-1-2.3-0.9c-0.4,0.1-0.7,0.4-0.8,0.8c-0.3,1.6-0.4,3.3-0.4,4.9c-0.2,2.7-0.8,5.3-1.6,7.9c-0.4,1.8-1.2,3.4-2.4,4.7
		c-1.5,1-3,1.9-4.6,2.7c0.9,2.3,4.2,3.6,6,5c1.8,1.4,3.9,3,5.6,4.6c1.7,1.6,3,3.8,5,5.4l2.2,1.7l0,0l0.7-0.3l0.3-0.1l1.1-0.5
		c0.7-0.4,1.4-0.8,2.1-1.3l0.5-0.4l0,0c-0.6-2.6-0.3-5.2-0.8-7.7c-0.4-2.5-0.6-5-0.7-7.6c-0.2-2.7-0.2-5.3,0-8
		C63.4,57.6,63.7,55.9,64.1,54.2z"/>
	<path id="_Tracé_3" class="st2" d="M53.8,56.4c-0.8-0.9-1.4-1.9-2.1-2.7s-0.7-1.2-1.1,0c-0.8,2.4-1.3,4.9-1.8,7.3
		c-0.6,2.6-2.2,4.9-4.4,6.5c1.7,0.6,5-2.3,6.3-3.4c1.2-1.3,2.7-2.4,4.4-3.1c2.1-0.6,4.5,0.8,6.8,0c0.8-0.2,1.4-0.7,1.7-1.4
		c-1.4,0-2.8-0.1-4.2-0.4C57.3,58.7,55.4,57.7,53.8,56.4z"/>
	<path id="_Tracé_4" class="st3" d="M64.4,69.9c-2.4,0.1-4.7,0.2-7.1,0.6c-7.9,0-15-3.9-22.8-1.7c-7,2-10.9,7.4-6.7,15
		c5.3,9.3,14.8,15.3,25.4,16.1c9.2,0.5,25.2-7.4,24.6-20.8C77.5,72.5,69.5,68.9,64.4,69.9z"/>
	<path id="_Tracé_5" class="st1" d="M68.4,38.9c-0.2-1.6-0.8-3.1-1.6-4.4c-0.2-0.2-0.4-0.4-0.7-0.6c-1.8-1-3.8-1.4-5.9-1.3h-1.3
		c-2-0.3-4-0.2-5.9,0.4c-5,2.1-3.1,9-3.8,12.9c-0.2,1.3-1.5,1.9-1.6,3.2c-0.1,1.4,0.8,2.8,2.1,3.4c1.8,0.7,2.1,2.7,3.1,4.2
		c1.3,1.6,3.2,2.7,5.2,3.1c1.6,0.6,3.2,0.8,4.9,0.7c1.8-0.5,3.2-1.9,3.9-3.7c0.9-1.9,1.7-3.9,2.2-6c0.3-2,0.1-4.1-0.5-6
		C68.2,42.6,68.9,40.8,68.4,38.9z"/>
	<g id="_Groupe_2">
		<path id="_Tracé_6" d="M57.8,41.8c-0.7,0.1-2.1,0.2-2.1,1.2c0,0,0.1,0,0.4,0c0.7,0,2.3,0,2.4,0c1,0,1.1-0.9,1-1.8
			C59,41.5,58.4,41.7,57.8,41.8z"/>
	</g>
	<g id="_Groupe_3">
		<path id="_Tracé_7" class="st4" d="M49,50.6h0.8c0-0.6-0.2-1.2-0.3-1.8C48.3,48.7,48.7,49.9,49,50.6z"/>
	</g>
	<g id="_Groupe_4">
		<path id="_Tracé_8" d="M66.6,40.7c-0.6,0-1.2-0.1-1.8-0.2c0,0.7,0,1.2,0.5,1.3c0.2,0,0.4,0,0.6,0c0.1,0,2-0.4,1.9-0.3
			C67.8,40.7,67.3,40.7,66.6,40.7z"/>
	</g>
	<g id="_Groupe_5">
		<polygon id="_Tracé_9" class="st5" points="55.6,48.6 55.6,48.6 55.6,48.6 		"/>
	</g>
	<g id="_Groupe_6">
		<polygon id="_Tracé_10" class="st5" points="55.6,48.6 55.6,48.6 55.6,48.6 		"/>
	</g>
	<path id="_Tracé_11" class="st2" d="M64.3,48.4c-0.2-0.2-0.4-0.5-0.6-0.8c-0.4-0.9-0.4-1.9-0.8-2.8c-1.7,0-1,4.3-0.4,5.1
		c0.6,0.8,3.2,1.2,2.5-0.7C64.8,49,64.6,48.7,64.3,48.4z"/>
	<g id="_Groupe_7">
		<g id="_Groupe_8">
			<path id="_Tracé_12" d="M58.5,45.2c-0.7-0.3-1.4-0.1-2,0.4c-0.6,0.5-0.8,1.3-0.7,2.1l0.6-0.2c-0.1-0.5,0-1.1,0.5-1.4
				c0.3-0.4,0.9-0.5,1.3-0.3c0.4,0.2,0.6,0.8,0.6,1.6h0.6C59.4,45.9,58.8,45.4,58.5,45.2z"/>
		</g>
	</g>
	<g id="_Groupe_9">
		<g id="_Groupe_10">
			<path id="_Tracé_13" d="M66.9,44.1c-0.6-0.2-1.3-0.1-1.8,0.4c-0.5,0.5-0.8,1.2-0.6,1.9l0.5-0.2c-0.1-0.5,0-1,0.4-1.3
				c0.3-0.3,0.8-0.4,1.2-0.3c0.4,0.2,0.5,0.7,0.5,1.4h0.5C67.8,44.7,67.3,44.3,66.9,44.1z"/>
		</g>
	</g>
	<path id="_Tracé_14" class="st4" d="M59.3,52.7c-0.2,0-0.2,0.8-0.2,0.8l0,0C59.4,53.4,59.6,52.6,59.3,52.7z"/>
	<path id="_Tracé_15" class="st4" d="M65.9,51.7L65.9,51.7c0,0.2,0.3,0.7,0.4,0.5C66.4,51.9,65.9,51.7,65.9,51.7z"/>
	<path id="_Tracé_16" class="st6" d="M59.9,53.2c-0.1,0,0.3,0.6,0.4,0.7c2.1,1.6,5,1.6,5.6-1.5c-0.9,0.4-1.8,0.6-2.7,0.5
		C62,53.1,61,53.2,59.9,53.2z"/>
	<path id="_Tracé_17" class="st2" d="M65.4,52c-0.2-0.1-0.5-0.4-0.8-0.4c-0.4,0.1-0.7,0.3-0.8,0.7c-0.2-0.2-0.4-0.5-0.8-0.4
		c-0.5,0.1-1.1,0.3-1.5,0.6c-0.6,0.3-1.2,0.6-1.8,0.7c0,0,0.2,0.2,0.2,0.2c1.2,0.1,2.3,0.1,3.5,0c0.5,0,1-0.2,1.6-0.3
		c0.2-0.1,0.4-0.1,0.6-0.2c0,0,0.3-0.2,0.3-0.3C65.8,52.4,65.6,52.1,65.4,52z"/>
	<path id="_Tracé_18" class="st2" d="M64.4,54.5h-0.1c-0.9,0.3-1.9,0.3-2.8,0c-0.4-0.1-0.7-0.3-1-0.6c-0.2-0.2-0.4-0.5-0.5-0.8
		c0,0.2,0.1,0.7,0.2,0.9c0.5,1.1,1.6,1.8,2.8,2c0.8,0.1,1.5-0.2,2.1-0.7c0.5-0.5,0.5-1.6,0.7-2.3c0-0.2,0-0.4,0-0.5
		C65.5,53.3,65.2,54.1,64.4,54.5z"/>
	<path id="_Tracé_19" d="M63.9,16.1c1.9-9-5.3-15-13.6-16c-4.4-0.5-8.8,0.4-12.7,2.5c-3.8,2.1-10.9,8-9.6,13
		c-7.7,0.4-14.5,5.1-17.7,12.1c-4.7,11.5,4.2,16,14.1,16.4c-2.9,4.1-2.1,12,2.1,15c5.1,3.6,12.9,1.1,18.2-0.8c1.9-0.7,5.7-2.1,6-4.6
		c0.3-2.5-4.2-2.9-2.3-5.5c0.1-0.2,1.6-1,1.6-0.7c0.3-2.1,0-4.2,0.3-6.1c0.2-1.7,0.8-3.4,1.9-4.7c2.1-2.4,5.2-3.9,8.4-3.9
		c3,0,6.5,0,7.6,5.3c4.3-2.2,6.3-7.5,6.6-12.6C74.9,19.1,71.5,13.3,63.9,16.1z"/>
	<path id="_Tracé_transparent_" class="st7" d="M37.1,15.8c-0.8,0.1-1.5,0.2-2.2,0.5c-0.8,0.3-1.5,0.8-2.1,1.4
		c-1.1,1-1.8,2.3-2.1,3.7c-0.8-0.2-1.7-0.2-2.6,0c-1,0.3-2,0.9-2.7,1.7c-1.6,1.7-2.5,3.9-2.7,6.3c0,0.4,0,0.9,0,1.3
		c-1.9-0.1-3.8,0.9-4.8,2.5c-0.6,1-0.7,2.2-0.4,3.3c0.4,1.1,1.1,2,2.1,2.6c2.1,1.4,4.6,2.1,7.1,1.9c1.1,0,2.2-0.4,3.1-0.9
		c0.6-0.4,0-1.4-0.6-1c-2,1-4.2,1.1-6.3,0.3c-1.1-0.3-2.1-0.8-3-1.5c-0.4-0.3-0.7-0.7-1-1.1c-0.2-0.4-0.4-0.8-0.4-1.2
		c-0.1-1.1,0.5-2.2,1.4-2.9c0.9-0.6,2-0.9,3.1-0.9c0.2,1.3,1,2.5,2.1,3.3c1.2,0.7,3.7,1.1,3.9-0.8c0-0.9-0.8-1.7-1.4-2.1
		c-0.6-0.4-1.2-0.7-1.8-0.9c-0.7-0.2-1.4-0.4-2.1-0.4c-0.1-0.7-0.1-1.4,0-2.1c0.3-2.2,1.4-4.1,3.1-5.5c0.8-0.6,1.8-0.8,2.7-0.7
		l0.7,0.1h0.2c0,0.7,0.1,1.4,0.4,2.1c0.3,0.8,0.7,1.4,1.4,2c0.4,0.3,1,0.2,1.3-0.2c0,0,0-0.1,0.1-0.1c0.2-0.5,0.3-1.1,0.1-1.6
		c-0.2-1.2-1-2.2-2.1-2.8c0-0.2,0.1-0.5,0.2-0.7c0.6-1.8,2-3.2,3.8-3.9c0.8-0.3,1.6-0.4,2.3-0.4c0.3,0,0.7,0,1,0.2
		c0.3,0.2,0.5,0.4,0.5,0.8c0.1,0.7,1.2,0.4,1.1-0.3C40.2,15.8,38.5,15.6,37.1,15.8z M27.6,33.4c0.2,0.2,0.3,0.4,0.3,0.6
		c0,0,0,0-0.1,0.2c-0.1,0.1-0.2,0.1-0.3,0.1c-0.7,0.1-1.5-0.1-2.1-0.6c-0.7-0.5-1.2-1.3-1.4-2.1C25.3,31.8,26.6,32.4,27.6,33.4z
		 M32.2,23.8c0.3,0.5,0.4,1,0.4,1.6l0,0c-0.5-0.6-0.9-1.3-1-2.1c0-0.1,0-0.2,0-0.3C31.9,23.2,32.1,23.5,32.2,23.8L32.2,23.8z"/>
	<path id="_Tracé_transparent_2" class="st7" d="M48.6,36.1c-0.1,0.7-0.2,1.3-0.4,2L48,39.2c-0.3,1.1-0.5,2.2-0.8,3.4
		c-0.3,1.1-0.7,2.6-1.2,3.8c-0.4,1.1-0.9,2-1.5,3l-0.1,0.2l-0.2,0.2c-0.1,0.1-0.2,0.2-0.4,0.3h-0.6l0,0l0,0l0,0
		c-0.1-0.2-0.2-0.3-0.2-0.5v-0.2l0.7-1.2c0.4-0.7,0.7-1.5,0.9-2.3c0.3-0.8,1.7-5.1-0.3-4.8c-0.4,0.1-0.8,0.4-1.1,0.8
		c-0.3,0.3-0.5,0.7-0.6,1.1c-0.4,1.1-0.6,2.2-0.7,3.4c-0.1,1-0.1,1.9,0,2.9c-0.5,0.9-1.1,1.7-1.8,2.5c-0.9,1.2-2.1,2.2-3.5,2.8
		c-1.1,0.6-2.4,0.2-3.1-0.8c-0.1-0.2-0.2-0.5-0.3-0.8c0.5-0.4,1-0.9,1.3-1.4c0.9-1.1,1.2-2.5,1-3.9c0-0.5-0.5-0.9-1-1
		c-0.7,0-1.2,0.8-1.6,1.3c-0.8,1.1-1.2,2.5-1.1,3.9c0,0.1,0,0.3,0,0.4h-0.2h-0.4h-0.3c0,0,0,0-0.2-0.2c-0.1-0.1-0.1-0.2-0.2-0.3
		c0-0.4,0-0.7,0-1.1c0.1-0.9,0.3-1.9,0.6-2.8c0.5-1.9,1.3-3.6,2.4-5.3c0.4-0.6,0.9-1.2,1.5-1.7c0.5-0.5-0.3-1.3-0.8-0.8
		c-1.4,1.3-2.5,2.9-3.2,4.7c-0.8,1.8-1.4,3.7-1.6,5.6c-0.1,1.1,0,2.9,1.4,3.1c0.4,0.1,0.8,0,1.2-0.1c0.2,0.8,0.7,1.5,1.4,1.9
		c1.3,0.7,2.9,0.6,4.2-0.3c1.3-0.9,2.5-2,3.4-3.4c0.3-0.4,0.6-0.9,0.9-1.3c0.3,0.6,0.9,0.9,1.6,0.8c0.9-0.2,1.7-0.8,2.1-1.6
		c0.6-1,1.1-2.1,1.5-3.3c0.6-1.8,1.1-3.6,1.5-5.4c0.2-0.7,0.3-1.4,0.5-2.1l0.1-0.7c0.1-0.6,0.2-1.2,0.3-1.8S48.8,35.4,48.6,36.1z
		 M32.9,51.3c0-0.5,0.1-1,0.3-1.5c0.2-0.6,0.5-1.2,0.9-1.8l0.3-0.3c0,0.2,0,0.4,0,0.5c0,0.3-0.1,0.6-0.2,0.9
		c-0.2,0.7-0.6,1.3-1.1,1.9L32.9,51.3z M42.7,47v0.1c0-1,0.2-1.9,0.4-2.9c0.1-0.5,0.2-0.9,0.4-1.3v-0.2v-0.1l0,0l0.1-0.2l0.2-0.2
		c0,0.1,0,0.3,0,0.4l0,0v0.2v0.4c0,0.3-0.1,0.5-0.2,0.8c-0.1,0.3-0.3,1-0.4,1.6c-0.1,0.5-0.3,0.9-0.5,1.3L42.7,47L42.7,47z"/>
	<path id="_Tracé_transparent_3" class="st7" d="M51.9,13.5c-0.3-0.1-0.6-0.1-0.8,0.2c-0.8,1.4-0.8,3.1,0,4.5
		c0.5,1.4,1.6,2.5,2.9,3.1c0,2-0.7,4-2.1,5.5c-0.8,0.8-1.8,1.3-2.9,1.4c-0.2,0-0.5,0-0.7,0c0.1-0.3,0.1-0.7,0.1-1
		c0.1-0.8,0-1.6-0.3-2.4c-0.2-0.5-0.5-1-0.8-1.4c-0.6-1.1-1.5-2-2.5-2.7c-0.4-0.3-1-0.4-1.5-0.3c-0.6,0.2-1,0.7-1.2,1.2
		c-0.5,1.5-0.3,3.1,0.6,4.3c0.9,1.3,2.1,2.4,3.5,3.1l0.5,0.2c-0.4,1-1.1,1.8-1.9,2.5c-0.3,0.2-0.6,0.4-1,0.6h-0.2h-0.4h-0.5
		c-0.1-0.8-0.3-1.5-0.8-2.1c-0.8-0.9-1.8-1.5-2.9-1.8c-1-0.5-2.2-0.5-3.3,0c-0.9,0.7-1,2-0.3,2.9c0,0,0,0,0.1,0.1
		c0.8,0.9,2,1.6,3.2,1.7c1,0.2,2,0.3,3,0.3c0,0.6-0.1,1.2-0.3,1.8c-0.1,0.3,0.1,0.6,0.4,0.7c0.3,0.1,0.6-0.1,0.7-0.4
		c0.1-0.7,0.2-1.4,0.3-2.1c0.5,0,0.9-0.1,1.4-0.3c0.8-0.3,1.5-0.8,2.1-1.4c0.8-0.7,1.3-1.6,1.7-2.6c0.8,0.1,1.5,0,2.2-0.3
		c2.3-0.9,4-2.8,4.5-5.2C55.9,20.2,54.8,16.1,51.9,13.5z M38.1,32.2c-0.9-0.4-1.8-0.9-1.8-2c0-0.1,0-0.2,0-0.3c0,0,0-0.1,0,0
		s0.2-0.2,0.4-0.2c0.5-0.1,0.9-0.1,1.4,0c0.5,0.1,1.1,0.3,1.6,0.5l0.7,0.3l0.3,0.2h0.1l0,0c0.6,0.5,0.9,1.1,1,1.9
		C40.5,32.7,39.3,32.6,38.1,32.2z M47.4,27.5c0,0.3-0.1,0.5-0.1,0.8c-0.6-0.2-1.2-0.5-1.8-1c-1.2-0.9-2.1-2.2-2.4-3.6
		c-0.1-0.6,0-1.2,0.3-1.8c0.1-0.1,0.1-0.2,0.2-0.2h0.1H44h0.1h0.2l0.3,0.2c0.2,0.2,0.4,0.4,0.6,0.6c0.4,0.4,0.8,0.9,1.1,1.4
		c0.3,0.4,0.6,0.9,0.8,1.4l0,0l0,0v0.2c0,0.2,0.1,0.4,0.1,0.6C47.4,26.5,47.4,27,47.4,27.5z M52.3,17.9c-0.5-0.9-0.6-2-0.4-3
		c1.3,1.5,2.1,3.3,2.2,5.3C53.3,19.6,52.6,18.8,52.3,17.9L52.3,17.9z"/>
	<path id="_Tracé_transparent_4" class="st7" d="M60.1,8.5c-1-0.9-2.4-1.2-3.7-0.8c-0.7-0.9-1.7-1.6-2.9-1.9
		c-1.6-0.3-3.3,0.1-4.7,1.1c-0.6-1.6-1.9-3.2-3.8-2.3c-1.3,0.8-2.3,2.1-2.7,3.6c-0.6,1.4-0.7,3-0.1,4.4c0.2,0.2,0.6,0.3,0.8,0.1
		c0.2-0.2,0.3-0.4,0.2-0.6c-0.1-0.2-0.1-0.4-0.1-0.6c0-0.3,0-0.6,0-0.8c0-0.7,0.2-1.3,0.4-2c0.3-1.2,1.1-2.3,2.1-3.1
		c0.2-0.1,0.3-0.1,0.5-0.1c0.2-0.1,0.4-0.1,0.5,0h0.2H47l0,0c0.2,0.1,0.3,0.3,0.4,0.5c0.3,0.5,0.5,0.9,0.7,1.5
		c-0.8,0.9-1.3,2-1.4,3.1c-0.1,1-0.1,2,0.1,3c-0.1,0.3,0.1,0.6,0.4,0.7c0.1,0,0.1,0,0.2,0c2.2-0.8,2.2-4,1.9-5.9V8
		c0.8-0.7,1.7-1.1,2.7-1.2c1.4-0.2,2.7,0.4,3.5,1.4c-0.7,0.9-0.9,2.1-0.6,3.2c0.1,0.4,0.3,0.9,0.6,1.3c0.2,0.3,0.5,0.3,0.8,0.2
		c0,0,0.1,0,0.1-0.1c1.1-1.1,1.4-2.8,0.6-4.2c0.8-0.1,1.7,0.2,2.4,0.7c1,0.8,1.7,1.9,2,3.1c0.4,1.3,0.4,2.6,0.2,3.9
		c-0.1,0.7,0.9,1,1.1,0.3C63.3,13.6,62.3,10.5,60.1,8.5z M48,11.7c-0.1,0.3-0.2,0.6-0.4,0.9l0,0c-0.2-1.2,0.1-2.4,0.7-3.5l0,0
		C48.4,10,48.3,10.8,48,11.7z M56,11.3c-0.3-0.7-0.3-1.4,0-2.1C56.3,9.9,56.3,10.7,56,11.3z"/>
	<path id="_Tracé_transparent_5" class="st7" d="M70,23.1c-0.4-0.2-0.7-0.3-1.1-0.3c0.1-1.6-0.9-3-2.4-3.5c-1.5-0.2-3,0.2-4.2,1.1
		c-1.3,0.8-2.4,1.8-3.2,3.1l-0.1,0.2c-0.3,0.6,0.6,1.2,1,0.6c0.7-1.2,1.7-2.2,2.9-2.9c1.1-0.9,2.4-1.2,3.8-0.9
		c0.4,0.2,0.7,0.5,0.8,0.9c0.2,0.4,0.3,0.9,0.4,1.4v0.2c-0.5,0.1-0.9,0.3-1.3,0.6c-1.1,0.7-2,1.8-2.5,3c-0.5,0.9-0.3,2.1,0.6,2.7
		c1,0.5,2.2,0.2,2.9-0.7c0.7-0.9,1.2-2,1.3-3.2c0.1-0.5,0.1-0.9,0.1-1.4c0.3,0,0.6,0.2,0.9,0.3c1.1,0.7,1.7,2,1.7,3.3
		c0,0.6-0.2,1.1-0.5,1.6c-0.4,0.5-1,0.7-1.7,0.7c-0.7,0-0.7,1.2,0,1.1c1.2,0,2.4-0.7,2.9-1.8c0.4-1.1,0.4-2.3,0-3.4
		C71.8,24.6,71.1,23.7,70,23.1z M67.4,26.3c-0.1,0.5-0.4,0.9-0.7,1.3c-0.2,0.3-0.6,0.6-1,0.7c-0.2,0-0.3,0-0.5,0
		c-0.2,0-0.3-0.1-0.4-0.2c0,0,0-0.1,0,0c0-0.1,0-0.1,0-0.2c0-0.1,0-0.2,0-0.3c0-0.1,0-0.2,0-0.3c0.3-1.1,1-2.1,2-2.7
		c0.3-0.2,0.6-0.4,1-0.5C67.8,24.8,67.6,25.6,67.4,26.3L67.4,26.3z"/>
	<path id="_Tracé_20" class="st7" d="M27.9,33.2c0-0.3-0.2-0.6-0.5-0.6c-0.2,0-0.4,0.1-0.5,0.3c-0.1,0.5-0.1,1.1,0.2,1.6
		c0.2,0.3,0.5,0.4,0.8,0.2c0.3-0.2,0.4-0.5,0.2-0.8C27.8,33.7,27.8,33.4,27.9,33.2z"/>
	<path id="_Tracé_21" class="st7" d="M27.9,28.1c-0.3-0.1-0.6-0.1-0.8,0.2c-0.2,0.3-0.2,0.7-0.2,1c0.1,0.3,0.4,0.5,0.7,0.4
		c0.2,0,0.4-0.2,0.4-0.4c0,0,0-0.2,0-0.3v-0.2C28.2,28.6,28.2,28.3,27.9,28.1z"/>
	<path id="_Tracé_22" class="st7" d="M17.4,21.9c-0.6,0.5-1.2,1.1-1.7,1.8c-0.2,0.2-0.1,0.5,0.1,0.7c0.3,0.1,0.6,0.1,0.8-0.2
		c0.4-0.5,0.8-1,1.3-1.4c0.3-0.2,0.4-0.5,0.2-0.8C17.9,21.8,17.7,21.8,17.4,21.9z"/>
	<path id="_Tracé_23" class="st7" d="M23.1,18.5c-0.5,0.3-1,0.6-1.5,0.9c-0.5,0.3,0,1.4,0.6,1c0.6-0.4,1-0.6,1.5-0.9
		C24.1,19.1,23.7,18.1,23.1,18.5z"/>
	<path id="_Tracé_24" class="st7" d="M19.9,26.9c-0.3-0.1-0.6-0.1-0.8,0.2L18,28.7c-0.1,0.3-0.1,0.6,0.2,0.8
		c0.3,0.1,0.6,0.1,0.8-0.2l1.2-1.6C20.3,27.4,20.2,27,19.9,26.9z"/>
	<path id="_Tracé_25" class="st7" d="M22.1,22.5l-0.6,0.6c-0.2,0.3-0.1,0.6,0.2,0.8c0.2,0.1,0.4,0.1,0.6,0l0.6-0.6
		c0.2-0.3,0.1-0.6-0.2-0.8C22.5,22.4,22.3,22.4,22.1,22.5z"/>
	<path id="_Tracé_26" class="st7" d="M18.5,40c-0.5,0-0.9-0.1-1.3-0.3c-0.7-0.2-1,0.9-0.3,1.1c0.5,0.2,1.1,0.3,1.6,0.3
		c0.3,0,0.6-0.2,0.6-0.6C19,40.3,18.8,40,18.5,40z"/>
	<path id="_Tracé_27" class="st7" d="M27.1,42.4c-0.4-0.1-0.7-0.3-1-0.5c-0.3-0.1-0.6-0.1-0.8,0.2c-0.1,0.3-0.1,0.6,0.2,0.8
		c0.4,0.3,0.9,0.5,1.3,0.7c0.3,0.1,0.6-0.1,0.7-0.4C27.5,42.8,27.4,42.5,27.1,42.4z"/>
	<path id="_Tracé_28" class="st7" d="M26.3,46.9c-0.1,0.7-0.2,1.4-0.2,2.1c0.1,0.3,0.4,0.5,0.7,0.4c0.2,0,0.4-0.2,0.4-0.4
		c0-0.6,0-1.2,0.1-1.8C27.6,46.5,26.5,46.2,26.3,46.9z"/>
	<path id="_Tracé_29" class="st7" d="M28.4,55.7c-0.5-0.3-1-0.8-1.2-1.4c-0.1-0.3-0.4-0.5-0.7-0.4c-0.3,0.1-0.5,0.4-0.4,0.7
		c0.3,0.9,0.9,1.6,1.7,2.1C28.6,57,29.1,56,28.4,55.7z"/>
	<path id="_Tracé_30" class="st7" d="M33.7,57.2c-0.5,0-1.1,0-1.6-0.1c-0.7-0.2-1,0.9-0.3,1.1c0.6,0.1,1.3,0.2,1.9,0.2
		c0.3-0.1,0.5-0.4,0.4-0.7C34.1,57.4,33.9,57.3,33.7,57.2z"/>
	<path id="_Tracé_31" class="st7" d="M41.9,55.2c-0.5,0.2-1.1,0.4-1.6,0.6c-0.3,0.1-0.4,0.5-0.2,0.8c0.1,0.2,0.3,0.3,0.5,0.3
		c0.6-0.1,1.1-0.4,1.6-0.6C42.7,56,42.6,54.9,41.9,55.2z"/>
	<path id="_Tracé_32" class="st7" d="M35.7,41.7c-0.3,0-0.6,0.3-0.6,0.6l0,0V43c-0.1,0.3,0.1,0.6,0.4,0.7c0.3,0.1,0.6-0.1,0.7-0.4
		c0-0.1,0-0.1,0-0.2v-0.7C36.2,41.9,36,41.7,35.7,41.7z"/>
	<path id="_Tracé_33" class="st7" d="M38.5,48.8c-0.1,0-0.3-0.1-0.4-0.1c-0.1-0.1-0.2-0.3-0.3-0.5c-0.1-0.3-0.5-0.4-0.8-0.2
		c-0.2,0.1-0.3,0.3-0.3,0.5c0.2,0.8,0.9,1.4,1.7,1.4c0.3-0.1,0.5-0.4,0.4-0.7C38.8,49,38.6,48.8,38.5,48.8z"/>
	<path id="_Tracé_34" class="st7" d="M38.9,43.1c-0.3,0.5-0.5,1-0.5,1.6c0.1,0.3,0.4,0.5,0.7,0.4c0.2,0,0.4-0.2,0.4-0.4
		c0-0.4,0.2-0.7,0.4-1C40.4,43.1,39.4,42.5,38.9,43.1z"/>
	<path id="_Tracé_35" class="st7" d="M45.6,36.4c-0.3-0.1-0.6-0.1-0.8,0.2l0,0l0,0l-0.2,0.2l0,0h-0.1l-0.3,0.1
		c-0.3,0.2-0.4,0.5-0.2,0.8c0.2,0.3,0.5,0.4,0.8,0.2c0.4-0.2,0.8-0.5,1.1-0.9C45.9,36.7,45.8,36.5,45.6,36.4z"/>
	<path id="_Tracé_36" class="st7" d="M52.4,31.1c-0.6,0.1-1.2,0.5-1.7,0.9c-0.5,0.5,0.3,1.3,0.8,0.8c0.4-0.3,0.8-0.5,1.2-0.6
		c0.3-0.2,0.3-0.5,0.2-0.8C52.8,31.2,52.6,31.1,52.4,31.1z"/>
	<path id="_Tracé_37" class="st7" d="M58,29.8c-0.5,0-0.9,0.2-1.3,0.4c-0.3,0.2-0.4,0.5-0.2,0.8c0.2,0.3,0.5,0.4,0.8,0.2
		c0.2-0.1,0.5-0.2,0.8-0.2c0.3-0.1,0.5-0.3,0.5-0.7C58.4,30,58.3,29.8,58,29.8z"/>
	<path id="_Tracé_38" class="st7" d="M65.1,30.7c-0.5-0.3-1-0.5-1.6-0.5c-0.3,0.1-0.5,0.4-0.4,0.7c0,0.2,0.2,0.4,0.4,0.4
		c0.4,0,0.7,0.2,1,0.4C65.2,32,65.7,31,65.1,30.7z"/>
	<path id="_Tracé_39" class="st7" d="M25.4,36c-0.5,0-0.9,0-1.3-0.1c-0.7-0.2-1,0.9-0.3,1.1c0.5,0.1,1.1,0.2,1.6,0.2
		c0.3,0,0.6-0.2,0.6-0.6C26,36.3,25.7,36,25.4,36C25.4,36,25.4,36,25.4,36z"/>
	<path id="_Tracé_40" class="st7" d="M33.3,34.9c-0.3,0.2-0.7,0.3-1,0.4c-0.3,0.1-0.5,0.4-0.4,0.7c0,0.2,0.2,0.4,0.4,0.4
		c0.6,0,1.1-0.2,1.6-0.5C34.5,35.5,33.9,34.5,33.3,34.9z"/>
	<path id="_Tracé_41" class="st7" d="M30,29c0.1-0.3-0.1-0.6-0.4-0.7c-0.3-0.1-0.6,0.1-0.7,0.4c0,0.1,0,0.1,0,0.2
		c0,0.4,0.1,0.8,0.2,1.2c0.2,0.3,0.5,0.4,0.8,0.2c0.3-0.2,0.4-0.5,0.2-0.8C30,29.4,29.9,29.2,30,29z"/>
	<path id="_Tracé_42" class="st7" d="M31.2,12.1c-0.3-0.1-0.6-0.1-0.8,0.2c-0.3,0.7-0.4,1.5-0.2,2.2c0.2,0.7,1.2,0.4,1.1-0.3
		c-0.1-0.4-0.1-0.9,0-1.3C31.5,12.6,31.4,12.3,31.2,12.1z"/>
	<path id="_Tracé_43" class="st7" d="M35,7.1c-0.4,0.3-0.8,0.7-1.1,1.2C33.7,8.5,33.8,8.9,34,9c0.3,0.1,0.6,0.1,0.8-0.2
		c0.3-0.3,0.6-0.6,0.9-0.9C36.3,7.4,35.5,6.6,35,7.1z"/>
	<path id="_Tracé_44" class="st7" d="M42.9,2.4c-0.5,0.3-0.9,0.6-1.3,1c-0.5,0.5,0.3,1.3,0.8,0.8c0.3-0.3,0.7-0.5,1.1-0.8
		c0.3-0.2,0.4-0.5,0.2-0.8C43.5,2.4,43.2,2.3,42.9,2.4z"/>
	<path id="_Tracé_45" class="st7" d="M53,2.8c-0.8-0.2-1.6-0.5-2.4-0.9C50.3,1.9,50,2,49.9,2.3C49.9,2.6,50,3,50.3,3
		c0.8,0.4,1.6,0.7,2.4,0.9C53.4,4,53.6,3,53,2.8z"/>
	<path id="_Tracé_46" class="st7" d="M38.2,10.3c-0.3,0.2-0.6,0.4-0.8,0.7c-0.3,0.2-0.5,0.5-0.6,0.9c0,0.3,0.3,0.6,0.6,0.6l0,0
		c0.3,0,0.6-0.2,0.6-0.5c0,0,0,0,0,0c0,0.1,0,0.1,0,0.2l0,0l0,0l0.3-0.3l0.3-0.3l0,0l0,0h0.1c0.3-0.1,0.4-0.4,0.3-0.7
		c-0.1-0.3-0.4-0.4-0.7-0.3c-0.1,0-0.1,0.1-0.2,0.1L38.2,10.3z"/>
	<path id="_Tracé_47" class="st7" d="M38,20.8c-0.7,0.2-1.3,0.5-1.9,0.8c-0.7,0.3,0,1.3,0.6,1c0.5-0.3,1.1-0.5,1.6-0.7
		c0.3-0.1,0.4-0.5,0.2-0.8C38.5,20.9,38.2,20.7,38,20.8z"/>
	<path id="_Tracé_48" class="st7" d="M38,24.7c-0.4,0.3-0.8,0.6-1.2,0.9c-0.3,0.2-0.4,0.5-0.2,0.8c0.2,0.3,0.5,0.4,0.8,0.2
		c0.4-0.3,0.8-0.6,1.2-0.9c0.3-0.2,0.4-0.5,0.2-0.8C38.6,24.6,38.3,24.5,38,24.7z"/>
	<path id="_Tracé_49" class="st7" d="M43.7,15.9c-0.7,0.7-1,1.5-1,2.5c0.1,0.3,0.4,0.5,0.7,0.4c0.2,0,0.4-0.2,0.4-0.4
		c0-0.6,0.3-1.2,0.7-1.7C45,16.1,44.2,15.4,43.7,15.9z"/>
	<path id="_Tracé_50" class="st7" d="M57,16c-0.4-0.6-1.3,0-1,0.6c0.2,0.4,0.4,0.8,0.5,1.2c0.2,0.7,1.3,0.4,1.1-0.3
		C57.5,17,57.3,16.5,57,16z"/>
	<path id="_Tracé_51" class="st7" d="M48.8,19.3c-0.3-0.1-0.6,0.1-0.7,0.4c-0.1,0.3,0.1,0.6,0.4,0.7c0.1,0.1,0.3,0.2,0.4,0.3
		c0.1,0.1,0.2,0.3,0.3,0.5c0.1,0.3,0.5,0.4,0.8,0.2c0.2-0.1,0.3-0.3,0.3-0.5C50.1,20.1,49.6,19.5,48.8,19.3z"/>
	<path id="_Tracé_52" class="st7" d="M69.3,18c-0.5-0.2-0.9-0.4-1.3-0.6c-0.3-0.1-0.6,0.1-0.7,0.4c-0.1,0.3,0.1,0.6,0.4,0.7
		c0.5,0.2,0.9,0.4,1.3,0.6c0.3,0.1,0.6-0.1,0.7-0.4C69.8,18.3,69.6,18,69.3,18z"/>
	<path id="_Tracé_53" class="st7" d="M71.9,20.2c-0.2-0.3-0.5-0.4-0.8-0.2c-0.3,0.2-0.4,0.5-0.2,0.8c0,0,0,0.1,0,0.1v0.2
		c0,0.2,0,0.4,0.1,0.5c0,0.3,0.3,0.5,0.6,0.5c0.3,0,0.5-0.3,0.5-0.6c0-0.1,0-0.2-0.1-0.2C72,21,72,20.6,71.9,20.2z"/>
	<path id="_Tracé_54" class="st7" d="M56.7,26.7c-0.5,0-0.9,0.2-1.3,0.6c-0.3,0.2-0.4,0.5-0.2,0.8c0.2,0.3,0.5,0.4,0.8,0.2
		c0.1,0,0.1-0.1,0.2-0.2c0.1-0.1,0.2-0.2,0.3-0.2h0.2c0.3,0.1,0.6-0.1,0.7-0.4c0.1-0.3-0.1-0.6-0.4-0.7
		C56.8,26.7,56.7,26.7,56.7,26.7L56.7,26.7z"/>
	<path id="_Tracé_55" class="st7" d="M62,25.8c-0.3,0-0.6,0-0.8-0.1c-0.5-0.5-1.3,0.3-0.8,0.8c0.4,0.4,1,0.5,1.6,0.5
		c0.3-0.1,0.5-0.4,0.4-0.7C62.4,26,62.2,25.8,62,25.8z"/>
	<path id="_Tracé_56" class="st7" d="M38.1,37L38.1,37h-0.2c-0.3,0.1-0.5,0.4-0.4,0.7c0,0.2,0.2,0.4,0.4,0.4c0.4,0,0.7-0.2,1-0.5
		c0.2-0.3,0.1-0.6-0.2-0.8c-0.2-0.1-0.4-0.1-0.6,0L38.1,37z"/>
	<path id="_Tracé_57" class="st7" d="M51.4,22.8c-0.3,0-0.6,0.3-0.6,0.6v0v0.4c0.1,0.3,0.4,0.5,0.7,0.4c0.2,0,0.4-0.2,0.4-0.4v-0.4
		C51.9,23.1,51.7,22.8,51.4,22.8z"/>
	<path id="_Tracé_58" class="st7" d="M59.4,13.2c-0.3-0.6-1.3,0-1,0.6c0.2,0.3,0.4,0.7,0.5,1c0.1,0.3,0.4,0.5,0.7,0.4
		c0.3-0.1,0.5-0.4,0.4-0.7C59.9,14,59.6,13.6,59.4,13.2z"/>
	<path id="_Tracé_59" class="st7" d="M46.9,53.9c-0.3,0.6-0.8,1.1-1.4,1.4c-0.3,0.1-0.5,0.4-0.4,0.7c0.1,0.3,0.4,0.5,0.7,0.4
		c0.9-0.4,1.6-1.1,2.1-1.9C48.2,53.8,47.3,53.3,46.9,53.9z"/>
	<path id="_Tracé_60" class="st7" d="M70.4,31.7c-0.3-0.1-0.6,0.1-0.7,0.4c-0.1,0.1-0.1,0.3-0.2,0.4l0,0l-0.1,0.1l0,0l0,0
		c-0.3,0.1-0.5,0.4-0.4,0.7c0.1,0.3,0.4,0.5,0.7,0.4c0.6-0.2,1.1-0.8,1.3-1.4C71,32,70.7,31.8,70.4,31.7
		C70.4,31.7,70.4,31.7,70.4,31.7z"/>
	<path id="_Tracé_61" class="st7" d="M27.8,24.9c-0.2,0.5-0.4,1-0.6,1.5s0.8,1,1.1,0.3c0.2-0.7,0.4-1,0.6-1.5
		C29.1,24.6,28.1,24.2,27.8,24.9z"/>
	<path id="_Tracé_62" class="st7" d="M33.6,13.3L33,13.9c-0.3,0.2-0.4,0.5-0.2,0.8s0.5,0.4,0.8,0.2c0.1,0,0.1-0.1,0.2-0.2l0.6-0.6
		c0.3-0.2,0.4-0.5,0.2-0.8c-0.2-0.3-0.5-0.4-0.8-0.2C33.7,13.2,33.7,13.3,33.6,13.3z"/>
	<path id="_Tracé_63" class="st7" d="M14.2,29.4c-0.8,1.2-1.2,2.5-1.3,3.9c0,0.3,0.3,0.6,0.6,0.6c0.3,0,0.6-0.3,0.6-0.6
		c0.1-1.2,0.4-2.3,1.1-3.2C15.7,29.4,14.6,28.8,14.2,29.4z"/>
	<path id="_Tracé_64" class="st7" d="M13.8,37.5l-0.2-0.1l0,0l0,0c-0.3-0.2-0.7-0.2-0.9,0.1c-0.2,0.2-0.2,0.5,0,0.8
		c0.1,0.1,0.3,0.2,0.4,0.3c0.1,0.3,0.3,0.4,0.6,0.4c0.3,0,0.6-0.3,0.6-0.6C14.3,38.1,14.1,37.7,13.8,37.5z"/>
	<path id="_Tracé_65" class="st2" d="M65.2,33.5c-4.4-2.3-11.4-0.5-13.6,4c-1.4,3-1.9,6.3-1.5,9.5c0.8-1.5,1.2-3.1,1.4-4.7
		c0.4-1.9,1.2-3.6,2.5-5c1.1-1.2,2.4-2.1,3.9-2.7c0.6-0.2,1.3-0.4,1.9-0.5c2.2-0.4,4.4,0.2,6.1,1.5c0.8,0.7,1.5,1.4,2.1,2.2
		c-0.6-0.6-0.7-1.7-1.1-2.4C66.6,34.6,66,33.9,65.2,33.5z"/>
</g>
</svg>
