<svg id="Calque_1" data-name="Calque 1" xmlns="http://www.w3.org/2000/svg" viewBox="0 0 50 50"><defs><style>.cls-1{fill:#b5e8f7;}.cls-2{fill:#714e46;}.cls-3{fill:#62342d;}.cls-4{fill:#482e26;}.cls-5{fill:#f2ded4;}.cls-6{fill:#765659;}.cls-7{fill:#897075;}.cls-8{fill:#6faed1;}.cls-9{fill:#fff;}.cls-10{fill:#bc4c57;}.cls-11{fill:#cd5f68;}.cls-12{fill:#0a6e31;}.cls-13{fill:#221f1f;}.cls-14{fill:#50be87;}.cls-15{fill:#cee1cf;}.cls-16{fill:#f4a69f;}.cls-17{fill:#6dbaba;}.cls-18{fill:#94d0af;}</style></defs><title>Icone Femme</title><circle id="_Tracé_" data-name="&lt;Tracé&gt;" class="cls-1" cx="25" cy="23.5" r="23"/><g id="_Groupe_" data-name="&lt;Groupe&gt;"><path id="_Tracé_2" data-name="&lt;Tracé&gt;" class="cls-2" d="M28.53,23.17c-.33-1.07-2.84-8.26-1.59-8.94-1.64.89-2.73,2.28-4.55,3a6.83,6.83,0,0,1-4.92.28,47,47,0,0,1,.75,8.41c0,2.4-1,4.39-1.91,6.29-1.19,2.58-2,5,.64,8,3,3.41,8,2.46,11.5.33,3.68-2.25,7-5.77,7.32-10.13C31,29.54,29.86,27.45,28.53,23.17Z"/><path id="_Tracé_3" data-name="&lt;Tracé&gt;" class="cls-3" d="M28.54,22.2a20,20,0,0,1-.24-2.72,17.26,17.26,0,0,0,.09-2.12l0-.16c-1.27,1.38-2.39,3.1-4,3.91-.52.27-3.88,2-4.13,1.29.82,2.29,3,1.59,4.34.72s1.84-1.28,2.77.52a13.63,13.63,0,0,0,1.13,2.28c.06.07.79.62.85.46a.09.09,0,0,0,0,0C29.12,24.93,28.77,23.6,28.54,22.2Z"/><path id="_Tracé_4" data-name="&lt;Tracé&gt;" class="cls-4" d="M24.48,9.88c-.92-1.28-.44-2.95-.13-4.29.43-1.89.88-3.49-2.33-3.32-2.2.12-4.07,1.47-5.53,2.68a11.2,11.2,0,0,0-2.91,3.79,18.36,18.36,0,0,0-1.65,10.61c.3,1.61,1,3.71,2.5,4.64,2.21,1.4,3.27-1.52,4.64-3,1.6-1.72,3.53-3.29,5.18-4.93,1.17-1.17,4.31-2.35,2.41-4.42C26,11,25,10.64,24.48,9.88Z"/><path id="_Tracé_5" data-name="&lt;Tracé&gt;" class="cls-2" d="M20.22,3.9a2.19,2.19,0,0,0-.36.09l-.12,0-.1,0a.44.44,0,1,0,.12.88,2.32,2.32,0,0,0,.36-.09l.12,0,.1,0a.44.44,0,1,0-.12-.88Z"/><path id="_Tracé_6" data-name="&lt;Tracé&gt;" class="cls-2" d="M16.78,5.88a1,1,0,0,0-.56.36.44.44,0,1,0,.71.53c-.06.07,0,0,0,0h0a.44.44,0,0,0,.31-.48A.44.44,0,0,0,16.78,5.88Z"/><path id="_Tracé_7" data-name="&lt;Tracé&gt;" class="cls-2" d="M14.91,9.4a.45.45,0,0,0-.62.09,1.93,1.93,0,0,0-.38.77.44.44,0,0,0,.38.5.45.45,0,0,0,.49-.38c0,.06,0-.08,0-.07l0-.08v0L15,10A.45.45,0,0,0,14.91,9.4Z"/><path id="_Tracé_8" data-name="&lt;Tracé&gt;" class="cls-2" d="M14.24,13.15a.44.44,0,0,0-.58.24,1.58,1.58,0,0,0,0,.68.44.44,0,0,0,.88-.12c0-.06,0-.12,0-.18s0-.08,0,0A.45.45,0,0,0,14.24,13.15Z"/><path id="_Tracé_9" data-name="&lt;Tracé&gt;" class="cls-2" d="M21.39,5.7A6.15,6.15,0,0,0,19.21,6a5.94,5.94,0,0,0-3.42,3.66c-.41,1.06-.21,2.38-.41,3.51a13.46,13.46,0,0,0-.43,3.51,10.6,10.6,0,0,0,1.86,4.73c1.35,2.22,3.61,2.21,5.72,1,.95-.55,1.93-1.18,2.83-1.8C31.77,16.27,29.53,5.87,21.39,5.7Z"/><g id="_Groupe_2" data-name="&lt;Groupe&gt;"><path id="_Tracé_10" data-name="&lt;Tracé&gt;" d="M24,11.78a6.29,6.29,0,0,1-1.43-.8c-.15.91-.12,1.81.69,1.93.13,0,1.4.05,2,.12.2,0,.33.05.33.08C25.61,12.11,24.48,11.94,24,11.78Z"/></g><g id="_Groupe_3" data-name="&lt;Groupe&gt;"><path id="_Tracé_11" data-name="&lt;Tracé&gt;" d="M17,11.23c-.6.15-1,.15-.87,1,0-.14,1.48,0,1.6,0a1,1,0,0,0,.46-.13c.33-.21.33-.66.25-1.24A6.09,6.09,0,0,1,17,11.23Z"/></g><path id="_Tracé_12" data-name="&lt;Tracé&gt;" class="cls-3" d="M20.22,13.38c-.27.52-.29,1.16-.53,1.71a1.49,1.49,0,0,1-.38.47,1.86,1.86,0,0,0-.49.54c-.46,1.15,1.07,1,1.55.42S21.24,13.39,20.22,13.38Z"/><g id="_Groupe_4" data-name="&lt;Groupe&gt;"><path id="_Tracé_13" data-name="&lt;Tracé&gt;" class="cls-5" d="M22.31,14.73h0l-.09,0Z"/></g><g id="_Groupe_5" data-name="&lt;Groupe&gt;"><g id="_Groupe_6" data-name="&lt;Groupe&gt;"><path id="_Tracé_14" data-name="&lt;Tracé&gt;" d="M17.44,14.94a.87.87,0,0,1-.92-.08c-.23-.21-.26-.6-.08-1.11l-.38-.13c-.31.9,0,1.35.19,1.54a1.37,1.37,0,0,0,2.18-1H18A.89.89,0,0,1,17.44,14.94Z"/></g></g><g id="_Groupe_7" data-name="&lt;Groupe&gt;"><g id="_Groupe_8" data-name="&lt;Groupe&gt;"><path id="_Tracé_15" data-name="&lt;Tracé&gt;" d="M24.74,14.57a1,1,0,0,1-.61.94,1.09,1.09,0,0,1-1.09,0c-.29-.21-.36-.65-.2-1.22l-.46-.11c-.28,1,.11,1.49.36,1.68a1.59,1.59,0,0,0,1.61.06,1.42,1.42,0,0,0,.87-1.37Z"/></g></g><path id="_Tracé_16" data-name="&lt;Tracé&gt;" class="cls-6" d="M14.86,10.22v0Z"/><path id="_Tracé_17" data-name="&lt;Tracé&gt;" class="cls-7" d="M25,5.14l0,0Z"/><path id="_Tracé_18" data-name="&lt;Tracé&gt;" class="cls-7" d="M30.91,11.68l0,0Z"/><path id="_Tracé_19" data-name="&lt;Tracé&gt;" class="cls-8" d="M29.48,28.35h0Z"/><g id="_Groupe_9" data-name="&lt;Groupe&gt;"><path id="_Tracé_20" data-name="&lt;Tracé&gt;" class="cls-8" d="M17.8,18.45a5.63,5.63,0,0,1,.15,1,.35.35,0,0,0,.35.34.34.34,0,0,0,.32-.37,6.56,6.56,0,0,0-.18-1.13A.34.34,0,1,0,17.8,18.45Z"/><path id="_Tracé_21" data-name="&lt;Tracé&gt;" class="cls-8" d="M20.15,18.79a.35.35,0,0,0-.35-.34.35.35,0,0,0-.32.37,3.27,3.27,0,0,0,.18.9.34.34,0,1,0,.64-.21A2.51,2.51,0,0,1,20.15,18.79Z"/><path id="_Tracé_22" data-name="&lt;Tracé&gt;" class="cls-9" d="M17.74,18.23c.33,1.52.45,2.08,1,2.16a2.65,2.65,0,0,0,3-1.71h-.05A18.14,18.14,0,0,1,17.74,18.23Z"/><path id="_Tracé_23" data-name="&lt;Tracé&gt;" class="cls-3" d="M22.13,18.32c-.17,0,0,.46.08.52h.06S22.23,18.34,22.13,18.32Z"/><path id="_Tracé_24" data-name="&lt;Tracé&gt;" class="cls-3" d="M17.69,17.91s-.31.28-.27.35.31-.21.29-.31Z"/><path id="_Tracé_25" data-name="&lt;Tracé&gt;" class="cls-10" d="M17.94,19.15a3,3,0,0,0,.49,1.26,3.33,3.33,0,0,0,2-.16,3.74,3.74,0,0,0,1-.85A16.91,16.91,0,0,1,17.94,19.15Z"/><path id="_Tracé_26" data-name="&lt;Tracé&gt;" class="cls-11" d="M19.63,19.65c-.46-.06-1.11.29-1.15.73,0,.17.92.11,1,.09A2.59,2.59,0,0,0,20.77,20C20.68,19.86,20,19.7,19.63,19.65Z"/><path id="_Tracé_27" data-name="&lt;Tracé&gt;" class="cls-3" d="M20.6,18.07c-.47-.22-1.08-.51-1.55-.11a4.11,4.11,0,0,0-.37-.26c-.39-.14-.69.38-1,.56,0,0,.63.16.69.18a6,6,0,0,0,.94.14c.64,0,1.31,0,1.46,0h.59a1.56,1.56,0,0,0,.3,0s.2-.1.15-.11A4.18,4.18,0,0,1,20.6,18.07Z"/><path id="_Tracé_28" data-name="&lt;Tracé&gt;" class="cls-3" d="M21.49,19.18a2.06,2.06,0,0,1-.86.89,3.15,3.15,0,0,1-1.36.37,1.25,1.25,0,0,1-1.1-.62,1.35,1.35,0,0,1-.2-.68,1.92,1.92,0,0,0-.22-.86,2.81,2.81,0,0,1,0,.74,2.6,2.6,0,0,0,.13.8A1.82,1.82,0,0,0,19,21a2.33,2.33,0,0,0,2-.69,2.53,2.53,0,0,0,.55-.83,5.39,5.39,0,0,0,.17-.83C21.63,18.68,21.55,19.06,21.49,19.18Z"/></g><path id="_Tracé_29" data-name="&lt;Tracé&gt;" class="cls-4" d="M27.59,2.71a8.2,8.2,0,0,0-4.86-.28c-4.55,1.35,2,5.13,3.15,6.18a7.64,7.64,0,0,1,2.65,5.48c.09,2.34-1.57,5.18,0,7.36-.62-.86,3.92-4,4.34-4.61a8.45,8.45,0,0,0,.39-9.21A12.68,12.68,0,0,0,27.59,2.71Z"/><path id="_Tracé_30" data-name="&lt;Tracé&gt;" class="cls-2" d="M29.13,14.07c-1.62-.2-1.66,2.46-1.91,3.47,0-.14,1-.09,1.6-.09a1.6,1.6,0,0,0,.44,0C30.51,16.87,30.75,14.27,29.13,14.07Z"/><g id="_Groupe_10" data-name="&lt;Groupe&gt;"><path id="_Tracé_31" data-name="&lt;Tracé&gt;" class="cls-3" d="M28.89,15.36c-.07.35-.15.71-.2,1.07.66.3.7-.41.65-.86Z"/></g><path id="_Tracé_32" data-name="&lt;Tracé&gt;" class="cls-2" d="M23.06,4.46l-.37.05a.44.44,0,0,0,.12.88l.37-.05A.44.44,0,0,0,23.06,4.46Z"/><path id="_Tracé_33" data-name="&lt;Tracé&gt;" class="cls-2" d="M25.59,5.56a.47.47,0,1,0,0,.95h.06l.06,0,.07,0h0a.47.47,0,1,0,.67-.67A1.3,1.3,0,0,0,25.59,5.56Z"/><path id="_Tracé_34" data-name="&lt;Tracé&gt;" class="cls-2" d="M28.45,7.73a.47.47,0,1,0-.48.82l0,0h0v0h0v.06a.47.47,0,0,0,.95,0A1.07,1.07,0,0,0,28.45,7.73Z"/><path id="_Tracé_35" data-name="&lt;Tracé&gt;" class="cls-2" d="M29.14,10.42a.48.48,0,0,0-.33.58,2.65,2.65,0,0,1,.19.72.47.47,0,1,0,.95,0,3.17,3.17,0,0,0-.23-1A.48.48,0,0,0,29.14,10.42Z"/><path id="_Tracé_36" data-name="&lt;Tracé&gt;" class="cls-2" d="M31.64,11.14v0a.32.32,0,0,0,0,0,.47.47,0,1,0-.95,0,1.94,1.94,0,0,0,.06.4c0,.06,0,.12,0,.18v.05a.47.47,0,1,0,.95,0,1.89,1.89,0,0,0-.06-.4C31.67,11.26,31.65,11.2,31.64,11.14Z"/><path id="_Tracé_37" data-name="&lt;Tracé&gt;" class="cls-2" d="M31.69,14.61a.48.48,0,0,0-.47.47v.06l0,.06,0,.07h0a.47.47,0,0,0,.67.67,1.3,1.3,0,0,0,.35-.86A.48.48,0,0,0,31.69,14.61Z"/><path id="_Tracé_38" data-name="&lt;Tracé&gt;" class="cls-12" d="M39.13,30.86c-2.42-.87-5.94-3.76-8.54-2.23-2.25,1.33-3.23,5.3-6.42,4.8-3.39-.54-4.82-4.32-8.38-4.71A13.21,13.21,0,0,0,9,29.93C1.1,33.6,3.63,41.11,9.18,45.67c6.44,5.3,16.46,5.25,24.1,2.43,4-1.47,9.59-5,10.76-9.55C44.91,35.18,42,31.89,39.13,30.86Z"/><polygon id="_Tracé_39" data-name="&lt;Tracé&gt;" class="cls-13" points="31.34 29.98 31.37 29.99 31.37 29.97 31.34 29.98"/><path id="_Tracé_40" data-name="&lt;Tracé&gt;" class="cls-13" d="M35.72,30.78v0h-.05Z"/><path id="_Tracé_41" data-name="&lt;Tracé&gt;" class="cls-14" d="M31.29,27.61a7.92,7.92,0,0,0-1.18-.51c-.9,2.8-4.38,3.82-7,3.19A10.27,10.27,0,0,1,18,27.42c-1.21.79-2,.65-1.12,2.26,2.67,4.6,10.34,5.47,13.94,1.59.82-.88,1.72-1.95,1.49-3.23A3.67,3.67,0,0,1,31.29,27.61Z"/><path id="_Tracé_42" data-name="&lt;Tracé&gt;" class="cls-15" d="M36,38.53l.09,0-.15-.08Z"/><path id="_Tracé_43" data-name="&lt;Tracé&gt;" class="cls-16" d="M30.18,38l-.07-.1Z"/><path id="_Tracé_44" data-name="&lt;Tracé&gt;" class="cls-17" d="M30.33,35.14l.07.12,0-.11Z"/><path id="_Tracé_45" data-name="&lt;Tracé&gt;" class="cls-12" d="M26.46,30.5a.9.9,0,0,0-.89.89v.67a.89.89,0,1,0,1.78,0v-.67A.9.9,0,0,0,26.46,30.5Z"/><path id="_Tracé_46" data-name="&lt;Tracé&gt;" class="cls-12" d="M29.07,29.81a.9.9,0,0,0-.89.89,1.54,1.54,0,0,0,.07.57,1.25,1.25,0,0,0,.12.26,1.07,1.07,0,0,0,.92.51.89.89,0,0,0,.89-.89.86.86,0,0,0-.24-.6A.9.9,0,0,0,29.07,29.81Z"/><path id="_Tracé_47" data-name="&lt;Tracé&gt;" class="cls-12" d="M31.62,28.07a.87.87,0,0,0-.78-.48.89.89,0,0,0-.89.89,1.14,1.14,0,0,0,.34.81,2.5,2.5,0,0,0,.35.25l0,0a.89.89,0,1,0,1.26-1.26A2.19,2.19,0,0,0,31.62,28.07Z"/><path id="_Tracé_48" data-name="&lt;Tracé&gt;" class="cls-12" d="M23.3,30.7a.9.9,0,0,0-.89.89v.22a.89.89,0,1,0,1.78,0v-.22A.9.9,0,0,0,23.3,30.7Z"/><path id="_Tracé_49" data-name="&lt;Tracé&gt;" class="cls-4" d="M21.19,31.83a7.85,7.85,0,0,0-1.3-1.71,3.59,3.59,0,0,0-1.32-.73c-.94-.39-2.2-.89-2.5-2-.22-.8.61-1.58.48-2.4-.1-.66-1-1.19-1.59-1.29-.44-.07-.86.24-1.25.39l-1.4.55a11.89,11.89,0,0,0-2.76,1.42A7.18,7.18,0,0,0,7,32a6,6,0,0,0,4,4.71c.82.31,1.94.23,2.62.84A2.24,2.24,0,0,1,14,40.18c-.23.64-.16,1.57.73,1.44a7.41,7.41,0,0,0,1.61-.26c.85-.32,1.64-.89,2.46-1.29a5.1,5.1,0,0,0,2.06-1.73,6.25,6.25,0,0,0,.66-5.82Q21.36,32.15,21.19,31.83Z"/><path id="_Tracé_50" data-name="&lt;Tracé&gt;" class="cls-18" d="M15.59,23.84a3.22,3.22,0,0,1-2.11-.64,1.87,1.87,0,0,0-.15.23l.08,0a2,2,0,0,0-.12,1.19,2.28,2.28,0,0,0,3,.64,1.43,1.43,0,0,0,.44-1.55A6.59,6.59,0,0,1,15.59,23.84Z"/><path id="_Tracé_51" data-name="&lt;Tracé&gt;" class="cls-2" d="M13.94,26.51a2.15,2.15,0,0,0-.28,1.19.47.47,0,0,0,.95,0,1.19,1.19,0,0,1,.15-.71C15.08,26.47,14.26,26,13.94,26.51Z"/><path id="_Tracé_52" data-name="&lt;Tracé&gt;" class="cls-2" d="M16.89,29.66A1.67,1.67,0,0,1,15.84,29a.47.47,0,0,0-.67,0,.48.48,0,0,0,0,.67,2.46,2.46,0,0,0,1.47.86C17.24,30.7,17.49,29.79,16.89,29.66Z"/><path id="_Tracé_53" data-name="&lt;Tracé&gt;" class="cls-2" d="M19.33,31.57a.48.48,0,0,0-.58-.33.48.48,0,0,0-.33.58,8,8,0,0,0,.36,1,.48.48,0,0,0,.65.17.48.48,0,0,0,.17-.65A6.67,6.67,0,0,1,19.33,31.57Z"/><path id="_Tracé_54" data-name="&lt;Tracé&gt;" class="cls-2" d="M19.61,34.59a.48.48,0,0,0-.47.47q0,.12,0,.24s0,.08,0,.09-.05.14,0,.07a.48.48,0,0,0,.17.65.48.48,0,0,0,.65-.17,2,2,0,0,0,.17-.87A.48.48,0,0,0,19.61,34.59Z"/><path id="_Tracé_55" data-name="&lt;Tracé&gt;" class="cls-2" d="M15.93,39.22a.45.45,0,0,0-.39.22h0a.47.47,0,0,0,.09.94.94.94,0,0,0,.45-.14.68.68,0,0,0,.34-.55A.47.47,0,0,0,15.93,39.22Z"/><path id="_Tracé_56" data-name="&lt;Tracé&gt;" class="cls-2" d="M18.45,37.64a.71.71,0,0,0-.68.68.48.48,0,0,0,.47.47.46.46,0,0,0,.42-.27.46.46,0,0,0,.27-.42A.48.48,0,0,0,18.45,37.64Z"/><path id="_Tracé_57" data-name="&lt;Tracé&gt;" class="cls-2" d="M16.79,35.87a.48.48,0,0,0-.58.33,1.36,1.36,0,0,1-.19.51.63.63,0,0,1-.12.13,1.13,1.13,0,0,1-.21.13c-.54.28-.06,1.1.48.82a1.87,1.87,0,0,0,1-1.34A.48.48,0,0,0,16.79,35.87Z"/><path id="_Tracé_58" data-name="&lt;Tracé&gt;" class="cls-2" d="M16.86,33.35l0-.06-.06-.18a1.45,1.45,0,0,0-.31-.49.47.47,0,0,0-.67.67l0,0,0,0,0,0v0c0,.13.09.27.15.39a.48.48,0,0,0,.65.17.48.48,0,0,0,.17-.65Z"/><path id="_Tracé_59" data-name="&lt;Tracé&gt;" class="cls-2" d="M13.53,30.31a.47.47,0,0,0-.67.67c.23.23.4.5.63.74a.47.47,0,1,0,.67-.67C13.93,30.82,13.75,30.54,13.53,30.31Z"/><path id="_Tracé_60" data-name="&lt;Tracé&gt;" class="cls-2" d="M12,26.63a2.84,2.84,0,0,0-.49.73.48.48,0,0,0,.17.65.48.48,0,0,0,.65-.17l.15-.28.09-.14h0l.1-.11a.47.47,0,0,0-.67-.67Z"/><path id="_Tracé_61" data-name="&lt;Tracé&gt;" class="cls-2" d="M10.22,27.5a2.1,2.1,0,0,0-.85,1.23.47.47,0,0,0,.91.25,1.13,1.13,0,0,1,.41-.66.48.48,0,0,0,.17-.65A.48.48,0,0,0,10.22,27.5Z"/><path id="_Tracé_62" data-name="&lt;Tracé&gt;" class="cls-2" d="M11.43,32.24c-.25-.13-.49-.29-.74-.42A.48.48,0,0,0,10,32a.48.48,0,0,0,.17.65c.25.13.48.29.74.42a.47.47,0,0,0,.48-.82Z"/><path id="_Tracé_63" data-name="&lt;Tracé&gt;" class="cls-2" d="M14,33.71a.47.47,0,0,0-.48.82l.14.09h0l.05,0,.22.21a.47.47,0,1,0,.67-.67A2.66,2.66,0,0,0,14,33.71Z"/><path id="_Tracé_64" data-name="&lt;Tracé&gt;" class="cls-2" d="M14.35,36.91a.48.48,0,0,0-.47.47v.21a.47.47,0,1,0,.95,0v-.21A.48.48,0,0,0,14.35,36.91Z"/><path id="_Tracé_65" data-name="&lt;Tracé&gt;" class="cls-2" d="M10.35,34.28h0l0,0-.13-.13a.47.47,0,0,0-.67.67,1.23,1.23,0,0,0,.86.45.47.47,0,0,0,0-.95Z"/><path id="_Tracé_66" data-name="&lt;Tracé&gt;" class="cls-2" d="M8.44,30.82c.1-.6-.83-.73-.94-.13a2,2,0,0,0,.15,1.19c.25.55,1.13.19.87-.37A1.1,1.1,0,0,1,8.44,30.82Z"/><path id="_Tracé_67" data-name="&lt;Tracé&gt;" class="cls-14" d="M35.07,31a6,6,0,0,0-2-.76.6.6,0,0,0-.72.41.59.59,0,0,0,.41.72,5.07,5.07,0,0,1,1.73.64A.59.59,0,0,0,35.07,31Z"/><path id="_Tracé_68" data-name="&lt;Tracé&gt;" class="cls-14" d="M39.52,33.37c-.2-.1-.38-.25-.59-.35a.6.6,0,0,0-.8.21.59.59,0,0,0,.21.8c.2.1.38.25.59.35a.59.59,0,0,0,.8-.21A.59.59,0,0,0,39.52,33.37Z"/><path id="_Tracé_69" data-name="&lt;Tracé&gt;" class="cls-14" d="M34.6,34.78c-.6-.37-1.16-.8-1.76-1.17s-1.24.62-.59,1,1.16.8,1.76,1.17S35.24,35.17,34.6,34.78Z"/><path id="_Tracé_70" data-name="&lt;Tracé&gt;" class="cls-14" d="M39.05,38.53a5,5,0,0,1-1.64-1.31.59.59,0,0,0-.83,0,.6.6,0,0,0,0,.83,5.84,5.84,0,0,0,1.88,1.5C39.13,39.88,39.73,38.87,39.05,38.53Z"/><path id="_Tracé_71" data-name="&lt;Tracé&gt;" class="cls-14" d="M29.6,35.83a.59.59,0,0,0-1.13.31A4.35,4.35,0,0,0,29,37.45a.59.59,0,0,0,1-.59A3.23,3.23,0,0,1,29.6,35.83Z"/><path id="_Tracé_72" data-name="&lt;Tracé&gt;" class="cls-14" d="M32,40.26a.59.59,0,0,0-.83.83,7.34,7.34,0,0,1,1.43,1.76c.35.67,1.36.08,1-.59A8.37,8.37,0,0,0,32,40.26Z"/><path id="_Tracé_73" data-name="&lt;Tracé&gt;" class="cls-14" d="M26.37,37.64l0-.09h0c0-.13,0-.26,0-.38a.59.59,0,0,0-1.17,0,2.6,2.6,0,0,0,.2,1.12.59.59,0,0,0,.8.21.6.6,0,0,0,.21-.8C26.44,37.81,26.38,37.66,26.37,37.64Z"/><path id="_Tracé_74" data-name="&lt;Tracé&gt;" class="cls-14" d="M26,42.35a6.6,6.6,0,0,1,.45,2,.59.59,0,0,0,1.17,0A7.6,7.6,0,0,0,27.14,42C26.9,41.33,25.77,41.63,26,42.35Z"/><path id="_Tracé_75" data-name="&lt;Tracé&gt;" class="cls-14" d="M22.82,42a.59.59,0,0,0-1.17,0,12.9,12.9,0,0,0,.14,2.38.59.59,0,0,0,.72.41.6.6,0,0,0,.41-.72A11.3,11.3,0,0,1,22.82,42Z"/><path id="_Tracé_76" data-name="&lt;Tracé&gt;" class="cls-14" d="M12.89,44.62,12.54,46a.59.59,0,0,0,1.13.31L14,44.93A.59.59,0,0,0,12.89,44.62Z"/><path id="_Tracé_77" data-name="&lt;Tracé&gt;" class="cls-14" d="M8.71,39.35a.59.59,0,0,0-.8.21,4.15,4.15,0,0,0-.55,1.7c0,.76,1.15.75,1.17,0a2.79,2.79,0,0,1,.39-1.11A.6.6,0,0,0,8.71,39.35Z"/><path id="_Tracé_78" data-name="&lt;Tracé&gt;" class="cls-14" d="M5.31,37.09a1.22,1.22,0,0,0-.19.26l-.06.12a.59.59,0,0,0,.85.81A1.22,1.22,0,0,0,6.09,38l.06-.12a.59.59,0,0,0-.85-.81Z"/><path id="_Tracé_79" data-name="&lt;Tracé&gt;" class="cls-14" d="M19.19,43.72a.59.59,0,0,0-.59.59V45a.59.59,0,0,0,1.17,0v-.7A.59.59,0,0,0,19.19,43.72Z"/><path id="_Tracé_80" data-name="&lt;Tracé&gt;" class="cls-3" d="M24.26,7.39c-.49-.4-.82-1-1.34-1.32a3.55,3.55,0,0,0-2.64-.4A6.08,6.08,0,0,0,15.9,9.17a3,3,0,0,0-.3,2.09C15.73,9.77,17,8.4,18.12,7.51a4.58,4.58,0,0,1,2.71-.93,3.35,3.35,0,0,1,1.42.26c1.23.52,2,1.68,3,2.57a9.39,9.39,0,0,1,1.84,2.12c.19.34.4.62.62.94s.38,1,.69,1.44c.36-1.4-.71-3.37-1.56-4.43A16.34,16.34,0,0,0,24.26,7.39Z"/></g></svg>