<svg id="Calque_1" data-name="Calque 1" xmlns="http://www.w3.org/2000/svg" viewBox="0 0 50 50"><defs><style>.cls-1{fill:#d9c2f0;}.cls-2{fill:#8fbdcb;}.cls-3{fill:#fff;}.cls-4{fill:none;}.cls-5{fill:#62342d;}.cls-6{fill:#e0dfe5;}.cls-7{fill:#b3897e;}.cls-8{fill:#e29a81;}.cls-9{fill:#714e46;}.cls-10{fill:#e0b3a7;}.cls-11{fill:#e3bdb1;}.cls-12{fill:#917377;}.cls-13{fill:#595959;}.cls-14{fill:#659bc0;}.cls-15{fill:#085ebd;}.cls-16{fill:#492191;}.cls-17{fill:#4bb4e6;}</style></defs><title>Icone Homme</title><circle id="_Tracé_" data-name="&lt;Tracé&gt;" class="cls-1" cx="25.5" cy="23.54" r="23.54"/><g id="_Groupe_" data-name="&lt;Groupe&gt;"><g id="_Groupe_2" data-name="&lt;Groupe&gt;"><path id="_Tracé_2" data-name="&lt;Tracé&gt;" class="cls-2" d="M30.62,31.4h0S30.61,31.41,30.62,31.4Z"/></g><g id="_Groupe_3" data-name="&lt;Groupe&gt;"><path id="_Tracé_3" data-name="&lt;Tracé&gt;" class="cls-2" d="M30.6,31.41l0-.12v0Z"/></g><g id="_Groupe_4" data-name="&lt;Groupe&gt;"><path id="_Tracé_4" data-name="&lt;Tracé&gt;" class="cls-3" d="M29.36,33.49s0,.08,0,0c-.21.5.72.74.85.28S29.49,33.17,29.36,33.49Z"/></g><g id="_Groupe_5" data-name="&lt;Groupe&gt;"><path id="_Tracé_5" data-name="&lt;Tracé&gt;" class="cls-4" d="M29.36,33.32s0,.08,0,0c-.21.5.72.74.85.28S29.49,33,29.36,33.32Z"/></g><path id="_Tracé_6" data-name="&lt;Tracé&gt;" d="M28.22,2.83a9.84,9.84,0,0,0-6.32-.42,8.11,8.11,0,0,0-2.35,1,5,5,0,0,0-2.34,4.86,6.14,6.14,0,0,0,.88,3.11c.45-1.5.46-2.67,1.63-3.81a9.56,9.56,0,0,1,2-1.48,20.63,20.63,0,0,1,4.06-1.62,9.63,9.63,0,0,1,2.09-.42c.37,0,1.32.24,1.62,0C30,3.65,28.57,3,28.22,2.83Z"/><path id="_Tracé_7" data-name="&lt;Tracé&gt;" class="cls-5" d="M30.5,14.35c-.07-.93.34-5.74.06-6.61-.8-2.41-5.55,1.19-7.06,1.87a9.62,9.62,0,0,0-2.39,1.61c-1.26,1.19-1.85.84-1.48,2.4.76,3.22.15,7.87-.27,11.2a21.27,21.27,0,0,0-.5,2.43c0,.84.88,1.53,1.36,2.24A5.49,5.49,0,0,0,26,31.87a8.59,8.59,0,0,0,4.64-2.31c1-1.12,1.12-2.6,2.61-3C30.31,26.93,30.67,16.6,30.5,14.35Z"/><polygon id="_Tracé_8" data-name="&lt;Tracé&gt;" class="cls-6" points="25.88 17.55 25.92 17.53 25.89 17.54 25.88 17.55"/><path id="_Tracé_9" data-name="&lt;Tracé&gt;" class="cls-7" d="M27.67,6.95l-.15.2Z"/><path id="_Tracé_10" data-name="&lt;Tracé&gt;" class="cls-7" d="M27.92,6.7l0-.12-.27.37A1.81,1.81,0,0,1,27.92,6.7Z"/><path id="_Tracé_11" data-name="&lt;Tracé&gt;" class="cls-8" d="M28,16.26a2.23,2.23,0,0,0-.19.26l.21-.28.06-.07h0Z"/><path id="_Tracé_12" data-name="&lt;Tracé&gt;" class="cls-9" d="M31.54,11.18c-.48-.27-1.14-.12-1.53-.56a4.64,4.64,0,0,1-.85-2.82,10.3,10.3,0,0,0-.67-3.9c-.61-1.43-1.94-1.21-3-.64-.78.43-1.69.28-2.48.62a12.75,12.75,0,0,1-1.7.7,4.35,4.35,0,0,0-2.68,1.66C17.56,8,18.26,10.12,17.58,12a3.91,3.91,0,0,0,.67,3.84,11.26,11.26,0,0,1,.62,2c.17.46.38,1,.63,1.63.6,1.38,1.25,2.34,2.73,2.47a7.27,7.27,0,0,0,3.43-.92,7.13,7.13,0,0,0,3.5-2.72c.64-1.12.73-2.6,2-3.24a2.59,2.59,0,0,0,1.21-2.65A1.67,1.67,0,0,0,31.54,11.18Z"/><path id="_Tracé_13" data-name="&lt;Tracé&gt;" d="M25.07,8.58a6.11,6.11,0,0,1-1.36-.29c0,.72,1,1.19.89,1.2.12,0,1.23-.22,1.78-.28.18,0,.29,0,.3,0C26.56,8.5,25.55,8.59,25.07,8.58Z"/><path id="_Tracé_14" data-name="&lt;Tracé&gt;" class="cls-5" d="M30.66,12.58c-.05.45-.07.91-.09,1.36l.59-.11C31.34,13.3,31.51,12.42,30.66,12.58Z"/><path id="_Tracé_15" data-name="&lt;Tracé&gt;" d="M19,8.68c-.51.23-.88.31-.64,1,0-.11,1.32-.27,1.42-.3a1,1,0,0,0,.39-.19c.27-.24.2-.6.05-1.07C20.39,8.49,19.86,8.32,19,8.68Z"/><polygon id="_Tracé_16" data-name="&lt;Tracé&gt;" class="cls-10" points="26.82 12.9 26.82 12.89 26.82 12.9 26.82 12.9"/><path id="_Tracé_17" data-name="&lt;Tracé&gt;" class="cls-11" d="M29.16,10.78v0Z"/><path id="_Tracé_18" data-name="&lt;Tracé&gt;" class="cls-12" d="M23.43,18.17c-.33,0-.35.55,0,.55S23.76,18.17,23.43,18.17Z"/><path id="_Tracé_19" data-name="&lt;Tracé&gt;" class="cls-9" d="M24.23,16.51c-1-.24-3.37-1.19-4.18,0A2.13,2.13,0,0,0,20.64,19a2.51,2.51,0,0,0,2.12.16c1-.32,2.36-1.33,1.81-2.51Z"/><path id="_Tracé_20" data-name="&lt;Tracé&gt;" class="cls-5" d="M24.36,15.91c-.19,0,0,.51.16.56h.06S24.48,15.91,24.36,15.91Z"/><path id="_Tracé_21" data-name="&lt;Tracé&gt;" class="cls-5" d="M20,15.93s-.3.35-.24.42S20,16.09,20,16Z"/><path id="_Tracé_22" data-name="&lt;Tracé&gt;" d="M33.13,16.11A10.26,10.26,0,0,0,35,9.7a14.64,14.64,0,0,0-.47-2.3A7.41,7.41,0,0,0,28.77,2a9.07,9.07,0,0,0-2.3-.26,6.55,6.55,0,0,0-2.7.58,3.66,3.66,0,0,0-2,2.13c2.47.12,5.2.67,6.53,3.08a6.86,6.86,0,0,1,.69,2.5c.06.45.08,1.57.62,1.76.16.06.9-.45,1.22-.46,2.3-.12,1.61,3.7-.25,3.65-.18.8-1.24,4-.37,4.55a1,1,0,0,0,.3.13C30.92,18.33,32.31,17.12,33.13,16.11Z"/><path id="_Tracé_23" data-name="&lt;Tracé&gt;" class="cls-13" d="M18.32,4.95a1.38,1.38,0,0,0-.63.65c-.19.39.41.66.6.27,0,0,0-.08,0,0l0,0,.09-.11,0,0,0,0,0,0a.35.35,0,0,0,.19-.43A.33.33,0,0,0,18.32,4.95Z"/><path id="_Tracé_24" data-name="&lt;Tracé&gt;" d="M26,10.73a1.44,1.44,0,0,0-1.51-.16c-.27.15-.7.57-.59,1.6l.45,0c-.06-.58.07-1,.36-1.17a1.07,1.07,0,0,1,1.45,1.15l.44.09A1.42,1.42,0,0,0,26,10.73Z"/><path id="_Tracé_25" data-name="&lt;Tracé&gt;" d="M20.27,11.07a1.29,1.29,0,0,0-1.36-.14c-.24.14-.63.51-.53,1.44l.4,0c-.06-.52.06-.9.33-1a1,1,0,0,1,1.3,1l.4.08A1.27,1.27,0,0,0,20.27,11.07Z"/><path id="_Tracé_26" data-name="&lt;Tracé&gt;" class="cls-3" d="M20.3,16.73c0,.07,0,.15,0,.22a1.44,1.44,0,0,0,1.77,1.63c.82-.13,2.24-.8,2-1.75C24,16.39,20.28,16.9,20.3,16.73Z"/><path id="_Tracé_27" data-name="&lt;Tracé&gt;" class="cls-5" d="M21.37,11c-.24.67-.17,1.43-.38,2.12a1.83,1.83,0,0,1-.38.62,2.29,2.29,0,0,0-.5.72c-.38,1.44,1.43,1.05,1.92.25C22.39,14.13,22.6,10.87,21.37,11Z"/><path id="_Tracé_28" data-name="&lt;Tracé&gt;" class="cls-5" d="M24.71,5c-.94-.3-2.14-.14-3-.73A9.45,9.45,0,0,1,20.17,5a3.9,3.9,0,0,0-1.88,2.14C18.18,7.45,18.1,8.9,18,9c.86-.83.75-2.32,1.65-3.05a5.24,5.24,0,0,1,1.81-1c.42,0,1.28.52,1.77.65,1.18.3,2.41.4,3.3,1.34a9.77,9.77,0,0,1,1.56,2.39c.32.66.61,1.43,1,2A5.86,5.86,0,0,0,28,7.1,6.64,6.64,0,0,0,24.71,5Z"/><path id="_Tracé_29" data-name="&lt;Tracé&gt;" class="cls-14" d="M15.15,28.81a12.76,12.76,0,0,0-4.4,1.46l.11.36c.25.55.53,1.08.81,1.61s.53,1.09.82,1.62a17.47,17.47,0,0,0,1.05,1.72l.32.45.13.17h0c.19.24.39.48.59.71a17.35,17.35,0,0,0,1.35,1.37c.25.22.5.44.76.65l.16.13h0l.37.27a16.54,16.54,0,0,0,1.87,1.12c.34.18.68.35,1,.51l.49.22.16.07.11,0,.3.12.74-1.26c1.67-2.8,1.7-5.69-.61-8.13C19.74,30.4,17.54,28.49,15.15,28.81Z"/><path id="_Tracé_30" data-name="&lt;Tracé&gt;" class="cls-15" d="M43.86,31.15a38.5,38.5,0,0,0-4.58-2.93c-1.34-.75-3.22-1.89-4.78-1.94-2-.06-3.59,1.51-5.46,2.19-2.28.82-4.55,1.48-6.95.76-1.47-.44-2.89-1.69-4.37-1.92-4.8-.75-14.4,4.75-12.47,10.55,2.42,7.27,9.51,10.82,16.3,11.84,8.52,1.27,19.94-1.39,25.6-8.61C50.45,36.89,47.48,33.91,43.86,31.15Z"/><path id="_Tracé_31" data-name="&lt;Tracé&gt;" class="cls-16" d="M33.08,24.89a36.25,36.25,0,0,1-3.47,2,12.58,12.58,0,0,1-8,.38,5.26,5.26,0,0,1-1.47-.74c-.36-.28-.62-.87-1.13-.93a5.14,5.14,0,0,0-3.54,1.44c-.15,1.2,3.43,3.53,6.93,4.21A15.79,15.79,0,0,0,33.19,29.5c.6-.36,3.14-2.34,2.72-3.07S33.87,25.34,33.08,24.89Z"/><path id="_Tracé_32" data-name="&lt;Tracé&gt;" class="cls-15" d="M33.22,26a.4.4,0,0,0-.54.59,8.4,8.4,0,0,1,.83,1,.41.41,0,0,0,.56.12.4.4,0,0,0,.12-.56A9.87,9.87,0,0,0,33.22,26Z"/><path id="_Tracé_33" data-name="&lt;Tracé&gt;" class="cls-15" d="M32.07,28.08,32,28a1.19,1.19,0,0,1-.43-.57.41.41,0,0,0-.51-.26.4.4,0,0,0-.26.51,2,2,0,0,0,.81,1,.38.38,0,0,0,.25.07.37.37,0,0,0,.36-.3A.36.36,0,0,0,32.07,28.08Z"/><path id="_Tracé_34" data-name="&lt;Tracé&gt;" class="cls-15" d="M29.66,28.17c-.19-.48-1-.23-.77.25a5.13,5.13,0,0,0,.58,1.15c.3.42,1,0,.68-.44A4.23,4.23,0,0,1,29.66,28.17Z"/><path id="_Tracé_35" data-name="&lt;Tracé&gt;" class="cls-15" d="M27.87,28.37a.4.4,0,0,0-.81,0,11.12,11.12,0,0,0,.24,2c.12.5.89.25.77-.25A9.93,9.93,0,0,1,27.87,28.37Z"/><path id="_Tracé_36" data-name="&lt;Tracé&gt;" class="cls-15" d="M24.93,28.43a3.2,3.2,0,0,0-.18,2c.11.5.88.25.77-.25a2.27,2.27,0,0,1,.13-1.38C25.85,28.33,25.13,28,24.93,28.43Z"/><path id="_Tracé_37" data-name="&lt;Tracé&gt;" class="cls-15" d="M22.87,28.41A10.37,10.37,0,0,1,22,29.9a.4.4,0,0,0,.17.54.42.42,0,0,0,.55-.17,10.37,10.37,0,0,0,.9-1.49C23.8,28.31,23.08,27.94,22.87,28.41Z"/><path id="_Tracé_38" data-name="&lt;Tracé&gt;" class="cls-15" d="M20.84,27.83a6.76,6.76,0,0,0-.62,1.07c-.26.45.46.81.72.37a5.75,5.75,0,0,1,.5-.91C21.77,28,21.17,27.44,20.84,27.83Z"/><path id="_Tracé_39" data-name="&lt;Tracé&gt;" class="cls-15" d="M19.09,27a2.43,2.43,0,0,1-.76.66.4.4,0,1,0,.25.76,3.27,3.27,0,0,0,1.11-.88C20,27.11,19.44,26.57,19.09,27Z"/><path id="_Tracé_40" data-name="&lt;Tracé&gt;" class="cls-17" d="M32.68,33C27,34.86,21,33.9,15.62,31.72c-1.77-.72-2.72,2.32-1,3,5.83,2.36,12.52,3.38,18.62,1.39C35.08,35.56,34.5,32.43,32.68,33Z"/><ellipse id="_Tracé_41" data-name="&lt;Tracé&gt;" cx="25.47" cy="11.43" rx="0.48" ry="0.49" transform="translate(-0.62 1.49) rotate(-3.3)"/><path id="_Tracé_42" data-name="&lt;Tracé&gt;" d="M19.76,11.38a.39.39,0,0,0-.37.42.41.41,0,0,0,.45.35.39.39,0,0,0,.37-.42A.4.4,0,0,0,19.76,11.38Z"/><path id="_Tracé_43" data-name="&lt;Tracé&gt;" class="cls-17" d="M32.65,40.08c-6.26,1.62-12.9.42-18.79-2-1.94-.79-3.05,2.22-1.13,3C19.11,43.7,26.47,45,33.24,43.23,35.24,42.71,34.67,39.56,32.65,40.08Z"/><path id="_Tracé_44" data-name="&lt;Tracé&gt;" class="cls-17" d="M41.62,35.68a1.59,1.59,0,0,0-1,.43l-2.66,2.13a1.48,1.48,0,0,0,1,2.52,1.59,1.59,0,0,0,1-.43l2.66-2.13a1.48,1.48,0,0,0-1-2.52Z"/><path id="_Tracé_45" data-name="&lt;Tracé&gt;" class="cls-17" d="M37.86,30.57l-.3.17a1.48,1.48,0,0,0,.16,2.94,2.65,2.65,0,0,0,1.12-.28c.18-.08.34-.19.51-.28a1.49,1.49,0,0,0,.53-2A1.5,1.5,0,0,0,37.86,30.57Z"/><path id="_Tracé_46" data-name="&lt;Tracé&gt;" class="cls-13" d="M27,3.72a7.06,7.06,0,0,0-1.38-.51.35.35,0,0,0-.19.68,6.17,6.17,0,0,1,1.22.44C27,4.54,27.38,3.92,27,3.72Z"/><path id="_Tracé_47" data-name="&lt;Tracé&gt;" class="cls-13" d="M29.26,5.82a.36.36,0,0,0-.44-.25.36.36,0,0,0-.25.44,2.65,2.65,0,0,0,.68,1,.35.35,0,0,0,.5-.5A1.89,1.89,0,0,1,29.26,5.82Z"/><path id="_Tracé_48" data-name="&lt;Tracé&gt;" class="cls-13" d="M31.41,9.32h0l-.05-.1A1,1,0,0,0,31.18,9a.35.35,0,1,0-.5.5h0l.05.1a1,1,0,0,0,.16.23.35.35,0,1,0,.5-.5Z"/><path id="_Tracé_49" data-name="&lt;Tracé&gt;" class="cls-13" d="M32.53,15.54a.36.36,0,0,0-.49.13,1.44,1.44,0,0,0-.17.65.35.35,0,0,0,.71,0v-.1l0-.1v0l0-.06A.36.36,0,0,0,32.53,15.54Z"/><path id="_Tracé_50" data-name="&lt;Tracé&gt;" class="cls-13" d="M30.76,4.32c-.26-.37-.87,0-.61.36s.57.69.83,1.06.87,0,.61-.36S31,4.69,30.76,4.32Z"/><path id="_Tracé_51" data-name="&lt;Tracé&gt;" class="cls-13" d="M33.28,8.78c-.14-.43-.83-.25-.68.19L33,10c.14.43.83.25.68-.19Z"/><path id="_Tracé_52" data-name="&lt;Tracé&gt;" class="cls-13" d="M33.53,9.34a.36.36,0,0,0-.35.35v.47a.35.35,0,0,0,.71,0V9.69A.36.36,0,0,0,33.53,9.34Z"/></g></svg>