<svg id="Calque_1" data-name="Calque 1" xmlns="http://www.w3.org/2000/svg" viewBox="0 0 50 50"><defs><style>.cls-1{fill:#fff6b6;}.cls-2{fill:#714e46;}.cls-3{fill:#62342d;}.cls-4{fill:#80c9a5;}.cls-5{fill:#cfe9d9;}.cls-6{fill:#483137;}.cls-7{fill:#c3e7f2;}.cls-8{fill:#f3e0d7;}.cls-9{fill:#e1b5a8;}.cls-10{fill:#e4bdb1;}.cls-11{fill:#364044;}.cls-12{fill:#595959;}.cls-13{fill:#fff;}.cls-14{fill:#ff8ad4;}.cls-15{fill:#a885d8;}.cls-16{fill:#492191;}.cls-17{fill:#ebf1f1;}.cls-18{fill:#c0dddf;}</style></defs><title>Icone Jeunefemme</title><circle id="_Tracé_" data-name="&lt;Tracé&gt;" class="cls-1" cx="25.94" cy="22.6" r="21.98"/><g id="_Groupe_" data-name="&lt;Groupe&gt;"><path id="_Tracé_2" data-name="&lt;Tracé&gt;" d="M31.24,2.64a6.7,6.7,0,0,0-5.81-.56c-.75.33-.88,1.06-1.31,1.33A4.75,4.75,0,0,1,23,3.83c.05,0,2.11.49,2.31.54a8.77,8.77,0,0,1,2.36.9c1.84,1,2.5,3.4,2.85,5.36.28,1.55-.28,2.78-.62,4.25q-.06.28-.11.57A8,8,0,0,0,30.64,21c.66,1,3.94,2.34,4.59.71.33-.83-.79-2.48-.81-3.44s.6-1.91.88-2.94c.63-2.35,1.63-5.12.9-7.56S33.34,3.74,31.24,2.64Z"/><g id="_Groupe_2" data-name="&lt;Groupe&gt;"><path id="_Tracé_3" data-name="&lt;Tracé&gt;" class="cls-2" d="M33.53,18c-1.57-.43-3.17-.08-4.76-.21-2.2-.18-4.41-.59-4.85,2.06-.29,1.76-.41,3.6-.63,5.39-.09.67-.19,1.33-.32,2-.49,2.41-2,4.37-.54,6.84,1.8,3,8.39,1.47,10.45-.42,2.28-2.09,1.51-5,.86-7.52C33.59,25.56,33.2,17.92,33.53,18Z"/></g><path id="_Tracé_4" data-name="&lt;Tracé&gt;" class="cls-3" d="M25,17.71c-1.1,3.32,2.34,5,4.82,5.72,3.34.93,3.66-1.3,3.52-4C30.52,20.46,27.65,18.42,25,17.71Z"/><path id="_Tracé_5" data-name="&lt;Tracé&gt;" class="cls-4" d="M24.85,12a.65.65,0,0,0-.22.89.63.63,0,0,0,.63.3.63.63,0,0,0,.7,0,.65.65,0,0,0,.22-.89A1,1,0,0,0,24.85,12Z"/><path id="_Tracé_6" data-name="&lt;Tracé&gt;" class="cls-5" d="M28,16.56a.57.57,0,0,0-.35,1.07l0,0s.05.06,0,0l.08.11c.11.15.2.3.29.46a.57.57,0,0,0,1-.59A2.17,2.17,0,0,0,28,16.56Z"/><g id="_Groupe_3" data-name="&lt;Groupe&gt;"><path id="_Tracé_7" data-name="&lt;Tracé&gt;" class="cls-6" d="M26.66,12.28a.73.73,0,0,0,.24.64.73.73,0,0,0,1,.13C28.46,12.61,26.71,12,26.66,12.28Z"/></g><g id="_Groupe_4" data-name="&lt;Groupe&gt;"><path id="_Tracé_8" data-name="&lt;Tracé&gt;" class="cls-7" d="M32.52,12.4l0,0-.1,0Z"/></g><path id="_Tracé_9" data-name="&lt;Tracé&gt;" class="cls-7" d="M33.16,11.7l0,0-.1,0Z"/><path id="_Tracé_10" data-name="&lt;Tracé&gt;" class="cls-2" d="M34.78,9.4A8,8,0,0,0,33,6.32a9,9,0,0,0-4.23-1.9,4.19,4.19,0,0,0-3.62,1.7c-1.1,1.44-.54,4-1.25,5.63-.38.89-1.32,1.21-1.67,2a2.24,2.24,0,0,0,1.26,2.73c1.15.4,1.39,1.65,2.07,2.53A6.2,6.2,0,0,0,28.93,21a6.46,6.46,0,0,0,3.09.38c1.86-.42,3-2.67,3.44-4.35.33-1.28-.26-2.43-.52-3.66C34.63,11.9,35.26,10.82,34.78,9.4Z"/><g id="_Groupe_5" data-name="&lt;Groupe&gt;"><path id="_Tracé_11" data-name="&lt;Tracé&gt;" d="M28,10.48c-.4.1-1.24.21-1.22.78,0,0,.1,0,.25-.05.46,0,1.42-.08,1.52-.09.61-.08.64-.59.53-1.1A5.42,5.42,0,0,1,28,10.48Z"/></g><g id="_Groupe_6" data-name="&lt;Groupe&gt;"><path id="_Tracé_12" data-name="&lt;Tracé&gt;" class="cls-3" d="M23.22,15.34l.63,0c-.09-.5-.16-1-.28-1.5C22.66,13.82,23,14.78,23.22,15.34Z"/></g><g id="_Groupe_7" data-name="&lt;Groupe&gt;"><path id="_Tracé_13" data-name="&lt;Tracé&gt;" d="M33.29,9.85a5.22,5.22,0,0,1-1.12-.24c0,.4,0,.7.24.83a.84.84,0,0,0,.36.08,5.76,5.76,0,0,1,1.23,0C34.07,9.93,33.75,9.94,33.29,9.85Z"/></g><g id="_Groupe_8" data-name="&lt;Groupe&gt;"><path id="_Tracé_14" data-name="&lt;Tracé&gt;" class="cls-7" d="M31.86,12l0,0-.09,0Z"/></g><g id="_Groupe_9" data-name="&lt;Groupe&gt;"><path id="_Tracé_15" data-name="&lt;Tracé&gt;" class="cls-8" d="M31.86,12l0,0-.06,0Z"/></g><g id="_Groupe_10" data-name="&lt;Groupe&gt;"><path id="_Tracé_16" data-name="&lt;Tracé&gt;" class="cls-8" d="M31.83,12h0Z"/></g><g id="_Groupe_11" data-name="&lt;Groupe&gt;"><polygon id="_Tracé_17" data-name="&lt;Tracé&gt;" class="cls-9" points="26.91 14.12 26.91 14.12 26.91 14.12 26.91 14.12"/></g><g id="_Groupe_12" data-name="&lt;Groupe&gt;"><path id="_Tracé_18" data-name="&lt;Tracé&gt;" class="cls-10" d="M24.72,12.69v0Z"/></g><path id="_Tracé_19" data-name="&lt;Tracé&gt;" class="cls-3" d="M32.16,14.56a1.22,1.22,0,0,1-.37-.38c-.23-.45-.24-1-.5-1.42-1,0-.59,2.26-.23,2.63s2,.55,1.59-.4A1.58,1.58,0,0,0,32.16,14.56Z"/><g id="_Groupe_13" data-name="&lt;Groupe&gt;"><path id="_Tracé_20" data-name="&lt;Tracé&gt;" class="cls-11" d="M23.33,16.18h0Z"/></g><g id="_Groupe_14" data-name="&lt;Groupe&gt;"><path id="_Tracé_21" data-name="&lt;Tracé&gt;" d="M27.14,2c-4.93-.45-8.85,3.91-10.25,8.79-.94,3.29-.74,6.82,1.07,9.28A7.38,7.38,0,0,0,21.14,23a10.27,10.27,0,0,0,4.18.77c1.91-.07,3.68-.83,2.11-2.83-.93-1.2-1.89-2.33-2.72-3.6-.41-.62-.46-1-1.1-1.34-.48-.26-.86-.12-1.11-.76a1.75,1.75,0,0,1,.17-1.41c.06-.08.89-.89,1-.5-.19-.75.06-1.3-.23-2.09A3.38,3.38,0,0,1,25,6.83c1.51-.85,4-.56,5.08-2.19C31,3.2,28.27,2.1,27.14,2Z"/></g><path id="_Tracé_22" data-name="&lt;Tracé&gt;" class="cls-3" d="M32.21,5.75c-.69,0-1.07.76-1.79.86-1.16.15-2.08-.4-3.2.11-2.54,1.15-2.85,3.56-4.54,5.26l.23-.2c.25,1.55,3.21-.8,3.67-1.21A12.92,12.92,0,0,0,28,9.18a14.26,14.26,0,0,1,.91-1.25c0,.46.15,1.22.82,1.24S31.23,8,31.63,7.57c-.13.73,1.72,1.36,1.87.28C33.6,7.18,33.15,5.8,32.21,5.75Z"/><path id="_Tracé_23" data-name="&lt;Tracé&gt;" class="cls-12" d="M23,22.11c-.2-.14-.43-.24-.63-.37a.34.34,0,1,0-.39.57c.2.13.43.23.63.37a.34.34,0,0,0,.39-.57Z"/><path id="_Tracé_24" data-name="&lt;Tracé&gt;" class="cls-12" d="M21.08,20.08a.34.34,0,0,0-.48,0,.35.35,0,0,0,0,.49l.15.19,0,.06v0h0a.34.34,0,0,0,.67-.14A1.63,1.63,0,0,0,21.08,20.08Z"/><path id="_Tracé_25" data-name="&lt;Tracé&gt;" class="cls-12" d="M20.07,18.26a.35.35,0,0,0-.46-.16.35.35,0,0,0-.16.46l.32.57a.34.34,0,1,0,.62-.3Z"/><path id="_Tracé_26" data-name="&lt;Tracé&gt;" class="cls-12" d="M19.3,16.32a.34.34,0,1,0-.67.13l.09.47a.34.34,0,1,0,.67-.13Z"/><path id="_Tracé_27" data-name="&lt;Tracé&gt;" class="cls-12" d="M18.44,14a.34.34,0,1,0-.67.13l.08.41a.34.34,0,1,0,.67-.13Z"/><path id="_Tracé_28" data-name="&lt;Tracé&gt;" class="cls-12" d="M18.32,11.94s0,0,0-.06,0-.1,0,0a.35.35,0,0,0-.21-.44.34.34,0,0,0-.44.21,1.34,1.34,0,0,0,0,.6.34.34,0,1,0,.67-.13Z"/><path id="_Tracé_29" data-name="&lt;Tracé&gt;" class="cls-12" d="M18.4,9.07a.35.35,0,0,0-.27.4l0,0a.34.34,0,1,0,.57.39.74.74,0,0,0,.14-.55A.35.35,0,0,0,18.4,9.07Z"/><path id="_Tracé_30" data-name="&lt;Tracé&gt;" class="cls-12" d="M19.85,6.93a.34.34,0,0,0-.48.09l-.15.21,0,.06-.09.08a.34.34,0,0,0,.45.52,2.1,2.1,0,0,0,.4-.48A.35.35,0,0,0,19.85,6.93Z"/><path id="_Tracé_31" data-name="&lt;Tracé&gt;" class="cls-12" d="M21.44,5a.35.35,0,0,0-.44.21v0a.34.34,0,0,0,.17.66.64.64,0,0,0,.49-.48A.35.35,0,0,0,21.44,5Z"/><path id="_Tracé_32" data-name="&lt;Tracé&gt;" class="cls-12" d="M23.7,3.67a.35.35,0,0,0-.48.09l0,.06-.05.05h-.05a.34.34,0,0,0,.13.68,1,1,0,0,0,.59-.43A.35.35,0,0,0,23.7,3.67Z"/><path id="_Tracé_33" data-name="&lt;Tracé&gt;" class="cls-12" d="M26.14,2.75l-.54.1a.34.34,0,0,0,.13.68l.54-.1a.34.34,0,0,0-.13-.68Z"/><path id="_Tracé_34" data-name="&lt;Tracé&gt;" class="cls-12" d="M24.8,21.89c-.17-.12-.32-.27-.5-.4a.34.34,0,1,0-.38.57c.17.12.32.28.49.4a.35.35,0,0,0,.48-.09A.35.35,0,0,0,24.8,21.89Z"/><path id="_Tracé_35" data-name="&lt;Tracé&gt;" class="cls-12" d="M22.82,20l-.09-.07,0,0-.06-.08a.34.34,0,0,0-.48,0,.35.35,0,0,0,0,.49,1.42,1.42,0,0,0,.32.29.34.34,0,0,0,.39-.57Z"/><path id="_Tracé_36" data-name="&lt;Tracé&gt;" class="cls-12" d="M21.49,18.21l0,0s0-.1,0-.15a.34.34,0,1,0-.67.13,1.34,1.34,0,0,0,.22.55.34.34,0,0,0,.48,0,.35.35,0,0,0,0-.49C21.54,18.3,21.49,18.22,21.49,18.21Z"/><path id="_Tracé_37" data-name="&lt;Tracé&gt;" class="cls-12" d="M20.64,16.07a.34.34,0,1,0-.67.13l.08.41a.34.34,0,1,0,.67-.13Z"/><path id="_Tracé_38" data-name="&lt;Tracé&gt;" class="cls-12" d="M19.83,13.63a.35.35,0,0,0-.27.4l0,.14h0a.34.34,0,0,0,.59.33.82.82,0,0,0,.06-.61A.35.35,0,0,0,19.83,13.63Z"/><path id="_Tracé_39" data-name="&lt;Tracé&gt;" class="cls-12" d="M20.27,11.35a.34.34,0,0,0-.44.21l-.13.44a.35.35,0,0,0,.21.44.34.34,0,0,0,.44-.21l.13-.44A.35.35,0,0,0,20.27,11.35Z"/><path id="_Tracé_40" data-name="&lt;Tracé&gt;" class="cls-12" d="M21.11,8.79a.34.34,0,0,0-.48.09,1.45,1.45,0,0,0-.1.2l0,.08v0a.35.35,0,0,0,.09.48A.34.34,0,0,0,21,9.58a1.4,1.4,0,0,0,.1-.2l0-.08,0,0A.35.35,0,0,0,21.11,8.79Z"/><path id="_Tracé_41" data-name="&lt;Tracé&gt;" class="cls-12" d="M22.39,6.72a.34.34,0,0,0-.48.09L21.77,7l0,.06-.09.08a.34.34,0,0,0,.45.52,2.1,2.1,0,0,0,.4-.48A.35.35,0,0,0,22.39,6.72Z"/><path id="_Tracé_42" data-name="&lt;Tracé&gt;" class="cls-12" d="M23.79,5.3a.35.35,0,0,0-.47.14l0,0-.07.08-.09.09h0l0,0a.34.34,0,0,0,.35.59,1.63,1.63,0,0,0,.47-.5A.35.35,0,0,0,23.79,5.3Z"/><path id="_Tracé_43" data-name="&lt;Tracé&gt;" class="cls-12" d="M25,20.53l-.08-.06-.06-.06-.15-.18a.35.35,0,0,0-.48,0,.35.35,0,0,0,0,.49,1.87,1.87,0,0,0,.41.41A.34.34,0,0,0,25,21,.35.35,0,0,0,25,20.53Z"/><path id="_Tracé_44" data-name="&lt;Tracé&gt;" class="cls-12" d="M23.37,18.45l0,0,0,0h0a.34.34,0,1,0-.67.13A.89.89,0,0,0,23,19a.34.34,0,0,0,.48-.09A.35.35,0,0,0,23.37,18.45Z"/><path id="_Tracé_45" data-name="&lt;Tracé&gt;" class="cls-12" d="M22.14,16.2a.34.34,0,1,0-.67.13l.05.27a.34.34,0,1,0,.67-.13Z"/><path id="_Tracé_46" data-name="&lt;Tracé&gt;" class="cls-12" d="M21.45,14.09a.34.34,0,1,0-.67.13l.1.54a.34.34,0,1,0,.67-.13Z"/><path id="_Tracé_47" data-name="&lt;Tracé&gt;" class="cls-12" d="M21.46,12.09a.34.34,0,0,0-.48.09.89.89,0,0,0-.12.62.34.34,0,1,0,.67-.13h0v-.09h0A.35.35,0,0,0,21.46,12.09Z"/><path id="_Tracé_48" data-name="&lt;Tracé&gt;" class="cls-12" d="M24.58,17.52a.34.34,0,0,0-.48,0,.35.35,0,0,0,0,.49l.28.37a.34.34,0,0,0,.48,0,.35.35,0,0,0,0-.49Z"/><path id="_Tracé_49" data-name="&lt;Tracé&gt;" class="cls-12" d="M25.64,19.47h0l0-.07a2.07,2.07,0,0,0-.14-.22.34.34,0,0,0-.48,0,.35.35,0,0,0,0,.49l0,0,0,.07a2,2,0,0,0,.14.22.34.34,0,0,0,.48,0,.35.35,0,0,0,0-.49Z"/><path id="_Tracé_50" data-name="&lt;Tracé&gt;" class="cls-12" d="M33.47,4.31c-.36-.26-.75.31-.39.57a.79.79,0,0,1,.33.46.34.34,0,0,0,.67-.13A1.5,1.5,0,0,0,33.47,4.31Z"/><path id="_Tracé_51" data-name="&lt;Tracé&gt;" class="cls-12" d="M19.28,19.83a.36.36,0,1,0-.65.32c.14.24.33.44.47.68a.37.37,0,0,0,.49.17.37.37,0,0,0,.17-.49C19.62,20.27,19.42,20.07,19.28,19.83Z"/><g id="_Groupe_15" data-name="&lt;Groupe&gt;"><path id="_Tracé_52" data-name="&lt;Tracé&gt;" class="cls-13" d="M29.7,17.2h0a2.31,2.31,0,0,0,2.62,1.61c.46-.08.57-.59.86-2A14.91,14.91,0,0,1,29.7,17.2Z"/><path id="_Tracé_53" data-name="&lt;Tracé&gt;" class="cls-3" d="M29.92,17.89a3.35,3.35,0,0,0,.9.79,2.75,2.75,0,0,0,1.7.16A2.87,2.87,0,0,0,33,17.67,14,14,0,0,1,29.92,17.89Z"/><path id="_Tracé_54" data-name="&lt;Tracé&gt;" class="cls-14" d="M31.48,18.12c-.32,0-.91.18-1,.34a2.18,2.18,0,0,0,1.11.43c.08,0,.9.08.88-.08A.94.94,0,0,0,31.48,18.12Z"/><path id="_Tracé_55" data-name="&lt;Tracé&gt;" class="cls-3" d="M32.32,16.32a3.62,3.62,0,0,0-.32.24c-.4-.37-.93-.11-1.35.09a3.51,3.51,0,0,1-1.07.37s.12.1.13.1a1.32,1.32,0,0,0,.26,0h.51c.13,0,.71,0,1.27,0a5,5,0,0,0,.82-.13s.59-.17.6-.16C32.92,16.68,32.66,16.19,32.32,16.32Z"/><path id="_Tracé_56" data-name="&lt;Tracé&gt;" class="cls-3" d="M32.94,17.67a1.3,1.3,0,0,1-.18.63,1.07,1.07,0,0,1-1,.56,2.64,2.64,0,0,1-1.18-.35,1.87,1.87,0,0,1-.75-.83c-.05-.11-.12-.47-.22-.5a5.27,5.27,0,0,0,.15.77,2.37,2.37,0,0,0,.48.78,2,2,0,0,0,1.74.65,1.64,1.64,0,0,0,1-1.08,2.53,2.53,0,0,0,.12-.74,2.75,2.75,0,0,1,0-.69A1.86,1.86,0,0,0,32.94,17.67Z"/></g><path id="_Tracé_57" data-name="&lt;Tracé&gt;" class="cls-15" d="M36.08,29.58c-2.23.24-4,3.44-4.45,5.21-.81,2.91.24,5.12,1.38,7.71a10.56,10.56,0,0,1,.41,1.17c.49,1.62,1,3.67,2.81,4,2.17.46,5.72-2.55,7-3.84,2.95-3,4.75-7,1.52-10.28C42.85,31.67,39.08,29.26,36.08,29.58Z"/><path id="_Tracé_58" data-name="&lt;Tracé&gt;" class="cls-16" d="M37.44,29c-.22-.15-2.78-1.68-2.78-1.64a6.14,6.14,0,0,1-.15,2.26,4.59,4.59,0,0,1-.85,1.64,3.52,3.52,0,0,1-1.49,1,1.22,1.22,0,0,1-1.31-.37,4.6,4.6,0,0,1-.53,0c-3.15.69-6.2-1.7-8.54-3.64a1.06,1.06,0,0,1-.33-.5,33.06,33.06,0,0,0-4.67,2A10.31,10.31,0,0,0,11.65,34a8.7,8.7,0,0,0-1.33,6.33c.8,3.64,4.53,6.23,8.7,8a22.86,22.86,0,0,0,14.44,1c3-.79,6.31-2,8.62-4.25,1-1,2-2,2-3.37q0-.09,0-.19A21.52,21.52,0,0,0,43,37.09,13.13,13.13,0,0,0,37.44,29Z"/><path id="_Tracé_59" data-name="&lt;Tracé&gt;" class="cls-17" d="M23,35.51a.54.54,0,0,0,0,1.08A.54.54,0,0,0,23,35.51Z"/><path id="_Tracé_60" data-name="&lt;Tracé&gt;" class="cls-17" d="M25,42.66a.54.54,0,0,0,0,1.08A.54.54,0,0,0,25,42.66Z"/><path id="_Tracé_61" data-name="&lt;Tracé&gt;" class="cls-18" d="M33.4,26.15l0,0,0,0S33.36,26.1,33.4,26.15Z"/><path id="_Tracé_62" data-name="&lt;Tracé&gt;" class="cls-15" d="M33.83,26.2c.31,1.25.73,3-.45,4-.71.59-2.3.75-2.27,1.85a3.71,3.71,0,0,0,.7,2.1c1.32,1.56,3,.77,3.9-.72a5.28,5.28,0,0,0,.65-4C36,27.85,34.87,27.3,33.83,26.2Z"/><path id="_Tracé_63" data-name="&lt;Tracé&gt;" class="cls-15" d="M26,29.55c-.83-.45-2.5-1.25-2.94-2.05-.23-.43.24-1.12-.08-1.52s-1.18.12-1.56.5a3.93,3.93,0,0,0-.65,4A10.39,10.39,0,0,0,25.12,35a3.61,3.61,0,0,0,5-.79c.44-.6,1-1.64.56-2.31C30.08,30.84,27.2,30.19,26,29.55Z"/><path id="_Tracé_64" data-name="&lt;Tracé&gt;" class="cls-15" d="M11.2,32.32a5.32,5.32,0,0,0-3.3,4c-.35,3.78,4.49,7.92,7.29,9.9,1.45,1,1.89,1.49,3,0C20.43,43,20.67,36.05,18.05,33,16.51,31.17,13.54,31.2,11.2,32.32Z"/><path id="_Tracé_65" data-name="&lt;Tracé&gt;" class="cls-17" d="M14.42,34.91H14.2a.56.56,0,0,0,0,1.11h.22a.56.56,0,0,0,0-1.11Z"/><path id="_Tracé_66" data-name="&lt;Tracé&gt;" class="cls-12" d="M34.81,7.15a.35.35,0,0,0-.13.48l.15.27,0,.09,0,0v0h0a.35.35,0,0,0,.7,0,2,2,0,0,0-.31-.79A.35.35,0,0,0,34.81,7.15Z"/><path id="_Tracé_67" data-name="&lt;Tracé&gt;" class="cls-12" d="M35.34,9.63a.35.35,0,0,0-.35.32v0l0,.09a.94.94,0,0,0-.05.26.35.35,0,0,0,.7,0v0l0-.09a.93.93,0,0,0,.05-.26A.35.35,0,0,0,35.34,9.63Z"/><path id="_Tracé_68" data-name="&lt;Tracé&gt;" d="M31,3.83C29.47,3,27.5,3.46,26,4.07a4.59,4.59,0,0,0-2.53,2.35c-.83,1.4-3.08,4.74-1.35,6.22s5.32-3.91,6.26-5.79a4.24,4.24,0,0,0,.18-.4c.34.54.59,1.79,1.38,1.82.28,0,2-2,2.05-1.87.18,1,1.65,2.74,1.85.86C34,5.84,32.09,4.44,31,3.83Z"/><path id="_Tracé_69" data-name="&lt;Tracé&gt;" class="cls-12" d="M26.68,4.12,26,4.25a.34.34,0,0,0,.13.68l.67-.13A.34.34,0,0,0,26.68,4.12Z"/><path id="_Tracé_70" data-name="&lt;Tracé&gt;" class="cls-12" d="M28.59,3.55c-.23,0-.45,0-.69.06a.34.34,0,0,0,.13.68c.21,0,.45,0,.69-.06A.34.34,0,0,0,28.59,3.55Z"/><path id="_Tracé_71" data-name="&lt;Tracé&gt;" class="cls-12" d="M22.64,10a.34.34,0,0,0-.48,0,1.38,1.38,0,0,0-.35.84.34.34,0,1,0,.68.06l0-.13v-.07a.81.81,0,0,1,0-.12c0,.06.07-.09,0-.05A.35.35,0,0,0,22.64,10Z"/><path id="_Tracé_72" data-name="&lt;Tracé&gt;" class="cls-12" d="M23.48,8.06a.35.35,0,0,0-.48.09,2.25,2.25,0,0,0-.37.56.35.35,0,0,0,.21.44.35.35,0,0,0,.44-.21v0h0l.09-.13.18-.24A.35.35,0,0,0,23.48,8.06Z"/><path id="_Tracé_73" data-name="&lt;Tracé&gt;" class="cls-12" d="M24.85,6.64a.62.62,0,0,0-.35.22A1.6,1.6,0,0,0,24.4,7a.35.35,0,0,0,.09.48A.34.34,0,0,0,25,7.43L25,7.31h0a.34.34,0,0,0-.19-.65Z"/><path id="_Tracé_74" data-name="&lt;Tracé&gt;" class="cls-12" d="M26.83,5.28a.82.82,0,0,0-.54.28.35.35,0,0,0,.09.48.34.34,0,0,0,.43,0h0L27,6a.34.34,0,0,0-.13-.68Z"/><path id="_Tracé_75" data-name="&lt;Tracé&gt;" class="cls-12" d="M29.07,4.58l-.61.12a.34.34,0,0,0,.13.68l.61-.12a.34.34,0,0,0-.13-.68Z"/><path id="_Tracé_76" data-name="&lt;Tracé&gt;" class="cls-12" d="M23.09,11.51c-.11.08-.19.18-.3.27a.34.34,0,1,0,.45.52c.11-.08.19-.18.3-.27a.34.34,0,0,0-.45-.52Z"/><path id="_Tracé_77" data-name="&lt;Tracé&gt;" class="cls-12" d="M24.91,9.68a.34.34,0,0,0-.48.09l-.33.48a.34.34,0,0,0,.57.39l.33-.48A.35.35,0,0,0,24.91,9.68Z"/><path id="_Tracé_78" data-name="&lt;Tracé&gt;" class="cls-12" d="M26.48,7.64a.35.35,0,0,0-.44.21v0l0,.07-.11.15-.19.24a.34.34,0,0,0,.57.39,3.92,3.92,0,0,0,.42-.64A.35.35,0,0,0,26.48,7.64Z"/><path id="_Tracé_79" data-name="&lt;Tracé&gt;" class="cls-12" d="M27.52,6.52a.35.35,0,0,0-.48.09l-.16.24a.34.34,0,0,0,.57.39L27.61,7A.35.35,0,0,0,27.52,6.52Z"/><path id="_Tracé_80" data-name="&lt;Tracé&gt;" class="cls-12" d="M30.18,6.16a.34.34,0,0,0-.44.21,1.41,1.41,0,0,0-.07.61.34.34,0,1,0,.67-.13h0a.05.05,0,0,1,0,0s0,0,0-.07V6.7l0-.09A.35.35,0,0,0,30.18,6.16Z"/><path id="_Tracé_81" data-name="&lt;Tracé&gt;" class="cls-12" d="M31.06,4.65a.34.34,0,0,0-.48,0,.35.35,0,0,0,0,.49c0-.07,0,0,0,0l0,.06c0,.07,0,.15,0,.22a.34.34,0,1,0,.67-.13A1.49,1.49,0,0,0,31.06,4.65Z"/><path id="_Tracé_82" data-name="&lt;Tracé&gt;" class="cls-13" d="M16.8,39.34a.58.58,0,0,0,0,1.16A.58.58,0,0,0,16.8,39.34Z"/><path id="_Tracé_83" data-name="&lt;Tracé&gt;" class="cls-17" d="M31,38.41a.58.58,0,0,0,0,1.16A.58.58,0,0,0,31,38.41Z"/><path id="_Tracé_84" data-name="&lt;Tracé&gt;" class="cls-17" d="M33.09,44H33a.58.58,0,0,0,0,1.16h.12a.58.58,0,1,0,0-1.16Z"/><path id="_Tracé_85" data-name="&lt;Tracé&gt;" class="cls-17" d="M39.15,38.3a.58.58,0,0,0,0,1.16A.58.58,0,0,0,39.15,38.3Z"/><path id="_Tracé_86" data-name="&lt;Tracé&gt;" class="cls-17" d="M43.34,35.27h-.12a.58.58,0,1,0,0,1.16h.12a.58.58,0,1,0,0-1.16Z"/><path id="_Tracé_87" data-name="&lt;Tracé&gt;" class="cls-17" d="M18,31.78a.58.58,0,0,0,0,1.16A.58.58,0,0,0,18,31.78Z"/><path id="_Tracé_88" data-name="&lt;Tracé&gt;" class="cls-17" d="M38.68,32.24a.58.58,0,0,0,0,1.16A.58.58,0,0,0,38.68,32.24Z"/><polygon id="_Tracé_89" data-name="&lt;Tracé&gt;" class="cls-9" points="26.75 14.48 26.75 14.48 26.75 14.48 26.75 14.48"/><ellipse id="_Tracé_90" data-name="&lt;Tracé&gt;" cx="27.82" cy="13.79" rx="0.5" ry="0.53" transform="matrix(0.99, -0.16, 0.16, 0.99, -1.87, 4.71)"/><ellipse id="_Tracé_91" data-name="&lt;Tracé&gt;" cx="33.25" cy="12.93" rx="0.43" ry="0.41" transform="translate(-1.37 4.33) rotate(-7.3)"/><path id="_Tracé_92" data-name="&lt;Tracé&gt;" d="M29.46,13.22a3.94,3.94,0,0,0-3,.38.12.12,0,0,0,0,.2.21.21,0,0,0,.25,0,3.5,3.5,0,0,1,2.62-.31h.1a.2.2,0,0,0,.14-.09A.12.12,0,0,0,29.46,13.22Z"/><path id="_Tracé_93" data-name="&lt;Tracé&gt;" d="M33.8,12.43a1.7,1.7,0,0,0-1.32.32c-.11.1,0,.17.14.16s.21-.12.29-.15a1.66,1.66,0,0,1,.73-.12c.13,0,.4.13.52,0s.07-.09,0-.12A1,1,0,0,0,33.8,12.43Z"/></g></svg>