<svg id="Calque_1" data-name="Calque 1" xmlns="http://www.w3.org/2000/svg" viewBox="0 0 50 50"><defs><style>.cls-1{fill:#b8ebd6;}.cls-2{fill:#714e46;}.cls-3{fill:#ff7900;}.cls-4{fill:#62342d;}.cls-5{fill:#fff6b6;}.cls-6{fill:#7b7c7f;}.cls-7{fill:#fff;}.cls-8{fill:#e1e0e6;}.cls-9{fill:#b58a7e;}.cls-10{fill:#e29a81;}.cls-11{fill:#e1b5a8;}.cls-12{fill:#e4bdb1;}.cls-13{fill:#9d676f;}.cls-14{fill:#927276;}.cls-15{fill:#595959;}.cls-16{fill:#e59a7f;}.cls-17{fill:#f4cfb2;}.cls-18{fill:#c19372;}.cls-19{fill:#c69363;}</style></defs><title>Icone le Parent</title><ellipse id="_Tracé_" data-name="&lt;Tracé&gt;" class="cls-1" cx="25.24" cy="24.62" rx="24.76" ry="24.39"/><g id="_Groupe_" data-name="&lt;Groupe&gt;"><path id="_Tracé_2" data-name="&lt;Tracé&gt;" class="cls-2" d="M31.24,27.42a10.66,10.66,0,0,1-.9-4.24,13.83,13.83,0,0,1-.08-3.79c0-.11.07-.25.11-.4.12-.39.27-.87.09-1.14s-.45-.22-.62-.32a5.75,5.75,0,0,1-.91-.69,8.71,8.71,0,0,0-2.2-1.42C25.31,14.81,21,11.64,20,13.7c-.33.74-.25,4.88-.38,5.68-.34,2.09-.55,4.1-1,6.15a2.36,2.36,0,0,1-1.14,1.82c-.57.36-1.23.53-1.64,1.11-.54.76.55,1.45,1.07,1.75.75.43,1.36,1.08,2.12,1.53a11.06,11.06,0,0,0,3.85,1.37,8.92,8.92,0,0,0,4.36-.5A7.71,7.71,0,0,0,29.9,31c.59-.57,1.82-2.25,1.66-3.13C31.52,27.64,31.36,27.67,31.24,27.42Z"/></g><path id="_Tracé_3" data-name="&lt;Tracé&gt;" class="cls-3" d="M41.11,31.72a17.07,17.07,0,0,0-8.72-3.82c-.25,0-1.59,1.63-1.82,1.71a9.61,9.61,0,0,1-6.46,2.6,2.72,2.72,0,0,1-2.07-1c-.32-.38-1.43-.47-1.89-.77A3.66,3.66,0,0,1,19,29.26c-.57-1-.15-1.23-1.53-1.36-2.14-.2-4.31,1.1-6.13,2.06a35.33,35.33,0,0,0-4.64,2.44c-1.7,1.28-1.46,3.32-.8,5.27a15.39,15.39,0,0,0,5.58,7.74C16.67,49.24,24.26,51,30.46,49,36,47.16,41.06,43.4,42.82,37.66A5.32,5.32,0,0,0,41.11,31.72Z"/><path id="_Tracé_4" data-name="&lt;Tracé&gt;" class="cls-4" d="M30.19,23.79A15.39,15.39,0,0,1,28,23.64a9.24,9.24,0,0,1-2.71-1.26c-1.21-.68-2.77-.94-3.46-2.32-.4-.8-.69-2.56-1.8-2.69a4.22,4.22,0,0,0,.52,2.27c.16.37.24.74.36,1.11a3.07,3.07,0,0,0,.24.57,21.77,21.77,0,0,0,2.14,2.63,10.67,10.67,0,0,0,2.34,2.27,4.42,4.42,0,0,0,3.34.71c.68-.21,1.71-.75,1.53-1.57A7.66,7.66,0,0,1,30.19,23.79Z"/><path id="_Tracé_5" data-name="&lt;Tracé&gt;" class="cls-5" d="M37.5,31c-7.7,3.91-16.68,4.09-25,2.43-2.74-.55-3.37,3.86-.65,4.4,9,1.8,18.95,1.54,27.28-2.69C41.6,33.92,40,29.77,37.5,31Z"/><path id="_Tracé_6" data-name="&lt;Tracé&gt;" class="cls-5" d="M37.4,38.3c-6.95,3-15,3.32-22.39,2.2a1.69,1.69,0,1,0-.65,3.31c8,1.21,16.91.87,24.43-2.43A1.7,1.7,0,1,0,37.4,38.3Z"/><path id="_Tracé_7" data-name="&lt;Tracé&gt;" class="cls-6" d="M33.14,12.94c-.31-.24-1.15-.17-1.54-.33l0-.28a1.25,1.25,0,0,0,0,1.35,4,4,0,0,1,1.82.16C33.29,13.4,33.48,13.21,33.14,12.94Z"/><path id="_Tracé_8" data-name="&lt;Tracé&gt;" class="cls-7" d="M25.1,7.06a.35.35,0,0,0-.69.11l.1.58a.35.35,0,0,0,.69-.11Z"/><g id="_Groupe_2" data-name="&lt;Groupe&gt;"><path id="_Tracé_9" data-name="&lt;Tracé&gt;" class="cls-8" d="M24.84,22.16h0Z"/></g><g id="_Groupe_3" data-name="&lt;Groupe&gt;"><path id="_Tracé_10" data-name="&lt;Tracé&gt;" class="cls-9" d="M23.7,8.92l-.14-.2Z"/></g><g id="_Groupe_4" data-name="&lt;Groupe&gt;"><path id="_Tracé_11" data-name="&lt;Tracé&gt;" class="cls-9" d="M23.34,8.47a1.77,1.77,0,0,1,.23.25l-.25-.37Z"/></g><g id="_Groupe_5" data-name="&lt;Groupe&gt;"><path id="_Tracé_12" data-name="&lt;Tracé&gt;" class="cls-10" d="M22.76,17.53h0l.06.07.2.28a2.1,2.1,0,0,0-.17-.26Z"/></g><g id="_Groupe_6" data-name="&lt;Groupe&gt;"><path id="_Tracé_13" data-name="&lt;Tracé&gt;" class="cls-2" d="M31.8,8.06c-.22-.42-.5-.69-.87-.66a4,4,0,0,0-.73.14,3.6,3.6,0,0,1-.78.14h-1c0-.32.11-.56-.15-.85-.91-1-2.49-.55-3.62-1.1s-2.33-.65-2.86.74a13.57,13.57,0,0,0-.35,5.83c0,.39.4,1.11.09,1.45-.59.64-1.34-.5-2-.31-1.82.52-1.18,3.13.19,3.75s1.38,2,2.05,3a6.91,6.91,0,0,0,3.52,2.45,7.15,7.15,0,0,0,3.37.73c1.43-.19,2-1.13,2.55-2.48.22-.57.4-1.14.55-1.59a11.12,11.12,0,0,0,1-4.15c0-.76-.53-1.28-.59-2.05s.36-1.7.34-2.55A6.06,6.06,0,0,0,31.8,8.06Z"/></g><path id="_Tracé_14" data-name="&lt;Tracé&gt;" class="cls-4" d="M29.71,9.43l-.17-.06A6.28,6.28,0,0,0,27,8.76c-1,.06-2,.56-3,.65-.75.07-1.83,0-2.29.7.87.58,2,.23,3,.44,2.24.48,3.82,2.59,6.34,2,1-.21,1.8-1.43,1.08-2.31C31.57,9.62,30.46,9.7,29.71,9.43Z"/><g id="_Groupe_7" data-name="&lt;Groupe&gt;"><path id="_Tracé_15" data-name="&lt;Tracé&gt;" d="M25.29,10.8c-.47,0-1.45,0-1.53.67,0,0,.12,0,.29,0,.53,0,1.62.19,1.74.19.71,0,.83-.56.81-1.18A6.09,6.09,0,0,1,25.29,10.8Z"/></g><g id="_Groupe_8" data-name="&lt;Groupe&gt;"><path id="_Tracé_16" data-name="&lt;Tracé&gt;" class="cls-4" d="M19.6,16.09l.58.08c0-.43-.08-.87-.15-1.3C19.19,14.76,19.4,15.59,19.6,16.09Z"/></g><g id="_Groupe_9" data-name="&lt;Groupe&gt;"><polygon id="_Tracé_17" data-name="&lt;Tracé&gt;" class="cls-11" points="24.13 14.44 24.13 14.44 24.12 14.44 24.13 14.44"/></g><g id="_Groupe_10" data-name="&lt;Groupe&gt;"><path id="_Tracé_18" data-name="&lt;Tracé&gt;" class="cls-12" d="M21.94,12.31v0Z"/></g><g id="_Groupe_11" data-name="&lt;Groupe&gt;"><path id="_Tracé_19" data-name="&lt;Tracé&gt;" d="M31.28,4.78c-2-2-4.22-.83-6.62-.88-1.7,0-3.83-.33-5.18,1-1.56,1.5-1.3,5-.6,6.91a4,4,0,0,0,.31,1c.16.21.48.25.68.44a4.4,4.4,0,0,1,1,2.05c.14.51.3,1.21,1,1.06.27-2.16-.32-4.48-.11-6.68.1-1-.08-1.28.76-1.67a4.92,4.92,0,0,1,3.11-.41c.52.15.77.58,1.24.79a5.1,5.1,0,0,0,2.62.42c.92-.12,2.4-.29,2.76-1.25A3.16,3.16,0,0,0,31.46,5Z"/></g><g id="_Groupe_12" data-name="&lt;Groupe&gt;"><path id="_Tracé_20" data-name="&lt;Tracé&gt;" d="M31.18,4.95a4.18,4.18,0,0,1-.43,2.12c-.49.79-1.44,1-3.07.87a9.49,9.49,0,0,1-2.48-.79C24,6.76,21.41,7.34,21,8.7a5.29,5.29,0,0,0-.08,2.24c.15,1.54-1.74.27-2.28,0,.09.5,0,1,.08,1.51s.21.91.3,1.37c1.4-1,1.59,1.86,2.27,2.21s.72-.41.67-.9c-.19-1.9-.15-3.8-.16-5.71a1.3,1.3,0,0,1,.33-1A2.2,2.2,0,0,1,23,7.86a3.28,3.28,0,0,1,2.15-.22c.61.23.88.88,1.44,1.14,1.2.55,4.28.7,5.27-.39C32.72,7.5,32.48,5.23,31.18,4.95Z"/></g><g id="_Groupe_13" data-name="&lt;Groupe&gt;"><path id="_Tracé_21" data-name="&lt;Tracé&gt;" class="cls-13" d="M21.28,6.15A.48.48,0,0,0,21,6.4a.3.3,0,0,0,.13.39.28.28,0,0,0,.36-.11h0a.3.3,0,0,0,.11-.34A.28.28,0,0,0,21.28,6.15Z"/></g><g id="_Groupe_14" data-name="&lt;Groupe&gt;"><polygon id="_Tracé_22" data-name="&lt;Tracé&gt;" class="cls-14" points="21.53 6.68 21.53 6.68 21.53 6.68 21.53 6.68"/></g><g id="_Groupe_15" data-name="&lt;Groupe&gt;"><path id="_Tracé_23" data-name="&lt;Tracé&gt;" class="cls-13" d="M22.09,4.9l0,0L22,5l-.2.19a.3.3,0,0,0,0,.41.28.28,0,0,0,.4,0l0,0,.07-.06.2-.19a.3.3,0,0,0,0-.41A.28.28,0,0,0,22.09,4.9Z"/></g><g id="_Groupe_16" data-name="&lt;Groupe&gt;"><path id="_Tracé_24" data-name="&lt;Tracé&gt;" class="cls-13" d="M22.66,5.23a1.15,1.15,0,0,0-.66.14.3.3,0,0,0-.14.39.28.28,0,0,0,.38.15.57.57,0,0,1,.37-.09.29.29,0,0,0,.31-.26A.3.3,0,0,0,22.66,5.23Z"/></g><g id="_Groupe_17" data-name="&lt;Groupe&gt;"><path id="_Tracé_25" data-name="&lt;Tracé&gt;" class="cls-13" d="M24,5.52h-.1a.28.28,0,0,0-.38-.14.3.3,0,0,0-.14.39.66.66,0,0,0,.7.37.29.29,0,0,0,.23-.34A.29.29,0,0,0,24,5.52Z"/></g><g id="_Groupe_18" data-name="&lt;Groupe&gt;"><path id="_Tracé_26" data-name="&lt;Tracé&gt;" class="cls-13" d="M25.63,5.31h-.38a.29.29,0,0,0-.31.26.29.29,0,0,0,.25.32h.38a.29.29,0,0,0,.05-.59Z"/></g><g id="_Groupe_19" data-name="&lt;Groupe&gt;"><path id="_Tracé_27" data-name="&lt;Tracé&gt;" class="cls-13" d="M22.08,6.65a.87.87,0,0,0-.26.46.3.3,0,0,0,.22.34.29.29,0,0,0,.33-.23V7.16L22.51,7a.3.3,0,0,0,0-.41A.28.28,0,0,0,22.08,6.65Z"/></g><g id="_Groupe_20" data-name="&lt;Groupe&gt;"><path id="_Tracé_28" data-name="&lt;Tracé&gt;" class="cls-13" d="M22.65,6.47a1.14,1.14,0,0,0-.66.14.3.3,0,0,0-.14.39.28.28,0,0,0,.38.14.56.56,0,0,1,.36-.09.29.29,0,0,0,.31-.26A.3.3,0,0,0,22.65,6.47Z"/></g><g id="_Groupe_21" data-name="&lt;Groupe&gt;"><path id="_Tracé_29" data-name="&lt;Tracé&gt;" class="cls-13" d="M24.06,6.29h-.15l-.19-.07a.28.28,0,0,0-.36.17.3.3,0,0,0,.17.38,1.35,1.35,0,0,0,.62.11.29.29,0,0,0-.09-.58Z"/></g><g id="_Groupe_22" data-name="&lt;Groupe&gt;"><path id="_Tracé_30" data-name="&lt;Tracé&gt;" class="cls-13" d="M26,6.12a1.06,1.06,0,0,1-.56,0,.29.29,0,0,0-.2.55,1.64,1.64,0,0,0,.85.07C26.49,6.63,26.4,6.05,26,6.12Z"/></g><g id="_Groupe_23" data-name="&lt;Groupe&gt;"><path id="_Tracé_31" data-name="&lt;Tracé&gt;" class="cls-13" d="M26.93,7h-.16l-.05,0h0s-.06-.06,0,0a.28.28,0,0,0-.4,0,.3.3,0,0,0,0,.41.89.89,0,0,0,.77.25A.29.29,0,0,0,26.93,7Z"/></g><g id="_Groupe_24" data-name="&lt;Groupe&gt;"><path id="_Tracé_32" data-name="&lt;Tracé&gt;" class="cls-13" d="M20.19,8.52a.28.28,0,0,0-.38.14,1.62,1.62,0,0,0-.09.67.29.29,0,0,0,.3.27.3.3,0,0,0,.26-.31s0-.07,0-.1,0-.09,0-.09a1.07,1.07,0,0,1,0-.12V8.91A.3.3,0,0,0,20.19,8.52Z"/></g><g id="_Groupe_25" data-name="&lt;Groupe&gt;"><path id="_Tracé_33" data-name="&lt;Tracé&gt;" class="cls-13" d="M20.34,6.84A.28.28,0,0,0,20,7a.78.78,0,0,0-.07.25c0,.05,0,.11,0,.16a.37.37,0,0,1,0,0h0a.3.3,0,0,0,.22.34.29.29,0,0,0,.33-.23,1.79,1.79,0,0,0,0-.22s0,0,0,0v0h0v0A.3.3,0,0,0,20.34,6.84Z"/></g><g id="_Groupe_26" data-name="&lt;Groupe&gt;"><path id="_Tracé_34" data-name="&lt;Tracé&gt;" class="cls-13" d="M20.35,5.29a.89.89,0,0,0-.18.49.3.3,0,0,0,.22.34.29.29,0,0,0,.33-.23,1.6,1.6,0,0,1,0-.17v0h0l0,0a.3.3,0,0,0,0-.41A.28.28,0,0,0,20.35,5.29Z"/></g><g id="_Groupe_27" data-name="&lt;Groupe&gt;"><path id="_Tracé_35" data-name="&lt;Tracé&gt;" class="cls-13" d="M21,8.68a.29.29,0,0,0-.33.23,2.66,2.66,0,0,0,0,.65.29.29,0,0,0,.3.27.3.3,0,0,0,.26-.31,1.94,1.94,0,0,1,0-.5A.29.29,0,0,0,21,8.68Z"/></g><g id="_Groupe_28" data-name="&lt;Groupe&gt;"><path id="_Tracé_36" data-name="&lt;Tracé&gt;" class="cls-13" d="M21.27,7.9s0-.05,0-.08,0,0,0,0V7.68a.3.3,0,0,0-.22-.34.29.29,0,0,0-.33.23,1.34,1.34,0,0,0,0,.58.28.28,0,0,0,.36.18A.3.3,0,0,0,21.29,8Z"/></g><g id="_Groupe_29" data-name="&lt;Groupe&gt;"><path id="_Tracé_37" data-name="&lt;Tracé&gt;" class="cls-13" d="M27.05,4.65l-.22.1-.08,0s-.1,0,0,0a.29.29,0,0,0-.05.59,1.53,1.53,0,0,0,.63-.19.3.3,0,0,0,.14-.39A.28.28,0,0,0,27.05,4.65Z"/></g><g id="_Groupe_30" data-name="&lt;Groupe&gt;"><path id="_Tracé_38" data-name="&lt;Tracé&gt;" class="cls-13" d="M27.48,5.62l-.31.15a.3.3,0,0,0-.14.39.28.28,0,0,0,.38.14l.31-.15a.3.3,0,0,0,.14-.39A.28.28,0,0,0,27.48,5.62Z"/></g><g id="_Groupe_31" data-name="&lt;Groupe&gt;"><path id="_Tracé_39" data-name="&lt;Tracé&gt;" class="cls-13" d="M29.24,4.52l-.41.2a.3.3,0,0,0-.14.39.28.28,0,0,0,.38.14l.41-.2a.3.3,0,0,0,.14-.39A.28.28,0,0,0,29.24,4.52Z"/></g><g id="_Groupe_32" data-name="&lt;Groupe&gt;"><path id="_Tracé_40" data-name="&lt;Tracé&gt;" class="cls-13" d="M29,5.9a3,3,0,0,1-.84.4.3.3,0,0,0-.23.34.29.29,0,0,0,.33.24,3.93,3.93,0,0,0,1.12-.53.3.3,0,0,0,0-.41A.28.28,0,0,0,29,5.9Z"/></g><g id="_Groupe_33" data-name="&lt;Groupe&gt;"><path id="_Tracé_41" data-name="&lt;Tracé&gt;" class="cls-13" d="M30.49,4.85l-.08.07,0,0h0l-.19.1a.3.3,0,0,0-.14.39.28.28,0,0,0,.38.15,1.72,1.72,0,0,0,.45-.29.31.31,0,0,0,0-.41A.28.28,0,0,0,30.49,4.85Z"/></g><g id="_Groupe_34" data-name="&lt;Groupe&gt;"><path id="_Tracé_42" data-name="&lt;Tracé&gt;" class="cls-13" d="M29,6.7l-.46.22a.3.3,0,0,0-.14.39.28.28,0,0,0,.38.15l.46-.22a.3.3,0,0,0,.14-.39A.28.28,0,0,0,29,6.7Z"/></g><g id="_Groupe_35" data-name="&lt;Groupe&gt;"><path id="_Tracé_43" data-name="&lt;Tracé&gt;" class="cls-13" d="M30.82,5.59a1.86,1.86,0,0,1-.45.33c-.33.16-.09.7.24.53A2.4,2.4,0,0,0,31.18,6C31.45,5.79,31.09,5.34,30.82,5.59Z"/></g><path id="_Tracé_44" data-name="&lt;Tracé&gt;" d="M32.8,16.63a1.65,1.65,0,0,1-.06-.52c-.57,1-.77,1.31-2.05,1.11a20.11,20.11,0,0,0-3.19.06c-1.21,0-2.55.66-3.75.38a3.24,3.24,0,0,1-2.08-3.15,2.62,2.62,0,0,0-.84,0,20.85,20.85,0,0,0,1.46,6.11A8.49,8.49,0,0,0,25,24.4c1.8,1.35,5,1.71,6.73-.13a6.78,6.78,0,0,0,1.41-4.2A11.17,11.17,0,0,0,33,17.71C33,17.59,32.88,17.05,32.8,16.63Z"/><path id="_Tracé_45" data-name="&lt;Tracé&gt;" class="cls-13" d="M21.47,4.11a1.11,1.11,0,0,0-.42.34.27.27,0,0,0,.08.36.25.25,0,0,0,.35-.09c0,.06,0,0,0,0l0,0,.17-.09a.27.27,0,0,0,.1-.36A.25.25,0,0,0,21.47,4.11Z"/><path id="_Tracé_46" data-name="&lt;Tracé&gt;" class="cls-15" d="M24.61,18.79a.25.25,0,0,0-.34.12l-.09.2a.27.27,0,0,0,.12.35.25.25,0,0,0,.34-.12l.09-.2A.27.27,0,0,0,24.61,18.79Z"/><path id="_Tracé_47" data-name="&lt;Tracé&gt;" class="cls-15" d="M24.47,20.37a.25.25,0,0,0-.36,0,.27.27,0,0,0,0,.37l0,0a.25.25,0,0,0,.36,0,.27.27,0,0,0,0-.37Z"/><path id="_Tracé_48" data-name="&lt;Tracé&gt;" class="cls-15" d="M24.81,21.62a.25.25,0,0,0-.32-.16.27.27,0,0,0-.15.33,2.84,2.84,0,0,0,.14.45.25.25,0,0,0,.32.16.27.27,0,0,0,.15-.33A2.74,2.74,0,0,1,24.81,21.62Z"/><path id="_Tracé_49" data-name="&lt;Tracé&gt;" class="cls-15" d="M25.57,18.33a.25.25,0,0,0-.34.12.87.87,0,0,0-.08.37.26.26,0,0,0,.27.24.26.26,0,0,0,.23-.28h0v0l0-.06A.27.27,0,0,0,25.57,18.33Z"/><path id="_Tracé_50" data-name="&lt;Tracé&gt;" class="cls-15" d="M25.39,19.52a.26.26,0,0,0-.3.21,2.3,2.3,0,0,0,0,.5.26.26,0,0,0,.27.24.26.26,0,0,0,.23-.28c0-.07,0-.13,0-.2a.69.69,0,0,1,0-.16A.26.26,0,0,0,25.39,19.52Z"/><path id="_Tracé_51" data-name="&lt;Tracé&gt;" class="cls-15" d="M25.76,21.41h0s0-.08,0-.11a.26.26,0,0,0-.27-.24.26.26,0,0,0-.23.28.77.77,0,0,0,.05.29.26.26,0,0,0,.32.16.26.26,0,0,0,.15-.33Z"/><path id="_Tracé_52" data-name="&lt;Tracé&gt;" class="cls-15" d="M26.46,22.34l-.08-.1a.23.23,0,0,0-.33,0,.26.26,0,0,0,0,.34c0-.05,0,0,0,0l.08.1a.23.23,0,0,0,.33,0,.25.25,0,0,0,0-.34C26.52,22.41,26.47,22.36,26.46,22.34Z"/><path id="_Tracé_53" data-name="&lt;Tracé&gt;" class="cls-15" d="M31.93,21.9a.23.23,0,0,0-.31.11,1.51,1.51,0,0,0-.13.34.25.25,0,0,0,.19.29.24.24,0,0,0,.27-.19l0-.06h0a.87.87,0,0,1,.06-.14A.25.25,0,0,0,31.93,21.9Z"/><path id="_Tracé_54" data-name="&lt;Tracé&gt;" class="cls-15" d="M32.31,20.58a.26.26,0,0,0-.23.28s0,.05,0,.08h0s0,.07,0,0a.27.27,0,0,0,.12.35.25.25,0,0,0,.34-.12.89.89,0,0,0,0-.37A.26.26,0,0,0,32.31,20.58Z"/><path id="_Tracé_55" data-name="&lt;Tracé&gt;" class="cls-15" d="M32.61,19.61h0s0-.1,0-.14a.26.26,0,0,0-.27-.24.26.26,0,0,0-.23.28.84.84,0,0,0,.06.33.26.26,0,0,0,.32.16.27.27,0,0,0,.15-.33Z"/><path id="_Tracé_56" data-name="&lt;Tracé&gt;" class="cls-15" d="M26.5,20.25a.26.26,0,0,0-.23.28s0,.05,0,.08h0s0,.07,0,0a.27.27,0,0,0,.11.35.25.25,0,0,0,.34-.12.89.89,0,0,0,0-.37A.26.26,0,0,0,26.5,20.25Z"/><path id="_Tracé_57" data-name="&lt;Tracé&gt;" class="cls-15" d="M26.91,21.75a.25.25,0,0,0-.32-.16.27.27,0,0,0-.15.33,2,2,0,0,0,.24.58c.18.29.59,0,.42-.29A1.6,1.6,0,0,1,26.91,21.75Z"/><path id="_Tracé_58" data-name="&lt;Tracé&gt;" class="cls-15" d="M28.71,22.43l-.41,0a.26.26,0,0,0,0,.52l.41,0a.26.26,0,0,0,0-.52Z"/><path id="_Tracé_59" data-name="&lt;Tracé&gt;" class="cls-15" d="M30.67,21.81a.87.87,0,0,0-.09.15l0,.05h0l0,0a.25.25,0,0,0,0,.34.23.23,0,0,0,.33,0,.85.85,0,0,0,.09-.15l0,0h0l0,0a.25.25,0,0,0,0-.34A.23.23,0,0,0,30.67,21.81Z"/><path id="_Tracé_60" data-name="&lt;Tracé&gt;" class="cls-15" d="M31.41,20.76a.26.26,0,0,0-.29.21v.09l-.06.18a.26.26,0,0,0,.2.31.26.26,0,0,0,.29-.21v-.09l.06-.18A.26.26,0,0,0,31.41,20.76Z"/><path id="_Tracé_61" data-name="&lt;Tracé&gt;" class="cls-15" d="M31.46,19.73a.26.26,0,0,0-.23.28v.23a.26.26,0,0,0,.27.24.26.26,0,0,0,.23-.28V20A.26.26,0,0,0,31.46,19.73Z"/><path id="_Tracé_62" data-name="&lt;Tracé&gt;" class="cls-15" d="M27.26,20.52c-.33,0-.28.53,0,.52S27.58,20.51,27.26,20.52Z"/><path id="_Tracé_63" data-name="&lt;Tracé&gt;" class="cls-15" d="M27.8,21.66a.23.23,0,0,0-.31.11.25.25,0,0,0,.11.33l.09,0h0l.06,0a.23.23,0,0,0,.33,0,.25.25,0,0,0,0-.34A1.08,1.08,0,0,0,27.8,21.66Z"/><path id="_Tracé_64" data-name="&lt;Tracé&gt;" class="cls-15" d="M28.92,21.84h-.08a.24.24,0,0,0,0,.49.58.58,0,0,0,.39-.18.25.25,0,0,0,0-.34A.23.23,0,0,0,28.92,21.84Z"/><path id="_Tracé_65" data-name="&lt;Tracé&gt;" class="cls-15" d="M30.4,21.33a.25.25,0,0,0-.34.12l0,0,0,0a.27.27,0,0,0,0,.37.25.25,0,0,0,.36,0,.8.8,0,0,0,.12-.19A.27.27,0,0,0,30.4,21.33Z"/><path id="_Tracé_66" data-name="&lt;Tracé&gt;" class="cls-15" d="M30.87,20.4a.25.25,0,0,0-.34.12,2.93,2.93,0,0,0-.1.33.26.26,0,0,0,.2.31.26.26,0,0,0,.29-.21l0-.12h0l0-.06A.27.27,0,0,0,30.87,20.4Z"/><path id="_Tracé_67" data-name="&lt;Tracé&gt;" class="cls-15" d="M28.42,21h-.07l-.14,0a.25.25,0,0,0-.29.21.27.27,0,0,0,.2.31,1.14,1.14,0,0,0,.35.06.26.26,0,0,0,0-.52Z"/><path id="_Tracé_68" data-name="&lt;Tracé&gt;" class="cls-15" d="M29.11,20.86h0s0,0,0,0a.26.26,0,0,0,.08.51.5.5,0,0,0,.29-.16.27.27,0,0,0,0-.37A.25.25,0,0,0,29.11,20.86Z"/><path id="_Tracé_69" data-name="&lt;Tracé&gt;" class="cls-14" d="M27.3,19.9c-.33,0-.28.53,0,.52S27.62,19.88,27.3,19.9Z"/><path id="_Tracé_70" data-name="&lt;Tracé&gt;" class="cls-2" d="M26.63,18.49l-.33.1c-.52,1.12.8,1.94,1.78,2.16a2.61,2.61,0,0,0,2-.29,1.93,1.93,0,0,0,.55-2.25C29.88,17.17,27.58,18.2,26.63,18.49Z"/><path id="_Tracé_71" data-name="&lt;Tracé&gt;" class="cls-7" d="M26.41,18.05h-.06a2.8,2.8,0,0,0,3.05,2c.56-.05.74-.63,1.2-2.21A19.16,19.16,0,0,1,26.41,18.05Z"/><path id="_Tracé_72" data-name="&lt;Tracé&gt;" class="cls-16" d="M26.3,17.78c-.11,0-.21.55-.19.55h.06C26.3,18.27,26.48,17.76,26.3,17.78Z"/><path id="_Tracé_73" data-name="&lt;Tracé&gt;" class="cls-16" d="M30.56,17.61l0,0c0,.11.2.47.28.35S30.57,17.59,30.56,17.61Z"/><path id="_Tracé_74" data-name="&lt;Tracé&gt;" d="M30,16.87c-.7,0-1.19.3-.55,1.2a2,2,0,0,0,1.77.83c1.06-.13,1.44-.63,1.26-1.82A20.33,20.33,0,0,1,30,16.87Z"/><path id="_Tracé_75" data-name="&lt;Tracé&gt;" d="M27.76,16.86a8,8,0,0,1-2.25.07c-.55,0,.18,1.74.74,1.92a4.77,4.77,0,0,0,.51.18,3.65,3.65,0,0,0,2.08-.25c.56-.26,1.12-1.26.68-1.83S28.3,16.75,27.76,16.86Z"/><g id="_Groupe_36" data-name="&lt;Groupe&gt;"><path id="_Tracé_76" data-name="&lt;Tracé&gt;" class="cls-4" d="M29.84,15.56a1.76,1.76,0,0,1-.4-.58c-.23-.65-.2-1.38-.46-2-1.2-.09-.85,3-.47,3.58.51.75,2.28,1,1.85-.32A2.21,2.21,0,0,0,29.84,15.56Z"/></g><path id="_Tracé_77" data-name="&lt;Tracé&gt;" class="cls-15" d="M26.31,17.25H26a.26.26,0,0,0,0,.52h.28a.26.26,0,0,0,0-.52Z"/><path id="_Tracé_78" data-name="&lt;Tracé&gt;" class="cls-15" d="M27.35,17.18H27.1a.26.26,0,0,0,0,.52h.25a.26.26,0,0,0,0-.52Z"/><path id="_Tracé_79" data-name="&lt;Tracé&gt;" class="cls-15" d="M28.17,17.08h0a.26.26,0,0,0,0,.52.5.5,0,0,0,.36-.16.27.27,0,0,0,0-.37A.24.24,0,0,0,28.17,17.08Z"/><path id="_Tracé_80" data-name="&lt;Tracé&gt;" class="cls-15" d="M26.75,18l0,0h-.15a.26.26,0,0,0,0,.52.76.76,0,0,0,.31-.06.27.27,0,0,0,.15-.33A.25.25,0,0,0,26.75,18Z"/><path id="_Tracé_81" data-name="&lt;Tracé&gt;" class="cls-15" d="M27.85,17.82l-.06,0h-.07a.26.26,0,0,0,0,.52.6.6,0,0,0,.25-.05.27.27,0,0,0,.15-.33A.25.25,0,0,0,27.85,17.82Z"/><path id="_Tracé_82" data-name="&lt;Tracé&gt;" class="cls-15" d="M28.61,17.64c.05-.05,0,0,0,0l-.08,0a.27.27,0,0,0-.07.36.25.25,0,0,0,.35.07A.89.89,0,0,0,29,18a.27.27,0,0,0,0-.37A.25.25,0,0,0,28.61,17.64Z"/><path id="_Tracé_83" data-name="&lt;Tracé&gt;" class="cls-15" d="M27.39,18.32h-.14a.26.26,0,0,0,0,.52h.14a.26.26,0,0,0,0-.52Z"/><path id="_Tracé_84" data-name="&lt;Tracé&gt;" class="cls-15" d="M28.43,18.28l-.1,0h0a.26.26,0,0,0,0,.52l.12,0s.09,0,0,0a.26.26,0,0,0,.23-.28A.26.26,0,0,0,28.43,18.28Z"/><path id="_Tracé_85" data-name="&lt;Tracé&gt;" class="cls-15" d="M30.79,17.34h-.1a.25.25,0,0,0-.33.12.27.27,0,0,0,.12.35.78.78,0,0,0,.35,0,.26.26,0,0,0,0-.52Z"/><path id="_Tracé_86" data-name="&lt;Tracé&gt;" class="cls-15" d="M31.87,17.39h-.22a.26.26,0,0,0,0,.52h.22a.26.26,0,0,0,0-.52Z"/><path id="_Tracé_87" data-name="&lt;Tracé&gt;" class="cls-15" d="M30.73,18.06h0a.25.25,0,0,0-.35,0,.27.27,0,0,0,0,.37.51.51,0,0,0,.38.12.26.26,0,0,0,0-.52Z"/><path id="_Tracé_88" data-name="&lt;Tracé&gt;" class="cls-15" d="M31.52,18.09h-.13a.26.26,0,0,0,0,.52h.13a.26.26,0,0,0,0-.52Z"/><ellipse id="_Tracé_89" data-name="&lt;Tracé&gt;" cx="24.86" cy="13.63" rx="0.46" ry="0.48" transform="translate(-1.13 2.31) rotate(-5.2)"/><ellipse id="_Tracé_90" data-name="&lt;Tracé&gt;" cx="30.98" cy="13.17" rx="0.39" ry="0.38" transform="translate(-0.67 1.71) rotate(-3.12)"/><path id="_Tracé_91" data-name="&lt;Tracé&gt;" d="M26.43,13.2a3.64,3.64,0,0,0-2.79.15.11.11,0,0,0,0,.18.2.2,0,0,0,.23,0,3.23,3.23,0,0,1,2.44-.11h.09a.18.18,0,0,0,.13-.07A.11.11,0,0,0,26.43,13.2Z"/><path id="_Tracé_92" data-name="&lt;Tracé&gt;" d="M31.46,12.74a1.57,1.57,0,0,0-1.23.21c-.11.08,0,.16.11.16s.2-.09.27-.12a1.54,1.54,0,0,1,.68-.07c.12,0,.36.15.48.08s.07-.08,0-.11A.92.92,0,0,0,31.46,12.74Z"/><g id="_Groupe_37" data-name="&lt;Groupe&gt;"><g id="_Groupe_38" data-name="&lt;Groupe&gt;"><path id="_Tracé_93" data-name="&lt;Tracé&gt;" class="cls-5" d="M32.42,27.72A2.57,2.57,0,0,0,31,27.21c-1.64,3.29-6.3,4.29-10.54,2.53a4.31,4.31,0,0,1-2.23-2.12l-.37-.56a4.85,4.85,0,0,1-1.35.61,8.89,8.89,0,0,0,4.81,4.75c2.48.79,5.6,1,7.95-.26C32.23,30.6,32.82,28,32.42,27.72Z"/></g></g><path id="_Tracé_94" data-name="&lt;Tracé&gt;" class="cls-3" d="M17.87,28.59l-.25.22a.35.35,0,1,0,.47.52l.25-.22a.35.35,0,0,0-.47-.52Z"/><path id="_Tracé_95" data-name="&lt;Tracé&gt;" class="cls-3" d="M20.46,29.84a.35.35,0,0,0-.49.1,1.7,1.7,0,0,0-.12.28l0,.1,0,.07v0a.36.36,0,0,0,.1.48.35.35,0,0,0,.49-.1,1.67,1.67,0,0,0,.12-.28l0-.1,0-.07v0A.36.36,0,0,0,20.46,29.84Z"/><path id="_Tracé_96" data-name="&lt;Tracé&gt;" class="cls-3" d="M22.84,30.54a.35.35,0,0,0-.37.33v0a.35.35,0,0,0,.5.49.67.67,0,0,0,.21-.47A.35.35,0,0,0,22.84,30.54Z"/><path id="_Tracé_97" data-name="&lt;Tracé&gt;" class="cls-3" d="M25.67,31.2a.43.43,0,0,0-.28-.14.35.35,0,0,0-.37.33.33.33,0,0,0,.07.22v0a.35.35,0,1,0,.7,0,1.09,1.09,0,0,0,0-.26A.47.47,0,0,0,25.67,31.2Z"/><path id="_Tracé_98" data-name="&lt;Tracé&gt;" class="cls-3" d="M28.3,30.67a.35.35,0,0,0-.37.33l0,.47a.35.35,0,1,0,.7,0l0-.47A.35.35,0,0,0,28.3,30.67Z"/><path id="_Tracé_99" data-name="&lt;Tracé&gt;" class="cls-3" d="M30.95,29.49a.35.35,0,0,0-.37.33.34.34,0,0,0,.15.3.35.35,0,0,0,.7,0,.63.63,0,0,0-.08-.36A.51.51,0,0,0,30.95,29.49Z"/><g id="_Groupe_39" data-name="&lt;Groupe&gt;"><path id="_Tracé_transparent_" data-name="&lt;Tracé transparent&gt;" class="cls-6" d="M24.93,11.81a2.81,2.81,0,0,0-1.93.78,1.67,1.67,0,0,0-.41,1.4c.14,1,1.13,1.61,2.52,1.54a3.16,3.16,0,0,0,2.55-1.22,1.32,1.32,0,0,0-.15-1.51A3,3,0,0,0,24.93,11.81Zm2.38,2.34a2.79,2.79,0,0,1-2.22,1c-.93,0-2-.25-2.12-1.24a1.32,1.32,0,0,1,.32-1.13,2.4,2.4,0,0,1,1.65-.65,2.6,2.6,0,0,1,2.23.84A1,1,0,0,1,27.31,14.15Z"/></g><g id="_Groupe_40" data-name="&lt;Groupe&gt;"><path id="_Tracé_transparent_2" data-name="&lt;Tracé transparent&gt;" class="cls-6" d="M31.52,11.54a2.88,2.88,0,0,0-.83.16,2,2,0,0,0-1.18,1,1.29,1.29,0,0,0-.08.74A1.7,1.7,0,0,0,31,15a3.54,3.54,0,0,0,.69,0,2.61,2.61,0,0,0,.51-.07,1.85,1.85,0,0,0,1.43-1.58,1.63,1.63,0,0,0-.42-1.22A2.23,2.23,0,0,0,31.52,11.54Zm1.83,1.81a1.52,1.52,0,0,1-1.18,1.26,2.41,2.41,0,0,1-.45.06,3.3,3.3,0,0,1-.63,0,1.35,1.35,0,0,1-1.34-1.26.92.92,0,0,1,.05-.53,1.63,1.63,0,0,1,1-.8,2.56,2.56,0,0,1,.74-.15,1.94,1.94,0,0,1,1.49.5A1.26,1.26,0,0,1,33.35,13.35Z"/></g><g id="_Groupe_41" data-name="&lt;Groupe&gt;"><path id="_Tracé_100" data-name="&lt;Tracé&gt;" class="cls-6" d="M29.54,13a.83.83,0,0,0-.56-.26,1.8,1.8,0,0,0-1.25.48l-.21.15.16.3.21-.15A1.55,1.55,0,0,1,29,13.13a.68.68,0,0,1,.51.33l.1.11c0-.08,0-.16,0-.24S29.53,13.14,29.54,13Z"/></g><g id="_Groupe_42" data-name="&lt;Groupe&gt;"><path id="_Tracé_101" data-name="&lt;Tracé&gt;" class="cls-6" d="M22.76,13.13c-.16-.2-.27-.06-.51-.06-.69,0-1.38-.1-2.08-.09s-1.82.31-1.74,1.25c.49-.72,1.15-.57,1.87-.43.27.05,2.49.16,2.49.39,0-.16.06-.57,0-.84A.42.42,0,0,0,22.76,13.13Z"/></g><g id="_Groupe_43" data-name="&lt;Groupe&gt;"><path id="_Tracé_102" data-name="&lt;Tracé&gt;" d="M31.13,10.61a5.93,5.93,0,0,1-1.25-.44c-.09.46-.11.82.17,1a.94.94,0,0,0,.4.14c.1,0,1.43,0,1.4.12C32,10.81,31.65,10.78,31.13,10.61Z"/></g><g id="_Groupe_44" data-name="&lt;Groupe&gt;"><g id="_Groupe_45" data-name="&lt;Groupe&gt;"><path id="_Tracé_103" data-name="&lt;Tracé&gt;" class="cls-17" d="M33.41,6.62c-.83.06-1.64.85-2.42,1.18a8.77,8.77,0,0,1-3,.8c-1.19,0-2.6-.24-3.73.15a12.41,12.41,0,0,0,2.92,1.12l.41.15a12,12,0,0,0,6.85.12C35.17,9.92,37,9.28,37,8.27c0,0,0,0,0-.07C37.06,7,34.38,6.55,33.41,6.62Z"/><path id="_Tracé_104" data-name="&lt;Tracé&gt;" class="cls-18" d="M29.72,1.51A8.59,8.59,0,0,0,27.38.62,8.87,8.87,0,0,0,25.51.41a5.69,5.69,0,0,0-1.34,0c-1,.27-1.45,1.51-1.51,2.39,0,.52.27,2.3.28,2.83,0,.86-.11,1.9.69,2.47l.42.33a1.64,1.64,0,0,0,.76.43,4.06,4.06,0,0,0,1,.16,23.12,23.12,0,0,0,4.93-.95c.2-.07,3-.83,2.91-1.16a8.8,8.8,0,0,0-.82-2.13A8,8,0,0,0,29.72,1.51Z"/><path id="_Tracé_105" data-name="&lt;Tracé&gt;" class="cls-17" d="M23.72,6.43a21.1,21.1,0,0,1-.57-4.49A4.73,4.73,0,0,1,23.7.62c-.61-.3-1.84.59-2.31.92a8.84,8.84,0,0,0-1.83,1.74c-.51.66-.73,2.63-.9,3.42-.83,4,4.38,2.9,6.39,2.25C24.42,9.15,23.76,6.78,23.72,6.43Z"/><path id="_Tracé_106" data-name="&lt;Tracé&gt;" class="cls-18" d="M23.15,1h0Z"/><path id="_Tracé_107" data-name="&lt;Tracé&gt;" class="cls-18" d="M20.88,7.84a3.65,3.65,0,0,1-.45-4.23c.41-.83,1.43-2.74,2.65-2.67C19.89.62,13.7,10,21.44,9.88c.84,0,3.23-.1,2.94-1.29A3.42,3.42,0,0,1,20.88,7.84Z"/><path id="_Tracé_108" data-name="&lt;Tracé&gt;" class="cls-18" d="M23.08.95h0Z"/><path id="_Tracé_109" data-name="&lt;Tracé&gt;" class="cls-18" d="M23.62,1.11A1.29,1.29,0,0,0,23.18,1,1.36,1.36,0,0,1,23.62,1.11Z"/><path id="_Tracé_110" data-name="&lt;Tracé&gt;" class="cls-19" d="M23,.29c-.63.25-.24.72.33.7.34,0,1.16-.13,1.06-.62S23.22.18,23,.29Z"/></g><path id="_Tracé_111" data-name="&lt;Tracé&gt;" class="cls-7" d="M25.28,7a.35.35,0,0,0-.49,0,.36.36,0,0,0,0,.49.86.86,0,0,1,.08.16l0,.09,0,.15a.35.35,0,0,0,.69-.11A1.66,1.66,0,0,0,25.28,7Z"/><path id="_Tracé_112" data-name="&lt;Tracé&gt;" class="cls-7" d="M24.67,4.4a.35.35,0,0,0-.69.11l.11.69a.35.35,0,0,0,.69-.11Z"/><path id="_Tracé_113" data-name="&lt;Tracé&gt;" class="cls-7" d="M24.4,2.07a.35.35,0,0,0-.69.11l.1.58a.35.35,0,0,0,.69-.11Z"/><path id="_Tracé_114" data-name="&lt;Tracé&gt;" class="cls-7" d="M26.4,1.92c-.3-.09-.61-.14-.91-.22A.38.38,0,0,0,25,1.9a.37.37,0,0,0,.21.48c.3.09.61.14.91.22a.38.38,0,0,0,.48-.21A.37.37,0,0,0,26.4,1.92Z"/><path id="_Tracé_115" data-name="&lt;Tracé&gt;" class="cls-7" d="M29.8,2.35l-.4-.29a.35.35,0,0,0-.41.57l.4.29a.35.35,0,1,0,.41-.57Z"/><path id="_Tracé_116" data-name="&lt;Tracé&gt;" class="cls-7" d="M31.55,4.32l0,0a.35.35,0,0,0-.68.15.65.65,0,0,0,.1.27.74.74,0,0,0,.19.17.35.35,0,1,0,.41-.57Z"/><path id="_Tracé_117" data-name="&lt;Tracé&gt;" class="cls-7" d="M32.27,5.88a.35.35,0,0,0,.11.69A.35.35,0,0,0,32.27,5.88Z"/><path id="_Tracé_118" data-name="&lt;Tracé&gt;" class="cls-7" d="M28.78,9.18h-.16l0,0,0,0,0,0-.05-.06a.35.35,0,0,0-.54.45,1,1,0,0,0,1,.37.35.35,0,1,0-.11-.69Z"/><path id="_Tracé_119" data-name="&lt;Tracé&gt;" class="cls-7" d="M31.69,9.52a.82.82,0,0,0-.63-.12.35.35,0,1,0,.11.69h.1a.35.35,0,0,0,.41-.57Z"/><path id="_Tracé_120" data-name="&lt;Tracé&gt;" class="cls-7" d="M19.31,5.85a.35.35,0,0,0-.33.38l0,.47a.35.35,0,1,0,.7-.05l0-.47A.35.35,0,0,0,19.31,5.85Z"/><path id="_Tracé_121" data-name="&lt;Tracé&gt;" class="cls-7" d="M20.08,3.67a1.2,1.2,0,0,0-.39.86.35.35,0,0,0,.7-.05V4.43h0l0-.06h0l.06-.07.13-.15a.35.35,0,0,0-.53-.46Z"/><path id="_Tracé_122" data-name="&lt;Tracé&gt;" class="cls-7" d="M21.07,7.48a.35.35,0,0,0,.05.7h.1a.35.35,0,0,0,.46-.53A.82.82,0,0,0,21.07,7.48Z"/></g></svg>