<svg xmlns="http://www.w3.org/2000/svg" xmlns:xlink="http://www.w3.org/1999/xlink" width="18" height="27" viewBox="0 0 18 27">
    <defs>
        <path id="a" d="M8.732 2.412c-3.492 0-6.348 2.835-6.351 6.306C2.377 12.244 5.205 15.1 8.7 15.1c3.514.002 6.367-2.83 6.368-6.321.002-3.52-2.832-6.367-6.337-6.368M8.186.032h1.078c.046.009.092.023.138.026 1.229.093 2.392.42 3.466 1.022 2.456 1.377 3.951 3.454 4.46 6.23.054.3.082.605.122.907v1.08c-.01.05-.024.101-.028.153a8.475 8.475 0 0 1-1.011 3.438c-2.528 4.647-5.06 9.293-7.59 13.939-.027.049-.057.096-.096.162-.039-.066-.069-.113-.095-.162-2.531-4.646-5.062-9.292-7.591-13.939a8.35 8.35 0 0 1-.915-2.668C.074 9.913.041 9.604 0 9.296V8.217c.01-.046.023-.091.027-.138.06-.848.23-1.676.557-2.46C1.837 2.603 4.065.771 7.278.154c.3-.057.605-.083.908-.123zM3.49 9.162l.226.07c.985.276 1.97.551 2.955.833.056.016.132.082.14.132.114.864.219 1.73.327 2.594l.131 1.039 5.413-8.713-.02-.026-9.172 4.071z"/>
    </defs>
    <g fill="none" fill-rule="evenodd">
        <mask id="b" fill="#fff">
            <use xlink:href="#a"/>
        </mask>
        <use fill="#000" xlink:href="#a"/>
        <g fill="#FFF" mask="url(#b)">
            <path d="M-8.5-4.5h36v36h-36z"/>
        </g>
    </g>
</svg>
