<svg xmlns="http://www.w3.org/2000/svg" xmlns:xlink="http://www.w3.org/1999/xlink" width="30" height="27" viewBox="0 0 30 27">
    <defs>
        <path id="a" d="M24.519 17.236h-4.715l.541-4.31h6.04l-1.866 4.31zm-3.14 6.896h-2.596l.7-4.31h3.966l-2.07 4.31zm-3.964-6.896h-4.656l-.69-4.31h5.862l-.516 4.31zm-1.036 6.896h-2.758l-.689-4.31h4.138l-.691 4.31zm-7.758 0l-2.069-4.31h3.992l.663 4.31H8.621zM3.449 12.926h6.034l.663 4.31H5.481l-2.032-4.31zm8.652-7.409c0-.777.292-1.511.849-2.068a2.91 2.91 0 0 1 4.135 0c.557.557.847 1.291.847 2.068l-.001 3.961h-5.826l-.004-3.961zm16.125 3.961h-7.708V5.517c0-3.034-2.466-5.517-5.5-5.517-3.035 0-5.5 2.483-5.5 5.517v3.961H1.725a1.724 1.724 0 0 0-1.479 2.611l6.651 14.63h16.034l6.774-14.63c.155-.26.295-.563.295-.887 0-.952-.822-1.724-1.774-1.724z"/>
    </defs>
    <g fill="none" fill-rule="evenodd">
        <mask id="b" fill="#fff">
            <use xlink:href="#a"/>
        </mask>
        <use fill="#000" xlink:href="#a"/>
        <g fill="#000" mask="url(#b)">
            <path d="M-5-7h40v40H-5z"/>
        </g>
    </g>
</svg>
