<svg xmlns="http://www.w3.org/2000/svg" xmlns:xlink="http://www.w3.org/1999/xlink" width="27" height="27" viewBox="0 0 27 27">
    <defs>
        <path id="a" d="M23.4 24.3c-.775.584-1.713.9-2.7.9a4.466 4.466 0 0 1-2.7-.9V21.73c0-.584.324-1.092.803-1.354a2.464 2.464 0 0 0 3.794 0c.479.262.803.77.803 1.354V24.3zm-2.7-7.2a1.697 1.697 0 1 1 0 3.394 1.697 1.697 0 0 1 0-3.394zm-10.8-.231A4.913 4.913 0 0 1 6.75 18a4.913 4.913 0 0 1-3.15-1.131V14.4a1.8 1.8 0 0 1 .937-1.58 2.875 2.875 0 0 0 4.426 0A1.8 1.8 0 0 1 9.9 14.4v2.469zM6.75 9a1.98 1.98 0 1 1 0 3.96 1.98 1.98 0 0 1 0-3.96zM18 7.329c0-.584.324-1.092.803-1.354a2.464 2.464 0 0 0 3.794 0c.479.262.803.77.803 1.354V9.9c-.775.583-1.713.899-2.7.899a4.466 4.466 0 0 1-2.7-.9V7.33zM20.7 2.7a1.697 1.697 0 1 1 0 3.394 1.697 1.697 0 0 1 0-3.394zm0 11.7a6.285 6.285 0 0 0-4.746 2.157l-2.754-1.51c.195-.631.3-1.302.3-1.997 0-.575-.072-1.133-.207-1.666l2.456-1.188a6.3 6.3 0 1 0-1.177-2.43l-2.457 1.188a6.75 6.75 0 1 0-.216 8.46l2.755 1.51A6.3 6.3 0 1 0 20.7 14.4z"/>
    </defs>
    <g fill="none" fill-rule="evenodd">
        <mask id="b" fill="#fff">
            <use xlink:href="#a"/>
        </mask>
        <use fill="#000" xlink:href="#a"/>
        <g fill="#FFF" mask="url(#b)">
            <path d="M-4-5h36v36H-4z"/>
        </g>
    </g>
</svg>
