<svg xmlns="http://www.w3.org/2000/svg" width="30" height="30" viewBox="0 0 30 30">
    <g fill="none" fill-rule="evenodd">
        <circle cx="15" cy="15" r="14" stroke="#cd3c14" stroke-width="2"/>
        <path fill="#cd3c14" fill-rule="nonzero" d="M17.23 14.368c.051.273.088.545.088.898 0 3.081-2.067 5.265-5.177 5.265a5.389 5.389 0 0 1-5.391-5.39 5.389 5.389 0 0 1 5.39-5.391c1.457 0 2.67.53 3.612 1.412l-1.464 1.405c-.397-.383-1.096-.831-2.147-.831-1.839 0-3.34 1.522-3.34 3.405 0 1.882 1.501 3.405 3.34 3.405 2.132 0 2.934-1.537 3.059-2.324h-3.06v-1.854h5.09zm5.205.181v-1.565h-1.572v1.565h-1.565v1.572h1.565v1.565h1.572v-1.565H24V14.55h-1.565z"/>
    </g>
</svg>
