<svg xmlns="http://www.w3.org/2000/svg" width="40" height="38" viewBox="0 0 40 38">
    <path fill="#FF7900" fill-rule="evenodd" d="M20 31.544L7.64 38.042 10 24.278 0 14.531l13.82-2.008L20 0l6.18 12.523L40 14.53l-10 9.747 2.36 13.764L20 31.544zm-4.525-15.617a.492.492 0 0 0-.382.48c0 5.268 4.27 9.53 9.529 9.53.232 0 .43-.161.48-.383l.493-2.136a.499.499 0 0 0-.287-.566l-2.3-.986a.492.492 0 0 0-.575.142l-1.019 1.244a7.61 7.61 0 0 1-3.639-3.639l1.245-1.019a.492.492 0 0 0 .141-.575l-.985-2.3a.496.496 0 0 0-.565-.285l-2.136.493z"/>
</svg>
