<svg xmlns="http://www.w3.org/2000/svg" width="29" height="27" viewBox="0 0 29 27">
    <path fill="#FF7900" fill-rule="evenodd" d="M14.195 22.388L5.422 27l1.675-9.769L0 10.313l9.808-1.425L14.195 0l4.386 8.888 9.808 1.425-7.097 6.918L22.968 27l-8.773-4.612zm-3.212-11.084a.35.35 0 0 0-.27.34 6.762 6.762 0 0 0 6.762 6.764.35.35 0 0 0 .341-.271l.35-1.516a.354.354 0 0 0-.204-.402l-1.633-.7a.35.35 0 0 0-.408.1l-.723.884a5.402 5.402 0 0 1-2.582-2.583l.883-.723a.349.349 0 0 0 .1-.408l-.7-1.632a.352.352 0 0 0-.4-.203l-1.516.35z"/>
</svg>
