<svg xmlns="http://www.w3.org/2000/svg" width="30" height="30" viewBox="0 0 30 30">
    <g fill="none" fill-rule="evenodd">
        <circle cx="15" cy="15" r="14" stroke="#4bb4e6" stroke-width="2"/>
        <path fill="#4bb4e6" fill-rule="nonzero" d="M11.44 21.75H8.485v-9.514h2.955v9.514zM9.961 10.938A1.725 1.725 0 0 1 8.25 9.211a1.712 1.712 0 0 1 3.423 0c0 .945-.767 1.727-1.712 1.727zM22.5 21.75h-2.949v-4.631c0-1.104-.022-2.52-1.536-2.52-1.536 0-1.772 1.2-1.772 2.44v4.711h-2.951v-9.514h2.834v1.298h.041c.394-.748 1.358-1.536 2.796-1.536 2.99 0 3.54 1.969 3.54 4.526v5.226H22.5z"/>
    </g>
</svg>
