<svg xmlns="http://www.w3.org/2000/svg" xmlns:xlink="http://www.w3.org/1999/xlink" width="40" height="40" viewBox="0 0 40 40">
    <defs>
        <path id="a" d="M3.595 10.899c2.653 2.498 6.972 2.619 9.742.013 1.238.672 2.193 1.626 2.842 2.88.499.965.745 1.992.744 3.08-.002 3.305 0 6.612 0 9.918V27H3.075a3.055 3.055 0 0 1-3.056-3.004c-.001-2.434-.05-4.87.012-7.303.066-2.591 1.351-4.487 3.564-5.794zm4.871.578a5.736 5.736 0 0 1-5.747-5.74C2.72 2.503 5.387-.025 8.525 0c3.133.026 5.698 2.591 5.697 5.745-.001 3.173-2.571 5.732-5.756 5.732z"/>
    </defs>
    <use fill="#231F20" fill-rule="evenodd" transform="translate(12 7)" xlink:href="#a"/>
</svg>
