<svg xmlns="http://www.w3.org/2000/svg" xmlns:xlink="http://www.w3.org/1999/xlink" width="40" height="40" viewBox="0 0 40 40">
    <defs>
        <path id="a" d="M17.734 10.569c.017-3.952-3.201-7.187-7.164-7.196C6.623 3.36 3.4 6.57 3.382 10.527c-.018 3.952 3.203 7.188 7.164 7.198 3.948.01 7.172-3.2 7.188-7.156zM2.43 17.283a10.549 10.549 0 0 1 .498-14.026c3.66-3.854 9.693-4.344 13.952-1.17 4.343 3.238 5.762 9.662 2.256 14.632.049.032.115.057.162.104 2.461 2.458 4.92 4.918 7.38 7.377.466.466.468.928.003 1.393-.342.342-.701.668-1.022 1.03-.468.524-1.03.478-1.497.008-2.431-2.457-4.882-4.893-7.324-7.338-.047-.047-.08-.11-.12-.166-4.677 3.291-10.841 2.32-14.288-1.844z"/>
    </defs>
    <g fill="none" fill-rule="evenodd" transform="translate(6 7)">
        <mask id="b" fill="#fff">
            <use xlink:href="#a"/>
        </mask>
        <use fill="#666" xlink:href="#a"/>
        <g fill="#f16e00" mask="url(#b)">
            <path d="M-6-7h40v40H-6z"/>
        </g>
    </g>
</svg>
