<svg xmlns="http://www.w3.org/2000/svg" width="30" height="30" viewBox="0 0 30 30">
    <g fill="none" fill-rule="evenodd">
        <circle cx="15" cy="15" r="14" stroke="#cd3c14" stroke-width="2"/>
        <path fill="#cd3c14" fill-rule="nonzero" d="M22.878 10.81a2.066 2.066 0 0 0-1.454-1.464C20.142 9 15 9 15 9s-5.142 0-6.424.346a2.066 2.066 0 0 0-1.454 1.463c-.344 1.29-.344 3.984-.344 3.984s0 2.693.344 3.983c.189.712.746 1.25 1.454 1.44 1.282.346 6.424.346 6.424.346s5.142 0 6.424-.346a2.035 2.035 0 0 0 1.454-1.44c.344-1.29.344-3.983.344-3.983s0-2.693-.344-3.984zm-9.56 6.428v-4.89l4.298 2.445-4.298 2.445z"/>
    </g>
</svg>
