<svg xmlns="http://www.w3.org/2000/svg" xmlns:xlink="http://www.w3.org/1999/xlink" width="131" height="113" viewBox="0 0 131 113">
    <defs>
        <path id="a" d="M0 .235h108.783v42.122H0z"/>
        <path id="c" d="M.058.035h40.543V33.6H.058z"/>
    </defs>
    <g fill="none" fill-rule="evenodd">
        <path fill="#FFF" fill-rule="nonzero" d="M19.546 111.64C7.484 99.82 0 83.346 0 65.123 0 29.157 29.157 0 65.123 0c35.967 0 65.124 29.157 65.124 65.123 0 18.223-7.484 34.697-19.547 46.517H19.546z"/>
        <g transform="translate(10.466 69.74)">
            <mask id="b" fill="#fff">
                <use xlink:href="#a"/>
            </mask>
            <path fill="#FB7900" d="M106.138 26.025C100.199 7.077 88.924 6.19 76.608 3.79c-3.831-.745-6.32-1.905-7.934-3.303-3.949 1.945-26.225 1.679-28.927-.252C37.809 1.743 35.014 3 30.953 3.79 18.636 6.19 9.599 7.275 3.063 26.025c-.97 2.777-1.99 8.224-3.063 16.34h108.535c-.82-8.412-1.62-13.858-2.397-16.34z" mask="url(#b)"/>
        </g>
        <path fill="#C19372" d="M80.29 42.457c0-14.467-5.053-19.795-14.863-19.795-9.81 0-14.602 6.84-14.602 19.62 0 9.174 4.032 11.392 4.032 15.73 0 3.283-.823 8.958-4.61 11.907 1.444 4.885 7.39 8.549 14.505 8.549 7 0 12.85-3.539 14.422-8.295-3.095-2.676-3.202-7.028-3.202-11.001 0-6.173 4.318-8.578 4.318-16.715"/>
        <path fill="#714E46" d="M69.37 51.804c0 1.32-1.635 3.064-3.65 3.064-2.016 0-3.65-1.744-3.65-3.064h7.3z"/>
        <path fill="#1B181C" d="M73.773 41.35a1.32 1.32 0 0 1-1.32 1.324c-.73 0-1.327-.592-1.327-1.324 0-.728.597-1.319 1.328-1.319.729 0 1.319.59 1.319 1.319M59.975 41.35a1.32 1.32 0 0 1-1.319 1.324c-.73 0-1.327-.592-1.327-1.324 0-.728.596-1.319 1.327-1.319.73 0 1.319.59 1.319 1.319"/>
        <g transform="translate(44.19 15.083)">
            <mask id="d" fill="#fff">
                <use xlink:href="#c"/>
            </mask>
            <path fill="#492191" d="M7.36 33.6c-.641-2.734-1.277-7.347.013-9.228 1.528-2.224 2.559-1.333 4.12-3.318 2.2-2.79.975-4.779 3.043-6.31 3.206-2.375 4.173.108 7.651-.688 3.478-.8 3.14-3.464 5.935-3.464 1.999 0 3.255 1.483 3.538 3.763.284 2.282-.89 4.38-.06 6.665.879 2.416 2.972 3.41 3.642 4.825 1.104 2.332.905 4.14.144 6.707-.02.074 4.386-.214 4.523-6.449.045-1.99-1.437-3.374-1.487-5.35-.06-2.475 3.011-3.74 1.959-6.836-1.052-3.097-3.51-3.119-4.874-4.11-1.362-.99-.091-5.229-2.938-6.84-3.62-2.044-5.275 1.273-7.566.902-2.292-.372-2.585-4.234-6.732-3.8-3.323.348-3.515 3.598-6.055 4.714-2.54 1.115-3.846-.71-6.48 1.602-2.538 2.23-.826 4.865-1.816 7.837-.899 2.698-3.089 1.63-3.73 4.415-.807 3.504 2.345 4.924 2.749 6.89.242 1.157-1.315 3.045.446 5.965C4.554 33.422 7.36 33.6 7.36 33.6" mask="url(#d)"/>
        </g>
    </g>
</svg>
