<svg xmlns="http://www.w3.org/2000/svg" xmlns:xlink="http://www.w3.org/1999/xlink" width="224" height="192" viewBox="0 0 224 192">
    <defs>
        <path id="a" d="M0 .404h187.086V72H0z"/>
        <path id="c" d="M.1.06h69.725v57.725H.1z"/>
    </defs>
    <g fill="none" fill-rule="evenodd">
        <path fill="#FFF" fill-rule="nonzero" d="M33.616 192C12.871 171.672 0 143.339 0 112 0 50.144 50.144 0 112 0s112 50.144 112 112c0 31.339-12.871 59.672-33.616 80H33.616z"/>
        <g transform="translate(18 119.94)">
            <mask id="b" fill="#fff">
                <use xlink:href="#a"/>
            </mask>
            <path fill="#FB7900" d="M182.537 44.758c-10.213-32.588-29.605-34.112-50.785-38.24-6.59-1.282-10.869-3.276-13.646-5.68-6.791 3.345-45.101 2.886-49.749-.434-3.332 2.594-8.14 4.754-15.124 6.113-21.182 4.13-36.725 5.995-47.965 38.241C2.767 51.922.398 66.078 0 71.984h150l37.363.076c-1.88-13.933-3.49-23.034-4.826-27.302z" mask="url(#b)"/>
        </g>
        <path fill="#C19372" d="M138.084 73.018c0-24.88-8.691-34.043-25.562-34.043-16.872 0-25.112 11.762-25.112 33.742 0 15.778 6.933 19.592 6.933 27.053 0 5.645-1.415 15.406-7.926 20.478 2.481 8.401 12.708 14.702 24.944 14.702 12.039 0 22.1-6.086 24.803-14.266-5.322-4.602-5.506-12.086-5.506-18.92 0-10.615 7.426-14.752 7.426-28.746"/>
        <path fill="#714E46" d="M119.303 89.093c0 2.27-2.811 5.27-6.276 5.27-3.468 0-6.277-3-6.277-5.27h12.553z"/>
        <path fill="#1B181C" d="M126.875 71.114a2.27 2.27 0 0 1-2.268 2.278 2.282 2.282 0 0 1-2.283-2.278 2.278 2.278 0 0 1 2.283-2.268 2.267 2.267 0 0 1 2.268 2.268M103.145 71.114a2.27 2.27 0 0 1-2.267 2.278 2.28 2.28 0 0 1-2.282-2.278 2.278 2.278 0 0 1 2.281-2.268 2.267 2.267 0 0 1 2.269 2.268"/>
        <g transform="translate(76 25.94)">
            <mask id="d" fill="#fff">
                <use xlink:href="#c"/>
            </mask>
            <path fill="#492191" d="M12.66 57.785c-1.105-4.702-2.198-12.635.02-15.869 2.627-3.826 4.401-2.293 7.086-5.707C23.55 31.412 21.443 27.99 25 25.357c5.514-4.084 7.176.186 13.16-1.183 5.98-1.377 5.4-5.957 10.205-5.957 3.438 0 5.598 2.55 6.085 6.47.488 3.925-1.529 7.533-.102 11.463 1.51 4.156 5.11 5.864 6.263 8.3 1.898 4.01 1.555 7.118.247 11.533-.035.128 7.543-.368 7.78-11.09.076-3.422-2.472-5.803-2.559-9.2-.103-4.259 5.18-6.434 3.37-11.759-1.81-5.326-6.037-5.363-8.382-7.069-2.343-1.703-.158-8.99-5.053-11.762-6.227-3.516-9.072 2.19-13.012 1.55-3.942-.639-4.447-7.28-11.579-6.535-5.714.6-6.045 6.188-10.413 8.107-4.368 1.918-6.615-1.219-11.144 2.756-4.365 3.834-1.42 8.366-3.123 13.478C5.196 29.1 1.43 27.262.326 32.052-1.06 38.078 4.36 40.52 5.054 43.9c.417 1.992-2.262 5.24.767 10.261 2.01 3.318 6.838 3.624 6.838 3.624" mask="url(#d)"/>
        </g>
    </g>
</svg>
