<svg xmlns="http://www.w3.org/2000/svg" xmlns:xlink="http://www.w3.org/1999/xlink" width="149" height="128" viewBox="0 0 149 128">
    <defs>
        <path id="a" d="M0 .268h124.446v48.064H0z"/>
        <path id="c" d="M.067.04h46.38v38.324H.066z"/>
    </defs>
    <g fill="none" fill-rule="evenodd">
        <path fill="#FFF" fill-rule="nonzero" d="M22.36 127.469C8.563 113.973 0 95.163 0 74.357 0 33.29 33.355 0 74.5 0S149 33.29 149 74.357c0 20.806-8.562 39.616-22.36 53.112H22.36z"/>
        <g transform="translate(11.973 79.628)">
            <mask id="b" fill="#fff">
                <use xlink:href="#a"/>
            </mask>
            <path fill="#FB7900" d="M121.42 29.715C114.626 8.08 101.727 7.068 87.639 4.327c-4.384-.85-7.23-2.174-9.077-3.77-4.518 2.22-30 1.916-33.092-.289-2.217 1.723-5.415 3.157-10.06 4.059-14.09 2.741-24.43 3.98-31.906 25.388-1.109 3.17-2.277 9.39-3.504 18.657h125c-1.498-9.605-2.691-15.823-3.58-18.657z" mask="url(#b)"/>
        </g>
        <path fill="#C19372" d="M91.85 48.477c0-16.519-5.78-22.601-17.003-22.601-11.223 0-16.704 7.808-16.704 22.4 0 10.476 4.612 13.008 4.612 17.961 0 3.748-.941 10.228-5.272 13.596 1.65 5.577 8.453 9.76 16.592 9.76 8.008 0 14.7-4.04 16.498-9.47-3.54-3.056-3.662-8.025-3.662-12.562 0-7.047 4.94-9.794 4.94-19.084"/>
        <path fill="#714E46" d="M79.358 59.15c0 1.506-1.87 3.498-4.175 3.498-2.307 0-4.175-1.992-4.175-3.499h8.35z"/>
        <path fill="#1B181C" d="M84.395 47.212a1.51 1.51 0 0 1-1.51 1.513 1.516 1.516 0 0 1-1.518-1.513 1.514 1.514 0 0 1 3.028 0M68.61 47.212a1.51 1.51 0 0 1-1.508 1.513 1.516 1.516 0 0 1-1.518-1.513 1.514 1.514 0 0 1 3.026 0"/>
        <g transform="translate(50.554 17.222)">
            <mask id="d" fill="#fff">
                <use xlink:href="#c"/>
            </mask>
            <path fill="#492191" d="M8.42 38.364c-.734-3.122-1.46-8.389.015-10.536 1.747-2.54 2.927-1.522 4.713-3.789 2.516-3.184 1.116-5.456 3.48-7.204 3.669-2.712 4.774.123 8.754-.786 3.978-.914 3.592-3.955 6.789-3.955 2.287 0 3.723 1.693 4.047 4.296.325 2.606-1.017 5-.067 7.61 1.004 2.76 3.399 3.893 4.166 5.51 1.262 2.662 1.034 4.726.164 7.657-.023.085 5.017-.244 5.174-7.362.052-2.272-1.643-3.853-1.701-6.109-.069-2.827 3.445-4.27 2.24-7.806-1.203-3.536-4.014-3.56-5.574-4.693-1.559-1.13-.105-5.97-3.361-7.809-4.142-2.334-6.035 1.453-8.656 1.029-2.622-.424-2.958-4.834-7.702-4.339-3.8.398-4.02 4.109-6.926 5.383-2.906 1.273-4.4-.81-7.413 1.83-2.903 2.545-.945 5.554-2.077 8.947C3.456 19.318.95 18.1.217 21.28c-.923 4.001 2.683 5.622 3.145 7.866.277 1.323-1.505 3.478.51 6.813 1.337 2.202 4.549 2.406 4.549 2.406" mask="url(#d)"/>
        </g>
    </g>
</svg>
