<svg xmlns="http://www.w3.org/2000/svg" xmlns:xlink="http://www.w3.org/1999/xlink" width="580" height="269" viewBox="0 0 580 269">
    <defs>
        <path id="a" d="M0 .503h83.716v188.265H0z"/>
        <path id="c" d="M0 .193h29.582v29.382H0z"/>
        <path id="e" d="M.175.182h29.581v29.382H.175z"/>
        <path id="g" d="M0 .722h250.791v92.837H0z"/>
        <linearGradient id="i" x1="9.287%" x2="71.228%" y1="50%" y2="50%">
            <stop offset="0%" stop-color="#FC7900" stop-opacity="0"/>
            <stop offset="100%" stop-color="#FB7900"/>
        </linearGradient>
        <linearGradient id="j" x1="9.287%" x2="71.228%" y1="50%" y2="50%">
            <stop offset="0%" stop-color="#FFF" stop-opacity="0"/>
            <stop offset="100%" stop-color="#FFF"/>
        </linearGradient>
    </defs>
    <g fill="none" fill-rule="evenodd">
        <path fill="#4BB4E6" fill-rule="nonzero" d="M0 0h580v268H0z"/>
        <path fill="#FFF" d="M448 269H304.076c-2.616-35.049.615-78.118 26.296-99.026-2.548-7.536-6.37-18.778-8.789-25.41-3.775-10.354-4.455-9.056-6.634-15.032-2.178-5.972-3.017-7.483-4.838-8.245-1.818-.772-2.202-2.347-3.951-7.144a1741.89 1741.89 0 0 1-4.64-12.991s-5.437.926-9.9-.502c0 0-10.285 4.501-11.914 4.52-1.632.022-8.836-3.65-11.552-8.191l-7.05 2.561c-3.058 1.111-9.843 3.287-10.103-.21-.074-1.11 4.8-2.674 4.8-2.674s-1.214-.77.905-1.54c2.127-.773 6.261-.977 8.089-1.435 0 0 11.676-3.863 15.246-5.16 3.568-1.297 5.705-4.51 13.96-7.989 8.257-3.473 10.944-4.546 10.944-4.546s-2.827-5.644-2.906-11.14c-.08-5.5.386-6.364 4.086-8.219 5.435-2.725 7.709 4.07 8.823 8.091a187.403 187.403 0 0 0 2.131 7.147s6.609-1.656 12.968-1.288c6.369.364 8.777-1.32 13.303-3.082 4.533-1.76 15.17-6.128 15.17-6.128s2.57-2.191 5.128-3.237c2.554-1.045 3.58-1.554 4.284-1.662.421-.06.263.576.263.576s3.912-1.962 4.675-.373c.763 1.595-1.567 4.217-6.33 6.34-4.761 2.123-8.23 2.963-8.23 2.963s.045 3.332-.522 7.97c-.571 4.64-1.13 4.555-1.13 4.555s-2.24 1.507-8.824 4.425c-6.589 2.916-11.738 5.923-11.738 5.923s12.993 31.137 13.856 33.786c1.574 4.856-.404 3.383 1.158 8.726 1.564 5.34 4.715 14.775 7.302 21.077 1.41 3.437 2.6 7.515 3.757 10.54C398.609 169.963 435.263 242.453 448 269z"/>
        <path fill="#FFF" d="M493.367 167.16l7.552 2.749c-1.293 6.728-1.463 12.396-2.65 19.254a115.743 115.743 0 0 0-7.483-3.023 127.97 127.97 0 0 0-7.54-2.483c2.43-3.636 6.802-10.463 10.121-16.497m20.283 54.148c-1.064-6.934-1.818-12.438 2.396-21.751a88.111 88.111 0 0 0-3.2-2.247l-.44-.182c-.255-.17-.505-.34-.764-.509-.036-.1-.085-.192-.083-.31-1.293-43.536 15.327-95.38 31.855-147.179 1.753-2.873 4.231-2.904 5.004-6.285.742-3.249-1.899-4.401-2.023-7.493-.398-2.13 2.098-5.605-.227-6.84-1.048 2.357-2.535 3.774-3.585 6.127-3.006 1.472-4.833 1.124-6.37 4.44-1.31 2.83.28 5.376-.206 8.03-.816 4.459-3.614 8.662-5.374 12.91-17.23 41.537-39.406 93.541-64.424 119.877a97.6 97.6 0 0 0-5.435-.643c-2.729 10.092-6.853 13.82-12.153 18.47-9.538 8.36-25.548 20.132-34.455 27.504 1.72.48 15.503 5.643 23.29 8.477 2.759-4.641 9.781-11.825 12.318-14.03 9.981-8.666 23.026-13.993 36.215-5.307l.07.01c7.357 5.191 10.989 14.04 12.442 23.172.532 3.357 1.326 12.462.449 17.85 7.867 2.863 22.73 8.345 24.372 9.084-2.105-11.49-7.72-30.507-9.672-43.175"/>
        <path fill="#000" d="M117.88 210.076c-.01 5.656-4.619 10.233-10.294 10.222l-66.445-.122c-5.673-.011-10.266-4.604-10.255-10.26l.265-142.694C31.16 61.567 35.77 56.99 41.445 57l66.444.123c5.675.01 10.267 4.605 10.256 10.26l-.265 142.693z"/>
        <path fill="#FFF" d="M113.809 188.903l-78.774-.145.213-114.7 78.775.145zM83.126 204.891c-.009 4.62-3.772 8.357-8.406 8.348-4.635-.008-8.385-3.76-8.377-8.379.01-4.618 3.773-8.357 8.407-8.348 4.634.009 8.385 3.76 8.376 8.38"/>
        <path fill="#484848" d="M76.026 62.526a1.709 1.709 0 0 1-1.715 1.704 1.709 1.709 0 0 1-1.71-1.71 1.71 1.71 0 0 1 1.716-1.704 1.709 1.709 0 0 1 1.71 1.71M81.837 69.194a1.54 1.54 0 0 1-1.545 1.533l-13.357-.025a1.537 1.537 0 1 1 .006-3.072l13.357.024a1.54 1.54 0 0 1 1.54 1.54"/>
        <path fill="#464749" d="M34.659 83.73a2.394 2.394 0 0 1-2.401 2.384 2.393 2.393 0 0 1-2.393-2.394l.005-3.072a2.392 2.392 0 0 1 2.403-2.385 2.393 2.393 0 0 1 2.392 2.394l-.006 3.072zM34.636 95.79a2.393 2.393 0 0 1-2.4 2.386 2.393 2.393 0 0 1-2.394-2.394l.005-3.072a2.394 2.394 0 0 1 2.403-2.386 2.393 2.393 0 0 1 2.392 2.394l-.006 3.072z"/>
        <g transform="translate(24 89.868)">
            <mask id="b" fill="#fff">
                <use xlink:href="#a"/>
            </mask>
            <path fill="#C19372" d="M83.716 130.152s-7.739 8.306-13.394 26.699c-3.77 12.262-5.16 18.853-4.167 19.773H13.473c-5.01-13-8.483-34.425-10.418-64.272C1.752 92.247 2.162 95.146.972 64.59-.22 34.033-.738 2.273 1.94.938c6.147-3.062 16.072 9.344 12.723 59.795 0 0 3.35 40.323 11.906 42.126 17.19 3.621 24.108-20.47 30.657-27.293 6.548-6.823 18.751-8.603 15.477 1.78-3.274 10.384-19.644 25.513-23.514 38.863-3.87 13.349-.372 13.548-.372 13.548s34.303.395 34.601.395" mask="url(#b)"/>
        </g>
        <g>
            <g transform="translate(45 115.243)">
                <mask id="d" fill="#fff">
                    <use xlink:href="#c"/>
                </mask>
                <path fill="#020303" d="M25.765.193H6.963c-2.108 0-3.817 1.697-3.817 3.792 0 2.093 1.71 3.791 3.817 3.791h9.586L1.118 23.103a3.774 3.774 0 0 0 0 5.362 3.836 3.836 0 0 0 5.398 0l15.431-15.327v9.521c0 2.094 1.71 3.792 3.818 3.792s3.817-1.698 3.817-3.792V3.985c0-2.095-1.71-3.792-3.817-3.792" mask="url(#d)"/>
            </g>
            <g transform="translate(78.224 112.13)">
                <mask id="f" fill="#fff">
                    <use xlink:href="#e"/>
                </mask>
                <path fill="#FB7900" d="M3.992 29.564h18.801c2.109 0 3.818-1.697 3.818-3.792 0-2.093-1.71-3.791-3.818-3.791h-9.585l15.43-15.327a3.774 3.774 0 0 0 0-5.362 3.836 3.836 0 0 0-5.398 0L7.81 16.619V7.098c0-2.094-1.71-3.792-3.818-3.792S.175 5.004.175 7.098v18.674c0 2.095 1.709 3.792 3.817 3.792" mask="url(#f)"/>
            </g>
        </g>
        <g>
            <g transform="translate(296 174.991)">
                <mask id="h" fill="#fff">
                    <use xlink:href="#g"/>
                </mask>
                <path fill="#FB7900" d="M238.319 93.56c4.545-29.368 0-54.965-22.152-72.216-11.5-8.956-22.479-10.709-31.481-13.992-.423-.159-.81-.305-1.229-.457-5.746 10.122-18.822 21.444-50.998 21.444-43.377 0-51.55-19.735-53.085-27.617C68.559 2.428 51.812 7.884 43.65 16.139c-9.562 9.674-26.574 37.887-24.763 77.42H238.32z" mask="url(#h)"/>
            </g>
            <path fill="#C19372" d="M480.141 181.853c-19.476-7.177-28.776-12.324-30.208-27.126-1.16-11.945 3.426-27.225 3.426-27.225l-45.025 14.444c.877 3.493 3.974 14.206-4.775 24.121-6.756 7.648-17.352 7.703-28.088 9.398 0 9.904 9.714 28.632 53.115 28.632 32.193 0 45.808-12.124 51.555-22.244z"/>
            <path fill="#000" d="M414.293 65.924s-7.925-2.708-21.11 5.185c-14.212 8.51-22.88 23.334-21.43 43.289 2.219 30.538 24.574 38.606 40.534 35.864 18.041-3.098 22.303-32.256 22.303-32.256l-20.297-52.082z"/>
            <path fill="#000" d="M410 67.058c-3.408 0-9.213.903-16.817 5.467-14.775 8.873-22.18 23.882-20.846 42.262.914 12.63 5.529 22.54 13.346 28.659 7.016 5.492 16.7 7.826 25.887 6.241 16.354-2.816 21.001-28.639 21.42-31.175L413.107 67.36c-.5-.114-1.556-.302-3.107-.302m-4.146 84.673c-7.697 0-15.288-2.484-21.13-7.058-8.17-6.396-12.992-16.693-13.94-29.773-1.378-18.997 6.294-34.519 21.599-43.71 13.211-7.93 21.222-5.332 21.558-5.217l.343.117 20.306 52.244-.03.204c-.043.3-1.108 7.426-4.4 15.058-4.411 10.227-10.748 16.322-18.325 17.627a35.262 35.262 0 0 1-5.98.508"/>
            <path fill="#C19372" d="M394.49 117.864c4.51 30.578 20.735 41.584 34.631 40.59 12.88-.923 29.066-13.223 31.323-38.725 2.38-26.735-8.787-49.446-33.331-52.217-15.409-1.736-37.137 19.771-32.622 50.352z"/>
            <path fill="#000" d="M413.25 66.853c-2.176-.966-10.945 5.313-18.912 15.91-4.815 6.393-8.61 28.312-6.759 37.608 1.214 6.106 7.78 3.794 7.081 0-2.321-12.634 10.981-12.238 17.307-24.844 6.441-12.85 1.83-22.138 3.86-23.122 5.42-2.625 16.33-1.738 20.456 5.265 5.76 9.77-2.18 19.604-1.804 33.106.354 12.723 9.304 37.58 33.262 36.041 16.2-1.037 24.186-10.923 27.008-19.99 3.524-11.273-4.456-23.372-4.456-23.372s-1.47 10.578-9.497 7.032c-10.971-4.844.227-23.548-7.973-39.686-6.898-13.571-20.54-21.435-35.262-20.796-21.976.964-24.311 16.848-24.311 16.848"/>
            <path fill="#000" d="M423.197 70.17c5.346 0 11.353 2.038 14.265 7.024 3.584 6.134 2.052 12.387.432 19.003-1.115 4.55-2.266 9.254-2.119 14.605.234 8.514 4.21 21.094 12.386 28.6 5.471 5.025 12.157 7.314 19.864 6.82 18.555-1.199 24.482-14.048 26.168-19.517 2.606-8.418-1.421-17.464-3.375-21.124-.554 1.853-1.702 4.497-3.947 5.756-1.745.978-3.806.95-6.127-.087-6.234-2.778-5.845-9.642-5.395-17.589.401-7.087.857-15.122-2.914-22.61-6.672-13.249-19.823-21.075-34.34-20.448-20.968.93-23.42 16.092-23.44 16.245l-.15 1.021-.936-.42c-1.41-.623-9.62 4.65-17.87 15.726-4.522 6.061-8.397 27.921-6.581 37.129.526 2.664 2.103 3.351 3.397 3.096 1.25-.24 2.384-1.353 2.118-2.802-1.418-7.787 2.71-10.975 7.488-14.666 3.379-2.61 7.209-5.57 9.791-10.764 4.08-8.217 3.6-14.933 3.31-18.945-.18-2.522-.289-4.044.886-4.62 1.876-.918 4.4-1.433 7.089-1.433m42.771 77.685c-7.241 0-13.576-2.448-18.855-7.296-8.56-7.856-12.643-20.584-12.893-29.713-.154-5.562 1.076-10.589 2.164-15.024 1.61-6.572 2.999-12.248-.262-17.834-3.802-6.51-14.187-7.49-19.333-4.978-.22.259-.104 1.834-.015 3.1.3 4.172.802 11.156-3.47 19.758-2.744 5.518-6.724 8.592-10.235 11.306-4.733 3.656-8.153 6.296-6.906 13.14.439 2.408-1.36 4.24-3.355 4.625-2.094.407-4.516-.783-5.216-4.33-1.914-9.705 2.064-31.941 6.863-38.374 6.688-8.98 15.118-16.207 18.822-16.367.82-3.252 5.272-15.966 24.75-16.829 15.123-.678 28.845 7.5 35.797 21.304 3.96 7.864 3.491 16.121 3.077 23.41-.434 7.668-.778 13.726 4.471 16.066 1.854.825 3.447.873 4.742.15 2.904-1.627 3.612-6.552 3.618-6.6l.285-2.061 1.137 1.738c.331.507 8.098 12.587 4.525 24.123-1.783 5.778-8.035 19.355-27.553 20.615-.728.049-1.448.07-2.158.07"/>
            <path fill="#714E46" d="M437.498 129.44c0 3.758-4.342 8.723-9.691 8.723-5.355 0-9.692-4.965-9.692-8.722h19.383z"/>
            <path fill="#1B181C" d="M418.115 106.658c0 1.88-1.512 3.4-3.382 3.4a3.402 3.402 0 0 1-3.403-3.4c0-1.869 1.529-3.385 3.403-3.385a3.382 3.382 0 0 1 3.382 3.385"/>
        </g>
        <g fill-rule="nonzero">
            <path fill="url(#i)" d="M138.418 20.754V.784l35.785 35.785-35.785 35.784v-19.97H39.734v-31.63h98.684z" transform="translate(109 116)"/>
            <path fill="url(#j)" d="M99.68 20.584V.784l35.784 35.785L99.68 72.353V51.575H.996V20.584H99.68z" transform="translate(109 116)"/>
        </g>
        <path fill="#000" fill-rule="nonzero" d="M473 223v18.994L487.936 248 503 241.994V223z"/>
    </g>
</svg>
