<svg xmlns="http://www.w3.org/2000/svg" xmlns:xlink="http://www.w3.org/1999/xlink" width="580" height="275" viewBox="0 0 580 275">
    <defs>
        <path id="a" d="M0 0h258v269H0z"/>
        <path id="c" d="M86.47.132L56.848 9.938a52.747 52.747 0 0 0-33.98 29.392c-1.3 2.934-2.254 6.01-2.985 9.134L1.46 127.227c-3.652 11.844 5.218 23.837 17.631 23.837h17.373v55.832h141.318v-55.832h17.374c12.413 0 21.282-11.993 17.63-23.837l-18.423-78.763c-.732-3.124-1.685-6.2-2.985-9.134a52.747 52.747 0 0 0-33.98-29.392L128.05.132"/>
        <path id="e" d="M86.47.132L56.848 9.938a52.747 52.747 0 0 0-33.98 29.392c-1.3 2.934-2.254 6.01-2.985 9.134L1.46 127.227c-3.652 11.844 5.218 23.837 17.631 23.837h17.373v55.832h141.318v-55.832h17.374c12.413 0 21.282-11.993 17.63-23.837l-18.423-78.763c-.732-3.124-1.685-6.2-2.985-9.134a52.747 52.747 0 0 0-33.98-29.392L128.05.132H86.469z"/>
        <path id="g" d="M.02.396c0 3.382 4.12 7.85 9.207 7.85 5.082 0 9.208-4.468 9.208-7.85H.02z"/>
        <path id="i" d="M.331 4.093a3.402 3.402 0 0 0 3.401 3.399 3.388 3.388 0 0 0 3.383-3.399A3.383 3.383 0 0 0 3.732.708C1.859.708.331 2.224.331 4.093z"/>
        <path id="k" d="M.428 4.093a3.403 3.403 0 0 0 3.403 3.399 3.387 3.387 0 0 0 3.381-3.399A3.382 3.382 0 0 0 3.831.708C1.957.708.428 2.224.428 4.093z"/>
        <path id="m" d="M0 0h376v268H0z"/>
        <path id="o" d="M.324.746h30.04v27.023H.323z"/>
        <path id="q" d="M0 .643h19.946v11.16H0z"/>
    </defs>
    <g fill="none" fill-rule="evenodd">
        <path fill="#4BB4E6" fill-rule="nonzero" d="M0 0h580v274H0z"/>
        <g transform="translate(0 6)">
            <mask id="b" fill="#fff">
                <use xlink:href="#a"/>
            </mask>
            <g mask="url(#b)">
                <g transform="translate(19 119)">
                    <mask id="d" fill="#fff">
                        <use xlink:href="#c"/>
                    </mask>
                    <path fill="#FF7900" d="M212.785 127.227l-18.422-78.764c-.732-3.124-1.685-6.2-2.985-9.133a52.745 52.745 0 0 0-33.98-29.392L128.05.132H86.469L56.85 9.938a52.745 52.745 0 0 0-33.98 29.392c-1.301 2.934-2.254 6.009-2.985 9.133L1.461 127.227c-3.654 11.844 5.217 23.836 17.63 23.836h17.373v55.833h141.318v-55.833h17.374c12.413 0 21.283-11.992 17.63-23.836" mask="url(#d)"/>
                </g>
                <g transform="translate(19 119)">
                    <mask id="f" fill="#fff">
                        <use xlink:href="#e"/>
                    </mask>
                    <use fill="#000" xlink:href="#e"/>
                    <path fill="#FFF" d="M128.707.048v32.064l-9.251 9.236V198.83H95.073V41.348l-9.251-9.236V.048z" mask="url(#f)"/>
                </g>
                <path fill="#C19372" d="M120.092 23.914c-17.162 0-31.075 13.941-31.075 31.14v19.368c0 13.155 4.49 23.68 11.678 30.794 2.73 2.703 4.334 6.327 4.334 10.171v3.053c0 14.616 9.638 23.606 21.529 23.606 11.89 0 21.53-8.99 21.53-23.606v-3.053c0-3.845 1.603-7.469 4.334-10.17 7.187-7.117 11.677-17.64 11.677-30.795V55.053c0-17.198-13.913-31.14-31.075-31.14h-12.932z"/>
                <path fill="#000" d="M90.294 69.12l-2.89 1.704V58.428c0-21.382 17.297-38.716 38.636-38.716h1.037c21.337 0 38.635 17.334 38.635 38.716v12.396l-2.885-1.705c-9.233-3.854-16.278-19.269-17.068-26.904 0 0-16.317 24.563-55.465 26.904"/>
                <path fill="#000" d="M117.514 66.697l.97-5.855 27.275-18.626s-5.699 16.946-28.245 24.481"/>
                <path fill="#C19372" d="M90.294 86.102c-4.712-2.907-7.553-5.25-7.553-9.413 0-4.164 3.399-7.57 7.553-7.57v16.983zM162.827 86.102c4.712-2.907 7.553-5.25 7.553-9.413 0-4.164-3.399-7.57-7.553-7.57v16.983zM95.17 220.276c-2.91.282-4.925 3.044-4.31 5.908l4.654 21.65c.69 3.204 4.263 4.84 7.13 3.264l15.779-8.672a14.674 14.674 0 0 0 7.571-13.751l-.379-6.245a4.893 4.893 0 0 0-5.35-4.58l-25.095 2.426z"/>
                <path fill="#666" d="M142.756 250.78h-32.14a3.917 3.917 0 0 1-3.913-3.921V185.01a3.917 3.917 0 0 1 3.913-3.922h32.14a3.917 3.917 0 0 1 3.912 3.922v61.849a3.917 3.917 0 0 1-3.912 3.922"/>
                <path fill="#C19372" d="M158.042 218.135h-.001c-1.943-.15-3.8-.863-5.344-2.054l-6.028-4.646v5.824l-13.765-1.06a4.892 4.892 0 0 0-5.26 4.682l-.258 6.252a14.674 14.674 0 0 0 7.837 13.6l15.945 8.363c2.898 1.52 6.44-.185 7.065-3.402l4.233-21.736c.56-2.877-1.508-5.598-4.424-5.823"/>
                <g transform="translate(116 99)">
                    <mask id="h" fill="#fff">
                        <use xlink:href="#g"/>
                    </mask>
                    <path fill="#714E46" d="M-4.73 12.747h27.914v-16.85H-4.73z" mask="url(#h)"/>
                </g>
                <g transform="translate(103 72)">
                    <mask id="j" fill="#fff">
                        <use xlink:href="#i"/>
                    </mask>
                    <path fill="#1B181C" d="M-4.67 12.492h16.784V-4.292H-4.67z" mask="url(#j)"/>
                </g>
                <g transform="translate(143 72)">
                    <mask id="l" fill="#fff">
                        <use xlink:href="#k"/>
                    </mask>
                    <path fill="#1B181C" d="M-4.572 12.492h16.784V-4.292H-4.572z" mask="url(#l)"/>
                </g>
            </g>
        </g>
        <g transform="translate(204 6)">
            <mask id="n" fill="#fff">
                <use xlink:href="#m"/>
            </mask>
            <g mask="url(#n)">
                <path fill="#C09372" d="M152.743 109.645s1.705 3.073.86 5.646c-.844 2.572-1.816 10.243-1.454 9.534.362-.709 21.3-6.74 21.3-6.74l.199-5.775-5.694-1.137c-3.663-.732-5.534-2.954-7.608-7.308l-4.231 1.836-4.853.5 1.48 3.444z"/>
                <path fill="#C09372" d="M160.346 84.372l.366 19a4.126 4.126 0 0 1-2.312 3.788c-3.998 1.963-11.82 5.299-13.374 2.222-2.428-4.805-4.862-15.467-5.914-20.375a2.331 2.331 0 0 1 2.066-2.81l19.168-1.825zM136.752 205.517l24.799-2.799s-6.858 35.66-8.45 41.488c0 0 12.77 34.844 14.868 42.686 2.096 7.841 3.202 13.096 3.202 13.096l-6.733 2.405-23.807-53.202s-1.777-3.276-2.51-9.382c-.731-6.105-1.369-34.292-1.369-34.292"/>
                <path fill="#C09372" d="M155.075 203.775s9.222 45.664 13.58 49.468c4.874 4.257 50.855 2.068 50.855 2.068s15.803 3.224 5.87-6.552c-.714-.703-30.68-5.744-41.641-7.568a4.372 4.372 0 0 1-3.634-4.75c.202-2.037.433-4.851.664-14.098l-1.61-25.01-24.084 6.442z"/>
                <path fill="#FFD203" d="M212.367 256.926l1.354-12.78s8.196 4.242 12.534 3.291c3.832-.838 5.629.086 7.05 2.34 1.422 2.254 3.382 3.441 2.7 9.082-.415 3.427-1.744 4.837-2.724 5.416-.694.41-1.57.233-2.07-.401-.466-.592-1.007-1.598-1.391-3.294-.82-3.604-2.783-2.45-7.36-3.598-6.046-1.518-10.093-.056-10.093-.056"/>
                <path fill="#FFD203" d="M235.667 248.372l-.514 2.269-4.665-1.056.514-2.27z"/>
                <path fill="#FF8AD4" d="M173.648 112.31l8.406 1.721-4.581 4.77c-.882 2.56-1.712 7-1.582 9.705l-.028.425-1.567 23.147c.055 3.335.625 6.64 1.693 9.8l17.727 52.49s-24.15 4.199-34.379 4.372c-7.22.122-22.4-.375-22.4-.375l-.277-12.422c-.016-.683.022-1.366.111-2.043l5.525-37.898.606-5.964a14.905 14.905 0 0 0-2.396-9.74c-1.49-2.25-3.034-4.507-3.22-4.798-2.372-3.69-3.175-6.562-1.844-10.98l.425-1.21c1.3-1.847 1.639-4.164 1.101-6.359a8.991 8.991 0 0 1-.256-1.78c-.13-3.243 2.192-6.081 5.333-6.893l11.558-2.988s-1.818 5.513 7.142 4.03c9.06-1.5 12.903-7.01 12.903-7.01"/>
                <path fill="#FF8AD4" d="M185.557 131.243s4.211-14.82-1.646-16.755c-3.75-1.238-7.395-1.502-7.395-1.502l-8.011 4.975 2.691 11.217s.206 3.43 4.919 2.92c4.713-.508 9.442-.855 9.442-.855"/>
                <path fill="#C09372" d="M175.561 132.118s3.5-.39 7.031-.711l.03-.003c1.539-.186 2.935-.16 2.935-.16l-1.981 32.146s-.205 7.817-8.577 12.862c-9.589 5.777-33.622 16.423-36.886 17.862-.25.11-.473.256-.675.44l-4.464 4.077c-.279.128-4.673 5.976-4.977 6.013-1.7.204-3.69.357-3.732-1.036-.052-1.633-1.038-3.11-1.038-3.11l-1.451.62c-.51-1.298 1.244-3.525 3.525-6.22.144-.17 2.887-2.27 3.11-2.281l3.111-1.245c.293-.013 1.388-.715 1.659-.828l4.938-2.593c.163-.068.314-.151.46-.253 2.578-1.798 27.762-19.364 34.004-23.789a2.51 2.51 0 0 0 1.059-2.001l.137-7.15a8.661 8.661 0 0 1 .054-2.042l.863-10.929c.093-1.037-.076-1.99.066-2.942.333-2.216.345-2.626.489-4.005l.31-2.722z"/>
                <path fill="#1D1D1B" d="M180.036 76.958c-.338-4.34-3.365-7.679-6.983-9.813.933-2.705.265-6.028-2-7.842-.125-.167-.238-.34-.372-.502-2.603-3.146-5.917-3.809-9.134-3.065-.172-.204-.342-.409-.522-.59-2.518-2.527-6.34-3.095-9.448-1.312a11.57 11.57 0 0 0-1.01.753c-6.193-2.872-15.265-1.114-15.658 5.617-2.116.837-4.18 2.172-6.244 3.558-5.224 3.508-7.896 10.117-2.456 14.952.954.846 1.975 1.354 3 1.597.376 3.301 2.079 6.402 4.96 8.29 1.777 1.164 3.83 1.65 5.932 1.46 1.763-.162 3.33-1.566 4.926-1.658 1.381-.079 3.167.722 4.785 1.216 2.273 3.477 5.734 6.4 9.015 7.554a9.5 9.5 0 0 0 7.386-.413c1.778.215 3.684-.035 5.575-.887 5.132-2.31 7.187-7.606 6.283-12.398 1.38-1.721 2.17-3.897 1.965-6.517M251.707 117.91l-10.693-6.606a1.39 1.39 0 0 1-.452-1.91l.285-.462a1.392 1.392 0 0 1 1.91-.45l10.694 6.606c.649.4.852 1.26.451 1.909l-.285.462c-.402.65-1.26.853-1.91.451"/>
                <path fill="#F4CFB2" d="M349.723 264.235l4.764 9.412s-7.707 4.034-7.997 3.537l-6.094-10.435 9.327-2.514zM275.352 107.544s-2.367 56.29-4.103 61.303c-1.738 5.013-7.256-7.478-7.583-8.154-.328-.675 1.214-52.996 1.214-52.996l10.472-.153zM283.126 70.897l3.127 6.038.931 7.985-15.423 3.99 2.47-15.216z"/>
                <path fill="#F4CFB2" d="M263.851 58.788s.171 7.38.57 10.792c.74 6.353 21.02 2.508 20.3.053 0 0-4.378-13.25-7.878-11.029-3.5 2.222-4.597-2.343-4.597-2.343l-7.796-1.712-.599 4.239z"/>
                <path fill="#55B585" d="M286.103 76.222s3.086-1.144 3.806-1.356c4.377-1.29 9.177-3.227 12.48-1.069 5.03 3.284 9.392 15.816 9.392 15.816l-11.767 4.763s13.251 27.711 17.56 30.525c4.31 2.815 15.358 18.842 15.358 18.842s-33.91 12.073-39.52 12.507c-5.61.433-21.585-48.523-21.585-48.523l-6.947-.03s-4.74-13.137-1.35-17.07c3.388-3.934 9.341-9.048 9.341-9.048s.983 3.907 6.444 2.76c5.462-1.145 6.788-8.117 6.788-8.117"/>
                <g transform="translate(256.394 44.372)">
                    <mask id="p" fill="#fff">
                        <use xlink:href="#o"/>
                    </mask>
                    <path fill="#1D1D1B" d="M21.17 19.511s4.578 8.522 6.752 8.252c2.174-.27 3.085-2.135 1.953-4.872-1.133-2.737-1.61-9.02-1.702-11.232-.093-2.213-.561-8.249-2.285-9.374-1.723-1.126-7.95-2.626-13.424-.362-5.474 2.264-5.557 3.66-8.06 3.257C1.904 4.775-.6 7.904.662 9.497c1.265 1.595 4.87 5.487 9.724 5.583 4.855.097 7.929.568 10.785 4.431" mask="url(#p)"/>
                </g>
                <path fill="#1D1D1B" d="M264.394 70.899a1.583 1.583 0 0 1 1.635-1.643c.997.033 2.478.138 4.553.409 3.206.418 6.086.102 7.384-.094.474-.072.95.079 1.304.404l1.164 1.072a1.59 1.59 0 0 1-.237 2.525c-2.663 1.636-7.537 4.541-9.062 4.86-2.137.45-4.638 2.426-5.695.045-.731-1.644-.97-5.408-1.046-7.578"/>
                <path fill="#F4CFB2" d="M311.782 89.613s6.594 18.14 5.647 19.825c-.948 1.687-1.464 3.654-4.314 4.253-2.85.597-44.95 8.877-51.143 6.83 0 0-7.785 1.018-10.21.279-4.197-1.282-8.111-4.907-7.37-5.807.74-.899 2.036-.723 3.851-.334 1.884.402 2.134 3.085 4.703 2.917 0 0-2.111-5.14-.802-5.595 1.467-.511 2.171 3.263 2.171 3.263s5.418 1.109 7.388.461c1.784-.587 43.509-11.326 43.509-11.326l-5.198-10.004 11.768-4.762z"/>
                <path fill="#5A5959" d="M332.932 143.743s10.425 8.268 14.65 14.59c4.343 6.494 16.997 29.938 24.234 30.427 8.904.602 64.739-2.637 64.739-2.637l1.979 11.45s-61.88 17.757-70.632 15.064c-9.342-2.874-23.178-12.986-31.435-25.756-8.257-12.77-13.272-18.915-15.34-18.164-3.1 1.127-1.117 29.73-.477 38.002a9.96 9.96 0 0 0 1.26 4.134l29.66 54.442-9.926 6.213s-41.432-50.06-43.659-55.357c-2.226-5.297-7.438-55.83-4.573-59.902 2.865-4.07 39.52-12.506 39.52-12.506"/>
                <g transform="translate(16 143.884)">
                    <mask id="r" fill="#fff">
                        <use xlink:href="#q"/>
                    </mask>
                    <path fill="#1D1D1B" d="M17.247 11.659L1.04 4.588a1.74 1.74 0 0 1-.896-2.283l.271-.622A1.74 1.74 0 0 1 2.698.786l16.207 7.071a1.74 1.74 0 0 1 .897 2.283l-.272.623a1.74 1.74 0 0 1-2.283.896" mask="url(#r)"/>
                </g>
                <path fill="#FBE6F1" d="M177.772 237.155a4.662 4.662 0 0 1 3.86-4.733c9.553-1.659 33.431-5.852 39.328-7.303 1.878-.462 1.651-.614 3.967-1.357 1.2-.386 2.183-1.083 3.402-1.723 2.728-1.432 5.722.256 7.705 2.611 5.262 6.25 16.083 17.728 16.251 18.885.29 2.01-2.63 2.674-3.444-.513-1.1-4.308-13.415-5.27-16.087-7.793-1.8-1.7-3.533-2.557-4.923-2.692a4.56 4.56 0 0 0-2.428.451l-40.6 19.671c-3.047 1.476-6.603-.68-6.7-4.065l-.331-11.439z"/>
                <path fill="#5A5959" d="M253.693 242.77l-19.297-21.753a.527.527 0 0 0-.741-.045l-.154.137a.526.526 0 0 0-.044.74l19.296 21.755a.527.527 0 0 0 .742.045l.153-.137a.526.526 0 0 0 .045-.741"/>
                <path fill="#5A5959" d="M242.691 238.951l2.58-2.4c.377-.336 1.773-1.057.936-1.928l-.097-.108c-.769-.867-1.68.328-2.057.663l-3.261 3.11M246.658 240.642l1.448-1.186c.378-.334 1.774-1.056.936-1.927l-.095-.109c-.77-.866-1.68.329-2.058.664l-1.826 1.687"/>
                <path fill="#FBE6F1" d="M132.929 264.82a4.662 4.662 0 0 1 4.733 3.86c1.661 9.552 5.858 33.43 7.31 39.326.462 1.878.615 1.652 1.358 3.967.386 1.201 1.084 2.183 1.724 3.403 1.432 2.725-.124 6.434-3.13 7.1-7.486 1.655-21.71 4.166-22.867 4.332-2.009.292-3.052-2.556.134-3.37 4.307-1.1 9.248-1.005 12.146-4.321 1.63-1.864 3.084-2.85 3.22-4.238a4.568 4.568 0 0 0-.453-2.427l-19.678-40.598c-1.476-3.047.68-6.602 4.064-6.7l11.439-.334zM51.777 142.323s3.382 10.854 7.479 16.256c4.096 5.403 17.15 26.579 19.723 27.163 2.572.583-.841-27.183-1.065-27.828-.223-.645-24.436-14.937-26.137-15.59"/>
                <path fill="#FBE4F0" d="M70.8 123.766s-1.586 5.442 3.94 7.411c5.526 1.968 13.644 2.936 13.644 2.936s-2.475 11.873-9.326 14.137c-9.014 2.98-23.277-3.634-26.279-5.662-1.51-1.019 7.763-5.832 8.923-7.33 1.16-1.496 1.614-4.565.934-7.508-.542-2.346 8.164-3.984 8.164-3.984"/>
                <path fill="#FBE4F0" d="M53.28 106.777s-1.11 11.611.05 14.731c1.16 3.118 3.602 8.228 8.402 7.632 4.923-.611 9.585-6.209 9.585-6.209l-2.556-15.042-15.481-1.112z"/>
                <path fill="#000" d="M51.992 105.802c.377-1.113 1.756-5.94 5.789-7.176 4.034-1.236 6.914.468 8.931-.15 2.017-.62.87-5.478 6.042-4.364 5.174 1.116 6.194 4.569 9.558 4.374 3.364-.193 5.834-2.434 9.482-.09 3.647 2.343 3.148-.775 8.693 2.052 5.546 2.826 4.511 4.665 8.397 4.805 3.884.141 8.075.036 10.62 2.261 2.547 2.225 3.068 2.56 6.618 3.221 3.55.662 8.362 5.611 7.647 7.476-.799 2.077-2.471 4.905-7.645 3.79-5.172-1.115-5.94-3.405-11.32-2.594-5.381.813-7.873 4.765-14.3 4.197-5.807-.515-9.031-6.464-12.754-5.494-4.517 1.179-3.328 1.72-6.93 4.118-3.602 2.398-7.398 4.842-9.423 4.097-3.258-1.196-4.337-5.246-3.795-7.695.542-2.448 1.256-9.059-1.981-7.458-3.237 1.602-6.66 2.346-9.11 1.804-1.576-.35-6.155-2.336-4.519-7.174"/>
                <path fill="#235EA9" d="M93.072 147.304s.895 7.5 4.453 12.318c3.557 4.82 35.936 46.02 44.647 50.366 8.712 4.345 35.064 14.451 35.064 14.451l33.374 1.664s-9.406 24.87-24.245 38.666c-22.28 20.715-53.404 33.302-56.135 33.832 0 0-44.215-80.616-48.485-101.296-4.27-20.682-8.83-26.618-11.645-28.958-2.814-2.34-11.517-7.998-12.441-14.114-1.155-7.656-5.882-11.91-5.882-11.91l4.602-3.154c1.173-.884-.079 3.655 4.943 3.173 7.182-.689 15.358-10.42 18.336-9.947l2.976.472s-1.86 1.441-1.842 4.03c.11 15.619 12.28 10.407 12.28 10.407"/>
                <path fill="#FBE4F0" d="M31.903 157.496c-6.091-1.763-15.092-2.72-14.603-7.388.39-3.726 8.46 3.942 12.829 3.908 0 0-2.48-3.026-1.349-4.795 1.13-1.77 4.656 5.527 4.656 5.527s28.832 3.164 42.939 8c0 0 2.363-13.344 3.337-16.729 1.325-4.611 2.386-7 4.971-10.404.112-.148 1.04-1.197 1.207-1.26 4.61-1.726 9.216 4.934 8.03 9.712-2.043 8.236-6.428 23.475-11.795 27.81-5.556 4.488-50.222-14.38-50.222-14.38"/>
                <path fill="#EE771A" d="M335.982 241.413s5.84-2.192 7.582-.94c1.742 1.25 3.736 2.892 3.773 5.355.037 2.464-.163 21.913-1.732 22.923-1.568 1.01-4.662 1.433-5.592.731-.93-.701-.975-13.222-1.832-14.908-.856-1.687-6.318-3.01-6.318-3.01s-6.839-4.321-6.405-5.728c.433-1.407 3.342-5.06 3.342-5.06l7.182.637z"/>
                <path fill="#1D1D1B" d="M269.354 166.321s7.28 9.62 9.092 14.518c2.04 5.515 7.175 35.153 7.522 36.939.346 1.785 2.912 7.885 9.122 11.189 7.401 3.938 41.266 9.374 41.266 9.374s-2.774 15.272-3.404 15.659c0 0-49.967-7.268-60.834-19.63-6.005-6.831-18.86-37.928-18.86-37.928l-2.834-6.721c.623.938 6.988 43.287 7.073 47.483.104 5.182 17.772 50.566 17.772 50.566s-10.692 4.015-12.817 4.427c0 0-28.106-47.577-28.908-49.891-.802-2.315-5.06-55.218-5.06-55.218l37.313-21.884 3.557 1.117z"/>
                <path fill="#C09372" d="M184.635 89.213s-1.861 9.152.135 14.514c2.394 6.423 3.858 8.054 8.724 7.492 6.759-.78 6.781-.549 6.781-.549l2.597 9.445 18.054-12.738-10.912.894s-2.265-3.132-2.314-7.332c-.05-4.2 3.138-7.495 3.478-11.005.623-6.435-3.452-14.51-12.362-15.078-9.06-.578-11.698 5.456-14.18 14.357"/>
                <path fill="#C09372" d="M220.393 108.193s4.964-.708 8.617.37c4.108 1.212 29.36 20.777 38.445 27.24 8.877 6.313 32.665 20.452 32.665 20.452s4.116 1.497 8.316 1.448c4.2-.048 5.735 1.95 6.021 3.425.286 1.474-1.57 3.748-6.067 4.237-4.497.489-12.053-4.933-12.053-4.933s-29.56-13.656-35.295-15.605c-5.735-1.95-44.217-31.351-44.217-31.351l-6.83-3.65 10.398-1.633zM196.696 117.869s-13.359 4.121-10.593 22.334c2.767 18.214 8.385 27.456-2.806 38.81-11.191 11.353-14.39 16.564-17.578 19.862-3.188 3.296-4.316 7.341-4.316 7.341s.455 10.243 2.668 9.815c2.213-.43 6.044-.407 5.758-1.882-.123-.634-.104-2.357-.041-4.116a10.077 10.077 0 0 1 3.792-7.524c8.601-6.852 26.725-24.784 27.287-29.582 1.009-8.614-6.59-32.013-4.866-36.94 1.723-4.925 20.779-13.21 20.779-13.21l-15.35-8.122-4.734 3.214z"/>
                <path fill="#FFD203" d="M214.609 107.854s-4.17 6.522-9.07 8.576c-8.493 3.56-6.286-.185-6.286-.185s-6.203 2.962-8.108 4.889c-8.424 8.52-5.13 16.3-5.13 16.3l10.274-1.608s21.485 44.137 28.978 56.472a3.706 3.706 0 0 0 5.086 1.253l40.896-24.704c.843-.502.01-3.027-.715-3.688l-41.013-42.792 6.247-9.885c.523-1.25-12.15-8.298-21.159-4.628"/>
                <path fill="#1D1D1B" d="M229.563 78.344a8.471 8.471 0 0 1-8.472 8.472 8.471 8.471 0 0 1-8.472-8.472 8.471 8.471 0 0 1 8.472-8.472 8.471 8.471 0 0 1 8.472 8.472"/>
                <path fill="#1D1D1B" d="M208.508 106.846s-5.193-3.554-4.099-11.205c1.092-7.652 1.092-7.926-1.094-8.746-2.047-.768-3.962 1.64-5.056 3.28-1.213 1.819-4.236-6.56-12.298-5.33 0-.82 2.733-14.484 18.584-11.478 15.852 3.006 9.839 21.18 9.839 21.18s-4.783 12.435-5.876 12.299"/>
            </g>
        </g>
    </g>
</svg>
