<svg xmlns="http://www.w3.org/2000/svg" xmlns:xlink="http://www.w3.org/1999/xlink" width="126" height="109" viewBox="0 0 126 109">
    <defs>
        <path id="a" d="M0 .218h36.126v81.51H0z"/>
        <path id="c" d="M11.4 24.6h5.4v-9h-5.4v9zm2.7 1.8a.6.6 0 1 1 0-1.2.6.6 0 0 1 0 1.2zm3.15-12.15h-6.3a.75.75 0 0 0-.75.75v11.25c0 .414.335.75.75.75h6.3a.75.75 0 0 0 .75-.75V15a.75.75 0 0 0-.75-.75zm-9-3.75a5.25 5.25 0 1 0 0-10.5 5.25 5.25 0 0 0 0 10.5zm7.548 3a6.778 6.778 0 0 0-3.174-3.109A6.723 6.723 0 0 1 8.25 12a6.723 6.723 0 0 1-4.374-1.609A6.75 6.75 0 0 0 0 16.5v6a3 3 0 0 0 3 3h6.45V15a1.5 1.5 0 0 1 1.5-1.5h4.848z"/>
    </defs>
    <g fill="none" fill-rule="evenodd">
        <path fill="#FFF" fill-rule="nonzero" d="M18.878 107.823C7.228 96.407 0 80.496 0 62.897 0 28.16 28.16 0 62.897 0c34.736 0 62.896 28.16 62.896 62.897 0 17.599-7.228 33.51-18.878 44.926H18.878z"/>
        <path fill="#000" d="M83.192 83.683a4.434 4.434 0 0 1-4.442 4.426l-28.673-.053a4.434 4.434 0 0 1-4.426-4.442l.115-61.78a4.434 4.434 0 0 1 4.442-4.425l28.672.053a4.434 4.434 0 0 1 4.426 4.443l-.114 61.778z"/>
        <path fill="#FFF" d="M81.435 74.517l-33.994-.063.092-49.66 33.994.063zM68.194 81.439a3.621 3.621 0 1 1-7.242-.014 3.621 3.621 0 0 1 7.242.014"/>
        <path fill="#484848" d="M65.13 19.801a.739.739 0 1 1-1.477-.002.739.739 0 0 1 1.478.002M67.638 22.688a.666.666 0 0 1-.667.664l-5.764-.01a.664.664 0 1 1 .003-1.33l5.764.01c.367 0 .664.3.664.666"/>
        <path fill="#464749" d="M47.28 28.981a1.035 1.035 0 0 1-2.07-.004l.003-1.33a1.034 1.034 0 1 1 2.069.004l-.003 1.33zM47.27 34.203a1.034 1.034 0 1 1-2.07-.004l.003-1.33a1.035 1.035 0 0 1 2.07.004l-.003 1.33z"/>
        <g transform="translate(42.68 31.639)">
            <mask id="b" fill="#fff">
                <use xlink:href="#a"/>
            </mask>
            <path fill="#C19372" d="M36.126 56.35s-3.34 3.596-5.78 11.559c-1.627 5.309-2.226 8.162-1.798 8.56H5.814c-2.162-5.628-3.66-14.904-4.496-27.826-.562-8.705-.385-7.45-.899-20.679C-.095 14.734-.319.984.837.406 3.49-.92 7.773 4.452 6.327 26.294c0 0 1.446 17.458 5.138 18.239 7.419 1.568 10.404-8.863 13.23-11.816 2.825-2.955 8.091-3.725 6.678.77-1.412 4.496-8.477 11.046-10.146 16.826-1.67 5.78-.161 5.865-.161 5.865s14.803.172 14.931.172" mask="url(#b)"/>
        </g>
        <g>
            <g transform="translate(57 33)">
                <mask id="d" fill="#fff">
                    <use xlink:href="#c"/>
                </mask>
                <use fill="#000" xlink:href="#c"/>
                <g fill="#FF7900" mask="url(#d)">
                    <path d="M-9-5h36v36H-9z"/>
                </g>
            </g>
        </g>
    </g>
</svg>
