<svg xmlns="http://www.w3.org/2000/svg" xmlns:xlink="http://www.w3.org/1999/xlink" width="223" height="158" viewBox="0 0 223 158">
    <defs>
        <path id="a" d="M0 .336h116.72v43.207H0z"/>
        <linearGradient id="c" x1="9.287%" x2="71.228%" y1="50%" y2="50%">
            <stop offset="0%" stop-color="#FC7900" stop-opacity="0"/>
            <stop offset="100%" stop-color="#FB7900"/>
        </linearGradient>
        <linearGradient id="d" x1="9.287%" x2="71.228%" y1="50%" y2="50%">
            <stop offset="0%" stop-color="#FFF" stop-opacity="0"/>
            <stop offset="100%" stop-color="#FFF"/>
        </linearGradient>
        <path id="e" d="M0 .108h16.457v16.345H0z"/>
        <path id="g" d="M.097.101h16.457v16.346H.097z"/>
    </defs>
    <g fill="none" fill-rule="evenodd">
        <path fill="#4BB4E6" fill-rule="nonzero" d="M0 0h223v157H0z"/>
        <path fill="#FFF" d="M181.345 152h-73.31c-1.332-17.853.314-39.79 13.394-50.44-1.298-3.839-3.245-9.565-4.476-12.943-1.924-5.275-2.27-4.613-3.38-7.657-1.109-3.042-1.536-3.812-2.464-4.2-.926-.393-1.122-1.195-2.012-3.639a887.248 887.248 0 0 1-2.364-6.617s-2.77.471-5.043-.256c0 0-5.238 2.293-6.068 2.303-.831.011-4.5-1.86-5.884-4.173l-3.591 1.305c-1.558.566-5.014 1.674-5.147-.108-.037-.565 2.445-1.361 2.445-1.361s-.618-.393.461-.785c1.084-.393 3.19-.497 4.12-.73 0 0 5.948-1.968 7.766-2.629 1.818-.66 2.907-2.297 7.111-4.069 4.206-1.769 5.575-2.316 5.575-2.316s-1.44-2.874-1.48-5.674c-.041-2.802.196-3.242 2.08-4.186 2.77-1.388 3.927 2.073 4.495 4.12.567 2.05 1.085 3.641 1.085 3.641s3.367-.843 6.606-.656c3.244.186 4.47-.672 6.776-1.57 2.31-.896 7.727-3.12 7.727-3.12s1.31-1.117 2.612-1.65c1.3-.532 1.824-.791 2.182-.846.215-.03.134.293.134.293s1.993-1 2.382-.19c.388.812-.799 2.148-3.225 3.23-2.425 1.08-4.192 1.508-4.192 1.508s.023 1.698-.266 4.06c-.29 2.363-.576 2.32-.576 2.32s-1.14.768-4.494 2.254c-3.356 1.486-5.979 3.017-5.979 3.017s6.618 15.86 7.058 17.21c.802 2.473-.206 1.723.59 4.444.796 2.72 2.401 7.526 3.719 10.736.718 1.75 1.324 3.828 1.914 5.37 18.56 3.557 37.231 40.481 43.719 54.004z"/>
        <path fill="#FFF" d="M196.619 96.506l3.388 1.234c-.562 2.968-.623 5.472-1.138 8.498a52.856 52.856 0 0 0-3.358-1.354 58.44 58.44 0 0 0-3.382-1.116c1.078-1.6 3.02-4.605 4.49-7.262m9.168 23.95c-.467-3.053-.799-5.477 1.057-9.579a38.752 38.752 0 0 0-1.408-.99l-.194-.08c-.112-.074-.222-.149-.336-.223-.016-.044-.037-.085-.037-.137-.563-19.173 6.757-42.008 14.038-64.822.772-1.266 1.863-1.28 2.203-2.769.327-1.43-.835-1.938-.89-3.3-.174-.938.925-2.468-.098-3.012-.462 1.038-1.117 1.662-1.58 2.699-1.322.648-2.126.495-2.803 1.956-.577 1.247.122 2.367-.092 3.536-.36 1.964-1.592 3.816-2.367 5.687-7.588 18.295-17.354 41.2-28.368 52.802a42.925 42.925 0 0 0-2.392-.283c-1.203 4.445-3.018 6.088-5.352 8.136-4.199 3.683-11.247 8.87-15.168 12.117.757.211 6.823 2.484 10.25 3.731 1.215-2.045 4.306-5.21 5.423-6.18 4.394-3.818 10.136-6.166 15.94-2.342l.031.005c3.237 2.285 4.835 6.181 5.473 10.203.234 1.479.583 5.488.196 7.861 3.462 1.26 10.003 3.673 10.726 3.998-.925-5.06-3.395-13.434-4.252-19.013"/>
        <g transform="translate(99 113.637)">
            <mask id="b" fill="#fff">
                <use xlink:href="#a"/>
            </mask>
            <path fill="#FB7900" d="M110.915 43.543c2.115-13.668 0-25.58-10.31-33.61-5.352-4.167-10.462-4.983-14.651-6.511-.197-.074-.377-.142-.572-.213-2.674 4.71-8.76 9.98-23.735 9.98-20.188 0-23.992-9.184-24.706-12.853-5.033.794-12.827 3.333-16.626 7.175-4.45 4.503-12.368 17.633-11.525 36.032h102.125z" mask="url(#b)"/>
        </g>
        <path fill="#C19372" d="M184.7 116.83c-9.064-3.34-13.392-5.735-14.059-12.624-.54-5.56 1.595-12.67 1.595-12.67l-20.955 6.721c.408 1.626 1.85 6.612-2.222 11.227-3.145 3.559-8.076 3.584-13.073 4.374 0 4.609 4.521 13.325 24.72 13.325 14.983 0 21.32-5.643 23.994-10.353z"/>
        <path fill="#000" d="M154.054 62.877s-3.688-1.26-9.825 2.413c-6.614 3.96-10.648 10.86-9.974 20.147 1.034 14.212 11.438 17.967 18.866 16.69 8.396-1.441 10.38-15.011 10.38-15.011l-9.447-24.24z"/>
        <path fill="#000" d="M152.056 63.404c-1.586 0-4.288.42-7.827 2.545-6.876 4.13-10.322 11.115-9.701 19.669.425 5.878 2.573 10.49 6.211 13.337 3.265 2.557 7.772 3.643 12.048 2.905 7.61-1.31 9.774-13.328 9.969-14.509l-9.254-23.806a6.615 6.615 0 0 0-1.446-.14m-1.93 39.407c-3.582 0-7.115-1.157-9.833-3.285-3.803-2.977-6.047-7.77-6.488-13.857-.642-8.841 2.93-16.065 10.052-20.343 6.149-3.69 9.877-2.481 10.033-2.428l.16.055 9.45 24.315-.013.095c-.02.139-.516 3.456-2.048 7.007-2.053 4.76-5.002 7.597-8.529 8.204-.922.16-1.854.237-2.783.237"/>
        <path fill="#C19372" d="M144.838 87.05c2.099 14.23 9.65 19.353 16.117 18.89 5.994-.429 13.528-6.154 14.578-18.022 1.108-12.443-4.09-23.013-15.512-24.302-7.172-.808-17.284 9.201-15.183 23.434z"/>
        <path fill="#000" d="M153.569 63.309c-1.013-.45-5.094 2.473-8.802 7.405-2.24 2.975-4.007 13.176-3.146 17.502.565 2.842 3.621 1.766 3.296 0-1.08-5.88 5.11-5.695 8.055-11.562 2.997-5.98.851-10.303 1.796-10.761 2.523-1.222 7.6-.809 9.52 2.45 2.682 4.547-1.014 9.124-.839 15.408.164 5.921 4.33 17.49 15.48 16.774 7.54-.483 11.257-5.084 12.57-9.304 1.64-5.247-2.074-10.878-2.074-10.878s-.685 4.924-4.42 3.273c-5.106-2.254.106-10.959-3.71-18.47-3.211-6.316-9.56-9.976-16.412-9.678-10.228.449-11.314 7.84-11.314 7.84"/>
        <path fill="#000" d="M158.198 64.852c2.488 0 5.284.95 6.639 3.27 1.668 2.854.955 5.764.201 8.844-.519 2.117-1.055 4.307-.986 6.797.109 3.962 1.96 9.817 5.765 13.31 2.546 2.34 5.658 3.405 9.244 3.174 8.636-.557 11.394-6.538 12.18-9.083 1.212-3.917-.663-8.128-1.572-9.83-.258.861-.792 2.092-1.837 2.678-.812.455-1.771.442-2.851-.04-2.901-1.294-2.72-4.488-2.511-8.186.187-3.299.399-7.038-1.356-10.523-3.105-6.167-9.226-9.809-15.982-9.517-9.759.433-10.9 7.49-10.91 7.56l-.069.476-.436-.195c-.656-.29-4.477 2.163-8.316 7.318-2.105 2.821-3.908 12.995-3.063 17.28.244 1.24.978 1.56 1.58 1.441.582-.112 1.11-.63.986-1.304-.66-3.624 1.261-5.108 3.485-6.826 1.573-1.214 3.355-2.592 4.557-5.01 1.9-3.823 1.675-6.949 1.54-8.816-.083-1.174-.134-1.883.413-2.15.873-.428 2.047-.668 3.299-.668m19.906 36.155c-3.37 0-6.318-1.139-8.775-3.395-3.984-3.656-5.884-9.58-6-13.829-.073-2.588.5-4.928 1.006-6.992.75-3.058 1.396-5.7-.121-8.3-1.77-3.03-6.603-3.486-8.998-2.317-.102.12-.049.854-.007 1.443.14 1.942.373 5.192-1.615 9.196-1.277 2.568-3.13 3.998-4.764 5.261-2.202 1.702-3.794 2.93-3.214 6.116.205 1.12-.633 1.973-1.561 2.152-.975.19-2.102-.364-2.428-2.015-.89-4.517.961-14.865 3.195-17.86 3.112-4.179 7.035-7.542 8.76-7.617.381-1.513 2.453-7.43 11.518-7.832 7.038-.315 13.425 3.49 16.66 9.915 1.843 3.66 1.625 7.503 1.432 10.895-.202 3.569-.362 6.388 2.081 7.477.863.384 1.604.407 2.207.07 1.351-.757 1.68-3.049 1.684-3.072l.132-.959.53.81c.154.235 3.769 5.857 2.106 11.226-.83 2.69-3.74 9.008-12.824 9.595-.339.022-.674.032-1.004.032"/>
        <path fill="#714E46" d="M164.854 92.437c0 1.749-2.021 4.06-4.51 4.06-2.493 0-4.511-2.311-4.511-4.06h9.02z"/>
        <path fill="#1B181C" d="M155.833 81.834c0 .875-.704 1.582-1.574 1.582a1.583 1.583 0 0 1-1.584-1.582c0-.87.712-1.575 1.584-1.575.87 0 1.574.706 1.574 1.575"/>
        <path fill="#000" fill-rule="nonzero" d="M183 133v10.567l8.309 3.34 8.38-3.34V133z"/>
        <g fill-rule="nonzero">
            <path fill="url(#c)" d="M45.653 7.097V.679l11.709 11.5-11.71 11.5v-6.417h-32.29V7.097h32.29z" transform="translate(47 75)"/>
            <path fill="url(#d)" d="M32.653 7.042V.68l11.709 11.5-11.71 11.5v-6.677H.363v-9.96h32.29z" transform="translate(47 75)"/>
        </g>
        <g>
            <path fill="#000" d="M65.227 125.158c-.006 3.147-2.57 5.693-5.727 5.687l-36.964-.068c-3.156-.006-5.711-2.561-5.705-5.708l.147-79.382c.005-3.146 2.57-5.693 5.727-5.687l36.964.068c3.157.006 5.711 2.562 5.705 5.709l-.147 79.381z"/>
            <path fill="#FFF" d="M62.962 113.38l-43.823-.081.118-63.81 43.824.081zM45.893 122.274a4.66 4.66 0 0 1-4.677 4.644 4.66 4.66 0 0 1-4.66-4.661 4.66 4.66 0 0 1 4.677-4.645c2.578.005 4.665 2.092 4.66 4.662"/>
            <path fill="#484848" d="M41.943 43.074a.95.95 0 0 1-.954.948.95.95 0 1 1 .003-1.899.95.95 0 0 1 .95.951M45.176 46.784a.857.857 0 0 1-.86.853l-7.43-.014a.855.855 0 1 1 .003-1.71l7.43.014c.474 0 .857.385.857.857"/>
            <path fill="#464749" d="M18.93 54.87a1.332 1.332 0 0 1-1.336 1.327 1.331 1.331 0 0 1-1.331-1.332l.003-1.71c0-.734.599-1.328 1.336-1.326a1.331 1.331 0 0 1 1.331 1.332l-.003 1.709zM18.917 61.58a1.331 1.331 0 0 1-1.336 1.327 1.331 1.331 0 0 1-1.331-1.332l.003-1.709c.001-.735.6-1.328 1.337-1.327a1.332 1.332 0 0 1 1.33 1.332l-.003 1.709z"/>
            <path fill="#C19372" d="M59.572 130.69s-4.305 4.62-7.45 14.853c-2.098 6.822-2.871 10.489-2.319 11H20.495c-2.787-7.232-4.719-19.15-5.795-35.755-.726-11.185-.497-9.572-1.16-26.571-.662-16.999-.95-34.668.54-35.41 3.419-1.704 8.94 5.198 7.077 33.264 0 0 1.863 22.433 6.623 23.436 9.564 2.014 13.413-11.388 17.055-15.184 3.643-3.795 10.432-4.786 8.61.99-1.82 5.777-10.928 14.194-13.08 21.62-2.153 7.427-.208 7.537-.208 7.537s19.084.22 19.25.22"/>
            <g>
                <g transform="translate(24.683 72.401)">
                    <mask id="f" fill="#fff">
                        <use xlink:href="#e"/>
                    </mask>
                    <path fill="#020303" d="M14.333.108H3.873A2.116 2.116 0 0 0 1.75 2.217c0 1.165.951 2.109 2.124 2.109h5.333L.622 12.853a2.1 2.1 0 0 0 0 2.983c.83.823 2.174.823 3.003 0l8.584-8.527v5.297c0 1.165.951 2.109 2.124 2.109a2.116 2.116 0 0 0 2.124-2.11V2.218c0-1.165-.95-2.11-2.124-2.11" mask="url(#f)"/>
                </g>
                <g transform="translate(43.166 70.67)">
                    <mask id="h" fill="#fff">
                        <use xlink:href="#g"/>
                    </mask>
                    <path fill="#FB7900" d="M2.22 16.447h10.46a2.116 2.116 0 0 0 2.124-2.11c0-1.164-.95-2.109-2.124-2.109H7.348l8.584-8.526a2.1 2.1 0 0 0 0-2.983 2.134 2.134 0 0 0-3.003 0L4.344 9.245V3.95c0-1.165-.95-2.11-2.123-2.11A2.116 2.116 0 0 0 .097 3.95v10.388c0 1.166.95 2.11 2.124 2.11" mask="url(#h)"/>
                </g>
            </g>
        </g>
    </g>
</svg>
