<svg xmlns="http://www.w3.org/2000/svg" xmlns:xlink="http://www.w3.org/1999/xlink" width="149" height="128" viewBox="0 0 149 128">
    <defs>
        <path id="a" d="M0 .256h42.79v95.81H0z"/>
        <path id="c" d="M11.4 24.6h5.4v-9h-5.4v9zm2.7 1.8a.6.6 0 1 1 0-1.2.6.6 0 0 1 0 1.2zm3.15-12.15h-6.3a.75.75 0 0 0-.75.75v11.25c0 .414.335.75.75.75h6.3a.75.75 0 0 0 .75-.75V15a.75.75 0 0 0-.75-.75zm-9-3.75a5.25 5.25 0 1 0 0-10.5 5.25 5.25 0 0 0 0 10.5zm7.548 3a6.778 6.778 0 0 0-3.174-3.109A6.723 6.723 0 0 1 8.25 12a6.723 6.723 0 0 1-4.374-1.609A6.75 6.75 0 0 0 0 16.5v6a3 3 0 0 0 3 3h6.45V15a1.5 1.5 0 0 1 1.5-1.5h4.848z"/>
    </defs>
    <g fill="none" fill-rule="evenodd">
        <path fill="#FFF" fill-rule="nonzero" d="M22.36 126.739C8.563 113.32 0 94.618 0 73.93 0 33.101 33.355 0 74.5 0S149 33.1 149 73.931c0 20.687-8.562 39.39-22.36 52.808H22.36z"/>
        <path fill="#000" d="M98.54 98.365c-.006 2.878-2.362 5.207-5.262 5.202l-33.963-.062c-2.9-.006-5.247-2.343-5.242-5.222l.136-72.618c.004-2.878 2.36-5.207 5.261-5.202l33.962.063c2.901.005 5.248 2.343 5.242 5.222l-.135 72.617z"/>
        <path fill="#FFF" d="M96.458 87.59l-40.264-.074.109-58.372 40.265.074zM80.775 95.726c-.004 2.351-1.928 4.253-4.297 4.249-2.369-.005-4.285-1.914-4.281-4.265.004-2.35 1.928-4.253 4.297-4.248 2.369.004 4.286 1.913 4.281 4.264"/>
        <path fill="#484848" d="M77.146 23.275a.872.872 0 0 1-.877.867.871.871 0 0 1-.873-.87c0-.48.393-.868.876-.867.484 0 .875.39.874.87M80.116 26.669a.785.785 0 0 1-.79.78l-6.827-.013a.784.784 0 0 1-.786-.783c0-.432.354-.781.79-.78l6.827.012c.435 0 .787.352.786.784"/>
        <path fill="#464749" d="M56.002 34.066a1.221 1.221 0 0 1-1.228 1.214 1.22 1.22 0 0 1-1.223-1.219l.003-1.563c0-.672.55-1.215 1.228-1.214a1.22 1.22 0 0 1 1.223 1.218l-.003 1.564zM55.99 40.204a1.22 1.22 0 0 1-1.227 1.214 1.22 1.22 0 0 1-1.223-1.219l.002-1.563a1.221 1.221 0 0 1 1.228-1.214 1.22 1.22 0 0 1 1.223 1.218l-.003 1.564z"/>
        <g transform="translate(50.554 37.19)">
            <mask id="b" fill="#fff">
                <use xlink:href="#a"/>
            </mask>
            <path fill="#C19372" d="M42.79 66.235s-3.955 4.227-6.846 13.588c-1.927 6.24-2.637 9.594-2.13 10.062H6.886c-2.56-6.616-4.335-17.519-5.324-32.708C.895 46.945 1.105 48.42.497 32.87-.113 17.32-.377 1.157.992.478c3.141-1.56 8.215 4.755 6.503 30.43 0 0 1.712 20.52 6.085 21.438 8.787 1.843 12.323-10.418 15.67-13.89 3.347-3.472 9.585-4.378 7.911.906-1.673 5.284-10.04 12.984-12.019 19.778-1.977 6.793-.19 6.894-.19 6.894s17.534.201 17.686.201" mask="url(#b)"/>
        </g>
        <g>
            <g transform="translate(68 44)">
                <mask id="d" fill="#fff">
                    <use xlink:href="#c"/>
                </mask>
                <use fill="#000" xlink:href="#c"/>
                <g fill="#FF7900" mask="url(#d)">
                    <path d="M-9-5h36v36H-9z"/>
                </g>
            </g>
        </g>
    </g>
</svg>
