<?xml version="1.0" encoding="utf-8"?>
<!-- Generator: Adobe Illustrator 21.0.0, SVG Export Plug-In . SVG Version: 6.00 Build 0)  -->
<svg version="1.1" id="Calque_1" xmlns="http://www.w3.org/2000/svg" xmlns:xlink="http://www.w3.org/1999/xlink" x="0px" y="0px"
	 viewBox="0 0 223 158" style="enable-background:new 0 0 223 158;" xml:space="preserve">
<style type="text/css">
	.st0{fill:#A885D8;}
	.st1{fill:#FFFFFF;}
	.st2{fill:#F47920;}
	.st3{fill:#714539;}
	.st4{fill:#935C49;}
	.st5{fill:#FED207;}
	.st6{fill:#231F20;}
	.st7{fill:#5C7395;}
	.st8{fill:#F3CFB2;}
	.st9{fill:#656668;}
	.st10{fill:#FF7800;}
	.st11{fill:#C19372;}
</style>
<rect id="XMLID_1590_" x="0.2" y="0" class="st0" width="222.8" height="158"/>
<path id="XMLID_1430_" class="st1" d="M101.2,91.2c0.4,1,1.6,1.7,2.8,1.8c1.2,0.1,3.4,8.3,3.4,8.3l4.6,11.8
	c-12.3,6.5-12.1,30-9.9,44.1h40.7l19.4-6c-15.9-41.1-37.5-42.4-37.5-42.4s-4.8-11.9-5.1-12.7c-0.3-0.8,1-1,1.6-1.4
	c0.6-0.4-7.2-17.7-7.2-17.7s6.8-2.4,8.5-3.7c1.7-1.2-0.1-5.2-0.1-5.2l3.4-2.8c0,0,2.1,0,3.1-1.4c1-1.4-1.2-0.1-1.6-0.7
	c-0.4-0.6-5.3,2.8-5.3,2.8s-7.8,5-10.9,3.8c-2.4-0.9-6,1-6,1s-0.3-8.7-4.8-7.4c-4.5,1.4,0,9.6,0,9.6c-2.8,0.9-5.9,2.1-7.8,3.6
	c-1.9,1.5-8.8,3.4-9.6,3.9c-0.8,0.5-1.6-0.2-3,0.4c-1.3,0.5-0.6,1-1.2,1.4c-0.6,0.4-2.2,0.8-1.4,1.5c0.8,0.6,2-0.2,2.7-0.6
	c0.6-0.4,4.6-1,4.6-1s1.2,3,3.1,3.5c1.9,0.4,5.1-1.8,6.8-2.4c1.7-0.7,3.8,0.3,4.5,0.8C99.7,84.4,100.8,90.2,101.2,91.2z"/>
<path id="XMLID_1647_" class="st1" d="M204.8,132c0.3-1-0.3-2.2-1.5-2.6l-0.4-0.1c-1.2-0.4-2-1.4-2.1-2.5
	c-0.7-5.4-1.1-23.7,13.5-66.4c0,0,4-2.2,3.1-3.8c-0.9-1.6-1.5-3.1-1.5-3.1s1.9-4.6,1.5-5.7c0-0.1,0-0.1,0-0.1c0,0,0,0-0.1,0
	c0,0,0,0,0,0c0,0-0.1,0-0.1,0.1c-0.9,0.6-2.5,5.3-2.5,5.3s-1.4,0.8-3.1,1.4c-1.7,0.6-0.1,4.9-0.1,4.9c-16.4,42-28.5,55.7-32.5,59.4
	c-0.8,0.7-2.1,0.9-3.2,0.5l-0.4-0.1c-1.2-0.4-2.5,0-2.8,1c-4,10.3-19.6,15.4-19.6,15.4l13.7,5c8.6-9.2,16.9-7.1,18.9-6.5l0,0
	c0,0,0.1,0,0.2,0.1c0.1,0.1,0.2,0.1,0.2,0.1l0,0c1.9,0.8,9.7,4.5,10.3,17.1l13.7,5C209.9,156.4,201.2,142.4,204.8,132z M190.1,122.7
	L190.1,122.7c-0.1-0.1-0.1-0.1-0.2-0.1c-0.1,0-0.1-0.1-0.2-0.1l0,0c-3.3-0.9-3.4-1.6-3.4-1.6c2.8-6.1,5-7.2,6.2-7.1c0,0,0,0,0,0
	s0.3,0,0.6,0.1c0.3,0.1,0.5,0.3,0.5,0.3s0,0,0,0c1,0.8,1.9,3,0.2,9.5C193.8,123.6,193.2,124.2,190.1,122.7z"/>
<g id="XMLID_629_">
	<path id="XMLID_1000_" class="st2" d="M103.3,157.1c0,0,2.3-27.4,15.7-32.9s24.8-2.6,27.4-13.7s1.3-15.7,1.3-15.7h18.6
		c0,0,0,9.8,1,15.7c1,5.9,7.7,9.6,22.5,12.7c15.7,3.3,20.2,27.4,20.5,34.2L103.3,157.1z"/>
	<path id="XMLID_999_" class="st3" d="M142.7,116.7c0,0,13.4,17.6,28.2-0.1c0,0-5-3.5-4.8-18.7H148
		C148,97.9,148.4,111.6,142.7,116.7z"/>
	<ellipse id="XMLID_990_" class="st4" cx="156.8" cy="89" rx="14.3" ry="22.8"/>
	<g id="XMLID_989_">
		<path id="XMLID_800_" class="st5" d="M141,110.2c-2.3,0-3.5-4-3.5-7.9c0-3.9,1.2-7.9,3.5-7.9s3.5,4,3.5,7.9
			C144.5,106.3,143.3,110.2,141,110.2z M141,95.9c-0.8,0-2,2.6-2,6.4s1.2,6.4,2,6.4s2-2.6,2-6.4S141.8,95.9,141,95.9z"/>
	</g>
	<g id="XMLID_988_">
		<path id="XMLID_634_" class="st5" d="M172,110.2c-2.3,0-3.5-4-3.5-7.9c0-3.9,1.2-7.9,3.5-7.9c2.3,0,3.5,4,3.5,7.9
			C175.5,106.3,174.3,110.2,172,110.2z M172,95.9c-0.8,0-2,2.6-2,6.4s1.2,6.4,2,6.4c0.8,0,2-2.6,2-6.4S172.8,95.9,172,95.9z"/>
	</g>
	<g id="XMLID_980_">
		<path id="XMLID_646_" class="st6" d="M147.7,88.5c1.5-0.4,3-0.3,4.4,0.3c1.1,0.4,1.6-1.3,0.5-1.8c-1.7-0.7-3.6-0.7-5.4-0.3
			C146.1,87.1,146.5,88.8,147.7,88.5L147.7,88.5z"/>
	</g>
	<g id="XMLID_973_">
		<path id="XMLID_644_" class="st6" d="M162.3,89.2c1.4-0.6,2.9-0.8,4.4-0.4c1.1,0.2,1.6-1.5,0.5-1.8c-2-0.4-4-0.2-5.8,0.6
			C160.3,88.1,161.2,89.7,162.3,89.2L162.3,89.2z"/>
	</g>
	<g id="XMLID_966_">
		<path id="XMLID_643_" class="st6" d="M163.7,87.5c-0.8,0.9-0.6,2.2,0.4,2.8c0.4,0.2,1,0.1,1.2-0.3c0.4-0.7,0.4-1.6-0.1-2.3
			c-0.7-0.9-2.3,0-1.6,0.9c0.1,0.2,0.2,0.3,0.1,0.5c0.4-0.1,0.8-0.2,1.2-0.3c-0.1,0,0,0-0.1,0C165.8,87.9,164.5,86.6,163.7,87.5
			L163.7,87.5z"/>
	</g>
	<g id="XMLID_959_">
		<path id="XMLID_654_" class="st6" d="M149.1,87.3c-0.6,0.9-0.3,2,0.6,2.5c0.3,0.2,0.9,0.1,1.1-0.1c0.5-0.6,0.7-1.2,0.5-2
			c-0.2-1.2-2-0.7-1.8,0.5c0,0.1,0,0.2-0.1,0.2c0.4,0,0.7-0.1,1.1-0.1c0.1,0,0,0.1,0.1,0C151.3,87.3,149.8,86.4,149.1,87.3
			L149.1,87.3z"/>
	</g>
	<g id="XMLID_945_">
		<path id="XMLID_639_" class="st3" d="M154.8,89.4c0.2,0.7,0.1,2.5,0.1,3.5c0,1-1,1.9-1.1,2.9c-0.1,0.8,2.1,0.8,2.2,0
			c0.3-2,0.2-4.7-0.7-6.8C154.5,87.4,154.8,89.4,154.8,89.4z"/>
	</g>
	<g id="XMLID_938_">
		<path id="XMLID_638_" d="M146.9,83.5c1.1-0.6,2.5-0.6,3.5,0.2c0.7,0.5,1.6-0.4,0.9-0.9c-1.5-1.2-3.4-1.4-5.1-0.4
			C145.6,82.8,146.2,84,146.9,83.5L146.9,83.5z"/>
	</g>
	<g id="XMLID_931_">
		<path id="XMLID_637_" d="M162.5,84.7c1.1-1.2,2.8-1.6,4.2-0.8c0.7,0.4,1.4-0.7,0.7-1.1c-1.9-1.1-4.4-0.7-5.8,1
			C161.1,84.4,162,85.3,162.5,84.7L162.5,84.7z"/>
	</g>
	<g id="XMLID_920_">
		<g id="XMLID_929_">
			<path id="XMLID_930_" class="st7" d="M155.5,99.9c-0.4,0-0.8,0.3-0.8,0.6c0,0.5-0.2,1-0.4,1.4c-0.3,0.9,1.2,1.3,1.5,0.5
				c0.2-0.6,0.4-1.2,0.4-1.8C156.3,100.3,155.9,99.9,155.5,99.9z"/>
		</g>
		<g id="XMLID_927_">
			<path id="XMLID_928_" class="st8" d="M149.2,99.9c-0.3,0-0.4,1.1-0.3,1.1c0.1,0,0.1,0,0.1,0C149.3,100.9,149.6,99.9,149.2,99.9z"
				/>
		</g>
		<g id="XMLID_925_">
			<path id="XMLID_926_" class="st1" d="M150.2,100.7c-0.2,0,0.4,0.9,0.6,0.9c3.3,2.2,10.7,2.7,11.7-1.3c-1.1,0.6-5.7,0.2-7,0.3
				C153.7,100.6,152,100.8,150.2,100.7z"/>
		</g>
		<g id="XMLID_923_">
			<path id="XMLID_924_" class="st3" d="M159.9,99.5c-0.3-0.2-1.4-0.6-1.8-0.6c-0.5,0-1.1,0.4-1.4,0.8c-0.4-0.3-0.7-0.6-1.2-0.6
				c-0.9,0-1.8,0.3-2.5,0.6c-0.9,0.3-2,0.7-3,0.8c-0.1,0,0.3,0.2,0.4,0.2c0.2,0,4.4,0.2,5.7,0.1c0.9-0.1,1.9,0.1,2.7-0.1
				c0.3-0.1,3-0.1,3.3-0.2c0,0,0.5-0.3,0.4-0.3C162.3,100.2,160.1,99.6,159.9,99.5z"/>
		</g>
		<g id="XMLID_921_">
			<path id="XMLID_922_" class="st3" d="M157.6,102.7c-0.1,0-3.5,0.3-4.9-0.2c-0.7-0.2-1.3-0.5-1.7-0.9c-0.4-0.3-0.6-0.7-0.8-1.1
				c-0.1,0.3,0.2,0.9,0.4,1.2c0.9,1.4,2.3,2.9,4.2,3c1.2,0.1,3.8,0,4.7-0.6c0.9-0.7,2.5-2.1,2.9-3c0.1-0.2,0-0.5,0.2-0.7
				C161.8,101.4,158.9,102.2,157.6,102.7z"/>
		</g>
	</g>
	<g id="XMLID_918_">
		<path id="XMLID_919_" class="st3" d="M162.6,100c0.1,0.3,0.2,0.5,0.4,0.8c0.3,0.7,1.3,0.1,1-0.6c-0.1-0.3-0.2-0.5-0.4-0.8
			C163.3,98.7,162.3,99.3,162.6,100L162.6,100z"/>
	</g>
	<g id="XMLID_916_">
		<path id="XMLID_917_" class="st3" d="M148.6,100c-0.1,0.3-0.1,0.6-0.2,0.9c-0.1,0.7,1,0.8,1.2,0.1c0.1-0.3,0.1-0.6,0.2-0.9
			C149.9,99.3,148.7,99.3,148.6,100L148.6,100z"/>
	</g>
	<g id="XMLID_595_">
		<path id="XMLID_653_" class="st1" d="M135,120c4.3,8.4,11,17.6,21.4,17.5c9.9-0.1,15.8-10,19.9-17.7c0.5-1-1-2-1.6-0.9
			c-3.8,7.1-9.1,16.5-18.3,16.8c-9.7,0.3-16-8.9-19.9-16.5C136,118,134.4,119,135,120L135,120z"/>
	</g>
	<g id="XMLID_617_">
		<path id="XMLID_650_" class="st1" d="M125.8,121.6c7.4,11.9,15.2,31.3,31.9,30.3c14.8-0.9,24.9-16.2,26-29.9
			c0.1-1.2-1.7-1.2-1.8,0c-1.1,14.5-14,31.8-30.3,27.6c-11.6-3-18.5-19.5-24.2-28.8C126.7,119.7,125.2,120.6,125.8,121.6
			L125.8,121.6z"/>
	</g>
	<g id="XMLID_623_">
		<path id="XMLID_657_" class="st6" d="M123.3,124.9c0.1,0.2,0.2,0.4,0.3,0.5c0.5,1,2.1,0.1,1.6-0.9c-0.1-0.2-0.2-0.4-0.3-0.5
			C124.4,122.9,122.8,123.8,123.3,124.9L123.3,124.9z"/>
	</g>
	<g id="XMLID_624_">
		<path id="XMLID_664_" class="st6" d="M124.6,128.2c0.2,0.8,0.7,1.5,1.5,1.9c1,0.6,2-1,0.9-1.6c-0.4-0.2-0.6-0.4-0.7-0.8
			C126,126.6,124.3,127,124.6,128.2L124.6,128.2z"/>
	</g>
	<g id="XMLID_625_">
		<path id="XMLID_671_" class="st6" d="M128.1,134.1c0.2,0.9,0.7,1.6,1.5,2.2c0.9,0.7,1.9-0.9,0.9-1.6c-0.4-0.3-0.5-0.7-0.6-1.1
			C129.6,132.5,127.9,133,128.1,134.1L128.1,134.1z"/>
	</g>
	<g id="XMLID_626_">
		<path id="XMLID_678_" class="st6" d="M132.1,140.2c0.6,0.7,1.3,1.4,1.9,2.2c0.8,0.9,2.1-0.4,1.3-1.3c-0.6-0.7-1.3-1.4-1.9-2.2
			C132.7,138,131.4,139.3,132.1,140.2L132.1,140.2z"/>
	</g>
	<g id="XMLID_627_">
		<path id="XMLID_685_" class="st6" d="M138.3,148.4c0.8,0.5,1.6,1.1,2.5,1.6c1,0.6,1.9-0.9,0.9-1.6c-0.8-0.5-1.6-1.1-2.5-1.6
			C138.2,146.2,137.3,147.8,138.3,148.4L138.3,148.4z"/>
	</g>
	<g id="XMLID_628_">
		<path id="XMLID_692_" class="st6" d="M143.9,152.8c0.9,0.6,1.8,1.3,2.7,1.9c1,0.7,1.9-0.9,0.9-1.6c-0.9-0.6-1.8-1.3-2.7-1.9
			C143.9,150.5,143,152.1,143.9,152.8L143.9,152.8z"/>
	</g>
	<g id="XMLID_631_">
		<path id="XMLID_699_" class="st6" d="M151.8,156.1c0.9,0.4,1.9,0.6,2.9,0.6c1.2,0,1.2-1.9,0-1.8c-0.7,0-1.4-0.1-2-0.4
			C151.6,154,150.7,155.6,151.8,156.1L151.8,156.1z"/>
	</g>
	<g id="XMLID_633_">
		<path id="XMLID_706_" class="st6" d="M160.4,156.5c1.1,0.4,2.2,0.2,3.2-0.5c0.9-0.7,0-2.3-0.9-1.6c-0.6,0.4-1.1,0.5-1.8,0.3
			C159.7,154.3,159.2,156.1,160.4,156.5L160.4,156.5z"/>
	</g>
	<g id="XMLID_645_">
		<path id="XMLID_713_" class="st6" d="M168.9,154.7c0.9-0.5,1.8-0.9,2.7-1.4c1-0.5,0.1-2.1-0.9-1.6c-0.9,0.5-1.8,0.9-2.7,1.4
			C167,153.6,167.9,155.2,168.9,154.7L168.9,154.7z"/>
	</g>
	<g id="XMLID_652_">
		<path id="XMLID_720_" class="st6" d="M175.5,150c0.6-0.8,1.3-1.6,1.9-2.4c0.3-0.4,0.1-1-0.3-1.2c-0.5-0.3-0.9-0.1-1.2,0.3
			c-0.6,0.8-1.3,1.6-1.9,2.4c-0.3,0.4-0.1,1,0.3,1.2C174.7,150.6,175.2,150.4,175.5,150L175.5,150z"/>
	</g>
	<g id="XMLID_659_">
		<path id="XMLID_727_" class="st6" d="M180.2,143.6c0.2-0.6,0.4-1.1,0.8-1.5c0.7-0.9-0.5-2.2-1.3-1.3c-0.6,0.7-1,1.5-1.3,2.3
			C178.1,144.2,179.8,144.7,180.2,143.6L180.2,143.6z"/>
	</g>
	<g id="XMLID_666_">
		<path id="XMLID_734_" class="st6" d="M183.4,136.8c0-0.9,0.2-1.8,0.6-2.6c0.5-1-1-2-1.6-0.9c-0.6,1.1-0.9,2.2-0.8,3.5
			C181.6,138,183.5,138,183.4,136.8L183.4,136.8z"/>
	</g>
	<g id="XMLID_673_">
		<path id="XMLID_741_" class="st6" d="M185.3,129.5c0-0.5,0.2-0.9,0.5-1.3c0.8-0.9-0.5-2.2-1.3-1.3c-0.7,0.7-1,1.6-1,2.6
			C183.5,130.7,185.3,130.7,185.3,129.5L185.3,129.5z"/>
	</g>
	<g id="XMLID_680_">
		<path id="XMLID_748_" class="st6" d="M187,123.9c0-0.3,0-0.5,0-0.8c0-1.2-1.8-1.2-1.8,0c0,0.3,0,0.5,0,0.8
			C185.1,125,187,125,187,123.9L187,123.9z"/>
	</g>
	<g id="XMLID_687_">
		<path id="XMLID_658_" class="st6" d="M141.6,117.7c0.5,0.4,0.9,0.7,1.4,1.1c0.9,0.7,2.2-0.6,1.3-1.3c-0.5-0.4-0.9-0.7-1.4-1.1
			C142,115.7,140.7,117,141.6,117.7L141.6,117.7z"/>
	</g>
	<g id="XMLID_694_">
		<path id="XMLID_656_" class="st6" d="M145,120.6c0.6,0.4,1.3,0.7,1.9,1.1c1,0.6,1.9-1,0.9-1.6c-0.6-0.4-1.3-0.7-1.9-1.1
			C144.9,118.4,144,120,145,120.6L145,120.6z"/>
	</g>
	<g id="XMLID_701_">
		<path id="XMLID_655_" class="st6" d="M149.3,123.7c0.7,0.2,1.5,0.4,2.2,0.7c1.1,0.3,1.6-1.4,0.5-1.8c-0.7-0.2-1.5-0.4-2.2-0.7
			C148.6,121.6,148.2,123.4,149.3,123.7L149.3,123.7z"/>
	</g>
	<g id="XMLID_708_">
		<path id="XMLID_651_" class="st6" d="M155,125.6c0.6-0.1,1.1,0,1.7,0.2c0.5,0.2,1-0.2,1.1-0.6c0.1-0.5-0.2-0.9-0.6-1.1
			c-0.7-0.3-1.4-0.4-2.1-0.3c-0.5,0.1-0.9,0.4-0.9,0.9C154,125.1,154.5,125.7,155,125.6L155,125.6z"/>
	</g>
	<g id="XMLID_715_">
		<path id="XMLID_649_" class="st6" d="M160.9,125c0.7-0.3,1.4-0.5,2.2-0.8c1.1-0.4,0.6-2.2-0.5-1.8c-0.7,0.3-1.4,0.5-2.2,0.8
			C159.3,123.7,159.8,125.5,160.9,125L160.9,125z"/>
	</g>
	<g id="XMLID_722_">
		<path id="XMLID_648_" class="st6" d="M165.5,122.6c0.9-0.3,1.7-0.8,2.3-1.5c0.7-0.9-0.5-2.2-1.3-1.3c-0.4,0.5-0.9,0.9-1.5,1.1
			C163.9,121.2,164.3,122.9,165.5,122.6L165.5,122.6z"/>
	</g>
	<g id="XMLID_729_">
		<path id="XMLID_642_" class="st6" d="M169.4,119.6c0.4-0.4,0.7-0.7,1.1-1.1c0.8-0.8-0.5-2.1-1.3-1.3c-0.4,0.4-0.7,0.7-1.1,1.1
			C167.3,119.2,168.6,120.5,169.4,119.6L169.4,119.6z"/>
	</g>
	<g id="XMLID_736_">
		<path id="XMLID_641_" class="st6" d="M171.4,117.3c0.2-0.1,0.4-0.2,0.5-0.3c1-0.5,0.1-2.1-0.9-1.6c-0.2,0.1-0.4,0.2-0.5,0.3
			C169.4,116.3,170.3,117.9,171.4,117.3L171.4,117.3z"/>
	</g>
	<path id="XMLID_630_" d="M151.5,66.9c0,0,4.8-12,19.2-6c14.4,6,9.2,20.4,9.2,22.1c0,1.7,3,7.5,6.4,1.2c0,0,6.2,7.5-0.7,16
		s-15.9,4.4-18.4-2.2C162.1,84.2,176.2,69.2,151.5,66.9z"/>
	<path id="XMLID_632_" d="M154,66c0,0,5.8,7.7-0.8,12.8c-7.2,5.6-13.4,13.5-5.8,27c0,0-19.4-2.8-15-24.2
		C136.8,60.2,154.2,65.4,154,66z"/>
</g>
<g id="XMLID_168_">
	<g>
		<path class="st9" d="M155.9,66.4c0.4-0.2,0.9-0.2,1.3,0c0.5,0.2,0.9-0.5,0.4-0.7c-0.7-0.4-1.4-0.4-2.1,0
			C155.1,65.9,155.5,66.6,155.9,66.4L155.9,66.4z"/>
	</g>
</g>
<g id="XMLID_188_">
	<g>
		<path class="st9" d="M159.7,67.2c0.3,0.1,0.6,0.3,0.8,0.4c0.5,0.2,0.9-0.5,0.4-0.7c-0.3-0.1-0.6-0.3-0.8-0.4
			C159.7,66.3,159.3,67,159.7,67.2L159.7,67.2z"/>
	</g>
</g>
<g id="XMLID_195_">
	<g>
		<path class="st9" d="M163.5,69.1c0.4,0.3,0.9,0.7,1.3,1c0.4,0.3,0.8-0.4,0.4-0.7c-0.4-0.3-0.9-0.7-1.3-1
			C163.5,68.1,163.1,68.8,163.5,69.1L163.5,69.1z"/>
	</g>
</g>
<g id="XMLID_203_">
	<g>
		<path class="st9" d="M166.7,72c0.1,0.3,0.3,0.7,0.4,1c0.2,0.5,1,0.3,0.8-0.2c-0.1-0.3-0.3-0.7-0.4-1
			C167.3,71.3,166.5,71.5,166.7,72L166.7,72z"/>
	</g>
</g>
<g id="XMLID_204_">
	<g>
		<path class="st9" d="M168.1,76c0.1,0.6,0.3,1.3,0.4,1.9c0.1,0.5,0.9,0.3,0.8-0.2c-0.1-0.6-0.3-1.3-0.4-1.9
			C168.8,75.3,168,75.5,168.1,76L168.1,76z"/>
	</g>
</g>
<g id="XMLID_205_">
	<g>
		<path class="st9" d="M168.5,81.6c0.1,0.6,0.1,1.3,0.2,1.9c0.1,0.5,0.9,0.5,0.8,0c-0.1-0.6-0.1-1.3-0.2-1.9
			C169.3,81.1,168.5,81.1,168.5,81.6L168.5,81.6z"/>
	</g>
</g>
<g id="XMLID_206_">
	<g>
		<path class="st9" d="M168.1,86.8c0,0.6,0,1.1,0,1.7c0,0.5,0.8,0.5,0.8,0c0-0.6,0-1.1,0-1.7C168.9,86.3,168.1,86.3,168.1,86.8
			L168.1,86.8z"/>
	</g>
</g>
<g id="XMLID_211_">
	<g>
		<path class="st9" d="M167.5,92.3c0.4,0.8,0.7,1.5,1.1,2.3c0.2,0.5,0.9,0.1,0.7-0.4c-0.4-0.8-0.7-1.5-1.1-2.3
			C168,91.4,167.3,91.8,167.5,92.3L167.5,92.3z"/>
	</g>
</g>
<g id="XMLID_214_">
	<g>
		<path class="st9" d="M169.7,97.5c0.3,0.4,0.6,0.9,1,1.3c0.3,0.4,1,0,0.7-0.4c-0.3-0.4-0.6-0.9-1-1.3
			C170.1,96.7,169.4,97.1,169.7,97.5L169.7,97.5z"/>
	</g>
</g>
<g id="XMLID_667_">
	<g>
		<path class="st9" d="M173.6,101.9c0.2,0.1,0.4,0.3,0.6,0.4c0.4,0.3,0.8-0.4,0.4-0.7c-0.2-0.1-0.4-0.3-0.6-0.4
			C173.6,100.9,173.2,101.6,173.6,101.9L173.6,101.9z"/>
	</g>
</g>
<g id="XMLID_676_">
	<g>
		<path class="st9" d="M178.4,102.7c0.7,0.4,1.6,0.3,2.2-0.3c0.4-0.4-0.2-0.9-0.6-0.6c-0.3,0.3-0.8,0.4-1.2,0.1
			C178.4,101.7,178,102.4,178.4,102.7L178.4,102.7z"/>
	</g>
</g>
<g id="XMLID_686_">
	<g>
		<path class="st9" d="M183.7,101c0.1-0.1,0.3-0.3,0.4-0.4c0.4-0.4-0.2-0.9-0.6-0.6c-0.1,0.1-0.3,0.3-0.4,0.4
			C182.8,100.8,183.4,101.3,183.7,101L183.7,101z"/>
	</g>
</g>
<g id="XMLID_696_">
	<g>
		<path class="st9" d="M154.6,64.9c0.4-0.1,0.7-0.3,0.9-0.6c0.3-0.4-0.4-0.8-0.7-0.4c-0.1,0.2-0.2,0.2-0.4,0.2
			C153.8,64.2,154.1,65,154.6,64.9L154.6,64.9z"/>
	</g>
</g>
<g id="XMLID_705_">
	<g>
		<path class="st9" d="M158.1,64.1c0.4-0.1,0.8,0,1.2,0.1c0.5,0.2,0.9-0.5,0.4-0.7c-0.6-0.3-1.2-0.3-1.8-0.2
			C157.4,63.4,157.6,64.2,158.1,64.1L158.1,64.1z"/>
	</g>
</g>
<g id="XMLID_716_">
	<g>
		<path class="st9" d="M163.1,65.4c0.5,0,0.5-0.8,0-0.8C162.6,64.6,162.6,65.4,163.1,65.4L163.1,65.4z"/>
	</g>
</g>
<g id="XMLID_725_">
	<g>
		<path class="st9" d="M164.9,66.5c0.3,0.4,0.6,0.7,0.8,1.1c0.3,0.4,0.9-0.2,0.6-0.6c-0.3-0.4-0.6-0.7-0.8-1.1
			C165.2,65.5,164.6,66.1,164.9,66.5L164.9,66.5z"/>
	</g>
</g>
<g id="XMLID_735_">
	<g>
		<path class="st9" d="M167.2,69.4c0.4,0.4,0.8,0.9,1.2,1.3c0.4,0.4,0.9-0.2,0.6-0.6c-0.4-0.4-0.8-0.9-1.2-1.3
			C167.4,68.5,166.8,69.1,167.2,69.4L167.2,69.4z"/>
	</g>
</g>
<g id="XMLID_744_">
	<g>
		<path class="st9" d="M170.3,74.3c0.3,0.7,0.5,1.4,0.8,2.1c0.2,0.5,0.9,0.3,0.8-0.2c-0.3-0.7-0.5-1.4-0.8-2.1
			C170.9,73.6,170.1,73.8,170.3,74.3L170.3,74.3z"/>
	</g>
</g>
<g id="XMLID_752_">
	<g>
		<path class="st9" d="M171.5,79.6c0.1,0.6,0.3,1.3,0.4,1.9c0.1,0.5,0.9,0.3,0.8-0.2c-0.1-0.6-0.3-1.3-0.4-1.9
			C172.2,78.9,171.4,79.1,171.5,79.6L171.5,79.6z"/>
	</g>
</g>
<g id="XMLID_759_">
	<g>
		<path class="st9" d="M171.9,84.2c0.1,0.5,0,1-0.2,1.5c-0.2,0.5,0.6,0.7,0.8,0.2c0.2-0.6,0.3-1.2,0.2-1.9
			C172.6,83.5,171.8,83.7,171.9,84.2L171.9,84.2z"/>
	</g>
</g>
<g id="XMLID_766_">
	<g>
		<path class="st9" d="M171.5,88.8c-0.3,0.7-0.2,1.5,0.3,2.2c0.3,0.4,1,0,0.7-0.4c-0.3-0.5-0.4-1-0.2-1.6
			C172.5,88.5,171.7,88.3,171.5,88.8L171.5,88.8z"/>
	</g>
</g>
<g id="XMLID_773_">
	<g>
		<path class="st9" d="M172.5,93.8c0.4,0.4,0.7,0.9,1,1.4c0.2,0.5,0.9,0.1,0.7-0.4c-0.3-0.6-0.6-1.1-1.1-1.6
			C172.7,92.9,172.1,93.4,172.5,93.8L172.5,93.8z"/>
	</g>
</g>
<g id="XMLID_780_">
	<g>
		<path class="st9" d="M174.8,97c0.6,0.4,1.3,0.7,2,0.9c0.5,0.1,0.7-0.6,0.2-0.8c-0.6-0.2-1.2-0.4-1.8-0.8
			C174.8,96.1,174.4,96.8,174.8,97L174.8,97z"/>
	</g>
</g>
<g id="XMLID_787_">
	<g>
		<path class="st9" d="M179.3,98c0.5,0.1,1,0.2,1.5,0.3c0.5,0.1,0.7-0.7,0.2-0.8c-0.5-0.1-1-0.2-1.5-0.3
			C179.1,97.1,178.8,97.9,179.3,98L179.3,98z"/>
	</g>
</g>
<g id="XMLID_794_">
	<g>
		<path class="st9" d="M183.4,97.5c0.5,0.1,0.9,0.1,1.4-0.2c0.4-0.3,0-0.9-0.4-0.7c-0.3,0.1-0.5,0.2-0.8,0.1
			C183.1,96.6,182.9,97.3,183.4,97.5L183.4,97.5z"/>
	</g>
</g>
<g id="XMLID_802_">
	<g>
		<path class="st9" d="M187.9,81.4c0.3-0.2,0.5-0.4,0.8-0.6c0.4-0.3,0-1-0.4-0.7c-0.3,0.2-0.5,0.4-0.8,0.6
			C187.1,81,187.5,81.7,187.9,81.4L187.9,81.4z"/>
	</g>
</g>
<g id="XMLID_207_">
	<g>
		<path class="st9" d="M156.2,63c0.6-0.2,1-0.5,1.5-0.8c0.4-0.3-0.2-0.9-0.6-0.6c-0.3,0.3-0.7,0.5-1.1,0.6
			C155.5,62.4,155.7,63.1,156.2,63L156.2,63z"/>
	</g>
</g>
<g id="XMLID_213_">
	<g>
		<path class="st9" d="M159.1,62.4c0.4,0,0.8,0,1.2,0.2c0.5,0.2,0.9-0.5,0.4-0.7c-0.5-0.2-1.1-0.4-1.6-0.3
			C158.6,61.6,158.5,62.4,159.1,62.4L159.1,62.4z"/>
	</g>
</g>
<g id="XMLID_647_">
	<g>
		<path class="st9" d="M163.3,63.2c0.4,0.1,0.8,0.2,1.1,0.5c0.4,0.3,1-0.2,0.6-0.6c-0.5-0.4-0.9-0.6-1.5-0.7
			C163,62.3,162.8,63.1,163.3,63.2L163.3,63.2z"/>
	</g>
</g>
<g id="XMLID_660_">
	<g>
		<path class="st9" d="M167.1,65.6c0.3,0.2,0.6,0.5,1,0.7c0.4,0.3,0.8-0.4,0.4-0.7c-0.3-0.2-0.6-0.5-1-0.7
			C167,64.5,166.6,65.2,167.1,65.6L167.1,65.6z"/>
	</g>
</g>
<g id="XMLID_661_">
	<g>
		<path class="st9" d="M170.6,68.5c0.4,0.4,0.8,0.9,1,1.4c0.3,0.4,0.9,0,0.7-0.4c-0.3-0.6-0.7-1.1-1.2-1.5
			C170.8,67.6,170.2,68.1,170.6,68.5L170.6,68.5z"/>
	</g>
</g>
<g id="XMLID_662_">
	<g>
		<path class="st9" d="M172.8,72.1c0.5,0.7,0.7,1.4,0.8,2.2c0,0.5,0.8,0.5,0.8,0c-0.1-0.9-0.4-1.8-0.9-2.6
			C173.2,71.2,172.5,71.6,172.8,72.1L172.8,72.1z"/>
	</g>
</g>
<g id="XMLID_843_">
	<g>
		<path class="st9" d="M174.2,76.6c0.1,0.4,0.2,0.9,0.4,1.3c0.1,0.5,0.9,0.3,0.8-0.2c-0.1-0.4-0.2-0.9-0.4-1.3
			C174.8,75.9,174.1,76.1,174.2,76.6L174.2,76.6z"/>
	</g>
</g>
<g id="XMLID_855_">
	<g>
		<path class="st9" d="M174.8,81.6c0,0.5,0,1,0,1.4c0,0.5,0.8,0.5,0.8,0c0-0.5,0-1,0-1.4C175.6,81.1,174.8,81.1,174.8,81.6
			L174.8,81.6z"/>
	</g>
</g>
<g id="XMLID_867_">
	<g>
		<path class="st9" d="M174.4,87.2c0.1,0.5,0.1,1,0.1,1.5c0,0.5,0.8,0.5,0.8,0c0-0.6,0-1.1-0.2-1.7
			C175.1,86.5,174.3,86.7,174.4,87.2L174.4,87.2z"/>
	</g>
</g>
<g id="XMLID_874_">
	<g>
		<path class="st9" d="M175.4,91.6c0.3,0.3,0.6,0.6,0.8,0.9c0.3,0.4,1,0,0.7-0.4c-0.3-0.5-0.7-0.9-1.1-1.2
			C175.4,90.6,175,91.3,175.4,91.6L175.4,91.6z"/>
	</g>
</g>
<g id="XMLID_881_">
	<g>
		<path class="st9" d="M179.1,94.4c0.3,0.3,0.7,0.4,1.1,0.5c0.5,0.1,0.5-0.7,0-0.8c-0.2,0-0.4-0.1-0.6-0.3
			C179.3,93.5,178.7,94,179.1,94.4L179.1,94.4z"/>
	</g>
</g>
<g id="XMLID_888_">
	<g>
		<path class="st9" d="M182.4,95.2c0.5,0.1,0.8,0,1.3-0.2c0.5-0.2,0.1-0.9-0.4-0.7c-0.2,0.1-0.4,0.1-0.7,0.1
			C182.1,94.4,181.9,95.1,182.4,95.2L182.4,95.2z"/>
	</g>
</g>
<g id="XMLID_895_">
	<g>
		<path class="st9" d="M186.1,93.8c0.2-0.2,0.5-0.4,0.7-0.6c0.4-0.3-0.2-0.9-0.6-0.6c-0.2,0.2-0.5,0.4-0.7,0.6
			C185.1,93.6,185.7,94.1,186.1,93.8L186.1,93.8z"/>
	</g>
</g>
<g id="XMLID_902_">
	<g>
		<path class="st9" d="M188.7,77.6c0.2-0.1,0.3-0.3,0.3-0.6c-0.1-0.5-0.9-0.5-0.8,0c0,0,0.1-0.1,0.1-0.1
			C187.9,77.2,188.3,77.8,188.7,77.6L188.7,77.6z"/>
	</g>
</g>
<g id="XMLID_909_">
	<g>
		<path class="st9" d="M159.7,60.6c0.4,0.1,0.8,0,1.2-0.1c0.5-0.2,0.3-0.9-0.2-0.8c-0.3,0.1-0.5,0.1-0.8,0.1
			C159.4,59.7,159.2,60.5,159.7,60.6L159.7,60.6z"/>
	</g>
</g>
<g id="XMLID_932_">
	<g>
		<path class="st9" d="M163.1,60.6c0.2,0,0.3,0,0.4,0.1c0.4,0.3,0.9-0.2,0.6-0.6c-0.3-0.3-0.6-0.4-1-0.4
			C162.6,59.8,162.6,60.6,163.1,60.6L163.1,60.6z"/>
	</g>
</g>
<g id="XMLID_940_">
	<g>
		<path class="st9" d="M166.1,61.6c0.3,0.2,0.6,0.3,0.9,0.5c0.5,0.2,0.9-0.5,0.4-0.7c-0.3-0.2-0.6-0.3-0.9-0.5
			C166,60.7,165.6,61.4,166.1,61.6L166.1,61.6z"/>
	</g>
</g>
<g id="XMLID_948_">
	<g>
		<path class="st9" d="M169.1,63.2c0.3,0.1,0.6,0.3,0.9,0.5c0.4,0.3,0.9-0.2,0.6-0.6c-0.4-0.3-0.8-0.6-1.2-0.7
			C168.8,62.3,168.6,63,169.1,63.2L169.1,63.2z"/>
	</g>
</g>
<g id="XMLID_956_">
	<g>
		<path class="st9" d="M172.1,65.3c0.3,0.3,0.7,0.6,1,0.9c0.4,0.4,0.9-0.2,0.6-0.6c-0.3-0.3-0.7-0.6-1-0.9
			C172.3,64.4,171.7,64.9,172.1,65.3L172.1,65.3z"/>
	</g>
</g>
<g id="XMLID_964_">
	<g>
		<path class="st9" d="M174.6,68.8c0.5,0.6,0.8,1.2,1,1.9c0.2,0.5,0.9,0.3,0.8-0.2c-0.3-0.8-0.7-1.6-1.2-2.3
			C174.8,67.8,174.3,68.4,174.6,68.8L174.6,68.8z"/>
	</g>
</g>
<g id="XMLID_972_">
	<g>
		<path class="st9" d="M176.2,72.7c0.2,0.4,0.3,0.9,0.4,1.3c0,0.5,0.8,0.5,0.8,0c0-0.6-0.2-1.2-0.5-1.8
			C176.7,71.8,176,72.2,176.2,72.7L176.2,72.7z"/>
	</g>
</g>
<g id="XMLID_981_">
	<g>
		<path class="st9" d="M177.1,77.1c0.2,0.5,0.3,1.1,0.2,1.6c-0.1,0.5,0.7,0.7,0.8,0.2c0.1-0.7,0.1-1.4-0.2-2
			C177.7,76.4,176.9,76.6,177.1,77.1L177.1,77.1z"/>
	</g>
</g>
<g id="XMLID_991_">
	<g>
		<path class="st9" d="M177.5,81.8c0,0.5,0.1,1,0.1,1.6c0,0.5,0.8,0.5,0.8,0c0-0.5-0.1-1-0.1-1.6C178.3,81.3,177.5,81.3,177.5,81.8
			L177.5,81.8z"/>
	</g>
</g>
<g id="XMLID_998_">
	<g>
		<path class="st9" d="M177.7,86.3c0.2,0.5,0.4,1,0.5,1.4c0.2,0.5,1,0.3,0.8-0.2c-0.2-0.5-0.4-1-0.5-1.4
			C178.2,85.6,177.5,85.8,177.7,86.3L177.7,86.3z"/>
	</g>
</g>
<g id="XMLID_1007_">
	<g>
		<path class="st9" d="M179.8,90.2c0.3,0.2,0.6,0.4,0.8,0.6c0.4,0.3,0.8-0.4,0.4-0.7c-0.3-0.2-0.6-0.4-0.8-0.6
			C179.8,89.3,179.4,89.9,179.8,90.2L179.8,90.2z"/>
	</g>
</g>
<g id="XMLID_1014_">
	<g>
		<path class="st9" d="M183.1,91.3c0.8-0.1,1.5-0.2,2.3-0.5c0.5-0.2,0.3-0.9-0.2-0.8c-0.7,0.2-1.4,0.4-2.1,0.5
			C182.6,90.5,182.6,91.3,183.1,91.3L183.1,91.3z"/>
	</g>
</g>
<g id="XMLID_1021_">
	<g>
		<path class="st9" d="M188.3,75c0.2-0.3,0.4-0.6,0.6-0.9c0.3-0.4-0.4-0.8-0.7-0.4c-0.2,0.3-0.4,0.6-0.6,0.9
			C187.3,75,188,75.4,188.3,75L188.3,75z"/>
	</g>
</g>
<g id="XMLID_1028_">
	<g>
		<path class="st9" d="M188.7,73.4c0.5,0,0.5-0.8,0-0.8C188.2,72.6,188.2,73.4,188.7,73.4L188.7,73.4z"/>
	</g>
</g>
<g id="XMLID_1035_">
	<g>
		<path class="st9" d="M169.3,61.1c0.1,0,0.2,0,0.3,0.1c0.5,0.2,0.9-0.4,0.4-0.7c-0.3-0.2-0.6-0.2-0.9-0.1
			C168.5,60.4,168.8,61.1,169.3,61.1L169.3,61.1z"/>
	</g>
</g>
<g id="XMLID_1042_">
	<g>
		<path class="st9" d="M171.8,62.5c0.3,0.2,0.7,0.4,1,0.7c0.4,0.3,0.8-0.4,0.4-0.7c-0.3-0.2-0.7-0.4-1-0.7
			C171.8,61.5,171.4,62.2,171.8,62.5L171.8,62.5z"/>
	</g>
</g>
<g id="XMLID_1049_">
	<g>
		<path class="st9" d="M174.6,64.4c0.4,0.3,0.8,0.6,1.2,0.9c0.4,0.3,0.8-0.4,0.4-0.7c-0.4-0.3-0.8-0.6-1.2-0.9
			C174.6,63.4,174.2,64.1,174.6,64.4L174.6,64.4z"/>
	</g>
</g>
<g id="XMLID_1056_">
	<g>
		<path class="st9" d="M176.4,66.6c0.2,0.3,0.5,0.6,0.7,0.8c0.3,0.4,0.9-0.2,0.6-0.6c-0.2-0.3-0.5-0.6-0.7-0.8
			C176.7,65.6,176.1,66.2,176.4,66.6L176.4,66.6z"/>
	</g>
</g>
<g id="XMLID_1063_">
	<g>
		<path class="st9" d="M178.1,69.8c0.2,0.5,0.5,1,0.7,1.6c0.2,0.5,0.9,0.1,0.7-0.4c-0.2-0.5-0.5-1-0.7-1.6
			C178.6,68.9,177.9,69.3,178.1,69.8L178.1,69.8z"/>
	</g>
</g>
<g id="XMLID_1070_">
	<g>
		<path class="st9" d="M179.3,73.4c0.1,0.3,0.2,0.7,0.2,1c0,0.5,0.8,0.5,0.8,0c0-0.5-0.1-1-0.3-1.4
			C179.8,72.5,179.1,72.9,179.3,73.4L179.3,73.4z"/>
	</g>
</g>
<g id="XMLID_1077_">
	<g>
		<path class="st9" d="M179.5,77.5c0.2,0.3,0.2,0.6,0.2,0.9c-0.1,0.5,0.7,0.7,0.8,0.2c0.1-0.5,0-1-0.3-1.5
			C179.9,76.6,179.3,77,179.5,77.5L179.5,77.5z"/>
	</g>
</g>
<g id="XMLID_1084_">
	<g>
		<path class="st9" d="M153.2,67.1c0.2,0.3,0.3,0.6,0.3,1c0,0.5,0.8,0.5,0.8,0c0-0.5-0.1-1-0.4-1.4
			C153.6,66.3,152.9,66.7,153.2,67.1L153.2,67.1z"/>
	</g>
</g>
<g id="XMLID_1091_">
	<g>
		<path class="st9" d="M153.6,69.7c0.1,0.4,0.2,0.8,0.3,1.2c0.1,0.5,0.9,0.3,0.8-0.2c-0.1-0.4-0.2-0.8-0.3-1.2
			C154.3,68.9,153.5,69.2,153.6,69.7L153.6,69.7z"/>
	</g>
</g>
<g id="XMLID_1098_">
	<g>
		<path class="st9" d="M153.1,73.9c-0.2,0.6-0.5,1.1-1,1.5c-0.4,0.3,0.2,0.9,0.6,0.6c0.6-0.5,1-1.1,1.2-1.8
			C154,73.6,153.3,73.4,153.1,73.9L153.1,73.9z"/>
	</g>
</g>
<g id="XMLID_1105_">
	<g>
		<path class="st9" d="M149.6,78.5c-0.2,0.2-0.4,0.3-0.6,0.4c-0.5,0.1-0.3,0.9,0.2,0.8c0.5-0.1,0.8-0.4,1.1-0.8
			C150.6,78.5,149.9,78.1,149.6,78.5L149.6,78.5z"/>
	</g>
</g>
<g id="XMLID_1112_">
	<g>
		<path class="st9" d="M145.7,82.8c-0.3,0.6-0.6,1.1-1,1.7c-0.3,0.4,0.4,0.9,0.7,0.4c0.3-0.6,0.6-1.1,1-1.7
			C146.6,82.8,146,82.4,145.7,82.8L145.7,82.8z"/>
	</g>
</g>
<g id="XMLID_1119_">
	<g>
		<path class="st9" d="M143.7,86.9c-0.3,0.6-0.4,1.2-0.5,1.8c-0.1,0.5,0.7,0.7,0.8,0.2c0.1-0.5,0.2-1.1,0.4-1.6
			C144.6,86.9,143.9,86.4,143.7,86.9L143.7,86.9z"/>
	</g>
</g>
<g id="XMLID_1126_">
	<g>
		<path class="st9" d="M141.9,93c0.1,0.6,0.2,1.1,0.3,1.7c0.1,0.5,0.9,0.3,0.8-0.2c-0.1-0.6-0.2-1.1-0.3-1.7
			C142.6,92.3,141.9,92.5,141.9,93L141.9,93z"/>
	</g>
</g>
<g id="XMLID_1133_">
	<g>
		<path class="st9" d="M142.5,98.5c0.2,0.7,0.5,1.4,0.8,2c0.2,0.5,0.9,0.1,0.7-0.4c-0.3-0.6-0.6-1.2-0.8-1.8
			C143.1,97.8,142.3,98,142.5,98.5L142.5,98.5z"/>
	</g>
</g>
<g id="XMLID_1140_">
	<g>
		<path class="st9" d="M144,102.4c0.4,0.6,0.8,1.2,1.2,1.8c0.3,0.4,1,0,0.7-0.4c-0.4-0.6-0.8-1.2-1.2-1.8
			C144.4,101.5,143.7,101.9,144,102.4L144,102.4z"/>
	</g>
</g>
<g id="XMLID_1147_">
	<g>
		<path class="st9" d="M142.5,101.8c-0.2-0.3-0.5-0.6-0.7-1c-0.3-0.4-1,0-0.7,0.4c0.2,0.3,0.5,0.6,0.7,1
			C142.2,102.7,142.8,102.3,142.5,101.8L142.5,101.8z"/>
	</g>
</g>
<g id="XMLID_1154_">
	<g>
		<path class="st9" d="M141.2,99c-0.3-0.5-0.5-0.9-0.5-1.5c0-0.5-0.8-0.5-0.8,0c0,0.7,0.2,1.3,0.6,1.9
			C140.8,99.8,141.5,99.4,141.2,99L141.2,99z"/>
	</g>
</g>
<g id="XMLID_1161_">
	<g>
		<path class="st9" d="M140.2,95.1c-0.2-0.8-0.4-1.5-0.3-2.3c0-0.5-0.8-0.5-0.8,0c0,0.9,0.1,1.7,0.4,2.5
			C139.6,95.8,140.4,95.6,140.2,95.1L140.2,95.1z"/>
	</g>
</g>
<g id="XMLID_1168_">
	<g>
		<path class="st9" d="M139.7,91.2c0.2-0.8,0.3-1.7,0.4-2.5c0-0.5-0.8-0.5-0.8,0c0,0.8-0.2,1.5-0.4,2.3
			C138.8,91.5,139.6,91.7,139.7,91.2L139.7,91.2z"/>
	</g>
</g>
<g id="XMLID_1175_">
	<g>
		<path class="st9" d="M140.9,85.2c0.2-0.5,0.5-1,0.9-1.4c0.4-0.4-0.2-0.9-0.6-0.6c-0.5,0.5-0.9,1.1-1.1,1.7
			C139.9,85.4,140.7,85.7,140.9,85.2L140.9,85.2z"/>
	</g>
</g>
<g id="XMLID_1182_">
	<g>
		<path class="st9" d="M144.6,80.7c0.5-0.9,1-1.8,1.6-2.6c0.3-0.4-0.4-0.8-0.7-0.4c-0.6,0.8-1.2,1.7-1.6,2.6
			C143.6,80.7,144.3,81.1,144.6,80.7L144.6,80.7z"/>
	</g>
</g>
<g id="XMLID_1189_">
	<g>
		<path class="st9" d="M147.7,76.7c0.3-0.3,0.6-0.7,0.9-1c0.3-0.4-0.2-0.9-0.6-0.6c-0.3,0.3-0.6,0.7-0.9,1
			C146.8,76.5,147.4,77.1,147.7,76.7L147.7,76.7z"/>
	</g>
</g>
<g id="XMLID_1196_">
	<g>
		<path class="st9" d="M150.1,73.6c0.5-0.6,0.9-1.3,1.2-2c0.2-0.5-0.5-0.9-0.7-0.4c-0.3,0.7-0.7,1.4-1.2,2
			C149.1,73.6,149.8,74,150.1,73.6L150.1,73.6z"/>
	</g>
</g>
<g id="XMLID_1203_">
	<g>
		<path class="st9" d="M152.1,68.9c0.1-0.5,0.3-1,0.4-1.6c0.1-0.5-0.6-0.7-0.8-0.2c-0.1,0.5-0.3,1-0.4,1.6
			C151.2,69.2,152,69.4,152.1,68.9L152.1,68.9z"/>
	</g>
</g>
<g id="XMLID_1210_">
	<g>
		<path class="st9" d="M150.7,66.5c-0.4,0.4-0.7,0.9-1.1,1.3c-0.3,0.4,0.2,1,0.6,0.6c0.4-0.4,0.7-0.9,1.1-1.3
			C151.6,66.7,151.1,66.1,150.7,66.5L150.7,66.5z"/>
	</g>
</g>
<g id="XMLID_1217_">
	<g>
		<path class="st9" d="M147.5,70.3c-0.4,0.6-0.9,1.1-1.4,1.5c-0.4,0.3,0,1,0.4,0.7c0.7-0.5,1.3-1.1,1.7-1.8
			C148.5,70.3,147.8,69.9,147.5,70.3L147.5,70.3z"/>
	</g>
</g>
<g id="XMLID_1224_">
	<g>
		<path class="st9" d="M143.1,75.1c-0.2,0.7-0.6,1.2-1.1,1.7c-0.4,0.4,0.2,0.9,0.6,0.6c0.6-0.6,1-1.3,1.3-2.1
			C144,74.8,143.3,74.6,143.1,75.1L143.1,75.1z"/>
	</g>
</g>
<g id="XMLID_1231_">
	<g>
		<path class="st9" d="M141,79.2c0.5,0,0.5-0.8,0-0.8C140.5,78.4,140.5,79.2,141,79.2L141,79.2z"/>
	</g>
</g>
<g id="XMLID_1238_">
	<g>
		<path class="st9" d="M139.2,80.9c-0.3,0.6-0.6,1.2-1,1.8c-0.3,0.4,0.4,0.8,0.7,0.4c0.4-0.6,0.7-1.1,1-1.8
			C140.1,80.8,139.4,80.4,139.2,80.9L139.2,80.9z"/>
	</g>
</g>
<g id="XMLID_1245_">
	<g>
		<path class="st9" d="M137.2,85.7c-0.2,0.5-0.4,1-0.6,1.6c-0.2,0.5,0.6,0.7,0.8,0.2c0.2-0.5,0.4-1,0.6-1.6
			C138.1,85.4,137.3,85.2,137.2,85.7L137.2,85.7z"/>
	</g>
</g>
<g id="XMLID_1252_">
	<g>
		<path class="st9" d="M135.7,90.1c0.1,0.7,0.3,1.4,0.5,2c0.2,0.5,0.9,0.1,0.7-0.4c-0.2-0.5-0.4-1.1-0.4-1.6
			C136.4,89.6,135.6,89.6,135.7,90.1L135.7,90.1z"/>
	</g>
</g>
<g id="XMLID_1259_">
	<g>
		<path class="st9" d="M136.9,95.1c0.3,0.5,0.4,1,0.4,1.6c0,0.5,0.8,0.5,0.8,0c0-0.7-0.2-1.4-0.6-2
			C137.4,94.3,136.7,94.7,136.9,95.1L136.9,95.1z"/>
	</g>
</g>
<g id="XMLID_1266_">
	<g>
		<path class="st9" d="M139.4,100.2c0.2,0.3,0.3,0.6,0.5,1c0.2,0.5,0.9,0.1,0.7-0.4c-0.2-0.3-0.3-0.6-0.5-1
			C139.9,99.3,139.2,99.8,139.4,100.2L139.4,100.2z"/>
	</g>
</g>
<g id="XMLID_1273_">
	<g>
		<path class="st9" d="M135.5,95.3c-0.5-0.8-0.7-1.6-0.6-2.5c0-0.5-0.8-0.5-0.8,0c0,1,0.2,2,0.7,2.9
			C135.1,96.1,135.8,95.7,135.5,95.3L135.5,95.3z"/>
	</g>
</g>
<g id="XMLID_1280_">
	<g>
		<path class="st9" d="M134.4,88.6c-0.1-0.4-0.1-0.8-0.1-1.2c0.1-0.5-0.7-0.5-0.8,0c-0.1,0.5,0,1,0.1,1.4
			C133.8,89.3,134.5,89.1,134.4,88.6L134.4,88.6z"/>
	</g>
</g>
<g id="XMLID_1287_">
	<g>
		<path class="st9" d="M134.3,84c-0.1-0.9,0-1.7,0.4-2.5c0.2-0.5-0.5-0.9-0.7-0.4c-0.4,0.9-0.6,1.9-0.5,2.9
			C133.6,84.5,134.4,84.5,134.3,84L134.3,84z"/>
	</g>
</g>
<g id="XMLID_1294_">
	<g>
		<path class="st9" d="M135.9,78.2c0.2-0.4,0.4-0.9,0.7-1.3c0.2-0.5-0.5-0.9-0.7-0.4c-0.2,0.4-0.4,0.9-0.7,1.3
			C135,78.2,135.7,78.6,135.9,78.2L135.9,78.2z"/>
	</g>
</g>
<g id="XMLID_1301_">
	<g>
		<path class="st9" d="M138.5,73.7c0.8-0.6,1.5-1.3,2.3-1.9c0.4-0.3-0.2-0.9-0.6-0.6c-0.8,0.6-1.5,1.3-2.3,1.9
			C137.5,73.4,138.1,74,138.5,73.7L138.5,73.7z"/>
	</g>
</g>
<g id="XMLID_1308_">
	<g>
		<path class="st9" d="M142.7,70.4c0.2-0.2,0.4-0.3,0.6-0.5c0.4-0.3,0-1-0.4-0.7c-0.2,0.2-0.4,0.3-0.6,0.5
			C141.8,70,142.2,70.7,142.7,70.4L142.7,70.4z"/>
	</g>
</g>
<g id="XMLID_1315_">
	<g>
		<path class="st9" d="M144.5,69.2c0.2-0.1,0.5-0.3,0.7-0.4c0.4-0.3,0-1-0.4-0.7c-0.2,0.1-0.5,0.3-0.7,0.4
			C143.6,68.7,144,69.4,144.5,69.2L144.5,69.2z"/>
	</g>
</g>
<g id="XMLID_1322_">
	<g>
		<path class="st9" d="M146.7,68.1c0.4-0.2,0.8-0.4,1.2-0.6c0.5-0.2,0.1-0.9-0.4-0.7c-0.4,0.2-0.8,0.4-1.2,0.6
			C145.9,67.6,146.3,68.3,146.7,68.1L146.7,68.1z"/>
	</g>
</g>
<g id="XMLID_1329_">
	<g>
		<path class="st9" d="M144.1,70.9c-0.3,0.4-0.7,0.7-1.1,1c-0.4,0.3,0,1,0.4,0.7c0.5-0.4,1-0.8,1.4-1.3
			C145.1,70.9,144.4,70.5,144.1,70.9L144.1,70.9z"/>
	</g>
</g>
<g id="XMLID_1336_">
	<g>
		<path class="st9" d="M141,74.2c-0.8,0.9-1.4,1.8-1.8,2.9c-0.2,0.5,0.6,0.7,0.8,0.2c0.4-1,0.9-1.8,1.6-2.6
			C141.9,74.4,141.3,73.8,141,74.2L141,74.2z"/>
	</g>
</g>
<g id="XMLID_1343_">
	<g>
		<path class="st9" d="M137.4,79.7c-0.3,0.6-0.5,1.1-0.5,1.8c0,0.5,0.8,0.5,0.8,0c0-0.5,0.2-0.9,0.4-1.4
			C138.4,79.7,137.7,79.2,137.4,79.7L137.4,79.7z"/>
	</g>
</g>
<path id="XMLID_2155_" d="M52.3,129.1H10.7c-1.4,0-2.6-1.2-2.6-2.6V43.6c0-1.4,1.2-2.6,2.6-2.6h41.6c1.4,0,2.6,1.2,2.6,2.6v82.8
	C54.9,127.9,53.7,129.1,52.3,129.1z"/>
<rect id="XMLID_2156_" x="9.9" y="49.6" class="st1" width="43.1" height="63.1"/>
<circle id="XMLID_2157_" class="st1" cx="32.1" cy="122" r="4.6"/>
<polygon id="XMLID_2160_" class="st10" points="60.2,100.1 92.1,100.1 92.1,92 107.4,107.2 92.3,122.3 92.3,113.9 60.4,113.9 "/>
<polygon id="XMLID_2159_" class="st1" points="59.2,100.1 76.1,100.1 76.1,92 91.3,107.2 76.2,122.3 76.2,113.9 59.3,113.9 "/>
<path id="XMLID_2154_" class="st11" d="M8,158c1.8-17.5-1.8-24.9-2.3-42.5s0-35.3-1.9-52.8c-0.1-1.1-0.1-2.5,0.8-3.1
	C5.7,59,7.1,59.9,7.9,61c2.2,3,2.6,6.9,2.9,10.6c0.9,11.7,1.8,23.4,3.8,34.9c0.3,2,0.7,3.9,1.7,5.7c0.9,1.7,2.6,3.2,4.5,3.6
	c1.9,0.3,3.9-0.5,5.3-1.8c1.5-1.3,2.5-3,3.5-4.6c1.6-2.6,3.2-5.3,4.9-7.9c0.9-1.4,1.8-2.8,3.1-3.7c1.4-0.9,3.4-1,4.5,0.2
	c1.6,1.7,0.5,4.4-0.7,6.4c-2.2,3.7-4.5,7.5-6.7,11.2c-1,1.7-3.6,10.1-2.3,14.1c0,0,10.1,0.3,14.6,0c-2.1,5.8-4.3,14.2-6.4,19.9
	c-0.5,1.2-0.9,2.5-1.7,3.5c-0.4,0.5-1,1-1.3,1.6c-0.4,0.7,0.3,2-0.4,2.3c-1.3,0.6-0.2-3.5,0.4,1.1c-4.2-0.1-6,0-11.9-0.1
	C22.8,157.9,11.2,158,8,158"/>
<g id="XMLID_591_">
	<path id="XMLID_101_" d="M29.1,55.1H20c-1,0-1.9,0.8-1.9,1.9c0,1,0.8,1.9,1.9,1.9h4.6l-7.5,7.5c-0.7,0.7-0.7,1.9,0,2.6
		c0.7,0.7,1.9,0.7,2.6,0l7.5-7.5v4.6c0,1,0.8,1.9,1.9,1.9c1,0,1.9-0.8,1.9-1.9V57C31,56,30.2,55.1,29.1,55.1"/>
	<path id="XMLID_616_" class="st10" d="M34.7,68h9.1c1,0,1.9-0.8,1.9-1.9c0-1-0.8-1.9-1.9-1.9h-4.6l7.5-7.5c0.7-0.7,0.7-1.9,0-2.6
		c-0.7-0.7-1.9-0.7-2.6,0l-7.5,7.5V57c0-1-0.8-1.9-1.9-1.9c-1,0-1.9,0.8-1.9,1.9v9.1C32.8,67.1,33.7,68,34.7,68"/>
	<path id="XMLID_613_" d="M19.9,78.9c1.3,0,1.8-1.1,1.8-2.2c0-1.2-0.5-2.3-1.8-2.3c-1.3,0-1.8,1.1-1.8,2.3
		C18.1,77.8,18.6,78.9,19.9,78.9 M19.9,73.2c2,0,3.2,1.5,3.2,3.5c0,1.9-1.2,3.4-3.2,3.4s-3.2-1.5-3.2-3.4
		C16.6,74.7,17.8,73.2,19.9,73.2"/>
	<path id="XMLID_612_" d="M23.7,75.2H25v0.9h0c0.2-0.6,0.9-1,1.5-1c0.1,0,0.2,0,0.3,0v1.2c-0.1,0-0.3,0-0.5,0c-1,0-1.3,0.7-1.3,1.5
		v2.1h-1.3V75.2z"/>
	<path id="XMLID_609_" d="M30.1,77.6c-0.2,0.2-0.7,0.2-1.1,0.3c-0.4,0.1-0.8,0.2-0.8,0.7c0,0.5,0.4,0.6,0.8,0.6c1,0,1.1-0.8,1.1-1.1
		V77.6z M27,76.6c0.1-1.2,1.2-1.6,2.2-1.6c0.9,0,2.1,0.2,2.1,1.4v2.5c0,0.4,0,0.9,0.2,1.1h-1.3c0-0.1-0.1-0.3-0.1-0.5
		c-0.4,0.4-1,0.6-1.6,0.6c-0.9,0-1.6-0.5-1.6-1.4c0-1.1,0.8-1.3,1.6-1.4c0.8-0.1,1.5-0.1,1.5-0.6c0-0.6-0.4-0.6-0.8-0.6
		c-0.5,0-0.8,0.2-0.9,0.7H27z"/>
	<path id="XMLID_608_" d="M32.1,75.2h1.2v0.7h0c0.3-0.5,0.9-0.8,1.5-0.8c1.4,0,1.7,0.8,1.7,2v2.9h-1.3v-2.7c0-0.8-0.2-1.2-0.8-1.2
		c-0.7,0-1,0.4-1,1.4v2.5h-1.3V75.2z"/>
	<path id="XMLID_605_" d="M40.6,77.5c0-0.8-0.3-1.5-1.1-1.5c-0.7,0-1.1,0.6-1.1,1.4c0,0.7,0.3,1.4,1.1,1.4
		C40.3,78.8,40.6,78.2,40.6,77.5 M41.9,79.6c0,0.8-0.3,2.1-2.5,2.1c-0.9,0-2-0.4-2.1-1.5h1.3c0.1,0.5,0.5,0.7,1,0.7
		c0.7,0,1.1-0.5,1.1-1.2v-0.6h0c-0.3,0.5-0.9,0.7-1.4,0.7c-1.4,0-2-1.1-2-2.4c0-1.2,0.7-2.4,2-2.4c0.6,0,1.1,0.2,1.4,0.8h0v-0.6h1.2
		V79.6z"/>
	<path id="XMLID_602_" d="M45.9,77c-0.1-0.7-0.4-1-1-1c-0.8,0-1.1,0.6-1.1,1H45.9z M43.7,77.9c0,0.8,0.4,1.2,1.2,1.2
		c0.5,0,1-0.3,1-0.6h1.2c-0.4,1.1-1.2,1.6-2.2,1.6c-1.5,0-2.4-1-2.4-2.5c0-1.4,1-2.5,2.4-2.5c1.6,0,2.4,1.4,2.3,2.8H43.7z"/>
	<polygon id="XMLID_601_" points="21.7,82 20.2,86.6 20.2,86.6 18.7,82 16.6,82 16.6,88.6 18,88.6 18,84 18,84 19.6,88.6 20.8,88.6 
		22.4,84 22.4,84 22.4,88.6 23.7,88.6 23.7,82 	"/>
	<g id="XMLID_592_">
		<path id="XMLID_598_" d="M26.8,87.8c0.9,0,1.2-0.8,1.2-1.5c0-0.8-0.3-1.5-1.2-1.5c-0.9,0-1.2,0.8-1.2,1.5
			C25.6,87,25.9,87.8,26.8,87.8 M26.8,83.7c1.5,0,2.5,1,2.5,2.5c0,1.5-1,2.5-2.5,2.5c-1.5,0-2.5-1-2.5-2.5
			C24.3,84.7,25.3,83.7,26.8,83.7"/>
		<path id="XMLID_597_" d="M29.8,83.9h1.2v0.7h0c0.3-0.5,0.9-0.8,1.5-0.8c1.4,0,1.7,0.8,1.7,2v2.9H33v-2.7c0-0.8-0.2-1.2-0.8-1.2
			c-0.7,0-1,0.4-1,1.4v2.5h-1.3V83.9z"/>
		<path id="XMLID_594_" d="M38.2,85.7c-0.1-0.7-0.4-1-1-1c-0.8,0-1.1,0.6-1.1,1H38.2z M36.1,86.6c0,0.8,0.4,1.2,1.2,1.2
			c0.5,0,0.9-0.3,1-0.6h1.2c-0.4,1.1-1.2,1.6-2.2,1.6c-1.5,0-2.4-1-2.4-2.5c0-1.4,1-2.5,2.4-2.5c1.6,0,2.4,1.4,2.3,2.8H36.1z"/>
		<path id="XMLID_593_" d="M42.3,89.2c-0.3,0.8-0.7,1.1-1.6,1.1c-0.3,0-0.5,0-0.8,0v-1.1c0.2,0,0.5,0.1,0.8,0c0.5,0,0.6-0.5,0.5-0.9
			l-1.7-4.5h1.4l1.1,3.3h0l1-3.3h1.4L42.3,89.2z"/>
	</g>
</g>
</svg>
