<svg id="Calque_1" data-name="Calque 1" xmlns="http://www.w3.org/2000/svg" viewBox="0 0 1141 417"><defs><style>.cls-1{fill:#fff;}.cls-2,.cls-9{fill:#b5e8f7;}.cls-2{opacity:0.41;}.cls-3{fill:#231f20;}.cls-4{fill:#8f8f8f;}.cls-5{fill:#d6d6d6;}.cls-6{fill:#656668;}.cls-7{fill:#ff7900;}.cls-8{fill:#4bb4e6;}.cls-10,.cls-11{isolation:isolate;}.cls-11,.cls-12{font-size:32.24px;fill:#fb7900;font-family:Helvetica-Bold, Helvetica;font-weight:700;}</style></defs><title>illustration-no-pass</title><rect class="cls-1" x="1" width="1139" height="416"/><path id="_Tracé_" data-name="&lt;Tracé&gt;" class="cls-2" d="M1-.09S33.12,9.65,50.66,31.09s55.53,12.66,76,15.59S187,55.44,228,87.59s122.75,1,155.87,8.77,55.53,38,92.55,39.94,143.21-19.48,179.25,2.92,73.07,38,90.6,35.07,95.47-12.66,151,28.25c0,0-27.28,1.95-41.89,13.64s-41.89,19.48-73.07,15.59-64.3-2.92-94.5,16.56S548.47,264.9,512.43,264.9s-66.25,9.74-99.37,25.33-87.68,17.54-132.49,16.56-72.09,14.61-96.45,33.12-77.94,12.66-105.21,14.61S1.95,412,1.95,412Z"/><g id="_Groupe_" data-name="&lt;Groupe&gt;"><path class="cls-3" d="M845.83,189.2,833,186.42c-1.57-.34-2.24,2.07-.66,2.41l12.81,2.78c1.57.34,2.24-2.07.66-2.41Z"/></g><g id="_Groupe_2" data-name="&lt;Groupe&gt;"><path class="cls-3" d="M844,199.26l-12.06.93c-1.59.12-1.61,2.62,0,2.5l12.06-.93c1.59-.12,1.61-2.62,0-2.5Z"/></g><g id="_Groupe_3" data-name="&lt;Groupe&gt;"><path class="cls-3" d="M844.29,209.06a42.46,42.46,0,0,0-11.46,6.25c-1.26,1,0,3.14,1.26,2.16a40.38,40.38,0,0,1,10.86-6c1.5-.54.85-3-.66-2.41Z"/></g><path id="_Tracé_2" data-name="&lt;Tracé&gt;" class="cls-4" d="M1049.41,184.27l-41.93-19.19H976.09a2.86,2.86,0,0,0-1.86,5l19.75,17Z"/><path id="_Tracé_3" data-name="&lt;Tracé&gt;" class="cls-5" d="M867.47,196.35l-23.58-43.79a7.41,7.41,0,0,1,6.94-10.91l9.34.52a7.41,7.41,0,0,1,5.08,2.42l39.18,43.23s169.86-9.24,188.34-2.13,23.45,13.5,23.45,13.5,16.2,1.14,16.78,8.22c.67,8.2-60.84,26.6-216.49,8.84Z"/><path id="_Tracé_4" data-name="&lt;Tracé&gt;" class="cls-4" d="M973.37,205.59l69.65,2.13-97.37,35.53-31.46-.52a2.86,2.86,0,0,1-1.28-5.39Z"/><g id="_Groupe_4" data-name="&lt;Groupe&gt;"><path id="_Tracé_5" data-name="&lt;Tracé&gt;" class="cls-3" d="M920.06,192.7h-.71c-4.7,0-4.71,7.31,0,7.31h.71c4.7,0,4.71-7.31,0-7.31Z"/></g><g id="_Groupe_5" data-name="&lt;Groupe&gt;"><path id="_Tracé_6" data-name="&lt;Tracé&gt;" class="cls-3" d="M931.43,200.72c4.7,0,4.71-7.31,0-7.31s-4.71,7.31,0,7.31Z"/></g><g id="_Groupe_6" data-name="&lt;Groupe&gt;"><path id="_Tracé_7" data-name="&lt;Tracé&gt;" class="cls-3" d="M945.65,200.72c4.7,0,4.71-7.31,0-7.31s-4.71,7.31,0,7.31Z"/></g><g id="_Groupe_7" data-name="&lt;Groupe&gt;"><path id="_Tracé_8" data-name="&lt;Tracé&gt;" class="cls-3" d="M959.15,199.3c4.7,0,4.71-7.31,0-7.31s-4.71,7.31,0,7.31Z"/></g><g id="_Groupe_8" data-name="&lt;Groupe&gt;"><path id="_Tracé_9" data-name="&lt;Tracé&gt;" class="cls-3" d="M970.78,198.94l.71.71c3.33,3.33,8.5-1.84,5.17-5.17l-.71-.71c-3.33-3.33-8.5,1.84-5.17,5.17Z"/></g><g id="_Groupe_9" data-name="&lt;Groupe&gt;"><path id="_Tracé_10" data-name="&lt;Tracé&gt;" class="cls-3" d="M986.16,199.3c4.7,0,4.71-7.31,0-7.31s-4.71,7.31,0,7.31Z"/></g><g id="_Groupe_10" data-name="&lt;Groupe&gt;"><path id="_Tracé_11" data-name="&lt;Tracé&gt;" class="cls-3" d="M997.53,200c4.7,0,4.71-7.31,0-7.31s-4.71,7.31,0,7.31Z"/></g><g id="_Groupe_11" data-name="&lt;Groupe&gt;"><path id="_Tracé_12" data-name="&lt;Tracé&gt;" class="cls-3" d="M1012.45,200c4.7,0,4.71-7.31,0-7.31s-4.71,7.31,0,7.31Z"/></g><g id="_Groupe_12" data-name="&lt;Groupe&gt;"><path id="_Tracé_13" data-name="&lt;Tracé&gt;" class="cls-3" d="M1026,200.72c4.7,0,4.71-7.31,0-7.31s-4.71,7.31,0,7.31Z"/></g><g id="_Groupe_13" data-name="&lt;Groupe&gt;"><path id="_Tracé_14" data-name="&lt;Tracé&gt;" class="cls-3" d="M1041.59,199.3c4.7,0,4.71-7.31,0-7.31s-4.71,7.31,0,7.31Z"/></g><g id="_Groupe_14" data-name="&lt;Groupe&gt;"><path id="_Tracé_15" data-name="&lt;Tracé&gt;" class="cls-3" d="M1055.81,200c4.7,0,4.71-7.31,0-7.31s-4.71,7.31,0,7.31Z"/></g><g id="_Groupe_15" data-name="&lt;Groupe&gt;"><path id="_Tracé_16" data-name="&lt;Tracé&gt;" class="cls-3" d="M1070,199.3c4.7,0,4.71-7.31,0-7.31s-4.71,7.31,0,7.31Z"/></g><g id="_Groupe_16" data-name="&lt;Groupe&gt;"><path id="_Tracé_17" data-name="&lt;Tracé&gt;" class="cls-3" d="M1095.18,200a38.48,38.48,0,0,1,10.38-.65c4.69.31,4.68-7,0-7.31a45.85,45.85,0,0,0-12.32.91c-4.6.95-2.65,8,1.94,7Z"/></g><g id="_Groupe_17" data-name="&lt;Groupe&gt;"><path id="_Tracé_18" data-name="&lt;Tracé&gt;" class="cls-3" d="M1076.93,192.81a113,113,0,0,0,2.81,18.8c1.09,4.57,8.13,2.64,7-1.94a101.14,101.14,0,0,1-2.55-16.85c-.31-4.67-7.61-4.7-7.31,0Z"/></g><g id="_Groupe_18" data-name="&lt;Groupe&gt;"><path id="_Tracé_19" data-name="&lt;Tracé&gt;" class="cls-3" d="M905.36,193.47a96.88,96.88,0,0,0-.26,14.25c.26,4.68,7.57,4.71,7.31,0a96.88,96.88,0,0,1,.26-14.25c.43-4.68-6.88-4.65-7.31,0Z"/></g><g id="_Groupe_19" data-name="&lt;Groupe&gt;"><path id="_Tracé_20" data-name="&lt;Tracé&gt;" class="cls-6" d="M854.74,147.38l1.58,1c1.26.83,2.43-1.19,1.18-2l-1.58-1c-1.26-.83-2.43,1.19-1.18,2Z"/></g><g id="_Groupe_20" data-name="&lt;Groupe&gt;"><path id="_Tracé_21" data-name="&lt;Tracé&gt;" class="cls-6" d="M861.69,154.16l3.31,3.51c1,1.1,2.69-.56,1.65-1.65l-3.31-3.51c-1-1.1-2.69.56-1.65,1.65Z"/></g><g id="_Groupe_21" data-name="&lt;Groupe&gt;"><path id="_Tracé_22" data-name="&lt;Tracé&gt;" class="cls-6" d="M869,162.66a49.94,49.94,0,0,1,3.53,5.84c.69,1.34,2.71.16,2-1.18a49.94,49.94,0,0,0-3.53-5.84c-.86-1.22-2.88-.06-2,1.18Z"/></g><g id="_Groupe_22" data-name="&lt;Groupe&gt;"><path id="_Tracé_23" data-name="&lt;Tracé&gt;" class="cls-6" d="M877.05,173.9l3.7,3.63c1.07,1.05,2.73-.6,1.65-1.65l-3.7-3.63c-1.07-1.05-2.73.6-1.65,1.65Z"/></g><g id="_Groupe_23" data-name="&lt;Groupe&gt;"><path id="_Tracé_24" data-name="&lt;Tracé&gt;" class="cls-6" d="M885.52,183.27l2.54,3.2c.93,1.18,2.58-.49,1.65-1.65l-2.54-3.2c-.93-1.18-2.58.49-1.65,1.65Z"/></g><g id="_Groupe_24" data-name="&lt;Groupe&gt;"><path id="_Tracé_25" data-name="&lt;Tracé&gt;" class="cls-6" d="M943.4,240.65l2.62-1.57a1.17,1.17,0,0,0-1.18-2l-2.62,1.57a1.17,1.17,0,0,0,1.18,2Z"/></g><g id="_Groupe_25" data-name="&lt;Groupe&gt;"><path id="_Tracé_26" data-name="&lt;Tracé&gt;" class="cls-6" d="M952,236.57a5.81,5.81,0,0,0,3.86-2.61c.84-1.25-1.18-2.43-2-1.18a3.53,3.53,0,0,1-2.46,1.54c-1.48.27-.85,2.53.62,2.25Z"/></g><g id="_Groupe_26" data-name="&lt;Groupe&gt;"><path id="_Tracé_27" data-name="&lt;Tracé&gt;" class="cls-6" d="M961.67,232.47a11.38,11.38,0,0,0,5.3-1.78c1.26-.81.09-2.84-1.18-2a8.9,8.9,0,0,1-4.12,1.46c-1.49.13-1.5,2.47,0,2.34Z"/></g><g id="_Groupe_27" data-name="&lt;Groupe&gt;"><path id="_Tracé_28" data-name="&lt;Tracé&gt;" class="cls-6" d="M973.22,228.52l5.35-2.36c1.37-.61.19-2.62-1.18-2L972,226.5c-1.37.61-.19,2.62,1.18,2Z"/></g><g id="_Groupe_28" data-name="&lt;Groupe&gt;"><path id="_Tracé_29" data-name="&lt;Tracé&gt;" class="cls-6" d="M983.46,224a26.9,26.9,0,0,0,6-3.26c1.21-.87,0-2.9-1.18-2a24.62,24.62,0,0,1-5.48,3c-1.39.54-.78,2.8.62,2.25Z"/></g><g id="_Groupe_29" data-name="&lt;Groupe&gt;"><path id="_Tracé_30" data-name="&lt;Tracé&gt;" class="cls-6" d="M994.23,219.73l4.26-1.94c1.37-.62.18-2.64-1.18-2L993,217.71c-1.37.62-.18,2.64,1.18,2Z"/></g><g id="_Groupe_30" data-name="&lt;Groupe&gt;"><path id="_Tracé_31" data-name="&lt;Tracé&gt;" class="cls-6" d="M1004.71,215.55l4.21-2.06c1.35-.66.17-2.68-1.18-2l-4.21,2.06c-1.35.66-.17,2.68,1.18,2Z"/></g><g id="_Groupe_31" data-name="&lt;Groupe&gt;"><path id="_Tracé_32" data-name="&lt;Tracé&gt;" class="cls-6" d="M1015.39,211.87a13,13,0,0,0,4.79-2.77c1.12-1-.54-2.66-1.65-1.65a10.21,10.21,0,0,1-3.76,2.17c-1.43.46-.82,2.72.62,2.25Z"/></g><g id="_Groupe_32" data-name="&lt;Groupe&gt;"><path id="_Tracé_33" data-name="&lt;Tracé&gt;" class="cls-6" d="M1001.42,167.28l3.67,1.57c1.37.59,2.56-1.43,1.18-2l-3.67-1.57c-1.37-.59-2.56,1.43-1.18,2Z"/></g><g id="_Groupe_33" data-name="&lt;Groupe&gt;"><path id="_Tracé_34" data-name="&lt;Tracé&gt;" class="cls-6" d="M1011.11,173.25a13.9,13.9,0,0,1,4,1.81c1.26.83,2.43-1.2,1.18-2a15.94,15.94,0,0,0-4.56-2,1.17,1.17,0,0,0-.62,2.25Z"/></g><g id="_Groupe_34" data-name="&lt;Groupe&gt;"><path id="_Tracé_35" data-name="&lt;Tracé&gt;" class="cls-6" d="M1020.78,176.77l4.19,2.09c1.34.67,2.53-1.35,1.18-2l-4.19-2.09c-1.34-.67-2.53,1.35-1.18,2Z"/></g><g id="_Groupe_35" data-name="&lt;Groupe&gt;"><path id="_Tracé_36" data-name="&lt;Tracé&gt;" class="cls-6" d="M1030.29,181.61a1.17,1.17,0,0,0,0-2.34,1.17,1.17,0,0,0,0,2.34Z"/></g><g id="_Groupe_36" data-name="&lt;Groupe&gt;"><path id="_Tracé_37" data-name="&lt;Tracé&gt;" class="cls-6" d="M916.61,205.18h2.1a1.17,1.17,0,0,0,0-2.34h-2.1a1.17,1.17,0,0,0,0,2.34Z"/></g><g id="_Groupe_37" data-name="&lt;Groupe&gt;"><path id="_Tracé_38" data-name="&lt;Tracé&gt;" class="cls-6" d="M927.09,204.14h3.14a1.17,1.17,0,0,0,0-2.34h-3.14a1.17,1.17,0,0,0,0,2.34Z"/></g><g id="_Groupe_38" data-name="&lt;Groupe&gt;"><path id="_Tracé_39" data-name="&lt;Tracé&gt;" class="cls-6" d="M939.67,203.7l5.75-.65c1.48-.17,1.49-2.51,0-2.34l-5.75.65c-1.48.17-1.49,2.51,0,2.34Z"/></g><g id="_Groupe_39" data-name="&lt;Groupe&gt;"><path id="_Tracé_40" data-name="&lt;Tracé&gt;" class="cls-6" d="M952.75,204l5.24-.51c1.48-.14,1.5-2.48,0-2.34l-5.24.51c-1.48.14-1.5,2.48,0,2.34Z"/></g><g id="_Groupe_40" data-name="&lt;Groupe&gt;"><path id="_Tracé_41" data-name="&lt;Tracé&gt;" class="cls-6" d="M966.38,204.12l4.71-.07a1.17,1.17,0,0,0,0-2.34l-4.71.07a1.17,1.17,0,0,0,0,2.34Z"/></g><g id="_Groupe_41" data-name="&lt;Groupe&gt;"><path id="_Tracé_42" data-name="&lt;Tracé&gt;" class="cls-6" d="M980.86,204.22l5.74-1.17c1.47-.3.85-2.55-.62-2.25L980.24,202c-1.47.3-.85,2.55.62,2.25Z"/></g><g id="_Groupe_42" data-name="&lt;Groupe&gt;"><path id="_Tracé_43" data-name="&lt;Tracé&gt;" class="cls-6" d="M994.68,204.23l7.85-.61c1.49-.12,1.5-2.46,0-2.34l-7.85.61c-1.49.12-1.5,2.46,0,2.34Z"/></g><g id="_Groupe_43" data-name="&lt;Groupe&gt;"><path id="_Tracé_44" data-name="&lt;Tracé&gt;" class="cls-6" d="M1010.91,204.66h5.24a1.17,1.17,0,0,0,0-2.34h-5.24a1.17,1.17,0,0,0,0,2.34Z"/></g><g id="_Groupe_44" data-name="&lt;Groupe&gt;"><path id="_Tracé_45" data-name="&lt;Tracé&gt;" class="cls-6" d="M1023.48,204.66h4.19a1.17,1.17,0,0,0,0-2.34h-4.19a1.17,1.17,0,0,0,0,2.34Z"/></g><g id="_Groupe_45" data-name="&lt;Groupe&gt;"><path id="_Tracé_46" data-name="&lt;Tracé&gt;" class="cls-6" d="M1036.58,205.18h4.71a1.17,1.17,0,0,0,0-2.34h-4.71a1.17,1.17,0,0,0,0,2.34Z"/></g><g id="_Groupe_46" data-name="&lt;Groupe&gt;"><path id="_Tracé_47" data-name="&lt;Tracé&gt;" class="cls-6" d="M1049.15,205.18h6.29a1.17,1.17,0,0,0,0-2.34h-6.29a1.17,1.17,0,0,0,0,2.34Z"/></g><g id="_Groupe_47" data-name="&lt;Groupe&gt;"><path id="_Tracé_48" data-name="&lt;Tracé&gt;" class="cls-6" d="M1064.35,204.16l5.23-.63c1.47-.18,1.49-2.52,0-2.34l-5.23.63c-1.47.18-1.49,2.52,0,2.34Z"/></g><g id="_Groupe_48" data-name="&lt;Groupe&gt;"><path id="_Tracé_49" data-name="&lt;Tracé&gt;" class="cls-6" d="M1074.82,204.14h1a1.17,1.17,0,0,0,0-2.34h-1a1.17,1.17,0,0,0,0,2.34Z"/></g><g id="_Groupe_49" data-name="&lt;Groupe&gt;"><path id="_Tracé_50" data-name="&lt;Tracé&gt;" class="cls-6" d="M1089.49,203.61h2.62a1.17,1.17,0,0,0,0-2.34h-2.62a1.17,1.17,0,0,0,0,2.34Z"/></g><g id="_Groupe_50" data-name="&lt;Groupe&gt;"><path id="_Tracé_51" data-name="&lt;Tracé&gt;" class="cls-6" d="M1097.67,203.1a9.38,9.38,0,0,1,4.14.29,1.17,1.17,0,0,0,.62-2.25,12.19,12.19,0,0,0-5.38-.29c-1.48.23-.85,2.49.62,2.25Z"/></g><g id="_Groupe_51" data-name="&lt;Groupe&gt;"><path id="_Tracé_52" data-name="&lt;Tracé&gt;" class="cls-6" d="M1108.88,203.65l5.22-.64c1.47-.18,1.49-2.52,0-2.34l-5.22.64c-1.47.18-1.49,2.52,0,2.34Z"/></g><g id="_Groupe_52" data-name="&lt;Groupe&gt;"><path class="cls-7" d="M17.14,32.95l7.31,7.31a1.25,1.25,0,0,0,1.77-1.77L18.9,31.18a1.25,1.25,0,0,0-1.77,1.77Z"/></g><g id="_Groupe_53" data-name="&lt;Groupe&gt;"><path class="cls-7" d="M44.81,55a28.52,28.52,0,0,0,18.51,7.49c1.61.05,1.61-2.45,0-2.5a25.76,25.76,0,0,1-16.74-6.76c-1.19-1.08-3,.69-1.77,1.77Z"/></g><g id="_Groupe_54" data-name="&lt;Groupe&gt;"><path class="cls-7" d="M108.93,69.71a79.9,79.9,0,0,1,21.6-1.26c1.6.12,1.6-2.38,0-2.5a82.45,82.45,0,0,0-22.26,1.35c-1.58.31-.91,2.72.66,2.41Z"/></g><g id="_Groupe_55" data-name="&lt;Groupe&gt;"><path class="cls-7" d="M171.17,84.27a130.52,130.52,0,0,1,39.13,19c1.31.93,2.56-1.23,1.26-2.16a132.55,132.55,0,0,0-39.73-19.25,1.25,1.25,0,0,0-.66,2.41Z"/></g><g id="_Groupe_56" data-name="&lt;Groupe&gt;"><path class="cls-7" d="M247.46,120.74l20.46,1.47c1.61.12,1.6-2.38,0-2.5l-20.46-1.47c-1.61-.12-1.6,2.38,0,2.5Z"/></g><g id="_Groupe_57" data-name="&lt;Groupe&gt;"><path class="cls-7" d="M298.62,124.16l36.49-4.68c1.57-.2,1.59-2.7,0-2.5l-36.49,4.68c-1.57.2-1.59,2.7,0,2.5Z"/></g><g id="_Groupe_58" data-name="&lt;Groupe&gt;"><path class="cls-7" d="M378.31,117.95l10.24,4.37c1.46.62,2.74-1.53,1.26-2.16l-10.24-4.37c-1.46-.62-2.74,1.53-1.26,2.16Z"/></g><g id="_Groupe_59" data-name="&lt;Groupe&gt;"><path class="cls-7" d="M410.74,137.17l17.49,4.56a1.25,1.25,0,0,0,.66-2.41l-17.49-4.56a1.25,1.25,0,0,0-.66,2.41Z"/></g><g id="_Groupe_60" data-name="&lt;Groupe&gt;"><path class="cls-7" d="M476.87,150.22a143.14,143.14,0,0,0,28.1-1.51c1.59-.24.91-2.65-.66-2.41a139.72,139.72,0,0,1-27.43,1.42c-1.61-.07-1.6,2.43,0,2.5Z"/></g><g id="_Groupe_61" data-name="&lt;Groupe&gt;"><path class="cls-7" d="M541.94,153.28a35.52,35.52,0,0,1,15.3-3.17,1.25,1.25,0,0,0,0-2.5,38.45,38.45,0,0,0-16.56,3.51c-1.46.66-.19,2.82,1.26,2.16Z"/></g><g id="_Groupe_62" data-name="&lt;Groupe&gt;"><path class="cls-7" d="M609.47,151.89l13.26,2.3c1.57.27,2.25-2.14.66-2.41l-13.26-2.3c-1.57-.27-2.25,2.14-.66,2.41Z"/></g><g id="_Groupe_63" data-name="&lt;Groupe&gt;"><path class="cls-7" d="M640.53,166.37a76,76,0,0,1,25.52,7.37c1.44.7,2.71-1.45,1.26-2.16a79.81,79.81,0,0,0-26.78-7.71c-1.6-.17-1.59,2.33,0,2.5Z"/></g><g id="_Groupe_64" data-name="&lt;Groupe&gt;"><path class="cls-7" d="M700.08,183.92a118.17,118.17,0,0,0,38.37,4.26c1.6-.08,1.61-2.59,0-2.5a116,116,0,0,1-37.7-4.17,1.25,1.25,0,0,0-.66,2.41Z"/></g><g id="_Groupe_65" data-name="&lt;Groupe&gt;"><path class="cls-7" d="M787,186.91a85.94,85.94,0,0,1,21.54-1.62c1.61.08,1.6-2.42,0-2.5a88.65,88.65,0,0,0-22.21,1.71c-1.58.32-.91,2.73.66,2.41Z"/></g><path id="_Tracé_53" data-name="&lt;Tracé&gt;" class="cls-8" d="M821.14,248.82h-4.82a4.23,4.23,0,0,0-4.2-3.94h-2a4.24,4.24,0,0,0,0-.42,4.38,4.38,0,0,0-4.37-4.37H792.55a4.38,4.38,0,0,0-4.37,4.37,4.24,4.24,0,0,0,0,.42h-9.9a4.23,4.23,0,0,0-4.2,3.94h-4a4.23,4.23,0,1,0,0,8.45h51a4.23,4.23,0,1,0,0-8.45Z"/><path id="_Tracé_54" data-name="&lt;Tracé&gt;" class="cls-8" d="M150.34,193.83h-4.82a4.23,4.23,0,0,0-4.2-3.94h-2a4.24,4.24,0,0,0,0-.42,4.38,4.38,0,0,0-4.37-4.37H121.75a4.38,4.38,0,0,0-4.37,4.37,4.24,4.24,0,0,0,0,.42h-9.9a4.23,4.23,0,0,0-4.2,3.94h-4a4.23,4.23,0,0,0,0,8.45h51a4.23,4.23,0,0,0,0-8.45Z"/><path id="_Tracé_55" data-name="&lt;Tracé&gt;" class="cls-1" d="M366.61,275.66h-4.82a4.23,4.23,0,0,0-4.2-3.94h-2a4.24,4.24,0,0,0,0-.42,4.38,4.38,0,0,0-4.37-4.37H338a4.38,4.38,0,0,0-4.37,4.37,4.24,4.24,0,0,0,0,.42h-9.9a4.23,4.23,0,0,0-4.2,3.94h-4a4.23,4.23,0,1,0,0,8.45h51a4.23,4.23,0,1,0,0-8.45Z"/><path id="_Tracé_56" data-name="&lt;Tracé&gt;" class="cls-9" d="M702.64,112.43H701.3a4.33,4.33,0,0,0,.12-1,4.4,4.4,0,0,0-4.38-4.38h-6.23a5.29,5.29,0,0,0,.38-1.95,5.37,5.37,0,0,0-5.36-5.36H678a5.37,5.37,0,0,0-5.36,5.36,5.29,5.29,0,0,0,.38,1.95h-5.74a4.4,4.4,0,0,0-4.38,4.38,4.33,4.33,0,0,0,.12,1h-4.75a4.63,4.63,0,1,0,0,9.25h44.33a4.63,4.63,0,1,0,0-9.25Z"/><g class="cls-10"><text class="cls-11" transform="translate(186.01 193.72)">Des pass seront bientôt</text><text class="cls-12" transform="translate(551.5 193.72)"> </text><text class="cls-11" transform="translate(186.01 237.48)">disponibles pour ce pays</text></g></svg>