<svg xmlns="http://www.w3.org/2000/svg" xmlns:xlink="http://www.w3.org/1999/xlink" width="769" height="277" viewBox="0 0 769 277">
    <defs>
        <path id="a" d="M0 .155h159.91v46.972H0z"/>
    </defs>
    <g fill="none" fill-rule="evenodd">
        <path fill="#4BB4E6" fill-opacity=".2" d="M674.408 132.476a200.595 200.595 0 0 0-8.938-.398 156.79 156.79 0 0 1-41.376-6.588c-14.593-4.395-29.854-6.634-45.213-6.634h-23.743c-11.996 0-23.883-2.074-35.04-6.115l-22.995-8.327c-19.041-6.895-39.329-10.436-59.8-10.436h-78.851c-12.715 0-25.193-3.155-36.113-9.13-22.801-12.477-48.856-19.064-75.404-19.064h-45.45c-19.928 0-39.39-5.525-55.836-15.85l-5.13-3.221c-11.203-7.034-24.328-11.05-37.89-11.594l-48.761-1.954C39.033 32.57 25.41 25.48 17.243 14.102 12.886 8.033 6.913 3.206 0 0v277c6.912-3.206 12.886-8.033 17.243-14.102 8.167-11.378 21.79-18.468 36.625-19.063l48.76-1.954c13.563-.544 26.688-4.56 37.891-11.594l5.13-3.22c16.445-10.326 35.908-15.85 55.835-15.85h45.45c26.55 0 52.604-6.588 75.405-19.065 10.92-5.975 23.398-9.13 36.113-9.13h78.852c20.47 0 40.758-3.54 59.799-10.436l22.994-8.327c11.158-4.04 23.045-6.115 35.04-6.115h23.744c15.36 0 30.62-2.24 45.213-6.634a156.79 156.79 0 0 1 41.376-6.588c2.982-.072 5.963-.193 8.938-.398l22.947-1.584v-8.88l-22.947-1.584z"/>
        <path fill="#B5E8F7" d="M472.114 79.18c0-1.607-1.277-2.922-2.837-2.922h-2.248c0-1.607-1.277-2.923-2.837-2.923h-.056c0-1.607-1.277-2.923-2.838-2.923h-4.291c-1.56 0-2.838 1.316-2.838 2.923h-.055c-1.56 0-2.838 1.316-2.838 2.923h-3.545c-1.561 0-2.838 1.315-2.838 2.923h-2.974c-1.56 0-2.837 1.315-2.837 2.923 0 1.607 1.276 2.922 2.837 2.922h30.195c1.561 0 2.838-1.315 2.838-2.922 0-1.608-1.277-2.923-2.838-2.923"/>
        <path fill="#4BB4E6" fill-opacity=".2" d="M146.113 182.674h-7.585c0-2.923-2.403-5.314-5.34-5.314h-11.95c0-2.923-2.404-5.314-5.34-5.314H96.932c-2.937 0-5.34 2.39-5.34 5.314h-2.91c-2.937 0-5.34 2.391-5.34 5.314h-5.597c-2.937 0-5.34 2.391-5.34 5.314s2.403 5.314 5.34 5.314h68.368c2.937 0 5.34-2.391 5.34-5.314s-2.403-5.314-5.34-5.314"/>
        <path fill="#4BB4E6" d="M517.456 179.046h3.76a2.66 2.66 0 0 1 2.648-2.658h5.925a2.66 2.66 0 0 1 2.648-2.657h9.403a2.66 2.66 0 0 1 2.647 2.657h1.443a2.66 2.66 0 0 1 2.648 2.658h2.774a2.66 2.66 0 0 1 2.648 2.657 2.66 2.66 0 0 1-2.648 2.657h-33.896a2.66 2.66 0 0 1-2.648-2.657 2.66 2.66 0 0 1 2.648-2.657"/>
        <path fill="#FFF" d="M156.757 88.348h-.646c0-2.923-2.396-5.314-5.325-5.314h-1.322c0-2.923-2.396-5.315-5.324-5.315h-6.095c-2.929 0-5.325 2.392-5.325 5.315h-2.902c-2.928 0-5.324 2.39-5.324 5.314h-5.58c-2.928 0-5.324 2.391-5.324 5.314s2.396 5.314 5.324 5.314h37.843c2.929 0 5.325-2.391 5.325-5.314s-2.396-5.314-5.325-5.314"/>
        <g transform="matrix(-1 0 0 1 769.013 104)">
            <mask id="b" fill="#fff">
                <use xlink:href="#a"/>
            </mask>
            <path fill="#D6D6D6" d="M6.244 32.383s5.842-7.418 20.713-7.645c21.95-.335 89.336.42 89.336.42s7.963-.09 12.95-5.51c4.093-4.448 13.74-14.7 17.066-18.232a3.983 3.983 0 0 1 2.834-1.252l10.768-.009-1.128 2.322-11.124 24.849a3.983 3.983 0 0 1-1.459 1.715c-5.121 3.349-30.008 17.974-74.24 18.084-59.62.148-84.728-6.303-65.716-14.742" mask="url(#b)"/>
        </g>
        <path fill="#1D1D1B" d="M697.093 151.125c-21.561-.055-38.518-3.628-50.83-7.67h121.654c-5.294 4.71-29.935 7.773-70.824 7.67"/>
        <path fill="#FF7900" d="M616.21 106.34h-6.09L609 104l10.687.009c1.069.02 2.08.47 2.813 1.262 3.301 3.561 12.875 13.897 16.938 18.382 4.95 5.464 12.853 5.555 12.853 5.555h-14.154a3.948 3.948 0 0 1-3.093-1.506l-15.74-19.856a3.948 3.948 0 0 0-3.093-1.506"/>
        <path fill="#595959" d="M753.034 136.88h9.951c-1.124-1.585-3.425-3.289-3.425-3.289h-7.827c-.193 0-.317.234-.225.426l1.3 2.711a.253.253 0 0 0 .226.151M738.052 137.975c.753 0 1.37-.496 1.37-1.103v-1.63c0-.606-.617-1.103-1.37-1.103-.754 0-1.37.497-1.37 1.104v1.63c0 .606.616 1.102 1.37 1.102M734.763 137.975c.754 0 1.37-.496 1.37-1.103v-1.63c0-.606-.616-1.103-1.37-1.103-.753 0-1.37.497-1.37 1.104v1.63c0 .606.617 1.102 1.37 1.102M730.928 137.975c.753 0 1.37-.496 1.37-1.103v-1.63c0-.606-.617-1.103-1.37-1.103-.754 0-1.37.497-1.37 1.104v1.63c0 .606.616 1.102 1.37 1.102M726.544 137.975c.753 0 1.37-.496 1.37-1.103v-1.63c0-.606-.617-1.103-1.37-1.103-.754 0-1.37.497-1.37 1.104v1.63c0 .606.616 1.102 1.37 1.102M722.708 137.975c.753 0 1.37-.496 1.37-1.103v-1.63c0-.606-.617-1.103-1.37-1.103-.754 0-1.37.497-1.37 1.104v1.63c0 .606.616 1.102 1.37 1.102M718.324 137.975c.753 0 1.37-.496 1.37-1.103v-1.63c0-.606-.617-1.103-1.37-1.103-.754 0-1.37.497-1.37 1.104v1.63c0 .606.616 1.102 1.37 1.102M714.488 137.975c.754 0 1.37-.496 1.37-1.103v-1.63c0-.606-.616-1.103-1.37-1.103-.753 0-1.37.497-1.37 1.104v1.63c0 .606.617 1.102 1.37 1.102M710.104 137.975c.753 0 1.37-.496 1.37-1.103v-1.63c0-.606-.617-1.103-1.37-1.103-.754 0-1.37.497-1.37 1.104v1.63c0 .606.616 1.102 1.37 1.102M706.268 137.975c.754 0 1.37-.496 1.37-1.103v-1.63c0-.606-.616-1.103-1.37-1.103-.753 0-1.37.497-1.37 1.104v1.63c0 .606.617 1.102 1.37 1.102M698.596 137.975c.754 0 1.37-.496 1.37-1.103v-1.63c0-.606-.616-1.103-1.37-1.103-.753 0-1.37.497-1.37 1.104v1.63c0 .606.617 1.102 1.37 1.102M690.376 137.975c.754 0 1.37-.496 1.37-1.103v-1.63c0-.606-.616-1.103-1.37-1.103-.753 0-1.37.497-1.37 1.104v1.63c0 .606.617 1.102 1.37 1.102M686.54 137.975c.754 0 1.37-.496 1.37-1.103v-1.63c0-.606-.616-1.103-1.37-1.103-.753 0-1.37.497-1.37 1.104v1.63c0 .606.617 1.102 1.37 1.102M682.156 137.975c.754 0 1.37-.496 1.37-1.103v-1.63c0-.606-.616-1.103-1.37-1.103-.753 0-1.37.497-1.37 1.104v1.63c0 .606.617 1.102 1.37 1.102M678.869 137.975c.753 0 1.37-.496 1.37-1.103v-1.63c0-.606-.617-1.103-1.37-1.103-.754 0-1.37.497-1.37 1.104v1.63c0 .606.616 1.102 1.37 1.102M674.485 137.975c.753 0 1.37-.496 1.37-1.103v-1.63c0-.606-.617-1.103-1.37-1.103-.754 0-1.37.497-1.37 1.104v1.63c0 .606.616 1.102 1.37 1.102M670.649 137.975c.753 0 1.37-.496 1.37-1.103v-1.63c0-.606-.617-1.103-1.37-1.103-.754 0-1.37.497-1.37 1.104v1.63c0 .606.616 1.102 1.37 1.102M666.265 137.975c.754 0 1.37-.496 1.37-1.103v-1.63c0-.606-.616-1.103-1.37-1.103-.753 0-1.37.497-1.37 1.104v1.63c0 .606.617 1.102 1.37 1.102M662.429 137.975c.753 0 1.37-.496 1.37-1.103v-1.63c0-.606-.617-1.103-1.37-1.103-.754 0-1.37.497-1.37 1.104v1.63c0 .606.616 1.102 1.37 1.102M658.593 137.975c.754 0 1.37-.496 1.37-1.103v-1.63c0-.606-.616-1.103-1.37-1.103-.753 0-1.37.497-1.37 1.104v1.63c0 .606.617 1.102 1.37 1.102M654.757 137.975c.753 0 1.37-.496 1.37-1.103v-1.63c0-.606-.617-1.103-1.37-1.103-.753 0-1.37.497-1.37 1.104v1.63c0 .606.617 1.102 1.37 1.102"/>
        <path fill="#595959" d="M711.177 144.065c-5.353 2.107-21.64 1.563-25.736 1.389a2.993 2.993 0 0 1-1.683-.605l-15.575-11.806 5.185.092s36.007 7.734 37.64 8.108c0 0 1.562.297 1.562 1.243 0 1.113-1.393 1.58-1.393 1.58"/>
        <path fill="#8F8F8F" d="M637.845 132.538c-2.766.966-11.012.285-13.084.094a1.498 1.498 0 0 1-.839-.356l-8.346-6.356 2.43.006s19.005 4.904 19.823 5.139c0 0 .785.193.762.685-.028.58-.746.788-.746.788M686.267 146.195c0 4.384 3.02 4.384 10.389 4.384 7.37 0 7.145 0 7.145-4.384s.225-4.384-7.145-4.384c-7.37 0-10.39 0-10.39 4.384"/>
        <path fill="#FF7900" d="M743.531 140.167c1.055 0 1.918-.922 1.918-2.048v-3.027c0-1.126-.863-2.049-1.918-2.049-1.054 0-1.918.923-1.918 2.05v3.026c0 1.126.864 2.048 1.918 2.048M649.825 140.167c1.055 0 1.918-.922 1.918-2.048v-3.027c0-1.126-.863-2.049-1.918-2.049s-1.918.923-1.918 2.05v3.026c0 1.126.863 2.048 1.918 2.048"/>
        <text fill="#FB7900" font-family="HelveticaNeueLTStd-Bd, Helvetica Neue LT Std" font-size="22" font-weight="bold">
            <tspan x="28" y="145">Des pass seront bientôt disponibles pour ce pays</tspan>
        </text>
    </g>
</svg>
