<?xml version="1.0" encoding="utf-8"?>
<!-- Generator: Adobe Illustrator 21.0.0, SVG Export Plug-In . SVG Version: 6.00 Build 0)  -->
<svg version="1.1" id="Calque_1" xmlns="http://www.w3.org/2000/svg" xmlns:xlink="http://www.w3.org/1999/xlink" x="0px" y="0px"
	 viewBox="0 0 1141 417" style="enable-background:new 0 0 1141 417;" xml:space="preserve">
<style type="text/css">
	.st0{fill:#FFFFFF;}
	.st1{opacity:0.41;fill:#B5E8F7;}
	.st2{fill:#231F20;}
	.st3{fill:#8F8F8F;}
	.st4{fill:#D6D6D6;}
	.st5{fill:#656668;}
	.st6{fill:#FF7900;}
	.st7{fill:#4BB4E6;}
	.st8{fill:#B5E8F7;}
	.st9{fill:#FB7900;}
	.st10{font-family:'Helvetica-Bold';}
	.st11{font-size:32.2413px;}
</style>
<g>
	<rect x="1" class="st0" width="1139" height="416"/>
</g>
<g>
	<path id="XMLID_15_" class="st1" d="M1-0.1c0,0,32.1,9.7,49.7,31.2s55.5,12.7,76,15.6S187,55.4,228,87.6s122.7,1,155.9,8.8
		s55.5,38,92.5,39.9c37,1.9,143.2-19.5,179.3,2.9s73.1,38,90.6,35.1s95.5-12.7,151,28.3c0,0-27.3,1.9-41.9,13.6
		c-14.6,11.7-41.9,19.5-73.1,15.6c-31.2-3.9-64.3-2.9-94.5,16.6s-139.3,16.6-175.4,16.6s-66.2,9.7-99.4,25.3
		c-33.1,15.6-87.7,17.5-132.5,16.6c-44.8-1-72.1,14.6-96.4,33.1c-24.4,18.5-77.9,12.7-105.2,14.6c-27.3,1.9-77,57.5-77,57.5L1-0.1z"
		/>
	<g id="XMLID_36_">
		<g>
			<path class="st2" d="M845.8,189.2c-4.3-0.9-8.5-1.9-12.8-2.8c-1.6-0.3-2.2,2.1-0.7,2.4c4.3,0.9,8.5,1.9,12.8,2.8
				C846.7,192,847.4,189.5,845.8,189.2L845.8,189.2z"/>
		</g>
	</g>
	<g id="XMLID_37_">
		<g>
			<path class="st2" d="M844,199.3c-4,0.3-8,0.6-12.1,0.9c-1.6,0.1-1.6,2.6,0,2.5c4-0.3,8-0.6,12.1-0.9
				C845.6,201.6,845.6,199.1,844,199.3L844,199.3z"/>
		</g>
	</g>
	<g id="XMLID_38_">
		<g>
			<path class="st2" d="M844.3,209.1c-4.1,1.5-8,3.6-11.5,6.2c-1.3,1,0,3.1,1.3,2.2c3.3-2.5,6.9-4.6,10.9-6
				C846.5,210.9,845.8,208.5,844.3,209.1L844.3,209.1z"/>
		</g>
	</g>
	<path id="XMLID_17_" class="st3" d="M1049.4,184.3l-41.9-19.2h-31.4c-2.6,0-3.9,3.3-1.9,5l19.8,17L1049.4,184.3z"/>
	<path id="XMLID_16_" class="st4" d="M867.5,196.4l-23.6-43.8c-2.7-5.1,1.2-11.2,6.9-10.9l9.3,0.5c1.9,0.1,3.8,1,5.1,2.4l39.2,43.2
		c0,0,169.9-9.2,188.3-2.1c18.5,7.1,23.5,13.5,23.5,13.5s16.2,1.1,16.8,8.2c0.7,8.2-60.8,26.6-216.5,8.8L867.5,196.4z"/>
	<path id="XMLID_14_" class="st3" d="M973.4,205.6l69.6,2.1l-97.4,35.5l-31.5-0.5c-3,0-3.9-4-1.3-5.4L973.4,205.6z"/>
	<g id="XMLID_18_">
		<path id="XMLID_40_" class="st2" d="M920.1,192.7c-0.2,0-0.5,0-0.7,0c-4.7,0-4.7,7.3,0,7.3c0.2,0,0.5,0,0.7,0
			C924.8,200,924.8,192.7,920.1,192.7L920.1,192.7z"/>
	</g>
	<g id="XMLID_19_">
		<path id="XMLID_53_" class="st2" d="M931.4,200.7c4.7,0,4.7-7.3,0-7.3C926.7,193.4,926.7,200.7,931.4,200.7L931.4,200.7z"/>
	</g>
	<g id="XMLID_20_">
		<path id="XMLID_52_" class="st2" d="M945.6,200.7c4.7,0,4.7-7.3,0-7.3C940.9,193.4,940.9,200.7,945.6,200.7L945.6,200.7z"/>
	</g>
	<g id="XMLID_21_">
		<path id="XMLID_51_" class="st2" d="M959.2,199.3c4.7,0,4.7-7.3,0-7.3C954.4,192,954.4,199.3,959.2,199.3L959.2,199.3z"/>
	</g>
	<g id="XMLID_22_">
		<path id="XMLID_50_" class="st2" d="M970.8,198.9c0.2,0.2,0.5,0.5,0.7,0.7c3.3,3.3,8.5-1.8,5.2-5.2c-0.2-0.2-0.5-0.5-0.7-0.7
			C972.6,190.4,967.5,195.6,970.8,198.9L970.8,198.9z"/>
	</g>
	<g id="XMLID_23_">
		<path id="XMLID_48_" class="st2" d="M986.2,199.3c4.7,0,4.7-7.3,0-7.3C981.5,192,981.4,199.3,986.2,199.3L986.2,199.3z"/>
	</g>
	<g id="XMLID_24_">
		<path id="XMLID_47_" class="st2" d="M997.5,200c4.7,0,4.7-7.3,0-7.3C992.8,192.7,992.8,200,997.5,200L997.5,200z"/>
	</g>
	<g id="XMLID_26_">
		<path id="XMLID_45_" class="st2" d="M1012.5,200c4.7,0,4.7-7.3,0-7.3C1007.8,192.7,1007.7,200,1012.5,200L1012.5,200z"/>
	</g>
	<g id="XMLID_28_">
		<path id="XMLID_44_" class="st2" d="M1026,200.7c4.7,0,4.7-7.3,0-7.3C1021.3,193.4,1021.2,200.7,1026,200.7L1026,200.7z"/>
	</g>
	<g id="XMLID_35_">
		<path id="XMLID_43_" class="st2" d="M1041.6,199.3c4.7,0,4.7-7.3,0-7.3C1036.9,192,1036.9,199.3,1041.6,199.3L1041.6,199.3z"/>
	</g>
	<g id="XMLID_42_">
		<path id="XMLID_41_" class="st2" d="M1055.8,200c4.7,0,4.7-7.3,0-7.3C1051.1,192.7,1051.1,200,1055.8,200L1055.8,200z"/>
	</g>
	<g id="XMLID_49_">
		<path id="XMLID_46_" class="st2" d="M1070,199.3c4.7,0,4.7-7.3,0-7.3C1065.3,192,1065.3,199.3,1070,199.3L1070,199.3z"/>
	</g>
	<g id="XMLID_56_">
		<path id="XMLID_101_" class="st2" d="M1095.2,200c3.4-0.7,6.9-0.9,10.4-0.6c4.7,0.3,4.7-7,0-7.3c-4.1-0.3-8.2,0.1-12.3,0.9
			C1088.6,193.9,1090.6,200.9,1095.2,200L1095.2,200z"/>
	</g>
	<g id="XMLID_27_">
		<path id="XMLID_124_" class="st2" d="M1076.9,192.8c0.4,6.3,1.3,12.6,2.8,18.8c1.1,4.6,8.1,2.6,7-1.9c-1.3-5.6-2.2-11.1-2.6-16.9
			C1083.9,188.1,1076.6,188.1,1076.9,192.8L1076.9,192.8z"/>
	</g>
	<g id="XMLID_29_">
		<path id="XMLID_159_" class="st2" d="M905.4,193.5c-0.4,4.7-0.5,9.5-0.3,14.2c0.3,4.7,7.6,4.7,7.3,0c-0.3-4.8-0.2-9.5,0.3-14.2
			C913.1,188.8,905.8,188.8,905.4,193.5L905.4,193.5z"/>
	</g>
	<g id="XMLID_663_">
		<path id="XMLID_1382_" class="st5" d="M854.7,147.4c0.5,0.3,1.1,0.7,1.6,1c1.3,0.8,2.4-1.2,1.2-2c-0.5-0.3-1.1-0.7-1.6-1
			C854.7,144.5,853.5,146.6,854.7,147.4L854.7,147.4z"/>
	</g>
	<g id="XMLID_665_">
		<path id="XMLID_672_" class="st5" d="M861.7,154.2c1.1,1.2,2.2,2.3,3.3,3.5c1,1.1,2.7-0.6,1.7-1.7c-1.1-1.2-2.2-2.3-3.3-3.5
			C862.3,151.4,860.7,153.1,861.7,154.2L861.7,154.2z"/>
	</g>
	<g id="XMLID_668_">
		<path id="XMLID_167_" class="st5" d="M869,162.7c1.3,1.9,2.5,3.8,3.5,5.8c0.7,1.3,2.7,0.2,2-1.2c-1-2-2.2-4-3.5-5.8
			C870.2,160.3,868.2,161.4,869,162.7L869,162.7z"/>
	</g>
	<g id="XMLID_669_">
		<path id="XMLID_166_" class="st5" d="M877.1,173.9c1.2,1.2,2.5,2.4,3.7,3.6c1.1,1.1,2.7-0.6,1.7-1.7c-1.2-1.2-2.5-2.4-3.7-3.6
			C877.6,171.2,876,172.8,877.1,173.9L877.1,173.9z"/>
	</g>
	<g id="XMLID_670_">
		<path id="XMLID_163_" class="st5" d="M885.5,183.3c0.8,1.1,1.7,2.1,2.5,3.2c0.9,1.2,2.6-0.5,1.7-1.7c-0.8-1.1-1.7-2.1-2.5-3.2
			C886.2,180.4,884.6,182.1,885.5,183.3L885.5,183.3z"/>
	</g>
	<g id="XMLID_39_">
		<path id="XMLID_165_" class="st5" d="M943.4,240.6c0.9-0.5,1.7-1,2.6-1.6c1.3-0.8,0.1-2.8-1.2-2c-0.9,0.5-1.7,1-2.6,1.6
			C940.9,239.4,942.1,241.4,943.4,240.6L943.4,240.6z"/>
	</g>
	<g id="XMLID_95_">
		<path id="XMLID_1413_" class="st5" d="M952,236.6c1.7-0.3,2.9-1.2,3.9-2.6c0.8-1.3-1.2-2.4-2-1.2c-0.6,0.9-1.4,1.3-2.5,1.5
			C949.9,234.6,950.5,236.8,952,236.6L952,236.6z"/>
	</g>
	<g id="XMLID_141_">
		<path id="XMLID_1442_" class="st5" d="M961.7,232.5c1.9-0.2,3.7-0.7,5.3-1.8c1.3-0.8,0.1-2.8-1.2-2c-1.3,0.8-2.6,1.3-4.1,1.5
			C960.2,230.3,960.2,232.6,961.7,232.5L961.7,232.5z"/>
	</g>
	<g id="XMLID_148_">
		<path id="XMLID_1449_" class="st5" d="M973.2,228.5c1.8-0.8,3.6-1.6,5.4-2.4c1.4-0.6,0.2-2.6-1.2-2c-1.8,0.8-3.6,1.6-5.4,2.4
			C970.7,227.1,971.9,229.1,973.2,228.5L973.2,228.5z"/>
	</g>
	<g id="XMLID_156_">
		<path id="XMLID_1456_" class="st5" d="M983.5,224c2.2-0.8,4.2-1.9,6-3.3c1.2-0.9,0-2.9-1.2-2c-1.7,1.2-3.5,2.3-5.5,3
			C981.4,222.3,982.1,224.5,983.5,224L983.5,224z"/>
	</g>
	<g id="XMLID_157_">
		<path id="XMLID_1463_" class="st5" d="M994.2,219.7c1.4-0.6,2.8-1.3,4.3-1.9c1.4-0.6,0.2-2.6-1.2-2c-1.4,0.6-2.8,1.3-4.3,1.9
			C991.7,218.3,992.9,220.3,994.2,219.7L994.2,219.7z"/>
	</g>
	<g id="XMLID_158_">
		<path id="XMLID_1470_" class="st5" d="M1004.7,215.5c1.4-0.7,2.8-1.4,4.2-2.1c1.4-0.7,0.2-2.7-1.2-2c-1.4,0.7-2.8,1.4-4.2,2.1
			C1002.2,214.2,1003.4,216.2,1004.7,215.5L1004.7,215.5z"/>
	</g>
	<g id="XMLID_160_">
		<path id="XMLID_1477_" class="st5" d="M1015.4,211.9c1.8-0.6,3.4-1.5,4.8-2.8c1.1-1-0.5-2.7-1.7-1.7c-1.1,1-2.3,1.7-3.8,2.2
			C1013.3,210.1,1013.9,212.3,1015.4,211.9L1015.4,211.9z"/>
	</g>
	<g id="XMLID_164_">
		<path id="XMLID_1484_" class="st5" d="M1001.4,167.3c1.2,0.5,2.4,1,3.7,1.6c1.4,0.6,2.6-1.4,1.2-2c-1.2-0.5-2.4-1-3.7-1.6
			C1001.2,164.7,1000,166.7,1001.4,167.3L1001.4,167.3z"/>
	</g>
	<g id="XMLID_1406_">
		<path id="XMLID_1491_" class="st5" d="M1011.1,173.2c1.4,0.4,2.7,1,4,1.8c1.3,0.8,2.4-1.2,1.2-2c-1.4-0.9-2.9-1.6-4.6-2
			C1010.3,170.6,1009.7,172.8,1011.1,173.2L1011.1,173.2z"/>
	</g>
	<g id="XMLID_1441_">
		<path id="XMLID_1498_" class="st5" d="M1020.8,176.8c1.4,0.7,2.8,1.4,4.2,2.1c1.3,0.7,2.5-1.3,1.2-2c-1.4-0.7-2.8-1.4-4.2-2.1
			C1020.6,174.1,1019.4,176.1,1020.8,176.8L1020.8,176.8z"/>
	</g>
	<g id="XMLID_1448_">
		<path id="XMLID_1505_" class="st5" d="M1030.3,181.6c1.5,0,1.5-2.3,0-2.3C1028.8,179.3,1028.8,181.6,1030.3,181.6L1030.3,181.6z"
			/>
	</g>
	<g id="XMLID_1455_">
		<path id="XMLID_1512_" class="st5" d="M916.6,205.2c0.7,0,1.4,0,2.1,0c1.5,0,1.5-2.3,0-2.3c-0.7,0-1.4,0-2.1,0
			C915.1,202.8,915.1,205.2,916.6,205.2L916.6,205.2z"/>
	</g>
	<g id="XMLID_1462_">
		<path id="XMLID_1519_" class="st5" d="M927.1,204.1c1,0,2.1,0,3.1,0c1.5,0,1.5-2.3,0-2.3c-1,0-2.1,0-3.1,0
			C925.6,201.8,925.6,204.1,927.1,204.1L927.1,204.1z"/>
	</g>
	<g id="XMLID_1469_">
		<path id="XMLID_1526_" class="st5" d="M939.7,203.7c1.9-0.2,3.8-0.4,5.7-0.7c1.5-0.2,1.5-2.5,0-2.3c-1.9,0.2-3.8,0.4-5.7,0.7
			C938.2,201.5,938.2,203.9,939.7,203.7L939.7,203.7z"/>
	</g>
	<g id="XMLID_1476_">
		<path id="XMLID_1533_" class="st5" d="M952.7,204c1.7-0.2,3.5-0.3,5.2-0.5c1.5-0.1,1.5-2.5,0-2.3c-1.7,0.2-3.5,0.3-5.2,0.5
			C951.3,201.8,951.3,204.2,952.7,204L952.7,204z"/>
	</g>
	<g id="XMLID_1483_">
		<path id="XMLID_1540_" class="st5" d="M966.4,204.1c1.6,0,3.1,0,4.7-0.1c1.5,0,1.5-2.4,0-2.3c-1.6,0-3.1,0-4.7,0.1
			C964.9,201.8,964.9,204.1,966.4,204.1L966.4,204.1z"/>
	</g>
	<g id="XMLID_1490_">
		<path id="XMLID_1547_" class="st5" d="M980.9,204.2c1.9-0.4,3.8-0.8,5.7-1.2c1.5-0.3,0.8-2.6-0.6-2.3c-1.9,0.4-3.8,0.8-5.7,1.2
			C978.8,202.3,979.4,204.5,980.9,204.2L980.9,204.2z"/>
	</g>
	<g id="XMLID_1497_">
		<path id="XMLID_1554_" class="st5" d="M994.7,204.2c2.6-0.2,5.2-0.4,7.9-0.6c1.5-0.1,1.5-2.5,0-2.3c-2.6,0.2-5.2,0.4-7.9,0.6
			C993.2,202,993.2,204.4,994.7,204.2L994.7,204.2z"/>
	</g>
	<g id="XMLID_1504_">
		<path id="XMLID_1561_" class="st5" d="M1010.9,204.7c1.7,0,3.5,0,5.2,0c1.5,0,1.5-2.3,0-2.3c-1.7,0-3.5,0-5.2,0
			C1009.4,202.3,1009.4,204.7,1010.9,204.7L1010.9,204.7z"/>
	</g>
	<g id="XMLID_1511_">
		<path id="XMLID_1568_" class="st5" d="M1023.5,204.7c1.4,0,2.8,0,4.2,0c1.5,0,1.5-2.3,0-2.3c-1.4,0-2.8,0-4.2,0
			C1022,202.3,1022,204.7,1023.5,204.7L1023.5,204.7z"/>
	</g>
	<g id="XMLID_1518_">
		<path id="XMLID_1575_" class="st5" d="M1036.6,205.2c1.6,0,3.1,0,4.7,0c1.5,0,1.5-2.3,0-2.3c-1.6,0-3.1,0-4.7,0
			C1035.1,202.8,1035.1,205.2,1036.6,205.2L1036.6,205.2z"/>
	</g>
	<g id="XMLID_1525_">
		<path id="XMLID_1582_" class="st5" d="M1049.2,205.2c2.1,0,4.2,0,6.3,0c1.5,0,1.5-2.3,0-2.3c-2.1,0-4.2,0-6.3,0
			C1047.6,202.8,1047.6,205.2,1049.2,205.2L1049.2,205.2z"/>
	</g>
	<g id="XMLID_1532_">
		<path id="XMLID_1589_" class="st5" d="M1064.3,204.2c1.7-0.2,3.5-0.4,5.2-0.6c1.5-0.2,1.5-2.5,0-2.3c-1.7,0.2-3.5,0.4-5.2,0.6
			C1062.9,202,1062.9,204.3,1064.3,204.2L1064.3,204.2z"/>
	</g>
	<g id="XMLID_1539_">
		<path id="XMLID_1596_" class="st5" d="M1074.8,204.1c0.3,0,0.7,0,1,0c1.5,0,1.5-2.3,0-2.3c-0.3,0-0.7,0-1,0
			C1073.3,201.8,1073.3,204.1,1074.8,204.1L1074.8,204.1z"/>
	</g>
	<g id="XMLID_1546_">
		<path id="XMLID_1603_" class="st5" d="M1089.5,203.6c0.9,0,1.7,0,2.6,0c1.5,0,1.5-2.3,0-2.3c-0.9,0-1.7,0-2.6,0
			C1088,201.3,1088,203.6,1089.5,203.6L1089.5,203.6z"/>
	</g>
	<g id="XMLID_1553_">
		<path id="XMLID_1614_" class="st5" d="M1097.7,203.1c1.4-0.2,2.8-0.1,4.1,0.3c1.4,0.4,2.1-1.8,0.6-2.3c-1.8-0.5-3.5-0.6-5.4-0.3
			C1095.6,201.1,1096.2,203.3,1097.7,203.1L1097.7,203.1z"/>
	</g>
	<g id="XMLID_1560_">
		<path id="XMLID_2929_" class="st5" d="M1108.9,203.7c1.7-0.2,3.5-0.4,5.2-0.6c1.5-0.2,1.5-2.5,0-2.3c-1.7,0.2-3.5,0.4-5.2,0.6
			C1107.4,201.5,1107.4,203.8,1108.9,203.7L1108.9,203.7z"/>
	</g>
	<g id="XMLID_32_">
		<g>
			<path class="st6" d="M17.1,32.9c2.4,2.4,4.9,4.9,7.3,7.3c1.1,1.1,2.9-0.6,1.8-1.8c-2.4-2.4-4.9-4.9-7.3-7.3
				C17.8,30,16,31.8,17.1,32.9L17.1,32.9z"/>
		</g>
	</g>
	<g id="XMLID_33_">
		<g>
			<path class="st6" d="M44.8,55c5.2,4.7,11.5,7.3,18.5,7.5c1.6,0.1,1.6-2.4,0-2.5c-6.3-0.2-12.1-2.5-16.7-6.8
				C45.4,52.1,43.6,53.9,44.8,55L44.8,55z"/>
		</g>
	</g>
	<g id="XMLID_34_">
		<g>
			<path class="st6" d="M108.9,69.7c7.2-1.4,14.3-1.8,21.6-1.3c1.6,0.1,1.6-2.4,0-2.5c-7.5-0.6-14.9-0.1-22.3,1.3
				C106.7,67.6,107.4,70,108.9,69.7L108.9,69.7z"/>
		</g>
	</g>
	<g id="XMLID_54_">
		<g>
			<path class="st6" d="M171.2,84.3c14.1,4.1,27.2,10.5,39.1,19c1.3,0.9,2.6-1.2,1.3-2.2c-12.1-8.6-25.5-15.1-39.7-19.2
				C170.3,81.4,169.6,83.8,171.2,84.3L171.2,84.3z"/>
		</g>
	</g>
	<g id="XMLID_55_">
		<g>
			<path class="st6" d="M247.5,120.7c6.8,0.5,13.6,1,20.5,1.5c1.6,0.1,1.6-2.4,0-2.5c-6.8-0.5-13.6-1-20.5-1.5
				C245.9,118.1,245.9,120.6,247.5,120.7L247.5,120.7z"/>
		</g>
	</g>
	<g id="XMLID_57_">
		<g>
			<path class="st6" d="M298.6,124.2c12.2-1.6,24.3-3.1,36.5-4.7c1.6-0.2,1.6-2.7,0-2.5c-12.2,1.6-24.3,3.1-36.5,4.7
				C297,121.9,297,124.4,298.6,124.2L298.6,124.2z"/>
		</g>
	</g>
	<g id="XMLID_58_">
		<g>
			<path class="st6" d="M378.3,117.9c3.4,1.5,6.8,2.9,10.2,4.4c1.5,0.6,2.7-1.5,1.3-2.2c-3.4-1.5-6.8-2.9-10.2-4.4
				C378.1,115.2,376.8,117.3,378.3,117.9L378.3,117.9z"/>
		</g>
	</g>
	<g id="XMLID_60_">
		<g>
			<path class="st6" d="M410.7,137.2c5.8,1.5,11.7,3,17.5,4.6c1.6,0.4,2.2-2,0.7-2.4c-5.8-1.5-11.7-3-17.5-4.6
				C409.8,134.4,409.2,136.8,410.7,137.2L410.7,137.2z"/>
		</g>
	</g>
	<g id="XMLID_62_">
		<g>
			<path class="st6" d="M476.9,150.2c9.4,0.4,18.8-0.1,28.1-1.5c1.6-0.2,0.9-2.7-0.7-2.4c-9.1,1.4-18.2,1.8-27.4,1.4
				C475.3,147.6,475.3,150.1,476.9,150.2L476.9,150.2z"/>
		</g>
	</g>
	<g id="XMLID_69_">
		<g>
			<path class="st6" d="M541.9,153.3c4.9-2.2,10-3.2,15.3-3.2c1.6,0,1.6-2.5,0-2.5c-5.8-0.1-11.3,1.1-16.6,3.5
				C539.2,151.8,540.5,153.9,541.9,153.3L541.9,153.3z"/>
		</g>
	</g>
	<g id="XMLID_76_">
		<g>
			<path class="st6" d="M609.5,151.9c4.4,0.8,8.8,1.5,13.3,2.3c1.6,0.3,2.2-2.1,0.7-2.4c-4.4-0.8-8.8-1.5-13.3-2.3
				C608.6,149.2,607.9,151.6,609.5,151.9L609.5,151.9z"/>
		</g>
	</g>
	<g id="XMLID_83_">
		<g>
			<path class="st6" d="M640.5,166.4c8.9,1,17.4,3.4,25.5,7.4c1.4,0.7,2.7-1.5,1.3-2.2c-8.5-4.1-17.4-6.7-26.8-7.7
				C638.9,163.7,638.9,166.2,640.5,166.4L640.5,166.4z"/>
		</g>
	</g>
	<g id="XMLID_90_">
		<g>
			<path class="st6" d="M700.1,183.9c12.5,3.5,25.4,5,38.4,4.3c1.6-0.1,1.6-2.6,0-2.5c-12.8,0.7-25.4-0.7-37.7-4.2
				C699.2,181.1,698.5,183.5,700.1,183.9L700.1,183.9z"/>
		</g>
	</g>
	<g id="XMLID_98_">
		<g>
			<path class="st6" d="M787,186.9c7.1-1.5,14.3-2,21.5-1.6c1.6,0.1,1.6-2.4,0-2.5c-7.5-0.4-14.9,0.2-22.2,1.7
				C784.8,184.8,785.5,187.2,787,186.9L787,186.9z"/>
		</g>
	</g>
	<path id="XMLID_2971_" class="st7" d="M821.1,248.8h-4.8c-0.1-2.2-2-3.9-4.2-3.9h-2c0-0.1,0-0.3,0-0.4c0-2.4-2-4.4-4.4-4.4h-13.2
		c-2.4,0-4.4,2-4.4,4.4c0,0.1,0,0.3,0,0.4h-9.9c-2.2,0-4,1.8-4.2,3.9h-4c-2.3,0-4.2,1.9-4.2,4.2c0,2.3,1.9,4.2,4.2,4.2h51
		c2.3,0,4.2-1.9,4.2-4.2C825.4,250.7,823.5,248.8,821.1,248.8z"/>
	<path id="XMLID_2961_" class="st7" d="M150.3,193.8h-4.8c-0.1-2.2-2-3.9-4.2-3.9h-2c0-0.1,0-0.3,0-0.4c0-2.4-2-4.4-4.4-4.4h-13.2
		c-2.4,0-4.4,2-4.4,4.4c0,0.1,0,0.3,0,0.4h-9.9c-2.2,0-4,1.8-4.2,3.9h-4c-2.3,0-4.2,1.9-4.2,4.2c0,2.3,1.9,4.2,4.2,4.2h51
		c2.3,0,4.2-1.9,4.2-4.2C154.6,195.7,152.7,193.8,150.3,193.8z"/>
	<path id="XMLID_2962_" class="st0" d="M366.6,275.7h-4.8c-0.1-2.2-2-3.9-4.2-3.9h-2c0-0.1,0-0.3,0-0.4c0-2.4-2-4.4-4.4-4.4H338
		c-2.4,0-4.4,2-4.4,4.4c0,0.1,0,0.3,0,0.4h-9.9c-2.2,0-4,1.8-4.2,3.9h-4c-2.3,0-4.2,1.9-4.2,4.2c0,2.3,1.9,4.2,4.2,4.2h51
		c2.3,0,4.2-1.9,4.2-4.2C370.8,277.6,368.9,275.7,366.6,275.7z"/>
	<path id="XMLID_2955_" class="st8" d="M702.6,112.4h-1.3c0.1-0.3,0.1-0.6,0.1-1c0-2.4-2-4.4-4.4-4.4h-6.2c0.2-0.6,0.4-1.3,0.4-1.9
		c0-2.9-2.4-5.4-5.4-5.4H678c-2.9,0-5.4,2.4-5.4,5.4c0,0.7,0.1,1.3,0.4,1.9h-5.7c-2.4,0-4.4,2-4.4,4.4c0,0.3,0,0.7,0.1,1h-4.7
		c-2.5,0-4.6,2.1-4.6,4.6s2.1,4.6,4.6,4.6h44.3c2.5,0,4.6-2.1,4.6-4.6S705.2,112.4,702.6,112.4z"/>
</g>
<text transform="matrix(1 0 0 1 186.0103 193.7231)" class="st9 st10 st11">Des pass seront bientôt</text>
<text transform="matrix(1 0 0 1 551.4956 193.7231)" class="st9 st10 st11"> </text>
<text transform="matrix(1 0 0 1 186.0103 237.4785)" class="st9 st10 st11">disponibles pour ce pays</text>
</svg>
