<svg xmlns="http://www.w3.org/2000/svg" xmlns:xlink="http://www.w3.org/1999/xlink" width="1141" height="417" viewBox="0 0 1141 417">
    <defs>
        <path id="a" d="M0 .283h291.814V86H0z"/>
    </defs>
    <g fill="none" fill-rule="evenodd">
        <path fill="#4BB4E6" fill-opacity=".2" d="M932.279 199.432c-4.113-.31-8.233-.491-12.356-.6a200.558 200.558 0 0 1-57.196-9.917 200.554 200.554 0 0 0-62.5-9.987h-32.823a132.034 132.034 0 0 1-48.439-9.206l-31.787-12.535a225.325 225.325 0 0 0-82.664-15.71H495.512a97.521 97.521 0 0 1-49.922-13.746 203.621 203.621 0 0 0-104.236-28.7h-62.829a136.752 136.752 0 0 1-77.184-23.86l-7.092-4.849a100.572 100.572 0 0 0-52.38-17.453l-67.404-2.942a63.978 63.978 0 0 1-50.63-28.697A62.03 62.03 0 0 0 0 0v417a62.03 62.03 0 0 0 23.835-21.23 63.978 63.978 0 0 1 50.63-28.697l67.405-2.942a100.572 100.572 0 0 0 52.379-17.453l7.092-4.85a136.754 136.754 0 0 1 77.184-23.86h62.83c36.7 0 72.716-9.916 104.235-28.7a97.521 97.521 0 0 1 49.922-13.744h109.002c28.298 0 56.343-5.33 82.664-15.71l31.787-12.536a132.034 132.034 0 0 1 48.439-9.206h32.822c21.232 0 42.328-3.37 62.5-9.987a200.558 200.558 0 0 1 57.197-9.917c4.123-.109 8.243-.29 12.356-.6L964 215.185V201.815l-31.721-2.383z"/>
        <path fill="#B5E8F7" d="M710.728 119.2c0-2.42-1.922-4.4-4.272-4.4h-3.383c0-2.42-1.922-4.4-4.272-4.4h-.084c0-2.42-1.922-4.4-4.272-4.4h-6.46c-2.35 0-4.272 1.98-4.272 4.4h-.083c-2.35 0-4.272 1.98-4.272 4.4h-5.338c-2.35 0-4.272 1.98-4.272 4.4h-4.476c-2.35 0-4.272 1.98-4.272 4.4 0 2.42 1.922 4.4 4.272 4.4h45.456c2.35 0 4.272-1.98 4.272-4.4 0-2.42-1.922-4.4-4.272-4.4"/>
        <path fill="#4BB4E6" fill-opacity=".2" d="M219.961 275h-11.42c0-4.4-3.617-8-8.038-8h-17.99c0-4.4-3.618-8-8.04-8h-28.55c-4.421 0-8.039 3.6-8.039 8h-4.381c-4.422 0-8.04 3.6-8.04 8h-8.424c-4.421 0-8.039 3.6-8.039 8s3.618 8 8.039 8h102.922c4.421 0 8.039-3.6 8.039-8s-3.618-8-8.039-8"/>
        <path fill="#4BB4E6" d="M778.986 259h5.661c0-2.2 1.794-4 3.986-4h8.92c0-2.2 1.793-4 3.985-4h14.155c2.193 0 3.986 1.8 3.986 4h2.173c2.192 0 3.985 1.8 3.985 4h4.177c2.192 0 3.986 1.8 3.986 4s-1.794 4-3.986 4h-51.028c-2.192 0-3.986-1.8-3.986-4s1.794-4 3.986-4"/>
        <path fill="#FFF" d="M235.985 133h-.973c0-4.4-3.607-8-8.016-8h-1.99c0-4.4-3.607-8-8.016-8h-9.175c-4.409 0-8.016 3.6-8.016 8h-4.369c-4.408 0-8.015 3.6-8.015 8h-8.4c-4.408 0-8.015 3.6-8.015 8s3.607 8 8.015 8h56.97c4.408 0 8.015-3.6 8.015-8s-3.607-8-8.015-8"/>
        <g transform="matrix(-1 0 0 1 1141 149)">
            <mask id="b" fill="#fff">
                <use xlink:href="#a"/>
            </mask>
            <path fill="#D6D6D6" d="M11.394 59.094s10.662-13.537 37.798-13.95c40.055-.612 163.025.767 163.025.767s14.532-.164 23.633-10.055c7.47-8.118 25.072-26.826 31.142-33.271a7.269 7.269 0 0 1 5.172-2.286l19.65-.016-2.059 4.237-20.3 45.345a7.267 7.267 0 0 1-2.661 3.13c-9.346 6.111-54.76 32.8-135.476 33-108.8.271-154.617-11.502-119.924-26.901" mask="url(#b)"/>
        </g>
        <path fill="#1D1D1B" d="M1009.757 234.995c-39.346-.1-70.29-6.62-92.757-13.995h222c-9.66 8.595-54.626 14.185-129.243 13.995"/>
        <path fill="#FF7900" d="M862.158 153.271h-11.115L849 149l19.502.016c1.95.036 3.794.86 5.134 2.304 6.024 6.498 23.495 25.359 30.909 33.543C913.577 194.834 928 195 928 195h-25.83a7.205 7.205 0 0 1-5.644-2.747l-28.723-36.235a7.205 7.205 0 0 0-5.645-2.747"/>
        <path fill="#595959" d="M1111.84 209H1130c-2.052-2.89-6.25-6-6.25-6h-14.283c-.353 0-.578.426-.41.776l2.373 4.948c.082.17.24.276.41.276M1084.5 211c1.375 0 2.5-.906 2.5-2.013v-2.974c0-1.107-1.125-2.013-2.5-2.013s-2.5.906-2.5 2.013v2.974c0 1.107 1.125 2.013 2.5 2.013M1078.5 211c1.375 0 2.5-.906 2.5-2.013v-2.974c0-1.107-1.125-2.013-2.5-2.013s-2.5.906-2.5 2.013v2.974c0 1.107 1.125 2.013 2.5 2.013M1071.5 211c1.375 0 2.5-.906 2.5-2.013v-2.974c0-1.107-1.125-2.013-2.5-2.013s-2.5.906-2.5 2.013v2.974c0 1.107 1.125 2.013 2.5 2.013M1063.5 211c1.375 0 2.5-.906 2.5-2.013v-2.974c0-1.107-1.125-2.013-2.5-2.013s-2.5.906-2.5 2.013v2.974c0 1.107 1.125 2.013 2.5 2.013M1056.5 211c1.375 0 2.5-.906 2.5-2.013v-2.974c0-1.107-1.125-2.013-2.5-2.013s-2.5.906-2.5 2.013v2.974c0 1.107 1.125 2.013 2.5 2.013M1048.5 211c1.375 0 2.5-.906 2.5-2.013v-2.974c0-1.107-1.125-2.013-2.5-2.013s-2.5.906-2.5 2.013v2.974c0 1.107 1.125 2.013 2.5 2.013M1041.5 211c1.375 0 2.5-.906 2.5-2.013v-2.974c0-1.107-1.125-2.013-2.5-2.013s-2.5.906-2.5 2.013v2.974c0 1.107 1.125 2.013 2.5 2.013M1033.5 211c1.375 0 2.5-.906 2.5-2.013v-2.974c0-1.107-1.125-2.013-2.5-2.013s-2.5.906-2.5 2.013v2.974c0 1.107 1.125 2.013 2.5 2.013M1026.5 211c1.375 0 2.5-.906 2.5-2.013v-2.974c0-1.107-1.125-2.013-2.5-2.013s-2.5.906-2.5 2.013v2.974c0 1.107 1.125 2.013 2.5 2.013M1012.5 211c1.375 0 2.5-.906 2.5-2.013v-2.974c0-1.107-1.125-2.013-2.5-2.013s-2.5.906-2.5 2.013v2.974c0 1.107 1.125 2.013 2.5 2.013M997.5 211c1.375 0 2.5-.906 2.5-2.013v-2.974c0-1.107-1.125-2.013-2.5-2.013s-2.5.906-2.5 2.013v2.974c0 1.107 1.125 2.013 2.5 2.013M990.5 211c1.375 0 2.5-.906 2.5-2.013v-2.974c0-1.107-1.125-2.013-2.5-2.013s-2.5.906-2.5 2.013v2.974c0 1.107 1.125 2.013 2.5 2.013M982.5 211c1.375 0 2.5-.906 2.5-2.013v-2.974c0-1.107-1.125-2.013-2.5-2.013s-2.5.906-2.5 2.013v2.974c0 1.107 1.125 2.013 2.5 2.013M976.5 211c1.375 0 2.5-.906 2.5-2.013v-2.974c0-1.107-1.125-2.013-2.5-2.013s-2.5.906-2.5 2.013v2.974c0 1.107 1.125 2.013 2.5 2.013M968.5 211c1.375 0 2.5-.906 2.5-2.013v-2.974c0-1.107-1.125-2.013-2.5-2.013s-2.5.906-2.5 2.013v2.974c0 1.107 1.125 2.013 2.5 2.013M961.5 211c1.375 0 2.5-.906 2.5-2.013v-2.974c0-1.107-1.125-2.013-2.5-2.013s-2.5.906-2.5 2.013v2.974c0 1.107 1.125 2.013 2.5 2.013M953.5 211c1.375 0 2.5-.906 2.5-2.013v-2.974c0-1.107-1.125-2.013-2.5-2.013s-2.5.906-2.5 2.013v2.974c0 1.107 1.125 2.013 2.5 2.013M946.5 211c1.375 0 2.5-.906 2.5-2.013v-2.974c0-1.107-1.125-2.013-2.5-2.013s-2.5.906-2.5 2.013v2.974c0 1.107 1.125 2.013 2.5 2.013M939.5 211c1.375 0 2.5-.906 2.5-2.013v-2.974c0-1.107-1.125-2.013-2.5-2.013s-2.5.906-2.5 2.013v2.974c0 1.107 1.125 2.013 2.5 2.013M932.5 211c1.375 0 2.5-.906 2.5-2.013v-2.974c0-1.107-1.125-2.013-2.5-2.013s-2.5.906-2.5 2.013v2.974c0 1.107 1.125 2.013 2.5 2.013"/>
        <path fill="#595959" d="M1035.458 222.113c-9.769 3.845-39.49 2.852-46.965 2.534a5.462 5.462 0 0 1-3.07-1.104L957 202l9.463.167s65.707 14.113 68.686 14.795c0 0 2.851.543 2.851 2.269 0 2.032-2.542 2.882-2.542 2.882"/>
        <path fill="#8F8F8F" d="M901.639 201.078c-5.049 1.762-20.096.52-23.878.172a2.733 2.733 0 0 1-1.53-.65L861 189l4.436.011s34.679 8.95 36.173 9.378c0 0 1.432.352 1.39 1.25-.05 1.058-1.36 1.439-1.36 1.439M990 226c0 8 5.51 8 18.96 8 13.448 0 13.039 0 13.039-8s.41-8-13.04-8C995.51 218 990 218 990 226"/>
        <path fill="#FF7900" d="M1094.5 215c1.925 0 3.5-1.682 3.5-3.739v-5.522c0-2.056-1.575-3.739-3.5-3.739s-3.5 1.683-3.5 3.739v5.522c0 2.057 1.575 3.739 3.5 3.739M923.5 215c1.925 0 3.5-1.682 3.5-3.739v-5.522c0-2.056-1.575-3.739-3.5-3.739s-3.5 1.683-3.5 3.739v5.522c0 2.057 1.575 3.739 3.5 3.739"/>
    </g>
</svg>
