<?xml version="1.0" encoding="utf-8"?>
<!-- Generator: Adobe Illustrator 21.0.0, SVG Export Plug-In . SVG Version: 6.00 Build 0)  -->
<svg version="1.1" id="Calque_1" xmlns="http://www.w3.org/2000/svg" xmlns:xlink="http://www.w3.org/1999/xlink" x="0px" y="0px"
	 viewBox="0 0 287 258" style="enable-background:new 0 0 287 258;" xml:space="preserve">
<style type="text/css">
	.st0{fill:#FFFFFF;}
	.st1{opacity:0.41;fill:#B5E8F7;}
	.st2{fill:#231F20;}
	.st3{fill:#8F8F8F;}
	.st4{fill:#D6D6D6;}
	.st5{fill:#656668;}
	.st6{fill:#FF7900;}
	.st7{fill:#4BB4E6;}
	.st8{fill:#B5E8F7;}
	.st9{fill:#FB7900;}
	.st10{font-family:'Helvetica-Bold';}
	.st11{font-size:7.2158px;}
</style>
<g>
	<rect x="0" y="86.9" class="st0" width="287" height="104.8"/>
</g>
<g>
	<path id="XMLID_15_" class="st1" d="M0,86.9c0,0,8.1,2.5,12.5,7.9s14,3.2,19.1,3.9c5.2,0.7,15.2,2.2,25.5,10.3s30.9,0.2,39.3,2.2
		c8.3,2,14,9.6,23.3,10.1c9.3,0.5,36.1-4.9,45.2,0.7c9.1,5.6,18.4,9.6,22.8,8.8c4.4-0.7,24.1-3.2,38,7.1c0,0-6.9,0.5-10.6,3.4
		c-3.7,2.9-10.6,4.9-18.4,3.9c-7.9-1-16.2-0.7-23.8,4.2c-7.6,4.9-35.1,4.2-44.2,4.2c-9.1,0-16.7,2.5-25,6.4
		c-8.3,3.9-22.1,4.4-33.4,4.2s-18.2,3.7-24.3,8.3s-19.6,3.2-26.5,3.7S0.2,190.7,0.2,190.7L0,86.9z"/>
	<g id="XMLID_36_">
		<g>
			<path class="st2" d="M212.9,134.6c-1.1-0.2-2.2-0.5-3.2-0.7c-0.3-0.1-0.4,0.4-0.1,0.5c1.1,0.2,2.2,0.5,3.2,0.7
				C213,135.2,213.2,134.7,212.9,134.6L212.9,134.6z"/>
		</g>
	</g>
	<g id="XMLID_37_">
		<g>
			<path class="st2" d="M212.4,137.2c-1,0.1-2,0.2-3,0.2c-0.3,0-0.3,0.5,0,0.5c1-0.1,2-0.2,3-0.2
				C212.7,137.6,212.7,137.1,212.4,137.2L212.4,137.2z"/>
		</g>
	</g>
	<g id="XMLID_38_">
		<g>
			<path class="st2" d="M212.5,139.6c-1,0.4-2,0.9-2.9,1.6c-0.3,0.2,0,0.6,0.3,0.4c0.8-0.6,1.8-1.2,2.8-1.5
				C212.9,140,212.8,139.5,212.5,139.6L212.5,139.6z"/>
		</g>
	</g>
	<path id="XMLID_17_" class="st3" d="M264.2,133.3l-10.6-4.8h-7.9c-0.7,0-1,0.8-0.5,1.3l5,4.3L264.2,133.3z"/>
	<path id="XMLID_16_" class="st4" d="M218.3,136.4l-5.9-11c-0.7-1.3,0.3-2.8,1.7-2.8l2.4,0.1c0.5,0,1,0.2,1.3,0.6l9.9,10.9
		c0,0,42.8-2.3,47.5-0.5c4.7,1.8,5.9,3.4,5.9,3.4s4.1,0.3,4.2,2.1c0.2,2.1-15.3,6.7-54.5,2.2L218.3,136.4z"/>
	<path id="XMLID_14_" class="st3" d="M245,138.7l17.5,0.5l-24.5,9l-7.9-0.1c-0.7,0-1-1-0.3-1.4L245,138.7z"/>
	<g id="XMLID_18_">
		<path id="XMLID_40_" class="st2" d="M231.6,135.5c-0.1,0-0.1,0-0.2,0c-1.2,0-1.2,1.8,0,1.8c0.1,0,0.1,0,0.2,0
			C232.8,137.3,232.8,135.5,231.6,135.5L231.6,135.5z"/>
	</g>
	<g id="XMLID_19_">
		<path id="XMLID_53_" class="st2" d="M234.4,137.5c1.2,0,1.2-1.8,0-1.8C233.3,135.6,233.3,137.5,234.4,137.5L234.4,137.5z"/>
	</g>
	<g id="XMLID_20_">
		<path id="XMLID_52_" class="st2" d="M238,137.5c1.2,0,1.2-1.8,0-1.8C236.8,135.6,236.8,137.5,238,137.5L238,137.5z"/>
	</g>
	<g id="XMLID_21_">
		<path id="XMLID_51_" class="st2" d="M241.4,137.1c1.2,0,1.2-1.8,0-1.8C240.2,135.3,240.2,137.1,241.4,137.1L241.4,137.1z"/>
	</g>
	<g id="XMLID_22_">
		<path id="XMLID_50_" class="st2" d="M244.4,137c0.1,0.1,0.1,0.1,0.2,0.2c0.8,0.8,2.1-0.5,1.3-1.3c-0.1-0.1-0.1-0.1-0.2-0.2
			C244.8,134.9,243.5,136.2,244.4,137L244.4,137z"/>
	</g>
	<g id="XMLID_23_">
		<path id="XMLID_48_" class="st2" d="M248.2,137.1c1.2,0,1.2-1.8,0-1.8C247.1,135.3,247,137.1,248.2,137.1L248.2,137.1z"/>
	</g>
	<g id="XMLID_24_">
		<path id="XMLID_47_" class="st2" d="M251.1,137.3c1.2,0,1.2-1.8,0-1.8C249.9,135.5,249.9,137.3,251.1,137.3L251.1,137.3z"/>
	</g>
	<g id="XMLID_26_">
		<path id="XMLID_45_" class="st2" d="M254.9,137.3c1.2,0,1.2-1.8,0-1.8C253.7,135.5,253.7,137.3,254.9,137.3L254.9,137.3z"/>
	</g>
	<g id="XMLID_28_">
		<path id="XMLID_44_" class="st2" d="M258.3,137.5c1.2,0,1.2-1.8,0-1.8C257.1,135.6,257.1,137.5,258.3,137.5L258.3,137.5z"/>
	</g>
	<g id="XMLID_35_">
		<path id="XMLID_43_" class="st2" d="M262.2,137.1c1.2,0,1.2-1.8,0-1.8C261,135.3,261,137.1,262.2,137.1L262.2,137.1z"/>
	</g>
	<g id="XMLID_42_">
		<path id="XMLID_41_" class="st2" d="M265.8,137.3c1.2,0,1.2-1.8,0-1.8C264.6,135.5,264.6,137.3,265.8,137.3L265.8,137.3z"/>
	</g>
	<g id="XMLID_49_">
		<path id="XMLID_46_" class="st2" d="M269.4,137.1c1.2,0,1.2-1.8,0-1.8C268.2,135.3,268.2,137.1,269.4,137.1L269.4,137.1z"/>
	</g>
	<g id="XMLID_56_">
		<path id="XMLID_101_" class="st2" d="M275.7,137.3c0.9-0.2,1.7-0.2,2.6-0.2c1.2,0.1,1.2-1.8,0-1.8c-1-0.1-2.1,0-3.1,0.2
			C274.1,135.7,274.5,137.5,275.7,137.3L275.7,137.3z"/>
	</g>
	<g id="XMLID_27_">
		<path id="XMLID_124_" class="st2" d="M271.1,135.5c0.1,1.6,0.3,3.2,0.7,4.7c0.3,1.2,2,0.7,1.8-0.5c-0.3-1.4-0.5-2.8-0.6-4.2
			C272.9,134.3,271,134.3,271.1,135.5L271.1,135.5z"/>
	</g>
	<g id="XMLID_29_">
		<path id="XMLID_159_" class="st2" d="M227.9,135.6c-0.1,1.2-0.1,2.4-0.1,3.6c0.1,1.2,1.9,1.2,1.8,0c-0.1-1.2,0-2.4,0.1-3.6
			C229.8,134.5,228,134.5,227.9,135.6L227.9,135.6z"/>
	</g>
	<g id="XMLID_663_">
		<path id="XMLID_1382_" class="st5" d="M215.1,124c0.1,0.1,0.3,0.2,0.4,0.3c0.3,0.2,0.6-0.3,0.3-0.5c-0.1-0.1-0.3-0.2-0.4-0.3
			C215.1,123.3,214.8,123.8,215.1,124L215.1,124z"/>
	</g>
	<g id="XMLID_665_">
		<path id="XMLID_672_" class="st5" d="M216.9,125.7c0.3,0.3,0.6,0.6,0.8,0.9c0.3,0.3,0.7-0.1,0.4-0.4c-0.3-0.3-0.6-0.6-0.8-0.9
			C217,125,216.6,125.5,216.9,125.7L216.9,125.7z"/>
	</g>
	<g id="XMLID_668_">
		<path id="XMLID_167_" class="st5" d="M218.7,127.9c0.3,0.5,0.6,1,0.9,1.5c0.2,0.3,0.7,0,0.5-0.3c-0.3-0.5-0.6-1-0.9-1.5
			C219,127.3,218.5,127.6,218.7,127.9L218.7,127.9z"/>
	</g>
	<g id="XMLID_669_">
		<path id="XMLID_166_" class="st5" d="M220.7,130.7c0.3,0.3,0.6,0.6,0.9,0.9c0.3,0.3,0.7-0.2,0.4-0.4c-0.3-0.3-0.6-0.6-0.9-0.9
			C220.9,130,220.5,130.4,220.7,130.7L220.7,130.7z"/>
	</g>
	<g id="XMLID_670_">
		<path id="XMLID_163_" class="st5" d="M222.9,133.1c0.2,0.3,0.4,0.5,0.6,0.8c0.2,0.3,0.6-0.1,0.4-0.4c-0.2-0.3-0.4-0.5-0.6-0.8
			C223.1,132.4,222.6,132.8,222.9,133.1L222.9,133.1z"/>
	</g>
	<g id="XMLID_39_">
		<path id="XMLID_165_" class="st5" d="M237.5,147.5c0.2-0.1,0.4-0.3,0.7-0.4c0.3-0.2,0-0.7-0.3-0.5c-0.2,0.1-0.4,0.3-0.7,0.4
			C236.8,147.2,237.1,147.7,237.5,147.5L237.5,147.5z"/>
	</g>
	<g id="XMLID_95_">
		<path id="XMLID_1413_" class="st5" d="M239.6,146.5c0.4-0.1,0.7-0.3,1-0.7c0.2-0.3-0.3-0.6-0.5-0.3c-0.2,0.2-0.4,0.3-0.6,0.4
			C239.1,146,239.3,146.6,239.6,146.5L239.6,146.5z"/>
	</g>
	<g id="XMLID_141_">
		<path id="XMLID_1442_" class="st5" d="M242.1,145.5c0.5,0,0.9-0.2,1.3-0.4c0.3-0.2,0-0.7-0.3-0.5c-0.3,0.2-0.7,0.3-1,0.4
			C241.7,144.9,241.7,145.5,242.1,145.5L242.1,145.5z"/>
	</g>
	<g id="XMLID_148_">
		<path id="XMLID_1449_" class="st5" d="M245,144.5c0.4-0.2,0.9-0.4,1.3-0.6c0.3-0.2,0-0.7-0.3-0.5c-0.4,0.2-0.9,0.4-1.3,0.6
			C244.3,144.1,244.6,144.6,245,144.5L245,144.5z"/>
	</g>
	<g id="XMLID_156_">
		<path id="XMLID_1456_" class="st5" d="M247.6,143.3c0.5-0.2,1-0.5,1.5-0.8c0.3-0.2,0-0.7-0.3-0.5c-0.4,0.3-0.9,0.6-1.4,0.8
			C247,142.9,247.2,143.5,247.6,143.3L247.6,143.3z"/>
	</g>
	<g id="XMLID_157_">
		<path id="XMLID_1463_" class="st5" d="M250.3,142.3c0.4-0.2,0.7-0.3,1.1-0.5c0.3-0.2,0-0.7-0.3-0.5c-0.4,0.2-0.7,0.3-1.1,0.5
			C249.6,141.9,249.9,142.4,250.3,142.3L250.3,142.3z"/>
	</g>
	<g id="XMLID_158_">
		<path id="XMLID_1470_" class="st5" d="M252.9,141.2c0.4-0.2,0.7-0.3,1.1-0.5c0.3-0.2,0-0.7-0.3-0.5c-0.4,0.2-0.7,0.3-1.1,0.5
			C252.3,140.9,252.6,141.4,252.9,141.2L252.9,141.2z"/>
	</g>
	<g id="XMLID_160_">
		<path id="XMLID_1477_" class="st5" d="M255.6,140.3c0.5-0.1,0.9-0.4,1.2-0.7c0.3-0.3-0.1-0.7-0.4-0.4c-0.3,0.3-0.6,0.4-0.9,0.5
			C255.1,139.8,255.2,140.4,255.6,140.3L255.6,140.3z"/>
	</g>
	<g id="XMLID_164_">
		<path id="XMLID_1484_" class="st5" d="M252.1,129c0.3,0.1,0.6,0.3,0.9,0.4c0.3,0.1,0.6-0.4,0.3-0.5c-0.3-0.1-0.6-0.3-0.9-0.4
			C252,128.4,251.7,128.9,252.1,129L252.1,129z"/>
	</g>
	<g id="XMLID_1406_">
		<path id="XMLID_1491_" class="st5" d="M254.5,130.5c0.4,0.1,0.7,0.3,1,0.5c0.3,0.2,0.6-0.3,0.3-0.5c-0.4-0.2-0.7-0.4-1.1-0.5
			C254.3,129.9,254.2,130.4,254.5,130.5L254.5,130.5z"/>
	</g>
	<g id="XMLID_1441_">
		<path id="XMLID_1498_" class="st5" d="M257,131.4c0.4,0.2,0.7,0.4,1.1,0.5c0.3,0.2,0.6-0.3,0.3-0.5c-0.4-0.2-0.7-0.4-1.1-0.5
			C256.9,130.8,256.6,131.3,257,131.4L257,131.4z"/>
	</g>
	<g id="XMLID_1448_">
		<path id="XMLID_1505_" class="st5" d="M259.4,132.7c0.4,0,0.4-0.6,0-0.6C259,132.1,259,132.7,259.4,132.7L259.4,132.7z"/>
	</g>
	<g id="XMLID_1455_">
		<path id="XMLID_1512_" class="st5" d="M230.7,138.6c0.2,0,0.4,0,0.5,0c0.4,0,0.4-0.6,0-0.6c-0.2,0-0.4,0-0.5,0
			C230.3,138,230.3,138.6,230.7,138.6L230.7,138.6z"/>
	</g>
	<g id="XMLID_1462_">
		<path id="XMLID_1519_" class="st5" d="M233.4,138.3c0.3,0,0.5,0,0.8,0c0.4,0,0.4-0.6,0-0.6c-0.3,0-0.5,0-0.8,0
			C233,137.7,233,138.3,233.4,138.3L233.4,138.3z"/>
	</g>
	<g id="XMLID_1469_">
		<path id="XMLID_1526_" class="st5" d="M236.5,138.2c0.5-0.1,1-0.1,1.4-0.2c0.4,0,0.4-0.6,0-0.6c-0.5,0.1-1,0.1-1.4,0.2
			C236.2,137.7,236.1,138.3,236.5,138.2L236.5,138.2z"/>
	</g>
	<g id="XMLID_1476_">
		<path id="XMLID_1533_" class="st5" d="M239.8,138.3c0.4,0,0.9-0.1,1.3-0.1c0.4,0,0.4-0.6,0-0.6c-0.4,0-0.9,0.1-1.3,0.1
			C239.4,137.8,239.4,138.3,239.8,138.3L239.8,138.3z"/>
	</g>
	<g id="XMLID_1483_">
		<path id="XMLID_1540_" class="st5" d="M243.3,138.3c0.4,0,0.8,0,1.2,0c0.4,0,0.4-0.6,0-0.6c-0.4,0-0.8,0-1.2,0
			C242.9,137.7,242.9,138.3,243.3,138.3L243.3,138.3z"/>
	</g>
	<g id="XMLID_1490_">
		<path id="XMLID_1547_" class="st5" d="M246.9,138.4c0.5-0.1,1-0.2,1.4-0.3c0.4-0.1,0.2-0.6-0.2-0.6c-0.5,0.1-1,0.2-1.4,0.3
			C246.4,137.9,246.5,138.4,246.9,138.4L246.9,138.4z"/>
	</g>
	<g id="XMLID_1497_">
		<path id="XMLID_1554_" class="st5" d="M250.4,138.4c0.7-0.1,1.3-0.1,2-0.2c0.4,0,0.4-0.6,0-0.6c-0.7,0.1-1.3,0.1-2,0.2
			C250,137.8,250,138.4,250.4,138.4L250.4,138.4z"/>
	</g>
	<g id="XMLID_1504_">
		<path id="XMLID_1561_" class="st5" d="M254.5,138.5c0.4,0,0.9,0,1.3,0c0.4,0,0.4-0.6,0-0.6c-0.4,0-0.9,0-1.3,0
			C254.1,137.9,254.1,138.5,254.5,138.5L254.5,138.5z"/>
	</g>
	<g id="XMLID_1511_">
		<path id="XMLID_1568_" class="st5" d="M257.6,138.5c0.4,0,0.7,0,1.1,0c0.4,0,0.4-0.6,0-0.6c-0.4,0-0.7,0-1.1,0
			C257.3,137.9,257.3,138.5,257.6,138.5L257.6,138.5z"/>
	</g>
	<g id="XMLID_1518_">
		<path id="XMLID_1575_" class="st5" d="M260.9,138.6c0.4,0,0.8,0,1.2,0c0.4,0,0.4-0.6,0-0.6c-0.4,0-0.8,0-1.2,0
			C260.6,138,260.6,138.6,260.9,138.6L260.9,138.6z"/>
	</g>
	<g id="XMLID_1525_">
		<path id="XMLID_1582_" class="st5" d="M264.1,138.6c0.5,0,1.1,0,1.6,0c0.4,0,0.4-0.6,0-0.6c-0.5,0-1.1,0-1.6,0
			C263.7,138,263.7,138.6,264.1,138.6L264.1,138.6z"/>
	</g>
	<g id="XMLID_1532_">
		<path id="XMLID_1589_" class="st5" d="M267.9,138.3c0.4-0.1,0.9-0.1,1.3-0.2c0.4,0,0.4-0.6,0-0.6c-0.4,0.1-0.9,0.1-1.3,0.2
			C267.6,137.8,267.6,138.4,267.9,138.3L267.9,138.3z"/>
	</g>
	<g id="XMLID_1539_">
		<path id="XMLID_1596_" class="st5" d="M270.6,138.3c0.1,0,0.2,0,0.3,0c0.4,0,0.4-0.6,0-0.6c-0.1,0-0.2,0-0.3,0
			C270.2,137.7,270.2,138.3,270.6,138.3L270.6,138.3z"/>
	</g>
	<g id="XMLID_1546_">
		<path id="XMLID_1603_" class="st5" d="M274.3,138.2c0.2,0,0.4,0,0.7,0c0.4,0,0.4-0.6,0-0.6c-0.2,0-0.4,0-0.7,0
			C273.9,137.6,273.9,138.2,274.3,138.2L274.3,138.2z"/>
	</g>
	<g id="XMLID_1553_">
		<path id="XMLID_1614_" class="st5" d="M276.3,138.1c0.4-0.1,0.7,0,1,0.1c0.4,0.1,0.5-0.5,0.2-0.6c-0.5-0.1-0.9-0.1-1.4-0.1
			C275.8,137.6,276,138.1,276.3,138.1L276.3,138.1z"/>
	</g>
	<g id="XMLID_1560_">
		<path id="XMLID_2929_" class="st5" d="M279.2,138.2c0.4-0.1,0.9-0.1,1.3-0.2c0.4,0,0.4-0.6,0-0.6c-0.4,0.1-0.9,0.1-1.3,0.2
			C278.8,137.7,278.8,138.3,279.2,138.2L279.2,138.2z"/>
	</g>
	<g id="XMLID_32_">
		<g>
			<path class="st6" d="M3.9,95.4c0.6,0.6,1.2,1.2,1.8,1.8c0.6,0.6,1.5-0.3,0.9-0.9c-0.6-0.6-1.2-1.2-1.8-1.8
				C4.2,94,3.3,94.8,3.9,95.4L3.9,95.4z"/>
		</g>
	</g>
	<g id="XMLID_33_">
		<g>
			<path class="st6" d="M10.8,101c1.4,1.2,3,1.9,4.9,2c0.8,0,0.8-1.2,0-1.2c-1.5,0-2.9-0.6-4-1.6C11.1,99.5,10.2,100.4,10.8,101
				L10.8,101z"/>
		</g>
	</g>
	<g id="XMLID_34_">
		<g>
			<path class="st6" d="M27.3,104.8c1.8-0.3,3.6-0.4,5.4-0.3c0.8,0.1,0.8-1.2,0-1.2c-1.9-0.1-3.8,0-5.7,0.4
				C26.2,103.7,26.5,104.9,27.3,104.8L27.3,104.8z"/>
		</g>
	</g>
	<g id="XMLID_54_">
		<g>
			<path class="st6" d="M42.8,108.4c3.5,1,6.8,2.6,9.8,4.8c0.7,0.5,1.3-0.6,0.6-1.1c-3.1-2.2-6.5-3.8-10.1-4.9
				C42.4,107,42,108.2,42.8,108.4L42.8,108.4z"/>
		</g>
	</g>
	<g id="XMLID_55_">
		<g>
			<path class="st6" d="M62.1,117.6c1.7,0.1,3.4,0.2,5.2,0.4c0.8,0.1,0.8-1.2,0-1.2c-1.7-0.1-3.4-0.2-5.2-0.4
				C61.3,116.3,61.3,117.6,62.1,117.6L62.1,117.6z"/>
		</g>
	</g>
	<g id="XMLID_57_">
		<g>
			<path class="st6" d="M75,118.5c3.1-0.4,6.1-0.8,9.2-1.2c0.8-0.1,0.8-1.4,0-1.2c-3.1,0.4-6.1,0.8-9.2,1.2
				C74.2,117.3,74.2,118.6,75,118.5L75,118.5z"/>
		</g>
	</g>
	<g id="XMLID_58_">
		<g>
			<path class="st6" d="M94.9,116.9c0.9,0.4,1.7,0.7,2.6,1.1c0.3,0.1,0.7,0.1,0.9-0.2c0.2-0.3,0.1-0.7-0.2-0.9
				c-0.9-0.4-1.7-0.7-2.6-1.1c-0.3-0.1-0.7-0.1-0.9,0.2C94.5,116.3,94.6,116.8,94.9,116.9L94.9,116.9z"/>
		</g>
	</g>
	<g id="XMLID_60_">
		<g>
			<path class="st6" d="M103.2,121.8c1.5,0.4,2.9,0.8,4.4,1.1c0.8,0.2,1.1-1,0.3-1.2c-1.5-0.4-2.9-0.8-4.4-1.1
				C102.7,120.3,102.4,121.6,103.2,121.8L103.2,121.8z"/>
		</g>
	</g>
	<g id="XMLID_62_">
		<g>
			<path class="st6" d="M119.9,125.1c2.4,0.1,4.8,0,7.2-0.4c0.8-0.1,0.5-1.3-0.3-1.2c-2.3,0.3-4.5,0.4-6.8,0.3
				C119.1,123.8,119.1,125,119.9,125.1L119.9,125.1z"/>
		</g>
	</g>
	<g id="XMLID_69_">
		<g>
			<path class="st6" d="M136.5,125.8c1.2-0.5,2.4-0.8,3.7-0.8c0.8,0,0.8-1.2,0-1.2c-1.5,0-3,0.3-4.3,0.9
				C135.1,125,135.7,126.1,136.5,125.8L136.5,125.8z"/>
		</g>
	</g>
	<g id="XMLID_76_">
		<g>
			<path class="st6" d="M153.2,125.5c1.1,0.2,2.2,0.4,3.3,0.6c0.8,0.1,1.1-1.1,0.3-1.2c-1.1-0.2-2.2-0.4-3.3-0.6
				C152.8,124.1,152.4,125.3,153.2,125.5L153.2,125.5z"/>
		</g>
	</g>
	<g id="XMLID_83_">
		<g>
			<path class="st6" d="M161.1,129.1c2.2,0.2,4.3,0.8,6.3,1.8c0.7,0.4,1.4-0.7,0.6-1.1c-2.2-1.1-4.5-1.7-6.9-2
				C160.3,127.8,160.4,129,161.1,129.1L161.1,129.1z"/>
		</g>
	</g>
	<g id="XMLID_90_">
		<g>
			<path class="st6" d="M176.1,133.5c3.2,0.9,6.4,1.2,9.7,1.1c0.8,0,0.8-1.3,0-1.2c-3.2,0.2-6.3-0.2-9.4-1
				C175.6,132.1,175.3,133.3,176.1,133.5L176.1,133.5z"/>
		</g>
	</g>
	<g id="XMLID_98_">
		<g>
			<path class="st6" d="M198.1,134.3c1.8-0.4,3.5-0.5,5.3-0.4c0.8,0,0.8-1.2,0-1.2c-1.9-0.1-3.8,0.1-5.7,0.4
				C197,133.2,197.4,134.5,198.1,134.3L198.1,134.3z"/>
		</g>
	</g>
	<path id="XMLID_2971_" class="st7" d="M206.7,149.6h-1.2c0-0.6-0.5-1-1.1-1h-0.5c0,0,0-0.1,0-0.1c0-0.6-0.5-1.1-1.1-1.1h-3.3
		c-0.6,0-1.1,0.5-1.1,1.1c0,0,0,0.1,0,0.1h-2.5c-0.6,0-1,0.4-1.1,1h-1c-0.6,0-1.1,0.5-1.1,1.1c0,0.6,0.5,1.1,1.1,1.1h12.8
		c0.6,0,1.1-0.5,1.1-1.1C207.7,150.1,207.2,149.6,206.7,149.6z"/>
	<path id="XMLID_2961_" class="st7" d="M37.6,135.7h-1.2c0-0.6-0.5-1-1.1-1h-0.5c0,0,0-0.1,0-0.1c0-0.6-0.5-1.1-1.1-1.1h-3.3
		c-0.6,0-1.1,0.5-1.1,1.1c0,0,0,0.1,0,0.1h-2.5c-0.6,0-1,0.4-1.1,1h-1c-0.6,0-1.1,0.5-1.1,1.1c0,0.6,0.5,1.1,1.1,1.1h12.8
		c0.6,0,1.1-0.5,1.1-1.1C38.7,136.2,38.2,135.7,37.6,135.7z"/>
	<path id="XMLID_2962_" class="st0" d="M92.1,156.4h-1.2c0-0.6-0.5-1-1.1-1h-0.5c0,0,0-0.1,0-0.1c0-0.6-0.5-1.1-1.1-1.1h-3.3
		c-0.6,0-1.1,0.5-1.1,1.1c0,0,0,0.1,0,0.1h-2.5c-0.6,0-1,0.4-1.1,1h-1c-0.6,0-1.1,0.5-1.1,1.1c0,0.6,0.5,1.1,1.1,1.1h12.8
		c0.6,0,1.1-0.5,1.1-1.1C93.2,156.8,92.7,156.4,92.1,156.4z"/>
	<path id="XMLID_2955_" class="st8" d="M176.8,115.2h-0.3c0-0.1,0-0.2,0-0.2c0-0.6-0.5-1.1-1.1-1.1h-1.6c0.1-0.2,0.1-0.3,0.1-0.5
		c0-0.7-0.6-1.4-1.4-1.4h-2c-0.7,0-1.4,0.6-1.4,1.4c0,0.2,0,0.3,0.1,0.5h-1.4c-0.6,0-1.1,0.5-1.1,1.1c0,0.1,0,0.2,0,0.2h-1.2
		c-0.6,0-1.2,0.5-1.2,1.2s0.5,1.2,1.2,1.2h11.2c0.6,0,1.2-0.5,1.2-1.2S177.4,115.2,176.8,115.2z"/>
</g>
<text transform="matrix(1 0 0 1 46.6245 136.9268)" class="st9 st10 st11">Des pass seront bientôt</text>
<text transform="matrix(1 0 0 1 128.4224 136.9268)" class="st9 st10 st11"> </text>
<text transform="matrix(1 0 0 1 46.6245 146.7197)" class="st9 st10 st11">disponibles pour ce pays</text>
</svg>
