<svg xmlns="http://www.w3.org/2000/svg" xmlns:xlink="http://www.w3.org/1999/xlink" width="287" height="258" viewBox="0 0 287 258">
    <defs>
        <path id="a" d="M0 .099h101.935V30H0z"/>
    </defs>
    <g fill="none" fill-rule="evenodd">
        <path fill="#4BB4E6" fill-opacity=".2" d="M251.444 123.39a30.425 30.425 0 0 0-3.332-.372c-5.242-.318-10.439-2.383-15.426-6.135-5.441-4.094-11.131-6.18-16.857-6.18h-8.853c-4.472 0-8.904-1.932-13.064-5.695l-8.574-7.756c-7.099-6.422-14.663-9.72-22.295-9.72h-29.399c-4.74 0-9.393-2.938-13.464-8.504-8.501-11.621-18.215-17.757-28.114-17.757H75.121c-7.43 0-14.686-5.146-20.817-14.762l-1.913-3c-4.177-6.552-9.07-10.292-14.127-10.799l-18.18-1.82c-5.531-.554-10.61-7.158-13.655-17.755C4.804 7.482 2.577 2.986 0 0v258c2.577-2.986 4.804-7.482 6.429-13.135 3.045-10.597 8.124-17.201 13.655-17.755l18.18-1.82c5.056-.507 9.95-4.247 14.127-10.799l1.913-3c6.13-9.616 13.387-14.762 20.817-14.762h16.945c9.899 0 19.613-6.136 28.114-17.757 4.071-5.566 8.724-8.504 13.464-8.504h29.4c7.631 0 15.195-3.298 22.294-9.72l8.574-7.756c4.16-3.763 8.592-5.696 13.064-5.696h8.853c5.726 0 11.416-2.085 16.857-6.179 4.987-3.752 10.184-5.817 15.426-6.135a30.425 30.425 0 0 0 3.332-.371l8.556-1.475v-8.271l-8.556-1.476z"/>
        <path fill="#B5E8F7" d="M205.39 193.8c0-1.43-1.175-2.6-2.611-2.6h-2.068c0-1.43-1.175-2.6-2.61-2.6h-.052c0-1.43-1.174-2.6-2.61-2.6h-3.948a2.613 2.613 0 0 0-2.61 2.6h-.052a2.613 2.613 0 0 0-2.61 2.6h-3.262a2.613 2.613 0 0 0-2.61 2.6h-2.736a2.613 2.613 0 0 0-2.611 2.6c0 1.43 1.175 2.6 2.61 2.6h27.78c1.435 0 2.61-1.17 2.61-2.6 0-1.43-1.175-2.6-2.61-2.6"/>
        <path fill="#4BB4E6" d="M238.756 91.5h2.495c0-.963.79-1.75 1.757-1.75h3.93c0-.963.79-1.75 1.757-1.75h6.238c.966 0 1.756.787 1.756 1.75h.957c.967 0 1.757.787 1.757 1.75h1.84c.967 0 1.757.787 1.757 1.75s-.79 1.75-1.756 1.75h-22.488A1.758 1.758 0 0 1 237 93.25c0-.963.79-1.75 1.756-1.75"/>
        <path fill="#4BB4E6" fill-opacity=".2" d="M88.96 166h-4.318c0-1.65-1.368-3-3.04-3h-6.803c0-1.65-1.368-3-3.04-3H60.963c-1.672 0-3.04 1.35-3.04 3h-1.657c-1.672 0-3.04 1.35-3.04 3H50.04c-1.672 0-3.04 1.35-3.04 3s1.368 3 3.04 3h38.92c1.672 0 3.04-1.35 3.04-3s-1.368-3-3.04-3"/>
        <path fill="#FFF" d="M50.377 77.5h-.44c0-2.063-1.63-3.75-3.624-3.75h-.9c0-2.063-1.63-3.75-3.623-3.75h-4.148c-1.993 0-3.623 1.687-3.623 3.75h-1.975c-1.993 0-3.624 1.687-3.624 3.75h-3.797C22.631 77.5 21 79.187 21 81.25c0 2.063 1.63 3.75 3.623 3.75h25.754C52.369 85 54 83.313 54 81.25c0-2.063-1.63-3.75-3.623-3.75"/>
        <g transform="matrix(-1 0 0 1 287 108)">
            <mask id="b" fill="#fff">
                <use xlink:href="#a"/>
            </mask>
            <path fill="#D6D6D6" d="M3.98 20.614s3.724-4.722 13.204-4.866c13.991-.214 56.947.268 56.947.268s5.076-.058 8.255-3.508C84.996 9.676 91.144 3.15 93.264.902a2.54 2.54 0 0 1 1.807-.798L101.935.1l-.72 1.478-7.09 15.818c-.2.447-.52.824-.93 1.092-3.264 2.131-19.129 11.441-47.324 11.511-38.005.095-54.01-4.012-41.89-9.384" mask="url(#b)"/>
        </g>
        <path fill="#1D1D1B" d="M241.155 137.998c-13.744-.034-24.553-2.31-32.402-4.882h77.548c-3.374 2.999-19.081 4.948-45.146 4.882"/>
        <path fill="#FF7900" d="M189.596 109.49h-3.882L185 108l6.812.006c.682.012 1.326.3 1.794.803 2.104 2.267 8.207 8.846 10.797 11.701 3.155 3.479 8.193 3.537 8.193 3.537h-9.023c-.766 0-1.49-.353-1.971-.959l-10.034-12.64a2.518 2.518 0 0 0-1.972-.958"/>
        <path fill="#595959" d="M276.814 128.93h6.344c-.717-1.008-2.184-2.093-2.184-2.093h-4.989c-.123 0-.202.149-.143.271l.829 1.726c.028.06.083.096.143.096M267.264 129.628c.48 0 .873-.316.873-.702v-1.038c0-.386-.393-.702-.873-.702s-.874.316-.874.702v1.038c0 .386.393.702.874.702M265.168 129.628c.48 0 .873-.316.873-.702v-1.038c0-.386-.393-.702-.873-.702s-.873.316-.873.702v1.038c0 .386.392.702.873.702M262.723 129.628c.48 0 .873-.316.873-.702v-1.038c0-.386-.393-.702-.873-.702s-.874.316-.874.702v1.038c0 .386.393.702.874.702M259.928 129.628c.48 0 .873-.316.873-.702v-1.038c0-.386-.393-.702-.873-.702s-.873.316-.873.702v1.038c0 .386.393.702.873.702M257.483 129.628c.48 0 .873-.316.873-.702v-1.038c0-.386-.393-.702-.873-.702s-.873.316-.873.702v1.038c0 .386.393.702.873.702M254.688 129.628c.48 0 .874-.316.874-.702v-1.038c0-.386-.393-.702-.874-.702-.48 0-.873.316-.873.702v1.038c0 .386.393.702.873.702M252.243 129.628c.48 0 .873-.316.873-.702v-1.038c0-.386-.392-.702-.873-.702-.48 0-.873.316-.873.702v1.038c0 .386.393.702.873.702M249.449 129.628c.48 0 .873-.316.873-.702v-1.038c0-.386-.393-.702-.873-.702s-.874.316-.874.702v1.038c0 .386.393.702.874.702M247.003 129.628c.48 0 .874-.316.874-.702v-1.038c0-.386-.393-.702-.874-.702-.48 0-.873.316-.873.702v1.038c0 .386.393.702.873.702M242.113 129.628c.48 0 .873-.316.873-.702v-1.038c0-.386-.393-.702-.873-.702s-.873.316-.873.702v1.038c0 .386.393.702.873.702M236.873 129.628c.48 0 .874-.316.874-.702v-1.038c0-.386-.394-.702-.874-.702s-.873.316-.873.702v1.038c0 .386.393.702.873.702M234.428 129.628c.48 0 .873-.316.873-.702v-1.038c0-.386-.393-.702-.873-.702s-.873.316-.873.702v1.038c0 .386.393.702.873.702M231.633 129.628c.48 0 .874-.316.874-.702v-1.038c0-.386-.393-.702-.874-.702-.48 0-.873.316-.873.702v1.038c0 .386.393.702.873.702M229.538 129.628c.48 0 .873-.316.873-.702v-1.038c0-.386-.393-.702-.873-.702s-.874.316-.874.702v1.038c0 .386.393.702.874.702M226.743 129.628c.48 0 .873-.316.873-.702v-1.038c0-.386-.393-.702-.873-.702s-.873.316-.873.702v1.038c0 .386.393.702.873.702M224.298 129.628c.48 0 .873-.316.873-.702v-1.038c0-.386-.393-.702-.873-.702s-.873.316-.873.702v1.038c0 .386.393.702.873.702M221.504 129.628c.48 0 .873-.316.873-.702v-1.038c0-.386-.393-.702-.873-.702s-.874.316-.874.702v1.038c0 .386.393.702.874.702M219.058 129.628c.48 0 .874-.316.874-.702v-1.038c0-.386-.394-.702-.874-.702s-.873.316-.873.702v1.038c0 .386.393.702.873.702M216.613 129.628c.48 0 .873-.316.873-.702v-1.038c0-.386-.393-.702-.873-.702s-.873.316-.873.702v1.038c0 .386.393.702.873.702M214.168 129.628c.48 0 .873-.316.873-.702v-1.038c0-.386-.393-.702-.873-.702s-.873.316-.873.702v1.038c0 .386.392.702.873.702"/>
        <path fill="#595959" d="M250.132 133.505c-3.412 1.34-13.794.995-16.405.883a1.91 1.91 0 0 1-1.073-.385l-9.928-7.515 3.305.059s22.953 4.923 23.994 5.16c0 0 .996.19.996.792 0 .709-.889 1.006-.889 1.006"/>
        <path fill="#8F8F8F" d="M203.387 126.167c-1.763.614-7.02.181-8.34.06a.955.955 0 0 1-.535-.227l-5.32-4.047 1.55.004s12.113 3.123 12.635 3.272c0 0 .5.123.486.436-.018.369-.476.502-.476.502M234.253 134.86c0 2.791 1.925 2.791 6.623 2.791s4.555 0 4.555-2.79c0-2.791.143-2.791-4.555-2.791-4.698 0-6.623 0-6.623 2.79"/>
        <path fill="#FF7900" d="M270.757 131.023c.672 0 1.222-.587 1.222-1.304v-1.926c0-.718-.55-1.305-1.222-1.305-.673 0-1.223.587-1.223 1.305v1.926c0 .717.55 1.304 1.223 1.304M211.024 131.023c.672 0 1.223-.587 1.223-1.304v-1.926c0-.718-.55-1.305-1.223-1.305-.672 0-1.223.587-1.223 1.305v1.926c0 .717.55 1.304 1.223 1.304"/>
        <text fill="#FB7900" font-family="HelveticaNeueLTStd-Bd, Helvetica Neue LT Std" font-size="14" font-weight="bold">
            <tspan x="16" y="115">Des pass seront bientôt</tspan> <tspan x="16" y="134">disponibles pour ce pays</tspan>
        </text>
    </g>
</svg>
