<svg xmlns="http://www.w3.org/2000/svg" xmlns:xlink="http://www.w3.org/1999/xlink" width="51" height="51" viewBox="0 0 51 51">
    <defs>
        <circle id="a" cx="23.5" cy="23.5" r="23.5"/>
        <path id="c" d="M.063.1h7.079v13.787H.062z"/>
        <path id="e" d="M.152.132h22.446v25.305H.152z"/>
    </defs>
    <g fill="none" fill-rule="evenodd">
        <circle cx="23.5" cy="23.5" r="23.5" fill="#FFF" transform="translate(2 2)"/>
        <g transform="translate(2 2)">
            <mask id="b" fill="#fff">
                <use xlink:href="#a"/>
            </mask>
            <circle cx="23.5" cy="23.5" r="24.5" stroke="#FAFAFA" stroke-width="2"/>
            <g mask="url(#b)">
                <g transform="translate(20.45 37.368)">
                    <mask id="d" fill="#fff">
                        <use xlink:href="#c"/>
                    </mask>
                    <path fill="#62352E" d="M7.142.348s-.57 7.136-.554 9.111c.005.556-1.098 2.53-1.907 3.9-.39.663-1.33.71-1.786.092L.063 9.6S.607 4.648.35.102c0 0 4.498 5.36 6.792.247" mask="url(#d)"/>
                </g>
                <path fill="#62352E" d="M15.353 27.707c-.096-.986-1.15-1.699-2.138-1.62-.239.02-.486.081-.66.244-.231.214-.29.552-.315.865-.14 1.827.47 3.628 1.21 5.304.288.65.639 1.335 1.272 1.656.233.118.527.175.749.036.133-.083.218-.223.293-.361.311-.573.53-1.196.645-1.838l-1.056-4.286M31.407 28.602a4.7 4.7 0 0 1 1.096-2.093c.11-.122.236-.242.396-.281a.704.704 0 0 1 .416.051c.527.207.903.702 1.082 1.239.18.537.185 1.116.152 1.681a12.834 12.834 0 0 1-1.237 4.786c-.156.324-.334.652-.619.872-.285.219-.704.302-1.006.106-.325-.212-.401-.648-.448-1.033l.168-5.328"/>
                <g transform="translate(12.391 5.993)">
                    <mask id="f" fill="#fff">
                        <use xlink:href="#e"/>
                    </mask>
                    <path fill="#030303" d="M2.255 24.034C1.938 19.873-.297 6.667.232 5.654 1.083 4.027 7.34.132 11.402.132c3.546 0 10.84 3.599 11.171 4.393.268.64-1.75 17.035-2.563 20.87a85.723 85.723 0 0 0-13.173.042l-4.582-1.403" mask="url(#f)"/>
                </g>
                <path fill="#725048" d="M21.579 43.427c.715.808 3.033.845 3.864.157 4.575-3.786 7.028-10.448 7.028-11.152 0-2.29-.836-13.115-1.708-14.532-.267-.435-1.54-.03-3.222.374-1.254.302-2.734.604-4.193.558-2.967-.094-5.961-1.895-6.772-.932 0 0-2.093 11.48-1.766 13.224.098.526-.376 4.228 6.769 12.303"/>
                <path fill="#62352E" d="M28.498 36.324l-.083-.12a4.987 4.987 0 0 0-.206-.278c-.177-.215-.361-.455-.654-.794 0 0 .051-.023.145-.031a.71.71 0 0 1 .378.076.877.877 0 0 1 .4.42c.097.203.125.48.02.727M19.27 36.24c.006.006-.125-.164-.05-.445a.63.63 0 0 1 .27-.365.453.453 0 0 1 .492 0s-.129.152-.216.3a.98.98 0 0 1-.171.208c-.074.072-.183.134-.326.301M26.334 37.75l-.089.103c-.059.066-.144.166-.266.277a3.959 3.959 0 0 1-1.138.766 3.43 3.43 0 0 1-.893.245c-.327.042-.68.037-1.034-.034a3.391 3.391 0 0 1-1.922-1.14s.04.02.115.054a6.485 6.485 0 0 0 1.488.457 4.873 4.873 0 0 0 1.691.003c.63-.107 1.317-.359 2.048-.73M20.878 27.629l-.307-.178c-.194-.11-.47-.275-.82-.39a2.023 2.023 0 0 0-.574-.1 5.153 5.153 0 0 0-.677.04 4.69 4.69 0 0 0-.72.118c-.238.064-.474.162-.664.343l.045-.074c.031-.046.081-.115.163-.189.16-.15.452-.312.831-.405.19-.048.395-.083.622-.108.226-.023.481-.028.742.036.26.062.509.186.733.346.225.16.428.353.626.56M29.825 27.629l-.306-.178c-.194-.11-.471-.275-.82-.39a2.023 2.023 0 0 0-.575-.1 5.155 5.155 0 0 0-.676.04 4.69 4.69 0 0 0-.721.118c-.238.064-.474.162-.663.343l.044-.074c.032-.046.082-.115.164-.189.16-.15.451-.312.83-.405.19-.048.396-.083.623-.108.226-.023.48-.028.742.036.26.062.508.186.733.346.225.16.428.353.625.56M23.173 28.724c.026-.186-.24-.249-.3-.07-.254.757-.551 1.633-.788 2.317-.312.898-.555 2.541-.212 2.884.343.343 1.093 1.038 2.598-.062.99-.723-1.092-.305-1.549-.59-.294-.184.002-2.702.251-4.48"/>
                <path fill="#62352E" d="M19.55 35.973c1.472.416 2.787.707 4.328.624 1.364-.073 2.873-.306 4.113-.893.124-.059.033-.24-.09-.213-.664.147-1.261.36-1.94.472-.743.122-1.482.234-2.236.264-1.427.055-2.713-.237-4.088-.568-.203-.05-.289.256-.086.314"/>
                <path fill="#725048" d="M32.893 31.449c.105-.637.243-1.27.439-1.885.058-.183.167-.832.41-.599.206.198.032.896.03 1.155 0 .11.16.16.213.057.194-.362.347-2.046-.442-1.787-.376.124-.475.76-.57 1.075-.19.639-.309 1.282-.372 1.944-.016.165.265.205.292.04M15.109 30.983c-.225-.723-.39-1.477-.7-2.17-.148-.33-.393-.749-.798-.788-1.063-.104-.525 1.882-.364 2.35.058.17.358.158.335-.045-.038-.345-.123-.682-.18-1.024-.027-.16-.096-.36-.076-.517.07-.535.47-.431.696-.061.409.67.665 1.567.808 2.332.033.181.335.103.279-.077"/>
                <path fill="#848484" d="M14.19 25.465l-.085-.015c0 .003-.22 1.28-.22 2.604 0 .557.038 1.121.15 1.605.113.484.297.892.608 1.127.441.33 1.15.612 1.964.816.815.203 1.734.327 2.59.327.802 0 1.548-.107 2.107-.364.26-.12.468-.324.63-.578.486-.76.597-1.978.599-3.008a15.13 15.13 0 0 0-.115-1.853l-.004-.03-.022-.02c-.009-.01-1.472-1.415-4.388-1.415-1.083 0-2.364.194-3.844.723l-.047.017-.008.05.084.014.03.08c1.462-.523 2.723-.713 3.785-.713 1.43 0 2.498.345 3.21.687.355.172.622.343.798.47a3.36 3.36 0 0 1 .246.197l.012.01.003.003.06-.061-.085.011.017.144c.033.278.097.932.096 1.686 0 .678-.051 1.437-.222 2.075-.085.319-.2.608-.349.84a1.34 1.34 0 0 1-.558.515c-.522.241-1.249.349-2.035.348-.84 0-1.747-.121-2.548-.321-.8-.2-1.495-.48-1.903-.788-.259-.191-.437-.562-.544-1.027-.107-.465-.146-1.018-.146-1.567 0-.652.054-1.297.109-1.778.027-.24.055-.44.075-.58.02-.138.034-.217.034-.217l-.085-.014.03.08-.03-.08M32.31 25.07l-.074.042.01.018c.097.174.887 1.662.886 3.28 0 .926-.256 1.89-1.04 2.693-.29.298-.81.529-1.444.678-.634.15-1.38.223-2.125.223-1.122 0-2.241-.165-2.963-.468-.259-.109-.468-.313-.637-.587-.254-.411-.412-.977-.505-1.572a11.626 11.626 0 0 1-.12-1.745 15.784 15.784 0 0 1 .048-1.217l.009-.099-.085-.008.057.063.005-.004c.097-.086 1.84-1.586 5.07-1.586.859 0 1.822.106 2.888.372l.02-.083-.074.042.075-.042.02-.083a12.053 12.053 0 0 0-2.928-.378c-3.392 0-5.182 1.627-5.19 1.635l-.025.022-.004.033c0 .002-.057.567-.057 1.333 0 .711.049 1.595.24 2.367.096.386.228.744.41 1.04.182.295.417.53.717.655.757.316 1.89.481 3.029.482.756 0 1.513-.074 2.164-.228.65-.155 1.196-.388 1.527-.725.822-.84 1.09-1.857 1.09-2.814-.002-1.784-.916-3.375-.919-3.382l-.018-.031-.036-.01-.02.084"/>
                <path fill="#FFF" d="M14.19 26.06a18.7 18.7 0 0 0-.021.185l.05.021-.028-.207"/>
                <path fill="#764F49" d="M14.22 26.245l-.006.031a11.25 11.25 0 0 0-.158 1.778c0 .068 0 .136.003.203.225.158.389.371.509.556.087.134.166.27.24.408-.121-.816-.302-1.83-.517-2.955a4.7 4.7 0 0 0-.071-.02m-.12 2.591c.033.276.087.542.168.784.156.464.414.834.788 1.026-.206-.617-.516-1.275-.957-1.81"/>
                <path fill="#242424" d="M15.367 25.19c-.353.092-.72.204-1.101.339a12.276 12.276 0 0 0-.075.53l.027.207c.148 1.126.272 2.139.355 2.955.084.229.158.462.227.697.073-1.17.3-2.922.567-4.728"/>
                <path fill="#846760" d="M18.004 24.832c-.773 0-1.652.101-2.637.358-.268 1.806-.494 3.558-.567 4.728.092.312.176.627.27.937.408.225.962.427 1.579.58.8.2 1.708.322 2.548.322h.004c.785 0 1.51-.107 2.03-.348a1.34 1.34 0 0 0 .56-.514c.149-.233.263-.522.348-.841.17-.638.223-1.397.222-2.075a15.416 15.416 0 0 0-.109-1.8 2.433 2.433 0 0 0-.24-.19 5.273 5.273 0 0 0-.798-.47c-.712-.342-1.78-.686-3.21-.687m-.888 2.63l.045-.074c.031-.046.081-.115.163-.189.16-.151.452-.312.83-.405.191-.048.396-.083.623-.108.092-.01.188-.015.288-.015.146 0 .3.013.454.05.26.063.509.187.733.347.226.16.428.353.626.56l-.307-.177c-.194-.11-.47-.275-.82-.39a2.03 2.03 0 0 0-.656-.101c-.186 0-.385.018-.595.04a4.671 4.671 0 0 0-.72.12c-.238.063-.474.161-.664.342"/>
                <path fill="#764F49" d="M19.065 26.67c-.1 0-.196.007-.288.016a4.52 4.52 0 0 0-.622.108c-.38.093-.671.254-.83.405a1.01 1.01 0 0 0-.209.263c.19-.18.426-.279.663-.343A4.71 4.71 0 0 1 18.5 27a5.885 5.885 0 0 1 .677-.04c.208.005.399.045.574.101.35.115.626.28.82.39l.307.178a4.351 4.351 0 0 0-.626-.561 2.145 2.145 0 0 0-.733-.346 1.92 1.92 0 0 0-.454-.051"/>
                <path fill="#846760" d="M14.058 28.257c.003.196.012.39.028.58.303.535.517 1.193.658 1.81l.002.001c.093.07.202.14.324.207-.094-.31-.178-.625-.27-.937-.07-.235-.143-.468-.227-.697a6.465 6.465 0 0 0-.165-.409 1.928 1.928 0 0 0-.35-.555"/>
                <path fill="#949494" d="M18.004 24.747c-1.072 0-2.344.192-3.815.718 0 0-.742 4.318.505 5.252.85.637 2.807 1.126 4.504 1.126.793 0 1.53-.107 2.07-.356 1.694-.783 1.065-5.35 1.065-5.35s-1.442-1.39-4.33-1.39m-2.636.443a10.449 10.449 0 0 1 2.637-.358c1.43 0 2.498.345 3.21.687.355.172.622.343.798.47a3.303 3.303 0 0 1 .24.19l.014.114c.031.278.095.932.095 1.687 0 .677-.051 1.436-.222 2.074-.085.32-.2.608-.349.84a1.34 1.34 0 0 1-.558.515c-.52.24-1.246.349-2.03.349h-.005c-.84 0-1.748-.122-2.548-.322-.617-.154-1.17-.356-1.58-.581a2.732 2.732 0 0 1-.323-.207h-.002c-.257-.193-.435-.563-.542-1.027a5.525 5.525 0 0 1-.116-.784 9.03 9.03 0 0 1-.03-.783c0-.652.054-1.297.109-1.778l.003-.03a24.593 24.593 0 0 1 .072-.55c.01-.074.02-.13.026-.167.38-.135.748-.247 1.101-.34"/>
                <path fill="#764F49" d="M33.053 27.486a106.67 106.67 0 0 1-.48 3.006c.103-.163.189-.33.26-.501.042-.176.089-.35.14-.526.035-.112.069-.266.116-.423a4.63 4.63 0 0 0 .043-.633c0-.315-.03-.626-.079-.923"/>
                <path fill="#242424" d="M31.967 25.077c.204 2.07.36 4.164.442 5.656.059-.079.114-.16.165-.24.142-.796.305-1.83.48-3.007a7.99 7.99 0 0 0-.8-2.342 13.425 13.425 0 0 0-.287-.067"/>
                <path fill="#846760" d="M29.403 24.78c-3.099 0-4.829 1.381-5.051 1.57l-.006.065-.02.274c-.013.235-.027.564-.027.943 0 .527.027 1.15.12 1.745.092.595.25 1.16.504 1.572.17.274.378.478.637.587.72.302 1.838.468 2.957.468h.006c.744 0 1.49-.072 2.125-.223.634-.15 1.153-.38 1.444-.678.117-.12.222-.243.317-.37a137.746 137.746 0 0 0-.442-5.656 11.698 11.698 0 0 0-2.564-.296m-3.339 2.68l.044-.073c.032-.046.082-.115.164-.189.16-.15.451-.312.83-.405.19-.048.396-.083.623-.108.091-.01.188-.015.288-.015.146 0 .299.013.454.05.26.063.508.187.733.347.225.16.428.353.625.56l-.306-.177c-.194-.11-.471-.275-.82-.39a2.017 2.017 0 0 0-.656-.101c-.186 0-.386.018-.595.04a4.71 4.71 0 0 0-.721.119c-.238.064-.474.162-.663.343"/>
                <path fill="#764F49" d="M28.013 26.67c-.1 0-.197.007-.288.016a4.52 4.52 0 0 0-.622.108c-.38.093-.671.254-.831.405a1.014 1.014 0 0 0-.208.263c.19-.18.425-.279.663-.343a4.71 4.71 0 0 1 .72-.119 5.885 5.885 0 0 1 .677-.04c.209.005.4.045.575.101.349.115.626.28.82.39l.306.178a4.351 4.351 0 0 0-.625-.561 2.145 2.145 0 0 0-.733-.346 1.92 1.92 0 0 0-.454-.051"/>
                <path fill="#846760" d="M33.09 29.042c-.048.157-.082.31-.116.423-.052.175-.099.35-.14.526a3.8 3.8 0 0 0 .255-.95"/>
                <path fill="#949494" d="M29.403 24.695c-3.363 0-5.133 1.613-5.133 1.613s-.464 4.586 1.257 5.307c.74.31 1.866.475 2.996.475 1.5 0 3.008-.292 3.63-.927 2.3-2.35.158-6.093.158-6.093l-.075.042.075-.042a11.969 11.969 0 0 0-2.908-.375m-5.051 1.655c.222-.189 1.953-1.57 5.05-1.57a11.698 11.698 0 0 1 2.852.364c.1.184.603 1.153.8 2.342.048.297.078.608.078.923 0 .21-.013.421-.043.633-.044.32-.126.639-.256.949a3.464 3.464 0 0 1-.424.742c-.095.127-.2.25-.317.37-.29.298-.81.529-1.444.678-.634.15-1.38.223-2.125.223h-.006c-1.12 0-2.236-.166-2.957-.468-.259-.109-.468-.313-.637-.587-.254-.411-.412-.977-.504-1.572a11.629 11.629 0 0 1-.12-1.745 15.784 15.784 0 0 1 .053-1.282"/>
                <path fill="#030303" d="M13.568 26.12c1.49-.612 3.184-.947 4.792-.875 2.092.094 3.49 1.833 5.602 1.477.648-.11.983-.511 1.597-.806 2.426-1.163 5.411-.684 7.904-.092.653.156.912-.854.26-1.01-2.507-.596-5.259-.996-7.766-.17a6.544 6.544 0 0 0-1.66.802c-.124.085-.257.254-.392.313-.335.144.482-.123.038-.08-1.015.098-1.475-.15-2.28-.629-.982-.585-2.195-.802-3.322-.847-1.694-.067-3.5.272-5.069.918-.613.252-.326 1.256.296 1"/>
                <path fill="#030303" d="M26.257 24.346c.686-.99 2.536-1.45 3.561-.714.337.242.658-.316.325-.555-1.336-.959-3.559-.328-4.442.944-.236.341.321.663.556.325M16.78 23.77c1.221-.701 2.608-.546 3.626.427.299.286.754-.168.454-.454-1.225-1.172-2.934-1.373-4.405-.527-.358.206-.035.762.325.555M20.608 28.817c-.266.05-.537.138-.809.137-.73.134-2.676-.312-2.874-.403-.186.113-.253.434 0 .573 1.078.591 3.002.69 4.026-.104.158-.123.206-.192.124-.326-.15.054-.306.092-.467.123"/>
                <path fill="#030303" d="M18.125 29.687a.77.77 0 0 0 .678.48c.31.02.64-.008.89-.222.312-.269.189-.755-.2-.611-.104.038-.681.322-.757.153-.072-.16-.227-.262-.405-.206-.153.048-.277.247-.206.406M29.398 28.64c-.53.394-2.786.273-3.093.199a3.68 3.68 0 0 1-.722-.245c-.11.143-.048.339.153.455 1.065.613 2.966.908 4.007.135.33-.245-.012-.79-.345-.543"/>
                <path fill="#030303" d="M26.87 29.655a.77.77 0 0 0 .66.504c.31.031.63-.007.897-.19.34-.233.217-.747-.177-.618-.106.035-.693.298-.762.127-.066-.163-.218-.27-.398-.221-.154.042-.286.237-.22.398"/>
            </g>
        </g>
    </g>
</svg>
