<svg xmlns="http://www.w3.org/2000/svg" xmlns:xlink="http://www.w3.org/1999/xlink" width="1280" height="300" viewBox="0 0 1280 300">
    <defs>
        <path id="a" d="M0 300h1280V0H0z"/>
    </defs>
    <g fill="none" fill-rule="evenodd">
        <path fill="#57C2EE" d="M0 300h1280V0H0z"/>
        <g>
            <path fill="#58585B" d="M1130.611 153.657h-133.17a2.922 2.922 0 0 1-2.923-2.922v-20.502a2.922 2.922 0 0 1 2.922-2.922h133.171a2.922 2.922 0 0 1 2.922 2.922v20.502a2.922 2.922 0 0 1-2.922 2.922"/>
            <mask id="b" fill="#fff">
                <use xlink:href="#a"/>
            </mask>
            <path fill="#58585B" d="M1056.178 300h18.502V144.128h-18.502z" mask="url(#b)"/>
            <path fill="#472F90" d="M1111.994 127.23h-95.08a4.203 4.203 0 0 1-4.204-4.202V59.13a4.202 4.202 0 0 1 4.203-4.202h95.081a4.202 4.202 0 0 1 4.203 4.202v63.898a4.203 4.203 0 0 1-4.203 4.203" mask="url(#b)"/>
            <path fill="#FDFDFD" d="M1099.574 121.405h-73.667a3.944 3.944 0 0 1-3.944-3.944V64.354a3.944 3.944 0 0 1 3.944-3.944h73.667a3.944 3.944 0 0 1 3.944 3.944v53.107a3.944 3.944 0 0 1-3.944 3.944" mask="url(#b)"/>
            <path fill="#F3801F" d="M1084.392 90.472c0 11.063-8.968 20.032-20.032 20.032-11.063 0-20.031-8.969-20.031-20.032s8.968-20.032 20.032-20.032c11.063 0 20.031 8.97 20.031 20.032" mask="url(#b)"/>
            <path fill="#CBCDCF" d="M1109.685 87.842a2.632 2.632 0 0 0-2.63 2.63 2.632 2.632 0 0 0 2.63 2.63 2.632 2.632 0 0 0 2.63-2.63 2.632 2.632 0 0 0-2.63-2.63m0 6.88a4.255 4.255 0 0 1-4.249-4.25 4.254 4.254 0 0 1 4.25-4.25 4.254 4.254 0 0 1 4.248 4.25 4.255 4.255 0 0 1-4.249 4.25" mask="url(#b)"/>
            <path fill="#FFF" d="M1058.088 101.601V78.534l16.592 12.141z" mask="url(#b)"/>
            <path fill="#FDFDFD" d="M976.412 47.202l3.512 2.544c1.72 1.246 4.584.35 5.537-1.452 1.108-2.098.384-4.207-1.452-5.537l-3.512-2.544c-1.72-1.246-4.584-.351-5.537 1.452-1.108 2.098-.384 4.207 1.452 5.537M989.685 36.178l4.337 6.94c1.158 1.851 3.611 2.578 5.537 1.451 1.848-1.08 2.615-3.676 1.452-5.537l-4.337-6.939c-1.158-1.852-3.61-2.578-5.537-1.452-1.848 1.081-2.615 3.676-1.452 5.537M1008.325 28.018c-.372 3.275-.018 6.608.95 9.757 1.528 4.963 9.343 2.846 7.806-2.152-.78-2.534-.962-4.97-.662-7.605.247-2.175-2.037-4.047-4.047-4.047-2.393 0-3.8 1.866-4.047 4.047M1032.569 26.523l1.739 7.807c.476 2.134 2.946 3.385 4.978 2.827 2.198-.604 3.304-2.838 2.827-4.98l-1.74-7.805c-.475-2.134-2.945-3.386-4.977-2.826-2.198.604-3.304 2.838-2.827 4.977M1068.262 25.192c-.98 2.836-1.33 5.912-.947 8.89.28 2.166 1.66 4.046 4.047 4.046 1.97 0 4.328-1.864 4.047-4.047-.306-2.367-.12-4.485.658-6.737.714-2.066-.816-4.426-2.827-4.978-2.225-.612-4.26.753-4.978 2.826M1089.344 24.41c-.973 3.285-1.036 6.57-.463 9.929.368 2.156 3.022 3.364 4.978 2.827 2.282-.627 3.196-2.816 2.827-4.978-.324-1.899-.08-3.794.463-5.627 1.48-5.005-6.327-7.142-7.805-2.151M1118.438 28.884c.22 2.35.02 4.486-.688 6.733-.658 2.085.775 4.415 2.826 4.979 2.178.598 4.319-.735 4.978-2.827.901-2.856 1.256-5.901.977-8.884-.203-2.177-1.713-4.048-4.046-4.048-2.031 0-4.252 1.858-4.047 4.047M1139.98 35.618l-4.3 6.099c-1.225 1.735-.369 4.575 1.451 5.537 2.078 1.096 4.231.4 5.537-1.453l4.301-6.098c1.224-1.735.368-4.575-1.452-5.537-2.078-1.097-4.23-.4-5.537 1.453M1153.736 59.82c5.208 0 5.216-8.094 0-8.094-5.208 0-5.217 8.094 0 8.094" mask="url(#b)"/>
            <path fill="#58585B" d="M999.625 135.002l.405-.405c1.844-1.844-1.017-4.706-2.862-2.861l-.405.404c-1.843 1.844 1.017 4.707 2.862 2.862" mask="url(#b)"/>
            <path fill="#FDFDFD" d="M999.409 137.213h127.475c2.604 0 2.609-4.047 0-4.047H999.408c-2.604 0-2.607 4.047 0 4.047" mask="url(#b)"/>
            <path fill="#F3801F" d="M618.42 180.19l-6.582-14.326a6.993 6.993 0 0 1-.33-4.978l2.089-6.79c.903-2.935 3.616-4.94 6.413-6.586h32.934c3.272 1.647 5.937 3.557 6.9 6.396l2.608 7.685a6.998 6.998 0 0 1-.518 5.66l-6.793 12.155a6.998 6.998 0 0 0 .352 7.39l5.414 7.837a6.997 6.997 0 0 1 .267 7.536l-2.832 4.793a6.997 6.997 0 0 1-6.024 3.437H622.43c-2.34 0-6.574-.4-7.872-2.347l-3.562-5.342c-1.573-2.36.485-6.205 2.068-8.557l4.802-7.134a6.996 6.996 0 0 0 .553-6.828" mask="url(#b)"/>
            <path fill="#FFE800" d="M627.706 152.727h19.487a6.998 6.998 0 0 1 5.716 2.962l2.04 2.892a6.996 6.996 0 0 1 .49 7.265l-6.584 12.65a7 7 0 0 0 .335 7.037l2.234 3.446c2.563 3.954.563 9.26-3.972 10.54l-.646.181a7.008 7.008 0 0 1-1.9.263h-17.42a6.995 6.995 0 0 1-2.664-.527c-4.137-1.703-5.634-6.798-3.078-10.468l3.208-4.606a6.999 6.999 0 0 0 .339-7.46l-5.872-10.315a6.997 6.997 0 0 1 .21-7.269l2.207-3.402a6.996 6.996 0 0 1 5.87-3.189" mask="url(#b)"/>
            <path fill="#000" d="M648.969 190.489h-24.852a.742.742 0 0 1-.742-.742v-27.12c0-.41.333-.741.742-.741h24.852c.41 0 .742.332.742.742v27.119c0 .41-.332.742-.742.742" mask="url(#b)"/>
            <path fill="#FFF" d="M626.384 187.873h20.317c.41 0 .742-.332.742-.742V165.07a.742.742 0 0 0-.742-.742h-20.317a.742.742 0 0 0-.742.742v22.06c0 .41.332.743.742.743" mask="url(#b)"/>
            <path fill="#000" d="M643.064 163.63h-13.043a.612.612 0 0 1-.606-.687l.586-4.707a.611.611 0 0 1 .606-.536h11.872c.308 0 .568.23.606.536l.587 4.707a.612.612 0 0 1-.608.687" mask="url(#b)"/>
            <path fill="#FFE800" d="M632.444 162.622h8.023v-2.791h-8.023z" mask="url(#b)"/>
            <path fill="#000" d="M630.04 190.061l13.043.081a.61.61 0 0 1 .602.69l-.614 4.704a.611.611 0 0 1-.61.532l-11.872-.074a.61.61 0 0 1-.603-.539l-.557-4.711a.612.612 0 0 1 .61-.683" mask="url(#b)"/>
            <path fill="#FFE800" d="M632.63 191.085l8.024.05-.018 2.79-8.022-.05z" mask="url(#b)"/>
            <path fill="#F3801F" d="M644.538 175.748a8.34 8.34 0 1 1-16.68 0 8.34 8.34 0 0 1 16.68 0" mask="url(#b)"/>
            <path fill="#FFF" d="M641.366 174.327c-.38-2.84-2.46-3.504-5.013-1.43-2.555-2.074-4.635-1.41-5.013 1.43-.372 2.787 4.799 7.02 5.003 7.187v.015l.01-.007.009.007v-.015c.204-.166 5.376-4.4 5.004-7.187" mask="url(#b)"/>
            <path fill="#000" d="M847.163 191.668h104.303c1.456 0 2.824.697 3.68 1.874l10.61 14.588c2.188 3.008.039 7.228-3.68 7.228H836.819c-3.695 0-5.85-4.17-3.713-7.183l10.345-14.59a4.55 4.55 0 0 1 3.712-1.917" mask="url(#b)"/>
            <path fill="#58585B" d="M883.145 211.912l3.446-7.322h28.427l3.877 7.322z" mask="url(#b)"/>
            <path fill="#000" d="M969.113 163.63H828.645a3.447 3.447 0 0 1-3.447-3.447V63.267a3.447 3.447 0 0 1 3.447-3.447h140.468a3.447 3.447 0 0 1 3.447 3.447v96.916a3.447 3.447 0 0 1-3.447 3.447" mask="url(#b)"/>
            <path fill="#FFF" d="M962.037 155.81H836.492a3.24 3.24 0 0 1-3.241-3.242V70.06a3.24 3.24 0 0 1 3.24-3.24h125.546a3.24 3.24 0 0 1 3.24 3.24v82.51a3.24 3.24 0 0 1-3.24 3.24" mask="url(#b)"/>
            <path fill="#000" d="M887.228 183.965h23.707v-24.144h-23.707z" mask="url(#b)"/>
            <path fill="#F3801F" d="M928.802 110.477c0 14.63-11.86 26.489-26.49 26.489-14.63 0-26.49-11.86-26.49-26.49 0-14.63 11.86-26.488 26.49-26.488 14.63 0 26.49 11.859 26.49 26.489" mask="url(#b)"/>
            <path fill="#FFF" d="M901.236 92.23l5.552 11.25 12.416 1.805-8.984 8.757 2.12 12.366-11.104-5.84-11.105 5.84 2.12-12.366-8.983-8.757 12.416-1.804z" mask="url(#b)"/>
            <path fill="#000" d="M889.893 174.726l-28.715 9.763h74.084l-27.566-9.19zM934.407 130.503c.183-.008 1.29.116.56-.032.101.021 1.04.268.705.16-.314-.103.52.287.63.348.305.211.314.214.028.008.143.126.28.258.41.397 1.182 1.211 3.397 1.276 4.567 0 1.196-1.302 1.263-3.276 0-4.568-1.792-1.835-4.328-2.885-6.9-2.774-1.686.073-3.31 1.434-3.23 3.231.075 1.687 1.422 3.308 3.23 3.23M940.915 119.343l2.764.941c1.601.546 3.603-.624 3.974-2.256.409-1.792-.543-3.39-2.257-3.974l-2.762-.94c-1.602-.546-3.604.624-3.975 2.255-.408 1.793.543 3.39 2.256 3.974M939.863 101.696c.921-.314 1.842-.628 2.764-.94 1.596-.545 2.815-2.246 2.256-3.975-.513-1.585-2.26-2.84-3.974-2.256l-2.764.941c-1.596.544-2.815 2.245-2.256 3.974.513 1.584 2.261 2.84 3.974 2.256M934.751 85.644l.923-2.77c.535-1.604-.617-3.6-2.256-3.974-1.783-.406-3.4.539-3.974 2.257l-.923 2.769c-.535 1.605.617 3.6 2.256 3.974 1.783.406 3.401-.538 3.974-2.256M915.317 79.168c.628-2.517-.04-4.883-1.687-6.842-1.092-1.298-3.457-1.21-4.568 0-1.268 1.38-1.165 3.184 0 4.569-.448-.533.012.087.084.218-.208-.38-.141-.213-.02.097.139.352.012-.663-.008.057-.02.696.153-.552-.031.183-.41 1.637.527 3.58 2.256 3.974 1.673.38 3.536-.502 3.974-2.256M887.873 75l-2.778-2.762c-1.2-1.193-3.386-1.289-4.57 0-1.18 1.286-1.28 3.295 0 4.568l2.78 2.761c1.2 1.193 3.385 1.29 4.568 0 1.18-1.286 1.28-3.295 0-4.568M873.53 80.723c.797-.154-.227-.017-.446-.031 1.067.07-.559-.19-.027-.033.372.11-.428-.248-.542-.324.303.243.32.243.05.002-.243-.27-.24-.254.003.047-.988-1.365-2.855-2.168-4.42-1.16-1.353.874-2.218 2.957-1.159 4.42 1.967 2.719 4.947 3.949 8.26 3.309 1.661-.321 2.763-2.403 2.255-3.974-.574-1.771-2.193-2.6-3.974-2.256M865.978 93.805l-2.777-.9c-1.61-.521-3.6.607-3.974 2.256-.403 1.77.534 3.416 2.256 3.974l2.777.9c1.609.52 3.599-.607 3.974-2.256.404-1.771-.534-3.416-2.256-3.974M866.92 108.517c-2.378-.71-5.106-.354-7.153 1.08-1.381.966-2.158 2.87-1.16 4.42.886 1.372 2.94 2.195 4.42 1.158.13-.09 1.124-.594.494-.356.272-.103.553-.163.834-.23-.652.157.13.03.29.025.384.028.384.023 0-.016.189.04.375.088.557.15 1.619.483 3.593-.58 3.974-2.257.396-1.738-.522-3.456-2.256-3.974M867.225 121.696c-1.231.615-2.462 1.23-3.693 1.847-1.516.757-2.063 3.019-1.16 4.419 1 1.549 2.8 1.969 4.42 1.159l3.693-1.846c1.515-.758 2.063-3.02 1.16-4.42-1-1.55-2.8-1.97-4.42-1.16" mask="url(#b)"/>
            <path fill="#58585B" d="M851.104 198.932l.826-.42c1.036-.529 1.336-1.985.773-2.947-.616-1.053-1.907-1.303-2.947-.773l-.826.421c-1.036.528-1.336 1.984-.773 2.946.616 1.053 1.907 1.303 2.947.773M860.359 199.595h2.073c2.772 0 2.776-4.307 0-4.307h-2.073c-2.771 0-2.776 4.307 0 4.307M873.212 200.01h.828c2.773 0 2.777-4.307 0-4.307h-.828c-2.771 0-2.776 4.307 0 4.307M884.406 200.01h2.902c2.772 0 2.776-4.307 0-4.307h-2.902c-2.771 0-2.776 4.307 0 4.307M894.62 199.876l3.72.503c1.152.155 2.312-.277 2.65-1.504.275-1.004-.344-2.493-1.504-2.65l-3.72-.502c-1.151-.156-2.312.276-2.65 1.504-.275 1.003.345 2.492 1.505 2.649M906.794 200.424h4.561c2.771 0 2.776-4.306 0-4.306h-4.56c-2.772 0-2.777 4.306 0 4.306M919.64 199.931l4.977-.406c1.159-.095 2.154-.922 2.154-2.154 0-1.092-.988-2.249-2.154-2.153l-4.976.406c-1.16.094-2.154.922-2.154 2.153 0 1.092.988 2.25 2.154 2.154M932.085 199.18h2.488c2.771 0 2.776-4.306 0-4.306h-2.488c-2.77 0-2.776 4.307 0 4.307M944.692 199.174l3.301-.518c1.15-.18 1.787-1.62 1.504-2.65-.337-1.225-1.496-1.684-2.649-1.503l-3.3.518c-1.15.18-1.788 1.618-1.505 2.649.337 1.226 1.496 1.685 2.65 1.504M847.268 206.19c-.464.001-.864-.205-1.2-.618.702.925 1.858 1.41 2.947.773.912-.533 1.48-2.014.773-2.947-.875-1.152-2.2-1.872-3.666-1.362-1.097.381-1.827 1.475-1.503 2.65.293 1.066 1.544 1.886 2.649 1.503M855.541 206.981l2.073-.415c1.141-.228 1.797-1.585 1.504-2.649-.327-1.189-1.505-1.733-2.649-1.504l-2.073.415c-1.14.228-1.797 1.585-1.504 2.65.327 1.188 1.505 1.732 2.65 1.503M866.163 207.473h2.073c2.772 0 2.776-4.307 0-4.307h-2.073c-2.77 0-2.776 4.307 0 4.307M877.357 207.473c2.772 0 2.777-4.307 0-4.307-2.77 0-2.775 4.307 0 4.307M923.379 207.058h3.317c2.77 0 2.776-4.307 0-4.307h-3.317c-2.771 0-2.776 4.307 0 4.307" mask="url(#b)"/>
            <path fill="#58585B" d="M931.256 207.058h2.073c2.771 0 2.776-4.307 0-4.307h-2.073c-2.772 0-2.776 4.307 0 4.307M941.194 206.455l9.548-.648c2.75-.187 2.772-4.496 0-4.308l-9.548.65c-2.751.186-2.771 4.494 0 4.306" mask="url(#b)"/>
            <path fill="#8071B2" d="M1127.1 161.373s37.93 6.556 53.851 3.278 46.36-1.405 50.105.936c3.746 2.342 0 10.771.468 12.175.47 1.405-4.214 37.93-13.58 39.803-9.365 1.874-37.929 0-51.509-1.404-13.58-1.405-31.843 8.897-49.169 4.682-17.326-4.214-27.159-14.048-26.223-17.794.937-3.746 30.906-42.144 36.057-41.676" mask="url(#b)"/>
            <path fill="#472F90" d="M1231.056 165.588c-.418-.262-1.188-.517-2.216-.761-1.097 2.659-2.121 5.34-2.702 8.125-1.586 7.599-3.242 15.147-6.637 22.191-5.64 11.702-19.048 14.09-30.758 12.14-7.802-1.3-15.277-4.036-23.064-5.396-9.197-1.607-17.839.445-26.792 2.458-6.895 1.552-14 2.715-21.057 1.464-9.212-1.635-17.79-6.114-26.639-1.09 1.495 4.45 10.918 12.438 26.075 16.125 17.326 4.214 35.59-6.088 49.17-4.683 13.579 1.404 42.144 3.278 51.509 1.404 9.366-1.873 14.048-38.398 13.58-39.803-.469-1.405 3.277-9.833-.469-12.174" mask="url(#b)"/>
            <path fill="#000" d="M1183.07 190.459h-37.654a3.031 3.031 0 0 1-3.031-3.031v-73.934a3.031 3.031 0 0 1 3.03-3.031h37.655a3.031 3.031 0 0 1 3.03 3.03v73.935a3.031 3.031 0 0 1-3.03 3.03" mask="url(#b)"/>
            <path fill="#FDFDFD" d="M1177.827 179.158h-27.763a3.813 3.813 0 0 1-3.813-3.813v-53.04a3.813 3.813 0 0 1 3.813-3.813h27.763a3.813 3.813 0 0 1 3.813 3.813v53.04a3.813 3.813 0 0 1-3.813 3.813" mask="url(#b)"/>
            <path fill="#F3801F" d="M1178.61 146.154c0 7.888-6.394 14.282-14.282 14.282s-14.282-6.394-14.282-14.282 6.394-14.282 14.282-14.282 14.282 6.394 14.282 14.282" mask="url(#b)"/>
            <path fill="#FFF" d="M1167.84 185.489a3.512 3.512 0 1 1-7.023.001 3.512 3.512 0 0 1 7.023-.001" mask="url(#b)"/>
            <path fill="#FDFDFD" d="M1161.136 154.817h5.299v-17.231h-5.299z" mask="url(#b)"/>
            <path fill="#FDFDFD" d="M1155.787 149.28h16.969v-4.821h-16.969zM1158.872 115.727h10.22v-2.892h-10.22z" mask="url(#b)"/>
            <path fill="#F3801F" d="M1151.244 136.287l.353-.702c.425-.847.224-1.902-.63-2.402-.78-.456-1.976-.22-2.403.63l-.353.701c-.425.848-.224 1.903.63 2.403.78.456 1.976.221 2.403-.63M1156.204 132.411l.351-.35c1.6-1.6-.882-4.085-2.483-2.485l-.35.352c-1.602 1.6.881 4.084 2.482 2.483M1162.815 130.787l2.108-.7c.9-.298 1.487-1.211 1.227-2.16-.242-.88-1.256-1.525-2.16-1.226l-2.11.699c-.898.299-1.486 1.212-1.225 2.16.242.88 1.256 1.527 2.16 1.227M1170.583 130.579l.702.35c.848.425 1.902.227 2.403-.63.455-.777.222-1.976-.63-2.401l-.702-.352c-.848-.423-1.902-.225-2.403.63-.455.779-.222 1.977.63 2.403M1176.202 134.09l.702.352c.848.424 1.902.226 2.403-.63.455-.778.222-1.977-.63-2.402l-.702-.352c-.848-.423-1.902-.225-2.403.63-.455.779-.222 1.977.63 2.403M1178.524 156.587c.01-.362.173-.675.491-.939-.754.573-1.15 1.515-.63 2.403.435.743 1.642 1.206 2.403.63.953-.723 1.543-1.816 1.122-3.028-.31-.895-1.202-1.489-2.16-1.226-.87.24-1.538 1.26-1.226 2.16M1171.642 163.381l-2.46 1.05c-.873.373-1.066 1.657-.63 2.402.528.904 1.527 1.005 2.403.63.819-.35 1.64-.7 2.46-1.048.872-.373 1.065-1.659.629-2.403-.527-.904-1.526-1.005-2.402-.63M1162.805 164.948l-1.054-.351c-.9-.3-1.918.346-2.16 1.226-.263.957.324 1.859 1.227 2.16l1.053.352c.9.299 1.919-.347 2.16-1.227.263-.957-.323-1.86-1.226-2.16M1156.866 162.63l-.69-.716c-1.572-1.629-4.053.856-2.483 2.484l.69.714c1.572 1.63 4.054-.855 2.483-2.483M1151.224 157.668l-.697-1.057c-.521-.79-1.553-1.127-2.402-.63-.786.46-1.155 1.607-.63 2.402l.696 1.058c.522.791 1.553 1.127 2.403.63.786-.46 1.154-1.608.63-2.403" mask="url(#b)"/>
            <path fill="#50BD86" d="M675.926 198.845s22.399-40.598 26.132-41.998c3.733-1.4 50.865-4.667 56.465-1.867 5.599 2.8 28.465-2.8 38.731-1.866 10.267.933 15.4 2.799 15.4 7.466 0 4.666-1.867 31.732-11.666 39.665-9.8 7.933-9.8 15.399-24.733 13.066-14.932-2.333-22.865-7.466-51.331-1.867-28.465 5.6-53.664-.466-48.998-12.6" mask="url(#b)"/>
            <path fill="#0A6E31" d="M808.597 155.363c-1.5 8.312-3.208 16.587-6.48 24.42-1.83 4.38-4.152 8.873-7.76 12.07-3.894 3.452-6.83 3.273-11.716 2.362-9.698-1.806-18.88 3.445-28.327 4.79-9.42 1.342-19.159-.963-28.492-2.081-16.35-1.96-35.804-5.574-50.39 3.896-1.33 10.797 22.619 15.91 49.492 10.625 28.466-5.6 36.399-.467 51.332 1.866s14.933-5.133 24.731-13.066c9.8-7.933 11.667-34.998 11.667-39.665 0-2.392-1.359-4.045-4.057-5.217" mask="url(#b)"/>
            <path fill="#000" d="M789.322 156.613V136.08h-57.164l-19.6 17.033v18.433l12.832 9.8 45.499-1.167z" mask="url(#b)"/>
            <path fill="#F3801F" d="M724.69 164.08l-8.05-7.7v12.95l8.05 7.349z" mask="url(#b)"/>
            <path fill="#58585B" d="M737.99 168.98c0 1.74-1.489 3.15-3.325 3.15s-3.325-1.41-3.325-3.15 1.49-3.15 3.325-3.15c1.836 0 3.325 1.41 3.325 3.15M750.834 168.98c0 1.74-1.489 3.15-3.325 3.15s-3.325-1.41-3.325-3.15 1.49-3.15 3.325-3.15c1.836 0 3.325 1.41 3.325 3.15M763.678 168.98c0 1.74-1.489 3.15-3.325 3.15s-3.325-1.41-3.325-3.15 1.489-3.15 3.325-3.15 3.325 1.41 3.325 3.15" mask="url(#b)"/>
            <path fill="#FDFDFD" d="M693.76 134.177l6.723 3.801c3.927 2.22 7.46-3.824 3.533-6.044l-6.723-3.801c-3.927-2.22-7.459 3.824-3.533 6.044M710.492 114.92c2.57 3.373 5.404 6.423 8.722 9.073 1.475 1.179 3.509 1.442 4.95 0 1.22-1.221 1.484-3.763 0-4.95-2.813-2.246-5.442-4.786-7.628-7.655-1.144-1.501-3.015-2.292-4.788-1.255-1.478.864-2.41 3.275-1.256 4.788M748.318 95.328c.847 4.723 2.299 9.177 4.219 13.568 1.8 4.117 7.834.558 6.045-3.533-1.665-3.806-2.782-7.813-3.514-11.896-.794-4.427-7.541-2.551-6.75 1.86M780.56 95.13v14.253c0 4.504 7 4.511 7 0V95.13c0-4.504-7-4.51-7 0M795.088 114.41l-.75.75c-1.297 1.297-1.393 3.671 0 4.95 1.397 1.282 3.566 1.383 4.949 0l.751-.75c1.296-1.297 1.392-3.67 0-4.95-1.398-1.283-3.567-1.383-4.95 0" mask="url(#b)"/>
            <path fill="#58585B" d="M719.441 154.63h.35c2.252 0 2.256-3.5 0-3.5h-.35c-2.252 0-2.256 3.5 0 3.5M726.44 155.68h1.4c2.253 0 2.257-3.5 0-3.5h-1.4c-2.251 0-2.255 3.5 0 3.5M734.84 155.68h.7c2.252 0 2.256-3.5 0-3.5h-.7c-2.252 0-2.256 3.5 0 3.5M742.54 156.73h2.8c2.252 0 2.256-3.5 0-3.5h-2.8c-2.252 0-2.256 3.5 0 3.5" mask="url(#b)"/>
            <path fill="#58585B" d="M749.54 157.08c2.252 0 2.256-3.5 0-3.5-2.252 0-2.256 3.5 0 3.5M758.29 157.08h1.75c2.251 0 2.255-3.5 0-3.5h-1.75c-2.253 0-2.257 3.5 0 3.5M768.903 155.25c.919-.133 1.61-.737 2.131-1.465.551-.77.135-1.948-.627-2.394-.88-.516-1.843-.143-2.395.627.104-.144.254-.185-.039-.143-.936.137-1.451 1.322-1.223 2.154.276 1.004 1.214 1.358 2.153 1.221M777.722 148.791l1.4-1.05c.755-.566 1.144-1.512.628-2.394-.435-.744-1.634-1.198-2.394-.628l-1.4 1.05c-.755.566-1.144 1.512-.628 2.394.435.744 1.633 1.198 2.394.628M783.293 143.584l1.77-1.73c1.613-1.576-.862-4.05-2.475-2.474l-1.77 1.729c-1.613 1.577.862 4.051 2.475 2.475" mask="url(#b)"/>
            <path fill="#58585B" d="M766.69 157.43v.35c0 2.252 3.5 2.256 3.5 0v-.35c0-2.252-3.5-2.256-3.5 0M767.389 163.73v1.05c0 2.252 3.5 2.256 3.5 0v-1.05c0-2.252-3.5-2.256-3.5 0M767.389 170.38v1.4c0 2.251 3.5 2.255 3.5 0v-1.4c0-2.253-3.5-2.257-3.5 0M768.252 180.016l.35.35c1.595 1.595 4.07-.879 2.475-2.475a57.747 57.747 0 0 1-.35-.35c-1.595-1.594-4.07.88-2.475 2.475" mask="url(#b)"/>
        </g>
        <path fill="#000" fill-opacity=".303" fill-rule="nonzero" d="M0 0h1280v300H0z"/>
    </g>
</svg>
