<svg xmlns="http://www.w3.org/2000/svg" xmlns:xlink="http://www.w3.org/1999/xlink" width="60" height="60" viewBox="0 0 60 60">
    <defs>
        <circle id="a" cx="30" cy="30" r="30"/>
    </defs>
    <g fill="none" fill-rule="evenodd">
        <mask id="b" fill="#fff">
            <use xlink:href="#a"/>
        </mask>
        <use fill="#F4CFB2" fill-rule="nonzero" xlink:href="#a"/>
        <g mask="url(#b)">
            <path fill="#01B877" d="M40.457 58.096c-.17.675-.03 1.357-.03 2.033 0 1.249.075 2.497.087 3.746.004.433.104.802.374 1.131.2.245.398.492.59.744.985 1.291 2.15 1.713 3.819 1.345 3.475-.766 6.986-1.398 10.554-1.568.716-.034 1.43.012 2.145.102 1.302.162 2.122.887 2.559 2.102.544 1.515.486 3.087.36 4.652-.115 1.425-.4 2.828-.727 4.22-.105.621-.473 1.057-.95 1.427-1.758 1.36-3.75 2.282-5.749 3.193-.344.157-.682.33-1.022.497-.892.158-1.783.283-2.686.076-.582-.133-1.178-.2-1.76-.335-.314-.25-.054-.44.088-.61.257-.305.54-.589.689-.791-2.644 2.125-5.728 3.586-9.203 4.19-1.166.203-2.356.349-3.37 1.06-.203.142-.419.267-.525.51-.459.375-1.044.537-1.497.925-.78.246-1.592.268-2.394.327-2.634.197-5.261.483-7.917.256-1.36-.116-2.73-.144-4.087-.322-.442-.058-.897-.065-1.31-.267-.18-.19-.043-.268.121-.323.278-.094.572-.02.909-.082-.608-.349-1.226-.595-1.723-1.04-.371-.585-1.014-.734-1.584-.971-1.412-.588-2.633-1.445-3.712-2.532-1.13-1.138-2.244-2.288-3.235-3.568.706 1.37 1.492 2.673 2.508 3.825.605.685 1.347 1.192 2.085 1.71.166.116.506.16.342.52-.732.072-1.411-.171-2.081-.402-.69-.238-1.342-.59-2.054-.77.006-.319-.234-.461-.438-.635-.885-.751-1.95-1.183-2.96-1.711-.354-.185-.727-.347-.915-.72.101.306.262.606.445.899.09.142.244.292.065.48-.555.083-1.094.475-1.674.09C2.576 80.215.785 78.645-.92 76.956c-1.25-1.237-1.676-2.67-1.42-4.391.302-2.024 1.042-3.838 2.33-5.419.26.173.292.452.295.724.012 1.193.822 1.979 1.418 2.872.12.18.299.22.405-.038.198-.482.423-.267.633-.022.313.365.51.283.652-.143.096-.285.237-.5.59-.322.283.143.476.062.548-.261.069-.304.205-.431.522-.266.4.208.527-.023.543-.388a3.385 3.385 0 0 0-.06-.883 3.808 3.808 0 0 1-.06-1.087c.082-1.196.749-1.691 2.114-1.58 1.621.373 3.136 1.062 4.691 1.63 1.137.414 2.27.832 3.43 1.18.934.282 1.76.197 2.51-.457.238-.206.497-.386.735-.593 1.11-.96 1.841-1.967 1.631-3.658-.226-1.827-.05-3.709-.19-5.563.086-1.457-.137-2.903-.14-4.356-.002-.395-.14-.756-.281-1.116a1374.542 1374.542 0 0 0-3.642-9.172c-.123-.307-.331-.607-.207-.973-.338-1.018-.34-1.022.557-1.59 2.142-1.355 4.27-2.738 6.534-3.882.199-.1.41-.174.616-.26.321.199.357.56.476.872 1.152 3.011 2.337 6.006 4.086 8.73.17.266.322.562.566.758.811.65.959 1.559.96 2.507.002 3.09.29 6.169.284 9.258 0 .333-.011.681.247 1.023.221-.272.161-.57.162-.843.005-3.068.003-6.136.003-9.205 0-.386.019-.77.056-1.156a2.909 2.909 0 0 1 .733-1.704c.688-.795 1.073-1.775 1.348-2.794.53-1.966.708-3.973.695-6.004-.002-.375-.1-.779.18-1.113 2.971 1.374 5.944 2.745 8.913 4.122.27.125.631.196.537.644.164.344.015.67-.064.995-.79 3.195-1.567 6.392-2.366 9.584-.122.49-.135.973-.124 1.478.03 1.334.15 2.672-.068 4.002"/>
            <path fill="#FFF" d="M35.996 19.101a1.162 1.162 0 0 0-.188-.19c-.19-.12-.394-.085-.596-.075.014 1.72.045 3.44-.094 5.155l.221.009.465-.251c.074-.063.138-.133.195-.209.552-1.479.55-2.958-.003-4.439"/>
            <path fill="#FFF" d="M37.27 19.003c-.268-.194-.567-.14-.855-.18.025.068.046.136.069.204a7.387 7.387 0 0 1 .003 4.75c-.024.074-.049.149-.075.223.605-.17.934-.71 1.137-1.44.346-1.25.06-2.405-.279-3.557"/>
            <path fill="#000" d="M19.613 18.558c-.811-2.75-1.597-5.508-2.447-8.246-.36-1.154-.143-2.041.722-2.88 2.062-2 4.23-3.828 6.946-4.844 4.63-1.732 8.267.564 10.222 4.25.557 1.05.492 2.255.478 3.407-.027 2.298-.313 4.575-.728 6.833-.085.463.06.597.51.624.612.037 1.218.177 1.827.257.366.048.64.178.543.612-.093.412-.396.37-.707.279-.085-.025-.18-.016-.271-.022-.09.067-.19.1-.302.1-.348-.057-.702-.073-1.05-.133a2.613 2.613 0 0 0-.727-.077c-1.69-.142-3.216.32-4.597 1.306-.071.03-.144.049-.219.062-.38.043-.761.035-1.143.017a1.596 1.596 0 0 1-.334-.055c-.26-.079-.53-.147-.768-.275-1.758-.935-3.54-.774-5.335-.147-.127.05-.252.103-.372.169-.381.257-.716.202-1.012-.152a2.375 2.375 0 0 0-.87-.64c-.2-.09-.337-.217-.366-.445"/>
            <path fill="#B7EAD5" d="M15.173 43.412c1.396 3.537 2.813 7.065 4.17 10.617.321.841.088 1.788.2 2.685.09.734.018 1.49.019 2.235-.145.214-.364.32-.582.433-1.911.982-3.843 1.926-5.584 3.219-.177.132-.367.256-.608.214-.234-.117-.355-.34-.471-.555-1.82-3.368-3.69-6.706-5.492-10.084-.092-.174-.235-.34-.154-.566 2.345-2.28 4.689-4.562 7.038-6.838.478-.464.976-.907 1.464-1.36"/>
            <path fill="#7C5346" d="M49.468 46.384c.477-2.85.706-5.728.827-8.624.066-1.565.083-3.12-.03-4.682-.043-.603-.2-1.057-.668-1.44-1.729-1.42-1.803-2.476-1.184-4.968.114-.462.385-.856.851-.87.404-.014.397-.257.388-.581-.04-1.47-.199-2.94-.099-4.412.062-.912.046-1.843.334-2.72.098-.3.184-.648.583-.536.387.109.684.296.618.846-.201 1.674-.088 3.355-.088 5.034 0 .35.02.692.239.972-.565.37-.94.814-.752 1.658.075.333-.024.36.258.582.25.196.514.37.753.582.179.159.358.338.264.632-.083.26-.279.385-.514.422-.418.067-.827.013-1.295-.211.677.829 1.782.408 2.24-.747.218-.29.298-.693.636-.889.364-.211.715-.32 1.16-.011-.734-.546-1.249-.386-1.573.414-.067.164-.08.358-.217.482-.686-.181-.838-.504-.5-1.136.25-.463.546-.89.94-.968-.426.031-.848.28-1.057.92-.087.265-.13.622-.513.534-.372-.084-.56-.355-.559-.776.003-.689.312-1.164.842-1.475.914.086 1.752.477 2.515.994.698.474.71 1.355.627 2.173-.141 1.383-.468 2.74-1.106 3.915-.548 1.011-.56 1.986-.417 3.077.593 4.56.842 9.148.69 13.755-.036 1.074-.19 2.142-.405 3.2-.24 1.184-.826 1.858-1.903 1.97-.125.136-.268.229-.446.24-.444.026-.889.062-1.325-.073-.467-.145-.859-.4-1.03-.955-.15-.626.023-1.239.094-1.846.15-1.277.356-2.546.554-3.815.038-.245.05-.51.268-.667M20.059 17.53c.554.37 1.176.64 1.598 1.204.197.264.769-.251.972-.27.219.227-.217.7-.208.971.016.463-.019.927.032 1.389.11 1.014.546 1.758 1.609 1.981 1.116.273 2.222.532 3.39.254.714-.17 1.232-.482 1.38-1.252.208-.646.115-1.312.14-1.97.011-.313-.062-.646.178-.915l1.259-.017c.327.712.178 1.498.342 2.235.4 1.476.931 1.875 2.458 1.917.636.017 1.28-.122 1.909.072-.259 1.74-.564 3.468-1.229 5.11-.688 1.701-1.636 3.208-3.094 4.347-.106.083-.183.204-.274.307-.185.183-.417.19-.642.137-1.354-.317-2.5-.978-3.36-2.105a27.17 27.17 0 0 1-3.966-6.104c-.068-.144-.125-.326-.347-.223-.81.376-1.276-.17-1.551-.744-.827-1.723-1.145-3.568-1.05-5.486.017-.368.376-.52.454-.839"/>
            <path fill="#B7EAD5" d="M40.457 58.578c-.188-1.129.003-2.277-.124-3.404-.205-1.817.442-3.465.819-5.163.585-2.639 1.227-5.263 1.845-7.893l5.062 3.201c-.446 3.051-.982 6.085-1.464 9.13-.319 2.014-.655 4.025-.975 6.04-.056.357-.034.75-.303 1.04a84.105 84.105 0 0 1-4.86-2.95"/>
            <path fill="#7C5346" d="M6.436 66.431c-.485.094-1.034-.3-1.456.335-.46.692-.488 1.407-.38 2.177.041.295.08.593.088.89.008.29.078.62-.26.792-.334.169-.526-.12-.757-.302-.132.994-.326 1.091-1.07.563-.266.273-.033.867-.488.965-.454.099-.546-.455-.824-.686-.155.06-.093.194-.108.292-.03.19-.068.373-.283.419-.197.042-.272-.135-.356-.261-.698-1.053-1.637-1.99-1.56-3.421.007-.155-.065-.314-.1-.472l.076-1.103c.035-.493.337-.696.698-1.015.703-.62 1.539-.84 2.311-1.24.305-.16.176-.447.178-.676.02-1.918.153-3.817.62-5.686.357-1.43.927-2.74 1.825-3.895.162-.427.427-.418.734-.173.27.214.462.5.636.796.836 1.419 1.586 2.88 1.979 4.505.018.241-.065.452-.179.657-.818 1.474-1.388 3.058-1.985 4.632-.192.506-.154.875.253 1.228.197.171.433.352.408.68"/>
            <path fill="#FFF7AE" d="M33.824 37.624c-.001 1.952.007 3.905-.418 5.829-.37 1.668-.927 3.251-2.24 4.518-.432.416-.28 1.01-.288 1.52-.047 3.33-.058 6.66-.08 9.99-.002.155 0 .31-.008.466-.01.232-.168.292-.385.288-.214-.003-.28-.115-.291-.297-.017-.287-.06-.573-.072-.86-.144-3.412-.286-6.824-.426-10.236-.01-.244.009-.477-.23-.663-1.005-.786-1.63-1.84-2.23-2.897-1.456-2.566-2.732-5.209-3.685-7.98.53-.241 1.07-.439 1.68-.33.694 2.094 1.39 4.188 2.263 6.225.564 1.317 1.148 2.63 1.99 3.815.542.76.88.725 1.37-.07.852-1.378 1.085-2.915 1.302-4.456.205-1.456.125-2.92.146-4.38.004-.302-.076-.63.203-.879.54-.093.958.184 1.399.397"/>
            <path fill="#FFD200" d="M31.224 37.521c.02 2.658.08 5.319-.509 7.928-.213.946-.479 1.869-.988 2.674-.385.609-.622.615-1.067.049-.512-.651-.843-1.428-1.165-2.204-1.097-2.648-1.923-5.406-2.668-8.197-.048-.18-.118-.348.013-.516l.609-.314c.3.1.386.406.5.67.333.772.727 1.507 1.092 2.26.237.488.466 1.014.855 1.355.65.568.803 1.282.75 2.14-.04.668-.034 1.343.003 2.01.021.379-.205 1.031.209 1.063.313.024.162-.662.173-1.029.027-.9.016-1.803.006-2.704a2.372 2.372 0 0 1 .375-1.356c.598-.95.791-2.072.985-3.187.054-.313.048-.655.317-.871l.51.23"/>
            <path fill="#FEFEFE" d="M8.618 59.334c-.516-1.754-1.161-3.44-2.144-4.935-.201-.307-.42-.706-.829-.267-.463-.594-.362-1.042.209-1.497.536-.428 1.003-.968 1.5-1.459l3.39 6.794c.792 1.591 1.582 3.185 2.374 4.778-.32.787-.99 1.05-1.626 1.348-.187.088-.353-.105-.458-.287-.754-1.315-1.507-2.63-2.256-3.949-.09-.16-.075-.363-.16-.526M45.47 61.955c.116-1.568.44-3.1.679-4.648.555-3.611 1.157-7.214 1.734-10.821.032-.202-.001-.425.25-.486l1.22.714c-.261 1.829-.526 3.657-.78 5.487-.038.27-.029.548-.04.821.148.427.076.865.015 1.288-.36 2.508-.701 5.018-1.05 7.528-.052.365.016.867-.497.986l-1.53-.869"/>
            <path fill="#DEDDDD" d="M46.765 62.42c.492-.732.343-1.633.476-2.453.326-2.011.577-4.038.853-6.059.065-.477.11-.958.164-1.437.3.66.833.815 1.425.84.303.012.606.017.91.025.102.228.036.455-.009.679-.483 2.396-1.04 4.773-1.522 7.17-.097.48-.26.93-.588 1.276-.308.324-.677.412-1.083.338-.223-.097-.451-.182-.626-.38"/>
            <path fill="#7C5346" d="M30.886 34.656l.214 2.277c.285.417.043.835-.036 1.236-.147.748-.393 1.479-.872 2.127-.473.64-.88.692-1.544.185-.66-.506-1.131-1.15-1.527-1.822-.402-.686-.948-1.322-1.062-2.122.57-1.116.447-2.305.47-3.478.447.124.593.522.89.781.818.715 1.718 1.1 2.887.786.186-.05.395-.11.58.03"/>
            <path fill="#FFF7AE" d="M26.588 35.647c.574 1.115.969 2.348 1.698 3.36.292.407.561 1.02 1.056.924.477-.094.607-.753.776-1.242.292-.844.41-1.737.521-2.63l.596.347c-.178 1.144-.333 2.294-.736 3.374-.048.128-.065.294-.146.38-.776.83-.6 1.906-.604 2.935-.003.792-.007 1.585.002 2.377.004.318-.03.536-.389.528-.34-.008-.34-.234-.34-.508.003-1.188-.011-2.377.008-3.566.007-.444-.074-.752-.404-1.067-.8-.763-1.195-1.87-1.691-2.885-.308-.63-.585-1.28-.876-1.921l.529-.406"/>
            <path fill="#6C382D" d="M29.933 34.048c-1.886.922-3.088-.397-3.832-1.93l-.042-1.647c.887.72 1.634 1.706 2.719 2.059.385.126.76.266 1.163.223l-.008 1.295"/>
            <path fill="#FEFDFC" d="M46.765 62.068c1.545-.187 1.598-1.511 1.87-2.676.534-2.284 1.076-4.565 1.614-6.848l.398-.073c-.725 3.35-1.452 6.7-2.174 10.052-.065.3-.18.382-.459.216-.406-.243-.832-.45-1.25-.671"/>
            <path fill="#6C392E" d="M51.22 24.015c-.226.318-.583.548-.735.92-.085.206-.135.406-.102.616.044.287.343.334.574.408.32.102.237-.169.29-.304.354-.883.688-1.064 1.988-.971-.546.153-.874.373-1.162.65-.682.661-.668.831.15 1.333l-.004-.003c-.017.922-.726 1.398-1.718 1.155-.046-.01-.1-.038-.136-.026-.755.257-.959-.128-1.012-.747.515.332 1.074.421 1.67.382.264-.017.48-.107.561-.317.088-.225-.154-.323-.323-.43-.574-.364-1.151-.723-1.724-1.088-.034-.021-.047-.07-.078-.12.25-.09.416.163.647.13-.307-1.015-.119-1.32.983-1.6a.285.285 0 0 1 .13.012"/>
            <path fill="#F8D304" d="M36.433 53.757c-.723 0-1.447-.016-2.17.007-.346.011-.448-.189-.439-.617.008-.386.044-.678.41-.676 1.47.008 2.94.007 4.412.003.404-.001.338.383.352.72.017.385-.08.576-.393.568-.724-.017-1.448-.005-2.172-.005"/>
            <path fill="#7C5346" d="M34.152 17.472c-1.407.001-2.68.37-3.815 1.166-.475.333-.98.16-1.439-.077a7.04 7.04 0 0 0-3.736-.794c-.688.043-1.38.123-2.045.315-.247.071-.47.066-.373-.235.266-.823-.083-1.582-.22-2.363-.064-.362-.12-.735-.261-1.072-.22-.525-.012-.716.517-.865 2.72-.767 5.468-1.326 8.332-1.167a7.168 7.168 0 0 1 2.97.818c.85.448.59 1.298.753 1.977.17.71.194 1.451.283 2.179-.305.163-.66-.03-.966.118"/>
            <path fill="#8C695E" d="M22.335 19.442c1.735-.7 3.47-.93 5.215-.026.29.15.599.262.9.39.229.145.195.378.194.6-.004.778.045 1.56-.14 2.327-.252.827-.88 1.094-1.653 1.212-.935.143-1.842-.025-2.756-.157-.23-.077-.447-.192-.681-.258-.685-.191-1.022-.711-1.113-1.364-.125-.903-.217-1.82.034-2.724M34.746 23.872c-.872.125-1.733.2-2.623.028-1.265-.244-1.633-.534-1.855-1.697-.377-.674-.35-1.394-.296-2.117 1.448-.997 3.086-1.384 4.893-1.23.067.09.133.186.144.293.153 1.526.177 3.048-.148 4.561-.013.063-.072.11-.115.162"/>
            <path fill="#4E362D" d="M33.824 17.927c.396-.927.864-.28 1.294-.487-.393 1.016-.863.338-1.294.487"/>
            <path fill="#6C392E" d="M53.203 27.882c.08.36.007.64-.17.906-.158.236-.347.459-.682.368-.38-.104-.42-.425-.408-.729.004-.121.093-.24.155-.39.274.182.04.701.452.643.366-.052.44-.476.653-.798"/>
            <path fill="#6D3A2F" d="M50.647 31.765c-.719-.086-1.101-.372-1.247-1.006-.13-.565-.005-1.084.559-1.583-.288 1.804-.22 2.041.688 2.589z"/>
            <path fill="#6C392E" d="M51.944 27.882c.014-.551.185-1.04.917-1.226.704-.179 1.124-.018 1.668.641-.637-.25-1.252-.408-1.884-.02-.284.176-.248.576-.704.603l.003.002zM28.647 25.424c1.403.452 2.656.487 3.882-.13-.049.861-.747 1.027-1.722 1.25-.828.191-1.664-.256-2.16-1.12"/>
            <path fill="#6D3A2F" d="M32.53 26.7c-1.242 1.733-3.774 1.846-5.177-.112 1.835.731 3.506.835 5.176.112"/>
            <path fill="#6C392E" d="M31.235 29.025c-.55.842-.794.833-1.294-.045.448-.083.824-.108 1.294.045"/>
            <path fill="#1C1711" d="M24.765 17.151c.655-1.338 1.728-1.208 2.588.378-.902-.432-1.717-.976-2.588-.378M32.305 16.364c-.507.167-.868.572-1.07 1.165.57-.326 1.095-.735 1.74-.74.16 0 .32.002.478.003.115-.025.25.085.37-.115-.449-.564-.987-.49-1.518-.313"/>
            <path fill="#32312C" d="M26.726 22.666l-.22-.047-.078-.025a.8.8 0 0 1-.241-.334c-.17-.551-.174-1.1.009-1.647.081-.18.18-.329.302-.433.1-.07.207-.063.312-.062.134 0 .25.075.35.22.261.628.256 1.578-.01 2.212-.13.147-.27.2-.424.116"/>
            <path fill="#F8F8F8" d="M26.243 22.49c.193-.316.456-.631-.099-.816-.134-.045-.096-.286.018-.321.732-.224.162-.623.085-.954-.051-.084-.047-.164.013-.237.223-.089.415-.06.54.234.865.777.703 2.046-.402 2.293-.143.055-.18-.03-.155-.198"/>
            <path fill="#45413C" d="M27.353 19.326l-.532-.177c-.118-.008-.236-.123-.356-.004l-.427.02c-.114.108-.269.138-.372.266-.675.704-.675.908-.001 1.616.103.126.255.162.371.265l-.004-.005c-.354.28-.946-.027-1.173-.609-.244-.623-.01-1.224.627-1.61.714-.432 1.572-.322 1.867.238"/>
            <path fill="#8F8F8D" d="M27.146 21.264l.333.384c-.459.472-.934.442-1.42.061l1.087-.445"/>
            <path fill="#34332F" d="M32.061 21.385l-.352-.01c-.504-.168-.586-.418-.34-1.044.105-.162.296-.189.49-.211a.71.71 0 0 1 .377.08c.261.227.385.798.217 1.04-.084.122-.195.221-.392.145"/>
            <path fill="#FAFAFA" d="M32.657 21.06c.173-.23.568-.378.11-.837-.063-.062-.055-.209.014-.255.522-.345.06-.585-.031-.864-.023-.178.052-.23.132-.277.236-.028.436.111.62.341.404.506.435 1.187.051 1.72-.286.399-.616.65-1.01.458-.068-.209.143-.12.114-.286"/>
            <path fill="#48443F" d="M32.197 21.324c.261-.064.536-.084.78-.203.327-.159.619-.42.625-.934.007-.516-.27-.774-.608-.94-.14-.069-.293-.097-.44-.144-.154.004-.31-.09-.462.018l-.355.164c-.137.136-.223.396-.455.298-.135-.232.057-.295.141-.373.425-.394.91-.462 1.408-.315.718.21 1.126.9.953 1.57-.19.73-.942 1.137-1.587.859"/>
            <path fill="#F0F0EF" d="M31.486 20.324c.228-.073.387-.22.694-.205-.209.434-.591.885.35 1.211-.447.2-.753-.012-.989-.155-.42-.255-.377-.56-.055-.851"/>
            <path fill="#F0F0F0" d="M25.815 21.411c-1.393-.46-1.4-.84-.023-1.285.22-.029.282.018.231.118-.38.348-.416.695.028 1.037.035.094-.049.135-.236.13"/>
            <path fill="#A1A19F" d="M26.103 20.71c-.086-.134-.17-.268-.255-.403.18-.432.464-.314.724-.319l-.47.723z"/>
            <path fill="#999997" d="M25.877 20.273c.244-.355.485-.423.724.008l-.016.435-.708-.443"/>
            <path fill="#8C695E" d="M25.856 21.701l.27-.434c.218.139.389.34.455.686-.265.05-.536.148-.725-.252"/>
            <path fill="#8F8F8D" d="M32.258 20.33c.235-.442.477-.46.725-.049l-.177.438-.548-.39"/>
            <path fill="#8C695E" d="M28.647 21.412c0 .714-.869 1.294-1.941 1.294s-1.941-.58-1.941-1.294c0-.715.869-1.294 1.941-1.294s1.941.579 1.941 1.294M35.118 21.412c0 .714-.87 1.294-1.942 1.294s-1.94-.58-1.94-1.294c0-.715.868-1.294 1.94-1.294 1.073 0 1.942.579 1.942 1.294"/>
            <path fill="#FFF" d="M27.353 20.052s-.388-1.185-1.265-1.227c-.877-.043-1.323.975-1.323 1.336 0 .36.296 1.25 1.294 1.25s1.294-.938 1.294-1.36"/>
            <path fill="#000" d="M27.352 20.056c.008.203-.04.405-.111.583a1.418 1.418 0 0 1-.289.455c-.245.223-.53.307-.809.316a1.335 1.335 0 0 1-.822-.219 1.346 1.346 0 0 1-.55-.931.759.759 0 0 1 .032-.337 1.782 1.782 0 0 1 .41-.714c.115-.123.245-.214.38-.278.066-.036.136-.053.205-.076.07-.01.14-.031.211-.029.14-.013.283.02.42.063.137.055.27.134.391.24.118.118.22.262.31.417.09.155.166.326.222.51m0 0c-.153-.332-.356-.608-.59-.787a1.26 1.26 0 0 0-.36-.223 1.006 1.006 0 0 0-.39-.058c-.065-.003-.13.018-.195.027-.064.021-.129.036-.19.07a1.152 1.152 0 0 0-.35.256 1.64 1.64 0 0 0-.372.644.523.523 0 0 0-.025.248c.02.175.09.343.175.482a1.1 1.1 0 0 0 .313.33c.238.16.507.215.773.203.264-.008.531-.09.753-.29.227-.177.42-.501.458-.902"/>
            <path fill="#34332F" d="M27.353 20.765a.647.647 0 1 1-1.294 0 .647.647 0 0 1 1.294 0"/>
            <path fill="#FFF" d="M27.554 19.999c.2 0 .362.164.362.366a.365.365 0 0 1-.362.368.365.365 0 0 1-.362-.368c0-.202.162-.366.362-.366M31.235 20.052s.583-1.185 1.898-1.227c1.315-.043 1.985.975 1.985 1.336 0 .36-.444 1.25-1.942 1.25-1.497 0-1.94-.938-1.94-1.36"/>
            <path fill="#000" d="M31.236 20.056c.057.416.36.737.7.91.336.197.73.273 1.123.283.394.01.791-.044 1.148-.2.177-.08.34-.189.474-.326.13-.139.24-.31.272-.49a.35.35 0 0 0 .003-.125.673.673 0 0 0-.043-.129 1.185 1.185 0 0 0-.148-.247 1.859 1.859 0 0 0-.948-.651c-.092-.033-.189-.046-.283-.068-.097-.008-.193-.028-.29-.025a2.223 2.223 0 0 0-.58.057c-.188.05-.369.123-.538.22a2.427 2.427 0 0 0-.89.791m0 0a2.41 2.41 0 0 1 .81-.933c.183-.106.38-.181.582-.236.204-.042.412-.073.62-.06.104-.003.207.017.31.026.102.023.206.038.304.073a2 2 0 0 1 .566.271c.174.12.332.265.462.436.065.086.123.178.167.28a.84.84 0 0 1 .053.165c.01.064.01.126-.002.183-.1.456-.46.765-.838.937-.386.169-.805.224-1.214.212-.41-.01-.83-.088-1.199-.304a1.58 1.58 0 0 1-.443-.453 1.066 1.066 0 0 1-.178-.597"/>
            <path fill="#34332F" d="M33.824 20.765a.647.647 0 1 1-1.295 0 .647.647 0 0 1 1.295 0"/>
            <path fill="#FFF" d="M34.024 19.999c.2 0 .363.164.363.366a.365.365 0 0 1-.363.368.365.365 0 0 1-.362-.368c0-.202.163-.366.362-.366"/>
            <path fill="#91837E" d="M22.485 18.824a8.65 8.65 0 0 0 .032 1.701c.056.557.178 1.098.339 1.615l.03.095c.01.016.012.032.024.049.02.033.045.07.08.104.064.07.148.14.242.201.19.122.409.22.635.3.455.158.938.256 1.422.306.483.052.973.055 1.444-.009a2.82 2.82 0 0 0 .664-.17 1.19 1.19 0 0 0 .492-.391c.127-.18.22-.412.28-.67.066-.257.107-.532.136-.812.067-.56.09-1.135.14-1.712.103.569.17 1.141.198 1.728.01.294.004.592-.032.899a2.407 2.407 0 0 1-.284.915 1.705 1.705 0 0 1-.686.668c-.269.144-.542.212-.81.271a5.524 5.524 0 0 1-1.606.054 5.83 5.83 0 0 1-1.568-.384 3.322 3.322 0 0 1-.75-.42 1.79 1.79 0 0 1-.347-.344 1.207 1.207 0 0 1-.141-.245c-.021-.044-.035-.099-.051-.148l-.024-.111a6.963 6.963 0 0 1-.163-1.774c.027-.589.11-1.176.304-1.716M30.07 19.716c.07 1.11.418 2.18.97 3.096.08.109.321.226.577.292.259.07.543.114.83.14.578.054 1.173.05 1.76.005a10.527 10.527 0 0 0 1.303-.181l.21-.048c.06-.019.123-.03.18-.054.472-.157.834-.524 1.054-.986.217-.463.313-.996.317-1.532a5.489 5.489 0 0 0-.23-1.624c.316.483.513 1.033.61 1.6.088.567.085 1.165-.122 1.746-.101.29-.256.577-.481.827a2.43 2.43 0 0 1-.386.342 2.448 2.448 0 0 1-.47.25c-.083.037-.17.06-.254.089-.078.021-.156.044-.235.063a9.161 9.161 0 0 1-1.426.227 9.379 9.379 0 0 1-1.927-.038 5.258 5.258 0 0 1-.968-.217 2.59 2.59 0 0 1-.482-.219 1.151 1.151 0 0 1-.424-.417 5.41 5.41 0 0 1-.497-1.672c-.062-.567-.058-1.142.091-1.689"/>
        </g>
    </g>
</svg>
