<svg xmlns="http://www.w3.org/2000/svg" xmlns:xlink="http://www.w3.org/1999/xlink" width="60" height="60" viewBox="0 0 60 60">
    <defs>
        <circle id="a" cx="30" cy="30" r="30"/>
    </defs>
    <g fill="none" fill-rule="evenodd">
        <use fill="#B8EBD6" fill-rule="nonzero" xlink:href="#a"/>
        <path fill="#FFF" d="M25.238 11.325l-3.81 1.438-7.512 6.604-2.858 8.466 8.89-.741 3.703-4.127 2.116-3.386zM34.339 11.325v10.103l5.502 5.981 8.466-1.798-2.222-6.032-3.704-4.233-5.185-3.28zM11.058 34.182l1.799 4.39 4.127 5.663 4.444 3.052 4.34 1.392V38.571l-5.08-4.389zM39.206 33.23l-4.868 5.82.635 9.63 4.233-2.434 4.762-3.175 3.222-4.5 1.646-4.389z"/>
        <path fill="#FF7900" d="M50 30c0-11.046-8.954-20-20-20s-20 8.954-20 20 8.954 20 20 20 20-8.954 20-20m-2.857-5.714c-1.097-.238-2.237-.332-3.427-.332-1.715 0-3.334.238-4.762.666-.859-1.428-2-2.619-3.428-3.477.429-1.428.667-3.048.667-4.714 0-1.238-.144-2.428-.382-3.525a17.976 17.976 0 0 1 11.332 11.382M30 38.57c-4.715 0-8.571-3.856-8.571-8.571s3.856-8.571 8.571-8.571 8.571 3.856 8.571 8.571-3.856 8.571-8.571 8.571m-5.523-25.808a18.038 18.038 0 0 0-.382 3.666c0 1.62.238 3.142.62 4.523-1.476.859-2.714 2.096-3.618 3.572-1.382-.382-2.905-.57-4.477-.57-1.335 0-2.62.143-3.763.428 1.76-5.525 6.144-9.858 11.62-11.619M12.81 35.667c1.19.285 2.475.43 3.763.43 1.572 0 3.142-.192 4.476-.571.905 1.475 2.143 2.666 3.619 3.571a16.97 16.97 0 0 0-.62 4.524c0 1.285.144 2.525.382 3.666-5.43-1.81-9.812-6.144-11.62-11.62m23.048 11.429c.239-1.097.382-2.334.382-3.525 0-1.666-.238-3.286-.667-4.714A10.397 10.397 0 0 0 39 35.38c1.428.428 3.048.666 4.762.666 1.19 0 2.334-.143 3.427-.332-1.808 5.332-6 9.571-11.332 11.382"/>
    </g>
</svg>
