<svg xmlns="http://www.w3.org/2000/svg" xmlns:xlink="http://www.w3.org/1999/xlink" width="60" height="60" viewBox="0 0 60 60">
    <defs>
        <circle id="a" cx="30" cy="30" r="30"/>
        <path id="c" d="M19.27 2.626C11.753 4.085 6.237 4.743 2.247 16.13 1.36 18.659.52 23.656.377 25.74h53.236l13.162.027v-.718c-.625-4.515-1.163-7.49-1.614-8.921C61.536 4.622 54.654 4.085 47.137 2.626 44.798 2.175 43.28 1.47 42.294.622c-2.41 1.18-16.007 1.018-17.656-.154-1.183.916-2.89 1.679-5.368 2.158z"/>
        <path id="e" d="M.777 12.003c0 5.565 2.46 6.91 2.46 9.542 0 1.99-.502 5.434-2.812 7.222.88 2.963 4.508 5.185 8.85 5.185 4.27 0 7.84-2.146 8.8-5.03-1.889-1.624-1.954-4.264-1.954-6.674 0-3.744 2.634-5.203 2.634-10.138 0-8.776-3.083-12.008-9.069-12.008C3.701.102.777 4.251.777 12.003z"/>
        <path id="g" d="M.04.26c0 .678 1.05 1.574 2.345 1.574 1.294 0 2.344-.896 2.344-1.574H.04z"/>
        <path id="i" d="M.285 1.11c0 .471.307.851.682.851.375 0 .678-.38.678-.85 0-.468-.303-.847-.678-.847-.375 0-.682.379-.682.847z"/>
        <path id="k" d="M.396 1.11c0 .471.306.851.682.851.374 0 .678-.38.678-.85 0-.468-.304-.847-.678-.847-.376 0-.682.379-.682.847z"/>
    </defs>
    <g fill="none" fill-rule="evenodd">
        <mask id="b" fill="#fff">
            <use xlink:href="#a"/>
        </mask>
        <use fill="#B5E8F7" fill-rule="nonzero" xlink:href="#a"/>
        <g mask="url(#b)">
            <g transform="translate(-4 40)">
                <mask id="d" fill="#fff">
                    <use xlink:href="#c"/>
                </mask>
                <path fill="#FF8AD4" d="M-1.998 28.132h71.247V-1.895H-1.998z" mask="url(#d)"/>
            </g>
            <g transform="translate(20 12)">
                <mask id="f" fill="#fff">
                    <use xlink:href="#e"/>
                </mask>
                <path fill="#C19372" d="M-1.95 36.314h23.08V-2.26H-1.95z" mask="url(#f)"/>
            </g>
            <g transform="translate(28 29)">
                <mask id="h" fill="#fff">
                    <use xlink:href="#g"/>
                </mask>
                <use fill="#000" xlink:href="#g"/>
                <path fill="#482E26" d="M-2.46 3.834H7.23V-1.74H-2.46z" mask="url(#h)"/>
            </g>
            <g transform="translate(33 22)">
                <mask id="j" fill="#fff">
                    <use xlink:href="#i"/>
                </mask>
                <path fill="#1B181C" d="M-1.715 4.461h5.36v-6.697h-5.36z" mask="url(#j)"/>
            </g>
            <g transform="translate(25 22)">
                <mask id="l" fill="#fff">
                    <use xlink:href="#k"/>
                </mask>
                <path fill="#1B181C" d="M-1.604 4.461h5.36v-6.697h-5.36z" mask="url(#l)"/>
            </g>
            <path fill="#0D83B2" d="M32.802 9.89c.875.139 1.6-.57 2.552-.847a14.993 14.993 0 0 0-4.772-.993c.887.638 1.29 1.692 2.22 1.84"/>
            <path fill="#085FBD" d="M24.873 10.445c-1.575.677-2.386-.431-4.018.973-1.574 1.353-.513 2.954-1.127 4.759-.557 1.638-1.915.99-2.313 2.68-.5 2.128 1.454 2.99 1.705 4.184.15.703-.816 1.85.276 3.622.725 1.172 2.466 1.28 2.466 1.28-.398-1.66-.792-4.461.007-5.603.948-1.35 1.587-.81 2.556-2.015 1.363-1.694.604-2.902 1.886-3.831 1.988-1.443 2.588.065 4.745-.418 2.157-.486 1.947-2.103 3.68-2.103 1.24 0 2.018.9 2.194 2.284.176 1.386-.551 2.66-.037 4.047.545 1.468 2.046 2.002 2.259 2.93.536 2.343-.58 3.753-.632 4.524-.003.047 3.44-.581 3.525-4.367.028-1.208-.89-2.049-.922-3.248-.037-1.504 1.868-2.272 1.215-4.152-.652-1.88-2.176-1.894-3.022-2.496-.548-.39-.412-1.606-.728-2.68a13.91 13.91 0 0 0-3.234-1.771c-.952.276-1.677.985-2.552.846-.93-.148-1.333-1.202-2.22-1.84a15.368 15.368 0 0 0-3.525.251c-.74.697-1.15 1.699-2.184 2.144"/>
            <path fill="#085FBD" d="M20.09 27.36c-5.924-5.13-6.256-22.162 9.368-22.162 18.048 0 15.551 18.087 11.297 21.466l-1.439-13.169-4.482-2.681-11.707 1.593-.845 3.524-3.017 8.65.825 2.778z"/>
            <path fill="#FFF" d="M39.884 18.172c0-2.15-.818-4.103-2.151-5.523-1.332-1.419-3.19-2.308-5.242-2.308h-5.249c-2.052 0-3.91.89-5.242 2.308-1.332 1.42-2.15 3.373-2.15 5.523v2.73c-1.148.232-2.01 1.227-2.01 2.42v.728c0 1.27.983 2.306 2.243 2.444.697 2.337 2.897 4.046 5.51 4.046h1.123v-.945h-1.123a4.812 4.812 0 0 1-3.379-1.37 4.613 4.613 0 0 1-1.397-3.268V20.85h-.002v-2.677c0-1.913.728-3.639 1.897-4.883 1.169-1.243 2.766-2.002 4.53-2.002h5.249c1.764 0 3.361.759 4.53 2.002 1.169 1.244 1.897 2.97 1.897 4.883v4.095h.005v4.255h.453c1.394 0 2.524-1.107 2.524-2.472v-.729c0-1.194-.865-2.191-2.016-2.422v-2.727z"/>
            <path fill="#FFF" d="M26.61 30.957h-1.633a.743.743 0 0 1-.75-.735v-.696c0-.406.335-.735.75-.735h1.632c.415 0 .75.329.75.735v.696a.743.743 0 0 1-.75.735"/>
        </g>
    </g>
</svg>
