<svg xmlns="http://www.w3.org/2000/svg" xmlns:xlink="http://www.w3.org/1999/xlink" width="60" height="60" viewBox="0 0 60 60">
    <defs>
        <circle id="a" cx="30" cy="30" r="30"/>
        <path id="c" d="M0 .124h20.366V46.63H0z"/>
    </defs>
    <g fill="none" fill-rule="evenodd">
        <mask id="b" fill="#fff">
            <use xlink:href="#a"/>
        </mask>
        <use fill="#D9C2F0" fill-rule="nonzero" xlink:href="#a"/>
        <g mask="url(#b)">
            <path fill="#000" d="M40.839 48.814c-.003 1.397-1.124 2.527-2.505 2.525l-16.164-.03c-1.38-.003-2.497-1.138-2.495-2.535l.065-35.249c.002-1.397 1.123-2.528 2.504-2.525l16.164.03c1.38.003 2.498 1.138 2.495 2.535l-.064 35.249z"/>
            <path fill="#FFF" d="M39.848 43.583l-19.164-.035.052-28.334 19.164.036zM32.384 47.533c-.002 1.141-.918 2.064-2.045 2.062-1.128-.002-2.04-.929-2.038-2.07.002-1.14.918-2.064 2.045-2.062 1.128.002 2.04.929 2.038 2.07"/>
            <path fill="#484848" d="M30.657 12.365a.419.419 0 0 1-.418.42.419.419 0 0 1-.415-.421c0-.233.187-.422.417-.421.23 0 .416.19.416.422M32.07 14.012c0 .21-.168.38-.375.379l-3.25-.006a.377.377 0 0 1-.374-.38c0-.21.168-.38.375-.38l3.25.007c.207 0 .375.17.374.38"/>
            <path fill="#464749" d="M20.593 17.603c0 .326-.262.59-.584.589a.587.587 0 0 1-.582-.592l.001-.758c0-.327.262-.59.585-.59.321.001.582.266.582.592l-.002.759zM20.588 20.582c-.001.326-.263.59-.585.59a.587.587 0 0 1-.582-.592l.002-.759c0-.326.262-.59.584-.59.322.002.583.266.582.592l-.001.76z"/>
            <g transform="translate(18 19.12)">
                <mask id="d" fill="#fff">
                    <use xlink:href="#c"/>
                </mask>
                <path fill="#C19372" d="M20.366 32.15s-1.883 2.053-3.258 6.596c-.918 3.03-1.256 4.657-1.014 4.885H3.278c-1.22-3.212-2.064-8.504-2.535-15.877-.317-4.967-.217-4.25-.507-11.799C-.054 8.407-.18.561.472.232c1.495-.757 3.91 2.308 3.095 14.77 0 0 .815 9.961 2.896 10.407 4.183.894 5.866-5.057 7.459-6.742 1.593-1.686 4.561-2.125 3.765.44-.797 2.564-4.78 6.302-5.72 9.6-.942 3.297-.091 3.346-.091 3.346l8.418.098" mask="url(#d)"/>
            </g>
        </g>
        <g fill="#000" mask="url(#b)">
            <path d="M23.5 22.763c0 6.75 5.471 12.211 12.21 12.211.298 0 .55-.205.616-.49l.632-2.736a.64.64 0 0 0-.369-.727l-2.947-1.263a.63.63 0 0 0-.737.182L31.6 31.535a9.753 9.753 0 0 1-4.663-4.664l1.595-1.305a.63.63 0 0 0 .181-.737l-1.263-2.947a.636.636 0 0 0-.724-.366l-2.737.632a.63.63 0 0 0-.489.615"/>
        </g>
    </g>
</svg>
