<svg xmlns="http://www.w3.org/2000/svg" xmlns:xlink="http://www.w3.org/1999/xlink" width="121" height="73" viewBox="0 0 121 73">
    <defs>
        <path id="a" d="M0 0h130v86H0z"/>
        <path id="c" d="M17.077.068C14.36 5.956 8.993 13.018.143 18.978h143.348c-8.85-5.96-14.218-13.022-16.934-18.91"/>
        <path id="e" d="M17.077.068C14.36 5.956 8.993 13.018.143 18.978h143.348c-8.85-5.96-14.218-13.022-16.934-18.91"/>
        <path id="g" d="M17.077.068C14.36 5.956 8.993 13.018.143 18.978h143.348c-8.85-5.96-14.218-13.022-16.934-18.91"/>
        <path id="i" d="M17.077.068C14.36 5.956 8.993 13.018.143 18.978h143.348c-8.85-5.96-14.218-13.022-16.934-18.91"/>
        <path id="k" d="M17.077.068C14.36 5.956 8.993 13.018.143 18.978h143.348c-8.85-5.96-14.218-13.022-16.934-18.91"/>
        <path id="m" d="M17.077.068C14.36 5.956 8.993 13.018.143 18.978h143.348c-8.85-5.96-14.218-13.022-16.934-18.91"/>
        <path id="o" d="M17.077.068C14.36 5.956 8.993 13.018.143 18.978h143.348c-8.85-5.96-14.218-13.022-16.934-18.91"/>
        <path id="q" d="M17.077.068C14.36 5.956 8.993 13.018.143 18.978h143.348c-8.85-5.96-14.218-13.022-16.934-18.91"/>
        <path id="s" d="M17.077.068C14.36 5.956 8.993 13.018.143 18.978h143.348c-8.85-5.96-14.218-13.022-16.934-18.91"/>
    </defs>
    <g fill="none" fill-rule="evenodd" transform="translate(0 -13)">
        <mask id="b" fill="#fff">
            <use xlink:href="#a"/>
        </mask>
        <g mask="url(#b)">
            <path fill="#2888D1" d="M-16.47 104.29h128.233V25.81H-16.471z"/>
            <path fill="#B5E8F7" d="M-5.947 104.29H21.85V45.268H-5.947zM23.546 104.327h48.23V64.569h-48.23zM73.47 104.378h27.96v-59.11H73.47z"/>
            <path fill="#FF7900" d="M47.646 13L-16.47 25.81h128.234z"/>
            <path fill="#000" d="M-16.47 25.81h128.264v-2.852H-16.47zM-7.411 44.318v60.009h1.464V45.786H101.41v58.54h1.464V44.319z"/>
            <path fill="#000" d="M21.822 52v52.327h1.745V53.468h48.158v50.859h1.745V52z"/>
            <path fill="#0A6E31" d="M107.753 68.82c.114-.151-.235-.626-.534-1.287.263.176.483.23.534.146.135-.18-.379-.808-.69-1.666-.282-.867-.382-.957-.65-.93a.405.405 0 0 0-.097.015.401.401 0 0 0-.096-.016c-.27-.026-.37.064-.65.931-.313.858-.826 1.486-.692 1.666.052.083.272.03.535-.146-.3.66-.648 1.136-.535 1.287.052.084.272.031.535-.146-.3.661-.648 1.136-.535 1.288.052.084.272.03.535-.146-.3.66-.648 1.136-.535 1.288.052.083.272.03.535-.146-.3.66-.648 1.136-.535 1.287.052.084.272.031.535-.146-.3.661-.648 1.136-.535 1.288.052.084.272.03.535-.146-.3.66-.648 1.136-.535 1.287.052.084.272.031.535-.146-.3.662-.648 1.137-.535 1.288.052.084.272.031.535-.146-.3.661-.648 1.136-.535 1.288.08.128.548-.056.977-.544-.144.902-.528 1.616-.362 1.767.073.08.314-.033.565-.31.137.762.54 1.23.683 1.141.144-.073.091-.507.088-1.083.228.23.438.325.505.252.151-.137-.15-.74-.315-1.524.348.3.67.405.734.3.114-.15-.235-.626-.534-1.287.263.177.483.23.534.146.114-.151-.235-.626-.534-1.288.263.177.483.23.534.146.114-.151-.235-.626-.534-1.287.263.177.483.23.534.146.114-.152-.235-.627-.535-1.288.264.177.484.23.535.146.114-.151-.235-.626-.535-1.287.264.176.484.23.535.146.114-.152-.235-.627-.534-1.288.263.177.483.23.534.146.114-.152-.235-.627-.534-1.288.263.177.483.23.534.146"/>
            <path fill="#50BE87" d="M104.271 67.69c.095-.126-.195-.52-.443-1.067.219.146.4.19.443.12.112-.148-.314-.669-.573-1.38-.232-.718-.315-.793-.538-.77a.337.337 0 0 0-.08.013.333.333 0 0 0-.08-.014c-.222-.022-.305.053-.538.771-.26.711-.685 1.232-.573 1.38.043.07.225.026.443-.12-.248.548-.537.941-.443 1.067.043.07.225.025.443-.121-.248.548-.537.941-.443 1.067.043.07.225.026.443-.121-.248.548-.537.941-.443 1.067.043.07.225.025.443-.121-.248.548-.537.941-.443 1.067.043.07.225.026.443-.121-.248.548-.537.941-.443 1.067.043.07.225.026.443-.121-.248.548-.537.941-.443 1.067.043.07.225.026.443-.121-.248.548-.537.941-.443 1.067.043.07.225.026.443-.121-.248.548-.537.941-.443 1.067.066.107.454-.046.81-.45-.12.747-.439 1.339-.301 1.464.06.065.26-.028.468-.257.114.631.448 1.019.567.945.12-.06.075-.42.073-.897.189.19.362.27.418.209.125-.114-.125-.614-.261-1.263.288.25.555.336.608.25.095-.127-.195-.52-.443-1.068.219.147.4.19.443.121.095-.126-.195-.52-.443-1.067.219.147.4.19.443.12.095-.125-.195-.518-.443-1.066.219.147.4.19.443.12.095-.125-.195-.518-.443-1.066.219.147.4.19.443.12.095-.125-.195-.518-.443-1.066.219.146.4.19.443.12.095-.125-.195-.518-.443-1.066.219.147.4.19.443.12.095-.125-.195-.518-.443-1.066.219.146.4.19.443.12"/>
            <path fill="#FFF" d="M-23.942 64.452a.295.295 0 0 1-.165-.539c10.305-6.94 14.968-14.751 16.83-18.79a.294.294 0 0 1 .268-.17h109.48c.116 0 .22.066.268.17 1.863 4.039 6.526 11.85 16.83 18.79a.295.295 0 0 1-.164.54H-23.942z"/>
            <path fill="#000" d="M102.472 44.658H-7.008a.589.589 0 0 0-.536.342c-1.85 4.01-6.482 11.769-16.727 18.67a.59.59 0 0 0 .329 1.077h143.347a.589.589 0 0 0 .33-1.078C109.488 56.77 104.855 49.01 103.006 45a.59.59 0 0 0-.535-.342m0 .589c2.716 5.888 8.083 12.95 16.933 18.91H-23.942c8.85-5.96 14.217-13.021 16.933-18.91h109.48"/>
            <g>
                <g transform="translate(-24.086 45.18)">
                    <mask id="d" fill="#fff">
                        <use xlink:href="#c"/>
                    </mask>
                    <path fill="#FF7900" d="M14.105 20.246H5.292c9.397-6.44 14.838-14.44 17.355-20.88h6.514c-2.183 6.439-6.903 14.44-15.056 20.88" mask="url(#d)"/>
                </g>
                <g transform="translate(-24.086 45.18)">
                    <mask id="f" fill="#fff">
                        <use xlink:href="#e"/>
                    </mask>
                    <path fill="#FF7900" d="M29.635 20.246h-8.813c7.203-6.44 11.374-14.44 13.303-20.88h6.514c-1.596 6.439-5.045 14.44-11.004 20.88" mask="url(#f)"/>
                </g>
                <g transform="translate(-24.086 45.18)">
                    <mask id="h" fill="#fff">
                        <use xlink:href="#g"/>
                    </mask>
                    <path fill="#FF7900" d="M45.165 20.246H36.35c5.01-6.44 7.91-14.44 9.252-20.88h6.514c-1.008 6.439-3.187 14.44-6.952 20.88" mask="url(#h)"/>
                </g>
                <g transform="translate(-24.086 45.18)">
                    <mask id="j" fill="#fff">
                        <use xlink:href="#i"/>
                    </mask>
                    <path fill="#FF7900" d="M60.694 20.246h-8.813c2.816-6.44 4.446-14.44 5.2-20.88h6.515c-.421 6.439-1.33 14.44-2.902 20.88" mask="url(#j)"/>
                </g>
                <g transform="translate(-24.086 45.18)">
                    <mask id="l" fill="#fff">
                        <use xlink:href="#k"/>
                    </mask>
                    <path fill="#FF7900" d="M76.224 20.246H67.41c.623-6.44.983-14.44 1.15-20.88h6.514c.167 6.439.527 14.44 1.15 20.88" mask="url(#l)"/>
                </g>
                <g transform="translate(-24.086 45.18)">
                    <mask id="n" fill="#fff">
                        <use xlink:href="#m"/>
                    </mask>
                    <path fill="#FF7900" d="M91.753 20.246H82.94c-1.571-6.44-2.48-14.44-2.902-20.88h6.515c.754 6.439 2.384 14.44 5.2 20.88" mask="url(#n)"/>
                </g>
                <g transform="translate(-24.086 45.18)">
                    <mask id="p" fill="#fff">
                        <use xlink:href="#o"/>
                    </mask>
                    <path fill="#FF7900" d="M107.283 20.246h-8.814c-3.764-6.44-5.944-14.44-6.952-20.88h6.514c1.341 6.439 4.242 14.44 9.252 20.88" mask="url(#p)"/>
                </g>
                <g transform="translate(-24.086 45.18)">
                    <mask id="r" fill="#fff">
                        <use xlink:href="#q"/>
                    </mask>
                    <path fill="#FF7900" d="M122.812 20.246H114c-5.958-6.44-9.408-14.44-11.004-20.88h6.514c1.93 6.439 6.1 14.44 13.303 20.88" mask="url(#r)"/>
                </g>
                <g transform="translate(-24.086 45.18)">
                    <mask id="t" fill="#fff">
                        <use xlink:href="#s"/>
                    </mask>
                    <path fill="#FF7900" d="M138.342 20.246h-8.813c-8.152-6.44-12.872-14.44-15.056-20.88h6.515c2.516 6.439 7.957 14.44 17.354 20.88" mask="url(#t)"/>
                </g>
            </g>
            <g>
                <path fill="#000" d="M-26 65.492h146.936v-1.846H-26z"/>
                <path fill="#085EBD" d="M-7.411 44.318h110.285V32.665H-7.411z"/>
                <path fill="#4BB4E6" d="M1.568 38.492a.413.413 0 1 1-.827 0 .413.413 0 0 1 .827 0M6.226 38.492a.413.413 0 1 1-.827 0 .413.413 0 0 1 .827 0M10.883 38.492a.413.413 0 1 1-.826 0 .413.413 0 0 1 .826 0M15.54 38.492a.413.413 0 1 1-.826 0 .413.413 0 0 1 .827 0M20.199 38.492a.413.413 0 1 1-.827 0 .413.413 0 0 1 .827 0M24.856 38.492a.413.413 0 1 1-.826 0 .413.413 0 0 1 .826 0M29.514 38.492a.413.413 0 1 1-.827 0 .413.413 0 0 1 .827 0M34.172 38.492a.413.413 0 1 1-.827 0 .413.413 0 0 1 .827 0M38.83 38.492a.413.413 0 1 1-.827 0 .413.413 0 0 1 .826 0M43.487 38.492a.413.413 0 1 1-.827 0 .413.413 0 0 1 .827 0M48.145 38.492a.413.413 0 1 1-.827 0 .413.413 0 0 1 .827 0M52.802 38.492a.413.413 0 1 1-.826 0 .413.413 0 0 1 .826 0M57.46 38.492a.413.413 0 1 1-.827 0 .413.413 0 0 1 .827 0M62.118 38.492a.413.413 0 1 1-.827 0 .413.413 0 0 1 .827 0M66.775 38.492a.413.413 0 1 1-.826 0 .413.413 0 0 1 .826 0M71.433 38.492a.413.413 0 1 1-.827 0 .413.413 0 0 1 .827 0M76.09 38.492a.413.413 0 1 1-.826 0 .413.413 0 0 1 .827 0M80.748 38.492a.413.413 0 1 1-.826 0 .413.413 0 0 1 .826 0M85.406 38.492a.413.413 0 1 1-.826 0 .413.413 0 0 1 .826 0M90.064 38.492a.413.413 0 1 1-.827 0 .413.413 0 0 1 .827 0M94.721 38.492a.413.413 0 1 1-.826 0 .413.413 0 0 1 .826 0M99.379 38.492a.413.413 0 1 1-.827 0 .413.413 0 0 1 .827 0"/>
            </g>
        </g>
    </g>
</svg>
