<svg xmlns="http://www.w3.org/2000/svg" xmlns:xlink="http://www.w3.org/1999/xlink" width="27" height="27" viewBox="0 0 27 27">
    <defs>
        <path id="a" d="M21.502 18.266c-.18.552-.387 1.081-.622 1.587h-5.134a2.382 2.382 0 1 0 0 1.588h4.248c-.145.22-.297.434-.456.64-.814 1.065-1.752 1.896-2.788 2.468-1.035.573-2.129.863-3.25.863s-2.215-.29-3.249-.863c-1.037-.572-1.975-1.403-2.79-2.468-.837-1.096-1.498-2.38-1.962-3.815a15.476 15.476 0 0 1-.734-4.766c0-1.656.247-3.26.734-4.765.129-.4.273-.785.431-1.159.193-.453.667-.719 1.155-.65 1.231.177 3.44.85 6.415 3.206 3.605 2.855 7.435 2.068 8.615 1.389.08.65.12 1.31.12 1.979 0 1.656-.246 3.26-.733 4.766m2.322-9.53h-.662C21.69 3.63 17.92 0 13.5 0 9.081 0 5.31 3.63 3.838 8.735h-.661A3.176 3.176 0 0 0 0 11.912v3.176a3.176 3.176 0 0 0 3.177 3.177h.661C5.311 23.369 9.082 27 13.5 27c4.42 0 8.19-3.63 9.662-8.735h.662A3.176 3.176 0 0 0 27 15.088v-3.176a3.176 3.176 0 0 0-3.176-3.177"/>
    </defs>
    <g fill="none" fill-rule="evenodd">
        <mask id="b" fill="#fff">
            <use xlink:href="#a"/>
        </mask>
        <use fill="#000" xlink:href="#a"/>
        <g fill="#000" mask="url(#b)">
            <path d="M-4.5-4.5h36v36h-36z"/>
        </g>
    </g>
</svg>
