<svg xmlns="http://www.w3.org/2000/svg" xmlns:xlink="http://www.w3.org/1999/xlink" width="27" height="27" viewBox="0 0 27 27">
    <defs>
        <path id="a" d="M18.707 11.136c-.26.483-.57.9-.928 1.251-.359.351-1.002.942-1.93 1.772-.257.234-.463.44-.618.617-.154.178-.27.34-.345.487a2.385 2.385 0 0 0-.176.441 17.37 17.37 0 0 0-.186.776c-.144.785-.593 1.178-1.348 1.178-.392 0-.722-.129-.99-.385-.268-.257-.402-.638-.402-1.144 0-.634.098-1.183.294-1.647.196-.464.457-.872.781-1.223.325-.35.763-.768 1.314-1.251.483-.423.832-.741 1.047-.957a3.24 3.24 0 0 0 .543-.719c.147-.264.221-.55.221-.86 0-.604-.225-1.113-.674-1.529-.449-.414-1.028-.622-1.737-.622-.83 0-1.442.21-1.834.628-.393.42-.725 1.036-.997 1.851-.256.853-.743 1.28-1.46 1.28-.423 0-.78-.15-1.07-.448-.29-.298-.436-.62-.436-.968 0-.717.23-1.443.69-2.179.46-.736 1.133-1.345 2.016-1.828.883-.483 1.913-.725 3.09-.725 1.095 0 2.061.202 2.9.606.837.404 1.484.953 1.94 1.647.457.694.686 1.45.686 2.264 0 .642-.13 1.204-.391 1.687M14.478 21.62a1.72 1.72 0 0 1-1.177.453c-.46 0-.862-.15-1.206-.447-.343-.298-.515-.715-.515-1.251 0-.476.166-.876.498-1.2.332-.325.74-.487 1.223-.487.476 0 .875.162 1.2.487.325.324.487.724.487 1.2 0 .528-.17.943-.51 1.245M13.5 0C6.044 0 0 6.044 0 13.5S6.044 27 13.5 27 27 20.956 27 13.5 20.956 0 13.5 0"/>
    </defs>
    <g fill="none" fill-rule="evenodd">
        <mask id="b" fill="#fff">
            <use xlink:href="#a"/>
        </mask>
        <use fill="#000" xlink:href="#a"/>
        <g fill="#000" mask="url(#b)">
            <path d="M-7-7h40v40H-7z"/>
        </g>
    </g>
</svg>
