<svg xmlns="http://www.w3.org/2000/svg" width="93" height="98" viewBox="0 0 93 98">
    <path fill="#FB7900" fill-rule="evenodd" d="M75.606 49.35C81.76 45.665 85.91 38.705 85.91 30.727c0-11.828-9.12-21.416-20.37-21.416-8.287 0-15.418 5.202-18.6 12.668-3.182-7.466-10.313-12.668-18.599-12.668-11.25 0-20.37 9.588-20.37 21.416 0 8.174 4.356 15.278 10.76 18.887-5.917 3.748-9.874 10.567-9.874 18.358 0 11.828 9.12 21.416 20.37 21.416 7.921 0 14.787-4.754 18.156-11.696 3.37 6.942 10.235 11.696 18.156 11.696 11.25 0 20.37-9.588 20.37-21.416 0-7.978-4.15-14.938-10.303-18.622zM0 0h92.995v97.768H0V0z"/>
</svg>
