<svg xmlns="http://www.w3.org/2000/svg" width="27" height="22" viewBox="0 0 27 22">
    <path fill="#FFF" fill-rule="evenodd" d="M19.5 8c0 1.344-.438 2.594-1.313 3.75-.875 1.156-2.054 2.07-3.539 2.742-1.484.672-3.117 1.008-4.898 1.008-1.875 0-3.61-.39-5.203-1.172C3.203 15.11 1.812 15.5.375 15.5c-.156 0-.266-.078-.328-.234-.063-.157-.031-.297.094-.422s.312-.375.562-.75a7.744 7.744 0 0 0 1.078-1.781C.594 11.03 0 9.593 0 8c0-1.344.437-2.594 1.312-3.75.875-1.156 2.055-2.07 3.54-2.742C6.336.836 7.969.5 9.75.5c1.781 0 3.414.336 4.898 1.008 1.485.672 2.664 1.586 3.54 2.742C19.061 5.406 19.5 6.656 19.5 8zm5.719 10.313c.25.593.61 1.203 1.078 1.828.25.343.437.578.562.703.125.125.157.265.094.422-.062.156-.172.234-.328.234-1.438 0-2.828-.39-4.172-1.172-1.594.781-3.328 1.172-5.203 1.172-2 0-3.813-.422-5.438-1.266-1.625-.843-2.812-1.953-3.562-3.328.562.063 1.062.094 1.5.094 2.031 0 3.906-.406 5.625-1.219 1.719-.812 3.086-1.906 4.102-3.281C20.492 11.125 21 9.625 21 8a8.54 8.54 0 0 0-.047-.937c1.781.562 3.234 1.476 4.36 2.742C26.436 11.07 27 12.485 27 14.047c0 1.562-.594 2.984-1.781 4.266z"/>
</svg>
