<svg xmlns="http://www.w3.org/2000/svg" xmlns:xlink="http://www.w3.org/1999/xlink" width="40" height="40" viewBox="0 0 40 40">
    <defs>
        <circle id="a" cx="20" cy="20" r="20"/>
        <path id="c" d="M0 .03h28.973v17.895H0z"/>
    </defs>
    <g fill="none" fill-rule="evenodd">
        <mask id="b" fill="#fff">
            <use xlink:href="#a"/>
        </mask>
        <use fill="#A885D8" xlink:href="#a"/>
        <g mask="url(#b)">
            <g transform="translate(6 11.018)">
                <mask id="d" fill="#fff">
                    <use xlink:href="#c"/>
                </mask>
                <path fill="#5A5A5A" d="M28.954 13.797l-1.182-8.203a5.563 5.563 0 0 0-10.119-3.193H11.32A5.563 5.563 0 0 0 1.2 5.594L.019 13.797s-.35 2.734 1.971 3.71c0 0 .772.418 1.758.418.803 0 1.749-.276 2.535-1.28l3.724-4.886s.393-.875 1.664-.875h5.631c1.271 0 1.665.875 1.665.875l3.723 4.886c.787 1.004 1.732 1.28 2.535 1.28.987 0 1.759-.417 1.759-.417 2.321-.977 1.97-3.711 1.97-3.711" mask="url(#d)"/>
            </g>
            <path fill="#D6D7D7" d="M17.363 17.094a4.599 4.599 0 1 1-9.197-.001 4.599 4.599 0 0 1 9.197 0M32.806 17.094a4.599 4.599 0 1 1-9.197-.001 4.599 4.599 0 0 1 9.197 0"/>
            <path fill="#FF7900" d="M14.385 16.074h-.6v-.6a.97.97 0 0 0-.972-.971h-.097a.971.971 0 0 0-.971.97v.601h-.6a.971.971 0 0 0-.972.971v.097c0 .536.435.971.971.971h.601v.6c0 .537.435.971.97.971h.098a.97.97 0 0 0 .971-.97v-.6h.6a.971.971 0 0 0 .972-.972v-.097a.971.971 0 0 0-.971-.97"/>
            <path fill="#000" d="M29.346 14.667a1.137 1.137 0 1 1-2.275 0 1.137 1.137 0 0 1 2.275 0"/>
            <path fill="#FF7900" d="M26.87 17.094a1.137 1.137 0 1 1-2.274 0 1.137 1.137 0 0 1 2.274 0M31.725 17.094a1.137 1.137 0 1 1-2.275 0 1.137 1.137 0 0 1 2.275 0"/>
            <path fill="#000" d="M29.346 19.521a1.137 1.137 0 1 1-2.275 0 1.137 1.137 0 0 1 2.275 0"/>
            <path fill="#56B685" d="M19.92 17.582a.097.097 0 0 1-.098.097h-1.31a.097.097 0 0 1-.098-.097v-1.068c0-.054.044-.097.097-.097h1.311c.054 0 .097.043.097.097v1.068z"/>
            <path fill="#A084BC" d="M22.615 17.582a.097.097 0 0 1-.097.097h-1.311a.097.097 0 0 1-.097-.097v-1.068c0-.054.043-.097.097-.097h1.311c.054 0 .097.043.097.097v1.068z"/>
        </g>
    </g>
</svg>
