<svg xmlns="http://www.w3.org/2000/svg" width="125" height="146" viewBox="0 0 125 146">
    <g fill="none" fill-rule="evenodd">
        <path fill="#EDC5A4" d="M82.698 81.723c-3.58 1.043-7.349-.952-8.415-4.454-1.066-3.504.972-7.189 4.551-8.232l9.47-2.76c3.578-1.043 7.344.95 8.412 4.454 1.068 3.503-.973 7.19-4.552 8.23l-9.466 2.762M82.698 96.723c-3.58 1.043-7.349-.949-8.415-4.452-1.066-3.505.972-7.19 4.551-8.234l9.47-2.76c3.578-1.043 7.344.95 8.412 4.456 1.068 3.501-.973 7.187-4.552 8.231l-9.466 2.759M82.698 112.723c-3.58 1.043-7.349-.952-8.415-4.453-1.066-3.505.972-7.19 4.551-8.234l9.47-2.759c3.578-1.043 7.344.949 8.412 4.454 1.068 3.502-.973 7.19-4.552 8.23l-9.466 2.762"/>
        <path fill="#714E46" d="M71.375 101.626c0 4.858 9.625 5.964 9.625 13.61 0 0-16.498 20.764-72.21 20.764-4.625 0-8.79-3.94-8.79-8.8V92.8C0 87.94 3.937 84 8.79 84h42.494c4.855 0 8.79 3.94 8.79 8.801l11.301 8.825"/>
        <path fill="#714E46" d="M14.332 84.187L0 81v33.194C0 120.16 4.863 125 10.863 125h20.195A32.682 32.682 0 0 0 33 113.881c0-13.033-7.615-24.37-18.668-29.694"/>
        <path fill="#714E46" d="M14 82.949C14 86.843 10.867 90 7 90s-7-3.157-7-7.051V52.054C0 48.157 3.133 45 7 45s7 3.158 7 7.054v30.895M9.528 157.402c8.554.851 36.528.741 41.472 0L49.126 125 8 127.432l1.528 24.932v5.038z"/>
        <path fill="#000105" d="M14 118h63V0H14z"/>
        <path fill="#50BE86" d="M18 103h55V8H18z"/>
        <path fill="#595959" d="M18 24h55V8H18z"/>
        <path fill="#E67533" d="M41.678 115.32h8.645v-8.643h-8.645v8.644zM41 116h10v-10H41v10z"/>
        <circle cx="45" cy="17" r="7" fill="#FFB401"/>
        <g transform="translate(18 23)">
            <path fill="#FFF" stroke="#000" stroke-width=".5" d="M0 15.869h54.297V0H0z"/>
            <ellipse cx="46.115" cy="8" fill="#A885D8" rx="4.654" ry="4.632"/>
        </g>
        <g transform="translate(18 40)">
            <path fill="#FFF" stroke="#000" stroke-width=".5" d="M0 15.869h54.297V0H0z"/>
            <ellipse cx="46.115" cy="8" fill="#A885D8" rx="4.654" ry="4.632"/>
        </g>
        <g transform="translate(18 56)">
            <path fill="#FFF" stroke="#000" stroke-width=".5" d="M0 15.869h54.297V0H0z"/>
            <ellipse cx="46.115" cy="8" fill="#A885D8" rx="4.654" ry="4.632"/>
        </g>
        <g transform="translate(18 73)">
            <path fill="#FFF" stroke="#000" stroke-width=".5" d="M0 15.869h54.297V0H0z"/>
            <ellipse cx="46.115" cy="8" fill="#A885D8" rx="4.654" ry="4.632"/>
        </g>
        <g fill="#714E46">
            <path d="M69.88 76.935c.596 3.639-1.878 7.07-5.522 7.663-3.65.596-7.086-1.87-7.683-5.506l-8.586-52.34c-.598-3.639 1.874-7.068 5.523-7.663 3.644-.596 7.087 1.868 7.683 5.507l8.584 52.339M85.815 73.626c.595 3.637-1.877 7.066-5.523 7.662-3.646.594-7.087-1.871-7.682-5.508l-1.675-10.207c-.596-3.637 1.874-7.07 5.52-7.664 3.65-.595 7.087 1.87 7.686 5.51l1.674 10.207M101.892 71.092c.599 3.637-1.876 7.068-5.523 7.663-3.646.594-7.084-1.873-7.68-5.507l-1.677-10.209c-.597-3.636 1.876-7.065 5.524-7.662 3.645-.596 7.088 1.87 7.683 5.507l1.673 10.208M117.97 68.562c.595 3.636-1.881 7.067-5.524 7.66-3.647.598-7.087-1.87-7.685-5.508L103.09 60.51c-.598-3.64 1.876-7.07 5.525-7.665a6.688 6.688 0 0 1 7.68 5.51l1.676 10.207"/>
            <path d="M105.254 59.652l-39.658 6.47c-5.936.969-9.959 6.551-8.99 12.47l5.168 31.508 17.91 18.816 35.97-5.868c5.933-.967 9.96-6.553 8.987-12.472l-6.88-41.96c-.973-5.92-6.57-9.932-12.507-8.964"/>
            <path d="M73.521 80.523a24.142 24.142 0 0 0-15.08 8.862l-19.84-20.851c-2.772-2.92-7.39-3.046-10.321-.282a7.267 7.267 0 0 0-.281 10.292l45.418 47.724c1.64 1.731 3.94 2.433 6.145 2.167l.002.006.077-.012c.183-.026.369-.056.552-.094.372-.061.749-.126 1.127-.189 13.206-2.153 22.185-14.5 20.025-27.675-2.16-13.173-14.616-22.102-27.824-19.948"/>
            <path d="M79.308 157h39.033v-48.545H79.308z"/>
        </g>
    </g>
</svg>
