<svg id="Calque_1" data-name="Calque 1" xmlns="http://www.w3.org/2000/svg" xmlns:xlink="http://www.w3.org/1999/xlink" viewBox="0 0 125 76"><defs><style>.cls-1,.cls-6,.cls-7{fill:none;}.cls-2{clip-path:url(#clip-path);}.cls-3{fill:#fff5b5;}.cls-4{fill:#ff7800;}.cls-5{font-size:18.19px;font-family:HelveticaNeue-Bold, Helvetica Neue;font-weight:700;}.cls-6{stroke:#fff;stroke-width:2.64px;}.cls-6,.cls-7{stroke-linecap:round;stroke-miterlimit:10;}.cls-7{stroke:#8f8f8f;stroke-width:0.56px;}</style><clipPath id="clip-path"><rect class="cls-1" width="125" height="76"/></clipPath></defs><title>Lancer le sumilateur</title><rect class="cls-1" width="125" height="76"/><g class="cls-2"><path class="cls-3" d="M6.49,39.85c4.21-2.58,7.47,1.4,10.71,3.31-1.86-7.66.48-15.88,4.86-22.45S32.66,9,39.12,4.42C42.06,2.34,45.3.27,48.93.21S56.43,3,56.12,6.56C56,8.42,54.76,10,53.6,11.46s-2.36,3-2.54,4.89,1.18,4,3.05,3.86a5.21,5.21,0,0,0,2.65-1.27C69.11,9.72,77.28,6.41,92.51,3.76c3.07-.53,7.14-.37,8.13,2.56.7,2.06-.68,4.2-2,5.94a35.61,35.61,0,0,0-7.09,15c3.75,1.36,7.91.4,11.89.75s8.48,3.09,8,7c-.2,1.79-1.4,3.3-2.56,4.69L96,55.4c4.8-.22,10.76.24,12.66,4.62,1.58,3.64-.83,7.75-3.39,10.78A67.14,67.14,0,0,1,61.66,94c-13.39,1.45-28.19-1.2-39.8-8.19C14.29,81.24,9.6,70.66,7,62.65c-2.47-7.34-4.71-20.22-.48-22.8"/><path d="M76.47,3.56a28.58,28.58,0,0,0-4.34,0L71,3.63,34.06,6.06c-.37,0-.7.05-1,.07a16.13,16.13,0,0,0-6.88,2.28c-.35.22-.7.44-1.05.68a16.46,16.46,0,0,0-3.68,4.82c-.19.37-.37.74-.52,1.12-1.14,3.55-1.12,7.29-1.08,11,0,.4,0,.81,0,1.21.35,1.73.46,3.57.77,5.3.05.44.09.87.15,1.31.72,7,.73,13.86,1,20.8,0,.46.05.94.07,1.4.26,4.66.53,9.29,1,13.91,0,.29,0,.63.06.94,1.93,29.37,4,60.42,4,60.42A12.47,12.47,0,0,0,40.13,142.9L84.43,140A12.47,12.47,0,0,0,96,126.75s-.15-2.13-.39-5.83c0-.31,0-.62-.06-1-.2-3.24-.42-6.48-.64-9.72,0-.48-.06-1-.1-1.43-.31-4.64-.66-9.94-1-15.61,0-.29,0-.59-.05-.9-.29-4.42-.57-8.69-.86-13.07,0-.31,0-.64-.06-1-.53-8-1.07-16.19-1.58-23.94,0-.33,0-.66-.07-1s-.05-.89-.09-1.33c-1-12.75-2.13-25.47-2.58-38.28-.07-.37-.16-.76-.28-1.12-1.42-4.82-5.39-9.27-10.75-9-.35,0-.7-.06-1-.07"/><path class="cls-4" d="M91.4,127a7.83,7.83,0,0,1-7.29,8.32l-44.29,2.91a7.78,7.78,0,0,1-5.67-1.93,7.88,7.88,0,0,1-.85-.87,5.67,5.67,0,0,1-1.58-3.55c-1.9-18.13-2-36.38-3.94-54.51-.63-6-.44-12.07-.92-18.06,0-.44-.05-.88-.09-1.32-.5-6.35-1.1-12.68-1.49-19,0-.46-.06-.9-.07-1.36-.48-4.8-.68-9.66-.81-14.48,0-.43-.05-.81-.07-1.16-.11-1.78-.18-2.76-.18-2.76a7.82,7.82,0,0,1,7.28-8.32l1.2-.07,1.19-.07c-.48,4.65,4.82,4.08,8,3.55l.77-.05,13.08-.86.87-.06c5.34-1.07,11.33,0,16.34-1.73a2.74,2.74,0,0,0,.44-.75,2.09,2.09,0,0,0,.11-.89l-.11-1.8L75.72,8A7.82,7.82,0,0,1,84,15.28s0,.63.11,1.79c0,.39.06.83.09,1.34.43,4.55,1,9.17,1.14,13.68.15,6.4,1.07,12.7,1.35,19.07,0,.46,0,.9.05,1.36.31,9,.79,17.92,1.62,26.94.83,10.88,1,21.81,2.37,32.65.48,3.81,0,7.67.41,11.5,0,.24,0,.48,0,.7.11,1.75.18,2.72.18,2.72"/></g><text class="cls-5" transform="matrix(1, -0.07, 0.07, 1, 69.46, 26.28)">+</text><rect x="27.69" y="23.21" width="8.76" height="2.28" transform="translate(-1.52 2.14) rotate(-3.74)"/><line class="cls-6" x1="29.93" y1="37.26" x2="80.62" y2="33.93"/><g class="cls-2"><path d="M42,31.32a5.23,5.23,0,1,1-4.87,5.56A5.23,5.23,0,0,1,42,31.32"/><path class="cls-7" d="M40.11,36.78l4.62-.38m-3.87,2.78c.94-.07,1.88-.15,2.82-.2m-3-4.65c.94-.07,1.88-.15,2.82-.2"/></g><line class="cls-6" x1="30.74" y1="49.53" x2="81.43" y2="46.2"/><g class="cls-2"><path d="M71.14,41.74a5.23,5.23,0,1,1-4.87,5.56,5.23,5.23,0,0,1,4.87-5.56"/></g><g class="cls-2"><path class="cls-7" d="M69.3,47.17l4.62-.38m-3.87,2.8c.94-.07,1.88-.15,2.82-.2m-3-4.67c.94-.07,1.88-.15,2.82-.2"/></g><line class="cls-6" x1="31.68" y1="63.88" x2="82.38" y2="60.55"/><g class="cls-2"><path d="M59.05,56.88a5.23,5.23,0,1,1-4.87,5.56,5.23,5.23,0,0,1,4.87-5.56"/><path class="cls-7" d="M57.28,62.39,61.9,62M58,64.78l2.82-.2m-3-4.65c.94-.07,1.88-.15,2.82-.2"/></g></svg>