<svg xmlns="http://www.w3.org/2000/svg" xmlns:xlink="http://www.w3.org/1999/xlink" width="40" height="40" viewBox="0 0 40 40">
    <defs>
        <path id="a" d="M0 .301h25.78V16.76H0z"/>
    </defs>
    <g fill="none" fill-rule="evenodd">
        <g transform="translate(7 9.043)">
            <mask id="b" fill="#fff">
                <use xlink:href="#a"/>
            </mask>
            <path fill="#FFF" d="M22.631 2.86c.787.198 1.476.787 1.476 1.673 0 1.378-1.18 3.247-4.527 5.807-.984.787-1.575 1.475-1.673 2.262 0 .886.492 1.575 1.673 2.362.985.59 1.87-.886.887-1.378-.591-.393-.887-.688-.887-.886 0-.197.394-.59.985-1.082 3.837-2.853 5.117-5.314 5.215-6.987 0-1.77-1.18-2.951-2.854-3.346a3.59 3.59 0 0 0-2.262.098c0-.393.098-.689.098-1.082H5.018v1.082c-.689-.295-1.476-.295-2.262-.098C1.18 1.68 0 2.86 0 4.631c0 1.673 1.378 4.134 5.117 6.987.69.491.985.886 1.083 1.082 0 .198-.296.492-.887.886-.984.492-.098 1.969.787 1.378 1.28-.787 1.771-1.476 1.673-2.362 0-.787-.59-1.476-1.575-2.262C2.852 7.78 1.672 5.91 1.672 4.533c0-.886.59-1.475 1.475-1.673.69-.098 1.476 0 2.067.394 2.46 18.008 12.89 18.008 15.253 0 .59-.394 1.377-.492 2.164-.394z" mask="url(#b)"/>
        </g>
        <path fill="#FFF" d="M21.267 28.042c2.067.295 3.74 1.18 3.74 2.657H14.674c0-1.476 1.575-2.362 3.542-2.558v-1.673a4.092 4.092 0 0 0 3.051 0v1.574z"/>
    </g>
</svg>
