<svg xmlns="http://www.w3.org/2000/svg" xmlns:xlink="http://www.w3.org/1999/xlink" width="40" height="40" viewBox="0 0 40 40">
    <defs>
        <circle id="a" cx="20" cy="20" r="20"/>
        <path id="c" d="M0 28.75h41.071V0H0z"/>
    </defs>
    <g fill="none" fill-rule="evenodd">
        <mask id="b" fill="#fff">
            <use xlink:href="#a"/>
        </mask>
        <use fill="#FFD200" xlink:href="#a"/>
        <g mask="url(#b)">
            <g transform="translate(-3 9.107)">
                <path fill="#3884A8" d="M39.653 21.89c.055 0 .109.019.15.054l1.186 1.008a.231.231 0 0 1-.15.407H5.632c-.242 0-.322-.324-.107-.436l1.698-.885a1.31 1.31 0 0 1 .606-.149h31.824z"/>
                <mask id="d" fill="#fff">
                    <use xlink:href="#c"/>
                </mask>
                <path fill="#8470AA" d="M11.781 23.033H14.4v-.49H11.78z" mask="url(#d)"/>
                <path fill="#595959" d="M31.908 23.033h2.618v-.49h-2.618zM9.982 22.216h1.145v-5.88H9.982zM35.344 22.216h1.146v-5.88h-1.146z" mask="url(#d)"/>
                <path fill="#D6D6D6" d="M36.162 18.949H9.982l1.033-.654H35.13z" mask="url(#d)"/>
                <path fill="#FFF" d="M29.126 18.622H15.218l1.726-.327h10.891z" mask="url(#d)"/>
                <path fill="#D6D6D6" d="M36.162 15.845H9.982l.764-.483c.176-.111.379-.17.586-.17h23.48c.207 0 .41.059.586.17l.764.483zM36.162 22.053H9.982l1.033-.654H35.13z" mask="url(#d)"/>
                <path fill="#8F8F8F" d="M35.969 15.682H10.503c-.557 0-1.012.454-1.012 1.01v5.004c0 .556.455 1.01 1.012 1.01h25.466c.556 0 1.012-.454 1.012-1.01v-5.005c0-.555-.456-1.01-1.012-1.01m0 .758c.137 0 .253.116.253.252v5.005a.256.256 0 0 1-.253.253H10.503a.256.256 0 0 1-.253-.253v-5.005c0-.136.115-.252.253-.252h25.466" mask="url(#d)"/>
                <path fill="#8F8F8F" d="M9.982 19.439H36.49v-.49H9.982zM33.708 15.616H12.436l.419-.26h20.602z" mask="url(#d)"/>
                <path fill="#000" d="M22.417 15.028h1.473v-1.306h-1.473z" mask="url(#d)"/>
                <path fill="#000" d="M34.11 14.375H12.197a.416.416 0 0 1-.416-.417V.418c0-.231.187-.418.416-.418H34.11c.23 0 .416.187.416.417v13.54c0 .231-.186.418-.416.418M17.984 14.865H28.16c.263 0 .475.251.475.49H17.51c0-.239.212-.49.475-.49" mask="url(#d)"/>
                <path fill="#595959" d="M26.181 17.74h.263v-.261h-.263zM26.122 16.826l.167.605.156-.606.063.502-.048.143-.358.009-.085-.429z" mask="url(#d)"/>
                <path fill="#000" d="M26.18 17.207l-.004-.382h-4.973l-2.222.382h7.2l-.992.272.992-.272" mask="url(#d)"/>
                <path fill="#595959" d="M33.668 17.707l-.082-.392h-7.177l-.054.392-.01.482.091.433h7.19l.082-.433z" mask="url(#d)"/>
                <path fill="#0E0E10" d="M33.708 18.622h-7.2s.26.262.326.262h6.578c.04 0 .296-.262.296-.262" mask="url(#d)"/>
                <path fill="#000" d="M27 18.295h4.744v-.653H27zM33.708 17.152h-7.195l-.005-.327h4.888z" mask="url(#d)"/>
                <path fill="#595959" d="M26.14 17.707l-.082-.392h-7.186l-.054.392.026.482.055.433h7.2l.082-.433z" mask="url(#d)"/>
                <path fill="#0E0E10" d="M26.181 18.622h-7.2s.259.262.326.262h6.578c.04 0 .296-.262.296-.262" mask="url(#d)"/>
                <path fill="#000" d="M19.472 18.295h4.745v-.653h-4.745zM19.05 18.147a.089.089 0 0 0-.02.02v-.03h-.049v.256h.051v-.114a.17.17 0 0 1 .004-.039.075.075 0 0 1 .012-.027.05.05 0 0 1 .02-.016.084.084 0 0 1 .033-.006h.008v-.059h-.008a.08.08 0 0 0-.051.015" mask="url(#d)"/>
                <path fill="#FF7900" d="M19.94 18.046h-.008v.023h-.004v-.023h-.009v-.004h.021v.004zm-.304.086h.327v-.327h-.327v.327z" mask="url(#d)"/>
                <path fill="#8F8F8F" d="M31.254 21.726h-7.691l.574-.327h6.08zM19.145 21.726h-7.69l.64-.327h5.768z" mask="url(#d)"/>
                <path fill="#D6D6D6" d="M31.254 20.58l-5.073.002.278-.643 4.01-.01z" mask="url(#d)"/>
                <path fill="#FFD200" d="M26.181 21.89h5.073v-1.308H26.18z" mask="url(#d)"/>
                <path fill="#FFB400" d="M31.09 21.563h.263v-.98h-.263z" mask="url(#d)"/>
                <path fill="#FFB400" d="M30.926 21.563h.264v-.98h-.264zM26.508 21.563h.264v-.98h-.264z" mask="url(#d)"/>
                <path fill="#B5E8F7" d="M20.127 21.398l-6.546.001.868-.643 5.452-.01z" mask="url(#d)"/>
                <path fill="#4BB4E6" d="M13.581 21.89h6.546v-.49H13.58z" mask="url(#d)"/>
                <path fill="#FFF" d="M15.218 21.824h4.418v-.262h-4.418z" mask="url(#d)"/>
                <path fill="#0B5FA5" d="M14.072 21.824h.982v-.262h-.982z" mask="url(#d)"/>
                <path fill="#FFB400" d="M19.636 20.419h-5.564l.826-.653h4.572z" mask="url(#d)"/>
                <path fill="#FF7900" d="M14.072 21.4h5.564v-.981h-5.564z" mask="url(#d)"/>
                <path fill="#FFB400" d="M14.563 21.236h.263v-.654h-.263zM19.472 21.236h.263v-.654h-.263zM14.89 21.236h.264v-.654h-.264z" mask="url(#d)"/>
                <path fill="#2B2B2B" d="M12.6 12.741h21.108V.817H12.6z" mask="url(#d)"/>
                <path fill="#FF7900" d="M25.01 7.85h-.052v.143h-.027V7.85h-.052v-.023h.13v.023zm-3.247.971h3.6V5.227h-3.6v3.594z" mask="url(#d)"/>
                <path fill="#7F634F" d="M16.036 19.176s1.772-.316 1.628.46c-.109.587-.655.807-.699.781-.044-.026-.93-1.241-.93-1.241" mask="url(#d)"/>
                <path fill="#000" d="M15.545 19.929s-.03.407-.631.768c-.6.361-.985.68-.96 1.122.025.443-.536-1.354-.536-1.354s1.314-.408 1.351-.396c.038.011.776-.14.776-.14M16.69 19.929s.056.422.222.482.27-.242.27-.242l-.492-.24zM16.527 20.91s.05.429.299.483c.249.054.184-.282.184-.282l-.483-.202zM16.527 21.89s.085.44.33.486c.244.045.138-.374.138-.374l-.468-.113zM16.69 22.87s.07.395.264.49v-.434l-.264-.057z" mask="url(#d)"/>
                <path fill="#7F634F" d="M.49 28.75S12 23.607 12.14 22.244c.044-.423-.163-1.38-.223-1.78-.07-.478.113-1.128.8-1.12.66.008 3.92-.337 4.16-.2.24.14.418.557.217 2.057-.2 1.501-.754 1.915-1.052 1.97-1.581.296-1.337.877-1.442 1.224-.204.671-5.854 4.202-5.854 4.202" mask="url(#d)"/>
                <path fill="#000" d="M17.018 26.227c0 .401-.331.726-.74.726h-1.794a.733.733 0 0 1-.739-.726V11.834c0-.4.33-.726.74-.726h1.793c.409 0 .74.325.74.726v14.393z" mask="url(#d)"/>
                <path fill="#000" d="M17.018 25.96a.666.666 0 0 1-.666.666h-1.614a.666.666 0 0 1-.666-.666V11.775c0-.368.298-.667.666-.667h1.614c.367 0 .666.299.666.667V25.96z" mask="url(#d)"/>
                <path fill="#000" d="M14.072 22.053h2.946v-.654h-2.946z" mask="url(#d)"/>
                <path fill="#595959" d="M14.236 23.441a.245.245 0 1 1 .49 0 .245.245 0 0 1-.49 0M16.363 24.258a.245.245 0 1 1 .49 0 .245.245 0 0 1-.49 0M14.727 24.34a.327.327 0 1 1 .654 0 .327.327 0 0 1-.654 0M14.072 18.785a.49.49 0 1 1 .981.001.49.49 0 0 1-.98 0M14.89 12.251a.49.49 0 1 1 .981.001.49.49 0 0 1-.98 0" mask="url(#d)"/>
                <path fill="#61625F" d="M15.382 15.234a.449.449 0 1 0 0 .897.449.449 0 0 0 0-.897m0 .938a.491.491 0 1 1 0-.983.491.491 0 0 1 0 .983" mask="url(#d)"/>
                <path fill="#595959" d="M15.484 17.642c-.643 0-1.232-.356-1.575-.954l.038-.026c.335.583.91.93 1.537.93.598 0 1.157-.323 1.496-.864l.038.028c-.348.555-.921.886-1.534.886M13.947 14.865l-.038-.027c.343-.597.93-.953 1.57-.953.616 0 1.191.337 1.539.902l-.038.028c-.339-.551-.9-.88-1.5-.88-.625 0-1.198.348-1.533.93M15.709 18.785a.49.49 0 1 1 .98.001.49.49 0 0 1-.98 0" mask="url(#d)"/>
                <path fill="#8F8F8F" d="M14.663 21.236h-.083v-.351h-.18v-.047c.095 0 .18-.018.2-.092h.063v.49zM15.229 20.92c-.004-.1.044-.174.128-.174.07 0 .124.05.124.14 0 .087-.047.13-.096.169-.05.037-.102.068-.112.129h.204v.052h-.26c.009-.116.056-.158.112-.2.067-.052.102-.082.102-.15 0-.053-.035-.088-.077-.088-.056 0-.08.063-.078.121h-.047z" mask="url(#d)"/>
                <path fill="#61625F" d="M15.35 15.897c.052 0 .072-.042.072-.084 0-.043-.02-.085-.073-.085-.053 0-.072.042-.072.085 0 .042.02.084.072.084m0-.215c.083 0 .132.058.132.131 0 .072-.049.13-.132.13a.124.124 0 0 1-.131-.13c0-.073.048-.131.131-.131M15.545 15.682h.063v.108l.111-.108h.078l-.111.103.122.158h-.078l-.086-.117-.036.033v.084h-.063z" mask="url(#d)"/>
                <path fill="#8F8F8F" d="M16.303 20.952l.02.001c.04 0 .074-.026.074-.079 0-.05-.03-.077-.07-.077-.05 0-.072.048-.073.104h-.046c.003-.091.042-.155.12-.155.067 0 .118.04.118.129a.112.112 0 0 1-.053.096v.001c.047.013.07.06.07.117 0 .097-.061.147-.134.147-.079 0-.131-.058-.13-.157h.047c.002.062.03.106.083.106.045 0 .084-.035.084-.093 0-.06-.036-.093-.082-.093l-.028.002v-.049zM14.568 21.886v-.24h-.001l-.128.24h.129zm.043 0h.052v.052h-.052v.115h-.043v-.115H14.4v-.057l.174-.319h.037v.324zM15.46 21.451h-.16l-.02.141v.001a.09.09 0 0 1 .074-.035c.07 0 .127.056.127.168 0 .083-.046.163-.138.163-.068 0-.124-.052-.125-.14h.047c.003.05.036.088.083.088.045 0 .083-.038.083-.116 0-.065-.036-.111-.089-.111-.03 0-.055.019-.073.046l-.04-.002.036-.255h.194v.052zM16.255 21.73c0 .06.03.108.08.108s.079-.05.079-.106c0-.06-.026-.11-.079-.11-.052 0-.08.048-.08.109zm.15-.208c-.004-.043-.028-.072-.065-.072-.08 0-.092.109-.094.183l.001.001c.022-.044.055-.063.097-.063.074 0 .119.067.119.156 0 .07-.032.162-.13.162-.115 0-.134-.13-.134-.231 0-.133.033-.259.143-.259.064 0 .104.045.11.123h-.047zM14.663 22.413a.455.455 0 0 0-.156.293h-.055a.443.443 0 0 1 .16-.29H14.4v-.037h.263v.034zM15.351 22.582c.037 0 .065-.029.065-.078 0-.048-.028-.074-.066-.074-.038 0-.069.026-.069.074 0 .053.031.078.07.078m0 .236c.047 0 .08-.04.08-.093s-.036-.092-.08-.092c-.047 0-.083.036-.083.092 0 .058.034.093.083.093m-.004-.439c.085 0 .118.062.118.123a.114.114 0 0 1-.054.1c.047.019.07.06.07.12 0 .094-.058.147-.13.147-.075 0-.133-.048-.133-.147 0-.057.025-.1.068-.12-.032-.016-.054-.056-.054-.1 0-.08.054-.123.115-.123M16.326 22.43c-.056 0-.077.055-.077.114 0 .053.032.102.078.102.049 0 .08-.049.08-.106 0-.059-.028-.11-.08-.11zm-.071.315c.003.047.034.073.072.073.057 0 .085-.062.088-.186v-.001c-.019.04-.053.066-.092.066-.08 0-.124-.066-.124-.16s.054-.158.13-.158c.072 0 .134.048.134.23 0 .167-.041.26-.136.26-.066 0-.113-.041-.12-.124h.048zM15.35 23.635c.08 0 .08-.122.08-.194 0-.072 0-.194-.08-.194-.082 0-.082.122-.082.194 0 .072 0 .194.081.194m0-.439c.124 0 .132.139.132.245 0 .106-.008.245-.132.245-.123 0-.131-.139-.131-.245 0-.106.008-.245.131-.245M14.62 23.297c-.007-.044-.04-.066-.082-.066-.07 0-.1.061-.1.126 0 .071.03.13.1.13.052 0 .082-.038.086-.09h.039c-.008.079-.053.126-.127.126-.092 0-.136-.072-.136-.163 0-.09.048-.164.139-.164.061 0 .112.035.121.101h-.04zM14.826 19.602v.327h-.067l-.093-.092h-.103v-.144h.108l.083-.088z" mask="url(#d)"/>
                <path fill="#8F8F8F" d="M14.727 19.862h.263v-.096h-.263zM16.036 19.862h.263v-.096h-.263zM14.826 18.622v.327h-.067l-.093-.092h-.103v-.144h.108l.083-.088z" mask="url(#d)"/>
                <path fill="#8F8F8F" d="M14.727 18.882h.263v-.096h-.263z" mask="url(#d)"/>
                <path fill="#8F8F8F" d="M14.727 19.047h.097v-.261h-.097zM15.911 19.888h.413v-.245h-.413v.245zm-.039.041h.491v-.327h-.49v.327zM16.036 20.19h.327v-.261h-.327zM16.036 18.881h.263v-.095h-.263z" mask="url(#d)"/>
                <path fill="#8F8F8F" d="M16.2 19.047h.096v-.261H16.2z" mask="url(#d)"/>
                <path fill="#8F8F8F" d="M15.911 18.908h.413v-.245h-.413v.245zm-.039.04h.491v-.326h-.49v.327zM16.036 19.21h.327v-.261h-.327z" mask="url(#d)"/>
                <path fill="#595959" d="M16.036 17.479c0 .09-.09.163-.2.163h-.745c-.11 0-.2-.073-.2-.163 0-.09.09-.164.2-.164h.744c.111 0 .2.074.2.164M16.036 13.885c0 .09-.09.163-.2.163h-.745c-.11 0-.2-.073-.2-.163 0-.09.09-.163.2-.163h.744c.111 0 .2.073.2.163" mask="url(#d)"/>
                <path fill="#61625F" d="M15.026 15.192l-.3-.3.029-.027.3.3zM16.172 16.335l-.3-.3.028-.026.3.3zM15.9 15.192l-.028-.028.3-.299.027.028zM14.754 16.335l-.027-.028.3-.298.027.027z" mask="url(#d)"/>
                <path fill="#8F8F8F" d="M15.463 12.578a.25.25 0 0 1-.245-.252.25.25 0 0 1 .155-.235l.019.049a.199.199 0 0 0-.123.186c0 .11.087.2.194.2.107 0 .195-.09.195-.2a.2.2 0 0 0-.13-.189l.016-.049c.098.035.165.13.165.238a.25.25 0 0 1-.246.252" mask="url(#d)"/>
                <path fill="#8F8F8F" d="M15.545 12.35h.117v-.262h-.117z" mask="url(#d)"/>
                <path fill="#FF7900" d="M16.527 24.47a.131.131 0 1 1 .263 0c0 .072-.059.13-.132.13a.131.131 0 0 1-.131-.13" mask="url(#d)"/>
                <path fill="#8F8F8F" d="M14.336 24.34v.26l-.264-.137z" mask="url(#d)"/>
                <path fill="#8F8F8F" d="M14.5 24.34v.26l-.264-.137zM15.872 24.6v-.26l.264.137z" mask="url(#d)"/>
                <path fill="#8F8F8F" d="M15.709 24.6v-.26l.263.137zM14.89 24.438v-.262l.264.138z" mask="url(#d)"/>
                <path fill="#8F8F8F" d="M15.054 24.6h.263v-.26h-.263z" mask="url(#d)"/>
                <path fill="#8F8F8F" d="M15.218 24.6h.263v-.26h-.263zM14.96 24.503l-.07-.018.195-.309.069.018z" mask="url(#d)"/>
                <path fill="#2A2B2B" d="M15.76 26.3c-.03 0-.049.02-.051.054h.103c0-.035-.02-.054-.051-.054M15.596 26.3c-.024 0-.051.029-.051.123 0 .052.002.138.051.138.051 0 .056-.086.056-.142 0-.065-.02-.12-.056-.12M15.218 26.353c0 .018.01.033.03.033.02 0 .041-.008.062-.026v-.06c-.062.008-.092.023-.092.053M15.114 26.3c-.05 0-.06.075-.06.13 0 .056.01.131.06.131.05 0 .059-.075.059-.13 0-.056-.01-.131-.06-.131" mask="url(#d)"/>
                <path fill="#8F8F8F" d="M15.218 17.612l.263-.133v.261z" mask="url(#d)"/>
                <path fill="#8F8F8F" d="M15.381 17.74v-.06h.192c0-.001.038-.016.038-.066a.087.087 0 0 0-.04-.074h-.137v-.061h.144c.002.002.067.036.067.135 0 .081-.043.117-.069.126h-.195z" mask="url(#d)"/>
                <path fill="#7F634F" d="M17.482 20.092s.605.003.507.56a.99.99 0 0 1-.644.747" mask="url(#d)"/>
                <path fill="#7F634F" d="M17.212 21.236s.503.056.457.61c-.02.233-.144.579-.488.697" mask="url(#d)"/>
                <path fill="#7F634F" d="M17.375 21.89s.556.234.447.714c-.046.203-.184.225-.477.265" mask="url(#d)"/>
                <path fill="#FF7900" d="M10.04 24.013s1.669.656 1.741 2.687l-2.63 1.741L0 28.75l10.04-4.737z" mask="url(#d)"/>
                <path fill="#7F634F" d="M12.6 19.305c1.585-.427 2.733-.089 2.78.48.026.317-.263.608-.856.66-.594.053-.79.214-.79.214s1.001 2.148-.324 3.844l-.793-1.41M17.59 20.18l-.45.073c-.166.022-.344-.096-.427-.359-.083-.262.074-.573.225-.639l.283-.122c.152-.065.466.02.55.282.082.263.142.672-.18.765" mask="url(#d)"/>
                <path fill="#7F634F" d="M17.705 21.162l-.51.071c-.186.022-.388-.098-.483-.363a.485.485 0 0 1 .194-.547l.377-.216c.17-.065.388.098.483.363.095.264.11.627-.061.692" mask="url(#d)"/>
                <path fill="#7F634F" d="M17.586 22.166l-.412.19c-.151.064-.326 0-.425-.226-.099-.226-.07-.494.065-.596l.342-.259c.135-.101.326 0 .425.226.099.226.14.563.005.665" mask="url(#d)"/>
                <path fill="#7F634F" d="M17.616 22.755l-.378.231c-.14.082-.32.062-.447-.104-.127-.165-.135-.389-.017-.497l.3-.274c.118-.108.32-.062.447.104.127.165.213.432.095.54" mask="url(#d)"/>
            </g>
        </g>
    </g>
</svg>
