<?xml version="1.0" encoding="utf-8"?>
<!-- Generator: Adobe Illustrator 21.0.0, SVG Export Plug-In . SVG Version: 6.00 Build 0)  -->
<svg version="1.1" id="Calque_1" xmlns="http://www.w3.org/2000/svg" xmlns:xlink="http://www.w3.org/1999/xlink" x="0px" y="0px"
	 viewBox="0 0 793.7 538.6" style="enable-background:new 0 0 793.7 538.6;" xml:space="preserve">
<style type="text/css">
	.st0{fill:#FFF6B6;}
	.st1{fill:#62342D;}
	.st2{fill:#FF7900;}
	.st3{fill:#D48D7D;}
	.st4{fill:#C2796C;}
	.st5{fill:#B5E1E8;}
	.st6{fill:#010101;}
	.st7{fill:#C19371;}
	.st8{fill:#595959;}
	.st9{fill:#B5E8F7;}
	.st10{fill:#EEF7F8;}
	.st11{fill:#A7A5AB;}
	.st12{fill:#424344;}
	.st13{fill:#979394;}
	.st14{fill:#6FBBBB;}
	.st15{fill:#FFD200;}
	.st16{fill:#50BE87;}
	.st17{fill:#B8EBD6;}
	.st18{fill:#106F3C;}
	.st19{fill:#C19372;}
	.st20{fill:#2C323D;}
	.st21{fill:#4BB4E6;}
	.st22{fill:#FFFFFF;}
	.st23{fill:#474B56;}
	.st24{fill:#1B212B;}
	.st25{fill:#EDF3F3;}
	.st26{fill:#527494;}
	.st27{fill:#714F47;}
	.st28{fill:#66413E;}
	.st29{fill:#DFB5A9;}
	.st30{fill:#E3BDB2;}
	.st31{fill:#C4E7F2;}
	.st32{fill:#589EC4;}
	.st33{fill:#8D7478;}
	.st34{fill:#EC7404;}
	.st35{fill:#66413C;}
	.st36{fill:#575251;}
</style>
<g>
	<path id="XMLID_410_" class="st0" d="M741.7,285.8c-10.4-3.4-26.7-6.2-19.6-17.9c5.4-8.9,26.5-8.7,28.4-19.8
		c3.2-18.9-39.1-16.8-52.6-20.8c-7.8-2.3-19-6.8-19.7-14.7c-1-11.5,13.9-11,21.6-16.4c7.5-5.2,10.5-10.8,7.9-19.1
		c-4.8-15.7-29.3-15.4-45.5-19.6c-6.4-1.6-18.7-4.8-20.4-11.3c-3.5-13.4,38.7-12.5,29.1-34.3c-7-16-29.8-13.6-43.7-22.4
		c-7-4.4-13.2-11-11.4-19.1c2.2-9.4,14.5-12.5,22.4-18.1c18.2-13-1.7-16.2-16-21.9C581.3,14,437.8,8.3,404.3,8.3
		c-54.6,0.1-273.2,7.6-267.2,38.8c3.8,19.9,38.6,16.6,37.4,36.7c-1.1,18.2-35.3,15.3-49.9,17.8c-24.9,4.3-51,26-20.6,38.9
		c15.4,6.6,33.6,12.4,25.6,29.1c-7.4,15.4-38.4,19.1-55.5,23.3c-9,2.2-19.8,1-25,8.7c-5.4,8,0.4,17,9.4,21.2c10.4,4.8,33,4.8,37,16
		c3.2,8.9-7.2,16.9-15.8,19.4c-17.9,5.2-46.5-2.1-55.8,16.3c-12.5,24.7,28.2,23.1,33.7,41.7c4.8,16.2-18.2,20.4-31.7,24.8
		c-21.9,7.1-21.6,29.9,1.6,36c9.5,2.5,18.8,0,28.1,4.2c12.3,5.6,15.9,14.3,4.7,22.6c-4,3-10.3,2.1-13.4,5.7
		c-9,10.2,4.1,24.9,16.9,21.8c17.6-4.3,34.8-10,53.5-9.8c7.1,0.1,14.2,0.3,21.4,0.4c18.4,0.4,36.8,0.8,55.2,1.2
		c48.2,1,96.4,2.1,144.6,3.1c53.6,1.1,107.2,2.1,160.8,3c47.2,0.8,94.4,1.5,141.6,1.8c25.2,0.2,50.4,0.6,75.7-0.1
		c22.1-0.7,32-4.8,33.2-24.8c0.4-5.9-0.9-11.6,0.3-17.5c1.4-6.5,7.8-13.2,5.5-19.8c-1-2.8-2.9-5.4-5.2-7.9
		c-8.5-9.2-21.6-16.9-7.4-29.6c7.8-7,21.9-7.8,26.9-17.1C779.5,295.4,758.4,291.3,741.7,285.8z"/>
	<path id="XMLID_409_" class="st1" d="M389.7,199.9c0.9-0.8,1.8-1.6,2.7-2.4c-0.5-1.7-2.1-2.1-2.2-3.7c12.7-1.4,16.6-29.8,17.3-41.7
		c0.5-7.4,0.5-12.9-0.9-13c18.5,2.5,40.2-20.2,49.2-34.6c7.4,11.8,3.3,25.5,4.6,38.6c0.9,9.3,0.5,28.2,6.9,35.6
		c2.1,2.5,6.8,3.8,9.5,5.9c4.6,3.6,15,8.4,20.6,10.7c6.4,2.7,6,1.8,12.7,2.8c-4.7,6.2-15.3,9.3-21.7,14.3
		c-4.6,3.6-8.3,7.6-11.7,12.3c-10,13.5-18.1,29.1-35.2,34.5c-18.2,5.7-39.2,1.5-51.3-14.3c-7.3-9.6-11.3-21-8.9-31.2
		C382.5,208.5,385.2,203.9,389.7,199.9z"/>
	<path id="XMLID_408_" class="st2" d="M377.7,205.7c-0.9-29.2-31.5-14.8-43.8-1.3c-10.3,11.3-17.8,28.7-24.5,42.5
		c-7.6,15.6-13.9,31.8-18.7,48.5c-7.1,24.7-10.2,52.1,0.2,76.4c4.9,11.4,18.7,19.3,29.1,24.6c22.8,11.6,64.8,8.5,56.1-27.5
		c-7-28.8-21.6-53.5-22.4-84.3c-0.3-10.5,1.3-21,6.2-32.7C366.1,236.8,378.2,222.9,377.7,205.7z"/>
	<g id="XMLID_398_">
		<path id="XMLID_407_" class="st3" d="M481,368.1c-1.7-1.3-3.7-2.1-5.6-3.3c0.7-0.7,1.6-1.2,2.5-1.6c-9.2,0.6-17.2,5.5-25.5,8.1
			c5.8-1.3,11.8-1.4,18,0.1c2.2,0.6,4.5,1.3,6.6,2c2.6,0.9,4.9,2.4,7.4,3.6C485.8,374,483.5,370,481,368.1z"/>
		<path id="XMLID_406_" class="st3" d="M500.2,334.9c-0.6-2.7-2-6.2-4.6-6.4c-2.3-0.1-11.5,8.4-21.4,10.7
			c-12.5,2.9-25.3,5.4-38.2,5.1c-7.3-0.2-14.6-2.3-21.6-5c-5.1,10.2-6.1,21.8-10.6,32.3c20,4.2,55,1.2,64.8-2.9
			c10-4.2,21.6-9.2,27.8-18.7c2.3-3.6,4.8-9.3,4.1-13.6C500.4,335.9,500.4,335.4,500.2,334.9z"/>
		<g id="XMLID_404_">
			<path id="XMLID_405_" class="st4" d="M497.3,329c-3,5.7-8.7,10.4-17.3,14.4l1,2.3c8.4-3.9,13.9-9.1,17.3-14.6
				c-0.5-0.8-0.5-1.1-0.8-2L497.3,329z"/>
		</g>
		<g id="XMLID_402_">
			<path id="XMLID_403_" class="st4" d="M481.4,350l1,2.5c8.9-4,14.3-8.4,17.9-14c0.2-2,0.2-2,0-3.7
				C497.2,340.7,490.6,345.9,481.4,350z"/>
		</g>
		<g id="XMLID_399_">
			<path id="XMLID_401_" class="st4" d="M489.3,353c-0.7,0.5-9.4,4.5-9.5,4.1c0,0,0.9,2.4,0.9,2.4c0.2,0.7,10-4.4,10.8-5
				c1.2-0.8,2.6-2,3.8-3.4c1.4-1.6,3-4.1,3.3-6.3C498.2,345.7,494,349.7,489.3,353z"/>
			<path id="XMLID_400_" class="st4" d="M498.6,344.7c0-0.1,0-0.1,0-0.2C498.6,344.6,498.6,344.6,498.6,344.7z"/>
		</g>
	</g>
	<path id="XMLID_397_" class="st5" d="M414.4,339.4c-1.1,3.7,0.8,24.4-6,36.2c4,2.4,9.7,0.8,13.1-2.4c3.9-3.7,6.4-23.7,2-28.6
		C422.9,343.9,414.6,338.9,414.4,339.4z"/>
	<path id="XMLID_396_" d="M762.7,387.6c0.1-3.9-1.6-44.1-0.7-44.4c-4.7,1.6-45.5,1.4-55.9,1.3c-31.7-0.2-63.5-0.3-95.2-0.5
		c-30.7-0.2-61.4-0.3-92.1-0.5c-9.7,0-36.5,0.7-43.1-0.7c0.1,44.6,1.3,69.5,0.9,95.9h0.8h15.1H624h15.1c16.4,0,32.8,0,49.2,0
		c21.8,0,51.3,5.8,68.1-12C765.5,417.2,762.5,400.1,762.7,387.6z"/>
	<path id="XMLID_395_" class="st6" d="M603.6,294.8c-2.3,7-4,14.4-5,22c2.2-0.6,4.9-0.6,7.5-0.5c0.9,0,1.8,0,2.6,0c1.5,0,3,0,4.6,0
		c0.1-5.6,0.3-13.4,0.6-21.5c-0.2,0-0.3,0-0.5,0C610.1,294.8,606.9,294.8,603.6,294.8z"/>
	<path id="XMLID_394_" class="st6" d="M689,254.4c0,8.9,0.1,17.8,0.1,26.8c0,11.4-8.4,13.4-18.7,13.5c-8.8,0-17.5,0.1-26.3,0.1
		c0.5,7.8,0.8,15.4,1.1,21.3c1.4,0,2.7,0,4.1,0c5.1,0,12.6-0.9,14.4,3.8c0.2,0.6,0.8,5.5,0.6,5.5c-13.9,0.1-23.4,0.1-32.7,0
		c-9.8,0-19.5-0.1-33.8,0l0,0.1c35.1,0.1,72.4,0.2,104.2,0.2c-1.7-0.1-3.9-0.3-3.9-0.3s0-5.7,2.3-7.7c2.4-2.1,6.2-2.7,9.2-1.6
		c0.1,0,0.1,0,0.1,0.1c-0.9-22.8-8.2-48.8-20.8-64.4C689,252.6,689,253.5,689,254.4z"/>
	<path id="XMLID_393_" d="M762.6,328.1c-3.5-2.4-8.6-2.4-13-2.3c-0.8,0-1.5,0-2.2,0c-18.1-0.1-248-0.7-265.5-0.9
		c-12.3-0.2-11.5,5.1-11.9,7.6c-1,5.4,0,11.8,4,14.1c0.3,0.1,0.7,0.3,1.2,0.4c4.9,1,20.7,0.9,32.7,0.8c4.4,0,8.2-0.1,10.8-0.1
		c31,0.2,62,0.3,93,0.5c12.1,0.1,33.4-0.1,55.9-0.2c37.1-0.2,77.8-0.5,87.4,0.2c11.1,0.8,13.9-11.5,9.9-17.6
		C764.2,329.5,763.5,328.7,762.6,328.1z"/>
	<path id="XMLID_392_" class="st7" d="M754.8,333c-1-0.5-2-1.2-3.2-1.3c-15.1-0.1-53.8-0.1-67.1-0.2c-16.1-0.1-32.2-0.2-48.3-0.2
		c-15.7,0-31.4,0-47,0.1c-12,0.1-24.1,0.1-36.1,0.4c-3.7,0.1-7.3,0.2-11,0.4c-0.4,0-0.8,0-1.2,0c-1.2,0-2.5,0-3.4,0.5
		c-3.3,2-3.2,8.6,0.7,9.5c4.8,1.1,9.7,0.5,14.5,0.5c7.2,0,14.3,0,21.5,0.1c14.9,0.1,29.7,0.1,44.6,0.2c17.8,0.1,118.7,0.8,127.4-0.1
		c2.8-0.3,6.2,0.2,8.6-1.4C758.1,339.3,758.6,335,754.8,333z"/>
	<path id="XMLID_391_" class="st8" d="M685.8,205.4c0,0-0.1-0.1-0.1-0.1c-3.2-3.5-9.6-3-14-3c-6.8,0-13.5,0.1-20.3,0.2
		c-6.6,0.1-13.1,0-19.7-0.1c-6.7-0.1-13.5-0.2-20.4-0.1c-5.1,0.1-9.8,0-14.5-0.1c-7.2-0.2-14.2-0.3-22,0.1
		c-10.6,0.6-9.6,12.4-9.4,18.8c0.2,7.5,0.3,15.1,0.3,22.7c0.1,8.9,0.3,17.8,0.5,26.6c0.1,5.3-0.4,11.1,0.2,16.3
		c1,9.8,12.8,8.3,20,8.2c5.7,0,11.4,0,17.1-0.1c3.3,0,6.5,0,9.8,0c0.2,0,0.3,0,0.5,0c0.5-16.6,1.2-34.1,1.4-35.5
		c0.5-3.6,2.1-5.5,4.6-5.9c5.1-0.7,15.7-0.2,15.7-0.2s4.3-0.2,5.6,6.1c0.9,4.6,2.1,20.3,3,35.4c8.8,0,17.5-0.1,26.3-0.1
		c10.3,0,18.7-2.1,18.7-13.5c0-8.9,0-17.8-0.1-26.8c0-0.9,0-1.8,0-2.7c0-7.9-0.1-15.8-0.1-23.7C688.9,221,690.9,211.2,685.8,205.4z"
		/>
	<path id="XMLID_390_" class="st8" d="M641.1,259.2c-1.3-6.2-5.6-6.1-5.6-6.1s-10.6-0.5-15.7,0.2c-2.4,0.3-4,2.3-4.6,5.9
		c-0.2,1.4-0.9,19-1.4,35.5c-0.2,8.1-0.5,15.9-0.6,21.5c4.8,0,9.5-0.1,14.3-0.1c5.9-0.1,11.8-0.1,17.6-0.1
		c-0.2-5.9-0.6-13.5-1.1-21.3C643.2,279.5,642,263.9,641.1,259.2z"/>
	<path id="XMLID_389_" class="st8" d="M649.3,316c-1.4,0-2.8,0-4.1,0c-5.9,0-11.8,0.1-17.6,0.1c-4.8,0-9.5,0.1-14.3,0.1
		c-1.5,0-3,0-4.6,0c-0.8,0-1.7,0-2.6,0c-2.6-0.1-5.3-0.1-7.5,0.5c-0.7,0.2-1.3,0.4-1.8,0.8c-0.8,0.5-1.4,1.1-1.9,2
		c-1,1.9,0,3.8-0.6,5.8c1.2,0,2.4,0,3.5,0c14.3-0.1,24-0.1,33.8,0c9.3,0,18.8,0.1,32.7,0c0.2,0-0.4-5-0.6-5.5
		C662,315.1,654.4,316,649.3,316z"/>
	<path id="XMLID_388_" class="st9" d="M712.9,316.1c-0.1,0-0.1,0-0.2-0.1c-3.8-1.1-8.6-0.5-11.6,1.6c-2.9,2-2.9,7.7-2.9,7.7
		s2.8,0.2,4.9,0.3c0.9,0.1,1.7,0.1,2.1,0.1c1.2,0,13.9-0.2,13.9,0l0-0.1C719,321.6,718.3,317.7,712.9,316.1z"/>
	<path id="XMLID_387_" class="st10" d="M596,325.4c0.6,0,1.2,0,1.8,0l0,0C597.2,325.3,596.6,325.4,596,325.4
		C596,325.4,596,325.4,596,325.4z"/>
	<path id="XMLID_386_" class="st11" d="M600,325.3c-0.1,0-0.3,0-0.4,0c-0.1,0-0.3,0-0.4,0c-0.5,0-0.9,0-1.4,0l0,0c0.8,0,1.6,0,2.3,0
		c0,0,0,0,0-0.1C600.1,325.3,600,325.3,600,325.3z"/>
	<path id="XMLID_385_" class="st12" d="M638.5,294.5c-0.1-3-0.1-5.9-0.1-8.9c0-6.3-0.2-12.6-1.1-18.7c-0.6-4.1-3-6.4-5.1-5.3
		c-2.2,1.2-3.3,5.4-2.7,9.5c0.4,3,0.5,4.4,0.6,7.6c0.1,3,0.1,5.9,0.1,8.9c0,6.3,0.1,12.5,0.8,18.7c0.4,4.1,3.1,6.3,5.1,5.3
		c2.3-1.2,3.2-5.4,2.7-9.5C638.6,299.9,638.5,297.4,638.5,294.5z"/>
	<path id="XMLID_384_" class="st13" d="M678.8,206.2c-3.4,0.1-25.3,0.3-32.9,0.2c-13,0-26,0-39,0.1c-6.9,0.1-14.1-0.2-21,0.3
		c-2.5,0.2-6.5,0.1-6.6,2.8c-0.1,2,2.2,2.3,4.2,2.5c4.5,0.5,9.4,0.4,14.1,0.4c18.2,0,36.3,0,54.5-0.1c7.6-0.1,15.3-0.1,22.9-0.3
		c3.2-0.1,6.9,0.3,8-2.7c0.1-0.2,0.1-0.4,0.1-0.5C683.5,207,681.2,206.1,678.8,206.2z"/>
	<path id="XMLID_383_" class="st13" d="M588.8,207.4c-2.4-1-9.9-0.1-12.3,1c-5.2,2.3-6.6,7.1-6.5,12.4c0.3,9.9-0.2,41,0,47.3
		c0.1,3.3,0,12.1,2.4,14.4l0,0c5,4.6,4-14.1,4.1-16.5c0.2-7.9,0.4-15.7,0.4-23.6c0-4.2-0.3-8.3-0.3-12.5c0-5-0.4-14,5.2-16.3
		c0.6-0.3,8-1.6,8-0.8C589.9,210.9,590.5,208.1,588.8,207.4z"/>
	<g id="XMLID_380_">
		<path id="XMLID_382_" class="st14" d="M633.4,284.2l0.2,0.2c0-0.1-0.1-0.1-0.1-0.2C633.5,284.2,633.4,284.2,633.4,284.2z"/>
		<path id="XMLID_381_" class="st14" d="M633.8,284.6l-0.2-0.2C633.6,284.5,633.7,284.5,633.8,284.6z"/>
	</g>
	<g id="XMLID_377_">
		<path id="XMLID_379_" class="st14" d="M624.2,258.4l0.3,0.4c-0.1-0.1-0.1-0.2-0.1-0.4C624.3,258.4,624.2,258.4,624.2,258.4z"/>
		<path id="XMLID_378_" class="st14" d="M624.6,259.1l-0.2-0.3C624.5,258.9,624.5,259,624.6,259.1z"/>
	</g>
	<g id="XMLID_375_">
		<path id="XMLID_376_" class="st14" d="M627,261.4l-0.2-0.3C626.8,261.2,626.9,261.3,627,261.4z"/>
	</g>
	<g id="XMLID_373_">
		<path id="XMLID_374_" class="st14" d="M626.6,260.7l0.2,0.3C626.7,261,626.7,260.9,626.6,260.7
			C626.6,260.8,626.6,260.7,626.6,260.7z"/>
	</g>
	<path id="XMLID_372_" class="st5" d="M643.1,364c-1-0.6-11.1-3.2-11.1-2.5c0.1,4.2,8.5,24.9,5.3,39.2c4.9,1.2,10.2-2.2,12.7-6.6
		C653,389,649.2,367.6,643.1,364z"/>
	<path id="XMLID_371_" class="st2" d="M550,246.6c-3.6-9.1-7.1-18.4-11.9-27c-8.1-14.4-18.3-29-35.2-31.5
		c-12.9-1.9-10.3,10.7-9.8,20.8c0.9,18-12.1,37.6-4.1,55.3c0.6,1.4,1.4,2.5,2.4,3.4c4.7,4,12,6,17.1,10.1
		c14.3,11.4,29,29.2,28.5,49.5c-0.4,15.7-17.4,34.6-33,33.9c-1.6-0.1-4,18-3.3,20.5c6,22.2,30.5,24.1,48.8,16.6
		c15.2-6.3,23.8-20.9,29-35.7c7.3-20.5-1.6-40.6-6.9-60.3C566.4,282.7,557.4,265.3,550,246.6z"/>
	<path id="XMLID_370_" class="st9" d="M497.4,236.1c-0.1-9.3,0.4-19.1-2.2-28c-2.9-9.9-10.8-12.1-20.4-14.2
		c-0.8-0.2-1.6-0.4-2.3-0.6c-0.3,0.2-0.6,0.4-0.9,0.6c-8.9,5.6-36.6,7.9-39.1,6.2c-2.5-0.2-5-0.6-7.6-1.3
		c-5.6-1.5-11.6-4.1-15.7-8.4c-1.4-1.5-2.6-3.1-3.6-4.8c-1.5,0.8-3,1.9-4.2,3.4c-2.5,2.9-3.6,6.3-4.6,9.8c-1,3.6-2.5,7.1-3.3,10.8
		c-1.6,7.9-2,15.9-2.5,23.9c-0.2,3.6-0.8,7.3-0.5,10.9c0.2,2.6,0.7,4.7,0.4,7.3c-1.4,15.5-0.8,30.7,1,46.2
		c2.3,19.3,5.8,39.4,5.5,59.2c2.9,7,4.1,15,5,22.5c17.9,0.1,35.9-0.2,53.8-0.4c12.1-0.2,24.1-0.4,36.2-0.6
		c-4.4-13.9-4.4-31.7-4.6-46.4c-0.2-17.9,3.3-36.8,4.7-54.7C493.8,263.6,497.6,250.4,497.4,236.1z"/>
	<path id="XMLID_369_" class="st15" d="M444.6,307c-0.9-5.8-52.8-89.4-48.6-105.4c1.8-7,9.7-18.1,8.4-25.1
		c-9.7-0.9-24.5,4.9-33.6,8.3c-1.4,0.5-2.6,1.1-3.7,1.8c-11.1,6.6-17.2,39.7-18,50.6c-1.1,14.9,27,64.9,27,71
		c0,10.1-20.8-7.3-18.8,2.4c3.9,18.8,40.7,11.6,53.4,11.4C411.8,313.3,445.9,315.3,444.6,307z"/>
	<path id="XMLID_368_" class="st15" d="M516.2,191.1c-1.7-3.1-8.6-6.7-11.9-8.3c-5-2.3-21.1-6.7-30.1-9.4c1.6,5.4,2.6,10.9,3.5,16.5
		c0.1,0.7,0.2,1.3,0.3,1.9c0.2,1.1,0.3,2.1,0.2,3.2c0,1-0.2,1.9-0.4,2.8c-1.6,18.3-51.3,95.1-52.3,114.2c-0.3,6.6,36,43.6,35.7,50.2
		c-0.2,5-2.3,13.3-0.1,18c4.6,9.7,27.1,6.4,35.2,4.5c14.1-3.3-6.1-40.9-5.3-53.1c1-14.8,36.4-62.2,37-77
		C528.8,236.8,524.5,205.7,516.2,191.1z"/>
	<path id="XMLID_367_" d="M780,409.2c-8-8.8-25.9-7.2-37-7.2c-17-0.1-507.6,0.7-530.7,0.8c-19.5,0.1-37.7,5.8-29.8,26.7
		c3.7,9.7,13.3,9.8,23.3,9.9c9.4,0.1,18.9,0.2,28.3,0.2c39.8,0.1,79.5,0,119.3,0c103.3-0.1,206.5-0.4,309.8-0.4
		c23.6,0,47.1,0,70.7,0.1c9.9,0,19.7,0.1,29.6,0.1c14.3,0,23.3-10.2,20-23.5C782.8,413.1,781.6,410.9,780,409.2z"/>
	<path id="XMLID_366_" class="st7" d="M766.6,416c-2.6-2.3-6.7-2.5-10.4-2.8c-1.1-0.1-2.2-0.1-3.1-0.2c-8.2-0.9-16.1-0.9-24.5-1
		c-14.3-0.2-28.6,0.9-42.9,0.8c-34.4-0.2-68.8-0.3-103.3-0.4c-41.6-0.1-83.2-0.2-124.8-0.2c-40.5,0-81,0-121.4,0.2
		c-31.1,0.1-62.2,0.3-93.3,0.7c-9.4,0.1-18.9,0.3-28.3,0.7c-3.5,0.1-8.6-0.4-11.9,0.9c-8.6,3.2-8.3,13.6,1.8,14.9
		c12.4,1.6,25,0.8,37.5,0.7c18.5-0.1,36.9,0,55.4,0.1c38.4,0.1,76.8,0.1,115.1,0.2c46.1,0.1,92.1,0.1,138.2,0.1
		c41.5,0,83,0,124.6-0.1c14.7,0,29.5-0.1,44.2-0.2c7.6-0.1,15.1,0.1,22.7-0.2c6.4-0.3,13.3,1,19.5-1
		C767.2,427.3,772.3,421,766.6,416z"/>
	<path id="XMLID_365_" class="st16" d="M289,273.8c-3-8.7-15.1-40.7-18.5-47.9c-6.5-13.8-15.5,3.8-18.7,10.7
		c-5,10.9-32.9,69.9-28.7,88.1c3.3,13.9,12.7,15.4,26,16.5c12.5,1,28.3,3.1,39.8-3.7c14.2-8.5,12.8-24.7,8.3-40
		C294.8,288.8,291.2,280.4,289,273.8z"/>
	<path id="XMLID_364_" class="st17" d="M281.6,260.9c-2.1-6.9-5.6-13.4-7.3-20.1c-1.4-5.2-2.2-13.1-7.5-16c-4.1-2.3-8.1,3.5-9.6,6.7
		c-8.6,17.7-17,35.5-22.9,54.5c-1.9,6.2-3.9,12.2-5.4,18.6c-0.6,2.6-5.9,14-1.1,15.4c3.7,1.1,6-11,6.4-13.5
		c1.4-8.3,3.7-16.3,6.6-24.1c3-8.2,14.2-36.8,16.7-42.9c1.9-4.6,6.9-16.2,10.4-5.9c1.7,4.9,3,10,4.4,14.9
		c4.1,14.3,9.3,27.9,14.2,41.9c2,5.7,2.7,12.9,5.3,18.2c1,2.1,5.2,4.8,6.4,1.5c0.6-1.7-2.4-8.1-3-9.9
		C291.3,287,285.6,274.2,281.6,260.9z"/>
	<path id="XMLID_363_" class="st18" d="M296.2,315.1c-2.5,3.4-4.5,6.5-8.2,8.8c-10,6.4-21.6,9.2-33.4,8.2c-5.7-0.5-13-0.8-18.1-3.7
		c-2.3-1.4-9.1-8.1-10.6-3.8c-1.7,4.5,4.3,9.4,7.8,11.1c5.4,2.8,11.8,3.6,17.8,3.5c2,0,4,0,6,0c9,0.1,21.6,0.3,29.9-3.9
		c3.9-1.9,7.3-6.8,9.3-10.4c1-1.7,2.2-4,1.9-6.1C298.6,318.4,296.8,314.3,296.2,315.1z"/>
	<path id="XMLID_362_" class="st19" d="M271.4,348.5c0.2-15.2-0.6-30.3-2.4-45.4c-0.3-3-1.1-39.8-7.5-33.7c-4.2,4-3.6,19.9-3.8,25.6
		c-0.5,12.5-2.6,56.9-1.2,66.7c0.5,3.1,1,6.1,3.6,8c3.5,2.5,10.6,2.7,11.3-2.4C271.8,365,271.4,352.3,271.4,348.5z"/>
	<path id="XMLID_361_" class="st19" d="M285.4,297.4c-2.4,9.3-11.2,19.1-18.4,21.5l-2.3,2.7c-0.6,2.1-0.5,4.5-0.8,6.6
		c14.1-5.1,19.8-13.6,26.4-30.5C289.8,297.6,286.3,297.3,285.4,297.4z"/>
	<path id="XMLID_360_" class="st19" d="M251.7,313.7c-0.9-0.2-4.9-0.1-5.5,0c2.6,13,6.4,19.7,20.3,24.5c0.2-1.6,1-3.4,0.9-5
		l-1.7-2.2C258.6,328.7,251.7,320.8,251.7,313.7z"/>
	<path id="XMLID_359_" class="st19" d="M251.6,278.1c-0.9-0.2-4.9-0.1-5.5,0c2.6,13,6.4,19.7,20.3,24.5c0.2-1.6,1-3.4,0.9-5
		l-1.7-2.2C258.5,293.1,251.6,285.2,251.6,278.1z"/>
	<path id="XMLID_358_" class="st1" d="M262.2,272c-1,0.3-1.8,2.1-2.2,2.9c-1.2,2.8-0.7,6-1.1,8.9c-0.6,4.2-1,8.6-0.8,12.8
		c0.5,10-1.2,19.7-0.9,29.7c0.2,5.6-0.4,11.2-1,16.8c-0.3,3.2-1.5,9.1,0.7,11.8c2.1,2.5,2.5-3.8,2.7-4.7c0.6-4.1,0.7-8.2,0.9-12.4
		c0.3-6.8,0.5-13.6,0.2-20.4c-0.5-11.7-0.7-23.6,0.6-35.2c0.4-3.3,1.5-6.4,3.8-8.8C265.6,273,262.7,271.9,262.2,272z"/>
	<path id="XMLID_357_" class="st20" d="M246.6,402.8c7.7,0.1,21.3,0,33.5,0.2c3.4-28,4.3-35.9,6.1-54.8c-4.8-0.2-36-0.2-45.1-0.2
		C241.4,349.4,245.6,389.6,246.6,402.8z"/>
	<path id="XMLID_356_" class="st20" d="M241.1,348.1C241.1,348.1,241.1,348.1,241.1,348.1C241.1,348.1,241.1,348.1,241.1,348.1z"/>
	<path id="XMLID_353_" d="M653,52.5c-11.8-5.6-29-4.9-44.1,1.3c-6.5,2.7-12.6,6.4-17.7,11.1c-7.8,7.2-13.2,16.7-14,28.3
		c-1.5,23.1,11.3,42.6,34.5,49.6c24.3,7.3,57.5-4.2,66.6-28.3C688.2,88.2,675.1,62.9,653,52.5z M672.2,112
		c-10.7,19.8-36.8,31.2-57.9,24.7c-20.2-6.1-31.4-23.2-30-43.4c2.1-32.2,45.5-44.4,65-35.3C668,66.7,681.7,94.5,672.2,112z"/>
	<path id="XMLID_344_" class="st21" d="M649.3,58.1c-19.6-9.1-62.9,3-65,35.3c-1.3,20.2,9.8,37.3,30,43.4c21.1,6.4,47.1-5,57.9-24.7
		C681.7,94.5,668,66.7,649.3,58.1z M588.8,98.1c-1.6-0.5-1.6-2-0.9-3.1c0.6-1,1.9-1.7,3.2-1.1C593.8,95.2,591.1,98.9,588.8,98.1z
		 M628.8,57.4c0.3-0.3,0.8-0.5,1.5-0.5c2.4,0,3.1,3.7,0.6,4.2C628.7,61.5,627.5,58.5,628.8,57.4z M626.7,134.7
		c-2.2,0.5-3.4-2.6-1.5-3.7l0.1-0.1C627.9,129.6,629.6,134,626.7,134.7z M618.5,118c-0.7,1.6-1.8,3.5-2.8,2.9
		c-0.9-0.6,0.3-2.9,0.6-3.6c1.5-4.4,7.8-19.5,9.7-23.4c0.2,0.1,1.3,1.3,3,1.1C627.4,99.5,620.2,113.9,618.5,118z M626.1,91.3
		c-0.8-4.9,5.3-5.3,6.3-2.3C634.3,94.6,626.5,95.4,626.1,91.3z M651.8,104.7c-2,2.7-19.7-10.4-19.7-10.5c2-0.3,2.2-2.6,2-2.9
		C636.6,92.6,652.7,103.5,651.8,104.7z M667.9,96.9c0.2-0.2,0.5-0.3,0.9-0.4c2.2-0.5,4.4,2,1.7,3.2C668.5,100.7,666.6,98,667.9,96.9
		z"/>
	<path id="XMLID_343_" class="st22" d="M634.2,91.3c0.1,0.3,0,2.6-2,2.9c-0.1,0.1,17.7,13.2,19.7,10.5
		C652.7,103.5,636.6,92.6,634.2,91.3z"/>
	<path id="XMLID_342_" class="st22" d="M626,93.9c-1.9,3.8-8.2,19-9.7,23.4c-0.3,0.7-1.5,3-0.6,3.6c1,0.6,2.1-1.3,2.8-2.9
		c1.8-4.1,8.9-18.5,10.6-22.9C627.3,95.2,626.2,94,626,93.9z"/>
	<path id="XMLID_341_" class="st22" d="M626.1,91.3c0.5,4.1,8.2,3.3,6.3-2.3C631.4,86.1,625.3,86.4,626.1,91.3z"/>
	<path id="XMLID_340_" class="st22" d="M591.1,94c-1.3-0.6-2.5,0.1-3.2,1.1c-0.7,1.1-0.7,2.5,0.9,3.1
		C591.1,98.9,593.8,95.2,591.1,94z"/>
	<path id="XMLID_339_" class="st22" d="M668.8,96.5c-0.4,0.1-0.7,0.2-0.9,0.4c-1.3,1.1,0.6,3.8,2.6,2.8
		C673.2,98.5,670.9,96,668.8,96.5z"/>
	<path id="XMLID_338_" class="st22" d="M630.2,56.9c-0.7,0-1.2,0.2-1.5,0.5c-1.3,1.2-0.1,4.1,2.1,3.7
		C633.4,60.6,632.6,56.9,630.2,56.9z"/>
	<path id="XMLID_337_" class="st22" d="M625.3,131l-0.1,0.1c-1.9,1.1-0.7,4.2,1.5,3.7C629.6,134,627.9,129.6,625.3,131z"/>
	<path id="XMLID_336_" class="st23" d="M252.9,354.1c-0.3-2-2.8-3.1-4.6-2.6c-2.2,0.6-2.9,2.6-2.7,4.6c1.9,13.7,2.5,27.5,5.7,41
		c1.1,4.7,8.1,2.8,7.3-1.9C255.8,379.5,254.8,367.8,252.9,354.1z"/>
	<path id="XMLID_335_" class="st24" d="M275.3,355.3c-1.3,12.9-2.1,24.2-4.6,38.6c-1,5.8,6.1,8.7,7.1,2.9c2.7-15.5,3.6-27.3,5-41.1
		C283.4,349.8,275.9,349.4,275.3,355.3z"/>
	<path id="XMLID_334_" class="st9" d="M664.6,350.3c-4.9,0.2-25.3,0-37,0c-3.2,0-4.1,3.4-4.1,5.5l4.3,47.1c14.2,0,29.2,0,40.8,0
		c0.6-11.7,1.2-34.7,1.4-45.5C670,351.8,668.1,350.1,664.6,350.3z"/>
	<path id="XMLID_333_" class="st25" d="M627.9,390.3c-9.5,0.3-13.1-11.1-12.7-17.3c0.4-6.5,7.2-3.6,10.8-0.8
		c1.7,1.3,4.3-0.8,2.5-2.2c-5.2-4-14.5-6.9-16.6,1.1c-2.2,8.3,4.1,22.6,16,22.2C630.2,393.3,630.2,390.3,627.9,390.3z"/>
	<path id="XMLID_330_" class="st25" d="M627.9,389c-2.7,0.1-5.1-0.9-7-2.9c-3.2-3.4-4.6-9.1-4.3-12.9c0.1-2.4,1.2-2.7,2.2-2.7
		c1.9,0,4.6,1.4,6.5,2.9c0.6,0.5,1.3,0.7,2,0.7c1.4,0,2.7-0.9,3.1-2.1c0.4-1,0-2.1-1-2.9c-2.7-2.1-7-4.3-11-4.3
		c-3.9,0-6.7,2.2-7.7,6.1c-1.4,5.2,0.3,12.3,4.1,17.3c3.3,4.3,7.8,6.6,12.6,6.6c0.2,0,0.4,0,0.6,0c2-0.1,3-1.6,3-3
		C630.9,390.4,629.9,388.9,627.9,389z M627.9,392c-5.4,0.2-9-2.9-11-5.6c-3.4-4.4-4.9-10.5-3.7-15c0.7-2.8,2.4-4.1,5.2-4.1
		c2.7,0,6.4,1.5,9.3,3.7c-0.2,0.1-0.6,0.3-0.9,0.1c-2.1-1.7-5.4-3.4-8.1-3.4c-1.4,0-4.5,0.5-4.8,5.2c-0.3,4.3,1.2,10.8,5.1,14.9
		c2.3,2.5,5.3,3.8,8.6,3.8c0.1,0,0.3,0,0.4,0h0c0.2,0,0.3,0,0.4,0.1C628.3,392,628,392,627.9,392z"/>
	<path id="XMLID_329_" class="st9" d="M664.4,351.7c-1.8-0.3-4.2,1-4.3,3.1c-0.6,13.8-0.4,25.5-1.6,41.4c-0.4,4.8,6.8,6,7.4,1.2
		c1.9-13.7,1-27.6,1.6-41.4C667.6,353.9,666.6,352,664.4,351.7z"/>
	<path id="XMLID_328_" class="st25" d="M649.6,284.1c-0.7-0.8-8.9-5.2-8.7-3.8c1.9,9.6,1.2,13.2-6.4,20c-4.4,3.9-7.5,12-4.4,17.4
		c2.5,4.5,6.5,7.9,9,12.3c2.4,4,2.5,8.2,3.6,12.7c4.4-2.6,7.3-10.4,6.4-15.2c-1.4-7.6-3.9-10.1,1.1-16c4.5-5.3,5.3-11.9,3.4-18.5
		C653,290.2,651.5,286.5,649.6,284.1z"/>
	<path id="XMLID_327_" class="st8" d="M521.8,260.4c-8.2,0.2-23.9-0.1-32.1-0.1c-40.5,0-75.9,0.2-116.4,0
		c-29.8-0.2-43.4-1.3-42.6,36.9c0.2,8.2,0.1,80.9,0.1,90.9c0,8.8,3.3,14.3,13,14.3c35.1,0,150.5-0.4,189.9-0.5
		c8.4,0,13.3-5.2,13.3-13.3v-92.7C546.9,262.4,537.2,260,521.8,260.4z"/>
	<path id="XMLID_326_" class="st13" d="M370.1,266.2c-4-1.7-16.7-0.1-20.6,1.6c-8.8,3.8-11.1,11.9-10.8,20.8
		c0.5,16.6-0.3,68.7,0,79.3c0.2,5.5,0,20.3,4,24.2l0,0c8.3,7.7,6.7-23.7,6.8-27.7c0.4-13.2,0.7-26.3,0.6-39.5c0-7-0.5-13.9-0.4-20.9
		c0.1-8.4-0.6-23.5,8.7-27.4c1.1-0.4,13.5-2.8,13.4-1.3C372,272.1,372.9,267.4,370.1,266.2z"/>
	<path id="XMLID_325_" class="st13" d="M442.8,321.4c-3.9-2.2-9.3-1.5-12.9,1c-5.4,3.8-8.1,10.9-3.9,17.6c3.5,5.7,12.1,7.3,17.7,4
		C453.3,338.5,451.5,326.3,442.8,321.4z"/>
	<path id="XMLID_324_" class="st13" d="M633.5,231.9c-3.9-2.2-9.3-1.5-12.9,1c-5.4,3.8-8.1,10.9-3.9,17.6c3.5,5.7,12.1,7.3,17.7,4
		C644,249.1,642.2,236.8,633.5,231.9z"/>
	<path id="XMLID_323_" class="st13" d="M516.7,265.2c-5.6,0.2-42.4,0.4-55.1,0.4c-21.8,0-43.6,0.1-65.4,0.3
		c-11.6,0.1-23.6-0.3-35.2,0.6c-4.1,0.3-10.9,0.1-11,4.7c-0.1,3.3,3.7,3.8,7.1,4.2c7.6,0.9,15.8,0.7,23.6,0.7
		c30.5,0,60.9,0,91.4-0.2c12.8-0.1,25.6-0.2,38.4-0.5c5.4-0.1,11.5,0.6,13.4-4.5c0.1-0.3,0.2-0.6,0.2-0.9
		C524.7,266.6,520.8,265.1,516.7,265.2z"/>
	<path id="XMLID_322_" class="st12" d="M522.9,387c-5.6,0.2-42.4,0.4-55.1,0.4c-21.8,0-43.6,0.1-65.4,0.3
		c-11.6,0.1-23.6-0.3-35.2,0.6c-4.1,0.3-10.9,0.1-11,4.7c-0.1,3.3,3.7,3.8,7.1,4.2c7.6,0.9,15.8,0.7,23.6,0.7
		c30.5,0,60.9,0,91.4-0.2c12.8-0.1,25.6-0.2,38.4-0.5c5.4-0.1,11.5,0.6,13.4-4.5c0.1-0.3,0.2-0.6,0.2-0.9
		C530.8,388.4,527,386.9,522.9,387z"/>
	<path id="XMLID_321_" class="st12" d="M534.4,275c-3.6,1.3-4.3,7.7-4.2,12.2c0.6,19.7,0,39.4-0.1,59.1c-0.1,14.6,6.3,38.7-14,41.2
		c-0.1,1.9-1.1,6.7,0.5,8.2c1.1,1,6.4,0.3,7.9,0.1c5-0.3,9.1-2.7,12.1-7c5.3-7.5,4.1-19.4,4.4-28.4c0.6-19.7,0.9-39.5,0.1-59.3
		C541,296.1,541.8,272.3,534.4,275z"/>
	<path id="XMLID_320_" class="st18" d="M229.5,324.2c-1.3,0.1-2.1,1.1-2.1,2.3c0,0.3-0.1,0.7-0.2,1.2c-0.1,0.2-0.1,0.5-0.2,0.7
		c0.1-0.3-0.2,0.4-0.2,0.5c-0.5,1.1-0.2,2.4,0.9,3c1,0.6,2.5,0.2,3-0.9c0.7-1.5,1.1-3,1.1-4.7C231.9,325.1,230.7,324.1,229.5,324.2z
		"/>
	<path id="XMLID_319_" class="st18" d="M228.6,314c-1.2,0.1-2.1,1.1-2.1,2.3v2.7c0,1.2,1.1,2.2,2.3,2.1c1.2-0.1,2.1-1.1,2.1-2.3
		v-2.7C230.9,314.9,229.8,313.9,228.6,314z"/>
	<path id="XMLID_318_" class="st18" d="M228.2,303.4c-1.2,0.1-2.1,1.1-2.1,2.3v1.8c0,1.2,1.1,2.2,2.3,2.1c1.2-0.1,2.1-1.1,2.1-2.3
		v-1.8C230.5,304.3,229.4,303.3,228.2,303.4z"/>
	<path id="XMLID_317_" class="st18" d="M237.5,329.5c-1.2,0.1-2.1,1.1-2.1,2.3v2.7c0,1.2,1.1,2.2,2.3,2.1c1.2-0.1,2.1-1.1,2.1-2.3
		v-2.7C239.8,330.4,238.7,329.4,237.5,329.5z"/>
	<path id="XMLID_316_" class="st18" d="M236.6,318.4c-1.2,0.1-2.1,1.1-2.1,2.3v1.3c0,1.2,1.1,2.2,2.3,2.1c1.2-0.1,2.1-1.1,2.1-2.3
		v-1.3C238.9,319.3,237.8,318.4,236.6,318.4z"/>
	<path id="XMLID_315_" class="st18" d="M235.3,305.6c-1.2,0.1-2.1,1.1-2.1,2.3v2.7c0,1.2,1.1,2.2,2.3,2.1c1.2-0.1,2.1-1.1,2.1-2.3
		v-2.7C237.6,306.5,236.5,305.5,235.3,305.6z"/>
	<path id="XMLID_314_" class="st18" d="M235.3,292.7c-1.2,0.1-2.1,1.1-2.1,2.3v2.2c0,1.2,1.1,2.2,2.3,2.1c1.2-0.1,2.1-1.1,2.1-2.3
		v-2.2C237.6,293.7,236.5,292.7,235.3,292.7z"/>
	<path id="XMLID_313_" class="st18" d="M245,330.4c-1.2,0.1-2.1,1.1-2.1,2.3v2.7c0,1.2,1.1,2.2,2.3,2.1c1.2-0.1,2.1-1.1,2.1-2.3
		v-2.7C247.3,331.3,246.2,330.3,245,330.4z"/>
	<path id="XMLID_312_" class="st18" d="M244.1,320.2c-1.2,0.1-2.1,1.1-2.1,2.3v2.2c0,1.2,1.1,2.2,2.3,2.1c1.2-0.1,2.1-1.1,2.1-2.3
		v-2.2C246.4,321.1,245.3,320.1,244.1,320.2z"/>
	<path id="XMLID_311_" class="st18" d="M242.8,304.2c-1.2,0.1-2.1,1.1-2.1,2.3v2.2c0,1.2,1.1,2.2,2.3,2.1c1.2-0.1,2.1-1.1,2.1-2.3
		v-2.2C245.1,305.2,244,304.2,242.8,304.2z"/>
	<path id="XMLID_310_" class="st18" d="M242.4,291c-1.2,0.1-2.1,1.1-2.1,2.3v3.1c0,1.2,1.1,2.2,2.3,2.1c1.2-0.1,2.1-1.1,2.1-2.3
		v-3.1C244.7,291.9,243.5,290.9,242.4,291z"/>
	<path id="XMLID_309_" class="st18" d="M242.4,280.8c-1.2,0.1-2.1,1.1-2.1,2.3v2.2c0,1.2,1.1,2.2,2.3,2.1c1.2-0.1,2.1-1.1,2.1-2.3
		v-2.2C244.7,281.7,243.5,280.7,242.4,280.8z"/>
	<path id="XMLID_308_" class="st18" d="M238,286c0-0.5-0.3-1.2-0.7-1.5c-0.4-0.4-1-0.6-1.6-0.6c-0.6,0-1.1,0.3-1.5,0.7
		c-0.3,0.3-0.5,0.7-0.5,1.1c0,0,0,0,0,0c0,0,0,0,0,0c0,0,0,0,0,0c0,0.1-0.1,0.1-0.1,0.2c-0.3,0.6-0.3,1-0.4,1.6
		c0,0.5,0.3,1.2,0.7,1.5c0.4,0.4,1,0.6,1.6,0.6c0.6,0,1.1-0.3,1.5-0.7c0.3-0.3,0.5-0.7,0.5-1.1c0,0,0,0,0,0c0,0,0,0,0,0c0,0,0,0,0,0
		c0-0.1,0.1-0.1,0.1-0.2C237.9,287,238,286.6,238,286z"/>
	<path id="XMLID_307_" class="st18" d="M241.5,271.5c-1.2,0.1-2.1,1.1-2.1,2.3v2c0,1.2,1.1,2.2,2.3,2.1c1.2-0.1,2.1-1.1,2.1-2.3v-2
		C243.8,272.4,242.6,271.4,241.5,271.5z"/>
	<path id="XMLID_306_" class="st18" d="M248.1,258.7c-1.2,0.1-2.1,1.1-2.1,2.3v2.2c0,1.2,1.1,2.2,2.3,2.1c1.2-0.1,2.1-1.1,2.1-2.3
		v-2.2C250.4,259.6,249.3,258.6,248.1,258.7z"/>
	<path id="XMLID_305_" class="st18" d="M249,292.7c-1.2,0.1-2.1,1.1-2.1,2.3v2.2c0,1.2,1.1,2.2,2.3,2.1c1.2-0.1,2.1-1.1,2.1-2.3
		v-2.2C251.3,293.7,250.2,292.7,249,292.7z"/>
	<path id="XMLID_304_" class="st18" d="M249.4,305.1c-1.2,0.1-2.1,1.1-2.1,2.3v0.9c0,1.2,1.1,2.2,2.3,2.1c1.2-0.1,2.1-1.1,2.1-2.3
		v-0.9C251.8,306,250.6,305.1,249.4,305.1z"/>
	<path id="XMLID_303_" class="st18" d="M251.3,271.8c-0.1-1.2-1.1-2.1-2.3-2.1c-0.3,0-0.5,0.1-0.8,0.1c-0.4,0.1-0.7,0.4-1.1,0.6
		c-0.3,0.2-0.5,0.8-0.6,1.1c0,0.3-0.1,0.6-0.1,0.9c0,1.2,1.1,2.2,2.3,2.1c0.7,0,1.2-0.4,1.6-0.8C251,273.3,251.3,272.6,251.3,271.8z
		"/>
	<path id="XMLID_302_" class="st18" d="M254.3,242.3c-1.2,0.1-2.1,1.1-2.1,2.3v2.2c0,1.2,1.1,2.2,2.3,2.1c1.2-0.1,2.1-1.1,2.1-2.3
		v-2.2C256.6,243.2,255.5,242.2,254.3,242.3z"/>
	<path id="XMLID_301_" class="st18" d="M254.8,253.8c-1.2,0.1-2.1,1.1-2.1,2.3v2.2c0,1.2,1.1,2.2,2.3,2.1c1.2-0.1,2.1-1.1,2.1-2.3
		v-2.2C257.1,254.7,255.9,253.7,254.8,253.8z"/>
	<path id="XMLID_300_" class="st18" d="M254.8,265.3c-1.2,0.1-2.1,1.1-2.1,2.3v1.8c0,1.2,1.1,2.2,2.3,2.1c1.2-0.1,2.1-1.1,2.1-2.3
		v-1.8C257.1,266.2,255.9,265.2,254.8,265.3z"/>
	<path id="XMLID_299_" class="st18" d="M253.1,332.6c-1.2-0.3-2.3,0.5-2.7,1.7c-0.4,1.2-0.5,2.4-0.5,3.7c0,1.2,1.1,2.2,2.3,2.1
		c1.2-0.1,2.1-1.1,2.1-2.3c0-0.2,0-0.4,0-0.6c0-0.1,0-0.3,0-0.4c0.1-0.5,0.2-1,0.4-1.4C255.2,334.1,254.2,332.9,253.1,332.6z"/>
	<path id="XMLID_298_" class="st18" d="M260.5,231.2c-1.2,0.1-2.1,1.1-2.1,2.3v1.8c0,1.2,1.1,2.2,2.3,2.1c1.2-0.1,2.1-1.1,2.1-2.3
		v-1.8C262.8,232.1,261.7,231.2,260.5,231.2z"/>
	<path id="XMLID_297_" class="st18" d="M261.4,242.3c-1.2,0.1-2.1,1.1-2.1,2.3v2.2c0,1.2,1.1,2.2,2.3,2.1c1.2-0.1,2.1-1.1,2.1-2.3
		v-2.2C263.7,243.2,262.6,242.2,261.4,242.3z"/>
	<path id="XMLID_296_" class="st18" d="M261.4,252c-1.2,0.1-2.1,1.1-2.1,2.3v2.7c0,1.2,1.1,2.2,2.3,2.1c1.2-0.1,2.1-1.1,2.1-2.3
		v-2.7C263.7,252.9,262.6,252,261.4,252z"/>
	<path id="XMLID_295_" class="st18" d="M261.8,261.8c-1.2,0.1-2.1,1.1-2.1,2.3v0.4c0,1.2,1.1,2.2,2.3,2.1c1.2-0.1,2.1-1.1,2.1-2.3
		v-0.4C264.1,262.7,263,261.7,261.8,261.8z"/>
	<path id="XMLID_294_" class="st18" d="M268.5,264c-1.2,0.1-2.1,1.1-2.1,2.3v1.3c0,1.2,1.1,2.2,2.3,2.1c1.2-0.1,2.1-1.1,2.1-2.3
		v-1.3C270.8,264.9,269.6,263.9,268.5,264z"/>
	<path id="XMLID_293_" class="st18" d="M268,252.5c-1.2,0.1-2.1,1.1-2.1,2.3v2.2c0,1.2,1.1,2.2,2.3,2.1c1.2-0.1,2.1-1.1,2.1-2.3
		v-2.2C270.3,253.4,269.2,252.4,268,252.5z"/>
	<path id="XMLID_292_" class="st18" d="M268.5,240.1c-1.2,0.1-2.1,1.1-2.1,2.3v2.2c0,1.2,1.1,2.2,2.3,2.1c1.2-0.1,2.1-1.1,2.1-2.3
		v-2.2C270.8,241,269.6,240,268.5,240.1z"/>
	<path id="XMLID_291_" class="st18" d="M268,228.1c-1.2,0.1-2.1,1.1-2.1,2.3v2.7c0,1.2,1.1,2.2,2.3,2.1c1.2-0.1,2.1-1.1,2.1-2.3
		v-2.7C270.3,229,269.2,228.1,268,228.1z"/>
	<path id="XMLID_290_" class="st18" d="M277.1,249.1c-0.5-1.1-2.1-1.3-3-0.7c-1.1,0.7-1.2,2-0.7,3c-0.2-0.4,0,0.2,0,0.2
		c0,0,0,0,0,0.1c0,0,0,0.1,0,0.1c0,0.4,0,0.8,0,1.1c0,1.2,1.1,2.2,2.3,2.1c1.2-0.1,2.1-1.1,2.1-2.3
		C277.9,251.5,277.7,250.3,277.1,249.1z"/>
	<path id="XMLID_289_" class="st18" d="M275.6,261.3c-1.2,0.1-2.1,1.1-2.1,2.3v2.7c0,1.2,1.1,2.2,2.3,2.1c1.2-0.1,2.1-1.1,2.1-2.3
		v-2.7C277.9,262.2,276.7,261.3,275.6,261.3z"/>
	<path id="XMLID_288_" class="st18" d="M275.1,272.8c-1.2,0.1-2.1,1.1-2.1,2.3v1.8c0,1.2,1.1,2.2,2.3,2.1c1.2-0.1,2.1-1.1,2.1-2.3
		v-1.8C277.4,273.7,276.3,272.8,275.1,272.8z"/>
	<path id="XMLID_287_" class="st18" d="M274.2,283.4c-1.2,0.1-2.1,1.1-2.1,2.3v2.2c0,1.2,1.1,2.2,2.3,2.1c1.2-0.1,2.1-1.1,2.1-2.3
		v-2.2C276.5,284.4,275.4,283.4,274.2,283.4z"/>
	<path id="XMLID_286_" class="st18" d="M273.8,295.8c-1.2,0.1-2.1,1.1-2.1,2.3v2.7c0,1.2,1.1,2.2,2.3,2.1c1.2-0.1,2.1-1.1,2.1-2.3
		V298C276.1,296.7,275,295.8,273.8,295.8z"/>
	<path id="XMLID_284_" class="st18" d="M272.9,306c-1.2,0.1-2.1,1.1-2.1,2.3v0.4c0,1.2,1.1,2.2,2.3,2.1c1.2-0.1,2.1-1.1,2.1-2.3
		v-0.4C275.2,306.9,274.1,306,272.9,306z"/>
	<path id="XMLID_283_" class="st18" d="M274.7,333c-1.2,0.1-2.1,1.1-2.1,2.3v2.7c0,1.2,1.1,2.2,2.3,2.1c1.2-0.1,2.1-1.1,2.1-2.3
		v-2.7C277,333.9,275.8,333,274.7,333z"/>
	<path id="XMLID_282_" class="st18" d="M281.3,330.4c-1.2,0.1-2.1,1.1-2.1,2.3v2.2c0,1.2,1.1,2.2,2.3,2.1c1.2-0.1,2.1-1.1,2.1-2.3
		v-2.2C283.6,331.3,282.5,330.3,281.3,330.4z"/>
	<path id="XMLID_281_" class="st18" d="M280.4,321.9c-1.2,0.1-2.1,1.1-2.1,2.3v1.3c0,1.2,1.1,2.2,2.3,2.1c1.2-0.1,2.1-1.1,2.1-2.3
		v-1.3C282.7,322.9,281.6,321.9,280.4,321.9z"/>
	<path id="XMLID_280_" class="st18" d="M282.6,295.2c-0.8-2.7-5.1-1.4-4.2,1.3c0.3,1.1,0.3,2.3,0.3,3.4c0,1.2,1.1,2.2,2.3,2.1
		c1.2-0.1,2.1-1.1,2.1-2.3C283.2,298.2,283.1,296.7,282.6,295.2z"/>
	<path id="XMLID_279_" class="st18" d="M280.4,283c-1.2,0.1-2.1,1.1-2.1,2.3v1.8c0,1.2,1.1,2.2,2.3,2.1c1.2-0.1,2.1-1.1,2.1-2.3
		v-1.8C282.7,283.9,281.6,283,280.4,283z"/>
	<path id="XMLID_277_" class="st18" d="M280.9,269.7c-1.2,0.1-2.1,1.1-2.1,2.3v3.5c0,1.2,1.1,2.2,2.3,2.1c1.2-0.1,2.1-1.1,2.1-2.3
		v-3.5C283.2,270.6,282,269.7,280.9,269.7z"/>
	<path id="XMLID_276_" class="st18" d="M287.5,325.5c-1.2,0.1-2.1,1.1-2.1,2.3v1.8c0,1.2,1.1,2.2,2.3,2.1c1.2-0.1,2.1-1.1,2.1-2.3
		v-1.8C289.8,326.4,288.7,325.4,287.5,325.5z"/>
	<path id="XMLID_275_" class="st18" d="M287.1,313.5c-1.2,0.1-2.1,1.1-2.1,2.3v2.7c0,1.2,1.1,2.2,2.3,2.1c1.2-0.1,2.1-1.1,2.1-2.3
		v-2.7C289.4,314.5,288.2,313.5,287.1,313.5z"/>
	<path id="XMLID_274_" class="st18" d="M287.5,283c-1.2,0.1-2.1,1.1-2.1,2.3v4.4c0,1.2,1.1,2.2,2.3,2.1c1.2-0.1,2.1-1.1,2.1-2.3
		v-4.4C289.8,283.9,288.7,283,287.5,283z"/>
	<path id="XMLID_273_" class="st18" d="M291.9,317.5c-1.2,0.1-2.1,1.1-2.1,2.3v3.5c0,1.2,1.1,2.2,2.3,2.1c1.2-0.1,2.1-1.1,2.1-2.3
		v-3.5C294.2,318.4,293.1,317.5,291.9,317.5z"/>
	<path id="XMLID_272_" class="st18" d="M291.9,305.6c-1.2,0.1-2.1,1.1-2.1,2.3v2.7c0,1.2,1.1,2.2,2.3,2.1c1.2-0.1,2.1-1.1,2.1-2.3
		v-2.7C294.2,306.5,293.1,305.5,291.9,305.6z"/>
	<path id="XMLID_270_" class="st18" d="M296.8,315.3c-1.2,0.1-2.1,1.1-2.1,2.3v1.3c0,1.2,1.1,2.2,2.3,2.1c1.2-0.1,2.1-1.1,2.1-2.3
		v-1.3C299.1,316.2,298,315.3,296.8,315.3z"/>
	<path id="XMLID_269_" d="M376.3,165.6c0.9-5.5-4.7-9.1-5.1-14.7c-0.5-7.4,4.2-10.5,8.6-15.2c3.6-3.9,7.1-11.7,8.1-16.8
		c1.3-6.1,1.4-13.9,0-19.9c-1.4-5.6-3.6-11-4.3-16.8c-0.4-3.5-0.3-6.9,0.3-10.2c1.8-10,8.2-18.4,17.6-24c7-4.2,14.2-6.5,22.4-6.7
		c3.4,0,14.4-0.3,13.9,5.4c-4.2,1.4-8.2,2.1-11.5,5.1c-3.2,2.9-6.1,6.2-9.9,8.3c-2.3,1.3-5.4,1.9-7.5,3.6
		c-5.3,4.4-2.8,12.9-2.3,18.7c0.4,4.6,2.2,8.5,3.5,12.9c2.2,7.3,2.7,15,2.6,22.5c-0.1,10.9-0.6,21.8-1.4,32.6
		c-1,13,0.3,27.6-7.7,38.6c-3.8,5.2-9.5,10.9-16.2,11.4c-6.7,0.5-14.9-2.4-18.4-8.4c-2.6-4.4-1.9-8.5,0-13
		C370.9,174.9,375.4,170.7,376.3,165.6z"/>
	<path id="XMLID_268_" class="st26" d="M395.9,112.7c0.4,1.2,0.8,2.5,1.7,3.5c0.7,0.7,0.9,1.9,0.2,2.7c-0.6,0.7-1.8,0.9-2.5,0.2
		c-1.4-1.5-2.1-3.2-2.8-5.1C391.8,111.6,395.2,110.4,395.9,112.7z"/>
	<path id="XMLID_267_" class="st26" d="M403.2,129.5c0.6,1.9,0.9,4,1.2,6c0.1,1-0.7,2-1.6,2c-1,0.1-1.8-0.7-1.9-1.7
		c-0.2-1.7-0.4-3.4-1-5.1C399.1,128.5,402.5,127.2,403.2,129.5z"/>
	<path id="XMLID_266_" class="st26" d="M410.6,130.4c0.9-0.1,1.9,0.7,1.9,1.7c0,1.3,0.5,2.6,0.9,3.8c0.8,2.3-2.6,3.5-3.4,1.2
		c-0.5-1.5-1.1-3.1-1.1-4.8C408.9,131.4,409.6,130.5,410.6,130.4z"/>
	<path id="XMLID_265_" class="st27" d="M422.2,57.7c8.5-1.9,17.7,3.5,22.8,9.9c5.1,6.5,5.5,12.9,6.9,20.7c0.7,3.8,2.2,7.3,4.4,10.5
		c2.4,3.5,6,6,7.6,9.9c1.2,2.9,1.6,6.7,0.5,9.7c-0.8,2.1-1.7,5.7-3.7,7c-1.5,1-3,0.9-4.6,1.5c-1.5,0.6-2.4,1.8-3.2,3.1
		c-2.2,3.4-3.3,7.3-5.5,10.7c-4.2,6.3-11.6,9.8-18.5,12.1c-5.7,1.9-11.5,4.2-17.6,3.2c-6.6-1.1-11.2-6.2-14.5-12.6
		c-5.6-11.1-8.8-27-7.7-39.4c0.9-10.6,2.2-25.8,9.5-34.1C403.8,64.2,414.9,59.3,422.2,57.7z"/>
	<g id="XMLID_262_">
		<path id="XMLID_263_" d="M438.9,94.3c0-0.1-0.6-0.1-1.5-0.1c-2.7,0-8.2,0.5-8.8,0.5c-3.6-0.1-4.1-3.1-3.8-6.3
			c2.3,0.8,4.1,1.8,6.5,2.1C433.7,90.7,438.6,90.8,438.9,94.3z"/>
	</g>
	<g id="XMLID_260_">
		<path id="XMLID_261_" class="st28" d="M458.1,122.8l-2.9,0.3c0.2-1.8,0.4-3.7,0.7-5.5C460.1,117.2,459.1,120.7,458.1,122.8z"/>
	</g>
	<g id="XMLID_258_">
		<path id="XMLID_259_" d="M396.7,89.6c0.5-0.1,6.5-1.3,6.4-1.8c0.3,2.4,0.3,4.2-1.2,5.1c-0.5,0.3-1.2,0.5-2.1,0.6
			c-0.5,0-7.2-0.4-7.1,0.1C392.2,90.3,394.1,90.3,396.7,89.6z"/>
	</g>
	<g id="XMLID_255_">
		<polygon id="XMLID_256_" class="st29" points="437.2,115.7 437.2,115.7 437.2,115.7 		"/>
	</g>
	<g id="XMLID_253_">
		<polygon id="XMLID_254_" class="st29" points="437.2,115.7 437.2,115.7 437.2,115.7 		"/>
	</g>
	<g id="XMLID_251_">
		<path id="XMLID_252_" class="st30" d="M449.3,106.2l0-0.1C449.3,106.1,449.3,106.2,449.3,106.2z"/>
	</g>
	<path id="XMLID_249_" class="st28" d="M405.8,114.9c0.8-0.9,1.6-1.8,2-2.9c1.2-3.3,1.1-7.1,2.5-10.2c6-0.3,4.1,15.5,2.2,18.4
		c-2.6,3.8-11.6,5-9.3-1.9C403.5,117.2,404.7,116.1,405.8,114.9z"/>
	<path id="XMLID_248_" class="st31" d="M407.1,101.8l-0.2-0.1c0.1,0,0.3,0.1,0.4,0.1C407.2,101.8,407.2,101.8,407.1,101.8z"/>
	<path id="XMLID_247_" class="st31" d="M407.3,101.8c0.1,0,0.1,0,0.2,0C407.4,101.8,407.3,101.8,407.3,101.8z"/>
	<polygon id="XMLID_246_" class="st29" points="439.1,111.6 439.1,111.6 439.1,111.6 	"/>
	<path id="XMLID_245_" class="st30" d="M451.8,101.4l0-0.1C451.9,101.3,451.9,101.4,451.8,101.4z"/>
	<path id="XMLID_244_" class="st32" d="M411.1,189.8C411.1,189.8,411.1,189.8,411.1,189.8C411.1,189.8,411.1,189.8,411.1,189.8z"/>
	<g id="XMLID_240_">
		<g id="XMLID_241_">
			<path id="XMLID_242_" d="M429.6,41.7c22.1-4.5,43.6,6.1,52.6,27.2c6.1,14.4,4.2,29.8,14.3,39c3,2.7,7,4.8,12.6,6.3
				c9,2.3,20.2,7.3,21.5,18.7c0.7,6.4-3.6,12.6-2.1,18.7c1.5,6.2,6,8.3,5.4,16.1c-2,26.5-30,38.1-50,35.4
				c-29.1-3.8-44.9-35.5-36.1-62.7c1.5-4.7,5.1-8.6,6.8-13.4c4.8,0.5,7.4-2.5,7.6-7.1c0.2-6.2-3.4-6.7-8.7-6
				c-0.7-2.5-0.7-4.9-1.1-7.5c-1.2-6.4-3.8-12.1-6.4-18.1c-2.9-6.8-7.1-13.2-12.7-18.1c-5.1-4.5-14.4-7.5-16.8-14.5
				C413.9,48.6,424.1,42.8,429.6,41.7z"/>
		</g>
	</g>
	<path id="XMLID_239_" class="st33" d="M521.8,178.8c0.1,0,0.3-0.2,0.4-0.2c0.1-0.1,0.2-0.2,0.4-0.3c0.2-0.1,0.3-0.3,0.4-0.4
		c0,0,0.2-0.2,0.2-0.3c0.1-0.1,0.2-0.3,0.3-0.4c0.7-0.8,1.9-1.1,2.7-0.4c0.8,0.6,1.1,1.9,0.4,2.8c-0.9,1.1-2,2.2-3.3,2.8
		c-1,0.4-2.2,0-2.6-1C520.3,180.4,520.8,179.2,521.8,178.8z"/>
	<path id="XMLID_238_" class="st33" d="M526.2,169c0.1-1.1,1.2-1.8,2.2-1.7c1.1,0.1,1.8,1.1,1.7,2.2c0,0.5-0.1,1-0.3,1.5
		c-0.2,0.5-0.6,1-1,1.4c-0.8,0.7-2.1,0.5-2.8-0.3c-0.6-0.8-0.5-1.8,0-2.5C526.2,169.3,526.2,169.1,526.2,169z"/>
	<path id="XMLID_237_" class="st33" d="M526,157.2c0.8,0.1,1.4,0.7,1.6,1.4c0.8,0.3,1.3,1.2,1.2,2c-0.1,1.1-1.1,1.8-2.2,1.7
		c-0.9-0.1-1.6-0.4-2.2-1.1c-0.6-0.6-0.7-1.6-0.7-2.4C523.9,157.8,525,157.1,526,157.2z"/>
	<path id="XMLID_235_" class="st33" d="M522.9,146.3c1.1,0.1,1.8,1.1,1.7,2.2l-0.1,2c-0.1,1.1-1.2,1.8-2.2,1.7
		c-1.1-0.1-1.8-1.1-1.7-2.2l0.1-2C520.8,146.9,521.9,146.2,522.9,146.3z"/>
	<path id="XMLID_234_" class="st33" d="M526.8,135.2c-0.1,1.3-0.6,2.6-0.7,3.9c-0.2,2.5-4.2,2.1-3.9-0.5c0.1-1.3,0.6-2.6,0.7-3.9
		C523.1,132.2,527,132.7,526.8,135.2z"/>
	<path id="XMLID_233_" class="st33" d="M522.4,123.7c0.9,0.5,1.6,1.3,2.2,2.1c0.7,0.8,0.5,2.1-0.3,2.8c-0.9,0.7-2.1,0.5-2.8-0.3
		c-0.2-0.3-0.4-0.5-0.7-0.7c0,0-0.1-0.1-0.2-0.2c-0.2-0.2-0.4-0.3-0.6-0.4c-0.9-0.6-1-1.9-0.4-2.8
		C520.3,123.2,521.5,123.1,522.4,123.7z"/>
	<path id="XMLID_232_" class="st33" d="M511.6,118.6l2,0.1c1.1,0.1,1.8,1.2,1.7,2.2c-0.1,1.1-1.1,1.8-2.2,1.7l-2-0.1
		c-1.1-0.1-1.8-1.2-1.7-2.2C509.5,119.2,510.5,118.5,511.6,118.6z"/>
	<path id="XMLID_231_" class="st33" d="M500.2,115.3c-0.3-0.2,0.2,0,0.2,0.1c0,0,0,0,0,0c0,0,0.1,0,0.1,0c0.3,0.1,0.7,0.1,1,0.1
		c1.1,0.1,1.8,1.2,1.7,2.2c-0.1,1.1-1.1,1.8-2.2,1.7c-1.2-0.1-2.2-0.4-3.3-0.9c-0.9-0.5-1-2-0.4-2.8
		C498.1,114.7,499.2,114.7,500.2,115.3z"/>
	<path id="XMLID_230_" class="st33" d="M490.1,105.1c1,0.1,1.6,0.9,1.7,1.8c0,0,0,0,0,0c0,0,0-0.1,0-0.1c0,0.1,0,0.1,0,0.2
		c0,0.1,0.1,0.3,0.2,0.4c0,0,0,0.1,0.1,0.1c0.7,0.8,0.5,2.1-0.3,2.8c-0.8,0.7-2.1,0.5-2.8-0.3c-0.7-0.9-1.1-2-1.1-3.1
		C488,105.8,489.1,105,490.1,105.1z"/>
	<path id="XMLID_228_" class="st33" d="M483.4,91.8c1-0.5,2.1,0,2.6,1c0.8,1.5,0.8,3,0.7,4.6c-0.1,1.1-1.2,1.8-2.2,1.7
		c-1.1-0.1-1.8-1.1-1.7-2.2c0.1-1.1,0.1-1.6-0.4-2.6C481.9,93.5,482.5,92.3,483.4,91.8z"/>
	<path id="XMLID_227_" class="st33" d="M480.5,78.6c0.9-0.4,2.2,0,2.6,1c0.5,1.4,0.4,2.8,0.3,4.2c-0.1,1.1-1.2,1.8-2.2,1.7
		c-1.1-0.1-1.8-1.1-1.7-2.2c0-0.5,0.1-0.9,0.1-1.4c0-0.1,0-0.1,0-0.1c0,0,0-0.1,0-0.2c0-0.1-0.2-0.8-0.1-0.4
		C479.1,80.2,479.4,79.1,480.5,78.6z"/>
	<path id="XMLID_226_" class="st33" d="M475,66.7c1-0.4,2.2,0,2.6,1c0.2,0.5,0.5,1,0.8,1.4c0.1,0.1,0.1,0.2,0.2,0.4
		c0,0.1,0.1,0.2,0.1,0.2c0.6,0.9,0.6,2-0.3,2.8c-0.8,0.6-2.2,0.6-2.8-0.3c-0.6-0.9-1.2-1.9-1.7-2.9C473.6,68.3,474.1,67.2,475,66.7z
		"/>
	<path id="XMLID_225_" class="st33" d="M469.9,57.3c0.3,0.4,0.6,0.7,1,1.1c0.1,0.1,0.1,0.1,0.2,0.2c0,0,0,0,0.1,0.1
		c0.2,0.2,0.4,0.3,0.6,0.5c0.9,0.6,1,1.9,0.4,2.7c-0.7,0.9-1.8,1-2.7,0.4c-1-0.6-1.8-1.6-2.6-2.5c-0.7-0.8-0.5-2.1,0.3-2.8
		C467.9,56.3,469.2,56.4,469.9,57.3z"/>
	<path id="XMLID_224_" class="st33" d="M459.3,49.6c0.8,0.5,1.8,0.5,2.7,1c0.9,0.5,1.5,1.5,1.1,2.6c-0.4,0.9-1.6,1.6-2.6,1.1
		c-0.8-0.5-1.8-0.5-2.7-1c-0.9-0.5-1.5-1.5-1.1-2.6C457.1,49.8,458.4,49.1,459.3,49.6z"/>
	<path id="XMLID_223_" class="st33" d="M447.1,43.9c1.2,0.5,2.4,1,3.5,1.7c0.9,0.5,1,2,0.4,2.7c-0.7,0.9-1.8,1-2.7,0.4
		c0.4,0.2-0.2-0.1-0.2-0.1c-0.3-0.1-0.5-0.3-0.8-0.4c-0.5-0.2-1-0.5-1.6-0.7c-1-0.4-1.5-1.5-1.1-2.6C445,44.1,446.1,43.5,447.1,43.9
		z"/>
	<path id="XMLID_221_" class="st33" d="M432.6,43.4c1.4-0.5,2.8-0.4,4.2-0.3c1.1,0.1,1.8,1.2,1.7,2.2c-0.1,1.1-1.1,1.8-2.2,1.7
		c-0.5,0-0.9-0.1-1.4-0.1c0,0-0.1,0-0.1,0c0,0-0.1,0-0.2,0c-0.1,0-0.8,0.2-0.4,0.1c-1,0.4-2.1,0-2.6-1
		C431.2,45.1,431.6,43.8,432.6,43.4z"/>
	<path id="XMLID_219_" class="st33" d="M512.7,180.3c0.6-0.8,1.9-0.9,2.7-0.3c0.9,0.7,1,1.8,0.4,2.8c-0.3,0.5-0.8,1-1.4,1.3
		c-0.7,0.3-1.3,0.2-2,0.2c-1.1-0.1-1.8-1.2-1.7-2.2C510.8,180.9,511.7,180.2,512.7,180.3z"/>
	<path id="XMLID_211_" class="st33" d="M518.2,172.1c-0.1,0.2,0.1-0.3,0.1-0.3c0.1-0.1,0.1-0.2,0.2-0.4c-0.1,0.1,0-0.2,0.1-0.3
		c0.1-1.1,1.1-1.8,2.2-1.7c1.1,0.1,1.8,1.1,1.7,2.2c-0.1,1.2-0.7,2.2-1.3,3.2c-0.6,0.9-1.9,1-2.8,0.4c-0.9-0.7-1-1.8-0.4-2.8
		C518,172.4,518.1,172.2,518.2,172.1z"/>
	<path id="XMLID_210_" class="st33" d="M516.9,159.1c1-0.4,2.2,0,2.6,1c0,0,0,0.1,0.1,0.1c0,0,0,0,0,0c0.1,0.2,0.3,0.4,0.4,0.5
		c0.4,0.4,0.7,0.9,0.9,1.4c0.4,1,0,2.2-1,2.6c-1,0.4-2.2,0-2.6-1c0,0,0-0.1-0.1-0.1c0,0,0,0,0,0c-0.1-0.2-0.3-0.4-0.4-0.5
		c-0.4-0.4-0.7-0.9-0.9-1.4C515.5,160.7,516,159.5,516.9,159.1z"/>
	<path id="XMLID_209_" class="st33" d="M514.4,149.2c1.1,0.1,1.8,1.1,1.7,2.2c0,0,0,0.3,0,0.4c0,0.2,0.1,0.4,0.1,0.7
		c0,0,0,0.1,0,0.1c0,0,0,0,0,0c0,0.1,0.1,0.1,0.1,0.2c0.6,0.8,0.5,2-0.4,2.7c-0.8,0.7-2.1,0.6-2.8-0.3c-0.9-1.2-1.1-2.8-1-4.3
		C512.3,149.9,513.4,149.1,514.4,149.2z"/>
	<path id="XMLID_208_" class="st33" d="M514.1,141.6c0.1-0.2,0.2-0.4,0.2-0.6c0.2-0.5,0.2-0.8,0.3-1.3c0.1-1.1,1.1-1.8,2.2-1.7
		c1.1,0.1,1.8,1.1,1.7,2.2c-0.1,1.5-0.7,2.8-1.4,4c-0.5,0.9-2,1-2.7,0.4c-0.9-0.7-1-1.8-0.4-2.8
		C513.8,142.2,514.1,141.6,514.1,141.6z"/>
	<path id="XMLID_207_" class="st33" d="M513.8,132C513.8,132,513.8,132,513.8,132C514,132.1,514,132.1,513.8,132z"/>
	<polygon id="XMLID_206_" class="st33" points="513.8,132 513.8,132 513.8,132 	"/>
	<path id="XMLID_205_" class="st33" d="M513.8,132L513.8,132C513.8,132,513.9,132,513.8,132C513.9,132,513.8,132,513.8,132z"/>
	<path id="XMLID_204_" class="st33" d="M515,127.8c0.7,0.6,1.4,1.1,2,1.8c0.7,0.7,1.1,1.6,1.3,2.5c0.3,1-0.7,2.1-1.6,2.2
		c-1.2,0.2-1.9-0.6-2.2-1.6c0.1,0.2,0.1,0.3,0,0.1c0,0-0.1-0.1-0.1-0.2c-0.1-0.2-0.3-0.4-0.5-0.6c0,0,0,0,0.1,0.1
		c0.1,0.1,0.1,0.1,0,0c0,0,0,0-0.1-0.1c0,0,0,0,0,0c-0.1-0.1-0.3-0.2-0.4-0.4c-0.2-0.2-0.5-0.4-0.7-0.6c-0.8-0.7-1.1-1.9-0.4-2.7
		C512.9,127.4,514.2,127.2,515,127.8z"/>
	<path id="XMLID_203_" class="st33" d="M503,124c1.1,0.4,2.2,0.5,3.4,0.6c1.1,0.1,1.8,1.2,1.7,2.2c-0.1,1.1-1.1,1.8-2.2,1.7
		c-1.5-0.1-3-0.3-4.4-0.8C499.2,126.7,500.6,123,503,124z"/>
	<path id="XMLID_202_" class="st33" d="M492.7,120.2C492.7,120.2,492.7,120.2,492.7,120.2c0.1,0.1,0.1,0.1,0.1,0.1
		c0.1,0.1,0.2,0.1,0.2,0.2c0,0,0,0,0,0c0.1,0,0.1,0.1,0.2,0.1c0,0,0,0,0,0c0,0,0,0,0,0c0.9-0.2,1.9,0.1,2.4,1.1c0.4,0.9,0,2.2-1,2.6
		c-1.9,0.7-3.7-0.1-5-1.6c-0.7-0.8-0.5-2.1,0.3-2.8C490.8,119.2,492,119.4,492.7,120.2z"/>
	<path id="XMLID_201_" class="st33" d="M481,108.8c1.2-0.2,2,0.6,2.2,1.6c-0.1-0.2-0.1-0.3,0,0c0.1,0.2,0.1,0.3,0.2,0.5c0,0,0,0,0,0
		c0.1,0.1,0.2,0.3,0.3,0.4c0.1,0.1,0.1,0.2,0.2,0.3c0,0,0.1,0.1,0.2,0.2c0.1,0.1,0.3,0.2,0.4,0.3c0.9,0.6,1,1.9,0.4,2.8
		c-0.7,0.9-1.8,1-2.8,0.4c-1.5-0.9-2.5-2.6-2.9-4.2C479.1,110,480.1,109,481,108.8z"/>
	<path id="XMLID_200_" class="st33" d="M476.3,97.6c0.9-0.4,2.2,0,2.6,1c0.4,1.1,0.5,2.2,0.4,3.4c-0.1,1.1-1.2,1.8-2.2,1.7
		c-1.1-0.1-1.8-1.1-1.7-2.2c0-0.2,0-0.3,0-0.5c0,0,0-0.2,0-0.3c0-0.1,0-0.2,0-0.4c0,0,0-0.1,0-0.1c0,0,0-0.1,0-0.1
		C474.9,99.2,475.2,98.1,476.3,97.6z"/>
	<path id="XMLID_199_" class="st33" d="M473.7,84.8c1-0.5,2.1,0.1,2.6,1c0.7,1.4,0.8,2.7,0.7,4.2c-0.1,1.1-1.2,1.8-2.2,1.7
		c-1.1-0.1-1.8-1.1-1.7-2.2c0-0.2,0-0.4,0-0.6c0-0.1,0-0.2,0-0.2c0,0,0-0.1,0-0.1c0-0.1-0.1-0.5-0.1-0.5c-0.1-0.2-0.2-0.5-0.3-0.7
		C472.2,86.4,472.8,85.2,473.7,84.8z"/>
	<path id="XMLID_198_" class="st33" d="M472.2,72.8c1,1.3,1.5,2.7,1.4,4.3c-0.1,1.1-1.2,1.8-2.2,1.7c-1.1-0.1-1.8-1.1-1.7-2.2
		c0-0.1,0-0.1,0-0.2c0,0,0-0.1,0-0.1c0-0.1-0.1-0.3-0.1-0.4c0-0.1-0.1-0.2-0.1-0.3c0.1,0.2-0.3-0.3-0.3-0.4
		c-0.7-0.8-0.5-2.1,0.3-2.8C470.3,71.8,471.5,72,472.2,72.8z"/>
	<path id="XMLID_197_" class="st33" d="M466.1,65.3l1.1,1.3c0.7,0.8,0.5,2.1-0.3,2.8c-0.9,0.7-2.1,0.5-2.8-0.3l-1.1-1.3
		c-0.7-0.8-0.5-2.1,0.3-2.8C464.2,64.3,465.4,64.4,466.1,65.3z"/>
	<path id="XMLID_196_" class="st33" d="M456.9,56.3c0.8,0.5,1.4,1.2,2.2,1.7c0.9,0.6,1,1.9,0.4,2.7c-0.7,0.9-1.8,1-2.7,0.4
		c-0.8-0.5-1.4-1.2-2.2-1.7c-0.9-0.6-1-1.9-0.4-2.8C454.8,55.8,456,55.8,456.9,56.3z"/>
	<path id="XMLID_195_" class="st33" d="M444.8,52.8l2.7,0.2c1.1,0.1,1.8,1.2,1.7,2.2c-0.1,1.1-1.1,1.8-2.2,1.7l-2.7-0.2
		c-1.1-0.1-1.8-1.2-1.7-2.2C442.7,53.4,443.7,52.7,444.8,52.8z"/>
	<path id="XMLID_194_" class="st33" d="M433.3,49.6c1.2,0.4,2.5,0.5,3.8,0.6c2.5,0.2,2.1,4.1-0.5,3.9c-1.6-0.1-3.2-0.3-4.8-0.8
		c-1-0.3-1.5-1.6-1.1-2.6C431.2,49.7,432.3,49.3,433.3,49.6z"/>
	<path id="XMLID_193_" class="st33" d="M425.4,48.1l2.7,0.2c1.1,0.1,1.8,1.2,1.7,2.2c-0.1,1.1-1.1,1.8-2.2,1.7l-2.7-0.2
		c-1.1-0.1-1.8-1.2-1.7-2.2C423.3,48.7,424.3,48,425.4,48.1z"/>
	<path id="XMLID_192_" class="st33" d="M503.2,179.4C503.2,179.4,503.2,179.3,503.2,179.4c0.1-0.1,0.1-0.1,0.2-0.1c0,0,0,0,0,0
		c0,0,0.1-0.1,0.1-0.1c0.2-0.3,0.4-0.7,0.6-1c0.6-0.9,1.9-1,2.8-0.4c0.9,0.7,1,1.8,0.4,2.8c-0.6,1-1.4,2-2.5,2.5c-1,0.4-2.2,0-2.6-1
		C501.7,181,502.2,179.8,503.2,179.4z"/>
	<path id="XMLID_191_" class="st33" d="M509.9,170.9c-0.1,0.4,0-0.3,0.1-0.4c0.1-1.1,1.1-1.8,2.2-1.7c1.1,0.1,1.8,1.1,1.7,2.2
		c-0.1,0.5-0.2,1.1-0.4,1.6c-0.1,0.2-0.1,0.5-0.2,0.7c0.1-0.4,0,0.3-0.1,0.4c-0.1,1.1-1.1,1.8-2.2,1.7c-1.1-0.1-1.8-1.1-1.7-2.2
		c0.1-0.5,0.2-1.1,0.4-1.6C509.7,171.4,509.8,171.1,509.9,170.9z"/>
	<path id="XMLID_190_" class="st33" d="M508.5,157.1c1.1-0.2,2,0.6,2.2,1.6c0.2,0.9,0.7,2.1,0.9,3.2c0.3,1-0.7,2.1-1.6,2.2
		c-1.1,0.2-2-0.6-2.2-1.6c-0.2-0.9-0.7-2.1-0.9-3.2C506.6,158.3,507.5,157.2,508.5,157.1z"/>
	<path id="XMLID_189_" class="st33" d="M507.5,146.7c1.1,0.1,1.8,1.1,1.7,2.2L509,152c-0.1,1.1-1.2,1.8-2.2,1.7
		c-1.1-0.1-1.8-1.1-1.7-2.2l0.2-3.1C505.4,147.4,506.4,146.6,507.5,146.7z"/>
	<path id="XMLID_188_" class="st33" d="M510,136.5c1.1,1.4,1.8,2.9,1.8,4.7c0,1.1-1.2,1.8-2.2,1.7c-1.1-0.1-1.8-1.1-1.7-2.2
		c0,0.4,0-0.3,0-0.3c-0.1-0.2-0.1-0.3,0-0.1c0-0.1-0.1-0.3-0.2-0.4c-0.2-0.4-0.3-0.5-0.7-1c-0.7-0.8-0.5-2.1,0.3-2.8
		C508.1,135.5,509.3,135.6,510,136.5z"/>
	<path id="XMLID_187_" class="st33" d="M498.2,130.3c0.9,0.4,1.5,0.4,2.6,0.5c1.1,0.1,1.8,1.2,1.7,2.2c-0.1,1.1-1.1,1.8-2.2,1.7
		c-1.2-0.1-2.4-0.3-3.6-0.8c-1-0.4-1.5-1.6-1.1-2.6C496,130.4,497.2,129.9,498.2,130.3z"/>
	<path id="XMLID_186_" class="st33" d="M486.7,126C486.7,126,486.8,126,486.7,126c0.1,0.1,0.1,0.1,0.1,0.1h0c0.1,0,0.3,0.1,0.3,0.1
		c0.2,0,0.3,0,0.5,0c1.1,0.1,1.8,1.2,1.7,2.2c-0.1,1.1-1.1,1.8-2.2,1.7c-1.4-0.1-2.6-0.6-3.6-1.7c-0.7-0.8-0.5-2.1,0.3-2.8
		C484.8,125,486,125.2,486.7,126z"/>
	<path id="XMLID_185_" class="st33" d="M473.7,115.2c1-0.5,2.1,0.1,2.6,1c0.1,0.2,0.3,0.5,0.4,0.7c0.1,0.2,0.2,0.3,0.4,0.6
		c0.2,0.2,0.3,0.4,0.5,0.7c0.1,0.1,0.2,0.2,0.2,0.3c-0.1-0.1,0.3,0.3,0.3,0.3c0.8,0.7,1.1,1.9,0.4,2.8c-0.6,0.8-1.9,1.1-2.8,0.4
		c-1.4-1.1-2.3-2.6-3.1-4.1C472.2,116.8,472.8,115.6,473.7,115.2z"/>
	<path id="XMLID_184_" class="st33" d="M469.2,102.8c1.1-0.2,2.1,0.6,2.2,1.6c0.1,0.6,0.2,1.1,0.3,1.6c0,0,0,0,0,0c0,0,0,0,0,0.1
		c0.4,0.4,0.7,1,0.6,1.6c-0.1,1-1.1,1.9-2.2,1.7c-2.1-0.4-2.4-2.7-2.7-4.5C467.4,104,468.2,103,469.2,102.8z"/>
	<path id="XMLID_183_" class="st33" d="M466.4,88.4c1.1-0.2,2,0.6,2.2,1.6c0.3,1.5,0.2,3,0.1,4.5c-0.1,1.1-1.2,1.8-2.2,1.7
		c-1.1-0.1-1.8-1.1-1.7-2.2c0.1-1.2,0.2-2.3-0.1-3.4C464.5,89.6,465.4,88.5,466.4,88.4z"/>
	<path id="XMLID_182_" class="st33" d="M462.7,73.4c1.7,1.4,2.6,3.3,2.5,5.5c-0.1,1.1-1.2,1.8-2.2,1.7c-1.1-0.1-1.8-1.1-1.7-2.2
		c0-0.1,0-0.1,0-0.2c0-0.1,0-0.2,0-0.4c0-0.1,0-0.1,0-0.2c0-0.1-0.1-0.2-0.1-0.3c0-0.1-0.1-0.2-0.1-0.2c0,0,0,0-0.1-0.2
		c-0.1-0.1-0.1-0.2-0.2-0.2c0.1,0.1-0.3-0.3-0.3-0.3c-0.8-0.7-1.1-1.9-0.4-2.7C460.6,72.9,461.9,72.7,462.7,73.4z"/>
	<path id="XMLID_181_" class="st33" d="M450.8,63.2c1.6,0.6,2.9,1.5,4.2,2.5c2,1.6-0.3,4.7-2.3,3.2c-1.1-0.8-2.1-1.6-3.3-2
		c-1-0.4-1.5-1.6-1.1-2.6C448.7,63.2,449.8,62.8,450.8,63.2z"/>
	<path id="XMLID_180_" class="st33" d="M441.6,59.8c0,0.1,0.1,0.1,0.1,0.1c-0.1-0.1,0.3,0.2,0.3,0.2c0.3,0.2,0.5,0.4,0.8,0.6
		c0.5,0.3,0.9,0.6,1.4,0.9c0.9,0.6,1,1.9,0.4,2.8c-0.7,0.9-1.8,1-2.8,0.4c-1.2-0.7-2.4-1.5-3.4-2.5c-0.7-0.8-0.5-2.1,0.3-2.8
		C439.7,58.8,440.9,59,441.6,59.8z"/>
	<path id="XMLID_179_" class="st33" d="M428.9,55.6c1.2,0.4,2.5,0.5,3.8,0.6c2.5,0.2,2.1,4.1-0.5,3.9c-1.6-0.1-3.2-0.3-4.8-0.8
		c-1-0.3-1.5-1.6-1.1-2.6C426.8,55.6,427.9,55.3,428.9,55.6z"/>
	<path id="XMLID_178_" class="st33" d="M494.8,180.2c0.8-0.7,2.1-0.5,2.8,0.3c0.7,0.9,0.5,2.1-0.3,2.8c-0.7,0.6-1.4,1.2-2.1,1.8
		c-0.8,0.7-2.1,0.5-2.8-0.3c-0.7-0.9-0.5-2.1,0.3-2.8C493.4,181.4,494.1,180.8,494.8,180.2z"/>
	<path id="XMLID_177_" class="st33" d="M501.8,171.8c0.9,0.7,0.9,1.8,0.4,2.7c0.2-0.3,0,0.2-0.1,0.2c0,0,0,0,0,0c0,0,0,0.1,0,0.1
		c-0.1,0.3-0.1,0.7-0.1,1c-0.1,1.1-1.2,1.8-2.2,1.7c-1.1-0.1-1.8-1.1-1.7-2.2c0.1-1.2,0.4-2.2,0.9-3.3
		C499.6,171.3,501,171.2,501.8,171.8z"/>
	<path id="XMLID_176_" class="st33" d="M502.6,159.3c1.1,0.1,1.8,1.1,1.7,2.2l-0.3,3.5c-0.1,1.1-1.2,1.8-2.2,1.7
		c-1.1-0.1-1.8-1.1-1.7-2.2l0.3-3.5C500.5,160,501.5,159.2,502.6,159.3z"/>
	<path id="XMLID_175_" class="st33" d="M500.2,147.8c1.1-0.2,2,0.6,2.2,1.6c0.3,1.4,0.6,2.7,0.5,4.1c-0.1,1.1-1.2,1.8-2.2,1.7
		c-1.1-0.1-1.8-1.1-1.7-2.2c0.1-1-0.3-2.1-0.5-3.1C498.2,149,499.2,147.9,500.2,147.8z"/>
	<path id="XMLID_174_" class="st33" d="M498.9,137.3c1.5,1.2,2.7,2.7,3.3,4.6c0.3,1-0.7,2.1-1.6,2.2c-1.2,0.2-1.9-0.6-2.2-1.6
		c0.1,0.4-0.2-0.3-0.2-0.4c-0.1-0.2-0.1-0.2-0.1-0.1c-0.1-0.1-0.2-0.2-0.3-0.4c-0.4-0.6-0.7-0.8-1.2-1.2c-0.8-0.7-1.1-1.9-0.4-2.8
		C496.8,136.9,498.1,136.6,498.9,137.3z"/>
	<path id="XMLID_173_" class="st33" d="M486.4,134.1c1.3,0.4,2.6,0.9,3.8,1.5c2.3,1,0.9,4.6-1.5,3.7c-1.3-0.5-2.5-1-3.8-1.5
		c-1-0.3-1.5-1.6-1.1-2.6C484.3,134.2,485.4,133.8,486.4,134.1z"/>
	<path id="XMLID_172_" class="st33" d="M474.8,126.7c0.3,0.4,0.7,0.8,1,1.1c0.1,0.1,0.2,0.2,0.2,0.3c0,0,0.1,0.1,0.1,0.1
		c0,0,0,0,0.1,0.1c0.2,0.2,0.5,0.4,0.8,0.7c0.8,0.7,1.1,1.9,0.4,2.8c-0.6,0.8-1.9,1.1-2.8,0.4c-1.1-0.9-2-1.9-2.9-2.9
		c-0.7-0.8-0.5-2.1,0.3-2.8C472.9,125.7,474.1,125.9,474.8,126.7z"/>
	<path id="XMLID_171_" class="st33" d="M466.4,118.2c1-0.4,2.2,0,2.6,1c0.1,0.2,0.2,0.4,0.3,0.5c0.2,0.2,0.3,0.5,0.5,0.7
		c0.7,0.8,0.5,2.1-0.3,2.8c-0.9,0.7-2.1,0.5-2.8-0.3c-0.5-0.6-1-1.3-1.3-2.1C465,119.8,465.4,118.6,466.4,118.2z"/>
	<path id="XMLID_170_" class="st33" d="M462.4,105c1.1-0.2,2,0.6,2.2,1.7c0.3,1.1,0.6,2.2,0.6,3.3c-0.1,1.1-1.2,1.8-2.2,1.7
		c-1.1-0.1-1.7-1.1-1.7-2.1c0-0.1,0-0.2,0-0.2c0-0.2-0.1-0.4-0.1-0.6c-0.1-0.5-0.3-1-0.4-1.5C460.5,106.2,461.4,105.2,462.4,105z"/>
	<path id="XMLID_169_" class="st33" d="M458.4,91.3c1.1,0.1,1.8,1.1,1.7,2.2c0,0,0,0,0,0c0,0.1,0,0.1,0,0.2c0,0.2,0.1,0.5,0.1,0.7
		c0.1,0.6,0.1,1.2,0.1,1.8c-0.1,1.1-1.2,1.8-2.2,1.7c-1.1-0.1-1.8-1.1-1.7-2.2c0,0,0,0,0,0c0-0.1,0-0.1,0-0.2c0-0.2-0.1-0.5-0.1-0.7
		c-0.1-0.6-0.1-1.2-0.1-1.8C456.3,91.9,457.4,91.2,458.4,91.3z"/>
	<path id="XMLID_168_" class="st33" d="M454.2,76.6c1,1.2,1.4,2.7,1.7,4.2c0.3,1-0.7,2.1-1.6,2.2c-1.1,0.2-2-0.6-2.2-1.6
		c-0.1-0.6-0.2-0.7-0.3-1.2c-0.1-0.3-0.2-0.5-0.3-0.8c0-0.1-0.1-0.1-0.1-0.1c-0.1-0.1-0.1-0.2-0.2-0.3c-0.7-0.8-0.5-2.1,0.3-2.8
		C452.3,75.6,453.5,75.7,454.2,76.6z"/>
	<path id="XMLID_167_" class="st33" d="M443,68.2C443,68.3,443,68.3,443,68.2c0.1,0.1,0.2,0.2,0.2,0.2c0.2,0.2,0.5,0.3,0.7,0.5
		c0,0,0.1,0,0.1,0.1c0,0,0.2,0.1,0.3,0.1c0.3,0.2,0.6,0.3,0.9,0.5c0.9,0.5,1,2,0.4,2.8c-0.7,0.9-1.8,1-2.7,0.4c0,0-0.1,0-0.1-0.1
		c-0.1,0-0.2-0.1-0.2-0.1c-0.3-0.2-0.7-0.4-1-0.6c-0.6-0.4-1.2-0.8-1.7-1.4c-0.7-0.8-0.5-2.1,0.3-2.8
		C441.1,67.2,442.3,67.4,443,68.2z"/>
	<path id="XMLID_166_" class="st33" d="M431,62.4c0.5,0.1,1,0.3,1.3,0.7c0.1,0.1,0.2,0.2,0.2,0.4c0.2,0.1,0.3,0.3,0.5,0.5
		c0.7,0.8,0.5,2.1-0.3,2.8c-0.4,0.3-0.9,0.5-1.5,0.4c-0.5-0.1-0.9-0.3-1.2-0.6c0,0-0.1-0.1-0.1-0.1c-0.2-0.1-0.4-0.3-0.6-0.5
		c-0.5-0.5-0.6-1.2-0.6-1.8c0-0.5,0.3-1,0.7-1.3C430,62.5,430.5,62.3,431,62.4z"/>
	<path id="XMLID_165_" class="st33" d="M463.8,183.5c1-0.4,2.2,0,2.6,1c0.1,0.3,0.3,0.6,0.4,0.9c0,0,0,0.1,0.1,0.2
		c0.1,0.2,0.2,0.3,0.4,0.5c-0.2-0.2,0.4,0.2,0.3,0.2c0.1,0,0.1,0,0.2,0.1c-0.1,0,0.3,0.1,0.4,0.1c1.1,0.1,1.8,1.1,1.7,2.2
		c-0.1,1.1-1.1,1.8-2.2,1.7c-2.4-0.3-4-2.1-4.9-4.2C462.4,185.1,462.8,183.9,463.8,183.5z"/>
	<path id="XMLID_164_" class="st33" d="M454.9,170.6c0.9-0.4,2.3,0,2.6,1c0.5,1.6,1.3,3.1,2.5,4.2c0.8,0.7,1.1,1.8,0.4,2.8
		c-0.6,0.8-2,1.1-2.8,0.4c-1.8-1.6-3.1-3.5-3.8-5.8C453.6,172.1,453.9,171,454.9,170.6z"/>
	<g id="XMLID_161_">
		<path id="XMLID_163_" class="st33" d="M451.8,157.5c1.1,0.1,1.8,1.1,1.7,2.2c0,0.1,0,0.2,0,0.3c0,0,0,0,0,0.1c0,0.3,0,0.5,0.1,0.8
			c0,0.2,0.1,0.4,0.1,0.6c0,0,0,0,0,0c0,0,0,0.1,0,0.1c0,0,0,0,0,0c0,0,0,0,0,0c0.6,0.9,0.5,2-0.4,2.7c-0.8,0.7-2.1,0.6-2.8-0.3
			c-0.9-1.3-1.1-3.1-1-4.7C449.7,158.1,450.8,157.3,451.8,157.5z"/>
		<path id="XMLID_162_" class="st33" d="M453.8,161.5C453.9,161.7,453.8,161.6,453.8,161.5L453.8,161.5z"/>
	</g>
	<path id="XMLID_160_" class="st33" d="M452.2,142.1c1.1,0.1,1.8,1.1,1.7,2.2l-0.3,3.9c-0.1,1.1-1.2,1.8-2.2,1.7
		c-1.1-0.1-1.8-1.1-1.7-2.2l0.3-3.9C450.1,142.8,451.2,142,452.2,142.1z"/>
	<path id="XMLID_159_" class="st33" d="M453.6,131.3c0.5-0.9,2-1,2.8-0.4c0.4,0.3,0.7,0.8,0.8,1.3c0.1,0.6-0.1,1-0.4,1.5
		c0.2-0.4,0,0,0,0c0,0.1-0.1,0.2-0.1,0.3c0,0.2,0,0.5-0.1,0.7c-0.1,1.1-1.2,1.8-2.2,1.7c-1.1-0.1-1.8-1.1-1.7-2.2
		c0-0.3,0.1-0.7,0.1-1C453,132.4,453.3,131.9,453.6,131.3z"/>
	<path id="XMLID_158_" class="st33" d="M472.7,180.6c1-0.5,2,0,2.5,0.9c0,0,0,0.1,0.1,0.1c0.1,0.1,0.2,0.3,0.3,0.4
		c0.1,0.1,0.2,0.2,0.2,0.3c0,0,0.2,0.2,0.2,0.2c0.4,0.3,0.7,0.6,1.1,0.8c0.9,0.6,1,1.9,0.4,2.8c-0.7,0.9-1.8,1-2.8,0.4
		c-1.3-0.8-2.4-2-3.2-3.3C471.2,182.3,471.8,181,472.7,180.6z"/>
	<path id="XMLID_157_" class="st33" d="M465.3,170.4c0.5-0.1,1,0.1,1.5,0.4c0.5,0.3,0.6,0.8,0.8,1.3l0,0c0,0,0,0.1,0,0.1
		c0.9,0.2,1.5,1.2,1.4,2.1c-0.1,1.1-1.1,1.8-2.2,1.7c-0.9-0.1-1.6-0.5-2.2-1.1c-0.6-0.6-0.8-1.5-1-2.3
		C463.4,171.6,464.3,170.5,465.3,170.4z"/>
	<path id="XMLID_156_" class="st33" d="M460.6,159c1.1-0.2,2,0.6,2.2,1.7c0,0.1,0,0.2,0.1,0.3c0,0,0,0,0,0.1
		c0.1,0.3,0.2,0.5,0.3,0.7c0,0.1,0.2,0.3,0.2,0.4c0.1,0.2,0.2,0.3,0.4,0.5c0.7,0.8,0.5,2.1-0.3,2.8c-0.8,0.7-2.1,0.5-2.8-0.3
		c-0.9-1.1-1.4-2.4-1.8-3.8C458.7,160.2,459.7,159.1,460.6,159z"/>
	<path id="XMLID_155_" class="st33" d="M461,145.5c1.1,0.1,1.8,1.1,1.7,2.2l-0.2,2.7c-0.1,1.1-1.2,1.8-2.2,1.7
		c-1.1-0.1-1.8-1.1-1.7-2.2l0.2-2.7C458.9,146.2,460,145.4,461,145.5z"/>
	<path id="XMLID_154_" class="st33" d="M461.9,133.8c1.1,0.1,1.8,1.1,1.7,2.2l-0.2,3.1c-0.1,1.1-1.2,1.8-2.2,1.7
		c-1.1-0.1-1.8-1.1-1.7-2.2l0.2-3.1C459.8,134.4,460.9,133.6,461.9,133.8z"/>
	<path id="XMLID_153_" class="st33" d="M483.1,178.3c1.1,0.7,2,1.7,2.4,2.9c0.4,1,0,2.2-1,2.6c-1,0.4-2.2,0-2.6-1
		c0-0.1-0.2-0.3-0.2-0.4c-0.1-0.1-0.2-0.2-0.3-0.3c-0.1-0.1-0.1-0.1-0.2-0.2c0,0,0,0,0,0c-0.2-0.1-0.3-0.3-0.5-0.4
		c-0.9-0.6-1-1.9-0.4-2.8C481.1,177.8,482.2,177.7,483.1,178.3z"/>
	<path id="XMLID_152_" class="st33" d="M473,166.4c1-0.4,2.2,0,2.6,1c0,0.1,0.2,0.3,0.2,0.4c0.1,0.1,0.2,0.2,0.3,0.3
		c0.1,0.1,0.1,0.1,0.2,0.2c0,0,0,0,0,0c0.2,0.1,0.3,0.3,0.5,0.4c0.9,0.6,1,1.9,0.4,2.7c-0.7,0.9-1.8,1-2.8,0.4
		c-1.1-0.7-2-1.7-2.4-2.9C471.6,168,472,166.9,473,166.4z"/>
	<path id="XMLID_151_" class="st33" d="M468.6,151.5c0.9-0.4,2.2,0,2.6,1c0.2,0.5,0.3,1,0.4,1.5c0,0.2,0.1,0.3,0.1,0.5
		c0,0.1,0,0.2,0.1,0.2c0,0,0,0.1,0,0.1c0.4,1,0,2.1-1,2.6c-0.9,0.4-2.2,0-2.6-1c-0.2-0.5-0.3-1-0.4-1.5c0-0.2-0.1-0.3-0.1-0.5
		c0-0.1,0-0.2-0.1-0.2c0,0,0-0.1,0-0.1C467.2,153.1,467.6,151.9,468.6,151.5z"/>
	<path id="XMLID_150_" class="st33" d="M468.6,138.6c1.1,0.1,1.8,1.1,1.7,2.2c0,0.1,0,0.2,0,0.3c0,0,0,0.1,0,0.2
		c0,0.2,0.1,0.4,0.1,0.7c0.1,0.6,0.1,1.1,0.1,1.7c-0.1,1.1-1.2,1.8-2.2,1.7c-1.1-0.1-1.8-1.1-1.7-2.2c0-0.1,0-0.1,0-0.2
		c0-0.2-0.1-0.4-0.1-0.6c-0.1-0.7-0.1-1.3-0.1-2C466.5,139.3,467.6,138.5,468.6,138.6z"/>
	<path id="XMLID_149_" class="st33" d="M487.7,179.9c0-0.1,0.1-0.1,0.1-0.2c0,0,0,0,0-0.1c0.2-0.5,0.5-0.9,0.7-1.4
		c0.4-1,1.5-1.5,2.6-1.1c1,0.4,1.5,1.6,1.1,2.6c-0.5,1.1-1,2.1-1.6,3.1c-0.6,0.9-1.9,1-2.8,0.4c-0.9-0.7-1-1.8-0.4-2.7
		C487.5,180.2,487.6,180.1,487.7,179.9z"/>
	<path id="XMLID_148_" class="st33" d="M495.7,169.3c0.7,0.8,0.5,2-0.2,2.7c0,0,0,0,0,0c0,0-0.1,0.2-0.2,0.3c0,0.1-0.1,0.1-0.1,0.2
		c0,0.1,0,0.1,0,0.2c-0.1,1.1-1.1,1.8-2.2,1.7c-1.1-0.1-1.8-1.1-1.7-2.2c0.1-1.2,0.7-2.4,1.7-3.2C493.7,168.3,495,168.5,495.7,169.3
		z"/>
	<path id="XMLID_147_" class="st33" d="M494.8,156c1.1-0.2,2,0.6,2.2,1.6c0.3,1.2,0.3,2.5,0.2,3.7c-0.1,1.1-1.2,1.8-2.2,1.7
		c-1.1-0.1-1.8-1.1-1.7-2.2c0-0.2,0-0.4,0-0.7c0-0.1,0-0.6,0-0.6c0-0.5-0.1-0.9-0.2-1.4C492.9,157.2,493.8,156.2,494.8,156z"/>
	<path id="XMLID_146_" class="st33" d="M493.1,146.2c0.9,1,1.9,2.1,2.4,3.4c0.4,1,0,2.2-1,2.6c-1,0.4-2.2,0-2.6-1
		c0-0.1-0.2-0.4-0.2-0.4c-0.2-0.2-0.3-0.4-0.5-0.7c-0.4-0.5-0.8-0.9-1.2-1.4c-0.7-0.8-0.5-2.1,0.3-2.8
		C491.2,145.2,492.4,145.4,493.1,146.2z"/>
	<path id="XMLID_145_" class="st33" d="M486.2,168.8c1,0.4,1.5,1.6,1.1,2.6c0,0.1-0.1,0.1-0.1,0.2c0,0,0,0.1,0,0.1c0,0,0,0.3,0,0.3
		c0,0.1,0,0.2,0,0.2c0,0,0,0,0,0c0.6,0.8,0.5,2-0.4,2.7c-0.8,0.7-2.1,0.6-2.8-0.3c-1-1.3-1.1-3.2-0.5-4.7
		C484,168.9,485.2,168.5,486.2,168.8z"/>
	<path id="XMLID_144_" class="st33" d="M481.6,156.8c1-0.4,2.2,0,2.6,1c0.2,0.4,0.3,0.7,0.5,1.1c0.3,0.7,0.3,1.3,0.3,2
		c0,1.1-1.2,1.8-2.2,1.7c-1.1-0.1-1.7-1.1-1.7-2.1c0,0,0,0,0,0c0,0,0,0,0-0.1c-0.1-0.3-0.3-0.6-0.4-1
		C480.2,158.4,480.6,157.3,481.6,156.8z"/>
	<path id="XMLID_143_" class="st33" d="M479.1,142.8c1.1,1.3,1.5,3,1.4,4.7c-0.1,1.1-1.2,1.8-2.2,1.7c-1.1-0.1-1.8-1.1-1.7-2.2
		c0-0.6-0.1-1.3-0.5-1.8c-0.7-0.8-0.5-2.1,0.3-2.8C477.2,141.8,478.5,142,479.1,142.8z"/>
	<path id="XMLID_142_" class="st33" d="M477.5,157.4c1.1,0.1,1.8,1.1,1.7,2.2c0,0.1,0,0.2,0,0.3c0,0,0,0.1,0,0.2
		c0,0.2,0.1,0.4,0.1,0.7c0.1,0.6,0.1,1.1,0.1,1.7c-0.1,1.1-1.2,1.8-2.2,1.7c-1.1-0.1-1.8-1.1-1.7-2.2c0-0.1,0-0.1,0-0.2
		c0-0.2-0.1-0.4-0.1-0.6c-0.1-0.7-0.1-1.3-0.1-2C475.3,158.1,476.4,157.3,477.5,157.4z"/>
	<path id="XMLID_141_" class="st33" d="M486.6,154.6c1.1-0.2,2,0.6,2.2,1.7c0.4,1.5,0.6,3,0.5,4.5c-0.1,1.1-1.2,1.8-2.2,1.7
		c-1.1-0.1-1.8-1.1-1.7-2.2c0.1-1.1-0.2-2.3-0.5-3.5C484.7,155.8,485.6,154.8,486.6,154.6z"/>
	<path id="XMLID_140_" class="st33" d="M473.2,135c0.5,0.1,1,0.3,1.3,0.7c0.2,0.2,0.3,0.5,0.4,0.7c0.8,0.3,1.3,1.2,1.2,2
		c-0.1,1.1-1.1,1.9-2.2,1.7c-0.8-0.1-1.5-0.6-2-1.2c-0.2-0.2-0.4-0.6-0.5-0.8c-0.2-0.4-0.3-0.9-0.3-1.4c0-0.5,0.4-1,0.7-1.3
		C472.2,135.1,472.7,135,473.2,135z"/>
	<path id="XMLID_139_" class="st33" d="M410.3,55.3c1.1,0.1,1.8,1.2,1.7,2.2c-0.1,1.1-1.1,1.8-2.2,1.7c-0.2,0-0.3,0-0.5,0
		c0,0-0.1,0-0.1,0c0,0,0,0-0.1,0c-0.1,0-0.3,0-0.4,0.1c0,0-0.1,0-0.1,0c0,0,0,0,0,0c0,0,0,0-0.1,0.1c-0.8,0.7-2.1,0.5-2.8-0.3
		c-0.7-0.8-0.5-2.1,0.3-2.8C407.2,55.3,408.7,55.1,410.3,55.3z"/>
	<path id="XMLID_138_" class="st33" d="M398.5,61.2c0.8-0.7,2.1-0.5,2.8,0.3c0.7,0.9,0.5,2.1-0.3,2.8c-0.4,0.5-0.8,1-1.3,1.5
		c-0.8,0.7-2.1,0.5-2.8-0.3c-0.7-0.9-0.5-2.1,0.3-2.8C397.6,62.2,398,61.7,398.5,61.2z"/>
	<path id="XMLID_137_" class="st33" d="M390,72.1c0.4-1,1.6-1.5,2.6-1.1c1,0.4,1.5,1.6,1.1,2.6c-0.4,1-0.6,2.1-1,3.1
		c-0.4,1-1.6,1.5-2.6,1.1c-1-0.4-1.5-1.6-1.1-2.6C389.4,74.1,389.6,73.1,390,72.1z"/>
	<path id="XMLID_136_" class="st33" d="M405.8,49.2c0.4-0.2,0.7-0.3,1.1-0.5c0.7-0.3,1.3-0.3,2-0.3c1.1,0,1.8,1.2,1.7,2.2
		c-0.1,1.1-1.1,1.7-2.1,1.7c0,0,0,0,0,0c0,0,0,0-0.1,0c-0.3,0.1-0.6,0.3-1,0.4c-1,0.4-2.2,0-2.6-1C404.3,50.9,404.8,49.6,405.8,49.2
		z"/>
	<path id="XMLID_135_" class="st33" d="M398.8,53c1-0.4,2.2,0,2.6,1c0.4,1,0,2.2-1,2.6c-0.4,0.2-0.7,0.3-1.1,0.5
		c-0.1,0-0.3,0.2-0.4,0.2c-0.2,0.1-0.4,0.3-0.6,0.4c-0.8,0.7-2.1,0.5-2.8-0.3c-0.7-0.8-0.5-2.1,0.3-2.8
		C396.7,54,397.7,53.5,398.8,53z"/>
	<path id="XMLID_134_" class="st33" d="M389.5,60.9c0.6-0.9,1.9-1,2.7-0.4c0.9,0.7,1,1.8,0.4,2.7c-0.2,0.4-0.5,0.7-0.8,1
		c-0.2,0.2-0.3,0.4-0.5,0.7c0,0.1-0.1,0.1-0.1,0.2c0.1-0.1-0.1,0.3-0.1,0.3c-0.4,1-1.5,1.5-2.6,1.1c-1-0.4-1.5-1.6-1.1-2.6
		C388,62.8,388.9,62,389.5,60.9z"/>
	<path id="XMLID_133_" class="st33" d="M415,44.7c0.4-0.1,0.8-0.1,1.2,0c1.1,0.1,1.8,1.2,1.7,2.2c-0.1,1.1-1.1,1.8-2.1,1.7
		c-0.8,0.5-2,0.4-2.6-0.4c-0.7-0.8-0.5-2.1,0.3-2.8C414,45,414.4,44.8,415,44.7z"/>
	<path id="XMLID_132_" class="st33" d="M405.2,158.6c1.1,0.1,1.8,1.1,1.7,2.2l-0.3,3.9c-0.1,1.1-1.2,1.8-2.2,1.7
		c-1.1-0.1-1.8-1.1-1.7-2.2l0.3-3.9C403,159.3,404.1,158.5,405.2,158.6z"/>
	<path id="XMLID_131_" class="st33" d="M400.4,174.3c1-2.3,4.6-0.9,3.7,1.5c-0.5,1.1-1,2.3-1.4,3.4c-1,2.3-4.6,0.9-3.7-1.5
		C399.5,176.6,399.9,175.4,400.4,174.3z"/>
	<path id="XMLID_130_" class="st33" d="M391.4,187.2c-0.4,0.1,0.3-0.2,0.4-0.2c0.2-0.1,0.2-0.1,0.1-0.1c0.1-0.1,0.2-0.2,0.3-0.3
		c0.6-0.4,0.8-0.7,1.2-1.2c0.7-0.8,1.9-1.1,2.7-0.4c0.8,0.6,1.1,1.9,0.4,2.7c-1.2,1.5-2.7,2.7-4.6,3.3c-1,0.3-2.1-0.7-2.2-1.7
		C389.6,188.3,390.4,187.5,391.4,187.2z"/>
	<path id="XMLID_129_" class="st33" d="M381.5,192.4c0.1,0,0.2,0,0.4-0.1c0.2-0.1,0.3-0.1,0.5-0.1c0.3-0.1,0.6-0.1,0.9-0.1
		c1.1,0,1.8,1.2,1.7,2.2c-0.1,0.5-0.3,1-0.7,1.3c-0.3,0.3-0.7,0.4-1.1,0.4c0,0,0,0,0.1,0c-0.1,0-0.1,0-0.2,0
		c-0.2,0.1-0.4,0.1-0.6,0.2c-0.4,0.1-0.9,0.1-1.3,0.1c-1.1-0.1-1.8-1.2-1.7-2.2C379.6,193,380.5,192.4,381.5,192.4z"/>
	<path id="XMLID_128_" class="st33" d="M374.1,190.1c1.1-0.5,2.2-1.1,3.3-1.7c0.9-0.5,2.2,0.1,2.6,1c0.5,1-0.1,2.1-1,2.6
		c-1.1,0.6-2.1,1.2-3.3,1.7c-1,0.4-2.2,0-2.6-1C372.7,191.7,373.1,190.5,374.1,190.1z"/>
	<path id="XMLID_127_" class="st33" d="M385.4,182.2c0.1,0,0.3-0.2,0.4-0.2c0.1-0.1,0.2-0.2,0.3-0.3c0.1-0.1,0.1-0.1,0.2-0.2
		c0,0,0,0,0,0c0.1-0.2,0.3-0.3,0.4-0.5c0.6-0.9,1.9-1,2.8-0.4c0.9,0.7,1,1.8,0.4,2.8c-0.7,1.1-1.7,1.9-2.9,2.4c-1,0.4-2.2,0-2.6-1
		C383.9,183.9,384.4,182.7,385.4,182.2z"/>
	<path id="XMLID_126_" class="st33" d="M392.7,170.1c0.5-0.9,2-1,2.8-0.4c0.4,0.3,0.7,0.8,0.8,1.3c0.1,0.6-0.1,1-0.4,1.5
		c0.2-0.4,0,0,0,0c0,0.1-0.1,0.2-0.1,0.3c0,0.2,0,0.5-0.1,0.7c-0.1,1.1-1.2,1.8-2.2,1.7c-1.1-0.1-1.8-1.1-1.7-2.2
		c0-0.3,0.1-0.7,0.1-1C392.1,171.2,392.3,170.7,392.7,170.1z"/>
	<path id="XMLID_125_" class="st33" d="M397.8,157.3c1.1,0.1,1.8,1.1,1.7,2.2l-0.2,2.7c-0.1,1.1-1.2,1.8-2.2,1.7
		c-1.1-0.1-1.8-1.1-1.7-2.2l0.2-2.7C395.7,157.9,396.7,157.2,397.8,157.3z"/>
	<path id="XMLID_124_" class="st33" d="M392.5,143.5c1.1,0.1,1.8,1.1,1.7,2.2L394,148c-0.1,1.1-1.2,1.8-2.2,1.7
		c-1.1-0.1-1.8-1.1-1.7-2.2l0.2-2.4C390.4,144.1,391.5,143.4,392.5,143.5z"/>
	<path id="XMLID_123_" class="st33" d="M387.6,159.3C387.6,159.2,387.6,159.2,387.6,159.3c0-0.2,0.1-0.3,0.1-0.3
		c0.1-0.4,0.1-0.9,0.1-1.3c0.1-1.1,1.2-1.8,2.2-1.7c1.1,0.1,1.8,1.1,1.7,2.2c-0.1,1.1-0.2,2.2-0.7,3.2c-0.5,0.9-1.5,1.5-2.6,1.1
		c-0.9-0.4-1.6-1.6-1.1-2.6C387.4,159.7,387.5,159.5,387.6,159.3z"/>
	<path id="XMLID_122_" class="st33" d="M383.1,168.6c0.4-1,1.5-1.5,2.6-1.1c1,0.4,1.5,1.6,1.1,2.6c-0.4,1-1,2-1.4,3
		c-0.4,1-1.5,1.5-2.6,1.1c-1-0.4-1.5-1.6-1.1-2.6C382.1,170.6,382.7,169.6,383.1,168.6z"/>
	<path id="XMLID_121_" class="st33" d="M373.6,180.9c0,0,0.1,0,0.1,0c0,0,0,0,0.1,0c0.2-0.1,0.3-0.3,0.4-0.4
		c0.4-0.4,0.7-0.7,1.1-1.1c0.8-0.7,2.1-0.5,2.8,0.3c0.7,0.9,0.5,2.1-0.3,2.8c-0.8,0.7-1.5,1.6-2.5,2.1c-1,0.4-2.2,0-2.6-1
		C372.2,182.6,372.6,181.4,373.6,180.9z"/>
	<path id="XMLID_120_" class="st33" d="M378.5,160.2c0,0,0-0.1,0-0.1c0.1-0.4,0.1-0.8,0.1-1.2c0.1-1.1,1.2-1.8,2.2-1.7
		c1.1,0.1,1.8,1.1,1.7,2.2c-0.1,1.3-0.3,2.6-1.3,3.6c-0.8,0.8-2.1,0.5-2.8-0.3c-0.6-0.7-0.5-1.6-0.1-2.3
		C378.4,160.3,378.4,160.3,378.5,160.2z"/>
	<path id="XMLID_119_" class="st33" d="M384,135.2c-0.1,0.2,0.1-0.3,0.2-0.4c0.1-0.2,0.1-0.4,0.2-0.6c-0.1,0.2,0.1-0.4,0.1-0.5
		c0.1-1.1,1.1-1.8,2.2-1.7c1.1,0.1,1.8,1.1,1.7,2.2c-0.1,1.4-0.7,2.5-1.4,3.6c-0.6,0.9-1.9,1-2.8,0.4c-0.9-0.7-1-1.8-0.4-2.8
		C383.9,135.4,384,135.3,384,135.2z"/>
	<path id="XMLID_118_" class="st33" d="M379.8,141.6c1-0.4,2.2,0,2.6,1c0.4,1,0,2.2-1,2.6c-0.1,0-0.3,0.1-0.4,0.2
		c-0.1,0.1-0.2,0.2-0.3,0.3c-0.1,0.1-0.2,0.2-0.2,0.3c0,0,0,0.1-0.1,0.1c0,0-0.1,0.2-0.1,0.3c-0.4,1-1.5,1.5-2.6,1.1
		c-1-0.4-1.5-1.6-1.1-2.6C377.3,143.4,378.3,142.2,379.8,141.6z"/>
	<path id="XMLID_117_" class="st33" d="M381.5,150.5C381.5,150.5,381.5,150.5,381.5,150.5c0-0.2,0.1-0.3,0.1-0.3
		c0.1-0.4,0.1-0.9,0.1-1.3c0.1-1.1,1.2-1.8,2.2-1.7c1.1,0.1,1.8,1.1,1.7,2.2c-0.1,1.1-0.2,2.2-0.7,3.2c-0.5,0.9-1.5,1.5-2.6,1.1
		c-0.9-0.4-1.6-1.6-1.1-2.6C381.4,150.9,381.5,150.7,381.5,150.5z"/>
	<path id="XMLID_116_" class="st33" d="M376.6,150.6c0.5,0.1,1,0.3,1.3,0.7c0.3,0.3,0.4,0.6,0.4,1c0,0,0,0,0,0c0,0,0,0,0,0
		c0,0,0,0,0,0c0,0.1,0.1,0.1,0.1,0.2c0.2,0.5,0.2,0.9,0.2,1.4c0,0.5-0.4,1-0.7,1.3c-0.4,0.3-0.9,0.5-1.5,0.4c-0.5-0.1-1-0.3-1.3-0.7
		c-0.3-0.3-0.4-0.6-0.4-1c0,0,0,0,0,0c0,0,0,0,0,0c0,0,0,0,0,0c0-0.1-0.1-0.1-0.1-0.2c-0.2-0.5-0.2-0.9-0.2-1.4c0-0.5,0.4-1,0.7-1.3
		C375.5,150.6,376,150.5,376.6,150.6z"/>
	<path id="XMLID_115_" class="st33" d="M515.2,188.3c0.4-0.8,1.2-1.2,2.2-1.1c1.2,0.1,2.1,1.2,1.9,2.4c-0.1,0.9-0.6,1.6-1.3,2.1
		c-0.4,0.3-0.8,0.5-1.2,0.8c-0.9,0.8-2.3,0.6-3.1-0.3c-0.8-0.9-0.6-2.3,0.3-3.1C514.4,188.9,514.8,188.6,515.2,188.3z"/>
	<path id="XMLID_114_" class="st33" d="M506.1,191.8c2.8,0.2,2.3,4.5-0.5,4.3C502.8,195.9,503.3,191.6,506.1,191.8z"/>
	<path id="XMLID_113_" class="st33" d="M493.9,194.4l3.4-1.4c1.1-0.4,2.4,0,2.9,1.1c0.5,1.1,0,2.4-1.1,2.9l-3.4,1.4
		c-1.1,0.4-2.4,0-2.9-1.1C492.3,196.2,492.8,194.9,493.9,194.4z"/>
	<path id="XMLID_112_" class="st33" d="M481.4,194.3l3.3,0.2c1.2,0.1,2,1.3,1.9,2.4c-0.1,1.2-1.2,2-2.4,1.9l-3.3-0.2
		c-1.2-0.1-2-1.3-1.9-2.4C479.1,195,480.2,194.2,481.4,194.3z"/>
	<path id="XMLID_111_" class="st33" d="M489.5,187.8c0.2,0,0.4,0,0.6,0c0,0,0.1,0,0.1,0c0.9-0.7,2.3-0.5,3,0.4
		c0.7,0.9,0.6,2.3-0.3,3.1c-1.1,0.9-2.4,1-3.8,0.8c-1.2-0.1-2-1.3-1.9-2.4C487.2,188.5,488.3,187.7,489.5,187.8z"/>
	<path id="XMLID_110_" class="st33" d="M504.5,184.6c0.6,0,1.1,0.1,1.7,0.3c0.5,0.2,0.9,0.5,1.2,0.8c0.5,0.6,0.6,1.2,0.6,1.9
		c0,0.5-0.4,1.1-0.8,1.4c-0.5,0.4-1,0.5-1.6,0.5c-0.5-0.1-0.9-0.3-1.3-0.6c-0.1,0-0.2,0-0.3,0c-1.2-0.1-2-1.3-1.9-2.4
		C502.2,185.3,503.3,184.5,504.5,184.6z"/>
	<path id="XMLID_109_" class="st33" d="M478,188.6l2.2,0.2c1.2,0.1,2,1.3,1.9,2.4c-0.1,1.2-1.2,2-2.4,1.9l-2.2-0.2
		c-1.2-0.1-2-1.3-1.9-2.4C475.7,189.3,476.8,188.5,478,188.6z"/>
	<path id="XMLID_108_" class="st1" d="M266.7,338.8c-1.2,0.1-2.1,1.1-2.1,2.3v1.8c0,1.2,1.1,2.2,2.3,2.1c1.2-0.1,2.1-1.1,2.1-2.3
		v-1.8C269,339.7,267.9,338.7,266.7,338.8z"/>
	<path id="XMLID_107_" class="st1" d="M266.7,328.6c-1.2,0.1-2.1,1.1-2.1,2.3v1.3c0,1.2,1.1,2.2,2.3,2.1c1.2-0.1,2.1-1.1,2.1-2.3
		v-1.3C269,329.5,267.9,328.5,266.7,328.6z"/>
	<path id="XMLID_106_" class="st1" d="M265.8,318.4c-1.2,0.1-2.1,1.1-2.1,2.3v1.3c0,1.2,1.1,2.2,2.3,2.1c1.2-0.1,2.1-1.1,2.1-2.3
		v-1.3C268.1,319.3,267,318.4,265.8,318.4z"/>
	<path id="XMLID_105_" class="st1" d="M266.4,306.5c-1.2-0.3-2.3,0.5-2.7,1.7c-0.4,1.2-0.5,2.4-0.5,3.7c0,1.2,1.1,2.2,2.3,2.1
		c1.2-0.1,2.1-1.1,2.1-2.3c0-0.2,0-0.4,0-0.6c0-0.1,0-0.3,0-0.4c0.1-0.5,0.2-1,0.4-1.4C268.4,308,267.5,306.8,266.4,306.5z"/>
	<path id="XMLID_104_" class="st1" d="M265.4,296.3c-1.2,0.1-2.1,1.1-2.1,2.3v1.3c0,1.2,1.1,2.2,2.3,2.1c1.2-0.1,2.1-1.1,2.1-2.3
		v-1.3C267.7,297.2,266.5,296.2,265.4,296.3z"/>
	<path id="XMLID_103_" class="st1" d="M264.5,283.4c-1.2,0.1-2.1,1.1-2.1,2.3v3.1c0,1.2,1.1,2.2,2.3,2.1c1.2-0.1,2.1-1.1,2.1-2.3
		v-3.1C266.8,284.4,265.7,283.4,264.5,283.4z"/>
	<path id="XMLID_102_" class="st1" d="M263.6,274.6c-1.2,0.1-2.1,1.1-2.1,2.3v1.3c0,1.2,1.1,2.2,2.3,2.1c1.2-0.1,2.1-1.1,2.1-2.3
		v-1.3C265.9,275.5,264.8,274.5,263.6,274.6z"/>
	<path id="XMLID_101_" class="st1" d="M260.1,339.2c-1.3,0.1-2.1,1.1-2.1,2.3c0-0.5,0,0.1,0,0.2c0,0.3-0.1,0.5-0.2,0.8
		c-0.1,0.6-0.2,1.1-0.2,1.7c0,1.2,1.2,2.2,2.3,2.1c1.3-0.1,2.1-1.1,2.1-2.3c0,0.5,0-0.1,0-0.2c0-0.3,0.1-0.5,0.2-0.8
		c0.1-0.6,0.2-1.1,0.2-1.7C262.4,340.1,261.2,339.2,260.1,339.2z"/>
	<path id="XMLID_100_" class="st1" d="M259.6,328.1c-1.2,0.1-2.1,1.1-2.1,2.3v2.7c0,1.2,1.1,2.2,2.3,2.1c1.2-0.1,2.1-1.1,2.1-2.3
		v-2.7C261.9,329.1,260.8,328.1,259.6,328.1z"/>
	<path id="XMLID_99_" class="st1" d="M260.1,315.8c-1.2,0.1-2.1,1.1-2.1,2.3v3.1c0,1.2,1.1,2.2,2.3,2.1c1.2-0.1,2.1-1.1,2.1-2.3
		v-3.1C262.4,316.7,261.2,315.7,260.1,315.8z"/>
	<path id="XMLID_98_" class="st1" d="M261.5,307.7c0.6-0.9,0.5-2.1-0.3-2.9c-0.9-0.8-2.3-0.8-3.1,0.1c-1,1.1-1,2.4-1,3.8
		c0,1.2,1.1,2.2,2.3,2.1c1.2-0.1,2.1-1.1,2.1-2.3c0-0.2,0-0.3,0-0.5c0-0.1,0-0.2,0-0.3C261.5,307.8,261.5,307.7,261.5,307.7z"/>
	<path id="XMLID_97_" class="st1" d="M259.6,291.9c-1.2,0.1-2.1,1.1-2.1,2.3c0,0.1,0,0.2,0,0.4c-0.6,0.9-0.6,2.2,0.3,2.9
		c0.9,0.8,2.3,0.8,3.1-0.1c0.9-1,1-2.1,1-3.4C261.9,292.8,260.8,291.8,259.6,291.9z"/>
	<path id="XMLID_96_" class="st1" d="M275.4,316.4c-0.4-0.4-1-0.6-1.6-0.6c-0.6,0-1.1,0.3-1.5,0.7c-0.1,0.2-0.3,0.3-0.3,0.5
		c-0.7,0.4-1.2,1.2-1.1,2c0.1,1.2,1.1,2.2,2.3,2.1c0.8,0,1.5-0.4,2.1-1c0.6-0.6,0.8-1.4,0.9-2.2
		C276.1,317.3,275.8,316.7,275.4,316.4z"/>
	<path id="XMLID_95_" class="st1" d="M278.7,309.6c-0.6,0-1.1,0.3-1.5,0.7c-0.3,0.3-0.4,0.7-0.5,1c-0.6,0.4-1,1.1-1,1.9
		c0.1,1.2,1.1,2.2,2.3,2.1c0.8,0,1.6-0.4,2.1-1c0.6-0.8,0.9-1.6,0.9-2.6C281,310.5,279.8,309.5,278.7,309.6z"/>
	<path id="XMLID_94_" class="st1" d="M284.7,302.3c-1-0.6-2.5-0.2-3,0.9c-0.2,0.4-0.4,0.9-0.6,1.4c-0.8,0.9-0.7,2.3,0.1,3.1
		c0.9,0.8,2.3,0.8,3.1-0.1c0.6-0.7,0.8-1.4,1.2-2.2C286.1,304.2,285.8,302.9,284.7,302.3z"/>
	<path id="XMLID_93_" class="st1" d="M250.8,315.8c-2.9,0-2.7,4.4,0.2,4.4C253.8,320.2,253.6,315.8,250.8,315.8z"/>
	<path id="XMLID_92_" class="st1" d="M252.5,282.4C252.5,282.4,252.5,282.4,252.5,282.4c-0.1-0.1-0.2-0.3-0.2-0.4
		c0-0.1,0-0.1-0.1-0.2c0-0.1,0-0.2,0-0.2c0-1.2-1.1-2.2-2.3-2.1c-1.2,0.1-2.2,1.1-2.1,2.3c0,1.4,0.6,2.7,1.6,3.7
		c0.8,0.9,2.3,0.7,3.1-0.1C253.3,284.5,253.2,283.3,252.5,282.4z"/>
	<path id="XMLID_91_" class="st1" d="M257,290.4c-0.1-0.1-0.1-0.1-0.2-0.2c-0.2-0.2-0.3-0.4-0.5-0.7c-0.5-0.6-1.3-0.8-2-0.8
		c-0.5,0-1.2,0.3-1.5,0.7c-0.4,0.4-0.6,1-0.6,1.6c0,0.6,0.3,1.1,0.7,1.5c0.1,0.1,0.3,0.2,0.4,0.3c0.1,0.2,0.3,0.4,0.5,0.6
		c0.8,0.9,2.3,0.8,3.1-0.1c0.4-0.4,0.6-1,0.6-1.6C257.5,291.2,257.3,290.8,257,290.4z"/>
	<path id="XMLID_90_" class="st1" d="M254.5,325.6c-0.2-0.3-0.3-0.6-0.5-0.9c0,0,0-0.1,0-0.1c0,0,0-0.1,0-0.1c0-1.2-1.1-2.2-2.3-2.1
		c-1.2,0.1-2.2,1.1-2.1,2.3c0,1.3,0.7,2.2,1.2,3.3c0.6,1.1,2.1,1.3,3,0.7C254.9,328,255.1,326.7,254.5,325.6z"/>
	<g id="XMLID_84_">
		<path id="XMLID_89_" class="st28" d="M426.3,129c0.6,0,1.2,2.9,1.1,2.9c-0.1,0-0.2,0-0.3,0C426.3,131.6,425.3,128.9,426.3,129z"/>
		<path id="XMLID_88_" class="st28" d="M400.8,128.5c0.1,0.1,0.1,0.1,0.1,0.2c0.2,0.6-1,2.6-1.4,2
			C399.2,130.3,400.7,128.4,400.8,128.5z"/>
		<path id="XMLID_87_" class="st22" d="M401.3,131.1c2.7,1.4,7.5,0.7,10.5,0.6c4.2,0,8.2,0,12.3-0.6c0.4-0.1-0.8,2.4-1,2.6
			C416.1,140.4,404.8,142,401.3,131.1z"/>
		<path id="XMLID_86_" class="st34" d="M401.2,131c0.5-0.2,1.1-1.1,1.5-1.4c0.7-0.6,1.6-1.8,2.6-1.8c1.2-0.1,2.7,0.9,3.4,1.9
			c0.7-0.9,1.4-1.8,2.6-1.9c2.1-0.1,4.2,0.6,6.1,1.2c2.2,0.8,4.8,1.6,7.2,1.6c0.3,0-0.7,0.7-0.8,0.7c-0.4,0.2-10.1,1.4-13.3,1.4
			c-2,0-4.1,0.1-6-0.4c-0.8-0.2-1.6-0.2-2.3-0.5C402.2,131.8,400.9,131.1,401.2,131z"/>
		<path id="XMLID_85_" class="st34" d="M407.6,138c0.2,0.1,0.4,0.1,0.6,0.2c3.6,0.9,7.5,0.1,10.7-1.5c1.5-0.7,2.9-1.6,3.7-2.7
			c0.8-1,1.1-2,1.6-3.1c0.4,0.8-0.1,2.4-0.5,3.2c-1.7,4-5.3,7.6-9.7,8.4c-2.7,0.5-6,0.4-8.3-1.3c-2.3-1.7-2.6-5.4-3.8-7.9
			c-0.3-0.6-0.2-1.4-0.6-1.9C403.2,134.2,404.4,137,407.6,138z"/>
	</g>
	<path id="XMLID_83_" d="M430.7,102.8c1.5,0.1,2.7,1.5,2.6,3.1c-0.1,1.6-1.5,2.8-3,2.7c-1.5-0.1-2.7-1.5-2.6-3.1
		C427.8,103.9,429.1,102.7,430.7,102.8z"/>
	<path id="XMLID_82_" d="M398,103.5c1.3,0.1,2.3,1.2,2.2,2.5c-0.1,1.3-1.2,2.2-2.5,2.1c-1.3-0.1-2.3-1.2-2.2-2.5
		C395.5,104.3,396.6,103.4,398,103.5z"/>
	<path id="XMLID_81_" d="M421.5,103.3c4.7-1.9,12.6-2.1,17,0.6c0.4,0.3,0.5,0.8,0.2,1.1c-0.3,0.3-1,0.4-1.4,0.1
		c-3.7-2.3-10.8-2-14.8-0.4c-0.2,0.1-0.4,0.1-0.5,0.1c-0.3,0-0.6-0.2-0.8-0.4C420.8,104,421,103.5,421.5,103.3z"/>
	<path id="XMLID_80_" d="M392.7,102.6l0.2,0c1.8-0.2,3.9-0.5,5.9-0.3c1,0.1,1.8,0.3,2.6,0.5c0.8,0.2,1.5,0.3,2.2,0.4
		c-0.6,0.2-1.1,0.6-1.5,1.1l0,0c-0.5-0.1-1-0.2-1.5-0.3c-0.7-0.2-1.3-0.3-2-0.4c-1.6-0.1-3.3,0.1-5,0.3l-0.2,0
		c-0.6,0.1-1.3-0.1-1.4-0.5C391.7,103,392.1,102.7,392.7,102.6z"/>
	<rect id="XMLID_79_" x="216.1" y="435.2" class="st8" width="544" height="105"/>
	<g id="XMLID_46_">
		<g id="XMLID_49_">
			<g id="XMLID_52_">
				<g id="XMLID_77_">
					<path id="XMLID_78_" class="st27" d="M237,368.6c0,0,15-5.8,21.4-6.8s26.6,8.4,26.5,13.5c-0.1,5.1-11.4,6-21,2.2
						c-9.6-3.8-6.2-2.1-6.2-2.1s13.7,5.7,13,9.9c-0.7,4.2-13.5-2.4-16.9-2c-3.4,0.4-11.7,7.9-14.9,4c-6.6-8.2-23.9-1.8-23.9-1.8
						l1.3-14.3L237,368.6z"/>
				</g>
				<g id="XMLID_75_">
					<path id="XMLID_76_" class="st35" d="M136.2,129.3c-5.4,2.6-7.9,11-5.5,18.8c2.4,7.8,8.8,12.1,14.2,9.5
						c5.4-2.6,7.9-11,5.5-18.8C148,131,141.7,126.8,136.2,129.3z"/>
				</g>
				<g id="XMLID_73_">
					<path id="XMLID_74_" class="st35" d="M143.5,147.8c0-0.2-0.1-0.3-0.1-0.5l2.8-35.8c6.4-19.4,12.9-34.7,34.7-33.1l19.6,1.4
						c25.8,1.8,44.5,15,43.2,38.3l-2.5,39.4c-1.9,23.1-19.3,48.1-25.5,53c-4.1,3.2-19.7,0.3-24.2-2.3l-17.8-6.4
						c-6.5-0.5-12.5-2.1-18-4.6C148.2,181.6,145.3,165.3,143.5,147.8z"/>
				</g>
				<g id="XMLID_71_">
					<path id="XMLID_72_" class="st6" d="M173.4,178.7c-9.6,0.1-16.7,0.8-24.9-3.2c-5.5-10.7-5.5-12.8-11.1-36.1
						c-4.6-47,8.1-57.6,11.3-61c9.9-10.9,48.7-24.1,78.3-2.8c18.1,13.1,16.8,42.4,16.8,42.4c-12.7-23-7.1,10.4-10.2,12.7
						c-1.9,1.4-5.1,11.9-7.5,11.1c-7.9-2.4-8-16.3-9.3-15.3c-9.8,7.4-16.4,28.1-25.8,38.8C183.3,175.4,178.8,174.3,173.4,178.7z"/>
				</g>
				<g id="XMLID_69_">
					<path id="XMLID_70_" class="st35" d="M214.1,123.2c-7.4,0.5-17.7,6.6-17.5,24.7c0.1,10.3,6,18.2,13.4,17.8
						c7.4-0.5,13.5-9.2,13.5-19.5C223.5,136,221.5,122.7,214.1,123.2z"/>
				</g>
				<g id="XMLID_67_">
					<path id="XMLID_68_" class="st35" d="M130,215c9.6,1.5,30.9,1.7,40.4,3.6c0.3,0.1,38.1,21.7,21.3,7l-2.1-46.2
						c1.5-7.2-38.7-17.2-41.5-1.6L130,215z"/>
				</g>
				<g id="XMLID_65_">
					<path id="XMLID_66_" class="st6" d="M142.3,203.5c-3.2-0.4-6.5,0.3-9.2,2.1c-3.1,2.1-7.4,5.6-12.4,11.4
						c-10.1,11.6,14.5,17.1,14.5,17.1l36.1,6.8c0,0,24.8-4.8,26.9-19.7c0,0-0.3-5.2-7.7-11.4L142.3,203.5z"/>
				</g>
				<g id="XMLID_63_">
					<path id="XMLID_64_" d="M247.2,537.8c-9.9-52.1-30.9-161.8-31.1-181c-0.7-59.1,6.8-123.2,6.8-123.3
						c-0.9-4.5-19.2-10.8-33.5-13.9c-28.3-4-47-6.4-61.2-0.6c-27,5.7-72.3,6.6-93,40.2c-21.3,34.5,43.4,188.2,48.2,278.5H247.2z"/>
				</g>
				<g id="XMLID_61_">
					<path id="XMLID_62_" class="st36" d="M170,341.7L170,341.7C169.9,341.9,169.7,342.1,170,341.7z"/>
				</g>
				<g id="XMLID_59_">
					<path id="XMLID_60_" class="st36" d="M170,341.7C170.3,341.2,170.2,341.4,170,341.7C170,341.7,170,341.7,170,341.7z"/>
				</g>
				<g id="XMLID_57_">
					<path id="XMLID_58_" class="st36" d="M170,341.7C170,341.7,170,341.7,170,341.7C170,341.7,170,341.7,170,341.7L170,341.7z"/>
				</g>
				<g id="XMLID_55_">
					<path id="XMLID_56_" d="M200.9,250.3c9-18.1,16.1-22.9,23.6-19c11.4,6,63.9,15,64.4,42.5c0.6,28.7,27.7,91.1,38.4,135.5
						c1.8,7.3-6.9,49.9-95.2,67.4L199,405.5c-5-0.1-11.7-52.6-10.8-57.6C188.2,347.9,185.3,281.7,200.9,250.3z"/>
				</g>
				<g id="XMLID_53_">
					<path id="XMLID_54_" class="st27" d="M369.7,380.6c-4.5-3.4-8.3-5.5-11.6-6.9c1.3,0.1,2.7,0.2,4.4,0.3
						c15.1,0.8,3.3-6.8-5.9-8.9c-17.5-3.9-30.6,10.9-37.2,21c2.9,7.4,5.7,15.2,4.6,22.8c13.4-0.5,11.1-11.4,17.1-12.6
						c6.3-1.3,19.4,3.4,26.6,2.8C374.7,398.6,388.6,394.9,369.7,380.6z"/>
				</g>
			</g>
			<path id="XMLID_51_" class="st2" d="M137.4,139.5c0,0,19.5,10.5,45.6,5.6c26.1-4.9,56.3-52.3,51.4-62.9
				c-4.9-10.6-63.4-46.7-67.8-49c-10.8-5.6-52,23.3-49.5,47.8C119.6,105.5,137.4,139.5,137.4,139.5z"/>
			<path id="XMLID_50_" class="st15" d="M119.3,71.6c0,0,18-36.7,43.3-35.9c10.3,0.3,14.9,6.5,16.8,13.6c3.2,12.2-2,25-12.2,32.3
				c-11,7.8-27.2,17.2-37.2,13.7C113.6,89.6,119.3,71.6,119.3,71.6z"/>
		</g>
		<path id="XMLID_48_" class="st8" d="M195.2,537.8c0.8-4.3,1.2-8.7,1.2-13.2V345.9c0-41.8-33.9-75.6-75.6-75.6l0,0
			c-41.8,0-75.6,33.9-75.6,75.6v178.7c0,4.5,0.4,8.9,1.2,13.2H195.2z"/>
		<path id="XMLID_47_" class="st13" d="M182.1,537.8c0.1-1.4,0.1-2.7,0.1-4.1V355c0-41.8-33.9-75.6-75.6-75.6l0,0
			C64.8,279.4,31,313.2,31,355v178.7c0,1.4,0,2.7,0.1,4.1H182.1z"/>
	</g>
	<g id="XMLID_45_">
		<g>
			<path class="st0" d="M270.5,248.4c-1.4,0.5-2.8,1-4.2,1.5c-1.3,0.5-2.1,1.7-1.7,3.1c0.3,1.2,1.8,2.2,3.1,1.7
				c1.4-0.5,2.8-1,4.2-1.5c1.3-0.5,2.1-1.7,1.7-3.1C273.2,248.9,271.7,248,270.5,248.4L270.5,248.4z"/>
		</g>
	</g>
	<g id="XMLID_44_">
		<g>
			<path class="st0" d="M257.2,257.2c-2.8,1.6-5.4,3.6-7.5,6.1c-2.1,2.4,1.4,6,3.5,3.5c1.9-2.2,4-3.9,6.5-5.3
				C262.6,259.9,260,255.6,257.2,257.2L257.2,257.2z"/>
		</g>
	</g>
	<g id="XMLID_43_">
		<g>
			<path class="st0" d="M239.9,275.9c-2.8,2.4-4.3,5.9-4.2,9.5c0,3.2,5,3.2,5,0c0-2.4,1-4.4,2.8-6
				C245.9,277.3,242.3,273.8,239.9,275.9L239.9,275.9z"/>
		</g>
	</g>
	<g id="XMLID_42_">
		<g>
			<path class="st0" d="M228.5,300.1c-1.2,3.9-1.8,7.9-1.8,12c0,3.2,5,3.2,5,0c-0.1-3.7,0.5-7.2,1.6-10.7
				C234.3,298.3,229.4,297,228.5,300.1L228.5,300.1z"/>
		</g>
	</g>
	<g id="XMLID_41_">
		<g>
			<path class="st0" d="M220.3,326.1c-0.9,2.2-1,4.6-0.7,7c0.2,1.3,1.9,2.1,3.1,1.7c1.4-0.4,1.9-1.7,1.7-3.1
				c-0.2-1.5,0.1-2.9,0.7-4.3c0.5-1.3-0.5-2.7-1.7-3.1C221.9,324,220.8,324.9,220.3,326.1L220.3,326.1z"/>
		</g>
	</g>
	<g id="XMLID_40_">
		<g>
			<path class="st0" d="M216,351.4c0,2.8,0,5.6,0,8.4c0,3.2,5,3.2,5,0c0-2.8,0-5.6,0-8.4C221,348.2,216,348.2,216,351.4L216,351.4z"
				/>
		</g>
	</g>
	<g id="XMLID_39_">
		<g>
			<path class="st0" d="M215.3,380.2c0,3.5,0,7,0,10.5c0,3.2,5,3.2,5,0c0-3.5,0-7,0-10.5C220.3,377,215.3,377,215.3,380.2
				L215.3,380.2z"/>
		</g>
	</g>
	<g id="XMLID_38_">
		<g>
			<path class="st0" d="M218.7,406.2c0.7,5.5,1.9,10.8,3.8,16.1c1.1,3,5.9,1.7,4.8-1.3c-1.7-4.8-2.9-9.7-3.6-14.8
				C223.2,403,218.2,403,218.7,406.2L218.7,406.2z"/>
		</g>
	</g>
	<g id="XMLID_37_">
		<g>
			<path class="st0" d="M221.4,432.9c0.4,2.6,0.7,5.1,1.1,7.7c0.2,1.3,1.9,2.1,3.1,1.7c1.4-0.4,1.9-1.7,1.7-3.1
				c-0.4-2.6-0.7-5.1-1.1-7.7c-0.2-1.3-1.9-2.1-3.1-1.7C221.7,430.2,221.2,431.5,221.4,432.9L221.4,432.9z"/>
		</g>
	</g>
	<g id="XMLID_36_">
		<g>
			<path class="st0" d="M229,463.6c0.9,1.6,1.9,3.3,2.8,4.9c1.6,2.8,5.9,0.3,4.3-2.5c-0.9-1.6-1.9-3.3-2.8-4.9
				C231.7,458.3,227.4,460.8,229,463.6L229,463.6z"/>
		</g>
	</g>
	<g id="XMLID_35_">
		<g>
			<path class="st0" d="M182.3,49.8c0.7,0.7,1.4,1.4,2.1,2.1c0.9,0.9,2.6,1,3.5,0c0.9-1,1-2.5,0-3.5c-0.7-0.7-1.4-1.4-2.1-2.1
				c-0.9-0.9-2.6-1-3.5,0C181.4,47.2,181.3,48.8,182.3,49.8L182.3,49.8z"/>
		</g>
	</g>
	<g id="XMLID_33_">
		<g>
			<path class="st0" d="M183.7,59.2c0,0.9,0,1.9,0,2.8c0,1.3,1.1,2.6,2.5,2.5c1.4-0.1,2.5-1.1,2.5-2.5c0-0.9,0-1.9,0-2.8
				c0-1.3-1.1-2.6-2.5-2.5C184.8,56.8,183.7,57.8,183.7,59.2L183.7,59.2z"/>
		</g>
	</g>
	<g id="XMLID_32_">
		<g>
			<path class="st0" d="M182.6,72.7c-0.9,1.9-1.9,3.7-2.8,5.6c-0.6,1.2-0.3,2.7,0.9,3.4c1.1,0.6,2.8,0.3,3.4-0.9
				c0.9-1.9,1.9-3.7,2.8-5.6c0.6-1.2,0.3-2.7-0.9-3.4C184.9,71.2,183.2,71.5,182.6,72.7L182.6,72.7z"/>
		</g>
	</g>
	<g id="XMLID_31_">
		<g>
			<path class="st0" d="M171.1,87.7c-0.9,1.2-1.9,2.3-2.8,3.5c-0.8,1-1.1,2.6,0,3.5c0.9,0.8,2.7,1.1,3.5,0c0.9-1.2,1.9-2.3,2.8-3.5
				c0.8-1,1.1-2.6,0-3.5C173.7,86.8,171.9,86.6,171.1,87.7L171.1,87.7z"/>
		</g>
	</g>
	<g id="XMLID_30_">
		<g>
			<path class="st0" d="M158.2,98.4c-1.1,0.8-2.3,1.2-3.6,1.2c-3.2,0-3.2,5,0,5c2.2,0,4.3-0.6,6.1-1.8c1.1-0.8,1.6-2.2,0.9-3.4
				C161,98.2,159.3,97.7,158.2,98.4L158.2,98.4z"/>
		</g>
	</g>
	<g id="XMLID_29_">
		<g>
			<path class="st0" d="M145.5,103.1c-1.6,0-3.3,0-4.9,0c-3.2,0-3.2,5,0,5c1.6,0,3.3,0,4.9,0C148.7,108.1,148.7,103.1,145.5,103.1
				L145.5,103.1z"/>
		</g>
	</g>
	<g id="XMLID_28_">
		<g>
			<path class="st0" d="M132.1,101.7c-1.3,0-2.5-0.4-3.6-1.1c-2.7-1.7-5.3,2.6-2.5,4.3c1.9,1.2,4,1.7,6.2,1.8c1.4,0,2.5-1.2,2.5-2.5
				C134.6,102.8,133.5,101.7,132.1,101.7L132.1,101.7z"/>
		</g>
	</g>
	<g id="XMLID_27_">
		<g>
			<path class="st0" d="M50.3,241.5c-0.5,0.5-0.9,0.9-1.4,1.4c-0.9,0.9-1,2.6,0,3.5c1,0.9,2.5,1,3.5,0c0.5-0.5,0.9-0.9,1.4-1.4
				c0.9-0.9,1-2.6,0-3.5C52.8,240.5,51.3,240.5,50.3,241.5L50.3,241.5z"/>
		</g>
	</g>
	<g id="XMLID_26_">
		<g>
			<path class="st0" d="M43.2,254.4c-0.7,1.7-1.3,3.3-2,5c-0.5,1.3,0.5,2.7,1.7,3.1c1.4,0.4,2.6-0.5,3.1-1.7c0.7-1.7,1.3-3.3,2-5
				c0.5-1.3-0.5-2.7-1.7-3.1C44.8,252.3,43.7,253.2,43.2,254.4L43.2,254.4z"/>
		</g>
	</g>
	<g id="XMLID_25_">
		<g>
			<path class="st0" d="M36.5,271.4c-1,2-1.3,4-0.9,6.2c0.2,1.3,1.9,2.1,3.1,1.7c1.4-0.4,2-1.7,1.7-3.1c-0.1-0.7,0-1.6,0.4-2.3
				c0.6-1.2,0.3-2.7-0.9-3.4C38.8,269.9,37.1,270.2,36.5,271.4L36.5,271.4z"/>
		</g>
	</g>
	<g id="XMLID_24_">
		<g>
			<path class="st0" d="M34.4,286.2c-1,2-1.3,4-0.9,6.1c0.2,1.3,1.9,2.1,3.1,1.7c1.4-0.4,2-1.7,1.7-3.1c0,0.3,0-0.5,0-0.5
				c0,0,0-0.8,0-0.5c0.1-0.5,0.3-1,0.4-1.3c0.6-1.2,0.3-2.7-0.9-3.4C36.7,284.6,35,285,34.4,286.2L34.4,286.2z"/>
		</g>
	</g>
	<g id="XMLID_1_">
		<g>
			<path class="st0" d="M34.1,302.2c0,1.2,0,2.3,0,3.5c0,1.3,1.1,2.6,2.5,2.5c1.4-0.1,2.5-1.1,2.5-2.5c0-1.2,0-2.3,0-3.5
				c0-1.3-1.1-2.6-2.5-2.5C35.2,299.8,34.1,300.8,34.1,302.2L34.1,302.2z"/>
		</g>
	</g>
</g>
</svg>
