<svg xmlns="http://www.w3.org/2000/svg" width="40" height="40" viewBox="0 0 40 40">
    <path fill="#FFF" fill-rule="evenodd" d="M31.436 8H14.25c-.863 0-1.563.72-1.563 1.585v6.228H9.563c-.864 0-1.563.699-1.563 1.562v12.521A3.105 3.105 0 0 0 11.124 33h18.748A3.125 3.125 0 0 0 33 29.875V9.563C33 8.699 32.3 8 31.436 8zM12.687 29.115a1.562 1.562 0 1 1-3.124 0v-11.74h3.124v11.74zm4.688-16.428h4.688v1.563h-4.688v-1.563zm10.938 15.626H17.375V26.75h10.938v1.563zm0-4.688H17.375v-1.562h10.938v1.562zm0-4.688H17.375v-1.562h10.938v1.562z"/>
</svg>
