<svg xmlns="http://www.w3.org/2000/svg" xmlns:xlink="http://www.w3.org/1999/xlink" width="36" height="27" viewBox="0 0 36 27">
    <defs>
        <path id="a" d="M11.757 20.548h1.088l-.026-.06a3.05 3.05 0 0 1 0-2.358l2.328-5.597c-3.13-3.177-3.929-6.361-3.064-7.224 1.861-1.853 1.686-2.078 3.076-.357 1.389 1.722 1.296 1.615-.078 2.984-.426.425.17 1.353 1.019 2.305l3.824-9.196A1.031 1.031 0 0 1 21.272.49l4.923 2.031v-.465h-.001C26.172.939 25.258 0 24.132 0H9.694v18.493c0 1.135.924 2.055 2.063 2.055zm-3.094-2.843V9.892l-3.856 1.63 2.821 6.62 1.035-.437zm4.709 3.911h-1.61c-1.312 0-2.441-.591-2.89-1.743l-.007.003-.019.008a1.546 1.546 0 0 1-1.975-.74l-.004.001-3.388-8.16 5.184-2.141V4.398L0 7.977l7.093 17.078a2.061 2.061 0 0 0 2.69 1.111l6.884-2.844-2.173-.896a7.087 7.087 0 0 1-1.122-.81zm11.652-3.472l-1.48-.608-.787 1.899c.157.008.327-.014.508-.066.368-.107.774-.338 1.175-.669a6.02 6.02 0 0 0 .584-.556zm-.87 1.609a5.301 5.301 0 0 0 2.319-.4c.234-.097.459-.21.674-.336l-1.43-.588c-.5.578-1.033 1.03-1.563 1.324zm-2.745-3.095c-.011.28-.005.549.02.805.05.516.174.965.36 1.299.09.164.195.299.313.404l.787-1.9-1.48-.608zm-2.292-2.148c0 .152.009.303.023.453l1.66.682c.104-.662.288-1.36.555-2.062l-1.96-.805a5.222 5.222 0 0 0-.278 1.732zM30 16.754c-1.269 3.062-4.79 4.52-7.865 3.257-3.075-1.264-4.54-4.77-3.27-7.833 1.269-3.063 4.79-4.52 7.865-3.257 3.075 1.264 4.54 4.77 3.27 7.833zm4.217-9.523L20.876 1.726 13.77 18.811a2.052 2.052 0 0 0 1.116 2.685L28.228 27l7.105-17.085c.408-1.04-.076-2.256-1.116-2.684zm-8.044 10.622l1.66.682a5.242 5.242 0 0 0 1.367-1.729l-1.96-.805c-.31.686-.672 1.31-1.067 1.852zm1.337-2.504l1.96.805a5.223 5.223 0 0 0 .255-2.185l-1.66-.682a10.477 10.477 0 0 1-.555 2.062zm.469-4.827c.167.58.226 1.275.171 2.036l1.43.588a5.327 5.327 0 0 0-1.601-2.624zm-5.287.556l-1.66-.681a5.244 5.244 0 0 0-1.367 1.729l1.96.804a10.51 10.51 0 0 1 1.067-1.852zm-1.977 5.296l-1.43-.588a5.328 5.328 0 0 0 1.601 2.624c-.167-.58-.226-1.276-.171-2.036zm4.96.961a9.832 9.832 0 0 0 .91-1.603l-1.96-.805-.811 1.957 1.684.692c.06-.079.118-.159.176-.241zm1.781-5.062c.011-.28.005-.548-.02-.804-.05-.516-.174-.966-.36-1.3a1.535 1.535 0 0 0-.313-.403l-.787 1.899 1.48.608zm-5.936 3.355c-.017.1-.032.197-.045.294l1.684.692.81-1.957-1.959-.805a9.813 9.813 0 0 0-.49 1.776zm3.531-3.58l-1.684-.692A9.83 9.83 0 0 0 22.28 13.2l1.96.805.81-1.957zm-.34-2.87a5.317 5.317 0 0 0-2.993.736l1.43.588c.5-.577 1.033-1.029 1.563-1.323zm2.634 4.125c.017-.099.032-.197.045-.294l-1.684-.692-.81 1.957 1.959.805a9.8 9.8 0 0 0 .49-1.776zm-3.504-2.516l1.48.609.787-1.9a1.546 1.546 0 0 0-.508.067c-.368.106-.774.337-1.175.669-.199.164-.394.35-.584.555z"/>
    </defs>
    <g fill="none" fill-rule="evenodd">
        <mask id="b" fill="#fff">
            <use xlink:href="#a"/>
        </mask>
        <use fill="#000" xlink:href="#a"/>
        <g fill="#000" mask="url(#b)">
            <path d="M-2-7h40v40H-2z"/>
        </g>
    </g>
</svg>
