<svg xmlns="http://www.w3.org/2000/svg" xmlns:xlink="http://www.w3.org/1999/xlink" width="125" height="76" viewBox="0 0 125 76">
    <defs>
        <path id="a" d="M.183.235h203.66V167.41H.183z"/>
        <path id="b" d="M0 .037h127.495v128.757H0z"/>
    </defs>
    <g fill="none" fill-rule="evenodd">
        <g transform="rotate(-30 61.777 70.338)">
            <mask id="c" fill="#fff">
                <use xlink:href="#b"/>
            </mask>
            <path fill="#8F8F8F" d="M127.495 64.416c0 35.555-28.54 64.378-63.747 64.378S0 99.971 0 64.416C0 28.86 28.54.036 63.748.036c35.206 0 63.747 28.824 63.747 64.38" mask="url(#c)"/>
        </g>
        <path fill="#595959" d="M109.512 35.535c15.94 27.608 6.726 62.768-20.578 78.533-27.305 15.764-62.361 6.163-78.3-21.445-15.94-27.608-6.727-62.769 20.578-78.533 27.304-15.764 62.36-6.163 78.3 21.445"/>
        <path fill="#FFF" d="M109.048 37.268c15.239 26.394 6.441 60.003-19.65 75.067-26.09 15.063-59.595 5.878-74.834-20.517-15.24-26.394-6.442-60.003 19.65-75.066 26.09-15.064 59.595-5.879 74.834 20.516"/>
        <path fill="#D6D6D6" d="M68.862 59.004a9.515 9.515 0 1 1-16.48 9.515 9.515 9.515 0 0 1 16.48-9.515"/>
        <path fill="#FFD200" d="M21.05 44.697a43.96 43.96 0 0 0-2.58 4.746 43.807 43.807 0 0 0-1.999 5.044 43.7 43.7 0 0 0-1.376 5.274 46.286 46.286 0 0 0-.448 2.7 46.05 46.05 0 0 0-.275 2.73c-.525 7.306.782 14.822 3.905 21.618a44.448 44.448 0 0 0 5.938 9.545 45.162 45.162 0 0 0 3.853 4.17 48.008 48.008 0 0 0 4.363 3.685 48.286 48.286 0 0 1-4.68-3.325 45.873 45.873 0 0 1-11.18-13.204c-3.838-6.79-5.931-14.635-6.026-22.587-.02-.994.01-1.989.05-2.985.057-.994.125-1.99.242-2.983a48.245 48.245 0 0 1 1.025-5.916 48.876 48.876 0 0 1 1.746-5.775 49.433 49.433 0 0 1 2.44-5.546l5.002 2.809z"/>
        <path fill="#FF7900" d="M55.515 14.707a49.607 49.607 0 0 1 12.568.466l.782.132.778.15c.52.095 1.035.219 1.553.33a53.224 53.224 0 0 1 6.102 1.805 54.55 54.55 0 0 1 10.045 4.891c.229.144.449.275.685.43l.712.469c.936.64 1.854 1.307 2.728 2.02 3.508 2.84 6.518 6.216 8.99 9.907 2.485 3.689 4.428 7.692 5.896 11.82 1.47 4.132 2.44 8.395 3.006 12.667l-15.3 1.257c-.142-3.31-.593-6.58-1.409-9.731-.815-3.148-1.974-6.188-3.52-8.988-1.534-2.805-3.455-5.37-5.693-7.544a27.872 27.872 0 0 0-1.736-1.546l-.451-.36c-.153-.12-.332-.248-.497-.372a33.375 33.375 0 0 0-1.017-.736 41.887 41.887 0 0 0-4.272-2.636 43.397 43.397 0 0 0-2.244-1.126 42.367 42.367 0 0 0-4.678-1.83c-.4-.12-.799-.255-1.204-.364l-.605-.172-.61-.157a39.812 39.812 0 0 0-9.998-1.23l-.611-9.552z"/>
        <path fill="#FFB400" d="M54.851 25.26c-3.29.03-6.593.471-9.797 1.35a38.658 38.658 0 0 0-9.226 3.85 40.272 40.272 0 0 0-4.207 2.81 41.769 41.769 0 0 0-3.848 3.345 43.253 43.253 0 0 0-6.413 8.066l-4.833-2.743a49.475 49.475 0 0 1 6.5-9.763 48.404 48.404 0 0 1 4.127-4.255 47.301 47.301 0 0 1 4.657-3.722 46.399 46.399 0 0 1 10.638-5.547 47.15 47.15 0 0 1 11.827-2.671l.575 9.28z"/>
        <path fill="#8F8F8F" d="M65.883 61.457A6.343 6.343 0 1 1 54.897 67.8a6.343 6.343 0 0 1 10.986-6.343"/>
        <path fill="#000" d="M103.83 49.267a697.219 697.219 0 0 0-39.59 10.788 4.049 4.049 0 0 0-1.009-.735c-2.014-1.036-4.516-.245-5.588 1.768a4.045 4.045 0 0 0 1.705 5.52c2.014 1.037 4.516.246 5.589-1.767.204-.383.34-.782.416-1.186a698.084 698.084 0 0 0 38.613-13.945c.533-.21.42-.577-.137-.443"/>
    </g>
</svg>
