<svg xmlns="http://www.w3.org/2000/svg" width="40" height="40" viewBox="0 0 40 40">
    <path fill="#FFF" fill-rule="evenodd" d="M11.59 13.182v1.568H6.8v1.643h.798v13.964H6.8v.821H6V32h28.75v-.822h-.8v-.821h-.797V16.393h.798V14.75H29.16v-1.568L20.375 9l-8.785 4.182zm8.785-2.371l4.824 2.296H15.55l4.824-2.296zm4.791 18.724h1.597V16.393h-1.597v13.142zm-3.194 0h1.597V16.393h-1.597v13.142zm-4.791 0h1.597V16.393H17.18v13.142zm-3.195 0h1.597V16.393h-1.597v13.142zm14.375-7.392h3.195v-4.107H28.36v4.107zm-19.167 0h3.194v-4.107H9.194v4.107zm19.167 5.75h3.195v-4.075H28.36v4.075zm-19.167 0h3.194v-4.075H9.194v4.075z"/>
</svg>
