<svg xmlns="http://www.w3.org/2000/svg" xmlns:xlink="http://www.w3.org/1999/xlink" width="23" height="22" viewBox="0 0 23 22">
    <defs>
        <path id="a" d="M11 0C4.925 0 0 4.701 0 10.5S4.925 21 11 21s11-4.701 11-10.5S17.075 0 11 0zm4.465 14.59a1.004 1.004 0 0 1-1.372 0l-3.792-3.62-.001-.002-.032-.032-.015-.016-.016-.018-.018-.022-.01-.013-.02-.025-.008-.012-.017-.025-.009-.013-.015-.024-.008-.015-.013-.024-.009-.017a.88.88 0 0 1-.01-.022l-.009-.02a.48.48 0 0 1-.008-.02l-.01-.023-.006-.018-.008-.024-.005-.016-.008-.028a.986.986 0 0 1-.01-.044l-.003-.016a.98.98 0 0 1-.005-.029c0-.006-.002-.011-.003-.017l-.003-.027c0-.01 0-.016-.002-.024-.002-.007 0-.014-.001-.021v-6.84c0-.512.434-.927.97-.927s.97.415.97.927v6.409l3.506 3.347c.182.174.285.41.285.655a.906.906 0 0 1-.285.655z"/>
    </defs>
    <g fill="none" fill-rule="evenodd" transform="translate(.457 .62)">
        <mask id="b" fill="#fff">
            <use xlink:href="#a"/>
        </mask>
        <g fill="#000" mask="url(#b)">
            <path d="M0 0h22v21H0z"/>
        </g>
    </g>
</svg>
