<svg xmlns="http://www.w3.org/2000/svg" xmlns:xlink="http://www.w3.org/1999/xlink" width="166" height="143" viewBox="0 0 166 143">
    <defs>
        <path id="a" d="M40.554 5.556c-15.82 3.085-27.429 4.478-35.825 28.562C2.861 39.469 1.092 50.042.795 54.453h112.033l27.699.056v-1.518c-1.316-9.552-2.449-15.843-3.398-18.873-7.627-24.34-22.111-25.477-37.93-28.562-4.922-.956-8.118-2.446-10.193-4.241C83.935 3.813 55.321 3.47 51.85.991c-2.489 1.937-6.08 3.55-11.296 4.565z"/>
        <path id="c" d="M1.636 25.419c0 11.784 5.179 14.632 5.179 20.206 0 4.215-1.058 11.506-5.92 15.294 1.852 6.275 9.491 10.98 18.63 10.98 8.992 0 16.506-4.545 18.526-10.654-3.975-3.438-4.113-9.028-4.113-14.131 0-7.929 5.546-11.018 5.546-21.47C39.484 7.06 32.993.217 20.392.217 7.791.217 1.636 9.002 1.636 25.419z"/>
        <path id="e" d="M.081.65c0 1.695 2.098 3.936 4.688 3.936 2.588 0 4.688-2.241 4.688-3.936H.081z"/>
        <path id="g" d="M.713 2.221c0 .941.766 1.701 1.705 1.701.937 0 1.694-.76 1.694-1.701 0-.935-.757-1.694-1.694-1.694-.939 0-1.705.759-1.705 1.694z"/>
        <path id="i" d="M.99 2.221c0 .941.766 1.701 1.705 1.701.936 0 1.694-.76 1.694-1.701 0-.935-.758-1.694-1.694-1.694C1.756.527.99 1.286.99 2.221z"/>
    </defs>
    <g fill="none" fill-rule="evenodd">
        <path fill="#FFF" fill-rule="nonzero" d="M24.84 141.872C9.51 126.85 0 105.916 0 82.759 0 37.052 37.052 0 82.759 0c45.706 0 82.758 37.052 82.758 82.759 0 23.157-9.51 44.092-24.84 59.113H24.84z"/>
        <g transform="translate(12 87.89)">
            <mask id="b" fill="#fff">
                <use xlink:href="#a"/>
            </mask>
            <path fill="#FF8AD4" d="M-4.205 59.51h149.939V-4.009H-4.205z" mask="url(#b)"/>
        </g>
        <g transform="translate(63 27.89)">
            <mask id="d" fill="#fff">
                <use xlink:href="#c"/>
            </mask>
            <path fill="#C19372" d="M-4.105 76.9h48.589V-4.783H-4.105z" mask="url(#d)"/>
        </g>
        <g transform="translate(79 64.89)">
            <mask id="f" fill="#fff">
                <use xlink:href="#e"/>
            </mask>
            <use fill="#000" xlink:href="#e"/>
            <path fill="#482E26" d="M-4.919 9.586h19.376V-4.35H-4.919z" mask="url(#f)"/>
        </g>
        <g transform="translate(90 49.89)">
            <mask id="h" fill="#fff">
                <use xlink:href="#g"/>
            </mask>
            <path fill="#1B181C" d="M-4.287 8.922H9.112V-4.473H-4.287z" mask="url(#h)"/>
        </g>
        <g transform="translate(72 49.89)">
            <mask id="j" fill="#fff">
                <use xlink:href="#i"/>
            </mask>
            <path fill="#1B181C" d="M-4.009 8.922H9.389V-4.473H-4.009z" mask="url(#j)"/>
        </g>
        <path fill="#0D83B2" d="M88.805 25.233c1.81.294 3.315-1.204 5.286-1.79a30.5 30.5 0 0 0-9.886-2.102c1.838 1.35 2.672 3.58 4.6 3.892"/>
        <path fill="#085FBD" d="M72.38 26.408c-3.263 1.432-4.942-.911-8.324 2.058-3.26 2.864-1.062 6.249-2.333 10.067-1.155 3.465-3.968 2.094-4.792 5.67-1.036 4.502 3.012 6.326 3.531 8.85.312 1.488-1.689 3.913.573 7.664 1.502 2.478 5.107 2.707 5.107 2.707-.824-3.512-1.64-9.437.016-11.853 1.962-2.857 3.287-1.712 5.293-4.262 2.825-3.583 1.252-6.14 3.908-8.105 4.118-3.051 5.36.139 9.828-.884 4.468-1.028 4.034-4.45 7.623-4.45 2.568 0 4.181 1.906 4.545 4.833.364 2.932-1.142 5.627-.076 8.562 1.128 3.104 4.237 4.235 4.678 6.198 1.11 4.955-1.202 7.939-1.308 9.569-.006.099 7.126-1.23 7.302-9.237.058-2.556-1.845-4.334-1.91-6.872-.077-3.181 3.868-4.805 2.516-8.782-1.35-3.978-4.508-4.006-6.26-5.28-1.134-.824-.854-3.397-1.507-5.671a28.637 28.637 0 0 0-6.699-3.746c-1.972.585-3.475 2.084-5.286 1.79-1.929-.313-2.763-2.543-4.6-3.892a31.192 31.192 0 0 0-7.301.532c-1.535 1.473-2.382 3.593-4.525 4.534"/>
        <path fill="#085FBD" d="M62.472 62.189c-12.272-10.85-12.959-46.88 19.404-46.88 37.387 0 32.214 38.262 23.401 45.408l-2.98-27.856-9.284-5.672-24.25 3.37-1.75 7.455-6.25 18.296 1.71 5.879z"/>
        <path fill="#FB7900" d="M103.474 42.754c0-4.548-1.695-8.68-4.456-11.683-2.758-3.002-6.607-4.883-10.858-4.882H77.288c-4.251 0-8.1 1.88-10.858 4.882-2.761 3.003-4.456 7.135-4.456 11.683v5.773a5.23 5.23 0 0 0-4.162 5.12v1.54c0 2.69 2.036 4.878 4.646 5.171 1.444 4.944 6.002 8.558 11.413 8.56h2.327v-2H73.87a9.861 9.861 0 0 1-6.998-2.9 9.858 9.858 0 0 1-2.895-6.91v-8.69h-.004v-5.664c0-4.048 1.509-7.698 3.929-10.329 2.422-2.63 5.73-4.235 9.385-4.236H88.16c3.654.001 6.963 1.605 9.385 4.236 2.42 2.631 3.929 6.281 3.929 10.33v8.662h.01v9h.938a5.23 5.23 0 0 0 5.229-5.23v-1.54a5.23 5.23 0 0 0-4.177-5.124v-5.769z"/>
        <path fill="#FB7900" d="M75.976 69.8h-3.38a1.555 1.555 0 0 1-1.556-1.556v-1.473c0-.859.696-1.555 1.555-1.555h3.381c.86 0 1.555.696 1.555 1.555v1.473c0 .86-.696 1.555-1.555 1.555"/>
    </g>
</svg>
