<svg xmlns="http://www.w3.org/2000/svg" xmlns:xlink="http://www.w3.org/1999/xlink" width="32" height="32" viewBox="0 0 32 32">
    <defs>
        <path id="a" d="M.076 15.884c0 8.761 7.102 15.863 15.863 15.863s15.863-7.102 15.863-15.863C31.802 7.124 24.7.021 15.94.021S.076 7.123.076 15.884zM18.47 3.182c.04-.006.08-.008.12-.016.019-.004.05 0 .047-.027a.176.176 0 0 0-.052-.104c-.013-.014-.032-.022-.044-.038-.018-.021-.01-.035.003-.058a.445.445 0 0 0 .054-.105 1.09 1.09 0 0 0 .017-.129c.014-.098.192-.115.261-.13.096-.021.257-.067.29-.175.037-.122-.092-.172-.093-.28 0-.078.129-.082.183-.111.048-.024.093-.014.142-.072 0-.005-.003-.009-.004-.014a14.332 14.332 0 0 1 5.403 2.64c-.416.214-.915.737-.075 1.07.144.058.275-.011.403-.081.18-.099.354-.197.548.062.068.091.14.224.068.331-.046.068-.177.164-.261.106-.107-.072.034-.31-.165-.344a.368.368 0 0 0-.356.167c-.094.149.143.365.045.513-.076.116-.221.109-.363.102a.601.601 0 0 0-.26.021c-.364.16-.68.506-1.068.68-.176.08-.386.064-.574.087-.123.014-.327.03-.396.15-.08.144.366.327.448.384.229.159.336.36.078.56-.163.125-.395.066-.63.006-.23-.058-.465-.117-.642-.001a.249.249 0 0 0-.048.042l.003.003c.312.36.418.855.277 1.31.267-.074.55-.066.813.025l.011-.007c.053-.026.112-.04.158-.08.075-.07.043-.187.072-.274.03-.087.103-.139.167-.204.043-.044.074-.107.126-.143.082-.057.196-.037.286-.077.146-.067.065-.257.195-.344.093-.06.202-.024.3.005.26.08.429-.079.678-.098.025-.002.067-.045.093-.055.082-.034.193-.04.264.02.059.05.078.133.126.19.074.09.194.134.29.196.106.07.175.088.293.12.128.034.238.154.358.214.093.048.241.116.24.242-.003.178-.245.173-.405.168-.037-.001-.07-.002-.094-.001-.045.002-.236.015-.252.062-.024.072.302.187.352.196.142.024.201-.074.297-.16.08-.07.189-.114.249-.205.05-.077-.003-.16.008-.241.01-.069.066-.068.087-.122.037-.102-.187-.19-.25-.215a1.258 1.258 0 0 0-.187-.052c-.04-.008-.127-.005-.16-.027-.122-.08-.137-.21-.254-.304-.421-.206-.074-.481.115-.237.294.013.366.322.69.347.156.201.343.096.455.346.02.324.085.32.373.523.1.07.058.417.267.36.066-.018.144-.1.197-.14.031-.025.104-.061.124-.095.06-.105-.131-.112-.168-.176-.173-.299.248-.387.457-.376.197.01.212.256.251.4a.442.442 0 0 0 .234.31c.071.037.145.045.212.092.046.04.1.07.157.09.133.297.258.6.373.907h-.009c-.229.009-.437.147-.668.072a.967.967 0 0 0-.305-.062c-.198-.003-.336-.093-.52-.141-.143-.037-.305-.122-.452-.131-.187-.012-.353.079-.4.261-.018.075-.025.163-.102.2-.129.06-.278-.062-.401-.086a1.452 1.452 0 0 1-.292-.07.37.37 0 0 1-.114-.075c-.026-.026-.056-.102-.085-.117a1.108 1.108 0 0 0-.473-.115.718.718 0 0 1-.41-.127c-.2-.15.037-.2.003-.374-.006-.026-.068-.097-.063-.115.066-.272-.23-.209-.44-.16-.147.015-.307.004-.468-.006-.27-.017-.541-.034-.753.063a2.086 2.086 0 0 0-.418.06c.04.03.077.064.112.1l1.66 1.66a3.308 3.308 0 0 1 .343 4.26c.01.008.02.018.028.029.146.186 0 .55.012.759.015.328.093.488.28.75.295.417.67.85.581 1.396-.074.462-.53.761-.356 1.267.151.44.466.705.575 1.19.09.399.185.5.387.8.221.33.52 1.752 1.212.985.146-.049.264.019.397.05-2.513 4.204-7.107 7.024-12.349 7.024-7.926 0-14.374-6.448-14.374-14.374 0-.916.087-1.83.26-2.73.182.143.4.129.615.241.05.091.097.083.209.094.216.087.433.22.672.22.303-.076.413-.19.607.057.175.224.621.33.884.38.149.029.29.02.41.122.108.09.168.23.258.336.181.214.369.369.645.437.19.046.39.062.582.108l.386-.385c-.529-.086-.905-.47-1.306-.795-.224-.182-.448-.36-.725-.452.006.002.093-.73-.03-.835-.308-.263-.666.312-.925.415-.63.252-.997-.236-1.052-.838-.13-1.414 2.055-1.734 2.956-1.04.09.069.403.536.513.502.18-.054.052-.615.06-.73.02-.352.043-.504.387-.706.193-.112.325-.287.42-.487.063-.132.093-.252.187-.34a1.368 1.368 0 0 1 1.21-2.01h1.044l-.06-.04-.066-.037a.86.86 0 0 0-.291-.106c-.025-.003-.048 0-.07-.005-.01-.001-.048-.008-.031-.02a.11.11 0 0 1 .04-.006l.06-.01a.816.816 0 0 1 .124-.014c.146-.004.288.035.43.064.07.015.14.027.212.034a.322.322 0 0 0 .112-.004.158.158 0 0 1 .046 0c.027.002.052.005.049-.01-.014-.027-.072-.05-.055-.088.011-.025.05-.037.075-.05a.666.666 0 0 1 .095-.037c.142-.046.281-.1.429-.133a.97.97 0 0 1 .303-.023c.026.003.072.003.093.022.021.019-.005.052-.019.07a.633.633 0 0 0-.06.087.854.854 0 0 0-.098.286v.018h1.068c-.117-.124-.371-.218-.453-.37-.103-.189-.021-.428-.168-.613-.154-.193-.408-.192-.606-.311-.283-.17-.432-.497-.705-.675-.265-.172-.441-.125-.648-.077a1.245 1.245 0 0 1-.402.041c-.268-.021-.417-.221-.62-.37-.454-.331-1.033-.476-1.583-.268-.067.026.19.858.202.905.137.56-.191.204-.406.538-.09.14.091.268.033.385-.248.492-.58-.303-.862-.48-.16-.1-.326-.117-.494-.146a14.511 14.511 0 0 1 1.768-1.584c.079.005.171-.01.263-.025.103-.017.206-.034.288-.023.397.054.746.267 1.122.387.08.025.656.074.609.041-.098-.066-.514-.16-.205-.194.135.03.471.144.531.004.19-.144.28-.14.525-.14.232-.164.456-.285.499-.558-.065-.15.006-.261-.034-.39-.31-.08-.257-.236-.219-.436-.08-.103-.613-.286-.741-.252.398-.185.806-.352 1.223-.5.36.134.744.373.662.686.126.022.27.032.392-.015.028-.01.054-.05.086-.044.033.005.05.064.064.091a.365.365 0 0 1 .021.04l.1-.017a.431.431 0 0 1 .096.003.302.302 0 0 1 .16.065c.016.014.08.056.064.085-.013.02-.06.018-.081.018-.02.001-.048 0-.072.005-.04.006-.082.013-.123.017a.41.41 0 0 1-.109.01c-.055.035.128.042.185.07.047.024.103.03.149.059.075.049-.085.08-.11.091a2.016 2.016 0 0 0-.153.081.634.634 0 0 0-.17.137.29.29 0 0 0-.07.155.379.379 0 0 0 .046.199c.045.087.099.17.159.248l.023.032c.326.397 1.101.966 1.649.904.602-.07.552-.834 1.125-1.049a11.917 11.917 0 0 1 1.767-.49c.166-.04.33-.089.49-.146.226-.07.456-.127.689-.17.039-.009.08-.01.119-.017.012-.002.107-.018.066-.042a.303.303 0 0 0-.096-.024c-.037-.006-.073-.01-.109-.017a.723.723 0 0 1-.198-.046c-.015-.007-.047-.014-.042-.037.004-.023.048-.021.067-.02.079.006.16-.003.24-.003a1.656 1.656 0 0 0 .25-.012zm3.474 2.445a.435.435 0 0 0-.212.15c-.06.095-.007.134.013.223.049.227.158-.007.194.298.083.006.183.006.257.051.022.014.145.178.083.194-.071.018-.178-.01-.216.075-.018.042.008.09-.02.133-.02.031-.086.046-.094.083-.02.093.136.024.149.095.015.08-.218.147-.224.264-.005.097-.01.19.112.16.143-.035.24-.163.373-.22.042-.016.13-.01.16-.03.097-.063.21-.049.324-.034.066.009.132.017.193.01.147-.018.246-.18.22-.326-.012-.075-.04-.068-.115-.078-.155-.021-.185-.077-.254-.204-.078-.14-.262-.211-.366-.33-.042-.047-.088-.116-.072-.183.016-.066.156-.16.03-.215a.231.231 0 0 0-.125-.006.318.318 0 0 1-.09.003c-.096-.015-.028-.104-.093-.142a.105.105 0 0 0-.052-.01.582.582 0 0 0-.175.04z"/>
    </defs>
    <g fill="none" fill-rule="evenodd">
        <g transform="translate(0 .055)">
            <mask id="b" fill="#fff">
                <use xlink:href="#a"/>
            </mask>
            <path fill="#000" d="M-3.89 35.713h39.658V-3.945H-3.89z" mask="url(#b)"/>
        </g>
        <g fill="#000">
            <path d="M22.03 25.801c-7.947 0-14.376-6.44-14.376-14.375 0-.35.242-.648.576-.725l3.222-.744c.35-.08.71.103.856.434l1.487 3.47a.743.743 0 0 1-.214.868l-1.878 1.536a11.482 11.482 0 0 0 5.49 5.49l1.537-1.877a.742.742 0 0 1 .868-.214l3.47 1.487a.749.749 0 0 1 .43.852l-.743 3.222a.743.743 0 0 1-.725.576"/>
            <path d="M14.521 14.082c.921-.93 1.843-1.858 2.765-2.786.416-.416.909-.413 1.324.003.917.92 1.833 1.842 2.746 2.767.03.03.056.064.104.118h-1.75v2.868c0 .356-.15.606-.504.672-.007.002-.013.009-.02.013H16.69a.123.123 0 0 0-.03-.018c-.316-.085-.474-.279-.475-.606-.003-.926-.001-1.853-.001-2.78v-.155h-1.748c.039-.044.061-.072.086-.096"/>
        </g>
    </g>
</svg>
