<?xml version="1.0" encoding="UTF-8"?>
<svg width="166px" height="143px" viewBox="0 0 166 143" version="1.1" xmlns="http://www.w3.org/2000/svg" xmlns:xlink="http://www.w3.org/1999/xlink">
    <!-- Generator: Sketch 52.4 (67378) - http://www.bohemiancoding.com/sketch -->
    <title>Group 30</title>
    <desc>Created with Sketch.</desc>
    <defs>
        <path d="M6.051,0.907 C2.834,0.907 0.223,3.512 0.218,6.73 L0.068,88.019 C0.061,91.241 2.669,93.857 5.891,93.863 L43.618,93.933 C46.84,93.939 49.457,91.332 49.463,88.109 L49.613,6.822 C49.619,3.599 47.013,0.982 43.79,0.977 L6.062,0.907 C6.059,0.907 6.054,0.907 6.051,0.907 Z" id="path-1"></path>
        <polygon id="path-3" points="0.423 65.966 45.151 66.049 45.273 0.706 0.544 0.624"></polygon>
        <path d="M4.963,0.383 C2.336,0.383 0.205,2.511 0.201,5.139 C0.195,7.77 2.325,9.907 4.956,9.912 C7.588,9.917 9.724,7.787 9.73,5.157 C9.734,2.525 7.605,0.388 4.973,0.383 C4.97,0.383 4.967,0.383 4.963,0.383 Z" id="path-5"></path>
        <path d="M0.754,1.051 C0.753,1.589 1.187,2.024 1.724,2.025 C2.261,2.026 2.697,1.591 2.698,1.055 C2.7,0.518 2.265,0.081 1.728,0.08 C1.191,0.079 0.755,0.514 0.754,1.051 Z" id="path-7"></path>
        <path d="M0.663,1.836 C0.661,2.319 1.053,2.712 1.536,2.712 L9.121,2.726 C9.604,2.727 9.996,2.336 9.997,1.853 C9.998,1.37 9.607,0.976 9.124,0.976 L1.54,0.962 C1.057,0.961 0.663,1.352 0.663,1.836 Z" id="path-9"></path>
        <path d="M1.852,0.02 C1.101,0.02 0.492,0.626 0.491,1.378 L0.487,3.128 C0.485,3.88 1.094,4.491 1.846,4.492 C2.598,4.493 3.209,3.884 3.21,3.133 L3.213,1.383 C3.215,0.631 2.606,0.021 1.855,0.02 C1.854,0.02 1.853,0.02 1.852,0.02 Z" id="path-11"></path>
        <path d="M0.478,2.249 L0.474,3.999 C0.473,4.751 1.081,5.362 1.833,5.363 C2.585,5.364 3.196,4.756 3.197,4.004 L3.201,2.254 C3.201,1.502 2.593,0.892 1.842,0.89 C1.089,0.89 0.479,1.497 0.478,2.249 Z" id="path-13"></path>
        <path d="M5,8.375 C5,12.724 8.526,16.25 12.875,16.25 C17.224,16.25 20.75,12.724 20.75,8.375 C20.75,4.025 17.224,0.5 12.875,0.5 C8.526,0.5 5,4.025 5,8.375 Z M12.875,18.5 C10.372,18.5 8.082,17.591 6.314,16.086 C2.878,17.705 0.5,21.2 0.5,25.25 L0.5,34.25 C0.5,36.735 2.514,38.75 5,38.75 L5.004,38.75 L14.675,38.75 L14.675,23 C14.675,21.757 15.682,20.75 16.925,20.75 L24.197,20.75 C23.182,18.71 21.5,17.059 19.435,16.086 C17.669,17.591 15.378,18.5 12.875,18.5 Z M16.923,21.875 C16.303,21.875 15.8,22.379 15.8,23 L15.8,39.875 C15.8,40.496 16.303,41 16.923,41 L26.376,41 C26.997,41 27.5,40.496 27.5,39.875 L27.5,23 C27.5,22.379 26.997,21.875 26.376,21.875 L16.923,21.875 Z M17.6,37.4 L25.7,37.4 L25.7,23.9 L17.6,23.9 L17.6,37.4 Z M20.75,39.2 C20.75,38.703 21.153,38.3 21.65,38.3 C22.147,38.3 22.55,38.703 22.55,39.2 C22.55,39.697 22.147,40.1 21.65,40.1 C21.153,40.1 20.75,39.697 20.75,39.2 Z" id="path-15"></path>
    </defs>
    <g id="PASS-VOYAGE" stroke="none" stroke-width="1" fill="none" fill-rule="evenodd">
        <g id="Desktop-pass-internationaux---j'appelle-depuis-l'étranger-(C)" transform="translate(-634.000000, -1766.000000)">
            <g id="Group-30" transform="translate(634.000000, 1766.000000)">
                <path d="M24.7675,143 C9.4785,127.855 -0.0005,106.791 -0.0005,83.5 C-0.0005,37.384 37.1605,0 82.9995,0 C128.8395,0 165.9995,37.384 165.9995,83.5 C165.9995,106.791 156.5215,127.855 141.2325,143 L24.7675,143 Z" id="Fill-1" fill="#FFFFFF"></path>
                <g id="Group-5" transform="translate(58.000000, 22.000000)">
                    <mask id="mask-2" fill="white">
                        <use xlink:href="#path-1"></use>
                    </mask>
                    <g id="Clip-4"></g>
                    <polygon id="Fill-3" fill="#000000" mask="url(#mask-2)" points="-4.933 98.934 54.613 98.934 54.613 -4.093 -4.933 -4.093"></polygon>
                </g>
                <g id="Group-8" transform="translate(60.000000, 32.000000)">
                    <mask id="mask-4" fill="white">
                        <use xlink:href="#path-3"></use>
                    </mask>
                    <g id="Clip-7"></g>
                    <polygon id="Fill-6" fill="#FFFFFF" mask="url(#mask-4)" points="-4.577 71.048 50.272 71.048 50.272 -4.376 -4.577 -4.376"></polygon>
                </g>
                <g id="Group-11" transform="translate(78.000000, 102.000000)">
                    <mask id="mask-6" fill="white">
                        <use xlink:href="#path-5"></use>
                    </mask>
                    <g id="Clip-10"></g>
                    <polygon id="Fill-9" fill="#FFFFFF" mask="url(#mask-6)" points="-4.8 14.912 14.729 14.912 14.729 -4.617 -4.8 -4.617"></polygon>
                </g>
                <g id="Group-14" transform="translate(81.000000, 25.000000)">
                    <mask id="mask-8" fill="white">
                        <use xlink:href="#path-7"></use>
                    </mask>
                    <g id="Clip-13"></g>
                    <polygon id="Fill-12" fill="#484848" mask="url(#mask-8)" points="-4.246 7.025 7.699 7.025 7.699 -4.92 -4.246 -4.92"></polygon>
                </g>
                <g id="Group-17" transform="translate(77.000000, 28.000000)">
                    <mask id="mask-10" fill="white">
                        <use xlink:href="#path-9"></use>
                    </mask>
                    <g id="Clip-16"></g>
                    <polygon id="Fill-15" fill="#484848" mask="url(#mask-10)" points="-4.337 7.726 14.997 7.726 14.997 -4.038 -4.337 -4.038"></polygon>
                </g>
                <g id="Group-20" transform="translate(57.000000, 35.000000)">
                    <mask id="mask-12" fill="white">
                        <use xlink:href="#path-11"></use>
                    </mask>
                    <g id="Clip-19"></g>
                    <polygon id="Fill-18" fill="#464749" mask="url(#mask-12)" points="-4.512 9.492 8.214 9.492 8.214 -4.981 -4.512 -4.981"></polygon>
                </g>
                <g id="Group-23" transform="translate(57.000000, 41.000000)">
                    <mask id="mask-14" fill="white">
                        <use xlink:href="#path-13"></use>
                    </mask>
                    <g id="Clip-22"></g>
                    <polygon id="Fill-21" fill="#464749" mask="url(#mask-14)" points="-4.525 10.363 8.201 10.363 8.201 -4.11 -4.525 -4.11"></polygon>
                </g>
                <path d="M101.6914,115.7744 C101.6914,115.7744 97.2974,120.5064 94.0864,130.9844 C93.0414,134.9684 92.2164,138.9734 91.6104,143.0004 L61.8054,143.0004 C58.9624,135.0924 56.9914,122.6374 55.8924,105.6344 C55.1524,94.1804 55.3854,95.8324 54.7094,78.4254 C54.0334,61.0184 53.7384,42.9254 55.2594,42.1654 C58.7494,40.4204 64.3844,47.4884 62.4834,76.2284 C62.4834,76.2284 64.3844,99.1994 69.2434,100.2264 C79.0044,102.2894 82.9324,88.5654 86.6504,84.6784 C90.3684,80.7914 97.2974,79.7774 95.4384,85.6924 C93.5794,91.6074 84.2844,100.2264 82.0874,107.8314 C79.8904,115.4364 81.8754,115.5494 81.8754,115.5494 C81.8754,115.5494 101.3534,115.7744 101.5224,115.7744" id="Fill-24" fill="#C19372"></path>
                <g id="Group-29" transform="translate(69.000000, 38.000000)">
                    <mask id="mask-16" fill="white">
                        <use xlink:href="#path-15"></use>
                    </mask>
                    <g id="Clip-27"></g>
                    <polygon id="Fill-26" fill="#000000" mask="url(#mask-16)" points="-4.5 46 32.5 46 32.5 -4.5 -4.5 -4.5"></polygon>
                    <polygon id="Fill-28" fill="#FF7900" mask="url(#mask-16)" points="-18 52 46 52 46 -12 -18 -12"></polygon>
                </g>
            </g>
        </g>
    </g>
</svg>