<svg xmlns="http://www.w3.org/2000/svg" xmlns:xlink="http://www.w3.org/1999/xlink" width="32" height="32" viewBox="0 0 32 32">
    <defs>
        <path id="a" d="M0 0h31.888v31.888H0z"/>
    </defs>
    <g fill="none" fill-rule="evenodd">
        <mask id="b" fill="#fff">
            <use xlink:href="#a"/>
        </mask>
        <path fill="#000" d="M23.504 25.537c-1.48 1.437-6.796.075-12.093-5.214-5.298-5.29-6.722-10.464-5.221-12.08 2.856-2.91 2.765-3.418 5.044-.587 2.28 2.831 2.127 2.657-.128 4.908-.898.897.976 3.167 2.94 5.127s4.234 3.833 5.132 2.936c2.244-2.241 2.08-2.403 4.915-.126 2.693 2.186 2.454 2.018-.589 5.036zm-7.222-12.91V8.745c0-.482.204-.822.682-.91.01-.003.018-.012.027-.018h3.383c.012.01.026.019.04.025.428.115.642.377.643.82.004 1.255.002 2.51.002 3.765v.21h2.367c-.052.06-.083.098-.116.131a5021.761 5021.761 0 0 1-3.745 3.773c-.563.563-1.23.56-1.793-.004a855.57 855.57 0 0 1-3.72-3.749c-.04-.04-.075-.085-.14-.16h2.37zM15.944 0C7.138 0 0 7.138 0 15.944c0 8.806 7.138 15.944 15.944 15.944 8.806 0 15.944-7.138 15.944-15.944C31.888 7.138 24.75 0 15.944 0z" mask="url(#b)"/>
    </g>
</svg>
