<?xml version="1.0" encoding="UTF-8"?>
<svg width="166px" height="143px" viewBox="0 0 166 143" version="1.1" xmlns="http://www.w3.org/2000/svg" xmlns:xlink="http://www.w3.org/1999/xlink">
    <!-- Generator: Sketch 52.4 (67378) - http://www.bohemiancoding.com/sketch -->
    <title>Group 34</title>
    <desc>Created with Sketch.</desc>
    <defs>
        <path d="M1.636,25.309 C1.636,37.093 6.815,39.941 6.815,45.515 C6.815,49.73 5.756,57.021 0.895,60.809 C2.747,67.084 10.386,71.789 19.525,71.789 C28.517,71.789 36.031,67.244 38.051,61.135 C34.076,57.697 33.938,52.107 33.938,47.004 C33.938,39.075 39.484,35.986 39.484,25.534 C39.484,6.95 32.993,0.107 20.392,0.107 C7.791,0.107 1.636,8.892 1.636,25.309 Z" id="path-1"></path>
        <path d="M0.081,0.54 C0.081,2.235 2.179,4.476 4.769,4.476 C7.357,4.476 9.457,2.235 9.457,0.54 L0.081,0.54 Z" id="path-3"></path>
        <path d="M0.713,2.111 C0.713,3.052 1.479,3.812 2.417,3.812 C3.355,3.812 4.112,3.052 4.112,2.111 C4.112,1.176 3.355,0.417 2.417,0.417 C1.479,0.417 0.713,1.176 0.713,2.111 Z" id="path-5"></path>
        <path d="M0.99,2.111 C0.99,3.052 1.756,3.812 2.695,3.812 C3.631,3.812 4.389,3.052 4.389,2.111 C4.389,1.176 3.631,0.417 2.695,0.417 C1.756,0.417 0.99,1.176 0.99,2.111 Z" id="path-7"></path>
        <path d="M4.805,4.233 C6.616,4.528 8.12,3.03 10.091,2.443 C7.041,1.235 3.71,0.497 0.205,0.342 C2.043,1.692 2.877,3.921 4.805,4.233 Z" id="path-9"></path>
        <path d="M20.903,0.874 C19.369,2.347 18.522,4.466 16.379,5.408 C15.024,6.003 13.942,5.946 12.897,5.89 C11.428,5.81 10.032,5.731 8.056,7.465 C4.796,10.33 6.994,13.715 5.723,17.533 C4.568,20.998 1.755,19.627 0.931,23.203 C-0.104,27.704 3.943,29.529 4.462,32.052 C4.774,33.541 2.773,35.966 5.035,39.717 C6.537,42.194 10.142,42.424 10.142,42.424 C9.318,38.911 8.502,32.987 10.158,30.571 C12.12,27.713 13.445,28.859 15.451,26.309 C18.276,22.726 16.703,20.17 19.359,18.204 C21.817,16.383 23.25,16.786 24.957,17.189 C26.109,17.461 27.386,17.732 29.187,17.319 C33.655,16.292 33.221,12.871 36.81,12.871 C39.378,12.871 40.991,14.776 41.355,17.703 C41.719,20.635 40.213,23.33 41.279,26.264 C42.407,29.369 45.516,30.5 45.958,32.463 C47.067,37.417 44.755,40.402 44.649,42.031 C44.643,42.13 51.775,40.803 51.951,32.795 C52.009,30.239 50.106,28.46 50.04,25.922 C49.964,22.742 53.909,21.117 52.557,17.141 C51.206,13.162 48.049,13.134 46.297,11.861 C45.163,11.036 45.443,8.463 44.79,6.19 C42.779,4.672 40.526,3.409 38.091,2.443 C36.119,3.028 34.616,4.528 32.805,4.233 C30.876,3.921 30.042,1.691 28.204,0.342 C27.739,0.322 27.271,0.309 26.801,0.309 C24.777,0.309 22.805,0.507 20.903,0.874 Z" id="path-11"></path>
        <path d="M8.473,47.189 L6.764,41.309 L13.013,23.013 L14.764,15.56 L39.013,12.189 L48.298,17.861 L51.278,45.717 C60.09,38.571 65.264,0.31 27.877,0.31 C-4.486,0.31 -3.8,36.339 8.473,47.189 Z" id="path-13"></path>
        <path d="M31.16,0.189 L20.288,0.189 C16.037,0.188 12.188,2.069 9.429,5.072 C6.669,8.074 4.973,12.206 4.973,16.755 L4.973,22.527 C2.597,23.02 0.812,25.125 0.812,27.646 L0.812,29.187 C0.812,31.876 2.847,34.065 5.457,34.359 C6.902,39.302 11.459,42.917 16.87,42.917 L19.198,42.917 L19.198,40.918 L16.87,40.918 C14.134,40.916 11.667,39.812 9.873,38.018 C8.099,36.243 7.002,33.809 6.977,31.107 L6.977,22.417 L6.974,22.417 L6.974,16.755 C6.974,12.706 8.482,9.056 10.902,6.425 C13.324,3.795 16.634,2.19 20.288,2.189 L31.16,2.189 C34.814,2.19 38.123,3.795 40.545,6.425 C42.965,9.056 44.473,12.706 44.473,16.755 L44.473,25.417 L44.483,25.417 L44.483,34.417 L45.422,34.417 C48.309,34.417 50.651,32.076 50.651,29.187 L50.651,27.646 C50.651,25.119 48.857,23.01 46.474,22.524 L46.474,16.755 C46.474,12.206 44.778,8.074 42.017,5.072 C39.26,2.07 35.412,0.189 31.162,0.189 C31.161,0.189 31.161,0.189 31.16,0.189 Z" id="path-15"></path>
        <path d="M1.595,0.217 C0.736,0.217 0.04,0.912 0.04,1.771 L0.04,3.244 C0.04,4.104 0.736,4.8 1.595,4.8 L4.976,4.8 C5.835,4.8 6.531,4.104 6.531,3.244 L6.531,1.771 C6.531,0.912 5.835,0.217 4.976,0.217 L1.595,0.217 Z" id="path-17"></path>
    </defs>
    <g id="PASS-VOYAGE" stroke="none" stroke-width="1" fill="none" fill-rule="evenodd">
        <g id="Desktop-pass-internationaux---j'appelle-depuis-l'étranger-(C)" transform="translate(-1034.000000, -1766.000000)">
            <g id="Group-34" transform="translate(1034.000000, 1766.000000)">
                <g id="Group-5">
                    <path d="M24.8396,141.8719 C9.5106,126.8509 -0.0004,105.9159 -0.0004,82.7589 C-0.0004,37.0519 37.0526,-0.0001 82.7586,-0.0001 C128.4646,-0.0001 165.5176,37.0519 165.5176,82.7589 C165.5176,105.9159 156.0066,126.8509 140.6776,141.8719 L24.8396,141.8719 Z" id="Fill-1" fill="#FFFFFF"></path>
                    <path d="M16.729,122.008 C14.861,127.359 12.875,138.589 12.578,143 L39.848,143 L124.803,143 L152.527,143 L152.348,140.832 C151.032,131.28 150.078,125.038 149.129,122.008 C141.502,97.668 127.018,96.531 111.199,93.446 C106.277,92.49 103.081,91 101.006,89.205 C95.935,91.703 67.321,91.36 63.85,88.881 C61.361,90.818 57.77,92.431 52.554,93.446 C36.734,96.531 25.125,97.924 16.729,122.008" id="Fill-3" fill="#FF8AD4"></path>
                </g>
                <g id="Group-8" transform="translate(63.000000, 28.000000)">
                    <mask id="mask-2" fill="white">
                        <use xlink:href="#path-1"></use>
                    </mask>
                    <g id="Clip-7"></g>
                    <polygon id="Fill-6" fill="#C19372" mask="url(#mask-2)" points="-9.105 81.79 49.484 81.79 49.484 -9.893 -9.105 -9.893"></polygon>
                </g>
                <g id="Group-12" transform="translate(79.000000, 65.000000)">
                    <mask id="mask-4" fill="white">
                        <use xlink:href="#path-3"></use>
                    </mask>
                    <g id="Clip-10"></g>
                    <polygon id="Fill-9" fill="#000000" mask="url(#mask-4)" points="-4.919 9.476 14.457 9.476 14.457 -4.46 -4.919 -4.46"></polygon>
                    <polygon id="Fill-11" fill="#482E26" mask="url(#mask-4)" points="-9.919 14.476 19.457 14.476 19.457 -9.46 -9.919 -9.46"></polygon>
                </g>
                <g id="Group-15" transform="translate(90.000000, 50.000000)">
                    <mask id="mask-6" fill="white">
                        <use xlink:href="#path-5"></use>
                    </mask>
                    <g id="Clip-14"></g>
                    <polygon id="Fill-13" fill="#1B181C" mask="url(#mask-6)" points="-9.287 13.812 14.112 13.812 14.112 -9.583 -9.287 -9.583"></polygon>
                </g>
                <g id="Group-18" transform="translate(72.000000, 50.000000)">
                    <mask id="mask-8" fill="white">
                        <use xlink:href="#path-7"></use>
                    </mask>
                    <g id="Clip-17"></g>
                    <polygon id="Fill-16" fill="#1B181C" mask="url(#mask-8)" points="-9.009 13.812 14.389 13.812 14.389 -9.583 -9.009 -9.583"></polygon>
                </g>
                <g id="Group-21" transform="translate(84.000000, 21.000000)">
                    <mask id="mask-10" fill="white">
                        <use xlink:href="#path-9"></use>
                    </mask>
                    <g id="Clip-20"></g>
                    <polygon id="Fill-19" fill="#0D83B2" mask="url(#mask-10)" points="-4.795 9.272 15.091 9.272 15.091 -4.658 -4.795 -4.658"></polygon>
                </g>
                <g id="Group-24" transform="translate(56.000000, 21.000000)">
                    <mask id="mask-12" fill="white">
                        <use xlink:href="#path-11"></use>
                    </mask>
                    <g id="Clip-23"></g>
                    <polygon id="Fill-22" fill="#085FBD" mask="url(#mask-12)" points="-4.238 47.424 57.839 47.424 57.839 -4.69 -4.238 -4.69"></polygon>
                </g>
                <g id="Group-27" transform="translate(54.000000, 15.000000)">
                    <mask id="mask-14" fill="white">
                        <use xlink:href="#path-13"></use>
                    </mask>
                    <g id="Clip-26"></g>
                    <polygon id="Fill-25" fill="#085FBD" mask="url(#mask-14)" points="-4.326 52.189 62.619 52.189 62.619 -4.69 -4.326 -4.69"></polygon>
                </g>
                <g id="Group-30" transform="translate(57.000000, 26.000000)">
                    <mask id="mask-16" fill="white">
                        <use xlink:href="#path-15"></use>
                    </mask>
                    <g id="Clip-29"></g>
                    <polygon id="Fill-28" fill="#FB7900" mask="url(#mask-16)" points="-4.188 47.917 55.651 47.917 55.651 -4.811 -4.188 -4.811"></polygon>
                </g>
                <g id="Group-33" transform="translate(71.000000, 65.000000)">
                    <mask id="mask-18" fill="white">
                        <use xlink:href="#path-17"></use>
                    </mask>
                    <g id="Clip-32"></g>
                    <polygon id="Fill-31" fill="#FB7900" mask="url(#mask-18)" points="-4.96 9.799 11.531 9.799 11.531 -4.784 -4.96 -4.784"></polygon>
                </g>
            </g>
        </g>
    </g>
</svg>