<?xml version="1.0" encoding="UTF-8"?>
<svg width="166px" height="141px" viewBox="0 0 166 141" version="1.1" xmlns="http://www.w3.org/2000/svg" xmlns:xlink="http://www.w3.org/1999/xlink">
    <!-- Generator: Sketch 52.4 (67378) - http://www.bohemiancoding.com/sketch -->
    <title>Group 35</title>
    <desc>Created with Sketch.</desc>
    <defs>
        <polygon id="path-1" points="0 0.299869813 138.068803 0.299869813 138.068803 54.0027951 0 54.0027951"></polygon>
        <polygon id="path-3" points="0.0738888956 0.0445020747 51.5308191 0.0445020747 51.5308191 42.8592806 0.0738888956 42.8592806"></polygon>
    </defs>
    <g id="PASS-VOYAGE" stroke="none" stroke-width="1" fill="none" fill-rule="evenodd">
        <g id="Desktop-pass-internationaux---j'appelle-depuis-l'étranger-(C)" transform="translate(-234.000000, -1768.000000)">
            <g id="Group-35" transform="translate(234.000000, 1768.000000)">
                <path d="M23.8034228,140.406639 C9.08437705,125.512729 4.54747351e-13,105.058691 4.54747351e-13,82.4872061 C4.54747351e-13,36.9307801 37.0061734,2.27373675e-13 82.6556017,2.27373675e-13 C128.30503,2.27373675e-13 165.311203,36.9307801 165.311203,82.4872061 C165.311203,105.058691 156.226826,125.512729 141.50778,140.406639 L23.8034228,140.406639 Z" id="Combined-Shape" fill="#FFFFFF" fill-rule="nonzero"></path>
                <g id="Group-15" transform="translate(12.845238, 16.868056)">
                    <g id="Group-3" transform="translate(0.000000, 70.417116)">
                        <mask id="mask-2" fill="white">
                            <use xlink:href="#path-1"></use>
                        </mask>
                        <g id="Clip-2"></g>
                        <path d="M134.711657,33.1972868 C127.174499,9.02672666 112.863272,7.89637396 97.2325074,4.83388952 C92.3691108,3.88377023 89.2112241,2.40481795 87.1618079,0.621768154 C82.1500741,3.10275882 53.8774303,2.76231795 50.4472229,0.299869813 C47.9882187,2.22384284 44.4399318,3.82591753 39.2857647,4.83388952 C23.653524,7.89637396 12.1828453,9.28038849 3.88776526,33.1972868 C2.04203616,38.5108345 0.293722584,49.3343407 0,53.7148283 C0,53.7148283 8.91439351,53.7148283 26.7431805,53.7148283 L110.654498,53.7148283 L138.062374,53.7148283 C136.815018,43.2020482 135.698112,36.3628677 134.711657,33.1972868 Z" id="Fill-1" fill="#FB7900" mask="url(#mask-2)"></path>
                    </g>
                    <path d="M88.6215649,35.6150845 C88.6215649,17.1608159 82.2076378,10.3653491 69.7568998,10.3653491 C57.3054238,10.3653491 51.2243331,19.0892391 51.2243331,35.3918325 C51.2243331,47.0943947 56.3408625,49.9232433 56.3408625,55.4570762 C56.3408625,59.6439798 55.2965975,66.8837256 50.4915027,70.6456343 C52.3224718,76.8766665 59.8699615,81.550126 68.900086,81.550126 C77.7848251,81.550126 85.2098074,77.0361323 87.2046117,70.9690161 C83.2769947,67.555707 83.1412033,62.0048148 83.1412033,56.9360285 C83.1412033,49.0628698 88.6215649,45.9944518 88.6215649,35.6150845" id="Fill-4" fill="#C19372"></path>
                    <path d="M74.7611061,47.5380804 C74.7611061,49.2217422 72.6865981,51.446846 70.1294404,51.446846 C67.5700688,51.446846 65.4970368,49.2217422 65.4970368,47.5380804 L74.7611061,47.5380804 Z" id="Fill-6" fill="#714E46"></path>
                    <path d="M80.3493628,34.2026629 C80.3493628,35.1372064 79.6010344,35.8922583 78.6755868,35.8922583 C77.7479253,35.8922583 76.990741,35.1372064 76.990741,34.2026629 C76.990741,33.2740529 77.7479253,32.5204844 78.6755868,32.5204844 C79.6010344,32.5204844 80.3493628,33.2740529 80.3493628,34.2026629" id="Fill-8" fill="#1B181C"></path>
                    <path d="M62.8370762,34.2026629 C62.8370762,35.1372064 62.0887478,35.8922583 61.1633002,35.8922583 C60.2356387,35.8922583 59.4791924,35.1372064 59.4791924,34.2026629 C59.4791924,33.2740529 60.2356387,32.5204844 61.1633002,32.5204844 C62.0887478,32.5204844 62.8370762,33.2740529 62.8370762,34.2026629" id="Fill-10" fill="#1B181C"></path>
                    <g id="Group-14" transform="translate(42.803794, 0.697199)">
                        <mask id="mask-4" fill="white">
                            <use xlink:href="#path-3"></use>
                        </mask>
                        <g id="Clip-13"></g>
                        <path d="M9.34244458,42.8592806 C8.5276965,39.3718013 7.72106639,33.4878854 9.3579425,31.0892235 C11.2966592,28.2514746 12.6058648,29.3885026 14.5873853,26.8563345 C17.3792258,23.2983937 15.8250053,20.760292 18.4493207,18.8073926 C22.5186331,15.7782848 23.7451832,18.9453491 28.1606159,17.9299601 C32.5745726,16.9086374 32.1457967,13.5116457 35.6926076,13.5116457 C38.2298394,13.5116457 39.8239117,15.4029839 40.1833159,18.3104528 C40.5434582,21.2216302 39.0549194,23.8976883 40.1080403,26.8125742 C41.2224149,29.8950845 43.8792021,31.1619103 44.730112,32.9679528 C46.1308293,35.9421748 45.8776965,38.248124 44.9123972,41.522735 C44.8865673,41.6176727 50.4791043,41.2497889 50.6532715,33.2972682 C50.7100972,30.7591665 48.8296823,28.9931758 48.7654766,26.472875 C48.689463,23.3147111 52.5875602,21.7015109 51.2517866,17.7519518 C49.916751,13.8016509 46.7972401,13.774208 45.0666384,12.5088657 C43.3375127,11.2457484 44.950035,5.84022977 41.3375424,3.78497562 C36.7420385,1.17715405 34.6424386,5.40855965 31.7347327,4.93461255 C28.8255507,4.46066546 28.4528625,-0.465714212 23.1894718,0.087594917 C18.9725602,0.531873963 18.7282833,4.67724222 15.5047149,6.10056691 C12.2811464,7.5231499 10.6228684,5.19643309 7.28048251,8.14469554 C4.05912804,10.9883781 6.23178957,14.3497682 4.97571962,18.1413449 C3.83477712,21.5828387 1.05474452,20.2203335 0.24073444,23.7730825 C-0.782866627,28.2425742 3.2170741,30.0538086 3.72998162,32.5607588 C4.03772614,34.0382277 2.06063367,36.4465316 4.2960249,40.1713553 C5.77939775,42.63232 9.34244458,42.8592806 9.34244458,42.8592806" id="Fill-12" fill="#492191" mask="url(#mask-4)"></path>
                    </g>
                </g>
            </g>
        </g>
    </g>
</svg>