<svg xmlns="http://www.w3.org/2000/svg" width="26" height="35" viewBox="0 0 26 35">
    <g fill="#000" fill-rule="evenodd">
        <path d="M18.984 14.856c-1.666 1.68-3.332 3.359-5 5.037-.751.752-1.643.747-2.393-.005-1.66-1.662-3.315-3.33-4.967-5.005-.053-.053-.1-.115-.187-.213H9.6V9.484c0-.643.272-1.096.911-1.215.013-.003.024-.016.036-.023h4.516a.225.225 0 0 0 .055.033c.571.153.856.503.858 1.094.005 1.676.002 3.351.003 5.027v.28h3.16c-.07.08-.11.132-.156.176M12.787 0C5.736 0 0 5.736 0 12.787a12.66 12.66 0 0 0 3.69 8.983l8.164 11.31c.11.15.287.244.483.248h.007a.597.597 0 0 0 .47-.227l9.076-11.335a12.706 12.706 0 0 0 3.686-8.979C25.574 5.736 19.838 0 12.787 0"/>
        <path d="M21.203 30.714c-.27-.408-.689-.746-1.217-1.043-.53-.296-1.174-.55-1.91-.758a.396.396 0 0 0-.216.761c.92.26 1.665.594 2.151.949.244.177.421.357.53.525.111.17.156.319.157.468a.803.803 0 0 1-.114.4c-.138.247-.43.527-.867.787-.655.392-1.619.739-2.776.98-1.158.242-2.511.382-3.955.381-2.2.001-4.19-.326-5.598-.838-.703-.254-1.259-.557-1.615-.864a1.716 1.716 0 0 1-.385-.447.801.801 0 0 1-.114-.399c0-.123.032-.246.104-.381.108-.202.317-.427.63-.646.31-.218.72-.43 1.206-.618a.396.396 0 0 0-.285-.737c-.71.275-1.297.6-1.728.987a2.406 2.406 0 0 0-.519.638c-.126.233-.2.491-.199.757 0 .278.08.547.216.788.24.423.64.772 1.15 1.078.768.458 1.802.82 3.02 1.075 1.22.254 2.622.398 4.117.398 2.278 0 4.34-.332 5.868-.885.764-.279 1.395-.61 1.86-1.008.232-.2.423-.417.56-.658.135-.241.215-.51.215-.788 0-.323-.107-.632-.286-.902"/>
    </g>
</svg>
