<svg xmlns="http://www.w3.org/2000/svg" xmlns:xlink="http://www.w3.org/1999/xlink" width="42" height="32" viewBox="0 0 42 32">
    <defs>
        <path id="a" d="M0 0H41.09v31.85H0z"/>
    </defs>
    <g fill="none" fill-rule="evenodd">
        <mask id="b" fill="#fff">
            <use xlink:href="#a"/>
        </mask>
        <path fill="#000" d="M25.185 12.325a6840.112 6840.112 0 0 1-5.697 5.74c-.857.858-1.873.852-2.728-.006a1299.987 1299.987 0 0 1-5.66-5.703c-.06-.061-.115-.131-.214-.243h3.607v-5.91c0-.734.31-1.25 1.038-1.386.015-.003.027-.017.041-.026h5.147c.018.016.04.029.061.038.652.175.976.574.978 1.248.007 1.91.003 3.818.004 5.728v.32h3.601c-.08.091-.126.15-.178.2m15.81 16.358c.27-1.529-.075-1.648-.66-2.855-.328-.679-1.116-2.712-2.002-1.178-.385-.29-.315-.746-.51-1.008-.163-.218-.614-.43-.77-.68-.13-.21-.547-1.049-.504-1.272.063-.333.606-.338.696-.65.263-.906-.236-1.35-.32-2.06-.122-1.02.19-1.004-.563-1.812-.439-.47-.886-.659-.844-1.621.021-.475.442-.284.34-.763-.06-.283-.659-.892-.853-1.09-.319-.327-.65-.421-.936-.758-.226-.266-.225-.64-.471-.905-.512-.552-1.96-.5-1.847-1.244-.87.252-.33-.483-.51-.824-.323-.61-.717-.436-.758-1.417-.736.37-.563-.128-.833-.288.183.109-.846-.748-.765-.645-.348-.445-.542-1.127-.757-1.705-.456-1.226-.381-1.562-1.544-1.9-.514-.15-1.512.177-1.83.036-1.407-.622-1.85-3.318-3.516-3.787-.823-.232-1.94.06-2.78.025-.82-.036-1.512-.372-2.096-.259-.11 1.119-2.057.4-2.694.574-.953.26-1.339.857-2.517.76-1.027-.085-1.817-.83-2.672-.04-.664.616-1.088 2.162-1.362 2.659-.433.784-.134 1.71-.451 2.72-.324 1.03-1.456 2.179-2.045 3.06-.596.892-1.16 1.823-1.794 2.686-.476.648-.38.735-1.33 1.08-.505.183-.953.41-1.497.42.391.638.553.218.977.405.513.225.603.027 1.161.552.551.518.861 1.257 1.298 1.897.646.948 1.075 1.484 1.433 2.545.3.889.51 1.718 1.069 2.507 1.055 1.487 3.454.793 5.088.785.576-.003 2.075.287 2.609-.014.229-.13.15-.515.377-.71.168-.146.286-.485.473-.585.362-.194.247.277.67.124.847-.309.983-.633 1.971-.395.991.24.968 1.106 1.668 1.376.32.123.442-.453.647-.39.4.122.574.409.85.577.345.21.555.695 1.078.775.523.08.468-.134 1.016-.276.818-.213 1.252-.46 1.946-.035.882.538.81 1.195-.028 1.619-.656.33-1.776.5-2.316.578-.945.137-1.445-.397-2.268-.77-.75-.34-1.7-.539-2.47-1.018-.902-.562-1.065-1.325-1.826-.228-.256.37.02.912-.561 1.165-.394.172-.903-.263-1.273-.267-.388-.003-.506.17-.897.23-.366.056-.8.006-1.213.078l.036 1.312-4.132-.026c-1.848-.012-2.009-.285-2.265 1.691-.119.92-.528 2.807-.154 3.678.499 1.162 2.125.612 3.025.258 1.26-.496 2.051-.441 3.412-.29 1.61.18 2.322-.82 3.797-1.43 2.218-.918 5.301-.33 7.681-.328 1.549.002 3.11-.061 4.657.004.9.038 3.07-.13 2.353 1.42.178.07.63.134.819.108l.05-.6c.53.113 1.145.549 1.563.766.046.023.952.487.94.484.278.078.461-.31.65-.212.884.463.514.672 1.463.473.64-.134 1.151-.87 1.682-.31.532-.895.674-.021 1.253-.088.597-.07 1.33-.19 1.92-.294.866-.154.74.119.819-.546.021-.183-.386-.945-.379-1.277.007-.311.28-.315.326-.577" mask="url(#b)"/>
    </g>
</svg>
