<svg xmlns="http://www.w3.org/2000/svg" xmlns:xlink="http://www.w3.org/1999/xlink" width="22" height="22" viewBox="0 0 22 22">
    <defs>
        <path id="a" d="M15.16 4.155c.058.003.128.004.179.034.015.009.1.118.057.128-.05.012-.123-.007-.15.05-.012.027.006.06-.013.088-.014.02-.06.03-.066.055-.013.061.095.015.104.063.01.052-.151.097-.155.174-.004.064-.007.126.077.106.1-.023.166-.108.259-.145.029-.011.09-.007.111-.02.106-.067.244-.003.358-.016.103-.012.17-.12.153-.216-.008-.05-.028-.045-.08-.052-.107-.014-.128-.05-.176-.135-.054-.093-.181-.14-.254-.218-.03-.031-.061-.077-.05-.121.011-.044.108-.107.02-.142-.047-.02-.099.005-.148-.003-.066-.01-.02-.068-.065-.094-.036-.02-.123.007-.157.02a.302.302 0 0 0-.147.099c-.042.063-.005.089.009.148.034.15.11-.005.134.197zm-8.546 11.41a.876.876 0 0 1-.203-.862.99.99 0 0 1-.553-.003c-.016.194-.01.387-.044.58-.045.254-.181.48-.279.717-.029.069-.067.157-.052.233.026.12.161.138.09.277-.052.099-.131.189-.196.281-.037.05-.07.107-.07.17 0 .048.031.089.026.135-.008.064-.069.108-.082.17-.016.076.026.171.059.24.138.286.709.76 1.073.655.134-.038.212-.243.2-.362-.016-.164-.117-.077-.236-.116-.219-.075.168-.508.151-.647-.007-.059-.057-.107-.06-.17-.005-.17.343-.461.493-.522.155-.063.267-.173.397-.263a2.157 2.157 0 0 1-.714-.513zM11 0C4.925 0 0 4.701 0 10.5S4.925 21 11 21s11-4.701 11-10.5S17.075 0 11 0zm8.884 7.256a.697.697 0 0 0-.212-.041c-.137-.002-.233-.061-.36-.094-.1-.024-.212-.08-.314-.086-.13-.008-.245.052-.277.173-.013.05-.018.108-.071.132-.09.04-.193-.041-.278-.057a1.043 1.043 0 0 1-.203-.046.257.257 0 0 1-.079-.05c-.018-.017-.038-.068-.059-.077a.798.798 0 0 0-.327-.077.514.514 0 0 1-.285-.084c-.139-.099.026-.132.002-.247-.004-.017-.047-.065-.044-.076.046-.18-.16-.138-.305-.106-.271.025-.612-.065-.846.037a1.514 1.514 0 0 0-.29.04c.027.02.053.043.078.066l1.151 1.1c.79.758.89 1.95.237 2.819a.156.156 0 0 1 .02.019c.101.124 0 .364.008.502.01.217.065.323.194.497.205.276.465.563.404.924-.052.306-.368.504-.248.839.105.291.323.466.4.788.061.263.127.33.267.53.154.218.36 1.159.841.651.101-.032.183.012.275.033-1.742 2.783-4.928 4.65-8.563 4.65-5.496 0-9.968-4.269-9.968-9.515 0-.606.06-1.211.181-1.806.126.094.278.084.426.159.035.06.067.054.145.062.15.057.3.146.466.146.21-.05.286-.127.421.037.121.148.43.218.613.252.103.019.201.013.284.08.075.06.117.153.18.223a.83.83 0 0 0 .447.289c.13.03.27.041.403.072l.268-.255c-.367-.057-.628-.311-.906-.527-.155-.12-.31-.238-.503-.299.004.001.065-.483-.02-.552-.214-.175-.463.206-.642.274-.437.167-.691-.156-.73-.555-.09-.935 1.425-1.147 2.05-.688.063.046.28.355.356.333.124-.037.036-.408.041-.484.015-.233.03-.333.269-.467a.723.723 0 0 0 .292-.323c.043-.087.064-.166.13-.225a.87.87 0 0 1 .025-.89.96.96 0 0 1 .813-.44h.724c-.014-.008-.027-.018-.042-.026l-.046-.025a.616.616 0 0 0-.201-.07c-.017-.002-.033 0-.05-.003-.006-.001-.032-.006-.02-.013a.081.081 0 0 1 .028-.005l.041-.006a.584.584 0 0 1 .086-.01c.101-.002.2.024.298.043.049.01.098.018.147.023a.234.234 0 0 0 .078-.003c.02-.005.07.01.066-.007-.01-.018-.05-.033-.038-.058.007-.017.035-.025.052-.033a.485.485 0 0 1 .065-.025c.1-.03.196-.066.298-.088a.705.705 0 0 1 .21-.015c.018.002.05.002.065.014.014.013-.004.035-.013.047a.548.548 0 0 0-.11.247v.012h.74c-.08-.082-.257-.145-.314-.245-.07-.125-.014-.283-.116-.406-.107-.128-.283-.127-.42-.206-.196-.112-.3-.329-.49-.447-.286-.178-.424 0-.727-.023-.186-.014-.29-.147-.43-.245-.315-.22-.716-.316-1.098-.178-.047.017.132.568.14.6.095.37-.133.135-.281.355-.063.093.063.178.022.255-.172.326-.402-.2-.597-.318-.112-.066-.226-.077-.343-.096.378-.38.788-.731 1.226-1.048.116.006.275-.046.382-.032.276.035.518.177.779.256.054.016.454.05.422.027-.068-.044-.357-.105-.143-.128.094.019.327.095.369.002.132-.095.193-.093.364-.093.161-.108.316-.188.346-.369-.046-.099.004-.173-.024-.258-.215-.053-.178-.156-.151-.289-.056-.068-.426-.19-.515-.166.276-.123.56-.233.849-.331.25.088.516.247.458.454a.55.55 0 0 0 .273-.01c.019-.007.037-.033.06-.03.022.004.033.043.044.06l.014.027.07-.01a.314.314 0 0 1 .066.001c.04.004.08.019.111.043.011.01.055.037.044.056-.008.014-.042.012-.056.013-.014 0-.033 0-.05.003l-.085.011a.298.298 0 0 1-.076.007c-.038.023.089.027.128.046.033.016.072.02.104.039.052.032-.06.052-.076.06a1.324 1.324 0 0 0-.107.054.437.437 0 0 0-.118.09.187.187 0 0 0-.047.103.241.241 0 0 0 .031.132c.032.057.068.112.11.164l.016.02c.226.264.764.64 1.144.6.417-.047.382-.553.78-.695.397-.142.81-.242 1.225-.325.115-.026.229-.058.34-.096a4.33 4.33 0 0 1 .478-.113c.027-.005.055-.007.082-.01.009-.002.074-.012.046-.028a.217.217 0 0 0-.067-.016l-.075-.011a.52.52 0 0 1-.138-.031c-.01-.005-.032-.01-.029-.025.004-.015.034-.014.047-.013.055.004.11-.002.166-.002.058.002.116-.001.173-.008.028-.003.055-.005.083-.01.013-.003.034 0 .033-.018a.114.114 0 0 0-.036-.07c-.01-.008-.022-.013-.03-.024-.014-.014-.007-.023.002-.038a.298.298 0 0 0 .037-.07.728.728 0 0 0 .012-.085c.01-.065.133-.076.18-.087.067-.013.178-.044.202-.115.025-.081-.064-.114-.065-.185 0-.052.09-.055.127-.074.033-.016.064-.01.099-.048l-.003-.009a10.14 10.14 0 0 1 3.746 1.748c-.288.14-.634.487-.051.708.24.092.429-.306.659-.013.047.06.097.148.047.22-.032.044-.123.108-.181.07-.074-.048.024-.206-.114-.228a.26.26 0 0 0-.247.11c-.065.099.1.242.031.34-.088.128-.308.029-.432.081-.253.106-.472.335-.74.45-.123.053-.269.043-.399.058-.085.009-.226.02-.274.1-.056.095.254.215.31.254.159.104.233.238.054.37-.224.164-.634-.151-.881.003a.176.176 0 0 0-.034.028l.002.002a.88.88 0 0 1 .192.867.986.986 0 0 1 .564.017l.008-.005c.037-.017.078-.026.11-.053.051-.046.029-.124.05-.181.02-.058.07-.092.115-.135.03-.03.051-.07.088-.095.056-.037.135-.024.198-.051.101-.044.045-.17.135-.227.064-.04.14-.016.207.003.181.052.298-.052.47-.065.018-.002.047-.03.066-.037.057-.022.134-.026.183.014.04.032.054.088.087.126.051.059.135.088.2.13.075.046.122.057.204.078.089.023.165.102.248.143.065.031.168.076.167.16-.003.144-.257.106-.346.11-.032.001-.163.01-.175.041-.017.047.21.124.244.13.099.016.14-.05.206-.105.056-.047.131-.076.173-.137.035-.05-.002-.106.006-.16.006-.045.045-.044.06-.08.025-.068-.13-.126-.174-.142a.905.905 0 0 0-.13-.035c-.027-.005-.088-.003-.11-.017-.085-.054-.095-.14-.176-.202-.293-.136-.052-.318.08-.157.203.008.253.213.478.23.108.133.238.064.315.23.014.214.059.21.26.345.068.046.04.276.184.239.046-.012.1-.066.137-.094.021-.016.072-.04.086-.062.042-.07-.091-.074-.117-.117-.12-.197.172-.256.317-.249.136.007.147.17.174.265a.33.33 0 0 0 .082.148c.023.023.05.043.08.057.05.025.101.03.148.061a.331.331 0 0 0 .108.06c.093.197.18.397.259.6h-.006c-.159.006-.303.098-.463.048zm-6.209 1.56L10.79 11.57 7.325 14.88c.091.087.512.33 1.122.385.642.078 6.66.054 6.66.054l-2.016-1.924 3.355-3.205c.757-.723.791-1.574.266-2.075l-1.15-1.098-1.887 1.8zm-7.264 5.189l1.885-1.8L11.18 9.45l3.466-3.309c-.092-.087-.51-.33-1.12-.384-.643-.078-6.658-.05-6.658-.05l2.012 1.92-3.356 3.203c-.757.723-.787 1.576-.262 2.078l1.148 1.096z"/>
    </defs>
    <g fill="none" fill-rule="evenodd" transform="translate(-.003 .414)">
        <mask id="b" fill="#fff">
            <use xlink:href="#a"/>
        </mask>
        <g fill="#000" mask="url(#b)">
            <path d="M0 0h22v21H0z"/>
        </g>
    </g>
</svg>
