<svg xmlns="http://www.w3.org/2000/svg" xmlns:xlink="http://www.w3.org/1999/xlink" width="21" height="20" viewBox="0 0 21 20">
    <defs>
        <path id="a" d="M18.125 0H0v13.3c0 1.05.84 1.9 1.875 1.9h2.5V19l3.75-3.8H20V1.9C20 .85 19.16 0 18.125 0zM10 11.4H4.375a.63.63 0 0 1-.625-.633c0-.35.28-.634.625-.634H10a.63.63 0 0 1 .625.634.63.63 0 0 1-.625.633zm5.625-3.167H4.375A.63.63 0 0 1 3.75 7.6c0-.35.28-.633.625-.633h11.25a.63.63 0 0 1 .625.633.63.63 0 0 1-.625.633zm0-3.166H4.375a.63.63 0 0 1-.625-.634c0-.35.28-.633.625-.633h11.25a.63.63 0 0 1 .625.633.63.63 0 0 1-.625.634z"/>
    </defs>
    <g fill="none" fill-rule="evenodd" transform="translate(.455 .632)">
        <mask id="b" fill="#fff">
            <use xlink:href="#a"/>
        </mask>
        <g fill="#000" mask="url(#b)">
            <path d="M0-.5h20v20H0z"/>
        </g>
    </g>
</svg>
