<svg xmlns="http://www.w3.org/2000/svg" xmlns:xlink="http://www.w3.org/1999/xlink" width="134" height="150" viewBox="0 0 134 150">
    <defs>
        <path id="a" d="M0 0h138v150H0z"/>
        <path id="c" d="M.438.136v115.569c43.158 12.251 90.933-6.053 114.605-47.056 12.47-21.598 16.141-45.837 12.117-68.513H.438z"/>
        <path id="e" d="M.438.136V105.24c39.211 12.211 83.227-4.138 104.849-41.587 11.565-20.033 14.697-42.599 10.49-63.517H.438z"/>
        <path id="g" d="M.438.136v99.25c38.412 14.053 82.728-1.4 104.121-38.453 11.072-19.176 14.063-40.78 10.023-60.797H.438z"/>
        <path id="i" d="M58.829 15.88c-1.28 4.942-3.099 9.714-5.527 14.108-2.406 4.404-5.422 8.431-8.935 11.843a43.817 43.817 0 0 1-2.725 2.426l-.708.565c-.24.19-.521.391-.779.585-.524.399-1.06.777-1.597 1.156a65.838 65.838 0 0 1-6.704 4.138 69.374 69.374 0 0 1-3.523 1.769c-1.195.54-2.399 1.074-3.626 1.544a64.818 64.818 0 0 1-3.715 1.327c-.629.19-1.255.403-1.889.573l-.951.27-.956.246a62.423 62.423 0 0 1-15.692 1.934L.541 73.357a77.854 77.854 0 0 0 19.723-.734l1.228-.208 1.221-.235c.817-.15 1.625-.343 2.438-.517a81.96 81.96 0 0 0 4.826-1.273c1.6-.463 3.179-1.002 4.751-1.561a85.372 85.372 0 0 0 4.653-1.859 84.063 84.063 0 0 0 8.957-4.528 70.212 70.212 0 0 0 2.155-1.295c.359-.226.704-.433 1.075-.674l1.117-.737a62.463 62.463 0 0 0 4.282-3.17c5.506-4.46 10.23-9.759 14.11-15.554 3.902-5.79 6.952-12.074 9.257-18.555 2.307-6.485 3.832-13.177 4.719-19.882L61.044.604c-.225 5.196-.934 10.331-2.215 15.276z"/>
        <path id="k" d="M27.013.818A98.896 98.896 0 0 0 .019 4.566v115.57h126.723c4.024-22.675.352-46.915-12.117-68.513C95.828 19.066 61.834.82 27.02.818h-.007z"/>
        <path id="m" d="M26.317.042A88.368 88.368 0 0 0 .019 4.033v105.103h115.34c4.207-20.917 1.076-43.484-10.49-63.516C88.007 16.414 57.525.042 26.322.042h-.005z"/>
        <path id="o" d="M.019 5.886v99.25h114.144c4.04-20.017 1.05-41.62-10.022-60.796C88.016 16.411 58.87.753 29.042.753A84.433 84.433 0 0 0 .019 5.886z"/>
        <path id="q" d="M7.681 2.979C.54 7.102-1.906 16.235 2.219 23.38c4.124 7.143 13.257 9.592 20.398 5.469s9.586-13.257 5.463-20.4C25.312 3.656 20.293.977 15.13.977a14.87 14.87 0 0 0-7.449 2.002z"/>
        <path id="s" d="M.123.915l.961 14.994a62.433 62.433 0 0 1 15.692 1.933l.956.246.95.269c.635.172 1.26.385 1.889.574 1.25.412 2.493.84 3.715 1.327 1.228.47 2.431 1.004 3.627 1.545a66.54 66.54 0 0 1 3.522 1.768 65.906 65.906 0 0 1 6.704 4.138 52.64 52.64 0 0 1 1.598 1.156c.258.194.54.394.779.585l.707.564a43.6 43.6 0 0 1 2.727 2.428c3.511 3.412 6.527 7.438 8.934 11.842 2.428 4.394 4.247 9.166 5.528 14.108 1.28 4.946 1.989 10.08 2.214 15.276l24.009-1.971c-.887-6.705-2.413-13.397-4.719-19.882-2.305-6.481-5.356-12.765-9.257-18.554-3.879-5.796-8.604-11.095-14.11-15.555a63.064 63.064 0 0 0-4.283-3.17l-1.116-.737c-.371-.242-.716-.448-1.076-.674a72.197 72.197 0 0 0-2.154-1.294 84.07 84.07 0 0 0-8.957-4.529 86.486 86.486 0 0 0-4.652-1.859c-1.574-.558-3.152-1.098-4.752-1.561a82.749 82.749 0 0 0-4.826-1.273c-.814-.173-1.621-.368-2.437-.517l-1.223-.235-1.226-.208A77.667 77.667 0 0 0 7.122.601C4.781.601 2.444.707.123.915z"/>
        <path id="u" d="M.019 4.957v13.767a58.689 58.689 0 0 1 3.689-1.129 60.356 60.356 0 0 1 15.376-2.117L18.178.913c-6.22.59-12.34 1.941-18.159 4.044z"/>
        <path id="w" d="M5.806 1.651C1.045 4.4-.585 10.489 2.165 15.251c2.749 4.762 8.838 6.395 13.599 3.646 4.761-2.749 6.391-8.837 3.641-13.6A9.953 9.953 0 0 0 5.806 1.651z"/>
        <path id="y" d="M73.954.173a1093.763 1093.763 0 0 0-62.127 16.923 6.374 6.374 0 0 0-1.584-1.153c-3.161-1.627-7.088-.385-8.77 2.774-1.682 3.158-.484 7.038 2.677 8.666 3.162 1.627 7.088.386 8.77-2.773.32-.602.536-1.229.654-1.861A1096.454 1096.454 0 0 0 74.168.868c.714-.281.69-.74.128-.74-.099 0-.213.013-.342.045z"/>
    </defs>
    <g fill="none" fill-rule="evenodd" transform="translate(-1)">
        <mask id="b" fill="#fff">
            <use xlink:href="#a"/>
        </mask>
        <circle cx="33" cy="84" r="102" fill="#FFB401" fill-rule="nonzero" mask="url(#b)"/>
        <g mask="url(#b)">
            <g transform="translate(-14 95.728)">
                <mask id="d" fill="#fff">
                    <use xlink:href="#c"/>
                </mask>
                <path fill="#8F8F8F" d="M-115.582 57.966L66.343 163l106.06-183.7L-9.522-125.735z" mask="url(#d)"/>
            </g>
            <g transform="translate(-14 95.728)">
                <mask id="f" fill="#fff">
                    <use xlink:href="#e"/>
                </mask>
                <path fill="#595959" d="M-103.012 54.37l163.824 94.583 95.61-165.602-163.824-94.584z" mask="url(#f)"/>
            </g>
            <g transform="translate(-14 95.728)">
                <mask id="h" fill="#fff">
                    <use xlink:href="#g"/>
                </mask>
                <path fill="#FFF" d="M-93.853 52.182l156.928 90.602L154.702-15.92-2.226-106.521z" mask="url(#h)"/>
            </g>
            <g transform="translate(6 118.728)">
                <mask id="j" fill="#fff">
                    <use xlink:href="#i"/>
                </mask>
                <path fill="#FF7900" d="M-12.06 71.855l53.485 30.88L98.203 4.394l-53.486-30.88z" mask="url(#j)"/>
            </g>
            <g transform="translate(-14 8.728)">
                <mask id="l" fill="#fff">
                    <use xlink:href="#k"/>
                </mask>
                <path fill="#8F8F8F" d="M-116 62.307L65.925-42.727l106.06 183.7L-9.94 246.008z" mask="url(#l)"/>
            </g>
            <g transform="translate(-14 19.728)">
                <mask id="n" fill="#fff">
                    <use xlink:href="#m"/>
                </mask>
                <path fill="#595959" d="M-102.43 54.903L61.394-39.681l95.61 165.602L-6.82 220.505z" mask="url(#n)"/>
            </g>
            <g transform="translate(-14 24.728)">
                <mask id="p" fill="#fff">
                    <use xlink:href="#o"/>
                </mask>
                <path fill="#FFF" d="M-94.27 53.09L62.656-37.51l91.627 158.703-156.928 90.602z" mask="url(#p)"/>
            </g>
            <g transform="translate(-1 93.728)">
                <mask id="r" fill="#fff">
                    <use xlink:href="#q"/>
                </mask>
                <path fill="#D6D6D6" d="M-12.08 8.614l34.522-19.93 19.936 34.53-34.521 19.93z" mask="url(#r)"/>
            </g>
            <g transform="translate(6 31.728)">
                <mask id="t" fill="#fff">
                    <use xlink:href="#s"/>
                </mask>
                <path fill="#FF7900" d="M-12.478 2.417l53.485-30.88 56.778 98.341-53.486 30.88z" mask="url(#t)"/>
            </g>
            <g transform="translate(-14 33.728)">
                <mask id="v" fill="#fff">
                    <use xlink:href="#u"/>
                </mask>
                <path fill="#FFB400" d="M-54.083 29.086l70.726-40.834L31.6 14.16l-70.726 40.834z" mask="url(#v)"/>
            </g>
            <g transform="translate(3 100.728)">
                <mask id="x" fill="#fff">
                    <use xlink:href="#w"/>
                </mask>
                <path fill="#8F8F8F" d="M-9.644 4.798l25.901-14.954L31.214 15.75l-25.9 14.954z" mask="url(#x)"/>
            </g>
            <g transform="translate(8 86.728)">
                <mask id="z" fill="#fff">
                    <use xlink:href="#y"/>
                </mask>
                <path fill="#000" d="M-8.476 17.536l74.174-42.824L81.651 2.343 7.477 45.167z" mask="url(#z)"/>
            </g>
        </g>
    </g>
</svg>
