<svg xmlns="http://www.w3.org/2000/svg" xmlns:xlink="http://www.w3.org/1999/xlink" width="153" height="150" viewBox="0 0 153 150">
    <defs>
        <path id="a" d="M0 0h153v150H0z"/>
        <path id="c" d="M.4 47.697l13.61 6.177c-18.179 40.599-.19 88.324 40.24 106.664a80.104 80.104 0 0 0 25.226 6.796h15.707c27.69-2.737 53.2-19.84 65.48-47.119l-13.604-6.173c17.546-39.192 2.134-87.44-40.242-106.665C96.07 2.502 84.814.193 73.74.192 43.103.191 13.836 17.853.4 47.697"/>
        <path id="e" d="M.4 47.697l13.61 6.177c-18.179 40.599-.19 88.324 40.24 106.664a80.104 80.104 0 0 0 25.226 6.796h15.707c27.69-2.737 53.2-19.84 65.48-47.119l-13.604-6.173c17.546-39.192 2.134-87.44-40.242-106.665C96.07 2.502 84.814.193 73.74.192 43.103.191 13.836 17.853.4 47.697"/>
        <path id="g" d="M.4 47.697l13.61 6.177c-18.179 40.599-.19 88.324 40.24 106.664a80.104 80.104 0 0 0 25.226 6.796h15.707c27.69-2.737 53.2-19.84 65.48-47.119l-13.604-6.173c17.546-39.192 2.134-87.44-40.242-106.665C96.07 2.502 84.814.193 73.74.192 43.103.191 13.836 17.853.4 47.697"/>
        <path id="i" d="M.4 47.697l13.61 6.177c-18.179 40.599-.19 88.324 40.24 106.664a80.104 80.104 0 0 0 25.226 6.796h15.707c27.69-2.737 53.2-19.84 65.48-47.119l-13.604-6.173c17.546-39.192 2.134-87.44-40.242-106.665C96.07 2.502 84.814.193 73.74.192 43.103.191 13.836 17.853.4 47.697z"/>
        <path id="k" d="M.4 47.697l13.61 6.177c-18.179 40.599-.19 88.324 40.24 106.664a80.104 80.104 0 0 0 25.226 6.796h15.707c27.69-2.737 53.2-19.84 65.48-47.119l-13.604-6.173c17.546-39.192 2.134-87.44-40.242-106.665C96.07 2.502 84.814.193 73.74.192 43.103.191 13.836 17.853.4 47.697z"/>
        <path id="m" d="M.4 47.697l13.61 6.177c-18.179 40.599-.19 88.324 40.24 106.664a80.104 80.104 0 0 0 25.226 6.796h15.707c27.69-2.737 53.2-19.84 65.48-47.119l-13.604-6.173c17.546-39.192 2.134-87.44-40.242-106.665C96.07 2.502 84.814.193 73.74.192 43.103.191 13.836 17.853.4 47.697z"/>
        <path id="o" d="M.4 47.697l13.61 6.177c-18.179 40.599-.19 88.324 40.24 106.664a80.104 80.104 0 0 0 25.226 6.796h15.707c27.69-2.737 53.2-19.84 65.48-47.119l-13.604-6.173c17.546-39.192 2.134-87.44-40.242-106.665C96.07 2.502 84.814.193 73.74.192 43.103.191 13.836 17.853.4 47.697"/>
        <path id="q" d="M.4 47.697l13.61 6.177c-18.179 40.599-.19 88.324 40.24 106.664a80.104 80.104 0 0 0 25.226 6.796h15.707c27.69-2.737 53.2-19.84 65.48-47.119l-13.604-6.173c17.546-39.192 2.134-87.44-40.242-106.665C96.07 2.502 84.814.193 73.74.192 43.103.191 13.836 17.853.4 47.697"/>
        <path id="s" d="M.4 47.697l13.61 6.177c-18.179 40.599-.19 88.324 40.24 106.664a80.104 80.104 0 0 0 25.226 6.796h15.707c27.69-2.737 53.2-19.84 65.48-47.119l-13.604-6.173c17.546-39.192 2.134-87.44-40.242-106.665C96.07 2.502 84.814.193 73.74.192 43.103.191 13.836 17.853.4 47.697"/>
        <path id="u" d="M.4 47.697l13.61 6.177c-18.179 40.599-.19 88.324 40.24 106.664a80.104 80.104 0 0 0 25.226 6.796h15.707c27.69-2.737 53.2-19.84 65.48-47.119l-13.604-6.173c17.546-39.192 2.134-87.44-40.242-106.665C96.07 2.502 84.814.193 73.74.192 43.103.191 13.836 17.853.4 47.697"/>
        <path id="w" d="M14.01 53.874c-18.179 40.599-.19 88.324 40.24 106.664a80.104 80.104 0 0 0 25.226 6.796h15.707c27.69-2.737 53.2-19.84 65.48-47.119l-13.604-6.173c17.546-39.192 2.134-87.44-40.242-106.665C96.07 2.502 84.814.193 73.74.192 43.103.191 13.836 17.853.4 47.697l13.61 6.177z"/>
    </defs>
    <g fill="none" fill-rule="evenodd">
        <mask id="b" fill="#fff">
            <use xlink:href="#a"/>
        </mask>
        <circle cx="51" cy="84" r="102" fill="#FF8AD4" fill-rule="nonzero" mask="url(#b)"/>
        <g mask="url(#b)">
            <path fill="#FFF" d="M82.09 24.953C41.867 6.763-5.475 24.644-23.65 64.892l13.523 6.117c-18.064 40.215-.188 87.488 39.984 105.655 40.22 18.188 87.56.306 105.734-39.94l-13.516-6.116c17.434-38.82 2.12-86.612-39.986-105.655"/>
            <g transform="translate(-25 17)">
                <mask id="d" fill="#fff">
                    <use xlink:href="#c"/>
                </mask>
                <path fill="#9C9E9F" d="M128.654 90.282h-89.65a2.124 2.124 0 0 1-2.12-2.129c0-1.176.95-2.128 2.12-2.128h89.65c1.172 0 2.12.952 2.12 2.128 0 1.176-.948 2.129-2.12 2.129" mask="url(#d)"/>
                <mask id="f" fill="#fff">
                    <use xlink:href="#e"/>
                </mask>
                <path fill="#D9DADB" d="M132.47 88.437H33.58a1.416 1.416 0 0 1-1.415-1.42c0-.783.633-1.418 1.414-1.418h98.891c.781 0 1.414.635 1.414 1.419s-.633 1.419-1.414 1.419" mask="url(#f)"/>
                <mask id="h" fill="#fff">
                    <use xlink:href="#g"/>
                </mask>
                <path fill="#1A171B" d="M37.53 34.24c.443-1.27 1.08-2.378 1.911-3.323.831-.946 1.852-1.688 3.062-2.226 1.21-.537 2.572-.806 4.087-.806 1.533 0 2.9.269 4.101.806a8.774 8.774 0 0 1 3.049 2.226c.83.945 1.468 2.053 1.911 3.323.444 1.27.666 2.647.666 4.13 0 1.447-.222 2.796-.666 4.048-.443 1.252-1.08 2.341-1.911 3.268a8.79 8.79 0 0 1-3.049 2.184c-1.2.528-2.568.792-4.1.792-1.516 0-2.878-.264-4.088-.792s-2.23-1.256-3.062-2.184c-.831-.927-1.468-2.016-1.912-3.268-.443-1.252-.665-2.6-.665-4.047 0-1.484.222-2.86.665-4.13m3.976 6.564c.195.788.504 1.497.929 2.127.425.63.979 1.137 1.663 1.517.683.38 1.514.57 2.493.57.98 0 1.81-.19 2.494-.57a4.758 4.758 0 0 0 1.663-1.517c.425-.63.734-1.339.928-2.127.194-.788.291-1.6.291-2.434 0-.872-.097-1.715-.29-2.532a6.716 6.716 0 0 0-.93-2.183 4.718 4.718 0 0 0-1.662-1.53c-.684-.38-1.515-.57-2.494-.57-.979 0-1.81.19-2.493.57-.684.38-1.238.89-1.663 1.53a6.727 6.727 0 0 0-.929 2.183c-.193.817-.29 1.66-.29 2.532 0 .834.097 1.646.29 2.434" mask="url(#h)"/>
                <mask id="j" fill="#fff">
                    <use xlink:href="#i"/>
                </mask>
                <path fill="#1A171B" d="M62.052 33.837v2.67h.056c.184-.445.433-.857.748-1.237a4.91 4.91 0 0 1 1.08-.974c.407-.269.841-.477 1.303-.626a4.684 4.684 0 0 1 1.44-.223c.26 0 .546.047.86.14v3.671a7.735 7.735 0 0 0-1.413-.14c-.72 0-1.33.122-1.83.362-.498.242-.9.57-1.204.988a3.97 3.97 0 0 0-.652 1.46 7.969 7.969 0 0 0-.193 1.808v6.482H58.31V33.837h3.741z" mask="url(#j)"/>
                <mask id="l" fill="#fff">
                    <use xlink:href="#k"/>
                </mask>
                <path fill="#1A171B" d="M68.37 38.26c.056-.927.286-1.698.693-2.31a4.727 4.727 0 0 1 1.551-1.473 6.743 6.743 0 0 1 2.12-.793 12.01 12.01 0 0 1 2.37-.237c.72 0 1.45.052 2.189.153a6.695 6.695 0 0 1 2.022.598c.61.297 1.11.71 1.497 1.238.388.529.582 1.229.582 2.1v7.483c0 .649.037 1.27.11 1.863.074.594.204 1.04.389 1.335h-3.99a5.672 5.672 0 0 1-.277-1.39 5.124 5.124 0 0 1-2.217 1.363c-.85.26-1.718.39-2.605.39a7.03 7.03 0 0 1-1.912-.251 4.37 4.37 0 0 1-1.552-.779 3.621 3.621 0 0 1-1.04-1.336c-.249-.537-.373-1.177-.373-1.918 0-.816.143-1.489.43-2.017a3.6 3.6 0 0 1 1.108-1.266 4.98 4.98 0 0 1 1.551-.71 16.718 16.718 0 0 1 1.76-.375c.59-.092 1.173-.167 1.746-.222a10.4 10.4 0 0 0 1.524-.25c.443-.112.794-.274 1.053-.487.258-.213.378-.524.36-.932 0-.427-.07-.765-.208-1.015a1.531 1.531 0 0 0-.554-.584 2.17 2.17 0 0 0-.803-.279 6.563 6.563 0 0 0-.984-.07c-.776 0-1.386.168-1.829.502-.444.333-.703.89-.776 1.668H68.37zm9.09 2.92a1.76 1.76 0 0 1-.625.348c-.249.083-.517.153-.803.208a12.19 12.19 0 0 1-.9.14c-.315.037-.629.083-.942.139-.296.055-.587.13-.874.222a2.584 2.584 0 0 0-.748.376 1.782 1.782 0 0 0-.512.598c-.13.24-.194.547-.194.918 0 .352.064.65.194.89.129.24.304.431.526.57.222.139.48.236.776.292.295.056.6.083.915.083.775 0 1.376-.13 1.8-.39.425-.259.74-.57.943-.931.203-.362.328-.728.374-1.098.046-.371.07-.668.07-.89V41.18z" mask="url(#l)"/>
                <mask id="n" fill="#fff">
                    <use xlink:href="#m"/>
                </mask>
                <path fill="#1A171B" d="M87.628 33.837v2.003h.084c.498-.835 1.145-1.442 1.94-1.822a5.589 5.589 0 0 1 2.438-.57c1.053 0 1.916.143 2.591.43.674.288 1.205.687 1.593 1.197.388.51.66 1.13.818 1.863.156.733.235 1.544.235 2.434v8.846h-3.935v-8.123c0-1.186-.185-2.072-.554-2.656-.37-.584-1.025-.877-1.967-.877-1.072 0-1.848.32-2.328.96-.48.64-.72 1.693-.72 3.157v7.539h-3.936V33.837h3.741z" mask="url(#n)"/>
                <mask id="p" fill="#fff">
                    <use xlink:href="#o"/>
                </mask>
                <path fill="#1A171B" d="M113.301 49.274c-.157.742-.494 1.433-1.01 2.072-.518.64-1.267 1.183-2.246 1.628-.979.445-2.29.667-3.935.667a9.122 9.122 0 0 1-2.147-.264 6.811 6.811 0 0 1-1.995-.82c-.6-.371-1.1-.849-1.496-1.433-.398-.584-.623-1.284-.68-2.1h3.908c.184.741.545 1.256 1.08 1.544.536.287 1.155.43 1.857.43 1.109 0 1.916-.333 2.425-1 .508-.668.753-1.512.734-2.532v-1.891h-.055a3.898 3.898 0 0 1-1.815 1.683 5.865 5.865 0 0 1-2.48.542c-1.072 0-1.995-.19-2.771-.57a5.261 5.261 0 0 1-1.913-1.558c-.498-.658-.863-1.427-1.094-2.308a10.95 10.95 0 0 1-.346-2.796c0-.927.134-1.822.402-2.684a7.01 7.01 0 0 1 1.177-2.28 5.698 5.698 0 0 1 1.926-1.573c.767-.389 1.648-.584 2.646-.584.943 0 1.769.177 2.48.529.712.352 1.307.945 1.788 1.78h.055v-1.919h3.741v13.462c0 .576-.079 1.233-.236 1.975m-5.39-4.784a3.078 3.078 0 0 0 1.054-.89c.277-.37.485-.793.623-1.266.139-.472.208-.968.208-1.488 0-.593-.055-1.154-.166-1.683a4.212 4.212 0 0 0-.554-1.404 2.878 2.878 0 0 0-1.025-.974c-.426-.24-.961-.361-1.608-.361-.554 0-1.03.111-1.427.334a3 3 0 0 0-.998.903c-.267.38-.461.817-.581 1.308a6.477 6.477 0 0 0-.18 1.543c0 .52.05 1.035.152 1.544.101.51.277.97.527 1.377.249.409.577.742.983 1.001.406.26.915.39 1.524.39.554 0 1.043-.111 1.469-.334" mask="url(#p)"/>
                <mask id="r" fill="#fff">
                    <use xlink:href="#q"/>
                </mask>
                <path fill="#1A171B" d="M120.354 44.768c.59.575 1.44.862 2.548.862.795 0 1.479-.198 2.052-.598.571-.398.923-.82 1.052-1.265h3.464c-.554 1.725-1.404 2.958-2.55 3.7-1.145.741-2.53 1.112-4.156 1.112-1.127 0-2.143-.18-3.048-.542a6.331 6.331 0 0 1-2.3-1.544 6.945 6.945 0 0 1-1.455-2.392c-.342-.927-.513-1.948-.513-3.06 0-1.075.176-2.076.527-3.004.351-.927.85-1.729 1.496-2.406a7.033 7.033 0 0 1 2.314-1.6c.896-.389 1.89-.584 2.98-.584 1.218 0 2.28.237 3.186.71a6.36 6.36 0 0 1 2.23 1.905 7.847 7.847 0 0 1 1.262 2.726c.258 1.02.35 2.086.276 3.198h-10.335c.055 1.28.378 2.208.97 2.782m4.447-7.565c-.471-.52-1.187-.78-2.148-.78-.628 0-1.15.108-1.565.32a2.91 2.91 0 0 0-1.524 1.794 4.532 4.532 0 0 0-.18.947h6.4c-.184-1.002-.512-1.762-.983-2.281" mask="url(#r)"/>
                <mask id="t" fill="#fff">
                    <use xlink:href="#s"/>
                </mask>
                <path fill="#EE7F00" d="M50.417 70.782c1.368 0 3.017-2.044 3.017-4.47 0-.104-.006-.2-.009-.302-1.794-.134-4.015-.641-4.65-1.495-.491-.666-.786-.663-1.035-.442-.229.66-.348 1.423-.348 2.24 0 2.425 1.653 4.469 3.025 4.469" mask="url(#t)"/>
                <mask id="v" fill="#fff">
                    <use xlink:href="#u"/>
                </mask>
                <path fill="#EE7F00" d="M45.166 72.815c.715-.111 2.827 3.441 5.078 3.441 2.251 0 4.363-3.552 5.078-3.44 3.295.511 3.502 5.843 3.465 7.315h5.019l-10.36-27.81h-6.248L36.683 80.13H41.7c-.037-1.472.17-6.804 3.465-7.316m1.619.263a.716.716 0 0 1 0-1.43c.393 0 .711.319.711.716a.713.713 0 0 1-.711.714m1.56 1.299a.714.714 0 1 1 0-1.429.714.714 0 0 1 0 1.429m1.875.807a.716.716 0 0 1 0-1.43.716.716 0 0 1 0 1.43m1.879-.807a.714.714 0 0 1-.714-.717.713.713 0 1 1 1.428 0 .716.716 0 0 1-.714.717m1.555-1.3a.713.713 0 0 1-.71-.713c0-.397.318-.717.71-.717.395 0 .713.32.713.717a.713.713 0 0 1-.713.714m-7.838-9.235c.926-3.589 3.304-3.705 4.698-3.705 1.393 0 3.774.116 4.7 3.705.92 3.593 1.848 4.256 1.848 5.492 0 1.188-1.278 1.54-3.966.903-.782.977-1.788 1.564-2.68 1.564-.882 0-1.872-.572-2.654-1.522-2.571.584-3.795.22-3.795-.945 0-1.236.923-1.899 1.849-5.492" mask="url(#v)"/>
                <mask id="x" fill="#fff">
                    <use xlink:href="#w"/>
                </mask>
                <path fill="#EE7F00" d="M65.835 59.102h4.97v-4.11h-4.97v4.11zm0 20.975h4.97V61.913h-4.97v18.164zM82.706 61.421c2.45 0 4.445.628 5.985 1.88 1.54 1.253 2.38 2.922 2.52 5.006h-4.865c-.327-2.084-1.552-3.126-3.675-3.126-1.307 0-2.34.539-3.098 1.616-.759 1.078-1.137 2.507-1.137 4.286 0 1.71.361 3.092 1.085 4.146.723 1.054 1.738 1.58 3.045 1.58 2.263 0 3.581-1.229 3.955-3.688h4.795c-.327 2.413-1.255 4.257-2.782 5.534-1.53 1.276-3.507 1.914-5.933 1.914-2.684 0-4.877-.86-6.58-2.582-1.704-1.722-2.556-3.964-2.556-6.728 0-2.998.84-5.388 2.52-7.168 1.68-1.78 3.92-2.67 6.72-2.67M98.386 54.992v9.45h.105a6.085 6.085 0 0 1 2.275-2.213 6.115 6.115 0 0 1 3.045-.808c2.31 0 3.984.586 5.023 1.757 1.038 1.171 1.557 3.021 1.557 5.55v11.35h-4.97v-10.33c0-1.476-.24-2.576-.717-3.303-.479-.725-1.301-1.089-2.468-1.089-1.33 0-2.305.404-2.923 1.213-.618.808-.927 2.137-.927 3.987v9.521h-4.97V54.992h4.97zM121.801 61.421c5.273.024 7.91 1.746 7.91 5.165v9.626c0 1.781.21 3.07.63 3.865h-5.04a7.306 7.306 0 0 1-.35-1.756c-1.47 1.499-3.5 2.248-6.09 2.248-1.89 0-3.39-.48-4.498-1.44s-1.662-2.296-1.662-4.006c0-1.662.525-2.95 1.575-3.864 1.073-.96 3.022-1.57 5.845-1.827 2.007-.211 3.279-.475 3.815-.79.537-.317.805-.803.805-1.46 0-.819-.245-1.427-.735-1.826-.49-.398-1.307-.597-2.45-.597-1.05 0-1.844.217-2.38.65-.537.434-.852 1.13-.945 2.09h-4.97c.116-1.99.933-3.5 2.45-4.532 1.517-1.03 3.547-1.546 6.09-1.546m-4.13 13.492c0 1.546 1.015 2.319 3.045 2.319 2.66-.024 4.002-1.394 4.025-4.111v-1.932c-.397.398-1.4.69-3.01.878-1.4.164-2.427.451-3.08.86-.653.41-.98 1.072-.98 1.986" mask="url(#x)"/>
                <path fill="#6D463F" d="M25.662 130.558c7.667.072 16.893.079 27.373-1.905a140.89 140.89 0 0 0 23.308-6.529l-4.283-9.305a99.465 99.465 0 0 1-20.244 4.953 99.488 99.488 0 0 1-24.528.272 117.398 117.398 0 0 0-1.626 12.514" mask="url(#x)"/>
                <path fill="#5D332E" d="M79.864 101.596s6.36-.257 9.153-3.917c2.793-3.66 7.1-8.563 11.55-7.362 0 0 3.064.692 1.106 1.76-1.958 1.069-9.317 5.846-11.366 8.955-2.05 3.11-10.443.564-10.443.564" mask="url(#x)"/>
                <path fill="#5D332E" d="M75.924 108.753s5.748-2.742 6.886-7.21c1.137-4.467 5.396-10.393 7.743-11.322 0 0 3.09-.571 1.707 1.183-1.383 1.754-6.284 9.047-6.952 12.715-.669 3.667-9.384 4.634-9.384 4.634" mask="url(#x)"/>
                <path fill="#6D463F" d="M102.985 90.323c-5.944 1.275-7.032 4.552-17.476 10.088-4.24 2.248-12.485-.5-13.95-4.978-1.522-4.651-9.12-7.142-9.855-3.025 0 0 7.154 2.505 7.154 8.075 0 4.256 3.29 7.375 3.079 11.029-.102 1.765-5.159 2.89-5.86 3.244.224 1.608 1.567 2.695 2.407 4.92.75 1.989-1.039 3.938-.236 5.21 3.548-.935 11.26-3.17 15.23-7.573 4.245-4.707 5.563-7.952 7.618-13.782.336-.954 6.782-8.656 15.74-10.84 0 0-.69-3.047-3.851-2.368" mask="url(#x)"/>
                <path fill="#EE7F00" d="M56.93 134.334c.748-2.005 1.322-4.434 1.493-6.569.096-1.192-.096-2.142-.126-3.341-.027-1.106-.16-2.226-.44-3.294-1.09-4.149-1.745-4.814-1.787-4.967a.818.818 0 0 0-.234.035c-1.81.582-3.404.781-5.42 1.041-18.47 2.383-65.66-5.904-81.061-8.13-.3 2.608-3.91 18.393-4.066 20.778 6.776 6.186 80.456 8.286 88.888 9.84 1.059-1.685 1.953-3.248 2.753-5.393" mask="url(#x)"/>
                <path fill="#FFE800" d="M57.001 118.575c.668-.23 1.014-.998.73-1.7-.285-.702-1.068-1.013-1.706-.71.445.944.64 1.428.976 2.41" mask="url(#x)"/>
                <path fill="#FFE800" d="M57.68 120.96c.687-.158 1.113-.883.905-1.609-.209-.725-.954-1.115-1.62-.881.341.981.484 1.48.714 2.49" mask="url(#x)"/>
                <path fill="#FFE800" d="M58.102 123.4c.701-.084 1.2-.76 1.07-1.503-.131-.742-.83-1.206-1.518-1.045.235 1.01.325 1.52.448 2.549" mask="url(#x)"/>
                <path fill="#FFE800" d="M58.267 125.875c.705-.01 1.273-.63 1.221-1.384-.052-.753-.7-1.289-1.4-1.2.128 1.027.165 1.546.179 2.584" mask="url(#x)"/>
                <path fill="#FFE800" d="M58.17 128.365c.701.065 1.332-.497 1.36-1.254.028-.757-.56-1.36-1.265-1.347.02 1.038 0 1.56-.096 2.6" mask="url(#x)"/>
                <path fill="#FFE800" d="M57.828 130.745c.692.136 1.375-.355 1.479-1.106.103-.75-.42-1.414-1.123-1.471a19.666 19.666 0 0 1-.356 2.577" mask="url(#x)"/>
                <path fill="#FFE800" d="M57.226 133.15c.674.209 1.404-.205 1.586-.938.18-.732-.27-1.444-.964-1.576a19.587 19.587 0 0 1-.622 2.514" mask="url(#x)"/>
                <path fill="#F4B5D0" d="M65.19 94.29s.936-.852.43-1.32c-.504-.469-3.73-1.756-3.73-1.756s-1.631-.117-.699 1.131l4 1.945zM103.377 93.798s-1.169-.806-.597-1.3c.573-.494 3.538-1.635 4.058-1.3.52.336.64.857.346 1.249-.294.392-3.807 1.35-3.807 1.35" mask="url(#x)"/>
                <path fill="#FBE5EF" d="M103.377 93.513s3.033-.727 3.597-1.293c0 0-2.763.58-3.597 1.293M64.973 93.762l-3.528-1.818s2.028.217 3.528 1.818" mask="url(#x)"/>
            </g>
        </g>
    </g>
</svg>
