<svg xmlns="http://www.w3.org/2000/svg" xmlns:xlink="http://www.w3.org/1999/xlink" width="103" height="150" viewBox="0 0 103 150">
    <defs>
        <path id="a" d="M0 0h107v150H0z"/>
        <path id="c" d="M.322.097v82.232c31.712 8.717 66.817-4.307 84.21-33.483C93.697 33.48 96.394 16.232 93.437.096H.322z"/>
        <path id="e" d="M.322.097v74.785c28.812 8.689 61.155-2.944 77.042-29.59 8.498-14.255 10.8-30.311 7.708-45.195H.322z"/>
        <path id="g" d="M.322.097v70.62c28.225 10 60.788-.996 76.507-27.36C84.965 29.711 87.163 14.34 84.194.096H.322z"/>
        <path id="i" d="M43.227 11.3c-.94 3.516-2.277 6.911-4.061 10.038-1.768 3.133-3.984 5.999-6.565 8.426a31.885 31.885 0 0 1-2.003 1.727l-.52.402c-.176.135-.383.278-.572.416-.385.284-.78.553-1.174.822a48.675 48.675 0 0 1-4.926 2.945c-.848.448-1.715.857-2.589 1.258a50.34 50.34 0 0 1-2.664 1.099c-.898.347-1.811.651-2.73.944-.462.135-.922.287-1.388.408l-.698.192-.703.175a47.29 47.29 0 0 1-11.53 1.376L.398 52.196c4.8.419 9.685.252 14.492-.522l.902-.148.897-.167c.6-.107 1.194-.244 1.792-.368a62.73 62.73 0 0 0 7.037-2.017 63.949 63.949 0 0 0 11.584-5.466c.264-.16.517-.308.79-.48l.82-.524a45.838 45.838 0 0 0 3.147-2.255c4.046-3.174 7.517-6.944 10.368-11.067 2.867-4.12 5.108-8.591 6.802-13.203 1.695-4.614 2.816-9.376 3.467-14.147L44.855.43c-.166 3.697-.687 7.35-1.628 10.87z"/>
        <path id="k" d="M.322 10.186a55.948 55.948 0 0 0 13.343 2.878L14.33 2.7A45.713 45.713 0 0 1 .322.39v9.795z"/>
        <path id="m" d="M19.849.582A74.89 74.89 0 0 0 .014 3.249V85.48h93.115c2.957-16.134.259-33.381-8.903-48.75C70.414 13.567 45.436.584 19.854.583h-.005z"/>
        <path id="o" d="M19.338.03C12.867.03 6.355.957.014 2.87v74.784h84.751c3.091-14.883.79-30.94-7.708-45.194C64.667 11.68 42.27.03 19.341.03h-.003z"/>
        <path id="q" d="M.014 4.188v70.62h83.872c2.969-14.243.772-29.614-7.364-43.258C64.674 11.677 43.257.536 21.34.536A63.86 63.86 0 0 0 .014 4.188z"/>
        <path id="s" d="M5.644 2.12C.397 5.053-1.401 11.552 1.631 16.636c3.03 5.082 9.74 6.825 14.988 3.891 5.247-2.934 7.044-9.433 4.014-14.515-2.034-3.41-5.722-5.317-9.516-5.317-1.86 0-3.746.46-5.473 1.425z"/>
        <path id="u" d="M.09.651L.797 11.32a47.297 47.297 0 0 1 11.53 1.375l.702.175.698.192c.467.122.926.274 1.388.408a49.777 49.777 0 0 1 5.395 2.044c.874.4 1.741.809 2.588 1.258 1.7.887 3.347 1.866 4.926 2.944.395.269.79.539 1.175.823.19.138.396.28.572.416l.52.401c.686.55 1.36 1.117 2.003 1.728 2.58 2.428 4.796 5.292 6.565 8.426 1.784 3.126 3.12 6.522 4.062 10.038.94 3.52 1.461 7.172 1.627 10.87l17.641-1.403c-.651-4.77-1.773-9.532-3.467-14.147-1.694-4.611-3.936-9.082-6.802-13.202-2.85-4.124-6.322-7.894-10.368-11.068a46.279 46.279 0 0 0-3.147-2.255l-.82-.524c-.273-.173-.526-.32-.79-.48-.521-.318-1.052-.62-1.584-.92a62.582 62.582 0 0 0-6.581-3.223 64.784 64.784 0 0 0-3.418-1.323 63.758 63.758 0 0 0-7.038-2.017c-.598-.123-1.191-.261-1.791-.367l-.899-.168-.9-.148A58.892 58.892 0 0 0 .09.651z"/>
        <path id="w" d="M.014 3.527v9.796a45.708 45.708 0 0 1 14.009-2.31L13.357.65A55.935 55.935 0 0 0 .014 3.527z"/>
        <path id="y" d="M4.266 1.175C.768 3.13-.43 7.463 1.591 10.852c2.02 3.388 6.494 4.55 9.992 2.594 3.499-1.956 4.696-6.288 2.676-9.677C12.903 1.496 10.444.225 7.915.225a7.47 7.47 0 0 0-3.649.95z"/>
        <path id="A" d="M54.341.123a824.597 824.597 0 0 0-45.65 12.041 4.68 4.68 0 0 0-1.165-.82c-2.322-1.158-5.208-.274-6.444 1.974-1.236 2.247-.355 5.008 1.967 6.166 2.324 1.158 5.209.275 6.445-1.973.235-.428.393-.875.48-1.324A823.039 823.039 0 0 0 54.498.617c.525-.2.507-.526.094-.526-.072 0-.156.01-.251.032z"/>
    </defs>
    <g fill="none" fill-rule="evenodd">
        <mask id="b" fill="#fff">
            <use xlink:href="#a"/>
        </mask>
        <circle cx="1" cy="67" r="102" fill="#FFB401" fill-rule="nonzero" mask="url(#b)"/>
        <g mask="url(#b)">
            <g transform="translate(-1 68.422)">
                <mask id="d" fill="#fff">
                    <use xlink:href="#c"/>
                </mask>
                <path fill="#8F8F8F" d="M-84.929 41.245L48.75 115.98 126.68-14.73-6.997-89.465z" mask="url(#d)"/>
            </g>
            <g transform="translate(-1 68.422)">
                <mask id="f" fill="#fff">
                    <use xlink:href="#e"/>
                </mask>
                <path fill="#595959" d="M-75.692 38.686l120.376 67.3 70.254-117.832-120.377-67.3z" mask="url(#f)"/>
            </g>
            <g transform="translate(-1 68.422)">
                <mask id="h" fill="#fff">
                    <use xlink:href="#g"/>
                </mask>
                <path fill="#FFF" d="M-68.962 37.13l115.31 64.466 67.326-112.923-115.31-64.467z" mask="url(#h)"/>
            </g>
            <g transform="translate(13.696 84.787)">
                <mask id="j" fill="#fff">
                    <use xlink:href="#i"/>
                </mask>
                <path fill="#FF7900" d="M-8.862 51.128l39.3 21.972 41.72-69.974-39.3-21.972z" mask="url(#j)"/>
            </g>
            <g transform="translate(-1 122.499)">
                <mask id="l" fill="#fff">
                    <use xlink:href="#k"/>
                </mask>
                <path fill="#FFB400" d="M-39.433-6.983l51.97 29.055 10.99-18.434-51.97-29.055z" mask="url(#l)"/>
            </g>
            <g transform="translate(-1 6.518)">
                <mask id="n" fill="#fff">
                    <use xlink:href="#m"/>
                </mask>
                <path fill="#8F8F8F" d="M-85.236 44.334L48.44-30.402l77.933 130.71-133.678 74.736z" mask="url(#n)"/>
            </g>
            <g transform="translate(-1 14.345)">
                <mask id="p" fill="#fff">
                    <use xlink:href="#o"/>
                </mask>
                <path fill="#595959" d="M-75.265 39.065l120.377-67.3 70.254 117.832-120.377 67.3z" mask="url(#p)"/>
            </g>
            <g transform="translate(-1 17.903)">
                <mask id="r" fill="#fff">
                    <use xlink:href="#q"/>
                </mask>
                <path fill="#FFF" d="M-69.27 37.776L46.04-26.691l67.327 112.923L-1.943 150.7z" mask="url(#r)"/>
            </g>
            <g transform="translate(8.552 66.999)">
                <mask id="t" fill="#fff">
                    <use xlink:href="#s"/>
                </mask>
                <path fill="#D6D6D6" d="M-8.876 6.13L16.49-8.052l14.649 24.57L5.773 30.698z" mask="url(#t)"/>
            </g>
            <g transform="translate(13.696 22.883)">
                <mask id="v" fill="#fff">
                    <use xlink:href="#u"/>
                </mask>
                <path fill="#FF7900" d="M-9.169 1.72l39.3-21.972 41.72 69.973-39.3 21.972z" mask="url(#v)"/>
            </g>
            <g transform="translate(-1 24.306)">
                <mask id="x" fill="#fff">
                    <use xlink:href="#w"/>
                </mask>
                <path fill="#FFB400" d="M-39.74 20.696L12.23-8.36l10.99 18.434-51.97 29.055z" mask="url(#x)"/>
            </g>
            <g transform="translate(11.492 71.98)">
                <mask id="z" fill="#fff">
                    <use xlink:href="#y"/>
                </mask>
                <path fill="#8F8F8F" d="M-7.086 3.414l19.032-10.64 10.99 18.433-19.032 10.64z" mask="url(#z)"/>
            </g>
            <g transform="translate(15.165 62.018)">
                <mask id="B" fill="#fff">
                    <use xlink:href="#A"/>
                </mask>
                <path fill="#000" d="M-6.228 12.478l54.503-30.471 11.722 19.66L5.494 32.138z" mask="url(#B)"/>
            </g>
        </g>
    </g>
</svg>
