<svg xmlns="http://www.w3.org/2000/svg" xmlns:xlink="http://www.w3.org/1999/xlink" width="112" height="150" viewBox="0 0 112 150">
    <defs>
        <path id="a" d="M0 0h113v150H0z"/>
        <path id="c" d="M.32 38.269l10.921 4.956c-14.586 32.573-.152 70.864 32.285 85.579a64.27 64.27 0 0 0 20.24 5.452h12.602c22.217-2.196 42.683-15.917 52.536-37.804l-10.915-4.953c14.078-31.445 1.713-70.155-32.287-85.58C77.08 2.007 68.048.155 59.163.154 34.583.154 11.101 14.324.32 38.27"/>
        <path id="e" d="M.32 38.269l10.921 4.956c-14.586 32.573-.152 70.864 32.285 85.579a64.27 64.27 0 0 0 20.24 5.452h12.602c22.217-2.196 42.683-15.917 52.536-37.804l-10.915-4.953c14.078-31.445 1.713-70.155-32.287-85.58C77.08 2.007 68.048.155 59.163.154 34.583.154 11.101 14.324.32 38.27"/>
        <path id="g" d="M.32 38.269l10.921 4.956c-14.586 32.573-.152 70.864 32.285 85.579a64.27 64.27 0 0 0 20.24 5.452h12.602c22.217-2.196 42.683-15.917 52.536-37.804l-10.915-4.953c14.078-31.445 1.713-70.155-32.287-85.58C77.08 2.007 68.048.155 59.163.154 34.583.154 11.101 14.324.32 38.27"/>
        <path id="i" d="M.32 38.269l10.921 4.956c-14.586 32.573-.152 70.864 32.285 85.579a64.27 64.27 0 0 0 20.24 5.452h12.602c22.217-2.196 42.683-15.917 52.536-37.804l-10.915-4.953c14.078-31.445 1.713-70.155-32.287-85.58C77.08 2.007 68.048.155 59.163.154 34.583.154 11.101 14.324.32 38.27z"/>
        <path id="k" d="M.32 38.269l10.921 4.956c-14.586 32.573-.152 70.864 32.285 85.579a64.27 64.27 0 0 0 20.24 5.452h12.602c22.217-2.196 42.683-15.917 52.536-37.804l-10.915-4.953c14.078-31.445 1.713-70.155-32.287-85.58C77.08 2.007 68.048.155 59.163.154 34.583.154 11.101 14.324.32 38.27z"/>
        <path id="m" d="M.32 38.269l10.921 4.956c-14.586 32.573-.152 70.864 32.285 85.579a64.27 64.27 0 0 0 20.24 5.452h12.602c22.217-2.196 42.683-15.917 52.536-37.804l-10.915-4.953c14.078-31.445 1.713-70.155-32.287-85.58C77.08 2.007 68.048.155 59.163.154 34.583.154 11.101 14.324.32 38.27z"/>
        <path id="o" d="M.32 38.269l10.921 4.956c-14.586 32.573-.152 70.864 32.285 85.579a64.27 64.27 0 0 0 20.24 5.452h12.602c22.217-2.196 42.683-15.917 52.536-37.804l-10.915-4.953c14.078-31.445 1.713-70.155-32.287-85.58C77.08 2.007 68.048.155 59.163.154 34.583.154 11.101 14.324.32 38.27"/>
        <path id="q" d="M.32 38.269l10.921 4.956c-14.586 32.573-.152 70.864 32.285 85.579a64.27 64.27 0 0 0 20.24 5.452h12.602c22.217-2.196 42.683-15.917 52.536-37.804l-10.915-4.953c14.078-31.445 1.713-70.155-32.287-85.58C77.08 2.007 68.048.155 59.163.154 34.583.154 11.101 14.324.32 38.27"/>
        <path id="s" d="M.32 38.269l10.921 4.956c-14.586 32.573-.152 70.864 32.285 85.579a64.27 64.27 0 0 0 20.24 5.452h12.602c22.217-2.196 42.683-15.917 52.536-37.804l-10.915-4.953c14.078-31.445 1.713-70.155-32.287-85.58C77.08 2.007 68.048.155 59.163.154 34.583.154 11.101 14.324.32 38.27"/>
        <path id="u" d="M.32 38.269l10.921 4.956c-14.586 32.573-.152 70.864 32.285 85.579a64.27 64.27 0 0 0 20.24 5.452h12.602c22.217-2.196 42.683-15.917 52.536-37.804l-10.915-4.953c14.078-31.445 1.713-70.155-32.287-85.58C77.08 2.007 68.048.155 59.163.154 34.583.154 11.101 14.324.32 38.27"/>
        <path id="w" d="M11.241 43.225c-14.586 32.573-.152 70.864 32.285 85.579a64.27 64.27 0 0 0 20.24 5.452h12.602c22.217-2.196 42.683-15.917 52.536-37.804l-10.915-4.953c14.078-31.445 1.713-70.155-32.287-85.58C77.08 2.007 68.048.155 59.163.154 34.583.154 11.101 14.324.32 38.27l10.921 4.956z"/>
    </defs>
    <g fill="none" fill-rule="evenodd">
        <mask id="b" fill="#fff">
            <use xlink:href="#a"/>
        </mask>
        <circle cx="10" cy="84" r="102" fill="#FF8AD4" fill-rule="nonzero" mask="url(#b)"/>
        <g mask="url(#b)">
            <path fill="#FFF" d="M64.92 14.59C32.65-.004-5.334 14.342-19.917 46.634l10.85 4.908c-14.493 32.265-.151 70.194 32.08 84.77 32.27 14.593 70.252.245 84.834-32.046L97.002 99.36c13.988-31.147 1.701-69.491-32.082-84.77"/>
            <g transform="translate(-21 8.21)">
                <mask id="d" fill="#fff">
                    <use xlink:href="#c"/>
                </mask>
                <path fill="#9C9E9F" d="M103.223 72.435H31.294c-.94 0-1.701-.764-1.701-1.707 0-.944.761-1.708 1.701-1.708h71.929c.94 0 1.7.764 1.7 1.708 0 .943-.76 1.707-1.7 1.707" mask="url(#d)"/>
                <mask id="f" fill="#fff">
                    <use xlink:href="#e"/>
                </mask>
                <path fill="#D9DADB" d="M106.284 70.955H26.941c-.626 0-1.134-.51-1.134-1.138 0-.63.508-1.14 1.134-1.14h79.343c.627 0 1.135.51 1.135 1.14 0 .629-.508 1.138-1.135 1.138" mask="url(#f)"/>
                <mask id="h" fill="#fff">
                    <use xlink:href="#g"/>
                </mask>
                <path fill="#1A171B" d="M30.11 27.472a7.966 7.966 0 0 1 1.535-2.667A7.008 7.008 0 0 1 34.1 23.02c.971-.432 2.064-.647 3.28-.647 1.23 0 2.326.215 3.29.647a7.04 7.04 0 0 1 2.446 1.785 7.972 7.972 0 0 1 1.534 2.667c.355 1.02.533 2.123.533 3.314 0 1.16-.178 2.243-.533 3.247a7.767 7.767 0 0 1-1.534 2.622 7.052 7.052 0 0 1-2.446 1.752c-.964.424-2.06.636-3.29.636-1.216 0-2.309-.212-3.28-.636a7.021 7.021 0 0 1-2.456-1.752 7.761 7.761 0 0 1-1.534-2.622c-.356-1.004-.534-2.087-.534-3.247 0-1.19.178-2.295.534-3.314m3.19 5.267c.156.632.404 1.201.745 1.707.34.506.785.912 1.334 1.216.548.305 1.215.458 2 .458.786 0 1.453-.153 2.002-.458.548-.304.993-.71 1.333-1.216.341-.506.59-1.075.745-1.707a8.15 8.15 0 0 0 .234-1.953c0-.7-.078-1.376-.234-2.031a5.388 5.388 0 0 0-.745-1.752 3.785 3.785 0 0 0-1.333-1.227c-.55-.305-1.216-.458-2.001-.458-.786 0-1.453.153-2.001.458a3.783 3.783 0 0 0-1.334 1.227 5.397 5.397 0 0 0-.745 1.752 8.765 8.765 0 0 0-.233 2.03c0 .67.077 1.321.233 1.954" mask="url(#h)"/>
                <mask id="j" fill="#fff">
                    <use xlink:href="#i"/>
                </mask>
                <path fill="#1A171B" d="M49.786 27.148v2.143h.045c.148-.357.348-.688.6-.993a3.94 3.94 0 0 1 .867-.781 4.242 4.242 0 0 1 1.045-.503c.37-.119.756-.178 1.156-.178.207 0 .437.037.69.111v2.946a6.206 6.206 0 0 0-1.134-.112c-.579 0-1.068.097-1.468.29a2.55 2.55 0 0 0-.967.793 3.185 3.185 0 0 0-.522 1.171c-.104.447-.156.93-.156 1.451v5.2h-3.157V27.148h3.001z" mask="url(#j)"/>
                <mask id="l" fill="#fff">
                    <use xlink:href="#k"/>
                </mask>
                <path fill="#1A171B" d="M54.855 30.696c.045-.743.23-1.361.556-1.852a3.793 3.793 0 0 1 1.245-1.183 5.41 5.41 0 0 1 1.7-.635 9.636 9.636 0 0 1 1.901-.19c.579 0 1.164.041 1.757.122a5.372 5.372 0 0 1 1.623.48c.49.238.89.57 1.2.993.312.425.467.986.467 1.685v6.004c0 .52.03 1.019.09 1.495.058.476.162.833.31 1.07h-3.201a4.55 4.55 0 0 1-.222-1.115 4.111 4.111 0 0 1-1.779 1.094 7.118 7.118 0 0 1-2.09.312 5.64 5.64 0 0 1-1.534-.2 3.506 3.506 0 0 1-1.245-.625 2.905 2.905 0 0 1-.834-1.072c-.2-.431-.3-.945-.3-1.54 0-.654.115-1.194.345-1.618.23-.424.526-.762.89-1.015a3.995 3.995 0 0 1 1.244-.57c.467-.125.938-.226 1.412-.3.474-.075.941-.135 1.4-.18.46-.043.868-.11 1.224-.2.355-.09.637-.22.844-.39.208-.171.304-.42.29-.748 0-.342-.056-.613-.168-.815-.11-.2-.259-.357-.444-.468a1.74 1.74 0 0 0-.645-.223 5.265 5.265 0 0 0-.789-.056c-.623 0-1.111.134-1.467.402-.356.267-.564.713-.623 1.338h-3.157zm7.293 2.344c-.134.12-.3.212-.501.279-.2.067-.415.123-.645.167a9.78 9.78 0 0 1-.722.112c-.252.03-.504.067-.756.111-.237.045-.47.104-.7.179-.23.075-.43.175-.6.301a1.43 1.43 0 0 0-.412.48c-.104.193-.155.439-.155.736 0 .283.051.522.155.715.104.193.245.346.422.457.178.112.386.19.623.234.237.045.481.067.734.067.622 0 1.104-.104 1.445-.312.34-.208.592-.457.756-.748.163-.29.263-.584.3-.881.037-.298.056-.536.056-.714V33.04z" mask="url(#l)"/>
                <mask id="n" fill="#fff">
                    <use xlink:href="#m"/>
                </mask>
                <path fill="#1A171B" d="M70.307 27.148v1.607h.066c.4-.67.92-1.157 1.557-1.462a4.484 4.484 0 0 1 1.956-.457c.845 0 1.538.115 2.079.346.54.23.967.55 1.278.96.311.409.53.907.656 1.495.126.587.189 1.238.189 1.952v7.097H74.93V32.17c0-.951-.149-1.662-.445-2.13-.296-.47-.822-.704-1.578-.704-.86 0-1.483.257-1.868.77s-.578 1.358-.578 2.533v6.048h-3.157V27.148h3.002z" mask="url(#n)"/>
                <mask id="p" fill="#fff">
                    <use xlink:href="#o"/>
                </mask>
                <path fill="#1A171B" d="M90.905 39.534a3.911 3.911 0 0 1-.812 1.662c-.415.514-1.015.95-1.8 1.306-.786.357-1.839.536-3.158.536-.563 0-1.138-.07-1.723-.212a5.465 5.465 0 0 1-1.6-.659 3.936 3.936 0 0 1-1.2-1.149c-.32-.468-.501-1.03-.546-1.685h3.135c.148.595.437 1.008.867 1.239.43.23.926.346 1.49.346.889 0 1.537-.268 1.945-.803.408-.536.604-1.213.59-2.032v-1.517h-.045c-.341.61-.827 1.06-1.456 1.35-.63.29-1.294.435-1.99.435-.86 0-1.6-.152-2.224-.457a4.221 4.221 0 0 1-1.534-1.25 5.218 5.218 0 0 1-.878-1.852 8.785 8.785 0 0 1-.278-2.243c0-.744.108-1.462.323-2.154.214-.692.53-1.302.945-1.83.414-.528.93-.948 1.545-1.26.615-.313 1.322-.47 2.123-.47.756 0 1.419.142 1.99.425.57.283 1.048.758 1.434 1.428h.044v-1.54h3.002V37.95c0 .462-.063.99-.19 1.585m-4.324-3.838a2.47 2.47 0 0 0 .845-.714c.222-.298.39-.637.5-1.016a4.23 4.23 0 0 0 .167-1.194c0-.476-.044-.926-.133-1.35a3.38 3.38 0 0 0-.445-1.127 2.31 2.31 0 0 0-.822-.781c-.341-.194-.771-.29-1.29-.29-.444 0-.826.089-1.145.268-.319.178-.586.42-.8.725a3.07 3.07 0 0 0-.467 1.049 5.197 5.197 0 0 0-.145 1.238c0 .417.041.83.122 1.239.082.41.223.777.423 1.105.2.327.463.595.79.803.325.208.733.312 1.222.312.445 0 .837-.089 1.178-.267" mask="url(#p)"/>
                <mask id="r" fill="#fff">
                    <use xlink:href="#q"/>
                </mask>
                <path fill="#1A171B" d="M96.563 35.919c.474.461 1.156.691 2.045.691.637 0 1.186-.159 1.645-.48.46-.319.741-.657.845-1.015h2.78c-.446 1.384-1.127 2.374-2.046 2.968-.92.596-2.03.893-3.335.893-.904 0-1.72-.145-2.446-.435a5.08 5.08 0 0 1-1.845-1.239 5.572 5.572 0 0 1-1.167-1.919c-.275-.744-.412-1.562-.412-2.455 0-.863.141-1.666.423-2.41a5.66 5.66 0 0 1 1.2-1.93 5.643 5.643 0 0 1 1.857-1.283c.719-.313 1.515-.47 2.39-.47.978 0 1.83.19 2.557.57.726.38 1.323.889 1.789 1.529.467.64.804 1.369 1.012 2.186a8.2 8.2 0 0 1 .222 2.567h-8.292c.044 1.027.303 1.771.778 2.232m3.568-6.07c-.378-.417-.953-.625-1.723-.625-.504 0-.923.086-1.256.256a2.334 2.334 0 0 0-1.223 1.44c-.082.283-.13.535-.144.759h5.135c-.148-.804-.411-1.414-.79-1.83" mask="url(#r)"/>
                <mask id="t" fill="#fff">
                    <use xlink:href="#s"/>
                </mask>
                <path fill="#EE7F00" d="M40.45 56.79c1.098 0 2.421-1.64 2.421-3.586 0-.084-.004-.16-.007-.242-1.439-.108-3.221-.515-3.73-1.2-.395-.535-.631-.532-.831-.355a5.528 5.528 0 0 0-.28 1.797c0 1.946 1.327 3.586 2.428 3.586" mask="url(#t)"/>
                <mask id="v" fill="#fff">
                    <use xlink:href="#u"/>
                </mask>
                <path fill="#EE7F00" d="M36.238 58.421c.573-.089 2.268 2.761 4.074 2.761s3.5-2.85 4.074-2.76c2.644.41 2.81 4.688 2.78 5.869h4.027L42.88 41.978h-5.012l-8.436 22.313h4.026c-.03-1.18.137-5.459 2.78-5.87m1.299.211a.574.574 0 0 1 0-1.148c.315 0 .57.257.57.576a.572.572 0 0 1-.57.572m1.251 1.042a.573.573 0 1 1 0-1.146.573.573 0 0 1 0 1.146m1.505.648a.575.575 0 0 1 0-1.147.574.574 0 0 1 0 1.147m1.507-.648a.573.573 0 1 1 .001-1.145.573.573 0 0 1 0 1.145m1.247-1.042a.572.572 0 0 1-.57-.572.572.572 0 1 1 1.142 0 .572.572 0 0 1-.572.572m-6.289-7.41c.743-2.879 2.651-2.972 3.77-2.972 1.117 0 3.027.093 3.77 2.973.738 2.883 1.484 3.414 1.484 4.406 0 .954-1.026 1.235-3.183.725-.627.784-1.435 1.254-2.15 1.254-.708 0-1.502-.459-2.129-1.22-2.063.468-3.046.175-3.046-.759 0-.992.742-1.523 1.484-4.406" mask="url(#v)"/>
                <mask id="x" fill="#fff">
                    <use xlink:href="#w"/>
                </mask>
                <path fill="#EE7F00" d="M52.821 47.42h3.988V44.12H52.82v3.298zm0 16.828h3.988V49.675H52.82v14.573zM66.357 49.28c1.966 0 3.566.503 4.802 1.508 1.236 1.005 1.91 2.345 2.022 4.017h-3.904c-.262-1.672-1.245-2.509-2.948-2.509-1.049 0-1.877.433-2.485 1.297-.61.864-.913 2.011-.913 3.439 0 1.372.29 2.48.87 3.326.58.845 1.395 1.269 2.444 1.269 1.815 0 2.873-.987 3.173-2.96h3.847c-.262 1.936-1.006 3.416-2.232 4.44-1.227 1.024-2.814 1.536-4.76 1.536-2.153 0-3.913-.691-5.28-2.072-1.367-1.381-2.05-3.18-2.05-5.398 0-2.406.674-4.323 2.022-5.751 1.348-1.428 3.145-2.142 5.392-2.142M78.938 44.121v7.583h.084a4.883 4.883 0 0 1 1.825-1.776 4.906 4.906 0 0 1 2.443-.648c1.854 0 3.197.47 4.03 1.41.833.94 1.25 2.423 1.25 4.453v9.105h-3.988v-8.287c0-1.184-.192-2.067-.575-2.65-.384-.582-1.044-.874-1.98-.874-1.068 0-1.85.324-2.345.973-.497.648-.744 1.714-.744 3.199v7.639H74.95V44.121h3.988zM97.724 49.28c4.23.019 6.347 1.4 6.347 4.144v7.723c0 1.429.168 2.462.506 3.101h-4.044a5.862 5.862 0 0 1-.281-1.41c-1.18 1.204-2.808 1.805-4.887 1.805-1.516 0-2.72-.386-3.608-1.156-.89-.77-1.334-1.842-1.334-3.214 0-1.333.421-2.367 1.263-3.1.862-.77 2.425-1.26 4.69-1.466 1.61-.17 2.63-.38 3.061-.634.43-.254.646-.644.646-1.17 0-.658-.196-1.146-.59-1.466-.393-.32-1.048-.48-1.965-.48-.843 0-1.48.175-1.91.522-.43.348-.684.907-.758 1.677h-3.988c.094-1.597.749-2.809 1.966-3.636s2.845-1.24 4.886-1.24m-3.313 10.824c0 1.24.814 1.861 2.443 1.861 2.134-.019 3.21-1.118 3.23-3.298v-1.55c-.32.32-1.124.554-2.416.704-1.123.132-1.947.362-2.471.69-.525.33-.786.86-.786 1.593" mask="url(#x)"/>
                <path fill="#6D463F" d="M20.59 104.75c6.151.058 13.553.063 21.962-1.528a113.04 113.04 0 0 0 18.7-5.239l-3.437-7.466a79.803 79.803 0 0 1-16.242 3.974 79.822 79.822 0 0 1-19.68.218 94.192 94.192 0 0 0-1.304 10.04" mask="url(#x)"/>
                <path fill="#5D332E" d="M64.077 81.513s5.102-.206 7.343-3.142c2.242-2.937 5.697-6.87 9.267-5.907 0 0 2.459.555.888 1.412-1.57.857-7.476 4.69-9.12 7.185-1.644 2.495-8.378.452-8.378.452" mask="url(#x)"/>
                <path fill="#5D332E" d="M60.916 87.255s4.611-2.2 5.524-5.784c.913-3.584 4.33-8.34 6.213-9.084 0 0 2.479-.459 1.37.949-1.11 1.407-5.043 7.259-5.578 10.201-.537 2.943-7.529 3.718-7.529 3.718" mask="url(#x)"/>
                <path fill="#6D463F" d="M82.627 72.468c-4.768 1.023-5.642 3.653-14.02 8.094-3.403 1.804-10.018-.401-11.194-3.994-1.22-3.731-7.316-5.73-7.906-2.427 0 0 5.74 2.01 5.74 6.479 0 3.415 2.64 5.917 2.47 8.849-.082 1.416-4.14 2.318-4.702 2.603.18 1.29 1.257 2.162 1.931 3.947.603 1.596-.833 3.16-.188 4.18 2.846-.75 9.033-2.544 12.219-6.076 3.406-3.776 4.463-6.38 6.111-11.058.27-.764 5.442-6.944 12.63-8.697 0 0-.555-2.444-3.09-1.9" mask="url(#x)"/>
                <path fill="#EE7F00" d="M45.677 107.78c.6-1.609 1.06-3.558 1.198-5.27.076-.957-.078-1.72-.101-2.682a11.586 11.586 0 0 0-.354-2.642c-.874-3.329-1.4-3.863-1.434-3.986a.656.656 0 0 0-.188.029c-1.452.467-2.73.627-4.348.835-14.82 1.912-52.68-4.737-65.037-6.523-.241 2.092-3.137 14.757-3.263 16.67 5.437 4.964 64.552 6.649 71.317 7.896.85-1.353 1.567-2.606 2.21-4.327" mask="url(#x)"/>
                <path fill="#FFE800" d="M45.734 95.136c.535-.185.813-.8.585-1.364-.228-.564-.857-.813-1.369-.57.357.758.514 1.146.784 1.934" mask="url(#x)"/>
                <path fill="#FFE800" d="M46.277 97.05c.552-.128.894-.71.727-1.291-.167-.582-.765-.895-1.3-.708.274.788.389 1.188.573 1.999" mask="url(#x)"/>
                <path fill="#FFE800" d="M46.617 99.007c.562-.068.962-.61.858-1.206-.105-.595-.666-.968-1.218-.838.189.81.26 1.22.36 2.044" mask="url(#x)"/>
                <path fill="#FFE800" d="M46.749 100.993c.566-.008 1.022-.506.98-1.11-.042-.605-.561-1.035-1.123-.964.103.825.132 1.24.143 2.074" mask="url(#x)"/>
                <path fill="#FFE800" d="M46.67 102.99c.564.052 1.07-.398 1.092-1.005.023-.608-.448-1.092-1.015-1.081.016.833 0 1.251-.076 2.086" mask="url(#x)"/>
                <path fill="#FFE800" d="M46.397 104.9c.555.109 1.103-.285 1.186-.887.083-.603-.337-1.135-.9-1.18-.07.835-.127 1.25-.286 2.067" mask="url(#x)"/>
                <path fill="#FFE800" d="M45.914 106.83c.54.167 1.127-.165 1.272-.753.145-.588-.216-1.158-.773-1.265a15.715 15.715 0 0 1-.5 2.018" mask="url(#x)"/>
                <path fill="#FFE800" d="M45.232 108.696c.52.223 1.137-.045 1.344-.614.206-.568-.094-1.172-.636-1.337-.24.795-.382 1.187-.708 1.95" mask="url(#x)"/>
                <path fill="#FFE800" d="M44.356 110.481c.495.278 1.137.075 1.403-.47.265-.543.03-1.176-.493-1.397-.322.765-.504 1.14-.91 1.867" mask="url(#x)"/>
                <path fill="#FFE800" d="M43.293 112.171c.462.329 1.125.193 1.447-.322.323-.516.155-1.17-.34-1.446a15.77 15.77 0 0 1-1.107 1.768" mask="url(#x)"/>
                <path fill="#F4B5D0" d="M52.304 75.652s.75-.685.345-1.06c-.405-.376-2.992-1.408-2.992-1.408s-1.31-.094-.562.907l3.209 1.56zM82.942 75.256s-.938-.646-.479-1.043c.46-.396 2.839-1.312 3.256-1.042.417.269.513.687.278 1.001-.237.315-3.055 1.084-3.055 1.084" mask="url(#x)"/>
                <path fill="#FBE5EF" d="M82.942 75.028s2.434-.583 2.886-1.037c0 0-2.217.465-2.886 1.037M52.13 75.227L49.3 73.77s1.626.174 2.83 1.458" mask="url(#x)"/>
            </g>
        </g>
    </g>
</svg>
