<svg xmlns="http://www.w3.org/2000/svg" xmlns:xlink="http://www.w3.org/1999/xlink" width="30" height="27" viewBox="0 0 30 27">
    <defs>
        <path id="a" d="M20.346 10.141a8.71 8.71 0 0 0-5.612-2.034 8.71 8.71 0 0 0-5.74 2.142l-.89-.992a10.062 10.062 0 0 1 6.63-2.48c2.47 0 4.734.889 6.483 2.355l-.87 1.01zm-.345 13.122h-.921l-.147-.746c-.258.331-.544.563-.857.695-.313.132-.63.198-.948.198-.504 0-.957-.087-1.359-.262a2.909 2.909 0 0 1-1.017-.723 3.2 3.2 0 0 1-.635-1.082 3.971 3.971 0 0 1-.221-1.34c0-.491.073-.947.22-1.368.148-.42.36-.787.636-1.1a2.906 2.906 0 0 1 1.017-.737 3.321 3.321 0 0 1 1.359-.267c.337 0 .664.05.98.152.317.101.602.25.857.447.255.196.465.439.63.727.166.289.268.62.305.995h-1.382c-.086-.369-.252-.645-.497-.83a1.446 1.446 0 0 0-.893-.275c-.326 0-.602.063-.829.188a1.564 1.564 0 0 0-.553.507 2.218 2.218 0 0 0-.308.723c-.064.27-.097.55-.097.838 0 .276.033.545.097.806.064.26.167.495.308.704.142.209.326.376.553.502.227.126.503.189.829.189.479 0 .848-.121 1.11-.364.26-.243.412-.594.455-1.054h-1.455v-1.078h2.763v3.555zm-2.44-10.206l-.871 1.011a3.099 3.099 0 0 0-1.998-.725c-.784 0-1.497.29-2.041.765l-.892-.994a4.452 4.452 0 0 1 2.933-1.1c1.094 0 2.095.394 2.87 1.043zM14.713 10.7a5.792 5.792 0 0 0-3.817 1.429l-.894-.997a7.15 7.15 0 0 1 4.71-1.762c1.756 0 3.364.631 4.607 1.673l-.872 1.012a5.796 5.796 0 0 0-3.734-1.355zM13.398 21.77h-.856v1.492h-1.243V21.77H8.573v-1.197l2.8-3.757h1.169v3.876h.856v1.078zm4.099-20.482A3.596 3.596 0 0 0 14.733 0c-1.11 0-2.101.501-2.762 1.29l-1.78 1.767H5.525v4.639L0 13.186h5.525v11.051A2.763 2.763 0 0 0 8.288 27H21.18a2.763 2.763 0 0 0 2.763-2.763v-11.05h5.525L17.497 1.289zM9.604 20.693H11.3v-2.237h-.028l-1.667 2.237z"/>
    </defs>
    <g fill="none" fill-rule="evenodd">
        <mask id="b" fill="#fff">
            <use xlink:href="#a"/>
        </mask>
        <use fill="#000" xlink:href="#a"/>
        <g fill="#000" mask="url(#b)">
            <path d="M-5-7h40v40H-5z"/>
        </g>
    </g>
</svg>
