<svg id="Calque_1" data-name="Calque 1" xmlns="http://www.w3.org/2000/svg" xmlns:xlink="http://www.w3.org/1999/xlink" viewBox="0 0 154 154"><defs><clipPath id="clip-path"><circle cx="77" cy="77" r="77" style="fill:#ff89d3"/></clipPath></defs><title>Television</title><circle cx="77" cy="77" r="77" style="fill:#ff89d3"/><g style="clip-path:url(#clip-path)"><g id="_Groupe_" data-name="&lt;Groupe&gt;"><g id="_Groupe_2" data-name="&lt;Groupe&gt;"><path d="M.32,135.59,2,134.74c.69-.35.08-1.39-.61-1l-1.68.84c-.69.35-.08,1.39.61,1Z"/></g></g><g id="_Groupe_3" data-name="&lt;Groupe&gt;"><g id="_Groupe_4" data-name="&lt;Groupe&gt;"><path d="M1.7,140.19A2.71,2.71,0,0,0,3.89,139a.61.61,0,0,0-.22-.82.62.62,0,0,0-.82.22A1.43,1.43,0,0,1,1.7,139a.6.6,0,0,0,0,1.2Z"/></g></g><g id="_Groupe_5" data-name="&lt;Groupe&gt;"><g id="_Groupe_6" data-name="&lt;Groupe&gt;"><path d="M4.67,144.64l1.4-.56a.62.62,0,0,0,.42-.74.61.61,0,0,0-.74-.42l-1.4.56a.62.62,0,0,0-.42.74.61.61,0,0,0,.74.42Z"/></g></g><g id="_Groupe_7" data-name="&lt;Groupe&gt;"><g id="_Groupe_8" data-name="&lt;Groupe&gt;"><path d="M5.39,149.66l.56-.28a.6.6,0,1,0-.61-1l-.56.28a.6.6,0,1,0,.61,1Z"/></g></g><g id="_Groupe_9" data-name="&lt;Groupe&gt;"><rect x="34.94" y="32.94" width="85.47" height="53.34" rx="8.33" ry="8.33"/></g><g id="_Groupe_10" data-name="&lt;Groupe&gt;"><rect x="38.16" y="37.12" width="78.08" height="43.7" style="fill:#2b2b2b"/></g><g id="_Groupe_11" data-name="&lt;Groupe&gt;"><rect x="71.57" y="52.87" width="13.17" height="13.82" style="fill:#ff7901"/></g><g id="_Groupe_12" data-name="&lt;Groupe&gt;"><path id="_Tracé_transparent_" data-name="&lt;Tracé transparent&gt;" d="M124.27,117.93H31.09a4.66,4.66,0,0,1-4.66-4.66V95.92a4.66,4.66,0,0,1,4.66-4.66h93.18a4.66,4.66,0,0,1,4.66,4.66v17.35A4.66,4.66,0,0,1,124.27,117.93ZM31.09,94.16a1.77,1.77,0,0,0-1.77,1.77v17.35A1.77,1.77,0,0,0,31.09,115h93.18a1.77,1.77,0,0,0,1.77-1.77V95.92a1.77,1.77,0,0,0-1.77-1.77Z" style="fill:#cbcdcf"/></g><g id="_Groupe_13" data-name="&lt;Groupe&gt;"><rect x="27.87" y="102.99" width="98.65" height="1.93" style="fill:#cbcdcf"/></g><g id="_Groupe_14" data-name="&lt;Groupe&gt;"><rect x="61.29" y="98.17" width="54.95" height="4.82" style="fill:#595959"/></g><g id="_Groupe_15" data-name="&lt;Groupe&gt;"><rect x="87.89" y="108.41" width="20.89" height="6.34" style="fill:#ffd100"/></g><g id="_Groupe_16" data-name="&lt;Groupe&gt;"><rect x="63.09" y="99.83" width="17.72" height="1.49"/></g><g id="_Groupe_17" data-name="&lt;Groupe&gt;"><rect x="92" y="99.64" width="19.02" height="1.49"/></g><g id="_Groupe_18" data-name="&lt;Groupe&gt;"><rect x="64.02" y="99.83" width="2.05" height="1.49" style="fill:#ff7901"/></g><g id="_Groupe_19" data-name="&lt;Groupe&gt;"><rect x="73.53" y="84.91" width="5.59" height="4.66"/></g><g id="_Groupe_20" data-name="&lt;Groupe&gt;"><rect x="56.19" y="88.64" width="39.53" height="2.61" rx="0.84" ry="0.84"/></g><g id="_Groupe_21" data-name="&lt;Groupe&gt;"><rect x="64.02" y="112.32" width="23.12" height="2.98" rx="0.96" ry="0.96" style="fill:#595959"/></g><g id="_Groupe_22" data-name="&lt;Groupe&gt;"><rect x="42.32" y="70.78" width="13.55" height="58.36" rx="4.37" ry="4.37"/></g><g id="_Groupe_23" data-name="&lt;Groupe&gt;"><circle cx="48.39" cy="75.96" r="1.83" style="fill:#8e8e8e"/></g><g id="_Groupe_24" data-name="&lt;Groupe&gt;"><circle cx="52.2" cy="100.1" r="1.83" style="fill:#8e8e8e"/></g><g id="_Groupe_25" data-name="&lt;Groupe&gt;"><circle cx="46.05" cy="99.81" r="1.83" style="fill:#8e8e8e"/></g><g id="_Groupe_26" data-name="&lt;Groupe&gt;"><rect x="46.79" y="81.5" width="3.63" height="1.94" rx="0.63" ry="0.63" style="fill:#8e8e8e"/></g><g id="_Groupe_27" data-name="&lt;Groupe&gt;"><rect x="46.71" y="94.74" width="3.2" height="1.52" rx="0.49" ry="0.49" style="fill:#8e8e8e"/></g><g id="_Groupe_28" data-name="&lt;Groupe&gt;"><path id="_Tracé_" data-name="&lt;Tracé&gt;" d="M56.78,105.81a2.79,2.79,0,0,0,.81-.92,1.74,1.74,0,0,0-1.42-2.5,3.27,3.27,0,0,0-2.33,1.14c-.47.44-1,1-.76,1.65a1.2,1.2,0,0,0,.87.73,3.4,3.4,0,0,0,1.18,0,3.46,3.46,0,0,0,2.12-.73" style="fill:#7f634f"/><path id="_Tracé_transparent_2" data-name="&lt;Tracé transparent&gt;" d="M54.5,106.22a2.47,2.47,0,0,1-.6-.07,1.43,1.43,0,0,1-1-.89c-.19-.58.08-1.2.82-1.9a3.53,3.53,0,0,1,2.52-1.21A2,2,0,0,1,57.81,105a3,3,0,0,1-.88,1l-.15-.19a5.18,5.18,0,0,1-1.62.37A6.32,6.32,0,0,1,54.5,106.22ZM56,102.63a3.28,3.28,0,0,0-2,1.08c-.58.55-.81,1-.69,1.4a1,1,0,0,0,.7.57,3.19,3.19,0,0,0,1.1,0,3.27,3.27,0,0,0,2-.67l.08.09a1.74,1.74,0,0,0,.21-.32,1.5,1.5,0,0,0-1.23-2.16Z" style="fill:#7f634f"/></g><g id="_Groupe_29" data-name="&lt;Groupe&gt;"><path id="_Tracé_2" data-name="&lt;Tracé&gt;" d="M58,109.44a2.79,2.79,0,0,0,.81-.92,1.74,1.74,0,0,0-1.42-2.5,3.27,3.27,0,0,0-2.33,1.14c-.47.44-1,1-.76,1.65a1.2,1.2,0,0,0,.87.73,3.4,3.4,0,0,0,1.18,0,3.46,3.46,0,0,0,2.12-.73" style="fill:#7f634f"/><path id="_Tracé_transparent_3" data-name="&lt;Tracé transparent&gt;" d="M55.77,109.84a2.51,2.51,0,0,1-.61-.07,1.44,1.44,0,0,1-1-.89c-.19-.58.08-1.2.82-1.9a3.5,3.5,0,0,1,2.52-1.21,2,2,0,0,1,1.62,2.85,3,3,0,0,1-.88,1l-.15-.19a5.19,5.19,0,0,1-1.62.37A6.25,6.25,0,0,1,55.77,109.84Zm1.53-3.59a3.28,3.28,0,0,0-2,1.09c-.59.55-.82,1-.69,1.4a1,1,0,0,0,.7.57,3.18,3.18,0,0,0,1.1,0,3.26,3.26,0,0,0,2-.67l.08.09a1.74,1.74,0,0,0,.21-.32,1.5,1.5,0,0,0-1.23-2.16Z" style="fill:#7f634f"/></g><g id="_Groupe_30" data-name="&lt;Groupe&gt;"><path id="_Tracé_3" data-name="&lt;Tracé&gt;" d="M58,112.64a2.79,2.79,0,0,0,.81-.92,1.74,1.74,0,0,0-1.42-2.5A3.27,3.27,0,0,0,55,110.37c-.47.44-1,1-.76,1.65a1.2,1.2,0,0,0,.87.73,3.4,3.4,0,0,0,1.18,0,3.46,3.46,0,0,0,2.12-.73" style="fill:#7f634f"/><path id="_Tracé_transparent_4" data-name="&lt;Tracé transparent&gt;" d="M55.68,113a2.47,2.47,0,0,1-.6-.07,1.43,1.43,0,0,1-1-.89c-.19-.58.08-1.2.82-1.9A3.52,3.52,0,0,1,57.36,109,2,2,0,0,1,59,111.83a3,3,0,0,1-.88,1l-.15-.19a5.19,5.19,0,0,1-1.62.37A6.32,6.32,0,0,1,55.68,113Zm1.53-3.59a3.28,3.28,0,0,0-2,1.08c-.59.55-.82,1-.69,1.4a1,1,0,0,0,.7.57,3.19,3.19,0,0,0,1.1,0,3.27,3.27,0,0,0,2-.67l.08.09a1.74,1.74,0,0,0,.21-.32,1.5,1.5,0,0,0-1.23-2.16Z" style="fill:#7f634f"/></g><g id="_Groupe_31" data-name="&lt;Groupe&gt;"><path id="_Tracé_4" data-name="&lt;Tracé&gt;" d="M58,115.34a2.79,2.79,0,0,0,.81-.92,1.74,1.74,0,0,0-1.42-2.5A3.27,3.27,0,0,0,55,113.07c-.47.44-1,1-.76,1.65a1.2,1.2,0,0,0,.87.73,3.4,3.4,0,0,0,1.18,0,3.46,3.46,0,0,0,2.12-.73" style="fill:#7f634f"/><path id="_Tracé_transparent_5" data-name="&lt;Tracé transparent&gt;" d="M55.68,115.75a2.47,2.47,0,0,1-.6-.07,1.43,1.43,0,0,1-1-.89c-.19-.58.08-1.2.82-1.9a3.55,3.55,0,0,1,2.52-1.21A2,2,0,0,1,59,114.53a3,3,0,0,1-.88,1l-.15-.19a5.18,5.18,0,0,1-1.62.37A6.32,6.32,0,0,1,55.68,115.75Zm1.53-3.59a3.28,3.28,0,0,0-2,1.08c-.58.55-.81,1-.69,1.4a1,1,0,0,0,.7.57,3.19,3.19,0,0,0,1.1,0,3.27,3.27,0,0,0,2-.67l.08.09a1.74,1.74,0,0,0,.21-.32,1.5,1.5,0,0,0-1.23-2.16Z" style="fill:#7f634f"/></g><g id="_Groupe_32" data-name="&lt;Groupe&gt;"><g id="_Groupe_33" data-name="&lt;Groupe&gt;"><path d="M51.44,83.12a5.39,5.39,0,0,1,2.85,4.11c0,.38.65.38.6,0a6,6,0,0,0-3.14-4.63c-.34-.18-.65.34-.3.52Z" style="fill:#ff7901"/></g></g><g id="_Groupe_34" data-name="&lt;Groupe&gt;"><g id="_Groupe_35" data-name="&lt;Groupe&gt;"><path d="M46.37,82.38a4.22,4.22,0,0,0-3.26,2.78c-.13.37.45.52.58.16A3.63,3.63,0,0,1,46.53,83c.38-.07.22-.65-.16-.58Z" style="fill:#ff7901"/></g></g><g id="_Groupe_36" data-name="&lt;Groupe&gt;"><g id="_Groupe_37" data-name="&lt;Groupe&gt;"><path d="M54.24,89.6a5.23,5.23,0,0,1-2,4.69c-.3.24.12.66.43.43a5.77,5.77,0,0,0,2.18-5.12c0-.38-.64-.39-.6,0Z" style="fill:#ff7901"/></g></g><g id="_Groupe_38" data-name="&lt;Groupe&gt;"><g id="_Groupe_39" data-name="&lt;Groupe&gt;"><path d="M42.88,92.72a5.31,5.31,0,0,0,3.74,2.61c.38.06.54-.52.16-.58a4.74,4.74,0,0,1-3.38-2.33.3.3,0,0,0-.52.3Z" style="fill:#ff7901"/></g></g><g id="_Groupe_40" data-name="&lt;Groupe&gt;"><g id="_Groupe_41" data-name="&lt;Groupe&gt;"><path d="M49.12,86.61a1.54,1.54,0,0,0-2,1.24,1.81,1.81,0,0,0,1.54,2,1.87,1.87,0,0,0,2.1-1.2,1.5,1.5,0,0,0-1.16-1.9c-.38-.06-.54.52-.16.58a.91.91,0,0,1,.77,1.09,1.25,1.25,0,0,1-1.34.85,1.23,1.23,0,0,1-1.15-1.06,1,1,0,0,1,1.26-1c.37.12.53-.46.16-.58Z" style="fill:#ff7901"/></g></g><g id="_Groupe_42" data-name="&lt;Groupe&gt;"><g id="_Groupe_43" data-name="&lt;Groupe&gt;"><path d="M45.31,108.66v.93a.3.3,0,0,0,.6,0v-.93a.3.3,0,0,0-.6,0Z" style="fill:#ff7901"/></g></g><g id="_Groupe_44" data-name="&lt;Groupe&gt;"><g id="_Groupe_45" data-name="&lt;Groupe&gt;"><path d="M45.06,112.2v2a.3.3,0,0,0,.6,0v-2a.3.3,0,0,0-.6,0Z" style="fill:#ff7901"/></g></g><g id="_Groupe_46" data-name="&lt;Groupe&gt;"><g id="_Groupe_47" data-name="&lt;Groupe&gt;"><path d="M44.89,116.58v1.69a.3.3,0,0,0,.6,0v-1.69a.3.3,0,0,0-.6,0Z" style="fill:#ff7901"/></g></g><g id="_Groupe_48" data-name="&lt;Groupe&gt;"><g id="_Groupe_49" data-name="&lt;Groupe&gt;"><path d="M48.43,108.66v1.43a.3.3,0,0,0,.6,0v-1.43a.3.3,0,0,0-.6,0Z" style="fill:#ff7901"/></g></g><g id="_Groupe_50" data-name="&lt;Groupe&gt;"><g id="_Groupe_51" data-name="&lt;Groupe&gt;"><path d="M48.43,112.62v1.69a.3.3,0,0,0,.6,0v-1.69a.3.3,0,0,0-.6,0Z" style="fill:#ff7901"/></g></g><g id="_Groupe_52" data-name="&lt;Groupe&gt;"><g id="_Groupe_53" data-name="&lt;Groupe&gt;"><path d="M48.77,115.65v2a.3.3,0,0,0,.6,0v-2a.3.3,0,0,0-.6,0Z" style="fill:#ff7901"/></g></g><g id="_Groupe_54" data-name="&lt;Groupe&gt;"><g id="_Groupe_55" data-name="&lt;Groupe&gt;"><path d="M51.72,108.57v1.86a.3.3,0,0,0,.6,0v-1.86a.3.3,0,0,0-.6,0Z" style="fill:#ff7901"/></g></g><g id="_Groupe_56" data-name="&lt;Groupe&gt;"><g id="_Groupe_57" data-name="&lt;Groupe&gt;"><path d="M51.72,112.7v1.69a.3.3,0,0,0,.6,0V112.7a.3.3,0,0,0-.6,0Z" style="fill:#ff7901"/></g></g><g id="_Groupe_58" data-name="&lt;Groupe&gt;"><g id="_Groupe_59" data-name="&lt;Groupe&gt;"><path d="M52,116v.93a.3.3,0,0,0,.6,0V116a.3.3,0,0,0-.6,0Z" style="fill:#ff7901"/></g></g><g id="_Groupe_60" data-name="&lt;Groupe&gt;"><g id="_Groupe_61" data-name="&lt;Groupe&gt;"><path d="M43.93,121.74h.25a.6.6,0,0,0,0-1.2h-.25a.6.6,0,0,0,0,1.2Z" style="fill:#595959"/></g></g><g id="_Groupe_62" data-name="&lt;Groupe&gt;"><g id="_Groupe_63" data-name="&lt;Groupe&gt;"><path d="M46.12,121.82h.34a.6.6,0,0,0,0-1.2h-.34a.6.6,0,0,0,0,1.2Z" style="fill:#595959"/></g></g><g id="_Groupe_64" data-name="&lt;Groupe&gt;"><g id="_Groupe_65" data-name="&lt;Groupe&gt;"><path d="M48.31,121.91H49a.6.6,0,0,0,0-1.2h-.67a.6.6,0,0,0,0,1.2Z" style="fill:#595959"/></g></g><g id="_Groupe_66" data-name="&lt;Groupe&gt;"><g id="_Groupe_67" data-name="&lt;Groupe&gt;"><path d="M50.67,122h.67a.6.6,0,0,0,0-1.2h-.67a.6.6,0,0,0,0,1.2Z" style="fill:#595959"/></g></g><g id="_Groupe_68" data-name="&lt;Groupe&gt;"><g id="_Groupe_69" data-name="&lt;Groupe&gt;"><path d="M52.95,122.08h.67a.6.6,0,0,0,0-1.2h-.67a.6.6,0,0,0,0,1.2Z" style="fill:#595959"/></g></g><g id="_Groupe_70" data-name="&lt;Groupe&gt;"><g id="_Groupe_71" data-name="&lt;Groupe&gt;"><path d="M51,87l.76-.76a.3.3,0,0,0-.43-.43l-.76.76A.3.3,0,0,0,51,87Z" style="fill:#8e8e8e"/></g></g><g id="_Groupe_72" data-name="&lt;Groupe&gt;"><g id="_Groupe_73" data-name="&lt;Groupe&gt;"><path d="M50.42,89.83a9.54,9.54,0,0,0,1.21,1.59c.27.28.69-.14.43-.43a8.78,8.78,0,0,1-1.12-1.47c-.2-.33-.72,0-.52.3Z" style="fill:#8e8e8e"/></g></g><g id="_Groupe_74" data-name="&lt;Groupe&gt;"><g id="_Groupe_75" data-name="&lt;Groupe&gt;"><path d="M47.24,90,45.76,91.6c-.26.29.17.72.43.43l1.47-1.64c.26-.29-.17-.72-.43-.43Z" style="fill:#8e8e8e"/></g></g><g id="_Groupe_76" data-name="&lt;Groupe&gt;"><g id="_Groupe_77" data-name="&lt;Groupe&gt;"><path d="M47.32,87q-.8-.84-1.68-1.6c-.29-.25-.72.17-.43.43q.88.76,1.68,1.6c.27.28.69-.15.43-.43Z" style="fill:#8e8e8e"/></g></g><g id="_Groupe_78" data-name="&lt;Groupe&gt;"><path d="M28.57,120.39a27.65,27.65,0,0,0,7.26-4.47,3.17,3.17,0,0,0,1.07-1.36,3.48,3.48,0,0,0-.18-2A50,50,0,0,1,35.31,106a2.91,2.91,0,0,1,.08-1.6,2.66,2.66,0,0,1,1.39-1.18,11.55,11.55,0,0,1,9.81.05,4.42,4.42,0,0,1,2.19,1.92,2,2,0,0,1-.66,2.61c-1.58.84-3.49-1.34-5.15-.66a75.05,75.05,0,0,1-.12,16.8,1.89,1.89,0,0,1-.3,1,2,2,0,0,1-1.13.57,20.06,20.06,0,0,0-9.5,5.79l-2.55-10.48" style="fill:#7f634f"/></g><g id="_Groupe_79" data-name="&lt;Groupe&gt;"><path d="M-2.61,133.06q14.48-7.24,29.29-13.79a4.28,4.28,0,0,1,1.87-.5,3.91,3.91,0,0,1,2.52,1.51,20.17,20.17,0,0,1,4.68,8.6,3.38,3.38,0,0,1,.08,1.95,3.7,3.7,0,0,1-1.63,1.67L5.69,151.22" style="fill:#ff7901"/></g><g id="_Groupe_80" data-name="&lt;Groupe&gt;"><g id="_Groupe_81" data-name="&lt;Groupe&gt;"><path d="M32.17,24.8a5,5,0,0,0,2.31,2.36,1.21,1.21,0,0,0,1.22-2.08,5.09,5.09,0,0,1-.52-.3c-.27-.18.1.12-.13-.1l-.22-.21-.2-.22c.1.12,0,0-.06-.09a4.14,4.14,0,0,1-.32-.57,1.21,1.21,0,0,0-1.65-.43,1.23,1.23,0,0,0-.43,1.65Z" style="fill:#fff"/></g></g><g id="_Groupe_82" data-name="&lt;Groupe&gt;"><g id="_Groupe_83" data-name="&lt;Groupe&gt;"><path d="M38.23,20.71a10.62,10.62,0,0,0,2.66,4.35c1.1,1.09,2.81-.61,1.7-1.7a8,8,0,0,1-2-3.29c-.47-1.47-2.8-.84-2.32.64Z" style="fill:#fff"/></g></g><g id="_Groupe_84" data-name="&lt;Groupe&gt;"><g id="_Groupe_85" data-name="&lt;Groupe&gt;"><path d="M48.15,18.35a11.14,11.14,0,0,0,2.3,4.76,1.21,1.21,0,0,0,1.7,0,1.23,1.23,0,0,0,0-1.7,8.58,8.58,0,0,1-1.68-3.7c-.31-1.52-2.64-.88-2.32.64Z" style="fill:#fff"/></g></g><g id="_Groupe_86" data-name="&lt;Groupe&gt;"><g id="_Groupe_87" data-name="&lt;Groupe&gt;"><path d="M59.22,16.4l1.67,4.37c.55,1.43,2.88.81,2.32-.64l-1.67-4.37c-.55-1.43-2.88-.81-2.32.64Z" style="fill:#fff"/></g></g><g id="_Groupe_88" data-name="&lt;Groupe&gt;"><g id="_Groupe_89" data-name="&lt;Groupe&gt;"><path d="M70.49,15.64a6.66,6.66,0,0,0,1.13,3.93c.86,1.28,3,.07,2.08-1.22a4.43,4.43,0,0,1-.8-2.72c0-1.55-2.36-1.55-2.41,0Z" style="fill:#fff"/></g></g><g id="_Groupe_90" data-name="&lt;Groupe&gt;"><g id="_Groupe_91" data-name="&lt;Groupe&gt;"><path d="M85.34,13.58a6.58,6.58,0,0,0-.51,4.28c.32,1.52,2.64.87,2.32-.64a3.83,3.83,0,0,1,.27-2.42A1.24,1.24,0,0,0,87,13.15a1.22,1.22,0,0,0-1.65.43Z" style="fill:#fff"/></g></g><g id="_Groupe_92" data-name="&lt;Groupe&gt;"><g id="_Groupe_93" data-name="&lt;Groupe&gt;"><path d="M93.43,14.38l-.87,4.77c-.28,1.52,2,2.17,2.32.64L95.75,15c.28-1.52-2-2.17-2.32-.64Z" style="fill:#fff"/></g></g><g id="_Groupe_94" data-name="&lt;Groupe&gt;"><g id="_Groupe_95" data-name="&lt;Groupe&gt;"><path d="M103.81,15.8l-1.39,3.82c-.53,1.46,1.8,2.09,2.32.64l1.39-3.82c.53-1.46-1.8-2.09-2.32-.64Z" style="fill:#fff"/></g></g><g id="_Groupe_96" data-name="&lt;Groupe&gt;"><g id="_Groupe_97" data-name="&lt;Groupe&gt;"><path d="M116.62,19.7l-2.17,3.46c-.83,1.32,1.26,2.53,2.08,1.22l2.17-3.46c.83-1.32-1.26-2.53-2.08-1.22Z" style="fill:#fff"/></g></g><g id="_Groupe_98" data-name="&lt;Groupe&gt;"><g id="_Groupe_99" data-name="&lt;Groupe&gt;"><path d="M121.81,23.43l-1.48,1.86a1.24,1.24,0,0,0,0,1.7,1.22,1.22,0,0,0,1.7,0l1.48-1.86a1.24,1.24,0,0,0,0-1.7,1.22,1.22,0,0,0-1.7,0Z" style="fill:#fff"/></g></g><g id="_Groupe_100" data-name="&lt;Groupe&gt;"><g id="_Groupe_101" data-name="&lt;Groupe&gt;"><path d="M128.56,28.79l-2.83,1.94a1.24,1.24,0,0,0-.43,1.65,1.22,1.22,0,0,0,1.65.43l2.83-1.94a1.24,1.24,0,0,0,.43-1.65,1.22,1.22,0,0,0-1.65-.43Z" style="fill:#fff"/></g></g><g id="_Groupe_102" data-name="&lt;Groupe&gt;"><g id="_Groupe_103" data-name="&lt;Groupe&gt;"><path d="M90.45,113.1c-.13.06.19-.05.22-.06L91,113a4.65,4.65,0,0,1,.77,0,1.21,1.21,0,0,0,1.2-1.2,1.24,1.24,0,0,0-1.2-1.2,4.82,4.82,0,0,0-2.57.44,1.21,1.21,0,0,0-.43,1.65,1.24,1.24,0,0,0,1.65.43Z"/></g></g><g id="_Groupe_104" data-name="&lt;Groupe&gt;"><g id="_Groupe_105" data-name="&lt;Groupe&gt;"><path d="M95.74,113.43a2.36,2.36,0,0,1,1.35-.18,1.21,1.21,0,1,0,.64-2.32,4.61,4.61,0,0,0-2.63.18,1.24,1.24,0,0,0-.84,1.48,1.21,1.21,0,0,0,1.48.84Z"/></g></g><g id="_Groupe_106" data-name="&lt;Groupe&gt;"><g id="_Groupe_107" data-name="&lt;Groupe&gt;"><path d="M100.78,113.55h1.12a1.2,1.2,0,1,0,0-2.41h-1.12a1.2,1.2,0,1,0,0,2.41Z"/></g></g><g id="_Groupe_108" data-name="&lt;Groupe&gt;"><g id="_Groupe_109" data-name="&lt;Groupe&gt;"><path d="M105.56,113.55h1.12a1.2,1.2,0,1,0,0-2.41h-1.12a1.2,1.2,0,0,0,0,2.41Z"/></g></g><g id="_Groupe_110" data-name="&lt;Groupe&gt;"><g id="_Groupe_111" data-name="&lt;Groupe&gt;"><path d="M5.92,133l2-1.34c.64-.43,0-1.47-.61-1l-2,1.34c-.64.43,0,1.47.61,1Z"/></g></g><g id="_Groupe_112" data-name="&lt;Groupe&gt;"><g id="_Groupe_113" data-name="&lt;Groupe&gt;"><path d="M12.39,129.41l2.28-1.34a.6.6,0,0,0-.61-1l-2.28,1.34a.6.6,0,0,0,.61,1Z"/></g></g><g id="_Groupe_114" data-name="&lt;Groupe&gt;"><g id="_Groupe_115" data-name="&lt;Groupe&gt;"><path d="M18.69,126.24l1.4-1.12a.61.61,0,0,0,0-.85.62.62,0,0,0-.85,0l-1.4,1.12a.61.61,0,0,0,0,.85.62.62,0,0,0,.85,0Z"/></g></g><g id="_Groupe_116" data-name="&lt;Groupe&gt;"><g id="_Groupe_117" data-name="&lt;Groupe&gt;"><path d="M25.25,123a1.66,1.66,0,0,1,.75-.58.62.62,0,0,0,.42-.74.61.61,0,0,0-.74-.42,3,3,0,0,0-1.47,1.13.61.61,0,0,0,.22.82.62.62,0,0,0,.82-.22Z"/></g></g><g id="_Groupe_118" data-name="&lt;Groupe&gt;"><g id="_Groupe_119" data-name="&lt;Groupe&gt;"><path d="M11,135.87l1.4-.84a.6.6,0,0,0-.61-1l-1.4.84a.6.6,0,0,0,.61,1Z"/></g></g><g id="_Groupe_120" data-name="&lt;Groupe&gt;"><g id="_Groupe_121" data-name="&lt;Groupe&gt;"><path d="M18,132.23l1.4-.84a.6.6,0,0,0-.61-1l-1.4.84a.6.6,0,0,0,.61,1Z"/></g></g><g id="_Groupe_122" data-name="&lt;Groupe&gt;"><g id="_Groupe_123" data-name="&lt;Groupe&gt;"><path d="M24.18,128.86l1.12-.56a.6.6,0,0,0-.61-1l-1.12.56a.6.6,0,1,0,.61,1Z"/></g></g><g id="_Groupe_124" data-name="&lt;Groupe&gt;"><g id="_Groupe_125" data-name="&lt;Groupe&gt;"><path d="M29.25,126.08l1.14-.82a.62.62,0,0,0,.22-.82.61.61,0,0,0-.82-.22l-1.14.82a.62.62,0,0,0-.22.82.61.61,0,0,0,.82.22Z"/></g></g><g id="_Groupe_126" data-name="&lt;Groupe&gt;"><g id="_Groupe_127" data-name="&lt;Groupe&gt;"><path d="M9.29,142l1.41-.82a.6.6,0,0,0-.61-1L8.68,141a.6.6,0,0,0,.61,1Z"/></g></g><g id="_Groupe_128" data-name="&lt;Groupe&gt;"><g id="_Groupe_129" data-name="&lt;Groupe&gt;"><path d="M16,138.33l2.52-1.69c.64-.43,0-1.47-.61-1l-2.52,1.69c-.64.43,0,1.47.61,1Z"/></g></g><g id="_Groupe_130" data-name="&lt;Groupe&gt;"><g id="_Groupe_131" data-name="&lt;Groupe&gt;"><path d="M23.48,134a4.37,4.37,0,0,0,1.94-1c.58-.52-.28-1.37-.85-.85a3.12,3.12,0,0,1-1.4.72c-.75.18-.44,1.34.32,1.16Z"/></g></g><g id="_Groupe_132" data-name="&lt;Groupe&gt;"><g id="_Groupe_133" data-name="&lt;Groupe&gt;"><path d="M30.76,130.17l.56-.56a.6.6,0,0,0-.85-.85l-.56.56a.6.6,0,0,0,.85.85Z"/></g></g><g id="_Groupe_134" data-name="&lt;Groupe&gt;"><g id="_Groupe_135" data-name="&lt;Groupe&gt;"><path d="M11.55,145.7l2.25-1.4c.66-.41.05-1.45-.61-1l-2.25,1.4c-.66.41-.05,1.45.61,1Z"/></g></g><g id="_Groupe_136" data-name="&lt;Groupe&gt;"><g id="_Groupe_137" data-name="&lt;Groupe&gt;"><path d="M20.25,140.64l1.68-1.12c.64-.43,0-1.47-.61-1l-1.68,1.12c-.64.43,0,1.47.61,1Z"/></g></g><g id="_Groupe_138" data-name="&lt;Groupe&gt;"><g id="_Groupe_139" data-name="&lt;Groupe&gt;"><path d="M26.72,136.45l2-1.35c.64-.43,0-1.47-.61-1l-2,1.35c-.64.43,0,1.47.61,1Z"/></g></g><g id="_Groupe_140" data-name="&lt;Groupe&gt;"><g id="_Groupe_141" data-name="&lt;Groupe&gt;"><path d="M32.16,133.26l.56-.56a.6.6,0,0,0-.85-.85l-.56.56a.6.6,0,0,0,.85.85Z"/></g></g></g></svg>