<svg xmlns="http://www.w3.org/2000/svg" xmlns:xlink="http://www.w3.org/1999/xlink" width="154" height="154" viewBox="0 0 154 154">
    <defs>
        <circle id="a" cx="77" cy="77" r="77"/>
        <path id="c" d="M0 .118h111.547V69.01H0z"/>
    </defs>
    <g fill="none" fill-rule="evenodd">
        <mask id="b" fill="#fff">
            <use xlink:href="#a"/>
        </mask>
        <use fill="#4BB4E7" xlink:href="#a"/>
        <g mask="url(#b)">
            <g transform="translate(23.1 42.419)">
                <mask id="d" fill="#fff">
                    <use xlink:href="#c"/>
                </mask>
                <path fill="#5A5A5A" d="M111.474 53.117l-4.55-31.58c0-11.83-9.59-21.419-21.422-21.419-7.254 0-13.663 3.61-17.536 9.126H43.58C39.706 3.728 33.3.118 26.044.118c-11.83 0-21.42 9.588-21.42 21.42L.073 53.118s-1.35 10.527 7.589 14.287c0 0 2.97 1.605 6.769 1.605 3.092 0 6.731-1.063 9.758-4.928l14.336-18.808s1.515-3.372 6.409-3.372h21.678c4.895 0 6.41 3.372 6.41 3.372l14.335 18.808c3.028 3.865 6.668 4.928 9.76 4.928 3.798 0 6.77-1.605 6.77-1.605 8.938-3.76 7.587-14.288 7.587-14.288" mask="url(#d)"/>
            </g>
            <path fill="#D6D7D7" d="M66.848 65.812c0 9.775-7.928 17.702-17.704 17.702-9.775 0-17.703-7.927-17.703-17.702 0-9.779 7.928-17.705 17.703-17.705 9.776 0 17.704 7.926 17.704 17.705M126.305 65.812c0 9.775-7.927 17.702-17.703 17.702-9.777 0-17.703-7.927-17.703-17.702 0-9.779 7.926-17.705 17.703-17.705 9.776 0 17.703 7.926 17.703 17.705"/>
            <path fill="#FF7900" d="M55.381 61.885H53.07v-2.312a3.738 3.738 0 0 0-3.738-3.738h-.375a3.739 3.739 0 0 0-3.738 3.738v2.312h-2.312a3.739 3.739 0 0 0-3.738 3.738v.375a3.74 3.74 0 0 0 3.738 3.738h2.312v2.312a3.739 3.739 0 0 0 3.738 3.737h.375a3.738 3.738 0 0 0 3.738-3.737v-2.312h2.312a3.739 3.739 0 0 0 3.738-3.738v-.375a3.739 3.739 0 0 0-3.738-3.738"/>
            <path fill="#000" d="M112.981 56.466c0 2.42-1.96 4.38-4.38 4.38-2.419 0-4.379-1.96-4.379-4.38s1.96-4.379 4.38-4.379c2.419 0 4.38 1.96 4.38 4.38"/>
            <path fill="#FF7900" d="M103.45 65.812a4.378 4.378 0 0 1-4.38 4.377 4.38 4.38 0 1 1 4.379-4.378M122.14 65.812a4.378 4.378 0 0 1-4.38 4.377 4.379 4.379 0 1 1 0-8.758 4.38 4.38 0 0 1 4.38 4.38"/>
            <path fill="#000" d="M112.981 75.156a4.38 4.38 0 1 1-8.759 0 4.38 4.38 0 1 1 8.76 0"/>
            <path fill="#56B685" d="M76.69 67.692a.374.374 0 0 1-.374.374h-5.048a.375.375 0 0 1-.375-.374v-4.115c0-.205.169-.373.375-.373h5.048c.207 0 .374.168.374.373v4.115z"/>
            <path fill="#A084BC" d="M87.069 67.692a.374.374 0 0 1-.374.374h-5.048a.375.375 0 0 1-.375-.374v-4.115c0-.205.168-.373.375-.373h5.048c.207 0 .374.168.374.373v4.115z"/>
        </g>
    </g>
</svg>
