<svg id="Calque_1" data-name="Calque 1" xmlns="http://www.w3.org/2000/svg" viewBox="0 0 154 154"><title>Jeux en Ligne</title><g id="_Groupe_" data-name="&lt;Groupe&gt;"><path d="M154,77c0,42.42-35.25,77-77.5,77A76.65,76.65,0,0,1,0,77.2C0,34.78,34.75,0,77,0A77.25,77.25,0,0,1,154,77Z" style="fill:#4bb3e6"/></g><g id="_Groupe_2" data-name="&lt;Groupe&gt;"><path d="M133,105.48l.13,0-4.76-31.9A20.18,20.18,0,0,0,91.58,62l-24.83.22a20.16,20.16,0,0,0-36,5.13l-.29,0-5.67,39.14.2.05q0,.34,0,.68a13,13,0,0,0,24.61,5.85l.1,0,14-17.38a4.12,4.12,0,0,1,3.22-1.54H91.23a4.12,4.12,0,0,1,3.25,1.58l14.32,18.26L109,114a13,13,0,0,0,24.13-6.72A13.19,13.19,0,0,0,133,105.48Z" style="fill:#5a5a5a"/></g><g id="_Groupe_3" data-name="&lt;Groupe&gt;"><ellipse cx="49.77" cy="75.94" rx="17.3" ry="17.36" style="fill:#d5d6d6"/></g><g id="_Groupe_4" data-name="&lt;Groupe&gt;"><ellipse cx="108.15" cy="75.94" rx="17.3" ry="17.36" style="fill:#d5d6d6"/></g><g id="_Groupe_5" data-name="&lt;Groupe&gt;"><ellipse cx="108.06" cy="66.66" rx="4.21" ry="4.23"/></g><g id="_Groupe_6" data-name="&lt;Groupe&gt;"><ellipse cx="108.06" cy="84.85" rx="4.21" ry="4.23"/></g><g id="_Groupe_7" data-name="&lt;Groupe&gt;"><ellipse cx="98.82" cy="75.57" rx="4.12" ry="4.13" style="fill:#ff7901"/></g><g id="_Groupe_8" data-name="&lt;Groupe&gt;"><ellipse cx="116.94" cy="75.57" rx="4.12" ry="4.13" style="fill:#ff7901"/></g><g id="_Groupe_9" data-name="&lt;Groupe&gt;"><rect x="46.38" y="66.48" width="7.32" height="18.74" rx="3.25" ry="3.25" style="fill:#ff7901"/></g><g id="_Groupe_10" data-name="&lt;Groupe&gt;"><rect x="46.37" y="66.51" width="7.35" height="18.67" rx="3.25" ry="3.25" transform="translate(125.89 25.8) rotate(90)" style="fill:#ff7901"/></g><g id="_Groupe_11" data-name="&lt;Groupe&gt;"><rect x="71.09" y="73.09" width="6.22" height="5.14" style="fill:#56b584"/></g><g id="_Groupe_12" data-name="&lt;Groupe&gt;"><rect x="81.16" y="73.09" width="6.22" height="5.14" style="fill:#9f83bb"/></g><g id="_Groupe_13" data-name="&lt;Groupe&gt;"><g id="_Groupe_14" data-name="&lt;Groupe&gt;"><path d="M58.82,96.85a.61.61,0,0,0,0-1.23.61.61,0,0,0,0,1.23Z" style="fill:#fdfdfd"/></g></g><g id="_Groupe_15" data-name="&lt;Groupe&gt;"><g id="_Groupe_16" data-name="&lt;Groupe&gt;"><path d="M55.48,100.52l-.91,1a.63.63,0,0,0,0,.87.61.61,0,0,0,.86,0l.91-1a.63.63,0,0,0,0-.87.61.61,0,0,0-.86,0Z" style="fill:#fdfdfd"/></g></g><g id="_Groupe_17" data-name="&lt;Groupe&gt;"><g id="_Groupe_18" data-name="&lt;Groupe&gt;"><path d="M51.33,105.78l-.32.64a.63.63,0,0,0,.22.84.61.61,0,0,0,.83-.22l.32-.64a.63.63,0,0,0-.22-.84.61.61,0,0,0-.83.22Z" style="fill:#fdfdfd"/></g></g><g id="_Groupe_19" data-name="&lt;Groupe&gt;"><g id="_Groupe_20" data-name="&lt;Groupe&gt;"><path d="M47.24,111.2l-1,1.27a.62.62,0,0,0,.22.84.62.62,0,0,0,.83-.22l1-1.27a.62.62,0,0,0-.22-.84.62.62,0,0,0-.83.22Z" style="fill:#fdfdfd"/></g></g><g id="_Groupe_21" data-name="&lt;Groupe&gt;"><g id="_Groupe_22" data-name="&lt;Groupe&gt;"><path d="M43,116.63l-.93.67a.63.63,0,0,0-.22.84.61.61,0,0,0,.83.22l.93-.67a.63.63,0,0,0,.22-.84.61.61,0,0,0-.83-.22Z" style="fill:#fdfdfd"/></g></g><g id="_Groupe_23" data-name="&lt;Groupe&gt;"><g id="_Groupe_24" data-name="&lt;Groupe&gt;"><path d="M97.36,94.72l1.85,2c.54.57,1.41-.3.86-.87l-1.85-2c-.54-.57-1.41.3-.86.87Z" style="fill:#fdfdfd"/></g></g><g id="_Groupe_25" data-name="&lt;Groupe&gt;"><g id="_Groupe_26" data-name="&lt;Groupe&gt;"><path d="M101.16,99.17l1.56,1.61c.55.57,1.41-.3.86-.87L102,98.3c-.55-.57-1.41.3-.86.87Z" style="fill:#fdfdfd"/></g></g><g id="_Groupe_27" data-name="&lt;Groupe&gt;"><g id="_Groupe_28" data-name="&lt;Groupe&gt;"><path d="M104.6,104l1.58,1.27a.63.63,0,0,0,.86,0,.62.62,0,0,0,0-.87l-1.58-1.27a.63.63,0,0,0-.86,0,.62.62,0,0,0,0,.87Z" style="fill:#fdfdfd"/></g></g><g id="_Groupe_29" data-name="&lt;Groupe&gt;"><g id="_Groupe_30" data-name="&lt;Groupe&gt;"><path d="M109.47,109.79a9.09,9.09,0,0,1,2.63,2.32c.47.62,1.53,0,1.05-.62a10.62,10.62,0,0,0-3.07-2.76.61.61,0,0,0-.62,1.06Z" style="fill:#fdfdfd"/></g></g><g id="_Groupe_31" data-name="&lt;Groupe&gt;"><g id="_Groupe_32" data-name="&lt;Groupe&gt;"><path d="M114.83,115.22l2.52,1.62c.66.43,1.28-.63.62-1.06l-2.52-1.62c-.66-.43-1.28.63-.62,1.06Z" style="fill:#fdfdfd"/></g></g><g id="_Groupe_33" data-name="&lt;Groupe&gt;"><g id="_Groupe_34" data-name="&lt;Groupe&gt;"><path d="M121.17,117.82h.63a.61.61,0,0,0,0-1.23h-.63a.61.61,0,0,0,0,1.23Z" style="fill:#fdfdfd"/></g></g><g id="_Groupe_35" data-name="&lt;Groupe&gt;"><g id="_Groupe_36" data-name="&lt;Groupe&gt;"><path d="M89.69,61.12a16.87,16.87,0,0,1,4.74-14.44c1.54-1.52,3.62-3.1,5.94-2,.8.38,1.41,1.13,2.2,1.55a7.35,7.35,0,0,0,4.67.72,7,7,0,0,0,5.92-6.68c.11-3.08-1.72-6.46-4.94-7-3.55-.59-4.62,2.8-3.68,5.66A8.62,8.62,0,0,0,112,44.78c2.49.14,4.8-1,7.24-1.25a10.08,10.08,0,0,1,8.1,3.09c4.12,3.87,6,9.58,7.86,14.77C138.32,70,143,80.65,153.41,81.5c.78.06.78-1.16,0-1.23-9.12-.74-13.67-10-16.43-17.59-2.52-6.94-5-15.77-12.15-19.35-3.5-1.75-6.45-.81-10.07-.05A7.43,7.43,0,0,1,106,39.37c-.93-2-.75-5.34,2.11-4.86,2.57.43,3.91,3.36,3.8,5.74a5.77,5.77,0,0,1-4.42,5.37,6.55,6.55,0,0,1-5.7-1.42A4.58,4.58,0,0,0,98,43.12c-3.52.64-6.39,4.41-7.88,7.43a18.34,18.34,0,0,0-1.65,10.89c.12.78,1.29.45,1.18-.33Z" style="fill:#fdfdfd"/></g></g><g id="_Groupe_37" data-name="&lt;Groupe&gt;"><g id="_Groupe_38" data-name="&lt;Groupe&gt;"><path d="M28.93,42.22a15.44,15.44,0,0,0,3.66,3.56c1.3.9,2.52-1.23,1.23-2.12A11.91,11.91,0,0,1,31,41a1.26,1.26,0,0,0-1.67-.44,1.24,1.24,0,0,0-.44,1.68Z" style="fill:#fdfdfd"/></g></g><g id="_Groupe_39" data-name="&lt;Groupe&gt;"><g id="_Groupe_40" data-name="&lt;Groupe&gt;"><path d="M41.83,31.42A46.29,46.29,0,0,0,45,38.11a1.22,1.22,0,0,0,2.11-1.24,42.33,42.33,0,0,1-3-6.11c-.56-1.45-2.92-.82-2.35.65Z" style="fill:#fdfdfd"/></g></g><g id="_Groupe_41" data-name="&lt;Groupe&gt;"><g id="_Groupe_42" data-name="&lt;Groupe&gt;"><path d="M59.84,24.44l2.48,8.28a1.22,1.22,0,0,0,2.35-.65L62.2,23.79a1.22,1.22,0,0,0-2.35.65Z" style="fill:#fdfdfd"/></g></g><g id="_Groupe_43" data-name="&lt;Groupe&gt;"><g id="_Groupe_44" data-name="&lt;Groupe&gt;"><path d="M79.46,21.87a11.61,11.61,0,0,0,.35,8c.6,1.43,3,.8,2.35-.65a9.48,9.48,0,0,1-.35-6.66c.47-1.51-1.89-2.16-2.35-.65Z" style="fill:#fdfdfd"/></g></g><g id="_Groupe_45" data-name="&lt;Groupe&gt;"><g id="_Groupe_46" data-name="&lt;Groupe&gt;"><path d="M97.78,25,97,29.83c-.27,1.54,2.08,2.2,2.35.65l.83-4.79c.27-1.54-2.08-2.2-2.35-.65Z" style="fill:#fdfdfd"/></g></g><g id="_Groupe_47" data-name="&lt;Groupe&gt;"><g id="_Groupe_48" data-name="&lt;Groupe&gt;"><path d="M116.82,77.09a1.23,1.23,0,0,0,0-2.45,1.23,1.23,0,0,0,0,2.45Z" style="fill:#fdfdfd"/></g></g><g id="_Groupe_49" data-name="&lt;Groupe&gt;"><g id="_Groupe_50" data-name="&lt;Groupe&gt;"><path d="M108.43,86.49a1.23,1.23,0,0,0,0-2.45,1.23,1.23,0,0,0,0,2.45Z" style="fill:#fdfdfd"/></g></g><g id="_Groupe_51" data-name="&lt;Groupe&gt;"><g id="_Groupe_52" data-name="&lt;Groupe&gt;"><path d="M99.43,77a1.23,1.23,0,0,0,0-2.45,1.23,1.23,0,0,0,0,2.45Z" style="fill:#fdfdfd"/></g></g><g id="_Groupe_53" data-name="&lt;Groupe&gt;"><g id="_Groupe_54" data-name="&lt;Groupe&gt;"><path d="M109.17,67.06a1.23,1.23,0,0,0,0-2.45,1.23,1.23,0,0,0,0,2.45Z" style="fill:#fdfdfd"/></g></g><g id="_Groupe_55" data-name="&lt;Groupe&gt;"><g id="_Groupe_56" data-name="&lt;Groupe&gt;"><path d="M71.2,78.95h5.67a.61.61,0,0,0,0-1.23H71.2a.61.61,0,0,0,0,1.23Z" style="fill:#fdfdfd"/></g></g><g id="_Groupe_57" data-name="&lt;Groupe&gt;"><g id="_Groupe_58" data-name="&lt;Groupe&gt;"><path d="M81.19,78.95H87.1a.61.61,0,0,0,0-1.23H81.19a.61.61,0,0,0,0,1.23Z" style="fill:#fdfdfd"/></g></g><g id="_Groupe_59" data-name="&lt;Groupe&gt;"><g id="_Groupe_60" data-name="&lt;Groupe&gt;"><path d="M43.58,80.19H46A.61.61,0,0,0,46,79H43.58a.61.61,0,0,0,0,1.23Z" style="fill:#fdfdfd"/></g></g><g id="_Groupe_61" data-name="&lt;Groupe&gt;"><g id="_Groupe_62" data-name="&lt;Groupe&gt;"><path d="M45.68,79.82v3a.61.61,0,0,0,1.22,0v-3a.61.61,0,0,0-1.22,0Z" style="fill:#fdfdfd"/></g></g><g id="_Groupe_63" data-name="&lt;Groupe&gt;"><g id="_Groupe_64" data-name="&lt;Groupe&gt;"><path d="M43.5,72.9a17.62,17.62,0,0,1,2.79-.29.61.61,0,0,0,0-1.23,19.7,19.7,0,0,0-3.11.33c-.77.14-.44,1.32.32,1.18Z" style="fill:#fdfdfd"/></g></g><g id="_Groupe_65" data-name="&lt;Groupe&gt;"><g id="_Groupe_66" data-name="&lt;Groupe&gt;"><path d="M46.9,72.27V68.68a.61.61,0,0,0-1.22,0v3.59a.61.61,0,0,0,1.22,0Z" style="fill:#fdfdfd"/></g></g><g id="_Groupe_67" data-name="&lt;Groupe&gt;"><g id="_Groupe_68" data-name="&lt;Groupe&gt;"><path d="M38,117.65l-1-.5a.61.61,0,0,0-.62,1.06l1,.5a.61.61,0,0,0,.62-1.06Z" style="fill:#fdfdfd"/></g></g><g id="_Groupe_69" data-name="&lt;Groupe&gt;"><g id="_Groupe_70" data-name="&lt;Groupe&gt;"><path d="M32.33,115.65l-1-1a.61.61,0,0,0-.86.87l1,1a.61.61,0,0,0,.86-.87Z" style="fill:#fdfdfd"/></g></g><g id="_Groupe_71" data-name="&lt;Groupe&gt;"><g id="_Groupe_72" data-name="&lt;Groupe&gt;"><path d="M29.49,108.32v-.49a.61.61,0,0,0-1.22,0v.49a.61.61,0,0,0,1.22,0Z" style="fill:#fdfdfd"/></g></g><g id="_Groupe_73" data-name="&lt;Groupe&gt;"><g id="_Groupe_74" data-name="&lt;Groupe&gt;"><path d="M29,102.61l.88-3a.61.61,0,0,0-1.18-.33l-.88,3a.61.61,0,0,0,1.18.33Z" style="fill:#fdfdfd"/></g></g><g id="_Groupe_75" data-name="&lt;Groupe&gt;"><g id="_Groupe_76" data-name="&lt;Groupe&gt;"><path d="M30.44,93.78l.88-2.48c.26-.74-.91-1.06-1.18-.33l-.88,2.48c-.26.74.91,1.06,1.18.33Z" style="fill:#fdfdfd"/></g></g><g id="_Groupe_77" data-name="&lt;Groupe&gt;"><g id="_Groupe_78" data-name="&lt;Groupe&gt;"><path d="M31.31,84.93l.49-1.47c.25-.75-.93-1.07-1.18-.33l-.49,1.47c-.25.75.93,1.07,1.18.33Z" style="fill:#fdfdfd"/></g></g><g id="_Groupe_79" data-name="&lt;Groupe&gt;"><g id="_Groupe_80" data-name="&lt;Groupe&gt;"><path d="M126.77,115.16l1.45-1a.63.63,0,0,0,.22-.84.61.61,0,0,0-.83-.22l-1.45,1a.63.63,0,0,0-.22.84.61.61,0,0,0,.83.22Z" style="fill:#fdfdfd"/></g></g><g id="_Groupe_81" data-name="&lt;Groupe&gt;"><g id="_Groupe_82" data-name="&lt;Groupe&gt;"><path d="M129.07,111.26v-2a.61.61,0,0,0-1.22,0v2a.61.61,0,0,0,1.22,0Z" style="fill:#fdfdfd"/></g></g><g id="_Groupe_83" data-name="&lt;Groupe&gt;"><g id="_Groupe_84" data-name="&lt;Groupe&gt;"><path d="M129,103.08a6.9,6.9,0,0,0-.24-3.82c-.26-.74-1.44-.42-1.18.33a5.68,5.68,0,0,1,.24,3.17c-.16.77,1,1.1,1.18.33Z" style="fill:#fdfdfd"/></g></g><g id="_Groupe_85" data-name="&lt;Groupe&gt;"><g id="_Groupe_86" data-name="&lt;Groupe&gt;"><path d="M128,93.78a3.82,3.82,0,0,0-.51-2.93c-.43-.66-1.48,0-1.05.62a2.57,2.57,0,0,1,.38,2c-.17.77,1,1.1,1.18.33Z" style="fill:#fdfdfd"/></g></g><g id="_Groupe_87" data-name="&lt;Groupe&gt;"><g id="_Groupe_88" data-name="&lt;Groupe&gt;"><path d="M127.12,85.78V84.31a.61.61,0,0,0-1.22,0v1.47a.61.61,0,0,0,1.22,0Z" style="fill:#fdfdfd"/></g></g></svg>