<svg xmlns="http://www.w3.org/2000/svg" xmlns:xlink="http://www.w3.org/1999/xlink" width="40" height="40" viewBox="0 0 40 40">
    <defs>
        <path id="a" d="M37.5 1h-35C1.121 1.004.004 2.136 0 3.533v32.934C.004 37.864 1.121 38.996 2.5 39h35c1.379-.004 2.496-1.136 2.5-2.533V3.533C39.996 2.136 38.879 1.004 37.5 1zm-10 3.33c0-.44.352-.797.787-.797h2.175c.21 0 .41.084.557.234.148.15.231.352.231.564v2.204a.803.803 0 0 1-.23.565.782.782 0 0 1-.557.233h-2.176a.792.792 0 0 1-.787-.797V4.33zm-6.25 0c0-.44.352-.797.787-.797h2.175c.21 0 .41.084.557.234.148.15.231.352.231.564v2.204a.803.803 0 0 1-.23.565.782.782 0 0 1-.557.233h-2.176a.792.792 0 0 1-.787-.797V4.33zm-6.25 0c0-.44.352-.797.787-.797h2.175c.21 0 .41.084.557.234.148.15.231.352.231.564v2.204a.803.803 0 0 1-.23.565.782.782 0 0 1-.557.233h-2.176A.792.792 0 0 1 15 6.536V4.33zm-6.25 0c0-.44.352-.797.787-.797h2.175c.21 0 .41.084.557.234.148.15.231.352.231.564v2.204a.803.803 0 0 1-.23.565.782.782 0 0 1-.557.233H9.537a.792.792 0 0 1-.787-.797V4.33zm-6.25 0c0-.44.352-.797.787-.797h2.176c.208 0 .409.084.556.234.148.15.231.352.231.564v2.204a.803.803 0 0 1-.23.565.782.782 0 0 1-.557.233H3.287a.792.792 0 0 1-.787-.797V4.33zM6.25 35.67a.803.803 0 0 1-.23.564.782.782 0 0 1-.557.234H3.287a.792.792 0 0 1-.787-.798v-2.205c0-.44.352-.797.787-.797h2.176c.208 0 .409.083.556.233.148.15.231.353.231.564v2.205zm6.25 0a.803.803 0 0 1-.23.564.782.782 0 0 1-.557.234H9.537a.792.792 0 0 1-.787-.798v-2.205c0-.44.352-.797.787-.797h2.175c.21 0 .41.083.557.233.148.15.231.353.231.564v2.205zm6.25 0a.803.803 0 0 1-.23.564.782.782 0 0 1-.557.234h-2.176a.792.792 0 0 1-.787-.798v-2.205c0-.44.352-.797.787-.797h2.175c.21 0 .41.083.557.233.148.15.231.353.231.564v2.205zm6.25 0a.803.803 0 0 1-.23.564.782.782 0 0 1-.557.234h-2.176a.792.792 0 0 1-.787-.798v-2.205c0-.44.352-.797.787-.797h2.175c.21 0 .41.083.557.233.148.15.231.353.231.564v2.205zm6.25 0a.803.803 0 0 1-.23.564.782.782 0 0 1-.557.234h-2.176a.792.792 0 0 1-.787-.798v-2.205c0-.44.352-.797.787-.797h2.175c.21 0 .41.083.557.233.148.15.231.353.231.564v2.205zm6.25 0a.803.803 0 0 1-.23.564.782.782 0 0 1-.557.234h-2.176a.792.792 0 0 1-.787-.798v-2.205c0-.44.352-.797.787-.797h2.175c.21 0 .41.083.557.233.148.15.231.353.231.564v2.205zm0-6.46a.93.93 0 0 1-.267.653.906.906 0 0 1-.645.271H3.412a.918.918 0 0 1-.912-.924V10.791c0-.51.408-.924.912-.924h33.176c.504 0 .912.413.912.924v18.418zm0-22.674a.803.803 0 0 1-.23.565.782.782 0 0 1-.557.233h-2.176a.792.792 0 0 1-.787-.797V4.33c0-.44.352-.798.787-.798h2.175c.21 0 .41.084.557.234.148.15.231.352.231.564v2.204zM16.25 20c2.071 0 3.75-1.701 3.75-3.8 0-2.099-1.679-3.8-3.75-3.8-2.071 0-3.75 1.701-3.75 3.8 0 2.099 1.679 3.8 3.75 3.8zm7.894-2.933l-7.082 7.177a1.14 1.14 0 0 1-1.625 0l-2.187-2.217a1.139 1.139 0 0 0-1.56-.061l-7.94 6.9h32.5L25.81 17.113a1.142 1.142 0 0 0-1.666-.045z"/>
    </defs>
    <g fill="none" fill-rule="evenodd">
        <mask id="b" fill="#fff">
            <use xlink:href="#a"/>
        </mask>
        <g fill="#000" mask="url(#b)">
            <path d="M0 0h40v40H0z"/>
        </g>
    </g>
</svg>
