<svg xmlns="http://www.w3.org/2000/svg" xmlns:xlink="http://www.w3.org/1999/xlink" width="80" height="80" viewBox="0 0 80 80">
    <defs>
        <circle id="a" cx="40" cy="40" r="40"/>
    </defs>
    <g fill="none" fill-rule="evenodd">
        <mask id="b" fill="#fff">
            <use xlink:href="#a"/>
        </mask>
        <use fill="#4BB4E7" fill-rule="nonzero" xlink:href="#a"/>
        <g mask="url(#b)">
            <g transform="translate(21 17)">
                <path fill="#EDC5A4" d="M32.913 32.802c-1.447.425-2.97-.389-3.402-1.82-.43-1.43.393-2.934 1.84-3.36l3.828-1.127c1.446-.426 2.968.388 3.4 1.818.431 1.43-.394 2.936-1.84 3.36l-3.826 1.129M32.913 38.832c-1.447.425-2.97-.388-3.402-1.818-.43-1.431.393-2.935 1.84-3.362l3.828-1.127c1.446-.426 2.968.388 3.4 1.82.431 1.429-.394 2.934-1.84 3.36l-3.826 1.127M32.913 45.364c-1.447.426-2.97-.388-3.402-1.818-.43-1.431.393-2.935 1.84-3.362l3.828-1.126c1.446-.426 2.968.387 3.4 1.818.431 1.43-.394 2.936-1.84 3.36l-3.826 1.128"/>
                <path fill="#714E46" d="M28.56 40.737c0 1.948 3.852 2.392 3.852 5.458 0 0-6.601 8.328-28.895 8.328-1.85 0-3.517-1.58-3.517-3.53V37.198c0-1.95 1.575-3.53 3.517-3.53h17.004a3.523 3.523 0 0 1 3.517 3.53l4.523 3.539"/>
                <path fill="#714E46" d="M5.783 33.686L0 32.412V45.68C0 48.066 1.962 50 4.384 50h8.15c.505-1.389.783-2.885.783-4.444 0-5.21-3.073-9.742-7.534-11.87"/>
                <path fill="#714E46" d="M5.528 33.346c0 1.566-1.237 2.835-2.764 2.835C1.237 36.18 0 34.91 0 33.346v-12.42c0-1.567 1.237-2.836 2.764-2.836 1.527 0 2.764 1.27 2.764 2.836v12.42M3.622 62.829c3.399.337 14.514.293 16.479 0L19.356 50l-16.34.963.606 9.87v1.996z"/>
                <path fill="#000105" d="M5.528 47.236h25.125V0H5.528z"/>
                <path fill="#50BE86" d="M7.035 40.955h22.11V3.015H7.036z"/>
                <path fill="#595959" d="M7.035 9.548h22.11V3.015H7.036z"/>
                <path fill="#E67533" d="M16.856 45.958h3.475v-3.475h-3.475v3.475zm-.273.273h4.02v-4.02h-4.02v4.02z"/>
                <circle cx="18.09" cy="6.784" r="2.764" fill="#FFB401"/>
                <g transform="translate(7.035 9.296)">
                    <path fill="#FFF" stroke="#000" stroke-width=".5" d="M0 6.479h21.828V0H0z"/>
                    <ellipse cx="18.539" cy="3.266" fill="#A885D8" rx="1.871" ry="1.891"/>
                </g>
                <g transform="translate(7.035 15.83)">
                    <path fill="#FFF" stroke="#000" stroke-width=".5" d="M0 6.479h21.828V0H0z"/>
                    <ellipse cx="18.539" cy="3.266" fill="#A885D8" rx="1.871" ry="1.891"/>
                </g>
                <g transform="translate(7.035 22.362)">
                    <path fill="#FFF" stroke="#000" stroke-width=".5" d="M0 6.479h21.828V0H0z"/>
                    <ellipse cx="18.539" cy="3.266" fill="#A885D8" rx="1.871" ry="1.891"/>
                </g>
                <g transform="translate(7.035 29.146)">
                    <path fill="#FFF" stroke="#000" stroke-width=".5" d="M0 6.479h21.828V0H0z"/>
                    <ellipse cx="18.539" cy="3.266" fill="#A885D8" rx="1.871" ry="1.891"/>
                </g>
                <g fill="#714E46">
                    <path d="M27.897 30.638a2.664 2.664 0 0 1-2.214 3.056 2.68 2.68 0 0 1-3.08-2.196l-3.444-20.87a2.662 2.662 0 0 1 2.215-3.055c1.461-.237 2.841.745 3.08 2.196l3.443 20.87M34.287 29.319a2.664 2.664 0 0 1-2.215 3.055c-1.462.237-2.842-.746-3.08-2.196l-.672-4.07a2.664 2.664 0 0 1 2.214-3.056 2.681 2.681 0 0 1 3.082 2.197l.671 4.07M40.734 28.309a2.663 2.663 0 0 1-2.215 3.055c-1.462.237-2.84-.747-3.08-2.196l-.672-4.07a2.663 2.663 0 0 1 2.215-3.056c1.462-.237 2.842.746 3.08 2.196l.672 4.07M47.18 27.3a2.664 2.664 0 0 1-2.214 3.054 2.68 2.68 0 0 1-3.082-2.196l-.67-4.069a2.663 2.663 0 0 1 2.215-3.056 2.68 2.68 0 0 1 3.08 2.197l.672 4.07"/>
                    <path d="M42.082 23.747l-15.903 2.58c-2.38.386-3.993 2.612-3.605 4.972l2.073 12.563 7.181 7.503 14.424-2.34c2.38-.385 3.994-2.613 3.604-4.973l-2.76-16.73c-.389-2.361-2.633-3.961-5.014-3.575"/>
                    <path d="M29.357 32.069a9.691 9.691 0 0 0-6.047 3.533l-7.956-8.314a2.945 2.945 0 0 0-4.138-.112 2.886 2.886 0 0 0-.113 4.104l18.213 19.029c.657.69 1.58.97 2.464.864v.002l.031-.004c.074-.01.148-.023.222-.038l.452-.075c5.295-.859 8.895-5.782 8.03-11.035-.867-5.253-5.862-8.813-11.158-7.954"/>
                    <path d="M31.678 62.563H47.33V43.206H31.678z"/>
                </g>
            </g>
        </g>
    </g>
</svg>
