<svg xmlns="http://www.w3.org/2000/svg" xmlns:xlink="http://www.w3.org/1999/xlink" width="80" height="80" viewBox="0 0 80 80">
    <defs>
        <circle id="a" cx="40" cy="40" r="40"/>
        <path id="c" d="M0 85h52V0H0z"/>
    </defs>
    <g fill="none" fill-rule="evenodd">
        <mask id="b" fill="#fff">
            <use xlink:href="#a"/>
        </mask>
        <use fill="#A885D8" fill-rule="nonzero" xlink:href="#a"/>
        <g mask="url(#b)">
            <g transform="translate(15 10)">
                <path fill="#6C382D" d="M24 50.88c0 1.17 1.12 2.12 2.5 2.12s2.5-.95 2.5-2.12V33.12c0-1.17-1.12-2.12-2.5-2.12s-2.5.95-2.5 2.12v17.76z"/>
                <path fill="#62342D" d="M44 25.5c0 2.485-1.567 4.5-3.5 4.5S37 27.985 37 25.5s1.567-4.5 3.5-4.5 3.5 2.015 3.5 4.5"/>
                <path fill="#7C5346" d="M41 23c0 9.389-6.492 17-14.5 17S12 32.389 12 23 18.492 6 26.5 6 41 13.611 41 23"/>
                <path fill="#6C382D" d="M15 25.5c0 2.485-1.567 4.5-3.5 4.5S8 27.985 8 25.5 9.567 21 11.5 21s3.5 2.015 3.5 4.5"/>
                <path fill="#000" d="M27.37 8.098C22.926 10.793 12.998 17.305 10.564 20c0 0-5.038-18 14.995-18 0 0 17.35 0 14.015 18 0 0-1.892-7.355-8.716-13.814L27.37 8.098zM26.838 68.167l-2.249-23.582L19.54 44 13 46.69V85h28V46.69L34.461 44l-5.377.202z"/>
                <path fill="#000" d="M42.998 85c-1.367-5.197-3.462-10.817-4.928-15.997-.992-3.508-1.602-7.115-2.43-10.664-.4-1.716-.853-3.42-1.374-5.104-.558-1.802-.9-2.73-1.747-4.292-2.423-4.467 4.291-8.455 6.712-3.99 3.516 6.481 4.862 14 6.69 21.05.734 2.832 1.152 5.56 2.176 8.294C49.315 77.553 50.264 81.6 51 85h-8.002zM8.002 85c1.367-5.197 3.462-10.817 4.928-15.997.992-3.508 1.603-7.115 2.43-10.664.4-1.716.853-3.42 1.374-5.104.557-1.802.9-2.73 1.747-4.292 2.423-4.467-4.291-8.455-6.713-3.99-3.515 6.481-4.86 14-6.689 21.05-.734 2.832-1.152 5.56-2.176 8.294C1.685 77.553.736 81.6 0 85h8.002z"/>
                <path fill="#000" d="M27.734 42.087l-2.345 9.419L23.488 42 17 44.786l8.294 29.83.11.384.111-.394L34 44.886z"/>
                <path fill="#A5A5A5" d="M25.154 58.155c-.154 0-.154 0-.154-.155M25.154 65.155c-.154 0-.154 0-.154-.155"/>
                <path fill="#000" d="M32.56 6.06c-1.01.802-2.012 1.545-2.979 2.411-1.021.915-2.015 1.863-3.046 2.767a69.778 69.778 0 0 1-3.165 2.602c-1.078.839-2.26 1.541-3.256 2.487-.287.273.017.756.367.66 2.494-.678 4.78-2.684 6.709-4.404.98-.875 1.952-1.773 2.866-2.725 1.02-1.062 1.913-2.185 2.87-3.3.215-.251-.078-.726-.366-.497M18 24.5c0 1.38-.448 2.5-1 2.5s-1-1.12-1-2.5.448-2.5 1-2.5 1 1.12 1 2.5M16.497 18.95c.434-.293 1.2-.487 2.009-.555.85-.072 1.55.068 2.242.255.124.033.285-.022.246-.08-.31-.46-1.467-.63-2.526-.552-1.14.085-2.017.407-2.45.849-.114.117.33.185.48.084"/>
                <path fill="#000" d="M16.01 22.11c.211.38.505.83.912.89.065.009.106-.11.055-.158-.15-.14-.325-.224-.476-.363a3.157 3.157 0 0 1-.396-.457c-.045-.062-.134.02-.096.088M30 24.5c0 1.38.448 2.5 1 2.5s1-1.12 1-2.5-.448-2.5-1-2.5-1 1.12-1 2.5M34.98 18.867c-.43-.442-1.309-.764-2.448-.849-1.059-.078-2.216.092-2.526.553-.038.057.121.112.246.079.695-.188 1.387-.325 2.242-.255.808.067 1.576.263 2.009.556.148.1.594.035.478-.084M32.895 22.022a3.18 3.18 0 0 1-.396.457c-.15.14-.326.224-.476.363-.051.047-.01.167.055.157.407-.06.7-.508.913-.889.038-.068-.05-.15-.096-.088"/>
                <path fill="#6C382D" d="M24.536 24.094c.09 1.364-.158 3.02-1.192 3.559-.682.355-.243 1.73.386 1.245a3.187 3.187 0 0 0 1.228-2.15c.135-.986-.082-1.76-.282-2.68-.022-.1-.148-.087-.14.026M39.877 22.003c-.55.156-.782 1.32-.855 2.384-.05.724-.056 2.59.46 2.613.037.002.081-.078.076-.165-.041-.71-.208-1.298-.194-2.054.014-.789.146-1.97.547-2.238.13-.088.116-.583-.034-.54"/>
                <path fill="#F6A152" d="M9.089 22.543c.401.268.533 1.448.547 2.238.014.76-.153 1.342-.194 2.054-.005.087.04.167.077.165.515-.023.51-1.889.46-2.613-.074-1.065-.306-2.228-.856-2.384-.148-.042-.166.451-.034.54"/>
                <path fill="#000" d="M12 29.818A2.182 2.182 0 0 1 9.818 32H8.182A2.182 2.182 0 0 1 6 29.818v-7.636C6 20.977 6.977 20 8.182 20h1.636c1.205 0 2.182.977 2.182 2.182v7.636zM40 29.818c0 1.205.977 2.182 2.182 2.182h1.636A2.182 2.182 0 0 0 46 29.818v-7.636A2.182 2.182 0 0 0 43.818 20h-1.636A2.182 2.182 0 0 0 40 22.182v7.636z"/>
                <path stroke="#000" stroke-width="4.75" d="M8 22C8 9.85 15.835 0 25.5 0S43 9.85 43 22"/>
                <path stroke="#000" stroke-width="3.712" d="M41 24c0 6.075-4.477 11-10 11"/>
                <path fill="#000" d="M33 34c0 .552-.895 1-2 1s-2-.448-2-1 .895-1 2-1 2 .448 2 1"/>
                <path fill="#6C382D" d="M22.053 33.805c1.217 1.817 5.064 1.46 5.92-.383.195-.422-.705-.604-.9-.184-.612 1.319-3.382 1.46-4.214.217-.268-.4-1.072-.049-.806.35"/>
                <mask id="d" fill="#fff">
                    <use xlink:href="#c"/>
                </mask>
                <path fill="#FF7900" d="M15 60h7v-7h-7z" mask="url(#d)"/>
            </g>
        </g>
    </g>
</svg>
