<svg id="Calque_1" data-name="Calque 1" xmlns="http://www.w3.org/2000/svg" xmlns:xlink="http://www.w3.org/1999/xlink" viewBox="0 0 154 154"><defs><clipPath id="clip-path"><ellipse cx="77.23" cy="76.92" rx="76.77" ry="77.08" style="fill:none"/></clipPath></defs><title>Streaming Videao</title><g id="_Groupe_" data-name="&lt;Groupe&gt;"><ellipse cx="77" cy="76.69" rx="77" ry="76.69" style="fill:#50bd86"/></g><g id="_Ecrêter_le_groupe_" data-name="&lt;Ecrêter le groupe&gt;"><g style="clip-path:url(#clip-path)"><g id="_Groupe_2" data-name="&lt;Groupe&gt;"><rect x="-10.4" y="86.77" width="163.61" height="69.35" style="fill:#58585b"/></g></g></g><g id="_Groupe_3" data-name="&lt;Groupe&gt;"><path d="M113,88.63h29.66a1.29,1.29,0,0,1,1,.53l3,4.15a1.29,1.29,0,0,1-1,2.05H110a1.29,1.29,0,0,1-1.06-2l2.94-4.15A1.29,1.29,0,0,1,113,88.63Z"/></g><g id="_Groupe_4" data-name="&lt;Groupe&gt;"><polygon points="123.21 94.38 124.19 92.3 132.27 92.3 133.38 94.38 123.21 94.38" style="fill:#58585b"/></g><g id="_Groupe_5" data-name="&lt;Groupe&gt;"><path d="M82,93.28s13.23,2.29,18.78,1.14,16.16-.49,17.47.33,0,3.76.16,4.25-1.47,13.23-4.74,13.88-13.23,0-18-.49-11.1,3.1-17.14,1.63-9.47-4.9-9.14-6.2S80.23,93.12,82,93.28Z" style="fill:#8071b2"/></g><g id="_Groupe_6" data-name="&lt;Groupe&gt;"><path d="M118.27,94.75a2.88,2.88,0,0,0-.77-.27,16.14,16.14,0,0,0-.94,2.83,33.09,33.09,0,0,1-2.31,7.74c-2,4.08-6.64,4.91-10.72,4.23-2.72-.45-5.33-1.41-8-1.88-3.21-.56-6.22.16-9.34.86a18.63,18.63,0,0,1-7.34.51c-3.21-.57-6.2-2.13-9.29-.38.52,1.55,3.81,4.34,9.09,5.62,6,1.47,12.41-2.12,17.14-1.63s14.7,1.14,18,.49,4.9-13.39,4.74-13.88S119.58,95.57,118.27,94.75Z" style="fill:#472f90"/></g><g id="_Groupe_7" data-name="&lt;Groupe&gt;"><path d="M4.14,93S12,78.75,13.28,78.26s17.8-1.63,19.76-.65,10-1,13.55-.65,5.39,1,5.39,2.61-.65,11.1-4.08,13.88S44.47,98.83,39.24,98s-8-2.61-18-.65S2.5,97.2,4.14,93Z" style="fill:#57c2ee"/></g><g id="_Groupe_8" data-name="&lt;Groupe&gt;"><path d="M50.56,77.74a40.71,40.71,0,0,1-2.27,8.54,11.39,11.39,0,0,1-2.72,4.22c-1.36,1.21-2.39,1.14-4.1.83-3.39-.63-6.61,1.21-9.91,1.68s-6.7-.34-10-.73c-5.72-.69-12.53-2-17.63,1.36-.47,3.78,7.91,5.57,17.32,3.72,10-2,12.74-.16,18,.65s5.23-1.8,8.65-4.57S52,81.2,52,79.57A2,2,0,0,0,50.56,77.74Z" style="fill:#1268b1"/></g><g id="_Groupe_9" data-name="&lt;Groupe&gt;"><path d="M42.51,102.59,38.6,94.07a4.16,4.16,0,0,1-.2-3l1.24-4c.54-1.75,2.15-2.94,3.81-3.92H63c1.95,1,3.53,2.12,4.1,3.8l1.55,4.57a4.16,4.16,0,0,1-.31,3.37l-4,7.23a4.16,4.16,0,0,0,.21,4.39l3.22,4.66a4.16,4.16,0,0,1,.16,4.48l-1.68,2.85a4.16,4.16,0,0,1-3.58,2H44.9c-1.39,0-3.91-.24-4.68-1.4L38.1,116c-.94-1.4.29-3.69,1.23-5.09l2.85-4.24A4.16,4.16,0,0,0,42.51,102.59Z" style="fill:#f3801f"/></g><g id="_Groupe_10" data-name="&lt;Groupe&gt;"><path d="M48,86.26H59.62A4.16,4.16,0,0,1,63,88l1.21,1.72a4.16,4.16,0,0,1,.29,4.32l-3.92,7.52a4.16,4.16,0,0,0,.2,4.18l1.33,2a4.16,4.16,0,0,1-2.36,6.27l-.38.11a4.16,4.16,0,0,1-1.13.16H47.9a4.16,4.16,0,0,1-1.58-.31h0a4.16,4.16,0,0,1-1.83-6.22l1.91-2.74a4.16,4.16,0,0,0,.2-4.44L43.11,94.5a4.16,4.16,0,0,1,.13-4.32l1.31-2A4.16,4.16,0,0,1,48,86.26Z" style="fill:#ffe800"/></g><g id="_Groupe_11" data-name="&lt;Groupe&gt;"><rect x="53.64" y="59.79" width="42.07" height="7.97" rx="2.92" ry="2.92" style="fill:#58585b"/></g><g id="_Groupe_12" data-name="&lt;Groupe&gt;"><rect x="72.3" y="64.88" width="5.77" height="26.29" style="fill:#58585b"/></g><g id="_Groupe_13" data-name="&lt;Groupe&gt;"><rect x="106.73" y="51.14" width="41.9" height="29.52" rx="3.45" ry="3.45"/></g><g id="_Groupe_14" data-name="&lt;Groupe&gt;"><rect x="109.02" y="53.13" width="37.54" height="25.3" rx="3.24" ry="3.24" style="fill:#fff"/></g><g id="_Groupe_15" data-name="&lt;Groupe&gt;"><rect x="124.37" y="79.57" width="6.74" height="6.86"/></g><g id="_Groupe_16" data-name="&lt;Groupe&gt;"><rect x="59.15" y="37.89" width="31.32" height="21.88" rx="4.2" ry="4.2" style="fill:#472f90"/></g><g id="_Groupe_17" data-name="&lt;Groupe&gt;"><rect x="61.95" y="39.55" width="24.68" height="18.46" rx="3.94" ry="3.94" style="fill:#fdfdfd"/></g><g id="_Groupe_18" data-name="&lt;Groupe&gt;"><rect x="87.35" y="75.53" width="15.24" height="27.89" rx="3.03" ry="3.03" style="fill:#57c2ee"/></g><g id="_Groupe_19" data-name="&lt;Groupe&gt;"><rect x="88.7" y="78.33" width="12.34" height="21.15" rx="3.81" ry="3.81" style="fill:#fdfdfd"/></g><g id="_Groupe_20" data-name="&lt;Groupe&gt;"><rect x="45.46" y="91.71" width="15.66" height="17.01" rx="0.74" ry="0.74"/></g><g id="_Groupe_21" data-name="&lt;Groupe&gt;"><rect x="46.81" y="93.16" width="12.96" height="14" rx="0.74" ry="0.74" style="fill:#fff"/></g><g id="_Groupe_22" data-name="&lt;Groupe&gt;"><path d="M57.17,92.74H49.41a.36.36,0,0,1-.36-.41l.35-2.8a.36.36,0,0,1,.36-.32h7.06a.36.36,0,0,1,.36.32l.35,2.8A.36.36,0,0,1,57.17,92.74Z"/></g><g id="_Groupe_23" data-name="&lt;Groupe&gt;"><rect x="50.85" y="90.48" width="4.77" height="1.66" style="fill:#ffe800"/></g><g id="_Groupe_24" data-name="&lt;Groupe&gt;"><path d="M49.42,108.46l7.75,0a.36.36,0,0,1,.36.41l-.37,2.8a.36.36,0,0,1-.36.32l-7.06,0a.36.36,0,0,1-.36-.32l-.33-2.8A.36.36,0,0,1,49.42,108.46Z"/></g><g id="_Groupe_25" data-name="&lt;Groupe&gt;"><rect x="50.96" y="109.08" width="4.77" height="1.66" transform="translate(106 220.15) rotate(-179.65)" style="fill:#ffe800"/></g><g id="_Groupe_26" data-name="&lt;Groupe&gt;"><circle cx="53.08" cy="99.95" r="4.96" style="fill:#f3801f"/></g><g id="_Groupe_27" data-name="&lt;Groupe&gt;"><path d="M56.16,99.1c-.23-1.69-1.46-2.08-3-.85-1.52-1.23-2.76-.84-3,.85s2.85,4.17,3,4.27h0C53.3,103.28,56.38,100.76,56.16,99.1Z" style="fill:#fff"/></g><g id="_Groupe_28" data-name="&lt;Groupe&gt;"><polygon points="43.81 78.18 43.81 70.99 23.81 70.99 16.95 76.95 16.95 83.4 21.44 86.83 37.36 86.42 43.81 78.18"/></g><g id="_Groupe_29" data-name="&lt;Groupe&gt;"><polygon points="21.2 80.79 18.38 78.1 18.38 82.63 21.2 85.2 21.2 80.79" style="fill:#f3801f"/></g><g id="_Groupe_30" data-name="&lt;Groupe&gt;"><ellipse cx="24.69" cy="82.5" rx="1.16" ry="1.1" style="fill:#58585b"/></g><g id="_Groupe_31" data-name="&lt;Groupe&gt;"><ellipse cx="29.18" cy="82.5" rx="1.16" ry="1.1" style="fill:#58585b"/></g><g id="_Groupe_32" data-name="&lt;Groupe&gt;"><ellipse cx="33.68" cy="82.5" rx="1.16" ry="1.1" style="fill:#58585b"/></g><g id="_Groupe_33" data-name="&lt;Groupe&gt;"><circle cx="74.78" cy="48.64" r="6.06" style="fill:#f3801f"/></g><g id="_Groupe_34" data-name="&lt;Groupe&gt;"><path id="_Tracé_transparent_" data-name="&lt;Tracé transparent&gt;" d="M88.49,49.93a1.29,1.29,0,1,1,1.29-1.29A1.29,1.29,0,0,1,88.49,49.93Zm0-2.08a.8.8,0,1,0,.8.8A.8.8,0,0,0,88.49,47.85Z" style="fill:#cbcdcf"/></g><g id="_Groupe_35" data-name="&lt;Groupe&gt;"><circle cx="128.66" cy="65.54" r="7.53" style="fill:#f3801f"/></g><g id="_Groupe_36" data-name="&lt;Groupe&gt;"><polygon points="72.88 52.01 72.88 45.03 77.9 48.7 72.88 52.01" style="fill:#fff"/></g><g id="_Groupe_37" data-name="&lt;Groupe&gt;"><polygon points="128.35 60.36 129.93 63.55 133.46 64.07 130.91 66.56 131.51 70.07 128.35 68.41 125.2 70.07 125.8 66.56 123.25 64.07 126.78 63.55 128.35 60.36" style="fill:#fff"/></g><g id="_Groupe_38" data-name="&lt;Groupe&gt;"><polygon points="125.13 83.81 116.97 86.59 138.03 86.59 130.19 83.97 125.13 83.81"/></g><g id="_Groupe_39" data-name="&lt;Groupe&gt;"><circle cx="95" cy="87.97" r="4.98" style="fill:#f3801f"/></g><g id="_Groupe_40" data-name="&lt;Groupe&gt;"><circle cx="95" cy="101.69" r="1.22" style="fill:#fff"/></g><g id="_Groupe_41" data-name="&lt;Groupe&gt;"><rect x="93.89" y="84.99" width="1.85" height="6.01" style="fill:#fdfdfd"/></g><g id="_Groupe_42" data-name="&lt;Groupe&gt;"><rect x="92.02" y="87.38" width="5.92" height="1.68" style="fill:#fdfdfd"/></g><g id="_Groupe_43" data-name="&lt;Groupe&gt;"><rect x="93.1" y="76.36" width="3.56" height="1.01" style="fill:#fdfdfd"/></g><g id="_Groupe_44" data-name="&lt;Groupe&gt;"><g id="_Groupe_45" data-name="&lt;Groupe&gt;"><path d="M137.78,71.24c.05,0,.37,0,.16,0l.2,0c-.09,0,.15.08.18.1s.09.06,0,0l.12.11a.92.92,0,0,0,1.3-1.3,2.61,2.61,0,0,0-2-.79.92.92,0,0,0,0,1.84Z"/></g></g><g id="_Groupe_46" data-name="&lt;Groupe&gt;"><g id="_Groupe_47" data-name="&lt;Groupe&gt;"><path d="M139.64,68.06l.79.27a.92.92,0,0,0,1.13-.64.94.94,0,0,0-.64-1.13l-.79-.27a.92.92,0,0,0-1.13.64.94.94,0,0,0,.64,1.13Z"/></g></g><g id="_Groupe_48" data-name="&lt;Groupe&gt;"><g id="_Groupe_49" data-name="&lt;Groupe&gt;"><path d="M139.34,63l.79-.27a.92.92,0,1,0-.49-1.77l-.79.27a.92.92,0,1,0,.49,1.77Z"/></g></g><g id="_Groupe_50" data-name="&lt;Groupe&gt;"><g id="_Groupe_51" data-name="&lt;Groupe&gt;"><path d="M137.88,58.48l.26-.79a.93.93,0,0,0-.64-1.13.94.94,0,0,0-1.13.64l-.26.79a.93.93,0,0,0,.64,1.13.94.94,0,0,0,1.13-.64Z"/></g></g><g id="_Groupe_52" data-name="&lt;Groupe&gt;"><g id="_Groupe_53" data-name="&lt;Groupe&gt;"><path d="M132.36,56.64a2.13,2.13,0,0,0-.48-1.95.92.92,0,0,0-1.3,0,.94.94,0,0,0,0,1.3c-.13-.15,0,0,0,.06s0-.06,0,0,0-.19,0,0,0-.16,0,.05a.92.92,0,1,0,1.77.49Z"/></g></g><g id="_Groupe_54" data-name="&lt;Groupe&gt;"><g id="_Groupe_55" data-name="&lt;Groupe&gt;"><path d="M124.55,55.46l-.79-.79a.92.92,0,1,0-1.3,1.3l.79.79a.92.92,0,0,0,1.3-1.3Z"/></g></g><g id="_Groupe_56" data-name="&lt;Groupe&gt;"><g id="_Groupe_57" data-name="&lt;Groupe&gt;"><path d="M120.48,57.08c.23,0-.06,0-.13,0,.3,0-.16-.05,0,0s-.12-.07-.15-.09.09.07,0,0-.07-.07,0,0a.94.94,0,0,0-1.26-.33.93.93,0,0,0-.33,1.26,2.27,2.27,0,0,0,2.35.94.92.92,0,0,0,.64-1.13.94.94,0,0,0-1.13-.64Z"/></g></g><g id="_Groupe_58" data-name="&lt;Groupe&gt;"><g id="_Groupe_59" data-name="&lt;Groupe&gt;"><path d="M118.33,60.8l-.79-.26a.93.93,0,0,0-1.13.64.94.94,0,0,0,.64,1.13l.79.26a.93.93,0,0,0,1.13-.64.94.94,0,0,0-.64-1.13Z"/></g></g><g id="_Groupe_60" data-name="&lt;Groupe&gt;"><g id="_Groupe_61" data-name="&lt;Groupe&gt;"><path d="M118.6,65a2.4,2.4,0,0,0-2,.31.92.92,0,0,0,.93,1.59s.32-.17.14-.1l.24-.07c-.19,0,0,0,.08,0s.11,0,0,0l.16,0A.92.92,0,0,0,118.6,65Z"/></g></g><g id="_Groupe_62" data-name="&lt;Groupe&gt;"><g id="_Groupe_63" data-name="&lt;Groupe&gt;"><path d="M118.68,68.73l-1,.52a.92.92,0,0,0-.33,1.26.94.94,0,0,0,1.26.33l1-.52a.92.92,0,0,0,.33-1.26.94.94,0,0,0-1.26-.33Z"/></g></g><g id="_Groupe_64" data-name="&lt;Groupe&gt;"><g id="_Groupe_65" data-name="&lt;Groupe&gt;"><path d="M48.16,30.71l1.06.77A1.23,1.23,0,0,0,50.9,31a1.26,1.26,0,0,0-.44-1.68l-1.06-.77a1.23,1.23,0,0,0-1.68.44,1.26,1.26,0,0,0,.44,1.68Z" style="fill:#fdfdfd"/></g></g><g id="_Groupe_66" data-name="&lt;Groupe&gt;"><g id="_Groupe_67" data-name="&lt;Groupe&gt;"><path d="M52.18,27.37l1.31,2.1a1.22,1.22,0,0,0,2.11-1.24l-1.31-2.1a1.22,1.22,0,1,0-2.11,1.24Z" style="fill:#fdfdfd"/></g></g><g id="_Groupe_68" data-name="&lt;Groupe&gt;"><g id="_Groupe_69" data-name="&lt;Groupe&gt;"><path d="M57.82,24.9a7.27,7.27,0,0,0,.29,3c.46,1.5,2.83.86,2.36-.65a5.49,5.49,0,0,1-.2-2.3A1.23,1.23,0,0,0,59,23.68a1.25,1.25,0,0,0-1.22,1.22Z" style="fill:#fdfdfd"/></g></g><g id="_Groupe_70" data-name="&lt;Groupe&gt;"><g id="_Groupe_71" data-name="&lt;Groupe&gt;"><path d="M65.16,24.45l.53,2.36A1.22,1.22,0,1,0,68,26.16l-.53-2.36a1.22,1.22,0,1,0-2.36.65Z" style="fill:#fdfdfd"/></g></g><g id="_Groupe_72" data-name="&lt;Groupe&gt;"><g id="_Groupe_73" data-name="&lt;Groupe&gt;"><path d="M76,24a6,6,0,0,0-.29,2.69A1.26,1.26,0,0,0,76.9,28a1.23,1.23,0,0,0,1.22-1.22,4.3,4.3,0,0,1,.2-2A1.22,1.22,0,1,0,76,24Z" style="fill:#fdfdfd"/></g></g><g id="_Groupe_74" data-name="&lt;Groupe&gt;"><g id="_Groupe_75" data-name="&lt;Groupe&gt;"><path d="M82.34,23.81a6.53,6.53,0,0,0-.14,3,1.23,1.23,0,0,0,1.51.86,1.25,1.25,0,0,0,.86-1.51,3.75,3.75,0,0,1,.14-1.7,1.23,1.23,0,0,0-2.36-.65Z" style="fill:#fdfdfd"/></g></g><g id="_Groupe_76" data-name="&lt;Groupe&gt;"><g id="_Groupe_77" data-name="&lt;Groupe&gt;"><path d="M91.14,25.17a5,5,0,0,1-.21,2,1.22,1.22,0,1,0,2.36.65,6.86,6.86,0,0,0,.3-2.69,1.26,1.26,0,0,0-1.22-1.22,1.23,1.23,0,0,0-1.22,1.22Z" style="fill:#fdfdfd"/></g></g><g id="_Groupe_78" data-name="&lt;Groupe&gt;"><g id="_Groupe_79" data-name="&lt;Groupe&gt;"><path d="M97.66,27.2,96.36,29a1.23,1.23,0,0,0,.44,1.68,1.26,1.26,0,0,0,1.68-.44l1.3-1.85a1.23,1.23,0,0,0-.44-1.68,1.26,1.26,0,0,0-1.68.44Z" style="fill:#fdfdfd"/></g></g><g id="_Groupe_80" data-name="&lt;Groupe&gt;"><g id="_Groupe_81" data-name="&lt;Groupe&gt;"><path d="M101.82,34.53a1.23,1.23,0,0,0,0-2.45,1.23,1.23,0,0,0,0,2.45Z" style="fill:#fdfdfd"/></g></g><g id="_Groupe_82" data-name="&lt;Groupe&gt;"><g id="_Groupe_83" data-name="&lt;Groupe&gt;"><path d="M10.38,70.33l2.35,1.33A1.23,1.23,0,0,0,14,69.54l-2.35-1.33a1.23,1.23,0,0,0-1.24,2.11Z" style="fill:#fdfdfd"/></g></g><g id="_Groupe_84" data-name="&lt;Groupe&gt;"><g id="_Groupe_85" data-name="&lt;Groupe&gt;"><path d="M16.23,63.59a17.85,17.85,0,0,0,3.05,3.17,1.26,1.26,0,0,0,1.73,0A1.23,1.23,0,0,0,21,65a15.5,15.5,0,0,1-2.67-2.68,1.26,1.26,0,0,0-1.68-.44,1.23,1.23,0,0,0-.44,1.68Z" style="fill:#fdfdfd"/></g></g><g id="_Groupe_86" data-name="&lt;Groupe&gt;"><g id="_Groupe_87" data-name="&lt;Groupe&gt;"><path d="M29.47,56.73a21,21,0,0,0,1.48,4.75c.63,1.44,2.74.2,2.11-1.24a18.51,18.51,0,0,1-1.23-4.16c-.28-1.55-2.64-.89-2.36.65Z" style="fill:#fdfdfd"/></g></g><g id="_Groupe_88" data-name="&lt;Groupe&gt;"><g id="_Groupe_89" data-name="&lt;Groupe&gt;"><path d="M40.75,56.66v5a1.23,1.23,0,0,0,2.45,0v-5a1.23,1.23,0,0,0-2.45,0Z" style="fill:#fdfdfd"/></g></g><g id="_Groupe_90" data-name="&lt;Groupe&gt;"><g id="_Groupe_91" data-name="&lt;Groupe&gt;"><path d="M45.83,63.41l-.26.26a1.22,1.22,0,0,0,1.73,1.73l.26-.26a1.22,1.22,0,1,0-1.73-1.73Z" style="fill:#fdfdfd"/></g></g><g id="_Groupe_92" data-name="&lt;Groupe&gt;"><g id="_Groupe_93" data-name="&lt;Groupe&gt;"><path d="M114.1,90.69l.23-.12a.61.61,0,1,0-.62-1.06l-.23.12a.61.61,0,0,0,.62,1.06Z" style="fill:#58585b"/></g></g><g id="_Groupe_94" data-name="&lt;Groupe&gt;"><g id="_Groupe_95" data-name="&lt;Groupe&gt;"><path d="M116.73,90.88h.59a.61.61,0,0,0,0-1.22h-.59a.61.61,0,0,0,0,1.22Z" style="fill:#58585b"/></g></g><g id="_Groupe_96" data-name="&lt;Groupe&gt;"><g id="_Groupe_97" data-name="&lt;Groupe&gt;"><path d="M120.39,91h.24a.61.61,0,0,0,0-1.22h-.24a.61.61,0,0,0,0,1.22Z" style="fill:#58585b"/></g></g><g id="_Groupe_98" data-name="&lt;Groupe&gt;"><g id="_Groupe_99" data-name="&lt;Groupe&gt;"><path d="M123.57,91h.83a.61.61,0,0,0,0-1.22h-.83a.61.61,0,0,0,0,1.22Z" style="fill:#58585b"/></g></g><g id="_Groupe_100" data-name="&lt;Groupe&gt;"><g id="_Groupe_101" data-name="&lt;Groupe&gt;"><path d="M126.47,91l1.06.14a.63.63,0,0,0,.75-.43.62.62,0,0,0-.43-.75l-1.06-.14a.63.63,0,0,0-.75.43.62.62,0,0,0,.43.75Z" style="fill:#58585b"/></g></g><g id="_Groupe_102" data-name="&lt;Groupe&gt;"><g id="_Groupe_103" data-name="&lt;Groupe&gt;"><path d="M129.93,91.12h1.3a.61.61,0,0,0,0-1.22h-1.3a.61.61,0,0,0,0,1.22Z" style="fill:#58585b"/></g></g><g id="_Groupe_104" data-name="&lt;Groupe&gt;"><g id="_Groupe_105" data-name="&lt;Groupe&gt;"><path d="M133.59,91l1.41-.12a.63.63,0,0,0,.61-.61.62.62,0,0,0-.61-.61l-1.41.12a.63.63,0,0,0-.61.61.62.62,0,0,0,.61.61Z" style="fill:#58585b"/></g></g><g id="_Groupe_106" data-name="&lt;Groupe&gt;"><g id="_Groupe_107" data-name="&lt;Groupe&gt;"><path d="M137.12,90.76h.71a.61.61,0,0,0,0-1.22h-.71a.61.61,0,0,0,0,1.22Z" style="fill:#58585b"/></g></g><g id="_Groupe_108" data-name="&lt;Groupe&gt;"><g id="_Groupe_109" data-name="&lt;Groupe&gt;"><path d="M140.71,90.76l.94-.15a.62.62,0,0,0,.43-.75.63.63,0,0,0-.75-.43l-.94.15a.62.62,0,0,0-.43.75.63.63,0,0,0,.75.43Z" style="fill:#58585b"/></g></g><g id="_Groupe_110" data-name="&lt;Groupe&gt;"><g id="_Groupe_111" data-name="&lt;Groupe&gt;"><path d="M113,92.76a.43.43,0,0,1-.34-.18.63.63,0,0,0,.84.22.62.62,0,0,0,.22-.84.92.92,0,0,0-1-.39.63.63,0,0,0-.43.75.62.62,0,0,0,.75.43Z" style="fill:#58585b"/></g></g><g id="_Groupe_112" data-name="&lt;Groupe&gt;"><g id="_Groupe_113" data-name="&lt;Groupe&gt;"><path d="M115.36,93l.59-.12a.61.61,0,1,0-.33-1.18l-.59.12a.61.61,0,0,0,.33,1.18Z" style="fill:#58585b"/></g></g><g id="_Groupe_114" data-name="&lt;Groupe&gt;"><g id="_Groupe_115" data-name="&lt;Groupe&gt;"><path d="M118.38,93.12H119a.61.61,0,0,0,0-1.22h-.59a.61.61,0,0,0,0,1.22Z" style="fill:#58585b"/></g></g><g id="_Groupe_116" data-name="&lt;Groupe&gt;"><g id="_Groupe_117" data-name="&lt;Groupe&gt;"><path d="M121.56,93.12a.61.61,0,0,0,0-1.22.61.61,0,0,0,0,1.22Z" style="fill:#58585b"/></g></g><g id="_Groupe_118" data-name="&lt;Groupe&gt;"><g id="_Groupe_119" data-name="&lt;Groupe&gt;"><path d="M134.65,93h.94a.61.61,0,0,0,0-1.22h-.94a.61.61,0,0,0,0,1.22Z" style="fill:#58585b"/></g></g><g id="_Groupe_120" data-name="&lt;Groupe&gt;"><g id="_Groupe_121" data-name="&lt;Groupe&gt;"><path d="M136.89,93h.59a.61.61,0,0,0,0-1.22h-.59a.61.61,0,0,0,0,1.22Z" style="fill:#58585b"/></g></g><g id="_Groupe_122" data-name="&lt;Groupe&gt;"><g id="_Groupe_123" data-name="&lt;Groupe&gt;"><path d="M139.71,92.83l2.71-.18c.78-.05.79-1.28,0-1.22l-2.71.18c-.78.05-.79,1.28,0,1.22Z" style="fill:#58585b"/></g></g><g id="_Groupe_124" data-name="&lt;Groupe&gt;"><g id="_Groupe_125" data-name="&lt;Groupe&gt;"><path d="M90.44,84.53l.12-.24a.63.63,0,0,0-.22-.84.62.62,0,0,0-.84.22l-.12.24a.63.63,0,0,0,.22.84.62.62,0,0,0,.84-.22Z" style="fill:#f3801f"/></g></g><g id="_Groupe_126" data-name="&lt;Groupe&gt;"><g id="_Groupe_127" data-name="&lt;Groupe&gt;"><path d="M92.17,83.18l.12-.12a.61.61,0,0,0-.87-.87l-.12.12a.61.61,0,0,0,.87.87Z" style="fill:#f3801f"/></g></g><g id="_Groupe_128" data-name="&lt;Groupe&gt;"><g id="_Groupe_129" data-name="&lt;Groupe&gt;"><path d="M94.48,82.62l.74-.24a.63.63,0,0,0,.43-.75.62.62,0,0,0-.75-.43l-.74.24a.63.63,0,0,0-.43.75.62.62,0,0,0,.75.43Z" style="fill:#f3801f"/></g></g><g id="_Groupe_130" data-name="&lt;Groupe&gt;"><g id="_Groupe_131" data-name="&lt;Groupe&gt;"><path d="M97.18,82.54l.24.12a.63.63,0,0,0,.84-.22.62.62,0,0,0-.22-.84l-.24-.12a.63.63,0,0,0-.84.22.62.62,0,0,0,.22.84Z" style="fill:#f3801f"/></g></g><g id="_Groupe_132" data-name="&lt;Groupe&gt;"><g id="_Groupe_133" data-name="&lt;Groupe&gt;"><path d="M99.14,83.77l.24.12a.63.63,0,0,0,.84-.22.62.62,0,0,0-.22-.84l-.24-.12a.63.63,0,0,0-.84.22.62.62,0,0,0,.22.84Z" style="fill:#f3801f"/></g></g><g id="_Groupe_134" data-name="&lt;Groupe&gt;"><g id="_Groupe_135" data-name="&lt;Groupe&gt;"><path d="M100,91.61a.43.43,0,0,1,.17-.33.63.63,0,0,0-.22.84.62.62,0,0,0,.84.22.93.93,0,0,0,.39-1.06.63.63,0,0,0-.75-.43.62.62,0,0,0-.43.75Z" style="fill:#f3801f"/></g></g><g id="_Groupe_136" data-name="&lt;Groupe&gt;"><g id="_Groupe_137" data-name="&lt;Groupe&gt;"><path d="M97.55,94l-.86.37a.62.62,0,0,0-.22.84.63.63,0,0,0,.84.22l.86-.37a.62.62,0,0,0,.22-.84.63.63,0,0,0-.84-.22Z" style="fill:#f3801f"/></g></g><g id="_Groupe_138" data-name="&lt;Groupe&gt;"><g id="_Groupe_139" data-name="&lt;Groupe&gt;"><path d="M94.47,94.53l-.37-.12a.61.61,0,0,0-.33,1.18l.37.12a.61.61,0,1,0,.33-1.18Z" style="fill:#f3801f"/></g></g><g id="_Groupe_140" data-name="&lt;Groupe&gt;"><g id="_Groupe_141" data-name="&lt;Groupe&gt;"><path d="M92.4,93.72l-.24-.25c-.55-.57-1.41.3-.87.87l.24.25c.55.57,1.41-.3.87-.87Z" style="fill:#f3801f"/></g></g><g id="_Groupe_142" data-name="&lt;Groupe&gt;"><g id="_Groupe_143" data-name="&lt;Groupe&gt;"><path d="M90.43,92l-.24-.37a.63.63,0,0,0-.84-.22.62.62,0,0,0-.22.84l.24.37a.63.63,0,0,0,.84.22.62.62,0,0,0,.22-.84Z" style="fill:#f3801f"/></g></g><g id="_Groupe_144" data-name="&lt;Groupe&gt;"><g id="_Groupe_145" data-name="&lt;Groupe&gt;"><path d="M19.36,77.48h.12a.61.61,0,0,0,0-1.22h-.12a.61.61,0,0,0,0,1.22Z" style="fill:#58585b"/></g></g><g id="_Groupe_146" data-name="&lt;Groupe&gt;"><g id="_Groupe_147" data-name="&lt;Groupe&gt;"><path d="M21.81,77.85h.49a.61.61,0,0,0,0-1.22h-.49a.61.61,0,0,0,0,1.22Z" style="fill:#58585b"/></g></g><g id="_Groupe_148" data-name="&lt;Groupe&gt;"><g id="_Groupe_149" data-name="&lt;Groupe&gt;"><path d="M24.75,77.85H25a.61.61,0,0,0,0-1.22h-.24a.61.61,0,0,0,0,1.22Z" style="fill:#58585b"/></g></g><g id="_Groupe_150" data-name="&lt;Groupe&gt;"><g id="_Groupe_151" data-name="&lt;Groupe&gt;"><path d="M27.44,78.22h1a.61.61,0,0,0,0-1.22h-1a.61.61,0,0,0,0,1.22Z" style="fill:#58585b"/></g></g><g id="_Groupe_152" data-name="&lt;Groupe&gt;"><g id="_Groupe_153" data-name="&lt;Groupe&gt;"><path d="M29.89,78.34a.61.61,0,0,0,0-1.22.61.61,0,0,0,0,1.22Z" style="fill:#58585b"/></g></g><g id="_Groupe_154" data-name="&lt;Groupe&gt;"><g id="_Groupe_155" data-name="&lt;Groupe&gt;"><path d="M33,78.34h.61a.61.61,0,0,0,0-1.22H33a.61.61,0,0,0,0,1.22Z" style="fill:#58585b"/></g></g><g id="_Groupe_156" data-name="&lt;Groupe&gt;"><g id="_Groupe_157" data-name="&lt;Groupe&gt;"><path d="M36.67,77.7a1.14,1.14,0,0,0,.75-.51.62.62,0,0,0-.22-.84.63.63,0,0,0-.84.22c0-.05.09-.06,0,0a.62.62,0,0,0-.43.75.63.63,0,0,0,.75.43Z" style="fill:#58585b"/></g></g><g id="_Groupe_158" data-name="&lt;Groupe&gt;"><g id="_Groupe_159" data-name="&lt;Groupe&gt;"><path d="M39.76,75.44l.49-.37a.63.63,0,0,0,.22-.84.62.62,0,0,0-.84-.22l-.49.37a.63.63,0,0,0-.22.84.62.62,0,0,0,.84.22Z" style="fill:#58585b"/></g></g><g id="_Groupe_160" data-name="&lt;Groupe&gt;"><g id="_Groupe_161" data-name="&lt;Groupe&gt;"><path d="M41.7,73.62l.62-.61c.56-.55-.3-1.42-.87-.87l-.62.61c-.56.55.3,1.42.87.87Z" style="fill:#58585b"/></g></g><g id="_Groupe_162" data-name="&lt;Groupe&gt;"><g id="_Groupe_163" data-name="&lt;Groupe&gt;"><path d="M35.89,78.46v.12a.61.61,0,0,0,1.22,0v-.12a.61.61,0,0,0-1.22,0Z" style="fill:#58585b"/></g></g><g id="_Groupe_164" data-name="&lt;Groupe&gt;"><g id="_Groupe_165" data-name="&lt;Groupe&gt;"><path d="M36.14,80.67V81a.61.61,0,0,0,1.22,0v-.37a.61.61,0,0,0-1.22,0Z" style="fill:#58585b"/></g></g><g id="_Groupe_166" data-name="&lt;Groupe&gt;"><g id="_Groupe_167" data-name="&lt;Groupe&gt;"><path d="M36.14,83v.49a.61.61,0,0,0,1.22,0V83a.61.61,0,0,0-1.22,0Z" style="fill:#58585b"/></g></g><g id="_Groupe_168" data-name="&lt;Groupe&gt;"><g id="_Groupe_169" data-name="&lt;Groupe&gt;"><path d="M36.44,86.37l.12.12a.61.61,0,0,0,.87-.87l-.12-.12a.61.61,0,0,0-.87.87Z" style="fill:#58585b"/></g></g><g id="_Groupe_170" data-name="&lt;Groupe&gt;"><g id="_Groupe_171" data-name="&lt;Groupe&gt;"><path d="M55.19,62.12l.12-.12a.61.61,0,0,0-.87-.87l-.12.12a.61.61,0,0,0,.87.87Z" style="fill:#58585b"/></g></g><g id="_Groupe_172" data-name="&lt;Groupe&gt;"><g id="_Groupe_173" data-name="&lt;Groupe&gt;"><path d="M55.12,62.79H93.7a.61.61,0,0,0,0-1.22H55.12a.61.61,0,0,0,0,1.22Z" style="fill:#fdfdfd"/></g></g></svg>