<svg id="Calque_1" data-name="Calque 1" xmlns="http://www.w3.org/2000/svg" xmlns:xlink="http://www.w3.org/1999/xlink" viewBox="0 0 154 154"><defs><clipPath id="clip-path"><ellipse cx="77" cy="77.09" rx="77" ry="76.91" style="fill:none"/></clipPath></defs><title>Telechargement</title><g id="_Groupe_" data-name="&lt;Groupe&gt;"><ellipse cx="77" cy="77.09" rx="77" ry="76.91" style="fill:#ff7901"/></g><g id="_Ecrêter_le_groupe_" data-name="&lt;Ecrêter le groupe&gt;"><g style="clip-path:url(#clip-path)"><g id="_Groupe_2" data-name="&lt;Groupe&gt;"><g id="_Groupe_3" data-name="&lt;Groupe&gt;"><ellipse cx="57.03" cy="113.31" rx="75.4" ry="76.05" style="fill:#8e8e8e"/></g><g id="_Groupe_4" data-name="&lt;Groupe&gt;"><g id="_Groupe_5" data-name="&lt;Groupe&gt;"><ellipse cx="57.44" cy="113.06" rx="66.97" ry="66.89" style="fill:#fff"/></g><g id="_Groupe_6" data-name="&lt;Groupe&gt;"><path d="M57.44,181.67a68.61,68.61,0,1,1,68.69-68.61A68.72,68.72,0,0,1,57.44,181.67Zm0-133.78a65.17,65.17,0,1,0,65.25,65.17A65.28,65.28,0,0,0,57.44,47.89Z" style="fill:#595959"/></g></g><g id="_Groupe_7" data-name="&lt;Groupe&gt;"><path d="M24.69,74.31a45.85,45.85,0,0,1,27.35-9A46.35,46.35,0,0,1,60.2,66V54.82l-1.76,0a56.76,56.76,0,0,0-38.31,14.8Z" style="fill:#ffb300"/></g><g id="_Groupe_8" data-name="&lt;Groupe&gt;"><path d="M24.65,74.34l-4.56-4.72A56.69,56.69,0,0,0,1.58,108.81,45.21,45.21,0,0,1,6,112.23c0-.31,0-.63,0-.94A45.88,45.88,0,0,1,24.65,74.34Z" style="fill:#ffd100"/></g><g id="_Groupe_9" data-name="&lt;Groupe&gt;"><path d="M60.25,54.82V66A46,46,0,0,1,97.2,120.19q8.64.73,17.21,1.94A56.89,56.89,0,0,0,60.25,54.82Z" style="fill:#ff7901"/></g><g id="_Groupe_10" data-name="&lt;Groupe&gt;"><ellipse cx="57.41" cy="112.37" rx="10.51" ry="10.5" style="fill:#d5d5d5"/></g><g id="_Groupe_11" data-name="&lt;Groupe&gt;"><ellipse cx="57.41" cy="112.37" rx="7.29" ry="7.28" style="fill:#8d8d8d"/></g><g id="_Groupe_12" data-name="&lt;Groupe&gt;"><ellipse cx="57.41" cy="112.37" rx="4.07" ry="4.06"/></g><g id="_Groupe_13" data-name="&lt;Groupe&gt;"><path d="M58.57,109.66l44.08-3.89s3.39.51-1.53,1.52-41.88,6.77-41.88,6.77Z"/></g></g></g></g><g id="_Groupe_14" data-name="&lt;Groupe&gt;"><g id="_Groupe_15" data-name="&lt;Groupe&gt;"><path d="M11.88,97q.22,0,0,0h.35q-.2,0,0,0s.36.12.15,0c.05,0,.39.27.24.13a1.26,1.26,0,0,0,1.74,0,1.24,1.24,0,0,0,0-1.73,3.46,3.46,0,0,0-3.16-.77,1.24,1.24,0,0,0-.86,1.51,1.25,1.25,0,0,0,1.51.86Z"/></g></g><g id="_Groupe_16" data-name="&lt;Groupe&gt;"><g id="_Groupe_17" data-name="&lt;Groupe&gt;"><path d="M15.79,90l1.46,1a1.24,1.24,0,0,0,1.68-.44,1.26,1.26,0,0,0-.44-1.68L17,87.9a1.24,1.24,0,0,0-1.68.44A1.26,1.26,0,0,0,15.79,90Z"/></g></g><g id="_Groupe_18" data-name="&lt;Groupe&gt;"><g id="_Groupe_19" data-name="&lt;Groupe&gt;"><path d="M21.79,81.66l1,2a1.23,1.23,0,0,0,2.12-1.24l-1-2a1.23,1.23,0,0,0-2.12,1.24Z"/></g></g><g id="_Groupe_20" data-name="&lt;Groupe&gt;"><g id="_Groupe_21" data-name="&lt;Groupe&gt;"><path d="M30.08,76.29l.5,1a1.24,1.24,0,0,0,1.68.44A1.26,1.26,0,0,0,32.7,76l-.5-1a1.24,1.24,0,0,0-1.68-.44,1.26,1.26,0,0,0-.44,1.68Z"/></g></g><g id="_Groupe_22" data-name="&lt;Groupe&gt;"><g id="_Groupe_23" data-name="&lt;Groupe&gt;"><path d="M39.49,72.32l1,2a1.24,1.24,0,0,0,1.68.44A1.25,1.25,0,0,0,42.62,73l-1-2a1.24,1.24,0,0,0-1.68-.44,1.25,1.25,0,0,0-.44,1.68Z"/></g></g><g id="_Groupe_24" data-name="&lt;Groupe&gt;"><g id="_Groupe_25" data-name="&lt;Groupe&gt;"><path d="M48.71,70.9a3.45,3.45,0,0,0,.77,3.16,1.23,1.23,0,1,0,1.74-1.73c.13.16-.11-.18-.13-.24.09.19,0-.1,0-.15-.08-.28,0,.16,0-.14a2.07,2.07,0,0,1,0-.23q0,.2,0,0a1.23,1.23,0,0,0-2.37-.65Z"/></g></g><g id="_Groupe_26" data-name="&lt;Groupe&gt;"><g id="_Groupe_27" data-name="&lt;Groupe&gt;"><path d="M63.87,70.73v2a1.23,1.23,0,0,0,2.46,0v-2a1.23,1.23,0,0,0-2.46,0Z"/></g></g><g id="_Groupe_28" data-name="&lt;Groupe&gt;"><g id="_Groupe_29" data-name="&lt;Groupe&gt;"><path d="M72.43,73.58A4.58,4.58,0,0,0,71.72,77a1.24,1.24,0,0,0,1.51.86,1.26,1.26,0,0,0,.86-1.51,2.15,2.15,0,0,1,.46-1.49,1.24,1.24,0,0,0-.44-1.68,1.25,1.25,0,0,0-1.68.44Z"/></g></g><g id="_Groupe_30" data-name="&lt;Groupe&gt;"><g id="_Groupe_31" data-name="&lt;Groupe&gt;"><path d="M77.15,78.26a3.58,3.58,0,0,0-1,2.36,1.8,1.8,0,0,0,1.81,1.92,1.23,1.23,0,1,0,0-2.45q-.17,0,0,0a.63.63,0,0,1,.46.23.53.53,0,0,1,.15.23q.06.16,0,0c0,.14,0,.23,0,.05s-.07.25,0,0l.07-.23c.07-.27-.12.17,0-.07l.15-.25c-.1.16,0,.05,0,0a1.23,1.23,0,1,0-1.74-1.73Z"/></g></g><g id="_Groupe_32" data-name="&lt;Groupe&gt;"><g id="_Groupe_33" data-name="&lt;Groupe&gt;"><path d="M85.1,83.87a3.21,3.21,0,0,0-1.5,3.37,1.23,1.23,0,0,0,1.51.86A1.26,1.26,0,0,0,86,86.6c.05.34.06-.35,0,0,0-.07.17-.44.05-.23l.11-.19q-.13.15,0,0l.16-.15q-.15.12,0,0a1.23,1.23,0,1,0-1.24-2.12Z"/></g></g><g id="_Groupe_34" data-name="&lt;Groupe&gt;"><g id="_Groupe_35" data-name="&lt;Groupe&gt;"><path d="M88.4,91.82a2.85,2.85,0,0,0-2,3.3,1.23,1.23,0,0,0,1.51.86,1.27,1.27,0,0,0,.86-1.51c0,.11,0,.17,0,0,.06-.29-.07.15,0,0s.08-.23,0-.08.07-.1.07-.11.06,0,0,0l.14-.13c-.11.11-.08.08,0,0s-.25.08,0,0a1.23,1.23,0,1,0-.65-2.37Z"/></g></g><g id="_Groupe_36" data-name="&lt;Groupe&gt;"><g id="_Groupe_37" data-name="&lt;Groupe&gt;"><path d="M90.52,100,90,101a1.23,1.23,0,0,0,2.12,1.24l.49-1A1.23,1.23,0,0,0,90.52,100Z"/></g></g><g id="_Groupe_38" data-name="&lt;Groupe&gt;"><g id="_Groupe_39" data-name="&lt;Groupe&gt;"><path d="M26.11,29.83a6.11,6.11,0,0,0,2.48,3.23,1.23,1.23,0,1,0,1.24-2.12,3.43,3.43,0,0,1-1.35-1.76A1.26,1.26,0,0,0,27,28.32a1.24,1.24,0,0,0-.86,1.51Z" style="fill:#fdfdfd"/></g></g><g id="_Groupe_40" data-name="&lt;Groupe&gt;"><g id="_Groupe_41" data-name="&lt;Groupe&gt;"><path d="M39.39,23.45a13.1,13.1,0,0,0,2,4.29c.9,1.28,3,.06,2.12-1.24a11.14,11.14,0,0,1-1.71-3.7,1.23,1.23,0,0,0-2.37.65Z" style="fill:#fdfdfd"/></g></g><g id="_Groupe_42" data-name="&lt;Groupe&gt;"><g id="_Groupe_43" data-name="&lt;Groupe&gt;"><path d="M62,17.25l-.6,7.84c-.12,1.57,2.34,1.57,2.46,0l.6-7.84c.12-1.57-2.34-1.57-2.46,0Z" style="fill:#fdfdfd"/></g></g><g id="_Groupe_44" data-name="&lt;Groupe&gt;"><g id="_Groupe_45" data-name="&lt;Groupe&gt;"><path d="M78.22,16a16.3,16.3,0,0,0,.07,8,1.23,1.23,0,0,0,2.37-.65,13.57,13.57,0,0,1-.07-6.65c.37-1.54-2-2.19-2.37-.65Z" style="fill:#fdfdfd"/></g></g><g id="_Groupe_46" data-name="&lt;Groupe&gt;"><g id="_Groupe_47" data-name="&lt;Groupe&gt;"><path d="M102.43,24.14a14.77,14.77,0,0,0-2.62,5.06,1.23,1.23,0,0,0,2.37.65,11.66,11.66,0,0,1,2-4,1.27,1.27,0,0,0,0-1.73,1.24,1.24,0,0,0-1.74,0Z" style="fill:#fdfdfd"/></g></g><g id="_Groupe_48" data-name="&lt;Groupe&gt;"><g id="_Groupe_49" data-name="&lt;Groupe&gt;"><path d="M118.2,33.49l-4.88,5.92c-1,1.21.73,3,1.74,1.73l4.88-5.92c1-1.21-.73-3-1.74-1.73Z" style="fill:#fdfdfd"/></g></g><g id="_Groupe_50" data-name="&lt;Groupe&gt;"><g id="_Groupe_51" data-name="&lt;Groupe&gt;"><path d="M126.18,45.25l-3.87,5.59c-.9,1.3,1.23,2.53,2.12,1.24l3.87-5.59c.9-1.3-1.23-2.53-2.12-1.24Z" style="fill:#fdfdfd"/></g></g><g id="_Groupe_52" data-name="&lt;Groupe&gt;"><g id="_Groupe_53" data-name="&lt;Groupe&gt;"><path d="M136.72,59.89l-6,4.31c-1.27.92,0,3,1.24,2.12L138,62c1.27-.92,0-3-1.24-2.12Z" style="fill:#fdfdfd"/></g></g><g id="_Groupe_54" data-name="&lt;Groupe&gt;"><g id="_Groupe_55" data-name="&lt;Groupe&gt;"><path d="M143.6,75.6l-3.95,2.92a1.26,1.26,0,0,0-.44,1.68,1.24,1.24,0,0,0,1.68.44l3.95-2.92a1.26,1.26,0,0,0,.44-1.68,1.24,1.24,0,0,0-1.68-.44Z" style="fill:#fdfdfd"/></g></g><g id="_Groupe_56" data-name="&lt;Groupe&gt;"><g id="_Groupe_57" data-name="&lt;Groupe&gt;"><path d="M142.08,93.67l-1,.5a1.23,1.23,0,0,0-.44,1.68,1.26,1.26,0,0,0,1.68.44l1-.5a1.23,1.23,0,0,0,.44-1.68,1.26,1.26,0,0,0-1.68-.44Z" style="fill:#fdfdfd"/></g></g><g id="_Groupe_58" data-name="&lt;Groupe&gt;"><g id="_Groupe_59" data-name="&lt;Groupe&gt;"><path d="M63.62,66.56a1.23,1.23,0,0,0,0-2.45,1.23,1.23,0,0,0,0,2.45Z" style="fill:#fdfdfd"/></g></g><g id="_Groupe_60" data-name="&lt;Groupe&gt;"><g id="_Groupe_61" data-name="&lt;Groupe&gt;"><path d="M69.52,68a1.23,1.23,0,0,0,0-2.45,1.23,1.23,0,0,0,0,2.45Z" style="fill:#fdfdfd"/></g></g><g id="_Groupe_62" data-name="&lt;Groupe&gt;"><g id="_Groupe_63" data-name="&lt;Groupe&gt;"><path d="M77.87,71a1.23,1.23,0,0,0,0-2.45,1.23,1.23,0,0,0,0,2.45Z" style="fill:#fdfdfd"/></g></g><g id="_Groupe_64" data-name="&lt;Groupe&gt;"><g id="_Groupe_65" data-name="&lt;Groupe&gt;"><path d="M84.26,75.4a1.23,1.23,0,0,0,0-2.45,1.23,1.23,0,0,0,0,2.45Z" style="fill:#fdfdfd"/></g></g><g id="_Groupe_66" data-name="&lt;Groupe&gt;"><g id="_Groupe_67" data-name="&lt;Groupe&gt;"><path d="M91.14,80.3a1.23,1.23,0,0,0,0-2.45,1.23,1.23,0,0,0,0,2.45Z" style="fill:#fdfdfd"/></g></g><g id="_Groupe_68" data-name="&lt;Groupe&gt;"><g id="_Groupe_69" data-name="&lt;Groupe&gt;"><path d="M95.07,88.15a1.23,1.23,0,0,0,0-2.45,1.23,1.23,0,0,0,0,2.45Z" style="fill:#fdfdfd"/></g></g><g id="_Groupe_70" data-name="&lt;Groupe&gt;"><g id="_Groupe_71" data-name="&lt;Groupe&gt;"><path d="M99,96.5A1.23,1.23,0,0,0,99,94a1.23,1.23,0,0,0,0,2.45Z" style="fill:#fdfdfd"/></g></g><g id="_Groupe_72" data-name="&lt;Groupe&gt;"><g id="_Groupe_73" data-name="&lt;Groupe&gt;"><path d="M101.45,104.35a1.23,1.23,0,0,0,0-2.45,1.23,1.23,0,0,0,0,2.45Z" style="fill:#fdfdfd"/></g></g><g id="_Groupe_74" data-name="&lt;Groupe&gt;"><g id="_Groupe_75" data-name="&lt;Groupe&gt;"><path d="M101.94,112.69a1.23,1.23,0,0,0,0-2.45,1.23,1.23,0,0,0,0,2.45Z" style="fill:#fdfdfd"/></g></g><g id="_Groupe_76" data-name="&lt;Groupe&gt;"><g id="_Groupe_77" data-name="&lt;Groupe&gt;"><path d="M101.94,119.56a1.23,1.23,0,0,0,0-2.45,1.23,1.23,0,0,0,0,2.45Z" style="fill:#fdfdfd"/></g></g><g id="_Groupe_78" data-name="&lt;Groupe&gt;"><g id="_Groupe_79" data-name="&lt;Groupe&gt;"><path d="M3,69.75c0-.07,0-.49,0-.24,0-.06.17-.45.06-.25,0-.05.27-.39.13-.23l.16-.16q-.15.1,0,0a1.23,1.23,0,1,0-1.24-2.12,3.41,3.41,0,0,0-1.58,3A1.25,1.25,0,0,0,1.73,71,1.24,1.24,0,0,0,3,69.75Z" style="fill:#fdfdfd"/></g></g><g id="_Groupe_80" data-name="&lt;Groupe&gt;"><g id="_Groupe_81" data-name="&lt;Groupe&gt;"><path d="M8,63.26l1-1a1.23,1.23,0,0,0-1.74-1.73l-1,1A1.23,1.23,0,0,0,8,63.26Z" style="fill:#fdfdfd"/></g></g><g id="_Groupe_82" data-name="&lt;Groupe&gt;"><g id="_Groupe_83" data-name="&lt;Groupe&gt;"><path d="M16.1,56.09l2-1.47a1.26,1.26,0,0,0,.44-1.68,1.24,1.24,0,0,0-1.68-.44l-2,1.47a1.26,1.26,0,0,0-.44,1.68,1.24,1.24,0,0,0,1.68.44Z" style="fill:#fdfdfd"/></g></g><g id="_Groupe_84" data-name="&lt;Groupe&gt;"><g id="_Groupe_85" data-name="&lt;Groupe&gt;"><path d="M26.62,48.88a13.26,13.26,0,0,0,4.28-2,1.26,1.26,0,0,0,.44-1.68,1.24,1.24,0,0,0-1.68-.44A11.31,11.31,0,0,1,26,46.51a1.23,1.23,0,0,0,.65,2.37Z" style="fill:#fdfdfd"/></g></g><g id="_Groupe_86" data-name="&lt;Groupe&gt;"><g id="_Groupe_87" data-name="&lt;Groupe&gt;"><path d="M39.89,44.58a2.35,2.35,0,0,1,.33-.35c-.14.12.21-.12.25-.14-.18.09.22-.06.28-.07-.22,0,.21,0,.28,0a1.24,1.24,0,0,0,1.23-1.23A1.25,1.25,0,0,0,41,41.56a3.51,3.51,0,0,0-2.87,1.28,1.27,1.27,0,0,0,0,1.73,1.24,1.24,0,0,0,1.74,0Z" style="fill:#fdfdfd"/></g></g><g id="_Groupe_88" data-name="&lt;Groupe&gt;"><g id="_Groupe_89" data-name="&lt;Groupe&gt;"><path d="M49.21,43l3-.88a1.23,1.23,0,0,0-.65-2.37l-3,.88A1.23,1.23,0,0,0,49.21,43Z" style="fill:#fdfdfd"/></g></g><g id="_Groupe_90" data-name="&lt;Groupe&gt;"><g id="_Groupe_91" data-name="&lt;Groupe&gt;"><path d="M59.55,42.53a2.49,2.49,0,0,1,2,.23,1.23,1.23,0,0,0,1.24-2.12,5,5,0,0,0-3.92-.47,1.23,1.23,0,0,0,.65,2.37Z" style="fill:#fdfdfd"/></g></g><g id="_Groupe_92" data-name="&lt;Groupe&gt;"><g id="_Groupe_93" data-name="&lt;Groupe&gt;"><path d="M71.33,44.47a2,2,0,0,1,1.51.33,1.23,1.23,0,1,0,1.24-2.12,4.52,4.52,0,0,0-3.4-.58,1.24,1.24,0,0,0-.86,1.51,1.25,1.25,0,0,0,1.51.86Z" style="fill:#fdfdfd"/></g></g><g id="_Groupe_94" data-name="&lt;Groupe&gt;"><g id="_Groupe_95" data-name="&lt;Groupe&gt;"><path d="M80,47.3l4.9,1c1.54.32,2.2-2,.65-2.37l-4.9-1c-1.54-.32-2.2,2-.65,2.37Z" style="fill:#fdfdfd"/></g></g><g id="_Groupe_96" data-name="&lt;Groupe&gt;"><g id="_Groupe_97" data-name="&lt;Groupe&gt;"><path d="M91.29,52.32a6.81,6.81,0,0,1,2.93,2.09,1.24,1.24,0,0,0,1.74,0,1.25,1.25,0,0,0,0-1.73,9.22,9.22,0,0,0-4-2.72,1.23,1.23,0,1,0-.65,2.37Z" style="fill:#fdfdfd"/></g></g><g id="_Groupe_98" data-name="&lt;Groupe&gt;"><g id="_Groupe_99" data-name="&lt;Groupe&gt;"><path d="M100.62,58.8l2.45,2.46a1.23,1.23,0,0,0,1.74-1.73l-2.45-2.46a1.23,1.23,0,0,0-1.74,1.73Z" style="fill:#fdfdfd"/></g></g><g id="_Groupe_100" data-name="&lt;Groupe&gt;"><g id="_Groupe_101" data-name="&lt;Groupe&gt;"><path d="M110.44,68.14l1.93,2.48a1.24,1.24,0,0,0,1.74,0,1.26,1.26,0,0,0,0-1.73l-1.93-2.48a1.24,1.24,0,0,0-1.74,0,1.26,1.26,0,0,0,0,1.73Z" style="fill:#fdfdfd"/></g></g><g id="_Groupe_102" data-name="&lt;Groupe&gt;"><g id="_Groupe_103" data-name="&lt;Groupe&gt;"><path d="M117.53,78.18a2.5,2.5,0,0,1,.93,1.71,1.24,1.24,0,0,0,1.51.86,1.26,1.26,0,0,0,.86-1.51,4.85,4.85,0,0,0-2.06-3.18,1.24,1.24,0,0,0-1.68.44,1.25,1.25,0,0,0,.44,1.68Z" style="fill:#fdfdfd"/></g></g><g id="_Groupe_104" data-name="&lt;Groupe&gt;"><g id="_Groupe_105" data-name="&lt;Groupe&gt;"><path d="M123.52,89,125,92a1.23,1.23,0,0,0,2.12-1.24l-1.46-3A1.23,1.23,0,0,0,123.52,89Z" style="fill:#fdfdfd"/></g></g><g id="_Groupe_106" data-name="&lt;Groupe&gt;"><g id="_Groupe_107" data-name="&lt;Groupe&gt;"><path d="M125.74,99.53l.52,2.94a1.24,1.24,0,0,0,1.51.86,1.25,1.25,0,0,0,.86-1.51l-.52-2.94A1.24,1.24,0,0,0,126.6,98a1.25,1.25,0,0,0-.86,1.51Z" style="fill:#fdfdfd"/></g></g><g id="_Groupe_108" data-name="&lt;Groupe&gt;"><g id="_Groupe_109" data-name="&lt;Groupe&gt;"><path d="M127.74,111v3.93a1.23,1.23,0,0,0,2.46,0V111a1.23,1.23,0,0,0-2.46,0Z" style="fill:#fdfdfd"/></g></g><g id="_Groupe_110" data-name="&lt;Groupe&gt;"><g id="_Groupe_111" data-name="&lt;Groupe&gt;"><path d="M127.32,122.92l-.49,2a1.23,1.23,0,0,0,2.37.65l.49-2a1.23,1.23,0,0,0-2.37-.65Z" style="fill:#fdfdfd"/></g></g><g id="_Groupe_112" data-name="&lt;Groupe&gt;"><g id="_Groupe_113" data-name="&lt;Groupe&gt;"><path d="M124.85,131.75l-.49,2.45a1.26,1.26,0,0,0,.86,1.51,1.24,1.24,0,0,0,1.51-.86l.49-2.45a1.26,1.26,0,0,0-.86-1.51,1.24,1.24,0,0,0-1.51.86Z" style="fill:#fdfdfd"/></g></g></svg>