<svg xmlns="http://www.w3.org/2000/svg" xmlns:xlink="http://www.w3.org/1999/xlink" width="40" height="40" viewBox="0 0 40 40">
    <defs>
        <path id="a" d="M14.263 11V22.808H1.585V3.411h12.678v7.589zm-6.34 15.184a.792.792 0 1 1 0-1.585.792.792 0 0 1 0 1.585zM6.736.828h2.377c.218 0 .397.178.397.396a.397.397 0 0 1-.397.396H6.735a.397.397 0 0 1-.396-.396c0-.218.178-.396.396-.396zm7.53-.793c.874 0 1.583.71 1.583 1.585V25.39c0 .875-.71 1.585-1.584 1.585H1.584c-.875 0-1.584-.71-1.584-1.585V1.62C0 .745.709.035 1.583.035h12.681zM8.802 14.637H6.864l.36-2.48h1.92l-.34 2.48zm3.08-8.238h-1.94l-.54 3.96h-1.94l.56-3.96H6.085l-.56 3.96H3.626v1.799h1.66l-.36 2.479h-1.9v1.8h1.66l-.56 3.958h1.94l.56-3.959h1.919l-.54 3.959h1.94l.539-3.959h1.74v-1.8h-1.48l.34-2.478h1.74v-1.8h-1.48l.54-3.959z"/>
    </defs>
    <g fill="none" fill-rule="evenodd" transform="translate(12 7)">
        <mask id="b" fill="#fff">
            <use xlink:href="#a"/>
        </mask>
        <use fill="#000" xlink:href="#a"/>
        <g fill="#000" mask="url(#b)">
            <path d="M-10-5h36v36h-36z"/>
        </g>
    </g>
</svg>
