<svg xmlns="http://www.w3.org/2000/svg" xmlns:xlink="http://www.w3.org/1999/xlink" width="15" height="15" viewBox="0 0 15 15">
    <defs>
        <path id="a" d="M7.5 0a7.5 7.5 0 1 0 0 15 7.5 7.5 0 0 0 0-15zm3.044 10.42a.662.662 0 0 1-.935 0L7.024 7.836h-.002a.976.976 0 0 1-.021-.023L6.99 7.8l-.011-.013-.012-.015-.008-.01-.012-.018-.007-.009-.011-.017-.006-.01-.01-.017-.006-.01a.548.548 0 0 1-.009-.018l-.006-.011a.643.643 0 0 1-.007-.016l-.006-.014a.352.352 0 0 1-.005-.015l-.007-.016-.004-.013a1.115 1.115 0 0 0-.006-.017l-.003-.012-.005-.02-.003-.01a.733.733 0 0 1-.005-.021l-.001-.011-.004-.021-.002-.013-.002-.019-.001-.017-.001-.015V2.516a.662.662 0 1 1 1.323 0v4.578l2.39 2.39a.662.662 0 0 1 0 .937z"/>
    </defs>
    <g fill="none" fill-rule="evenodd">
        <mask id="b" fill="#fff">
            <use xlink:href="#a"/>
        </mask>
        <g fill="#000" mask="url(#b)">
            <path d="M0 0h15v15H0z"/>
        </g>
    </g>
</svg>
