<svg xmlns="http://www.w3.org/2000/svg" xmlns:xlink="http://www.w3.org/1999/xlink" width="16" height="15" viewBox="0 0 16 15">
    <defs>
        <path id="a" d="M10.337 2.968c.039.002.086.003.121.024.01.006.069.084.04.092-.034.008-.085-.005-.102.035-.01.02.003.042-.01.063-.01.015-.04.022-.045.04-.009.043.065.01.07.044.008.038-.102.07-.105.125-.002.046-.004.09.053.075.067-.016.113-.077.176-.103.02-.008.062-.005.076-.015.072-.047.167-.002.244-.01.07-.01.117-.086.105-.155-.006-.035-.02-.032-.055-.037-.073-.01-.087-.037-.12-.097-.037-.066-.124-.1-.173-.155-.02-.023-.042-.055-.034-.087.007-.031.074-.076.014-.102-.033-.014-.068.004-.101-.001-.046-.007-.014-.05-.045-.067-.024-.014-.083.005-.107.014a.206.206 0 0 0-.1.07c-.029.045-.003.064.006.106.023.107.075-.003.092.14zm-5.828 8.15a.647.647 0 0 1-.138-.616.645.645 0 0 1-.377-.002c-.01.139-.007.276-.03.415-.03.18-.123.343-.19.511-.02.05-.046.112-.035.167.017.086.11.098.06.198-.035.07-.089.135-.133.2a.215.215 0 0 0-.047.122c0 .034.02.063.017.096-.005.046-.047.077-.056.122-.01.054.018.122.04.17.095.205.484.544.732.47.091-.028.145-.174.137-.26-.011-.117-.08-.055-.161-.083-.15-.053.114-.362.102-.462-.004-.042-.038-.076-.04-.121-.004-.122.233-.33.335-.373.106-.045.183-.123.271-.187a1.475 1.475 0 0 1-.487-.367zM7.5 0a7.5 7.5 0 1 0 0 15 7.5 7.5 0 0 0 0-15zm6.057 5.183a.456.456 0 0 0-.144-.03c-.094 0-.16-.043-.246-.066-.068-.018-.145-.058-.214-.062-.088-.006-.167.037-.189.123-.009.036-.012.077-.048.095-.061.029-.131-.03-.19-.041a.684.684 0 0 1-.138-.033.174.174 0 0 1-.054-.035c-.012-.012-.026-.049-.04-.056a.524.524 0 0 0-.223-.054.34.34 0 0 1-.195-.06c-.094-.07.018-.094.002-.177-.003-.012-.032-.046-.03-.054.032-.13-.109-.099-.208-.076-.185.018-.417-.047-.577.027a.988.988 0 0 0-.198.028c.019.015.037.03.053.047l.786.785c.538.542.606 1.394.161 2.014a.11.11 0 0 1 .014.014c.069.088 0 .26.005.359a.57.57 0 0 0 .132.355c.14.197.317.402.276.66-.036.218-.251.36-.169.599.071.208.22.333.272.563.042.188.087.235.183.378.104.156.246.828.573.465.069-.023.125.01.188.024A6.8 6.8 0 0 1 7.5 14.296 6.804 6.804 0 0 1 .827 6.21c.086.067.19.06.29.113.024.043.046.04.1.045.102.04.204.104.317.104.144-.036.195-.09.287.027.083.105.294.156.418.18.07.013.137.009.194.057.05.043.08.109.122.159a.564.564 0 0 0 .305.206c.09.022.185.03.275.052l.183-.182c-.25-.041-.428-.222-.618-.377a1.116 1.116 0 0 0-.343-.213c.003 0 .044-.345-.013-.395-.147-.124-.316.147-.438.196-.298.12-.472-.111-.498-.396-.06-.668.972-.82 1.398-.492.043.033.19.254.242.238.085-.026.025-.291.029-.346.01-.166.02-.238.183-.333a.509.509 0 0 0 .199-.23c.03-.063.043-.12.088-.161a.647.647 0 0 1 .572-.95h.494l-.029-.02-.031-.017a.407.407 0 0 0-.138-.05c-.011-.002-.022 0-.033-.002-.005-.001-.022-.004-.015-.01a.053.053 0 0 1 .02-.003l.028-.004a.381.381 0 0 1 .059-.007c.068-.002.136.016.203.03a.874.874 0 0 0 .1.016.153.153 0 0 0 .053-.002c.014-.003.048.007.045-.005-.007-.012-.034-.023-.026-.04.005-.013.024-.019.035-.025a.321.321 0 0 1 .045-.017c.068-.022.133-.047.203-.063a.46.46 0 0 1 .143-.01c.013 0 .034 0 .044.01.01.008-.002.024-.009.033a.404.404 0 0 0-.075.176v.009h.506c-.056-.06-.176-.104-.215-.175-.048-.09-.01-.203-.08-.29-.072-.092-.192-.091-.285-.147-.134-.08-.204-.235-.334-.32-.196-.127-.29 0-.496-.016-.127-.01-.198-.105-.293-.175-.215-.157-.489-.226-.749-.127-.032.012.09.406.096.428.065.265-.09.096-.192.254-.043.066.043.127.015.182-.117.233-.274-.143-.407-.227-.076-.047-.154-.055-.234-.069.258-.272.537-.522.836-.749.08.005.187-.032.26-.022.188.025.353.126.531.182.038.012.31.036.288.02-.046-.031-.243-.075-.097-.092.064.014.223.068.251.002.09-.068.132-.066.249-.066.11-.077.215-.135.235-.264-.03-.07.003-.123-.016-.184-.147-.038-.121-.112-.103-.206-.038-.05-.29-.136-.35-.12.187-.087.38-.166.578-.236.17.063.352.176.312.324.06.01.128.016.186-.007.013-.005.025-.023.04-.02.016.002.024.03.03.042a.169.169 0 0 1 .01.02l.048-.009c.016 0 .03 0 .046.002a.141.141 0 0 1 .075.03c.008.007.038.027.03.04-.006.01-.028.01-.038.01-.01 0-.023 0-.034.002l-.058.008a.194.194 0 0 1-.052.004c-.026.017.06.02.088.033.022.012.048.015.07.028.035.023-.04.038-.052.043a.888.888 0 0 0-.072.039.3.3 0 0 0-.08.064.137.137 0 0 0-.033.074.18.18 0 0 0 .021.094c.022.041.047.08.075.117l.011.015c.154.188.52.457.78.427.284-.032.26-.394.532-.495.27-.102.553-.174.835-.232.079-.019.156-.042.232-.07a2.84 2.84 0 0 1 .326-.08c.018-.004.037-.005.056-.007.006-.001.05-.009.031-.02a.143.143 0 0 0-.045-.012l-.052-.008a.341.341 0 0 1-.094-.021c-.007-.004-.022-.007-.02-.018.003-.011.023-.01.032-.01.038.003.076 0 .114 0 .039 0 .078-.002.118-.006.019-.003.037-.004.056-.008.01-.002.024 0 .023-.013a.083.083 0 0 0-.025-.05c-.006-.006-.015-.01-.02-.017-.01-.01-.005-.016 0-.027a.216.216 0 0 0 .026-.05.543.543 0 0 0 .008-.061c.007-.046.091-.054.124-.062.045-.01.12-.031.137-.082.017-.058-.044-.082-.044-.132 0-.037.06-.04.086-.053.023-.011.044-.006.067-.034L9.133.899c.93.231 1.801.657 2.555 1.249-.197.1-.433.348-.035.506.164.065.292-.22.449-.01.032.043.067.106.032.157-.021.032-.083.077-.123.05-.05-.034.016-.147-.078-.162a.174.174 0 0 0-.168.078c-.045.07.067.173.02.243-.06.091-.21.02-.294.058-.172.076-.321.24-.505.322-.083.037-.182.03-.271.04-.058.007-.155.015-.187.072-.038.068.173.154.212.181.108.075.158.17.036.265-.152.117-.432-.108-.6.002a.122.122 0 0 0-.023.02v.001c.149.17.198.405.132.62a.643.643 0 0 1 .384.012l.006-.004c.025-.012.052-.018.074-.038.035-.032.02-.088.034-.13.014-.04.049-.065.079-.095.02-.021.035-.05.06-.068.038-.027.092-.018.135-.037.069-.031.03-.12.092-.162.044-.029.096-.011.141.002.124.038.204-.037.321-.046.012-.001.032-.021.044-.026.04-.016.092-.02.125.01.028.023.037.062.06.09.035.042.092.063.137.092.05.033.083.041.138.056.06.017.113.073.17.102.044.023.114.055.113.114-.002.104-.175.076-.236.079-.021 0-.111.007-.119.03-.011.033.143.088.167.092.067.012.095-.035.14-.075.038-.033.09-.054.117-.097.024-.037 0-.076.005-.114.004-.033.03-.032.04-.058.018-.048-.088-.09-.118-.102a.595.595 0 0 0-.088-.024c-.019-.004-.06-.002-.076-.013-.057-.038-.065-.1-.12-.144-.2-.097-.035-.227.054-.112.14.006.174.152.327.164.074.095.162.046.215.164.01.153.04.151.176.247.047.033.028.197.126.17.032-.008.068-.047.094-.066.014-.012.049-.029.058-.045.03-.05-.062-.053-.08-.083-.081-.141.118-.183.217-.178.093.005.1.121.119.19a.24.24 0 0 0 .055.105.21.21 0 0 0 .055.04c.034.018.069.022.1.044a.223.223 0 0 0 .074.043 7.1 7.1 0 0 1 .177.429h-.004c-.108.004-.207.07-.316.034zM9.324 6.297L7.357 8.264l-2.363 2.364c.063.062.35.236.766.275.437.056 4.54.038 4.54.038L8.926 9.567l2.287-2.289c.517-.516.54-1.124.181-1.482l-.784-.784c-.075.075-.672.67-1.286 1.285zm-4.953 3.706l1.285-1.285L7.624 6.75l2.362-2.364c-.062-.062-.348-.235-.764-.274-.437-.056-4.539-.037-4.539-.037L6.055 5.45 3.767 7.737c-.516.516-.536 1.125-.178 1.483l.782.783z"/>
    </defs>
    <g fill="none" fill-rule="evenodd" transform="translate(.684)">
        <mask id="b" fill="#fff">
            <use xlink:href="#a"/>
        </mask>
        <g fill="#000" mask="url(#b)">
            <path d="M0 0h15v15H0z"/>
        </g>
    </g>
</svg>
