<svg xmlns="http://www.w3.org/2000/svg" xmlns:xlink="http://www.w3.org/1999/xlink" width="15" height="13" viewBox="0 0 15 13">
    <defs>
        <path id="a" d="M12.688 0H0v9.1c0 .718.588 1.3 1.313 1.3h1.75V13l2.624-2.6H14V1.3c0-.718-.588-1.3-1.313-1.3zM7 7.8H3.062a.435.435 0 0 1-.437-.433c0-.24.196-.434.438-.434H7c.242 0 .438.194.438.434 0 .239-.196.433-.438.433zm3.938-2.167H3.061a.435.435 0 0 1-.437-.433c0-.24.196-.433.438-.433h7.874c.242 0 .438.194.438.433 0 .24-.196.433-.438.433zm0-2.166H3.061a.435.435 0 0 1-.437-.434c0-.239.196-.433.438-.433h7.874c.242 0 .438.194.438.433 0 .24-.196.434-.438.434z"/>
    </defs>
    <g fill="none" fill-rule="evenodd" transform="translate(.684)">
        <mask id="b" fill="#fff">
            <use xlink:href="#a"/>
        </mask>
        <g fill="#000" mask="url(#b)">
            <path d="M0-.342h14v14H0z"/>
        </g>
    </g>
</svg>
