<svg xmlns="http://www.w3.org/2000/svg" xmlns:xlink="http://www.w3.org/1999/xlink" width="40" height="40" viewBox="0 0 40 40">
    <defs>
        <path id="a" d="M7 20.5C7 27.956 13.044 34 20.5 34S34 27.956 34 20.5 27.956 7 20.5 7 7 13.044 7 20.5zM21.294 8.73c.333.117.667.309.996.571.67.536 1.314 1.364 1.86 2.396.281.535.526 1.088.733 1.656h-3.59V8.73zm-4.445 2.967c.546-1.031 1.189-1.86 1.86-2.395.33-.263.663-.455.997-.572v4.623h-3.59a13.56 13.56 0 0 1 .733-1.656zm7.613-2.434a11.822 11.822 0 0 1 4.462 2.814c.399.4.768.825 1.107 1.276h-3.466c-.54-1.63-1.258-3.025-2.103-4.09zm-12.385 2.814a11.866 11.866 0 0 1 4.46-2.814c-.846 1.064-1.564 2.46-2.103 4.09h-3.465c.339-.45.71-.877 1.108-1.276zm14.938 2.864h4.023a11.798 11.798 0 0 1 1.348 4.765h-4.751a23.69 23.69 0 0 0-.62-4.765zm-5.721 0h4.084c.055.214.108.431.158.652.298 1.352.469 2.729.51 4.113h-4.752v-4.765zm-5.83.652c.05-.222.102-.438.16-.652h4.082v4.765h-4.752c.041-1.384.212-2.761.51-4.113zm-5.94.27c.133-.315.28-.623.438-.922h4.024a23.593 23.593 0 0 0-.62 4.765H8.614c.085-1.323.392-2.623.909-3.844zm18.11 5.43h4.752a11.799 11.799 0 0 1-1.348 4.766h-4.023a23.71 23.71 0 0 0 .62-4.765zm-6.34 0h4.751a22.092 22.092 0 0 1-.51 4.115c-.049.22-.101.438-.158.651h-4.083v-4.765zm-5.83 4.115a22.092 22.092 0 0 1-.51-4.114h4.752v4.765h-4.084c-.056-.214-.108-.43-.158-.651zm-5.94-.27a11.798 11.798 0 0 1-.91-3.844h4.751c.052 1.69.268 3.297.62 4.765H9.963a12.257 12.257 0 0 1-.438-.922zm17.042 2.509h3.465c-.339.45-.71.877-1.108 1.276a11.882 11.882 0 0 1-4.46 2.815c.846-1.066 1.564-2.462 2.103-4.091zm-5.272 0h3.59a13.414 13.414 0 0 1-.734 1.656c-.546 1.031-1.189 1.86-1.86 2.395a3.41 3.41 0 0 1-.996.572v-4.623zm-2.585 4.051c-.67-.534-1.313-1.363-1.86-2.395a13.471 13.471 0 0 1-.732-1.656h3.59v4.623a3.452 3.452 0 0 1-.998-.572zm-2.846-.222a11.872 11.872 0 0 1-3.787-2.553 11.986 11.986 0 0 1-1.107-1.276h3.467c.54 1.63 1.257 3.025 2.102 4.091-.226-.08-.452-.168-.675-.262z"/>
    </defs>
    <g fill="none" fill-rule="evenodd">
        <mask id="b" fill="#fff">
            <use xlink:href="#a"/>
        </mask>
        <path fill="#010000" d="M-5 45h50V-5H-5z" mask="url(#b)"/>
    </g>
</svg>
