<svg xmlns="http://www.w3.org/2000/svg" width="40" height="40" viewBox="0 0 40 40">
    <g fill="none" fill-rule="evenodd">
        <circle cx="20" cy="20" r="20" fill="#1DA1F2" fill-rule="nonzero"/>
        <path fill="#FFF" fill-rule="nonzero" d="M30.094 14.984c.015.22.015.438.015.657C30.11 22.312 25.031 30 15.75 30c-2.86 0-5.516-.828-7.75-2.266.406.047.797.063 1.219.063 2.36 0 4.531-.797 6.265-2.156a5.056 5.056 0 0 1-4.718-3.5c.312.046.625.078.953.078.453 0 .906-.063 1.328-.172A5.048 5.048 0 0 1 9 17.094v-.063c.672.375 1.453.61 2.281.64a5.043 5.043 0 0 1-2.25-4.202c0-.938.25-1.797.688-2.547a14.346 14.346 0 0 0 10.406 5.281A5.697 5.697 0 0 1 20 15.047 5.045 5.045 0 0 1 25.047 10c1.453 0 2.765.61 3.687 1.594a9.936 9.936 0 0 0 3.203-1.219 5.033 5.033 0 0 1-2.218 2.781c1.015-.11 2-.39 2.906-.781-.687 1-1.547 1.89-2.531 2.61z"/>
    </g>
</svg>
