<svg xmlns="http://www.w3.org/2000/svg" xmlns:xlink="http://www.w3.org/1999/xlink" width="80" height="80" viewBox="0 0 80 80">
    <defs>
        <circle id="a" cx="40" cy="40" r="40"/>
        <path id="c" d="M0 58h83V0H0z"/>
    </defs>
    <g fill="none" fill-rule="evenodd">
        <mask id="b" fill="#fff">
            <use xlink:href="#a"/>
        </mask>
        <use fill="#FF8AD4" fill-rule="nonzero" xlink:href="#a"/>
        <g mask="url(#b)">
            <g transform="translate(-7 17)">
                <path fill="#3884A8" d="M80.138 44c.111 0 .219.04.303.113l2.394 2.056c.33.284.131.831-.304.831H11.47c-.49 0-.65-.662-.217-.89l3.428-1.807A2.62 2.62 0 0 1 15.902 44h64.236z"/>
                <mask id="d" fill="#fff">
                    <use xlink:href="#c"/>
                </mask>
                <path fill="#8470AA" d="M24 46h5v-1h-5z" mask="url(#d)"/>
                <path fill="#595959" d="M64 46h5v-1h-5zM20 45h2V33h-2zM71 45h2V33h-2z" mask="url(#d)"/>
                <path fill="#D6D6D6" d="M73 38H20l2.093-1h48.814z" mask="url(#d)"/>
                <path fill="#FFF" d="M59 38H31l3.476-1H56.4z" mask="url(#d)"/>
                <path fill="#D6D6D6" d="M73 32H20l1.548-.74c.356-.17.767-.26 1.186-.26h47.532c.42 0 .83.09 1.186.26L73 32zM73 44H20l2.093-1h48.814z" mask="url(#d)"/>
                <path fill="#8F8F8F" d="M72.939 32H21.06C19.928 32 19 32.905 19 34.012v9.976c0 1.107.928 2.012 2.061 2.012H72.94C74.072 46 75 45.095 75 43.988v-9.976C75 32.905 74.072 32 72.939 32m0 1.51c.279 0 .515.23.515.502v9.976a.516.516 0 0 1-.515.503H21.06a.516.516 0 0 1-.515-.503v-9.976c0-.273.236-.503.515-.503H72.94" mask="url(#d)"/>
                <path fill="#8F8F8F" d="M20 39h54v-1H20zM68 31.5H25l.846-.5h41.646z" mask="url(#d)"/>
                <path fill="#000" d="M45 31h3v-3h-3z" mask="url(#d)"/>
                <path fill="#000" d="M69.16 29H24.84a.841.841 0 0 1-.84-.841V.84c0-.464.376-.841.84-.841h44.32c.463 0 .84.377.84.841V28.16a.841.841 0 0 1-.84.841M35.94 30h20.12c.519 0 .94.513.94 1H35c0-.487.42-1 .94-1" mask="url(#d)"/>
                <path fill="#595959" d="M53 35.5h.5V35H53zM53.214 34l.339.927.317-.927.13.767-.098.22-.73.013-.172-.655z" mask="url(#d)"/>
                <path fill="#000" d="M53 34.585L52.989 34h-10.36L38 34.585h15L50.932 35 53 34.585" mask="url(#d)"/>
                <path fill="#595959" d="M67.918 35.898L67.75 35H53.13l-.11.898L53 37.005l.187.995h14.645l.168-.995z" mask="url(#d)"/>
                <path fill="#0E0E10" d="M69 38H54s.54.5.68.5h13.704c.084 0 .616-.5.616-.5" mask="url(#d)"/>
                <path fill="#000" d="M55 37h10v-1H55zM69 35H54.01L54 34h10.182z" mask="url(#d)"/>
                <path fill="#595959" d="M52.918 35.899L52.75 35H38.112l-.112.899.055 1.106.112.995h14.665l.168-.995z" mask="url(#d)"/>
                <path fill="#0E0E10" d="M53 38H38s.54.5.68.5h13.704c.084 0 .616-.5.616-.5" mask="url(#d)"/>
                <path fill="#000" d="M39 37h10v-1H39zM38.13 37.028a.169.169 0 0 0-.037.04v-.057H38v.489h.096v-.22c0-.027.003-.052.008-.073a.144.144 0 0 1 .022-.052.095.095 0 0 1 .04-.03.159.159 0 0 1 .062-.011h.015V37h-.015a.15.15 0 0 0-.098.027" mask="url(#d)"/>
                <path fill="#FF7900" d="M40.902 36.73h-.014v.04h-.008v-.04h-.014v-.007h.036v.007zM40 37h1v-1h-1v1z" mask="url(#d)"/>
                <path fill="#8F8F8F" d="M64 44H48l1.195-1h12.648zM39 44H23l1.333-1h12z" mask="url(#d)"/>
                <path fill="#D6D6D6" d="M63 40.995L53 41l.547-.984L61.453 40z" mask="url(#d)"/>
                <path fill="#FFD200" d="M53 45h10v-3H53z" mask="url(#d)"/>
                <path fill="#FFB400" d="M63 44h.5v-2H63zM62 44h.5v-2H62zM54 44h.5v-2H54z" mask="url(#d)"/>
                <path fill="#B5E8F7" d="M40 42.998L27 43l1.723-.984L39.55 42z" mask="url(#d)"/>
                <path fill="#4BB4E6" d="M27 44h13v-1H27z" mask="url(#d)"/>
                <path fill="#FFF" d="M31 44.5h9V44h-9z" mask="url(#d)"/>
                <path fill="#0B5FA5" d="M28 44.5h2V44h-2z" mask="url(#d)"/>
                <path fill="#FFB400" d="M39 41l-11-.001L29.632 40h9.04z" mask="url(#d)"/>
                <path fill="#FF7900" d="M28 43h11v-2H28z" mask="url(#d)"/>
                <path fill="#FFB400" d="M29 43h.5v-1H29zM39 43h.5v-1H39zM30 43h.5v-1H30z" mask="url(#d)"/>
                <path fill="#2B2B2B" d="M25 26h43V2H25z" mask="url(#d)"/>
                <path fill="#FF7900" d="M50.314 16.11h-.1v.277h-.053v-.277h-.102v-.046h.255v.046zM44 18h7v-7h-7v7z" mask="url(#d)"/>
                <path fill="#7F634F" d="M32 39.146s3.248-.726 2.985 1.056c-.2 1.347-1.2 1.853-1.282 1.793-.08-.06-1.703-2.849-1.703-2.849" mask="url(#d)"/>
                <path fill="#000" d="M31 40s-.057.831-1.187 1.568c-1.13.737-1.852 1.386-1.805 2.289.047.903-1.008-2.764-1.008-2.764s2.47-.832 2.541-.808C29.611 40.31 31 40 31 40M34 40s.113.86.452.984c.338.123.548-.495.548-.495L34 40zM33 42s.101.877.609.988c.508.11.375-.575.375-.575L33 42zM33 44s.173.9.672.993c.498.092.281-.762.281-.762L33 44zM34 46s.13.808.5 1v-.885L34 46z" mask="url(#d)"/>
                <path fill="#7F634F" d="M1 58s23.444-10.139 23.73-12.826c.09-.835-.331-2.72-.453-3.51-.145-.941.23-2.223 1.63-2.206 1.344.016 7.983-.666 8.473-.394.49.274.851 1.097.443 4.055-.409 2.958-1.537 3.773-2.144 3.883-3.221.583-2.723 1.729-2.938 2.413-.415 1.323-11.925 8.284-11.925 8.284" mask="url(#d)"/>
                <path fill="#000" d="M35 52.534c0 .81-.708 1.466-1.581 1.466H29.58C28.708 54 28 53.343 28 52.534V23.466c0-.81.708-1.466 1.581-1.466h3.838c.873 0 1.581.657 1.581 1.466v29.068z" mask="url(#d)"/>
                <path fill="#000" d="M34 51.668c0 .735-.607 1.332-1.356 1.332h-3.289A1.344 1.344 0 0 1 28 51.668V23.332c0-.735.607-1.332 1.355-1.332h3.29c.748 0 1.355.597 1.355 1.332v28.336z" mask="url(#d)"/>
                <path fill="#000" d="M28 44h6v-1h-6z" mask="url(#d)"/>
                <path fill="#595959" d="M29 47.5a.5.5 0 1 1 1 0 .5.5 0 0 1-1 0M33 48.5a.5.5 0 1 1 1 0 .5.5 0 0 1-1 0M30 48.5a.5.5 0 1 1 1 0 .5.5 0 0 1-1 0M28 38a1 1 0 1 1 2 0 1 1 0 0 1-2 0M30 25a1 1 0 1 1 2 0 1 1 0 0 1-2 0" mask="url(#d)"/>
                <path fill="#61625F" d="M31 31.086a.915.915 0 0 0 0 1.828.915.915 0 0 0 0-1.828M31 33c-.551 0-1-.449-1-1a1.001 1.001 0 0 1 2 0c0 .551-.448 1-1 1" mask="url(#d)"/>
                <path fill="#595959" d="M31.04 36c-1.241 0-2.378-.728-3.04-1.946l.074-.054c.646 1.189 1.755 1.899 2.967 1.899 1.153 0 2.233-.66 2.887-1.765l.072.057C33.33 35.324 32.223 36 31.04 36M28.074 30L28 29.945C28.663 28.727 29.796 28 31.031 28c1.189 0 2.299.688 2.969 1.841l-.072.058c-.654-1.125-1.737-1.797-2.897-1.797-1.205 0-2.31.71-2.957 1.898M32 38a1 1 0 1 1 2 0 1 1 0 0 1-2 0" mask="url(#d)"/>
                <path fill="#8F8F8F" d="M29.5 43h-.158v-.716H29v-.096c.18 0 .344-.037.38-.188h.12v1zM31.021 42.354c-.007-.203.083-.354.243-.354.132 0 .236.102.236.288 0 .176-.09.265-.183.343-.095.076-.194.14-.212.263h.388V43H31a.49.49 0 0 1 .212-.409c.127-.104.192-.166.192-.305 0-.108-.066-.18-.145-.18-.106 0-.15.128-.147.248h-.09z" mask="url(#d)"/>
                <path fill="#61625F" d="M31.25 32.412c.1 0 .138-.08.138-.16 0-.083-.038-.164-.138-.164s-.138.08-.138.164c0 .08.038.16.138.16m0-.412c.157 0 .25.11.25.252a.237.237 0 0 1-.25.248.237.237 0 0 1-.25-.248c0-.142.093-.252.25-.252" mask="url(#d)"/>
                <path fill="#61625F" d="M31 32h.119v.207l.212-.207h.148l-.211.197.232.303h-.15l-.163-.225-.068.064v.161H31z" mask="url(#d)"/>
                <path fill="#8F8F8F" d="M33.196 42.422a.367.367 0 0 0 .038.001c.075 0 .141-.054.141-.16 0-.103-.056-.159-.131-.159-.097 0-.139.099-.14.214h-.088c.005-.187.08-.318.228-.318.128 0 .225.082.225.264 0 .086-.046.16-.102.195v.003c.09.026.133.12.133.239 0 .196-.116.299-.254.299-.15 0-.25-.118-.246-.32h.089c.003.127.056.216.157.216.086 0 .16-.07.16-.19 0-.123-.07-.189-.157-.189a.333.333 0 0 0-.053.005v-.1zM29.32 44.66v-.49h-.003l-.242.49h.244zm.081 0h.099v.106h-.099V45h-.082v-.234H29v-.116l.332-.65h.07v.66zM31.459 43.106h-.302l-.04.288.002.002a.167.167 0 0 1 .14-.072c.132 0 .241.115.241.343 0 .17-.087.333-.262.333-.13 0-.235-.106-.238-.286h.09c.005.103.067.18.157.18.085 0 .158-.077.158-.237 0-.132-.068-.227-.169-.227-.057 0-.104.038-.139.095l-.077-.006.07-.519h.369v.106zM33.105 43.677c0 .122.056.219.153.219.095 0 .148-.101.148-.218 0-.122-.047-.223-.148-.223-.099 0-.153.099-.153.222zm.286-.426c-.008-.089-.054-.147-.124-.147-.15 0-.175.222-.179.373l.002.003c.042-.09.104-.129.184-.129.142 0 .226.137.226.319 0 .143-.06.33-.246.33-.219 0-.254-.266-.254-.473 0-.27.061-.527.271-.527.122 0 .198.092.208.251h-.088zM29.5 45.105c-.156.204-.282.576-.296.895H29.1c.018-.345.143-.658.305-.885H29V45h.5v.105zM31.253 45.413c.07 0 .123-.058.123-.158 0-.098-.052-.151-.125-.151-.071 0-.13.053-.13.151 0 .108.059.158.132.158m0 .483c.09 0 .152-.082.152-.191 0-.107-.069-.188-.153-.188-.088 0-.157.075-.157.189 0 .118.066.19.158.19M31.245 45c.163 0 .226.126.226.251 0 .087-.042.168-.103.204.089.037.132.123.132.245 0 .19-.11.3-.247.3-.143 0-.253-.099-.253-.3 0-.116.047-.206.13-.245-.062-.033-.104-.115-.104-.204 0-.162.104-.251.219-.251M33.24 45.104c-.106 0-.145.113-.145.233 0 .108.06.208.147.208.093 0 .152-.1.152-.216 0-.12-.054-.225-.154-.225zm-.135.642c.006.096.065.15.137.15.109 0 .162-.126.168-.38l-.002-.003c-.034.083-.1.136-.173.136-.15 0-.235-.134-.235-.329 0-.19.1-.32.245-.32.139 0 .255.098.255.47 0 .34-.078.53-.258.53-.126 0-.215-.085-.226-.254h.089zM31.25 47.896c.154 0 .155-.25.155-.397 0-.145-.001-.395-.155-.395s-.155.25-.155.395c0 .147.001.397.155.397m0-.896c.235 0 .25.283.25.5 0 .217-.015.5-.25.5s-.25-.283-.25-.5c0-.217.015-.5.25-.5M29.42 47.31c-.015-.135-.079-.203-.156-.203-.133 0-.19.187-.19.386 0 .218.057.4.19.4.098 0 .155-.118.162-.275h.074c-.014.238-.1.382-.242.382-.174 0-.258-.22-.258-.497s.092-.503.264-.503c.117 0 .213.107.23.31h-.074zM29.5 40v1h-.129l-.176-.28H29v-.443h.205l.157-.27zM30 40.184h.5V40H30zM32 40.184h.5V40H32zM29.5 38v1h-.129l-.176-.282H29v-.44h.205l.157-.27zM30 38.184h.5V38H30z" mask="url(#d)"/>
                <path fill="#8F8F8F" d="M30 38.5h.184V38H30zM32.08 40.875h.84v-.75h-.84v.75zM32 41h1v-1h-1v1z" mask="url(#d)"/>
                <path fill="#8F8F8F" d="M32 40.5h1V40h-1zM32 38.184h.5V38H32zM33 38.5h.184V38H33z" mask="url(#d)"/>
                <path fill="#8F8F8F" d="M32.08 38.875h.84v-.75h-.84v.75zM32 39h1v-1h-1v1z" mask="url(#d)"/>
                <path fill="#8F8F8F" d="M32 38.5h1V38h-1z" mask="url(#d)"/>
                <path fill="#595959" d="M32 35.5c0 .276-.157.5-.35.5h-1.3c-.193 0-.35-.224-.35-.5s.157-.5.35-.5h1.3c.193 0 .35.224.35.5M32 28.5c0 .276-.157.5-.35.5h-1.3c-.193 0-.35-.224-.35-.5s.157-.5.35-.5h1.3c.193 0 .35.224.35.5" mask="url(#d)"/>
                <path fill="#61625F" d="M30.915 31L30 30.082l.085-.082.915.918zM32.915 33L32 32.082l.085-.082.915.918zM32.082 31L32 30.915l.918-.915.082.085zM30.082 33L30 32.915l.918-.915.082.085z" mask="url(#d)"/>
                <path fill="#8F8F8F" d="M31.5 25c-.276 0-.5-.23-.5-.514 0-.213.124-.401.317-.48l.038.1a.406.406 0 0 0-.251.38c0 .224.177.407.396.407a.403.403 0 0 0 .396-.407.406.406 0 0 0-.265-.385l.034-.101c.2.071.335.266.335.486a.508.508 0 0 1-.5.514" mask="url(#d)"/>
                <path fill="#8F8F8F" d="M31 24.5h.222V24H31z" mask="url(#d)"/>
                <path fill="#FF7900" d="M33 49.25a.25.25 0 1 1 .5 0 .25.25 0 0 1-.5 0" mask="url(#d)"/>
                <path fill="#8F8F8F" d="M28.5 49v.5l-.5-.263zM29.5 49v.5l-.5-.263zM32 49.5V49l.5.263z" mask="url(#d)"/>
                <path fill="#8F8F8F" d="M32 49.5V49l.5.263zM30 49.5V49l.5.263z" mask="url(#d)"/>
                <path fill="#8F8F8F" d="M30 49.5h.5V49H30zM31 49.5h.5V49H31z" mask="url(#d)"/>
                <path fill="#8F8F8F" d="M30.132 50L30 49.946l.369-.946.131.054z" mask="url(#d)"/>
                <path fill="#2A2B2B" d="M32.099 53c-.058 0-.094.037-.099.103h.197c0-.065-.038-.103-.098-.103M31.097 53c-.046 0-.097.056-.097.237 0 .099.005.263.098.263.097-.001.105-.166.105-.272 0-.125-.037-.228-.106-.228" mask="url(#d)"/>
                <path fill="#2A2B2B" d="M31 53.102c0 .034.02.064.057.064.04 0 .079-.017.118-.05V53c-.118.015-.175.045-.175.102M30.113 53c-.096 0-.113.144-.113.25 0 .106.017.25.113.25.095 0 .112-.144.112-.25 0-.106-.018-.25-.112-.25" mask="url(#d)"/>
                <path fill="#8F8F8F" d="M31 35.255l.5-.255v.5z" mask="url(#d)"/>
                <path fill="#8F8F8F" d="M31 35.5v-.117h.364c-.001 0 .073-.03.073-.124a.167.167 0 0 0-.078-.142h-.26V35l.274.002c.005.003.127.067.127.257 0 .155-.082.224-.13.24L31 35.5z" mask="url(#d)"/>
                <path fill="#7F634F" d="M35.21 41s.923.005.774 1.285c-.064.54-.335 1.361-.984 1.715" mask="url(#d)"/>
                <path fill="#7F634F" d="M35.063 43s1.025.128.93 1.4c-.039.537-.293 1.33-.993 1.6" mask="url(#d)"/>
                <path fill="#7F634F" d="M35.06 44s1.133.478.911 1.459c-.093.413-.373.459-.971.541" mask="url(#d)"/>
                <path fill="#FF7900" d="M20.452 48s3.4 1.386 3.548 5.673l-5.36 3.675L0 58l20.452-10z" mask="url(#d)"/>
                <path fill="#7F634F" d="M25 39.393c3.42-.872 5.895-.181 5.996.981.057.647-.566 1.24-1.846 1.347-1.281.107-1.702.436-1.702.436s2.159 4.382-.7 7.843l-1.71-2.878M35.572 40.868l-.788.127c-.288.04-.599-.168-.744-.627-.145-.459.129-1.003.393-1.118l.494-.213c.264-.114.814.034.958.493.145.46.25 1.176-.313 1.338M35.771 42.871l-.89.125c-.326.038-.678-.172-.843-.635-.125-.402.078-.804.338-.957l.66-.38c.297-.113.677.173.842.636.166.463.192 1.098-.107 1.211M35.825 44.628l-.84.33c-.308.114-.664 0-.866-.394-.201-.395-.141-.865.133-1.043l.696-.452c.275-.178.665 0 .866.395.202.395.286.985.011 1.164" mask="url(#d)"/>
                <path fill="#7F634F" d="M35.886 45.434l-.77.471c-.284.166-.651.126-.91-.212-.26-.337-.276-.794-.035-1.015l.61-.559c.241-.22.65-.125.91.212.26.337.436.882.195 1.103" mask="url(#d)"/>
            </g>
        </g>
    </g>
</svg>
