<?xml version="1.0" encoding="UTF-8"?>
<svg width="17px" height="27px" viewBox="0 0 17 27" version="1.1" xmlns="http://www.w3.org/2000/svg" xmlns:xlink="http://www.w3.org/1999/xlink">
    <!-- Generator: sketchtool 51.1 (57501) - http://www.bohemiancoding.com/sketch -->
    <title>30DA7871-3ABE-4D4A-BE58-3EFE76FA82D6</title>
    <desc>Created with sketchtool.</desc>
    <defs>
        <path d="M15.0882353,15.8823466 L11.1176471,15.8823466 L11.1176471,11.9117584 L14.2941176,11.9117584 C14.7326929,11.9117584 15.0882353,12.2673325 15.0882353,12.705876 L15.0882353,15.8823466 Z M11.1176471,20.6470525 L15.0882353,20.6470525 L15.0882353,16.6764642 L11.1176471,16.6764642 L11.1176471,20.6470525 Z M15.0882353,24.6176407 C15.0882353,25.056216 14.7326929,25.4117584 14.2941176,25.4117584 L2.38235294,25.4117584 C1.94377765,25.4117584 1.58823529,25.056216 1.58823529,24.6176407 L1.58823529,21.4411701 L5.55882353,21.4411701 L5.55882353,25.4117584 L6.35294118,25.4117584 L6.35294118,21.4411701 L10.3235294,21.4411701 L10.3235294,25.4117584 L11.1176471,25.4117584 L11.1176471,21.4411701 L15.0882353,21.4411701 L15.0882353,24.6176407 Z M1.58823529,16.6764642 L6.35294118,16.6764642 L6.35294118,16.1682289 L6.35294118,15.8823466 L6.35294118,11.9117584 L10.3235294,11.9117584 L10.3235294,20.6470525 L1.58823529,20.6470525 L1.58823529,16.6764642 Z M1.58823529,12.705876 C1.58823529,12.2673325 1.94377765,11.9117584 2.38235294,11.9117584 L5.55882353,11.9117584 L5.55882353,15.8823466 L1.58823529,15.8823466 L1.58823529,12.705876 Z M11.1176471,-6.35294123e-06 L1.58823529,-6.35294123e-06 C0.711116471,-6.35294123e-06 0,0.711110118 0,1.58822894 L0,25.4117584 C0,26.2888772 0.711116471,26.9999936 1.58823529,26.9999936 L15.0882353,26.9999936 C15.9653859,26.9999936 16.6764706,26.2889089 16.6764706,25.4117584 L16.6764706,5.55881718 L11.1176471,-6.35294123e-06 Z" id="path-1"></path>
    </defs>
    <g id="Symbols" stroke="none" stroke-width="1" fill="none" fill-rule="evenodd">
        <g id="Icones/Internet4G_Black" transform="translate(-12.000000, -7.000000)">
            <g id="Internet4G_Black" transform="translate(12.000000, 7.000000)">
                <mask id="mask-2" fill="white">
                    <use xlink:href="#path-1"></use>
                </mask>
                <use id="Mask" fill="#000000" xlink:href="#path-1"></use>
                <g id="Icon_Style/Black" mask="url(#mask-2)" fill="#000000">
                    <g transform="translate(-12.000000, -7.000000)" id="Icon_Style/Gris">
                        <rect x="0" y="0" width="40" height="40"></rect>
                    </g>
                </g>
            </g>
        </g>
    </g>
</svg>