<svg xmlns="http://www.w3.org/2000/svg" xmlns:xlink="http://www.w3.org/1999/xlink" width="80" height="80" viewBox="0 0 80 80">
    <defs>
        <circle id="a" cx="40" cy="40" r="40"/>
        <path id="c" d="M0 .298h26.425V17.85H0z"/>
    </defs>
    <g fill="none" fill-rule="evenodd">
        <mask id="b" fill="#fff">
            <use xlink:href="#a"/>
        </mask>
        <use fill="#50BE87" fill-rule="nonzero" xlink:href="#a"/>
        <g mask="url(#b)">
            <path fill="#464646" d="M59.859 60.845H32.217v-.936H59.86c1.802 0 3.165-.978 4.046-2.907.625-1.366.782-2.743.806-2.984l-2.3-24.183.93-.088 2.309 24.266-.002.04c-.006.067-.588 6.792-5.79 6.792zM38.014 42.808l.087-3.557h5.624v3.557h-5.71zm5.727.84l.022 3.557-5.852-.004.087-3.55 5.743-.003zm-.131 12.348h-6.1l.089-3.556h5.993l.018 3.556zm-5.807-4.398l.087-3.552h5.873l.017 3.552h-5.977zm12.819.842l.114 3.556h-6.097l-.017-3.556h6zm-.144-4.398l.118 3.556h-5.974l-.016-3.552 5.872-.004zm-5.894-5.234V39.25H50.2l.114 3.55-5.73.007zm5.755.841l.114 3.55-5.847.005-.022-3.555h5.755zm6.936 8.791l.21 3.556H51.39l-.114-3.556h6zm-.079-4.398l.211 3.556H51.44l-.119-3.556h5.876zm-6.04-5.236l-.114-3.555h5.628l.21 3.555h-5.724zm5.776.843l.214 3.55h-5.851l-.114-3.55h5.751zm-20.31-20.91H57.91l.582 7.677H36.505l.116-7.678zm26.798-4.74H31.424v37.997s.187 3.281-1.075 6.105h30.967c5.156 0 5.683-7.473 5.683-7.473L63.42 18z"/>
            <path fill="#8F8F8F" d="M57.485 55.995l-.21-3.555h-5.999l.114 3.555zM37.51 55.995h6.1l-.018-3.555H37.6zM24.128 60.572h.18c6.868 0 7.115-5.069 7.115-5.806V17.894S31.715 12 24.31 12h-.181c-7.406 0-7.116 5.894-7.116 5.894v36.872c0 .737.25 5.806 7.116 5.806M37.739 29.577l.105-6h19.261l.526 6H37.74zm20.17-6.838H36.622l-.117 7.677h21.986l-.582-7.677z"/>
            <path fill="#FFF" d="M37.844 23.578l-.105 6H57.63l-.526-6z"/>
            <path fill="#595959" d="M31.424 55.995v-1.229c0 .737-.249 5.806-7.116 5.806h-.18c-6.867 0-7.115-5.069-7.115-5.806v1.23s-.034.597.03 1.499c.054.904.206 2.121.584 3.355.615 2.029 1.832 4.1 4.227 4.9a5.414 5.414 0 0 0 .202-1.439c0-.059.003-.116.009-.173.002-.02.007-.04.009-.058.005-.037.009-.073.017-.109.006-.034.017-.066.025-.1l.016-.061c.004-.014.01-.027.015-.04a1.684 1.684 0 0 1 3.277.541 8.52 8.52 0 0 1-.177 1.734c2.714-.319 4.244-2.026 5.102-3.944 1.262-2.824 1.075-6.106 1.075-6.106"/>
            <g transform="translate(-1 57.196)">
                <mask id="d" fill="#fff">
                    <use xlink:href="#c"/>
                </mask>
                <path fill="#000" d="M24.913 5.439a1.638 1.638 0 0 0-.345 0 1.685 1.685 0 0 0-1.422 1.134l-.014.04c-.006.02-.01.041-.015.062-.01.033-.02.065-.027.1-.007.035-.01.072-.016.108-.003.02-.007.04-.008.06-.006.056-.01.113-.01.171a5.386 5.386 0 0 1-.201 1.44c-.354 1.268-1.13 2.256-1.807 2.923-1.944 1.906-4.96 3.073-7.856 3.005-3.844-.071-8.058-1.861-9.397-3.991-.505-.805-.556-1.587-.151-2.463.248-.552 1.637-2.437 8.895-3.668a65.316 65.316 0 0 1 6.088-.707c-.378-1.233-.53-2.45-.585-3.355C12.814.66 2.717 1.961.579 6.622c-.88 1.923-.754 3.881.362 5.663 2.206 3.511 7.927 5.486 12.192 5.566h.248c3.697 0 7.515-1.508 10.025-3.97 1.507-1.479 2.471-3.197 2.842-5.032.117-.568.177-1.15.177-1.735 0-.872-.662-1.588-1.512-1.675" mask="url(#d)"/>
            </g>
            <path fill="#8F8F8F" d="M44.584 39.25v3.558l5.73-.006-.115-3.551z"/>
            <path fill="#4BB4E6" d="M50.735 55.995l-.114-3.555h-5.998l.016 3.555z"/>
            <path fill="#8F8F8F" d="M51.042 39.251l.114 3.556h5.724l-.21-3.556zM57.146 47.2l-.214-3.551H51.18l.114 3.551zM57.407 51.598l-.21-3.556H51.32l.118 3.556zM50.596 51.598l-.118-3.556-5.872.004.017 3.552zM44.606 47.204l5.846-.004-.114-3.551h-5.753zM43.763 48.047h-5.872l-.089 3.551h5.978zM38.101 39.252l-.087 3.556h5.71v-3.557zM37.91 47.202l5.854.003-.023-3.557-5.742.003z"/>
            <path fill="#8F8F8F" d="M63.34 29.746l-.93.089 2.301 24.182a10.163 10.163 0 0 1-.806 2.985c-.881 1.93-2.244 2.907-4.047 2.907h-27.64v.935h27.64c5.202 0 5.784-6.724 5.79-6.792l.002-.04-2.31-24.266z"/>
        </g>
    </g>
</svg>
