<svg xmlns="http://www.w3.org/2000/svg" xmlns:xlink="http://www.w3.org/1999/xlink" width="141" height="200" viewBox="0 0 141 200">
    <defs>
        <path id="a" d="M.163.182h41.884v36.496H.163z"/>
        <linearGradient id="c" x1="50%" x2="50%" y1="0%" y2="97.428%">
            <stop offset="0%" stop-color="#D9C2F0" stop-opacity="0"/>
            <stop offset="100%" stop-color="#D9C2F0"/>
        </linearGradient>
    </defs>
    <g fill="none" fill-rule="evenodd">
        <path fill="#714F47" d="M26.097 145.461c-1.604-2.077-2.56-4.381-3.027-6.793.378 3.545-.137 7.376 1.165 10.972-.005-.42.052-.83.185-1.22.76.482 1.385 1.11 2.162 1.555 1.116.64 3.025.857 3.986-.16-.882-.715-1.803-1.344-2.596-2.18a28.096 28.096 0 0 1-1.875-2.174"/>
        <path fill="#714F47" d="M12.902 143.952c.813 4.396 1.835 9.534 5.118 12.824 1.24 1.245 3.329 2.734 5.131 2.86.173.011.37.017.584.015 1.125-.01 2.697-.264 2.984-1.312.248-.904-2.379-5.348-2.45-9.559-.088-5.315.014-10.69 1.285-15.859.718-2.923 2.185-5.71 3.9-8.279-3.682-2.933-8.274-4.357-12.093-7.094-3.428 7.691-5.255 22.091-4.459 26.404"/>
        <path fill="#62342D" d="M22.05 150.738l-1.013.203c.856 3.738 2.445 6.383 4.396 8.261.36-.113.503-.1.87-.144l.073-.087c-2.037-1.724-3.45-4.418-4.327-8.233M19.294 150.724l-1.107.196c.824 3.942 2.156 6.508 4.11 8.43.784.237.784.237 1.476.304-2.083-1.734-3.628-4.847-4.479-8.93M16.636 154.398a9.802 9.802 0 0 0 1.042 1.85c.518.709 1.38 1.578 2.27 1.887-.397-.244-1.64-2.28-2.541-4.483-.14-.338-1.004-4.171-.816-4.195l-1.046.135c-.29.038.919 4.41 1.09 4.806"/>
        <path fill="#F3CFB2" d="M20.02 158.162a.936.936 0 0 1-.072-.027c.031.018.054.029.071.027"/>
        <path fill="#714F47" d="M52.12 44.46l3.317 5.692c.306-.051.644-.202.967-.373-.348-.443-.746-.9-1.189-1.375a29.003 29.003 0 0 1-3.095-3.945"/>
        <path fill="#62342D" d="M47.312 34.022c-.46-1.322-.872-3.196-1.77-4.045-.54 1.788-.45 4.207-.849 6.16-.55 2.697-2.134 5.515-4.182 6.3-.899.346-9.281-4.79-9.119-3.822.847 4.997 7.139 14.575 2.578 18.834 2.217 5.569 16.578 2.653 20.49.3 4.318-2.597 4.308-4.958 1.944-7.97-.323.171-.66.322-.967.373L52.12 44.46a28.987 28.987 0 0 0 3.095 3.945c.443.475.841.932 1.189 1.375.277-.147-4.705-5.717-6.118-8.51-1.14-2.255-2.071-4.657-2.974-7.247"/>
        <path fill="#714F47" d="M44.141 24.15c-1.299.228-1.69 2.705-3.195 2.13-.791-.301-.724-1.783-.977-2.439-1.251-3.272-2.522-6.808-5.144-9.261-1.995-1.863-4.092-.555-5.454 1.082-1.495 1.796-4.546 2.32-5.317 4.708-.22.686.084 1.023.411 1.518a41.2 41.2 0 0 1-1.769.823c-.463.201-.951.303-1.435.4-.461.094-.918.185-1.354.357-.884.348-.602.899-.478 1.788.096.698.226 1.391.377 2.08.652 2.995 1.38 5.675 2.721 8.423 1.378 2.822 3.117 5.6 5.34 7.84.604.61 1.342 1.4 2.166 2.16 1.942 1.787 3.685 2.847 6.283 2.006 2.12-.688 3.648-2.382 5.183-3.908 1.857-1.848 3.694-4.175 4.094-6.844.335-2.247-.52-4.682 1.149-6.579 1.857-2.11.912-6.896-2.6-6.284"/>
        <path fill="#62342D" d="M44.327 26.921c.21.752.499 1.502.759 2.246l.918-.6c-.04-.98-.338-2.506-1.677-1.646"/>
        <path fill="#D4B3A7" d="M38.052 30.155v-.006l-.004.007z"/>
        <path fill="#000" d="M37.489 10.107c-2.692-.843-5.44.43-7.908 1.702-.582.3-1.149.6-1.696.872-.614.306-1.2.495-1.776.62-.527 1.826-1.33 3.564-2.428 5.123-.98 1.393-1.957 2.783-2.875 4.211.155.828.2 1.67.196 2.515a17.163 17.163 0 0 0 2.522-.623c1.507-.498 3.113-1.592 4.15-2.8.63-.734.728-1.632 1.498-2.3 1.395-1.21 3.807-1.794 5.62-1.835 1.731-.038 1.659.59 2.59 2.12 2.088 3.431 2.88 7.702 5.03 11.02 2.076-.508.225-3.196.758-4.501.426-1.044 1.344-.966 1.313-2.456-.02-.96-.504-1.882-.576-2.844-.277-3.613-2.578-9.62-6.418-10.824"/>
        <path fill="#000" d="M28.431 13.597c-2.143 1.453-4.257 3.054-5.698 5.206-1.44 2.152-2.116 4.964-1.18 7.378"/>
        <path fill="#000" d="M21.647 25.573c1.184-1.046 2.464-1.97 3.833-2.703.272-.146.57-.258.855-.385 1.025-2.39 3.904-4.35 5.724-5.601 3.6-2.473-.688-7.747-4.28-5.28-4.92 3.38-9.063 8.145-8.399 14.084.73-.073 1.486-.12 2.267-.115"/>
        <path fill="#62342D" d="M39.574 31.468c-1.171-.833-4.338 1.376-2.455 2.902 1.5 1.218 4.368-1.72 2.496-2.88.134.106.024.025-.04-.022M28.122 31.11c.039 1.241.667 2.417.782 3.667.037.411-.082.846-.226 1.266-.192.559-.422 1.092-.37 1.512.322 2.575 3.124.668 3.406-.965.213-1.234-1.623-6.594-3.592-5.48"/>
        <path fill="#000" d="M36.122 28.88c-.93-.287-1.917-.068-2.459.546-.338.384-.796 1.265-.065 2.849l.68-.313c-.41-.89-.428-1.615-.051-2.043.347-.395 1.02-.527 1.672-.324.684.21 1.139.726 1.216 1.377l.744-.089c-.115-.953-.763-1.7-1.737-2.003"/>
        <path fill="#FFF" d="M29.644 41.241c1.558 3.084 3.584 2.932 4.676 2.636 2.005-.545 3.855-4.04 3.085-6.122l-.112.032c-.31.77-7.258 3.548-7.649 3.454"/>
        <path fill="#000" d="M26.494 33.38c-.834-.258-1.718-.06-2.204.489-.302.344-.712 1.134-.058 2.554l.61-.28c-.368-.798-.384-1.449-.046-1.832.311-.354.914-.473 1.499-.29.612.188 1.02.65 1.09 1.234l.666-.08c-.102-.854-.683-1.524-1.557-1.795M33.282 25.2c-.846.29-1.624.308-2.502.424.415 1.03 1.066 1.889 2.26 1.32.193-.094 1.961-1.145 2.85-1.598.289-.147.483-.23.503-.198-.623-1.028-2.281-.236-3.111.051M22.267 30.252c-.742.675-1.34 1.02-.545 1.905-.133-.148 2.105-1.222 2.264-1.327.273-.183.455-.363.563-.543.322-.537-.01-1.08-.533-1.74.105.137-1.604 1.573-1.749 1.705"/>
        <path fill="#FDD230" d="M19.989 20.577s13.087-4.678 23.006-.687c.424.17.875-.17.832-.624-.301-3.165-.753-11.934-2.733-14.13-4.591-5.09-20.072 1.295-21.704 3.49-1.631 2.193.599 11.95.599 11.95"/>
        <path fill="#000" d="M42.87 17.974l-1.666-.77c-.536-.247-.204-1.104.335-.856l1.666.77c.536.247.204 1.104-.335.856M39.938 17.069l-1.911-.473c-.243-.06-.432-.241-.403-.51.023-.223.27-.463.51-.403l1.911.473c.243.06.432.241.403.51-.023.223-.27.463-.51.403M35.65 16.327c-.39-.23-.84-.275-1.276-.184-.578.121-.709-.79-.13-.91.68-.142 1.354 0 1.947.35.214.127.237.456.1.643-.157.217-.427.227-.641.1M32.177 16.102l-1.385-.146c-.588-.061-.482-.975.107-.912l1.385.145c.588.061.483.974-.107.913M28.286 16.037c-.328-.152-.679-.19-1.022-.063-.552.204-.924-.636-.368-.842a2.226 2.226 0 0 1 1.725.05c.535.248.202 1.105-.335.855M24.917 16.595a1.014 1.014 0 0 0-.737.081c-.533.258-.9-.585-.368-.842.459-.22.957-.238 1.44-.095.239.071.346.379.26.596-.097.247-.356.33-.595.26M21.928 17.412l-1.72.376c-.578.126-.708-.785-.132-.91l1.721-.376c.578-.126.708.785.131.91"/>
        <path fill="#000" d="M43.069 15.386c-7.623-2.828-15.887-1.888-23.497.488-.56.174-.933-.666-.368-.843 7.851-2.45 16.333-3.42 24.2-.501.556.206.22 1.062-.335.856M9.099 30.24c-2.51-.255-5.02-.51-7.531-.763-2.355-.239-1.931-3.891.428-3.652l7.532.762c2.354.239 1.93 3.89-.429 3.652M13.135 38.572l-6.672 1.195c-2.328.418-2.856-3.222-.525-3.64l6.672-1.195c2.328-.417 2.856 3.222.525 3.64M18.884 47.251l-7.13 5.645c-1.857 1.47-4.172-1.386-2.316-2.857l7.13-5.645c1.857-1.47 4.172 1.387 2.316 2.857M30.191 70.997c-1.201-3.927-1.928-14.037-6.417-15.778a3.804 3.804 0 0 0-1.264-.255c-6.958-.227-8.646 9.6-8.662 14.557-.031 10.215 2.043 21.595 1.727 31.81-.146 4.69-.144 8-1.073 12.598-.968 4.793-4.5 12.72-5.055 17.486-.617 5.306 11.216 10.805 16.098 10.335 6.015-.58 5.383-11.957 7.686-16.795 2.181-4.586 2.482-9.129 2.682-14.1.188-4.701-.503-9.397-1.402-14-1.66-8.485-1.771-17.53-4.32-25.858"/>
        <path fill="#F27930" d="M73.914 51.64c-5.226-2.768-12.177-3.432-17.781-4.207-.629-.087-1.149-.422-1.616-.48-.035.779-.465 1.524-1.117 2.097-3.32 2.924-9.147 6.674-13.873 5.437-2.482-.65-3.158-3.279-5.097-4.317-3.145-1.68-13.06 3.399-14.45 6.489-1.574 3.5-.964 7.704-.295 11.345.686 3.727 1.28 7.611 2.148 11.306.52 2.217.815 4.585 1.196 6.837 1.119 6.612 1.213 13.469 2.784 19.987 1.94 8.05 1.62 16.215 2.933 24.36.516 3.195-5.534 64.444-2.85 65.169 5.266 1.42 45.74 2.3 52.824.246.785-.228-.396-28.11.384-28.23 1.537-.238 5.006 27.405 6.355 27.288 3.336-.29 5.748-.809 5.518-4.515-.762-12.225-12.455-94.132-12.272-106.348.09-6.128.155-12.266-.052-18.392-.096-2.855.384-7.461-1.125-10.055-.915-1.573-2.298-3.321-3.614-4.017"/>
        <path fill="#FDD230" d="M53.25 46.31c-2.047 3.929-5.789 5.086-9.822 5.923-2.207.458-4.7.389-6.822-.456-1.024-.408-2.56-3.235-2.845-3.392-.79-.436-1.245.124-2.507 1.318.603 1.82 2.386 3.978 4.05 4.868 3.7 1.974 10.78 1.245 14.684-.756 1.37-.704 2.658-1.847 3.562-3.12.484-.683 1.508-2.652 1.145-3.472-.097-.22-1.223-1.338-1.445-.912"/>
        <path fill="#FDD230" d="M38.099 55.18l4.324 62.278c.08 1.158.8 2.082 1.648 2.116l1.75.07c.94.038 1.663-1.025 1.568-2.308l-4.551-62.042c-.078-1.054-.688-1.926-1.457-2.08l-1.524-.307c-1.009-.203-1.854.89-1.758 2.274"/>
        <path fill="#714F47" d="M42.217 56.858c-1.14-1.697-1.771-3.587-2.93-5.319-1.247-1.861-2.036-3.827-2.669-5.971-.26-.886-.406-2.889-1.186-3.513-.847-.68-2.267.039-3.184.691a7.236 7.236 0 0 0-.464.357c-1.383 1.16-2.2 3.593-2.472 5.328-.6 3.81.775 7.595 2.296 11.024 1.072 2.418 2.519 4.717 4.092 6.84 1.087 1.465 2.296 3.024 3.212 4.595.714 1.227 1.024 2.605 2.05 3.658 1.865 1.916 3.286.633 5.027-.837 1.863-1.574 3.627-3.178 3.316-5.84-.56-4.802-4.6-7.305-7.088-11.013"/>
        <path fill="#62342D" d="M34.785 41.745l-.112-.027c-.322.181-.43.275-.787.394-.476 2.666-.207 5.74 1.296 9.268l.939-.431c-1.533-3.602-1.971-6.612-1.336-9.204M32.276 42.721c-.52.462-.52.462-1.016 1.112-.452 2.706-.022 5.565 1.628 9.238l1.011-.492c-1.71-3.803-2.29-7.23-1.623-9.858M30.652 51.319c-.565-2.313-.756-4.69-.578-5.122-.539.774-.725 1.984-.728 2.862 0 .763.11 1.52.243 2.11.095.422 1.685 4.67 1.942 4.53l.924-.506c-.165.091-1.717-3.517-1.803-3.874"/>
        <path fill="#F3CFB2" d="M30.074 46.197a.776.776 0 0 1 .042-.061c-.015.008-.028.03-.042.061"/>
        <path fill="#000" d="M87.836 65.607c-2.17-6.179-7.557-15.594-15.566-13.471-2.59.686-4.244 2.474-5.333 4.731-1.734 3.592-2.03 8.372-2.362 11.78-.434 4.46 1.128 16.804-2.406 17.264-2.959.385-6.434-24.39-13.71-30.387-.897-.739-19.382 8.705-16.93 13.467 1.496 2.908 15.223 59.823 42.235 54.883 4.835-.884 8.16-5.657 10.994-9.711 4.53-6.477 4.646-44.092 3.078-48.556"/>
        <path fill="#714F47" d="M27.392 100.929c-.008-.006-.019-.01-.03-.016.016.002.027.007.03.016"/>
        <path fill="#62342D" d="M23.84 98.153c.513-.118 1.295.622 2.79 1.101 1.5.478 3.582 1.31 5.19.983 2.06-.417.426-2.192 1.064-3.444 1.67 1.227 3.068 2.554 5.007 3.368 2.183.917 3.198 3.513 10.463 5.171.443.102-7.252 4.489-7.674 5.09-1.417 2.023-6.964-.121-8.865-.919-3.561-1.493-4.315-2.1-7.197-4.633-.691-.61-.013-1.152.214-2.071.191-.775 2.261-1.92 2.53-1.886.011.005.022.01.03.016-.008-.006-.019-.01-.03-.016-.687-.374-5.629-2.272-3.522-2.76"/>
        <path fill="#62342D" d="M82.994 94.38c-3.413.265-6.909-.045-10.235-.847l-.061-.016c-1.961 4.635-5.562 8.18-10.842 9.533-6.703 1.72-14.986 2.075-21.957 1.334-.269.918-.77 2.028-1.03 2.853-.75 2.377-2.834 1.13-1.171 3.099 5.303 6.28 19.359 10.308 27.196 9.115 3.788-.577 4.102.62 7.432-1.51 3.221-2.06 6.043-4.825 8.505-7.737 3.578-4.23 4.008-10.247 4.216-16.075-.681.113-1.367.198-2.053.251"/>
        <path fill="#FDD230" d="M67.511 91.486c.441.238.89.463 1.348.66 3.062 1.32 6.447 1.939 9.762 2.144 2.112.13 4.311.11 6.43-.259.107-3.042.16-6.03.57-8.681.925-5.969.387-10.975-.677-16.959-.385-2.169-.333-4.797-1.438-6.764-2.247-4-4.904-7.05-9.147-3.502-2.91 2.432-4.817 6.479-5.57 10.14-1.367 6.637.922 16.278-1.278 23.22"/>
        <path fill="#D68A8F" d="M56.323 102.673a.702.702 0 0 1 .98.09c.24.293.2.739-.092.98l-.568.47a.701.701 0 0 1-.979-.09.702.702 0 0 1 .091-.98l.568-.47zM51.125 108.035c.07-.01.042-.002 0 0M50.457 109.31c-.072.007-.042 0 0 0"/>
        <path fill="#000" d="M21.016 86.702c1.542-.418 5.418-1.47 6.651-1.803 1.632-.442 2.447.68 2.638 1.3.108.351 2.292 8.423 3.286 12.11.602 2.228 1.097 4.063 1.158 4.284.511 1.857-.647 2.495-1.744 2.793-1.196.323-4.709 1.276-5.904 1.6-2.47.67-3.152-.01-3.603-1.68l-4.16-15.34c-.361-1.335-.52-2.668 1.678-3.264"/>
        <path fill="#FFF" d="M28.85 104.522a.566.566 0 0 1 .132-.149.576.576 0 0 1 .205-.107.504.504 0 0 1 .368.048l-.015.027-.018.026a.442.442 0 0 0-.167-.053.4.4 0 0 0-.151.012.512.512 0 0 0-.298.226.539.539 0 0 0-.072.173.391.391 0 0 0 .003.164.34.34 0 0 0 .072.133.514.514 0 0 0 .312.164.384.384 0 0 0 .148-.012.486.486 0 0 0 .187-.1.521.521 0 0 0 .106-.117.437.437 0 0 0 .058-.344.396.396 0 0 0-.198-.246l.018-.026.016-.027a.45.45 0 0 1 .227.281.486.486 0 0 1-.066.391.553.553 0 0 1-.12.134.556.556 0 0 1-.212.115.469.469 0 0 1-.173.013.557.557 0 0 1-.193-.061.553.553 0 0 1-.161-.126.397.397 0 0 1-.088-.345.59.59 0 0 1 .08-.194"/>
        <path fill="#FFF" d="M28.657 103.896c.099-.07.219-.125.36-.163l.009.03.008.029c-.181.05-.32.127-.427.22a.918.918 0 0 0-.287.502 1.1 1.1 0 0 0 .172.856c.108.152.25.263.427.32.175.057.385.061.625-.004.197-.054.343-.139.45-.24a.836.836 0 0 0 .184-.25c.066-.133.094-.274.1-.4a.99.99 0 0 0-.027-.306v-.003a.97.97 0 0 0-.48-.615 1.011 1.011 0 0 0-.737-.08l-.008-.03-.008-.03c.267-.072.548-.04.786.085.237.126.427.348.51.654v.002a.99.99 0 0 1 .03.281c-.002.17-.041.375-.159.56a.946.946 0 0 1-.24.253c-.103.074-.23.136-.385.178a1.29 1.29 0 0 1-.463.045.893.893 0 0 1-.533-.238 1.11 1.11 0 0 1-.298-.523 1.104 1.104 0 0 1-.035-.336c.01-.186.062-.386.184-.56a.968.968 0 0 1 .242-.237"/>
        <path fill="#FFF" d="M29.994 105.445a.693.693 0 0 0 .08-.085.301.301 0 0 1 .059.028 1.004 1.004 0 0 1-.513.34l.062-.088a.945.945 0 0 0 .312-.195M28.298 104.68c-.008.121.005.236.03.331l.024.078c-.013.023-.028.047-.044.07a1.11 1.11 0 0 1-.077-.466v-.012a.168.168 0 0 1 .067-.002M29.22 105.186a.384.384 0 0 0 .149-.012.493.493 0 0 0 .186-.1.522.522 0 0 0 .107-.117l.015-.029.09-.044a.563.563 0 0 1-.17.235.556.556 0 0 1-.213.116.467.467 0 0 1-.257-.004l.076-.048a.064.064 0 0 0 .018.003"/>
        <path fill="#FFF" d="M29.392 105.718c.05-.008.1-.018.152-.032.03-.009.058-.016.085-.026l.053-.02-.062.087-.06.018a1.29 1.29 0 0 1-.463.045l-.077-.01.028-.059c.105.017.22.017.345-.003M28.91 105.687h.005l.002.002.002.001h.001l.002.002h.006v.002h.005l.003.001h.002v.002h.004c.034.01.07.018.106.024l-.028.059a.875.875 0 0 1-.413-.19l.057-.037a.792.792 0 0 0 .247.134"/>
        <path fill="#D6D6D6" d="M21.192 87.918l1.847-.505c1.102-.3 2.205-.6 3.308-.898.512-.138.947-.26 1.459-.398.449-.121 1.371-.307 1.623.625l1.689 6.233.544 2.005c.329 1.207.656 2.415.984 3.622a507.58 507.58 0 0 0 .52 1.908c.113.419.466 1.349-1.13 1.782-.637.173-5.976 1.605-6.501 1.752-1.245.348-1.505-.598-1.568-.835-.19-.704-.377-1.407-.565-2.112l-.967-3.615h.001l-.385-1.445c-.21-.785-1.315-4.873-1.525-5.658-.11-.409-.128-.489-.238-.896-.305-1.124.271-1.394.904-1.565"/>
        <path fill="#000" d="M103.504 116.375c3.677-.321 11.822-3.132 14.737.69 7.937 10.402 17.735 75.56 17.483 76.945-.373 2.051-40.432 13.197-82.548-2.246-6.636-2.433 14.039-64.578 23.17-73.635 7.335-2.742 20.215-1.148 27.158-1.754"/>
        <path fill="#F27930" d="M72.376 70.144c1.085-3.919 1.82-7.938 3.426-11.695.344-.802 3.967-5.579 4.964-3.88 2.55 4.344 6.544 3.89 11.316 3.876 1.807-.005 3.416-1.01 4.306-2.493 1.327-.845 2.344-1.967 3.238-3.238 2.144.25 5.923.091 7.108.39 2.413.611 7.621 2.391 7.621 2.391s-3.612 9.923-4.021 13.033c-.359 2.74.496 5.68.638 8.423.158 3.056-.514 6.814.02 9.752.481 2.65 2.534 5.146 3.751 7.618 2.96 6.012 9.33 18.196 2.628 23.94-5.847 5.011-16.258 5.47-23.618 5.18-2.526-.1-5.085-.132-7.543-.758-1.795-.456-4.017-.554-5.663-1.377-5.248-2.626-5.317-8.902-6.766-13.58-1.578-5.091-1.897-10.385-2.92-15.546-.741-3.733-1.515-7.763-1.524-11.567-.005-2.178.74-4.252 1.546-6.313.539-1.38 1.105-2.757 1.493-4.156"/>
        <path fill="#A6CACA" d="M66.904 93.4l-.007.016.007-.016zM66.904 93.4"/>
        <path fill="#C67289" d="M89.69 54.874l-.055-.006.011-.02z"/>
        <path fill="#C5E1DF" d="M99.657 87.405c-.026.087-.053.174-.075.26l.062-.265.013.005z"/>
        <path fill="#8F8F8F" d="M87.798 122.553a.122.122 0 0 1 .156.07c.086.228.17.456.253.683a.121.121 0 0 1-.073.156l-.041.006a.122.122 0 0 1-.114-.079 41.018 41.018 0 0 0-.251-.68.12.12 0 0 1 .07-.156"/>
        <path fill="#D68780" d="M64.254 94.403l.019-.03a.139.139 0 0 1-.019.03"/>
        <path fill="#FFF" d="M105.706 60.536c.335-.18.755-.087.952.249.186.317.084.773-.25.952a.734.734 0 0 0-.09.051h-.001c-.006.005-.009.01-.018.017a2.598 2.598 0 0 0-.069.073l-.002.003-.012.017c-.1.144-.176.302-.254.458-.17.339-.64.432-.951.249-.343-.2-.419-.612-.249-.95.222-.446.491-.878.944-1.12M104.99 66.362c-.15.45-.312.903-.323 1.38-.021.895-1.412.896-1.39 0 .013-.607.181-1.179.372-1.75.281-.847 1.624-.483 1.34.37M103.276 72.783c.379 0 .696.316.696.696v.869a.702.702 0 0 1-.696.695.702.702 0 0 1-.695-.695v-.87c0-.38.316-.695.695-.695M102.208 80.607l.014-.062c-.009.033.01-.09.01-.113a.704.704 0 0 1 .696-.695c.371 0 .706.316.696.695-.006.204-.04.406-.09.602-.017.072-.04.141-.06.21-.021.075-.038.305-.024.057-.02.378-.3.696-.696.696-.363 0-.716-.318-.695-.696.009-.165.043-.318.089-.475.022-.073.041-.145.06-.219M103.45 88.429c0 .587.013 1.154.149 1.727.207.872-1.135 1.242-1.342.37-.164-.693-.198-1.388-.198-2.097 0-.897 1.39-.897 1.391 0M98.06 57.832c.02-.895 1.411-.896 1.391 0-.012.562-.194 1.053-.372 1.576-.122.359-.474.591-.856.486-.349-.096-.607-.497-.485-.855.134-.395.314-.784.323-1.207M92.848 61.753c.008-.025.017-.05.02-.078v.01c.074-.31.33-.55.673-.55.363 0 .716.317.695.696-.011.203-.05.313-.128.496a1.87 1.87 0 0 1-.048.103c-.008.026-.017.051-.021.078l.002-.01c-.075.311-.332.55-.674.55-.364 0-.715-.317-.695-.695.01-.203.05-.314.127-.496.015-.035.032-.07.049-.104M93.163 66.38c.256.257.254.639.053.916l-.011.035-.01.088c-.002.05-.002.099-.002.15a.702.702 0 0 1-.695.694.701.701 0 0 1-.696-.695c.001-.436.075-.855.378-1.188.256-.28.725-.258.983 0M101.513 95.198c.164.514.199 1.038.199 1.575 0 .898-1.391.898-1.391 0 0-.441-.017-.792-.15-1.206-.273-.857 1.07-1.22 1.342-.369M88.328 61.58c.007-.026.017-.051.02-.079v.01c.074-.31.33-.55.673-.55.364 0 .716.317.695.696a1.28 1.28 0 0 1-.127.497l-.048.103a.446.446 0 0 0-.022.078l.002-.01c-.076.31-.332.549-.673.549-.365 0-.716-.317-.696-.695.01-.203.05-.313.128-.496.015-.035.03-.07.048-.103M88.848 67.393c-.013.528-.163 1.04-.175 1.566-.02.895-1.41.897-1.39 0 .012-.528.161-1.04.173-1.566.02-.894 1.412-.895 1.392 0M84.852 61.057c.348.204.41.608.25.951.057-.122-.023.07-.027.082-.007.024-.036.2-.037.179-.02.2-.016.404-.016.605 0 .38-.316.695-.695.695a.701.701 0 0 1-.695-.695c0-.55.031-1.063.268-1.567.163-.343.647-.428.952-.25M82.936 66.524c.021-.894 1.412-.897 1.391 0-.014.608-.182 1.179-.372 1.751-.282.846-1.625.483-1.341-.371.149-.449.312-.902.322-1.38M80.155 61.136c.378-.036.696.343.696.695a.65.65 0 0 1-.217.494c.081.306 0 .625-.302.802-.302.177-.794.096-.95-.249-.15-.33-.227-.678-.108-1.032.137-.414.447-.67.881-.71M79.956 66.015c-.163.501-.312 1.022-.322 1.554-.018.894-1.41.896-1.391 0 .013-.656.17-1.305.373-1.925.276-.848 1.62-.485 1.34.37M101.536 58.674l.026-.038a1.93 1.93 0 0 0 .16-.29c.06-.124.082-.3.086-.438a.705.705 0 0 1 .695-.696c.372 0 .707.317.696.696a2.728 2.728 0 0 1-.725 1.795c-.617.653-1.599-.332-.984-.984a1 1 0 0 1 .046-.045M99.961 64.957c-.006.005.017-.175.018-.2.005-.109.004-.22.004-.33 0-.898 1.39-.898 1.39 0 0 .6-.091 1.11-.355 1.653-.165.341-.644.43-.951.251-.346-.203-.415-.611-.25-.952a1.9 1.9 0 0 0 .144-.422M96.68 63.905v2.086c0 .896-1.39.896-1.39 0v-2.086c0-.897 1.39-.897 1.39 0M76.868 59.654c.349.205.409.607.25.951-.177.38-.166.806-.166 1.214-.001.896-1.393.897-1.392 0 0-.676.068-1.298.356-1.915.16-.345.647-.428.952-.25M74.604 66.86c.378 0 .695.316.695.695v.782a.702.702 0 0 1-.695.696.702.702 0 0 1-.696-.696v-.782c0-.38.316-.696.696-.696M100.306 72.433c-.213.626-.482 1.233-.497 1.902-.02.894-1.41.898-1.39 0 .018-.808.29-1.518.546-2.272.287-.844 1.63-.48 1.34.37M95.281 73.382c-.237.476-.416.934-.426 1.474-.018.896-1.408.897-1.39 0 .015-.794.266-1.475.615-2.176.401-.802 1.6-.099 1.201.702M97.288 80.157c.38 0 .696.317.696.696v.521c0 .38-.317.696-.696.696a.702.702 0 0 1-.695-.696v-.52c0-.38.317-.697.695-.697M96.506 86.155c.38 0 .696.317.696.695v1.044c0 .379-.317.695-.696.695a.702.702 0 0 1-.696-.695V86.85c0-.378.317-.695.696-.695M98.244 97.28v3.13c0 .897-1.39.897-1.39 0v-3.13c0-.896 1.39-.896 1.39 0M94.594 98.584v1.565c0 .896-1.39.896-1.39 0v-1.565c0-.897 1.39-.897 1.39 0M93.377 89.283c.38 0 .696.317.696.696v.782c0 .38-.316.697-.696.697a.702.702 0 0 1-.695-.697v-.782c0-.379.316-.696.695-.696M93.551 81.374c-.018.536-.242 1.036-.26 1.565-.031.895-1.422.898-1.391 0 .018-.535.242-1.036.26-1.565.031-.894 1.422-.897 1.391 0M88.18 73.857l.01-.018a1.22 1.22 0 0 0 .043-.17c-.005.013.012-.126.013-.154.003-.074.003-.149.003-.224 0-.378.316-.695.695-.695.38 0 .696.317.696.695 0 .556-.077 1.11-.465 1.535-.255.28-.724.258-.983 0-.27-.27-.254-.68-.018-.96l.006-.01M88.858 79.55v2.346c0 .898-1.391.898-1.391 0V79.55c0-.898 1.391-.898 1.391 0M88.858 88.677v1.563c0 .897-1.391.897-1.391 0v-1.563c0-.899 1.391-.899 1.391 0M88.944 96.063c.38 0 .696.317.696.696v.782a.702.702 0 0 1-.696.695.701.701 0 0 1-.695-.695v-.782c0-.379.316-.696.695-.696M90.422 103.278v1.304c0 .896-1.39.896-1.39 0v-1.304c0-.898 1.39-.898 1.39 0M93.638 104.147h.26c.38 0 .696.316.696.695a.702.702 0 0 1-.695.695h-.26a.702.702 0 0 1-.696-.695c0-.379.316-.695.695-.695M82.575 72.433c-.202.635-.236 1.24-.236 1.902 0 .897-1.39.897-1.39 0 0-.777.048-1.526.285-2.272.27-.85 1.614-.487 1.341.37M82.078 80.332v1.824c0 .898-1.39.898-1.39 0v-1.824c0-.898 1.39-.898 1.39 0M82.339 88.415v1.564c0 .898-1.39.898-1.39 0v-1.564c0-.897 1.39-.897 1.39 0M82.165 95.02c.379 0 .696.317.696.696v1.043a.702.702 0 0 1-.696.695.702.702 0 0 1-.696-.695v-1.043c0-.38.317-.696.696-.696M82.252 102.235c0-.897 1.392-.897 1.391 0 0 .675-.068 1.297-.356 1.915-.16.344-.647.427-.951.249-.35-.204-.41-.607-.25-.95.176-.38.165-.806.166-1.214M75.994 73.291c0-.896 1.391-.896 1.39 0 0 .688-.074 1.353-.285 2.01-.272.851-1.615.487-1.34-.37.175-.55.235-1.066.235-1.64M76.08 80.07c.002 1.074-.005 2.155.237 3.206.2.872-1.14 1.244-1.341.37-.27-1.173-.285-2.377-.285-3.575-.001-.896 1.39-.896 1.39 0M77.124 89.459v1.824c0 .897-1.391.897-1.391 0v-1.824c0-.898 1.391-.898 1.391 0M77.906 99.106c0 1.166.02 2.317.236 3.466.166.876-1.174 1.25-1.34.369-.24-1.273-.286-2.542-.286-3.835 0-.898 1.39-.898 1.39 0M71.649 72.51c.001-.897 1.392-.898 1.39 0 0 .675-.067 1.297-.355 1.914-.16.344-.647.428-.951.25-.35-.205-.41-.608-.25-.95.177-.38.166-.806.166-1.214M71.823 80.07v1.566c0 .896-1.391.896-1.391 0v-1.565c0-.896 1.39-.896 1.39 0M72.316 87.302c.38 0 .697.316.697.695v.783a.702.702 0 0 1-.697.695.701.701 0 0 1-.694-.695v-.783c0-.379.316-.695.694-.695"/>
        <path fill="#62342D" d="M31.929 94.39c.298.37.616.72.999.997 1.636 1.186 3.537 1.825 4.733 3.502.347.486 1.36 1.844 1.196 2.476-.175.675-1.615 1.063-2.188 1.001-1.666-.18-2.454-2.034-2.995-3.39-.381-.958-.877-1.458-1.496-2.307-.26-.354-.674-.824-.686-1.294-.002-.092.28-1.177.437-.985"/>
        <path fill="#714F47" d="M62.689 102.616c-.117-1.111.38-2.705 1.527-3.112.259.952.436 1.907.821 2.83.32.766.672 1.522 1.07 2.254 1.088 2.005 2.583 3.574 4.337 4.792-2.686-1.545-5.912-2.482-8.313-4.78.331.152.677.25 1.034.282-.116-.773-.395-1.49-.476-2.266"/>
        <path fill="#714F47" d="M53.997 101.481c.403-.89 1.156-2.051 2.09-1.911.806.12 3.416 3.77 6.739 5.304 4.196 1.938 8.504 3.745 13.058 4.55 2.578.456 5.307.268 7.953-.192 1.039 3.957.557 8.108 1.392 12.105-7.318.023-19.408-3.581-22.557-5.73-3.209-2.19-6.934-4.807-8.398-8.572-.553-1.422-1.003-3.607-.47-5.083.051-.142.115-.3.193-.471"/>
        <path fill="#62342D" d="M55.465 99.62c.655 2.226 2.3 4.294 5.025 6.332l-.517.734c-2.67-1.995-4.215-4.186-5.024-6.397.217-.245.258-.363.421-.64l.095-.028zM59.533 108.147l-.544.812c-2.845-2.038-4.417-4-5.259-6.23.087-.705.087-.705.278-1.279.646 2.266 2.579 4.586 5.525 6.697M56.543 108.62c.22.23 2.963 2.262 3.048 2.122l-.474.784c-.132.218-3.183-2.28-3.438-2.555a8.576 8.576 0 0 1-1.104-1.48c-.382-.66-.77-1.65-.704-2.467.055.402 1.237 2.104 2.672 3.596"/>
        <path fill="#714F47" d="M53.871 105.024a.57.57 0 0 1 .005-.065c-.008.013-.008.034-.005.065"/>
        <path fill="#FDD230" d="M108.663 90.747c2.836.961 5.728 1.75 8.672 2.305 3.057.575 6.16.875 9.248 1.234 1.98.23 3.962.44 5.944.655 1.818-13.792-4.408-27.105-8.088-32.62-2.454-3.677-6.36-7.583-11.185-6.952-9.532 1.248-5.28 13.993-4.708 19.636.335 3.3.833 9.697.117 15.742"/>
        <path fill="#714F47" d="M115.89 118.096c6.239-7.067 11.203-15.116 14.152-23.872-1.621-.18-3.242-.359-4.862-.55-2.976-.348-5.95-.669-8.887-1.273a61.63 61.63 0 0 1-5.525-1.418c-.705 5.018-3.332 8.724-6.987 11.378a8.193 8.193 0 0 1-2.212 1.41c-4.057 2.287-8.98 3.559-13.845 4.084-4.175.45-16.573.457-16.718.567-3.057 2.3 2.085 7.841 4.602 10.77 1.87 2.176 25.338 5.039 40.283-1.096"/>
        <path fill="#FFF" d="M72.464 93.792c.4-.216.979-.078 1.182.352.128.272.226.557.309.846.024.085.049.17.075.254l.021.044A.88.88 0 0 1 74 96.5c-.338.32-.917.318-1.233-.036-.224-.251-.337-.522-.44-.84-.092-.28-.123-.455-.215-.65-.202-.43-.083-.946.352-1.18M74.746 101.268c.391.015.77.23.946.588.131.267.149.551.149.843 0 .474-.448.852-.907.834-.441-.02-.761-.356-.822-.768a.873.873 0 0 1-.274-.663.881.881 0 0 1 .908-.834"/>
        <path fill="#5C7393" d="M75.955 39.254c.27.264.544.54.912.668.282.098.468.363.383.66-.075.267-.393.475-.675.377-.558-.195-.983-.541-1.397-.945-.502-.49.276-1.25.777-.76M80.076 42.626c.417.418.746.916 1.076 1.399.166.244.05.594-.198.736-.27.154-.586.05-.75-.193-.28-.41-.553-.827-.904-1.182-.494-.496.282-1.257.776-.76M82.213 41.898c.25-.144.613-.067.752.192.18.334.466.593.738.86.502.49-.275 1.25-.777.759-.334-.327-.688-.664-.91-1.076a.538.538 0 0 1 .197-.735M86.742 45.641c.645.645 1.273 1.31 1.697 2.126.394.758-.752 1.43-1.147.67-.374-.72-.92-1.287-1.488-1.857-.606-.606.333-1.544.938-.939"/>
        <path fill="#62342D" d="M100.743 53.056c-.332-.213-1.267-.96-2.13-1.623-1.853-3.075-2.887-10.13-3.73-13.595-.354-1.454-.114-1.967-1.392-2.702-.98 1.866-.7 3.946-1.39 5.88-.835 2.347-2.778 4.79-5.03 5.455-.987.292-1.975 0-2.971.102-.5.052-2.809-.869-2.81-.869.371.148.113 5.26-.182 7.38-.563.545-1.429 1.398-1.644 1.605.144.304 1.078 2.527 4.481 4.397.875.48 5.562.768 6.916.348 2.04-.631 4.01-1.378 5.653-2.514a16.467 16.467 0 0 0 4.229-3.864"/>
        <path fill="#714F47" d="M76.316 21.704c1.85-1.42 4.934-1.428 7.037-.605 2.801 1.097 3.588 3.419 4.961 5.858.603 1.074 1.372 3.085 2.852 3.186 1.824.124 2.523-1.992 3.937.365.74 1.236.7 3.035-.318 4.126-1.436 1.54-.732 3.548-1.04 5.39-.365 2.187-1.947 4.077-3.543 5.576-1.318 1.236-2.632 2.611-4.439 3.153-1.942.584-3.863-.137-5.575-1.398-2.941-2.17-5.83-5.88-7.097-9.24-1.09-2.887-2.66-6.999-1.697-10.11.681-2.199 3.121-4.92 4.922-6.301"/>
        <path fill="#000" d="M84.836 29.516c-.015-.028-.176.038-.416.154-.736.36-2.204 1.2-2.364 1.27-.99.452-1.512-.262-1.839-1.115.723-.082 1.363-.086 2.062-.312.686-.225 2.06-.852 2.557.003"/>
        <path fill="#62342D" d="M94.228 33.453l-.758.472c-.204-.598-.435-1.203-.599-1.809 1.104-.675 1.333.552 1.357 1.337"/>
        <path fill="#000" d="M73.676 33.96c.114-.113 1.468-1.351 1.377-1.46.452.525.743.96.498 1.41-.083.152-.226.306-.444.466-.127.092-1.928 1.05-1.815 1.168-.682-.7-.203-1.004.384-1.584"/>
        <path fill="#CDE6F2" d="M78.247 35.754l-.064.004a.737.737 0 0 0 .163-.028c-.032.008-.061.018-.099.024"/>
        <path fill="#EEE0D6" d="M78.247 35.754l-.064.004a1.4 1.4 0 0 0 .113-.014c-.015.003-.03.008-.049.01M78.346 35.73c-.016.006-.033.01-.05.014l.02-.006.03-.008z"/>
        <path fill="#D4B3A7" d="M87.703 34.648H87.7l.003-.005z"/>
        <path fill="#D4B3A7" d="M87.703 34.648H87.7l.003-.005z"/>
        <path fill="#D9BCB0" d="M89.826 30.623l-.003-.037a.067.067 0 0 1 .003.037"/>
        <path fill="#000" d="M83.497 13.485c4.156-.332 8.657.544 11.511 2.704 6.712 5.08 7.05 14.46 1.795 20.674-.716.846-1.29 1.793-1.966 2.654-.26.33-1.133-3.337-.962-3.914.336-1.127 1.555-1.904 1.736-3.072.147-.948-.709-2.866-1.955-2.605-.856.18-.561 1.438-1.58 1.468-.79.022-2.238-1.912-2.86-2.376-1.188-.882-2.325-1.839-3.435-2.82-2.01-1.778-4.598-2.771-7.327-2.818a7.052 7.052 0 0 0-2.407.389c.962-3.998 4.06-7.877 7.45-10.284"/>
        <path fill="#000" d="M77.048 15.242c1.783-.978 4.059-1.566 6.449-1.757-3.39 2.407-6.487 6.286-7.45 10.284a7.834 7.834 0 0 0-3.431 2.37c-1.346 1.605-1.418 3.687-1.405 5.677-.889-1.475-1.498-2.989-1.634-4.712-.151-1.887.22-3.871.949-5.62 1.135-2.729 3.945-4.83 6.522-6.242"/>
        <path fill="#62342D" d="M88.427 35.003c.062.046.167.125.04.021 1.808 1.127-1.014 3.892-2.459 2.713-1.813-1.477 1.29-3.542 2.42-2.734M81.616 39.474c-.246 1.307-2.557 2.809-2.797.739-.039-.336.155-.762.316-1.208.123-.337.225-.685.199-1.015-.084-1.004-.588-1.953-.607-2.95 1.622-.873 3.075 3.446 2.889 4.434"/>
        <path fill="#000" d="M85.083 32.392c.94.205 1.608.846 1.788 1.715l-.692.138c-.123-.595-.59-1.035-1.25-1.178-.629-.137-1.251.035-1.548.425-.321.423-.248 1.09.207 1.879l-.616.339c-.808-1.403-.447-2.25-.159-2.63.46-.606 1.373-.883 2.27-.688M76.469 36.332c.643.14 1.1.58 1.224 1.174l-.474.095c-.084-.407-.404-.708-.856-.807-.43-.094-.856.025-1.06.292-.22.289-.17.746.142 1.286l-.422.233c-.554-.963-.305-1.541-.108-1.801.315-.416.94-.605 1.554-.472"/>
        <path fill="#62342D" d="M77.549 39.108c.052.04.14.105.033.019 1.524.95-.854 3.277-2.07 2.284-1.528-1.243 1.085-2.982 2.037-2.303"/>
        <path fill="#5C7393" d="M82.061 42.648a.52.52 0 0 1 .7.194c.178.325.45.578.71.839.48.479-.212 1.207-.69.728-.32-.32-.658-.648-.877-1.05-.138-.253-.082-.564.157-.711"/>
        <path fill="#62342D" d="M85.618 40.887c.154-.056.61.605.582.621a.206.206 0 0 1-.085.023c-.204.013-.752-.55-.497-.644"/>
        <path fill="#FFF" d="M82.272 43.064c1.046-.434 2.064-.827 3.037-1.404.104-.06.053.684.017.763-1.088 2.362-3.762 3.93-5.756 1.552.824.078 1.961-.602 2.702-.911"/>
        <path fill="#62342D" d="M79.762 43.466c.128-.225.235-.615.477-.73.292-.136.781-.046 1.05.131.096-.293.164-.602.473-.745.512-.235 1.115-.29 1.657-.316.628-.029 1.368-.079 1.972-.316.074-.028-.114.244-.125.257-.075.073-2.408 1.387-3.198 1.696-.512.203-1.012.427-1.558.511-.215.033-.415.095-.633.102-.02 0-.413-.036-.344-.093.113-.09.158-.372.23-.497"/>
        <path fill="#62342D" d="M82.025 45.05c.985-.143 1.903-.747 2.544-1.467.295-.332.56-.698.664-1.054.101-.337.083-.62.097-.942.183.146.22.623.214.854-.024 1.177-.55 2.455-1.582 3.093-.637.394-1.46.71-2.215.515-.751-.193-1.202-1.093-1.764-1.588-.136-.12-.201-.32-.345-.423.72.521 1.312 1.086 2.217 1.03a3.32 3.32 0 0 0 .17-.018"/>
        <path fill="#000" d="M84.592 34.659a1.105 1.105 0 1 1-2.21 0 1.105 1.105 0 0 1 2.21 0M76.434 37.943a1.105 1.105 0 1 1-2.21 0 1.105 1.105 0 0 1 2.21 0"/>
        <path fill="#FDD230" d="M95.416 35.656a1.14 1.14 0 1 1-2.281 0 1.14 1.14 0 0 1 2.281 0"/>
        <g transform="translate(65.809 .185)">
            <mask id="b" fill="#fff">
                <use xlink:href="#a"/>
            </mask>
            <path fill="#FDD230" d="M33.326 33.706S13.367 15.88 5.034 20.53c0 0-1.446 4.462-1.356 5.426.09.964-3.876-3.294-3.488-4.65.388-1.357 4.07-7.752 3.682-8.721-.388-.969 4.457-6.007 4.457-6.007L11.236.182 26.544.57s13.953 2.519 13.953 3.488c0 .969 1.356 10.27.387 10.076-.969-.193-3.682 1.163-3.682 1.163l4.845 11.046-6.201 4.65v4.07l-4.852 1.615 2.332-2.972z" mask="url(#b)"/>
        </g>
        <path fill="#000" d="M108.091 92.213a67.951 67.951 0 0 0 9.214 2.161c1.788.286 5.383 1.487 6.64-.427.585-.892.475-2.142.558-3.156l.374-4.557.804-9.815-3.61.49c1.302 4.546.635 9.246.756 13.903.045 1.705-.001 3.563 1.785 4.358 1.95.87 4.59.973 6.689 1.387 2.31.455 3.3-3.088.977-3.545l-2.716-.535c-.844-.166-2.3-.169-3.056-.602-.548-.315.023.311.02-.389-.001-.45-.03-.9-.034-1.35-.011-1.018.01-2.035.033-3.052.084-3.758.135-7.506-.91-11.154-.594-2.073-3.445-1.526-3.61.49l-.661 8.061a13602.67 13602.67 0 0 1-.488 5.96c-.034.413.082 1.36-.086 1.65l1.098-.844c-.673.275-2.218-.211-2.917-.315a64.729 64.729 0 0 1-3.331-.584 68.96 68.96 0 0 1-6.552-1.68c-2.266-.696-3.236 2.852-.977 3.545M78.738 54.984c1.605 2.595 3.876 4.454 6.719 5.554l-.304-1.151c-2.052 1.732-2.083 4.936-.099 6.733v-.975c-1.87 1.812-1.546 4.814.568 6.275l-.247-.943c-.669 1.098-1.402 2.417-1.195 3.758.08.522.31.853.551 1.306.585 1.099.605 1.534.262 2.643-.565 1.828.798 3.805 2.768 2.482 1.121-.753 1.23-2.23 1.399-3.448.224-1.615.553-3.266.25-4.893-.178-.955-.382-1.28-.056-2.193.176-.491.335-.943.389-1.464.136-1.333-.295-2.473-1.1-3.512v.975c1.79-1.7 2.073-4.409.595-6.408l-.413 1.013c4.609-1.177 9.649-2.713 11.832-7.365.375-.799-.814-1.5-1.19-.696-2.03 4.323-6.737 5.64-11.008 6.731-.396.101-.678.653-.412 1.013 1.12 1.515 1.008 3.42-.378 4.737-.294.28-.223.686 0 .975.794 1.026.924 2.301.394 3.456-.237.518-.56.743-.548 1.297.009.441.441 1.245.526 1.72.11.62.134 1.173.096 1.805-.067 1.126-.25 2.29-.44 3.401-.125.72.018.808-.809.894-.97.1-.547-.112-.331-.781.159-.493.323-.995.257-1.521-.061-.489-.289-.74-.519-1.16-.327-.6-.724-1.354-.678-2.101.037-.592.634-1.452.948-1.968.205-.335.055-.734-.247-.943-1.41-.975-1.487-2.95-.29-4.11.259-.25.274-.728 0-.975-1.46-1.323-1.393-3.523.1-4.784.434-.367.132-.983-.305-1.152-2.493-.965-4.49-2.65-5.895-4.921-.465-.753-1.658-.062-1.19.696"/>
        <path fill="#D9C2F0" d="M0 184h141v16H0z"/>
        <path fill="url(#c)" d="M0 124h141v61H0z"/>
    </g>
</svg>
