<svg xmlns="http://www.w3.org/2000/svg" xmlns:xlink="http://www.w3.org/1999/xlink" width="137" height="200" viewBox="0 0 137 200">
    <defs>
        <path id="a" d="M.299.218h48.837V89.08H.299z"/>
        <linearGradient id="c" x1="50%" x2="50%" y1="0%" y2="97.428%">
            <stop offset="0%" stop-color="#B8EBD6" stop-opacity="0"/>
            <stop offset="100%" stop-color="#B8EBD6"/>
        </linearGradient>
    </defs>
    <g fill="none" fill-rule="evenodd">
        <path fill="#714F47" d="M37.9 29.162c-.051-.088-30.271 19.847-27.857 29.747 2.062 8.461 22.825 14.673 22.825 14.673l1.682-2.748.475-10.334-10.789-3.93a1.534 1.534 0 0 1-.665-2.413c3.412-4.179 12.17-14.908 14.041-17.232 2.474-3.072 4.484-4.54 2.587-5.894"/>
        <path fill="#FFD200" d="M23.384 37.752c-.692 2.778 2.48 4.803 4.483 6.061 1.672 1.05 4.381 1.603 5.2-.794.333-.975-1.146-1.603-1.48-.624-.644 1.883-3.125-.078-4.006-.73-1.171-.867-3.025-2.01-2.606-3.69.25-1.003-1.343-1.216-1.59-.223"/>
        <path fill="#FFD200" d="M27.332 35.146c-1.363.24-2.658.958-2.48 2.56.18 1.597 1.916 2.863 3.146 3.654 1.524.98 7.407 3.738 7.213-.14-.052-1.032-1.644-.818-1.593.209.079 1.569-10.42-3.925-6.078-4.69 1.014-.18.812-1.773-.208-1.593"/>
        <g transform="translate(59.957 110.865)">
            <mask id="b" fill="#fff">
                <use xlink:href="#a"/>
            </mask>
            <path fill="#000" d="M33.82 8.115L49.136 89.08l-16.772-1.12-11.905-49.57c-.352-.874-.014-.943 0 0l4.45 49.198s-10.357-.122-14.536-1.863C6.902 84.278 2.296 28.954.326 12.392-.04 9.32 3.334.815 6.406.434c8.116-1.007 21.73 1.502 27.414 7.68" mask="url(#b)"/>
        </g>
        <path fill="#FFF" d="M80.624 173.6c-7.701-1.013-21.156-.789-21.782-6.97-.332-3.284-2.033-55.18 4.357-74.64.357-1.089-12.425.168-11.826-5.32 0 0-1.416-23.232 18.267-26.545l13.885-.061 13.93 4.124 11.175 6.159c7.293 5.932-2.34 20.279-2.34 20.279s-7.276 44.985-2.141 76.876c.842 5.228-23.525 6.099-23.525 6.099"/>
        <path fill="#000" d="M83.073 60.096c-.69 1.417-1.018 2.93-.723 4.565.321 1.776 1.135 3.42 1.878 5.05 1.33 2.914 2.27 5.753 2.352 8.982.08 3.154-.46 6.313-1.157 9.378-1.396 6.145-3.743 12.2-4.319 18.508 2.144-.218 4.322-.43 6.425-.014-.313-3.345 1.018-6.682 1.346-10.003a58.922 58.922 0 0 1 1.962-10.287c.843-2.973 1.673-5.965 3.26-8.638 2.34-3.94 5.562-7.29 6.616-11.654l-3.257-1.795-13.931-4.124-.452.032zM99.857 138.064c-2.882 0-2.877-4.472 0-4.472 2.883 0 2.878 4.472 0 4.472m-6.503 1.927c-2.882 0-2.878-4.473 0-4.473 2.883 0 2.879 4.473 0 4.473m-6.744.963c-2.882 0-2.878-4.472 0-4.472 2.883 0 2.879 4.472 0 4.472m-7.225-.481c-2.883 0-2.878-4.473 0-4.473 2.883 0 2.878 4.473 0 4.473m-6.744-.723c-2.883 0-2.878-4.473 0-4.473 2.883 0 2.878 4.473 0 4.473m-6.262-2.408c-2.883 0-2.878-4.473 0-4.473 2.883 0 2.878 4.473 0 4.473m-5.299-2.891c-2.883 0-2.878-4.472 0-4.472 2.883 0 2.878 4.472 0 4.472m38.488-2.277c-7.298 2.041-15.212 2.397-22.717 1.469-4.032-.5-7.908-1.577-11.64-3.175-2.348-1.006-4.33-2.62-6.429-4.043a417.598 417.598 0 0 0-.247 7.38c1.928 2.682 4.762 4.53 7.83 5.763 6.563 2.636 14.066 3.248 21.067 2.885 5.167-.268 10.141-1.381 14.891-3.185.017-2.701.077-5.383.17-8.021-.965.34-1.94.652-2.925.927"/>
        <path fill="#000" d="M67.262 129.182c7.038 2.835 14.92 3.315 22.421 2.719a48.129 48.129 0 0 0 12.892-2.832c.051-1.215.108-2.419.172-3.607-2.709.997-5.515 1.703-8.37 2.162-7.248 1.165-14.773.957-21.92-.747-4.737-1.13-9.426-3-13.41-5.84-.058 1.015-.112 2.035-.161 3.056 2.793 1.7 5.282 3.844 8.376 5.09"/>
        <path fill="#FFD200" d="M103.134 159.512c-.388.211-.927.25-1.17.616-3.07 4.602-15.898 5.684-24.214 5.655-6.652-.024-13.546-1.383-19.16-5.025.092 3.182.193 5.291.252 5.873.626 6.18 14.08 5.956 21.782 6.97 0 0 24.367-.87 23.525-6.099-.417-2.587-.75-5.261-1.015-7.99"/>
        <path fill="#FFF" d="M107.433 70.384s12.417 3.269 18.716 20.696c.914 2.527 15.838 27.715 5.76 41.032-14.185 18.744-26.996-10.798-29.155-16.917l-3.51-25.16 8.189-19.651z"/>
        <path fill="#714F47" d="M106.12 88.589s0-.052.004-.146c.025-.777.157-4.438.426-5.425.301-1.106-2.547-2.54-2.425-4.119.122-1.579-2.925.78-.71 2.714 1.085.948-.065 3.327-.065 3.327s2.228 4.336 2.77 3.649M86.038 86.104s-2.229 1.595-2.197 1.506c.267-.73 4.363-5.216 4.482-6.232.133-1.138 3.165-1.624 3.642-3.134.477-1.51 2.107 2.285-.774 2.87-1.508.304-1.146 2.172-1.146 2.172s-3.763 3.658-4.007 2.818"/>
        <path fill="#4A4A4B" d="M96.638 69.182l7.893 3.236c.637.261.96.934.812 1.69l-5.106 20.117c-.226.634-1.59 1.57-2.646 1.088l-7.246-3.99c-.658-.27-.979-.978-.797-1.76l4.127-18.834c.29-1.245 1.915-1.977 2.963-1.547"/>
        <path fill="#2B2C2B" d="M95.903 69.557l7.893 3.235c.637.261.96.934.812 1.69l-4.912 18.83c-.25 1.275-.473 2.327-1.547 1.887l-8.54-3.501c-.657-.27-.978-.979-.796-1.76l4.365-18.722c.29-1.246 1.677-2.09 2.725-1.66"/>
        <path fill="#714F47" d="M106.973 96.904c-.69-3.02-.307-7.45-1.434-10.066a43.207 43.207 0 0 0-1.046-2.205c-.264-.529-.335-1.034-.521-1.578-.499-1.45-1.875-2.862-2.943-3.92-.904-.896-1.945-1.76-2.32-2.976-.076-.247-.143-.53-.366-.659-.251-.144-.578-.011-.784.192-.62.615-.49 1.653-.164 2.463a7.12 7.12 0 0 0 1.1 1.85c.372.455.941.809 1.192 1.292.442.849.688 1.635 1.329 2.399.838 1 1.907 1.656 2.828 2.541 0 0-3.013-3.606-6.17-5.075-1.87-.87-3.326.735-5.182.672-.526-.018-1.132-.158-1.522.196-.08.073-.148.174-.14.283l.002.007c.057.5.493.887.973 1.04 1.534.49 3.666.56 5.386.171l4.33 4.207s-2.48-1.51-6.023-2.703c-1.48-.498-2.104.518-2.917 1.628a8.56 8.56 0 0 1-1.88 1.872c-.066.047-.136.1-.155.179-.017.074.018.15.06.214.24.376.703.566 1.149.57.446.004.878-.154 1.28-.35.697-.34 1.153-.909 1.608-1.513l4.55 2.788a49.438 49.438 0 0 0-2.575-.29c-1.067-.095-3.424-.698-3.994.497-.42.878.212 1.929.013 2.882-.044.21-.129.422-.089.634.063.33.43.537.764.507.333-.03.625-.246.842-.5.462-.542.71-1.46.032-2.03 0 0 3.039.614 3.25 1.1 4.044 9.26 6.653 8.438 6.653 8.438s2.73-1.366 2.884-4.757"/>
        <path fill="#714F47" d="M93.793 83.673l.253-.161c.055.026.114.047.171.072-.141.029-.281.054-.424.09m1.098 10.852c.161.293.404.563.725.66.32.095.722-.034.85-.344.08-.199.04-.423.04-.639-.005-.973.825-1.876.59-2.82-.318-1.285-2.748-1.168-3.813-1.29a49.116 49.116 0 0 0-2.58-.231l5.016-1.819c.325.683.658 1.332 1.273 1.806.353.272.745.513 1.183.6.437.085.93-.009 1.24-.329.053-.055.103-.122.101-.198-.002-.08-.06-.147-.115-.206a8.55 8.55 0 0 1-1.467-2.21l-.21-.462c.614.12 1.22.197 1.773.178.54-.02 1.086-.229 1.409-.661a.262.262 0 0 0 .036-.065c.039-.102.003-.218-.055-.31-.276-.45-.897-.482-1.408-.612-.808-.204-1.446-.709-2.087-1.174.302.033.6.057.892.065.756.02 1.548-.176 2.104-.689a.422.422 0 0 0 .133-.183c.03-.104-.015-.216-.08-.304-.31-.425-.932-.41-1.451-.497-1.83-.31-2.935-2.175-4.941-1.698-1.077.256-2.181.726-3.188 1.25.055-.063.105-.126.158-.188-2.225 1.564-4.508 3.045-6.577 4.818-.187.16-.371.325-.556.489-1.061 2.275-2.007 5.055-2.925 7.076a4.665 4.665 0 0 0 .453 2.854c1.8.542 3.515.62 5.4-.101 1.85-.709 2.97-2.527 4.465-3.749.103-.084.209-.154.316-.212l.266-.373c.305-.434 3.406-.426 3.406-.426-.779.422-.72 1.372-.376 1.994"/>
        <path fill="#4A4A4B" d="M95.126 70.897c-.113-.034-.22.03-.274.07a.72.72 0 0 0-.236.361c-.088.292-.004.591.186.643.114.034.22-.03.274-.07a.725.725 0 0 0 .236-.361c.084-.279.01-.56-.161-.634a.205.205 0 0 0-.025-.009m-.786.348c.064-.209.183-.389.337-.506a.588.588 0 0 1 .533-.118c.349.108.515.546.377 1.002a.999.999 0 0 1-.336.506.587.587 0 0 1-.59.097c-.31-.134-.45-.55-.32-.98"/>
        <path fill="#230D0E" d="M102.866 85.04c-.611-.576-1.364-1.095-1.932-1.61a10.188 10.188 0 0 0-1.458-1.122.697.697 0 0 0-.06-.183c-.847-1.71-2.384-2.477-2.556-4.58-.05-.621.166-.967.484-1.048a.79.79 0 0 0 .121.335c1.747 2.746 4.352 5.11 5.4 8.207"/>
        <path fill="#000" d="M116.191 37.24c1-.152 1.954-.59 2.722-1.245l-.491-.83c1.383-.638 1.509-2.934.204-3.72.81-.539 1.62-1.25 1.764-2.21.145-.961-.804-2.059-1.704-1.694a8.702 8.702 0 0 0 1.027-2.922c.103-.642.117-1.355-.267-1.88-.384-.524-1.297-.67-1.657-.13.45-1.363.116-2.956-.844-4.024-.96-1.069-2.51-1.57-3.913-1.266.314-1.028-.812-2.077-1.882-1.981-1.07.095-1.919.998-2.333 1.99a2.606 2.606 0 0 0-1.531-2.357 2.605 2.605 0 0 0-2.767.494c-.206-1.159-1.809-1.583-2.847-1.03-1.038.555-1.602 1.697-2.043 2.788-.717-.626-1.852-.715-2.657-.207-.805.508-1.215 1.57-.96 2.486-1.024-.434-2.315-.122-3.028.733-.713.854-.788 2.18-.176 3.11-.875-.073-1.768.46-2.119 1.265-.351.805-.133 1.822.516 2.413-.98.06-1.886.78-2.168 1.72-.282.94.079 2.039.864 2.63-.924-.042-1.668.94-1.598 1.862.07.922.761 1.702 1.573 2.144-.99-.38-2.08.731-1.958 1.785.121 1.053 1.081 1.845 2.097 2.148-1.045 1.13-.592 3.253.823 3.858 1.606.686 3.333-.469 4.896-1.246 4.988-2.481 11.09-1.246 16.326-3.151"/>
        <path fill="#62342D" d="M82.092 56.232c1.159-.388 2.003-1.598 2.55-2.593.914-1.667 1.354-2.576 2.242-4.259 2-3.797 3.87-7.685 5.303-11.747.223 2.331.846 6.523.75 8.82-.118 2.782.835 6.082 2.82 7.624.87.675 1.98.737 2.937 1.217.48.24 3.65 1.913 4.16 1.466-1.826 3.064-5.412 13.609-5.412 13.609s-2.4.838-8.354-2.143c-2.537-1.27-4.808-3.06-6.574-5.2-.969-1.176-1.887-2.615-2.134-4.038-.281-1.622.24-2.262 1.712-2.756"/>
        <path fill="#714F47" d="M102.954 29.296h.06c4.324.05 12.513 2.813 13.733 7.329.136.502.154 1.07.097 1.671-.178 1.86-1.082 4.033-1.475 5.558-.82 3.176-2.012 6.354-3.891 9.12-1.93 2.841-5.78 8.245-9.823 8.34-4.464.106-7.29-5.304-8.627-8.523-3.333-8.024-2.587-23.662 9.926-23.495"/>
        <path fill="#000" d="M101.753 38.517c.846.587 1.7.834 2.63 1.226-.759 1.085-1.726 1.9-2.876.885-.186-.165-1.824-1.91-2.669-2.7-.276-.255-.466-.41-.497-.377.988-1.023 2.582.387 3.412.966M112.69 44.235c1.025.411 1.744.528 1.506 1.804.04-.214-2.536-.425-2.735-.47-.341-.082-.6-.198-.794-.346-.573-.435-.565-1.152-.45-2.074-.02.19 2.274 1.006 2.473 1.086"/>
        <path fill="#62342D" d="M105.667 44.73c.081 1.279-.498 2.509-.502 3.797 0 .425.177.867.378 1.295.268.566.577 1.107.562 1.54-.1 2.657-3.401.8-3.876-.868-.36-1.261 1.141-6.837 3.438-5.763M97.749 49.855c.262-.46.686-.22.424.242l-.66 1.16c-.263.46-.686.22-.424-.242l.66-1.16z"/>
        <path fill="#FBB431" d="M82.446 56.637c-.252-.035.54 3.763.659 4.052.979 2.373 2.786 4.028 5.042 5.154a21.563 21.563 0 0 0 4.033 1.558c1.247.333 2.667.235 3.871-.221.329-.125 3.241-2.148 3.249-2.14.495.584.912 1.254 1.413 1.845-.25.423-.673.843-.91 1.127a7.608 7.608 0 0 1-2.835 2.127c-1.962.85-4.519.967-7.152.205-3.322-.962-6.29-3.098-8.176-5.91-.832-1.239-1.435-2.59-1.754-4-.213-.938-1.079-3.484-.295-4.177.454-.402 2.213.29 2.855.38"/>
        <path fill="#000" d="M100.786 16.933c.388-1.06 2.142-3.96 3.484-2.65-.559.577-1.082 1.32-1.089 2.161.004-.446 3.287-.942 3.686-.938 1.715.02 7.926.95 7.802 3.428-.832-.045-1.517.394-2.107.953 1.343-1.275 6.19 4.821 5.997 6.37-.525-.059-1.007.123-1.51.207.069.738.743 1.282 1.028 1.994.45 1.13 1.246 4.376 1.03 5.623-.334 1.928-2.023 1.804-3.64 1.707-2.19-.13-4.386-.549-6.427-1.368-.897-.36-1.798-1.056-2.76-1.165-.936-.107-1.528.558-2.464-.07-2.331-1.561-2.567-4.715-2.531-7.167.043-2.998-1.596-6.091-.499-9.085"/>
        <path fill="#000" d="M96.501 19.615c.888-.53 2.76-1.601 3.853-1.128 2.018.876 1.28 5.404 1.518 7.118.19 1.377.468 2.815.331 4.208-.206 2.103-.617 2.023-2.243 2.228-3.49.44-5.243 3.911-6.174 6.993-1.393.096-1.553-3.643-1.623-4.475-.177-2.102-1.614-4.592-1.266-6.657.598-3.563 2.511-6.438 5.604-8.287"/>
        <path fill="#714F47" d="M91.46 33.184c3.476-1.07 1.855 6.293.462 7.505-.724.625-1.981-2.89-2.017-3.353-.103-1.328-.005-3.673 1.556-4.152"/>
        <path fill="#000" d="M99.32 41.854c.517.383.609 1.139.203 1.683-.405.545-1.153.674-1.67.294-.519-.384-.613-1.137-.202-1.682.403-.545 1.151-.677 1.668-.295M109.784 48.51c.451.272.573.875.276 1.345-.298.472-.902.63-1.355.358-.449-.274-.574-.879-.275-1.348.297-.47.904-.628 1.354-.355"/>
        <path fill="#000" d="M96.357 39.512c1.994.364 4.322 2.542 5.244 4.346.098.188.032.377-.152.421a.432.432 0 0 1-.354-.09.47.47 0 0 1-.145-.17c-.8-1.56-2.865-3.516-4.549-3.822-.205-.037-.379-.222-.39-.41-.013-.188.142-.312.346-.275M108.688 47.354c.258.108.546.23.843.41.615.374 1.16.884 1.638 1.332l.042.041c.169.154.203.335.078.398-.123.066-.355-.008-.522-.163l-.042-.039c-.448-.42-.909-.853-1.39-1.145-.204-.123-.421-.214-.652-.312-.179-.074-1.063-.426-.77-.753.154-.171.609.16.775.23"/>
        <path fill="#62342D" d="M91.582 35.413c.052.58.046 1.179.06 1.766L90.844 37c-.226-.693-.418-1.836.738-1.587M106.152 54.843c.107-.325.48-.13.373.194l-.27.819c-.105.324-.478.13-.371-.195l.268-.818z"/>
        <path fill="#FEF6B8" d="M96.632 67.056c.57 0 .967.37 1.125.859.064.073.133.142.2.21a1.21 1.21 0 0 1 0 1.694c-.46.461-1.232.463-1.692 0-.456-.456-.773-.907-.83-1.566-.06-.65.588-1.197 1.197-1.197M91.84 67.296a1.21 1.21 0 0 1 1.199 1.198c0 .559-.399 1.032-.922 1.16-.468.38-1.169.36-1.602-.074a1.208 1.208 0 0 1 0-1.694c.382-.381.776-.589 1.326-.59M87.05 65.859c1.545 0 1.545 2.394 0 2.394-1.544 0-1.544-2.394 0-2.394M82.738 61.547c.388 0 .732.193.953.485.291.22.485.564.485.952 0 .651-.546 1.2-1.198 1.197-.865-.002-1.435-.572-1.437-1.437a1.208 1.208 0 0 1 1.197-1.197M80.822 57.475h.24c.653 0 1.198.544 1.198 1.197a1.21 1.21 0 0 1-1.198 1.198h-.24a1.21 1.21 0 0 1-1.198-1.198 1.21 1.21 0 0 1 1.198-1.197"/>
        <path fill="#62342D" d="M94.929 45.555c1.008-1.173 4.873-.075 3.304 1.992-1.249 1.647-4.992-.247-3.34-1.957-.11.144-.017.03.036-.035M107.618 51.704c-.098.1-.017.023.03-.023.882-.793 3.716.422 2.32 1.841-1.113 1.13-3.777-.678-2.35-1.818"/>
        <path fill="#FFF" d="M98.85 51.445l.091.034c.908.844 5.946 3.506 6.185 3.28-1.125 1.05-2.271 2.557-4.343 1.49-2.674-1.378-2.234-4.907-1.934-4.804"/>
        <path fill="#714F47" d="M106.686 95.418s9.935 19.226 21.678 22.968c11.742 3.742 11.097 25.936-4 23.614-15.098-2.323-23.485-37.292-22.194-43.744 1.29-6.452 4.516-2.838 4.516-2.838M82.04 93.095s-16.517 8.774-35.356 4.774c-18.839-4-22.84 21.936-9.29 23.484 13.548 1.55 46.84-17.677 46.968-24.387.13-6.71-2.322-3.871-2.322-3.871"/>
        <path fill="#595A5A" d="M41.298 44.289l9.79-16.665a1.651 1.651 0 0 0-.703-2.322l-6.865-3.337a1.652 1.652 0 0 0-2.162.676L31.801 39.63a1.652 1.652 0 0 0 .757 2.313l6.632 3.013c.77.35 1.68.062 2.108-.667"/>
        <path fill="#8F8F8F" d="M41.798 44.662l9.789-16.664a1.651 1.651 0 0 0-.702-2.322l-6.865-3.337a1.652 1.652 0 0 0-2.162.675l-9.557 16.989a1.652 1.652 0 0 0 .757 2.313l6.632 3.014c.77.35 1.68.061 2.108-.668"/>
        <path fill="#71CEEE" d="M42.21 43.565l8.916-15.178a1.504 1.504 0 0 0-.64-2.115l-6.252-3.04a1.505 1.505 0 0 0-1.97.616L33.562 39.32a1.504 1.504 0 0 0 .689 2.108l6.04 2.744c.702.319 1.53.056 1.92-.608"/>
        <path fill="#8F8F8F" d="M29.031 103.64a.342.342 0 0 0 .086-.106.396.396 0 0 0-.073-.007c-.003.043-.006.083-.013.113M28.825 103.282c-.037.026-.072.06-.108.091.034-.01.068-.017.102-.023l.006-.068M28.207 103.947c0 .002-.001.002-.002.002a2.967 2.967 0 0 0-.181.317c.071-.084.134-.192.183-.32M30.027 103.682c-.084.104-.157.172-.157.172s.072-.024.168-.064a.972.972 0 0 0-.011-.108"/>
        <path fill="#010101" d="M69.178 99.073c0 .009-.235.038-.338-.033-.056-.026-.08-.042-.105 0-.03.034-.053.158-.26.268 0 0-.017.065.012.16a.43.43 0 0 0 .267.27c.144.055.34.034.466-.104a.38.38 0 0 0-.042-.561"/>
        <path fill="#BF6024" d="M58.002 62.645S36.14 58.322 34.15 60.312c-1.99 1.99-2.388 13.928-.797 15.52 1.592 1.591 16.011 3.61 16.011 3.61s10.815-9.106 8.638-16.797"/>
        <path fill="#F27930" d="M73.513 81.2c.259-3.162-1.756-13.7-8.782-17.915-2.72-1.633-3.118-.957-6.17-.093l-8.604.247c-5.006.49-9.524 4.282-10.875 9.126-.255.913-.406 1.851-.628 2.772-.397 1.642-1.02 3.22-1.64 4.79L30.791 95.38c-.373.944-.843 1.987-1.794 2.34 1.68 1.145 3.316 2.354 4.967 3.54-.854 1.086 13.762.848 5.926 19.836-11.791 28.571-20.252 50.936-21.36 60.687 2.182.931 49.31 25.194 71.986 2.159C80.596 171.944 73.36 83.085 73.513 81.2"/>
        <path fill="#FBB431" d="M53.692 80.99l-.788 2.27a497.186 497.186 0 0 0-2.006 6.003c-.821 2.484-1.776 5.379-2.938 8.421-1.16 3.045-2.51 6.251-3.807 9.485 0 0 .365-.696.995-1.964a116.856 116.856 0 0 0 2.536-5.43 78.91 78.91 0 0 0 1.55-3.84 91.438 91.438 0 0 0 1.528-4.497c.993-3.193 1.966-6.724 2.93-10.448"/>
        <path fill="#714F47" d="M25.472 101.535l-1.908 1.084s-5.116-4.335-9.538-6.937c-4.422-2.6-5.983-6.373-5.983-6.373s1.431-5.723.78-6.373c-.65-.65-2.34-.91-2.34-.91S3.88 79.294 2.97 79.425c-.91.13-1.56 1.69-1.3 2.34.26.65-2.212 5.723-1.561 6.894.65 1.17 4.161 3.772 4.552 4.032.39.26 12.03 17.282 17.818 18.729 1.561.39 2.862.39 2.862.39l6.373-5.983-6.243-4.292z"/>
        <path fill="#000" d="M54.256 15.315c-3.971.006-7.607 2.746-10.458 5.236-2.42 2.113-4.329 5.402-5.233 8.455-.986 3.324-1.875 7.897-1.686 11.391.207 3.819 1.956 7.306-1.14 10.539-1.932 2.017-4.441 5.4-4.471 8.36-.004.368.021.733.07 1.095.499-.43 1.195-.626 2.031-.362 3.891 1.23 7.936 1.867 11.927 2.68 1.187-3.248 1.368-7.138.41-9.746-.67-1.825-2.153-3.572-3.094-5.343-3.594-6.762-2.26-19.77 4.733-24.028 2.83-1.723 6.75-1.033 9.74-2.456 5.216-2.48 1.254-5.828-2.83-5.821"/>
        <path fill="#62352D" d="M45.717 56.444c0 2.736-.108 5.97-.809 8.662 5.024-2.714 7.5-.851 11.156.918.412.2.705.462.899.76 1.666 1.3 3.676 2.53 5.77 2.836.712.104 1.46.06 2.177.027.149-.006.904-.17 1.428-.256-.084-.475.004-1.033.004-1.5v-4.966c-1.589-.394-2.836-.796-3.455-2.834-.978-3.22-1.64-6.304-2.172-9.637-.636-3.989.326-8.241-2.142-11.732-2.463 4.592-8.652 11.96-14.328 11.549.405.029 1.47 3.898 1.472 6.173"/>
        <path fill="#714F47" d="M48.845 21.58c1.168-.306 2.474-.41 3.929-.27 4.272.417 7.869 2.577 9.866 6.441 1.21 2.344 1.35 4.747 1.484 7.4.144 2.89-.248 6.065-1.803 8.578-1.086 1.755-2.844 3.06-4.624 4.049-1.694.94-3.517 1.911-5.278 2.733-3.387 1.58-7.64 1.989-9.664-1.81-1.545-2.9-2.312-6.027-2.516-9.308-.426-6.866 1.6-15.975 8.606-17.812"/>
        <path fill="#000" d="M56.396 32.515c.776.223 2.444.49 2.355 1.672.003-.036-.187-.076-.484-.116-.908-.12-2.797-.237-2.992-.268-1.202-.193-1.224-1.251-.98-2.32.719.388 1.311.803 2.101 1.032M45.062 30.17c.199.037 2.437.53 2.491.352-.26.875-.535 1.513-1.186 1.595-.218.027-.48-.008-.798-.118-.185-.064-2.42-1.241-2.47-1.033.298-1.25.946-.975 1.963-.795"/>
        <path fill="#714F47" d="M46.492 38.997c.29-.227.57-.475.736-.783.5-.937.628-2.068 1.178-2.963 1.814.164.55 4.827-.162 5.595-.94 1.015-3.67 1.01-2.693-.96.157-.322.556-.587.94-.889"/>
        <path fill="#EDDFD6" d="M53.13 37.468a.646.646 0 0 1-.07.002c.054-.004.11-.01.162-.017l-.091.015z"/>
        <path fill="#000" d="M42.873 34.485c-.376.869-.379 1.571-.005 1.978.344.375.996.488 1.622.278.655-.22 1.083-.728 1.144-1.359l.72.07c-.09.924-.7 1.662-1.635 1.975-.891.299-1.85.108-2.384-.475-.335-.363-.796-1.206-.124-2.754l.662.287zM53.751 35.991c-.455 1.31-.381 2.337.21 2.888.543.509 1.508.601 2.398.225.93-.392 1.501-1.18 1.52-2.109l1.06.023c-.03 1.358-.84 2.502-2.168 3.062-1.27.534-2.688.361-3.533-.428-.53-.495-1.295-1.675-.487-4.008l1 .347z"/>
        <path fill="#62352D" d="M52.897 42.185c.877-1.453 5.257-.966 3.936 1.554-1.052 2.008-5.444.64-3.967-1.51-.094.176-.013.037.031-.044M41.182 40.276c.673-1.114 4.034-.74 3.02 1.194-.807 1.54-4.178.49-3.044-1.16-.071.135-.01.03.024-.034"/>
        <path fill="#5C7393" d="M47.108 43.434c.285.016.542.291.514.603-.039.401.053.795.13 1.189.14.724-.928.96-1.069.236-.093-.483-.197-.985-.15-1.482.03-.312.269-.56.575-.546"/>
        <path fill="#62352D" d="M51.39 44.013c.174.044.182.918.148.915a.222.222 0 0 1-.092-.031c-.191-.113-.342-.955-.055-.884"/>
        <path fill="#FFF" d="M50.641 44.522c.13.009-.368.65-.45.699-2.42 1.468-5.79 1.255-6.14-2.107.696.573 2.137.651 2.994.824 1.208.246 2.366.512 3.596.584"/>
        <path fill="#62352D" d="M44.535 42.772c.252-.126.586-.413.875-.368.346.055.733.434.867.757.266-.204.516-.442.88-.383.606.1 1.183.418 1.689.725.584.356 1.283.762 1.973.915.083.02-.252.152-.27.155-.112.022-3.019-.215-3.919-.416-.587-.13-1.174-.232-1.718-.489-.214-.102-.433-.167-.634-.294-.017-.011-.35-.284-.253-.293.156-.013.368-.24.51-.31"/>
        <path fill="#62352D" d="M45.447 45.492a3.1 3.1 0 0 0 .165.088c.975.471 2.173.485 3.19.226.468-.12.93-.288 1.241-.546.296-.242.453-.508.662-.792.076.245-.183.697-.328.901-.74 1.048-1.992 1.88-3.312 1.829-.816-.032-1.751-.249-2.314-.885-.56-.632-.418-1.72-.624-2.51-.048-.19.014-.41-.052-.591.332.91.52 1.78 1.372 2.28"/>
        <path fill="#000" d="M57.106 16.352c1.502-.616 3.176-.785 4.864-.313 3.595 1.004 6.07 4.14 8.079 7.094 1.914 2.813 6.182 2.902 8.293 5.815 4.393 6.06-2.116 13.18 2.078 19.069 2.09 2.934 5.682 4.758 6.007 8.689.551 6.675-6.696 10.665-12.61 11.027-6.191.378-13.76-1.833-13.109-9.308.158-1.811.512-2.695-.322-4.432-.444-.922-.933-1.743-1.125-2.76-.52-2.778.22-5.11 1.844-7.362 1.385-1.919 2.097-4.325 2.654-6.593.878-3.571-.395-7.392-2.652-10.195-1.16-1.44-2.536-2.417-4.081-3.39-1.25-.789-4.632-1.422-4.469-3.205.155-1.7 3.182-3.575 4.549-4.136"/>
        <path fill="#714F47" d="M65.34 37.269c2.84.575 2.052 5.153-.236 5.955-.109.038-.404.03-.784 0-1.062-.078-2.777-.305-2.855-.067.575-1.755 1.02-6.468 3.875-5.888"/>
        <path fill="#62352D" d="M65.501 39.952c.017.8-.146 2.062-1.28 1.431.132-.626.328-1.252.501-1.872l.78.441z"/>
        <path fill="#FDD230" d="M70.534 32.82S51.95 15.603 43.791 20.156c0 0-2.37 4.134-2.283 5.077.087.944-3.794-3.225-3.415-4.553.38-1.328 3.984-7.589 3.605-8.537-.38-.949 4.363-5.882 4.363-5.882L48.907 0l14.987.38s13.66 2.466 13.66 3.414c0 .949 1.328 10.055.379 9.866-.948-.19-3.604 1.138-3.604 1.138l4.742 10.814-6.07 4.552v3.985l-1.345 3.013-1.122-4.341z"/>
        <path fill="#714F47" d="M8.043 89.31s12.657 15.674 22.358 9.396l9.702 5.517s-11.414 13.126-21.306 7.8C8.905 106.696 4.91 90.906 4.91 90.906l3.133-1.598z"/>
        <path fill="#000" d="M43.028 70.397l-.446.446c-.488.488.269 1.245.757.757l.446-.446c.488-.488-.269-1.245-.757-.757M40.733 76.136L39.421 77.5c-.478.497.278 1.255.757.757l1.312-1.364c.478-.496-.278-1.254-.757-.757M38.122 80.302c-.324.76-.65 1.52-.973 2.281-.268.627.654 1.173.924.54l.973-2.28c.268-.628-.654-1.174-.924-.541M35.598 86.836a7.16 7.16 0 0 0-1.046 2.617c-.124.674.908.962 1.033.285.157-.857.462-1.63.937-2.361.377-.58-.55-1.117-.924-.54M33.227 92.676c-.55.52-.936 1.18-1.12 1.914-.169.669.863.953 1.032.285a2.914 2.914 0 0 1 .845-1.442c.502-.474-.256-1.23-.757-.757M46.64 68.303l1.45-1.009c.236-.165.345-.469.19-.732-.136-.235-.493-.359-.731-.193l-1.45 1.01c-.236.165-.346.469-.192.732.138.235.494.359.733.192M51.209 67.272c.518-.18.999-.103 1.443.218.559.404 1.094-.524.54-.925a2.498 2.498 0 0 0-2.268-.325c-.646.224-.368 1.26.285 1.032"/>
        <path fill="#FDD230" d="M45.749 65.548c5.322-3.995 9.313 2.099 13.906 4.014 2.136.89 9.72 1.466 8.004-2.967-.439-1.132-2.909-.436-2.483.665l-.91 1.258-1.092-.047c-.72-.092-1.426-.317-2.092-.604-1.121-.482-2.129-1.145-3.103-1.873-1.51-1.128-2.955-2.404-4.74-3.085-3.093-1.179-6.544-.471-9.144 1.48-1.345 1.01.655 1.909 1.654 1.16"/>
        <path fill="#000" d="M53.064 68.17c-1.004-.329-2.128.12-2.651 1.033-.344.598.581 1.138.924.54.296-.515.885-.723 1.442-.54.657.216.938-.818.285-1.032M47.917 70.618c-.864.568-1.55 1.352-1.954 2.308-.113.268-.078.57.192.733.224.133.62.073.733-.193.333-.789.851-1.451 1.57-1.924.573-.377.037-1.305-.54-.924M44.418 76.571a3958.7 3958.7 0 0 0-1.01 1.857c-.33.605.594 1.146.924.54l1.01-1.856c.33-.606-.594-1.147-.924-.54M41.679 82.242l-1.027 2.464c-.264.635.771.912 1.033.284l1.026-2.463c.264-.636-.77-.913-1.032-.285M38.894 88.841a5.583 5.583 0 0 1-1 2.538c-.4.563.529 1.098.925.54a6.264 6.264 0 0 0 1.108-2.793c.091-.674-.94-.966-1.033-.285M36.687 95.502l-1.238 1.844c-.385.573.542 1.11.925.54l1.237-1.844c.385-.574-.542-1.11-.924-.54M34.222 100.219l-.209.409c-.131.258-.067.581.192.733.24.14.6.066.733-.192l.208-.41c.131-.257.067-.58-.192-.732-.239-.14-.6-.067-.732.192M54.01 70.318c-1.064.214-1.965.862-2.543 1.775-.368.584.557 1.122.925.54.436-.69 1.107-1.123 1.902-1.283.675-.136.39-1.168-.285-1.032M49.374 75.356l-.98 2.075c-.294.62.629 1.164.924.54l.98-2.074c.293-.62-.63-1.164-.924-.54M47.083 81.036a4.103 4.103 0 0 1-.77 1.925c-.408.557.52 1.092.923.54.47-.644.773-1.39.88-2.18.038-.288-.07-.57-.374-.658-.25-.072-.62.087-.659.373M44.602 87.192a4.574 4.574 0 0 1-.731 1.535c-.169.234-.04.596.192.732.27.158.563.043.733-.192.388-.54.669-1.147.838-1.79.175-.668-.857-.952-1.032-.285M42.145 93.148a9.595 9.595 0 0 1-1.344 3.18c-.377.579.55 1.116.925.54a10.464 10.464 0 0 0 1.452-3.435c.15-.671-.881-.958-1.033-.285M39.048 99.919a4.995 4.995 0 0 1-1.033 2.06c-.443.522.311 1.284.756.757a6.175 6.175 0 0 0 1.31-2.532c.164-.67-.868-.954-1.033-.285M54.274 74.501a4.152 4.152 0 0 0-1.585 1.69c-.31.614.614 1.157.924.541.277-.549.673-.99 1.201-1.306.591-.354.053-1.28-.54-.925M50.988 81.244l-.771 1.869c-.112.27.12.585.373.658.307.088.55-.108.659-.374l.771-1.868c.112-.27-.12-.586-.373-.658-.307-.089-.549.108-.66.373M49.311 86.516c-.063.729-.326 1.389-.742 1.988-.393.567.534 1.103.925.54.525-.757.808-1.613.888-2.528.06-.686-1.012-.683-1.071 0M47.34 91.995c-.435.89-.751 1.814-.931 2.787-.125.674.907.963 1.032.285.163-.882.43-1.725.823-2.531.301-.617-.622-1.16-.925-.54M45.22 97.662l-1.019 2.672c-.245.644.79.923 1.033.285l1.019-2.672c.245-.645-.79-.923-1.033-.285M43.245 102.06l-1.009 2.267c-.277.624.645 1.17.925.54l1.009-2.266c.277-.624-.645-1.17-.925-.54M20.028 174.425l1.64.828c.612.31 1.155-.614.54-.925l-1.64-.828c-.613-.31-1.156.614-.54.925M24.43 176.445l2.499.697c.664.186.948-.847.285-1.032l-2.499-.697c-.665-.186-.949.847-.285 1.032M30.557 178.394c.729.075 1.388.353 1.982.776.562.4 1.097-.528.54-.925-.753-.537-1.605-.828-2.522-.921-.685-.07-.68 1.002 0 1.07M36.382 180.18l2.668.617c.671.156.957-.877.285-1.033l-2.668-.617c-.67-.155-.957.877-.285 1.032M45.007 181.833a17.37 17.37 0 0 0 3.41.694c.684.071.68-1 0-1.071a15.954 15.954 0 0 1-3.125-.656c-.659-.207-.94.827-.285 1.033M55.193 183.343h3.49c.689 0 .69-1.07 0-1.07h-3.49c-.69 0-.69 1.07 0 1.07M63.95 183.904a21.43 21.43 0 0 1 4.793-.563c.689-.003.69-1.074 0-1.07-1.718.008-3.406.21-5.079.601-.67.156-.386 1.189.285 1.032M71.412 182.942a19.014 19.014 0 0 0 4.24-.472c.673-.152.388-1.184-.284-1.033a17.719 17.719 0 0 1-3.956.434c-.689-.001-.69 1.07 0 1.07M79.34 181.632l3.518-1.147c.653-.212.373-1.246-.284-1.032l-3.519 1.147c-.652.213-.373 1.247.285 1.032M84.691 179.617a5.274 5.274 0 0 0 2.097-1.143c.518-.455-.241-1.21-.757-.757-.473.416-1.019.7-1.624.868-.663.184-.381 1.217.284 1.032"/>
        <path fill="#000" d="M28.577 97.94c4.443 4.141 10.609 6.48 15.951 9.225.612.315 1.154-.609.54-.924-5.239-2.691-11.381-5-15.734-9.058-.504-.47-1.263.286-.757.757M33.558 60.16c.664 3.14-1.158 6.128-1.571 9.195-.31 2.305-.082 4.475.912 6.585.293.623 1.217.08.925-.54-1.375-2.918-.954-6.023-.058-9.015.658-2.198 1.309-4.218.825-6.509-.143-.674-1.176-.388-1.033.285M41.923 18.703c.418-.454 1-.662 1.608-.522.67.154.956-.878.284-1.032-.967-.223-1.972.06-2.649.797-.465.507.29 1.266.757.757M46.023 18.026a5.731 5.731 0 0 1 2.791.756c.6.34 1.14-.585.54-.925a6.897 6.897 0 0 0-3.331-.901c-.69-.01-.69 1.06 0 1.07M51.834 19.536l1.896.89c.62.291 1.164-.632.54-.925l-1.896-.89c-.62-.29-1.164.632-.54.925M57.42 21.708l2.655 1.503c.6.34 1.14-.584.54-.924l-2.655-1.504c-.6-.34-1.14.585-.54.925M64.158 25.285l2.571 2.117c.528.435 1.29-.319.757-.757l-2.57-2.117c-.529-.435-1.29.318-.758.757M69.714 29.852l1.89 2.568c.403.549 1.333.015.924-.54l-1.89-2.568c-.404-.55-1.333-.015-.924.54M40.908 22.706c.091-.636.347-1.185.804-1.64.489-.487-.268-1.245-.758-.758a3.742 3.742 0 0 0-1.079 2.113c-.04.289.072.572.374.659.251.072.618-.089.659-.374M42.15 14.707c.551-.542 1.104-1.083 1.656-1.624.493-.483-.264-1.24-.757-.757l-1.657 1.624c-.493.483.265 1.24.757.757M46.024 13.28l3.511-.282c.683-.054.689-1.126 0-1.07l-3.511.281c-.682.055-.688 1.126 0 1.07M52.68 13.93l3.302 1.11c.654.219.935-.815.284-1.033l-3.302-1.11c-.654-.22-.935.814-.284 1.033M59.469 16.996c1.115.404 2.159.937 3.15 1.587.578.38 1.115-.547.54-.924a16.304 16.304 0 0 0-3.405-1.695c-.65-.236-.929.799-.285 1.032M65.412 21.198a10.145 10.145 0 0 1 2.742 2.202c.457.518 1.212-.242.758-.757a11.014 11.014 0 0 0-2.96-2.37c-.603-.332-1.145.592-.54.925M71.172 25.773a8.617 8.617 0 0 1 2.076 2.669c.31.615 1.233.074.924-.54a9.397 9.397 0 0 0-2.243-2.886c-.519-.449-1.279.305-.757.757M43.812 10.51c.742-.663 1.612-1.065 2.589-1.244.677-.124.39-1.156-.285-1.032a6.256 6.256 0 0 0-3.061 1.519c-.516.46.244 1.215.757.757M49.53 9.39c1.177.08 2.354.16 3.53.242.688.047.685-1.024 0-1.071l-3.53-.242c-.688-.048-.685 1.023 0 1.07M57.033 10.72c1 .115 1.934.525 2.703 1.173.524.44 1.285-.314.757-.758a6.393 6.393 0 0 0-3.46-1.487c-.683-.079-.678.992 0 1.071M62.604 13.217l2.85 1.814c.584.371 1.121-.555.54-.924l-2.85-1.815c-.583-.37-1.12.555-.54.925M68.925 16.976c1.09.708 2.035 1.581 2.844 2.598.429.539 1.182-.223.757-.757a12.797 12.797 0 0 0-3.06-2.765c-.58-.377-1.118.55-.541.924M73.718 21.169l2.098 3.054c.388.564 1.316.03.924-.54l-2.098-3.055c-.388-.564-1.316-.03-.924.541M76.684 26.614l.482.694c.165.237.47.346.732.192.235-.137.358-.493.192-.732l-.481-.694c-.165-.237-.47-.346-.733-.192-.235.137-.358.494-.192.732M47.221 6.838l2.364-1.129c.621-.297.079-1.22-.54-.925l-2.364 1.13c-.622.297-.08 1.22.54.924M52.256 5.733a12.661 12.661 0 0 1 3.374-.202c.687.048.684-1.022 0-1.07-1.233-.087-2.447 0-3.659.239-.675.134-.389 1.166.285 1.033M58.208 6.472c.969.07 1.893.413 2.66 1.013.537.42 1.3-.333.758-.757A6.152 6.152 0 0 0 58.208 5.4c-.688-.05-.685 1.022 0 1.07M64.165 9.004a18.173 18.173 0 0 1 3.645 2.03c.562.401 1.097-.527.54-.924a19.341 19.341 0 0 0-3.9-2.139c-.637-.261-.914.774-.285 1.033M70.568 12.542c.96.408 1.65 1.176 1.908 2.192.169.667 1.202.385 1.032-.285-.318-1.256-1.202-2.323-2.4-2.832-.626-.266-1.173.656-.54.925M74.029 18.695l.703.703c.488.488 1.245-.269.757-.757l-.703-.703c-.488-.488-1.245.269-.757.757M49.466 2.756a12.487 12.487 0 0 1 2.646-.55c.68-.064.687-1.135 0-1.07-1 .093-1.974.282-2.93.588-.654.209-.375 1.243.284 1.032M56.574 2.662c1.069.132 2.11.396 3.122.762.65.234.929-.8.284-1.033-1.109-.4-2.237-.655-3.406-.8-.683-.084-.677.987 0 1.07M63.217 3.89a7.12 7.12 0 0 1 2.943 1.3c.554.411 1.088-.517.54-.924a7.852 7.852 0 0 0-3.198-1.41c-.674-.13-.962.902-.285 1.033M69.088 7.125c.884.362 1.573 1.045 2.006 1.887.316.613 1.24.072.925-.54-.57-1.106-1.503-1.91-2.646-2.38-.637-.26-.915.774-.285 1.033M72.324 9.915l2.06 3.311c.363.584 1.29.047.925-.54l-2.06-3.311c-.364-.584-1.29-.047-.925.54M65.34 2.045a2.025 2.025 0 0 1 2.03.032c.597.346 1.137-.578.54-.925A3.13 3.13 0 0 0 64.8 1.12c-.604.332-.065 1.256.54.925M70.154 3.704a3.24 3.24 0 0 1 2.165 1.29c.403.55 1.333.016.924-.54-.76-1.038-1.816-1.654-3.09-1.82-.68-.09-.674.981 0 1.07M73.979 6.324a5.005 5.005 0 0 1 1.315 2.879c.072.678 1.143.685 1.07 0-.146-1.383-.685-2.61-1.628-3.636-.468-.508-1.223.25-.757.757M75.913 11.086l.298 2.336c.085.674 1.157.683 1.07 0l-.297-2.336c-.085-.674-1.157-.683-1.07 0M30.23 8.677a7.406 7.406 0 0 0-3.002-3.937c-1.067-.705-2.237.911-1.162 1.621 1.159.765 1.914 1.794 2.334 3.114.39 1.223 2.215.414 1.83-.798M25.24 14.438c-.973-1.233-2.174-2.173-3.574-2.876-1.145-.576-1.845 1.293-.705 1.865 1.08.543 1.983 1.32 2.729 2.265.795 1.008 2.346-.246 1.55-1.254M19.326 23.143l-4.693-1.293c-1.227-.338-1.947 1.524-.706 1.865 1.564.432 3.13.862 4.694 1.293 1.226.338 1.946-1.523.705-1.865M15.481 32.94a9.057 9.057 0 0 1-3.415.005c-1.263-.235-1.465 1.75-.209 1.983 1.296.241 2.63.232 3.925-.017 1.26-.242.961-2.214-.301-1.972"/>
        <path fill="#B8EBD6" d="M0 191h137v9H0z"/>
        <path fill="url(#c)" d="M0 131h137v61H0z"/>
    </g>
</svg>
