<svg xmlns="http://www.w3.org/2000/svg" xmlns:xlink="http://www.w3.org/1999/xlink" width="169" height="200" viewBox="0 0 169 200">
    <defs>
        <path id="a" d="M.202.149h.18v73.585h-.18z"/>
        <path id="c" d="M0 199.64h168.772V.232H0z"/>
        <path id="e" d="M1.072 50.106s17.803 8.308 28.248 8.07c10.444-.237 14.48.475 28.01-3.323V1.92S36.204 3.58 29.32 3.58.11.253.11.253l.962 49.853z"/>
        <path id="g" d="M0 199.64h168.772V.232H0z"/>
        <linearGradient id="i" x1="50%" x2="50%" y1="0%" y2="97.428%">
            <stop offset="0%" stop-color="#FFF6B6" stop-opacity="0"/>
            <stop offset="100%" stop-color="#FFF6B6"/>
        </linearGradient>
    </defs>
    <g fill="none" fill-rule="evenodd">
        <path fill="#595959" d="M44.507 140.529h71.19V66.944h-71.19zM44.507 66.944v73.585-73.585z"/>
        <path fill="#595959" d="M44.507 140.529h.89V66.944h-.89zM45.397 140.529h.89V66.944h-.89zM46.287 140.529h.89V66.944h-.89zM47.177 140.529h.89V66.944h-.89z"/>
        <path fill="#595959" d="M48.066 140.529h.89V66.944h-.89zM48.956 140.529h.89V66.944h-.89zM49.847 140.529h.89V66.944h-.89z"/>
        <path fill="#595959" d="M50.736 140.529h.89V66.944h-.89zM51.626 140.529h.89V66.944h-.89zM52.516 140.529h.89V66.944h-.89zM53.406 140.529h.89V66.944h-.89z"/>
        <path fill="#595959" d="M54.295 140.529h.89V66.944h-.89zM55.185 140.529h.89V66.944h-.89zM56.075 140.529h.89V66.944h-.89zM56.965 140.529h.89V66.944h-.89z"/>
        <path fill="#595959" d="M57.854 140.529h.89V66.944h-.89zM58.745 140.529h.89V66.944h-.89zM59.635 140.529h.89V66.944h-.89z"/>
        <path fill="#595959" d="M60.524 140.529h.89V66.944h-.89zM61.414 140.529h.89V66.944h-.89zM62.304 140.529h.89V66.944h-.89zM63.194 140.529h.89V66.944h-.89zM64.084 140.529h.89V66.944h-.89z"/>
        <path fill="#595959" d="M64.973 140.529h.89V66.944h-.89zM65.863 140.529h.89V66.944h-.89zM66.753 140.529h.89V66.944h-.89zM67.643 140.529h.89V66.944h-.89zM68.533 140.529h.89V66.944h-.89zM69.423 140.529h.89V66.944h-.89z"/>
        <path fill="#595959" d="M70.312 140.529h.89V66.944h-.89zM71.202 140.529h.89V66.944h-.89zM72.092 140.529h.89V66.944h-.89zM72.982 140.529h.89V66.944h-.89zM73.872 140.529h.89V66.944h-.89z"/>
        <path fill="#595959" d="M74.761 140.529h.89V66.944h-.89zM75.651 140.529h.89V66.944h-.89zM76.542 140.529h.89V66.944h-.89z"/>
        <path fill="#595959" d="M77.431 140.529h1.367V66.944H77.43zM78.798 140.529h1.366V66.944h-1.366zM80.164 140.529h1.367V66.944h-1.367z"/>
        <path fill="#595959" d="M81.53 140.529h1.368V66.944H81.53zM82.898 140.529h1.366V66.944h-1.366zM84.264 140.529h1.367V66.944h-1.367zM85.631 140.529h1.366V66.944h-1.366zM86.997 140.529h1.368V66.944h-1.368z"/>
        <path fill="#595959" d="M88.364 140.529h1.367V66.944h-1.367z"/>
        <path fill="#595959" d="M89.73 140.529h1.368V66.944H89.73zM91.098 140.529h1.367V66.944h-1.367z"/>
        <path fill="#595959" d="M92.464 140.529h1.367V66.944h-1.367zM93.831 140.529h1.366V66.944h-1.366zM95.197 140.529h1.367V66.944h-1.367z"/>
        <path fill="#595959" d="M96.564 140.529h1.367V66.944h-1.367z"/>
        <path fill="#595959" d="M97.93 140.529h1.367V66.944h-1.366z"/>
        <path fill="#595959" d="M99.297 140.529h1.367V66.944h-1.367zM100.664 140.529h1.367V66.944h-1.367z"/>
        <path fill="#595959" d="M102.03 140.529h1.368V66.944h-1.367z"/>
        <path fill="#595959" d="M103.397 140.529h1.367V66.944h-1.367z"/>
        <path fill="#595959" d="M104.764 140.529h1.367V66.944h-1.367z"/>
        <path fill="#595959" d="M106.13 140.529h1.367V66.944h-1.367zM107.497 140.529h1.367V66.944h-1.367zM108.864 140.529h1.367V66.944h-1.367z"/>
        <path fill="#595959" d="M110.23 140.529h1.367V66.944h-1.367z"/>
        <path fill="#595959" d="M111.597 140.529h1.367V66.944h-1.367zM112.964 140.529h1.367V66.944h-1.367z"/>
        <path fill="#595959" d="M114.33 140.529h1.367V66.944h-1.366z"/>
        <g transform="translate(115.315 66.795)">
            <mask id="b" fill="#fff">
                <use xlink:href="#a"/>
            </mask>
            <path fill="#595959" d="M.382 73.734V.149v73.585z" mask="url(#b)"/>
        </g>
        <path fill="#64C6E8" d="M51.713 121.104l-1.612.394-2.5 6.52h17.195l1.203-5.12-.488-.607z"/>
        <g transform="translate(0 .129)">
            <path fill="#231F20" d="M65.998 120.114l-.53 2.231s-4.252 4.38-14.128-1.168l1.226-2.813s5.381 5.076 13.432 1.75"/>
            <path fill="#6F4F44" d="M68.618 89.769c.578 1.902 2.017 1.76 2.814 1.002-1.67.732-2.332-.458-2.814-1.002"/>
            <path fill="#EC7404" d="M65.475 89.769s-.585-.423-.993.762c-.41 1.185-.7 1.302-.7 1.302s-6.71 1.225-7.322 1.547c-.613.32-6.36 11.026-6.36 11.026l6.068 1.633-4.784 11.29.817 2.595s7.205 4.053 13.127 1.253l2.012-1.486s2.937-10.968 5.912-14.417l7.244 3.361s2.159-4.258 2.8-7.059c0 0-6.767-4.609-7.234-5.163l-.467-.554-4.463-2.188s-.26-1.167-1.107-1.721-4.55-2.181-4.55-2.181"/>
            <path fill="#EC7404" d="M56.02 106.39c.863-.598 1.726-1.196 2.531-1.871-.921-1.274-2.302-2.347-3.848-2.696-.802-.18-2.59-.543-3.28.142-.774 1.42-1.322 2.44-1.322 2.44l6.067 1.634-.149.351z"/>
            <path fill="#EE7C44" d="M81.213 100.146a7.754 7.754 0 0 0-2.321 3.462 11.312 11.312 0 0 0-.48 2.401c-.048.482-.129 1.127.006 1.662l2.078.964s2.159-4.258 2.8-7.059c0 0-.909-.62-2.083-1.43M57.698 106.88c.776.397 1.612.67 2.44.932.46.145.914.309 1.38.43a23.52 23.52 0 0 0 1.592.343c.901.17 1.795.345 2.71.419a18.79 18.79 0 0 0 2.762.023c.895-.06 1.789-.183 2.66-.4.178-.38.36-.748.544-1.095-.618.126-1.26.25-1.82.301-1.404.128-2.822.169-4.229.048-2.672-.23-4.816-1.443-7.257-2.404-.456.357-.926.694-1.4 1.027.193.143.403.266.618.376"/>
            <path fill="#EC7404" d="M55.797 110.547c1.715.788 3.546 1.321 5.404 1.646 1.894.331 3.832.454 5.752.327.911-.06 1.82-.177 2.714-.364l.11-.025a47.378 47.378 0 0 1 1.451-3.478c-1.277.322-2.615.435-3.921.43a18.021 18.021 0 0 1-2.613-.191c-.467-.07-.93-.167-1.395-.254-.534-.1-1.068-.2-1.595-.33-.472-.118-.928-.277-1.39-.422a35.9 35.9 0 0 1-1.214-.4 12.5 12.5 0 0 1-1.23-.5 4.947 4.947 0 0 1-.804-.473c-.519.363-1.042.72-1.559 1.086l-.975 2.301c.412.234.834.45 1.265.647"/>
            <path fill="#909295" d="M50.1 104.406s6.068-1.883 8.752 1.524c0 0-10.268 3.64-8.751-1.524M83.296 101.576s-3.835 2.932-2.8 7.06c0 0 2.378 1.575 2.8-7.06"/>
            <path fill="#866355" d="M80.356 107.862s5.105 2.475 6.864 1.7c1.016-.447 2.873-3.583-3.894-10.628 0 0 2.823-4.843 1.181-8.849 0 0-5.382 3.776-5.994 3.295-.613-.482-.394-1.327-.132-2.086.263-.759.28-2.3-.516-2.273h-.468s-.197 2.302-.679 3.09c-.481.787-.044 3.894.679 5.163.722 1.268 1.371 1.266 2.922 2.252l1.307 3.861s-1.67 1.775-1.27 4.475M75.788 85.501c.644-1.28 1.815-.407 1.577.746-.111.679-1.876 3.207-2.418 1.784"/>
            <path fill="#866355" d="M77.56 80.26c.509 1.484-.402 3.5-.91 4.843-.576 1.468-1.322 2.926-2.006 4.376-.812 1.722-.562 1.384-3.847 2.807-1.013.439-1.994.176-2.757-.676-.535-.65-1.408-2.068-1.835-2.758-1.383-2.233-.503-1.774.218-5.065.303-1.383.542-2.899 1.082-4.144.641-1.433 1.74-2.622 3.338-2.937 1.516-.32 3.054.342 4.378 1.01 1.373.735 2.138 1.347 2.417 2.868"/>
            <path fill="#866355" d="M66.825 83.143c-.12-.485-.4-1.14-.947-1.138-.598.017-1.002.851-1.099 1.346-.149.593-.07 1.309.18 1.863.22.453.878 1.268 1.36.601"/>
            <path fill="#120C14" d="M69.002 81.178c.98-.235 2.306.315 2.253 1.466.542-1.489-1.03-2.37-2.238-1.48M74.382 83.486c.687-.548 2.028.213 1.921 1.02.434-1.335-1.042-2.085-1.92-1.02"/>
            <path fill="#6F4F44" d="M70.234 87.4c.127.823 1.297 1.218 1.843.65-.532-.047-1.13-.068-1.607-.405"/>
            <path fill="#120C14" d="M69.001 78.297c.844-.466 2.912 1.669 5.086 2.162 2.25.51 3.143-.128 3.176.14.04.323.227.591.26.91.025.26.003.622-.053.875-.021.099-.724 2.414-.736 2.512.193-.345 1.063-2.802 1.119-3.188.063-.43-.143-1.939-.224-2.126-.419-.969-1.046-1.904-2.016-2.52-.93-.59-1.418-.98-2.886-1.12-1.363-.131-2.57.36-2.841.523-.807.485-1.387 1.016-1.637 1.285-.523.561-.856 1.429-1.106 2.135-.09.257-.94 2.658-.762 2.725-.043-.01.084.18.047.158.16-.358 2.25-2.687 2.31-3.022.017-.091.17-1.437.263-1.449"/>
            <path fill="#120C14" d="M72.259 76.1c-1.15 0-2.089.404-2.28.52-.932.56-1.495 1.142-1.598 1.253-.474.509-.794 1.297-1.068 2.072-.398 1.13-.63 1.887-.726 2.286.174-.222.412-.512.705-.868.485-.588 1.22-1.48 1.27-1.654.003-.013.01-.07.02-.15.162-1.258.219-1.403.361-1.434.53-.262 1.321.213 2.316.811.87.524 1.858 1.118 2.868 1.347 1.41.32 2.261.18 2.718.104.25-.04.389-.065.5.019a.244.244 0 0 1 .096.171 1.8 1.8 0 0 0 .12.406c.046.123.094.249.122.386-.02-.586-.171-1.598-.219-1.715-.475-1.1-1.13-1.92-1.948-2.44l-.231-.148c-.796-.512-1.276-.82-2.575-.945a4.69 4.69 0 0 0-.451-.022m4.475 8.977a.18.18 0 0 1-.179-.202c.007-.059.1-.379.474-1.63.125-.42.254-.853.266-.9.05-.234.071-.578.048-.818a1.657 1.657 0 0 0-.12-.416c-.047-.125-.096-.255-.124-.396a3.344 3.344 0 0 0-.195.029c-.481.08-1.377.228-2.857-.108-1.067-.242-2.08-.852-2.974-1.39-.81-.487-1.577-.95-1.946-.808-.041.132-.104.524-.188 1.168-.011.091-.02.155-.023.173-.039.21-.46.74-1.346 1.815-.399.484-.847 1.028-.958 1.212a.173.173 0 0 1-.055.095.19.19 0 0 1-.22.023.182.182 0 0 1-.087-.132l-.003-.004a.764.764 0 0 1-.036-.08c-.095-.151-.02-.66.756-2.865.293-.83.63-1.658 1.15-2.215.316-.339.922-.863 1.676-1.317.251-.15 1.489-.689 2.951-.548 1.386.133 1.952.497 2.736 1.001l.23.147c.879.559 1.58 1.434 2.085 2.601.102.236.3 1.784.237 2.223-.062.422-.953 2.914-1.141 3.25a.18.18 0 0 1-.157.092"/>
            <path fill="#7C5B4E" d="M71.912 90.067c.37-.18.72-.208 1.082-.4-1.077.117-2.362-.15-3.339-.666-.564-.3-1.33-.996-1.423-1.044.557 1.246 2.26 2.28 3.68 2.11"/>
            <path fill="#866355" d="M65.93 87.619c-.306.952-.915 2.828-.915 2.828 1.23 4.972 3.033 7.254 3.162 7.254.117 0 .723-.993 1.305-3.06.145-.515.56-1.83 1.037-2.627"/>
            <path fill="#7C5B4E" d="M73.68 83.722c-1.845 1.524-1.223 3.534-1.195 3.547-.206-2.258 1.129-3.415 1.196-3.547"/>
            <path fill="#231F20" d="M69.143 83.622c.519-.126 1.167.411 1.337.867.1.269.79.07.696-.186-.305-.823-1.31-1.276-2.138-1.075-.425.103-.32.498.105.394"/>
            <path fill="#6F4F44" d="M69.85 83.188c.362.03.797.297.944.637.023.054.192.017.162-.051-.16-.37-.641-.649-1.032-.68-.066-.005-.189.085-.075.094"/>
            <path fill="#120C14" d="M74.04 85.414c-.07-.404.51-.48.632-.203.222.511-.51.852-.622.218"/>
            <path fill="#7C5B4E" d="M65.774 88.102l.402.763c.073.161 1.66 3.129 2.815 3.375 0 0 .6.172 1.243.218 0 0-.808 1.24-2.12.202-1.488-1.177-2.388-4.407-2.388-4.407l.048-.15z"/>
            <mask id="d" fill="#fff">
                <use xlink:href="#c"/>
            </mask>
            <path fill="#FFF" d="M58.67 123.839h3.453v-1.676H58.67z" mask="url(#d)"/>
            <path fill="#383738" d="M82.861 98.891c-.032.135-.158.22-.283.19L77.1 97.794c-.125-.029-.2-.162-.169-.297l2.6-11.055c.032-.135.159-.22.284-.191l5.478 1.288c.125.03.2.163.168.298l-2.6 11.055z" mask="url(#d)"/>
            <path fill="#404041" d="M82.593 98.756c-.031.133-.158.217-.282.188l-5.478-1.289c-.125-.029-.201-.16-.17-.294l2.573-10.935c.031-.133.158-.218.282-.189l5.478 1.289c.125.03.2.161.17.294l-2.573 10.936z" mask="url(#d)"/>
            <path fill="#42C6F1" d="M82.592 97.34c-.031.132-.158.217-.283.187l-4.844-1.139c-.125-.03-.2-.161-.169-.294l2.037-8.659c.031-.133.158-.218.282-.188l4.845 1.139c.124.03.2.161.168.295l-2.036 8.658z" mask="url(#d)"/>
            <path fill="#717276" d="M84.547 89.027l.082-.346c.03-.134-.044-.266-.17-.295l-4.844-1.139c-.124-.03-.251.055-.282.188l-.082.346 5.296 1.246zM77.374 95.763l-.078.33c-.032.134.044.266.17.295l4.843 1.14c.125.03.252-.056.283-.189l.078-.33-5.296-1.246z" mask="url(#d)"/>
            <path fill="#000" d="M83.503 87.685c-.01.043-.042.071-.072.064l-2.61-.614c-.03-.007-.047-.047-.037-.089.01-.042.042-.07.072-.064l2.61.614c.03.007.047.048.037.09" mask="url(#d)"/>
            <path fill="#383738" d="M78.636 97.218c-.032.133-.158.217-.283.188l-.026-.006c-.125-.03-.2-.161-.169-.295l.006-.028c.032-.133.158-.218.283-.188l.026.006c.125.03.2.161.17.295l-.007.028zM80.003 97.54c-.032.133-.158.217-.283.187l-.026-.005c-.125-.03-.2-.161-.169-.295l.006-.029c.032-.133.158-.217.283-.188l.026.006c.125.03.2.162.17.295l-.007.028zM81.37 97.861c-.032.133-.158.218-.283.188l-.026-.006c-.125-.03-.2-.161-.17-.294l.007-.029c.032-.133.158-.217.283-.188l.026.006c.125.03.2.162.17.295l-.007.028z" mask="url(#d)"/>
            <path fill="#FFF" d="M84.263 88.65l-.807-.19.025-.105.807.19z" mask="url(#d)"/>
            <path fill="#EF6C37" d="M78.088 95.956c-.04.17-.202.278-.36.24-.16-.037-.257-.205-.217-.376.04-.17.202-.278.361-.24.16.037.256.206.216.376M79.198 96.217c-.04.17-.201.278-.36.24-.16-.037-.257-.205-.217-.376.04-.17.202-.278.361-.24.16.037.256.205.216.376M80.308 96.478c-.04.17-.202.278-.36.241-.16-.038-.257-.206-.217-.377.04-.17.202-.278.361-.24.16.037.256.206.216.376M81.418 96.74c-.04.17-.202.277-.36.24-.16-.038-.257-.206-.217-.376.04-.17.202-.279.361-.241.16.037.256.206.216.376M82.529 97c-.04.171-.202.278-.362.241-.159-.038-.256-.206-.216-.376.04-.17.202-.278.361-.241.16.037.257.206.217.376" mask="url(#d)"/>
            <path fill="#FFF" d="M79.56 87.349l-.09.384.685.162z" mask="url(#d)"/>
            <path fill="#866355" d="M51.12 104.159s-1.254 4.458 1.446 5.716c3.537 1.649 11.719-5.829 13.87-7.544 0 0 .966.82 4.392-.405 0 0 .822 2.217 2.853-.117 0 0 1.784.117 1.266-1.458 0 0 2.619-.342 0-2.65 0 0 5.112-1.055 3.74-2.6 0 0-3.286 1.108-5.435 1.75-2.149.641-17.702 7.2-17.702 7.2s-3.348-.378-4.43.108" mask="url(#d)"/>
            <path fill="#909295" d="M65.189 100.676l1.014 1.93-1.431 1.192-1.432-2.652z" mask="url(#d)"/>
            <path fill="#5E5F61" d="M65.66 100.39c.042.093-.011.208-.119.257l-2.325 1.045c-.107.048-.229.011-.27-.082l-.342-.759c-.042-.094.011-.209.119-.257l2.325-1.045c.107-.048.23-.012.271.082l.34.758z" mask="url(#d)"/>
            <path fill="#FFF" d="M65.233 99.88c.02.047-.05.125-.157.173l-1.958.88c-.108.049-.212.05-.233.003l-.073-.161c-.02-.047.05-.124.157-.173l1.958-.88c.108-.049.212-.05.233-.003l.073.162z" mask="url(#d)"/>
            <path fill="#866355" d="M85.786 90.974c.124.299.045.616-.177.708l-2.483 1.037c-.222.092-.503-.074-.628-.372l-.059-.142c-.125-.298-.045-.615.177-.708l2.483-1.036c.222-.093.504.073.628.372l.06.141z" mask="url(#d)"/>
            <path fill="#866355" d="M85.63 92.32c.124.299.044.616-.178.709l-2.483 1.036c-.222.093-.503-.074-.628-.372l-.059-.142c-.124-.298-.044-.615.178-.708l2.482-1.036c.222-.093.504.074.628.372l.06.142z" mask="url(#d)"/>
            <path fill="#866355" d="M85.473 93.667c.124.298.044.615-.178.708l-2.483 1.036c-.222.093-.503-.073-.627-.372l-.06-.141c-.124-.299-.044-.616.178-.708l2.482-1.037c.222-.092.504.074.628.372l.06.142z" mask="url(#d)"/>
            <path fill="#866355" d="M85.316 95.013c.124.298.045.615-.178.708l-2.482 1.036c-.222.093-.504-.073-.628-.371l-.059-.142c-.125-.298-.045-.615.177-.708l2.482-1.036c.223-.093.504.073.629.372l.059.141z" mask="url(#d)"/>
            <path fill="#B9B9BA" d="M12.568 168.036v6.574l53.409 21.211s11.987 4.384 29.553 3.757c21.75-.775 33.35-5.791 43.558-10.41 10.207-4.618 25.636-11.818 25.636-11.818v-4.383s-37.624 16.202-44.745 16.906c-7.121.705-40.59 1.409-49.018-1.8-8.426-3.21-53.764-19.098-53.764-19.098l-4.63-.94z" mask="url(#d)"/>
            <path fill="#A2A2A3" d="M36.899 162.244l-24.331 5.791 60.292 22.073s6.226 1.806 17.702 2.779c11.077.94 29.061-1.952 39.387-5.944 10.325-3.992 34.775-13.976 34.775-13.976l-95.661-17.142-32.164 6.419zM22.419 173.71l-11.362-4.422-8.222 1.644 12.462 5.325z" mask="url(#d)"/>
            <path fill="#A9A9AA" d="M22.123 178.405l.296-4.695-7.121 2.547v4.537z" mask="url(#d)"/>
            <path fill="#000" d="M74.71.232l-19.827 4.51V23.02l19.827-4.036z" mask="url(#d)"/>
            <path fill="#1C1C1C" d="M74.053.232l19.828 4.51V23.02l-19.828-4.036z" mask="url(#d)"/>
            <path fill="#F2F4F6" d="M129.487 63.076v102.545l-22.788 11.394-1.424-101.595-26.586-1.662V56.904z" mask="url(#d)"/>
            <path fill="#DDD" d="M50.442 172.268l-15.43-7.596-2.61-102.545 46.287-5.223v16.854l-30.146.238z" mask="url(#d)"/>
        </g>
        <g transform="translate(49.37 122.29)">
            <mask id="f" fill="#fff">
                <use xlink:href="#e"/>
            </mask>
            <path fill="#000" d="M.11 58.651h.027V.253H.109zM.137 58.651H.87V.253H.137z" mask="url(#f)"/>
            <path fill="#010101" d="M.87 58.651h.734V.253H.87z" mask="url(#f)"/>
            <path fill="#020202" d="M1.604 58.651h.734V.253h-.734z" mask="url(#f)"/>
            <path fill="#030303" d="M2.338 58.651h.734V.253h-.734z" mask="url(#f)"/>
            <path fill="#040404" d="M3.072 58.651h.734V.253h-.734z" mask="url(#f)"/>
            <path fill="#050505" d="M3.806 58.651h.733V.253h-.733z" mask="url(#f)"/>
            <path fill="#060606" d="M4.54 58.651h.733V.253H4.54z" mask="url(#f)"/>
            <path fill="#070707" d="M5.273 58.651h.734V.253h-.734z" mask="url(#f)"/>
            <path fill="#080808" d="M6.007 58.651h.734V.253h-.734z" mask="url(#f)"/>
            <path fill="#090809" d="M6.74 58.651h.735V.253H6.74z" mask="url(#f)"/>
            <path fill="#0A090A" d="M7.475 58.651h.733V.253h-.733z" mask="url(#f)"/>
            <path fill="#0B0A0B" d="M8.208 58.651h.734V.253h-.734z" mask="url(#f)"/>
            <path fill="#0C0B0C" d="M8.942 58.651h.734V.253h-.734z" mask="url(#f)"/>
            <path fill="#0D0C0D" d="M9.676 58.651h.734V.253h-.734z" mask="url(#f)"/>
            <path fill="#0E0D0E" d="M10.41 58.651h.734V.253h-.734z" mask="url(#f)"/>
            <path fill="#0F0E0F" d="M11.144 58.651h.733V.253h-.733z" mask="url(#f)"/>
            <path fill="#100F10" d="M11.877 58.651h.734V.253h-.734z" mask="url(#f)"/>
            <path fill="#111011" d="M12.611 58.651h.734V.253h-.734z" mask="url(#f)"/>
            <path fill="#121113" d="M13.345 58.651h.734V.253h-.734z" mask="url(#f)"/>
            <path fill="#131214" d="M14.079 58.651h.734V.253h-.734z" mask="url(#f)"/>
            <path fill="#141315" d="M14.813 58.651h.734V.253h-.734z" mask="url(#f)"/>
            <path fill="#151416" d="M15.547 58.651h.733V.253h-.733z" mask="url(#f)"/>
            <path fill="#161517" d="M16.28 58.651h.734V.253h-.734z" mask="url(#f)"/>
            <path fill="#171618" d="M17.014 58.651h.734V.253h-.734z" mask="url(#f)"/>
            <path fill="#181719" d="M17.748 58.651h.734V.253h-.734z" mask="url(#f)"/>
            <path fill="#19181A" d="M18.482 58.651h.733V.253h-.733z" mask="url(#f)"/>
            <path fill="#1A191B" d="M19.215 58.651h.734V.253h-.734z" mask="url(#f)"/>
            <path fill="#1B191C" d="M19.95 58.651h.733V.253h-.733z" mask="url(#f)"/>
            <path fill="#1C1A1D" d="M20.683 58.651h.734V.253h-.734z" mask="url(#f)"/>
            <path fill="#1D1B1E" d="M21.417 58.651h.734V.253h-.734z" mask="url(#f)"/>
            <path fill="#1E1C1F" d="M22.151 58.651h.734V.253h-.734z" mask="url(#f)"/>
            <path fill="#1F1D20" d="M22.885 58.651h.733V.253h-.733z" mask="url(#f)"/>
            <path fill="#201E21" d="M23.618 58.651h.734V.253h-.734z" mask="url(#f)"/>
            <path fill="#211F22" d="M24.352 58.651h.734V.253h-.734z" mask="url(#f)"/>
            <path fill="#222023" d="M25.086 58.651h.734V.253h-.734z" mask="url(#f)"/>
            <path fill="#232124" d="M25.82 58.651h.734V.253h-.734z" mask="url(#f)"/>
            <path fill="#232124" d="M26.554 58.651h7.694V.253h-7.694z" mask="url(#f)"/>
            <path fill="#232023" d="M34.248 58.651h7.694V.253h-7.694z" mask="url(#f)"/>
            <path fill="#232021" d="M41.942 58.651h7.694V.253h-7.694z" mask="url(#f)"/>
            <path fill="#231F20" d="M49.636 58.651h7.694V.253h-7.694zM57.33 58.651V.253v58.398z" mask="url(#f)"/>
        </g>
        <g transform="translate(0 .129)">
            <path fill="#E68E5A" d="M96.017 118.384l14.243 1.662 10.444 2.37s-47.046 11.268-79.424-.937c-2.373-.712-5.698-2.165-5.698-2.165l13.554-.93.342-2.492h9.153s12.225 2.255 16.379 2.73c4.154.474 8.783.593 10.92.237 2.136-.356 4.153-.712 4.153-.712l5.934.237z"/>
            <path fill="#000" d="M70.629 109.073l-.77-.05L48.14 74.246l.805-.503 21.371 34.216 8.007-9.699.732.605z"/>
            <path fill="#000" d="M62.272 119.873L61.836 74l.863-.278 16.379 23.263-.777.546L62.8 75.515l.422 44.349z"/>
            <path fill="#000" d="M61.895 119.544L49.063 96.42l.83-.46 12.833 23.124zM49.999 95.51l-.808-.497L61.906 74.35l.809.498zM63.392 96.58l-.777-.544 15.941-22.788.778.545z"/>
            <path fill="#000" d="M50.343 117.212l-.804-.504 12.37-19.702.803.504zM104.864 118.443l-25.637-44.54.823-.474 25.636 44.54z"/>
            <path fill="#000" d="M80.056 122.908l-.834-.453 25.636-47.261.834.452z"/>
            <path fill="#000" d="M93.169 120.517l-.517-43.662-12.607 20.881-.813-.49 13.469-22.309.88.24.538 45.33z"/>
            <path fill="#000" d="M104.862 95.831l-11.63-20.414.824-.47 11.632 20.414zM94.076 121.284l-.865-.39 11.134-24.662.865.39z"/>
            <path fill="#000" d="M93.198 120.981L79.236 98.692l.805-.504 13.962 22.289z"/>
            <path fill="#000" d="M79.594 98.913l-30.16-2.844.089-.945 30.16 2.844z"/>
            <mask id="h" fill="#fff">
                <use xlink:href="#g"/>
            </mask>
            <path fill="#000" d="M78.413 123.413h1.346V73.666h-1.346z" mask="url(#h)"/>
            <path fill="#000" d="M78.678 124.137l-29.566-5.89.279-1.396 29.31 5.839 26.442-4.432-.58-42.828 1.424-.02.597 44.05z" mask="url(#h)"/>
            <path fill="#000" d="M79.562 111.02l-17.328-2.849.153-.937 17.329 2.848z" mask="url(#h)"/>
            <path fill="#1C1C1C" d="M78.69 122.79l-.95-.218V73.666h.95z" mask="url(#h)"/>
            <path fill="#000" d="M79.673 98.562l-.07-.947 25.919-1.898.07.946z" mask="url(#h)"/>
            <path fill="#D76112" d="M0 47.885l47 5.459h69.669l52.103-4.629-52.815-12.343-70.738 1.068z" mask="url(#h)"/>
            <path fill="#EF8200" d="M12.106 165.03l-1.938.772v5.695l1.938-.772z" mask="url(#h)"/>
            <path fill="#EB6E08" d="M15.612 169.88l-6.646-3.798L5.578 47.647l6.528-1.899z" mask="url(#h)"/>
            <path fill="#EB6E08" d="M15.39 175.235l-1.143-.623-.086-7.418 1.264.967zM10.168 171.497l-1.143-.623-.086-7.418 1.264.966z" mask="url(#h)"/>
            <path fill="#EF8200" d="M15.43 175.235L12.105 45.748l2.849.475 2.61 127.825z" mask="url(#h)"/>
            <path fill="#EB6E08" d="M0 47.885V33.998l45.1-14.717-.593 18.324z" mask="url(#h)"/>
            <path fill="#EC7404" d="M45.101 19.281l-.594 18.324 72.178-1.063v-18.21z" mask="url(#h)"/>
            <path fill="#EB6E08" d="M116.685 36.542v-18.21l52.087 17.565v12.818z" mask="url(#h)"/>
            <path fill="#000" d="M106.627 60.307V49.353l-.464-.163-1.062-.077v10.984zM47.82 50.595v9.792l1.65-.172v-9.851z" mask="url(#h)"/>
            <path fill="#EB6E08" d="M107.35 47.19l-28.66-3.994v2.849l28.66 3.875zM78.69 43.196l-30.87 5.5v1.899l30.87-4.55z" mask="url(#h)"/>
            <path fill="#B9B9BA" d="M15.297 180.794l-12.462-6.027v-3.835l12.462 5.325z" mask="url(#h)"/>
            <path fill="#EAA96A" d="M35.582 119.314s17.538 7.467 40.054 7.726c22.732.261 45.068-4.625 45.068-4.625v.999s-21.8 5.059-45.36 4.703c-23.56-.357-39.762-7.834-39.762-7.834v-.97z" mask="url(#h)"/>
            <path fill="#000" d="M48.54 118.376l-.72-45.087 30.888-.243.025.002 27.276 1.542v1.443L78.67 74.47l-29.403.232.696 43.65zM79.992 46.174l-1.303-.13v10.86l1.303.13z" mask="url(#h)"/>
            <path fill="#1C1C1C" d="M77.569 46.163l1.167-.118v10.86l-1.167.119zM50.005 50.51l-.594-.146v9.851l.594-.074z" mask="url(#h)"/>
            <path fill="#000" d="M93.073 58.594h-.95V47.906l.95.104zM61.836 58.752h.95V48.46h-.95z" mask="url(#h)"/>
            <path fill="#000" d="M105.154 60.1L92.598 48.715l.485-.706 12.844 11.621zM92.18 58.576l-12.914-11.62.637-.704 12.964 11.67zM77.569 56.925L62.384 49.39l.404-.86 14.781 7.43zM62.01 58.763l-12.54-7.471.013-.928L62.04 57.75z" mask="url(#h)"/>
            <path fill="#000" d="M49.5 60.068l12.335-10.596-.013-.928L49.47 59.056zM62.742 58.648l14.853-11.536-.014-.927-14.87 11.45zM79.926 57.023l12.203-8.133-.014-.928-12.22 8.048zM93.05 58.585l12.076-7.936-.014-.928-12.093 7.851z" mask="url(#h)"/>
            <path fill="#FFF" d="M55.563 28.312c.074.275.189.523.346.744.157.22.359.396.605.53.247.133.54.2.88.2.341 0 .635-.067.881-.2.246-.134.449-.31.606-.53.157-.221.272-.469.345-.744a3.243 3.243 0 0 0 0-1.674 2.282 2.282 0 0 0-.345-.743 1.77 1.77 0 0 0-.606-.53 1.82 1.82 0 0 0-.88-.201c-.341 0-.634.067-.88.2-.247.134-.449.311-.606.53-.157.221-.272.469-.346.744a3.231 3.231 0 0 0 0 1.674m-.688-1.941c.113-.354.282-.667.508-.94.224-.272.505-.49.84-.652.336-.162.726-.244 1.172-.244.445 0 .835.082 1.171.244.335.162.616.38.841.652.226.273.395.586.507.94.113.353.17.722.17 1.104 0 .383-.057.751-.17 1.105a2.784 2.784 0 0 1-.507.94 2.439 2.439 0 0 1-.84.647c-.337.16-.727.24-1.172.24-.446 0-.836-.08-1.171-.24a2.425 2.425 0 0 1-.841-.648 2.778 2.778 0 0 1-.508-.94 3.612 3.612 0 0 1-.169-1.104c0-.382.057-.75.17-1.104M61.49 26.218v.856h.016c.162-.33.362-.574.597-.73.236-.158.535-.231.896-.22v.707c-.267 0-.495.036-.683.11-.189.073-.341.18-.456.322a1.34 1.34 0 0 0-.252.515 2.808 2.808 0 0 0-.078.695v1.808h-.669v-4.063h.63zM66.018 28.183a.835.835 0 0 1-.33.137 4.922 4.922 0 0 1-.428.07c-.15.018-.3.04-.452.063a1.697 1.697 0 0 0-.41.113.743.743 0 0 0-.294.223.62.62 0 0 0-.114.395.533.533 0 0 0 .24.462.73.73 0 0 0 .248.101c.093.02.193.032.298.032.22 0 .409-.03.566-.09a1.18 1.18 0 0 0 .385-.227c.1-.092.173-.19.22-.297a.745.745 0 0 0 .071-.302v-.68zm1.085 2.083c-.116.068-.276.102-.48.102a.576.576 0 0 1-.412-.145c-.102-.097-.154-.256-.154-.476-.183.22-.397.38-.64.476a2.119 2.119 0 0 1-.79.145c-.184 0-.358-.021-.523-.063a1.217 1.217 0 0 1-.429-.196.944.944 0 0 1-.287-.35 1.184 1.184 0 0 1-.106-.523c0-.23.04-.42.118-.566.079-.146.182-.266.31-.358.129-.092.276-.16.441-.208.165-.047.334-.086.507-.118.183-.036.358-.064.523-.082.165-.019.31-.045.436-.079a.735.735 0 0 0 .3-.15c.072-.065.109-.16.109-.286a.67.67 0 0 0-.083-.354.563.563 0 0 0-.212-.204.863.863 0 0 0-.29-.095 2.17 2.17 0 0 0-.32-.023c-.282 0-.518.053-.707.16-.188.108-.29.311-.306.61h-.668c.01-.252.062-.464.157-.637.094-.173.22-.313.377-.42.158-.108.337-.185.539-.233.201-.046.417-.07.648-.07.184 0 .366.013.546.04.181.025.345.079.492.16a.941.941 0 0 1 .354.341c.089.147.133.338.133.573v2.087c0 .157.01.271.028.345.018.073.08.11.184.11.058 0 .126-.011.205-.032v.519zM68.353 26.218v.644h.016c.277-.492.717-.739 1.32-.739.267 0 .49.037.668.11.178.074.322.176.433.307.11.13.187.287.231.467.045.181.067.382.067.602v2.672h-.668v-2.75c0-.253-.073-.451-.22-.598-.146-.147-.349-.22-.605-.22a1.36 1.36 0 0 0-.531.094.996.996 0 0 0-.373.267c-.1.115-.175.25-.225.405-.05.155-.074.324-.074.507v2.295h-.668v-4.063h.629zM74.292 29.602c.155-.092.279-.213.373-.362.095-.15.164-.318.209-.507.044-.189.067-.377.067-.566 0-.178-.022-.354-.064-.527a1.45 1.45 0 0 0-.2-.467c-.092-.14-.211-.25-.357-.335a1.065 1.065 0 0 0-.535-.125c-.215 0-.399.04-.55.121-.152.082-.277.19-.374.327a1.378 1.378 0 0 0-.212.471 2.271 2.271 0 0 0-.067.559c0 .183.019.367.055.55.037.183.1.35.189.5.089.148.207.269.354.36.146.092.33.138.55.138.22 0 .407-.046.562-.137m.853 1.827c-.305.33-.781.495-1.431.495-.189 0-.381-.02-.578-.063a1.763 1.763 0 0 1-.534-.204 1.242 1.242 0 0 1-.397-.369 1.048 1.048 0 0 1-.173-.559h.668a.49.49 0 0 0 .114.307c.07.084.157.152.26.204.102.053.213.09.334.114.12.024.235.036.346.036.22 0 .406-.039.558-.114a1.05 1.05 0 0 0 .377-.315c.1-.133.172-.294.216-.483.045-.189.067-.396.067-.621v-.267h-.016c-.116.251-.29.436-.523.554-.233.118-.48.177-.742.177-.305 0-.569-.055-.794-.166a1.655 1.655 0 0 1-.566-.444 1.89 1.89 0 0 1-.342-.652 2.679 2.679 0 0 1-.115-.79c0-.24.032-.489.095-.743s.168-.484.314-.692c.147-.207.341-.377.582-.51.241-.134.537-.2.889-.2.257 0 .492.056.707.168.214.113.382.282.503.507h.008v-.582h.629v3.719c0 .665-.153 1.163-.456 1.493M79.323 27.412a1.148 1.148 0 0 0-.244-.365 1.147 1.147 0 0 0-.821-.334c-.174 0-.33.03-.468.09-.14.06-.258.143-.358.248-.1.104-.178.227-.236.365a1.38 1.38 0 0 0-.102.444h2.335a1.369 1.369 0 0 0-.106-.448m.16 2.61c-.303.23-.686.346-1.147.346-.325 0-.607-.052-.845-.157a1.658 1.658 0 0 1-.601-.44 1.863 1.863 0 0 1-.366-.677 3.263 3.263 0 0 1-.137-.856c0-.31.047-.593.141-.85.094-.256.227-.479.397-.668a1.807 1.807 0 0 1 1.372-.597c.361 0 .662.075.9.224.238.15.43.34.574.57.144.23.243.482.298.755.056.272.078.531.067.778h-3.042c-.005.178.016.347.063.507a1.119 1.119 0 0 0 .63.72c.162.073.353.11.573.11.283 0 .515-.066.696-.197.18-.131.3-.33.357-.597h.66c-.089.455-.286.799-.59 1.03M84.161 24.669l1.77 4.717 1.776-4.717h1.022v5.612h-.708v-4.669h-.016l-1.753 4.67h-.637l-1.753-4.67h-.016v4.67h-.707v-5.613zM90.446 28.91c.065.191.156.351.27.48a1.205 1.205 0 0 0 .896.397 1.184 1.184 0 0 0 .896-.397c.117-.129.207-.289.272-.48a2.02 2.02 0 0 0 .099-.657c0-.246-.033-.464-.099-.656a1.408 1.408 0 0 0-.27-.483 1.159 1.159 0 0 0-.405-.3 1.208 1.208 0 0 0-.492-.101c-.173 0-.336.034-.491.102a1.15 1.15 0 0 0-.405.299c-.115.13-.206.292-.271.483-.066.192-.099.41-.099.656 0 .247.033.465.099.657m-.68-1.494c.083-.26.21-.485.377-.676.168-.191.375-.342.621-.452.246-.11.53-.165.85-.165.324 0 .608.055.852.165.244.11.45.261.617.452.168.191.294.417.378.676.084.26.125.539.125.837 0 .3-.041.577-.125.834-.084.256-.21.48-.378.672-.168.191-.373.34-.617.448a2.105 2.105 0 0 1-.853.161c-.32 0-.603-.054-.849-.161a1.735 1.735 0 0 1-.62-.448 1.897 1.897 0 0 1-.378-.672 2.677 2.677 0 0 1-.126-.834c0-.298.042-.578.126-.837M95.001 26.218v.644h.016c.277-.492.717-.739 1.32-.739.268 0 .49.037.668.11.178.074.323.176.433.307.11.13.187.287.232.467.044.181.067.382.067.602v2.672h-.669v-2.75c0-.253-.073-.451-.22-.598-.146-.147-.349-.22-.605-.22a1.36 1.36 0 0 0-.53.094.996.996 0 0 0-.374.267c-.1.115-.174.25-.224.405-.05.155-.075.324-.075.507v2.295h-.668v-4.063h.629zM101.459 27.412a1.154 1.154 0 0 0-.244-.365 1.144 1.144 0 0 0-.821-.334c-.173 0-.33.03-.468.09-.139.06-.258.143-.357.248-.1.104-.179.227-.236.365a1.38 1.38 0 0 0-.103.444h2.335a1.369 1.369 0 0 0-.106-.448m.161 2.61c-.304.23-.686.346-1.148.346-.325 0-.606-.052-.844-.157a1.655 1.655 0 0 1-.602-.44 1.863 1.863 0 0 1-.366-.677 3.278 3.278 0 0 1-.137-.856c0-.31.047-.593.142-.85.094-.256.226-.479.397-.668a1.807 1.807 0 0 1 1.371-.597c.362 0 .662.075.9.224.238.15.43.34.574.57.144.23.244.482.299.755.055.272.077.531.067.778H99.23c-.005.178.016.347.063.507a1.119 1.119 0 0 0 .63.72c.162.073.353.11.573.11.283 0 .515-.066.696-.197.18-.131.3-.33.357-.597h.661c-.09.455-.286.799-.59 1.03M104.56 30.824a4.246 4.246 0 0 1-.232.503c-.076.136-.16.247-.252.334a.851.851 0 0 1-.306.189c-.113.039-.243.059-.39.059-.078 0-.156-.006-.235-.016a1.14 1.14 0 0 1-.228-.055v-.614a1.127 1.127 0 0 0 .393.095c.136 0 .25-.033.342-.098a.607.607 0 0 0 .208-.28l.275-.683-1.61-4.04h.753l1.187 3.324h.016l1.14-3.324h.707l-1.768 4.606zM122.722 31.5l.949.25c.064.017.144.032.241.045a1.015 1.015 0 0 0 .644-.135.951.951 0 0 0 .305-.299c.093-.135.172-.313.24-.535.066-.222.109-.501.126-.836a4.764 4.764 0 0 0-.027-.892 2.258 2.258 0 0 0-.212-.717 1.63 1.63 0 0 0-.418-.53 1.72 1.72 0 0 0-.66-.32l-.96-.255-.228 4.223zm-.31-4.984l1.471.389c.66.175 1.158.523 1.491 1.044.334.522.477 1.219.43 2.093a5.102 5.102 0 0 1-.186 1.183c-.1.332-.239.597-.421.794-.18.196-.405.324-.672.382-.267.058-.579.04-.935-.054l-1.471-.39.293-5.441zM128.052 27.87l.655.172-.845.883-.385-.102.575-.954zm.493 3.408c0-.155-.02-.307-.058-.456a1.495 1.495 0 0 0-.167-.404 1.23 1.23 0 0 0-.264-.31.89.89 0 0 0-.347-.18.683.683 0 0 0-.361-.007.639.639 0 0 0-.286.168.914.914 0 0 0-.199.307 1.45 1.45 0 0 0-.102.41l1.784.472zm.439 1.229c-.092.424-.26.718-.506.883-.244.164-.544.2-.896.107a1.578 1.578 0 0 1-.639-.328 1.886 1.886 0 0 1-.437-.553 2.486 2.486 0 0 1-.245-.73 4.214 4.214 0 0 1-.06-.857c.015-.295.067-.559.152-.792.085-.232.199-.422.338-.57.14-.15.302-.25.486-.305a1.08 1.08 0 0 1 .593.002c.277.074.502.206.677.4.174.193.31.415.408.668.098.253.161.517.19.792.027.276.03.532.01.768l-2.325-.615a2.03 2.03 0 0 0 .022.505c.028.164.078.317.152.457s.17.263.29.367c.12.104.265.178.433.223.216.057.397.04.542-.05.145-.09.247-.26.304-.507l.511.135zM132.016 32.544c.01-.183 0-.367-.029-.552a1.992 1.992 0 0 0-.148-.515 1.309 1.309 0 0 0-.283-.407.95.95 0 0 0-.423-.236.668.668 0 0 0-.445.014.748.748 0 0 0-.313.261c-.084.12-.147.264-.19.433-.045.169-.07.345-.08.527a3.02 3.02 0 0 0 .023.574c.026.191.075.365.146.522.07.158.165.296.285.412a.98.98 0 0 0 .443.245c.173.046.32.041.446-.013a.694.694 0 0 0 .306-.267c.08-.123.141-.272.183-.447.042-.174.069-.358.08-.55zm-2.298-2.571l.51.135-.028.533.011.003a.66.66 0 0 1 .422-.371c.186-.051.387-.048.603.009.24.063.446.174.619.333.172.16.312.35.42.571.108.222.185.466.23.73.048.265.064.537.049.817-.015.28-.059.536-.13.77a1.65 1.65 0 0 1-.3.581 1.033 1.033 0 0 1-.468.325 1.09 1.09 0 0 1-.63 0 1.414 1.414 0 0 1-.528-.276 1.52 1.52 0 0 1-.25-.26 1.322 1.322 0 0 1-.192-.348l-.012-.003-.11 2.035-.51-.135.294-5.45zM134.418 29.555l.559.147.565 1.256-.504-.134-.375-.841-.46.62-.462-.122.677-.926zm-.892 3.428c-.013.239 0 .458.041.656.04.199.101.372.182.52.082.148.18.27.294.368a.944.944 0 0 0 .37.198c.132.035.259.035.381 0a.706.706 0 0 0 .324-.204c.096-.1.173-.238.233-.41a2.26 2.26 0 0 0 .11-.616c.012-.239 0-.458-.042-.657-.04-.198-.1-.373-.181-.524a1.283 1.283 0 0 0-.294-.37.936.936 0 0 0-.37-.199.706.706 0 0 0-.381 0 .704.704 0 0 0-.325.207 1.18 1.18 0 0 0-.232.414c-.06.172-.097.378-.11.617zm-.54-.143c.015-.29.062-.552.14-.786.078-.235.185-.428.323-.58.138-.151.303-.256.496-.313.191-.057.411-.053.66.012.243.065.457.176.64.332.182.157.332.345.45.564.119.22.203.463.254.732.05.268.068.547.052.837a3 3 0 0 1-.14.782 1.592 1.592 0 0 1-.323.575 1.066 1.066 0 0 1-.498.314 1.219 1.219 0 0 1-.658-.012 1.587 1.587 0 0 1-.642-.332 1.958 1.958 0 0 1-.448-.564 2.506 2.506 0 0 1-.254-.728 3.444 3.444 0 0 1-.052-.833zM137.417 32.01l.618.164-.03.572-.62-.164-.13 2.446a.886.886 0 0 0 .004.187.239.239 0 0 0 .052.122c.026.033.064.06.114.081.05.02.115.042.194.063l.234.062-.03.572-.39-.104a1.704 1.704 0 0 1-.338-.124.614.614 0 0 1-.222-.186.72.72 0 0 1-.114-.293 1.951 1.951 0 0 1-.019-.454l.135-2.507-.528-.14.03-.572.53.14.063-1.181.51.135-.063 1.181zM140.103 34.26l1.736.459-.032.61-1.737-.46zM146.064 35.32c.132.035.259.055.38.062a.602.602 0 0 0 .324-.066.568.568 0 0 0 .232-.24c.06-.11.096-.264.107-.462a1.332 1.332 0 0 0-.144-.718c-.11-.205-.3-.343-.569-.414l-1.417-.375-.102 1.898 1.19.315zm-1.624-2.974l2.017.534c.409.109.722.32.938.635.216.315.313.694.289 1.136-.018.33-.093.604-.224.822a.73.73 0 0 1-.595.36v.016c.121.063.22.14.294.232.074.092.132.194.173.305.04.111.068.23.083.358.016.128.026.26.03.395.002.134 0 .27-.002.409-.004.138-.001.275.008.411.008.137.025.269.048.396.024.127.063.245.12.352l-.638-.168a.608.608 0 0 1-.069-.25c-.01-.101-.012-.211-.01-.331l.01-.389a3.67 3.67 0 0 0-.015-.413 5.182 5.182 0 0 0-.04-.393 1.223 1.223 0 0 0-.096-.343.848.848 0 0 0-.196-.268.777.777 0 0 0-.33-.168l-1.393-.37-.125 2.325-.57-.15.293-5.443zM150.459 37.078c0-.154-.02-.306-.058-.456a1.481 1.481 0 0 0-.167-.403 1.217 1.217 0 0 0-.264-.31.888.888 0 0 0-.346-.18.636.636 0 0 0-.648.16.925.925 0 0 0-.2.308c-.051.122-.085.259-.1.409l1.783.472zm.439 1.23c-.092.424-.26.718-.506.882-.244.165-.543.2-.896.107a1.579 1.579 0 0 1-.639-.327 1.89 1.89 0 0 1-.437-.553 2.466 2.466 0 0 1-.245-.73 4.216 4.216 0 0 1-.06-.858c.016-.295.067-.558.152-.79.086-.233.199-.424.338-.573.14-.148.302-.249.486-.304.183-.054.381-.053.593.003.277.073.502.206.677.4.174.192.31.415.409.668.097.252.16.517.188.792.028.275.031.531.01.768l-2.324-.616c-.013.172-.006.34.022.505.027.165.078.317.151.458.074.14.171.263.292.367.12.104.264.178.432.223.217.056.397.04.542-.05.145-.091.247-.26.305-.508l.51.136zM152.322 35.956l.619.163-.031.572-.62-.163-.13 2.446a.907.907 0 0 0 .005.187.239.239 0 0 0 .051.122c.026.032.064.06.114.08.05.021.114.042.194.063l.235.062-.03.572-.391-.104a1.683 1.683 0 0 1-.338-.123.614.614 0 0 1-.222-.187.72.72 0 0 1-.114-.293 1.97 1.97 0 0 1-.018-.453l.135-2.508-.529-.14.031-.571.529.14.063-1.182.51.135-.063 1.182zM153.487 36.264l.48.128-.045.83.012.003c.142-.287.307-.483.496-.588.188-.105.42-.115.695-.032l-.036.686a1.123 1.123 0 0 0-.529-.032.647.647 0 0 0-.365.22 1.181 1.181 0 0 0-.22.453c-.05.187-.082.406-.095.655l-.095 1.753-.51-.135.212-3.941zM157.324 39.212a.468.468 0 0 1-.26.067c-.106 0-.216-.005-.33-.018a7.854 7.854 0 0 0-.349-.03.948.948 0 0 0-.318.027.457.457 0 0 0-.237.158c-.063.079-.1.2-.108.362a.716.716 0 0 0 .036.284.666.666 0 0 0 .307.363c.07.04.146.07.226.09a.942.942 0 0 0 .437.028.684.684 0 0 0 .306-.143.678.678 0 0 0 .184-.245.804.804 0 0 0 .07-.28l.036-.663zm.72 2.24c-.097.046-.22.05-.373.01a.5.5 0 0 1-.307-.23c-.072-.116-.103-.282-.092-.495a.989.989 0 0 1-.514.335 1.218 1.218 0 0 1-.612-.015 1.521 1.521 0 0 1-.396-.166 1.118 1.118 0 0 1-.316-.282 1.235 1.235 0 0 1-.201-.4 1.554 1.554 0 0 1-.055-.529c.012-.223.053-.398.12-.524a.724.724 0 0 1 .604-.398c.128-.012.26-.016.393-.011.142.001.277.01.404.026.127.015.24.02.337.012a.414.414 0 0 0 .236-.085c.06-.049.092-.134.1-.256a.884.884 0 0 0-.045-.36.687.687 0 0 0-.369-.39 1.57 1.57 0 0 0-.242-.088c-.216-.057-.399-.053-.549.013-.15.066-.238.242-.266.529l-.51-.136a1.51 1.51 0 0 1 .153-.585.826.826 0 0 1 .733-.447c.157-.005.324.016.5.062.14.037.279.087.415.149.137.062.26.147.367.256.108.108.192.242.253.403.06.16.084.354.072.583l-.11 2.027c-.008.152-.007.266.003.34.01.076.055.124.136.145a.39.39 0 0 0 .158.003l-.027.504zM159.495 37.086l-.636-.135.053-.793.636.135-.053.793zm-.683.574l.636.135-.265 3.94-.635-.135.264-3.94zM160.772 38.192l.618.164-.03.572-.62-.164-.131 2.447a.911.911 0 0 0 .005.187.243.243 0 0 0 .051.121c.027.033.065.06.114.08.05.022.116.043.195.064l.235.062-.031.572-.39-.104a1.689 1.689 0 0 1-.338-.124.615.615 0 0 1-.221-.186.712.712 0 0 1-.116-.293 1.949 1.949 0 0 1-.018-.454l.135-2.507-.528-.14.031-.572.528.14.064-1.181.51.135-.063 1.181zM5.144 41.339l.87-.252c.06-.018.133-.044.222-.081.088-.036.182-.09.28-.16a1.717 1.717 0 0 0 .557-.663 2.6 2.6 0 0 0 .19-.563c.05-.218.075-.471.075-.76 0-.28-.023-.522-.069-.73a1.122 1.122 0 0 0-.226-.495.708.708 0 0 0-.405-.236c-.165-.035-.37-.018-.612.053l-.882.255v3.632zm-.524-4.004l1.351-.392c.606-.176 1.073-.128 1.401.145.327.272.49.784.49 1.536 0 .393-.037.752-.11 1.077a2.853 2.853 0 0 1-.341.866 2.306 2.306 0 0 1-.59.646c-.24.179-.523.316-.85.41l-1.351.392v-4.68zM9.792 35.716l.601-.174-.722 1.147-.352.102.473-1.075zm.612 2.602a1.102 1.102 0 0 0-.075-.352.678.678 0 0 0-.17-.255.55.55 0 0 0-.255-.13.635.635 0 0 0-.321.019.928.928 0 0 0-.328.17 1.18 1.18 0 0 0-.251.28 1.559 1.559 0 0 0-.237.744l1.637-.476zm.458.811c-.062.398-.2.726-.415.982a1.606 1.606 0 0 1-.806.526c-.229.066-.427.08-.594.038a.822.822 0 0 1-.423-.248 1.178 1.178 0 0 1-.257-.488 2.832 2.832 0 0 1-.097-.687c0-.254.033-.498.1-.733.066-.236.159-.45.278-.642.12-.192.261-.354.425-.49.163-.135.342-.23.537-.287.253-.073.465-.073.632.003a.91.91 0 0 1 .402.359c.101.163.171.352.21.568.038.217.054.428.046.636l-2.134.619c-.002.15.012.286.044.41a.736.736 0 0 0 .16.308.545.545 0 0 0 .282.164c.114.028.248.02.402-.025.199-.058.361-.16.489-.306.126-.146.21-.336.25-.57l.47-.137zM13.608 37.683c0-.157-.019-.306-.053-.447a.997.997 0 0 0-.16-.356.551.551 0 0 0-.275-.202.661.661 0 0 0-.394.009.945.945 0 0 0-.403.228c-.11.107-.2.23-.27.37-.07.141-.12.292-.151.454a2.458 2.458 0 0 0-.048.48c0 .166.017.322.05.466a.974.974 0 0 0 .156.365.57.57 0 0 0 .279.204c.114.04.253.035.414-.012a.954.954 0 0 0 .403-.228c.11-.106.198-.23.264-.372.067-.141.114-.295.144-.46.029-.167.044-.332.044-.499zm-2.206-1.025l.47-.135v.458l.01-.003c.077-.21.198-.382.364-.515a1.55 1.55 0 0 1 .546-.286c.22-.064.412-.072.576-.023.163.049.299.139.408.27.109.134.19.299.245.497.056.199.083.417.083.658 0 .24-.027.475-.08.705-.053.23-.134.44-.243.63a1.877 1.877 0 0 1-.408.499 1.491 1.491 0 0 1-.57.306 1.22 1.22 0 0 1-.238.044.905.905 0 0 1-.253-.016.722.722 0 0 1-.24-.094.565.565 0 0 1-.19-.197l-.01.003v1.75l-.47.136v-4.687zM15.637 34.02l.512-.149.574.772-.463.134-.38-.52-.386.742-.425.124.568-1.103zm-.64 3.293c0 .205.022.381.069.527.046.146.109.26.19.345a.575.575 0 0 0 .283.164.68.68 0 0 0 .345-.015.978.978 0 0 0 .346-.186c.108-.088.203-.198.283-.328.08-.13.145-.282.19-.456.046-.172.07-.361.07-.566a1.78 1.78 0 0 0-.07-.528.894.894 0 0 0-.19-.348.565.565 0 0 0-.283-.167.688.688 0 0 0-.346.015.991.991 0 0 0-.345.185c-.107.089-.202.2-.283.333a1.704 1.704 0 0 0-.19.457 2.184 2.184 0 0 0-.069.568zm-.497.144c0-.249.03-.49.09-.724.058-.233.146-.447.264-.64.117-.194.262-.362.432-.503.172-.141.371-.245.598-.311.225-.065.423-.077.597-.035a.867.867 0 0 1 .435.25c.117.125.205.288.264.487.06.2.088.423.088.673 0 .248-.029.49-.088.72-.059.231-.147.444-.264.637a2.003 2.003 0 0 1-.435.504 1.667 1.667 0 0 1-.597.31 1.157 1.157 0 0 1-.598.036.864.864 0 0 1-.432-.251 1.182 1.182 0 0 1-.265-.483 2.319 2.319 0 0 1-.089-.67zM18.47 34.607l.568-.165v.492l-.567.164v2.105a.67.67 0 0 0 .014.153c.008.036.026.063.053.077.024.014.06.018.106.011.046-.007.106-.02.18-.042l.214-.062v.491l-.358.104a1.456 1.456 0 0 1-.31.06.322.322 0 0 1-.21-.047.333.333 0 0 1-.12-.188 1.408 1.408 0 0 1-.038-.369v-2.157l-.485.141v-.491l.485-.14v-1.017l.469-.136v1.016zM21.012 35.174l1.594-.463v.525l-1.594.462zM26.46 33.153c.122-.035.237-.08.347-.133a.997.997 0 0 0 .488-.525c.05-.122.075-.268.075-.438 0-.236-.056-.412-.165-.529-.111-.117-.29-.139-.535-.068l-1.301.378v1.632l1.092-.317zm-1.615-1.687l1.852-.538c.375-.109.669-.084.88.072.211.158.317.427.317.806 0 .285-.054.55-.163.795a1.307 1.307 0 0 1-.52.59v.014a.501.501 0 0 1 .278.05c.07.04.128.097.17.17a.861.861 0 0 1 .095.258c.02.099.035.203.046.314.007.111.013.226.017.343.003.117.013.23.028.339.014.11.035.211.063.306a.613.613 0 0 0 .124.236l-.585.17a.32.32 0 0 1-.074-.175c-.013-.08-.021-.17-.025-.272-.003-.102-.008-.21-.01-.327a2.474 2.474 0 0 0-.034-.339 3.457 3.457 0 0 0-.055-.308.63.63 0 0 0-.105-.239.361.361 0 0 0-.19-.127.557.557 0 0 0-.306.02l-1.28.37v2l-.523.152v-4.68zM30.524 32.479a1.157 1.157 0 0 0-.074-.352.675.675 0 0 0-.171-.256.554.554 0 0 0-.254-.129.635.635 0 0 0-.322.018.941.941 0 0 0-.329.17c-.097.08-.18.172-.25.28a1.557 1.557 0 0 0-.237.743l1.637-.474zm.458.811c-.064.398-.2.726-.415.982a1.62 1.62 0 0 1-.806.526c-.23.066-.427.079-.594.038a.826.826 0 0 1-.423-.248 1.18 1.18 0 0 1-.257-.489 2.82 2.82 0 0 1-.097-.686c0-.254.033-.498.099-.734.066-.235.16-.45.279-.641.12-.192.261-.355.425-.49.163-.135.342-.231.537-.288.254-.073.464-.072.631.004a.91.91 0 0 1 .403.359c.1.162.17.352.209.568.04.216.054.428.047.636l-2.133.619c-.004.15.01.286.044.41a.728.728 0 0 0 .16.307.544.544 0 0 0 .28.164c.115.028.248.02.403-.024a.995.995 0 0 0 .488-.306 1.15 1.15 0 0 0 .251-.57l.469-.137zM32.156 30.635l.568-.165v.492l-.568.164v2.105c0 .065.005.117.014.153.009.037.026.063.052.077a.172.172 0 0 0 .108.011c.045-.007.105-.02.179-.042l.215-.062v.491l-.359.104a1.447 1.447 0 0 1-.31.061.32.32 0 0 1-.21-.047.325.325 0 0 1-.12-.189 1.37 1.37 0 0 1-.038-.369v-2.156l-.485.14v-.491l.485-.141v-1.016l.47-.136v1.016zM33.225 30.325l.442-.128v.714l.01-.003c.115-.309.255-.552.42-.731.165-.18.374-.301.628-.366v.59a1.463 1.463 0 0 0-.48.23c-.132.1-.238.221-.32.362-.08.142-.139.303-.175.484a2.98 2.98 0 0 0-.056.593v1.507l-.469.137v-3.39zM36.843 30.914a.8.8 0 0 1-.232.182c-.096.051-.196.1-.301.146-.105.046-.21.094-.316.144-.107.051-.203.11-.287.179a.725.725 0 0 0-.286.601c0 .091.014.164.046.219a.288.288 0 0 0 .121.118.36.36 0 0 0 .174.035.804.804 0 0 0 .21-.034 1.225 1.225 0 0 0 .667-.459c.069-.097.12-.195.154-.294.033-.1.05-.188.05-.267v-.57zm.76 1.516a.75.75 0 0 1-.336.19c-.121.034-.218.021-.29-.041-.07-.062-.107-.185-.107-.369-.129.221-.279.398-.45.53-.17.133-.355.228-.553.286-.13.037-.252.055-.367.054a.575.575 0 0 1-.3-.08.533.533 0 0 1-.202-.236.982.982 0 0 1-.074-.415c0-.193.027-.358.083-.496.054-.138.128-.258.217-.361.09-.103.193-.191.31-.264.115-.073.233-.14.354-.201.13-.068.252-.127.367-.175.116-.05.218-.1.307-.155a.73.73 0 0 0 .21-.185.43.43 0 0 0 .077-.262.54.54 0 0 0-.059-.278.287.287 0 0 0-.148-.127.45.45 0 0 0-.205-.02c-.075.009-.15.024-.223.045-.199.058-.364.15-.496.279-.132.127-.204.318-.215.57l-.47.136c.008-.211.045-.4.111-.563a1.439 1.439 0 0 1 .643-.73c.141-.08.293-.144.454-.191.13-.038.257-.064.383-.079a.733.733 0 0 1 .345.035.481.481 0 0 1 .248.212c.063.105.094.256.094.452v1.744c0 .13.007.225.02.282.012.058.055.076.129.055a.52.52 0 0 0 .143-.075v.433zM38.067 28.92l1-.136v3.388l-1 .136V28.92zm1-.746l-1 .137v-.683l1-.136v.682z" mask="url(#h)"/>
            <path fill="#FFF" d="M39.914 28.384l.567-.165v.491l-.567.165v2.105c0 .065.004.116.014.153.008.037.026.062.052.077a.171.171 0 0 0 .107.011c.046-.007.106-.021.18-.042l.214-.063v.491l-.358.105a1.43 1.43 0 0 1-.312.06.319.319 0 0 1-.209-.047.329.329 0 0 1-.119-.188 1.391 1.391 0 0 1-.038-.369v-2.157l-.485.141v-.49l.485-.142v-1.016l.469-.137v1.017z" mask="url(#h)"/>
            <path fill="#714F47" d="M42.747 169.08s-.26 2.431-.15 3.232c.2 1.444.634 1.77 1.294 2.364 1.714 1.544 4.838 4.147 6.287 3.669 1.87-.618 2.803.285 2.796 1.596l-.007 1.31s-3.825 1.624-7.172.522l-3.347-1.102-.02.352a.431.431 0 0 1-.455.408l-3.29-.18a.614.614 0 0 1-.58-.56c-.03-.34-.059-.68-.082-1.019-.067-.99-.094-1.988.006-2.976.044-.443.07-.875.237-1.29.32-.802.872-1.53 1.109-2.368.294-1.043-.317-3.766-.213-3.77l3.587-.188" mask="url(#h)"/>
            <path fill="#FFF" d="M38.326 175.105c.744.806 3.588 3.383 6.033.042a.37.37 0 0 1 .549-.065c1.734 1.547 4.007 3.68 5.27 3.262 1.869-.617 2.803.286 2.796 1.596l-.007 1.31s-3.825 1.625-7.172.523l-3.347-1.102-.02.352a.432.432 0 0 1-.455.408l-3.291-.181a.614.614 0 0 1-.579-.56c-.09-1.03-.444-3.763.028-5.494.023-.084.136-.155.195-.091" mask="url(#h)"/>
            <path fill="#595A5A" d="M37.995 179.815c4.577-.065 7.16 1.839 10.176 1.813 1.986-.017 3.994-.59 4.839-.862a.345.345 0 0 1 .45.302l.012.137a.28.28 0 0 1-.178.284c-4.081 1.538-8.117.492-9.192.19-.883-.247-4.596-.095-5.983-.029a.523.523 0 0 1-.548-.502l-.036-.852a.463.463 0 0 1 .46-.48" mask="url(#h)"/>
            <path fill="#000" d="M37.957 169.04c.876.22 3.483.724 5.702-.427.13-.067.286.024.3.174l.235 2.464a.21.21 0 0 1-.11.209c-.63.322-3.527 1.674-5.852.523a.218.218 0 0 1-.117-.161l-.41-2.544c-.024-.15.108-.276.252-.239" mask="url(#h)"/>
            <path fill="#714F47" d="M62.307 181.745a43.363 43.363 0 0 1-2.944-4.818 22.677 22.677 0 0 1-2.809-2.975c-1.224-1.582-.103-10.868-.103-10.868l-4-.248c-.115-.007-.823 8.706-.989 9.215-.414.667-.87 1.313-1.237 1.995-.237.44-.32.916-.426 1.4-.235 1.083-.332 2.193-.383 3.298-.017.38-.028.76-.038 1.14a.685.685 0 0 0 .57.693l3.625.618a.483.483 0 0 0 .557-.395l.065-.388 3.57 1.646c1.777.819 3.771.904 5.326.783-.272-.358-.528-.732-.784-1.096" mask="url(#h)"/>
            <path fill="#FFF" d="M50.333 173.721c.722.987 3.548 4.205 6.68.812a.414.414 0 0 1 .617-.003c1.726 1.935 4.012 4.962 5.47 5.24 1.96.373 1.82.186 2.334.793.512.605.346 1.824.346 1.824s-4.445 1.316-8.014-.33l-3.57-1.645-.066.388a.482.482 0 0 1-.557.395l-3.625-.618a.684.684 0 0 1-.57-.693c.031-1.153-.016-4.227.726-6.087.037-.09.171-.154.229-.076" mask="url(#h)"/>
            <path fill="#595A5A" d="M49.152 179.056c5.081.507 7.702 2.944 11.048 3.298 2.203.233 4.502-.148 5.472-.343.244-.049.47.143.461.392l-.005.154a.31.31 0 0 1-.233.292c-4.718 1.187-9.057-.483-10.21-.953-.949-.386-5.082-.689-6.628-.79a.584.584 0 0 1-.544-.626l.068-.95a.517.517 0 0 1 .57-.474" mask="url(#h)"/>
            <path fill="#000" d="M50.647 167.39c.956.487 3.845 1.763 6.745 1.064.17-.04.325.105.3.277l-.413 2.85a.246.246 0 0 1-.187.205c-.822.194-4.565.936-6.947-.995a.25.25 0 0 1-.09-.214l.233-2.985a.248.248 0 0 1 .36-.203" mask="url(#h)"/>
            <path fill="#FFF" d="M62.12 179.443s1.354 2.473.653 2.987l3.221-.233s.793-2.614-3.874-2.754" mask="url(#h)"/>
            <path fill="#FDD230" d="M53.404 115.618s6.918 18.22 8.16 26.844c1.682 11.675-4.541 27.26-4.541 27.26l-5.748-.77 1.011-14.575a41.332 41.332 0 0 0-1.833-15.352l-1.171-3.697-.203 8.046a52.57 52.57 0 0 1-1.888 12.698l-3.706 13.395-5.407.276.9-19.423c.29-2.467.32-4.957.088-7.43l-.79-22.722c-.181-1.928-.073-6.354 1.86-6.482l13.268 1.932z" mask="url(#h)"/>
            <path fill="#714F47" d="M58.394 104.527s2.196-.846 3.132-.999c.937-.153 3.884 1.234 3.87 1.98-.015.744-1.667.883-3.067.32-1.4-.561-.9-.308-.9-.308s1.997.834 1.896 1.444c-.1.61-1.974-.345-2.472-.293-.497.052-1.715 1.15-2.173.582-.97-1.202-3.495-.267-3.495-.267l.191-2.087 3.018-.372z" mask="url(#h)"/>
            <path fill="#67423C" d="M43.66 69.554c-.794.374-1.15 1.603-.797 2.745.354 1.14 1.285 1.762 2.08 1.388.793-.375 1.15-1.604.796-2.745-.354-1.141-1.285-1.763-2.08-1.388" mask="url(#h)"/>
            <path fill="#67423C" d="M44.722 72.254c-.003-.027-.01-.05-.014-.075l.409-5.239c.937-2.832 1.893-5.066 5.077-4.844l2.865.2c3.774.264 6.509 2.195 6.31 5.602l-.363 5.766c-.276 3.378-2.826 7.034-3.732 7.746-.598.47-2.875.037-3.542-.33l-2.606-.937a7.497 7.497 0 0 1-2.635-.68c-1.085-2.267-1.515-4.652-1.77-7.209" mask="url(#h)"/>
            <path fill="#010101" d="M49.092 76.773c-1.407.016-2.447.114-3.637-.462-.803-1.561-.804-1.877-1.622-5.275-.676-6.866 1.184-8.416 1.647-8.922 1.448-1.588 7.125-3.527 11.44-.414 2.652 1.913 2.45 6.198 2.45 6.198-1.85-3.36-1.04 1.526-1.485 1.86-.28.21-.748 1.732-1.098 1.626-1.156-.35-1.174-2.377-1.354-2.243-1.439 1.078-2.404 4.111-3.771 5.679-1.12 1.462-1.779 1.315-2.57 1.953" mask="url(#h)"/>
            <path fill="#67423C" d="M55.035 68.66c-1.087.069-2.59.958-2.562 3.617.016 1.505.874 2.668 1.961 2.6 1.088-.07 1.973-1.345 1.977-2.849.005-1.504-.288-3.437-1.376-3.368M44.445 81.955c1.402.214 2.816.374 4.21.655.05.01 4.877 3.225 2.426 1.073l.387-6.8c.218-1.048-5.664-2.516-6.07-.238l-.953 5.31z" mask="url(#h)"/>
            <path fill="#B8EBD6" d="M45.087 80.744a1.503 1.503 0 0 0-1.035.235c-.344.232-.83.625-1.393 1.274-1.127 1.296 1.624 1.915 1.624 1.915l4.042.763s2.778-.538 3.013-2.203c0 0-.038-.587-.868-1.276l-5.383-.708z" mask="url(#h)"/>
            <path fill="#F27930" d="M32.664 89.372c.612-2.171 5.86-5.88 9.809-6.708 2.072-.843 4.802-.504 8.946.086 2.091.459 4.77 1.37 4.904 2.031.001.003-1.108 9.373-1 18.018.047 3.69 10.536 44.218 10.495 44.411-.759 3.552-30.03 7.628-31.352-2.342-1.458-11-3.728-48.65-1.802-55.496" mask="url(#h)"/>
            <path fill="#575251" d="M48.6 100.595v-.001c-.022.033-.044.068 0 .001M48.6 100.595c.042-.066.022-.035 0-.002v.002M48.6 100.595v-.002.002z" mask="url(#h)"/>
            <path fill="#714F47" d="M71.868 107.303c-3.092 1.907-8.582 1.107-10.546 1.294-1.794-.284-2.382-4.297-2.157-8.242-1.657 1.039-3.027.19-4.402 1.114.847 1.597-.188 11.284 1.419 11.885 4.914 1.835 15.964-3.47 16.606-3.803l-.92-2.248z" mask="url(#h)"/>
            <path fill="#FDD230" d="M53.114 87.233c1.314-2.646 2.355-3.35 3.455-2.77 1.66.873 4.659 3.238 4.744 7.252.1 4.695-.59 8.404.42 14.835l-8.897 3.372c-.735-.021-1.715-7.695-1.578-8.416 0 0-.428-9.676 1.856-14.273" mask="url(#h)"/>
            <path fill="#010101" d="M54.446 112.053c.217.074.45.14.704.191 0 0 6.184-1.465 7.083-4.073l-.74-1.861c-.109-.199-5.65 2.348-9.063 2.58a.606.606 0 0 0-.107.02 36.908 36.908 0 0 0 2.123 3.143" mask="url(#h)"/>
            <path fill="#714F47" d="M69.715 108.352s2.375-5.155 6.156-4.314c1.346.3 3.072 1.413.868 1.297-2.204-.116-1.833-.545-2.798-.047 0 0 1.102-1.078 3.853 1.005 2.75 2.083.73 2.629-.317 2.718-1.047.089-2.96-.593-3.886-.407-.926.186-.49 1.98-2.899 1.83-1.096-.067-3.788 1.639-3.796 1.6-.007-.038 2.819-3.682 2.819-3.682" mask="url(#h)"/>
            <path fill="#F27930" d="M43.833 71.036s2.845 1.538 6.665.822c3.82-.716 8.236-7.639 7.52-9.191-.716-1.551-9.263-6.827-9.907-7.162-1.577-.818-7.597 3.4-7.24 6.981.359 3.581 2.962 8.55 2.962 8.55" mask="url(#h)"/>
            <path fill="#FDD230" d="M41.188 61.115s2.626-5.37 6.326-5.251c1.503.048 2.179.943 2.451 1.99.464 1.778-.288 3.659-1.787 4.72-1.608 1.14-3.973 2.516-5.439 2.003-2.387-.836-1.551-3.462-1.551-3.462" mask="url(#h)"/>
            <path fill="#714F47" d="M93.787 174.044l-1.82 6.008-9.65 2.913s0 1.274 3.46 1.457c3.459.182 5.461 1.274 6.736.91 1.274-.364 3.277-.182 2.913-1.639-.364-1.456-.364-2.73-.364-2.73l2.73-6.009-4.005-.91zM115.606 172.593l.28 6.008-8.632 2.913s.446 1.274 3.969 1.456c3.522.183 5.907 1.275 7.054.91 1.148-.364 3.214-.182 2.34-1.638-.873-1.457-1.318-2.73-1.318-2.73l.63-6.01-4.323-.91z" mask="url(#h)"/>
            <path fill="#E68E5A" d="M86.47 181.712c-.279.9-.281 1.88.078 2.767 1.764.168 3.114.55 4.165.769-1.174-.898-1.514-2.826-1.179-4.461l-3.065.925zM114.958 181.287c.03-.762.104-1.715.417-2.514l-2.255.761a1.225 1.225 0 0 1-.145.168c-.848.8-.645 2.422.1 3.235.07.078.122.159.166.24.681.102 1.302.224 1.867.342-.171-.736-.176-1.536-.15-2.232" mask="url(#h)"/>
            <path fill="#594A42" d="M81.54 183.316c.9 2.458 3.91 1.893 5.986 2.102 2.9.293 5.66.74 8.418-.471.869-.382.1-1.184-.629-.863-2.138.94-4.38.617-6.627.361-1.583-.18-5.105.276-5.756-1.502-.24-.655-1.627-.269-1.392.373M106.346 181.993c2.2 1.692 4.634 2.005 7.33 2.002 2.757-.003 5.671 1.306 8.067-.636.733-.594-.377-1.11-.93-.66-1.841 1.49-4.842.23-7.022.248-2.366.02-4.452-.294-6.375-1.773-.506-.388-1.712.325-1.07.819" mask="url(#h)"/>
            <path fill="#62352D" d="M105.049 83.17c.128.185.26.366.396.544.974.425 2.442 1.095 2.442 1.095s.912-.01 1.265-1.2c.353-1.191-1.748-4.05-1.685-4.329.022-.099.044-1.041.393-1.394 1.187-1.197.81-1.405.5-1.547 0 0-1.182.447-1.554 1.23-.184.387-.321.8-.401 1.067.059-.39-.03-.844.129-1.092 1.127-1.76 1.048-2.184.71-2.389-.366-.22-1.334 1.145-1.78 2.332-.275.732-.237 1.668-.237 1.668-.204-.093-.199-1.77-.079-1.98 1.273-2.23 1.39-2.177.799-2.582-.36-.247-1.35.855-1.96 2.417-.2.511-.072 1.542-.17 1.598-.207.121-.397-.247-.444-.339-.21-.402-.113-1.292-.113-1.292.96-2.509 1.11-2.67.58-2.951-.417-.22-1.869 2.526-1.977 3.147-.062.35.213 1.48.381 2.118.894 1.32 1.895 2.572 2.805 3.88" mask="url(#h)"/>
            <path fill="#62352D" d="M102.168 79.18c.072.108.147.215.22.322a6.845 6.845 0 0 0-.018-.092l-.226-1.02c-.073-.338-.151-.679-.183-1.009a.677.677 0 0 1 .008-.226c.018-.076.044-.154.073-.231.058-.155.125-.308.195-.46.141-.303.295-.6.457-.892.163-.29.335-.575.522-.846a4.19 4.19 0 0 1 .298-.386 1.26 1.26 0 0 1 .167-.16.325.325 0 0 1 .082-.05c.03-.013.025-.007.032-.007.065.037.142.08.179.125a.262.262 0 0 1 .056.166c-.001.142-.05.303-.1.458-.101.312-.223.622-.342.93l-.359.923-.044.115c-.012.043-.034.061-.045.145a4.202 4.202 0 0 0-.01.76c.017.171.036.343.112.521.039.09.08.16.135.24.057.075.115.157.235.215a.29.29 0 0 0 .103.026c.045.006.083-.009.122-.018.08-.024.111-.107.129-.174.013-.097.013-.175.015-.259l.01-.483a4 4 0 0 1 .039-.465c.022-.156.064-.282.128-.43.12-.289.254-.57.405-.839.151-.269.319-.527.505-.766.186-.233.396-.471.636-.597a.276.276 0 0 1 .15-.036.861.861 0 0 1 .15.1.6.6 0 0 1 .138.129c.02.039.027.08.016.14-.023.12-.094.257-.157.386-.07.13-.142.26-.216.39l-.446.769-.22.383-.055.094-.028.052c-.016.03-.021.051-.028.074-.021.084-.03.158-.039.234a6.835 6.835 0 0 0 .01 1.328c.01.074.02.148.038.225.01.038.019.077.036.12.007.02.019.044.033.068a.23.23 0 0 0 .092.089l.174.092-.004-.198a5.349 5.349 0 0 1 .104-1.19c.077-.381.24-.736.408-1.083a7.23 7.23 0 0 1 .584-.974c.11-.151.225-.296.35-.424.064-.064.13-.123.198-.17.066-.048.148-.08.179-.071.01.001.005 0 .024.01.015.012.034.021.047.033.028.024.05.05.067.077.035.056.046.13.042.21-.007.159-.063.326-.125.487-.13.32-.3.626-.472.921a16.44 16.44 0 0 1-.267.436.825.825 0 0 0-.12.254c-.023.093-.03.182-.034.27-.014.343.02.676-.1.937l.012.005-.006.017.164.06.006-.016.013.005c.131-.494.294-.982.51-1.408.229-.408.634-.695 1.037-.919.102-.055.206-.107.31-.154l.07-.03c.007-.006.016-.004.026.002a.646.646 0 0 1 .124.076c.151.108.072.331-.034.507a3.25 3.25 0 0 1-.38.503c-.069.08-.142.156-.213.23-.07.07-.153.163-.204.259a2.046 2.046 0 0 0-.192.592 5.573 5.573 0 0 0-.074.584c-.003.024-.003.042-.008.066v.006l-.001.015v.032c.001.022.006.03.009.047.016.056.036.1.057.146.042.09.087.174.133.257l.273.483c.36.624.677 1.198.91 1.733.117.266.213.523.278.768l.019.077.036-.057a5.165 5.165 0 0 0-.238-.722c-.219-.54-.492-1.057-.771-1.565l-.418-.76c-.065-.127-.138-.257-.175-.385a.104.104 0 0 1-.006-.04c.001-.016.006-.033.007-.052l.011-.105.024-.208c.038-.273.09-.547.205-.79.056-.124.14-.215.243-.316.099-.098.191-.202.284-.305.178-.212.361-.428.443-.714a.421.421 0 0 0-.007-.234.413.413 0 0 0-.156-.19.827.827 0 0 0-.1-.06c-.04-.013-.092-.067-.14-.028l-.108.045-.097.044c-.501.24-.987.547-1.296 1.018-.12.207-.205.415-.287.627.003-.075.007-.15.019-.22a.56.56 0 0 1 .084-.233l.153-.24c.1-.162.2-.323.292-.49.184-.33.367-.664.465-1.047a.989.989 0 0 0 .026-.31.509.509 0 0 0-.144-.318.594.594 0 0 0-.147-.109.308.308 0 0 0-.218-.015.789.789 0 0 0-.281.159c-.302.256-.516.562-.72.87-.2.31-.376.632-.529.963a5.492 5.492 0 0 0-.206.507c-.059.175-.1.352-.132.53 0-.156.003-.31.014-.463.005-.085.013-.169.025-.249a.687.687 0 0 1 .024-.107c0-.01.032-.06.05-.094l.513-.885c.17-.295.343-.581.493-.893.036-.081.07-.164.092-.258a.454.454 0 0 0-.048-.333c-.067-.102-.148-.156-.221-.213l-.11-.077a.36.36 0 0 0-.196-.06.624.624 0 0 0-.3.095c-.08.047-.15.102-.217.158-.131.115-.247.239-.354.367a6.951 6.951 0 0 0-.983 1.673l-.09.22c-.03.079-.053.162-.07.242a3.294 3.294 0 0 0-.055.48c-.008.157-.01.314-.01.468l-.004.228c0 .066-.012.172-.011.148-.002 0-.005.003-.007.001a.106.106 0 0 1-.05-.023.589.589 0 0 1-.124-.144.992.992 0 0 1-.156-.383 3.609 3.609 0 0 1-.033-.86l.008-.102v-.004l.01-.025.02-.051.077-.202.153-.4c.1-.267.2-.53.3-.79.096-.263.193-.52.265-.793.03-.137.071-.277.03-.448a.44.44 0 0 0-.141-.221 1.083 1.083 0 0 0-.198-.128c-.044-.013-.089-.03-.133-.02-.045.003-.07.02-.103.032a.821.821 0 0 0-.14.099c-.08.07-.147.147-.212.224a5.5 5.5 0 0 0-.343.48c-.21.324-.396.654-.568.983-.17.33-.329.657-.46.99-.06.17-.139.33-.141.533.004.186.037.359.07.53.095.48.21.94.314 1.384M103.007 85.154l-.25 1.212s1.805-.674 2.937.233c1.131.907.79 2.498.79 2.498s.971-.196 1.42-.905c.45-.71-.17-2.624-1.436-3.343-1.265-.72-3.46.305-3.46.305" mask="url(#h)"/>
            <path fill="#62352D" d="M105.483 83.398c-2.242 2.618-4.116 6.098-10.968 11.2-3.057 2.276-1.471 5.016-.575 5.501.575.312 3.649.524 8.43-7.006 1.863-2.932 3.84-5.554 5.407-7.414.399-.473.7-.97.927-1.457a119.04 119.04 0 0 1-3.221-.824" mask="url(#h)"/>
            <path fill="#F27930" d="M103.007 85.154s-2.864 2.093.137 4.125c2.655 1.798 4.76-1.087 4.76-1.087-5.501 2.09-4.897-3.038-4.897-3.038" mask="url(#h)"/>
            <path fill="#FFF" d="M103.126 86.743c-.426.328-.855.651-1.284.975.127.456.46.94 1.112 1.424.308-.349.62-.695.933-1.038-.411-.373-.638-.876-.761-1.36" mask="url(#h)"/>
            <path fill="#714F47" d="M102.779 88.61c.762-1.525-1.939-2.566-1.32-4.137 4.589-1.044 9.022-1.67 13.82-.105 3.75 1.327-.474 5.655.02 7.033.043.12.088.238.13.357.087 1.6-.103 3.267-.592 4.762-.315.964-.933 1.737-1.57 2.501a296.365 296.365 0 0 1-7.987 2.14c-.305-2.668-1.636-8.21-2.68-12.2l.179-.351" mask="url(#h)"/>
            <path fill="#F27930" d="M113.523 176.3c1.918-.043 10.342-3.056 10.673-4.946 1.603-9.16.843-57.519.843-57.519s-18.405-8.179-21.484-1.57c-2.296 4.93-8.153 22.031-10.878 59.79-.18 2.487 1.567 4.67 4.06 4.615l16.786-.37z" mask="url(#h)"/>
            <path fill="#714F47" d="M101.51 84.869l-.569.103c-1.579 1.523-2.97 3.642-3.553 5.743-.233.838-1.042 1.029-1.67.785a543.508 543.508 0 0 1-2.799 4.631c-.597.974-.53 2.45.238 3.297.334.368.348.37.353.375.845.914 1.9.133 2.57-.522l.168-.238c2.003-2.808 5.423-8.497 8.112-13.076a62.472 62.472 0 0 1-2.85-1.098M118.952 74.96c.644.572.493 1.886-.335 2.933-.829 1.048-2.022 1.432-2.666.86-.643-.573-.493-1.887.335-2.934.829-1.048 2.022-1.433 2.666-.86M105.843 69.367c.803.31 1.125 1.593.717 2.865-.408 1.271-1.39 2.052-2.194 1.741-.804-.31-1.125-1.593-.717-2.865.408-1.272 1.39-2.051 2.194-1.741" mask="url(#h)"/>
            <path fill="#C19371" d="M104.278 72.702c.323.103.46.51.306.907-.155.398-.543.637-.868.534-.324-.103-.461-.51-.306-.908.154-.398.543-.636.868-.533M115.966 78.216c.324.103.462.51.307.908-.155.398-.544.637-.868.534-.324-.103-.462-.51-.307-.908.155-.398.544-.637.868-.534" mask="url(#h)"/>
            <path fill="#714F47" d="M109.406 78.153c1.18.16 3.86.773 3.667 2.126l.37 5.194c-.883.447-5.09-.094-6.96-1.703l.422-3.451c.195-1.353 1.32-2.328 2.501-2.166" mask="url(#h)"/>
            <path fill="#000" d="M115.322 60.893c.821.318 1.587.776 2.25 1.374 1.469 1.324 2.322 3.184 2.682 5.237a10.972 10.972 0 0 1 .16 1.878c.001 2.193-.895 5.077-2.414 7.538-2.118-3.885-5.283-6.61-6.916-10.772-1.137 2.836-3.922 2.11-6.2 2.676a3.807 3.807 0 0 0-.611.119.5.5 0 0 0 .007-.022c1.709-4.935 6.142-9.92 11.042-8.028" mask="url(#h)"/>
            <path fill="#B5E8F7" d="M94.335 91.889l6.236-7.11c.271-.31.699-.434 1.091-.308 1.978.63 4.346 5.724 7.77 6.66.479.131 1.048.313 1.447.02 3.488-2.556 4.04-6.907 4.533-6.81 2.655.521 7.117 3.678 7.117 3.678l-2.816 6.624-2.56-2.47c1.488 3.259 1.064 12.051 1.728 12.706 2.417 2.38 7.677 10.48 7.185 11.064-2.573 3.06-25.863 5.527-25.292 1.15.435-3.33 2.104-9.33 3.11-11.66.323-.746-1.765-7.783-1.765-7.783a4.408 4.408 0 0 1-.657-2.205l-.037-1.525-1.076 3.43-6.014-5.461z" mask="url(#h)"/>
            <path fill="#F27930" d="M118.827 93.788l.886.855 2.816-6.624s-.531-.376-1.337-.89a55.502 55.502 0 0 1-2.314 6.565.602.602 0 0 1-.051.094M100.378 96.242c-1.383-2.048-3.047-4.014-5.083-5.448l-.96 1.095 6.015 5.46.28-.896a.573.573 0 0 1-.252-.211M122.467 110.44c-1.74 1.112-16.33 4.078-20.74 1.898-.242.579.055 1.23-.147 1.787 2.048 1.424 11.15 2.42 22.58-2.106-.382-.612-.8-1.255-1.234-1.898-.148.11-.3.218-.46.32" mask="url(#h)"/>
            <path fill="#000" d="M123.236 113.93c-3.316 1.784-7.253 2.273-10.953 2.569-3.564.285-7.9.72-11.074-1.27-.209.678-9.734 30.166-9.806 30.72-.57 4.376 37.607 1.8 40.18-1.261.18-.213-5.922-30.167-6.853-31.734-.461.366-.963.691-1.494.976M104.118 88.346c1.395 1.612 2.95 4.135 5.3 4.297 2.664.183 4.287-2.564 5.257-4.635.55-1.177 1.107-2.399 1.99-3.29a7.824 7.824 0 0 0-1.253-.377c-.492-.097-1.045 4.254-4.533 6.81-.4.293-.968.111-1.446-.02-3.425-.936-5.793-6.03-7.77-6.66a1.035 1.035 0 0 0-1.093.307l-.237.272c1.529.628 2.762 2.113 3.785 3.296M114.954 70.393c.88-.186 1.79-.033 2.615.367.363.175.674.416.924.811.223.354.47.791.596 1.231.003.011-.009.023-.014.012-.204-.396-.385-.72-.714-.946-.32-.22-.66-.439-1.002-.592-.735-.328-1.544-.247-2.304-.087-.384.082-.486-.714-.1-.796M111.052 68.676c-.705-.637-1.598-.995-2.53-1.089a2.083 2.083 0 0 0-1.216.214c-.369.19-.798.44-1.119.759-.008.008-.003.024.007.018.37-.239.687-.425 1.09-.446.392-.02.802-.029 1.183.022.818.108 1.51.615 2.117 1.165.31.279.777-.364.468-.643" mask="url(#h)"/>
            <path fill="#714F47" d="M129.386 96.144c-2.154-3.622-4.111-5.972-7.086-7.54-.676 1.37-1.42 3.37-2.065 4.745.849.664 4.165 2.209 4.632 6.458.537 4.885-1.598 12.002-1.874 12.775-.516 1.445.346 9.063.553 9.579.206.516 2.787.103 3.51.103.723 0 2.478-4.646 1.652-5.162-.826-.516-1.858 3.097-1.755 1.755.103-1.342-1.073-4.95-1.073-4.95s6.443-12.378 3.506-17.763" mask="url(#h)"/>
            <path fill="#000" d="M106.242 74.608c3.843 3.19 9.859 5.104 14.221 2.553.022-.014.349-1.1.37-1.112.253-.639-.033-1.353.102-2.056.386-2.004.62-3.996.552-5.73-.265-6.756-5.772-8.23-5.772-8.23-1.446-.478-2.785-.67-4.006-.498-1.47.207-1.47 1.936-1.47 1.936s-.987-1.317-1.867-.86c-2.709 1.404-5.914 4.743-7.362 7.657.436 2.664 3.154 4.616 5.232 6.34" mask="url(#h)"/>
            <path fill="#000" d="M111.168 76.552c-3.12-.974-5.484-2.586-6.804-6.01-.38 3.867.634 9.2 3.531 10.791l.18.099c2.918 1.58 7.354-2.306 9.444-5.107-1.78.606-4.579.78-6.35.227" mask="url(#h)"/>
            <path fill="#120C14" d="M73.49 84.796c.64.102 1.187.292 1.633.78.044.049.286-.045.246-.089-.457-.5-1.012-.688-1.665-.792-.062-.01-.284.09-.215.101" mask="url(#h)"/>
            <path fill="#594A42" d="M96.313 149.375l-.36 1.086c-.069.205.336.177.434.162.179-.026.534-.114.602-.32l.361-1.085c.068-.206-.336-.177-.434-.162-.18.026-.535.114-.603.32M95.932 152.251a4.432 4.432 0 0 0-.135 1.89c.048.344 1.098.106 1.044-.28a4.068 4.068 0 0 1 .134-1.743c.107-.36-.94-.217-1.043.133M95.528 157.276a4.781 4.781 0 0 0 .12 2.276c.153.51 1.197.229 1.045-.28a4.268 4.268 0 0 1-.104-2.061c.104-.548-.966-.435-1.061.065M94.696 163.638v2.17c0 .492 1.05.3 1.05-.106v-2.17c0-.492-1.05-.3-1.05.106M94.274 169.98a3.187 3.187 0 0 0 .103 1.506c.096.299 1.135.003 1.044-.28a2.93 2.93 0 0 1-.11-1.385c.052-.323-.988-.14-1.037.16M94.13 174.943c.06.18.118.362.177.544.079.244 1.117-.057 1.044-.28l-.176-.544c-.08-.244-1.117.056-1.044.28M99.901 149.19l-.308 1.278c-.073.306.964.149 1.037-.158l.308-1.278c.074-.307-.963-.149-1.037.158M98.32 154.072a6.262 6.262 0 0 0 .172 2.06c.089.347 1.135.074 1.044-.28a5.833 5.833 0 0 1-.174-1.917c.03-.405-1.017-.2-1.043.137M100.82 157.135a7.328 7.328 0 0 1-.505 2.176c-.092.23.336.26.457.248.235-.023.498-.139.59-.368.28-.701.447-1.423.505-2.176.035-.448-1.018-.256-1.046.12M97.547 162.028l-.17 1.267c-.047.347.996.155 1.038-.153l.17-1.268c.047-.346-.997-.153-1.038.154M100.832 166.26c.094.482.05.947-.133 1.403-.074.181.35.125.42.113.166-.028.535-.104.61-.292.195-.481.246-.994.147-1.505-.045-.23-1.096.012-1.044.28M96.86 167.523l.219 1.803c.053.432 1.1.184 1.045-.28l-.22-1.803c-.053-.433-1.1-.184-1.044.28M100.828 170.599c.086.525.041 1.039-.112 1.548-.075.248.313.324.474.31.25-.02.505-.154.58-.403.172-.57.199-1.148.102-1.735-.073-.448-1.12-.19-1.044.28M97.23 172.584v1.447c0 .265 1.044.087 1.044-.28v-1.447c0-.266-1.044-.088-1.044.28M101.57 175.477v.723c0 .183 1.043.031 1.043-.28v-.723c0-.184-1.044-.032-1.044.28M102.284 161.672l-.194 1.082c-.058.33.983.152 1.038-.155l.193-1.083c.06-.33-.982-.152-1.037.156M102.104 153.351l-.185.541c-.072.212.335.195.44.18.19-.026.527-.117.6-.33l.184-.54c.072-.213-.335-.196-.44-.18-.19.026-.527.117-.6.33M104.999 149.348v1.627c0 .522 1.055.348 1.055-.091v-1.627c0-.522-1.055-.35-1.055.09M107.154 153.609c.25.633.27 1.273.058 1.92-.116.354.93.22 1.044-.132a3.017 3.017 0 0 0-.058-2.068c-.142-.362-1.174-.051-1.044.28M104.462 156.417v1.266c0 .231.27.253.452.23.152-.017.592-.137.592-.358v-1.265c0-.232-.27-.254-.452-.231-.151.018-.592.138-.592.358M107.702 159.931c.09.482.046.945-.134 1.402-.074.187.349.138.425.125.17-.028.532-.107.608-.299.19-.484.24-.996.145-1.507-.045-.245-1.096-.004-1.044.28M105.035 163.204a1.972 1.972 0 0 0-.382 1.603c.072.372 1.12.115 1.045-.28-.091-.469.02-.914.312-1.29.156-.199-.132-.315-.287-.322-.249-.01-.531.089-.688.29M108.071 164.991c.063.485.02.983-.143 1.445-.19.54.85.483.99.086a3.83 3.83 0 0 0 .197-1.81c-.056-.435-1.104-.185-1.044.28M104.949 167.36c.216.683.252 1.36.112 2.062-.103.526.965.403 1.06-.074a4.537 4.537 0 0 0-.128-2.268c-.155-.489-1.198-.204-1.044.28M108.577 169.42l-.28 2.18c-.06.461.998.29 1.05-.11l.28-2.18c.058-.46-.999-.29-1.05.11M104.654 172.862a4.238 4.238 0 0 0 .141 1.9c.13.418 1.172.132 1.044-.279a3.817 3.817 0 0 1-.134-1.729c.07-.464-.99-.3-1.05.108M108.814 173.94a3.823 3.823 0 0 0 .112 1.735c.136.452 1.18.168 1.044-.28a3.36 3.36 0 0 1-.102-1.547c.082-.497-.982-.35-1.054.092M113.14 174.754v.542c0 .08.15.127.201.138.123.026.27.008.39-.025.19-.05.453-.165.453-.393v-.542c0-.08-.15-.128-.2-.139a.888.888 0 0 0-.39.025c-.191.051-.454.165-.454.394M112.518 169.397a6.406 6.406 0 0 0 .132 2.63c.126.485 1.171.208 1.045-.28a5.854 5.854 0 0 1-.118-2.428c.083-.529-.984-.396-1.06.078M111.876 165.27a1.774 1.774 0 0 0 .4 1.42c.252.302 1.254-.08.965-.424a1.384 1.384 0 0 1-.317-1.11c.066-.448-.99-.276-1.048.115M112.598 158.482v1.446c0 .18 1.044.03 1.044-.28v-1.446c0-.18-1.044-.03-1.044.28M110.97 155.047v1.085c0 .266 1.045.088 1.045-.28v-1.085c0-.266-1.044-.088-1.044.28M110.428 149.261v1.266c0 .166 1.044.02 1.044-.28v-1.265c0-.167-1.044-.02-1.044.28M115.49 149.08v1.266c0 .172 1.045.023 1.045-.28v-1.265c0-.172-1.044-.024-1.044.28M114.806 153.632a.924.924 0 0 0 .013 1.107c.213.285 1.222-.072.97-.41a.578.578 0 0 1-.01-.673c.143-.202-.123-.305-.284-.31-.235-.008-.546.084-.689.286M118.377 153.505v1.627c0 .528 1.056.36 1.056-.089v-1.627c0-.528-1.056-.359-1.056.089M115.538 160.152c-.288.568-.34 1.188-.07 1.777.157.345 1.18.017 1.043-.28-.217-.475-.245-1.015-.004-1.49.217-.426-.82-.3-.969-.007M119.72 160.433c.268.523.402 1.075.402 1.664 0 .22 1.044.056 1.044-.28 0-.588-.134-1.141-.403-1.664-.149-.29-1.153.068-1.044.28M110.414 162.058c-.26.43-.225.98.076 1.378.278.37 1.274-.034.957-.455a.703.703 0 0 1-.037-.812c.135-.223-.119-.404-.315-.427a.708.708 0 0 0-.68.316M117.487 165.869c-.237.591-.247 1.234.03 1.813.114.236.379.284.619.22.165-.044.538-.265.426-.5-.218-.452-.266-.94-.076-1.412.223-.557-.825-.554-.999-.121M118.349 172.046l.223 1.622c.06.437 1.109.185 1.045-.28l-.224-1.621c-.06-.438-1.108-.186-1.044.28M120.566 168.059l.56 1.44c.091.234 1.117-.095 1.044-.28l-.56-1.44c-.091-.235-1.116.094-1.044.28M122.516 161.198l.194 1.083c.069.381 1.118.128 1.045-.28l-.195-1.082c-.068-.382-1.117-.128-1.044.28M119.854 165.11c-.116.393-.077.808.128 1.164.187.327 1.187-.03 1.043-.28a1.273 1.273 0 0 1-.13-1.027c.097-.33-.943-.187-1.041.144M121.527 155.163c-.674.66-.839 1.61-.326 2.422.163.258 1.18-.065.974-.391-.362-.574-.318-1.42.178-1.905.417-.41-.605-.343-.826-.126M121.594 150.357l.439 1.789c.061.25 1.108-.017 1.044-.28l-.439-1.789c-.06-.25-1.108.017-1.044.28M118.726 147.639l.182.723c.084.334 1.13.063 1.044-.28l-.181-.723c-.084-.334-1.13-.062-1.045.28M123.461 147.267l.365 1.084c.097.29 1.134-.01 1.044-.28l-.365-1.083c-.097-.29-1.134.01-1.044.28M43.253 69.998c.283.246.6.433.946.577.21.088.543-.027.732-.124.122-.063.333-.216.12-.305a3.027 3.027 0 0 1-.818-.516c-.155-.135-.513-.02-.677.041-.081.031-.455.195-.303.327M46.176 71.083l.874.092c.23.024.564-.086.686-.295.13-.223-.113-.327-.293-.345l-.874-.092c-.23-.024-.564.087-.686.295-.13.223.113.326.293.345M48.837 70.88a2.203 2.203 0 0 0 1.694-.428c.18-.135.098-.325-.098-.367-.256-.055-.535.047-.738.198-.026.02-.13.055-.063.034.048-.015-.085.008-.034.007a.587.587 0 0 1-.12-.009c-.248-.042-.55.027-.74.198-.156.142-.124.329.099.366M52.256 69.69a4.677 4.677 0 0 0 1.046-.708c.147-.133.135-.27-.08-.3-.224-.031-.567.042-.74.197-.259.234-.538.43-.851.585-.132.066-.32.248-.11.34.215.097.543-.018.735-.114M54.831 67.754c.11-.311.27-.596.467-.86.152-.204-.13-.333-.292-.341-.251-.014-.533.088-.687.293a3.823 3.823 0 0 0-.536 1.026c-.081.233.328.268.46.254.23-.025.506-.137.588-.372M56.246 65.532l.466-.88c.113-.213-.099-.32-.289-.328-.214-.01-.575.078-.687.29l-.467.88c-.113.214.1.32.29.33.214.009.574-.079.687-.292M57.3 62.827c.044-.337.131-.664.252-.982.067-.175-.35-.11-.417-.099-.155.028-.544.103-.613.284a4.74 4.74 0 0 0-.267 1.076c-.016.122 1.002.037 1.044-.28M41.003 64.777c.113.238.248.452.436.638.18.18.486.152.702.053.144-.067.442-.31.259-.493a1.745 1.745 0 0 1-.353-.478c-.105-.223-.392-.246-.608-.181-.145.043-.543.235-.436.46M42.605 66.022c.446.344.98.376 1.518.297.143-.02.565-.106.615-.273.05-.166-.356-.088-.412-.08.09-.013-.069-.007-.092-.01a1.1 1.1 0 0 1-.243-.056 1.406 1.406 0 0 1-.4-.224c-.15-.115-.516.017-.67.07-.062.023-.452.172-.316.276M45.782 65.682a5.54 5.54 0 0 0 1.401-.6c.18-.107.116-.245-.07-.263-.254-.024-.524.07-.739.198a2.74 2.74 0 0 1-.692.292c-.117.032-.51.145-.472.326.037.174.487.07.572.047M48.443 64.352l.896-.77c.153-.131.291-.354.068-.498-.2-.129-.57-.078-.746.074l-.896.77c-.153.13-.29.353-.067.498.198.128.569.077.745-.074M50.527 62.186l.563-.71c.154-.194-.131-.286-.277-.288-.239-.003-.537.086-.691.28l-.563.71c-.154.195.131.286.278.288.238.004.537-.086.69-.28M51.748 60.045a2.094 2.094 0 0 1 .068-.75c.049-.175-.337-.108-.417-.094a1.598 1.598 0 0 0-.397.124c-.064.03-.195.084-.215.157a2.366 2.366 0 0 0-.083.843c.014.182 1.066-.003 1.044-.28M51.744 57.978l-.149-.48c-.074-.24-1.114.055-1.044.28l.15.48c.073.238 1.113-.056 1.043-.28" mask="url(#h)"/>
            <path fill="#F27930" d="M59.778 151.308l-.233.906c-.045.173.334.103.414.088.136-.025.273-.064.398-.123.062-.028.197-.083.216-.155l.234-.906c.044-.173-.335-.103-.415-.088a1.646 1.646 0 0 0-.398.123c-.062.029-.197.083-.216.155M59.19 154.239l-.156 1.186c-.063.477.997.312 1.051-.104l.157-1.186c.062-.477-.997-.312-1.052.104M58.425 157.792l-.14 1.188c-.06.505 1.003.35 1.054-.092l.14-1.188c.06-.505-1.002-.35-1.054.092M57.246 161.64c-.058.39-.186.748-.376 1.094-.127.233.116.437.327.468a.67.67 0 0 0 .677-.327c.223-.406.364-.847.433-1.304.083-.55-.986-.428-1.06.068M56.061 165.945l-.287 1.19c-.062.257.3.359.484.346.255-.019.512-.165.575-.424.095-.397.19-.793.287-1.19.061-.257-.3-.359-.484-.346-.255.018-.512.165-.575.424M52.243 167.493c-.148.343-.201.71-.153 1.081.024.177 1.077-.03 1.045-.28a1.839 1.839 0 0 1 .136-.994c.07-.162-.356-.09-.412-.08-.154.029-.54.1-.616.273M52.69 163.578c-.06.344-.12.689-.182 1.033-.045.26.287.368.487.354.245-.016.527-.167.573-.429l.182-1.032c.046-.26-.287-.368-.486-.354-.245.016-.527.167-.573.428M54.28 165.357l-.376 1.209c-.078.247.315.323.474.31.252-.022.502-.155.58-.404l.377-1.209c.078-.246-.315-.324-.474-.31-.252.022-.502.155-.58.404M55.32 160.062l-.196 1.35c-.037.254.993.073 1.03-.182l.197-1.35c.037-.254-.993-.073-1.03.182M52.82 160.195a3.119 3.119 0 0 0-.134 1.404c.038.304 1.09.077 1.044-.28a2.805 2.805 0 0 1 .13-1.271c.105-.31-.93-.177-1.04.147M56.375 157.003c.075.394.049.776-.088 1.154-.062.17.347.1.414.087.147-.026.55-.102.614-.277.146-.404.184-.822.104-1.244-.038-.201-1.09.037-1.044.28M54.005 156.705c.066.432.02.848-.12 1.26-.08.233.326.263.456.248.226-.025.51-.135.59-.368a2.95 2.95 0 0 0 .118-1.42c-.057-.378-1.107-.132-1.044.28M52.624 154.366c-.33.355-.483.816-.38 1.296.09.417 1.137.151 1.044-.28-.059-.275-.005-.57.19-.78.155-.168.107-.37-.116-.434-.235-.068-.57.016-.738.198M54.76 153.246a5.723 5.723 0 0 0-.148 1.824c.013.158 1.065-.021 1.044-.28a5.475 5.475 0 0 1 .131-1.739c.044-.182-.968-.05-1.027.195M56.515 153.793a1.73 1.73 0 0 0 .05 1.118c.089.224.41.21.602.157.147-.04.53-.216.442-.437a1.406 1.406 0 0 1-.045-.95c.07-.24-.316-.283-.463-.268-.226.023-.517.14-.586.38M57.887 151.556l-.157.89c-.045.257.285.386.49.366.252-.024.523-.166.57-.436l.158-.888c.046-.259-.285-.388-.49-.368-.252.024-.523.166-.57.436M55.498 151.337l-.552 1.06c-.231.445.812.34.974.029l.552-1.061c.232-.445-.812-.34-.974-.028M53.29 151.476l-.441.743c-.129.218.113.36.3.374.242.02.555-.084.686-.302l.441-.744c.129-.217-.112-.36-.3-.374-.242-.02-.556.083-.685.303M45.999 151.955c.031.372-.03.743-.15 1.095-.083.245.32.32.473.306.255-.022.497-.154.581-.402.143-.42.178-.838.14-1.279-.02-.248-.452-.231-.61-.189-.223.06-.456.215-.434.469M44.656 157.505l-.4 1.496c-.117.437.943.298 1.051-.106l.4-1.496c.117-.438-.943-.298-1.05.106M42.57 163.01l-.222 1.2c-.07.376.98.202 1.042-.138l.222-1.201c.069-.376-.98-.201-1.042.14M41.679 167.28l-.234 1.053c-.058.261.295.375.488.363.26-.017.514-.17.573-.433l.233-1.053c.058-.261-.294-.375-.488-.363-.26.017-.514.17-.572.433M44.543 160.963c-.1.247-.198.495-.297.742-.218.544.83.517.994.104l.297-.742c.217-.544-.83-.517-.994-.104M45.845 155.073c.06.313 0 .642-.2.896-.146.189-.1.417.134.5.234.084.583.003.74-.197.335-.43.474-.94.37-1.48-.093-.476-1.14-.21-1.044.28M43.034 151.806v1.187c0 .235 1.044.067 1.044-.28v-1.187c0-.235-1.044-.067-1.044.28M43.023 155.519c.073.3.036.582-.116.85-.089.16.369.096.414.087.176-.032.515-.1.614-.276.162-.288.21-.62.132-.941-.05-.21-1.099.054-1.044.28M41.53 158.683a3.571 3.571 0 0 0-.121 1.58c.06.443 1.109.19 1.044-.28a3.158 3.158 0 0 1 .13-1.395c.079-.246-.315-.321-.473-.307-.25.021-.502.153-.58.402M40.1 163.23a1.724 1.724 0 0 0-.178 1.04c.03.217.46.153.59.118.168-.045.486-.174.454-.398a1.285 1.285 0 0 1 .105-.741c.218-.442-.82-.322-.97-.018M43.346 165.565c-.259.383-.416.827-.457 1.287-.044.496 1.015.329 1.053-.098a2.27 2.27 0 0 1 .393-1.106c.145-.213-.125-.373-.305-.39a.753.753 0 0 0-.684.307M38.893 168.054c-.09.38-.058.774.103 1.13.097.214.406.19.597.14.13-.034.541-.211.447-.42a1.463 1.463 0 0 1-.1-.97c.096-.412-.96-.258-1.047.12M37.691 165.458v.89c0 .267 1.044.089 1.044-.28v-.89c0-.265-1.044-.087-1.044.28M38.662 160.599l-.215 1.201c-.093.52.974.39 1.058-.08l.215-1.201c.093-.52-.975-.389-1.058.08M38.76 156.514a1.752 1.752 0 0 0-.06 1.54c.106.233.386.261.613.2.16-.042.536-.249.43-.48-.174-.383-.186-.78.01-1.157.119-.227-.106-.394-.312-.416-.244-.027-.562.083-.681.313M40.68 155.899l-.181 1.033c-.062.35.982.173 1.039-.149l.182-1.033c.062-.351-.983-.173-1.04.149M38.883 152.742a5.297 5.297 0 0 0 .112 1.892c.122.502 1.167.226 1.045-.28a4.658 4.658 0 0 1-.097-1.683c.067-.55-1-.421-1.06.071M40.527 150.717c-.176.451-.23.906-.158 1.385.037.253.436.257.615.21.223-.06.467-.233.429-.49a1.952 1.952 0 0 1 .11-.994c.215-.552-.832-.534-.996-.111" mask="url(#h)"/>
        </g>
        <path fill="url(#i)" d="M0 139h169v61H0z"/>
    </g>
</svg>
