<svg xmlns="http://www.w3.org/2000/svg" xmlns:xlink="http://www.w3.org/1999/xlink" width="1007" height="266" viewBox="0 0 1007 266">
    <defs>
        <radialGradient id="a" cx="48.663%" cy="69.164%" r="77.754%" fx="48.663%" fy="69.164%" gradientTransform="scale(.50088 1) rotate(87.68 .73 .944)">
            <stop offset="0%" stop-color="#F7EDA9"/>
            <stop offset="100%" stop-color="#D8D8D8" stop-opacity="0"/>
        </radialGradient>
        <path id="b" d="M0 .063h64.99v47.934H0z"/>
        <path id="d" d="M0 158h344V0H0z"/>
        <path id="f" d="M0 .24h401.826v52.643H0z"/>
        <path id="h" d="M.051.075h48.043v14.868H.05z"/>
        <path id="j" d="M.012.394h76.019v148.772H.012z"/>
        <path id="l" d="M.398.03h111.449V42.14H.397z"/>
        <path id="n" d="M.078.21h111.449v41.353H.078z"/>
        <path id="p" d="M.575.193h137.686v78.973H.575z"/>
        <path id="r" d="M.112.409h134.921v75.286H.113z"/>
    </defs>
    <g fill="none" fill-rule="evenodd">
        <path fill="url(#a)" d="M488.426 308.961C670.81 311.192 762 311.592 762 310.161 762 153.776 635.073 27 478.5 27 321.927 27 195 153.776 195 310.161c0-1.995 97.809-2.395 293.426-1.2z"/>
        <g opacity=".396" transform="translate(0 129)">
            <path fill="#B5E8F7" d="M203.5 43.5h-3.55c0-1.512-1.125-2.75-2.5-2.75h-5.593c0-1.512-1.125-2.75-2.5-2.75h-8.877c-1.374 0-2.5 1.238-2.5 2.75h-1.362c-1.374 0-2.5 1.238-2.5 2.75H171.5c-1.374 0-2.499 1.238-2.499 2.75s1.125 2.75 2.5 2.75h32c1.375 0 2.5-1.238 2.5-2.75s-1.125-2.75-2.5-2.75"/>
            <g transform="translate(0 111)">
                <mask id="c" fill="#fff">
                    <use xlink:href="#b"/>
                </mask>
                <path fill="#000" d="M64.99.063H31.366v31.15h-11.57V20.983H0V47.997h64.99z" mask="url(#c)"/>
            </g>
            <mask id="e" fill="#fff">
                <use xlink:href="#d"/>
            </mask>
            <path fill="#595959" d="M33 114h30v-2H33zM33 117h30v-2H33zM33 120h30v-2H33zM33 123h30v-2H33zM33 126h30v-2H33zM33 130h30v-2H33z" mask="url(#e)"/>
            <path fill="#595959" d="M33 131h30v-2H33zM33 136h30v-2H33zM1 138h3v-3H1zM7 138h3v-3H7zM12 138h3v-3h-3z" mask="url(#e)"/>
            <path fill="#595959" d="M14 138h3v-3h-3z" mask="url(#e)"/>
            <path fill="#000" d="M134 158h15v-46h-15zM217 158h34V60h-34z" mask="url(#e)"/>
            <path fill="#595959" d="M222 66h7v-3h-7zM222 72h7v-3h-7zM222 75h7v-3h-7zM222 80h7v-3h-7zM222 84h7v-3h-7zM222 89h7v-3h-7zM222 94h7v-3h-7zM222 98h7v-3h-7zM222 104h7v-3h-7zM222 107h7v-3h-7zM222 111h7v-3h-7zM222 115h7v-3h-7zM222 120h7v-3h-7zM222 126h7v-3h-7z" mask="url(#e)"/>
            <path fill="#595959" d="M228 66h7v-3h-7zM228 72h7v-3h-7zM228 75h7v-3h-7zM228 80h7v-3h-7zM228 84h7v-3h-7zM228 89h7v-3h-7zM228 94h7v-3h-7zM228 98h7v-3h-7zM228 104h7v-3h-7zM228 107h7v-3h-7zM228 111h7v-3h-7zM228 115h7v-3h-7zM228 120h7v-3h-7zM228 126h7v-3h-7zM235 66h7v-3h-7zM235 72h7v-3h-7zM235 75h7v-3h-7zM235 80h7v-3h-7zM235 84h7v-3h-7zM235 89h7v-3h-7zM235 94h7v-3h-7zM235 98h7v-3h-7zM235 104h7v-3h-7zM235 107h7v-3h-7zM235 111h7v-3h-7zM235 115h7v-3h-7zM235 120h7v-3h-7zM235 126h7v-3h-7zM242 66h7v-3h-7zM242 72h7v-3h-7zM242 75h7v-3h-7zM242 80h7v-3h-7zM242 84h7v-3h-7zM242 89h7v-3h-7zM242 94h7v-3h-7zM242 98h7v-3h-7zM242 104h7v-3h-7zM242 107h7v-3h-7zM242 111h7v-3h-7zM242 115h7v-3h-7zM242 120h7v-3h-7zM242 126h7v-3h-7zM222 129h7v-3h-7zM222 134h7v-3h-7z" mask="url(#e)"/>
            <path fill="#595959" d="M228 129h7v-3h-7zM228 134h7v-3h-7zM235 129h7v-3h-7zM235 134h7v-3h-7zM242 129h7v-3h-7zM242 134h7v-3h-7zM222 139h7v-3h-7z" mask="url(#e)"/>
            <path fill="#595959" d="M228 139h7v-3h-7zM235 139h7v-3h-7zM242 139h7v-3h-7z" mask="url(#e)"/>
            <path fill="#0A6E31" d="M332 148c1.67 0 3.329-.609 4.406-1.586.408.305.936.49 1.514.49 1.293 0 2.34-.92 2.34-2.058 0-.02-.003-.041-.004-.062 2.193-.764 3.744-2.645 3.744-4.846 0-.965-.3-1.867-.818-2.643.519-.775.818-1.677.818-2.642 0-2.208-1.562-4.094-3.765-4.854.016-.117.025-.237.025-.358 0-1.643-1.514-2.975-3.382-2.975-.055 0-.111 0-.166.003-.972-1.476-2.634-2.469-4.712-2.469v24z" mask="url(#e)"/>
            <path fill="#482E26" d="M332 137.708V158h2.944l-.773-12.314 3.411-3.138L341 140.8l-.25-.524-3.111 1.032.464-2.912-.756-.017-.847 3.098-2.806 2.238-.377-5.984 1.586-3.287-.653-.443z" mask="url(#e)"/>
            <path fill="#50BE87" d="M19 158c0-7.425 4.295-31.83 9.593-31.83 3.63 0 6.79 8.69 8.419 20.473 1.416-8.213 3.574-16.439 5.993-16.439 1.915 0 3.666 5.163 5.016 11.389C49.951 127.916 53.596 111 57.778 111 63.976 111 69 149.314 69 158H19z" mask="url(#e)"/>
            <path fill="#0A6E31" d="M34.748 129.61a6.771 6.771 0 0 0-2-3.886c.128-.195.23-.412.297-.65.352-1.24-.34-2.537-1.545-2.898a2.228 2.228 0 0 0-.282-.063c-.013-3.082-1.978-5.917-5.003-6.825-3.685-1.106-7.544 1.069-8.62 4.856a7.309 7.309 0 0 0-.226 2.878 4.142 4.142 0 0 0-3.027 2.926 4.302 4.302 0 0 0 .165 2.832A7.205 7.205 0 0 0 12 134.271c0 3.946 3.112 7.145 6.95 7.145.978 0 1.908-.208 2.751-.583.7 1.292 2.04 2.167 3.58 2.167 1.555 0 2.907-.89 3.601-2.202a6.15 6.15 0 0 0 1.805.27c3.486 0 6.313-2.905 6.313-6.49a6.547 6.547 0 0 0-2.252-4.967" mask="url(#e)"/>
            <path fill="#482E26" d="M24.04 141.53L23.883 158h3.31l-.203-16.482a1.049 1.049 0 0 1 .28-.801l3.54-3.999L35 134.407l-.24-.59-3.948 1.541 1.798-5.256-.592-.283-2.827 5.993-2.5 1.956c-.152.127-.38.03-.403-.17L25.201 128h-1.214v9.308c0 .206-.22.328-.386.214l-2.877-2.061-1.357-4.344-.533.265.702 3.898-3.314-.986-.222.66 3.711 1.776 3.982 4.01c.222.197.35.486.346.79" mask="url(#e)"/>
            <path fill="#000" d="M135.421 77.496h4.948l1.272 5.935-6.22-5.935zm-.402-1.814l4.11-3.972 1.106 5.158h-5.47l.254-1.186zm3.3-4.08l-3.059 2.956.634-2.957h2.426zm.65-.628h-2.94l1.471-6.87 1.471 6.868-.002.002zm4.024 15.649L137.9 62.848a.6.6 0 0 0 .24-.474.615.615 0 0 0-.393-.564v-1.383c.3-.1.52-.371.52-.692 0-.404-.345-.735-.766-.735-.421 0-.766.33-.766.735 0 .32.22.593.52.692v1.383a.615.615 0 0 0-.393.564.6.6 0 0 0 .24.474l-5.094 23.775a.315.315 0 0 0 .255.37.328.328 0 0 0 .386-.244l1.96-9.144 7.272 6.94.472 2.204c.036.17.21.28.387.245a.315.315 0 0 0 .254-.371z" mask="url(#e)"/>
            <path fill="#FFF" d="M63 158h78V92H63z" mask="url(#e)"/>
            <path fill="#D6D6D6" d="M74 126h65V98H74z" mask="url(#e)"/>
            <path fill="#595959" d="M74 125h64v-25H74z" mask="url(#e)"/>
            <path fill="#8F8F8F" d="M74 158h65v-31H74z" mask="url(#e)"/>
            <path fill="#595959" d="M74 127h65v-1H74zM74 130h65v-1H74zM74 131h65v-1H74zM74 135h65v-1H74zM74 137h65v-1H74zM89 90h54v-3H89z" mask="url(#e)"/>
            <path fill="#000" d="M89 87h54v-2H89z" mask="url(#e)"/>
            <path fill="#8F8F8F" d="M63 158h2V92h-2z" mask="url(#e)"/>
            <path fill="#000" d="M63 94h78v-3H63zM74 158h17v-24H74z" mask="url(#e)"/>
            <path fill="#595959" d="M75 81.03l5.34-4.825a.864.864 0 1 1 .456.455L75.97 82l-.97-.97z" mask="url(#e)"/>
            <path fill="#D6D6D6" d="M72.6 88.803l2.9-5.219c.582.31 1.193.553 1.822.729l1.028 1.849-5.75 2.64zM71 90h.934v-.002l6.81-3.127L80.485 90h.934l-3.035-5.458c2.686.421 5.544-.32 7.617-2.227L73.706 71c-3.395 3.125-3.395 8.19 0 11.315.344.317.71.6 1.093.852L71 90z" mask="url(#e)"/>
            <path fill="#0A6E31" d="M125.972 137.632a2.192 2.192 0 0 0 .814-1.707 2.19 2.19 0 0 0-2.184-2.194l-.048.003a1.562 1.562 0 0 0-1.364-1.373 3.338 3.338 0 0 0-3.187-2.361 3.33 3.33 0 0 0-2.896 1.688 1.759 1.759 0 0 0-1.744 2.534c-.027 0-.053-.003-.08-.003a1.848 1.848 0 0 0-1.844 1.851c0 .578.264 1.093.677 1.433l-.002.016a2.798 2.798 0 0 0-1.114 2.238 2.792 2.792 0 0 0 3.258 2.758 2.497 2.497 0 0 0 2.491 2.485c.598 0 1.147-.212 1.577-.565.328.305.766.494 1.248.494.977 0 1.773-.765 1.834-1.73a3.22 3.22 0 0 0 3.592-3.203c0-.934-.396-1.775-1.028-2.364M77.44 131.208c.184-.28.292-.61.292-.967 0-.983-.812-1.781-1.822-1.804-.015-2.025-1.046-3.815-2.622-4.919-.336-2.548-2.58-4.518-5.3-4.518-2.902 0-5.261 2.24-5.342 5.032-.91.12-1.613.873-1.613 1.788 0 .169.026.331.07.486-.914.572-1.52 1.567-1.52 2.7 0 .138.01.273.027.406-1.524.55-2.61 1.973-2.61 3.64 0 1.589.984 2.953 2.392 3.555.451 1.668 2.016 2.898 3.879 2.898a4.13 4.13 0 0 0 1.115-.154c.26.737.978 1.267 1.826 1.267.403 0 .778-.12 1.087-.324a4.04 4.04 0 0 0 2.292.706c1.845 0 3.396-1.219 3.842-2.87.442.155.919.24 1.416.24 2.293 0 4.151-1.8 4.151-4.022 0-1.27-.61-2.403-1.56-3.14" mask="url(#e)"/>
            <path fill="#714E46" d="M67.15 158l.35-15.219-3.48-5.874L60 134.04l.472-.244 3.46 2.053-1.147-4.611h.571l1.485 5.156 2.802 4.025-.077-4.994-1.456-5.946h.486l1.38 4.675L69.903 129l.436.326-1.994 5.975.451 5.147 2.544-5.116.745-4.134.384.198-.396 3.805 2.766-.91.161.494-3.127 1.305-2.754 6.684.587 15.226z" mask="url(#e)"/>
            <path fill="#8F8F8F" d="M99 86h9v-9h-9z" mask="url(#e)"/>
            <path fill="#D6D6D6" d="M108 78.5a4.5 4.5 0 1 1-9 0 4.5 4.5 0 0 1 9 0" mask="url(#e)"/>
            <path fill="#595959" d="M108 78.5a4.5 4.5 0 1 1-9 0 4.5 4.5 0 0 1 9 0" mask="url(#e)"/>
            <path fill="#D6D6D6" d="M107.88 85h-8.76c-.066 0-.12-.225-.12-.5s.054-.5.12-.5h8.76c.066 0 .12.225.12.5s-.054.5-.12.5" mask="url(#e)"/>
            <path fill="#000" d="M106 78a4 4 0 1 1-8 0 4 4 0 0 1 8 0" mask="url(#e)"/>
            <path fill="#8F8F8F" d="M111 86h9v-9h-9z" mask="url(#e)"/>
            <path fill="#D6D6D6" d="M120 78.5a4.5 4.5 0 1 1-9 0 4.5 4.5 0 0 1 9 0" mask="url(#e)"/>
            <path fill="#595959" d="M121 78.5a4.5 4.5 0 1 1-9 0 4.5 4.5 0 0 1 9 0" mask="url(#e)"/>
            <path fill="#D6D6D6" d="M119.88 85h-8.76c-.066 0-.12-.225-.12-.5s.054-.5.12-.5h8.76c.066 0 .12.225.12.5s-.054.5-.12.5" mask="url(#e)"/>
            <path fill="#000" d="M120 78a4 4 0 1 1-8 0 4 4 0 0 1 8 0M298.5 15c-.275 0-.5-.086-.5-.191V.19c0-.105.225-.191.5-.191s.5.086.5.191V14.81c0 .105-.225.191-.5.191M290 81h19V29h-19z" mask="url(#e)"/>
            <path fill="#000" d="M292 29h12V15h-12z" mask="url(#e)"/>
            <path fill="#595959" d="M298 9l6 9h-12zM294 19h9v-1h-9z" mask="url(#e)"/>
            <path fill="#595959" d="M294 19h9v-1h-9zM294 23h9v-1h-9zM294 25h9v-1h-9zM294 28h9v-1h-9zM292 35h3v-3h-3zM292 84h3V37h-3zM297 35h3v-3h-3zM297 84h3V37h-3zM302 35h3v-3h-3zM302 84h3V37h-3zM301 123h24V94h-24z" mask="url(#e)"/>
            <path fill="#B5E8F7" d="M325 94h-24V82h16.467z" mask="url(#e)"/>
            <path fill="#8F8F8F" d="M319.156 82H302v1h18z" mask="url(#e)"/>
            <path fill="#D6D6D6" d="M302 123h8V94h-8zM310 123h8V94h-8zM318 123h8V94h-8z" mask="url(#e)"/>
            <path fill="#8F8F8F" d="M302 99h22v-1h-22zM302 95h22v-1h-22zM302 105h22v-1h-22zM302 111h22v-1h-22zM302 116h22v-1h-22z" mask="url(#e)"/>
            <path fill="#FFB400" d="M282 46h18v-9h-18z" mask="url(#e)"/>
            <path fill="#D9C2F0" d="M264 158h37V47h-37z" mask="url(#e)"/>
            <path fill="#FF7900" d="M301 46h-37v-9h18.5z" mask="url(#e)"/>
            <path fill="#FFB400" d="M265 46h18v-9z" mask="url(#e)"/>
            <path fill="#FF7900" d="M272 138l9.01-4.875c.308-.167.672-.167.98 0L291 138h-19z" mask="url(#e)"/>
            <path fill="#D9C2F0" d="M285.362 31L291 39h-19l5.638-8z" mask="url(#e)"/>
            <path fill="#8F8F8F" d="M264 47h37v-2h-37z" mask="url(#e)"/>
            <path fill="#000" d="M264 47h37v-2h-37z" mask="url(#e)"/>
            <path fill="#FFF" d="M301 158h32v-39h-32z" mask="url(#e)"/>
            <path fill="#000" d="M301 120h32v-1h-32zM304 135h8v-11h-8z" mask="url(#e)"/>
            <path fill="#595959" d="M303 128h3v-3h-3zM308 128h3v-3h-3zM303 132h3v-3h-3zM308 132h3v-3h-3z" mask="url(#e)"/>
            <path fill="#000" d="M312 135h8v-11h-8z" mask="url(#e)"/>
            <path fill="#595959" d="M313 128h3v-3h-3zM318 128h3v-3h-3zM313 132h3v-3h-3zM318 132h3v-3h-3z" mask="url(#e)"/>
            <path fill="#000" d="M325 135h8v-11h-8z" mask="url(#e)"/>
            <path fill="#595959" d="M324 128h3v-3h-3z" mask="url(#e)"/>
            <path fill="#595959" d="M326 128h3v-3h-3zM324 132h3v-3h-3z" mask="url(#e)"/>
            <path fill="#595959" d="M326 132h3v-3h-3z" mask="url(#e)"/>
            <path fill="#8F8F8F" d="M303 135h9v-1h-9zM313 135h9v-1h-9zM323 135h9v-1h-9z" mask="url(#e)"/>
            <path fill="#FF7900" d="M216 158h47V90h-47z" mask="url(#e)"/>
            <path fill="#8F8F8F" d="M245 90h19v-9h-19z" mask="url(#e)"/>
            <path fill="#FFD200" d="M242.91 89H242v-1.764c0-.683.461-1.236 1.03-1.236H245v1.09h-1.818c-.15 0-.273.147-.273.327V89z" mask="url(#e)"/>
            <path fill="#FFB400" d="M239.52 91H238v-5.068c0-1.067.772-1.932 1.723-1.932H246v1.704h-6.024c-.251 0-.456.23-.456.512V91z" mask="url(#e)"/>
            <path fill="#FFD200" d="M245.452 89H246v-2h-.548c-.25 0-.452.338-.452.755v.49c0 .417.202.755.452.755" mask="url(#e)"/>
            <path fill="#FFD200" d="M245.322 89h.356c.177 0 .322-.225.322-.5s-.145-.5-.322-.5h-.356c-.177 0-.322.225-.322.5s.145.5.322.5" mask="url(#e)"/>
            <path fill="#FF7900" d="M245 89c-.041 0-.075-.037-.075-.083v-1.834c0-.046.034-.083.075-.083.041 0 .075.037.075.083v1.834c0 .046-.034.083-.075.083" mask="url(#e)"/>
            <path fill="#595959" d="M247 88h7v-7h-7z" mask="url(#e)"/>
            <path fill="#000" d="M246 82.042h7v-.084h-7z" mask="url(#e)"/>
            <path fill="#000" d="M246 82.042h7v-.084h-7z" mask="url(#e)"/>
            <path fill="#000" d="M246 82.042h7v-.084h-7z" mask="url(#e)"/>
            <path fill="#000" d="M246 82.042h7v-.084h-7z" mask="url(#e)"/>
            <path fill="#000" d="M246 82.042h7v-.084h-7z" mask="url(#e)"/>
            <path fill="#000" d="M246 82.042h7v-.084h-7zM246 84.042h7v-.084h-7z" mask="url(#e)"/>
            <path fill="#000" d="M246 84.042h7v-.084h-7z" mask="url(#e)"/>
            <path fill="#000" d="M246 84.042h7v-.084h-7z" mask="url(#e)"/>
            <path fill="#000" d="M246 84.042h7v-.084h-7z" mask="url(#e)"/>
            <path fill="#000" d="M246 84.042h7v-.084h-7z" mask="url(#e)"/>
            <path fill="#000" d="M246 84.042h7v-.084h-7z" mask="url(#e)"/>
            <path fill="#000" d="M246 84.042h7v-.084h-7z" mask="url(#e)"/>
            <path fill="#000" d="M246 84.042h7v-.084h-7z" mask="url(#e)"/>
            <path fill="#000" d="M246 84.042h7v-.084h-7z" mask="url(#e)"/>
            <path fill="#000" d="M246 84.042h7v-.084h-7z" mask="url(#e)"/>
            <path fill="#000" d="M246 84.042h7v-.084h-7z" mask="url(#e)"/>
            <path fill="#000" d="M246 84.042h7v-.084h-7z" mask="url(#e)"/>
            <path fill="#000" d="M246 84.042h7v-.084h-7zM246 86.042h7v-.084h-7z" mask="url(#e)"/>
            <path fill="#000" d="M246 86.042h7v-.084h-7zM246 87.042h7v-.084h-7z" mask="url(#e)"/>
            <path fill="#000" d="M246 87.042h7v-.084h-7z" mask="url(#e)"/>
            <path fill="#000" d="M246 87.042h7v-.084h-7z" mask="url(#e)"/>
            <path fill="#000" d="M246 87.042h7v-.084h-7z" mask="url(#e)"/>
            <path fill="#000" d="M246 87.042h7v-.084h-7z" mask="url(#e)"/>
            <path fill="#000" d="M246 87.042h7v-.084h-7z" mask="url(#e)"/>
            <path fill="#000" d="M246 87.042h7v-.084h-7z" mask="url(#e)"/>
            <path fill="#8F8F8F" d="M247.052 82a.052.052 0 1 1-.104 0 .052.052 0 0 1 .104 0M247.052 87a.052.052 0 1 1-.104 0 .052.052 0 0 1 .104 0M252.052 82a.052.052 0 1 1-.104 0 .052.052 0 0 1 .104 0M252.052 87a.052.052 0 1 1-.104 0 .052.052 0 0 1 .104 0" mask="url(#e)"/>
            <path fill="#595959" d="M254 88h7v-7h-7z" mask="url(#e)"/>
            <path fill="#8F8F8F" d="M255.052 82a.052.052 0 1 1-.104 0 .052.052 0 0 1 .104 0M255.052 87a.052.052 0 1 1-.104 0 .052.052 0 0 1 .104 0M261.052 82a.052.052 0 1 1-.104 0 .052.052 0 0 1 .104 0M261.052 87a.052.052 0 1 1-.104 0 .052.052 0 0 1 .104 0M259 84.5a1.5 1.5 0 1 1-3 0 1.5 1.5 0 0 1 3 0" mask="url(#e)"/>
            <path fill="#000" d="M259 84.5a1.5 1.5 0 1 1-3 0 1.5 1.5 0 0 1 3 0" mask="url(#e)"/>
            <path fill="#8F8F8F" d="M257 84.5a.5.5 0 1 1-1 0 .5.5 0 0 1 1 0" mask="url(#e)"/>
            <path fill="#8F8F8F" d="M256 84.091h3v-.182h-3z" mask="url(#e)"/>
            <path fill="#8F8F8F" d="M256.909 86h.182v-3h-.182zM261 81h2v-2h-2z" mask="url(#e)"/>
            <path fill="#595959" d="M261 80h3v-1h-3z" mask="url(#e)"/>
            <path fill="#8F8F8F" d="M264 80h-3l.708-1h1.584zM257 81h2v-2h-2z" mask="url(#e)"/>
            <path fill="#595959" d="M257 80h3v-1h-3z" mask="url(#e)"/>
            <path fill="#8F8F8F" d="M260 80h-3l.708-1h1.584z" mask="url(#e)"/>
            <path fill="#FFD200" d="M216 92h47v-2h-47z" mask="url(#e)"/>
            <path fill="#000" d="M223 136h34v-2h-34z" mask="url(#e)"/>
            <path fill="#D6D6D6" d="M234.996 80v9.048H217V90h19V80z" mask="url(#e)"/>
            <path fill="#D6D6D6" d="M217 88l3.91-9H236l-3.91 9z" mask="url(#e)"/>
            <path fill="#FFF" d="M238 80h-15.014l-.172.43-3.422 8.587L219 90h15.014l.172-.43 3.422-8.587L238 80zm-1 .706l-3.423 8.588H220l3.423-8.588H237z" mask="url(#e)"/>
            <path fill="#000" d="M225.959 83H224l1.042-3H227z" mask="url(#e)"/>
            <path fill="#000" d="M226.959 83H225l1.042-3H228zM232.959 83H231l1.042-3H234zM223.959 88H222l1.042-3H225zM225.959 88H224l1.041-3H227zM230.958 88H229l1.041-3H232z" mask="url(#e)"/>
            <path fill="#000" d="M233.959 83H232l1.041-3H235zM233.959 88H232l1.041-3H235z" mask="url(#e)"/>
            <path fill="#D6D6D6" d="M249 81V66.703c0-.387.45-.703 1-.703s1 .316 1 .703V81h-2z" mask="url(#e)"/>
            <path fill="#595959" d="M249.885 66.819a.5.5 0 1 1-.77-.638.5.5 0 0 1 .77.638" mask="url(#e)"/>
            <path fill="#D6D6D6" d="M246.728 70.853c2.3-2.645 2.948-3.003 3.196-2.808.247.194-.002.868-2.302 3.513 0 0-4.364 4.63-4.61 4.436-.248-.195 3.716-5.141 3.716-5.141" mask="url(#e)"/>
            <path fill="#8F8F8F" d="M243.011 76c-.25-.195 3.758-5.145 3.758-5.145 2.325-2.647 2.981-3.005 3.231-2.81L243.011 76z" mask="url(#e)"/>
            <path fill="#D6D6D6" d="M253.498 66.452c-2.993-.56-3.54-.907-3.496-1.2.046-.294.666-.423 3.66.137 0 0 5.383 1.25 5.338 1.545-.045.293-5.502-.482-5.502-.482" mask="url(#e)"/>
            <path fill="#8F8F8F" d="M259 68.924c-.045.336-5.502-.55-5.502-.55-2.993-.641-3.54-1.038-3.496-1.374L259 68.924zM247.33 63.594c.949 2.99 1.318 3.493 1.545 3.395.228-.1.227-.763-.722-3.753 0 0-1.903-5.333-2.13-5.235-.227.1 1.307 5.593 1.307 5.593" mask="url(#e)"/>
            <path fill="#D6D6D6" d="M246.024 58c-.237.099 1.363 5.594 1.363 5.594.99 2.99 1.376 3.494 1.613 3.395L246.024 58z" mask="url(#e)"/>
            <path fill="#FFF" d="M249.885 66.819a.5.5 0 1 1-.77-.638.5.5 0 0 1 .77.638M224 158h32v-23h-32z" mask="url(#e)"/>
            <path fill="#000" d="M224 158h1v-23h-1zM256 158h1v-23h-1z" mask="url(#e)"/>
            <path fill="#FFD200" d="M242 123.656V122h-7v7h7v-1.656h-5.344v-3.688z" mask="url(#e)"/>
            <path fill="#FFD200" d="M243.344 124H238v1.656h5.344v3.688H238V131h7v-7z" mask="url(#e)"/>
            <path fill="#FFF6B6" d="M142 87h8V72h-8z" mask="url(#e)"/>
            <path fill="#FFB400" d="M149.757 73h-7.515c-.133 0-.242-.225-.242-.5s.11-.5.242-.5h7.515c.134 0 .243.225.243.5s-.11.5-.243.5" mask="url(#e)"/>
            <path fill="#FFF6B6" d="M206 87h8V72h-8z" mask="url(#e)"/>
            <path fill="#FFB400" d="M213.757 73h-7.515c-.133 0-.242-.225-.242-.5s.11-.5.242-.5h7.515c.134 0 .243.225.243.5s-.11.5-.243.5" mask="url(#e)"/>
            <path fill="#D6D6D6" d="M142 158h75V97h-75z" mask="url(#e)"/>
            <path fill="#4BB4E6" d="M151 138h12v-3h-12z" mask="url(#e)"/>
            <path fill="#FFF" d="M151 139h11v-3h-11z" mask="url(#e)"/>
            <path fill="#595959" d="M215.76 86.5L208.316 76h-57.632l-7.444 10.5L141 97h77z" mask="url(#e)"/>
            <path fill="#000" d="M214 86l-7.39-11h-57.22L142 86z" mask="url(#e)"/>
            <path fill="#FF7900" d="M188 158h-19v-24.16l8.754-5.625a1.33 1.33 0 0 1 1.447-.002L188 133.84V158z" mask="url(#e)"/>
            <path fill="#B5E8F7" d="M170 158h15v-22h-15z" mask="url(#e)"/>
            <path fill="#8F8F8F" d="M169 131l8.754-6.743a1.149 1.149 0 0 1 1.448-.001L188 131h-19z" mask="url(#e)"/>
            <path fill="#000" d="M169 134h22v-2h-22z" mask="url(#e)"/>
            <path fill="#8F8F8F" d="M142 98h75v-1h-75z" mask="url(#e)"/>
            <path fill="#000" d="M196 148h11v-15h-11z" mask="url(#e)"/>
            <path fill="#FFF" d="M197 147h9v-13h-9z" mask="url(#e)"/>
            <path fill="#B5E8F7" d="M197 141h3v-7h-3zM202 141h3v-7h-3z" mask="url(#e)"/>
            <path fill="#D6D6D6" d="M180 128.5a1.5 1.5 0 1 1-3 0 1.5 1.5 0 0 1 3 0" mask="url(#e)"/>
            <path fill="#8F8F8F" d="M180 128.5a1.5 1.5 0 1 1-3 0 1.5 1.5 0 0 1 3 0" mask="url(#e)"/>
            <path fill="#D6D6D6" d="M181 128.5a1.5 1.5 0 1 1-3 0 1.5 1.5 0 0 1 3 0" mask="url(#e)"/>
            <path fill="#595959" d="M179.087 130.487c.051 0 .1-.006.147-.018a.306.306 0 0 0 .21-.183.505.505 0 0 0 .031-.193c0-.155-.035-.264-.104-.33a.383.383 0 0 0-.274-.1h-.572v.824h.562zm-.03-1.272c.094 0 .17-.028.23-.085.061-.056.091-.147.091-.273 0-.07-.01-.127-.03-.172a.263.263 0 0 0-.196-.157.607.607 0 0 0-.135-.015h-.492v.702h.532zm.067-1.215c.114 0 .217.013.31.038a.613.613 0 0 1 .242.124.563.563 0 0 1 .155.229.984.984 0 0 1 .055.353.786.786 0 0 1-.082.378.649.649 0 0 1-.242.248.59.59 0 0 1 .33.279.995.995 0 0 1 .108.481c0 .152-.023.282-.07.393a.739.739 0 0 1-.46.427.995.995 0 0 1-.313.05H178v-3h1.124z" mask="url(#e)"/>
            <path fill="#8F8F8F" d="M157 95h11V80h-11z" mask="url(#e)"/>
            <path fill="#FFF" d="M159 94h9V81h-9z" mask="url(#e)"/>
            <path fill="#D6D6D6" d="M157 80l5.5-3 5.5 3z" mask="url(#e)"/>
            <path fill="#595959" d="M157 80h11v-1h-11z" mask="url(#e)"/>
            <path fill="#B5E8F7" d="M159 87h3v-7h-3zM162 87h3v-7h-3zM159 94h3v-7h-3zM162 94h3v-7h-3z" mask="url(#e)"/>
            <path fill="#8F8F8F" d="M191 95h11V80h-11z" mask="url(#e)"/>
            <path fill="#FFF" d="M192 94h9V81h-9z" mask="url(#e)"/>
            <path fill="#D6D6D6" d="M191 80l5.5-3 5.5 3z" mask="url(#e)"/>
            <path fill="#595959" d="M191 80h11v-1h-11z" mask="url(#e)"/>
            <path fill="#B5E8F7" d="M192 87h3v-7h-3zM196 87h3v-7h-3zM192 94h3v-7h-3zM196 94h3v-7h-3z" mask="url(#e)"/>
            <path fill="#000" d="M152 119h11v-15h-11z" mask="url(#e)"/>
            <path fill="#FFF" d="M153 118h9v-13h-9z" mask="url(#e)"/>
            <path fill="#B5E8F7" d="M153 112h3v-7h-3zM157 112h3v-7h-3z" mask="url(#e)"/>
            <path fill="#B5E8F7" d="M153 115h3v-7h-3zM157 115h3v-7h-3z" mask="url(#e)"/>
            <path fill="#FF7900" d="M163 119h5v-15h-5z" mask="url(#e)"/>
            <path fill="#D6D6D6" d="M164 104.104h3v-.208h-3z" mask="url(#e)"/>
            <path fill="#D6D6D6" d="M164 104.104h3v-.208h-3zM164 105.104h3v-.208h-3zM164 107.104h3v-.208h-3z" mask="url(#e)"/>
            <path fill="#D6D6D6" d="M164 107.104h3v-.208h-3z" mask="url(#e)"/>
            <path fill="#D6D6D6" d="M164 107.104h3v-.208h-3zM164 108.104h3v-.208h-3z" mask="url(#e)"/>
            <path fill="#D6D6D6" d="M164 108.104h3v-.208h-3z" mask="url(#e)"/>
            <path fill="#D6D6D6" d="M164 108.104h3v-.208h-3zM164 109.104h3v-.208h-3z" mask="url(#e)"/>
            <path fill="#D6D6D6" d="M164 109.104h3v-.208h-3z" mask="url(#e)"/>
            <path fill="#D6D6D6" d="M164 109.104h3v-.208h-3z" mask="url(#e)"/>
            <path fill="#D6D6D6" d="M164 109.104h3v-.208h-3zM164 111.104h3v-.208h-3z" mask="url(#e)"/>
            <path fill="#D6D6D6" d="M164 111.104h3v-.208h-3z" mask="url(#e)"/>
            <path fill="#D6D6D6" d="M164 111.104h3v-.208h-3z" mask="url(#e)"/>
            <path fill="#D6D6D6" d="M164 111.104h3v-.208h-3z" mask="url(#e)"/>
            <path fill="#D6D6D6" d="M164 111.104h3v-.208h-3zM164 112.104h3v-.208h-3z" mask="url(#e)"/>
            <path fill="#D6D6D6" d="M164 112.104h3v-.208h-3z" mask="url(#e)"/>
            <path fill="#D6D6D6" d="M164 112.104h3v-.208h-3zM164 113.104h3v-.208h-3z" mask="url(#e)"/>
            <path fill="#D6D6D6" d="M164 113.104h3v-.208h-3z" mask="url(#e)"/>
            <path fill="#D6D6D6" d="M164 113.104h3v-.208h-3zM164 114.104h3v-.208h-3z" mask="url(#e)"/>
            <path fill="#D6D6D6" d="M164 114.104h3v-.208h-3z" mask="url(#e)"/>
            <path fill="#D6D6D6" d="M164 114.104h3v-.208h-3zM164 116.104h3v-.208h-3z" mask="url(#e)"/>
            <path fill="#D6D6D6" d="M164 116.104h3v-.208h-3z" mask="url(#e)"/>
            <path fill="#FF7900" d="M148 119h5v-15h-5z" mask="url(#e)"/>
            <path fill="#D6D6D6" d="M149 104.104h3v-.208h-3z" mask="url(#e)"/>
            <path fill="#D6D6D6" d="M149 104.104h3v-.208h-3zM149 105.104h3v-.208h-3zM149 107.104h3v-.208h-3z" mask="url(#e)"/>
            <path fill="#D6D6D6" d="M149 107.104h3v-.208h-3z" mask="url(#e)"/>
            <path fill="#D6D6D6" d="M149 107.104h3v-.208h-3zM149 108.104h3v-.208h-3z" mask="url(#e)"/>
            <path fill="#D6D6D6" d="M149 108.104h3v-.208h-3z" mask="url(#e)"/>
            <path fill="#D6D6D6" d="M149 108.104h3v-.208h-3zM149 109.104h3v-.208h-3z" mask="url(#e)"/>
            <path fill="#D6D6D6" d="M149 109.104h3v-.208h-3z" mask="url(#e)"/>
            <path fill="#D6D6D6" d="M149 109.104h3v-.208h-3z" mask="url(#e)"/>
            <path fill="#D6D6D6" d="M149 109.104h3v-.208h-3zM149 111.104h3v-.208h-3z" mask="url(#e)"/>
            <path fill="#D6D6D6" d="M149 111.104h3v-.208h-3z" mask="url(#e)"/>
            <path fill="#D6D6D6" d="M149 111.104h3v-.208h-3z" mask="url(#e)"/>
            <path fill="#D6D6D6" d="M149 111.104h3v-.208h-3z" mask="url(#e)"/>
            <path fill="#D6D6D6" d="M149 111.104h3v-.208h-3zM149 112.104h3v-.208h-3z" mask="url(#e)"/>
            <path fill="#D6D6D6" d="M149 112.104h3v-.208h-3z" mask="url(#e)"/>
            <path fill="#D6D6D6" d="M149 112.104h3v-.208h-3zM149 113.104h3v-.208h-3z" mask="url(#e)"/>
            <path fill="#D6D6D6" d="M149 113.104h3v-.208h-3z" mask="url(#e)"/>
            <path fill="#D6D6D6" d="M149 113.104h3v-.208h-3zM149 114.104h3v-.208h-3z" mask="url(#e)"/>
            <path fill="#D6D6D6" d="M149 114.104h3v-.208h-3z" mask="url(#e)"/>
            <path fill="#D6D6D6" d="M149 114.104h3v-.208h-3zM149 116.104h3v-.208h-3z" mask="url(#e)"/>
            <path fill="#D6D6D6" d="M149 116.104h3v-.208h-3z" mask="url(#e)"/>
            <path fill="#000" d="M174 119h11v-15h-11z" mask="url(#e)"/>
            <path fill="#FFF" d="M175 118h9v-13h-9z" mask="url(#e)"/>
            <path fill="#B5E8F7" d="M175 112h3v-7h-3zM179 112h3v-7h-3z" mask="url(#e)"/>
            <path fill="#B5E8F7" d="M175 115h3v-7h-3zM179 115h3v-7h-3z" mask="url(#e)"/>
            <path fill="#FF7900" d="M184 119h5v-15h-5z" mask="url(#e)"/>
            <path fill="#D6D6D6" d="M185 104.104h3v-.208h-3z" mask="url(#e)"/>
            <path fill="#D6D6D6" d="M185 104.104h3v-.208h-3zM185 105.104h3v-.208h-3zM185 107.104h3v-.208h-3z" mask="url(#e)"/>
            <path fill="#D6D6D6" d="M185 107.104h3v-.208h-3z" mask="url(#e)"/>
            <path fill="#D6D6D6" d="M185 107.104h3v-.208h-3zM185 108.104h3v-.208h-3z" mask="url(#e)"/>
            <path fill="#D6D6D6" d="M185 108.104h3v-.208h-3z" mask="url(#e)"/>
            <path fill="#D6D6D6" d="M185 108.104h3v-.208h-3zM185 109.104h3v-.208h-3z" mask="url(#e)"/>
            <path fill="#D6D6D6" d="M185 109.104h3v-.208h-3z" mask="url(#e)"/>
            <path fill="#D6D6D6" d="M185 109.104h3v-.208h-3z" mask="url(#e)"/>
            <path fill="#D6D6D6" d="M185 109.104h3v-.208h-3zM185 111.104h3v-.208h-3z" mask="url(#e)"/>
            <path fill="#D6D6D6" d="M185 111.104h3v-.208h-3z" mask="url(#e)"/>
            <path fill="#D6D6D6" d="M185 111.104h3v-.208h-3z" mask="url(#e)"/>
            <path fill="#D6D6D6" d="M185 111.104h3v-.208h-3z" mask="url(#e)"/>
            <path fill="#D6D6D6" d="M185 111.104h3v-.208h-3zM185 112.104h3v-.208h-3z" mask="url(#e)"/>
            <path fill="#D6D6D6" d="M185 112.104h3v-.208h-3z" mask="url(#e)"/>
            <path fill="#D6D6D6" d="M185 112.104h3v-.208h-3zM185 113.104h3v-.208h-3z" mask="url(#e)"/>
            <path fill="#D6D6D6" d="M185 113.104h3v-.208h-3z" mask="url(#e)"/>
            <path fill="#D6D6D6" d="M185 113.104h3v-.208h-3zM185 114.104h3v-.208h-3z" mask="url(#e)"/>
            <path fill="#D6D6D6" d="M185 114.104h3v-.208h-3z" mask="url(#e)"/>
            <path fill="#D6D6D6" d="M185 114.104h3v-.208h-3zM185 116.104h3v-.208h-3z" mask="url(#e)"/>
            <path fill="#D6D6D6" d="M185 116.104h3v-.208h-3z" mask="url(#e)"/>
            <path fill="#FF7900" d="M169 119h5v-15h-5z" mask="url(#e)"/>
            <path fill="#D6D6D6" d="M170 104.104h3v-.208h-3z" mask="url(#e)"/>
            <path fill="#D6D6D6" d="M170 104.104h3v-.208h-3zM170 105.104h3v-.208h-3zM170 107.104h3v-.208h-3z" mask="url(#e)"/>
            <path fill="#D6D6D6" d="M170 107.104h3v-.208h-3z" mask="url(#e)"/>
            <path fill="#D6D6D6" d="M170 107.104h3v-.208h-3zM170 108.104h3v-.208h-3z" mask="url(#e)"/>
            <path fill="#D6D6D6" d="M170 108.104h3v-.208h-3z" mask="url(#e)"/>
            <path fill="#D6D6D6" d="M170 108.104h3v-.208h-3zM170 109.104h3v-.208h-3z" mask="url(#e)"/>
            <path fill="#D6D6D6" d="M170 109.104h3v-.208h-3z" mask="url(#e)"/>
            <path fill="#D6D6D6" d="M170 109.104h3v-.208h-3z" mask="url(#e)"/>
            <path fill="#D6D6D6" d="M170 109.104h3v-.208h-3zM170 111.104h3v-.208h-3z" mask="url(#e)"/>
            <path fill="#D6D6D6" d="M170 111.104h3v-.208h-3z" mask="url(#e)"/>
            <path fill="#D6D6D6" d="M170 111.104h3v-.208h-3z" mask="url(#e)"/>
            <path fill="#D6D6D6" d="M170 111.104h3v-.208h-3z" mask="url(#e)"/>
            <path fill="#D6D6D6" d="M170 111.104h3v-.208h-3zM170 112.104h3v-.208h-3z" mask="url(#e)"/>
            <path fill="#D6D6D6" d="M170 112.104h3v-.208h-3z" mask="url(#e)"/>
            <path fill="#D6D6D6" d="M170 112.104h3v-.208h-3zM170 113.104h3v-.208h-3z" mask="url(#e)"/>
            <path fill="#D6D6D6" d="M170 113.104h3v-.208h-3z" mask="url(#e)"/>
            <path fill="#D6D6D6" d="M170 113.104h3v-.208h-3zM170 114.104h3v-.208h-3z" mask="url(#e)"/>
            <path fill="#D6D6D6" d="M170 114.104h3v-.208h-3z" mask="url(#e)"/>
            <path fill="#D6D6D6" d="M170 114.104h3v-.208h-3zM170 116.104h3v-.208h-3z" mask="url(#e)"/>
            <path fill="#D6D6D6" d="M170 116.104h3v-.208h-3z" mask="url(#e)"/>
            <path fill="#0A6E31" d="M153 137h3v-2h-3z" mask="url(#e)"/>
            <path fill="#50BE87" d="M153 137h3v-2h-3z" mask="url(#e)"/>
            <path fill="#0A6E31" d="M155 136a1 1 0 0 1-1 1v-1h1zM158 137a1 1 0 0 1-1-1h1v1z" mask="url(#e)"/>
            <path fill="#0A6E31" d="M155.854 135H153v.156h2.854V137H156v-2zM158.854 135H156v.156h2.854V137H159v-2z" mask="url(#e)"/>
            <path fill="#595959" d="M152 118h12v-1h-12zM173 118h12v-1h-12z" mask="url(#e)"/>
            <path fill="#000" d="M196 119h11v-15h-11z" mask="url(#e)"/>
            <path fill="#FFF" d="M197 118h9v-13h-9z" mask="url(#e)"/>
            <path fill="#B5E8F7" d="M197 112h3v-7h-3zM202 112h3v-7h-3z" mask="url(#e)"/>
            <path fill="#B5E8F7" d="M197 115h3v-7h-3zM202 115h3v-7h-3z" mask="url(#e)"/>
            <path fill="#FF7900" d="M206 119h5v-15h-5z" mask="url(#e)"/>
            <path fill="#D6D6D6" d="M206 104.104h3v-.208h-3z" mask="url(#e)"/>
            <path fill="#D6D6D6" d="M206 104.104h3v-.208h-3zM206 105.104h3v-.208h-3zM206 107.104h3v-.208h-3z" mask="url(#e)"/>
            <path fill="#D6D6D6" d="M206 107.104h3v-.208h-3z" mask="url(#e)"/>
            <path fill="#D6D6D6" d="M206 107.104h3v-.208h-3zM206 108.104h3v-.208h-3z" mask="url(#e)"/>
            <path fill="#D6D6D6" d="M206 108.104h3v-.208h-3z" mask="url(#e)"/>
            <path fill="#D6D6D6" d="M206 108.104h3v-.208h-3zM206 109.104h3v-.208h-3z" mask="url(#e)"/>
            <path fill="#D6D6D6" d="M206 109.104h3v-.208h-3z" mask="url(#e)"/>
            <path fill="#D6D6D6" d="M206 109.104h3v-.208h-3z" mask="url(#e)"/>
            <path fill="#D6D6D6" d="M206 109.104h3v-.208h-3zM206 111.104h3v-.208h-3z" mask="url(#e)"/>
            <path fill="#D6D6D6" d="M206 111.104h3v-.208h-3z" mask="url(#e)"/>
            <path fill="#D6D6D6" d="M206 111.104h3v-.208h-3z" mask="url(#e)"/>
            <path fill="#D6D6D6" d="M206 111.104h3v-.208h-3z" mask="url(#e)"/>
            <path fill="#D6D6D6" d="M206 111.104h3v-.208h-3zM206 112.104h3v-.208h-3z" mask="url(#e)"/>
            <path fill="#D6D6D6" d="M206 112.104h3v-.208h-3z" mask="url(#e)"/>
            <path fill="#D6D6D6" d="M206 112.104h3v-.208h-3zM206 113.104h3v-.208h-3z" mask="url(#e)"/>
            <path fill="#D6D6D6" d="M206 113.104h3v-.208h-3z" mask="url(#e)"/>
            <path fill="#D6D6D6" d="M206 113.104h3v-.208h-3zM206 114.104h3v-.208h-3z" mask="url(#e)"/>
            <path fill="#D6D6D6" d="M206 114.104h3v-.208h-3z" mask="url(#e)"/>
            <path fill="#D6D6D6" d="M206 114.104h3v-.208h-3zM206 116.104h3v-.208h-3z" mask="url(#e)"/>
            <path fill="#D6D6D6" d="M206 116.104h3v-.208h-3z" mask="url(#e)"/>
            <path fill="#FF7900" d="M191 119h5v-15h-5z" mask="url(#e)"/>
            <path fill="#D6D6D6" d="M192 104.104h3v-.208h-3z" mask="url(#e)"/>
            <path fill="#D6D6D6" d="M192 104.104h3v-.208h-3zM192 105.104h3v-.208h-3zM192 107.104h3v-.208h-3z" mask="url(#e)"/>
            <path fill="#D6D6D6" d="M192 107.104h3v-.208h-3z" mask="url(#e)"/>
            <path fill="#D6D6D6" d="M192 107.104h3v-.208h-3zM192 108.104h3v-.208h-3z" mask="url(#e)"/>
            <path fill="#D6D6D6" d="M192 108.104h3v-.208h-3z" mask="url(#e)"/>
            <path fill="#D6D6D6" d="M192 108.104h3v-.208h-3zM192 109.104h3v-.208h-3z" mask="url(#e)"/>
            <path fill="#D6D6D6" d="M192 109.104h3v-.208h-3z" mask="url(#e)"/>
            <path fill="#D6D6D6" d="M192 109.104h3v-.208h-3z" mask="url(#e)"/>
            <path fill="#D6D6D6" d="M192 109.104h3v-.208h-3zM192 111.104h3v-.208h-3z" mask="url(#e)"/>
            <path fill="#D6D6D6" d="M192 111.104h3v-.208h-3z" mask="url(#e)"/>
            <path fill="#D6D6D6" d="M192 111.104h3v-.208h-3z" mask="url(#e)"/>
            <path fill="#D6D6D6" d="M192 111.104h3v-.208h-3z" mask="url(#e)"/>
            <path fill="#D6D6D6" d="M192 111.104h3v-.208h-3zM192 112.104h3v-.208h-3z" mask="url(#e)"/>
            <path fill="#D6D6D6" d="M192 112.104h3v-.208h-3z" mask="url(#e)"/>
            <path fill="#D6D6D6" d="M192 112.104h3v-.208h-3zM192 113.104h3v-.208h-3z" mask="url(#e)"/>
            <path fill="#D6D6D6" d="M192 113.104h3v-.208h-3z" mask="url(#e)"/>
            <path fill="#D6D6D6" d="M192 113.104h3v-.208h-3zM192 114.104h3v-.208h-3z" mask="url(#e)"/>
            <path fill="#D6D6D6" d="M192 114.104h3v-.208h-3z" mask="url(#e)"/>
            <path fill="#D6D6D6" d="M192 114.104h3v-.208h-3zM192 116.104h3v-.208h-3z" mask="url(#e)"/>
            <path fill="#D6D6D6" d="M192 116.104h3v-.208h-3z" mask="url(#e)"/>
            <path fill="#595959" d="M196 118h12v-1h-12z" mask="url(#e)"/>
            <path fill="#8F8F8F" d="M142 102h75v-1h-75zM142 121h75v-1h-75z" mask="url(#e)"/>
            <path fill="#595959" d="M141 104h3v-2h-3z" mask="url(#e)"/>
            <path fill="#595959" d="M141 104h2v-2h-2zM141 107h3v-2h-3zM141 109h2v-2h-2z" mask="url(#e)"/>
            <path fill="#595959" d="M141 110h3v-2h-3zM141 112h2v-2h-2zM141 114h3v-2h-3z" mask="url(#e)"/>
            <path fill="#595959" d="M141 114h2v-2h-2z" mask="url(#e)"/>
            <path fill="#595959" d="M141 115h3v-2h-3zM141 118h2v-2h-2z" mask="url(#e)"/>
            <path fill="#595959" d="M141 119h3v-2h-3z" mask="url(#e)"/>
            <path fill="#595959" d="M141 120h2v-2h-2zM141 125h3v-2h-3z" mask="url(#e)"/>
            <path fill="#595959" d="M141 126h2v-2h-2z" mask="url(#e)"/>
            <path fill="#595959" d="M141 127h3v-2h-3zM141 130h2v-2h-2z" mask="url(#e)"/>
            <path fill="#595959" d="M141 130h3v-2h-3zM141 133h2v-2h-2zM141 136h3v-2h-3z" mask="url(#e)"/>
            <path fill="#595959" d="M141 136h2v-2h-2z" mask="url(#e)"/>
            <path fill="#595959" d="M141 137h3v-2h-3zM213 104h3v-2h-3z" mask="url(#e)"/>
            <path fill="#595959" d="M215 104h2v-2h-2zM213 107h3v-2h-3zM215 109h2v-2h-2z" mask="url(#e)"/>
            <path fill="#595959" d="M213 110h3v-2h-3zM215 112h2v-2h-2zM213 114h3v-2h-3z" mask="url(#e)"/>
            <path fill="#595959" d="M215 114h2v-2h-2z" mask="url(#e)"/>
            <path fill="#595959" d="M213 115h3v-2h-3zM215 118h2v-2h-2z" mask="url(#e)"/>
            <path fill="#595959" d="M213 119h3v-2h-3z" mask="url(#e)"/>
            <path fill="#595959" d="M215 120h2v-2h-2zM213 125h3v-2h-3z" mask="url(#e)"/>
            <path fill="#595959" d="M215 126h2v-2h-2z" mask="url(#e)"/>
            <path fill="#595959" d="M213 127h3v-2h-3zM215 130h2v-2h-2z" mask="url(#e)"/>
            <path fill="#595959" d="M213 130h3v-2h-3zM215 133h2v-2h-2zM213 136h3v-2h-3z" mask="url(#e)"/>
            <path fill="#595959" d="M215 136h2v-2h-2z" mask="url(#e)"/>
            <path fill="#595959" d="M213 137h3v-2h-3z" mask="url(#e)"/>
            <path fill="#0A6E31" d="M223.973 136.164c-.188-1.898-1.319-3.42-2.81-4.049-.001-.016 0-.033-.002-.05-.105-1.052-.875-1.837-1.787-1.89-.835-2.683-3.233-4.464-5.856-4.136-2.13.265-3.843 1.851-4.568 3.95-1.034.137-1.778 1.186-1.663 2.35-1.51.876-2.46 2.73-2.26 4.739.185 1.879 1.325 3.379 2.817 3.96.455 1.575 1.847 2.63 3.37 2.439.11-.014.218-.033.324-.06.842 1.099 2.136 1.727 3.516 1.555 1.172-.146 2.17-.84 2.817-1.829.256.099.535.14.823.103.844-.105 1.497-.817 1.653-1.705 2.275-.42 3.884-2.774 3.626-5.377" mask="url(#e)"/>
            <path fill="#714E46" d="M212.785 158l.01-13.587-3.095-4.162-3.7-2.414.434-.205 3.185 1.728-.65-2.176h.525l.96 2.634 2.58 3.387-.072-4.202-1.34-5.003h.447l1.27 3.934.995-1.986.401.274-1.055 2.677.395 4.13 2.36-4.104.68-3.445.537.253-.542 3.082 2.742-.253.148.416-3.074.586-2.647 4.77.653 13.666z" mask="url(#e)"/>
            <path fill="#085EBD" d="M163 135l-1 .252v2.496l1 .252zM151 138l1-.252v-2.496l-1-.252z" mask="url(#e)"/>
        </g>
        <g opacity=".5">
            <g transform="translate(594 237)">
                <mask id="g" fill="#fff">
                    <use xlink:href="#f"/>
                </mask>
                <path fill="#50BE87" d="M363.238 7.54a11.338 11.338 0 0 0-4.101-.048l-34.022 7.76a11.343 11.343 0 0 1-3.496.053l-28.74-4.035a11.353 11.353 0 0 0-3.076-.01l-39.155 5.223c-1.219.163-2.46.126-3.665-.109L210.66 9.3c-.194-.037-.39-.07-.585-.098l-27.867-3.92a11.311 11.311 0 0 0-5.209.488l-23.536 8.009c-1.11.378-5.642-2.837-6.825-2.82l-16.578-9.762c-1.652.023-26.88 13.49-28.366 12.82l-8.035-3.627a11.177 11.177 0 0 0-3.701-.948l-8.595-.689c-3.045-.244-5.824-1.702-7.614-3.995C71.84 2.317 68.82.83 65.566.733L49.29.245c-2.651-.079-5.237.772-7.239 2.383l-7.22 5.81C32.34 10.445 22.15 36.959 18.92 36.322l-14.588 4.98-1.239 11.582h398.734L363.238 7.541z" mask="url(#g)"/>
            </g>
            <path fill="#C19372" d="M826.689 224.201a.694.694 0 0 1-1.05.593l-12.236-7.311a8.65 8.65 0 0 0-4.19-1.199l-3.581-.085a.736.736 0 0 1-.556-.275l-6.036-7.534a.735.735 0 0 0-.574-.275h-7.22a.735.735 0 0 1-.553-.25l-1.967-2.358a.708.708 0 0 0-.577-.25c-.965.076-1.249 1.037-.76 1.592l2.442 2.9c.14.159.341.25.553.25h7.167c.224 0 .435.101.574.275l3.716 4.638a.728.728 0 0 1-.591 1.181l-5.622-.134a.718.718 0 0 1-.122-.014l-8.175-1.565a.734.734 0 0 1-.338-.161l-2.802-2.386c-.562-.477-1.525-.19-1.596.77-.016.218.09.429.257.572l3.182 2.708c.166.142.368.238.583.28l5.636 1.078a.727.727 0 0 1 .322 1.282l-2.03 1.628a.707.707 0 0 0-.275.578c.035.66.502 1.012.977 1.012a.95.95 0 0 0 .595-.209l3.227-2.588c.09.02.181.033.276.036l14.343.487c.17.006.334.07.462.183l5.918 5.228a.727.727 0 0 1-.353 1.26l-7.54 1.4a.736.736 0 0 1-.4-.036l-9.365-3.595c-.69-.264-1.502.326-1.246 1.254a.702.702 0 0 0 .434.454l9.94 3.815a.958.958 0 0 0 .516.047l10.315-1.916c.384-.07.78.038 1.073.296l3.972 3.51c.27.238.425.58.425.938v6.382c0 .57-.63.92-1.119.62l-7.329-4.498a.735.735 0 0 0-.186-.081l-19.267-5.412a.732.732 0 0 1-.422-.315l-3.388-5.384a.732.732 0 0 0-.467-.326l-6.689-1.443a.734.734 0 0 1-.389-.224l-3.41-3.756a.735.735 0 0 0-.533-.24l-7.837-.127a.731.731 0 0 1-.712-.61l-.683-4.169a.731.731 0 0 0-.437-.556c-.768-.319-1.414.286-1.307.941l.906 5.53a.732.732 0 0 0 .712.612l8.553.138c.204.003.397.09.533.24l3.275 3.608a.734.734 0 0 0 .39.224l6.515 1.405c.193.042.36.16.466.326l1.09 1.732c.355.564-.176 1.268-.822 1.087l-2.804-.788a5.082 5.082 0 0 0-1.376-.19h-17.58a.733.733 0 0 1-.692-.486l-2.861-8.084a.731.731 0 0 0-.436-.44l-9.285-3.444a.735.735 0 0 1-.23-.137l-4.168-3.653a.71.71 0 0 0-.604-.173c-.948.2-1.103 1.189-.548 1.675l4.33 3.795a.732.732 0 0 0 .228.136l8.783 3.257a.73.73 0 0 1 .435.44l1.57 4.437a.728.728 0 0 1-.617.966l-6.56.671a.733.733 0 0 0-.453.22l-3.757 3.88a.737.737 0 0 1-.645.213l-5.885-.94a.665.665 0 0 0-.212 1.312l6.609 1.056a.671.671 0 0 0 .588-.195l3.926-4.054a.733.733 0 0 1 .453-.22l6.743-.69a.733.733 0 0 1 .766.484l.565 1.596c.017.056.034.11.058.163l.003.007c.005.014.015.024.02.038.023.046.046.093.074.136.036.059.077.112.125.16.014.016.03.029.045.043.033.03.062.064.1.09.195.155.436.259.703.279l12.232.91a.728.728 0 0 1 .544 1.148l-3.502 4.909a.734.734 0 0 1-.417.285l-11.558-.282a.941.941 0 0 0 .235 1.855c.077 0 .156-.01.235-.03l12.16.366a.734.734 0 0 0 .417-.284l4.187-6.023a.736.736 0 0 1 1.127-.084l2.265 2.344c.408.421.887.77 1.415 1.028l11.068 5.41c.055.026.106.06.151.098l13.708 11.592a.727.727 0 0 1 .258.555v17.501h31.802l-.883-24.281a.73.73 0 0 1 .586-.74l23.49-4.763c.376-.076.73-.236 1.034-.468l2.382-1.816a.737.737 0 0 1 .69-.11l9.913 3.464a.956.956 0 0 0 .721-.038l9.044-4.267a.701.701 0 0 0 .399-.485c.186-.943-.669-1.474-1.337-1.158l-8.294 3.913a.738.738 0 0 1-.558.03l-7.19-2.513a.726.726 0 0 1-.202-1.265l5.245-3.998a.739.739 0 0 1 .274-.13l6.336-1.523a.74.74 0 0 1 .324-.005l6.165 1.421a.936.936 0 0 0 .394 0l6.8-1.44c.725-.153 1.078-1.09.353-1.727a.708.708 0 0 0-.613-.144l-6.587 1.394a.74.74 0 0 1-.304 0l-4.516-1.075a.728.728 0 0 1-.563-.875l1.004-4.355a.73.73 0 0 1 .575-.552l3.605-.703a.705.705 0 0 0 .506-.367c.422-.865-.271-1.6-1-1.456l-4.684.91a.73.73 0 0 0-.575.552l-1.43 6.2a.73.73 0 0 1-.541.545l-5.952 1.43a.965.965 0 0 0-.43.12l-.008.005c-.017.007-.031.017-.047.026l-9.836 5.505a2.543 2.543 0 0 1-.881.298l-26.483 3.787a2.153 2.153 0 0 1-2.3-1.31l-1.01-5.865a.687.687 0 0 1 .31-.833l2.27-1.457a.738.738 0 0 1 .642-.075l9.468 3.308a.955.955 0 0 0 .721-.038l9.045-4.267a.7.7 0 0 0 .398-.485c.186-.944-.668-1.473-1.337-1.158l-8.294 3.913a.738.738 0 0 1-.557.03l-6.357-2.222a.726.726 0 0 1-.154-1.299l7.34-4.708c.069-.04.131-.085.188-.138a.696.696 0 0 1 .337-.166l9.911-1.959a.735.735 0 0 1 .75.306l3.137 4.607c.136.2.364.32.607.32h7.744c.22 0 .437-.091.568-.267.578-.772.035-1.617-.706-1.617h-6.598a.735.735 0 0 1-.608-.32l-2.524-3.707a.724.724 0 0 1 .023-.847l4.383-5.75a.696.696 0 0 0 .128-.612c-.272-.922-1.277-1.002-1.724-.416l-4.64 6.088a.733.733 0 0 1-.442.274l-11.313 2.237a.944.944 0 0 0-.32.13l-3.636 1.479c-.6.244-1.2-.349-.958-.946l1.375-3.398a.73.73 0 0 1 .383-.394l6.606-2.916a.729.729 0 0 0 .433-.608l.496-6.204a.704.704 0 0 0-.248-.607c-.735-.587-1.596-.123-1.654.6l-.395 4.945a.729.729 0 0 1-.433.607l-6.278 2.772a.73.73 0 0 0-.382.394l-2.983 7.368c-.005.01-.006.022-.01.034l-5.432 2.21a.733.733 0 0 1-1.01-.658l-.732-16.99.025-.206 1.318-4.865a.734.734 0 0 1 .962-.494l5.337 1.955a.958.958 0 0 0 .437.052l9.836-1.123a.704.704 0 0 0 .535-.33c.483-.834-.151-1.61-.888-1.526l-9.302 1.062a.741.741 0 0 1-.337-.04l-3.277-1.2a.727.727 0 0 1-.04-1.351l5.663-2.452a.735.735 0 0 1 .333-.06l11.107.607a.925.925 0 0 0 .266-.023l6.708-1.537a.705.705 0 0 0 .494-.389c.387-.883-.332-1.58-1.054-1.416l-6.342 1.453a.743.743 0 0 1-.205.018l-11.268-.615a.931.931 0 0 0-.431.077l-6.02 2.606c-.563.244-1.16-.268-1-.857l.529-3.481a.731.731 0 0 1 .444-.49l6.953-2.663a.737.737 0 0 1 .288-.048l3.987.129c.266.007.529-.078.737-.246l3.132-2.513a.737.737 0 0 1 .513-.16l7.334.515c.886.065 1.604-.925.925-1.892a.732.732 0 0 0-.548-.302l-8.28-.58a1.109 1.109 0 0 0-.78.242l-3.163 2.538a.736.736 0 0 1-.484.162l-3.753-.122a.74.74 0 0 0-.288.049l-6.045 2.315a.734.734 0 0 1-.97-.484l-1.095-3.89a.725.725 0 0 1 .018-.446l1.44-3.918a.73.73 0 0 1 .344-.392l5.697-3.024a.74.74 0 0 1 .407-.083l6.238.523c.74.065 1.35-.736.84-1.552a.705.705 0 0 0-.544-.313l-6.87-.577a.94.94 0 0 0-.526.108l-4.308 2.286a.733.733 0 0 1-1.079-.636l-.069-7.517c-.009-.917-1.17-1.56-2.028-.677a.73.73 0 0 0-.203.514l.093 10.211a.721.721 0 0 1-.044.257l-1.729 4.7a.723.723 0 0 0-.017.445l1.565 5.564a.724.724 0 0 1-.08.575l-4.107 5.793a.696.696 0 0 1-1.08.257l-10.093-8.221a.726.726 0 0 1-.268-.563v-2.749c0-.1.02-.2.062-.292l4.443-10.077a.733.733 0 0 1 .672-.436h4.728c.22 0 .437-.091.568-.267.578-.773.035-1.617-.706-1.617h-5.83a.734.734 0 0 0-.672.436l-4.093 9.283a.736.736 0 0 1-1.19.222l-5.517-5.492a.734.734 0 0 0-.512-.214l-7.663-.071h-.145a.707.707 0 0 0-.567.264c-.58.766-.046 1.612.694 1.62l6.887.063a.738.738 0 0 1 .512.214l6.218 6.191a.726.726 0 0 1 .214.514v1.634a.73.73 0 0 1-.612.719l-7.763 1.293a.734.734 0 0 1-.775-.388l-2.437-4.755a2.529 2.529 0 0 0-2.007-1.36l-7.695-.75a.74.74 0 0 1-.374-.145l-3.033-2.302c-.588-.446-1.532-.106-1.55.854a.697.697 0 0 0 .288.56l3.573 2.71a.734.734 0 0 0 .373.146l7.888.768c.43.042.808.298 1.004.68l1.8 3.513a.728.728 0 0 1-.532 1.048l-5.074.845a.738.738 0 0 1-.434-.06l-6.584-3.091c-.013-.007-.028-.007-.041-.012a.67.67 0 0 0-.416-.045l-8.795 1.913c-.344.075-.615.384-.576.732a.667.667 0 0 0 .808.578l8.258-1.796a.737.737 0 0 1 .522.08l6.329 3.615a.738.738 0 0 0 .365.097h13.877c.702 0 1.372.29 1.85.799l9.495 10.117c.12.128.186.296.186.47l-1.396 16.805z"/>
            <path fill="#0A6E31" d="M846.942 211.493l6.33-4.105a1.75 1.75 0 0 1 1.568-.168l1.208.455a1.75 1.75 0 0 0 1.717-.276l1.156-.936a1.75 1.75 0 0 1 1.816-.236l4.578 2.055c.503.225.868.673.985 1.208a1.739 1.739 0 0 0 1.858 1.354l3.376-.305c.468-.042.934.105 1.29.41l1.107.941c.315.269.717.416 1.133.416h6.207c.696 0 1.325.413 1.6 1.048l.231.537a1.727 1.727 0 0 1-1.277 2.38l-11.43 2.141a1.753 1.753 0 0 1-.763-.026l-9.369-2.436a1.75 1.75 0 0 0-.614-.047l-12.436 1.235a1.75 1.75 0 0 1-1.084-.247l-2.657-1.622c-1.379-.84-.958-2.931.64-3.18l2.149-.336c.243-.038.475-.127.68-.26M835.423 177.74l-10.279-5.49c-.41-.218-.91-.179-1.28.1l-4.27 3.224c-.25.19-.567.272-.879.23l-7.291-.99a1.19 1.19 0 0 0-1.19.58l-1.489 2.566c-.143.247-.37.434-.641.526l-5.003 1.716c-.361.124-.64.414-.75.777a1.182 1.182 0 0 0 1.196 1.517l13.674-.661c.076-.004.152 0 .227.01l11.368 1.62c.27.04.547-.016.782-.157l5.876-3.519a1.176 1.176 0 0 0-.051-2.05M763.086 217.062l7.512 1.106a1.903 1.903 0 0 0 1.47-.398l6.353-5.097a1.906 1.906 0 0 1 1.642-.365l11.433 2.773c.29.07.59.072.88.005l15.66-3.63c1.835-.425 1.99-2.962.219-3.603l-15.464-5.605a1.907 1.907 0 0 0-1.132-.052l-10.306 2.694a1.91 1.91 0 0 1-.842.028l-7.455-1.434a1.9 1.9 0 0 0-2.01.921l-4.027 7.06c-.229.4-.597.704-1.036.853l-3.233 1.099c-1.88.639-1.63 3.356.336 3.645M878.981 225.426l6.251 2.672c.182.077.384.102.58.07l6.47-1.06a1.05 1.05 0 0 1 .611.084l6.43 3c.135.062.282.096.431.097l8.913-.294c1.006.01 1.438-1.264.63-1.86l-3.457-2.554a1.043 1.043 0 0 0-.467-.193l-5.338-.915a1.043 1.043 0 0 1-.62-.33l-4.287-4.732a1.042 1.042 0 0 0-.844-.34l-11.567.794c-.26.018-.505.133-.685.322l-3.397 3.583a1.029 1.029 0 0 0 .346 1.656M783.215 194.182l5.532.658a1.27 1.27 0 0 0 1.094-.411l2.347-2.616c.26-.29.642-.444 1.033-.417l2.136.15c1.084.075 1.753-1.153 1.096-2.013l-.861-1.125a1.267 1.267 0 0 0-1.1-.492l-7.266.54c-.26.019-.506.117-.708.281l-3.956 3.228c-.86.702-.453 2.086.653 2.217M761.58 209.142l-5.403-1.351c-.401-.1-.826 0-1.138.27l-2.662 2.298c-.296.255-.694.36-1.078.283l-2.1-.417c-1.065-.213-1.886.922-1.344 1.857l.71 1.225c.214.368.601.605 1.029.627l7.275.382c.26.013.518-.053.738-.19l4.337-2.703c.943-.588.716-2.012-.363-2.281M844.338 191.121l14.867 1.416c.26.025.523-.03.751-.157l6.815-3.797c1.054-.588.782-2.164-.41-2.37l-8.954-1.539a1.291 1.291 0 0 0-1.021.261l-4.23 3.361c-.228.181-.51.28-.802.28h-6.893a1.29 1.29 0 0 0-.813.288c-.888.722-.452 2.149.69 2.257M766.275 225.713l-6.733-2.563a1.038 1.038 0 0 0-1.01.153l-5.05 3.966c-.22.173-.502.25-.78.212l-5.954-.812a1.037 1.037 0 0 0-.922.345l-2.29 2.63c-.611.702-.044 1.786.887 1.692l10.637-1.078c.08-.009.16-.007.24.003l9.353 1.222c.505.066.982-.243 1.126-.729l1.118-3.794a1.024 1.024 0 0 0-.622-1.247M855.494 195.523l1.348 2.678c.138.273.434.43.74.391l6.83-.863a.742.742 0 0 1 .168-.002l5.085.544c.787.084 1.12-.967.426-1.345l-4.953-2.698a.727.727 0 0 0-.503-.072l-5.097 1.112a.729.729 0 0 1-.34-.008l-2.87-.754c-.603-.158-1.112.463-.834 1.017M858.928 179.508l-1.867-4c-.19-.408-.538-.62-.867-.53l-7.362 2.028a.56.56 0 0 1-.185.02l-5.655-.324c-.875-.05-1.087 1.608-.271 2.122l5.821 3.663c.18.114.38.135.562.06l5.428-2.235a.578.578 0 0 1 .374-.023l3.256.874c.684.183 1.152-.828.766-1.655M791.252 224.745l4.096 3.675c.403.361.992.427 1.465.164l4.6-2.559c.122-.067.253-.114.39-.139l7.232-1.323c.6-.11 1.035-.63 1.035-1.235v-3.68a1.26 1.26 0 0 0-1.264-1.255h-6.793c-.27 0-.534.086-.752.245l-4.509 3.311c-.186.137-.406.22-.637.241l-4.13.373c-1.097.099-1.55 1.449-.733 2.182M777.98 236.374l-2.297-3.214a.912.912 0 0 0-1.003-.342l-3.63 1.083a.913.913 0 0 1-.295.038l-5.284-.192a.908.908 0 0 0-.92.707l-.578 2.582c-.109.486.2.969.69 1.077l4.768 1.052c.19.042.388.022.566-.056l3.685-1.625a.914.914 0 0 1 .485-.07l2.957.378c.786.1 1.315-.777.857-1.418M834.15 173.955l2.476.546c.194.044.397.04.59-.01l3.01-.771c.18-.046.37-.052.552-.018l4.002.758c.36.068.733-.023 1.021-.25l.689-.54a1.252 1.252 0 0 0-.265-2.13l-5.003-2.242a1.27 1.27 0 0 0-1.396.24l-1.797 1.714a1.27 1.27 0 0 1-1.235.298l-1.83-.54a1.266 1.266 0 0 0-1.554.793l-.18.516c-.247.709.183 1.473.92 1.636M851.198 230.4l5.591.71c.132.016.265.017.397.004l10.608-1.086c.06-.005.118-.009.178-.009 1.621 0 2.354-2.014 1.108-3.043l-3.784-3.127a1.743 1.743 0 0 0-1.973-.168l-5.06 2.898a1.743 1.743 0 0 1-1.816-.052l-2.335-1.522a1.74 1.74 0 0 0-2.322.388l-1.745 2.25c-.817 1.052-.175 2.588 1.153 2.757M791.192 186.453l3.57-1.589c.301-.134.65-.117.935.046l2.564 1.458c.2.113.43.158.657.126l3.276-.458c.99-.139 1.225-1.454.343-1.921l-2.734-1.451a1.04 1.04 0 0 0-.237-.091l-5.353-1.322a1.038 1.038 0 0 0-.868.175l-3.683 2.744a1.04 1.04 0 0 1-.382.177l-.73.171a1.03 1.03 0 0 0-.745.682c-.217.662.28 1.343.983 1.343h1.982c.145 0 .29-.03.422-.09M884.006 239.381l4.28.409c.194.018.39-.008.572-.077l5.296-2.009c.309-.117.652-.11.955.022l2.954 1.133a1.27 1.27 0 0 0 1.42-.285l.476-.497a1.251 1.251 0 0 0-.369-1.998l-3.491-1.657a1.27 1.27 0 0 0-.898-.074l-4.099 1.176a1.27 1.27 0 0 1-1.073-.176l-3.21-2.219a1.268 1.268 0 0 0-1.857.476l-1.97 3.972c-.39.788.134 1.72 1.014 1.804M844.676 203.615v.811c0 .74.476 1.396 1.181 1.63l2.27.753a1.74 1.74 0 0 0 1.173-.027l4.653-1.788c.232-.09.482-.127.73-.112l8.234.505a1.74 1.74 0 0 0 1.181-.369l.466-.367c1.068-.841.782-2.522-.505-2.969l-4.013-1.392a1.741 1.741 0 0 0-1.03-.034l-4.492 1.232a1.74 1.74 0 0 1-.912.003l-4.36-1.17a1.74 1.74 0 0 0-1.43.242l-2.396 1.636c-.47.321-.75.85-.75 1.416"/>
            <path fill="#C19372" d="M945.703 236.042a.467.467 0 0 0-.153-.11l-7.54-3.42a.471.471 0 0 1-.137-.094l-2.9-2.882a.475.475 0 0 0-.584-.066c-.262.156-.29.496-.084.72l2.654 2.895.123.095 7.556 4.08a.463.463 0 0 1 .137.11l4 4.768a.462.462 0 0 1 .104.356l-.805 6.483v.11l.818 7.166a.469.469 0 0 1-.674.471l-4.806-2.352a.466.466 0 0 1-.25-.319l-1.017-4.633a.461.461 0 0 1 .065-.353l1.873-2.871a.466.466 0 0 0-.393-.72h-.041a.47.47 0 0 0-.368.177l-1.722 2.156a.471.471 0 0 1-.714.024l-2.057-2.238a.368.368 0 0 0-.27-.118h-.019c-.4 0-.616.464-.358.767l2.46 2.883c.059.067.095.15.108.237l.525 3.75a.468.468 0 0 1-.58.517l-4.467-1.123a.469.469 0 0 1-.337-.326l-1.01-3.575a.467.467 0 0 1-.01-.205l.435-2.5a.365.365 0 0 0-.36-.425h-.018a.366.366 0 0 0-.355.277l-.174.703a.47.47 0 0 1-.828.171l-.774-1.008a.367.367 0 0 0-.292-.143h-.079a.364.364 0 0 0-.29.585l1.688 2.186a.463.463 0 0 1 .093.226l.108.863c.055.44-.481.7-.797.387l-2.52-2.503a.469.469 0 0 0-.248-.129l-5.22-.943a.47.47 0 0 1-.271-.154l-3.436-3.956a.47.47 0 0 0-.356-.162h-.474a.466.466 0 0 0-.364.76l3.635 4.445c.064.077.15.133.249.157l5.648 1.423a.47.47 0 0 1 .245.153l4.913 5.84a.47.47 0 0 0 .246.153l7.47 1.855c.057.014.112.04.16.074l5.176 3.709c.167.12.236.334.17.527l-1.648 4.824a.457.457 0 0 0-.023.187l.434 5.272a20.68 20.68 0 0 0-.01.139l-.635 2.84a.46.46 0 0 1-.07.16l-1.705 2.505h12.056l-1.94-2.328a.46.46 0 0 1-.095-.191l-1.622-6.849a.462.462 0 0 1 .004-.23l1.526-5.503a.467.467 0 0 1 .126-.211l8.28-7.981a.469.469 0 0 1 .202-.115l8.868-2.447.125-.017h5.153a.47.47 0 0 0 .368-.176l4.302-5.382a.468.468 0 0 1 .197-.144l6.402-2.486c.37-.143.718-.337 1.034-.577l6.336-4.795h-1.084l-4.935 3.245.91-2.847a.466.466 0 0 0-.413-.606l-.21-.015a.469.469 0 0 0-.48.326l-1.159 3.667a.468.468 0 0 1-.293.3l-5.407 1.875.703-3.16 1.824-2.785h-.887l-1.653 2.538-1.397 3.517a3.186 3.186 0 0 1-.522.873l-2.776 3.298c-.302.36-.89.102-.825-.362l.819-5.827a.46.46 0 0 1 .083-.207l2.351-3.254a.364.364 0 0 0-.297-.576h-.095a.367.367 0 0 0-.29.143l-1.741 2.249a.47.47 0 0 1-.777-.05l-1.266-2.16a.367.367 0 0 0-.642.35l1.618 3.103a.463.463 0 0 1 .038.33l-1.835 7.133a.47.47 0 0 1-.461.35l-3.63-.05-.095.008-7.156 1.365a.467.467 0 0 1-.482-.711l1.062-1.623a.47.47 0 0 1 .13-.132l4.806-3.242a.467.467 0 0 0 .163-.193l2.847-6.21a.466.466 0 0 0-.427-.66h-.015a.47.47 0 0 0-.421.261l-3.01 6.096a.467.467 0 0 1-.194.203l-4.95 2.713a.464.464 0 0 0-.166.153l-2.573 3.913-.085.097-6.704 5.781a.47.47 0 0 1-.775-.39l.482-5.88a.464.464 0 0 1 .095-.244l4.377-5.717a.468.468 0 0 1 .153-.129l8.726-4.618a.465.465 0 0 0 .21-.224l1.153-2.61a.466.466 0 0 0-.43-.652h-.26a.47.47 0 0 0-.411.242l-1.217 2.204a.467.467 0 0 1-.211.197l-2.418 1.134c-.43.202-.854-.286-.591-.679l.788-1.178c.2-.298 0-.7-.361-.723l-.168-.01a.47.47 0 0 0-.419.206l-2.622 3.893a.468.468 0 0 1-.19.162l-2.826 1.326a.467.467 0 0 0-.169.134l-4.454 5.653-.763 1.044a.47.47 0 0 1-.83-.143l-.147-.507-.02-.125.163-7.571 4.033-5.065a.464.464 0 0 0 .108-.225l.755-4.25a.467.467 0 0 0-.462-.548h-.185a.468.468 0 0 0-.465.4l-.294 2.075a.47.47 0 0 1-.824.235l-2.143-2.543a.47.47 0 0 0-.36-.167h-.182a.466.466 0 0 0-.365.758l2.75 3.394a.464.464 0 0 1-.037.625l-3.616 3.89-3.75-4.017z"/>
            <g transform="translate(957.982 226.813)">
                <mask id="i" fill="#fff">
                    <use xlink:href="#h"/>
                </mask>
                <path fill="#0A6E31" d="M46.069 14.943H3.859a2.03 2.03 0 0 1-1.597-.774L.48 11.899a2 2 0 0 1-.116-2.311l1.068-1.68c.12-.189.208-.397.26-.615l.505-2.144A2.021 2.021 0 0 1 4.015 3.6l3.727-.28c.212-.016.426.001.633.051l5.674 1.375c.56.136 1.153.028 1.628-.297l2.52-1.723a11.788 11.788 0 0 1 4.02-1.76l2.59-.593a11.828 11.828 0 0 1 3.57-.263l2.97.234a11.795 11.795 0 0 1 6.535 2.62l.629.513c.19.155.35.344.472.556l.796 1.384c.232.403.598.715 1.035.88l2.897 1.1c.63.238 1.099.773 1.25 1.426.14.602.32 1.25.453 1.294.135.045.897.425 1.574.768a2.01 2.01 0 0 1 1.106 1.792v.254a2.015 2.015 0 0 1-2.025 2.011" mask="url(#i)"/>
            </g>
            <path fill="#0A6E31" d="M954.696 246.686h-42.56c-.446 0-.877-.159-1.214-.448l-5.356-4.58a1.841 1.841 0 0 1 .03-2.829l2.057-1.683c.284-.231.63-.375.996-.412l7.917-.797a1.863 1.863 0 0 0 1.374-.834l1.08-1.658a1.865 1.865 0 0 1 1.722-.837l13.357 1.137c.144.012.287.041.424.086l8.703 2.854c.213.07.438.1.662.091l3.416-.145a1.863 1.863 0 0 1 1.665.879l2.563 4.137a1.86 1.86 0 0 0 1.172.834l2.405.543c.847.191 1.449.94 1.449 1.803v.01c0 1.021-.834 1.849-1.862 1.849M932.788 232.481l-5.994-2.046a2.242 2.242 0 0 0-.724-.12h-5.069c-.254 0-.505-.044-.744-.128l-3.632-1.28a2.208 2.208 0 0 1-1.435-2.534 2.22 2.22 0 0 1 1.949-1.749l6.835-.707c.092-.01.184-.025.274-.046l7.29-1.683 5.592-1.577a22.13 22.13 0 0 1 12.373.105l4.812 1.447c.055.017.111.031.168.043l7.015 1.53c.494.108.936.38 1.254.77l3.001 3.689a2.2 2.2 0 0 1-.224 3.016l-.882.806c-.41.376-.949.584-1.507.584h-29.628c-.246 0-.49-.04-.724-.12"/>
            <path fill="#C19372" d="M678.304 196.31h.913c.377 0 .73.182.949.487l5.358 7.514c.15.211.368.366.618.44l6.623 1.952a1.165 1.165 0 0 0 1.372-.595l3.724-7.474c.08-.16.12-.335.12-.512v-1.525c0-.638.521-1.154 1.163-1.154h.12c.642 0 1.163.516 1.163 1.154v1.961c0 .12-.019.239-.056.353l-2.388 7.405c-.226.699.254 1.427.99 1.5l5.497.552c.504.051.983-.229 1.184-.69l3.357-7.732c.096-.221.12-.467.069-.702l-.488-2.228c-.157-.72.395-1.4 1.136-1.4h.566c.475 0 .902.287 1.079.726l.53 1.32a1.165 1.165 0 0 0 1.793.482l3.182-2.458c.204-.158.455-.243.714-.243h.007c1.112 0 1.589 1.401.705 2.071l-6.54 4.962a1.152 1.152 0 0 0-.428.66l-.877 3.81c-.194.844.583 1.592 1.427 1.373l13.327-3.46c.125-.032.243-.085.35-.156l6.456-4.275c.128-.085.237-.193.323-.32l3.019-4.498c.215-.322.578-.514.967-.514h.401c.88 0 1.44.932 1.023 1.701l-2.613 4.82a1.16 1.16 0 0 1-.36.402l-9.362 6.45a1.144 1.144 0 0 1-.22.119l-13.732 5.623a1.154 1.154 0 0 0-.719 1.09l1.22 61.572H694.58l1.221-61.676a1.154 1.154 0 0 0-.6-1.033l-11.115-6.093a1.159 1.159 0 0 1-.41-.377l-6.344-9.596c-.508-.768.047-1.788.971-1.788"/>
            <path fill="#0A6E31" d="M686.413 204.774h-19.92a1.649 1.649 0 0 1-1.411-.793l-.557-.923a1.646 1.646 0 0 0-1.18-.777l-3.203-.455a1.637 1.637 0 0 1-1.398-1.84l.094-.686a1.64 1.64 0 0 1 1.368-1.393l4.293-.691a1.65 1.65 0 0 0 .758-.333l3.055-2.402c.29-.228.65-.353 1.021-.353h15.002c.377 0 .742.128 1.034.363l3.455 2.772c.166.134.357.233.562.294l5.234 1.56c.533.16.95.575 1.106 1.105v.001a1.636 1.636 0 0 1-1.379 2.084l-5.14.626c-.488.06-.924.333-1.188.745l-.218.34a1.649 1.649 0 0 1-1.388.756"/>
            <path fill="#0A6E31" d="M673.457 182.569l12.8-3.553c.18-.05.367-.075.553-.075h21.982c.43 0 .848.134 1.196.382l6.702 4.78c.349.248.767.382 1.196.382h12.098c.739 0 1.42.395 1.785 1.033l2.21 3.874a2.053 2.053 0 0 0 1.785 1.033h4.372c.849 0 1.61.52 1.915 1.306l.415 1.073c.517 1.335-.475 2.77-1.914 2.77H725.31a2.06 2.06 0 0 0-.96.236l-2.475 1.302a2.06 2.06 0 0 1-.986.236l-29.458-.372a2.051 2.051 0 0 1-1.848-1.21l-.52-1.161a2.052 2.052 0 0 0-1.874-1.21h-12.967a2.058 2.058 0 0 1-1.45-.597l-4.373-4.361a1.461 1.461 0 0 1 .138-2.193l4.409-3.418c.152-.118.326-.205.511-.257"/>
            <path fill="#0A6E31" d="M752.428 202.822h-28.396a1.904 1.904 0 0 1-1.404-.617l-.714-.78a1.902 1.902 0 0 0-1.403-.617h-2.11c-1.426 0-2.342-1.504-1.68-2.759l.04-.077c.328-.62.975-1.01 1.68-1.01h6.08c.338 0 .669-.089.96-.258l4.457-2.596c.291-.17.622-.259.96-.259h14.798c.466 0 .917.171 1.264.48l2.423 2.153c.348.31.798.48 1.265.48h6.842c.47 0 .921.173 1.27.484l.582.52c1.112.995.683 2.816-.757 3.216l-5.646 1.57c-.167.046-.338.07-.511.07"/>
            <path fill="#FF7900" d="M846.994 282.04h68.16v-23.855h-68.16z"/>
            <path fill="#595959" d="M858.628 270.853h7.483v-8.266h-7.483zM896.036 270.853h7.483v-8.266h-7.483z"/>
            <path fill="#000" d="M886.113 282.044h-10.079v-14.238c0-2.762 2.255-5.002 5.036-5.002h.007c2.781 0 5.036 2.24 5.036 5.002v14.238z"/>
            <path fill="#B8EBD6" d="M845.988 258.342h70.19v-7.984h-70.19z"/>
            <path fill="#D6D6D6" d="M915.563 245.036c-.216 0-.468.085-.615.25-.148.163-.4.248-.616.248-.217 0-.469-.085-.616-.249-.147-.164-.399-.249-.615-.249-.218 0-.47.085-.616.25-.147.163-.4.248-.616.248-.217 0-.469-.085-.616-.249-.147-.164-.399-.249-.615-.249-.217 0-.469.085-.616.25-.147.163-.4.248-.616.248-.217 0-.468-.085-.616-.249-.146-.164-.398-.249-.615-.249-.217 0-.469.085-.616.25-.147.163-.399.248-.616.248-.217 0-.468-.085-.615-.249-.147-.164-.4-.249-.616-.249-.217 0-.469.085-.616.25-.147.163-.399.248-.616.248-.216 0-.468-.085-.615-.249-.147-.164-.399-.249-.616-.249-.217 0-.468.085-.616.25-.147.163-.399.248-.615.248-.217 0-.47-.085-.616-.249-.147-.164-.399-.249-.616-.249-.216 0-.468.085-.615.25-.148.163-.4.248-.616.248-.217 0-.469-.085-.616-.249-.147-.164-.399-.249-.615-.249-.217 0-.47.085-.616.25-.147.163-.399.248-.616.248-.217 0-.469-.085-.616-.249-.147-.164-.398-.249-.615-.249-.217 0-.469.085-.616.25-.147.163-.4.248-.616.248-.217 0-.469-.085-.616-.249-.147-.164-.398-.249-.615-.249-.217 0-.469.085-.616.25-.147.163-.399.248-.616.248-.216 0-.468-.085-.615-.249-.147-.164-.4-.249-.616-.249-.217 0-.469.085-.616.25-.147.163-.399.248-.616.248-.216 0-.468-.085-.615-.249-.147-.164-.399-.249-.616-.249-.217 0-.468.085-.616.25-.147.163-.398.248-.615.248-.217 0-.469-.085-.616-.249-.147-.164-.399-.249-.616-.249-.216 0-.468.085-.615.25-.148.163-.4.248-.616.248-.217 0-.469-.085-.616-.249-.147-.164-.399-.249-.615-.249-.217 0-.47.085-.616.25-.147.163-.399.248-.616.248-.217 0-.469-.085-.616-.249a.837.837 0 0 0-.615-.249.91.91 0 0 0-.168.016.805.805 0 0 0-.448.233c-.147.164-.399.249-.616.249-.217 0-.469-.085-.615-.249-.147-.164-.4-.249-.616-.249-.217 0-.469.085-.616.25-.147.163-.399.248-.616.248-.216 0-.468-.085-.615-.249-.147-.164-.4-.249-.616-.249-.217 0-.469.085-.616.25-.147.163-.399.248-.616.248-.216 0-.468-.085-.615-.249-.147-.164-.4-.249-.616-.249-.217 0-.468.085-.616.25-.147.163-.399.248-.615.248-.217 0-.47-.085-.616-.249-.147-.164-.399-.249-.616-.249-.216 0-.468.085-.615.25-.148.163-.4.248-.616.248-.217 0-.469-.085-.616-.249-.147-.164-.399-.249-.615-.249-.217 0-.47.085-.616.25-.147.163-.399.248-.616.248-.217 0-.469-.085-.616-.249-.147-.164-.399-.249-.615-.249-.217 0-.469.085-.616.25-.147.163-.399.248-.616.248-.217 0-.468-.085-.615-.249-.147-.164-.4-.249-.616-.249-.217 0-.469.085-.616.25-.147.163-.399.248-.616.248-.216 0-.468-.085-.615-.249-.147-.164-.4-.249-.616-.249-.217 0-.469.085-.616.25-.147.163-.398.248-.615.248-.217 0-.469-.085-.616-.249-.147-.164-.4-.249-.616-.249-.217 0-.468.085-.616.25-.147.163-.399.248-.615.248-.217 0-.469-.085-.616-.249-.147-.164-.399-.249-.616-.249-.216 0-.468.085-.615.25-.147.163-.4.248-.616.248-.217 0-.469-.085-.616-.249-.147-.164-.399-.249-.615-.249-.217 0-.47.085-.616.25-.147.163-.399.248-.616.248-.217 0-.469-.085-.615-.249-.148-.164-.4-.249-.616-.249-.217 0-.469.085-.616.25-.147.163-.399.248-.616.248-.217 0-.468-.085-.615-.249-.147-.164-.4-.249-.616-.249-.217 0-.469.085-.616.25-.147.163-.399.248-.616.248-.216 0-.468-.085-.615-.249-.147-.164-.4-.249-.616-.249-.217 0-.469.085-.616.25v14.642c.147-.164.4-.25.616-.25.217 0 .469.086.616.25.147.163.399.248.615.248.217 0 .47-.085.616-.248.147-.164.4-.25.616-.25.217 0 .469.086.616.25.147.163.398.248.615.248.217 0 .469-.085.616-.248.147-.164.399-.25.616-.25.217 0 .468.086.616.25.146.163.398.248.615.248.217 0 .469-.085.616-.248.147-.164.399-.25.616-.25.216 0 .468.086.615.25.147.163.4.248.616.248.217 0 .469-.085.616-.248.147-.164.399-.25.615-.25.217 0 .47.086.616.25.147.163.399.248.616.248.216 0 .468-.085.615-.248.148-.164.4-.25.616-.25.217 0 .469.086.616.25.147.163.399.248.616.248.217 0 .468-.085.615-.248.147-.164.399-.25.616-.25.217 0 .469.086.616.25.147.163.399.248.615.248.217 0 .47-.085.616-.248.147-.164.4-.25.616-.25.217 0 .469.086.616.25.147.163.398.248.615.248.217 0 .469-.085.616-.248.147-.164.399-.25.616-.25.216 0 .468.086.615.25.147.163.4.248.616.248.217 0 .469-.085.616-.248.147-.164.399-.25.616-.25.216 0 .468.086.615.25.147.163.4.248.616.248.217 0 .468-.085.616-.248.147-.164.399-.25.615-.25.217 0 .47.086.616.25.147.163.399.248.616.248.216 0 .468-.085.615-.248.148-.164.4-.25.616-.25.217 0 .469.086.616.25.147.163.399.248.615.248.217 0 .47-.085.616-.248.147-.164.4-.25.616-.25.217 0 .469.086.616.25.147.163.399.248.615.248.217 0 .469-.085.616-.248.147-.164.4-.25.616-.25.217 0 .469.086.616.25.146.163.398.248.615.248.217 0 .469-.085.616-.248a.807.807 0 0 1 .448-.233.937.937 0 0 1 .25-.012.837.837 0 0 1 .533.245c.147.163.4.248.616.248.217 0 .469-.085.616-.248.147-.164.399-.25.616-.25.216 0 .468.086.615.25.147.163.4.248.616.248.217 0 .468-.085.616-.248.147-.164.399-.25.615-.25.217 0 .47.086.616.25.147.163.399.248.616.248.217 0 .468-.085.615-.248.148-.164.4-.25.616-.25.217 0 .469.086.616.25.147.163.399.248.615.248.217 0 .47-.085.616-.248.147-.164.399-.25.616-.25.217 0 .469.086.616.25.147.163.399.248.615.248.217 0 .469-.085.616-.248.147-.164.399-.25.616-.25.217 0 .468.086.615.25.147.163.4.248.616.248.217 0 .469-.085.616-.248.147-.164.399-.25.616-.25.217 0 .468.086.615.25.147.163.4.248.616.248.217 0 .469-.085.616-.248.147-.164.399-.25.616-.25.216 0 .468.086.615.25.147.163.4.248.616.248.217 0 .468-.085.616-.248.147-.164.399-.25.615-.25.217 0 .47.086.616.25.147.163.399.248.616.248.216 0 .468-.085.615-.248.148-.164.4-.25.616-.25.217 0 .469.086.616.25.147.163.399.248.615.248.217 0 .47-.085.616-.248.147-.164.399-.25.616-.25.217 0 .469.086.616.25.147.163.398.248.615.248.217 0 .47-.085.616-.248.147-.164.399-.25.616-.25.217 0 .469.086.615.25.148.163.4.248.616.248.217 0 .469-.085.616-.248.147-.164.399-.25.616-.25.216 0 .468.086.615.25.147.163.4.248.616.248.217 0 .469-.085.616-.248.147-.164.398-.25.616-.25.216 0 .468.086.615.25.147.163.4.248.616.248.217 0 .468-.085.616-.248.147-.164.399-.25.615-.25.217 0 .47.086.616.25v-14.643c-.147-.164-.399-.249-.616-.249"/>
            <path fill="#8F8F8F" d="M847.22 259.928c-.147-.164-.4-.25-.616-.25-.217 0-.469.086-.616.25v-14.643c.147-.164.4-.249.616-.249.217 0 .469.085.616.25v14.642zM849.683 259.928c-.147-.164-.4-.25-.616-.25-.217 0-.469.086-.616.25v-14.643c.147-.164.4-.249.616-.249.217 0 .469.085.616.25v14.642zM852.145 259.928c-.147-.164-.399-.25-.615-.25-.217 0-.47.086-.616.25v-14.643c.147-.164.399-.249.616-.249.216 0 .468.085.615.25v14.642zM854.608 259.928c-.147-.164-.399-.25-.615-.25-.218 0-.47.086-.616.25v-14.643c.147-.164.398-.249.616-.249.216 0 .468.085.615.25v14.642zM857.071 259.928c-.147-.164-.399-.25-.616-.25-.216 0-.468.086-.615.25v-14.643c.147-.164.399-.249.615-.249.217 0 .47.085.616.25v14.642zM859.534 259.928c-.147-.164-.4-.25-.616-.25-.217 0-.469.086-.616.25v-14.643c.147-.164.4-.249.616-.249.217 0 .469.085.616.25v14.642zM861.997 259.928c-.148-.164-.4-.25-.616-.25-.217 0-.469.086-.616.25v-14.643c.147-.164.399-.249.616-.249.217 0 .468.085.616.25v14.642zM864.46 259.928c-.148-.164-.4-.25-.616-.25-.217 0-.47.086-.616.25v-14.643c.147-.164.399-.249.616-.249.216 0 .468.085.615.25v14.642zM866.922 259.928c-.147-.164-.399-.25-.615-.25-.217 0-.47.086-.616.25v-14.643c.147-.164.399-.249.616-.249.216 0 .468.085.615.25v14.642zM869.385 259.928c-.147-.164-.399-.25-.616-.25-.216 0-.468.086-.615.25v-14.643c.147-.164.399-.249.615-.249.217 0 .47.085.616.25v14.642zM871.848 259.928c-.147-.164-.4-.25-.616-.25-.217 0-.469.086-.616.25v-14.643c.147-.164.4-.249.616-.249.217 0 .469.085.616.25v14.642zM874.31 259.928c-.146-.164-.398-.25-.615-.25-.217 0-.469.086-.616.25v-14.643c.147-.164.4-.249.616-.249.217 0 .469.085.616.25v14.642zM876.773 259.928c-.146-.164-.398-.25-.615-.25-.217 0-.469.086-.616.25v-14.643c.147-.164.399-.249.616-.249.217 0 .469.085.615.25v14.642zM879.236 259.928c-.147-.164-.399-.25-.615-.25-.217 0-.47.086-.616.25v-14.643c.147-.164.399-.249.616-.249.216 0 .468.085.615.25v14.642zM881.699 259.928c-.147-.164-.399-.25-.616-.25-.216 0-.468.086-.615.25v-14.643c.147-.164.399-.249.615-.249.217 0 .47.085.616.25v14.642zM884.162 259.928c-.147-.164-.4-.25-.616-.25-.217 0-.469.086-.615.25v-14.643c.146-.164.398-.249.615-.249.217 0 .469.085.616.25v14.642zM886.625 259.928c-.147-.164-.4-.25-.616-.25-.217 0-.469.086-.616.25v-14.643c.147-.164.4-.249.616-.249.217 0 .469.085.616.25v14.642zM889.087 259.928c-.147-.164-.398-.25-.615-.25-.217 0-.469.086-.616.25v-14.643c.147-.164.399-.249.616-.249.217 0 .468.085.615.25v14.642zM891.55 259.928c-.147-.164-.399-.25-.615-.25-.217 0-.47.086-.616.25v-14.643c.147-.164.399-.249.616-.249.216 0 .468.085.615.25v14.642zM894.013 259.928c-.147-.164-.399-.25-.616-.25-.216 0-.468.086-.615.25v-14.643c.147-.164.399-.249.615-.249.217 0 .47.085.616.25v14.642zM896.476 259.928c-.147-.164-.399-.25-.616-.25-.217 0-.469.086-.615.25v-14.643c.146-.164.398-.249.615-.249.217 0 .469.085.616.25v14.642zM898.939 259.928c-.147-.164-.4-.25-.616-.25-.217 0-.469.086-.616.25v-14.643c.147-.164.4-.249.616-.249.217 0 .469.085.616.25v14.642zM901.401 259.928c-.147-.164-.398-.25-.615-.25-.217 0-.469.086-.616.25v-14.643c.147-.164.399-.249.616-.249.217 0 .468.085.615.25v14.642zM903.864 259.928c-.147-.164-.399-.25-.615-.25-.217 0-.47.086-.616.25v-14.643c.147-.164.399-.249.616-.249.216 0 .468.085.615.25v14.642zM906.327 259.928c-.147-.164-.399-.25-.616-.25-.216 0-.468.086-.615.25v-14.643c.147-.164.399-.249.615-.249.217 0 .47.085.616.25v14.642zM908.79 259.928c-.147-.164-.4-.25-.616-.25-.217 0-.469.086-.616.25v-14.643c.147-.164.4-.249.616-.249.217 0 .469.085.616.25v14.642zM911.253 259.928c-.147-.164-.4-.25-.616-.25-.217 0-.469.086-.616.25v-14.643c.147-.164.4-.249.616-.249.217 0 .469.085.616.25v14.642zM913.715 259.928c-.147-.164-.398-.25-.615-.25-.217 0-.469.086-.616.25v-14.643c.147-.164.399-.249.616-.249.217 0 .468.085.615.25v14.642zM916.178 259.928c-.147-.164-.399-.25-.615-.25-.217 0-.47.086-.616.25v-14.643c.147-.164.399-.249.616-.249.216 0 .468.085.615.25v14.642z"/>
            <path fill="#000" d="M914.948 259.633c-.147.164-.4.248-.616.248-.217 0-.469-.084-.616-.248-.147-.164-.399-.25-.615-.25-.217 0-.47.086-.616.25-.147.164-.4.248-.616.248-.217 0-.469-.084-.616-.248-.147-.164-.398-.25-.616-.25-.216 0-.468.086-.615.25-.147.164-.399.248-.616.248-.217 0-.468-.084-.616-.248-.147-.164-.399-.25-.615-.25-.217 0-.469.086-.616.25-.147.164-.399.248-.616.248-.216 0-.468-.084-.615-.248-.148-.164-.4-.25-.616-.25-.217 0-.469.086-.616.25-.147.164-.399.248-.616.248-.216 0-.468-.084-.615-.248-.147-.164-.399-.25-.616-.25-.217 0-.468.086-.615.25-.148.164-.4.248-.616.248-.217 0-.47-.084-.616-.248-.147-.164-.399-.25-.616-.25-.217 0-.468.086-.615.25-.147.164-.4.248-.616.248-.217 0-.469-.084-.616-.248-.147-.164-.399-.25-.615-.25-.217 0-.47.086-.616.25-.147.164-.4.248-.616.248-.217 0-.469-.084-.616-.248-.147-.164-.398-.25-.616-.25-.216 0-.468.086-.615.25-.147.164-.399.248-.616.248-.217 0-.468-.084-.616-.248-.146-.164-.398-.25-.615-.25-.217 0-.469.086-.616.25-.147.164-.399.248-.616.248-.216 0-.468-.084-.615-.248-.147-.164-.4-.25-.616-.25-.217 0-.469.086-.616.25-.147.164-.399.248-.615.248-.217 0-.47-.084-.616-.248-.147-.164-.399-.25-.616-.25-.217 0-.468.086-.616.25-.147.164-.398.248-.615.248-.217 0-.469-.084-.616-.248-.147-.164-.399-.25-.616-.25-.217 0-.468.086-.615.25-.147.164-.4.248-.616.248-.217 0-.469-.084-.616-.248-.147-.164-.399-.25-.615-.25-.217 0-.47.086-.616.25-.147.164-.4.248-.616.248-.217 0-.469-.084-.616-.248a.837.837 0 0 0-.615-.25.905.905 0 0 0-.167.017.807.807 0 0 0-.449.233c-.147.164-.4.248-.616.248-.217 0-.468-.084-.616-.248-.146-.164-.398-.25-.615-.25-.217 0-.469.086-.616.25-.147.164-.399.248-.616.248-.216 0-.468-.084-.615-.248-.147-.164-.4-.25-.616-.25-.217 0-.469.086-.616.25-.147.164-.399.248-.615.248-.217 0-.47-.084-.616-.248-.147-.164-.399-.25-.616-.25-.217 0-.468.086-.615.25-.148.164-.4.248-.616.248-.217 0-.469-.084-.616-.248-.147-.164-.399-.25-.616-.25-.216 0-.468.086-.615.25-.147.164-.4.248-.616.248-.217 0-.469-.084-.616-.248-.147-.164-.399-.25-.615-.25-.217 0-.47.086-.616.25-.147.164-.4.248-.616.248-.217 0-.469-.084-.616-.248-.147-.164-.398-.25-.615-.25-.217 0-.469.086-.616.25-.147.164-.399.248-.616.248-.217 0-.468-.084-.616-.248-.146-.164-.398-.25-.615-.25-.217 0-.469.086-.616.25-.147.164-.399.248-.616.248-.216 0-.468-.084-.615-.248-.147-.164-.4-.25-.616-.25-.217 0-.469.086-.616.25-.147.164-.399.248-.615.248-.217 0-.47-.084-.616-.248-.147-.164-.399-.25-.616-.25-.217 0-.468.086-.615.25-.148.164-.4.248-.616.248-.217 0-.469-.084-.616-.248-.147-.164-.399-.25-.616-.25-.216 0-.468.086-.615.25-.147.164-.4.248-.616.248-.217 0-.469-.084-.616-.248-.147-.164-.399-.25-.615-.25-.217 0-.47.086-.616.25-.147.164-.399.248-.616.248-.217 0-.469-.084-.615-.248-.148-.164-.4-.25-.616-.25-.217 0-.469.086-.616.25-.147.164-.4.248-.616.248-.217 0-.468-.084-.616-.248-.146-.164-.398-.25-.615-.25-.217 0-.469.086-.616.25-.147.164-.399.248-.616.248-.216 0-.468-.084-.615-.248-.147-.164-.4-.25-.616-.25-.217 0-.469.086-.616.25v.295c.147-.164.4-.25.616-.25.217 0 .469.086.616.25.147.164.399.248.615.248.217 0 .47-.084.616-.248.147-.164.399-.25.616-.25.217 0 .469.086.615.25.148.164.4.248.616.248.217 0 .469-.084.616-.248.147-.164.399-.25.616-.25.217 0 .468.086.616.25.146.164.398.248.615.248.217 0 .469-.084.616-.248.147-.164.399-.25.616-.25.216 0 .468.086.615.25.147.164.4.248.616.248.217 0 .469-.084.616-.248.147-.164.399-.25.615-.25.217 0 .469.086.616.25.147.164.399.248.616.248.217 0 .468-.084.616-.248.147-.164.398-.25.615-.25.217 0 .469.086.616.25.147.164.399.248.616.248.216 0 .468-.084.615-.248.147-.164.4-.25.616-.25.217 0 .469.086.616.25.147.164.399.248.615.248.217 0 .47-.084.616-.248.147-.164.399-.25.616-.25.217 0 .469.086.615.25.148.164.4.248.616.248.217 0 .469-.084.616-.248.147-.164.399-.25.616-.25.217 0 .468.086.615.25.147.164.4.248.616.248.217 0 .469-.084.616-.248.147-.164.399-.25.616-.25.216 0 .468.086.615.25.147.164.4.248.616.248.217 0 .469-.084.616-.248.147-.164.399-.25.615-.25.217 0 .469.086.616.25.147.164.399.248.616.248.217 0 .468-.084.616-.248.147-.164.398-.25.615-.25.217 0 .469.086.616.25.147.164.399.248.616.248.216 0 .468-.084.615-.248.147-.164.4-.25.616-.25.217 0 .469.086.616.25.147.164.399.248.615.248.217 0 .469-.084.616-.248.147-.164.399-.25.616-.25.217 0 .469.086.615.25.148.164.4.248.616.248.217 0 .469-.084.616-.248a.807.807 0 0 1 .449-.233.905.905 0 0 1 .25-.012.837.837 0 0 1 .532.245c.147.164.4.248.616.248.217 0 .469-.084.616-.248.147-.164.399-.25.616-.25.216 0 .468.086.615.25.147.164.4.248.616.248.217 0 .469-.084.616-.248.147-.164.398-.25.615-.25.217 0 .469.086.616.25.147.164.399.248.616.248.217 0 .468-.084.615-.248.148-.164.4-.25.616-.25.217 0 .469.086.616.25.147.164.399.248.616.248.216 0 .468-.084.615-.248.147-.164.4-.25.616-.25.217 0 .469.086.616.25.147.164.399.248.615.248.217 0 .47-.084.616-.248.147-.164.399-.25.616-.25.217 0 .469.086.615.25.148.164.4.248.616.248.217 0 .469-.084.616-.248.147-.164.399-.25.615-.25.218 0 .47.086.616.25.147.164.4.248.616.248.217 0 .469-.084.616-.248.147-.164.399-.25.616-.25.216 0 .468.086.615.25.147.164.4.248.616.248.217 0 .469-.084.616-.248.147-.164.398-.25.615-.25.217 0 .469.086.616.25.147.164.399.248.616.248.217 0 .468-.084.616-.248.147-.164.398-.25.615-.25.217 0 .469.086.616.25.147.164.399.248.615.248.217 0 .47-.084.616-.248.147-.164.4-.25.616-.25.217 0 .468.086.616.25.147.164.399.248.615.248.217 0 .47-.084.616-.248.147-.164.399-.25.616-.25.216 0 .468.086.615.25.148.164.4.248.616.248.217 0 .469-.084.616-.248.147-.164.399-.25.615-.25.218 0 .47.086.616.25.147.164.4.248.616.248.217 0 .469-.084.616-.248.147-.164.399-.25.616-.25.216 0 .468.086.615.25.147.164.4.248.616.248.217 0 .469-.084.616-.248.147-.164.398-.25.615-.25.217 0 .469.086.616.25v-.295c-.147-.164-.399-.25-.616-.25-.217 0-.468.086-.615.25"/>
            <path fill="#D6D6D6" d="M845.988 246.054h70.19v-1.538h-70.19z"/>
            <path fill="#FFF" d="M819.858 284.613h43.063v-32.497h-43.063z"/>
            <path fill="#FF7900" d="M847.548 237.193H835.23l-19.509 15.174h51.336z"/>
            <path fill="#000" d="M854.814 284.614H843.32v-20.522c0-3.153 2.573-5.708 5.747-5.708s5.747 2.555 5.747 5.708v20.522z"/>
            <path fill="#FFB400" d="M835.97 237.896l-16.805 13.769h1.714zM837.521 237.896l-12.818 13.769h2.042zM839.046 238.047l-7.934 13.617h2.123zM840.379 238.047l-3.674 13.617h2.34zM841.935 238.047l.389 13.617h1.988zM843.808 238.047l4.845 13.617h2.507zM845.604 237.896l8.82 13.769h1.877zM847.4 237.896l14.017 13.769h1.908z"/>
            <path fill="#0A6E31" d="M766.098 259.487l-.63 24.083h1.313zM771.568 262.977l-.538 20.593h1.122zM778.311 259.487l.63 24.083h-1.313zM783.417 262.977l-.538 20.593H784zM789.796 259.487l-.63 24.083h1.313zM795.577 262.977l.539 20.593h-1.123zM801.645 259.487l-.63 24.083h1.312zM807.115 262.977l-.539 20.593h1.122zM813.857 259.487l.63 24.083h-1.312z"/>
            <path fill="#FFF" d="M700.316 288.994h61.229v-45.832h-61.229z"/>
            <path fill="#FF7900" d="M739.688 222.116h-17.515l-27.738 21.401h72.99z"/>
            <path fill="#000" d="M733.625 289H712.39v-26.928c0-5.823 4.752-10.543 10.614-10.543h.008c5.862 0 10.614 4.72 10.614 10.543V289z"/>
            <path fill="#FFB400" d="M722.598 223.176l-23.48 19.08h2.396zM724.765 223.176l-17.908 19.08h2.852zM726.894 223.386l-11.083 18.87h2.966zM728.757 223.386l-5.133 18.87h3.27zM730.93 223.386l.544 18.87h2.778zM733.548 223.386l6.77 18.87h3.501zM736.057 223.176l12.322 19.08h2.623zM738.567 223.176l19.582 19.08h2.665z"/>
            <path fill="#B8EBD6" d="M970.14 258.949a.44.44 0 0 1-.409-.598.445.445 0 0 1 .57-.248c.04.016.06.06.044.1-.016.04-.062.055-.1.043a.286.286 0 0 0-.371.16.286.286 0 0 0 .162.37.29.29 0 0 0 .372-.161c.016-.04.06-.06.1-.043.039.015.058.06.043.099a.443.443 0 0 1-.412.278"/>
        </g>
        <path fill="#FFF" d="M436.697 216.546l.365 1.494c1.82-2.752 2.97-5.994 3.772-9.146 2.478-9.74 1.98-19.945 2.132-29.902.172-11.306.274-22.965-2.858-33.914-13.681 7.852-18.994 8.507-31.43 18.466-14.736 23.202-44.517 63.244-44.517 63.244l29.746 13.429 24.926-27.116c7.207-8.989 13.618-7.265 17.864 3.445M509.162 217.304l-.366 1.494c-1.819-2.751-2.969-5.994-3.77-9.147-2.479-9.738-1.982-19.943-2.133-29.9-.172-11.307-.274-22.965 2.858-33.915 13.68 7.852 18.994 8.507 31.43 18.466 14.736 23.203 44.517 63.244 44.517 63.244l-28.122 13.442-26.55-27.13c-7.207-8.988-13.618-7.264-17.864 3.446"/>
        <g transform="translate(433.455 126.784)">
            <mask id="k" fill="#fff">
                <use xlink:href="#j"/>
            </mask>
            <path fill="#FFF" d="M67.446 46.49c-1.696-6.856-2.186-13.808-2.581-20.837-.217-3.857-.527-7.72-.73-11.58-6.25-3.925-12.26-8.238-17.904-13.115a5.081 5.081 0 0 1-.554-.564c-1.99.346-7.038 1.06-12.312 1.132-5.245 3.334-10.543 6.648-15.923 9.821-.083 3.4-.391 6.797-.841 10.168-.889 6.66-2.298 13.235-3.658 19.81-1.034 4.994-1.893 10.028-3.23 14.953-1.795 6.617-4.447 14.59-9.7 19.548l3.809 74.78 1.542 44.361 58.58 1.85L76.032 67.748a87.247 87.247 0 0 1-1.571-2.862c-3.045-5.829-5.434-12.01-7.014-18.396" mask="url(#k)"/>
        </g>
        <path fill="#4BB4E7" d="M438.895 144.85l-9.026 58.429-.087 54.034s21.6 28.062 30.816 5.382c4.716-11.604 1.959-83.222 1.959-83.222l-6.784-44.267c-5.536 3.372-11.151 6.632-16.878 9.644M491.45 136.813l.016 2.705-2.023 45.12s-.271 73.795 2.675 82.023c5.797 16.197 20.106-3.166 20.106-3.166l1.474-59.396-7.138-57.946c-5.18-2.883-10.236-5.968-15.11-9.34"/>
        <path fill="#FFF" d="M458.12 136.702l3.252-8.82s2.712.144 3.146 1.231c.433 1.088 9.224 23.598 9.224 23.598s8.656-12.237 8.309-13.937l-1.676-11.391s3.976-2.342 5.264-.06c1.287 2.283 3.495 10.48 3.495 10.48l.866 3.87-5.074 33.365-7.907-16.006-4.885.38s-6.116 17.06-6.549 15.972c-.378-.948-5.44-24.631-6.95-31.14-.23-.989-.807-6.57-.515-7.542"/>
        <path fill="#62352E" d="M485.697 107.159s-1.923 24.08-1.867 30.743c.016 1.875-3.708 8.537-6.437 13.163-1.318 2.234-4.487 2.396-6.024.307l-9.558-12.989s1.835-16.718.97-32.06c0 0 15.175 18.091 22.916.836"/>
        <path fill="#010101" d="M492.448 140.428l-.108.568c-.143.744.375 1.58 1.149 1.692.776.113 1.54-.353 1.692-1.149l.108-.569c.142-.742-.375-1.579-1.15-1.691-.775-.113-1.539.353-1.691 1.15M492.877 154.572l-.651 3.41c-.35 1.828 2.492 2.373 2.841.542l.65-3.41c.35-1.828-2.49-2.373-2.84-.542M492.105 175.012l-.65 3.41c-.35 1.828 2.491 2.374 2.84.542l.651-3.41c.35-1.828-2.491-2.372-2.84-.542M491.912 185.04l-.65 3.41c-.35 1.828 2.491 2.373 2.84.542l.652-3.41c.349-1.828-2.492-2.373-2.842-.542M493.262 145.508l-.65 3.41c-.35 1.828 2.491 2.374 2.84.542.218-1.136.434-2.273.651-3.41.35-1.828-2.491-2.373-2.84-.542M492.095 163.343l-.313 5.229c-.047.786.313 1.523 1.15 1.692.69.139 1.644-.37 1.691-1.15l.314-5.229c.047-.785-.313-1.522-1.15-1.691-.69-.14-1.645.37-1.692 1.15M490.894 195.288l.135 2.381c.042.756.795 1.422 1.557 1.326.794-.099 1.372-.748 1.326-1.558l-.134-2.38c-.042-.757-.795-1.422-1.558-1.327-.793.1-1.371.749-1.326 1.558M492.857 207.41l.096 5.334c.033 1.86 2.917 1.625 2.883-.233l-.095-5.332c-.033-1.86-2.917-1.626-2.884.232M493.199 220.826c.251 1.12.096 2.25-.26 3.326-.247.742.453 1.559 1.15 1.692.85.162 1.444-.405 1.69-1.15.528-1.591.51-3.212.147-4.834-.171-.762-1.173-1.12-1.846-.88-.809.286-1.052 1.08-.881 1.846M493.81 232.929l.199 4.765c.077 1.86 2.961 1.63 2.884-.231l-.199-4.766c-.077-1.86-2.961-1.63-2.884.232M494.026 246.547l.586 5.455c.197 1.846 3.083 1.626 2.883-.232-.194-1.819-.39-3.637-.585-5.455-.198-1.846-3.083-1.626-2.884.232M495.165 259.13l.485 3.627c.246 1.835 3.133 1.62 2.884-.233l-.485-3.626c-.246-1.836-3.132-1.62-2.884.232M497.977 268.328c1.313.547 2.74.62 4.074.09.725-.289 1.149-1.09.88-1.846-.253-.716-1.117-1.171-1.846-.881-.619.246-1.237.288-1.83.041-.72-.3-1.577-.073-1.937.659-.328.668-.065 1.635.659 1.937M505.99 266.2c.641-.27 1.282-.542 1.923-.811.695-.294 1.185-1.093.88-1.847-.28-.691-1.1-1.195-1.847-.88l-1.92.81c-.697.294-1.186 1.093-.882 1.847.28.691 1.101 1.195 1.847.88M509.84 260.657l.568.108c.743.142 1.58-.376 1.692-1.15.112-.775-.354-1.54-1.15-1.691l-.568-.108c-.743-.142-1.58.375-1.692 1.15-.112.775.353 1.538 1.15 1.69M451.512 142.802l.977 3.754c.196.756 1.155 1.127 1.846.881.789-.28 1.078-1.087.88-1.846l-.976-3.755c-.196-.757-1.155-1.126-1.846-.88-.789.278-1.078 1.087-.88 1.846M454.526 155.125l1.28 5.012c.461 1.802 3.186.829 2.728-.966l-1.28-5.012c-.461-1.802-3.186-.83-2.728.966M456.544 165.871l.702 2.49c.212.752 1.145 1.13 1.847.881.776-.275 1.092-1.092.88-1.846l-.702-2.49c-.211-.752-1.144-1.13-1.846-.881-.777.275-1.094 1.092-.88 1.846M457.123 174.742l.702 2.49c.211.752 1.144 1.13 1.846.88.777-.275 1.093-1.091.88-1.846l-.701-2.49c-.212-.752-1.145-1.13-1.847-.88-.776.275-1.093 1.09-.88 1.846M457.494 183.874c.25.931.154 1.848-.132 2.758-.236.746.445 1.557 1.149 1.691.842.162 1.456-.4 1.692-1.149.442-1.404.397-2.855.018-4.266-.202-.754-1.15-1.127-1.846-.88-.784.277-1.084 1.089-.88 1.846M457.999 194.335l.378 4.195c.166 1.85 3.051 1.628 2.884-.232l-.378-4.195c-.167-1.851-3.051-1.628-2.884.232M458.44 207.388l.594 3.058c.148.767.717 1.393 1.558 1.326.712-.056 1.476-.787 1.326-1.558l-.594-3.058c-.149-.767-.717-1.393-1.558-1.326-.712.057-1.476.787-1.326 1.558M458.95 216.35l.459.678c.426.626 1.383.85 2.01.383.628-.468.837-1.34.383-2.01l-.46-.676c-.425-.626-1.382-.85-2.009-.383-.629.468-.838 1.34-.383 2.009M458.803 224.116l-.434 2.273c-.142.743.375 1.58 1.15 1.692.776.112 1.539-.353 1.69-1.15.146-.757.29-1.515.435-2.273.142-.743-.376-1.58-1.15-1.69-.776-.114-1.54.351-1.691 1.148M456.902 240.244l-.651 3.41c-.35 1.828 2.491 2.373 2.84.542l.652-3.41c.35-1.828-2.492-2.373-2.841-.542M455.333 251.542c.061.859-.178 1.637-.729 2.302-1.188 1.434.99 3.338 2.18 1.902a6.186 6.186 0 0 0 1.433-4.436c-.131-1.855-3.016-1.63-2.884.232M451.667 261.45c0 .003.023.383.032.242.01-.157-.044.199-.056.234.064-.2-.023.028-.07.102-.13.208.209-.218-.082.11-.04.046-.153.16-.039.06 0 0-.3.204-.2.151.111-.06-.199.074-.236.083.227-.054-.17-.006-.208-.006-.782.006-1.385.82-1.326 1.558.066.826.775 1.332 1.558 1.326 2.063-.015 3.797-2.056 3.51-4.091-.108-.774-.745-1.39-1.557-1.326-.745.059-1.435.781-1.326 1.558M444.831 262.596l-2.054-1.572c-.601-.46-1.532-.498-2.042.139-.463.579-.503 1.55.139 2.04l2.055 1.572c.6.46 1.532.498 2.041-.138.464-.58.503-1.55-.139-2.041M435.361 254.782l-1.59-.904c-.659-.375-1.637-.028-1.937.658-.33.754-.046 1.536.659 1.937l1.59.904c.659.375 1.637.028 1.937-.658.33-.754.046-1.536-.659-1.937"/>
        <path fill="#D6D6D6" d="M368.49 219.56l26.547 15.19c2.028 1.248 1.715 4.02.804 6.222-1.26 3.045-2.603 5.359-6.061 7.653-4.65 3.083-21.74-9.089-29.277-14.786a5.322 5.322 0 0 1-1.447-6.825c1.304-2.35 2.132-3.36 3.704-5.63 1.472-2.126 3.527-3.182 5.73-1.825"/>
        <g transform="translate(343.785 233.81)">
            <mask id="m" fill="#fff">
                <use xlink:href="#l"/>
            </mask>
            <path fill="#725048" d="M16.718.03S-.863 24.83.47 33.83c.742 5.01 11.693 25.984 74.427-16.334 0 0 1.774 2.127 13.364 3.898 13.364 2.042 8.724 2.413 8.724 2.413s-.928 5.197 6.867 5.012c5.166-.124 8.804-5.841 5.329-7.927 0 0 5.962-6.902.053-9.335 0 0-4.493-3.964-3.526-8.353L74.527 2.091s-31.78 13.233-40.673 15.076l4.432-2.805L16.718.03z" mask="url(#m)"/>
        </g>
        <path fill="#D6D6D6" d="M413.188 164.18l1.731 2.317c.467.625 1.251.945 1.98.518.615-.36.988-1.349.518-1.978l-1.731-2.317c-.467-.625-1.251-.945-1.98-.519-.615.36-.988 1.35-.518 1.979M418.24 172.533a7.374 7.374 0 0 0 2.048 3.571c1.339 1.294 3.387-.749 2.045-2.046a4.582 4.582 0 0 1-1.304-2.294c-.435-1.809-3.225-1.043-2.789.769M421.717 180.048l1.692 4.644c.633 1.735 3.429.985 2.79-.77-.565-1.547-1.13-3.095-1.693-4.643-.632-1.735-3.429-.986-2.79.769M425.297 190.82l1.736 4.05c.308.717 1.364.878 1.979.518.742-.433.828-1.257.519-1.978l-1.737-4.05c-.308-.718-1.364-.878-1.978-.519-.743.435-.828 1.259-.52 1.98"/>
        <path fill="#505052" d="M428.18 200.082c.42.868.497 1.786.386 2.733-.09.777.73 1.447 1.447 1.447.857 0 1.355-.668 1.446-1.447.171-1.462-.145-2.878-.782-4.193-.34-.703-1.342-.891-1.979-.52-.718.42-.86 1.273-.518 1.98"/>
        <path fill="#D6D6D6" d="M577.37 220.317l-26.548 15.19c-2.028 1.25-1.715 4.022-.805 6.223 1.26 3.046 2.604 5.36 6.062 7.652 4.649 3.084 21.741-9.088 29.277-14.785a5.322 5.322 0 0 0 1.447-6.825c-1.304-2.35-2.132-3.36-3.704-5.63-1.472-2.126-3.528-3.182-5.73-1.825"/>
        <g transform="translate(490.149 234.388)">
            <mask id="o" fill="#fff">
                <use xlink:href="#n"/>
            </mask>
            <path fill="#725048" d="M95.207.21s17.581 24.8 16.248 33.8c-.743 5.01-11.693 25.984-74.428-16.334 0 0-1.772 2.127-13.363 3.898-13.364 2.041-8.724 2.413-8.724 2.413s.928 5.196-6.867 5.01c-5.166-.122-8.805-5.84-5.329-7.925 0 0-5.963-6.902-.054-9.335 0 0 4.494-3.965 3.527-8.353L37.398 2.27s31.78 13.233 40.673 15.077l-4.433-2.806L95.208.21z" mask="url(#o)"/>
        </g>
        <path fill="#D6D6D6" d="M532.67 164.938l-1.73 2.317c-.467.625-1.251.945-1.98.519-.615-.36-.989-1.35-.518-1.979l1.731-2.317c.466-.625 1.25-.945 1.979-.52.615.361.988 1.35.519 1.98M527.619 173.291a7.375 7.375 0 0 1-2.048 3.57c-1.339 1.295-3.387-.747-2.046-2.044a4.573 4.573 0 0 0 1.304-2.295c.436-1.809 3.226-1.043 2.79.77M524.142 180.806l-1.692 4.643c-.633 1.736-3.43.986-2.79-.769l1.693-4.643c.632-1.735 3.429-.986 2.79.77M520.562 191.578l-1.736 4.05c-.308.718-1.364.878-1.979.518-.742-.434-.828-1.258-.519-1.979l1.737-4.049c.307-.718 1.364-.878 1.979-.518.742.433.827 1.257.518 1.978"/>
        <path fill="#505052" d="M517.679 200.84c-.42.868-.498 1.786-.386 2.733.09.777-.73 1.447-1.447 1.447-.857 0-1.355-.668-1.446-1.447-.171-1.462.145-2.879.782-4.193.34-.703 1.342-.891 1.978-.52.718.42.86 1.274.519 1.98"/>
        <path fill="#62352E" d="M444.402 73.387c-.322-3.33-3.882-5.734-7.215-5.466-.805.064-1.638.273-2.23.823-.776.72-.977 1.86-1.058 2.917-.476 6.165 1.583 12.243 4.085 17.898.97 2.192 2.151 4.503 4.29 5.588.786.4 1.778.59 2.525.122.448-.281.736-.754.989-1.22a20.62 20.62 0 0 0 2.179-6.203M498.574 76.406a15.849 15.849 0 0 1 3.698-7.064c.373-.41.796-.816 1.334-.947.466-.113.958-.002 1.405.173 1.78.696 3.047 2.367 3.651 4.18.605 1.813.626 3.766.514 5.674A43.296 43.296 0 0 1 505 94.57c-.525 1.095-1.125 2.2-2.086 2.94-.962.741-2.377 1.02-3.394.359-1.098-.716-1.356-2.185-1.515-3.485"/>
        <path fill="#171717" d="M442.018 81.214c-1.07-14.04-7.991-67.177-6.205-70.593C438.684 5.13 459.175.56 472.885.56c11.962 0 36.572 12.145 37.693 14.823.905 2.163-5.91 57.481-8.648 70.421a289.183 289.183 0 0 0-44.453.145"/>
        <path fill="#725048" d="M465.41 126.431c2.412 2.727 10.234 2.85 13.039.53 15.438-12.777 23.713-35.256 23.713-37.63 0-7.725-2.82-44.256-5.762-49.038-1.575-2.56-13.493 3.508-25.02 3.145-10.012-.316-20.117-6.395-22.852-3.145 0 0-7.063 38.737-5.959 44.623.333 1.775-1.267 14.268 22.84 41.515"/>
        <path fill="#62352E" d="M488.758 102.462l-.28-.406c-.169-.25-.415-.578-.696-.937-.598-.726-1.22-1.537-2.206-2.68 0 0 .172-.075.487-.104.314-.032.775.01 1.278.258.5.242 1.025.718 1.35 1.415.326.687.421 1.62.067 2.454M457.616 102.176c.023.024-.42-.55-.166-1.5.123-.449.43-.936.913-1.23.472-.295 1.15-.359 1.66-.001 0 0-.436.515-.73 1.01-.163.247-.323.48-.578.706-.248.24-.617.449-1.1 1.015M481.455 107.276l-.3.346c-.199.222-.486.56-.896.936a13.37 13.37 0 0 1-3.842 2.585c-.891.376-1.906.684-3.012.826a10.803 10.803 0 0 1-3.49-.117c-2.388-.477-4.779-1.792-6.484-3.843 0 0 .136.068.386.18.25.111.617.269 1.086.448.939.357 2.29.81 3.937 1.094 1.647.286 3.583.384 5.706.009 2.127-.36 4.442-1.21 6.909-2.464M463.044 73.123l-1.033-.6c-.656-.373-1.59-.929-2.77-1.317a6.827 6.827 0 0 0-1.937-.338c-.705-.023-1.472.049-2.282.133-.805.085-1.628.186-2.434.401-.8.216-1.598.547-2.236 1.157l.148-.249a3.39 3.39 0 0 1 .554-.638c.538-.51 1.523-1.054 2.803-1.366a15.415 15.415 0 0 1 2.098-.365c.763-.077 1.624-.093 2.505.12.875.21 1.716.628 2.473 1.168.76.54 1.445 1.194 2.11 1.894M493.236 73.123l-1.033-.6c-.656-.373-1.59-.929-2.77-1.317a6.827 6.827 0 0 0-1.937-.338c-.705-.023-1.472.049-2.282.133-.805.085-1.628.186-2.433.401-.801.216-1.599.547-2.237 1.157l.149-.249c.107-.157.277-.39.553-.638.538-.51 1.523-1.054 2.803-1.366a15.43 15.43 0 0 1 2.098-.365c.763-.077 1.624-.093 2.505.12.875.21 1.715.628 2.473 1.168.761.54 1.445 1.194 2.11 1.894M470.79 76.816c.087-.627-.81-.836-1.011-.236a987.126 987.126 0 0 1-2.662 7.818c-1.05 3.033-1.872 8.577-.715 9.734s3.688 3.5 8.767-.21c3.343-2.44-3.685-1.029-5.227-1.993-.991-.62.007-9.115.847-15.113"/>
        <g transform="translate(401.636 196.784)">
            <mask id="q" fill="#fff">
                <use xlink:href="#p"/>
            </mask>
            <path fill="#656464" d="M130.04 79.256H8.795a8.222 8.222 0 0 1-8.221-8.221V8.415A8.221 8.221 0 0 1 8.796.193H130.04c4.54 0 8.222 3.68 8.222 8.222v62.62a8.222 8.222 0 0 1-8.222 8.221" mask="url(#q)"/>
        </g>
        <g transform="translate(403.372 200.256)">
            <mask id="s" fill="#fff">
                <use xlink:href="#r"/>
            </mask>
            <path fill="#9B9B9B" d="M126.812 75.785H8.334a8.222 8.222 0 0 1-8.222-8.221V8.63A8.222 8.222 0 0 1 8.334.41h118.478a8.222 8.222 0 0 1 8.221 8.221v58.934a8.222 8.222 0 0 1-8.221 8.221" mask="url(#s)"/>
        </g>
        <path stroke="#FFF" stroke-width="3" d="M485.283 237.027c0 6.505-6.302 11.778-14.077 11.778s-14.077-5.273-14.077-11.778c0-6.505 6.302-11.779 14.077-11.779s14.077 5.274 14.077 11.779z"/>
        <path fill="#62352E" d="M458.566 101.277c4.964 1.405 9.4 2.386 14.601 2.108 4.604-.246 9.696-1.034 13.879-3.015.42-.199.113-.81-.303-.72-2.241.497-4.256 1.22-6.545 1.594-2.51.411-5.004.79-7.548.89-4.812.188-9.155-.799-13.792-1.916-.687-.166-.974.866-.292 1.059"/>
        <path fill="#725048" d="M503.586 86.012c.354-2.147.82-4.285 1.48-6.36.197-.617.568-2.808 1.387-2.02.695.668.106 3.022.1 3.895-.002.375.538.538.72.195.652-1.224 1.169-6.906-1.492-6.031-1.268.417-1.604 2.565-1.921 3.629a34.15 34.15 0 0 0-1.259 6.558c-.053.557.893.692.985.134M443.577 84.44c-.757-2.44-1.317-4.984-2.363-7.324-.497-1.111-1.324-2.524-2.692-2.658-3.584-.35-1.77 6.352-1.227 7.93.198.573 1.209.532 1.133-.153-.13-1.164-.416-2.298-.61-3.453-.09-.538-.322-1.213-.254-1.745.231-1.806 1.584-1.455 2.346-.206 1.38 2.26 2.245 5.286 2.726 7.868.114.611 1.13.349.941-.26"/>
        <path stroke="#848484" d="M440.475 65.82s-2.503 14.571 1.703 17.723c4.208 3.152 16.465 5.236 22.182 2.597 5.717-2.64 3.594-18.05 3.594-18.05s-9.151-8.826-27.479-2.27zM501.622 64.488s7.229 12.628-.532 20.56c-3.676 3.756-16.549 3.956-22.357 1.525-5.808-2.432-4.243-17.908-4.243-17.908s9.438-8.6 27.132-4.177z"/>
        <path fill="#FFF" d="M440.475 65.82s-2.503 14.571 1.703 17.723c4.208 3.152 16.465 5.236 22.182 2.597 5.717-2.64 3.594-18.05 3.594-18.05s-9.151-8.826-27.479-2.27M501.622 64.488s7.229 12.628-.532 20.56c-3.676 3.756-16.549 3.956-22.357 1.525-5.808-2.432-4.243-17.908-4.243-17.908s9.438-8.6 27.132-4.177"/>
        <path fill="#030303" d="M438.377 68.034c5.027-2.07 10.744-3.198 16.17-2.954 7.06.317 11.777 6.182 18.904 4.981 2.186-.368 3.318-1.724 5.39-2.718 8.185-3.925 18.258-2.31 26.67-.31 2.204.525 3.079-2.883.875-3.407-8.458-2.011-17.742-3.364-26.204-.572-1.975.651-3.885 1.525-5.6 2.703-.418.287-.867.857-1.324 1.054-1.13.488 1.629-.411.13-.267-3.426.33-4.98-.508-7.693-2.123-3.315-1.974-7.408-2.707-11.211-2.858-5.714-.228-11.811.918-17.103 3.097-2.07.852-1.101 4.237.996 3.374"/>
        <path fill="#030303" d="M481.194 62.045c2.316-3.339 8.558-4.893 12.018-2.409 1.136.816 2.22-1.066 1.095-1.873-4.507-3.236-12.007-1.106-14.986 3.186-.798 1.15 1.082 2.236 1.873 1.096M449.217 60.104c4.12-2.37 8.801-1.844 12.233 1.44 1.01.965 2.546-.567 1.535-1.535-4.135-3.954-9.902-4.632-14.863-1.778-1.21.696-.119 2.571 1.095 1.873M462.134 77.13c-.897.17-1.813.466-2.73.463-2.463.454-9.028-1.052-9.697-1.36-.63.382-.853 1.466.001 1.935 3.635 1.994 10.127 2.33 13.582-.351.534-.414.695-.65.418-1.102a10 10 0 0 1-1.574.415"/>
        <path fill="#030303" d="M453.755 80.066c.429.958 1.222 1.55 2.29 1.62 1.045.067 2.157-.026 2.998-.749 1.057-.907.64-2.547-.673-2.062-.35.13-2.297 1.089-2.553.518-.241-.539-.766-.884-1.368-.695-.514.162-.934.834-.694 1.368M491.794 76.537c-1.786 1.327-9.4.92-10.436.668-.843-.204-1.663-.456-2.436-.825-.37.48-.164 1.141.516 1.533 3.593 2.069 10.009 3.065 13.52.456 1.113-.828-.04-2.667-1.164-1.832"/>
        <path fill="#030303" d="M483.262 79.958c.395.974 1.166 1.594 2.23 1.701 1.043.106 2.128-.023 3.024-.639 1.148-.788.732-2.522-.597-2.085-.356.117-2.336 1.005-2.571.425-.222-.547-.734-.91-1.342-.744-.52.144-.964.8-.744 1.342"/>
        <g fill="#FFF">
            <path d="M361.81 229.523l2.892 1.157c.726.29 1.589-.317 1.779-1.01.227-.824-.282-1.488-1.01-1.779l-2.893-1.157c-.725-.29-1.588.317-1.779 1.01-.226.825.282 1.488 1.01 1.78M367.25 234.005l4.049 2.893c.635.454 1.61.112 1.978-.519.425-.726.119-1.523-.519-1.978l-4.05-2.893c-.635-.455-1.609-.112-1.978.518-.425.728-.118 1.524.52 1.98M376.143 239.635a7.954 7.954 0 0 0 3.608 2.003c1.808.444 2.579-2.345.77-2.789-.894-.22-1.666-.622-2.332-1.26-1.345-1.288-3.393.755-2.046 2.046M383.403 245.087l3.484 1.71c.7.344 1.564.19 1.978-.518.373-.638.186-1.634-.518-1.98l-3.484-1.71c-.7-.344-1.565-.19-1.979.52-.372.637-.185 1.633.52 1.978M584.348 229.992l-2.893 1.157c-.725.29-1.588-.317-1.778-1.01-.227-.824.281-1.488 1.01-1.78.963-.385 1.928-.77 2.892-1.157.726-.29 1.589.317 1.78 1.01.226.825-.283 1.488-1.01 1.78M578.908 234.474l-4.05 2.893c-.635.454-1.61.111-1.978-.519-.425-.727-.118-1.523.52-1.978 1.349-.965 2.699-1.93 4.049-2.893.636-.455 1.61-.112 1.978.518.426.727.119 1.524-.519 1.98M570.014 240.103a7.95 7.95 0 0 1-3.607 2.004c-1.808.444-2.58-2.345-.77-2.789.894-.22 1.666-.622 2.332-1.26 1.345-1.288 3.393.755 2.045 2.045M562.754 245.556l-3.483 1.71c-.7.344-1.565.19-1.979-.518-.372-.638-.185-1.634.519-1.98l3.483-1.71c.701-.344 1.565-.19 1.98.52.372.636.184 1.632-.52 1.978"/>
        </g>
    </g>
</svg>
