<svg xmlns="http://www.w3.org/2000/svg" width="150" height="40" viewBox="0 0 150 40">
    <g fill="none" fill-rule="evenodd">
        <path fill="#FFF" d="M31.447 3.903H8.55a4.648 4.648 0 1 0 0 9.296h11.674L1.434 31.991a4.648 4.648 0 1 0 6.573 6.574l18.791-18.791v11.673a4.648 4.648 0 0 0 9.297 0V8.552a4.648 4.648 0 0 0-4.648-4.649"/>
        <path fill="#FF7900" d="M45.392 36.095h22.895a4.648 4.648 0 1 0 0-9.296H56.613L75.404 8.007a4.648 4.648 0 1 0-6.573-6.573L50.04 20.224V8.552a4.648 4.648 0 0 0-9.297 0v22.895a4.648 4.648 0 0 0 4.649 4.649"/>
        <path fill="#FFF" d="M92.81 15.76c2.71 0 3.729-2.307 3.729-4.594 0-2.403-1.02-4.71-3.73-4.71s-3.73 2.307-3.73 4.71c0 2.287 1.02 4.594 3.73 4.594m0-11.84c4.248 0 6.747 3.17 6.747 7.246 0 3.96-2.499 7.132-6.747 7.132-4.248 0-6.747-3.172-6.747-7.132 0-4.075 2.499-7.247 6.747-7.247M100.838 8.033h2.595v1.845h.038c.5-1.249 1.846-2.114 3.173-2.114.192 0 .423.038.595.096v2.537a5.014 5.014 0 0 0-.98-.096c-1.999 0-2.69 1.442-2.69 3.19v4.48h-2.73V8.033zM114.023 13.108c-.461.403-1.423.422-2.268.576-.846.173-1.615.462-1.615 1.461 0 1.019.788 1.269 1.672 1.269 2.134 0 2.211-1.692 2.211-2.287v-1.02zm-6.305-2.019c.154-2.556 2.441-3.325 4.67-3.325 1.98 0 4.364.442 4.364 2.825v5.172c0 .902.097 1.806.347 2.21h-2.768a4.032 4.032 0 0 1-.193-.961c-.865.903-2.133 1.23-3.345 1.23-1.883 0-3.383-.942-3.383-2.98 0-2.249 1.692-2.787 3.383-3.018 1.673-.25 3.23-.192 3.23-1.307 0-1.172-.808-1.345-1.769-1.345-1.038 0-1.71.423-1.806 1.5h-2.73zM118.351 8.033h2.595v1.384h.059c.691-1.116 1.883-1.653 3.036-1.653 2.903 0 3.634 1.633 3.634 4.094v6.113h-2.73v-5.613c0-1.634-.48-2.441-1.75-2.441-1.48 0-2.114.826-2.114 2.845v5.209h-2.73V8.033zM136.067 12.877c0-1.614-.557-3.057-2.326-3.057-1.538 0-2.21 1.347-2.21 2.826 0 1.422.538 2.98 2.21 2.98 1.557 0 2.326-1.327 2.326-2.75zm2.595 4.46c0 1.634-.577 4.402-5.152 4.402-1.96 0-4.248-.923-4.383-3.192h2.71c.25 1.02 1.077 1.366 2.039 1.366 1.518 0 2.21-1.039 2.19-2.461v-1.307h-.038c-.595 1.038-1.788 1.538-2.98 1.538-2.979 0-4.247-2.269-4.247-4.999 0-2.575 1.48-4.92 4.267-4.92 1.307 0 2.307.442 2.96 1.595h.039V8.033h2.595v9.304zM146.968 11.935c-.25-1.384-.846-2.115-2.173-2.115-1.73 0-2.23 1.346-2.268 2.115h4.44zm-4.441 1.73c.077 1.73.923 2.518 2.442 2.518 1.095 0 1.98-.673 2.152-1.288h2.403c-.769 2.345-2.403 3.345-4.652 3.345-3.133 0-5.074-2.153-5.074-5.229 0-2.98 2.056-5.247 5.074-5.247 3.384 0 5.018 2.845 4.825 5.901h-7.17zM86.063 22.37h4.248l3.21 9.439h.039l3.037-9.439h4.248v13.725h-2.826v-9.727h-.039l-3.364 9.727h-2.325l-3.364-9.63h-.039v9.63h-2.825zM107.18 34.307c1.865 0 2.423-1.596 2.423-3.172 0-1.595-.558-3.19-2.422-3.19-1.846 0-2.403 1.595-2.403 3.19 0 1.576.557 3.172 2.403 3.172m0-8.42c3.133 0 5.152 2.077 5.152 5.248 0 3.153-2.02 5.23-5.152 5.23-3.115 0-5.133-2.077-5.133-5.23 0-3.171 2.018-5.248 5.133-5.248M113.505 26.157h2.595v1.384h.058c.691-1.115 1.883-1.653 3.036-1.653 2.903 0 3.634 1.633 3.634 4.094v6.113h-2.73v-5.613c0-1.634-.48-2.441-1.75-2.441-1.48 0-2.114.826-2.114 2.845v5.21h-2.73v-9.94zM131.047 30.06c-.25-1.385-.846-2.115-2.173-2.115-1.73 0-2.229 1.345-2.268 2.114h4.44zm-4.44 1.73c.076 1.729.922 2.517 2.44 2.517 1.096 0 1.98-.673 2.154-1.288h2.403c-.77 2.345-2.403 3.345-4.653 3.345-3.133 0-5.074-2.153-5.074-5.229 0-2.979 2.057-5.247 5.074-5.247 3.384 0 5.018 2.845 4.825 5.901h-7.17z"/>
        <path fill="#FFF" d="M139.592 37.344c-.596 1.596-1.538 2.25-3.422 2.25-.557 0-1.114-.04-1.672-.096v-2.25c.52.039 1.057.116 1.595.096.942-.096 1.25-1.076.942-1.864l-3.498-9.324h2.922l2.249 6.806h.038l2.173-6.806h2.825l-4.152 11.188z"/>
    </g>
</svg>
