<svg xmlns="http://www.w3.org/2000/svg" xmlns:xlink="http://www.w3.org/1999/xlink" width="136" height="136" viewBox="0 0 136 136">
    <defs>
        <circle id="a" cx="68" cy="68" r="68"/>
    </defs>
    <g fill="none" fill-rule="evenodd">
        <mask id="b" fill="#fff">
            <use xlink:href="#a"/>
        </mask>
        <use fill="#4BB4E7" fill-rule="nonzero" xlink:href="#a"/>
        <g mask="url(#b)">
            <g transform="translate(35.7 28.9)">
                <path fill="#EDC5A4" d="M55.952 55.763c-2.46.723-5.05-.661-5.783-3.092-.732-2.432.668-4.99 3.128-5.714l6.507-1.916c2.458-.723 5.046.66 5.78 3.092.734 2.431-.669 4.99-3.128 5.712l-6.504 1.918M55.952 66.014c-2.46.724-5.05-.659-5.783-3.09-.732-2.433.668-4.99 3.128-5.716l6.507-1.915c2.458-.724 5.046.66 5.78 3.093.734 2.43-.669 4.988-3.128 5.713l-6.504 1.915M55.952 77.12c-2.46.723-5.05-.661-5.783-3.091-.732-2.434.668-4.99 3.128-5.715l6.507-1.916c2.458-.724 5.046.659 5.78 3.092.734 2.43-.669 4.99-3.128 5.713l-6.504 1.917"/>
                <path fill="#714E46" d="M48.553 69.253c0 3.312 6.548 4.066 6.548 9.279 0 0-11.223 14.156-49.122 14.156-3.146 0-5.979-2.686-5.979-6V63.237c0-3.315 2.678-6 5.98-6h28.906c3.303 0 5.98 2.686 5.98 6l7.687 6.016"/>
                <path fill="#714E46" d="M9.832 57.266L0 55.101v22.556C0 81.712 3.336 85 7.452 85h13.854a22.021 22.021 0 0 0 1.332-7.556c0-8.856-5.224-16.56-12.806-20.178"/>
                <path fill="#714E46" d="M9.397 56.689c0 2.661-2.103 4.819-4.698 4.819C2.103 61.508 0 59.35 0 56.688V35.575c0-2.663 2.103-4.82 4.699-4.82 2.595 0 4.698 2.158 4.698 4.82V56.69M6.158 106.809c5.777.572 24.673.499 28.013 0L32.905 85l-27.78 1.637 1.033 16.78v3.392z"/>
                <path fill="#000105" d="M9.397 80.302h42.714V0H9.397z"/>
                <path fill="#50BE86" d="M11.96 69.623h37.588V5.126H11.96z"/>
                <path fill="#595959" d="M11.96 16.231h37.588V5.126H11.96z"/>
                <path fill="#E67533" d="M28.654 78.129h5.908v-5.907h-5.908v5.907zm-.463.464h6.834v-6.834h-6.834v6.834z"/>
                <circle cx="30.754" cy="11.533" r="4.698" fill="#FFB401"/>
                <g transform="translate(11.96 15.804)">
                    <path fill="#FFF" stroke="#000" stroke-width=".5" d="M0 11.014h37.107V0H0z"/>
                    <ellipse cx="31.516" cy="5.553" fill="#A885D8" rx="3.181" ry="3.215"/>
                </g>
                <g transform="translate(11.96 26.91)">
                    <path fill="#FFF" stroke="#000" stroke-width=".5" d="M0 11.014h37.107V0H0z"/>
                    <ellipse cx="31.516" cy="5.553" fill="#A885D8" rx="3.181" ry="3.215"/>
                </g>
                <g transform="translate(11.96 38.015)">
                    <path fill="#FFF" stroke="#000" stroke-width=".5" d="M0 11.014h37.107V0H0z"/>
                    <ellipse cx="31.516" cy="5.553" fill="#A885D8" rx="3.181" ry="3.215"/>
                </g>
                <g transform="translate(11.96 49.548)">
                    <path fill="#FFF" stroke="#000" stroke-width=".5" d="M0 11.014h37.107V0H0z"/>
                    <ellipse cx="31.516" cy="5.553" fill="#A885D8" rx="3.181" ry="3.215"/>
                </g>
                <g fill="#714E46">
                    <path d="M47.425 52.085c.406 2.467-1.28 4.792-3.764 5.195-2.488.404-4.83-1.268-5.237-3.733L32.57 18.068c-.408-2.466 1.277-4.79 3.764-5.194 2.485-.404 4.831 1.267 5.238 3.733l5.852 35.478M58.288 49.842c.406 2.465-1.28 4.79-3.765 5.193-2.485.404-4.831-1.268-5.237-3.733l-1.142-6.919c-.406-2.465 1.278-4.792 3.764-5.195 2.487-.403 4.83 1.268 5.239 3.735l1.141 6.919M69.248 48.125c.408 2.465-1.28 4.79-3.765 5.194-2.486.403-4.83-1.27-5.237-3.733l-1.142-6.92c-.407-2.465 1.279-4.79 3.765-5.194 2.485-.404 4.832 1.268 5.238 3.733l1.14 6.92M80.207 46.41c.406 2.464-1.282 4.79-3.765 5.192-2.486.405-4.831-1.268-5.239-3.734l-1.14-6.917c-.407-2.467 1.28-4.792 3.767-5.195 2.483-.404 4.827 1.269 5.235 3.734l1.142 6.92"/>
                    <path d="M71.54 40.37l-27.035 4.386c-4.047.656-6.789 4.44-6.13 8.453L41.9 74.566 54.108 87.32l24.521-3.977c4.045-.656 6.79-4.443 6.126-8.454l-4.69-28.443c-.663-4.012-4.479-6.732-8.526-6.076"/>
                    <path d="M49.907 54.517a16.475 16.475 0 0 0-10.28 6.007L26.102 46.39a5.007 5.007 0 0 0-7.035-.19 4.906 4.906 0 0 0-.192 6.975l30.961 32.35c1.119 1.174 2.686 1.65 4.19 1.47l.001.003.052-.008c.125-.018.251-.038.377-.064.253-.041.51-.085.768-.128 9.002-1.46 15.123-9.829 13.65-18.76-1.472-8.929-9.963-14.981-18.967-13.521"/>
                    <path d="M53.852 106.357H80.46V73.45H53.852z"/>
                </g>
            </g>
        </g>
    </g>
</svg>
