<svg xmlns="http://www.w3.org/2000/svg" width="25" height="22" viewBox="0 0 25 22">
    <path fill="#000" fill-rule="evenodd" d="M.893 4.04a.866.866 0 0 1-.642-.252A.877.877 0 0 1 0 3.143V.898C0 .636.084.421.251.253A.866.866 0 0 1 .893 0h23.214c.26 0 .474.084.642.253A.877.877 0 0 1 25 .898v2.245a.877.877 0 0 1-.251.645.866.866 0 0 1-.642.253H.893zm0 8.98a.866.866 0 0 1-.642-.252.877.877 0 0 1-.251-.646V9.878c0-.262.084-.477.251-.646a.866.866 0 0 1 .642-.252h23.214c.26 0 .474.084.642.252a.877.877 0 0 1 .251.646v2.244a.877.877 0 0 1-.251.646.866.866 0 0 1-.642.252H.893zm0 8.98a.866.866 0 0 1-.642-.253.877.877 0 0 1-.251-.645v-2.245c0-.262.084-.477.251-.645a.866.866 0 0 1 .642-.253h23.214c.26 0 .474.084.642.253a.877.877 0 0 1 .251.645v2.245a.877.877 0 0 1-.251.645.866.866 0 0 1-.642.253H.893z"/>
</svg>
