<svg xmlns="http://www.w3.org/2000/svg" width="27" height="26" viewBox="0 0 27 26">
    <path fill="#FF7900" fill-rule="evenodd" d="M13.356 10.093L23.003.446c.248-.248.511-.393.788-.434.278-.042.508.029.69.212l1.571 1.57c.183.183.254.413.212.69-.042.278-.186.54-.435.789l-9.647 9.647 9.647 9.647c.249.248.393.51.435.788.042.277-.029.507-.212.69l-1.57 1.57c-.183.184-.413.255-.69.213-.278-.042-.54-.187-.789-.435l-9.647-9.647-9.647 9.647c-.248.248-.51.393-.788.435-.277.042-.507-.03-.69-.212l-1.57-1.57c-.184-.184-.255-.414-.213-.691.042-.277.187-.54.435-.788l9.647-9.647L.883 3.273C.635 3.025.49 2.762.448 2.485c-.042-.278.029-.508.212-.691L2.23.224c.184-.183.414-.254.691-.212.277.041.54.186.788.434l9.647 9.647z"/>
</svg>
