<svg xmlns="http://www.w3.org/2000/svg" xmlns:xlink="http://www.w3.org/1999/xlink" width="40" height="40" viewBox="0 0 40 40">
    <defs>
        <path id="a" d="M19.167 0a.833.833 0 0 0-.834.833v5c0 .46.373.834.834.834h5c.46 0 .833-.373.833-.834v-5A.833.833 0 0 0 24.167 0h-5zM10 0a.833.833 0 0 0-.833.833v5c0 .46.373.834.833.834h5c.46 0 .834-.373.834-.834v-5A.834.834 0 0 0 15 0h-5zM.833 0A.833.833 0 0 0 0 .833v5c0 .46.373.834.833.834h5c.46 0 .833-.373.833-.834v-5A.833.833 0 0 0 5.833 0h-5zm18.334 9.166a.834.834 0 0 0-.834.834v5c0 .46.373.833.834.833h5c.46 0 .833-.373.833-.833v-5a.834.834 0 0 0-.833-.834h-5zm-9.167 0a.834.834 0 0 0-.833.834v5c0 .46.373.833.833.833h5c.46 0 .834-.373.834-.833v-5A.834.834 0 0 0 15 9.166h-5zm-9.167 0A.834.834 0 0 0 0 10v5c0 .46.373.833.833.833h5c.46 0 .833-.373.833-.833v-5a.833.833 0 0 0-.833-.834h-5zm18.334 9.168a.833.833 0 0 0-.834.833v5c0 .46.373.833.834.833h5c.46 0 .833-.373.833-.833v-5a.833.833 0 0 0-.833-.833h-5zm-9.167 0a.833.833 0 0 0-.833.833v5c0 .46.373.833.833.833h5c.46 0 .834-.373.834-.833v-5a.833.833 0 0 0-.834-.833h-5zm-9.167 0a.833.833 0 0 0-.833.833v5c0 .46.373.833.833.833h5c.46 0 .833-.373.833-.833v-5a.832.832 0 0 0-.833-.833h-5z"/>
    </defs>
    <g fill="none" fill-rule="evenodd" transform="translate(8 8)">
        <mask id="b" fill="#fff">
            <use xlink:href="#a"/>
        </mask>
        <path fill="#000" d="M-3.125 28.125h31.25v-31.25h-31.25z" mask="url(#b)"/>
    </g>
</svg>
