<?xml version="1.0" encoding="utf-8"?>
<!-- Generator: Adobe Illustrator 21.0.0, SVG Export Plug-In . SVG Version: 6.00 Build 0)  -->
<svg version="1.1" id="Calque_1" xmlns="http://www.w3.org/2000/svg" xmlns:xlink="http://www.w3.org/1999/xlink" x="0px" y="0px"
	 viewBox="0 0 224 192" style="enable-background:new 0 0 224 192;" xml:space="preserve">
<style type="text/css">
	.st0{fill:#FFFFFF;}
	.st1{fill:#F47920;}
	.st2{fill:#714539;}
	.st3{fill:#935C49;}
	.st4{fill:none;stroke:#231F20;stroke-miterlimit:10;}
	.st5{fill:#4B2E8C;}
	.st6{fill:#231F20;}
	.st7{fill:#5C7395;}
	.st8{fill:#F3CFB2;}
</style>
<g>
	<path class="st0" d="M33.6,192C12.9,171.7,0,143.3,0,112C0,50.1,50.1,0,112,0s112,50.1,112,112c0,31.3-12.9,59.7-33.6,80H33.6z"/>
</g>
<g>
	<g>
		<path id="XMLID_119_" class="st1" d="M22.2,189.3c0,0,3.7-44.4,25.4-53.4c21.7-9,40.1-4.2,44.4-22.2c4.2-18,2.1-25.4,2.1-25.4
			h30.1c0,0,0,15.8,1.6,25.4c1.6,9.5,12.5,15.6,36.5,20.6c25.4,5.3,32.8,44.4,33.3,55.5L22.2,189.3z"/>
		<path id="XMLID_231_" class="st2" d="M85.9,123.8c0,0,21.7,28.6,45.8-0.2c0,0-8-5.6-7.8-30.3H94.5
			C94.5,93.4,95.2,115.6,85.9,123.8z"/>
		<g id="XMLID_567_">
			<path id="XMLID_616_" class="st0" d="M58.3,150.2c34.4,0.3,68.7,0,103.1-1.1c2.4-0.1,2.4-3.8,0-3.8c-34.3,1.1-68.7,1.4-103.1,1.1
				C55.9,146.4,55.9,150.1,58.3,150.2L58.3,150.2z"/>
		</g>
		<g id="XMLID_574_">
			<path id="XMLID_610_" class="st0" d="M54.1,162c37.1,7.8,74.5-0.4,111.9-1.5c2.4-0.1,2.4-3.8,0-3.8c-36.9,1.1-74.1,9.4-110.9,1.6
				C52.7,157.8,51.7,161.5,54.1,162L54.1,162z"/>
		</g>
		<g id="XMLID_581_">
			<path id="XMLID_609_" class="st0" d="M54.6,178.2c18.4,0.4,36.8,0.9,55.2,1.1c19.2,0.2,38.7-5.1,57.8-2.3c2.4,0.3,3.4-3.3,1-3.6
				c-18.7-2.7-37.3,2.2-56,2.2c-19.3,0-38.7-0.7-58-1.1C52.1,174.4,52.1,178.2,54.6,178.2L54.6,178.2z"/>
		</g>
		<g id="XMLID_588_">
			<path id="XMLID_602_" class="st0" d="M55,190.8c38.1-0.4,76.2-0.7,114.3-1.1c2.4,0,2.4-3.8,0-3.8c-38.1,0.4-76.2,0.7-114.3,1.1
				C52.5,187,52.5,190.8,55,190.8L55,190.8z"/>
		</g>
		<ellipse id="XMLID_107_" class="st3" cx="108.8" cy="80.5" rx="23.2" ry="37"/>
		<ellipse id="XMLID_126_" class="st4" cx="83.2" cy="102.2" rx="4.5" ry="11.6"/>
		<ellipse id="XMLID_140_" class="st4" cx="133.4" cy="102.2" rx="4.5" ry="11.6"/>
		<path id="XMLID_147_" class="st5" d="M131.5,89.8c0,0,1.2-8.6-1.2-11.6c-2.3-3-5.8-6.7-5.3-12.3s-0.2-11.2-5.3-11.2
			c-5.1,0-3.7,6-10.7,5.8c-7-0.2-10.7-1.9-11.6,2.8s-2.1,10-6,11.2s-6.5,7.4-4.6,16c1.9,8.6-0.9,0-0.9,0s-4.9,1.4-7.7-7.9
			s-7.9-8.4-5.6-15.6s5.8-4.4,6.5-8.1c0.7-3.7-6-9.3,0.9-14.4s10.9,0.9,14.2-2.1s3.5-11.2,9.8-11.2c6.3,0,7.4,8.6,12.1,9.1
			c4.6,0.5,9.5-3.5,14.2-0.2s0.5,7.9,3.3,10.9c2.8,3,7.2,2.6,8.4,8.1c1.2,5.6-4.9,8.4-4.2,11.6s4.2,6.3,3.3,11.2
			S131.5,89.8,131.5,89.8z"/>
		<g id="XMLID_133_">
			<g>
				<path class="st6" d="M93.8,79c2.6-0.7,5.1-0.5,7.6,0.5c0.8,0.3,1.1-0.9,0.3-1.2c-2.7-1-5.5-1.2-8.2-0.5
					C92.7,77.9,93,79.2,93.8,79L93.8,79z"/>
			</g>
		</g>
		<g id="XMLID_154_">
			<g>
				<path class="st6" d="M117.2,80.2c2.5-1.1,5.2-1.4,7.9-0.8c0.8,0.2,1.1-1,0.3-1.2c-3-0.6-6-0.3-8.8,0.9
					C115.9,79.4,116.5,80.5,117.2,80.2L117.2,80.2z"/>
			</g>
		</g>
		<g id="XMLID_155_">
			<g>
				<path class="st6" d="M120.6,78.6c-0.9,0.9-0.7,2.7,0.5,3.2c0.3,0.1,0.7,0.1,0.9-0.2c0.6-1,0.5-2.2-0.2-3.1
					c-0.5-0.6-1.4,0.3-0.9,0.9c0.4,0.5,0.3,1.1,0,1.6c0.3-0.1,0.6-0.1,0.9-0.2c-0.5-0.2-0.7-0.9-0.3-1.3
					C122.1,79,121.2,78.1,120.6,78.6L120.6,78.6z"/>
			</g>
		</g>
		<g id="XMLID_161_">
			<g>
				<path class="st6" d="M97.1,78.3c-0.7,0.9-0.4,2.3,0.6,2.9c0.2,0.1,0.6,0.1,0.8-0.1c0.6-0.7,0.9-1.6,0.6-2.4
					c-0.2-0.8-1.4-0.5-1.2,0.3c0.1,0.5,0,0.9-0.3,1.2c0.3,0,0.5-0.1,0.8-0.1c-0.5-0.3-0.5-0.8-0.2-1.2c0.2-0.3,0-0.7-0.2-0.9
					C97.6,77.9,97.3,78,97.1,78.3L97.1,78.3z"/>
			</g>
		</g>
		<g id="XMLID_169_">
			<g>
				<path class="st6" d="M92.6,71.3c2-1.1,4.4-1,6.2,0.4c0.6,0.5,1.5-0.4,0.9-0.9c-2.2-1.8-5.2-2.1-7.7-0.6
					C91.3,70.6,91.9,71.7,92.6,71.3L92.6,71.3z"/>
			</g>
		</g>
		<g id="XMLID_171_">
			<g>
				<path class="st6" d="M117.8,73.2c1.9-2.1,4.9-2.7,7.4-1.3c0.7,0.4,1.3-0.7,0.6-1.1c-3-1.6-6.7-1-8.9,1.5
					C116.4,72.9,117.3,73.8,117.8,73.2L117.8,73.2z"/>
			</g>
		</g>
		<g id="XMLID_180_">
			<g id="XMLID_229_">
				<path id="XMLID_230_" class="st7" d="M106.7,98.2c-0.7,0-1.3,0.4-1.3,1.1c0,0.8-0.3,1.6-0.6,2.3c-0.5,1.4,2,2.1,2.5,0.8
					c0.3-0.9,0.7-1.9,0.7-2.9C107.9,98.8,107.4,98.3,106.7,98.2z"/>
			</g>
			<g id="XMLID_222_">
				<path id="XMLID_223_" class="st8" d="M96.5,98.2c-0.4,0-0.6,1.8-0.6,1.8c0.1,0,0.2,0,0.2,0C96.6,99.8,97.2,98.2,96.5,98.2z"/>
			</g>
			<g id="XMLID_215_">
				<path id="XMLID_216_" class="st0" d="M98.1,99.4c-0.3,0,0.7,1.4,0.9,1.5c5.4,3.5,17.4,4.4,18.9-2.1c-1.8,0.9-9.2,0.3-11.3,0.5
					C103.8,99.4,101.1,99.6,98.1,99.4z"/>
			</g>
			<g id="XMLID_201_">
				<path id="XMLID_208_" class="st2" d="M113.9,97.6c-0.6-0.3-2.3-0.9-2.9-0.9c-0.8,0-1.8,0.7-2.2,1.3c-0.6-0.5-1.1-1-2-1
					c-1.4,0-2.9,0.5-4.1,1c-1.5,0.5-3.2,1.2-4.8,1.3c-0.2,0,0.6,0.4,0.6,0.4c0.3,0.1,7.1,0.4,9.3,0.2c1.4-0.1,3,0.1,4.3-0.2
					c0.5-0.1,4.9-0.1,5.4-0.3c0,0,0.9-0.5,0.7-0.5C117.7,98.7,114.2,97.8,113.9,97.6z"/>
			</g>
			<g id="XMLID_187_">
				<path id="XMLID_194_" class="st2" d="M110.1,102.7c-0.1,0-5.6,0.5-7.9-0.3c-1.1-0.4-2.1-0.8-2.8-1.4c-0.6-0.6-0.9-1.1-1.4-1.7
					c-0.2,0.5,0.3,1.4,0.6,1.9c1.5,2.3,3.7,4.6,6.8,4.9c1.9,0.2,6.1,0.1,7.6-1c1.5-1.1,4.1-3.4,4.7-4.9c0.2-0.4,0.1-0.8,0.3-1.2
					C116.9,100.7,112.2,102,110.1,102.7z"/>
			</g>
		</g>
		<g id="XMLID_173_">
			<path id="XMLID_234_" class="st2" d="M118.2,98.4c0.2,0.4,0.4,0.9,0.6,1.3c0.5,1.1,2.1,0.1,1.6-0.9c-0.2-0.4-0.4-0.9-0.6-1.3
				C119.3,96.3,117.7,97.3,118.2,98.4L118.2,98.4z"/>
		</g>
		<g id="XMLID_235_">
			<path id="XMLID_236_" class="st2" d="M95.5,98.3c-0.1,0.5-0.2,0.9-0.3,1.4c-0.2,1.2,1.7,1.3,1.9,0.1c0.1-0.5,0.2-0.9,0.3-1.4
				C97.6,97.3,95.7,97.1,95.5,98.3L95.5,98.3z"/>
		</g>
		<g id="XMLID_232_">
			<g>
				<path class="st6" d="M100.3,35c-0.9,0.6-1.6,1.4-2.1,2.4c-0.3,0.7,0.7,1.4,1.1,0.6c0.4-0.8,0.9-1.4,1.6-1.9
					C101.6,35.7,100.9,34.6,100.3,35L100.3,35z"/>
			</g>
		</g>
		<g id="XMLID_233_">
			<g>
				<path class="st6" d="M101.9,38c-1.2,0.8-1.8,2-2,3.4c-0.1,0.8,1.2,0.8,1.2,0c0.1-0.9,0.6-1.8,1.4-2.3
					C103.2,38.6,102.5,37.5,101.9,38L101.9,38z"/>
			</g>
		</g>
		<g id="XMLID_237_">
			<g>
				<path class="st6" d="M102.4,41.5c-0.5,1.2-0.9,2.4-1.4,3.7c-0.3,0.8,0.9,1.1,1.2,0.3c0.5-1.2,0.9-2.4,1.4-3.7
					C103.9,41.1,102.7,40.8,102.4,41.5L102.4,41.5z"/>
			</g>
		</g>
		<g id="XMLID_238_">
			<g>
				<path class="st6" d="M103.2,45.7c0,1.2-0.3,2.4-0.8,3.5c-0.3,0.7,0.7,1.4,1.1,0.6c0.6-1.3,1-2.7,1-4.1
					C104.5,44.9,103.2,44.9,103.2,45.7L103.2,45.7z"/>
			</g>
		</g>
		<g id="XMLID_239_">
			<g>
				<path class="st6" d="M104.6,50.6c-0.4,1-0.9,1.9-1.5,2.7c-0.5,0.6,0.6,1.3,1.1,0.6c0.7-0.9,1.2-1.9,1.6-3
					C106,50.2,104.8,49.9,104.6,50.6L104.6,50.6z"/>
			</g>
		</g>
		<g id="XMLID_240_">
			<g>
				<path class="st6" d="M104.8,54.3c-0.3,0.6-0.6,1.2-1,1.7c-0.5,0.6,0.4,1.5,0.9,0.9c0.5-0.6,0.9-1.2,1.2-2
					c0.1-0.3,0.1-0.7-0.2-0.9C105.4,53.9,105,54,104.8,54.3L104.8,54.3z"/>
			</g>
		</g>
		<g id="XMLID_241_">
			<g>
				<path class="st6" d="M105.9,56.8c-0.2,0.6-0.5,1.1-1,1.6c-0.6,0.5,0.3,1.4,0.9,0.9c0.6-0.6,1.1-1.3,1.3-2.1
					C107.3,56.3,106.1,56,105.9,56.8L105.9,56.8z"/>
			</g>
		</g>
		<g id="XMLID_243_">
			<g>
				<path class="st6" d="M125.9,40.4c-1.4-0.2-2.8,0.1-3.9,0.9c-0.6,0.5,0,1.6,0.6,1.1c0.9-0.7,1.9-1,3-0.8
					C126.4,41.8,126.7,40.6,125.9,40.4L125.9,40.4z"/>
			</g>
		</g>
		<g id="XMLID_245_">
			<g>
				<path class="st6" d="M124.4,42.9c-0.8,0.2-1.5,0.6-2.1,1.2c-0.6,0.6,0.3,1.4,0.9,0.9c0.4-0.4,0.9-0.7,1.5-0.9
					C125.5,43.9,125.2,42.7,124.4,42.9L124.4,42.9z"/>
			</g>
		</g>
		<g id="XMLID_252_">
			<g>
				<path class="st6" d="M124.3,45.9c-0.6,0.6-1.3,1-2,1.4c-0.7,0.4-0.1,1.4,0.6,1.1c0.8-0.4,1.6-0.9,2.3-1.6
					C125.8,46.2,124.9,45.3,124.3,45.9L124.3,45.9z"/>
			</g>
		</g>
		<g id="XMLID_259_">
			<g>
				<path class="st6" d="M124.6,49c-0.7,0.5-1.4,1.1-2.2,1.6c-0.3,0.2-0.4,0.5-0.2,0.9c0.2,0.3,0.6,0.4,0.9,0.2
					c0.7-0.5,1.4-1.1,2.2-1.6c0.3-0.2,0.4-0.5,0.2-0.9C125.3,48.9,124.9,48.8,124.6,49L124.6,49z"/>
			</g>
		</g>
		<g id="XMLID_266_">
			<g>
				<path class="st6" d="M123.6,52.5c-0.8,0.3-1.7,0.5-2.5,0.8c-0.8,0.2-0.4,1.5,0.3,1.2c0.8-0.3,1.7-0.5,2.5-0.8
					C124.7,53.5,124.4,52.3,123.6,52.5L123.6,52.5z"/>
			</g>
		</g>
		<g id="XMLID_273_">
			<g>
				<path class="st6" d="M126.3,65.2c0.1,1.2,0.5,2.3,1,3.3c0.4,0.7,1.5,0.1,1.1-0.6c-0.5-0.8-0.8-1.7-0.9-2.7
					C127.5,64.4,126.2,64.4,126.3,65.2L126.3,65.2z"/>
			</g>
		</g>
		<g id="XMLID_280_">
			<g>
				<path class="st6" d="M128.7,66.2c0.3,1,0.9,1.8,1.6,2.5c0.6,0.5,1.5-0.3,0.9-0.9c-0.6-0.5-1-1.2-1.3-2
					C129.6,65.1,128.4,65.5,128.7,66.2L128.7,66.2z"/>
			</g>
		</g>
		<g id="XMLID_287_">
			<g>
				<path class="st6" d="M131.1,65.7c0.4,1,0.8,1.9,1.4,2.8c0.5,0.7,1.5,0,1.1-0.6c-0.5-0.8-1-1.6-1.3-2.5
					C132,64.6,130.8,64.9,131.1,65.7L131.1,65.7z"/>
			</g>
		</g>
		<g id="XMLID_294_">
			<g>
				<path class="st6" d="M133.8,65.3c0.5,0.7,0.8,1.4,1.1,2.2c0.2,0.8,1.4,0.4,1.2-0.3c-0.3-0.9-0.7-1.7-1.2-2.5
					C134.5,64,133.4,64.7,133.8,65.3L133.8,65.3z"/>
			</g>
		</g>
		<g id="XMLID_301_">
			<g>
				<path class="st6" d="M136.4,64c0.2,0.6,0.3,1.2,0.3,1.8c0,0.8,1.2,0.8,1.2,0c0-0.7-0.1-1.5-0.3-2.2
					C137.3,63,136.1,63.3,136.4,64L136.4,64z"/>
			</g>
		</g>
		<g id="XMLID_308_">
			<g>
				<path class="st6" d="M138.6,62.1c0.3,0.4,0.3,0.9,0.1,1.3c-0.3,0.8,0.9,1.1,1.2,0.3c0.3-0.8,0.2-1.6-0.3-2.3
					C139.2,60.8,138.1,61.4,138.6,62.1L138.6,62.1z"/>
			</g>
		</g>
		<g id="XMLID_315_">
			<g>
				<path class="st6" d="M79.6,49.3c-0.1,1.5,0.1,3.1,0.7,4.5c0.3,0.7,1.5,0.4,1.2-0.3c-0.6-1.3-0.8-2.7-0.6-4.2
					C80.9,48.5,79.6,48.5,79.6,49.3L79.6,49.3z"/>
			</g>
		</g>
		<g id="XMLID_322_">
			<g>
				<path class="st6" d="M82.8,51.8c0,1.7,0.2,3.3,0.8,4.8c0.3,0.8,1.5,0.4,1.2-0.3c-0.5-1.5-0.8-2.9-0.7-4.5
					C84,51,82.8,51,82.8,51.8L82.8,51.8z"/>
			</g>
		</g>
		<g id="XMLID_329_">
			<g>
				<path class="st6" d="M85.4,54.6c0.2,1,0.4,2.1,0.5,3.1c0.1,0.8,1.3,0.5,1.2-0.3c-0.2-1-0.4-2.1-0.5-3.1
					C86.5,53.5,85.3,53.8,85.4,54.6L85.4,54.6z"/>
			</g>
		</g>
		<g id="XMLID_336_">
			<g>
				<path class="st6" d="M87.7,56.7c0.8,1.5,1.1,3.1,1.1,4.8c0,0.8,1.2,0.8,1.2,0c0.1-1.9-0.3-3.7-1.2-5.5
					C88.4,55.4,87.3,56,87.7,56.7L87.7,56.7z"/>
			</g>
		</g>
		<g id="XMLID_343_">
			<g>
				<path class="st6" d="M91.2,59.7c0.3,0.8,0.3,1.6,0.1,2.5c-0.2,0.8,1,1.1,1.2,0.3c0.3-1,0.2-2.1-0.1-3.1
					C92.2,58.7,91,59,91.2,59.7L91.2,59.7z"/>
			</g>
		</g>
		<g id="XMLID_350_">
			<g>
				<path class="st6" d="M94.3,60.6c0.1,0.7,0,1.4-0.1,2.2c-0.2,0.8,1,1.1,1.2,0.3c0.2-0.8,0.2-1.6,0.2-2.5
					C95.5,59.8,94.3,59.8,94.3,60.6L94.3,60.6z"/>
			</g>
		</g>
		<g id="XMLID_357_">
			<g>
				<path class="st6" d="M75.5,74.5c0.3,1,0.8,1.9,1.5,2.6c0.6,0.6,1.4-0.3,0.9-0.9c-0.6-0.6-0.9-1.3-1.2-2
					C76.5,73.4,75.3,73.7,75.5,74.5L75.5,74.5z"/>
			</g>
		</g>
		<g id="XMLID_364_">
			<g>
				<path class="st6" d="M77.9,74.1c0.2,0.9,0.7,1.5,1.4,2.1c0.7,0.5,1.3-0.6,0.6-1.1c-0.4-0.3-0.7-0.8-0.8-1.3
					C78.9,73,77.7,73.3,77.9,74.1L77.9,74.1z"/>
			</g>
		</g>
		<g id="XMLID_371_">
			<g>
				<path class="st6" d="M81,73.3c0.3,0.7,0.6,1.4,1,2.2c0.3,0.7,1.4,0.1,1.1-0.6c-0.3-0.7-0.6-1.4-1-2.2
					C81.8,71.9,80.7,72.6,81,73.3L81,73.3z"/>
			</g>
		</g>
		<g id="XMLID_378_">
			<g>
				<path class="st6" d="M84.1,73.6c0.2,0.9,0.6,1.8,1.4,2.4c0.6,0.5,1.5-0.3,0.9-0.9c-0.6-0.5-0.9-1.1-1-1.9
					C85.1,72.5,83.9,72.9,84.1,73.6L84.1,73.6z"/>
			</g>
		</g>
		<g id="XMLID_385_">
			<g>
				<path class="st6" d="M87.8,73.1c0.2,0.4,0.2,0.9,0.1,1.3c0,0.3,0.3,0.6,0.6,0.6c0.4,0,0.6-0.3,0.6-0.6c0.1-0.6,0-1.1-0.2-1.7
					C88.7,72,87.5,72.4,87.8,73.1L87.8,73.1z"/>
			</g>
		</g>
		<g id="XMLID_392_">
			<g>
				<path class="st6" d="M80.1,84.9c0.2,0.8,0.6,1.5,1.2,2.1c0.6,0.6,1.4-0.3,0.9-0.9c-0.4-0.4-0.7-0.9-0.9-1.5
					C81.1,83.8,79.9,84.1,80.1,84.9L80.1,84.9z"/>
			</g>
		</g>
		<g id="XMLID_399_">
			<g>
				<path class="st6" d="M82,84.9c0.3,0.7,0.8,1.3,1.3,1.7c0.6,0.5,1.5-0.3,0.9-0.9c-0.5-0.4-0.8-0.9-1.1-1.5
					C82.7,83.5,81.7,84.2,82,84.9L82,84.9z"/>
			</g>
		</g>
		<g id="XMLID_406_">
			<g>
				<path class="st6" d="M84.7,84.5c0.1,0.2,0.2,0.3,0.3,0.5c0.5,0.7,1.5,0,1.1-0.6c-0.1-0.2-0.2-0.3-0.3-0.5
					C85.3,83.2,84.2,83.9,84.7,84.5L84.7,84.5z"/>
			</g>
		</g>
		<g id="XMLID_413_">
			<g>
				<path class="st6" d="M132.9,80.1c0.4,1.2,0.6,2.4,0.8,3.6c0.1,0.8,1.3,0.8,1.2,0c-0.2-1.4-0.4-2.7-0.8-4
					C133.9,79,132.7,79.3,132.9,80.1L132.9,80.1z"/>
			</g>
		</g>
		<g id="XMLID_420_">
			<g>
				<path class="st6" d="M135.1,79.7c0.3,0.5,0.4,0.9,0.4,1.5c0,0.8,1.2,0.8,1.2,0c0-0.8-0.2-1.5-0.6-2.1
					C135.8,78.4,134.7,79.1,135.1,79.7L135.1,79.7z"/>
			</g>
		</g>
		<g id="XMLID_427_">
			<g>
				<path class="st6" d="M137.7,78.4c0.2,0.8,0.5,1.5,0.7,2.3c0.2,0.8,1.4,0.4,1.2-0.3c-0.2-0.8-0.5-1.5-0.7-2.3
					C138.7,77.3,137.5,77.7,137.7,78.4L137.7,78.4z"/>
			</g>
		</g>
		<g id="XMLID_434_">
			<g>
				<path class="st6" d="M89.5,46.5c1,0.3,2,0.3,3,0c0.8-0.2,0.4-1.4-0.3-1.2c-0.8,0.2-1.5,0.2-2.3,0C89.1,45.1,88.7,46.3,89.5,46.5
					L89.5,46.5z"/>
			</g>
		</g>
		<g id="XMLID_441_">
			<g>
				<path class="st6" d="M91.5,49.2c0.8-0.1,1.7-0.1,2.5-0.2c0.8-0.1,0.8-1.3,0-1.2c-0.8,0.1-1.7,0.1-2.5,0.2
					C90.7,48,90.7,49.2,91.5,49.2L91.5,49.2z"/>
			</g>
		</g>
		<g id="XMLID_448_">
			<g>
				<path class="st6" d="M93.6,52.2c0.8,0.3,1.6,0.3,2.3,0c0.8-0.2,0.4-1.5-0.3-1.2c-0.6,0.2-1.1,0.2-1.7,0
					C93.2,50.8,92.9,52,93.6,52.2L93.6,52.2z"/>
			</g>
		</g>
		<g id="XMLID_455_">
			<g>
				<path class="st6" d="M95.4,54.5c0.8,0.7,1.8,1,2.9,0.8c0.8-0.1,0.5-1.3-0.3-1.2c-0.6,0.1-1.2-0.1-1.7-0.4
					C95.7,53.1,94.8,54,95.4,54.5L95.4,54.5z"/>
			</g>
		</g>
		<g id="XMLID_462_">
			<g>
				<path class="st6" d="M97.5,57.6c0.8,0.4,1.7,0.8,2.6,0.9c0.8,0.2,1.1-1,0.3-1.2c-0.8-0.2-1.6-0.4-2.3-0.8
					C97.4,56.2,96.8,57.3,97.5,57.6L97.5,57.6z"/>
			</g>
		</g>
		<g id="XMLID_469_">
			<g>
				<path class="st6" d="M111.1,40.8c0.3,0.3,0.7,0.6,1,0.8c0.6,0.5,1.5-0.4,0.9-0.9c-0.3-0.3-0.7-0.6-1-0.8
					C111.3,39.4,110.5,40.3,111.1,40.8L111.1,40.8z"/>
			</g>
		</g>
		<g id="XMLID_476_">
			<g>
				<path class="st6" d="M110.4,43.7c0.6,0.5,1.2,1.1,1.9,1.6c0.6,0.5,1.5-0.4,0.9-0.9c-0.6-0.5-1.2-1.1-1.9-1.6
					C110.7,42.3,109.8,43.1,110.4,43.7L110.4,43.7z"/>
			</g>
		</g>
		<g id="XMLID_483_">
			<g>
				<path class="st6" d="M110.8,47.2c0.3,0.9,0.9,1.6,1.7,2.2c0.7,0.5,1.3-0.6,0.6-1.1c-0.5-0.3-0.9-0.8-1.1-1.4
					C111.8,46.1,110.6,46.4,110.8,47.2L110.8,47.2z"/>
			</g>
		</g>
		<g id="XMLID_490_">
			<g>
				<path class="st6" d="M110,52.5c0.7,0.5,1.5,1,2.2,1.4c0.7,0.4,1.3-0.6,0.6-1.1c-0.7-0.5-1.5-1-2.2-1.4
					C110,51,109.4,52.1,110,52.5L110,52.5z"/>
			</g>
		</g>
		<g id="XMLID_497_">
			<g>
				<path class="st6" d="M111.7,56c0.4,0.3,0.9,0.6,1.3,1c0.7,0.5,1.3-0.6,0.6-1.1c-0.4-0.3-0.9-0.6-1.3-1
					C111.6,54.5,111,55.5,111.7,56L111.7,56z"/>
			</g>
		</g>
		<g id="XMLID_504_">
			<g>
				<path class="st6" d="M130.6,51.2c0.4,0.4,0.8,0.9,1.1,1.3c0.5,0.6,1.4-0.3,0.9-0.9c-0.4-0.4-0.8-0.9-1.1-1.3
					C131,49.7,130.1,50.6,130.6,51.2L130.6,51.2z"/>
			</g>
		</g>
		<g id="XMLID_511_">
			<g>
				<path class="st6" d="M128.4,54.7c0.4,0.5,0.7,1,0.9,1.5c0.3,0.7,1.5,0.4,1.2-0.3c-0.3-0.8-0.7-1.4-1.2-2.1
					C128.8,53.2,127.9,54.1,128.4,54.7L128.4,54.7z"/>
			</g>
		</g>
		<g id="XMLID_518_">
			<g>
				<path class="st6" d="M127.2,57.8c0.2,0.8,0.5,1.5,0.9,2.1c0.4,0.7,1.5,0,1.1-0.6c-0.4-0.6-0.6-1.2-0.8-1.8
					C128.2,56.7,127,57,127.2,57.8L127.2,57.8z"/>
			</g>
		</g>
		<g id="XMLID_525_">
			<g>
				<path class="st6" d="M126.3,61.2c0.1,0.2,0.2,0.4,0.3,0.7c0.4,0.7,1.4,0.1,1.1-0.6c-0.1-0.2-0.2-0.4-0.3-0.7
					C127.1,59.9,126,60.5,126.3,61.2L126.3,61.2z"/>
			</g>
		</g>
		<g id="XMLID_532_">
			<g>
				<path class="st6" d="M80.1,62.2c-0.1,0.6-0.3,1.1-0.7,1.5c-0.5,0.6,0.4,1.5,0.9,0.9c0.5-0.6,0.8-1.3,1-2.1
					C81.5,61.8,80.3,61.4,80.1,62.2L80.1,62.2z"/>
			</g>
		</g>
		<g id="XMLID_539_">
			<g>
				<path class="st6" d="M82.6,63.9c0,0.6-0.1,1-0.4,1.5c-0.5,0.7,0.6,1.3,1.1,0.6c0.4-0.6,0.6-1.4,0.6-2.1
					C83.8,63.1,82.5,63.1,82.6,63.9L82.6,63.9z"/>
			</g>
		</g>
		<g id="XMLID_546_">
			<g>
				<path class="st6" d="M86.1,65c-0.2,0.8-0.4,1.6-0.8,2.3c-0.4,0.7,0.7,1.3,1.1,0.6c0.4-0.8,0.8-1.7,0.9-2.6
					C87.5,64.6,86.3,64.3,86.1,65L86.1,65z"/>
			</g>
		</g>
		<g id="XMLID_553_">
			<g>
				<path class="st6" d="M89,66.7c-0.2,0.5-0.5,1.1-0.7,1.6c-0.1,0.3,0.1,0.7,0.4,0.8c0.4,0.1,0.6-0.1,0.8-0.4
					c0.2-0.5,0.5-1.1,0.7-1.6c0.1-0.3-0.1-0.7-0.4-0.8C89.4,66.2,89.1,66.4,89,66.7L89,66.7z"/>
			</g>
		</g>
		<g id="XMLID_560_">
			<g>
				<path class="st6" d="M92,67.4c0.1,0.4-0.1,0.8-0.3,1c-0.5,0.6,0.3,1.5,0.9,0.9c0.6-0.6,0.8-1.4,0.7-2.3
					C93.1,66.2,91.9,66.6,92,67.4L92,67.4z"/>
			</g>
		</g>
		<g id="XMLID_162_">
			<path class="st2" d="M105.8,77.1c1.2,4.3,1.1,8.9-0.3,13.2c-0.2,0.4-0.3,0.9-0.2,1.4c0.2,0.7,1.1,1,1.9,1.1c0.5,0,1-0.1,1.4-0.4
				c0.6-0.5,0.6-1.5,0.5-2.4c-0.5-4.3-1.7-8.5-3.3-12.5"/>
		</g>
	</g>
</g>
</svg>
