<svg xmlns="http://www.w3.org/2000/svg" width="46" height="46" viewBox="0 0 46 46">
    <g fill="none" fill-rule="evenodd">
        <circle cx="23" cy="23" r="23" fill="#32C832"/>
        <path fill="#FFF" d="M37 13.4c0-1.325-1.042-2.4-2.328-2.4-.615 0-1.175.247-1.591.65L19.31 25.4l-4.537-5.182a2.278 2.278 0 0 0-1.515-.578c-.643 0-1.225.269-1.646.703l-.931.96A2.43 2.43 0 0 0 10 23c0 .567.191 1.088.51 1.5l7.448 9.6v-.001c.428.55 1.082.901 1.818.901.735 0 1.39-.352 1.817-.901L36.49 14.9c.319-.41.51-.932.51-1.499"/>
    </g>
</svg>
