<svg xmlns="http://www.w3.org/2000/svg" xmlns:xlink="http://www.w3.org/1999/xlink" width="170" height="170" viewBox="0 0 170 170">
    <defs>
        <circle id="a" cx="85" cy="85" r="85"/>
        <path id="c" d="M0 .634h56.287V37.98H0z"/>
    </defs>
    <g fill="none" fill-rule="evenodd">
        <g>
            <mask id="b" fill="#fff">
                <use xlink:href="#a"/>
            </mask>
            <use fill="#A885D8" fill-rule="nonzero" xlink:href="#a"/>
            <g mask="url(#b)">
                <path fill="#464646" d="M127.9 129.08H69.022v-1.99H127.9c3.84 0 6.743-2.08 8.62-6.186 1.331-2.906 1.666-5.836 1.717-6.35l-4.901-51.453 1.982-.188 4.918 51.63-.004.086c-.012.144-1.253 14.452-12.332 14.452zM81.37 90.704l.185-7.567 11.979-.002v7.57H81.37zm12.198 1.787l.047 7.569-12.466-.007.187-7.555 12.232-.007zm-.279 26.273H80.296l.189-7.565H93.25l.038 7.565zm-12.37-9.358l.187-7.556h12.51l.035 7.556H80.92zm27.306 1.793l.242 7.565H95.482l-.036-7.565h12.779zm-.306-9.358l.251 7.565H95.446l-.035-7.556 12.508-.009zM95.364 90.703v-7.569h11.963l.242 7.557-12.205.012zm12.258 1.79l.242 7.555-12.453.009-.047-7.563h12.258zm14.776 18.705l.447 7.565h-12.983l-.243-7.565h12.779zm-.168-9.358l.449 7.565h-12.714l-.252-7.565h12.517zM109.364 90.7l-.243-7.564h11.988l.447 7.564h-12.192zm12.303 1.794l.456 7.554h-12.464l-.243-7.554h12.25zM78.403 48h45.346l1.24 16.335H78.155l.248-16.335zm57.084-10.082H67.33v80.844s.4 6.983-2.289 12.99h65.962c10.985 0 12.107-15.9 12.107-15.9l-7.624-77.934z"/>
                <path fill="#8F8F8F" d="M122.845 118.763l-.447-7.565h-12.78l.244 7.565zM80.296 118.763H93.29l-.038-7.565H80.485zM51.79 128.5h.385c14.628 0 15.155-10.785 15.155-12.353V37.694s.62-12.54-15.155-12.54h-.385c-15.774 0-15.157 12.54-15.157 12.54v78.453c0 1.568.53 12.353 15.157 12.353M80.783 62.553l.224-12.767h41.028l1.121 12.767H80.783zm42.965-14.55H78.404l-.248 16.333h46.832l-1.24-16.333z"/>
                <path fill="#FFF" d="M81.007 49.787l-.224 12.767h42.373l-1.12-12.767z"/>
                <path fill="#595959" d="M67.33 118.763v-2.615c0 1.568-.528 12.352-15.156 12.352h-.384c-14.627 0-15.156-10.784-15.156-12.352v2.615s-.072 1.271.063 3.19c.116 1.924.44 4.514 1.246 7.138 1.31 4.317 3.902 8.725 9.004 10.428a11.508 11.508 0 0 0 .43-3.063c0-.125.006-.248.02-.367.003-.042.014-.085.017-.125.011-.078.02-.156.036-.232.015-.072.037-.14.055-.211.012-.045.021-.089.034-.132.01-.03.022-.056.03-.085a3.586 3.586 0 0 1 3.763-2.413 3.582 3.582 0 0 1 3.22 3.565c0 1.244-.125 2.48-.377 3.69 5.781-.679 9.038-4.31 10.867-8.392 2.689-6.008 2.289-12.991 2.289-12.991"/>
                <g transform="translate(-1.735 121.318)">
                    <mask id="d" fill="#fff">
                        <use xlink:href="#c"/>
                    </mask>
                    <path fill="#000" d="M53.066 11.573a3.494 3.494 0 0 0-.733 0 3.588 3.588 0 0 0-3.03 2.412c-.008.03-.02.056-.03.087-.013.042-.022.087-.032.13-.02.07-.04.14-.057.212-.014.076-.023.154-.034.231-.005.042-.014.084-.018.127-.013.12-.02.24-.02.365 0 .346-.022.686-.053 1.017-.067.716-.193 1.4-.376 2.047-.753 2.696-2.405 4.8-3.848 6.218-4.142 4.056-10.564 6.54-16.735 6.395-8.187-.152-17.164-3.961-20.016-8.493-1.075-1.711-1.184-3.377-.322-5.24.528-1.175 3.487-5.185 18.948-7.803 4.888-.823 9.65-1.272 12.967-1.505-.806-2.624-1.13-5.212-1.246-7.139-11.137.77-32.643 3.538-37.198 13.456-1.876 4.091-1.606 8.258.771 12.049C6.703 33.609 18.89 37.81 27.975 37.98h.529c7.874 0 16.007-3.208 21.354-8.448 3.208-3.145 5.263-6.8 6.053-10.705.25-1.21.376-2.446.376-3.69 0-1.856-1.41-3.381-3.22-3.565" mask="url(#d)"/>
                </g>
                <path fill="#8F8F8F" d="M95.365 83.135v7.569l12.203-.013-.243-7.556z"/>
                <path fill="#4BB4E6" d="M108.467 118.763l-.243-7.565H95.447l.034 7.565z"/>
                <path fill="#8F8F8F" d="M109.12 83.136l.243 7.565h12.193l-.447-7.565zM122.122 100.049l-.456-7.557h-12.25l.242 7.557zM122.679 109.406l-.449-7.566h-12.517l.252 7.566zM108.17 109.406l-.252-7.566-12.507.01.036 7.556zM95.41 100.057l12.454-.009-.243-7.556H95.365zM93.616 101.85h-12.51l-.188 7.556h12.734zM81.555 83.137l-.186 7.567h12.163v-7.57zM81.149 100.052l12.467.007-.048-7.569-12.231.008z"/>
                <path fill="#8F8F8F" d="M135.318 62.912l-1.983.188 4.902 51.454c-.051.513-.386 3.443-1.717 6.351-1.877 4.104-4.78 6.186-8.62 6.186H69.02v1.989H127.9c11.079 0 12.32-14.307 12.332-14.452l.005-.085-4.92-51.63z"/>
            </g>
        </g>
        <g transform="translate(130.9 15.3)">
            <circle cx="19.55" cy="19.55" r="19.55" fill="#CD3C14"/>
            <path fill="#FFF" d="M24.859 28.735a.839.839 0 0 1-.61.265.839.839 0 0 1-.61-.265L20 25.096l-3.638 3.639a.839.839 0 0 1-.61.265.839.839 0 0 1-.61-.265l-3.877-3.876a.839.839 0 0 1-.265-.61c0-.23.088-.434.265-.61L14.904 20l-3.639-3.638a.839.839 0 0 1-.265-.61c0-.23.088-.434.265-.61l3.876-3.877a.839.839 0 0 1 .61-.265c.23 0 .434.088.61.265L20 14.904l3.638-3.639a.839.839 0 0 1 .61-.265c.23 0 .434.088.61.265l3.877 3.876c.177.177.265.38.265.61 0 .23-.088.434-.265.61L25.096 20l3.639 3.638c.177.177.265.38.265.61 0 .23-.088.434-.265.61l-3.876 3.877z"/>
        </g>
    </g>
</svg>
