<svg xmlns="http://www.w3.org/2000/svg" width="159" height="88" viewBox="0 0 159 88">
    <g fill="none" fill-rule="evenodd">
        <g transform="translate(85.796 37.714)">
            <circle cx="25.143" cy="25.143" r="25.143" fill="#FF7900" fill-rule="nonzero"/>
            <path fill="#FFF" d="M33.057 12.259c-.105-1.64-1.366-2.102-2.48-2.196-1.114-.095-4.393-.158-4.393-.158h-1.76s-3.279.063-4.392.158c-1.115.094-2.376.556-2.48 2.196-.106 1.64.126 25.831.126 25.831s-.078 1.773 2.164 2.06c1.808.231 4.582.231 4.582.231h1.76s2.775 0 4.582-.231c2.242-.287 2.165-2.06 2.165-2.06s.231-24.191.126-25.831zm-4.02-1.664a.347.347 0 0 1 0 .693.346.346 0 1 1 0-.693zm-1.04.173c.097 0 .174.077.174.174a.173.173 0 0 1-.174.173.174.174 0 0 1 0-.347zm-.489-.017a.191.191 0 0 1 0 .382.191.191 0 0 1 0-.382zm-3.536-.03h2.824a.22.22 0 0 1 .22.22.22.22 0 0 1-.22.221h-2.824a.22.22 0 0 1-.22-.22c0-.121.1-.22.22-.22zm2.417 28.567h-2.207a.493.493 0 1 1 0-.988h2.207a.493.493 0 1 1 0 .988zm5.854-1.934H18.455V13.058h13.788v24.296z"/>
        </g>
        <g transform="translate(84)">
            <circle cx="15.265" cy="15.265" r="15.265" fill="#FF7900" fill-rule="nonzero"/>
            <path fill="#FFF" d="M17.76 8.082h-4.99c-.605 0-1.097.437-1.097.975v11.52c0 .537.493.974 1.096.974h4.992c.605 0 1.096-.437 1.096-.975V9.056c0-.537-.492-.974-1.097-.974zm-3.611.748h2.229c.149 0 .269.11.269.244 0 .135-.12.244-.27.244H14.15c-.15 0-.27-.109-.27-.244s.12-.244.27-.244zm1.116 12.42c-.42 0-.762-.305-.762-.681 0-.376.341-.682.762-.682.42 0 .762.305.762.682 0 .376-.342.682-.762.682zm3.027-1.585h-6.097v-9.661h6.097v9.66z"/>
        </g>
        <g transform="translate(119.918 2.694)">
            <circle cx="19.306" cy="19.306" r="19.306" fill="#FF7900" fill-rule="nonzero"/>
            <path fill="#FFF" d="M23.648 10.776h-8.684c-.33 0-.597.283-.597.633v15.794c0 .35.267.634.597.634h8.684c.33 0 .597-.284.597-.634V11.41c0-.35-.267-.633-.597-.633zm-5.689 1.736c0-.464.281-.839.629-.839h1.436c.348 0 .63.375.63.839v.058l-2.695.001v-.06zm1.796 14.427a.898.898 0 1 1 0-1.796.898.898 0 0 1 0 1.796zm3.592-2.694h-8.082V13.469h8.082v10.776z"/>
        </g>
        <g>
            <path fill="#FF7900" fill-rule="nonzero" d="M15 25h42v45H15z"/>
            <g fill="#FFF">
                <path d="M0 44.634c0 21.891 17.742 39.634 39.634 39.634h39.634l-14.814-8.745c9.03-7.26 14.814-18.4 14.814-30.89C79.268 22.744 61.525 5 39.634 5 17.748 5 0 22.742 0 44.634m32.86 17.543a3.819 3.819 0 0 1-3.815-3.814 3.819 3.819 0 0 1 3.815-3.815 3.818 3.818 0 0 1 3.813 3.815 3.818 3.818 0 0 1-3.813 3.814m12.792 0a3.819 3.819 0 0 1-3.815-3.814 3.819 3.819 0 0 1 3.815-3.815 3.818 3.818 0 0 1 3.812 3.815 3.818 3.818 0 0 1-3.812 3.814m10.036-27.485l-4.11 12.796a1.02 1.02 0 0 1-.97.705H30.625c.202.758.355 1.345.44 1.673.381 1.463 1.143 1.463 1.16 1.468l16.054-.005c2.12 0 3.199 1.557 3.506 2.48a1.022 1.022 0 0 1-.964 1.339c-.423 0-.816-.265-.958-.684-.042-.116-.434-1.097-1.584-1.097H32.304c-.017 0-2.39.16-3.21-2.981-.53-2.04-3.725-14.04-4.567-17.188h-3.96a1.016 1.016 0 1 1 0-2.034h4.746c.46 0 .862.313.979.758 0 0 2.362 8.877 3.787 14.243h19.783L53.32 35.4H29.38a1.016 1.016 0 1 1 0-2.034h25.338c.322 0 .63.155.82.42.191.258.25.593.15.905"/>
                <path d="M34.639 58.363c0 2.373-3.56 2.373-3.56 0s3.56-2.373 3.56 0M47.43 58.363c0 2.373-3.559 2.373-3.559 0s3.56-2.373 3.56 0"/>
            </g>
        </g>
    </g>
</svg>
