<svg xmlns="http://www.w3.org/2000/svg" xmlns:xlink="http://www.w3.org/1999/xlink" width="128" height="110" viewBox="0 0 128 110">
    <defs>
        <path id="a" d="M48.983 7.933l-.232.074-.238.006-27.627.672-.325.006-.315-.12L2.45 1.494.081 43.097l6.326 42.072 17.712-.457 27.999-2.323 22.5-8.647.531-.2.537.167 22.861 7.203-1.653-39.185-.005-.053v-.054L96.523 8.1 72.489.213z"/>
        <path id="c" d="M48.983 7.933l-.232.074-.238.006-27.627.672-.325.006-.315-.12L2.45 1.494.081 43.097l6.326 42.072 17.712-.457 27.999-2.323 22.5-8.647.531-.2.537.167 22.861 7.203-1.653-39.185-.005-.053v-.054L96.523 8.1 72.489.213"/>
        <path id="e" d="M48.983 7.933l-.232.074-.238.006-27.627.672-.325.006-.315-.12L2.45 1.494.081 43.097l6.326 42.072 17.712-.457 27.999-2.323 22.5-8.647.531-.2.537.167 22.861 7.203-1.653-39.185-.005-.053v-.054L96.523 8.1 72.489.213z"/>
        <path id="g" d="M48.983 7.933l-.232.074-.238.006-27.627.672-.325.006-.315-.12L2.45 1.494.081 43.097l6.326 42.072 17.712-.457 27.999-2.323 22.5-8.647.531-.2.537.167 22.861 7.203-1.653-39.185-.005-.053v-.054L96.523 8.1 72.489.213z"/>
        <path id="i" d="M48.983 7.933l-.232.074-.238.006-27.627.672-.325.006-.315-.12L2.45 1.494.081 43.097l6.326 42.072 17.712-.457 27.999-2.323 22.5-8.647.531-.2.537.167 22.861 7.203-1.653-39.185-.005-.053v-.054L96.523 8.1 72.489.213z"/>
        <path id="k" d="M48.983 7.933l-.232.074-.238.006-27.627.672-.325.006-.315-.12L2.45 1.494.081 43.097l6.326 42.072 17.712-.457 27.999-2.323 22.5-8.647.531-.2.537.167 22.861 7.203-1.653-39.185-.005-.053v-.054L96.523 8.1 72.489.213z"/>
        <path id="m" d="M48.983 7.933l-.232.074-.238.006-27.627.672-.325.006-.315-.12L2.45 1.494.081 43.097l6.326 42.072 17.712-.457 27.999-2.323 22.5-8.647.531-.2.537.167 22.861 7.203-1.653-39.185-.005-.053v-.054L96.523 8.1 72.489.213z"/>
        <path id="o" d="M48.983 7.933l-.232.074-.238.006-27.627.672-.325.006-.315-.12L2.45 1.494.081 43.097l6.326 42.072 17.712-.457 27.999-2.323 22.5-8.647.531-.2.537.167 22.861 7.203-1.653-39.185-.005-.053v-.054L96.523 8.1 72.489.213"/>
        <path id="q" d="M48.983 7.933l-.232.074-.238.006-27.627.672-.325.006-.315-.12L2.45 1.494.081 43.097l6.326 42.072 17.712-.457 27.999-2.323 22.5-8.647.531-.2.537.167 22.861 7.203-1.653-39.185-.005-.053v-.054L96.523 8.1 72.489.213"/>
        <path id="s" d="M48.983 7.933l-.232.074-.238.006-27.627.672-.325.006-.315-.12L2.45 1.494.081 43.097l6.326 42.072 17.712-.457 27.999-2.323 22.5-8.647.531-.2.537.167 22.861 7.203-1.653-39.185-.005-.053v-.054L96.523 8.1 72.489.213"/>
        <path id="u" d="M48.983 7.933l-.232.074-.238.006-27.627.672-.325.006-.315-.12L2.45 1.494.081 43.097l6.326 42.072 17.712-.457 27.999-2.323 22.5-8.647.531-.2.537.167 22.861 7.203-1.653-39.185-.005-.053v-.054L96.523 8.1 72.489.213"/>
        <path id="w" d="M48.983 7.933l-.232.074-.238.006-27.627.672-.325.006-.315-.12L2.45 1.494.081 43.097l6.326 42.072 17.712-.457 27.999-2.323 22.5-8.647.531-.2.537.167 22.861 7.203-1.653-39.185-.005-.053v-.054L96.523 8.1 72.489.213"/>
        <path id="y" d="M48.983 7.933l-.232.074-.238.006-27.627.672-.325.006-.315-.12L2.45 1.494.081 43.097l6.326 42.072 17.712-.457 27.999-2.323 22.5-8.647.531-.2.537.167 22.861 7.203-1.653-39.185-.005-.053v-.054L96.523 8.1 72.489.213"/>
        <path id="A" d="M48.983 7.933l-.232.074-.238.006-27.627.672-.325.006-.315-.12L2.45 1.494.081 43.097l6.326 42.072 17.712-.457 27.999-2.323 22.5-8.647.531-.2.537.167 22.861 7.203-1.653-39.185-.005-.053v-.054L96.523 8.1 72.489.213"/>
        <path id="C" d="M48.983 7.933l-.232.074-.238.006-27.627.672-.325.006-.315-.12L2.45 1.494.081 43.097l6.326 42.072 17.712-.457 27.999-2.323 22.5-8.647.531-.2.537.167 22.861 7.203-1.653-39.185-.005-.053v-.054L96.523 8.1 72.489.213"/>
        <path id="E" d="M48.983 7.933l-.232.074-.238.006-27.627.672-.325.006-.315-.12L2.45 1.494.081 43.097l6.326 42.072 17.712-.457 27.999-2.323 22.5-8.647.531-.2.537.167 22.861 7.203-1.653-39.185-.005-.053v-.054L96.523 8.1 72.489.213"/>
        <path id="G" d="M48.983 7.933l-.232.074-.238.006-27.627.672-.325.006-.315-.12L2.45 1.494.081 43.097l6.326 42.072 17.712-.457 27.999-2.323 22.5-8.647.531-.2.537.167 22.861 7.203-1.653-39.185-.005-.053v-.054L96.523 8.1 72.489.213"/>
    </defs>
    <g fill="none" fill-rule="evenodd">
        <path fill="#A885D8" fill-rule="nonzero" d="M20.507 92.397c-3.99 0-30.82-47.401-16.17-59.097 14.65-11.695 17.309 17.706 26.924 17.706 9.615 0-4.88-14.279 10.308-35.982C56.757-6.68 82.835-4.8 86.119 20.22c3.283 25.019 20.538 0 36.696 12.51 16.158 12.509-13.013 62.877-36.696 62.877s-61.623-3.21-65.612-3.21z"/>
        <path fill="#FF7900" d="M115.877 106.475L90.192 98.42l-22.831 8.728-28.409 2.35-19.588.503-6.745-44.646 2.594-45.318 20.366 8.057 27.76-.672 24.129-7.888 26.203 8.56.39 35.583z"/>
        <path fill="#50BE87" d="M62.77 30.72l-.233.075-.239.006-27.683.675-.326.007-.316-.122-17.831-7.106-2.376 41.778 6.34 42.25 17.748-.459 28.056-2.333 22.546-8.683.533-.202.538.168 22.908 7.234-1.656-39.35-.006-.054v-.054l-.367-33.661-24.082-7.92z"/>
        <g transform="translate(13.766 22.968)">
            <mask id="b" fill="#fff">
                <use xlink:href="#a"/>
            </mask>
            <path fill="#4BB4E6" d="M56.013 88.585l19.035-7.733 26.981 3.693-.645-41.958-3.143-5.548s-17.23-9.123-17.884-9.123c-.655 0-14.831 8.63-14.831 8.63L53.748 63.174l-1.526 20.958 3.79 4.453z" mask="url(#b)"/>
        </g>
        <g transform="translate(13.766 22.968)">
            <mask id="d" fill="#fff">
                <use xlink:href="#c"/>
            </mask>
            <path fill="#B5E8F7" d="M101.384 42.586l-1.42-40.111-27.24-7.72L57.748 1.3S33.736 3.65 33.736 3.146 28.185 54.67 28.185 54.67l4.777 33.566 21.43 1.008 1.62-.659s-3.354-33.793 19.11-51.3c0 0 16.318-3.698 26.262 5.301" mask="url(#d)"/>
        </g>
        <g transform="translate(13.766 22.968)">
            <mask id="f" fill="#fff">
                <use xlink:href="#e"/>
            </mask>
            <path fill="#0A6E31" d="M63.463 51.584c.343.175.711.324 1.128.4 1.807.337 2.84-3.356 4.905-4.194 2.066-.84 5.939 2.181 5.939 2.181 3.098.168 5.422-4.868 4.647-6.377-.774-1.511-1.549-5.707-1.549-5.707a7.708 7.708 0 0 0-.111-.957l-3.3-1.124-7.197 2.96-5.016 7.396-.218 3.205.772 2.217z" mask="url(#f)"/>
        </g>
        <g transform="translate(13.766 22.968)">
            <mask id="h" fill="#fff">
                <use xlink:href="#g"/>
            </mask>
            <path fill="#0A6E31" d="M55.738 91.484l45.258-7.78-.128-25.006c-3.099.84-3.744.504-6.455-3.692-2.712-4.196-4.26-.671-5.81-.84-1.55-.167-4.131-.838-6.713 1.176s-6.584-1.007-6.584-1.007c-1.033-1.007-2.195-3.189-5.293.167-2.847 3.085-5.911.36-8.193.027l-7.635 5.687-2.836 27.614 4.39 3.654z" mask="url(#h)"/>
        </g>
        <g transform="translate(13.766 22.968)">
            <mask id="j" fill="#fff">
                <use xlink:href="#i"/>
            </mask>
            <path fill="#50BE87" d="M63.229 51.584c-1.144-.584-2-1.458-3.391-.942-1.808.671-3.744-.503-5.164 1.679-1.42 2.182-4.777 3.357-6.068 3.524 0 0-.775-.503-2.194-1.007-1.42-.503-7.746 1.343-11.103-.168-3.356-1.51-.903 6.042 4.648 4.868 5.551-1.175 8.133.167 9.166-1.175 1.033-1.343 3.873-1.847 5.422-.504 1.55 1.342 4.131-3.189 6.455-3.356.188-.014.384-.003.586.026l-.438 1.249c-2.617 4.684-5.016 20.217-5.016 20.217l-.628 15.49-8.447 1.45L3.94 95.118l-8.392-54.21s1.55-46.824 2.065-46.824c.517 0 61.193 8.056 61.193 8.056s3.744 2.014 4.131 4.7c.387 2.684-.129 3.692-1.032 4.867-.904 1.174-2.066 3.02-1.679 5.202.388 2.182.388 4.364 1.42 4.867 1.033.504 2.84.336 2.97 2.686.129 2.35-.388 4.699.904 6.21 1.29 1.51 1.936 3.02 3.227 2.853 1.29-.168 3.227-1.343 4.776-.168 1.55 1.174 1.162.503 1.162.503s2.861-.429 3.504 3.071l-3.082.602c-4.206 1.761-9.301 9.677-11.87 14.058l-.007-.006z" mask="url(#j)"/>
        </g>
        <g transform="translate(13.766 22.968)">
            <mask id="l" fill="#fff">
                <use xlink:href="#k"/>
            </mask>
            <path fill="#B5E8F7" d="M6.954 69.024c.128.314.492.433.816.473.775.099 1.767-.224 2.23-.74-.895.262-2.043.414-3.046.267zm53.773 16.161c-.155-.356-.94-1.882-1.32-2.26-.395-.395-.938-.474-1.513-.559-.674-.098-1.37-.2-1.906-.812-.459-.525-.547-1.17-.626-1.738-.057-.414-.11-.806-.293-1.13-.074-.131-.182-.324-.257-.44a1.192 1.192 0 0 1-.549.218c-.182.028-.222.084-.29.176-.248.34-.516.37-1.098.12-.315-.134-.601-.517-.835-.84-.658.674-1.175.936-1.61.826-.595-.15-.842-.903-1.103-1.7-.343-1.046-.615-1.733-1.251-1.765l-.2-.01-.106-.429c-.21-.864-.617-2.534-1.175-3.214-.315.945-1.092 1.57-1.954 1.496-.813-.066-.969-.22-1.154-.795-.061-.19-.137-.424-.308-.749-.4-.765-.606-1.01-.695-1.089-.079.181-.158.66-.217 1.021-.063.38-.134.812-.238 1.246l-.07.29-.258-.066c-1.07-.275-2.516.257-3.39.923-.368.28-.648.521-.895.734-.994.859-1.354 1.078-3.007.456-.174-.066-.378-.11-.594-.157-.346-.075-.706-.153-1.01-.334l-.186-.109c-1.29-.762-1.88-1.11-2.706-2.726l-.084-.169c-.197-.396-.656-1.328-1.041-1.429-.07-.018-.128-.003-.195.05-.139.109-.074.844-.036 1.282.06.68.122 1.382-.108 1.83l-.117.228-.219-.092c-.48-.202-.912-.616-1.33-1.016-.436-.417-.887-.85-1.37-1.019-.393-.137-.805-.129-1.241-.12-.572.01-1.163.022-1.78-.284-.647-.32-1.356-.744-1.71-1.46-.25-.505-.307-1-.358-1.436-.071-.61-.119-1.013-.604-1.285-.418-.236-.748-.303-.98-.197-.356.163-.545.763-.727 1.343-.189.6-.384 1.22-.809 1.508-1.718 1.158-3.158.244-4.155-.7-.277.507-.563.78-.885.848-.49.105-.902-.301-1.264-.66a9.99 9.99 0 0 0-.226-.22c-.457.995-1.969 1.476-2.966 1.35-.908-.116-1.424-.693-1.347-1.507l.032-.344.3.07c.984.231 2.451.098 3.582-.326l.026-.252.265.172.14-.023c.493-.08.648-.152.658-.454.004-.134-.024-.165-.242-.275-.167-.084-.395-.198-.477-.486-.232-.805-.152-1.241-.068-1.702.06-.328.122-.668.07-1.22-.087-.946-.508-1.529-.86-1.597-.393-.075-.684.455-.82.78l-.21.495-.27-.454c-.395-.663-.46-.621-.652-.504-.134.082-.316.194-.568.22-.115.012-.23.022-.347.031-.58.048-1.128.094-1.72.428l-.604.341.22-.722c.026-.088.038-.204.045-.325-.371.19-.711.241-1.029.16-.703-.184-1.109-.975-1.502-1.74-.296-.576-.602-1.171-.998-1.41l.26-.552c.535.322.882.995 1.217 1.648.349.68.678 1.321 1.147 1.443.294.074.647-.048 1.081-.38l.628-.477-.207.823c-.022.09-.029.228-.036.372l-.001.04c.51-.194.99-.234 1.459-.273.112-.01.225-.019.337-.03.138-.015.242-.079.353-.147.398-.245.692-.263 1.117.31.454-.737.97-.738 1.194-.694.67.13 1.212 1.013 1.318 2.148.06.65-.014 1.055-.08 1.413-.075.41-.134.734.052 1.38.016.029.116.079.176.11.205.102.587.294.57.867-.019.616-.381.856-.729.965.026.025.052.05.077.077.294.29.572.566.796.516.138-.03.367-.203.667-.864l.165-.361.267.271c1.396 1.422 2.557 1.694 3.761.883.254-.171.414-.683.57-1.179.213-.678.454-1.446 1.042-1.714.39-.178.86-.107 1.435.216.748.422.828 1.104.905 1.763.047.4.095.813.292 1.213.275.555.886.914 1.448 1.193.507.251 1.014.24 1.55.23.46-.009.936-.019 1.414.15.59.206 1.086.68 1.564 1.138.309.296.604.579.902.767.04-.316 0-.767-.036-1.176-.07-.792-.136-1.541.27-1.86a.713.713 0 0 1 .636-.145c.576.15 1.024.974 1.4 1.735l.079.16c.746 1.458 1.22 1.737 2.483 2.484l.186.11c.233.138.551.207.859.274.224.048.455.098.664.177 1.45.546 1.63.39 2.497-.359.24-.208.54-.466.92-.756.88-.669 2.326-1.257 3.555-1.068.067-.319.12-.635.166-.92.147-.889.244-1.476.654-1.557.355-.073.692.299 1.28 1.42.196.375.286.651.35.854.11.339.11.339.675.385.713.055 1.348-.565 1.482-1.45l.061-.403.329.173c.86.452 1.336 2.153 1.75 3.856l.002.006c.898.184 1.252 1.266 1.54 2.145.2.606.404 1.232.706 1.308.19.052.572-.068 1.32-.895l.21-.233.192.25c.05.065.104.14.163.221.177.245.444.616.635.697.34.146.426.126.435.123l.04-.056c.092-.127.246-.339.644-.399.202-.03.293-.1.373-.162.077-.06.194-.149.353-.114.206.048.327.263.62.782.245.435.31.911.374 1.37.071.52.139 1.013.472 1.395.401.46.975.543 1.583.631.632.093 1.286.189 1.808.71.494.492 1.32 2.153 1.451 2.455l-.497.275z" mask="url(#l)"/>
        </g>
        <g transform="translate(13.766 22.968)">
            <mask id="n" fill="#fff">
                <use xlink:href="#m"/>
            </mask>
            <path fill="#B5E8F7" d="M29.565 89.218c-.23-.039-.437-.072-.65-.287l-.168-.17.113-.222c.11-.212.307-.801.537-1.484.954-2.84 1.823-5.198 2.8-5.299.152-.017.346.018.547.204l.233-.505c.691-1.48.856-1.832-.482-3.217l-.174-.182.131-.222c.3-.51.41-1.06.275-1.37-.08-.18-.254-.282-.519-.302l-.244-.019-.014-.276c-.045-.922.399-1.69 1.08-1.866l.123.61c-.36.093-.604.47-.646.969.413.107.616.38.716.606.203.464.13 1.124-.187 1.766 1.391 1.504 1.186 2.178.431 3.796-.125.27-.266.57-.414.913l-.222.518-.263-.493c-.08-.147-.204-.317-.321-.306-.711.072-1.806 3.332-2.333 4.897-.184.549-.332.988-.449 1.288.04.01.088.018.148.027l-.008.315-.04.31z" mask="url(#n)"/>
        </g>
        <g transform="translate(13.766 22.968)">
            <mask id="p" fill="#fff">
                <use xlink:href="#o"/>
            </mask>
            <path fill="#FFF" d="M18.43 49.743c0-.926-.578-1.678-1.291-1.678s-1.292.752-1.292 1.678c0 .927.579 1.679 1.292 1.679.713 0 1.29-.752 1.29-1.679" mask="url(#p)"/>
        </g>
        <g transform="translate(13.766 22.968)">
            <mask id="r" fill="#fff">
                <use xlink:href="#q"/>
            </mask>
            <path fill="#FFF" d="M63.945 28.489c0-.927-.578-1.679-1.291-1.679s-1.29.752-1.29 1.679c0 .926.577 1.678 1.29 1.678.713 0 1.291-.752 1.291-1.678" mask="url(#r)"/>
        </g>
        <g transform="translate(13.766 22.968)">
            <mask id="t" fill="#fff">
                <use xlink:href="#s"/>
            </mask>
            <path fill="#FFF" d="M62.654 60.209c0-.927-.578-1.678-1.29-1.678-.714 0-1.292.75-1.292 1.678 0 .927.578 1.678 1.291 1.678s1.291-.751 1.291-1.678" mask="url(#t)"/>
        </g>
        <g transform="translate(13.766 22.968)">
            <mask id="v" fill="#fff">
                <use xlink:href="#u"/>
            </mask>
            <path stroke="#FFF" d="M-.217 42.922l22.98 3.692 24.787-.671 27.756-8.56 22.85 4.868" mask="url(#v)"/>
        </g>
        <g transform="translate(13.766 22.968)">
            <mask id="x" fill="#fff">
                <use xlink:href="#w"/>
            </mask>
            <path stroke="#FFF" d="M72.595-.546l2.71 37.93.078 36.157-.077 1.101" mask="url(#x)"/>
        </g>
        <g transform="translate(13.766 22.968)">
            <mask id="z" fill="#fff">
                <use xlink:href="#y"/>
            </mask>
            <path stroke="#FFF" d="M48.583 5.664l.402 2.342-1.435 37.937 4.802 36.446.49 2.156" mask="url(#z)"/>
        </g>
        <g transform="translate(13.766 22.968)">
            <mask id="B" fill="#fff">
                <use xlink:href="#A"/>
            </mask>
            <path stroke="#FFF" d="M25.99 88.237l-1.636-3.525-1.591-38.098-1.968-37.923.031-2.524" mask="url(#B)"/>
        </g>
        <g transform="translate(13.766 22.968)">
            <mask id="D" fill="#fff">
                <use xlink:href="#C"/>
            </mask>
            <path fill="#FF7900" d="M17.112 38.432c-1.196 0-2.165-1.096-2.165-2.448 0-1.352.97-2.448 2.165-2.448 1.196 0 2.166 1.096 2.166 2.448 0 1.352-.97 2.448-2.166 2.448m0-8.85c-3.941 0-6.505 4.688-4.742 8.674l4.742 10.722 4.743-10.722c1.762-3.986-.801-8.674-4.743-8.674" mask="url(#D)"/>
        </g>
        <g transform="translate(13.766 22.968)">
            <mask id="F" fill="#fff">
                <use xlink:href="#E"/>
            </mask>
            <path fill="#FF7900" d="M61.381 49.229c-1.196 0-2.165-1.097-2.165-2.449 0-1.352.97-2.448 2.165-2.448 1.196 0 2.166 1.096 2.166 2.448 0 1.352-.97 2.449-2.166 2.449m0-8.851c-3.941 0-6.505 4.689-4.742 8.674l4.742 10.722 4.743-10.722c1.762-3.985-.801-8.674-4.743-8.674" mask="url(#F)"/>
        </g>
        <g transform="translate(13.766 22.968)">
            <mask id="H" fill="#fff">
                <use xlink:href="#G"/>
            </mask>
            <path fill="#FF7900" d="M62.762 17.203c-1.196 0-2.166-1.096-2.166-2.448 0-1.353.97-2.448 2.166-2.448s2.165 1.095 2.165 2.448c0 1.352-.97 2.448-2.165 2.448m0-8.851c-3.942 0-6.505 4.69-4.743 8.674l4.743 10.722 4.742-10.722c1.763-3.985-.8-8.674-4.742-8.674" mask="url(#H)"/>
        </g>
    </g>
</svg>
