<svg xmlns="http://www.w3.org/2000/svg" xmlns:xlink="http://www.w3.org/1999/xlink" width="53" height="70" viewBox="0 0 53 70">
    <defs>
        <path id="a" d="M.077.081h3.601v.58h-3.6z"/>
        <path id="c" d="M0 .056h2.19v.691H0z"/>
        <path id="e" d="M.025.098h36.256v38.478H.025z"/>
    </defs>
    <g fill="none" fill-rule="evenodd">
        <path fill="#724F47" d="M13.75 29.879c.122-.162 2.656-3.93 2.813-2.936.128.816-1.192 2.383-.283 2.983.733.484 1.29-.7 1.675-1.156.473-.562 1.105-1.264 1.776-.517.876.973-.592 2.563-.922 3.442-.743 1.978.327 1.541 1.112.13.37-.664 3.161-4.856 3.686-2.745.274 1.104-.534 1.884-.856 2.854-.296.893-1.098 1.894-.88 2.865 1.479-1.588 2.049-3.967 3.722-5.397.668-.57 1.502-.814 1.495.37-.007 1.2-3.01 6.568-3.675 8.225a5.219 5.219 0 0 0-.36 1.536c-.103 1.265.227 2.521.602 3.807.5 1.714 1.152 3.494 1.428 5.226.199 1.248-.28 2.292-.784 3.394-.097.21-1.27 3.44-.805 3.374-2.15.305-4.3.613-6.45.92-.839.12-3.27.894-3.794.016-.361-.605.108-2.204.172-2.88.099-1.035.177-2.082.014-3.116-.53-3.352-2.727-6.21-3.674-9.425-.682-2.317-1.48-3.79-.013-6.01 1.176-1.778 2.714-3.27 4-4.96"/>
        <path fill="#141819" d="M20.902 42.43l.018.017-.018-.018M20.949 42.476l.02.017-.02-.017M21 42.52l.02.016-.02-.016M20.819 42.327v.002zM20.858 42.38l.014.016-.014-.016M22.373 42.525l-.012.009.012-.009zM21.056 42.561l.02.014-.02-.014M21.194 42.64zM21.02 42.536l.037.025c-.013-.008-.025-.016-.036-.025"/>
        <path fill="#9EABC0" d="M24.073 30.097l.006.01-.006-.01"/>
        <path fill="#FFF" d="M5.4 5.517c.859.484 1.784.838 2.667 1.276.335.166.041.666-.293.5-.883-.437-1.808-.791-2.667-1.275-.326-.184-.034-.685.292-.501M2.872 10.682a11.76 11.76 0 0 1 3.625.967c.342.15.047.65-.292.501a10.883 10.883 0 0 0-3.333-.888c-.37-.036-.373-.616 0-.58M1.48 15.321c1.17.008 2.32.229 3.48.348.367.038.371.618 0 .58-1.16-.12-2.31-.34-3.48-.348-.374-.002-.374-.582 0-.58"/>
        <g transform="matrix(-1 0 0 1 4.273 19.183)">
            <mask id="b" fill="#fff">
                <use xlink:href="#a"/>
            </mask>
            <path fill="#FFF" d="M3.396.081H.36c-.377 0-.377.58 0 .58h3.036c.377 0 .377-.58 0-.58" mask="url(#b)"/>
        </g>
        <path fill="#FFF" d="M2.493 24.523c.695-.342 1.424-.596 2.157-.841.356-.119.507.441.154.56-.686.228-1.368.462-2.018.782-.334.164-.628-.336-.293-.5M2.79 29.165c.875-.527 1.705-1.125 2.58-1.651.32-.193.568.332.25.523-.875.526-1.704 1.124-2.579 1.65-.32.194-.568-.332-.25-.522M5.393 33.454c.712-.477 1.416-.976 2.029-1.579.266-.262.677.147.41.41-.647.637-1.394 1.166-2.147 1.67-.311.208-.601-.295-.292-.501M41.476 34.27c.245 1.175.785 2.25 1.363 3.294.18.327-.32.62-.501.292-.6-1.083-1.166-2.212-1.421-3.432-.076-.365.483-.52.559-.155M45.46 33.682c.803.79 1.807 1.354 2.552 2.204.245.28-.163.692-.41.41-.745-.85-1.749-1.414-2.551-2.204-.267-.262.143-.672.41-.41M47.652 30.124c.44.116.848.315 1.276.464.351.121.2.682-.154.559-.428-.149-.836-.348-1.276-.464-.361-.096-.208-.655.154-.56M46.808 24.724c1.566.01 3.084.452 4.639.58.37.03.373.61 0 .58-1.555-.128-3.074-.57-4.64-.58-.373-.003-.373-.583 0-.58"/>
        <g transform="matrix(-1 0 0 1 52.896 21.593)">
            <mask id="d" fill="#fff">
                <use xlink:href="#c"/>
            </mask>
            <path fill="#FFF" d="M1.981.182C1.417.075.853.056.281.056c-.375 0-.375.58 0 .58.52 0 1.034.008 1.546.105.365.07.522-.489.154-.559" mask="url(#d)"/>
        </g>
        <path fill="#FFF" d="M48.07 17.83c1.446-.36 2.94-.678 4.221-1.479.318-.198.61.303.293.501-1.323.827-2.866 1.165-4.36 1.537-.363.09-.517-.469-.155-.56M50.67 12.296l.696-.349c.141-.07.313-.038.397.105.076.13.037.326-.105.396l-.695.348c-.142.07-.313.04-.397-.104-.076-.13-.037-.326.104-.396M47.6 9.945c.98-.327 1.977-.65 2.831-1.247.307-.214.597.289.293.501-.893.624-1.946.964-2.97 1.305-.355.119-.506-.441-.153-.559M44.562 5.48c.492-.364 1.016-.68 1.508-1.044.301-.223.59.28.293.5-.492.364-1.017.68-1.508 1.044-.301.223-.59-.28-.293-.5M24.484 54.444v.626c0 .336-.521.336-.521 0v-.626c0-.336.521-.336.521 0M24.562 56.79v.625c0 .336-.52.336-.52 0v-.625c0-.337.52-.337.52 0M24.64 58.822v.626c0 .335-.52.335-.52 0v-.626c0-.336.52-.336.52 0M24.64 60.776v.548c0 .335-.52.335-.52 0v-.548c0-.336.52-.336.52 0M24.224 62.783c.141 0 .26.118.26.26v.47c0 .141-.119.26-.26.26a.263.263 0 0 1-.261-.26v-.47c0-.142.119-.26.26-.26M24.562 65.31v.704c0 .336-.52.336-.52 0v-.704c0-.336.52-.336.52 0M22.92 64.841v.626c0 .336-.52.336-.52 0v-.626c0-.336.52-.336.52 0M22.582 62.548c.142 0 .26.119.26.26v.47c0 .142-.118.26-.26.26a.263.263 0 0 1-.26-.26v-.47c0-.141.118-.26.26-.26M22.764 60.385v.626c0 .336-.52.336-.52 0v-.626c0-.336.52-.336.52 0M22.243 57.728c0-.336.522-.336.521 0 0 .26-.01.521-.087.773-.1.32-.603.183-.503-.14.065-.208.07-.416.07-.633M22.999 54.913v.704c0 .336-.521.336-.521 0v-.704c0-.336.52-.336.52 0M21.47 67.773v.625c0 .336-.522.336-.522 0v-.625c0-.336.521-.336.521 0M21.625 65.506v.547c0 .336-.52.336-.52 0v-.547c0-.336.52-.336.52 0M21.625 63.551v.548c0 .336-.52.336-.52 0v-.548c0-.336.52-.336.52 0M21.339 60.894c0-.336.521-.336.521 0v.625a.237.237 0 0 1-.122.217.236.236 0 0 1-.217.122c-.256 0-.317-.303-.182-.447v-.517zM21.6 58.522c.141 0 .26.119.26.261v.313c0 .142-.119.26-.26.26a.263.263 0 0 1-.261-.26v-.313c0-.142.118-.26.26-.26M21.521 56.568c.142 0 .26.119.26.261 0 .038.002.076.005.114 0-.012.012.062.014.071a.796.796 0 0 0 .024.074c.061.128.037.28-.093.357-.114.067-.296.034-.357-.094a1.2 1.2 0 0 1-.113-.522c0-.142.118-.26.26-.26"/>
        <path fill="#000" d="M10.586 52.846c.414-.214 12.758-.623 13.914-.06.77.374.798 1.855.889 2.412.317 1.945.847 11.755 1.301 14.633H9.142c.08 0 .792-13.905.932-15.917.041-.588.194-.904.512-1.068"/>
        <path fill="#FFF" d="M23.701 53.218c.107-.062.272-.032.329.086.106.22.171.451.177.697.006.31-.474.31-.48 0a1.102 1.102 0 0 0-.112-.455c-.057-.118-.033-.258.086-.328M23.93 55.6c-.02-.023-.009-.014 0 0"/>
        <path fill="#FFF" d="M24.28 55.271c.117.128.143.291.143.458 0 .13-.11.24-.24.24a.242.242 0 0 1-.24-.24v-.048l-.005-.051a.494.494 0 0 0-.007-.03v-.003a.241.241 0 0 1 .01-.326c.09-.089.251-.096.34 0M24.495 57.241c0 .123-.008.282.039.383.054.12.035.258-.086.329-.105.06-.274.032-.329-.087-.09-.198-.104-.409-.104-.625 0-.31.48-.31.48 0M24.63 59.122c.072.23.08.471.08.711 0 .31-.48.31-.48 0 0-.2-.003-.392-.063-.584-.092-.296.372-.422.463-.127M24.639 61.417c.004.242.068.478.072.72.004.31-.476.31-.48 0-.004-.242-.067-.477-.072-.72-.007-.31.473-.309.48 0M24.855 63.506c0 .179.008.34.063.512.094.296-.37.421-.463.128a2.078 2.078 0 0 1-.08-.64c0-.31.48-.31.48 0M25.215 65.378c0 .164.012.28.063.44.095.296-.369.421-.463.128a1.851 1.851 0 0 1-.08-.568c0-.31.48-.31.48 0M25.503 67.178v.504c0 .31-.48.31-.48 0v-.504c0-.31.48-.31.48 0M24.35 66.53v.576c0 .31-.48.31-.48 0v-.576c0-.31.48-.31.48 0M23.886 64.68c.162.258.177.546.177.842 0 .31-.48.31-.48 0 0-.212.005-.414-.112-.599-.165-.263.25-.504.415-.242M23.197 62.722c.105-.061.274-.032.329.086.083.18.104.358.105.554 0 .13-.11.24-.24.24-.131 0-.24-.11-.24-.24 0-.108.006-.213-.04-.311-.055-.119-.034-.258.086-.329M23.487 60.77v.72c0 .31-.48.31-.48 0v-.72c0-.31.48-.31.48 0M22.914 58.982a.961.961 0 0 0-.008-.044c-.01-.04-.022-.08-.035-.121-.04-.124.046-.262.168-.295a.243.243 0 0 1 .295.168c.072.223.108.477-.062.665-.088.097-.25.09-.34 0a.24.24 0 0 1-.016-.317V59c0-.01-.001-.015-.002-.019M23.27 56.665v.504c0 .31-.48.31-.48 0v-.504c0-.31.48-.31.48 0M23.27 67.106v.576c0 .31-.48.31-.48 0v-.576c0-.31.48-.31.48 0M22.91 65.09v.576c0 .31-.48.31-.48 0v-.576c0-.31.48-.31.48 0M22.31 62.834c.131 0 .24.109.24.24 0 .035.002.07.005.105 0-.01.01.057.012.066a.776.776 0 0 0 .023.068c.056.118.034.257-.086.328-.106.062-.273.032-.329-.086a1.106 1.106 0 0 1-.105-.481c0-.131.11-.24.24-.24M22.094 60.53c.131 0 .24.109.24.24v.36c0 .13-.109.24-.24.24-.13 0-.24-.11-.24-.24v-.36c0-.131.11-.24.24-.24M22.19 58.177v.72c0 .31-.48.31-.48 0v-.72c0-.31.48-.31.48 0M22.046 55.945c0 .085.002.17.007.256.004.06.022.176.033.2.054.118.035.256-.086.327-.104.061-.275.034-.329-.086-.099-.218-.104-.46-.105-.697 0-.31.48-.31.48 0M20.895 56.953v.72c0 .31-.48.31-.48 0v-.72c0-.31.48-.31.48 0M21.11 58.97c.005.15.068.333.072.504.009.31-.471.308-.48 0-.004-.152-.067-.335-.072-.505-.008-.31.472-.309.48 0M21.47 61.201v.577c0 .31-.48.31-.48 0V61.2c0-.31.48-.31.48 0M21.302 63.05c.131 0 .24.109.24.24v.36c0 .13-.109.24-.24.24-.13 0-.24-.11-.24-.24v-.36c0-.131.11-.24.24-.24M21.325 64.954c.105-.06.274-.032.329.087.083.179.104.357.104.553 0 .13-.109.24-.24.24-.13 0-.24-.11-.24-.24 0-.107.007-.213-.039-.311-.055-.119-.034-.258.086-.329M21.662 67.154c.131 0 .24.109.24.24v.216c0 .13-.109.24-.24.24-.13 0-.24-.11-.24-.24v-.216c0-.131.11-.24.24-.24M20.606 66.386c.005.313.067.622.072.936.005.31-.475.31-.48 0-.005-.314-.067-.623-.072-.936-.005-.31.476-.31.48 0M20.318 64.082v.576c0 .31-.48.31-.48 0v-.576c0-.31.48-.31.48 0M20.022 61.354c.067.356.08.71.08 1.072 0 .31-.48.31-.48 0 0-.318-.004-.632-.063-.945-.057-.302.405-.431.463-.127M19.958 59.402v.575c0 .31-.48.31-.48 0v-.575c0-.31.48-.31.48 0M19.742 57.025v.864c0 .31-.48.31-.48 0v-.864c0-.31.48-.31.48 0M18.134 57.217c.131 0 .24.11.24.24v.432c0 .131-.109.24-.24.24-.13 0-.24-.109-.24-.24v-.432c0-.13.11-.24.24-.24M18.438 59.482c.08.351.08.713.08 1.071 0 .31-.48.31-.48 0 0-.315.007-.635-.063-.944-.07-.301.394-.43.463-.127M18.662 62.426v.504c0 .31-.48.31-.48 0v-.504c0-.31.48-.31.48 0M18.494 64.418c.13 0 .24.109.24.24v.432c0 .13-.11.24-.24.24a.242.242 0 0 1-.24-.24v-.432c0-.131.11-.24.24-.24M18.95 66.674v.504c0 .31-.48.31-.48 0v-.504c0-.31.48-.31.48 0M17.654 66.53v.576c0 .31-.48.31-.48 0v-.576c0-.31.48-.31.48 0M17.43 64.378c.071.231.08.471.08.712 0 .31-.48.31-.48 0 0-.2-.004-.392-.063-.584-.092-.297.371-.423.463-.128M17.294 61.706v.792c0 .31-.48.31-.48 0v-.792c0-.31.48-.31.48 0M16.91 59.09c.131 0 .24.109.24.24v.431c0 .131-.109.24-.24.24a.242.242 0 0 1-.24-.24v-.432c0-.13.11-.24.24-.24M16.934 56.81v.503c0 .31-.48.31-.48 0v-.504c0-.31.48-.31.48 0M15.566 57.313c.005.242.067.478.072.72.006.31-.474.31-.48 0-.005-.242-.067-.478-.072-.72-.006-.31.474-.309.48 0M15.542 59.666c.13 0 .24.109.24.24v.431c0 .131-.11.24-.24.24s-.24-.109-.24-.24v-.431c0-.131.11-.24.24-.24M15.854 61.922v.576c0 .309-.48.309-.48 0v-.576c0-.31.48-.31.48 0M15.686 63.77c.13 0 .24.109.24.24v.216c0 .13-.11.24-.24.24s-.24-.11-.24-.24v-.216c0-.131.11-.24.24-.24M15.926 65.594v.576c0 .31-.48.31-.48 0v-.576c0-.31.48-.31.48 0M15.686 67.226c.13 0 .24.11.24.24v.288c0 .13-.11.24-.24.24a.242.242 0 0 1-.24-.24v-.288c0-.13.11-.24.24-.24M14.87 66.586v.72c0 .31-.48.31-.48 0v-.72c0-.31.48-.31.48 0M14.63 65.018v.792c0 .31-.48.31-.48 0v-.792c0-.31.48-.31.48 0M14.63 62.21v1.08c0 .31-.48.31-.48 0v-1.08c0-.31.48-.31.48 0M14.63 59.977v.792c0 .31-.48.31-.48 0v-.792c0-.31.48-.31.48 0M14.246 57.65c.13 0 .24.108.24.24v.36c0 .13-.11.24-.24.24-.131 0-.24-.11-.24-.24v-.36c0-.132.109-.24.24-.24M13.262 57.17v.575c0 .31-.48.31-.48 0v-.576c0-.31.48-.31.48 0M13.334 59.33v.576c0 .309-.48.309-.48 0v-.577c0-.31.48-.31.48 0M13.406 61.201v.577c0 .31-.48.31-.48 0V61.2c0-.31.48-.31.48 0M13.406 63.002v.504c0 .31-.48.31-.48 0v-.504c0-.31.48-.31.48 0M13.022 64.85c.13 0 .24.109.24.24v.432c0 .13-.11.24-.24.24-.131 0-.24-.11-.24-.24v-.432c0-.131.109-.24.24-.24M13.334 67.178v.648c0 .31-.48.31-.48 0v-.648c0-.31.48-.31.48 0M11.822 66.746v.576c0 .31-.48.31-.48 0v-.576c0-.31.48-.31.48 0M11.51 64.634c.13 0 .24.109.24.24v.432c0 .13-.11.24-.24.24a.242.242 0 0 1-.24-.24v-.432c0-.131.109-.24.24-.24M11.678 62.641v.577c0 .31-.48.31-.48 0v-.577c0-.309.48-.309.48 0M11.198 60.193c0-.309.48-.31.48 0 0 .24-.01.48-.08.712-.092.295-.556.17-.464-.127.06-.193.064-.385.064-.585M11.894 57.601v.648c0 .31-.48.31-.48 0v-.648c0-.31.48-.31.48 0M11.894 55.225v.648c0 .31-.48.31-.48 0v-.648c0-.31.48-.31.48 0M11.582 53.401c.13 0 .24.11.24.24v.144c0 .13-.11.24-.24.24-.131 0-.24-.11-.24-.24v-.144c0-.13.109-.24.24-.24M9.998 66.866c.13 0 .24.109.24.24v.36c0 .131-.11.24-.24.24-.131 0-.24-.109-.24-.24v-.36c0-.131.109-.24.24-.24M10.31 64.874v.576c0 .31-.48.31-.48 0v-.576c0-.31.48-.31.48 0M10.454 62.786v.504c0 .31-.48.31-.48 0v-.504c0-.31.48-.31.48 0M10.454 60.985v.505c0 .309-.48.309-.48 0v-.505c0-.31.48-.31.48 0M10.19 58.537c0-.31.48-.31.48 0v.576a.218.218 0 0 1-.113.2.218.218 0 0 1-.2.112c-.235 0-.291-.278-.167-.41v-.478zM10.43 56.353c.13 0 .24.11.24.24v.288c0 .131-.11.24-.24.24-.131 0-.24-.109-.24-.24v-.288c0-.13.109-.24.24-.24M10.358 54.553c.13 0 .24.11.24.24 0 .035.001.07.004.105 0-.01.01.057.012.066a.666.666 0 0 0 .023.068c.056.118.034.258-.086.328-.105.062-.273.033-.329-.086a1.105 1.105 0 0 1-.104-.48c0-.132.109-.24.24-.24M10.574 52.969c.13 0 .24.11.24.24v.216c0 .13-.11.24-.24.24-.131 0-.24-.11-.24-.24v-.216c0-.13.109-.24.24-.24M18.314 68.805v.505c0 .31-.48.31-.48 0v-.505c0-.31.48-.31.48 0M23.23 68.706c.13 0 .24.11.24.24v.432c0 .131-.11.24-.24.24-.132 0-.24-.109-.24-.24v-.432c0-.13.108-.24.24-.24M16.862 68.454v.504c0 .31-.48.31-.48 0v-.504c0-.31.48-.31.48 0M20.318 68.501v.576c0 .31-.48.31-.48 0v-.576c0-.31.48-.31.48 0M24.404 67.97c.072.23.08.47.08.71 0 .31-.48.31-.48 0 0-.199-.003-.391-.063-.583-.092-.297.372-.423.463-.128M19.19 68.393v.792c0 .31-.48.31-.48 0v-.792c0-.31.48-.31.48 0M14.39 68.033v1.08c0 .31-.48.31-.48 0v-1.08c0-.31.48-.31.48 0M12.878 68.661v.504c0 .31-.48.31-.48 0v-.504c0-.31.48-.31.48 0M25.292 68.602c.13 0 .24.109.24.24v.431c0 .131-.11.24-.24.24-.131 0-.24-.109-.24-.24v-.431c0-.131.109-.24.24-.24M21.422 68.194c.131 0 .24.11.24.24v.432c0 .131-.109.24-.24.24a.242.242 0 0 1-.24-.24v-.432c0-.13.11-.24.24-.24M11.33 69.021v.576c0 .31-.48.31-.48 0v-.576c0-.31.48-.31.48 0M10.106 69.166v.504c0 .309-.48.309-.48 0v-.504c0-.31.48-.31.48 0M21.756 54.848c.142 0 .26.119.26.26v.236c0 .142-.118.26-.26.26a.263.263 0 0 1-.26-.26v-.235c0-.142.118-.26.26-.26M23.055 54.577v.504c0 .31-.48.31-.48 0v-.504c0-.31.48-.31.48 0M22.742 53.113c.131 0 .24.109.24.24v.216c0 .13-.109.24-.24.24-.13 0-.24-.11-.24-.24v-.216c0-.131.11-.24.24-.24M21.83 53.569v.72c0 .31-.48.31-.48 0v-.72c0-.31.48-.31.48 0M20.582 52.897c.131 0 .24.11.24.24v.36c0 .13-.109.24-.24.24-.13 0-.24-.11-.24-.24v-.36c0-.13.11-.24.24-.24M20.582 54.985c.131 0 .24.11.24.24v.432c0 .13-.109.24-.24.24-.13 0-.24-.11-.24-.24v-.432c0-.13.11-.24.24-.24M19.67 54.649v.648c0 .31-.48.31-.48 0v-.648c0-.31.48-.31.48 0M19.214 53.185c.131 0 .24.11.24.24v.216c0 .13-.109.24-.24.24-.13 0-.24-.11-.24-.24v-.216c0-.13.11-.24.24-.24M18.302 53.28v.577c0 .31-.48.31-.48 0v-.576c0-.31.48-.31.48 0M18.23 55.297v.576c0 .31-.48.31-.48 0v-.576c0-.31.48-.31.48 0M16.694 54.265c.128 0 .245.11.24.24-.005.147-.067.295-.072.432a.243.243 0 0 1-.24.24c-.127 0-.244-.11-.24-.24.005-.147.067-.295.072-.432a.243.243 0 0 1 .24-.24M16.622 53.113c.13 0 .24.109.24.24v.144c0 .13-.11.24-.24.24s-.24-.11-.24-.24v-.144c0-.131.11-.24.24-.24M15.47 53.113c.131 0 .24.109.24.24v.432c0 .13-.109.24-.24.24-.13 0-.24-.11-.24-.24v-.432c0-.131.11-.24.24-.24M15.638 55.081v.648c0 .31-.48.31-.48 0v-.648c0-.31.48-.31.48 0M14.342 55.153v.576c0 .31-.48.31-.48 0v-.576c0-.31.48-.31.48 0M14.102 53.185c.13 0 .24.11.24.24v.288c0 .13-.11.24-.24.24a.242.242 0 0 1-.24-.24v-.288c0-.13.11-.24.24-.24M12.638 53.209c0-.31.48-.31.48 0 0 .24-.004.475-.105.697-.054.12-.224.147-.328.086-.122-.07-.14-.209-.086-.328.06-.133.039-.314.039-.455M13.118 55.009v.648c0 .31-.48.31-.48 0v-.648c0-.31.48-.31.48 0M19.449 25.129l-.062.006c.02-.002.041-.005.062-.006M15.602 32.016c.314.13.554.138.79.433.073.091.272.815.25.808-.673-.225-1.311-.734-2.008-.981-.427-.152-1.179-.133-1.453-.533.842-.05 1.63-.056 2.421.273"/>
        <g transform="matrix(-1 0 0 1 45.666 .006)">
            <mask id="f" fill="#fff">
                <use xlink:href="#e"/>
            </mask>
            <path fill="#FFF" d="M20.079 37.964l15.173-12.237a2.762 2.762 0 0 0 .45-3.841L19.646 1.169a2.762 2.762 0 0 0-3.979-.407L.992 13.317a2.762 2.762 0 0 0-.4 3.774l15.557 20.398a2.762 2.762 0 0 0 3.93.475" mask="url(#f)"/>
        </g>
        <path fill="#FF7900" d="M43.757 15.812c-1.473-.697-2.826-1.644-4.181-2.544a110.384 110.384 0 0 1-4.09-2.872c-2.66-1.948-5.232-4.003-7.782-6.094l1.238-.513c.581 5.483.27 11.003.793 16.49.037.39-.396.846-.793.793-5.778-.762-11.398 1.229-17.103 1.773l.67-1.619c1.122 1.231 2.47 2.199 3.817 3.165a152.58 152.58 0 0 1 4.324 3.225 147.985 147.985 0 0 1 8.232 6.856c.916.82-.435 2.163-1.348 1.348a143.56 143.56 0 0 0-8.207-6.815 159.91 159.91 0 0 0-4.28-3.163c-1.38-.988-2.75-1.996-3.879-3.275-.564-.64-.16-1.552.67-1.618 2.898-.23 5.735-.84 8.607-1.252 2.906-.417 5.788-.576 8.708-.183l-1.004.765c-.508-5.485-.209-11.001-.657-16.49-.056-.678.804-.886 1.237-.512 2.478 2.133 5.072 4.142 7.706 6.076 1.318.967 2.653 1.909 3.992 2.847 1.321.926 2.7 1.786 3.943 2.817.47.39-.129 1.024-.613.795"/>
        <path fill="#FFF" d="M21.324 29.211c-.013.636-.035 1.262-.043 1.88-.017 1.184.01 2.38.253 3.542.246 1.184.938 2.21 1.164 3.374.411 2.122 1.253 4.138 1.806 6.217.344 1.29.877 2.357.888 3.727a9.31 9.31 0 0 1-.277 2.338c-.233.918-.856 1.506-1.103 2.402-.29-.015-.572-.087-.864-.165.152-.941.841-2.046 1.159-2.974.28-.82.283-1.525.253-2.378-.092-2.674-1.214-5.176-2.027-7.682-.623-1.922-1.66-3.708-1.875-5.75-.12-1.13 1.31-8.819-1.21-8.613 1.92-.186 1.903 2.769 1.876 4.082"/>
        <path fill="#724F47" d="M17.055 32.456c.86-1.76.595-3.939 1.502-5.707.576-1.125 1.525-2.45 2.34-.655.436.958.173 2.306.13 3.32-.121 2.933.146 5.595.982 8.462.507 1.738.918 3.512.754 5.33-.158 1.755-1.95 1.084-3.439.246-.76-.427-1.44-.899-1.785-1.112-1.666-1.034-4.389-3.257-3.838-5.49.464-1.877 2.54-2.727 3.354-4.394"/>
        <path fill="#FFF" d="M12.847 35.126c1.46-.341 2.508 1.304 3.39-.552.76-1.598.99-3.23 1.23-4.97.14-1.008.815-4.302 2.186-4.354l.324-.08c-.794.174-1.262 1.916-1.462 2.586-.355 1.191-.499 2.473-.643 3.748-.152 1.337-.314 2.927-1.132 4.045-.481.657-.935.955-1.738.908-.382-.022-3.404-1.04-2.155-1.331"/>
    </g>
</svg>
