<svg xmlns="http://www.w3.org/2000/svg" xmlns:xlink="http://www.w3.org/1999/xlink" width="119" height="110" viewBox="0 0 119 110">
    <defs>
        <path id="a" d="M.36.031h16.412v5.5H.361z"/>
        <path id="c" d="M.362.184h13.219V13.02H.362z"/>
    </defs>
    <g fill="none" fill-rule="evenodd">
        <path fill="#4BB4E6" fill-rule="nonzero" d="M14.164 92.535c-4.508 0-23.908-48.213-7.352-60.322C23.367 20.103 27.1 51.158 37.965 51.158c10.866 0-2.73-39.053 15.468-48.515 18.198-9.463 34.876 8.28 34.876 24.839 0 16.559 17.613-1.59 26.762 5.913 9.15 7.504 0 62.465-26.762 62.465-26.763 0-69.637-3.325-74.145-3.325z"/>
        <path fill="#595959" d="M94.91 104.038c-.148 3.429-3.223 6.096-6.869 5.957-3.646-.14-6.482-3.031-6.334-6.46.147-3.429 3.223-6.096 6.869-5.957 3.646.139 6.482 3.03 6.334 6.46"/>
        <path fill="#8F8F8F" d="M88.358 105.855a2.56 2.56 0 0 1-2.45-2.651l3.298-81.297a2.561 2.561 0 0 1 2.657-2.446 2.561 2.561 0 0 1 2.45 2.652l-3.298 81.297a2.56 2.56 0 0 1-2.657 2.445"/>
        <path fill="#8F8F8F" d="M13.23 94.009c.058-1.348 1.273-2.407 2.7-2.352l72.89 2.788c1.427.054 2.547 1.201 2.49 2.55-.058 1.348-1.273 2.405-2.7 2.351L15.72 96.56c-1.428-.055-2.548-1.203-2.49-2.55"/>
        <g transform="translate(88.309 20.05)">
            <mask id="b" fill="#fff">
                <use xlink:href="#a"/>
            </mask>
            <path fill="#8F8F8F" d="M.363 2.462C.42 1.07 1.653-.023 3.1.033l11.144.434c1.447.057 2.583 1.242 2.525 2.634-.059 1.391-1.29 2.484-2.738 2.428L2.887 5.095C1.44 5.04.304 3.854.363 2.462" mask="url(#b)"/>
        </g>
        <path fill="#1C1C1C" d="M60.81 89.359c-.082 2.001-1.807 3.559-3.85 3.477l-34.774-1.39c-2.044-.082-3.632-1.772-3.55-3.774l2.869-68.875c.083-2.002 1.807-3.56 3.85-3.477l34.775 1.39c2.043.082 3.632 1.77 3.549 3.773L60.81 89.36z"/>
        <path stroke="#000" d="M60.81 89.359c-.082 2.001-1.807 3.559-3.85 3.477l-34.774-1.39c-2.044-.082-3.632-1.772-3.55-3.774l2.869-68.875c.083-2.002 1.807-3.56 3.85-3.477l34.775 1.39c2.043.082 3.632 1.77 3.549 3.773L60.81 89.36z"/>
        <path fill="#FFF" d="M58.945 79.82l-36.707-1.48 2.334-56.514 36.707 1.48z"/>
        <path fill="#FF7900" d="M43.001 88.104l-6.348-.255.259-6.254 6.348.255z"/>
        <path fill="#000" d="M81.716 45.233c-.32-.389-.934-.867-2.037-.94l-2.936-.193-2.697-.177-2.936-.193c-1.103-.072-1.775.322-2.145.665-.766.71-.833 1.705-.838 1.931l-.24 3.566L69.52 50l.242-3.587.001-.058c0-.005.023-.504.323-.783.194-.18.501-.257.915-.23l2.937.193 2.696.177 2.937.193c.413.027.708.145.876.348.26.315.215.813.214.818l-.006.057-.242 3.587 1.633.108.241-3.566c.026-.226.093-1.22-.57-2.024"/>
        <path fill="#FF7900" d="M83.527 94.612l-19.354-.754c-1.657-.064-2.958-1.42-2.891-3.012l1.644-39.018c.067-1.592 1.478-2.843 3.135-2.778l19.354.753c1.657.064 2.958 1.42 2.891 3.013l-1.644 39.017c-.067 1.593-1.478 2.843-3.135 2.779"/>
        <g transform="translate(16.231 96.981)">
            <mask id="d" fill="#fff">
                <use xlink:href="#c"/>
            </mask>
            <path fill="#595959" d="M13.58 6.602c0 3.544-2.959 6.417-6.609 6.417S.362 10.146.362 6.602c0-3.544 2.959-6.418 6.61-6.418 3.65 0 6.609 2.874 6.609 6.418" mask="url(#d)"/>
        </g>
        <path fill="#8F8F8F" d="M25.841 103.49c0 1.635-1.344 2.96-3.003 2.96-1.658 0-3.003-1.325-3.003-2.96 0-1.634 1.345-2.958 3.003-2.958 1.659 0 3.003 1.324 3.003 2.958"/>
    </g>
</svg>
