<svg xmlns="http://www.w3.org/2000/svg" xmlns:xlink="http://www.w3.org/1999/xlink" width="50" height="50" viewBox="0 0 50 50">
    <defs>
        <circle id="a" cx="24.854" cy="24.854" r="24.854"/>
        <path id="c" d="M0 .186h16.458v10.92H0z"/>
    </defs>
    <g fill="none" fill-rule="evenodd">
        <g>
            <mask id="b" fill="#fff">
                <use xlink:href="#a"/>
            </mask>
            <use fill="#A885D8" fill-rule="nonzero" xlink:href="#a"/>
            <g mask="url(#b)">
                <path fill="#464646" d="M37.398 37.743H20.182v-.582h17.216c1.123 0 1.971-.608 2.52-1.809.39-.85.487-1.706.502-1.857l-1.433-15.044.58-.055 1.438 15.096-.001.025c-.004.042-.367 4.226-3.606 4.226zM23.792 26.52l.054-2.212h3.503v2.212h-3.557zm3.567.523l.014 2.213-3.645-.002.054-2.209 3.577-.002zm-.081 7.682h-3.8l.056-2.212h3.732l.012 2.212zM23.66 31.99l.054-2.21h3.658l.01 2.21h-3.722zm7.984.524l.07 2.212H27.92l-.01-2.212h3.736zm-.09-2.736l.074 2.212h-3.72l-.011-2.21 3.657-.002zm-3.67-3.257v-2.213h3.497l.071 2.21-3.569.003zm3.583.524l.071 2.209-3.641.002-.014-2.211h3.584zm4.32 5.469l.132 2.212h-3.797l-.07-2.212h3.736zm-.048-2.736l.131 2.212h-3.718l-.073-2.212h3.66zm-3.762-3.258l-.071-2.211h3.505l.13 2.211h-3.564zm3.597.525l.133 2.209h-3.644l-.071-2.21h3.582zm-12.65-13.01h13.259l.362 4.777H22.852l.073-4.776zm16.691-2.948H19.687v23.639s.117 2.042-.669 3.798h19.287c3.212 0 3.54-4.649 3.54-4.649l-2.229-22.788z"/>
                <path fill="#8F8F8F" d="M35.92 34.726l-.131-2.212h-3.737l.071 2.212zM23.479 34.726h3.799l-.012-2.212h-3.732zM15.143 37.573h.113c4.277 0 4.431-3.153 4.431-3.612V11.022s.182-3.667-4.431-3.667h-.113c-4.612 0-4.432 3.667-4.432 3.667v22.94c0 .458.156 3.611 4.432 3.611M23.62 18.29l.066-3.733h11.997l.328 3.733H23.62zm12.564-4.254H22.925l-.072 4.776h13.693l-.362-4.776z"/>
                <path fill="#FFF" d="M23.686 14.558l-.065 3.733h12.39l-.328-3.733z"/>
                <path fill="#595959" d="M19.687 34.726v-.765c0 .459-.154 3.612-4.431 3.612h-.113c-4.277 0-4.431-3.153-4.431-3.612v.765s-.021.372.018.933c.034.562.129 1.32.364 2.087.383 1.262 1.141 2.551 2.633 3.05a3.365 3.365 0 0 0 .126-.897c0-.036.002-.072.006-.107 0-.012.004-.025.005-.036l.01-.068.016-.062.01-.039.01-.024a1.048 1.048 0 0 1 2.04.336c0 .364-.036.725-.11 1.08 1.691-.2 2.643-1.261 3.178-2.455.786-1.756.67-3.798.67-3.798"/>
                <g transform="translate(-.507 35.473)">
                    <mask id="d" fill="#fff">
                        <use xlink:href="#c"/>
                    </mask>
                    <path fill="#000" d="M15.516 3.384a1.022 1.022 0 0 0-.214 0 1.05 1.05 0 0 0-.886.705c-.002.01-.006.017-.009.026l-.01.038-.016.062-.01.067-.005.037c-.004.035-.006.07-.006.107a3.347 3.347 0 0 1-.125.896c-.22.788-.703 1.403-1.125 1.818-1.212 1.186-3.09 1.912-4.894 1.87-2.394-.045-5.018-1.158-5.852-2.483-.315-.5-.346-.988-.094-1.532.154-.344 1.02-1.517 5.54-2.282 1.43-.24 2.822-.372 3.791-.44a9.113 9.113 0 0 1-.364-2.087C7.981.41 1.692 1.22.36 4.12c-.548 1.196-.47 2.414.226 3.523 1.374 2.184 4.937 3.413 7.594 3.463h.154c2.303 0 4.681-.939 6.244-2.47.938-.92 1.54-1.989 1.77-3.13.073-.354.11-.716.11-1.08 0-.542-.412-.988-.942-1.042" mask="url(#d)"/>
                </g>
                <path fill="#8F8F8F" d="M27.884 24.308v2.214l3.569-.004-.071-2.21z"/>
                <path fill="#4BB4E6" d="M31.715 34.726l-.07-2.212h-3.737l.01 2.212z"/>
                <path fill="#8F8F8F" d="M31.907 24.309l.07 2.212h3.566l-.131-2.212zM35.708 29.254l-.133-2.21h-3.582l.07 2.21zM35.871 31.99l-.131-2.212h-3.66l.074 2.212zM31.629 31.99l-.074-2.212-3.657.003.01 2.209zM27.898 29.257l3.641-.003-.07-2.21h-3.584zM27.373 29.78h-3.658l-.055 2.21h3.724zM23.847 24.309l-.055 2.213h3.557v-2.214zM23.728 29.255l3.645.002-.014-2.213-3.576.002z"/>
                <path fill="#8F8F8F" d="M39.567 18.395l-.58.055 1.433 15.045a6.317 6.317 0 0 1-.502 1.857c-.549 1.2-1.397 1.809-2.52 1.809H20.182v.582h17.216c3.24 0 3.602-4.184 3.605-4.226l.002-.025-1.438-15.097z"/>
            </g>
        </g>
        <g transform="translate(38.275 4.474)">
            <circle cx="5.716" cy="5.716" r="5.716" fill="#32C832"/>
            <path fill="#FFF" d="M9.196 3.33a.588.588 0 0 0-.579-.596.567.567 0 0 0-.395.161L4.799 6.313 3.672 5.025a.566.566 0 0 0-.786.031l-.231.239a.606.606 0 0 0-.043.794l1.851 2.386a.57.57 0 0 0 .452.224.571.571 0 0 0 .452-.224l3.702-4.772a.605.605 0 0 0 .127-.373"/>
        </g>
    </g>
</svg>
