<svg xmlns="http://www.w3.org/2000/svg" xmlns:xlink="http://www.w3.org/1999/xlink" width="224" height="193" viewBox="0 0 224 193">
    <defs>
        <path id="a" d="M0 .388h64.33v145.144H0z"/>
        <path id="c" d="M17.1 36.9h8.1V23.4h-8.1v13.5zm4.05 2.7a.9.9 0 1 1 0-1.8.9.9 0 0 1 0 1.8zm4.726-18.225h-9.452c-.62 0-1.124.504-1.124 1.125v16.875c0 .621.503 1.125 1.124 1.125h9.452c.62 0 1.124-.504 1.124-1.125V22.5c0-.621-.503-1.125-1.124-1.125zM12.375 15.75a7.875 7.875 0 1 0 0-15.75 7.875 7.875 0 0 0 0 15.75zm11.322 4.5a10.167 10.167 0 0 0-4.762-4.664A10.084 10.084 0 0 1 12.375 18c-2.503 0-4.793-.909-6.56-2.413A10.126 10.126 0 0 0 0 24.75v9a4.5 4.5 0 0 0 4.5 4.5h9.675V22.5a2.25 2.25 0 0 1 2.25-2.25h7.272z"/>
    </defs>
    <g fill="none" fill-rule="evenodd">
        <path fill="#FFF" fill-rule="nonzero" d="M33.616 192C12.871 171.672 0 143.339 0 112 0 50.144 50.144 0 112 0s112 50.144 112 112c0 31.339-12.871 59.672-33.616 80H33.616z"/>
        <path fill="#000" d="M148.14 149.015a7.895 7.895 0 0 1-7.91 7.881l-51.058-.094a7.896 7.896 0 0 1-7.88-7.91l.203-110.011a7.895 7.895 0 0 1 7.91-7.88l51.057.094a7.895 7.895 0 0 1 7.88 7.91l-.202 110.01z"/>
        <path fill="#FFF" d="M145.011 132.692l-60.532-.112.164-88.43 60.532.113zM121.434 145.018a6.448 6.448 0 1 1-12.896-.024 6.448 6.448 0 0 1 12.896.024"/>
        <path fill="#484848" d="M115.978 35.26a1.315 1.315 0 1 1-2.63-.003 1.315 1.315 0 0 1 2.63.003M120.443 40.401a1.185 1.185 0 0 1-1.187 1.182l-10.264-.02a1.183 1.183 0 1 1 .005-2.369l10.264.02a1.186 1.186 0 0 1 1.182 1.187"/>
        <path fill="#464749" d="M84.19 51.607a1.843 1.843 0 0 1-3.684-.007l.005-2.369a1.842 1.842 0 1 1 3.685.007l-.005 2.37zM84.173 60.906a1.842 1.842 0 1 1-3.684-.007l.004-2.368a1.843 1.843 0 0 1 3.685.006l-.005 2.369z"/>
        <g transform="translate(76 56.34)">
            <mask id="b" fill="#fff">
                <use xlink:href="#a"/>
            </mask>
            <path fill="#C19372" d="M64.33 100.342s-5.947 6.403-10.293 20.584c-2.897 9.453-3.965 14.535-3.202 15.244H10.353c-3.85-10.023-6.518-26.54-8.005-49.551-1.002-15.5-.687-13.266-1.601-36.823C-.17 26.238-.567 1.752 1.49.724c4.723-2.362 12.35 7.203 9.777 46.098 0 0 2.573 31.088 9.148 32.478 13.21 2.792 18.526-15.782 23.557-21.041 5.032-5.261 14.41-6.633 11.893 1.372-2.515 8.005-15.094 19.669-18.068 29.961-2.973 10.292-.286 10.445-.286 10.445s26.36.305 26.588.305" mask="url(#b)"/>
        </g>
        <g>
            <g transform="translate(103.5 63.5)">
                <mask id="d" fill="#fff">
                    <use xlink:href="#c"/>
                </mask>
                <use fill="#000" xlink:href="#c"/>
                <g fill="#FF7900" mask="url(#d)">
                    <path d="M-13.5-7.5h54v54h-54z"/>
                </g>
            </g>
        </g>
    </g>
</svg>
