<svg xmlns="http://www.w3.org/2000/svg" width="30" height="30" viewBox="0 0 30 30">
    <g fill="none" fill-rule="evenodd">
        <circle cx="15" cy="15" r="14" stroke="#FFF" stroke-width="2"/>
        <path fill="#FFF" fill-rule="nonzero" d="M15.004 10.783a4.206 4.206 0 0 0-4.213 4.213 4.206 4.206 0 0 0 4.213 4.213 4.206 4.206 0 0 0 4.213-4.213 4.206 4.206 0 0 0-4.213-4.213zm0 6.952a2.744 2.744 0 0 1-2.74-2.739 2.742 2.742 0 0 1 2.74-2.739 2.742 2.742 0 0 1 2.739 2.74 2.744 2.744 0 0 1-2.74 2.738zm5.368-7.124a.98.98 0 0 1-.983.983.983.983 0 1 1 .983-.983zm2.79.997c-.062-1.316-.363-2.482-1.327-3.443-.961-.96-2.127-1.261-3.443-1.327-1.357-.077-5.423-.077-6.78 0-1.313.062-2.479.363-3.443 1.324-.964.96-1.261 2.126-1.327 3.443-.077 1.356-.077 5.423 0 6.78.062 1.316.363 2.482 1.327 3.442.964.961 2.127 1.262 3.443 1.328 1.357.077 5.423.077 6.78 0 1.316-.063 2.482-.363 3.443-1.328.96-.96 1.261-2.126 1.327-3.443.077-1.356.077-5.419 0-6.776zm-1.753 8.232a2.773 2.773 0 0 1-1.562 1.562c-1.081.429-3.648.33-4.843.33-1.196 0-3.766.095-4.844-.33a2.773 2.773 0 0 1-1.562-1.562c-.429-1.082-.33-3.648-.33-4.844 0-1.195-.095-3.765.33-4.843A2.773 2.773 0 0 1 10.16 8.59c1.082-.43 3.648-.33 4.844-.33 1.195 0 3.765-.096 4.843.33.719.286 1.273.84 1.562 1.562.43 1.081.33 3.648.33 4.843 0 1.196.1 3.766-.33 4.844z"/>
    </g>
</svg>
