<svg xmlns="http://www.w3.org/2000/svg" xmlns:xlink="http://www.w3.org/1999/xlink" width="45" height="45" viewBox="0 0 45 45">
    <defs>
        <path id="a" d="M22.5 0C10.074 0 0 10.074 0 22.5S10.074 45 22.5 45 45 34.926 45 22.5 34.926 0 22.5 0zM8.462 8.462a19.79 19.79 0 0 1 7.433-4.692c-1.41 1.776-2.606 4.103-3.505 6.818H6.615a20.03 20.03 0 0 1 1.847-2.126zm-4.256 6.309c.222-.525.466-1.037.73-1.536h6.706c-.586 2.446-.947 5.124-1.033 7.941H2.69c.142-2.205.655-4.37 1.516-6.405zm.73 16.994a19.663 19.663 0 0 1-2.246-7.941h7.919c.086 2.817.447 5.495 1.033 7.94H4.937zm9.835 9.029a19.79 19.79 0 0 1-6.312-4.256 20.031 20.031 0 0 1-1.844-2.126h5.777c.9 2.715 2.096 5.042 3.505 6.818a20.407 20.407 0 0 1-1.126-.436zm6.405 1.323c-.555-.196-1.111-.514-1.66-.953-1.117-.892-2.19-2.273-3.1-3.992a22.532 22.532 0 0 1-1.222-2.76h5.982v7.705zm0-10.352h-6.805a35.377 35.377 0 0 1-.265-1.086 36.909 36.909 0 0 1-.848-6.855h7.918v7.94zm0-10.589h-7.918c.068-2.306.352-4.602.85-6.855.081-.369.17-.73.264-1.086h6.804v7.941zm0-10.588h-5.982c.345-.946.753-1.868 1.221-2.76.91-1.719 1.982-3.1 3.1-3.992.55-.44 1.105-.758 1.66-.953l.001 7.705zm18.887 2.647a19.663 19.663 0 0 1 2.246 7.941h-7.918c-.086-2.817-.447-5.495-1.033-7.94h6.705zM30.23 4.206a19.79 19.79 0 0 1 6.312 4.256 20.03 20.03 0 0 1 1.844 2.126h-5.777c-.9-2.715-2.096-5.042-3.505-6.818.378.134.753.28 1.126.436zm-6.405-1.323c.555.196 1.111.514 1.66.953 1.117.892 2.19 2.273 3.1 3.992.468.892.877 1.814 1.222 2.76h-5.982V2.883zm0 10.352h6.805c.093.356.181.718.265 1.086.496 2.253.78 4.549.848 6.855h-7.918v-7.94zm0 10.589h7.918a36.908 36.908 0 0 1-.85 6.855c-.081.369-.17.73-.264 1.086h-6.804v-7.941zm1.66 17.34c-.55.44-1.105.758-1.66.953v-7.705h5.982a22.533 22.533 0 0 1-1.221 2.76c-.912 1.719-1.983 3.1-3.1 3.992zm11.054-4.626a19.79 19.79 0 0 1-7.433 4.692c1.41-1.776 2.606-4.103 3.505-6.818h5.775a20.03 20.03 0 0 1-1.847 2.126zm4.256-6.309a19.242 19.242 0 0 1-.73 1.536h-6.706c.586-2.446.947-5.124 1.033-7.941h7.919a19.663 19.663 0 0 1-1.516 6.405z"/>
    </defs>
    <g fill="none" fill-rule="evenodd">
        <mask id="b" fill="#fff">
            <use xlink:href="#a"/>
        </mask>
        <g fill="#000" mask="url(#b)">
            <path d="M0 0h45v45H0z"/>
        </g>
    </g>
</svg>
