<svg xmlns="http://www.w3.org/2000/svg" xmlns:xlink="http://www.w3.org/1999/xlink" width="382" height="334" viewBox="0 0 382 334">
    <defs>
        <path id="a" d="M.778.857h250v40h-250z"/>
        <path id="c" d="M.038.056h35.53v11.071H.037z"/>
        <path id="e" d="M0 89.357h257.526V.14H0z"/>
        <path id="g" d="M.344.055H193.28v116.178H.344z"/>
    </defs>
    <g fill="none" fill-rule="evenodd">
        <g opacity=".5">
            <g transform="translate(-.778 293.143)">
                <mask id="b" fill="#fff">
                    <use xlink:href="#a"/>
                </mask>
                <path fill="#50BE87" d="M226.584 6.404a5.89 5.89 0 0 0-2.572-.037l-21.33 5.896a5.886 5.886 0 0 1-2.193.04L182.47 9.239a5.886 5.886 0 0 0-1.929-.008l-24.55 3.97a5.896 5.896 0 0 1-2.297-.084l-22.775-5.375a5.956 5.956 0 0 0-.367-.074L113.08 4.689a5.924 5.924 0 0 0-3.266.37l-14.756 6.085c-.697.287-3.538-2.155-4.28-2.142L80.384 1.584c-1.036.018-16.854 10.25-17.785 9.74L57.561 8.57a6.052 6.052 0 0 0-2.32-.72l-5.39-.524c-1.908-.185-3.65-1.293-4.773-3.035-1.196-1.855-3.09-2.985-5.13-3.059L29.743.861c-1.662-.06-3.284.586-4.539 1.81l-4.526 4.416c-1.563 1.523-3.672 2.135-5.698 1.652L.778 5.454v35.403h250L226.584 6.404z" mask="url(#b)"/>
            </g>
            <g transform="translate(.222 244)">
                <path fill="#C19372" d="M124.863 41.105a.513.513 0 0 1-.776.441l-9.05-5.444a6.364 6.364 0 0 0-3.098-.892l-2.649-.064a.543.543 0 0 1-.41-.205l-4.465-5.61a.542.542 0 0 0-.424-.204h-5.34a.542.542 0 0 1-.408-.186l-1.455-1.757a.522.522 0 0 0-.426-.186c-.715.057-.924.773-.563 1.186l1.806 2.16a.543.543 0 0 0 .409.185h5.3c.166 0 .322.076.425.205l2.748 3.454a.542.542 0 0 1-.437.88l-4.158-.1a.528.528 0 0 1-.09-.01l-6.045-1.166a.541.541 0 0 1-.25-.12l-2.073-1.777c-.416-.355-1.128-.141-1.18.573a.521.521 0 0 0 .19.426l2.353 2.017a.935.935 0 0 0 .431.208l4.168.804a.542.542 0 0 1 .239.954l-1.502 1.212a.528.528 0 0 0-.203.431c.026.491.371.753.722.753a.7.7 0 0 0 .44-.155l2.387-1.927c.066.014.134.024.204.027l10.607.362a.543.543 0 0 1 .342.136l4.376 3.893c.337.3.183.855-.26.938l-5.577 1.043a.541.541 0 0 1-.295-.027l-6.927-2.677c-.51-.197-1.11.243-.92.934.042.157.168.28.32.338l7.35 2.84a.704.704 0 0 0 .382.036l7.63-1.427a.936.936 0 0 1 .792.22l2.938 2.614c.2.177.314.432.314.698v4.753a.542.542 0 0 1-.827.462l-5.42-3.35a.541.541 0 0 0-.138-.06l-14.248-4.03a.542.542 0 0 1-.313-.234l-2.505-4.01a.541.541 0 0 0-.345-.243l-4.947-1.074a.542.542 0 0 1-.288-.167l-2.522-2.797a.542.542 0 0 0-.393-.18l-5.796-.093a.542.542 0 0 1-.527-.455l-.505-3.104a.544.544 0 0 0-.324-.414c-.567-.237-1.045.213-.966.701l.67 4.118c.043.26.264.451.527.456l6.325.102c.15.002.293.067.394.179l2.422 2.687a.542.542 0 0 0 .288.166l4.818 1.047c.143.03.267.118.345.242l.806 1.29a.542.542 0 0 1-.607.81l-2.074-.587a3.734 3.734 0 0 0-1.018-.141H82.585a.542.542 0 0 1-.511-.363l-2.116-6.02a.543.543 0 0 0-.322-.328l-6.867-2.564a.543.543 0 0 1-.169-.101l-3.083-2.72a.522.522 0 0 0-.447-.13c-.7.15-.816.886-.405 1.248l3.202 2.826a.54.54 0 0 0 .169.1l6.495 2.426c.15.056.268.177.322.328l1.161 3.304a.542.542 0 0 1-.456.72l-4.852.5a.54.54 0 0 0-.335.163l-2.778 2.888a.542.542 0 0 1-.477.16l-4.352-.7a.493.493 0 1 0-.157.976l4.887.787a.5.5 0 0 0 .435-.145l2.904-3.019a.541.541 0 0 1 .335-.164l4.986-.513a.542.542 0 0 1 .567.36l.418 1.188a.947.947 0 0 0 .043.122l.002.005c.003.01.01.018.015.028.017.035.033.07.054.101a.67.67 0 0 0 .093.12l.033.032c.025.022.046.047.074.066a.938.938 0 0 0 .52.208l9.046.678c.42.032.646.51.402.855l-2.59 3.655a.543.543 0 0 1-.308.212l-8.547-.21a.701.701 0 1 0 .347 1.36l8.993.272a.542.542 0 0 0 .309-.212l3.096-4.485a.542.542 0 0 1 .833-.062l1.675 1.745a3.74 3.74 0 0 0 1.047.766l8.185 4.028c.04.02.078.045.112.074l10.137 8.631c.12.103.19.254.19.413v13.033h23.52l-.653-18.081a.542.542 0 0 1 .433-.551l17.372-3.547a1.87 1.87 0 0 0 .764-.349l1.762-1.352a.542.542 0 0 1 .51-.081l7.33 2.579a.703.703 0 0 0 .534-.028l6.689-3.178a.521.521 0 0 0 .295-.36c.137-.703-.495-1.098-.989-.863l-6.134 2.914a.542.542 0 0 1-.412.022l-5.317-1.871a.542.542 0 0 1-.15-.942l3.879-2.978c.06-.046.129-.079.202-.097l4.686-1.134c.079-.019.16-.02.24-.003l4.56 1.058a.688.688 0 0 0 .29 0l5.03-1.072c.535-.114.796-.812.26-1.286a.52.52 0 0 0-.453-.107l-4.872 1.038a.543.543 0 0 1-.225 0l-3.339-.8a.542.542 0 0 1-.416-.653l.742-3.242a.542.542 0 0 1 .426-.411l2.665-.524a.521.521 0 0 0 .375-.273c.312-.645-.201-1.191-.74-1.085l-3.464.678a.542.542 0 0 0-.425.411l-1.057 4.617a.542.542 0 0 1-.401.406l-4.402 1.065a.71.71 0 0 0-.317.089l-.006.003c-.013.006-.024.014-.035.02l-7.274 4.1a1.872 1.872 0 0 1-.652.221l-19.585 2.82a1.59 1.59 0 0 1-1.7-.976l-.748-4.367a.514.514 0 0 1 .229-.62l1.68-1.085a.542.542 0 0 1 .474-.056l7.002 2.463a.702.702 0 0 0 .533-.028l6.689-3.177a.52.52 0 0 0 .295-.361c.137-.703-.495-1.097-.989-.863l-6.134 2.914a.542.542 0 0 1-.412.022l-4.701-1.654a.542.542 0 0 1-.114-.967l5.428-3.506a.759.759 0 0 0 .14-.102.513.513 0 0 1 .249-.124l7.33-1.46a.542.542 0 0 1 .554.229l2.32 3.43c.1.15.269.239.449.239h5.726a.52.52 0 0 0 .42-.2c.428-.574.027-1.203-.521-1.203h-4.88a.542.542 0 0 1-.45-.239l-1.866-2.76a.542.542 0 0 1 .017-.63l3.24-4.282c.1-.13.142-.3.096-.456-.201-.687-.944-.746-1.275-.31l-3.432 4.534a.542.542 0 0 1-.326.204l-8.367 1.665a.695.695 0 0 0-.236.096l-2.69 1.102a.542.542 0 0 1-.708-.704l1.017-2.53a.542.542 0 0 1 .283-.294l4.886-2.171a.543.543 0 0 0 .32-.453l.367-4.62a.526.526 0 0 0-.184-.452c-.543-.436-1.18-.091-1.223.448l-.292 3.681a.543.543 0 0 1-.32.453l-4.643 2.064a.542.542 0 0 0-.283.293L137.19 41.7l-.007.026-4.017 1.645a.542.542 0 0 1-.748-.49l-.54-12.651c.005-.052.012-.102.018-.153l.975-3.623a.542.542 0 0 1 .711-.368l3.947 1.456a.704.704 0 0 0 .323.038l7.274-.836a.52.52 0 0 0 .396-.246c.357-.62-.112-1.198-.657-1.136l-6.88.791c-.083.01-.169 0-.248-.03l-2.423-.894a.542.542 0 0 1-.03-1.006l4.187-1.825a.54.54 0 0 1 .247-.044l8.214.451a.68.68 0 0 0 .197-.017l4.96-1.145c.16-.037.301-.14.366-.289.286-.657-.246-1.177-.78-1.055l-4.69 1.083a.546.546 0 0 1-.151.013l-8.334-.458a.685.685 0 0 0-.318.057l-4.452 1.94a.542.542 0 0 1-.74-.637l.392-2.593a.543.543 0 0 1 .328-.365l5.142-1.982a.541.541 0 0 1 .213-.036l2.948.096a.833.833 0 0 0 .545-.183l2.317-1.871a.543.543 0 0 1 .379-.12l5.424.384c.655.048 1.186-.69.684-1.409a.54.54 0 0 0-.405-.225l-6.124-.432a.816.816 0 0 0-.576.18l-2.34 1.89a.542.542 0 0 1-.358.12l-2.775-.09a.544.544 0 0 0-.213.036l-4.47 1.724a.542.542 0 0 1-.718-.36l-.81-2.897a.544.544 0 0 1 .014-.332l1.065-2.917a.543.543 0 0 1 .254-.292l4.213-2.252a.544.544 0 0 1 .301-.062l4.613.39c.547.048.999-.548.621-1.156a.52.52 0 0 0-.402-.233l-5.08-.43a.692.692 0 0 0-.39.08l-3.186 1.703a.542.542 0 0 1-.797-.473l-.051-5.598c-.007-.683-.866-1.162-1.5-.504a.546.546 0 0 0-.15.383l.069 7.603a.54.54 0 0 1-.033.191l-1.278 3.5a.542.542 0 0 0-.013.332L133 18.24c.04.145.02.3-.059.428l-3.037 4.314a.513.513 0 0 1-.8.19l-7.463-6.12a.542.542 0 0 1-.198-.42v-2.047c0-.074.015-.148.045-.217l3.286-7.504a.542.542 0 0 1 .497-.324h3.496a.522.522 0 0 0 .421-.2c.427-.575.026-1.203-.522-1.203h-4.312a.543.543 0 0 0-.497.324l-3.027 6.912a.542.542 0 0 1-.88.166l-4.08-4.09a.541.541 0 0 0-.378-.16l-5.667-.052h-.108a.521.521 0 0 0-.419.197c-.428.57-.034 1.2.513 1.206l5.093.047a.544.544 0 0 1 .38.16l4.597 4.61c.102.101.159.239.159.382v1.217a.542.542 0 0 1-.453.535l-5.741.963a.542.542 0 0 1-.573-.289l-1.802-3.541a1.87 1.87 0 0 0-1.484-1.013l-5.691-.557a.545.545 0 0 1-.277-.11l-2.243-1.713c-.435-.332-1.132-.079-1.146.636a.52.52 0 0 0 .213.416l2.642 2.019c.08.061.176.1.276.109l5.834.571a.935.935 0 0 1 .742.507l1.331 2.615a.542.542 0 0 1-.393.781l-3.752.63a.543.543 0 0 1-.322-.045l-4.868-2.302c-.01-.005-.021-.005-.031-.009a.492.492 0 0 0-.307-.033L95.49 17.65c-.254.056-.455.286-.426.545a.495.495 0 0 0 .598.43l6.107-1.337a.542.542 0 0 1 .386.06l4.68 2.692a.543.543 0 0 0 .27.072h10.263a1.87 1.87 0 0 1 1.368.595l7.022 7.534c.089.095.138.22.138.35l-1.033 12.513z"/>
                <path fill="#0A6E31" d="M139.84 31.642l4.682-3.056a1.287 1.287 0 0 1 1.16-.126l.893.339c.43.163.914.084 1.27-.206l.855-.697a1.287 1.287 0 0 1 1.342-.175l3.386 1.53c.372.167.642.501.728.9a1.287 1.287 0 0 0 1.375 1.008l2.497-.227c.346-.032.69.078.954.304l.818.702c.233.2.53.31.838.31h4.59c.515 0 .98.307 1.183.78l.172.4a1.287 1.287 0 0 1-.945 1.772l-8.453 1.595c-.187.035-.38.028-.564-.02l-6.929-1.814a1.286 1.286 0 0 0-.454-.035l-9.196.92a1.287 1.287 0 0 1-.802-.184l-1.966-1.208c-1.019-.626-.707-2.183.474-2.369l1.589-.25c.18-.028.351-.094.504-.193M131.322 6.508L123.72 2.42a.878.878 0 0 0-.948.074l-3.156 2.4a.88.88 0 0 1-.65.171l-5.393-.737a.879.879 0 0 0-.88.432l-1.1 1.911a.879.879 0 0 1-.475.392l-3.7 1.278a.878.878 0 0 0 .33 1.708l10.112-.493a.877.877 0 0 1 .168.008l8.407 1.207c.2.029.405-.013.578-.118l4.346-2.62a.879.879 0 0 0-.038-1.526M77.827 35.79l5.555.822a1.4 1.4 0 0 0 1.087-.296l4.698-3.796c.34-.274.79-.375 1.214-.271l8.456 2.065c.213.052.436.053.65.003l11.581-2.702c1.358-.317 1.472-2.206.162-2.684l-11.436-4.173a1.4 1.4 0 0 0-.837-.039l-7.621 2.006c-.204.054-.417.06-.624.02L85.2 25.68a1.402 1.402 0 0 0-1.487.685l-2.978 5.257c-.17.299-.442.525-.766.636l-2.391.818c-1.39.476-1.206 2.499.249 2.714M163.535 42.017l4.623 1.99a.768.768 0 0 0 .428.052l4.786-.79a.771.771 0 0 1 .452.063l4.754 2.234c.1.046.21.071.32.072l6.59-.219c.745.008 1.064-.94.467-1.385l-2.557-1.901a.768.768 0 0 0-.345-.144l-3.948-.681a.77.77 0 0 1-.458-.246l-3.17-3.524a.768.768 0 0 0-.625-.253l-8.554.592a.768.768 0 0 0-.507.24l-2.512 2.667a.769.769 0 0 0 .256 1.233M92.712 18.752l4.092.49a.935.935 0 0 0 .809-.307l1.736-1.948a.934.934 0 0 1 .763-.31l1.58.111a.935.935 0 0 0 .81-1.498l-.636-.838a.934.934 0 0 0-.814-.366l-5.373.401a.936.936 0 0 0-.524.21l-2.925 2.404c-.636.522-.335 1.553.482 1.65M76.713 29.891l-3.996-1.006a.935.935 0 0 0-.842.201l-1.969 1.712a.935.935 0 0 1-.796.21l-1.553-.31a.935.935 0 0 0-.994 1.383l.525.912c.158.274.444.45.76.467l5.38.284c.193.01.384-.04.547-.142l3.207-2.012c.697-.438.53-1.498-.269-1.699M137.915 16.473l10.995 1.054a.948.948 0 0 0 .555-.117l5.04-2.828c.78-.437.578-1.611-.303-1.764l-6.622-1.146a.95.95 0 0 0-.755.194l-3.128 2.503a.95.95 0 0 1-.594.208h-5.097a.95.95 0 0 0-.602.215c-.656.537-.333 1.6.51 1.68M80.185 42.231l-4.98-1.909a.764.764 0 0 0-.747.114l-3.734 2.953a.765.765 0 0 1-.577.158l-4.403-.604a.764.764 0 0 0-.682.257l-1.693 1.958a.764.764 0 0 0 .655 1.26l7.867-.803a.766.766 0 0 1 .177.003l6.917.91a.764.764 0 0 0 .833-.543l.826-2.826a.764.764 0 0 0-.46-.928M146.166 19.75l.997 1.994c.101.203.32.32.546.292l5.05-.643a.545.545 0 0 1 .126-.001l3.76.405c.582.062.829-.72.315-1.002l-3.662-2.009a.535.535 0 0 0-.372-.054l-3.77.828a.535.535 0 0 1-.252-.005l-2.123-.562a.536.536 0 0 0-.615.757M148.705 7.825l-1.38-2.978c-.142-.304-.399-.463-.642-.395l-5.445 1.51a.411.411 0 0 1-.137.014l-4.181-.24c-.647-.038-.804 1.197-.2 1.579l4.304 2.728c.134.085.281.1.416.045l4.014-1.664a.425.425 0 0 1 .277-.018l2.408.651c.505.137.851-.617.566-1.232M98.656 41.51l3.03 2.737a.935.935 0 0 0 1.083.122l3.402-1.906a.932.932 0 0 1 .288-.103l5.348-.986a.935.935 0 0 0 .766-.92v-2.739a.935.935 0 0 0-.935-.935h-5.024c-.2 0-.395.064-.556.183l-3.334 2.465a.934.934 0 0 1-.471.18l-3.055.277c-.811.074-1.147 1.079-.542 1.625M88.842 50.17l-1.7-2.394a.672.672 0 0 0-.741-.254l-2.685.806a.671.671 0 0 1-.218.028l-3.907-.143a.672.672 0 0 0-.681.527l-.427 1.922a.672.672 0 0 0 .51.802l3.526.784c.14.031.287.016.418-.042l2.725-1.21a.672.672 0 0 1 .359-.052l2.187.281a.672.672 0 0 0 .634-1.056M130.381 3.69l1.83.407c.144.032.294.03.437-.008l2.226-.574a.935.935 0 0 1 .409-.013l2.959.563a.935.935 0 0 0 .755-.185l.51-.403a.935.935 0 0 0-.196-1.586l-3.7-1.67a.935.935 0 0 0-1.033.179l-1.328 1.277a.935.935 0 0 1-.914.222l-1.353-.402a.935.935 0 0 0-1.15.59l-.133.384a.935.935 0 0 0 .681 1.219M142.988 45.72l4.135.53c.097.011.196.013.294.003l7.845-.809c.043-.004.087-.006.131-.006 1.2 0 1.741-1.5.82-2.267l-2.799-2.328a1.282 1.282 0 0 0-1.46-.125l-3.741 2.158a1.281 1.281 0 0 1-1.343-.039l-1.726-1.133a1.281 1.281 0 0 0-1.718.289l-1.29 1.675a1.281 1.281 0 0 0 .852 2.053M98.612 12.996l2.64-1.183c.223-.1.48-.087.692.034l1.896 1.086a.763.763 0 0 0 .486.094l2.422-.342c.732-.103.906-1.082.254-1.43l-2.022-1.08a.766.766 0 0 0-.175-.068l-3.959-.984a.763.763 0 0 0-.642.13l-2.724 2.043a.766.766 0 0 1-.283.132l-.539.128a.764.764 0 0 0 .176 1.507H98.3a.764.764 0 0 0 .312-.067M167.251 52.41l3.165.303a.936.936 0 0 0 .423-.057l3.917-1.496a.935.935 0 0 1 .706.016l2.185.844c.36.157.779.072 1.05-.212l.352-.37a.935.935 0 0 0-.273-1.488l-2.582-1.234a.934.934 0 0 0-.664-.055l-3.031.876a.934.934 0 0 1-.794-.131l-2.374-1.653a.935.935 0 0 0-1.373.355l-1.456 2.957a.935.935 0 0 0 .75 1.344M138.165 25.776v.604c0 .55.352 1.039.874 1.213l1.678.562c.283.094.59.087.867-.02l3.441-1.332c.173-.067.357-.095.54-.084l6.09.376c.315.02.626-.078.873-.274l.345-.274a1.28 1.28 0 0 0-.373-2.21l-2.968-1.037a1.28 1.28 0 0 0-.762-.025l-3.322.917c-.221.061-.454.062-.675.002l-3.223-.871a1.28 1.28 0 0 0-1.059.18l-1.771 1.219a1.28 1.28 0 0 0-.555 1.054"/>
                <path fill="#C19372" d="M212.878 49.922a.345.345 0 0 0-.113-.082l-5.576-2.546a.348.348 0 0 1-.101-.07l-2.146-2.147a.35.35 0 0 0-.43-.049c-.195.117-.216.37-.063.537l1.963 2.155.09.071 5.589 3.038c.038.02.072.049.1.083l2.958 3.55c.062.074.09.17.078.265l-.596 4.827v.082l.605 5.337a.347.347 0 0 1-.498.35l-3.554-1.752a.346.346 0 0 1-.185-.237l-.752-3.45a.345.345 0 0 1 .048-.263l1.385-2.138a.347.347 0 0 0-.29-.535h-.031a.347.347 0 0 0-.272.131l-1.274 1.606a.347.347 0 0 1-.528.018l-1.52-1.667a.272.272 0 0 0-.201-.088h-.014a.347.347 0 0 0-.264.571l1.82 2.147c.042.05.07.111.078.177l.389 2.792a.347.347 0 0 1-.429.385l-3.304-.836a.348.348 0 0 1-.249-.243l-.747-2.662a.35.35 0 0 1-.007-.153l.322-1.861a.271.271 0 0 0-.267-.317h-.012a.271.271 0 0 0-.264.206l-.128.524a.347.347 0 0 1-.613.127l-.572-.75a.27.27 0 0 0-.215-.107h-.059a.271.271 0 0 0-.215.436l1.249 1.627a.346.346 0 0 1 .069.169l.08.643a.347.347 0 0 1-.59.287l-1.863-1.863a.346.346 0 0 0-.184-.096l-3.86-.702a.347.347 0 0 1-.2-.115l-2.542-2.946a.346.346 0 0 0-.263-.12h-.35a.347.347 0 0 0-.27.565l2.689 3.31c.047.058.111.099.183.117l4.178 1.06c.07.018.134.057.18.113l3.634 4.35a.347.347 0 0 0 .182.114l5.524 1.38c.043.011.083.03.119.056l3.827 2.762c.124.089.175.248.126.392l-1.218 3.592a.343.343 0 0 0-.018.14l.321 3.925-.007.104-.47 2.114a.343.343 0 0 1-.051.119l-1.262 1.866h8.917l-1.435-1.734a.344.344 0 0 1-.07-.142l-1.2-5.1a.346.346 0 0 1 .003-.171l1.128-4.098a.349.349 0 0 1 .093-.157l6.124-5.943a.346.346 0 0 1 .149-.086l6.558-1.822.093-.012h3.811a.347.347 0 0 0 .272-.132l3.182-4.007a.346.346 0 0 1 .145-.108l4.735-1.85c.273-.107.53-.252.764-.43l4.686-3.57h-.802l-3.65 2.415.674-2.12a.347.347 0 0 0-.306-.45l-.155-.012a.347.347 0 0 0-.355.243l-.857 2.73a.347.347 0 0 1-.217.224l-3.999 1.396.52-2.353 1.349-2.073h-.656l-1.222 1.889-1.034 2.62a2.376 2.376 0 0 1-.386.649l-2.052 2.456c-.224.269-.658.076-.61-.27l.605-4.338a.344.344 0 0 1 .062-.155l1.739-2.423a.27.27 0 0 0-.22-.428h-.07a.27.27 0 0 0-.215.105l-1.288 1.675a.347.347 0 0 1-.574-.037l-.937-1.609a.27.27 0 0 0-.474.261l1.197 2.31c.039.076.049.164.028.246l-1.357 5.312a.347.347 0 0 1-.342.262l-2.684-.038-.07.006-5.293 1.016a.347.347 0 0 1-.356-.53l.785-1.208a.35.35 0 0 1 .096-.098l3.555-2.415a.347.347 0 0 0 .12-.143l2.106-4.625a.347.347 0 0 0-.316-.49h-.01a.347.347 0 0 0-.312.194l-2.226 4.54a.347.347 0 0 1-.144.15l-3.66 2.02a.344.344 0 0 0-.123.114l-1.903 2.914-.063.073-4.957 4.304a.347.347 0 0 1-.574-.29l.357-4.379a.347.347 0 0 1 .07-.182l3.236-4.256a.347.347 0 0 1 .114-.097l6.453-3.438a.346.346 0 0 0 .155-.167l.853-1.943a.347.347 0 0 0-.318-.487h-.192a.347.347 0 0 0-.304.18l-.9 1.642a.346.346 0 0 1-.156.147l-1.789.844c-.317.15-.631-.213-.437-.505l.583-.877a.347.347 0 0 0-.267-.539l-.124-.007a.346.346 0 0 0-.31.153l-1.94 2.899a.347.347 0 0 1-.14.12l-2.09.988a.346.346 0 0 0-.124.1l-3.294 4.21-.564.777a.347.347 0 0 1-.614-.107l-.11-.377-.013-.093.12-5.639 2.982-3.771a.346.346 0 0 0 .08-.168l.559-3.165a.347.347 0 0 0-.342-.407h-.137a.347.347 0 0 0-.344.298l-.217 1.545a.347.347 0 0 1-.61.174l-1.585-1.893a.347.347 0 0 0-.265-.124h-.135a.347.347 0 0 0-.27.564l2.033 2.527c.112.14.1.34-.027.466l-2.674 2.897-2.774-2.992z"/>
                <g transform="translate(221.959 43.05)">
                    <mask id="d" fill="#fff">
                        <use xlink:href="#c"/>
                    </mask>
                    <path fill="#0A6E31" d="M34.07 11.127H2.854c-.462 0-.897-.212-1.181-.576L.355 8.86a1.498 1.498 0 0 1-.086-1.722l.79-1.25c.089-.14.154-.296.192-.458l.374-1.597A1.498 1.498 0 0 1 2.97 2.682l2.755-.21a1.5 1.5 0 0 1 .468.04l4.196 1.023c.415.101.853.02 1.205-.222l1.863-1.283c.9-.62 1.909-1.064 2.974-1.31l1.914-.442a8.69 8.69 0 0 1 2.64-.195l2.198.174a8.69 8.69 0 0 1 4.832 1.95l.465.383c.14.115.259.256.349.414l.589 1.03c.172.3.442.533.766.656l2.142.818c.466.178.813.576.925 1.063.103.448.236.93.334.963.1.034.664.317 1.164.572.502.256.818.771.818 1.335v.188a1.498 1.498 0 0 1-1.497 1.498" mask="url(#d)"/>
                </g>
                <path fill="#0A6E31" d="M219.529 57.848h-31.475c-.33 0-.648-.118-.898-.333l-3.96-3.411a1.377 1.377 0 0 1 .022-2.106l1.52-1.253c.21-.173.467-.28.737-.307l5.855-.594c.416-.042.79-.27 1.016-.621l.8-1.234a1.376 1.376 0 0 1 1.273-.624l9.877.847c.107.01.212.03.314.064l6.436 2.125c.158.052.324.075.49.068l2.526-.108c.499-.021.97.229 1.231.654l1.895 3.081c.194.315.507.54.868.621l1.778.404c.627.143 1.071.7 1.071 1.343v.008c0 .76-.616 1.376-1.376 1.376M203.327 47.27l-4.433-1.523a1.648 1.648 0 0 0-.535-.09h-3.749c-.188 0-.374-.032-.55-.094l-2.686-.953a1.646 1.646 0 1 1 .38-3.19l5.055-.526c.068-.008.136-.019.202-.034l5.392-1.254 4.135-1.175c2.995-.85 6.17-.823 9.15.08l3.56 1.076c.04.013.081.024.123.033l5.188 1.139c.365.08.692.282.927.573l2.22 2.747a1.646 1.646 0 0 1-.166 2.246l-.652.6c-.304.28-.702.435-1.115.435h-21.91c-.183 0-.364-.03-.536-.09"/>
                <path fill="#C19372" d="M15.127 20.336h.676c.278 0 .54.135.7.363l3.964 5.595a.86.86 0 0 0 .456.327l4.898 1.454a.86.86 0 0 0 1.015-.443l2.754-5.565a.86.86 0 0 0 .09-.382V20.55a.86.86 0 0 1 .859-.86h.09a.86.86 0 0 1 .859.86v1.46a.859.859 0 0 1-.041.263l-1.767 5.514a.86.86 0 0 0 .732 1.117l4.066.411a.86.86 0 0 0 .875-.514l2.483-5.757a.86.86 0 0 0 .051-.523l-.36-1.66a.86.86 0 0 1 .84-1.041h.418a.86.86 0 0 1 .797.54l.393.983a.86.86 0 0 0 1.326.359l2.353-1.83a.86.86 0 0 1 .528-.182h.005c.822 0 1.175 1.044.522 1.543l-4.837 3.694a.858.858 0 0 0-.317.492l-.648 2.837a.86.86 0 0 0 1.055 1.023l9.856-2.577a.86.86 0 0 0 .26-.116l4.773-3.183a.864.864 0 0 0 .239-.239l2.233-3.35a.859.859 0 0 1 .715-.382h.296a.86.86 0 0 1 .757 1.267l-1.932 3.59a.862.862 0 0 1-.267.298l-6.923 4.803a.844.844 0 0 1-.162.089L39.65 33.666a.86.86 0 0 0-.532.811l.902 45.85H27.165l.903-45.927a.86.86 0 0 0-.444-.77l-8.22-4.536a.86.86 0 0 1-.303-.28l-4.692-7.146a.86.86 0 0 1 .718-1.332"/>
                <path fill="#0A6E31" d="M21.124 26.64H6.393c-.428 0-.824-.225-1.044-.592l-.412-.687a1.217 1.217 0 0 0-.872-.579l-2.37-.338a1.217 1.217 0 0 1-1.033-1.37l.07-.511c.072-.53.482-.952 1.01-1.038l3.176-.515c.205-.033.398-.118.56-.247l2.26-1.788c.214-.17.48-.263.755-.263h11.094c.279 0 .549.095.765.27l2.555 2.064c.123.1.264.174.415.22l3.871 1.16c.395.119.702.428.819.823v.001a1.218 1.218 0 0 1-1.02 1.552l-3.801.466a1.218 1.218 0 0 0-.88.555l-.16.252c-.224.351-.611.564-1.027.564"/>
                <path fill="#0A6E31" d="M11.543 10.104l9.466-2.645c.133-.038.27-.056.409-.056h16.256c.318 0 .627.1.885.284l4.956 3.56c.258.184.567.284.884.284h8.947c.547 0 1.05.294 1.32.77l1.635 2.884c.269.475.773.769 1.32.769h3.233c.628 0 1.19.387 1.416.973l.307.799a1.517 1.517 0 0 1-1.415 2.061H49.89c-.248 0-.491.061-.71.177l-1.83.97c-.225.118-.476.179-.73.175l-21.785-.277a1.516 1.516 0 0 1-1.367-.901l-.384-.864a1.517 1.517 0 0 0-1.386-.901h-9.59c-.402 0-.787-.16-1.072-.445l-3.234-3.248a1.093 1.093 0 0 1 .102-1.632l3.26-2.546c.113-.088.242-.153.379-.19"/>
                <path fill="#0A6E31" d="M69.944 25.185h-21c-.395 0-.771-.167-1.037-.459l-.529-.581a1.402 1.402 0 0 0-1.038-.46h-1.56a1.403 1.403 0 0 1-1.242-2.054l.03-.057c.242-.462.72-.752 1.242-.752h4.497c.249 0 .494-.066.709-.193l3.296-1.932c.215-.127.46-.193.71-.193h10.944c.345 0 .678.127.935.357l1.791 1.604c.258.23.59.357.936.357h5.06c.347 0 .681.128.939.36l.43.388c.823.74.505 2.096-.56 2.394l-4.175 1.17c-.123.034-.25.051-.378.051"/>
                <mask id="f" fill="#fff">
                    <use xlink:href="#e"/>
                </mask>
                <path fill="#FF7900" d="M139.88 84.174h50.405V66.411H139.88z" mask="url(#f)"/>
                <path fill="#595959" d="M148.483 75.844h5.534v-6.155h-5.534zM176.148 75.844h5.534v-6.155h-5.534z" mask="url(#f)"/>
                <path fill="#000" d="M168.809 84.178h-7.454V73.575a3.725 3.725 0 0 1 3.725-3.725h.005a3.725 3.725 0 0 1 3.724 3.725v10.603z" mask="url(#f)"/>
                <path fill="#B8EBD6" d="M139.136 66.528h51.908v-5.945h-51.908z" mask="url(#f)"/>
                <path fill="#D6D6D6" d="M190.589 56.62a.632.632 0 0 0-.456.185.633.633 0 0 1-.455.185.633.633 0 0 1-.455-.185.633.633 0 0 0-.456-.185.632.632 0 0 0-.455.185.634.634 0 0 1-.455.185.633.633 0 0 1-.456-.185.632.632 0 0 0-.455-.185.633.633 0 0 0-.455.185.633.633 0 0 1-.456.185.633.633 0 0 1-.455-.185.632.632 0 0 0-.455-.185.633.633 0 0 0-.456.185.633.633 0 0 1-.455.185.633.633 0 0 1-.455-.185.633.633 0 0 0-.456-.185.632.632 0 0 0-.455.185.634.634 0 0 1-.456.185.633.633 0 0 1-.455-.185.632.632 0 0 0-.455-.185.633.633 0 0 0-.455.185.633.633 0 0 1-.456.185.633.633 0 0 1-.455-.185.632.632 0 0 0-.455-.185.632.632 0 0 0-.456.185.633.633 0 0 1-.455.185.633.633 0 0 1-.455-.185.633.633 0 0 0-.456-.185.632.632 0 0 0-.455.185.634.634 0 0 1-.456.185.633.633 0 0 1-.455-.185.632.632 0 0 0-.455-.185.633.633 0 0 0-.456.185.633.633 0 0 1-.455.185.633.633 0 0 1-.455-.185.633.633 0 0 0-.455-.185.632.632 0 0 0-.456.185.633.633 0 0 1-.455.185.633.633 0 0 1-.455-.185.633.633 0 0 0-.456-.185.632.632 0 0 0-.455.185.634.634 0 0 1-.456.185.633.633 0 0 1-.455-.185.633.633 0 0 0-.455-.185.633.633 0 0 0-.456.185.633.633 0 0 1-.455.185.633.633 0 0 1-.455-.185.632.632 0 0 0-.456-.185.632.632 0 0 0-.455.185.633.633 0 0 1-.455.185.633.633 0 0 1-.455-.185.633.633 0 0 0-.456-.185.632.632 0 0 0-.455.185.633.633 0 0 1-.455.185.634.634 0 0 1-.456-.185.617.617 0 0 0-.455-.185.668.668 0 0 0-.124.012.594.594 0 0 0-.332.173.633.633 0 0 1-.455.185.633.633 0 0 1-.455-.185.632.632 0 0 0-.456-.185.633.633 0 0 0-.455.185.633.633 0 0 1-.455.185.633.633 0 0 1-.456-.185.633.633 0 0 0-.455-.185.632.632 0 0 0-.455.185.634.634 0 0 1-.456.185.633.633 0 0 1-.455-.185.632.632 0 0 0-.455-.185.633.633 0 0 0-.456.185.633.633 0 0 1-.455.185.633.633 0 0 1-.455-.185.632.632 0 0 0-.456-.185.633.633 0 0 0-.455.185.633.633 0 0 1-.455.185.633.633 0 0 1-.456-.185.633.633 0 0 0-.455-.185.632.632 0 0 0-.455.185.633.633 0 0 1-.456.185.634.634 0 0 1-.455-.185.632.632 0 0 0-.455-.185.633.633 0 0 0-.456.185.633.633 0 0 1-.455.185.633.633 0 0 1-.455-.185.632.632 0 0 0-.456-.185.632.632 0 0 0-.455.185.633.633 0 0 1-.455.185.633.633 0 0 1-.456-.185.633.633 0 0 0-.455-.185.632.632 0 0 0-.455.185.633.633 0 0 1-.456.185.634.634 0 0 1-.455-.185.632.632 0 0 0-.455-.185.633.633 0 0 0-.456.185.633.633 0 0 1-.455.185.633.633 0 0 1-.455-.185.632.632 0 0 0-.456-.185.632.632 0 0 0-.455.185.633.633 0 0 1-.455.185.633.633 0 0 1-.456-.185.633.633 0 0 0-.455-.185.633.633 0 0 0-.456.185.633.633 0 0 1-.455.185.633.633 0 0 1-.455-.185.633.633 0 0 0-.456-.185.633.633 0 0 0-.455.185.633.633 0 0 1-.455.185.633.633 0 0 1-.455-.185.632.632 0 0 0-.456-.185.632.632 0 0 0-.455.185.633.633 0 0 1-.455.185.633.633 0 0 1-.456-.185.632.632 0 0 0-.455-.185.632.632 0 0 0-.455.185V67.71a.632.632 0 0 1 .455-.186c.16 0 .347.063.455.186a.633.633 0 0 0 .456.185c.16 0 .346-.063.455-.185a.632.632 0 0 1 .455-.186c.16 0 .347.063.456.186a.633.633 0 0 0 .455.185c.16 0 .347-.063.455-.185a.633.633 0 0 1 .455-.186c.161 0 .347.063.456.186a.633.633 0 0 0 .455.185c.16 0 .347-.063.455-.185a.633.633 0 0 1 .456-.186c.16 0 .346.063.455.186a.633.633 0 0 0 .456.185c.16 0 .346-.063.455-.185a.632.632 0 0 1 .455-.186c.16 0 .347.063.456.186a.633.633 0 0 0 .455.185c.16 0 .347-.063.455-.185a.633.633 0 0 1 .456-.186c.16 0 .346.063.455.186a.634.634 0 0 0 .455.185c.16 0 .347-.063.456-.185a.632.632 0 0 1 .455-.186c.16 0 .346.063.455.186a.633.633 0 0 0 .456.185c.16 0 .346-.063.455-.185a.632.632 0 0 1 .455-.186c.16 0 .347.063.456.186a.633.633 0 0 0 .455.185c.16 0 .347-.063.455-.185a.633.633 0 0 1 .456-.186c.16 0 .346.063.455.186a.634.634 0 0 0 .455.185c.16 0 .347-.063.456-.185a.632.632 0 0 1 .455-.186c.16 0 .347.063.455.186a.633.633 0 0 0 .456.185c.16 0 .346-.063.455-.185a.633.633 0 0 1 .455-.186c.16 0 .347.063.456.186a.633.633 0 0 0 .455.185c.16 0 .347-.063.455-.185a.633.633 0 0 1 .456-.186c.16 0 .346.063.455.186a.633.633 0 0 0 .455.185c.16 0 .347-.063.456-.185a.632.632 0 0 1 .455-.186c.16 0 .347.063.455.186a.633.633 0 0 0 .456.185c.16 0 .346-.063.455-.185a.633.633 0 0 1 .455-.186c.16 0 .347.063.456.186a.633.633 0 0 0 .455.185c.16 0 .347-.063.455-.185a.596.596 0 0 1 .332-.174.688.688 0 0 1 .185-.009.617.617 0 0 1 .394.183.634.634 0 0 0 .456.185c.16 0 .346-.063.455-.185a.632.632 0 0 1 .455-.186c.16 0 .347.063.456.186a.633.633 0 0 0 .455.185c.16 0 .346-.063.455-.185a.632.632 0 0 1 .455-.186c.16 0 .347.063.456.186a.633.633 0 0 0 .455.185c.16 0 .347-.063.455-.185a.633.633 0 0 1 .456-.186c.16 0 .346.063.455.186a.633.633 0 0 0 .455.185c.16 0 .347-.063.456-.185a.632.632 0 0 1 .455-.186c.16 0 .347.063.456.186a.633.633 0 0 0 .455.185c.16 0 .346-.063.455-.185a.632.632 0 0 1 .456-.186c.16 0 .346.063.455.186a.633.633 0 0 0 .455.185c.16 0 .347-.063.455-.185a.633.633 0 0 1 .456-.186c.16 0 .346.063.455.186a.633.633 0 0 0 .455.185c.161 0 .347-.063.456-.185a.632.632 0 0 1 .455-.186c.16 0 .347.063.456.186a.633.633 0 0 0 .455.185c.16 0 .346-.063.455-.185a.632.632 0 0 1 .456-.186c.16 0 .346.063.455.186a.633.633 0 0 0 .455.185c.16 0 .347-.063.456-.185a.633.633 0 0 1 .455-.186c.16 0 .346.063.455.186a.633.633 0 0 0 .455.185c.161 0 .347-.063.456-.185a.632.632 0 0 1 .455-.186c.16 0 .347.063.456.186a.633.633 0 0 0 .455.185c.16 0 .347-.063.455-.185a.633.633 0 0 1 .456-.186c.16 0 .346.063.455.186a.633.633 0 0 0 .455.185c.16 0 .347-.063.456-.185a.633.633 0 0 1 .455-.186c.16 0 .347.063.455.186a.633.633 0 0 0 .456.185c.16 0 .346-.063.455-.185a.632.632 0 0 1 .455-.186c.16 0 .347.063.456.186a.633.633 0 0 0 .455.185c.16 0 .346-.063.455-.185a.632.632 0 0 1 .456-.186c.16 0 .346.063.455.186V56.805a.632.632 0 0 0-.455-.185" mask="url(#f)"/>
                <path fill="#8F8F8F" d="M140.046 67.709a.633.633 0 0 0-.455-.186.633.633 0 0 0-.455.186V56.805a.633.633 0 0 1 .455-.185c.16 0 .347.063.455.185V67.71zM141.868 67.709a.633.633 0 0 0-.456-.186.633.633 0 0 0-.455.186V56.805a.633.633 0 0 1 .455-.185c.16 0 .347.063.456.185V67.71zM143.689 67.709a.633.633 0 0 0-.455-.186.633.633 0 0 0-.456.186V56.805a.633.633 0 0 1 .456-.185c.16 0 .346.063.455.185V67.71zM145.51 67.709a.633.633 0 0 0-.455-.186.633.633 0 0 0-.455.186V56.805a.633.633 0 0 1 .455-.185c.16 0 .347.063.455.185V67.71zM147.332 67.709a.633.633 0 0 0-.456-.186.633.633 0 0 0-.455.186V56.805a.633.633 0 0 1 .455-.185c.16 0 .347.063.456.185V67.71zM149.153 67.709a.633.633 0 0 0-.455-.186.633.633 0 0 0-.456.186V56.805a.633.633 0 0 1 .456-.185c.16 0 .346.063.455.185V67.71zM150.974 67.709a.633.633 0 0 0-.455-.186.633.633 0 0 0-.455.186V56.805a.633.633 0 0 1 .455-.185c.16 0 .346.063.455.185V67.71zM152.795 67.709a.633.633 0 0 0-.455-.186.633.633 0 0 0-.455.186V56.805a.633.633 0 0 1 .455-.185c.16 0 .347.063.455.185V67.71zM154.617 67.709a.633.633 0 0 0-.455-.186.633.633 0 0 0-.456.186V56.805a.633.633 0 0 1 .456-.185c.16 0 .346.063.455.185V67.71zM156.438 67.709a.633.633 0 0 0-.455-.186.633.633 0 0 0-.455.186V56.805a.633.633 0 0 1 .455-.185c.16 0 .347.063.455.185V67.71zM158.26 67.709a.633.633 0 0 0-.456-.186.633.633 0 0 0-.455.186V56.805a.633.633 0 0 1 .455-.185c.16 0 .347.063.455.185V67.71zM160.08 67.709a.633.633 0 0 0-.454-.186.633.633 0 0 0-.456.186V56.805a.633.633 0 0 1 .456-.185c.16 0 .346.063.455.185V67.71zM161.902 67.709a.633.633 0 0 0-.455-.186.633.633 0 0 0-.455.186V56.805a.633.633 0 0 1 .455-.185c.16 0 .347.063.455.185V67.71zM163.723 67.709a.633.633 0 0 0-.455-.186.633.633 0 0 0-.455.186V56.805a.633.633 0 0 1 .455-.185c.16 0 .347.063.455.185V67.71zM165.545 67.709a.633.633 0 0 0-.455-.186.633.633 0 0 0-.456.186V56.805a.633.633 0 0 1 .456-.185c.16 0 .346.063.455.185V67.71zM167.366 67.709a.633.633 0 0 0-.455-.186.633.633 0 0 0-.455.186V56.805a.633.633 0 0 1 .455-.185c.16 0 .347.063.455.185V67.71zM169.188 67.709a.633.633 0 0 0-.456-.186.633.633 0 0 0-.455.186V56.805a.633.633 0 0 1 .455-.185c.16 0 .347.063.456.185V67.71zM171.009 67.709a.633.633 0 0 0-.455-.186.633.633 0 0 0-.456.186V56.805a.633.633 0 0 1 .456-.185c.16 0 .346.063.455.185V67.71zM172.83 67.709a.633.633 0 0 0-.455-.186.633.633 0 0 0-.455.186V56.805a.633.633 0 0 1 .455-.185c.16 0 .347.063.455.185V67.71zM174.652 67.709a.633.633 0 0 0-.456-.186.633.633 0 0 0-.455.186V56.805a.633.633 0 0 1 .455-.185c.16 0 .347.063.456.185V67.71zM176.473 67.709a.633.633 0 0 0-.455-.186.633.633 0 0 0-.456.186V56.805a.633.633 0 0 1 .456-.185c.16 0 .346.063.455.185V67.71zM178.294 67.709a.633.633 0 0 0-.455-.186.633.633 0 0 0-.455.186V56.805a.633.633 0 0 1 .455-.185c.16 0 .347.063.455.185V67.71zM180.116 67.709a.633.633 0 0 0-.456-.186.633.633 0 0 0-.455.186V56.805a.633.633 0 0 1 .455-.185c.16 0 .347.063.456.185V67.71zM181.937 67.709a.633.633 0 0 0-.455-.186.633.633 0 0 0-.456.186V56.805a.633.633 0 0 1 .456-.185c.16 0 .346.063.455.185V67.71zM183.758 67.709a.633.633 0 0 0-.455-.186.633.633 0 0 0-.455.186V56.805a.633.633 0 0 1 .455-.185c.16 0 .346.063.455.185V67.71zM185.58 67.709a.633.633 0 0 0-.456-.186.633.633 0 0 0-.455.186V56.805a.633.633 0 0 1 .455-.185c.16 0 .347.063.455.185V67.71zM187.4 67.709a.633.633 0 0 0-.455-.186.633.633 0 0 0-.455.186V56.805a.633.633 0 0 1 .455-.185c.16 0 .347.063.456.185V67.71zM189.222 67.709a.633.633 0 0 0-.455-.186.633.633 0 0 0-.455.186V56.805a.633.633 0 0 1 .455-.185c.16 0 .346.063.455.185V67.71zM191.043 67.709a.633.633 0 0 0-.455-.186.633.633 0 0 0-.455.186V56.805a.633.633 0 0 1 .455-.185c.16 0 .347.063.455.185V67.71z" mask="url(#f)"/>
                <path fill="#000" d="M190.133 67.489a.632.632 0 0 1-.455.185.633.633 0 0 1-.455-.185.633.633 0 0 0-.456-.185.633.633 0 0 0-.455.185.633.633 0 0 1-.455.185.632.632 0 0 1-.456-.185.634.634 0 0 0-.455-.185.633.633 0 0 0-.455.185.633.633 0 0 1-.456.185.633.633 0 0 1-.455-.185.633.633 0 0 0-.455-.185.633.633 0 0 0-.456.185.632.632 0 0 1-.455.185.632.632 0 0 1-.455-.185.633.633 0 0 0-.456-.185.633.633 0 0 0-.455.185.633.633 0 0 1-.456.185.632.632 0 0 1-.455-.185.634.634 0 0 0-.455-.185.633.633 0 0 0-.455.185.633.633 0 0 1-.456.185.632.632 0 0 1-.455-.185.633.633 0 0 0-.455-.185.633.633 0 0 0-.456.185.632.632 0 0 1-.455.185.632.632 0 0 1-.455-.185.633.633 0 0 0-.456-.185.633.633 0 0 0-.455.185.633.633 0 0 1-.455.185.632.632 0 0 1-.456-.185.634.634 0 0 0-.455-.185.633.633 0 0 0-.456.185.632.632 0 0 1-.455.185.633.633 0 0 1-.455-.185.633.633 0 0 0-.456-.185.633.633 0 0 0-.455.185.632.632 0 0 1-.455.185.633.633 0 0 1-.455-.185.633.633 0 0 0-.456-.185.633.633 0 0 0-.455.185.633.633 0 0 1-.455.185.632.632 0 0 1-.456-.185.633.633 0 0 0-.455-.185.634.634 0 0 0-.456.185.632.632 0 0 1-.455.185.633.633 0 0 1-.455-.185.633.633 0 0 0-.456-.185.633.633 0 0 0-.455.185.632.632 0 0 1-.455.185.633.633 0 0 1-.456-.185.633.633 0 0 0-.455-.185.633.633 0 0 0-.455.185.633.633 0 0 1-.455.185.632.632 0 0 1-.456-.185.617.617 0 0 0-.455-.185.665.665 0 0 0-.455.185.632.632 0 0 1-.456.185.633.633 0 0 1-.455-.185.633.633 0 0 0-.456-.185.633.633 0 0 0-.455.185.633.633 0 0 1-.455.185.632.632 0 0 1-.456-.185.633.633 0 0 0-.455-.185.633.633 0 0 0-.455.185.633.633 0 0 1-.456.185.632.632 0 0 1-.455-.185.633.633 0 0 0-.455-.185.633.633 0 0 0-.455.185.633.633 0 0 1-.456.185.633.633 0 0 1-.455-.185.633.633 0 0 0-.456-.185.633.633 0 0 0-.455.185.632.632 0 0 1-.455.185.632.632 0 0 1-.456-.185.633.633 0 0 0-.455-.185.633.633 0 0 0-.455.185.633.633 0 0 1-.456.185.632.632 0 0 1-.455-.185.633.633 0 0 0-.455-.185.634.634 0 0 0-.456.185.632.632 0 0 1-.455.185.633.633 0 0 1-.455-.185.633.633 0 0 0-.456-.185.633.633 0 0 0-.455.185.632.632 0 0 1-.455.185.633.633 0 0 1-.456-.185.633.633 0 0 0-.455-.185.633.633 0 0 0-.455.185.633.633 0 0 1-.456.185.632.632 0 0 1-.455-.185.633.633 0 0 0-.455-.185.633.633 0 0 0-.456.185.633.633 0 0 1-.455.185.633.633 0 0 1-.455-.185.633.633 0 0 0-.456-.185.633.633 0 0 0-.455.185.632.632 0 0 1-.455.185.632.632 0 0 1-.456-.185.633.633 0 0 0-.455-.185.633.633 0 0 0-.455.185.633.633 0 0 1-.456.185.632.632 0 0 1-.455-.185.633.633 0 0 0-.455-.185.634.634 0 0 0-.456.185.632.632 0 0 1-.455.185.633.633 0 0 1-.456-.185.633.633 0 0 0-.455-.185.633.633 0 0 0-.455.185.632.632 0 0 1-.455.185.632.632 0 0 1-.456-.185.633.633 0 0 0-.455-.185.633.633 0 0 0-.455.185v.22a.633.633 0 0 1 .455-.186c.16 0 .346.064.455.186a.632.632 0 0 0 .456.185c.16 0 .346-.063.455-.185a.633.633 0 0 1 .455-.186c.16 0 .347.064.455.186a.633.633 0 0 0 .456.185c.16 0 .346-.063.455-.185a.634.634 0 0 1 .456-.186c.16 0 .346.064.455.186a.632.632 0 0 0 .455.185c.16 0 .347-.063.456-.185a.633.633 0 0 1 .455-.186c.16 0 .347.064.455.186a.632.632 0 0 0 .456.185c.16 0 .346-.063.455-.185a.633.633 0 0 1 .455-.186c.16 0 .347.064.456.186a.633.633 0 0 0 .455.185c.16 0 .347-.063.455-.185a.633.633 0 0 1 .456-.186c.16 0 .346.064.455.186a.632.632 0 0 0 .455.185c.16 0 .347-.063.456-.185a.633.633 0 0 1 .455-.186c.16 0 .347.064.455.186a.633.633 0 0 0 .456.185c.16 0 .346-.063.455-.185a.633.633 0 0 1 .455-.186c.16 0 .347.064.456.186a.633.633 0 0 0 .455.185c.16 0 .347-.063.455-.185a.634.634 0 0 1 .456-.186c.16 0 .346.064.455.186a.632.632 0 0 0 .455.185c.16 0 .347-.063.456-.185a.633.633 0 0 1 .455-.186c.16 0 .346.064.455.186a.632.632 0 0 0 .456.185c.16 0 .346-.063.455-.185a.633.633 0 0 1 .455-.186c.16 0 .347.064.456.186a.633.633 0 0 0 .455.185c.16 0 .347-.063.456-.185a.633.633 0 0 1 .455-.186c.16 0 .346.064.455.186a.632.632 0 0 0 .455.185c.16 0 .347-.063.456-.185a.633.633 0 0 1 .455-.186c.16 0 .347.064.455.186a.632.632 0 0 0 .456.185c.16 0 .346-.063.455-.185a.633.633 0 0 1 .455-.186c.16 0 .347.064.456.186a.633.633 0 0 0 .455.185c.16 0 .347-.063.455-.185a.665.665 0 0 1 .516-.182c.146.013.3.075.395.182a.632.632 0 0 0 .456.185c.16 0 .346-.063.455-.185a.633.633 0 0 1 .455-.186c.16 0 .347.064.455.186a.633.633 0 0 0 .456.185c.16 0 .346-.063.455-.185a.633.633 0 0 1 .455-.186c.16 0 .347.064.456.186a.633.633 0 0 0 .455.185c.16 0 .347-.063.455-.185a.634.634 0 0 1 .456-.186c.16 0 .346.064.455.186a.632.632 0 0 0 .456.185c.16 0 .346-.063.455-.185a.633.633 0 0 1 .455-.186c.16 0 .347.064.456.186a.633.633 0 0 0 .455.185c.16 0 .346-.063.455-.185a.633.633 0 0 1 .455-.186c.16 0 .347.064.456.186a.633.633 0 0 0 .455.185c.16 0 .347-.063.455-.185a.633.633 0 0 1 .456-.186c.16 0 .346.064.455.186a.632.632 0 0 0 .456.185c.16 0 .346-.063.455-.185a.633.633 0 0 1 .455-.186c.16 0 .347.064.456.186a.632.632 0 0 0 .455.185c.16 0 .347-.063.455-.185a.633.633 0 0 1 .456-.186c.16 0 .346.064.455.186a.632.632 0 0 0 .455.185c.16 0 .347-.063.456-.185a.633.633 0 0 1 .455-.186c.16 0 .346.064.455.186a.632.632 0 0 0 .455.185c.161 0 .347-.063.456-.185a.633.633 0 0 1 .455-.186c.16 0 .347.064.456.186a.632.632 0 0 0 .455.185c.16 0 .347-.063.455-.185a.633.633 0 0 1 .456-.186c.16 0 .346.064.455.186a.633.633 0 0 0 .455.185c.16 0 .347-.063.456-.185a.633.633 0 0 1 .455-.186c.16 0 .346.064.455.186a.632.632 0 0 0 .456.185c.16 0 .346-.063.455-.185a.633.633 0 0 1 .455-.186c.16 0 .347.064.456.186a.633.633 0 0 0 .455.185c.16 0 .347-.063.455-.185a.633.633 0 0 1 .456-.186c.16 0 .346.064.455.186v-.22a.633.633 0 0 0-.455-.185.633.633 0 0 0-.456.185" mask="url(#f)"/>
                <path fill="#D6D6D6" d="M139.136 57.378h51.908v-1.145h-51.908z" mask="url(#f)"/>
                <path fill="#8F8F8F" d="M119.81 86.09H74.595V73.129l4.432-.426 4.752.239 5.395-.052 3.575.208 6.91-.395 7.172.239 7.444-.24 5.537.081z" mask="url(#f)"/>
                <path fill="#FFF" d="M119.811 86.09h31.847V61.893H119.81z" mask="url(#f)"/>
                <path fill="#FF7900" d="M140.29 50.78h-9.11l-14.428 11.299h37.965z" mask="url(#f)"/>
                <path fill="#000" d="M145.662 86.091h-8.5V70.81a4.25 4.25 0 1 1 8.5 0V86.09z" mask="url(#f)"/>
                <path fill="#FFB400" d="M131.727 51.303l-12.429 10.253h1.268zM132.874 51.303l-9.48 10.253h1.51zM134.001 51.416l-5.867 10.14h1.57zM134.987 51.416l-2.717 10.14h1.731zM136.138 51.416l.287 10.14h1.471zM137.523 51.416l3.583 10.14h1.854zM138.851 51.303l6.523 10.253h1.388zM140.18 51.303l10.366 10.253h1.41z" mask="url(#f)"/>
                <path fill="#0A6E31" d="M80.054 67.38l-.466 17.934h.971z" mask="url(#f)"/>
                <path fill="#50BE87" d="M83.002 74.416l-2.771-.767-.643 11.665h.97l-.303-10.808z" mask="url(#f)"/>
                <path fill="#B8EBD6" d="M77.147 76.497l2.693-.865.72 9.682h-.972l.23-8.816z" mask="url(#f)"/>
                <path fill="#0A6E31" d="M83.23 79.81l-2.855-.977-.787 6.481h.97L80.4 79.69zM84.1 69.979L83.7 85.314h.83z" mask="url(#f)"/>
                <path fill="#B8EBD6" d="M86.62 75.995l-2.37-.656-.55 9.975h.831l-.26-9.242z" mask="url(#f)"/>
                <path fill="#50BE87" d="M81.613 77.774l2.303-.738.615 8.278h-.83l.197-7.539z" mask="url(#f)"/>
                <path fill="#0A6E31" d="M86.816 80.607l-2.442-.835-.673 5.542h.83l-.136-4.81zM89.086 67.38l.466 17.934h-.971z" mask="url(#f)"/>
                <path fill="#50BE87" d="M86.138 74.416l2.771-.767.643 11.665h-.971l.304-10.808z" mask="url(#f)"/>
                <path fill="#B8EBD6" d="M91.993 76.497l-2.693-.865-.719 9.682h.97l-.23-8.816z" mask="url(#f)"/>
                <path fill="#0A6E31" d="M85.91 79.81l2.855-.977.787 6.481h-.971l.16-5.624zM92.862 69.979l-.398 15.335h.83z" mask="url(#f)"/>
                <path fill="#B8EBD6" d="M95.383 75.995l-2.37-.656-.55 9.975h.83l-.26-9.242z" mask="url(#f)"/>
                <path fill="#50BE87" d="M90.376 77.774l2.303-.738.615 8.278h-.83l.196-7.539z" mask="url(#f)"/>
                <path fill="#0A6E31" d="M95.578 80.607l-2.442-.835-.672 5.542h.83l-.137-4.81zM97.58 67.38l-.467 17.934h.971z" mask="url(#f)"/>
                <path fill="#50BE87" d="M100.527 74.416l-2.771-.767-.643 11.665h.971l-.304-10.808z" mask="url(#f)"/>
                <path fill="#B8EBD6" d="M94.672 76.497l2.693-.865.72 9.682h-.972l.23-8.816z" mask="url(#f)"/>
                <path fill="#0A6E31" d="M100.756 79.81l-2.856-.977-.787 6.481h.971l-.16-5.624zM101.855 69.979l.398 15.335h-.83z" mask="url(#f)"/>
                <path fill="#B8EBD6" d="M99.334 75.995l2.37-.656.55 9.975h-.831l.26-9.242z" mask="url(#f)"/>
                <path fill="#50BE87" d="M104.34 77.774l-2.302-.738-.615 8.278h.83l-.197-7.539z" mask="url(#f)"/>
                <path fill="#0A6E31" d="M99.138 80.607l2.442-.835.673 5.542h-.83l.136-4.81zM106.342 67.38l-.466 17.934h.97z" mask="url(#f)"/>
                <path fill="#50BE87" d="M109.29 74.416l-2.772-.767-.642 11.665h.97l-.304-10.808z" mask="url(#f)"/>
                <path fill="#B8EBD6" d="M103.434 76.497l2.693-.865.72 9.682h-.971l.23-8.816z" mask="url(#f)"/>
                <path fill="#0A6E31" d="M109.518 79.81l-2.855-.977-.787 6.481h.97l-.16-5.624zM110.387 69.979l-.398 15.335h.83z" mask="url(#f)"/>
                <path fill="#B8EBD6" d="M112.908 75.995l-2.37-.656-.55 9.975h.83l-.26-9.242z" mask="url(#f)"/>
                <path fill="#50BE87" d="M107.9 77.774l2.304-.738.615 8.278h-.83l.196-7.539z" mask="url(#f)"/>
                <path fill="#0A6E31" d="M113.103 80.607l-2.441-.835-.673 5.542h.83l-.137-4.81zM115.374 67.38l.466 17.934h-.971z" mask="url(#f)"/>
                <path fill="#50BE87" d="M112.426 74.416l2.771-.767.642 11.665h-.97l.304-10.808z" mask="url(#f)"/>
                <path fill="#B8EBD6" d="M118.281 76.497l-2.693-.865-.72 9.682h.971l-.23-8.816z" mask="url(#f)"/>
                <path fill="#0A6E31" d="M112.197 79.81l2.856-.977.786 6.481h-.97l.16-5.624z" mask="url(#f)"/>
                <path fill="#FFF" d="M74.594 86.09h45.217v-3.765l-4.432-.426-4.752.239-5.395-.052-3.575.207-6.91-.394-7.172.239-7.444-.24-5.537.08z" mask="url(#f)"/>
                <path fill="#0A6E31" d="M25.116 87.204l1.793-1.747a4.688 4.688 0 0 0-3.155.113l.034-2.583c-1.203.436-2.547 1.75-2.574 3.75l.008-.602c.033-2.475-1.588-4.147-3.063-4.727l-.043 3.2a5.803 5.803 0 0 0-3.902-.243l2.163 2.22a5.803 5.803 0 0 0-2.895 2.574l7.699.102 6.218.083a4.685 4.685 0 0 0-2.283-2.14" mask="url(#f)"/>
                <path fill="#FFF" d="M31.406 89.353h45.28V55.225h-45.28z" mask="url(#f)"/>
                <path fill="#FF7900" d="M60.523 39.553H47.57L27.057 55.489h53.979z" mask="url(#f)"/>
                <path fill="#000" d="M56.04 89.357H40.333V69.306a7.85 7.85 0 0 1 7.85-7.851h.006a7.85 7.85 0 0 1 7.85 7.85v20.052z" mask="url(#f)"/>
                <path fill="#FFB400" d="M47.884 40.342L30.52 54.55h1.772zM49.487 40.342L36.243 54.55h2.109zM51.061 40.498L42.865 54.55h2.193zM52.439 40.498L48.643 54.55h2.418zM54.046 40.498l.403 14.052h2.054zM55.982 40.498l5.006 14.052h2.59zM57.838 40.342L66.95 54.55h1.94zM59.693 40.342L74.175 54.55h1.971z" mask="url(#f)"/>
                <path fill="#B8EBD6" d="M230.95 66.98a.328.328 0 0 1-.302-.445.328.328 0 0 1 .421-.185c.03.012.044.044.033.074-.012.03-.046.041-.074.033a.211.211 0 0 0-.275.119.214.214 0 0 0 .12.276.215.215 0 0 0 .275-.12.056.056 0 0 1 .074-.033c.029.011.043.045.032.074a.327.327 0 0 1-.304.207" mask="url(#f)"/>
            </g>
        </g>
        <path fill="#4BB4E6" fill-opacity=".2" fill-rule="nonzero" d="M319.655 21.473c-32.71.885-86.804 16.975-90.677 85.674-3.873 68.7-8.085 161.5 53.513 171.633 61.598 10.134 92.628-67.957 92.628-140.428 0-72.47-22.753-117.764-55.464-116.879z"/>
        <path fill="#000" d="M347.965 92.331c-.174 1.656-.697 2.703-3.05 3.792-2.354 1.09-5.71 3.182-5.798 7.846-.087 4.663.698 7.801-.566 8.978-1.264 1.177-1.83 1.7-1.83 1.7l-1.677-.342a.6.6 0 0 0-.428 1.101l.699.418-.282.452a1.387 1.387 0 0 0 2.16 1.714c1.349-1.359 3.884-4.058 4.67-5.915 1.09-2.571 2.136-7.54 2.136-7.54l2.354 8.412s-5.885 8.369 2.397 12.64c8.281 4.271 12.291-.67 12.291-.67l1.013-.823-.708-15.33-.69-5.065s-.748-4.045 1.083-7.401c1.83-3.357 12.823-12.458 12.823-12.458s1.034 1.366 3.02.368c1.607-.807.86-2.2.686-2.99l2.58-1.294a.642.642 0 0 0-.504-1.178l-4.14 1.46a19.87 19.87 0 0 0-5.308 2.835l-12.145 9.094a4.084 4.084 0 0 1-5.072-.14l-1.835-1.538-3.879 1.874z"/>
        <g transform="translate(179.18 217.586)">
            <mask id="h" fill="#fff">
                <use xlink:href="#g"/>
            </mask>
            <path fill="#FFF" d="M176.684 8.046l16.597 7.024-3.835 26.61-7.846 19.744-.697 18.131 4.124 5.58-2.206 10.809-1.694 36.51-106.574-2.687-5.056 1.394-4.673-1.394-1.777 5.056-12.793.697-4.293 6.276h-7.497v-12.204L26.61 141.796l-3.836-2.79v-5.404L0 132.731v-9.938l9.329-5.121 30.53-42.751 21.048-19.317 14.638-17.368 1.798-30.19L82.379.055l80.566.966z" mask="url(#h)"/>
        </g>
        <path fill="#000" d="M317.695 220.103l3.224.451a15.942 15.942 0 0 1 10.56 6.248l16.29 21.806s-6.21 4.642-2.942 13.665c0 0 6.146 5.687 13.337 0l4.63-10.819a14.749 14.749 0 0 0 .482-10.317l-12.565-39.078s-2.484-2.354-2.877-2.354c-.392 0-11.506 2.419-11.506 2.419l-18.633 17.98zM304.655 136.18c-1.376.27-6.476 1.088-9.581 5.436-3.106 4.348-1.602 7.388-4.348 11.147-2.746 3.76-14.906 14.972-14.906 14.972l9.643 9.153 16.9-17.23s1.047 5.821 5.852 6.933c0 0 3.225 8.728-2.572 15.44 0 0 38.966-.13 38.835 0-.13.13-5.71-8.63-2.353-14.776 3.356-6.145 4.664-10.896 4.664-10.896s7.714-4.228 3.748-16.127c0 0 25.999-3.477 27.045-15.315.674-7.628-11.843-17.778-20.832-24.034 0 0-2.475-1.47-6.366-.717a12.067 12.067 0 0 0-5.63 2.769 1.123 1.123 0 0 0 .912 1.95l.076-.012-.36.21a.994.994 0 0 0 .689 1.835l.26-.051-.494.308a.793.793 0 0 0 .725 1.404l.423-.176-.53.513a.834.834 0 1 0 1.222 1.13c.718-.885 1.898-2.138 2.904-2.264 1.569-.196 1.765.948 3.53.98 1.116.022 3.015.055 4.262.077a1.808 1.808 0 0 1 1.683 1.226c.46 1.36 1.183 3.885 1.737 7.622l.261 6.407-13.37 1.112-2.32.425s-3.76-1.144-6.636.163c-2.877 1.308-4.302 2.626-5.11 3.716-.807 1.09-11.656 9.818-11.656 9.818l-10.53-.131-7.777-3.018z"/>
        <path fill="#000" d="M314.262 123.44c-.032.099.981 6.44-.62 9.807-1.602 3.367 14.644.425 14.644.425v-3.53l-1.994-6.113 6.253-2.51a1.503 1.503 0 0 0 .86-1.887c-.205-.593-.592-1.097-1.08-1.492-.379-.306-.92-.807-.966-1.662a3.989 3.989 0 0 1 .556-2.19l.756-.257c.604-.205.945-.844.78-1.46l-.019-.07a1.223 1.223 0 0 0-1.239-.894c-.84.031-2.037-.137-2.762-1.177-1.21-1.733-.048-2.4-1.472-4.506-1.423-2.106-8.009-3.11-8.009-3.11l-7.518 6.635 1.83 13.992z"/>
        <path fill="#000" d="M309.228 111.868c-.686 1.798-2.778 5.525 0 9.513 2.779 3.988 6.473 4.217 7.65 2.583 1.176-1.635.49-3.661-.916-4.348-1.405-.687-2.386-2.289-1.373-3.76 1.014-1.47 3.335-1.013 4.413.981.203.376.498.995.842 1.754l.957-.904s-2.714-3.007.85-5.459c0 0-1.112-6.332 6.309-6.304l-1.06-1.567c-.06-.09-7.538-1.282-7.538-1.282l-8.76 6.57-1.374 2.223z"/>
        <path fill="#FD7900" d="M308.542 113.666l-.321-5.78a6.613 6.613 0 0 1 3.324-6.125 37.809 37.809 0 0 1 4.189-2.02 21.075 21.075 0 0 1 2.167-.762c2.681-.782 5.558.286 7.122 2.6l2.936 4.344s-9.283-2.063-19.417 7.743"/>
        <path fill="#000" d="M357.762 83.424c-.01-.978-.835-1.764-1.846-1.754-.03 0-.059.008-.089.01-1.202-2.648-2.928-4.865-6.44-4.865-3.6 0-6.543 3.096-7.006 7.047-.793.2-1.377.896-1.37 1.726.01.9.713 1.63 1.612 1.733.901 3.377 3.664 5.826 6.915 5.796 3.95-.037 7.136-3.277 7.094-7.779 0-.087-.01-.172-.014-.258.676-.266 1.15-.907 1.144-1.656"/>
        <path fill="#FD7900" d="M344.478 182.03l-36.566-.245c-4.144-.028-7.076 3.012-8.548 6.7-1.217 3.048-8.278 17.888-21.593 20.507l-3.814 1.413 2.419 12.379 3.007 1.307s10.43 6.47 23.47 4.415c12.86-2.027 20.595-7.53 28.702-16.858 8.107-9.328 16.214-10.57 19.156-9.59l-6.233-20.027z"/>
        <path fill="#000" d="M244.274 259.527s-6.341-1.635-16.148 3.269c-9.807 4.903-11.114 7.42-13.73 7.322-2.615-.098-5.034-.817-6.505.98-1.47 1.799-.588 3.597.523 4.74 1.112 1.145 3.17 2.518 3.269 5.558.098 3.04-2.877 9.316 4.054 12.553l4.478-2.68s-5.067-6.768-1.21-12.848c3.858-6.08 17.587-7.224 17.587-7.224l8.173-.392-.49-11.278zM280.843 193.843c10.47-10.279 5.96-23.798.697-28.854-4.576-4.396-9.741-4.936-12.095-7.323-1.274-1.292-1.466-2.651-1.254-3.958.203-1.25.827-2.39 1.677-3.33.367-.405.749-.85 1.146-1.341 2.854-3.536 1.24-6.603.358-7.816a.629.629 0 0 1 .143-.876c.766-.564.8-1.377.61-1.834-.228-.556-.882-.85-1.34-.85-.457 0-1.634.457-2.909-1.145-1.275-1.601-3.007-3.269-4.206-4.042h-5.23s-6.974 8.979-6.974 9.327c0 .349.697 7.34.697 7.34l.149 2.677.854 3.43 4.253-1.295c1.631-.558 2.507.006 2.852 1.28.255.94-.25 1.923-1.13 2.34-2.109.997-5.205 2.256-10.048 4.805-7.631 4.015-17.355 10.163-17.355 10.163l-49.735 28.934c-.339.197-.52.612-.378.977a.778.778 0 0 0 1.147.374l1.847-1.19a.774.774 0 0 0-.015 1.03c.262.305.727.334 1.06.108l2.167-1.478-.478.33c-.339.235-.502.68-.334 1.057a.836.836 0 0 0 1.235.352l4.72-3.22-2.27 2.71c-.31.37-.344.926-.028 1.291a.969.969 0 0 0 1.484-.011c.636-.772 1.59-1.923 2.034-2.422.698-.785 1.482-1.003 3.618-2.528 1.172-.838 2.095-1.938 2.69-2.76a5.88 5.88 0 0 1 2.301-1.88l27.529-12.749a52.09 52.09 0 0 1 5.792-2.273l3.967-1.29c6.987-2.271 14.448 2.57 14.845 9.907.011.211.017.424.017.638v4.087c0 6.277-4.01 9.233-4.01 9.233 3.851-2.096 8.755-4.284 12.727-3.828 10.842 1.243 12.542 10.754 14.858 12.98-1.409-7.568-1.046-13.778 2.315-17.077"/>
        <path fill="#000" d="M239.436 215.984l4.882-3.138 26.587-2.44-2.79 15.167-5.829 18.034s-5.884 20.267-7.257 22.915c-1.373 2.648-4.772 5.623-4.772 5.623l-22.916 20.921c-2.484 2.06-7.126 7.028-6.399 12.749.545 4.29 3.983 6.558 5.667 7.424.565.29.923.869.915 1.504v.073a1.66 1.66 0 0 1-1.505 1.632l-2.339.22c-3.792.327-7.093-.72-8.695-2.779-1.602-2.06-.981-6.538-1.471-8.891-.49-2.354-2.223-3.465-3.367-4.642-1.144-1.177-1.046-2.877-.425-4.054.62-1.177 1.765-1.569 3.726-2.19 1.962-.621 5.983-3.269 8.205-5.46 2.223-2.19 4.021-10.689 8.434-15.82 4.413-5.133 10.101-7.16 10.101-7.16 1.028-.514 1.85-1.232 2.446-1.867a4 4 0 0 0 1.06-2.895l-.63-16.159c-.449-5.372-.929-13.975-1.186-18.825a3.994 3.994 0 0 0-3.448-3.738l1.006-6.204z"/>
        <path fill="#FFF" d="M272.631 159.658c.345 6.442-3.926 21.194-17.678 28.79l-.229 6.821s5.307-7.07 15.375-10.601c5.776-2.026 12.133-1.469 16.504-.626 0 0 2.234-4.325-1.414-13.716-2.27-5.844-8.317-9.031-12.558-10.668"/>
        <path fill="#FD7900" d="M263.67 132.474c-3.225-1.22-11.594-4.795-18.044 7.06-3.029 5.566-7.364 9.134-11.11 11.353 0 0 6.424 5.602 13.681 5.602 7.257 0 10.592-3.857 10.592-6.014 0-2.158-1.134-2.899-2.027-3.465-.743-.471-1.482-.96-1.482-2.354 0-1.416 1.504-2.223 2.79-2.223.719 0 2.484-.784 2.484-2.55 0-1.765-.458-4.184.588-5.753 1.046-1.57 2.528-1.656 2.528-1.656M229.461 214.87300000000002c-.069.309-.816 1.293-5.74 4.198-7.625 4.497-15.274.284-15.274.284 15.495 17.362 31.037 3.132 31.037 3.132 4.558-4.809 7.49-6.842 7.49-6.842v-.001c2.05-1.21 4.828-2.013 9.46-2.013 7.46 0 12.29 11.254 14.233 16.924.29 1.277.674 2.101.674 2.101l8.042-8.565-.265-5.484-.004-.074-.298-6.157s-2.615-13.913-15.146-14.436c-10.181-.425-14.383 5.796-19.667 8.881m-.088.05l-1.62.805c-4.986 2.349-12.862.005-12.862.005v7.061c.008.043.02.087.028.13l.003-.02"/>
        <path fill="#000" d="M355.375 138.576l1.059 2.053a1.088 1.088 0 0 0 2.048-.628l-1.307-4.812c-.325-1.2.03-2.477.932-3.333 2.415-2.29 6.982-6.883 7.205-9.058.172-1.66-.027-3.91-1.354-5.605-1.041-1.33-2.778-2.32-5.576-2.415-6.363-.218-7.06 5.143-7.06 5.143l1.83 13.956 2.223 4.699z"/>
        <path fill="#000" d="M349.883 116.478c6.8-3.4 11.507.828 11.332 5.186-.122 3.055-4.931 9.084-7.799 12.42a4.446 4.446 0 0 0-.472 5.14l1.27 2.177a1.124 1.124 0 0 1-2.012.96c-.497-.766-1.204-1.764-1.84-2.319-1.133-.987-3.217-1.75-2.61-3.047.606-1.296 3.003-4.478 3.744-7.136.74-2.66.893-4.272.893-4.272l-3.857-.392"/>
        <path fill="#000" d="M377.582 124.917c.674-7.628-11.843-17.778-20.832-24.034 0 0-2.476-1.47-6.366-.717a12.07 12.07 0 0 0-5.63 2.77 1.123 1.123 0 0 0 .912 1.949l.076-.012-.36.21a.994.994 0 0 0 .689 1.835l.26-.051-.494.308a.793.793 0 0 0 .725 1.404l.423-.175-.53.513a.833.833 0 1 0 1.222 1.128c.718-.884 1.898-2.137 2.904-2.263 1.568-.196 1.765.948 3.53.981 1.116.02 3.015.055 4.262.076a1.808 1.808 0 0 1 1.683 1.226c.46 1.36.786 1.537 1.34 5.274"/>
        <path fill="#FD7900" d="M314.034 132.201s-1.21 3.498-4.021 3.498-6.211.621-6.211.621 8.754 7.81 17.881 6.146c11.257-2.053 12.814-10.101 13.632-13.664 0 0-2.321 2.909-5.1 1.896-1.015-.37-1.742-1.01-2.256-1.675 0 0-2.713 3.603-6.832 3.995-4.119.393-7.093-.817-7.093-.817"/>
        <path fill="#A885D8" fill-opacity=".2" fill-rule="nonzero" d="M207.9 1.296c-25.188 4.43-39.01 51.107-28.173 92.13 10.838 41.022 78.36 14.976 78.36-38.577s-25-57.982-50.187-53.553z"/>
        <path fill="#FB7900" fill-opacity=".2" fill-rule="nonzero" d="M217.524 177.601c11.01-5.895 10.993-25.78.376-39.397-10.617-13.617-38.193 7.519-30.858 27.67 7.334 20.152 19.471 17.623 30.482 11.727z"/>
    </g>
</svg>
