<svg xmlns="http://www.w3.org/2000/svg" xmlns:xlink="http://www.w3.org/1999/xlink" width="376" height="331" viewBox="0 0 376 331">
    <defs>
        <path id="a" d="M0 .042h42.994v31.956H0z"/>
        <path id="c" d="M0 105h227V0H0z"/>
    </defs>
    <g fill="none" fill-rule="evenodd">
        <path fill="#A885D8" fill-opacity=".2" fill-rule="nonzero" d="M319.655 21.473c-32.71.885-86.804 16.975-90.677 85.674-3.873 68.7-8.085 161.5 53.513 171.633 61.598 10.134 92.628-67.957 92.628-140.428 0-72.47-22.753-117.764-55.464-116.879z"/>
        <path fill="#4BB4E6" fill-opacity=".2" fill-rule="nonzero" d="M207.9 1.296c-25.188 4.43-39.01 51.107-28.173 92.13 10.838 41.022 78.36 14.976 78.36-38.577s-25-57.982-50.187-53.553z"/>
        <path fill="#FB7900" fill-opacity=".2" fill-rule="nonzero" d="M211.524 205.601c11.01-5.895 10.993-25.78.376-39.397-10.617-13.617-38.193 7.519-30.858 27.67 7.334 20.152 19.471 17.623 30.482 11.727z"/>
        <g opacity=".396" transform="translate(0 226)">
            <path fill="#B5E8F7" d="M134.379 28.5h-2.303c0-.962-.73-1.75-1.622-1.75h-3.628c0-.962-.73-1.75-1.621-1.75h-5.758c-.892 0-1.622.788-1.622 1.75h-.883c-.892 0-1.622.788-1.622 1.75h-1.699c-.891 0-1.621.788-1.621 1.75s.73 1.75 1.621 1.75h20.758c.891 0 1.621-.788 1.621-1.75s-.73-1.75-1.621-1.75"/>
            <g transform="translate(0 73)">
                <mask id="b" fill="#fff">
                    <use xlink:href="#a"/>
                </mask>
                <path fill="#000" d="M42.994.042H20.75v20.766h-7.654V13.99H0v18.009h42.994z" mask="url(#b)"/>
            </g>
            <mask id="d" fill="#fff">
                <use xlink:href="#c"/>
            </mask>
            <path fill="#595959" d="M22 75h19v-1H22zM22 77h19v-1H22zM22 79h19v-1H22zM22 81h19v-1H22zM22 83h19v-1H22zM22 85h19v-1H22zM22 87h19v-1H22zM22 89h19v-1H22zM1 91h2v-2H1zM4 91h2v-2H4zM7 91h2v-2H7zM9 91h2v-2H9zM1 95h2v-2H1zM4 95h2v-2H4zM7 95h2v-2H7zM9 95h2v-2H9zM1 98h2v-2H1zM4 98h2v-2H4zM7 98h2v-2H7zM9 98h2v-2H9z" mask="url(#d)"/>
            <path fill="#000" d="M88 104h10V74H88zM144 104h23V40h-23z" mask="url(#d)"/>
            <path fill="#595959" d="M146 44h4v-2h-4zM146 47h4v-2h-4zM146 50h4v-2h-4zM146 53h4v-2h-4zM146 55h4v-2h-4zM146 58h4v-2h-4zM146 62h4v-2h-4zM146 64h4v-2h-4zM146 68h4v-2h-4zM146 71h4v-2h-4zM146 74h4v-2h-4zM146 76h4v-2h-4zM146 79h4v-2h-4zM146 83h4v-2h-4zM151 44h4v-2h-4zM151 47h4v-2h-4zM151 50h4v-2h-4zM151 53h4v-2h-4zM151 55h4v-2h-4zM151 58h4v-2h-4zM151 62h4v-2h-4zM151 64h4v-2h-4zM151 68h4v-2h-4zM151 71h4v-2h-4zM151 74h4v-2h-4zM151 76h4v-2h-4zM151 79h4v-2h-4zM151 83h4v-2h-4zM155 44h4v-2h-4zM155 47h4v-2h-4zM155 50h4v-2h-4zM155 53h4v-2h-4zM155 55h4v-2h-4zM155 58h4v-2h-4zM155 62h4v-2h-4zM155 64h4v-2h-4zM155 68h4v-2h-4zM155 71h4v-2h-4zM155 74h4v-2h-4zM155 76h4v-2h-4zM155 79h4v-2h-4zM155 83h4v-2h-4zM160 44h4v-2h-4zM160 47h4v-2h-4zM160 50h4v-2h-4zM160 53h4v-2h-4zM160 55h4v-2h-4zM160 58h4v-2h-4zM160 62h4v-2h-4zM160 64h4v-2h-4zM160 68h4v-2h-4zM160 71h4v-2h-4zM160 74h4v-2h-4zM160 76h4v-2h-4zM160 79h4v-2h-4zM160 83h4v-2h-4zM146 85h4v-2h-4zM146 88h4v-2h-4zM151 85h4v-2h-4zM151 88h4v-2h-4zM155 85h4v-2h-4zM155 88h4v-2h-4zM160 85h4v-2h-4zM160 88h4v-2h-4zM146 92h4v-2h-4zM146 95h4v-2h-4zM151 92h4v-2h-4zM151 95h4v-2h-4zM155 92h4v-2h-4zM155 95h4v-2h-4zM160 92h4v-2h-4zM160 95h4v-2h-4z" mask="url(#d)"/>
            <path fill="#0A6E31" d="M219 98c1.113 0 2.22-.406 2.937-1.058.272.204.625.328 1.01.328.861 0 1.56-.615 1.56-1.372l-.003-.042c1.462-.51 2.496-1.763 2.496-3.23 0-.644-.2-1.246-.546-1.762a3.149 3.149 0 0 0 .546-1.762c0-1.472-1.041-2.73-2.51-3.236.01-.078.017-.158.017-.239 0-1.095-1.01-1.983-2.255-1.983-.037 0-.074 0-.11.002C221.492 82.662 220.385 82 219 82v16z" mask="url(#d)"/>
            <path fill="#482E26" d="M219 91.472V105h1.963l-.516-8.209 2.275-2.092L225 93.533l-.166-.35-2.075.688.31-1.941-.504-.012-.565 2.066-1.87 1.492-.252-3.99 1.057-2.19L220.5 89z" mask="url(#d)"/>
            <path fill="#50BE87" d="M13 104c0-4.897 2.835-20.995 6.331-20.995 2.397 0 4.482 5.733 5.557 13.504.934-5.417 2.359-10.842 3.955-10.842 1.264 0 2.42 3.405 3.31 7.511C33.429 84.158 35.834 73 38.594 73 42.684 73 46 98.27 46 104H13z" mask="url(#d)"/>
            <path fill="#0A6E31" d="M22.558 85.393a4.36 4.36 0 0 0-1.28-2.499 1.52 1.52 0 0 0 .19-.418c.226-.796-.217-1.63-.988-1.863a1.42 1.42 0 0 0-.18-.04c-.009-1.982-1.267-3.804-3.202-4.388-2.359-.71-4.828.687-5.517 3.122a4.719 4.719 0 0 0-.145 1.85 2.656 2.656 0 0 0-1.937 1.88 2.777 2.777 0 0 0 .106 1.822A4.64 4.64 0 0 0 8 88.389c0 2.536 1.992 4.593 4.448 4.593.626 0 1.22-.134 1.76-.375.449.83 1.306 1.393 2.292 1.393.995 0 1.86-.572 2.305-1.415a3.92 3.92 0 0 0 1.154.173c2.232 0 4.041-1.867 4.041-4.172 0-1.282-.56-2.428-1.442-3.193" mask="url(#d)"/>
            <path fill="#482E26" d="M15.5 93.02L15.395 104h2.265l-.14-10.988a.688.688 0 0 1 .192-.534l2.423-2.666L23 88.271l-.164-.392-2.702 1.027 1.23-3.505-.404-.188-1.935 3.995-1.71 1.304a.17.17 0 0 1-.276-.114L16.295 84h-.83v6.206a.17.17 0 0 1-.264.142l-1.969-1.374-.928-2.896-.365.177.48 2.598-2.267-.657-.152.44 2.54 1.184 2.724 2.673a.687.687 0 0 1 .237.527" mask="url(#d)"/>
            <path fill="#8F8F8F" d="M8 104h1v-9H8z" mask="url(#d)"/>
            <path fill="#FF7900" d="M6.046 96.419l2.157-4.225c.132-.259.462-.259.594 0l2.157 4.225c.131.258-.033.581-.297.581H6.343c-.264 0-.428-.323-.297-.581" mask="url(#d)"/>
            <path fill="#000" d="M89.177 51.89h3.149l.81 3.816-3.959-3.816zm-.256-1.166l2.616-2.553.703 3.316h-3.48l.161-.763zm2.1-2.623L89.076 50l.403-1.9h1.544zm.414-.404h-1.872l.937-4.415.936 4.414-.001.001zm2.56 10.06l-3.241-15.283a.387.387 0 0 0 .152-.305.395.395 0 0 0-.25-.363v-.889a.474.474 0 0 0 .332-.445c0-.26-.22-.472-.488-.472a.481.481 0 0 0-.488.472c0 .207.14.381.332.445v.89c-.147.059-.25.2-.25.362 0 .123.06.232.152.305l-3.242 15.284a.203.203 0 0 0 .162.238.209.209 0 0 0 .246-.157l1.247-5.878 4.628 4.46.3 1.418c.024.109.134.18.247.157a.202.202 0 0 0 .162-.238z" mask="url(#d)"/>
            <path fill="#FFF" d="M42 105h52V61H42z" mask="url(#d)"/>
            <path fill="#D6D6D6" d="M49 83h43V65H49z" mask="url(#d)"/>
            <path fill="#595959" d="M49 82h42V66H49z" mask="url(#d)"/>
            <path fill="#8F8F8F" d="M49 105h43V84H49z" mask="url(#d)"/>
            <path fill="#595959" d="M49 84h43v-1H49zM49 86h43v-1H49zM49 87h43v-1H49zM49 89h43v-1H49zM49 91h43v-1H49zM49 92h43v-1H49zM49 94h43v-1H49zM49 95h43v-1H49zM49 96h43v-1H49zM49 99h43v-1H49zM49 100h43v-1H49zM49 102h43v-1H49zM49 104h43v-1H49zM59 60h35v-2H59z" mask="url(#d)"/>
            <path fill="#000" d="M59 58h35v-1H59z" mask="url(#d)"/>
            <path fill="#8F8F8F" d="M42 105h1V61h-1z" mask="url(#d)"/>
            <path fill="#000" d="M42 63h52v-2H42zM49 105h11V89H49z" mask="url(#d)"/>
            <path fill="#FF7900" d="M49 105h9V92h-9z" mask="url(#d)"/>
            <path fill="#595959" d="M50 53.446l3.052-2.758a.494.494 0 1 1 .26.26L50.554 54 50 53.446z" mask="url(#d)"/>
            <path fill="#D6D6D6" d="M48.066 59.18L50 55.61c.388.212.795.378 1.215.499l.685 1.265-3.834 1.807zM47 60h.622v-.001l4.541-2.14L53.323 60h.622l-2.023-3.735c1.79.289 3.696-.218 5.078-1.523L48.804 47c-2.263 2.138-2.263 5.604 0 7.742.23.216.473.41.728.583L47 60z" mask="url(#d)"/>
            <path fill="#714E46" d="M79 105l-.195-13h-.764L78 105z" mask="url(#d)"/>
            <path fill="#0A6E31" d="M83.34 90.088c.318-.268.523-.678.523-1.138 0-.808-.63-1.462-1.405-1.462l-.03.001a1.023 1.023 0 0 0-.877-.915C81.28 85.662 80.466 85 79.5 85c-.797 0-1.492.453-1.861 1.126a1.114 1.114 0 0 0-.11-.006c-.623 0-1.129.526-1.129 1.175 0 .187.043.363.118.52l-.051-.003c-.655 0-1.186.553-1.186 1.235 0 .385.17.729.435.955v.01c-.436.341-.717.883-.717 1.493 0 1.03.802 1.865 1.792 1.865.103 0 .204-.01.302-.027.006.916.72 1.657 1.602 1.657.384 0 .737-.141 1.013-.377.211.204.493.33.803.33.628 0 1.14-.51 1.179-1.154.08.01.16.016.243.016 1.141 0 2.066-.963 2.066-2.151 0-.623-.254-1.183-.66-1.576" mask="url(#d)"/>
            <path fill="#595959" d="M33 104h15v-2H33z" mask="url(#d)"/>
            <path fill="#0A6E31" d="M51.008 86.323c.116-.19.185-.416.185-.658 0-.67-.517-1.215-1.159-1.23a4.218 4.218 0 0 0-1.67-3.355c-.212-1.737-1.64-3.08-3.372-3.08-1.846 0-3.348 1.527-3.399 3.431-.58.081-1.026.595-1.026 1.22 0 .114.016.225.044.33a2.209 2.209 0 0 0-.95 2.118c-.97.375-1.661 1.345-1.661 2.482 0 1.083.626 2.013 1.522 2.424.287 1.137 1.283 1.976 2.468 1.976.247 0 .485-.037.71-.105.165.502.623.864 1.162.864.257 0 .495-.082.692-.222.412.303.915.482 1.459.482 1.174 0 2.16-.831 2.444-1.957.282.106.585.164.902.164 1.458 0 2.641-1.228 2.641-2.742 0-.867-.388-1.639-.992-2.142" mask="url(#d)"/>
            <path fill="#714E46" d="M44.766 104L45 94.03l-2.32-3.85L40 88.302l.314-.16 2.307 1.346-.764-3.021h.38l.99 3.378 1.868 2.637-.051-3.272-.97-3.896h.323l.92 3.063L46.602 85l.29.213-1.329 3.915.301 3.372 1.696-3.352.497-2.708.255.13-.264 2.493 1.845-.597.107.324-2.085.855-1.836 4.38.392 9.975z" mask="url(#d)"/>
            <path fill="#8F8F8F" d="M65 56h6v-6h-6z" mask="url(#d)"/>
            <path fill="#D6D6D6" d="M71 52a3 3 0 1 1-6 0 3 3 0 0 1 6 0" mask="url(#d)"/>
            <path fill="#595959" d="M71 52a3 3 0 1 1-6 0 3 3 0 0 1 6 0" mask="url(#d)"/>
            <path fill="#D6D6D6" d="M70.92 56h-5.84c-.044 0-.08-.225-.08-.5s.036-.5.08-.5h5.84c.044 0 .08.225.08.5s-.036.5-.08.5" mask="url(#d)"/>
            <path fill="#000" d="M70 51.5a2.5 2.5 0 1 1-5 0 2.5 2.5 0 0 1 5 0" mask="url(#d)"/>
            <path fill="#8F8F8F" d="M73 56h6v-6h-6z" mask="url(#d)"/>
            <path fill="#D6D6D6" d="M79 52a3 3 0 1 1-6 0 3 3 0 0 1 6 0" mask="url(#d)"/>
            <path fill="#595959" d="M80 52a3 3 0 1 1-6 0 3 3 0 0 1 6 0" mask="url(#d)"/>
            <path fill="#D6D6D6" d="M78.92 56h-5.84c-.044 0-.08-.225-.08-.5s.036-.5.08-.5h5.84c.044 0 .08.225.08.5s-.036.5-.08.5" mask="url(#d)"/>
            <path fill="#000" d="M79 51.5a2.5 2.5 0 1 1-5 0 2.5 2.5 0 0 1 5 0M197.5 10c-.275 0-.5-.057-.5-.127V.128c0-.07.225-.128.5-.128s.5.057.5.128v9.745c0 .07-.225.127-.5.127M191 54h13V19h-13zM193 19h8v-9h-8z" mask="url(#d)"/>
            <path fill="#595959" d="M197 5l4 6h-8zM194 12h6v-1h-6zM194 14h6v-1h-6zM194 15h6v-1h-6zM194 17h6v-1h-6zM194 18h6v-1h-6zM193 23h2v-2h-2zM193 55h2V24h-2zM196 23h2v-2h-2zM196 55h2V24h-2zM200 23h2v-2h-2zM200 55h2V24h-2zM198 81h16V62h-16z" mask="url(#d)"/>
            <path fill="#B5E8F7" d="M214 62h-16v-8h10.978z" mask="url(#d)"/>
            <path fill="#8F8F8F" d="M211.437 54H200v1h12z" mask="url(#d)"/>
            <path fill="#D6D6D6" d="M199 81h5V62h-5zM205 81h5V62h-5zM210 81h5V62h-5z" mask="url(#d)"/>
            <path fill="#8F8F8F" d="M200 66h14v-1h-14zM200 63h14v-1h-14zM200 70h14v-1h-14zM200 74h14v-1h-14zM200 77h14v-1h-14z" mask="url(#d)"/>
            <path fill="#FFB400" d="M187 30h12v-6h-12z" mask="url(#d)"/>
            <path fill="#D9C2F0" d="M174 104h24V31h-24z" mask="url(#d)"/>
            <path fill="#FF7900" d="M198 30h-24v-6h12z" mask="url(#d)"/>
            <path fill="#FFB400" d="M175 30h12v-6z" mask="url(#d)"/>
            <path fill="#B5E8F7" d="M180 105h11V92h-11z" mask="url(#d)"/>
            <path fill="#4BB4E6" d="M186.964 105h.072V92h-.072z" mask="url(#d)"/>
            <path fill="#8F8F8F" d="M180 105h2V92h-2zM192 105h2V92h-2z" mask="url(#d)"/>
            <path fill="#FF7900" d="M180 91l6.165-2.925c.21-.1.46-.1.67 0L193 91h-13z" mask="url(#d)"/>
            <path fill="#D9C2F0" d="M180 103a.057.057 0 0 1-.058-.057V92.057c0-.031.026-.057.058-.057s.058.026.058.057v10.886A.057.057 0 0 1 180 103" mask="url(#d)"/>
            <path fill="#D9C2F0" d="M180 103a.057.057 0 0 1-.058-.057V92.057c0-.031.026-.057.058-.057s.058.026.058.057v10.886A.057.057 0 0 1 180 103M182 103a.057.057 0 0 1-.058-.057V92.057c0-.031.026-.057.058-.057s.058.026.058.057v10.886A.057.057 0 0 1 182 103" mask="url(#d)"/>
            <path fill="#D9C2F0" d="M182 103a.057.057 0 0 1-.058-.057V92.057c0-.031.026-.057.058-.057s.058.026.058.057v10.886A.057.057 0 0 1 182 103M192 103a.057.057 0 0 1-.058-.057V92.057c0-.031.026-.057.058-.057s.058.026.058.057v10.886A.057.057 0 0 1 192 103" mask="url(#d)"/>
            <path fill="#D9C2F0" d="M192 103a.057.057 0 0 1-.058-.057V92.057c0-.031.026-.057.058-.057s.058.026.058.057v10.886A.057.057 0 0 1 192 103" mask="url(#d)"/>
            <path fill="#D9C2F0" d="M192 103a.057.057 0 0 1-.058-.057V92.057c0-.031.026-.057.058-.057s.058.026.058.057v10.886A.057.057 0 0 1 192 103M193 103a.057.057 0 0 1-.058-.057V92.057c0-.031.026-.057.058-.057s.058.026.058.057v10.886A.057.057 0 0 1 193 103" mask="url(#d)"/>
            <path fill="#492191" d="M180 92h13v-1h-13zM174 104h8v-2h-8zM193 104h7v-2h-7z" mask="url(#d)"/>
            <path fill="#FFF" d="M187.5 99c-.276 0-.5-.039-.5-.087v-1.826c0-.048.224-.087.5-.087s.5.039.5.087v1.826c0 .048-.224.087-.5.087M186.5 99c-.276 0-.5-.039-.5-.087v-1.826c0-.048.224-.087.5-.087s.5.039.5.087v1.826c0 .048-.224.087-.5.087" mask="url(#d)"/>
            <path fill="#D9C2F0" d="M189.143 21L193 26h-13l3.857-5z" mask="url(#d)"/>
            <path fill="#8F8F8F" d="M174 31h24v-1h-24z" mask="url(#d)"/>
            <path fill="#000" d="M174 31h24v-1h-24z" mask="url(#d)"/>
            <path fill="#FFF" d="M198 104h21V79h-21z" mask="url(#d)"/>
            <path fill="#000" d="M200 105h17V92h-17z" mask="url(#d)"/>
            <path fill="#8F8F8F" d="M201 105h16V92h-16z" mask="url(#d)"/>
            <path fill="#000" d="M198 79h21v-1h-21zM201 88h5v-7h-5z" mask="url(#d)"/>
            <path fill="#595959" d="M200 84h2v-2h-2zM203 84h2v-2h-2zM200 87h2v-2h-2zM203 87h2v-2h-2z" mask="url(#d)"/>
            <path fill="#000" d="M207 88h5v-7h-5z" mask="url(#d)"/>
            <path fill="#595959" d="M207 84h2v-2h-2zM210 84h2v-2h-2zM207 87h2v-2h-2zM210 87h2v-2h-2z" mask="url(#d)"/>
            <path fill="#000" d="M214 88h5v-7h-5z" mask="url(#d)"/>
            <path fill="#595959" d="M214 84h2v-2h-2zM216 84h2v-2h-2zM214 87h2v-2h-2zM216 87h2v-2h-2z" mask="url(#d)"/>
            <path fill="#8F8F8F" d="M200 89h6v-1h-6zM207 89h6v-1h-6zM213 89h6v-1h-6z" mask="url(#d)"/>
            <path fill="#000" d="M204.857 104h-1.714a.147.147 0 0 1-.143-.151V102h2v1.849c0 .083-.064.151-.143.151M215.857 104h-1.714a.147.147 0 0 1-.143-.151V102h2v1.849c0 .083-.064.151-.143.151" mask="url(#d)"/>
            <path fill="#000" d="M214.7 96.076h-.942l-.383-2.105c-.102-.564-.566-.971-1.106-.971h-7.522c-.538 0-1.001.404-1.106.965l-.394 2.11h-.947c-.168 0-.3.194-.3.43 0 .237.132.447.3.469l.758.097-.488 1.576c-.1.364-.151.742-.151 1.122v2.832c0 .22.168.399.376.399h11.41c.208 0 .376-.179.376-.4V99.77c0-.38-.05-.758-.151-1.122l-.488-1.576.758-.097c.168-.022.3-.232.3-.469 0-.236-.132-.43-.3-.43" mask="url(#d)"/>
            <path fill="#B5E8F7" d="M214.06 95h-8.117c-.162 0-.32.117-.352.26l-.59 2.637c-.011.053.034.103.095.103h9.808c.06 0 .106-.05.094-.103l-.59-2.64c-.031-.142-.188-.257-.347-.257" mask="url(#d)"/>
            <path fill="#595959" d="M213.79 103h-9.58c-.115 0-.21-.225-.21-.5s.095-.5.21-.5h9.58c.115 0 .21.225.21.5s-.095.5-.21.5" mask="url(#d)"/>
            <path fill="#FFF6B6" d="M204.048 101h1.904c.027 0 .048-.018.048-.04v-.92c0-.022-.021-.04-.048-.04h-1.856c-.053 0-.096.035-.096.08v.88c0 .022.021.04.048.04" mask="url(#d)"/>
            <path fill="#FF7900" d="M204.048 101h1.904c.027 0 .048.061.048.136v.728c0 .075-.021.136-.048.136h-1.856c-.053 0-.096-.122-.096-.272v-.592c0-.075.021-.136.048-.136" mask="url(#d)"/>
            <path fill="#FFF6B6" d="M214.952 101h-1.904c-.027 0-.048-.018-.048-.04v-.92c0-.022.021-.04.048-.04h1.856c.053 0 .096.035.096.08v.88c0 .022-.021.04-.048.04" mask="url(#d)"/>
            <path fill="#FF7900" d="M214.952 101h-1.904c-.027 0-.048.061-.048.136v.728c0 .075.021.136.048.136h1.856c.053 0 .096-.122.096-.272v-.592c0-.075-.021-.136-.048-.136" mask="url(#d)"/>
            <path fill="#8F8F8F" d="M212.952 101h-5.904c-.026 0-.048-.019-.048-.042v-1.916c0-.023.022-.042.048-.042h5.904c.026 0 .048.019.048.042v1.916c0 .023-.022.042-.048.042" mask="url(#d)"/>
            <path fill="#595959" d="M207 99.079h6v-.158h-6zM207 100.079h6v-.158h-6z" mask="url(#d)"/>
            <path fill="#595959" d="M207 100.079h6v-.158h-6zM207 101.079h6v-.158h-6z" mask="url(#d)"/>
            <path fill="#595959" d="M207 101.079h6v-.158h-6zM207 102.079h6v-.158h-6z" mask="url(#d)"/>
            <path fill="#FF7900" d="M143 104h31V59h-31z" mask="url(#d)"/>
            <path fill="#8F8F8F" d="M162 59h12v-6h-12z" mask="url(#d)"/>
            <path fill="#FFD200" d="M160.606 58H160v-1.176c0-.455.308-.824.687-.824H162v.727h-1.212c-.1 0-.182.098-.182.218V58z" mask="url(#d)"/>
            <path fill="#FFB400" d="M157.95 60H157v-2.896c0-.61.482-1.104 1.077-1.104H162v.974h-3.765a.29.29 0 0 0-.285.292V60z" mask="url(#d)"/>
            <path fill="#FFD200" d="M161.452 59H162v-1h-.548c-.25 0-.452.169-.452.378v.244c0 .209.202.378.452.378" mask="url(#d)"/>
            <path fill="#FFD200" d="M161.322 59h.356c.177 0 .322-.225.322-.5s-.145-.5-.322-.5h-.356c-.177 0-.322.225-.322.5s.145.5.322.5" mask="url(#d)"/>
            <path fill="#FF7900" d="M162 59c-.027 0-.05-.019-.05-.042v-.916c0-.023.023-.042.05-.042.027 0 .05.019.05.042v.916c0 .023-.023.042-.05.042" mask="url(#d)"/>
            <path fill="#595959" d="M163 58h4v-4h-4z" mask="url(#d)"/>
            <path fill="#000" d="M163 54.032h4v-.063h-4zM163 55.032h4v-.063h-4z" mask="url(#d)"/>
            <path fill="#000" d="M163 55.032h4v-.063h-4z" mask="url(#d)"/>
            <path fill="#000" d="M163 55.032h4v-.063h-4z" mask="url(#d)"/>
            <path fill="#000" d="M163 55.032h4v-.063h-4z" mask="url(#d)"/>
            <path fill="#000" d="M163 55.032h4v-.063h-4z" mask="url(#d)"/>
            <path fill="#000" d="M163 55.032h4v-.063h-4z" mask="url(#d)"/>
            <path fill="#000" d="M163 55.032h4v-.063h-4z" mask="url(#d)"/>
            <path fill="#000" d="M163 55.032h4v-.063h-4zM163 56.032h4v-.063h-4z" mask="url(#d)"/>
            <path fill="#000" d="M163 56.032h4v-.063h-4z" mask="url(#d)"/>
            <path fill="#000" d="M163 56.032h4v-.063h-4z" mask="url(#d)"/>
            <path fill="#000" d="M163 56.032h4v-.063h-4z" mask="url(#d)"/>
            <path fill="#000" d="M163 56.032h4v-.063h-4z" mask="url(#d)"/>
            <path fill="#000" d="M163 56.032h4v-.063h-4z" mask="url(#d)"/>
            <path fill="#000" d="M163 56.032h4v-.063h-4z" mask="url(#d)"/>
            <path fill="#000" d="M163 56.032h4v-.063h-4z" mask="url(#d)"/>
            <path fill="#000" d="M163 56.032h4v-.063h-4z" mask="url(#d)"/>
            <path fill="#000" d="M163 56.032h4v-.063h-4z" mask="url(#d)"/>
            <path fill="#000" d="M163 56.032h4v-.063h-4z" mask="url(#d)"/>
            <path fill="#000" d="M163 56.032h4v-.063h-4zM163 57.032h4v-.063h-4z" mask="url(#d)"/>
            <path fill="#000" d="M163 57.032h4v-.063h-4z" mask="url(#d)"/>
            <path fill="#000" d="M163 57.032h4v-.063h-4z" mask="url(#d)"/>
            <path fill="#000" d="M163 57.032h4v-.063h-4z" mask="url(#d)"/>
            <path fill="#000" d="M163 57.032h4v-.063h-4zM163 58.032h4v-.063h-4z" mask="url(#d)"/>
            <path fill="#000" d="M163 58.032h4v-.063h-4z" mask="url(#d)"/>
            <path fill="#8F8F8F" d="M163.04 54a.04.04 0 1 1-.08 0 .04.04 0 0 1 .08 0M163.04 58a.04.04 0 1 1-.08 0 .04.04 0 0 1 .08 0M166.04 54a.04.04 0 1 1-.08 0 .04.04 0 0 1 .08 0M166.04 58a.04.04 0 1 1-.08 0 .04.04 0 0 1 .08 0" mask="url(#d)"/>
            <path fill="#595959" d="M168 58h4v-4h-4z" mask="url(#d)"/>
            <path fill="#8F8F8F" d="M168.04 54a.04.04 0 1 1-.08 0 .04.04 0 0 1 .08 0M168.04 58a.04.04 0 1 1-.08 0 .04.04 0 0 1 .08 0M172.04 54a.04.04 0 1 1-.08 0 .04.04 0 0 1 .08 0M172.04 58a.04.04 0 1 1-.08 0 .04.04 0 0 1 .08 0M171 56a1 1 0 1 1-2 0 1 1 0 0 1 2 0" mask="url(#d)"/>
            <path fill="#000" d="M171 56a1 1 0 1 1-2 0 1 1 0 0 1 2 0" mask="url(#d)"/>
            <path fill="#8F8F8F" d="M170 55.5a.5.5 0 1 1-1 0 .5.5 0 0 1 1 0" mask="url(#d)"/>
            <path fill="#8F8F8F" d="M169 56.06h2v-.12h-2z" mask="url(#d)"/>
            <path fill="#8F8F8F" d="M169.94 57h.12v-2h-.12zM172 53h1v-1h-1z" mask="url(#d)"/>
            <path fill="#595959" d="M172 53h2v-1h-2z" mask="url(#d)"/>
            <path fill="#8F8F8F" d="M174 53h-2l.472-1h1.056zM170 53h1v-1h-1z" mask="url(#d)"/>
            <path fill="#595959" d="M170 53h2v-1h-2z" mask="url(#d)"/>
            <path fill="#8F8F8F" d="M172 53h-2l.472-1h1.056z" mask="url(#d)"/>
            <path fill="#FFD200" d="M143 61h31v-1h-31z" mask="url(#d)"/>
            <path fill="#000" d="M147 90h23v-1h-23z" mask="url(#d)"/>
            <path fill="#D6D6D6" d="M155.366 53v6.334H144V60h12v-7z" mask="url(#d)"/>
            <path fill="#D6D6D6" d="M144 58l2.47-6H156l-2.47 6z" mask="url(#d)"/>
            <path fill="#FFF" d="M157 53h-10.273l-.117.3-2.342 6.012L144 60H154.273l.117-.3 2.342-6.012L157 53zm-.685.494l-2.341 6.012h-9.29l2.342-6.012h9.29z" mask="url(#d)"/>
            <path fill="#000" d="M149.306 55H148l.694-2H150z" mask="url(#d)"/>
            <path fill="#000" d="M150.306 55H149l.694-2H151zM153.306 55H152l.694-2H154zM147.306 58H146l.694-2H148zM149.306 58H148l.694-2H150zM152.306 58H151l.694-2H153zM155.306 55H154l.694-2H156zM154.306 58H153l.694-2H155z" mask="url(#d)"/>
            <path fill="#D6D6D6" d="M165 53v-9.532c0-.257.225-.468.5-.468s.5.21.5.468V53h-1z" mask="url(#d)"/>
            <path fill="#595959" d="M165.885 44.819a.5.5 0 1 1-.77-.638.5.5 0 0 1 .77.638" mask="url(#d)"/>
            <path fill="#D6D6D6" d="M163.13 46.783c1.314-1.653 1.685-1.877 1.826-1.755.141.122 0 .543-1.315 2.196 0 0-2.494 2.894-2.635 2.772-.14-.121 2.124-3.213 2.124-3.213" mask="url(#d)"/>
            <path fill="#8F8F8F" d="M161.006 50c-.142-.122 2.148-3.216 2.148-3.216 1.328-1.654 1.703-1.878 1.846-1.756L161.006 50z" mask="url(#d)"/>
            <path fill="#D6D6D6" d="M167.332 44.726c-1.995-.28-2.36-.454-2.33-.6.03-.147.444-.212 2.44.068 0 0 3.588.626 3.558.773-.03.147-3.668-.241-3.668-.241" mask="url(#d)"/>
            <path fill="#8F8F8F" d="M171 44.962c-.03.168-3.668-.275-3.668-.275-1.995-.32-2.36-.52-2.33-.687l5.998.962zM163.887 41.73c.632 1.993.879 2.328 1.03 2.262.151-.065.15-.508-.482-2.501 0 0-1.268-3.556-1.42-3.49-.151.066.872 3.728.872 3.728" mask="url(#d)"/>
            <path fill="#D6D6D6" d="M163.016 38c-.158.066.909 3.729.909 3.729.66 1.994.917 2.33 1.075 2.263L163.016 38z" mask="url(#d)"/>
            <path fill="#FFF" d="M165.885 44.819a.5.5 0 1 1-.77-.638.5.5 0 0 1 .77.638M148 104h21V89h-21z" mask="url(#d)"/>
            <path fill="#000" d="M148 104h1V89h-1zM169 104h1V89h-1z" mask="url(#d)"/>
            <path fill="#FFD200" d="M159 81.946V81h-4v4h4v-.946h-3.054v-2.108z" mask="url(#d)"/>
            <path fill="#FFD200" d="M160.054 83H157v.946h3.054v2.108H157V87h4v-4z" mask="url(#d)"/>
            <path fill="#FFF6B6" d="M94 57h5V47h-5z" mask="url(#d)"/>
            <path fill="#FFB400" d="M98.848 49h-4.697c-.083 0-.151-.225-.151-.5s.068-.5.151-.5h4.697c.084 0 .152.225.152.5s-.068.5-.152.5" mask="url(#d)"/>
            <path fill="#FFF6B6" d="M136 57h5V47h-5z" mask="url(#d)"/>
            <path fill="#FFB400" d="M140.848 49h-4.697c-.083 0-.151-.225-.151-.5s.068-.5.151-.5h4.697c.084 0 .152.225.152.5s-.068.5-.152.5" mask="url(#d)"/>
            <path fill="#D6D6D6" d="M94 105h49V64H94z" mask="url(#d)"/>
            <path fill="#4BB4E6" d="M99 91h8v-2h-8z" mask="url(#d)"/>
            <path fill="#FFF" d="M99 92h7v-2h-7z" mask="url(#d)"/>
            <path fill="#595959" d="M142.516 57.5l-4.93-6.5H99.414l-4.93 6.5L93 64h51z" mask="url(#d)"/>
            <path fill="#000" d="M142 56l-4.927-7H98.927L94 56z" mask="url(#d)"/>
            <path fill="#FF7900" d="M125 104h-13V87.894l5.99-3.75a.93.93 0 0 1 .99-.002l6.02 3.752V104z" mask="url(#d)"/>
            <path fill="#B5E8F7" d="M113 105h10V90h-10z" mask="url(#d)"/>
            <path fill="#8F8F8F" d="M112 87l5.99-3.853a.91.91 0 0 1 .99-.001L125 87h-13zM94 104h17v-4H94zM126 104h17v-4h-17z" mask="url(#d)"/>
            <path fill="#595959" d="M94 100h17v-1H94zM126 100h17v-1h-17z" mask="url(#d)"/>
            <path fill="#000" d="M111 89h14v-1h-14z" mask="url(#d)"/>
            <path fill="#FFF" d="M112 104h14v-1h-14z" mask="url(#d)"/>
            <path fill="#8F8F8F" d="M94 65h49v-1H94z" mask="url(#d)"/>
            <path fill="#000" d="M129 98h7V88h-7z" mask="url(#d)"/>
            <path fill="#FFF" d="M130 97h6v-8h-6z" mask="url(#d)"/>
            <path fill="#B5E8F7" d="M130 93h2v-4h-2zM133 93h2v-4h-2z" mask="url(#d)"/>
            <path fill="#B5E8F7" d="M130 96h2v-4h-2zM133 96h2v-4h-2z" mask="url(#d)"/>
            <path fill="#595959" d="M129 97h8v-1h-8z" mask="url(#d)"/>
            <path fill="#D6D6D6" d="M119 85a1 1 0 1 1-2 0 1 1 0 0 1 2 0" mask="url(#d)"/>
            <path fill="#8F8F8F" d="M119 85a1 1 0 1 1-2 0 1 1 0 0 1 2 0" mask="url(#d)"/>
            <path fill="#D6D6D6" d="M119 85a1 1 0 1 1-2 0 1 1 0 0 1 2 0" mask="url(#d)"/>
            <path fill="#595959" d="M118.544 85.658a.22.22 0 0 0 .073-.012.154.154 0 0 0 .062-.042.213.213 0 0 0 .043-.08.44.44 0 0 0 .016-.129c0-.103-.018-.176-.052-.22a.167.167 0 0 0-.137-.066h-.286v.55h.28zm-.015-.848a.142.142 0 0 0 .115-.056c.03-.038.045-.098.045-.183a.368.368 0 0 0-.015-.114.178.178 0 0 0-.04-.07.134.134 0 0 0-.058-.035.231.231 0 0 0-.068-.01h-.245v.468h.266zm.033-.81c.057 0 .109.008.155.025a.29.29 0 0 1 .12.083c.034.038.06.09.079.153a.857.857 0 0 1 .027.235.673.673 0 0 1-.04.252.401.401 0 0 1-.122.165.337.337 0 0 1 .165.186.85.85 0 0 1 .054.321.87.87 0 0 1-.035.262.518.518 0 0 1-.095.18.38.38 0 0 1-.291.138H118v-2h.562z" mask="url(#d)"/>
            <path fill="#8F8F8F" d="M104 63h7V53h-7z" mask="url(#d)"/>
            <path fill="#FFF" d="M105 62h6v-8h-6z" mask="url(#d)"/>
            <path fill="#D6D6D6" d="M104 53l3.5-2 3.5 2z" mask="url(#d)"/>
            <path fill="#595959" d="M104 53h7v-1h-7z" mask="url(#d)"/>
            <path fill="#B5E8F7" d="M105 57h2v-4h-2zM107 57h2v-4h-2zM105 61h2v-4h-2zM107 61h2v-4h-2z" mask="url(#d)"/>
            <path fill="#8F8F8F" d="M126 63h7V53h-7z" mask="url(#d)"/>
            <path fill="#FFF" d="M127 62h6v-8h-6z" mask="url(#d)"/>
            <path fill="#D6D6D6" d="M126 53l3.5-2 3.5 2z" mask="url(#d)"/>
            <path fill="#595959" d="M126 53h7v-1h-7z" mask="url(#d)"/>
            <path fill="#B5E8F7" d="M127 57h2v-4h-2zM130 57h2v-4h-2zM127 61h2v-4h-2zM130 61h2v-4h-2z" mask="url(#d)"/>
            <path fill="#000" d="M101 78h7V68h-7z" mask="url(#d)"/>
            <path fill="#FFF" d="M101 77h6v-8h-6z" mask="url(#d)"/>
            <path fill="#B5E8F7" d="M102 74h2v-4h-2zM104 74h2v-4h-2z" mask="url(#d)"/>
            <path fill="#B5E8F7" d="M102 76h2v-4h-2zM104 76h2v-4h-2z" mask="url(#d)"/>
            <path fill="#FF7900" d="M108 78h3V68h-3z" mask="url(#d)"/>
            <path fill="#D6D6D6" d="M108 69.069h2v-.138h-2z" mask="url(#d)"/>
            <path fill="#D6D6D6" d="M108 69.069h2v-.138h-2zM108 70.069h2v-.138h-2z" mask="url(#d)"/>
            <path fill="#D6D6D6" d="M108 70.069h2v-.138h-2z" mask="url(#d)"/>
            <path fill="#D6D6D6" d="M108 70.069h2v-.138h-2z" mask="url(#d)"/>
            <path fill="#D6D6D6" d="M108 70.069h2v-.138h-2zM108 71.069h2v-.138h-2z" mask="url(#d)"/>
            <path fill="#D6D6D6" d="M108 71.069h2v-.138h-2z" mask="url(#d)"/>
            <path fill="#D6D6D6" d="M108 71.069h2v-.138h-2zM108 72.069h2v-.138h-2z" mask="url(#d)"/>
            <path fill="#D6D6D6" d="M108 72.069h2v-.138h-2z" mask="url(#d)"/>
            <path fill="#D6D6D6" d="M108 72.069h2v-.138h-2z" mask="url(#d)"/>
            <path fill="#D6D6D6" d="M108 72.069h2v-.138h-2zM108 73.069h2v-.138h-2z" mask="url(#d)"/>
            <path fill="#D6D6D6" d="M108 73.069h2v-.138h-2z" mask="url(#d)"/>
            <path fill="#D6D6D6" d="M108 73.069h2v-.138h-2z" mask="url(#d)"/>
            <path fill="#D6D6D6" d="M108 73.069h2v-.138h-2z" mask="url(#d)"/>
            <path fill="#D6D6D6" d="M108 73.069h2v-.138h-2zM108 74.069h2v-.138h-2z" mask="url(#d)"/>
            <path fill="#D6D6D6" d="M108 74.069h2v-.138h-2z" mask="url(#d)"/>
            <path fill="#D6D6D6" d="M108 74.069h2v-.138h-2zM108 75.069h2v-.138h-2z" mask="url(#d)"/>
            <path fill="#D6D6D6" d="M108 75.069h2v-.138h-2z" mask="url(#d)"/>
            <path fill="#D6D6D6" d="M108 75.069h2v-.138h-2z" mask="url(#d)"/>
            <path fill="#D6D6D6" d="M108 75.069h2v-.138h-2zM108 76.069h2v-.138h-2z" mask="url(#d)"/>
            <path fill="#D6D6D6" d="M108 76.069h2v-.138h-2z" mask="url(#d)"/>
            <path fill="#D6D6D6" d="M108 76.069h2v-.138h-2z" mask="url(#d)"/>
            <path fill="#D6D6D6" d="M108 76.069h2v-.138h-2z" mask="url(#d)"/>
            <path fill="#FF7900" d="M97 78h3V68h-3z" mask="url(#d)"/>
            <path fill="#D6D6D6" d="M98 69.069h2v-.138h-2z" mask="url(#d)"/>
            <path fill="#D6D6D6" d="M98 69.069h2v-.138h-2zM98 70.069h2v-.138h-2z" mask="url(#d)"/>
            <path fill="#D6D6D6" d="M98 70.069h2v-.138h-2z" mask="url(#d)"/>
            <path fill="#D6D6D6" d="M98 70.069h2v-.138h-2z" mask="url(#d)"/>
            <path fill="#D6D6D6" d="M98 70.069h2v-.138h-2zM98 71.069h2v-.138h-2z" mask="url(#d)"/>
            <path fill="#D6D6D6" d="M98 71.069h2v-.138h-2z" mask="url(#d)"/>
            <path fill="#D6D6D6" d="M98 71.069h2v-.138h-2zM98 72.069h2v-.138h-2z" mask="url(#d)"/>
            <path fill="#D6D6D6" d="M98 72.069h2v-.138h-2z" mask="url(#d)"/>
            <path fill="#D6D6D6" d="M98 72.069h2v-.138h-2z" mask="url(#d)"/>
            <path fill="#D6D6D6" d="M98 72.069h2v-.138h-2zM98 73.069h2v-.138h-2z" mask="url(#d)"/>
            <path fill="#D6D6D6" d="M98 73.069h2v-.138h-2z" mask="url(#d)"/>
            <path fill="#D6D6D6" d="M98 73.069h2v-.138h-2z" mask="url(#d)"/>
            <path fill="#D6D6D6" d="M98 73.069h2v-.138h-2z" mask="url(#d)"/>
            <path fill="#D6D6D6" d="M98 73.069h2v-.138h-2zM98 74.069h2v-.138h-2z" mask="url(#d)"/>
            <path fill="#D6D6D6" d="M98 74.069h2v-.138h-2z" mask="url(#d)"/>
            <path fill="#D6D6D6" d="M98 74.069h2v-.138h-2zM98 75.069h2v-.138h-2z" mask="url(#d)"/>
            <path fill="#D6D6D6" d="M98 75.069h2v-.138h-2z" mask="url(#d)"/>
            <path fill="#D6D6D6" d="M98 75.069h2v-.138h-2z" mask="url(#d)"/>
            <path fill="#D6D6D6" d="M98 75.069h2v-.138h-2zM98 76.069h2v-.138h-2z" mask="url(#d)"/>
            <path fill="#D6D6D6" d="M98 76.069h2v-.138h-2z" mask="url(#d)"/>
            <path fill="#D6D6D6" d="M98 76.069h2v-.138h-2z" mask="url(#d)"/>
            <path fill="#D6D6D6" d="M98 76.069h2v-.138h-2z" mask="url(#d)"/>
            <path fill="#000" d="M115 78h7V68h-7z" mask="url(#d)"/>
            <path fill="#FFF" d="M115 77h6v-8h-6z" mask="url(#d)"/>
            <path fill="#B5E8F7" d="M116 74h2v-4h-2zM118 74h2v-4h-2z" mask="url(#d)"/>
            <path fill="#B5E8F7" d="M116 76h2v-4h-2zM118 76h2v-4h-2z" mask="url(#d)"/>
            <path fill="#FF7900" d="M121 78h3V68h-3z" mask="url(#d)"/>
            <path fill="#D6D6D6" d="M122 69.069h2v-.138h-2z" mask="url(#d)"/>
            <path fill="#D6D6D6" d="M122 69.069h2v-.138h-2zM122 70.069h2v-.138h-2z" mask="url(#d)"/>
            <path fill="#D6D6D6" d="M122 70.069h2v-.138h-2z" mask="url(#d)"/>
            <path fill="#D6D6D6" d="M122 70.069h2v-.138h-2z" mask="url(#d)"/>
            <path fill="#D6D6D6" d="M122 70.069h2v-.138h-2zM122 71.069h2v-.138h-2z" mask="url(#d)"/>
            <path fill="#D6D6D6" d="M122 71.069h2v-.138h-2z" mask="url(#d)"/>
            <path fill="#D6D6D6" d="M122 71.069h2v-.138h-2zM122 72.069h2v-.138h-2z" mask="url(#d)"/>
            <path fill="#D6D6D6" d="M122 72.069h2v-.138h-2z" mask="url(#d)"/>
            <path fill="#D6D6D6" d="M122 72.069h2v-.138h-2z" mask="url(#d)"/>
            <path fill="#D6D6D6" d="M122 72.069h2v-.138h-2zM122 73.069h2v-.138h-2z" mask="url(#d)"/>
            <path fill="#D6D6D6" d="M122 73.069h2v-.138h-2z" mask="url(#d)"/>
            <path fill="#D6D6D6" d="M122 73.069h2v-.138h-2z" mask="url(#d)"/>
            <path fill="#D6D6D6" d="M122 73.069h2v-.138h-2z" mask="url(#d)"/>
            <path fill="#D6D6D6" d="M122 73.069h2v-.138h-2zM122 74.069h2v-.138h-2z" mask="url(#d)"/>
            <path fill="#D6D6D6" d="M122 74.069h2v-.138h-2z" mask="url(#d)"/>
            <path fill="#D6D6D6" d="M122 74.069h2v-.138h-2zM122 75.069h2v-.138h-2z" mask="url(#d)"/>
            <path fill="#D6D6D6" d="M122 75.069h2v-.138h-2z" mask="url(#d)"/>
            <path fill="#D6D6D6" d="M122 75.069h2v-.138h-2z" mask="url(#d)"/>
            <path fill="#D6D6D6" d="M122 75.069h2v-.138h-2zM122 76.069h2v-.138h-2z" mask="url(#d)"/>
            <path fill="#D6D6D6" d="M122 76.069h2v-.138h-2z" mask="url(#d)"/>
            <path fill="#D6D6D6" d="M122 76.069h2v-.138h-2z" mask="url(#d)"/>
            <path fill="#D6D6D6" d="M122 76.069h2v-.138h-2z" mask="url(#d)"/>
            <path fill="#FF7900" d="M112 78h3V68h-3z" mask="url(#d)"/>
            <path fill="#D6D6D6" d="M112 69.069h2v-.138h-2z" mask="url(#d)"/>
            <path fill="#D6D6D6" d="M112 69.069h2v-.138h-2zM112 70.069h2v-.138h-2z" mask="url(#d)"/>
            <path fill="#D6D6D6" d="M112 70.069h2v-.138h-2z" mask="url(#d)"/>
            <path fill="#D6D6D6" d="M112 70.069h2v-.138h-2z" mask="url(#d)"/>
            <path fill="#D6D6D6" d="M112 70.069h2v-.138h-2zM112 71.069h2v-.138h-2z" mask="url(#d)"/>
            <path fill="#D6D6D6" d="M112 71.069h2v-.138h-2z" mask="url(#d)"/>
            <path fill="#D6D6D6" d="M112 71.069h2v-.138h-2zM112 72.069h2v-.138h-2z" mask="url(#d)"/>
            <path fill="#D6D6D6" d="M112 72.069h2v-.138h-2z" mask="url(#d)"/>
            <path fill="#D6D6D6" d="M112 72.069h2v-.138h-2z" mask="url(#d)"/>
            <path fill="#D6D6D6" d="M112 72.069h2v-.138h-2zM112 73.069h2v-.138h-2z" mask="url(#d)"/>
            <path fill="#D6D6D6" d="M112 73.069h2v-.138h-2z" mask="url(#d)"/>
            <path fill="#D6D6D6" d="M112 73.069h2v-.138h-2z" mask="url(#d)"/>
            <path fill="#D6D6D6" d="M112 73.069h2v-.138h-2z" mask="url(#d)"/>
            <path fill="#D6D6D6" d="M112 73.069h2v-.138h-2zM112 74.069h2v-.138h-2z" mask="url(#d)"/>
            <path fill="#D6D6D6" d="M112 74.069h2v-.138h-2z" mask="url(#d)"/>
            <path fill="#D6D6D6" d="M112 74.069h2v-.138h-2zM112 75.069h2v-.138h-2z" mask="url(#d)"/>
            <path fill="#D6D6D6" d="M112 75.069h2v-.138h-2z" mask="url(#d)"/>
            <path fill="#D6D6D6" d="M112 75.069h2v-.138h-2z" mask="url(#d)"/>
            <path fill="#D6D6D6" d="M112 75.069h2v-.138h-2zM112 76.069h2v-.138h-2z" mask="url(#d)"/>
            <path fill="#D6D6D6" d="M112 76.069h2v-.138h-2z" mask="url(#d)"/>
            <path fill="#D6D6D6" d="M112 76.069h2v-.138h-2z" mask="url(#d)"/>
            <path fill="#D6D6D6" d="M112 76.069h2v-.138h-2z" mask="url(#d)"/>
            <path fill="#8F8F8F" d="M99 99h8v-9h-8z" mask="url(#d)"/>
            <path fill="#595959" d="M101 98h6v-7h-6z" mask="url(#d)"/>
            <path fill="#D6D6D6" d="M107 99h-6l.31-2h5.38zM101 92h6l-.31 2h-5.38z" mask="url(#d)"/>
            <path fill="#8F8F8F" d="M101 97h6v-5h-6z" mask="url(#d)"/>
            <path fill="#000" d="M101 96h3v-2h-3z" mask="url(#d)"/>
            <path fill="#595959" d="M101 97h2v-1h-2z" mask="url(#d)"/>
            <path fill="#D6D6D6" d="M105 95h1v-1h-1z" mask="url(#d)"/>
            <path fill="#595959" d="M105 95.033h1v-.066h-1z" mask="url(#d)"/>
            <path fill="#0A6E31" d="M102 91h2v-1h-2z" mask="url(#d)"/>
            <path fill="#50BE87" d="M102 91h2v-1h-2z" mask="url(#d)"/>
            <path fill="#0A6E31" d="M103 90a1 1 0 0 1-1 1v-1h1z" mask="url(#d)"/>
            <path fill="#0A6E31" d="M102 90a1 1 0 0 1 1 1h-1v-1zM103 91a1 1 0 0 1 1-1v1h-1z" mask="url(#d)"/>
            <path fill="#0A6E31" d="M104 91a1 1 0 0 1-1-1h1v1zM103 90.5a.5.5 0 1 1-1 0 .5.5 0 0 1 1 0" mask="url(#d)"/>
            <path fill="#0A6E31" d="M103.903 90H102v.078h1.903V91H104v-1z" mask="url(#d)"/>
            <path fill="#0A6E31" d="M104.903 90H103v.078h1.903V91H105v-1z" mask="url(#d)"/>
            <path fill="#595959" d="M100 78h8v-1h-8zM114 78h8v-1h-8z" mask="url(#d)"/>
            <path fill="#000" d="M129 78h7V68h-7z" mask="url(#d)"/>
            <path fill="#FFF" d="M130 77h6v-8h-6z" mask="url(#d)"/>
            <path fill="#B5E8F7" d="M130 74h2v-4h-2zM133 74h2v-4h-2z" mask="url(#d)"/>
            <path fill="#B5E8F7" d="M130 76h2v-4h-2zM133 76h2v-4h-2z" mask="url(#d)"/>
            <path fill="#FF7900" d="M136 78h3V68h-3z" mask="url(#d)"/>
            <path fill="#D6D6D6" d="M136 69.069h2v-.138h-2z" mask="url(#d)"/>
            <path fill="#D6D6D6" d="M136 69.069h2v-.138h-2zM136 70.069h2v-.138h-2z" mask="url(#d)"/>
            <path fill="#D6D6D6" d="M136 70.069h2v-.138h-2z" mask="url(#d)"/>
            <path fill="#D6D6D6" d="M136 70.069h2v-.138h-2z" mask="url(#d)"/>
            <path fill="#D6D6D6" d="M136 70.069h2v-.138h-2zM136 71.069h2v-.138h-2z" mask="url(#d)"/>
            <path fill="#D6D6D6" d="M136 71.069h2v-.138h-2z" mask="url(#d)"/>
            <path fill="#D6D6D6" d="M136 71.069h2v-.138h-2zM136 72.069h2v-.138h-2z" mask="url(#d)"/>
            <path fill="#D6D6D6" d="M136 72.069h2v-.138h-2z" mask="url(#d)"/>
            <path fill="#D6D6D6" d="M136 72.069h2v-.138h-2z" mask="url(#d)"/>
            <path fill="#D6D6D6" d="M136 72.069h2v-.138h-2zM136 73.069h2v-.138h-2z" mask="url(#d)"/>
            <path fill="#D6D6D6" d="M136 73.069h2v-.138h-2z" mask="url(#d)"/>
            <path fill="#D6D6D6" d="M136 73.069h2v-.138h-2z" mask="url(#d)"/>
            <path fill="#D6D6D6" d="M136 73.069h2v-.138h-2z" mask="url(#d)"/>
            <path fill="#D6D6D6" d="M136 73.069h2v-.138h-2zM136 74.069h2v-.138h-2z" mask="url(#d)"/>
            <path fill="#D6D6D6" d="M136 74.069h2v-.138h-2z" mask="url(#d)"/>
            <path fill="#D6D6D6" d="M136 74.069h2v-.138h-2zM136 75.069h2v-.138h-2z" mask="url(#d)"/>
            <path fill="#D6D6D6" d="M136 75.069h2v-.138h-2z" mask="url(#d)"/>
            <path fill="#D6D6D6" d="M136 75.069h2v-.138h-2z" mask="url(#d)"/>
            <path fill="#D6D6D6" d="M136 75.069h2v-.138h-2zM136 76.069h2v-.138h-2z" mask="url(#d)"/>
            <path fill="#D6D6D6" d="M136 76.069h2v-.138h-2z" mask="url(#d)"/>
            <path fill="#D6D6D6" d="M136 76.069h2v-.138h-2z" mask="url(#d)"/>
            <path fill="#D6D6D6" d="M136 76.069h2v-.138h-2z" mask="url(#d)"/>
            <path fill="#FF7900" d="M126 78h3V68h-3z" mask="url(#d)"/>
            <path fill="#D6D6D6" d="M127 69.069h2v-.138h-2z" mask="url(#d)"/>
            <path fill="#D6D6D6" d="M127 69.069h2v-.138h-2zM127 70.069h2v-.138h-2z" mask="url(#d)"/>
            <path fill="#D6D6D6" d="M127 70.069h2v-.138h-2z" mask="url(#d)"/>
            <path fill="#D6D6D6" d="M127 70.069h2v-.138h-2z" mask="url(#d)"/>
            <path fill="#D6D6D6" d="M127 70.069h2v-.138h-2zM127 71.069h2v-.138h-2z" mask="url(#d)"/>
            <path fill="#D6D6D6" d="M127 71.069h2v-.138h-2z" mask="url(#d)"/>
            <path fill="#D6D6D6" d="M127 71.069h2v-.138h-2zM127 72.069h2v-.138h-2z" mask="url(#d)"/>
            <path fill="#D6D6D6" d="M127 72.069h2v-.138h-2z" mask="url(#d)"/>
            <path fill="#D6D6D6" d="M127 72.069h2v-.138h-2z" mask="url(#d)"/>
            <path fill="#D6D6D6" d="M127 72.069h2v-.138h-2zM127 73.069h2v-.138h-2z" mask="url(#d)"/>
            <path fill="#D6D6D6" d="M127 73.069h2v-.138h-2z" mask="url(#d)"/>
            <path fill="#D6D6D6" d="M127 73.069h2v-.138h-2z" mask="url(#d)"/>
            <path fill="#D6D6D6" d="M127 73.069h2v-.138h-2z" mask="url(#d)"/>
            <path fill="#D6D6D6" d="M127 73.069h2v-.138h-2zM127 74.069h2v-.138h-2z" mask="url(#d)"/>
            <path fill="#D6D6D6" d="M127 74.069h2v-.138h-2z" mask="url(#d)"/>
            <path fill="#D6D6D6" d="M127 74.069h2v-.138h-2zM127 75.069h2v-.138h-2z" mask="url(#d)"/>
            <path fill="#D6D6D6" d="M127 75.069h2v-.138h-2z" mask="url(#d)"/>
            <path fill="#D6D6D6" d="M127 75.069h2v-.138h-2z" mask="url(#d)"/>
            <path fill="#D6D6D6" d="M127 75.069h2v-.138h-2zM127 76.069h2v-.138h-2z" mask="url(#d)"/>
            <path fill="#D6D6D6" d="M127 76.069h2v-.138h-2z" mask="url(#d)"/>
            <path fill="#D6D6D6" d="M127 76.069h2v-.138h-2z" mask="url(#d)"/>
            <path fill="#D6D6D6" d="M127 76.069h2v-.138h-2z" mask="url(#d)"/>
            <path fill="#595959" d="M129 78h8v-1h-8z" mask="url(#d)"/>
            <path fill="#8F8F8F" d="M94 68h49v-1H94zM94 80h49v-1H94z" mask="url(#d)"/>
            <path fill="#595959" d="M93 68h2v-1h-2zM93 69h1v-1h-1zM93 70h2v-1h-2zM93 72h1v-1h-1z" mask="url(#d)"/>
            <path fill="#595959" d="M93 72h2v-1h-2zM93 74h1v-1h-1zM93 75h2v-1h-2z" mask="url(#d)"/>
            <path fill="#595959" d="M93 75h1v-1h-1zM93 76h2v-1h-2zM93 78h1v-1h-1z" mask="url(#d)"/>
            <path fill="#595959" d="M93 78h2v-1h-2zM93 79h1v-1h-1zM93 82h2v-1h-2z" mask="url(#d)"/>
            <path fill="#595959" d="M93 82h1v-1h-1zM93 84h2v-1h-2zM93 85h1v-1h-1z" mask="url(#d)"/>
            <path fill="#595959" d="M93 85h2v-1h-2zM93 87h1v-1h-1zM93 89h2v-1h-2zM93 90h1v-1h-1zM93 91h2v-1h-2zM93 92h1v-1h-1zM93 93h2v-1h-2zM93 94h1v-1h-1zM93 95h2v-1h-2zM93 96h1v-1h-1zM93 97h2v-1h-2zM93 98h1v-1h-1zM93 99h2v-1h-2zM93 100h1v-1h-1zM141 68h2v-1h-2zM142 69h1v-1h-1zM141 70h2v-1h-2zM142 72h1v-1h-1z" mask="url(#d)"/>
            <path fill="#595959" d="M141 72h2v-1h-2zM142 74h1v-1h-1zM141 75h2v-1h-2z" mask="url(#d)"/>
            <path fill="#595959" d="M142 75h1v-1h-1zM141 76h2v-1h-2zM142 78h1v-1h-1z" mask="url(#d)"/>
            <path fill="#595959" d="M141 78h2v-1h-2zM142 79h1v-1h-1zM141 82h2v-1h-2z" mask="url(#d)"/>
            <path fill="#595959" d="M142 82h1v-1h-1zM141 84h2v-1h-2zM142 85h1v-1h-1z" mask="url(#d)"/>
            <path fill="#595959" d="M141 85h2v-1h-2zM142 87h1v-1h-1zM141 89h2v-1h-2zM142 90h1v-1h-1zM141 91h2v-1h-2zM142 92h1v-1h-1zM141 93h2v-1h-2zM142 94h1v-1h-1zM141 95h2v-1h-2zM142 96h1v-1h-1zM141 97h2v-1h-2zM142 98h1v-1h-1zM141 99h2v-1h-2zM142 100h1v-1h-1z" mask="url(#d)"/>
            <path fill="#0A6E31" d="M148.981 90.42c-.128-1.2-.902-2.161-1.922-2.558 0-.01 0-.02-.002-.031-.071-.665-.598-1.16-1.222-1.194-.571-1.695-2.212-2.82-4.007-2.613-1.457.168-2.63 1.17-3.125 2.495-.708.087-1.217.75-1.138 1.485-1.033.553-1.683 1.724-1.547 2.992.127 1.187.907 2.135 1.928 2.501.311.995 1.263 1.661 2.306 1.541.075-.009.149-.021.221-.037a2.718 2.718 0 0 0 2.406.981 2.744 2.744 0 0 0 1.927-1.155c.176.063.367.088.563.065a1.319 1.319 0 0 0 1.131-1.077c1.557-.265 2.658-1.751 2.481-3.395" mask="url(#d)"/>
            <path fill="#714E46" d="M140.362 105l.006-9.058-1.99-2.775L136 91.558l.28-.136 2.046 1.151-.417-1.45h.337l.618 1.756 1.658 2.258-.046-2.801-.862-3.336h.288l.816 2.623.64-1.325.257.183-.678 1.785.254 2.754 1.518-2.736.437-2.297.345.168-.349 2.055 1.763-.169.095.278-1.976.39-1.702 3.18.42 9.111z" mask="url(#d)"/>
            <path fill="#085EBD" d="M107 89l-1 .168v1.664l1 .168zM99 91l1-.168v-1.664L99 89z" mask="url(#d)"/>
        </g>
        <path fill="#000" d="M332.53 227.683c-.19-4.835 0-11.9.253-15.845.254-3.946 1.206-2.483 1.335-6.108.068-1.978-1.014-25.92-1.014-25.92s4.122-.76 9.172-1.108c5.046-.351 6.887-.814 6.887-.814s.349.192 1.841-2.767c1.491-2.96 2.263-5.196 2.263-5.196s2.491.28 6.144.019c3.654-.263 5.823-1.448 5.703-2.698-.121-1.246-3.175-.886-3.175-.886s.258-.385-.035-.447c-.49-.1-1.29-.008-3.227.07-1.94.078-4.163.917-4.163.917s-8.07.336-11.485.412c-3.411.078-5.405.619-9.521-1.17-4.108-1.788-8.868-2.286-8.868-2.286s.081-2.333.314-5.289c.232-2.954.367-8.044-3.876-7.543-2.888.341-3.403.805-4.674 4.497-1.27 3.69-.763 8.143-.763 8.143s-2.031.065-8.316.381c-6.284.32-8.468 1.948-11.135 1.948-2.668 0-11.303-.253-11.303-.253-1.316-.138-4.093-1.005-5.683-1.005-1.584 0-.968.809-.968.809s-3.592-.138-3.81.62c-.67 2.4 4.33 2.592 6.616 2.592h5.268c.7 3.691 4.57 7.891 5.653 8.272 1.08.383 8.95-.128 8.95-.128 2.602 2.037 6.412 2.737 6.412 2.737s-.064 6.175-.064 9.8c0 3.628-.125 4.773.889 5.73 1.018.95 1.209 2.163 1.209 6.679 0 4.518.76 3.816.76 11.646 0 5.015-.182 13.45-.314 19.1-27.117 9.538-43.202 42.341-48.254 98.408h102.906c-.787-51.18-11.449-82.968-31.984-95.367-.036-2.301.16-5.313.057-7.95z"/>
        <path fill="#FF7900" d="M265.783 233.384h9.538c1.289 8.093 3.4 14.534 4.86 22.73a136.265 136.265 0 0 0-9.572-.337c-3.226 0-6.364.102-9.417.293 1.234-5.08 3.34-14.545 4.591-22.686m39.662 27.181c-1.469-.435-2.96-.843-4.485-1.222l-.566-.024c-.353-.087-.702-.176-1.06-.26-.08-.098-.173-.183-.22-.317-19.135-48.615-21.648-113.969-24.244-179.234.79-3.964 3.544-5.018 3.033-9.151-.492-3.973-3.909-4.189-5.304-7.627-1.31-2.242.065-7.19-3.033-7.63-.213 3.093-1.297 5.303-1.514 8.39-2.757 2.897-4.938 3.255-5.307 7.63-.312 3.733 2.496 5.954 3.033 9.15.901 5.368-.515 11.263-.754 16.782-2.359 53.968-5.984 121.786-23.216 161.795a114.935 114.935 0 0 0-6.33 1.507c1.054 12.515-2.035 18.417-6.064 25.844C222.162 299.554 208.95 319.018 202 331c2.493-.002 19.878 0 29.725 0 1.194-6.374 5.96-16.964 7.897-20.496 7.624-13.883 20.024-25.257 38.281-20.87l.082-.017c10.324 2.837 17.976 11.333 23.31 21.045 1.959 3.571 6.494 13.895 7.705 20.338h31.022c-7.02-12.106-21.085-31.397-28.413-44.896-4.005-7.391-7.084-13.294-6.164-25.539z"/>
    </g>
</svg>
