<svg xmlns="http://www.w3.org/2000/svg" width="55" height="49" viewBox="0 0 55 49">
    <g fill="none" fill-rule="evenodd">
        <path fill="#FB7900" d="M0 44h55v5H0z"/>
        <path fill="#000" d="M38.117 9.188H19.133a1.055 1.055 0 0 1 0-2.11h18.984a1.055 1.055 0 0 1 0 2.11m0 5.273H19.133a1.055 1.055 0 0 1 0-2.11h18.984a1.055 1.055 0 0 1 0 2.11m-9.492 5.273h-9.492a1.055 1.055 0 0 1 0-2.109h9.492a1.055 1.055 0 0 1 0 2.11M42.335.75H11.75v22.148a3.164 3.164 0 0 0 3.164 3.165h4.219v6.328l6.328-6.328H45.5V3.913A3.164 3.164 0 0 0 42.336.75"/>
    </g>
</svg>
