<svg xmlns="http://www.w3.org/2000/svg" xmlns:xlink="http://www.w3.org/1999/xlink" width="299" height="275" viewBox="0 0 299 275">
    <defs>
        <path id="a" d="M0 .146h202.424v32.062H0z"/>
        <path id="c" d="M.03.045h28.775v8.967H.031z"/>
        <path id="e" d="M0 72.369h208.566V.113H0z"/>
        <path id="g" d="M.27.043h151.941v93.004H.271z"/>
    </defs>
    <g fill="none" fill-rule="evenodd">
        <g opacity=".5">
            <g transform="translate(.18 242.61)">
                <mask id="b" fill="#fff">
                    <use xlink:href="#a"/>
                </mask>
                <path fill="#50BE87" d="M182.834 4.593a4.816 4.816 0 0 0-2.082-.03L163.481 9.29a4.813 4.813 0 0 1-1.775.032l-14.59-2.457a4.814 4.814 0 0 0-1.562-.006l-19.878 3.181a4.822 4.822 0 0 1-1.86-.066l-18.441-4.309a4.865 4.865 0 0 0-.297-.06L90.93 3.219c-.89-.15-1.8-.049-2.644.296L76.338 8.392c-.564.23-2.864-1.728-3.465-1.717L64.457.729c-.839.014-13.647 8.216-14.4 7.808l-4.08-2.209a4.936 4.936 0 0 0-1.879-.578l-4.363-.419c-1.546-.149-2.957-1.037-3.865-2.433-.968-1.487-2.502-2.393-4.154-2.452L23.453.15c-1.346-.048-2.659.47-3.675 1.452L16.113 5.14C14.848 6.36 13.14 6.852 11.5 6.464L0 3.831v28.377h202.424l-19.59-27.615z" mask="url(#b)"/>
            </g>
            <g transform="translate(.18 202)">
                <path fill="#C19372" d="M101.124 33.29a.416.416 0 0 1-.628.358l-7.33-4.41a5.154 5.154 0 0 0-2.509-.722l-2.145-.052a.44.44 0 0 1-.332-.165l-3.616-4.544a.44.44 0 0 0-.343-.166h-4.325a.439.439 0 0 1-.33-.15l-1.179-1.423a.422.422 0 0 0-.345-.15c-.579.046-.749.625-.456.96l1.463 1.75a.44.44 0 0 0 .33.15h4.294a.44.44 0 0 1 .344.165l2.225 2.797a.44.44 0 0 1-.354.713l-3.367-.082a.427.427 0 0 1-.073-.007l-4.896-.944a.438.438 0 0 1-.203-.098l-1.678-1.438c-.337-.288-.914-.115-.956.463-.01.132.054.26.154.346l1.906 1.633c.1.085.22.143.349.168l3.375.651a.44.44 0 0 1 .193.773l-1.216.982a.427.427 0 0 0-.164.349c.021.398.3.61.585.61a.566.566 0 0 0 .356-.126l1.933-1.561a.92.92 0 0 0 .165.022l8.59.293a.44.44 0 0 1 .278.11l3.544 3.153a.44.44 0 0 1-.211.76l-4.516.845a.438.438 0 0 1-.24-.022l-5.61-2.168c-.412-.16-.898.196-.745.756a.422.422 0 0 0 .26.274l5.953 2.3a.57.57 0 0 0 .309.03l6.178-1.156a.758.758 0 0 1 .643.178l2.38 2.116c.16.144.253.35.253.566v3.85a.44.44 0 0 1-.67.373l-4.39-2.712a.438.438 0 0 0-.11-.05l-11.54-3.263a.439.439 0 0 1-.253-.19l-2.03-3.247a.439.439 0 0 0-.279-.197l-4.006-.87a.439.439 0 0 1-.233-.135l-2.043-2.265a.439.439 0 0 0-.319-.145l-4.694-.076a.439.439 0 0 1-.426-.369l-.41-2.513a.44.44 0 0 0-.261-.336c-.46-.192-.847.173-.783.568l.543 3.335a.44.44 0 0 0 .426.369l5.123.083a.44.44 0 0 1 .32.145l1.96 2.176a.439.439 0 0 0 .234.134l3.902.848a.44.44 0 0 1 .28.197l.652 1.044a.44.44 0 0 1-.492.655l-1.68-.474a3.024 3.024 0 0 0-.824-.115h-10.53a.439.439 0 0 1-.414-.293l-1.713-4.875a.44.44 0 0 0-.26-.266l-5.563-2.077a.44.44 0 0 1-.136-.082L56.3 25.2a.423.423 0 0 0-.362-.105c-.568.12-.661.717-.328 1.01l2.593 2.289c.04.035.086.063.137.082l5.26 1.964a.439.439 0 0 1 .26.266l.941 2.676a.44.44 0 0 1-.37.582l-3.929.405a.438.438 0 0 0-.271.132l-2.25 2.34a.44.44 0 0 1-.386.13l-3.525-.568a.4.4 0 1 0-.127.791l3.958.637a.405.405 0 0 0 .352-.118l2.352-2.444a.438.438 0 0 1 .271-.133l4.039-.416a.44.44 0 0 1 .459.292l.338.962c.01.034.02.067.035.098l.001.005c.003.008.01.014.012.023.014.027.028.056.045.081a.543.543 0 0 0 .075.098l.026.025c.02.018.038.039.06.054a.76.76 0 0 0 .422.168l7.326.55a.44.44 0 0 1 .325.692l-2.097 2.96a.44.44 0 0 1-.25.172l-6.922-.17a.568.568 0 1 0 .281 1.1l7.284.221a.44.44 0 0 0 .25-.171l2.507-3.633a.44.44 0 0 1 .675-.05l1.356 1.413c.245.255.531.465.848.62l6.63 3.263a.433.433 0 0 1 .09.06l8.21 6.99a.44.44 0 0 1 .154.335v10.554h19.048l-.53-14.643a.44.44 0 0 1 .352-.446l14.069-2.873c.225-.046.437-.142.619-.282l1.427-1.095a.439.439 0 0 1 .413-.066l5.937 2.089a.57.57 0 0 0 .432-.023l5.417-2.573a.422.422 0 0 0 .239-.293c.111-.569-.4-.889-.8-.698l-4.968 2.36a.439.439 0 0 1-.334.017l-4.307-1.515a.44.44 0 0 1-.121-.763l3.141-2.411a.441.441 0 0 1 .164-.079l3.795-.918a.44.44 0 0 1 .194-.003l3.693.857a.557.557 0 0 0 .236 0l4.073-.868c.434-.093.645-.658.211-1.042a.422.422 0 0 0-.367-.087l-3.945.841a.44.44 0 0 1-.183 0l-2.704-.648a.44.44 0 0 1-.337-.528l.6-2.626c.04-.17.175-.3.345-.333l2.16-.424a.422.422 0 0 0 .302-.222c.253-.521-.162-.964-.599-.878l-2.805.549a.439.439 0 0 0-.344.333l-.856 3.739a.44.44 0 0 1-.325.329l-3.565.862a.575.575 0 0 0-.257.072l-.005.003-.028.016-5.891 3.32a1.516 1.516 0 0 1-.528.18l-15.862 2.284a1.288 1.288 0 0 1-1.377-.79l-.605-3.538a.416.416 0 0 1 .185-.502l1.36-.879a.44.44 0 0 1 .385-.045l5.67 1.995a.568.568 0 0 0 .432-.023l5.417-2.573a.421.421 0 0 0 .24-.293c.11-.569-.401-.888-.801-.698l-4.968 2.36a.439.439 0 0 1-.334.018l-3.807-1.34a.44.44 0 0 1-.093-.783l4.396-2.84a.615.615 0 0 0 .113-.082.416.416 0 0 1 .202-.1l5.936-1.182a.439.439 0 0 1 .45.184l1.878 2.779a.439.439 0 0 0 .364.193h4.638a.422.422 0 0 0 .34-.161c.346-.466.021-.975-.423-.975h-3.952a.44.44 0 0 1-.364-.193l-1.511-2.236a.439.439 0 0 1 .014-.511l2.624-3.468a.422.422 0 0 0 .077-.369c-.163-.556-.764-.604-1.032-.25l-2.78 3.671a.439.439 0 0 1-.264.165l-6.776 1.35a.563.563 0 0 0-.192.077l-2.177.892a.44.44 0 0 1-.574-.57l.824-2.05a.44.44 0 0 1 .229-.237l3.956-1.758a.44.44 0 0 0 .26-.367l.297-3.741a.426.426 0 0 0-.149-.367c-.44-.353-.956-.074-.99.363l-.237 2.981a.44.44 0 0 1-.26.367l-3.76 1.671a.44.44 0 0 0-.228.238l-1.787 4.443-.006.02-3.253 1.333a.439.439 0 0 1-.606-.396l-.438-10.247.015-.123.79-2.935a.44.44 0 0 1 .576-.298l3.197 1.18a.57.57 0 0 0 .261.03l5.891-.677a.422.422 0 0 0 .32-.199c.29-.502-.09-.97-.531-.92l-5.572.64a.441.441 0 0 1-.202-.024l-1.962-.723a.44.44 0 0 1-.023-.815l3.39-1.478a.438.438 0 0 1 .2-.036l6.653.365a.55.55 0 0 0 .159-.013l4.018-.928a.423.423 0 0 0 .296-.234c.231-.532-.2-.953-.632-.854l-3.798.876a.442.442 0 0 1-.123.011l-6.749-.37a.554.554 0 0 0-.258.046l-3.605 1.571a.44.44 0 0 1-.6-.516l.317-2.1a.44.44 0 0 1 .266-.296l4.165-1.605a.438.438 0 0 1 .172-.03l2.388.078a.675.675 0 0 0 .442-.148l1.876-1.515a.44.44 0 0 1 .306-.097l4.394.31c.53.04.96-.557.553-1.14a.438.438 0 0 0-.328-.183l-4.959-.35a.661.661 0 0 0-.467.147l-1.895 1.53a.439.439 0 0 1-.29.098l-2.248-.073a.44.44 0 0 0-.172.029l-3.62 1.396a.44.44 0 0 1-.582-.292l-.655-2.346a.44.44 0 0 1 .01-.269l.864-2.362a.44.44 0 0 1 .205-.237l3.412-1.823a.44.44 0 0 1 .244-.05l3.736.315c.443.039.809-.444.503-.936a.422.422 0 0 0-.325-.19l-4.115-.347a.56.56 0 0 0-.316.065l-2.58 1.379a.44.44 0 0 1-.646-.384L109.13 2.1c-.005-.553-.7-.94-1.215-.408a.442.442 0 0 0-.122.31l.057 6.158a.438.438 0 0 1-.027.154l-1.035 2.835a.439.439 0 0 0-.011.269l.937 3.355a.44.44 0 0 1-.047.346l-2.46 3.495a.416.416 0 0 1-.647.154l-6.045-4.958a.44.44 0 0 1-.16-.34v-1.657c0-.06.012-.12.036-.176l2.662-6.077a.44.44 0 0 1 .402-.263h2.832a.422.422 0 0 0 .34-.161c.346-.466.021-.975-.423-.975h-3.492a.44.44 0 0 0-.402.263l-2.451 5.598a.44.44 0 0 1-.714.134l-3.304-3.313a.438.438 0 0 0-.306-.128l-4.59-.043h-.087a.422.422 0 0 0-.34.159c-.346.462-.027.972.416.977l4.125.038a.44.44 0 0 1 .307.13l3.724 3.733a.44.44 0 0 1 .128.31v.985a.44.44 0 0 1-.366.434l-4.65.78a.439.439 0 0 1-.464-.234l-1.46-2.868a1.514 1.514 0 0 0-1.202-.82l-4.609-.452a.441.441 0 0 1-.224-.088l-1.816-1.389c-.353-.268-.917-.063-.929.516a.421.421 0 0 0 .173.337l2.14 1.635c.065.05.142.08.224.088l4.724.463c.257.025.484.18.6.41l1.08 2.118a.44.44 0 0 1-.32.633l-3.038.51a.44.44 0 0 1-.26-.036l-3.943-1.865c-.009-.004-.017-.004-.026-.007a.398.398 0 0 0-.248-.027l-5.268 1.153c-.206.045-.369.232-.345.442a.4.4 0 0 0 .484.348l4.946-1.083a.439.439 0 0 1 .313.049l3.79 2.18a.44.44 0 0 0 .219.058h8.312c.42 0 .82.175 1.107.482l5.687 6.101a.416.416 0 0 1 .112.284l-.837 10.134z"/>
                <path fill="#0A6E31" d="M113.255 25.626l3.79-2.475c.28-.182.629-.22.94-.102l.724.275c.348.132.74.068 1.028-.167l.692-.564c.307-.25.728-.305 1.088-.142l2.742 1.239c.301.136.52.406.59.728.111.514.589.865 1.113.817l2.022-.184c.28-.025.559.064.773.247l.663.568c.188.162.429.251.678.251h3.718c.417 0 .793.249.958.632l.138.324a1.042 1.042 0 0 1-.764 1.435l-6.846 1.291a1.043 1.043 0 0 1-.457-.015l-5.612-1.47a1.042 1.042 0 0 0-.367-.028l-7.449.745a1.042 1.042 0 0 1-.649-.15l-1.592-.977c-.825-.508-.573-1.768.384-1.919l1.287-.202c.145-.023.284-.076.408-.157M106.355 5.27L100.2 1.96a.711.711 0 0 0-.767.06l-2.556 1.945a.712.712 0 0 1-.527.138l-4.367-.597a.712.712 0 0 0-.713.35l-.892 1.548a.712.712 0 0 1-.384.317l-2.996 1.035a.711.711 0 0 0 .267 1.383l8.19-.399a.71.71 0 0 1 .135.006l6.81.978a.71.71 0 0 0 .468-.095l3.519-2.122a.712.712 0 0 0-.03-1.237M63.03 28.985l4.5.667c.314.046.633-.04.88-.24l3.805-3.074c.276-.223.64-.304.983-.22l6.848 1.672c.173.043.354.044.527.003l9.38-2.189c1.099-.256 1.191-1.786.13-2.173l-9.261-3.38a1.135 1.135 0 0 0-.679-.031l-6.172 1.624c-.165.043-.337.05-.504.017l-4.465-.864a1.136 1.136 0 0 0-1.204.555l-2.412 4.257a1.136 1.136 0 0 1-.62.515l-1.937.663c-1.126.385-.976 2.024.201 2.198M132.444 34.029l3.744 1.611c.11.047.23.062.347.043l3.876-.64a.625.625 0 0 1 .366.051l3.85 1.809c.082.038.17.058.259.059l5.338-.178c.603.007.861-.762.378-1.121l-2.071-1.54a.622.622 0 0 0-.28-.117l-3.197-.552a.623.623 0 0 1-.371-.199l-2.568-2.853a.622.622 0 0 0-.505-.205l-6.928.479a.622.622 0 0 0-.41.194l-2.035 2.16a.622.622 0 0 0 .207.999M75.086 15.187l3.314.396c.246.03.49-.063.655-.248l1.406-1.577a.757.757 0 0 1 .618-.252l1.28.09a.757.757 0 0 0 .656-1.213l-.516-.678a.757.757 0 0 0-.659-.297l-4.351.325a.758.758 0 0 0-.424.17l-2.37 1.947a.757.757 0 0 0 .391 1.337M62.129 24.208l-3.237-.814a.757.757 0 0 0-.681.163l-1.595 1.386a.757.757 0 0 1-.645.17l-1.258-.251a.757.757 0 0 0-.805 1.12l.425.738c.128.223.36.365.616.379l4.357.23a.758.758 0 0 0 .443-.115l2.597-1.63a.757.757 0 0 0-.217-1.376M111.695 13.34l8.905.855a.768.768 0 0 0 .45-.095l4.08-2.29c.632-.354.47-1.305-.244-1.429l-5.363-.928a.77.77 0 0 0-.612.157l-2.534 2.027a.77.77 0 0 1-.48.169h-4.128a.77.77 0 0 0-.074 1.535M64.94 34.202l-4.032-1.546a.618.618 0 0 0-.605.093l-3.024 2.391a.62.62 0 0 1-.468.128l-3.566-.49a.619.619 0 0 0-.552.209l-1.372 1.586a.619.619 0 0 0 .531 1.02l6.371-.65a.62.62 0 0 1 .144.002l5.602.737a.618.618 0 0 0 .674-.44l.67-2.288a.619.619 0 0 0-.373-.752M118.377 15.995l.807 1.615c.083.165.26.26.443.236l4.09-.52a.442.442 0 0 1 .102-.001l3.046.328c.47.05.67-.584.255-.812l-2.967-1.627a.433.433 0 0 0-.301-.043l-3.053.67a.434.434 0 0 1-.204-.004l-1.72-.455a.434.434 0 0 0-.498.613M120.433 6.337l-1.118-2.412c-.114-.246-.322-.374-.519-.32l-4.41 1.223a.333.333 0 0 1-.11.012l-3.387-.195c-.524-.03-.651.97-.162 1.28l3.486 2.209a.359.359 0 0 0 .337.036l3.25-1.348a.344.344 0 0 1 .225-.014l1.95.527c.41.11.69-.5.458-.998M79.9 33.619l2.453 2.216a.757.757 0 0 0 .878.099l2.755-1.544a.755.755 0 0 1 .233-.084l4.332-.798c.359-.066.62-.38.62-.744v-2.22a.757.757 0 0 0-.757-.757h-4.069a.758.758 0 0 0-.45.149l-2.7 1.996a.756.756 0 0 1-.382.146l-2.474.224a.757.757 0 0 0-.439 1.317M71.951 40.631l-1.376-1.938a.544.544 0 0 0-.6-.206l-2.175.653a.543.543 0 0 1-.176.023l-3.165-.116a.544.544 0 0 0-.551.426l-.346 1.558a.545.545 0 0 0 .413.65l2.856.634a.546.546 0 0 0 .339-.034l2.206-.98a.544.544 0 0 1 .29-.042l1.772.227c.47.061.788-.468.513-.855M105.593 2.988l1.483.33a.757.757 0 0 0 .353-.006l1.803-.466a.757.757 0 0 1 .331-.01l2.397.457a.757.757 0 0 0 .612-.15l.412-.327a.758.758 0 0 0-.159-1.284L109.83.18a.757.757 0 0 0-.836.144l-1.076 1.034a.757.757 0 0 1-.74.18l-1.096-.326a.757.757 0 0 0-.931.479l-.108.31a.757.757 0 0 0 .551.987M115.804 37.029l3.349.427c.078.01.158.011.237.003l6.354-.654a1.05 1.05 0 0 1 .106-.006c.971 0 1.41-1.214.664-1.835l-2.266-1.886a1.038 1.038 0 0 0-1.182-.101l-3.03 1.747c-.34.196-.76.184-1.088-.031l-1.399-.918a1.037 1.037 0 0 0-1.39.234l-1.046 1.357a1.038 1.038 0 0 0 .69 1.663M79.864 10.525l2.138-.958a.618.618 0 0 1 .56.028l1.536.88c.12.067.258.094.394.075l1.962-.276c.592-.084.733-.877.205-1.159l-1.637-.875a.62.62 0 0 0-.143-.054l-3.205-.797a.618.618 0 0 0-.52.105l-2.206 1.654a.62.62 0 0 1-.23.108l-.436.103a.619.619 0 0 0 .142 1.22h1.187a.62.62 0 0 0 .253-.054M135.454 42.445l2.563.246a.758.758 0 0 0 .343-.046l3.172-1.211a.757.757 0 0 1 .572.013l1.769.683a.757.757 0 0 0 .85-.172l.285-.3a.757.757 0 0 0-.22-1.204l-2.092-1a.756.756 0 0 0-.537-.044l-2.455.709a.756.756 0 0 1-.643-.106l-1.923-1.339a.757.757 0 0 0-1.112.288l-1.18 2.395a.757.757 0 0 0 .608 1.088M111.898 20.876v.489c0 .445.285.841.707.983l1.36.454c.228.076.477.07.702-.017l2.787-1.078c.139-.054.288-.077.437-.068l4.931.305c.256.016.508-.064.708-.222l.28-.222a1.036 1.036 0 0 0-.303-1.79l-2.404-.84a1.036 1.036 0 0 0-.617-.02l-2.69.743c-.18.05-.368.05-.547.001l-2.61-.705a1.037 1.037 0 0 0-.858.146l-1.434.987c-.282.193-.45.512-.45.854"/>
                <path fill="#C19372" d="M172.406 40.431a.28.28 0 0 0-.091-.067l-4.516-2.061a.282.282 0 0 1-.082-.058l-1.738-1.738a.283.283 0 0 0-.349-.04c-.157.095-.174.3-.05.436l1.59 1.745.073.057 4.526 2.46c.03.017.059.04.081.068l2.396 2.875a.28.28 0 0 1 .063.214l-.483 3.91v.066l.49 4.322a.281.281 0 0 1-.403.284l-2.879-1.419a.28.28 0 0 1-.15-.192l-.609-2.794a.28.28 0 0 1 .039-.213l1.122-1.731a.281.281 0 0 0-.235-.434h-.025a.28.28 0 0 0-.22.106l-1.032 1.3a.281.281 0 0 1-.427.015l-1.232-1.35a.22.22 0 0 0-.162-.071h-.011c-.24 0-.37.28-.215.463l1.474 1.738c.035.041.057.09.064.143l.314 2.262a.281.281 0 0 1-.347.312l-2.675-.677a.282.282 0 0 1-.202-.197l-.605-2.156a.283.283 0 0 1-.006-.124l.26-1.507a.22.22 0 0 0-.215-.257h-.01a.22.22 0 0 0-.214.167l-.103.424a.28.28 0 0 1-.497.104l-.463-.608a.22.22 0 0 0-.175-.087h-.047a.22.22 0 0 0-.174.353l1.01 1.318c.031.04.05.087.057.137l.064.52a.28.28 0 0 1-.477.233l-1.51-1.509a.28.28 0 0 0-.148-.078l-3.126-.568a.281.281 0 0 1-.163-.093l-2.058-2.386a.28.28 0 0 0-.213-.097h-.284a.281.281 0 0 0-.218.458l2.178 2.68a.28.28 0 0 0 .148.095l3.384.858a.281.281 0 0 1 .146.092l2.943 3.522a.28.28 0 0 0 .147.093l4.474 1.118a.284.284 0 0 1 .096.045l3.1 2.237c.1.072.141.2.102.318l-.987 2.908a.278.278 0 0 0-.014.114l.26 3.179-.006.084-.38 1.712a.278.278 0 0 1-.042.096l-1.022 1.511h7.222l-1.162-1.404a.279.279 0 0 1-.057-.115l-.972-4.13a.28.28 0 0 1 .003-.139l.913-3.319a.282.282 0 0 1 .076-.127l4.96-4.813a.28.28 0 0 1 .12-.07l5.311-1.475.075-.01h3.087c.085 0 .166-.04.22-.106l2.577-3.246a.28.28 0 0 1 .118-.087l3.834-1.499c.222-.086.43-.204.62-.348l3.794-2.891h-.65l-2.955 1.956.545-1.717a.28.28 0 0 0-.247-.365l-.125-.009a.28.28 0 0 0-.289.196l-.693 2.212a.281.281 0 0 1-.176.181l-3.239 1.13.422-1.905 1.092-1.68h-.531l-.99 1.53-.837 2.122c-.076.191-.181.369-.313.526l-1.662 1.99c-.181.217-.533.061-.494-.22l.49-3.513a.279.279 0 0 1 .05-.125l1.408-1.962a.22.22 0 0 0-.178-.347h-.057a.22.22 0 0 0-.174.085l-1.042 1.357a.281.281 0 0 1-.466-.03l-.758-1.303a.22.22 0 0 0-.385.21l.97 1.872a.28.28 0 0 1 .023.2l-1.1 4.301a.281.281 0 0 1-.276.212l-2.174-.03c-.019 0-.038.002-.057.004l-4.286.823a.281.281 0 0 1-.289-.429l.636-.978a.283.283 0 0 1 .078-.08l2.879-1.955a.281.281 0 0 0 .098-.117l1.705-3.745a.281.281 0 0 0-.256-.397h-.009a.281.281 0 0 0-.252.157l-1.803 3.676a.28.28 0 0 1-.116.122l-2.965 1.636a.279.279 0 0 0-.1.093l-1.54 2.36-.051.058-4.015 3.487a.281.281 0 0 1-.464-.235l.288-3.547a.281.281 0 0 1 .057-.147l2.621-3.447a.281.281 0 0 1 .092-.078l5.227-2.785a.28.28 0 0 0 .125-.135l.69-1.574a.28.28 0 0 0-.257-.394h-.156a.281.281 0 0 0-.246.146l-.729 1.33a.28.28 0 0 1-.126.118l-1.448.684c-.258.122-.512-.172-.354-.41l.472-.71c.12-.18 0-.422-.217-.436l-.1-.006a.28.28 0 0 0-.251.124l-1.57 2.348a.281.281 0 0 1-.114.098l-1.693.8a.28.28 0 0 0-.101.08l-2.668 3.41-.456.63a.28.28 0 0 1-.498-.088l-.088-.305-.011-.075.097-4.566 2.415-3.055a.28.28 0 0 0 .065-.136l.452-2.563a.28.28 0 0 0-.276-.33h-.111a.28.28 0 0 0-.279.242l-.176 1.25a.281.281 0 0 1-.493.142l-1.284-1.533a.281.281 0 0 0-.215-.1h-.11a.28.28 0 0 0-.218.456l1.647 2.047a.281.281 0 0 1-.022.377l-2.166 2.346-2.247-2.423z"/>
                <g transform="translate(179.76 34.865)">
                    <mask id="d" fill="#fff">
                        <use xlink:href="#c"/>
                    </mask>
                    <path fill="#0A6E31" d="M27.592 9.012H2.312c-.375 0-.727-.172-.957-.467L.287 7.176a1.213 1.213 0 0 1-.069-1.394l.64-1.012a1.22 1.22 0 0 0 .155-.372l.303-1.293c.12-.515.561-.893 1.089-.933l2.232-.17c.127-.009.255.002.379.032l3.398.829c.336.082.69.016.976-.18l1.508-1.039a7.036 7.036 0 0 1 2.41-1.06l1.55-.359a7.037 7.037 0 0 1 2.138-.158l1.78.141a7.038 7.038 0 0 1 3.913 1.58l.376.31c.114.093.21.207.283.335l.477.834c.14.244.358.432.62.532l1.735.662c.378.144.658.467.75.86.083.363.19.755.27.781.081.027.537.256.943.463.406.207.662.624.662 1.08V7.8a1.213 1.213 0 0 1-1.213 1.213" mask="url(#d)"/>
                </g>
                <path fill="#0A6E31" d="M177.793 46.85h-25.491c-.267 0-.525-.095-.727-.27l-3.208-2.762a1.115 1.115 0 0 1 .018-1.706l1.232-1.015c.17-.14.377-.226.596-.248l4.742-.48c.336-.035.64-.22.823-.504l.647-1c.224-.346.62-.54 1.031-.505l8 .686c.087.007.172.025.254.052l5.213 1.72c.128.043.262.062.396.056l2.046-.087c.404-.018.786.185.997.53l1.535 2.495c.157.255.41.436.703.503l1.44.327c.508.115.868.567.868 1.087v.006c0 .616-.5 1.115-1.115 1.115M164.671 38.284l-3.59-1.234a1.335 1.335 0 0 0-.433-.073h-3.037c-.151 0-.302-.026-.445-.076l-2.175-.772a1.333 1.333 0 1 1 .308-2.583l4.093-.427c.055-.006.11-.015.164-.027l4.367-1.016 3.349-.951a13.167 13.167 0 0 1 7.41.064l2.883.872c.033.01.066.019.1.026l4.201.923c.296.065.561.229.752.464l1.797 2.225a1.333 1.333 0 0 1-.134 1.82l-.528.485a1.333 1.333 0 0 1-.903.352h-17.745c-.148 0-.294-.024-.434-.072"/>
                <path fill="#C19372" d="M12.251 16.47h.547c.226 0 .438.11.568.294l3.21 4.531c.09.128.22.221.37.265l3.966 1.177a.696.696 0 0 0 .822-.358l2.23-4.508a.696.696 0 0 0 .073-.308v-.92c0-.384.312-.696.696-.696h.072c.385 0 .696.312.696.696v1.183a.696.696 0 0 1-.033.212l-1.43 4.466a.696.696 0 0 0 .592.905l3.293.333a.696.696 0 0 0 .71-.417l2.01-4.662a.696.696 0 0 0 .041-.424l-.292-1.343a.696.696 0 0 1 .68-.844h.339c.285 0 .54.173.646.437l.318.796a.696.696 0 0 0 1.074.291l1.906-1.483a.697.697 0 0 1 .427-.146h.004c.666 0 .952.845.423 1.25l-3.918 2.991a.695.695 0 0 0-.256.398l-.525 2.298c-.116.51.35.96.855.829l7.982-2.087a.696.696 0 0 0 .21-.094l3.866-2.579a.7.7 0 0 0 .193-.192l1.809-2.713a.696.696 0 0 1 .579-.31h.24c.527 0 .863.562.613 1.026l-1.565 2.907a.698.698 0 0 1-.216.242l-5.607 3.89a.684.684 0 0 1-.131.071l-8.225 3.391a.696.696 0 0 0-.431.658l.73 37.132H22l.732-37.195a.696.696 0 0 0-.36-.623l-6.657-3.674a.696.696 0 0 1-.246-.227l-3.8-5.788a.696.696 0 0 1 .582-1.078"/>
                <path fill="#0A6E31" d="M17.108 21.575H5.178a.986.986 0 0 1-.846-.48l-.334-.555a.986.986 0 0 0-.706-.47l-1.919-.273a.986.986 0 0 1-.837-1.11l.056-.414a.986.986 0 0 1 .82-.84l2.57-.417a.985.985 0 0 0 .455-.2l1.83-1.449a.985.985 0 0 1 .611-.213h8.985c.226 0 .445.078.62.22l2.07 1.67c.099.081.213.141.335.178l3.136.941c.319.096.568.346.662.666v.001a.986.986 0 0 1-.826 1.257l-3.078.377a.986.986 0 0 0-.712.45l-.13.204a.986.986 0 0 1-.832.457"/>
                <path fill="#0A6E31" d="M9.348 8.183l7.667-2.142c.108-.03.22-.046.33-.046h13.167c.257 0 .507.08.716.23l4.014 2.883c.209.15.46.23.716.23h7.246c.443 0 .851.239 1.07.624l1.323 2.336c.218.385.626.623 1.069.623h2.619c.508 0 .964.313 1.146.788l.25.647c.309.805-.285 1.67-1.147 1.67h-9.129c-.2 0-.398.049-.575.142l-1.483.786a1.227 1.227 0 0 1-.59.142l-17.643-.225a1.228 1.228 0 0 1-1.107-.73l-.311-.7a1.229 1.229 0 0 0-1.123-.729H9.807c-.326 0-.639-.13-.87-.36l-2.618-2.63a.885.885 0 0 1 .082-1.323l2.64-2.061a.886.886 0 0 1 .307-.155"/>
                <path fill="#0A6E31" d="M56.647 20.397H39.64c-.32 0-.626-.135-.841-.372l-.428-.47a1.136 1.136 0 0 0-.84-.373h-1.264a1.136 1.136 0 0 1-1.007-1.663l.025-.047a1.136 1.136 0 0 1 1.006-.609h3.642c.202 0 .4-.053.574-.156l2.67-1.565c.174-.102.372-.156.574-.156h8.864c.28 0 .549.103.757.29l1.45 1.298c.21.186.479.29.759.29h4.098c.28 0 .551.103.76.291l.349.314c.666.6.409 1.698-.454 1.939l-3.381.947c-.1.028-.203.042-.306.042"/>
                <mask id="f" fill="#fff">
                    <use xlink:href="#e"/>
                </mask>
                <path fill="#FF7900" d="M113.286 68.171h40.823V53.785h-40.823z" mask="url(#f)"/>
                <path fill="#595959" d="M120.254 61.425h4.482V56.44h-4.482zM142.66 61.425h4.48V56.44h-4.48z" mask="url(#f)"/>
                <path fill="#000" d="M136.716 68.174h-6.037v-8.587a3.017 3.017 0 0 1 3.016-3.016h.004a3.017 3.017 0 0 1 3.017 3.016v8.587z" mask="url(#f)"/>
                <path fill="#B8EBD6" d="M112.684 53.88h42.04v-4.815h-42.04z" mask="url(#f)"/>
                <path fill="#D6D6D6" d="M154.355 45.856c-.13 0-.281.05-.37.15a.513.513 0 0 1-.368.15.513.513 0 0 1-.369-.15.512.512 0 0 0-.368-.15c-.13 0-.281.05-.37.15a.513.513 0 0 1-.368.15.513.513 0 0 1-.369-.15.512.512 0 0 0-.369-.15c-.13 0-.28.05-.368.15a.513.513 0 0 1-.37.15.513.513 0 0 1-.368-.15.512.512 0 0 0-.369-.15c-.13 0-.28.05-.368.15a.513.513 0 0 1-.37.15.512.512 0 0 1-.368-.15.512.512 0 0 0-.369-.15c-.13 0-.28.05-.368.15a.513.513 0 0 1-.37.15.513.513 0 0 1-.368-.15.512.512 0 0 0-.369-.15c-.13 0-.28.05-.369.15a.513.513 0 0 1-.368.15.513.513 0 0 1-.37-.15.512.512 0 0 0-.368-.15c-.13 0-.28.05-.369.15a.513.513 0 0 1-.368.15.513.513 0 0 1-.37-.15.512.512 0 0 0-.368-.15c-.13 0-.28.05-.369.15a.513.513 0 0 1-.369.15.513.513 0 0 1-.368-.15.512.512 0 0 0-.37-.15c-.129 0-.28.05-.368.15a.513.513 0 0 1-.369.15.513.513 0 0 1-.368-.15.512.512 0 0 0-.37-.15c-.129 0-.28.05-.368.15a.513.513 0 0 1-.369.15.513.513 0 0 1-.368-.15.512.512 0 0 0-.37-.15c-.13 0-.28.05-.368.15a.513.513 0 0 1-.369.15.512.512 0 0 1-.368-.15.512.512 0 0 0-.37-.15c-.13 0-.28.05-.368.15a.512.512 0 0 1-.369.15.513.513 0 0 1-.369-.15.512.512 0 0 0-.368-.15c-.13 0-.281.05-.37.15a.513.513 0 0 1-.368.15.513.513 0 0 1-.369-.15.512.512 0 0 0-.368-.15c-.13 0-.281.05-.37.15a.513.513 0 0 1-.368.15.513.513 0 0 1-.369-.15.5.5 0 0 0-.369-.15.541.541 0 0 0-.1.01.481.481 0 0 0-.268.14.513.513 0 0 1-.37.15.513.513 0 0 1-.368-.15.512.512 0 0 0-.369-.15c-.13 0-.28.05-.368.15a.513.513 0 0 1-.37.15.513.513 0 0 1-.368-.15.512.512 0 0 0-.369-.15c-.13 0-.28.05-.368.15a.513.513 0 0 1-.37.15.513.513 0 0 1-.368-.15.512.512 0 0 0-.369-.15c-.13 0-.28.05-.369.15a.513.513 0 0 1-.368.15.513.513 0 0 1-.37-.15.512.512 0 0 0-.368-.15c-.13 0-.28.05-.369.15a.513.513 0 0 1-.368.15.513.513 0 0 1-.37-.15.512.512 0 0 0-.368-.15c-.13 0-.28.05-.369.15a.513.513 0 0 1-.368.15.513.513 0 0 1-.37-.15.512.512 0 0 0-.368-.15c-.13 0-.28.05-.369.15a.513.513 0 0 1-.369.15.513.513 0 0 1-.368-.15.512.512 0 0 0-.37-.15c-.129 0-.28.05-.368.15a.513.513 0 0 1-.369.15.513.513 0 0 1-.368-.15.512.512 0 0 0-.37-.15c-.13 0-.28.05-.368.15a.513.513 0 0 1-.369.15.513.513 0 0 1-.369-.15.512.512 0 0 0-.368-.15c-.13 0-.28.05-.37.15a.513.513 0 0 1-.368.15.513.513 0 0 1-.369-.15.512.512 0 0 0-.368-.15c-.13 0-.281.05-.37.15a.513.513 0 0 1-.368.15.513.513 0 0 1-.369-.15.512.512 0 0 0-.368-.15c-.13 0-.281.05-.37.15a.512.512 0 0 1-.368.15.512.512 0 0 1-.369-.15.512.512 0 0 0-.369-.15c-.13 0-.28.05-.368.15a.513.513 0 0 1-.37.15.513.513 0 0 1-.368-.15.512.512 0 0 0-.369-.15c-.13 0-.28.05-.368.15a.513.513 0 0 1-.37.15.513.513 0 0 1-.368-.15.512.512 0 0 0-.369-.15c-.13 0-.28.05-.368.15v8.83a.512.512 0 0 1 .368-.15c.13 0 .281.051.37.15.087.099.238.15.368.15s.28-.051.369-.15a.512.512 0 0 1 .368-.15c.13 0 .281.051.37.15.087.099.238.15.368.15s.28-.051.369-.15a.512.512 0 0 1 .368-.15c.13 0 .281.051.37.15.087.099.238.15.368.15s.28-.051.369-.15a.512.512 0 0 1 .369-.15c.13 0 .28.051.368.15.088.099.24.15.37.15.129 0 .28-.051.368-.15a.512.512 0 0 1 .369-.15c.13 0 .28.051.368.15.089.099.24.15.37.15.129 0 .28-.051.368-.15a.512.512 0 0 1 .369-.15c.13 0 .28.051.368.15.089.099.24.15.37.15s.28-.051.368-.15a.512.512 0 0 1 .369-.15c.13 0 .28.051.369.15.088.099.239.15.368.15.13 0 .281-.051.37-.15a.512.512 0 0 1 .368-.15c.13 0 .28.051.369.15.088.099.239.15.368.15.13 0 .281-.051.37-.15a.512.512 0 0 1 .368-.15c.13 0 .28.051.369.15.088.099.239.15.369.15s.28-.051.368-.15a.512.512 0 0 1 .37-.15c.129 0 .28.051.368.15.088.099.239.15.369.15s.28-.051.368-.15a.512.512 0 0 1 .37-.15c.129 0 .28.051.368.15.088.099.239.15.369.15s.28-.051.368-.15a.512.512 0 0 1 .37-.15c.129 0 .28.051.368.15.088.099.239.15.369.15s.28-.051.369-.15a.512.512 0 0 1 .368-.15c.13 0 .28.051.37.15.087.099.238.15.368.15s.28-.051.369-.15a.512.512 0 0 1 .368-.15c.13 0 .281.051.37.15.087.099.238.15.368.15s.28-.051.369-.15a.482.482 0 0 1 .268-.14.557.557 0 0 1 .15-.007.5.5 0 0 1 .32.147c.087.099.238.15.368.15s.28-.051.369-.15a.512.512 0 0 1 .369-.15c.13 0 .28.051.368.15.088.099.24.15.37.15.129 0 .28-.051.368-.15a.512.512 0 0 1 .369-.15c.13 0 .28.051.368.15.089.099.24.15.37.15s.28-.051.368-.15a.512.512 0 0 1 .369-.15c.13 0 .28.051.369.15.088.099.238.15.368.15s.28-.051.37-.15a.512.512 0 0 1 .368-.15c.13 0 .28.051.369.15.088.099.238.15.368.15s.28-.051.37-.15a.512.512 0 0 1 .368-.15c.13 0 .28.051.369.15.088.099.239.15.368.15.13 0 .281-.051.37-.15a.512.512 0 0 1 .368-.15c.13 0 .28.051.369.15.088.099.239.15.368.15.13 0 .281-.051.37-.15a.512.512 0 0 1 .368-.15c.13 0 .28.051.369.15.088.099.239.15.369.15s.28-.051.368-.15a.512.512 0 0 1 .37-.15c.129 0 .28.051.368.15.088.099.239.15.369.15s.28-.051.368-.15a.512.512 0 0 1 .37-.15c.13 0 .28.051.368.15.088.099.239.15.369.15s.28-.051.369-.15a.512.512 0 0 1 .368-.15c.13 0 .28.051.37.15.087.099.238.15.368.15s.28-.051.369-.15a.512.512 0 0 1 .368-.15c.13 0 .281.051.37.15.087.099.238.15.368.15s.28-.051.369-.15a.512.512 0 0 1 .368-.15c.13 0 .281.051.37.15.087.099.238.15.368.15s.28-.051.369-.15a.512.512 0 0 1 .369-.15c.13 0 .28.051.368.15.088.099.24.15.37.15.129 0 .28-.051.368-.15a.512.512 0 0 1 .369-.15c.13 0 .28.051.368.15v-8.83a.512.512 0 0 0-.368-.15" mask="url(#f)"/>
                <path fill="#8F8F8F" d="M113.421 54.836a.513.513 0 0 0-.369-.15c-.13 0-.28.051-.368.15v-8.83a.513.513 0 0 1 .368-.15c.13 0 .281.05.37.15v8.83zM114.896 54.836a.513.513 0 0 0-.369-.15c-.13 0-.28.051-.368.15v-8.83a.513.513 0 0 1 .368-.15c.13 0 .281.05.37.15v8.83zM116.371 54.836a.513.513 0 0 0-.369-.15c-.13 0-.28.051-.368.15v-8.83a.513.513 0 0 1 .368-.15c.13 0 .281.05.37.15v8.83zM117.846 54.836a.513.513 0 0 0-.368-.15c-.13 0-.281.051-.37.15v-8.83a.512.512 0 0 1 .37-.15c.13 0 .28.05.368.15v8.83zM119.321 54.836a.513.513 0 0 0-.368-.15c-.13 0-.281.051-.37.15v-8.83a.513.513 0 0 1 .37-.15c.13 0 .28.05.368.15v8.83zM120.796 54.836a.513.513 0 0 0-.368-.15c-.13 0-.281.051-.37.15v-8.83a.513.513 0 0 1 .37-.15c.13 0 .28.05.368.15v8.83zM122.272 54.836a.513.513 0 0 0-.37-.15c-.13 0-.28.051-.368.15v-8.83a.512.512 0 0 1 .369-.15c.13 0 .28.05.369.15v8.83zM123.747 54.836a.513.513 0 0 0-.37-.15c-.13 0-.28.051-.368.15v-8.83a.513.513 0 0 1 .369-.15c.13 0 .28.05.369.15v8.83zM125.222 54.836a.513.513 0 0 0-.37-.15c-.129 0-.28.051-.368.15v-8.83a.513.513 0 0 1 .369-.15c.13 0 .28.05.369.15v8.83zM126.697 54.836a.513.513 0 0 0-.37-.15c-.129 0-.28.051-.368.15v-8.83a.513.513 0 0 1 .369-.15c.13 0 .28.05.369.15v8.83zM128.172 54.836a.513.513 0 0 0-.369-.15c-.13 0-.28.051-.369.15v-8.83a.513.513 0 0 1 .369-.15c.13 0 .28.05.369.15v8.83zM129.647 54.836a.513.513 0 0 0-.369-.15c-.13 0-.28.051-.369.15v-8.83a.513.513 0 0 1 .369-.15c.13 0 .28.05.369.15v8.83zM131.122 54.836a.513.513 0 0 0-.369-.15c-.13 0-.28.051-.369.15v-8.83a.513.513 0 0 1 .37-.15c.129 0 .28.05.368.15v8.83zM132.597 54.836a.513.513 0 0 0-.369-.15c-.13 0-.28.051-.369.15v-8.83a.513.513 0 0 1 .37-.15c.129 0 .28.05.368.15v8.83zM134.072 54.836a.513.513 0 0 0-.369-.15c-.13 0-.28.051-.369.15v-8.83a.513.513 0 0 1 .37-.15c.13 0 .28.05.368.15v8.83zM135.547 54.836a.513.513 0 0 0-.369-.15c-.13 0-.28.051-.368.15v-8.83a.513.513 0 0 1 .368-.15c.13 0 .281.05.37.15v8.83zM137.022 54.836a.513.513 0 0 0-.369-.15c-.13 0-.28.051-.368.15v-8.83a.513.513 0 0 1 .368-.15c.13 0 .281.05.37.15v8.83zM138.497 54.836a.513.513 0 0 0-.369-.15c-.13 0-.28.051-.368.15v-8.83a.513.513 0 0 1 .368-.15c.13 0 .281.05.37.15v8.83zM139.972 54.836a.513.513 0 0 0-.368-.15c-.13 0-.281.051-.37.15v-8.83a.513.513 0 0 1 .37-.15c.13 0 .28.05.368.15v8.83zM141.447 54.836a.513.513 0 0 0-.368-.15c-.13 0-.281.051-.37.15v-8.83a.513.513 0 0 1 .37-.15c.13 0 .28.05.368.15v8.83zM142.922 54.836a.513.513 0 0 0-.368-.15c-.13 0-.281.051-.37.15v-8.83a.512.512 0 0 1 .37-.15c.13 0 .28.05.368.15v8.83zM144.397 54.836a.513.513 0 0 0-.368-.15c-.13 0-.281.051-.369.15v-8.83a.513.513 0 0 1 .369-.15c.13 0 .28.05.368.15v8.83zM145.873 54.836a.513.513 0 0 0-.37-.15c-.13 0-.28.051-.368.15v-8.83a.513.513 0 0 1 .369-.15c.13 0 .28.05.369.15v8.83zM147.348 54.836a.513.513 0 0 0-.37-.15c-.129 0-.28.051-.368.15v-8.83a.513.513 0 0 1 .369-.15c.13 0 .28.05.369.15v8.83zM148.823 54.836a.513.513 0 0 0-.37-.15c-.129 0-.28.051-.368.15v-8.83a.513.513 0 0 1 .369-.15c.13 0 .28.05.369.15v8.83zM150.298 54.836a.513.513 0 0 0-.37-.15c-.129 0-.28.051-.368.15v-8.83a.513.513 0 0 1 .369-.15c.13 0 .28.05.369.15v8.83zM151.773 54.836a.513.513 0 0 0-.369-.15c-.13 0-.28.051-.369.15v-8.83a.513.513 0 0 1 .369-.15c.13 0 .28.05.369.15v8.83zM153.248 54.836a.513.513 0 0 0-.369-.15c-.13 0-.28.051-.369.15v-8.83a.513.513 0 0 1 .37-.15c.129 0 .28.05.368.15v8.83zM154.723 54.836a.513.513 0 0 0-.369-.15c-.13 0-.28.051-.369.15v-8.83a.513.513 0 0 1 .37-.15c.129 0 .28.05.368.15v8.83z" mask="url(#f)"/>
                <path fill="#000" d="M153.986 54.658a.512.512 0 0 1-.369.15.512.512 0 0 1-.369-.15.513.513 0 0 0-.368-.15c-.13 0-.281.051-.37.15a.512.512 0 0 1-.368.15.512.512 0 0 1-.369-.15.513.513 0 0 0-.369-.15c-.13 0-.28.051-.368.15a.512.512 0 0 1-.37.15.512.512 0 0 1-.368-.15.513.513 0 0 0-.369-.15c-.13 0-.28.051-.368.15a.512.512 0 0 1-.37.15.512.512 0 0 1-.368-.15.513.513 0 0 0-.369-.15c-.13 0-.28.051-.368.15a.512.512 0 0 1-.37.15.512.512 0 0 1-.368-.15.513.513 0 0 0-.369-.15c-.13 0-.28.051-.369.15a.512.512 0 0 1-.368.15.512.512 0 0 1-.37-.15.512.512 0 0 0-.368-.15c-.13 0-.28.051-.369.15a.512.512 0 0 1-.368.15.512.512 0 0 1-.37-.15.513.513 0 0 0-.368-.15c-.13 0-.28.051-.369.15a.512.512 0 0 1-.368.15.512.512 0 0 1-.37-.15.513.513 0 0 0-.368-.15c-.13 0-.28.051-.369.15a.512.512 0 0 1-.369.15.512.512 0 0 1-.368-.15.513.513 0 0 0-.37-.15c-.129 0-.28.051-.368.15a.512.512 0 0 1-.369.15.512.512 0 0 1-.368-.15.513.513 0 0 0-.37-.15c-.129 0-.28.051-.368.15a.512.512 0 0 1-.369.15.512.512 0 0 1-.368-.15.513.513 0 0 0-.37-.15c-.13 0-.28.051-.368.15a.512.512 0 0 1-.369.15.512.512 0 0 1-.369-.15.513.513 0 0 0-.368-.15c-.13 0-.281.051-.37.15a.512.512 0 0 1-.368.15.512.512 0 0 1-.369-.15.513.513 0 0 0-.368-.15c-.13 0-.281.051-.37.15a.512.512 0 0 1-.368.15.512.512 0 0 1-.369-.15.5.5 0 0 0-.368-.15.538.538 0 0 0-.37.15.512.512 0 0 1-.368.15.512.512 0 0 1-.369-.15.513.513 0 0 0-.369-.15c-.13 0-.28.051-.368.15a.512.512 0 0 1-.37.15.512.512 0 0 1-.368-.15.513.513 0 0 0-.369-.15c-.13 0-.28.051-.368.15a.512.512 0 0 1-.37.15.512.512 0 0 1-.368-.15.513.513 0 0 0-.369-.15c-.13 0-.28.051-.368.15a.512.512 0 0 1-.37.15.512.512 0 0 1-.368-.15.513.513 0 0 0-.369-.15c-.13 0-.28.051-.369.15a.512.512 0 0 1-.368.15.512.512 0 0 1-.37-.15.513.513 0 0 0-.368-.15c-.13 0-.28.051-.369.15a.512.512 0 0 1-.368.15.512.512 0 0 1-.37-.15.513.513 0 0 0-.368-.15c-.13 0-.28.051-.369.15a.512.512 0 0 1-.368.15.512.512 0 0 1-.37-.15.513.513 0 0 0-.368-.15c-.13 0-.28.051-.369.15a.512.512 0 0 1-.369.15.512.512 0 0 1-.368-.15.513.513 0 0 0-.37-.15c-.129 0-.28.051-.368.15a.512.512 0 0 1-.369.15.512.512 0 0 1-.368-.15.513.513 0 0 0-.37-.15c-.13 0-.28.051-.368.15a.512.512 0 0 1-.369.15.512.512 0 0 1-.369-.15.513.513 0 0 0-.368-.15c-.13 0-.281.051-.37.15a.512.512 0 0 1-.368.15.512.512 0 0 1-.369-.15.513.513 0 0 0-.368-.15c-.13 0-.281.051-.37.15a.512.512 0 0 1-.368.15.512.512 0 0 1-.369-.15.513.513 0 0 0-.368-.15c-.13 0-.281.051-.37.15a.512.512 0 0 1-.368.15.512.512 0 0 1-.369-.15.513.513 0 0 0-.369-.15c-.13 0-.28.051-.368.15a.512.512 0 0 1-.37.15.512.512 0 0 1-.368-.15.513.513 0 0 0-.369-.15c-.13 0-.28.051-.368.15v.178a.513.513 0 0 1 .368-.15c.13 0 .28.051.37.15.087.099.238.15.368.15s.28-.051.369-.15a.513.513 0 0 1 .368-.15c.13 0 .281.051.37.15.087.099.238.15.368.15s.28-.051.369-.15a.513.513 0 0 1 .369-.15c.13 0 .28.051.368.15.088.099.24.15.37.15.129 0 .28-.051.368-.15a.513.513 0 0 1 .369-.15c.13 0 .28.051.368.15.088.099.24.15.37.15.129 0 .28-.051.368-.15a.513.513 0 0 1 .369-.15c.13 0 .28.051.368.15.089.099.24.15.37.15s.28-.051.368-.15a.512.512 0 0 1 .369-.15c.13 0 .28.051.369.15.088.099.238.15.368.15s.28-.051.37-.15a.513.513 0 0 1 .368-.15c.13 0 .28.051.369.15.088.099.238.15.368.15s.281-.051.37-.15a.513.513 0 0 1 .368-.15c.13 0 .28.051.369.15.088.099.239.15.369.15s.28-.051.368-.15a.513.513 0 0 1 .369-.15c.13 0 .28.051.369.15.088.099.239.15.369.15s.28-.051.368-.15a.513.513 0 0 1 .37-.15c.129 0 .28.051.368.15.088.099.239.15.369.15s.28-.051.368-.15a.513.513 0 0 1 .37-.15c.129 0 .28.051.368.15.088.099.239.15.369.15s.28-.051.369-.15a.512.512 0 0 1 .368-.15c.13 0 .28.051.369.15.088.099.239.15.369.15s.28-.051.369-.15a.513.513 0 0 1 .368-.15c.13 0 .281.051.37.15.087.099.238.15.368.15s.28-.051.369-.15a.513.513 0 0 1 .368-.15c.13 0 .281.051.37.15.087.099.238.15.368.15s.28-.051.369-.15a.538.538 0 0 1 .418-.148.5.5 0 0 1 .32.148c.087.099.238.15.368.15s.28-.051.369-.15a.513.513 0 0 1 .369-.15c.13 0 .28.051.368.15.088.099.24.15.369.15.13 0 .28-.051.369-.15a.513.513 0 0 1 .369-.15c.13 0 .28.051.368.15.088.099.24.15.37.15s.28-.051.368-.15a.513.513 0 0 1 .369-.15c.13 0 .28.051.369.15.088.099.238.15.368.15s.28-.051.369-.15a.513.513 0 0 1 .369-.15c.13 0 .28.051.369.15.088.099.238.15.368.15s.281-.051.369-.15a.513.513 0 0 1 .369-.15c.13 0 .28.051.369.15.088.099.238.15.368.15s.281-.051.37-.15a.513.513 0 0 1 .368-.15c.13 0 .28.051.369.15.088.099.239.15.369.15s.28-.051.368-.15a.513.513 0 0 1 .369-.15c.13 0 .28.051.369.15.088.099.239.15.369.15s.28-.051.368-.15a.513.513 0 0 1 .369-.15c.13 0 .28.051.369.15.088.099.239.15.369.15s.28-.051.368-.15a.512.512 0 0 1 .37-.15c.13 0 .28.051.368.15.088.099.239.15.369.15s.28-.051.369-.15a.513.513 0 0 1 .368-.15c.13 0 .28.051.369.15.088.099.239.15.369.15s.28-.051.369-.15a.513.513 0 0 1 .368-.15c.13 0 .281.051.369.15.088.099.239.15.369.15s.28-.051.369-.15a.512.512 0 0 1 .368-.15c.13 0 .281.051.37.15.087.099.238.15.368.15s.28-.051.369-.15a.513.513 0 0 1 .369-.15c.13 0 .28.051.368.15.088.099.24.15.369.15.13 0 .28-.051.369-.15a.513.513 0 0 1 .369-.15c.13 0 .28.051.368.15v-.178a.512.512 0 0 0-.368-.15c-.13 0-.281.051-.37.15" mask="url(#f)"/>
                <path fill="#D6D6D6" d="M112.684 46.47h42.04v-.928h-42.04z" mask="url(#f)"/>
                <path fill="#8F8F8F" d="M97.033 69.723h-36.62V59.225L64 58.88l3.85.193 4.369-.042 2.895.169 5.596-.32 5.808.193 6.03-.193 4.484.065z" mask="url(#f)"/>
                <path fill="#FFF" d="M97.033 69.723h25.792V50.125H97.033z" mask="url(#f)"/>
                <path fill="#FF7900" d="M113.618 41.125h-7.378l-11.684 9.152h30.746z" mask="url(#f)"/>
                <path fill="#000" d="M117.97 69.724h-6.885V57.348a3.442 3.442 0 1 1 6.885 0v12.376z" mask="url(#f)"/>
                <path fill="#FFB400" d="M106.683 41.55l-10.065 8.303h1.027zM107.612 41.55l-7.677 8.303h1.223zM108.525 41.64l-4.751 8.213h1.271zM109.324 41.64l-2.2 8.213h1.401zM110.256 41.64l.233 8.213h1.19zM111.378 41.64l2.902 8.213h1.501zM112.453 41.55l5.283 8.303h1.124zM113.53 41.55l8.394 8.303h1.143z" mask="url(#f)"/>
                <path fill="#0A6E31" d="M64.835 54.57l-.378 14.524h.786z" mask="url(#f)"/>
                <path fill="#50BE87" d="M67.222 60.269l-2.245-.622-.52 9.447h.786l-.246-8.753z" mask="url(#f)"/>
                <path fill="#B8EBD6" d="M62.48 61.953l2.18-.7.583 7.841h-.786l.187-7.14z" mask="url(#f)"/>
                <path fill="#0A6E31" d="M67.407 64.636l-2.313-.79-.637 5.248h.786l-.129-4.555zM68.11 56.675l-.322 12.42h.672z" mask="url(#f)"/>
                <path fill="#B8EBD6" d="M70.152 61.547l-1.92-.53-.444 8.077h.672l-.21-7.485z" mask="url(#f)"/>
                <path fill="#50BE87" d="M66.097 62.988l1.865-.598.498 6.704h-.672l.16-6.105z" mask="url(#f)"/>
                <path fill="#0A6E31" d="M70.31 65.282l-1.977-.676-.545 4.488h.672l-.11-3.895zM72.15 54.57l.377 14.524h-.787z" mask="url(#f)"/>
                <path fill="#50BE87" d="M69.762 60.269l2.244-.622.52 9.447h-.786l.247-8.753z" mask="url(#f)"/>
                <path fill="#B8EBD6" d="M74.504 61.953l-2.181-.7-.583 7.841h.786l-.186-7.14z" mask="url(#f)"/>
                <path fill="#0A6E31" d="M69.576 64.636l2.313-.79.638 5.248h-.787l.13-4.555zM75.207 56.675l-.322 12.42h.672z" mask="url(#f)"/>
                <path fill="#B8EBD6" d="M77.249 61.547l-1.92-.53-.444 8.077h.672l-.21-7.485z" mask="url(#f)"/>
                <path fill="#50BE87" d="M73.194 62.988l1.865-.598.498 6.704h-.672l.159-6.105z" mask="url(#f)"/>
                <path fill="#0A6E31" d="M77.407 65.282l-1.977-.676-.545 4.488h.672l-.11-3.895zM79.028 54.57l-.378 14.524h.787z" mask="url(#f)"/>
                <path fill="#50BE87" d="M81.415 60.269l-2.244-.622-.52 9.447h.786l-.247-8.753z" mask="url(#f)"/>
                <path fill="#B8EBD6" d="M76.673 61.953l2.181-.7.583 7.841h-.787l.187-7.14z" mask="url(#f)"/>
                <path fill="#0A6E31" d="M81.6 64.636l-2.312-.79-.638 5.248h.787l-.13-4.555zM82.49 56.675l.323 12.42h-.672z" mask="url(#f)"/>
                <path fill="#B8EBD6" d="M80.449 61.547l1.92-.53.444 8.077h-.672l.21-7.485z" mask="url(#f)"/>
                <path fill="#50BE87" d="M84.504 62.988l-1.865-.598-.498 6.704h.672l-.16-6.105z" mask="url(#f)"/>
                <path fill="#0A6E31" d="M80.29 65.282l1.978-.676.545 4.488h-.672l.11-3.895zM86.124 54.57l-.377 14.524h.786z" mask="url(#f)"/>
                <path fill="#50BE87" d="M88.512 60.269l-2.245-.622-.52 9.447h.786l-.246-8.753z" mask="url(#f)"/>
                <path fill="#B8EBD6" d="M83.77 61.953l2.18-.7.583 7.841h-.786l.186-7.14z" mask="url(#f)"/>
                <path fill="#0A6E31" d="M88.697 64.636l-2.313-.79-.637 5.248h.786l-.129-4.555zM89.4 56.675l-.322 12.42h.672z" mask="url(#f)"/>
                <path fill="#B8EBD6" d="M91.442 61.547l-1.92-.53-.444 8.077h.672l-.21-7.485z" mask="url(#f)"/>
                <path fill="#50BE87" d="M87.387 62.988l1.865-.598.498 6.704h-.672l.16-6.105z" mask="url(#f)"/>
                <path fill="#0A6E31" d="M91.6 65.282l-1.977-.676-.545 4.488h.672l-.11-3.895zM93.44 54.57l.377 14.524h-.787z" mask="url(#f)"/>
                <path fill="#50BE87" d="M91.052 60.269l2.244-.622.52 9.447h-.786l.247-8.753z" mask="url(#f)"/>
                <path fill="#B8EBD6" d="M95.794 61.953l-2.181-.7-.583 7.841h.786l-.186-7.14z" mask="url(#f)"/>
                <path fill="#0A6E31" d="M90.866 64.636l2.313-.79.637 5.248h-.786l.13-4.555z" mask="url(#f)"/>
                <path fill="#FFF" d="M60.412 69.723h36.62v-3.05l-3.588-.345-3.85.194-4.369-.042-2.895.168-5.596-.32-5.808.194-6.029-.194-4.485.065z" mask="url(#f)"/>
                <path fill="#0A6E31" d="M20.341 70.625l1.452-1.415a3.796 3.796 0 0 0-2.555.091l.028-2.092c-.975.354-2.063 1.418-2.085 3.038l.007-.488c.026-2.004-1.287-3.358-2.482-3.828l-.034 2.59a4.7 4.7 0 0 0-3.16-.195l1.752 1.798a4.7 4.7 0 0 0-2.345 2.085l6.235.082 5.036.067a3.794 3.794 0 0 0-1.849-1.733" mask="url(#f)"/>
                <path fill="#FFF" d="M25.435 72.365h36.672v-27.64H25.435z" mask="url(#f)"/>
                <path fill="#FF7900" d="M49.016 32.033h-10.49L21.913 44.94h43.716z" mask="url(#f)"/>
                <path fill="#000" d="M45.385 72.369h-12.72v-16.24a6.358 6.358 0 0 1 6.358-6.358h.005a6.358 6.358 0 0 1 6.357 6.358v16.24z" mask="url(#f)"/>
                <path fill="#FFB400" d="M38.78 32.672L24.718 44.18h1.435zM40.078 32.672L29.353 44.18h1.708zM41.354 32.799l-6.639 11.38h1.777zM42.47 32.799l-3.075 11.38h1.959zM43.771 32.799l.326 11.38h1.664zM45.339 32.799l4.054 11.38h2.098zM46.842 32.672l7.38 11.507h1.57zM48.345 32.672L60.073 44.18h1.596z" mask="url(#f)"/>
                <path fill="#B8EBD6" d="M187.042 54.246a.266.266 0 0 1-.245-.36.266.266 0 0 1 .342-.15c.024.01.036.036.026.06-.01.024-.037.033-.06.026a.17.17 0 0 0-.222.097.173.173 0 0 0 .097.223.174.174 0 0 0 .223-.098.045.045 0 0 1 .06-.025.046.046 0 0 1 .026.059.265.265 0 0 1-.247.168" mask="url(#f)"/>
            </g>
        </g>
        <path fill="#4BB4E6" fill-opacity=".2" fill-rule="nonzero" d="M251.933 30.01c-25.76.697-68.359 13.368-71.409 67.47-3.05 54.1-6.367 127.182 42.142 135.162 48.509 7.98 72.946-53.517 72.946-110.588 0-57.072-17.919-92.74-43.679-92.044z"/>
        <path fill="#000" d="M271.92 83.279c-.137 1.304-.548 2.128-2.402 2.986-1.853.858-4.497 2.506-4.565 6.178-.069 3.673.55 6.144-.446 7.071-.996.927-1.442 1.339-1.442 1.339l-1.32-.27a.472.472 0 0 0-.337.868l.55.329-.221.356a1.093 1.093 0 0 0 1.7 1.35c1.063-1.07 3.06-3.197 3.678-4.658.859-2.025 1.682-5.939 1.682-5.939l1.854 6.625s-4.634 6.59 1.888 9.954c6.521 3.364 9.68-.528 9.68-.528l.797-.648-.558-12.073-.544-3.988s-.588-3.186.853-5.829c1.442-2.643 10.099-9.81 10.099-9.81s.814 1.076 2.378.29c1.266-.636.677-1.733.54-2.354l2.032-1.02a.506.506 0 0 0-.396-.927l-3.261 1.149a15.647 15.647 0 0 0-4.18 2.233l-9.565 7.16a3.216 3.216 0 0 1-3.994-.109l-1.444-1.211-3.055 1.476z"/>
        <g transform="translate(139 181.918)">
            <mask id="h" fill="#fff">
                <use xlink:href="#g"/>
            </mask>
            <path fill="#FFF" d="M139.14 6.336l13.071 5.532-3.02 20.955-6.179 15.549-.549 14.279 3.248 4.393-1.738 8.513-1.334 28.752-83.927-2.116-3.982 1.098-3.68-1.098-1.4 3.981-10.074.55-3.381 4.942H30.29v-9.61l-9.336 9.61-3.02-2.197v-4.256L0 104.527V96.7l7.346-4.033L31.39 59l16.576-15.213 11.528-13.677 1.415-23.775L64.875.043l63.446.76z" mask="url(#h)"/>
        </g>
        <path fill="#000" d="M248.083 183.9l2.538.356a12.554 12.554 0 0 1 8.317 4.92l12.828 17.173s-4.89 3.655-2.317 10.76c0 0 4.84 4.48 10.504 0l3.646-8.52a11.615 11.615 0 0 0 .38-8.124l-9.896-30.775s-1.956-1.853-2.265-1.853c-.31 0-9.062 1.905-9.062 1.905L248.083 183.9zM237.814 117.81c-1.084.213-5.1.857-7.546 4.281-2.445 3.424-1.261 5.818-3.424 8.779-2.162 2.96-11.739 11.79-11.739 11.79l7.595 7.208 13.309-13.57s.824 4.586 4.608 5.46c0 0 2.54 6.874-2.025 12.16 0 0 30.686-.103 30.583 0-.103.103-4.497-6.796-1.854-11.636 2.643-4.84 3.673-8.58 3.673-8.58s6.075-3.33 2.952-12.7c0 0 20.474-2.739 21.298-12.062.531-6.007-9.326-14-16.405-18.926 0 0-1.95-1.158-5.013-.565a9.503 9.503 0 0 0-4.434 2.18.885.885 0 0 0 .718 1.535l.06-.009-.283.165a.783.783 0 0 0 .542 1.446l.205-.04-.389.243a.625.625 0 0 0 .571 1.105l.333-.138-.418.404a.657.657 0 1 0 .963.889c.565-.697 1.495-1.683 2.286-1.782 1.236-.155 1.39.746 2.78.772l3.357.06c.601.01 1.133.395 1.326.965.362 1.072.93 3.06 1.367 6.003l.206 5.046-10.529.875-1.828.334s-2.96-.9-5.225.13c-2.266 1.029-3.388 2.067-4.024 2.925-.636.858-9.18 7.732-9.18 7.732l-8.292-.103-6.124-2.376z"/>
        <path fill="#000" d="M245.38 107.778c-.026.077.772 5.071-.49 7.723-1.26 2.651 11.533.334 11.533.334v-2.78l-1.57-4.814 4.924-1.976c.587-.235.885-.89.678-1.486a2.63 2.63 0 0 0-.851-1.175c-.298-.241-.725-.636-.76-1.31-.052-.978.437-1.724.437-1.724l.595-.202a.954.954 0 0 0 .615-1.15l-.015-.055a.963.963 0 0 0-.976-.704c-.662.024-1.604-.109-2.176-.927-.952-1.365-.037-1.89-1.158-3.55-1.12-1.658-6.307-2.448-6.307-2.448l-5.921 5.226 1.442 11.018z"/>
        <path fill="#000" d="M241.415 98.665c-.54 1.415-2.188 4.35 0 7.49 2.188 3.142 5.097 3.322 6.024 2.035.927-1.288.386-2.884-.72-3.424-1.108-.54-1.88-1.802-1.082-2.96.798-1.16 2.626-.799 3.475.772.16.295.392.783.663 1.38l.753-.711s-2.137-2.369.67-4.3c0 0-.876-4.986 4.968-4.964l-.834-1.233c-.048-.072-5.937-1.01-5.937-1.01l-6.899 5.174-1.08 1.75z"/>
        <path fill="#FD7900" d="M240.874 100.08l-.253-4.551a5.208 5.208 0 0 1 2.619-4.824 29.775 29.775 0 0 1 3.298-1.591c.586-.243 1.157-.44 1.707-.6 2.111-.616 4.377.225 5.609 2.048l2.312 3.42s-7.311-1.624-15.292 6.098"/>
        <path fill="#000" d="M279.636 76.264c-.007-.77-.658-1.389-1.454-1.381-.024 0-.046.006-.07.007-.947-2.084-2.306-3.83-5.072-3.83-2.835 0-5.152 2.438-5.517 5.55-.624.157-1.084.705-1.078 1.358.006.71.56 1.284 1.269 1.365.71 2.66 2.885 4.588 5.445 4.565 3.111-.03 5.62-2.58 5.587-6.126 0-.069-.008-.136-.011-.204.532-.21.906-.714.9-1.304"/>
        <path fill="#FD7900" d="M269.175 153.918l-28.796-.193c-3.264-.022-5.573 2.372-6.732 5.275-.959 2.401-6.52 14.088-17.005 16.15l-3.004 1.113 1.905 9.749 2.368 1.03s8.214 5.094 18.484 3.476c10.127-1.596 16.218-5.93 22.603-13.276 6.384-7.346 12.768-8.324 15.085-7.552l-4.908-15.772z"/>
        <path fill="#000" d="M190.263 214.947s-4.994-1.287-12.717 2.574c-7.723 3.862-8.753 5.844-10.812 5.767-2.06-.077-3.965-.644-5.123.772-1.158 1.416-.463 2.832.412 3.733.875.9 2.497 1.982 2.574 4.376.077 2.394-2.265 7.337 3.192 9.886l3.527-2.111s-3.99-5.33-.952-10.117c3.037-4.789 13.85-5.69 13.85-5.69l6.435-.309-.386-8.881zM219.061 163.22c8.246-8.094 4.695-18.74.55-22.723-3.604-3.462-7.672-3.887-9.525-5.766-1.004-1.018-1.155-2.088-.988-3.117.16-.985.65-1.883 1.32-2.622.29-.32.59-.67.903-1.057 2.247-2.784.977-5.2.282-6.155a.495.495 0 0 1 .112-.69c.604-.444.63-1.084.481-1.445-.18-.437-.695-.669-1.055-.669s-1.287.36-2.291-.901c-1.004-1.261-2.369-2.574-3.313-3.184h-4.118s-5.492 7.071-5.492 7.346c0 .274.549 5.78.549 5.78l.116 2.109.673 2.7 3.35-1.02c1.284-.439 1.974.005 2.246 1.009.2.74-.197 1.514-.89 1.842-1.66.785-4.1 1.777-7.913 3.784-6.01 3.163-13.667 8.004-13.667 8.004l-39.167 22.785c-.267.156-.41.483-.298.77.143.366.58.502.903.294l1.455-.937a.61.61 0 0 0-.012.812c.206.24.573.263.834.085l1.707-1.164-.376.26c-.267.185-.395.535-.263.832.169.38.636.507.973.278l3.716-2.537-1.787 2.135c-.245.291-.271.729-.022 1.016a.763.763 0 0 0 1.168-.009 93.496 93.496 0 0 1 1.602-1.907c.55-.618 1.168-.79 2.85-1.99.923-.66 1.65-1.527 2.117-2.174a4.63 4.63 0 0 1 1.813-1.48l21.68-10.04a41.021 41.021 0 0 1 4.56-1.79l3.125-1.016c5.502-1.789 11.378 2.024 11.69 7.802.01.166.014.333.014.501v3.22c0 4.942-3.159 7.27-3.159 7.27 3.033-1.65 6.895-3.373 10.023-3.014 8.539.978 9.877 8.469 11.701 10.222-1.11-5.96-.823-10.85 1.823-13.449"/>
        <path fill="#000" d="M186.453 180.657l3.844-2.471 20.938-1.923-2.197 11.945-4.59 14.202s-4.634 15.96-5.715 18.046c-1.081 2.085-3.759 4.428-3.759 4.428l-18.046 16.476c-1.956 1.621-5.612 5.534-5.04 10.04.43 3.378 3.137 5.164 4.463 5.846.445.229.727.684.721 1.184v.058a1.307 1.307 0 0 1-1.185 1.285l-1.842.173c-2.986.258-5.586-.566-6.848-2.188-1.261-1.622-.772-5.149-1.158-7.002-.386-1.854-1.75-2.729-2.652-3.656-.9-.926-.824-2.265-.335-3.192.49-.927 1.39-1.236 2.935-1.725 1.545-.489 4.711-2.574 6.462-4.299 1.75-1.725 3.166-8.418 6.642-12.46 3.475-4.041 7.954-5.637 7.954-5.637.81-.405 1.458-.97 1.926-1.47a3.15 3.15 0 0 0 .835-2.28l-.495-12.726c-.354-4.23-.733-11.005-.935-14.825a3.145 3.145 0 0 0-2.716-2.944l.793-4.885z"/>
        <path fill="#FFF" d="M212.594 136.3c.272 5.073-3.092 16.69-13.921 22.671l-.18 5.372s4.178-5.568 12.107-8.348c4.55-1.595 9.555-1.157 12.997-.493 0 0 1.76-3.406-1.113-10.801-1.788-4.603-6.55-7.113-9.89-8.402"/>
        <path fill="#FD7900" d="M205.538 114.891c-2.54-.96-9.13-3.775-14.21 5.561-2.386 4.383-5.8 7.192-8.75 8.94 0 0 5.06 4.412 10.774 4.412 5.715 0 8.341-3.037 8.341-4.737 0-1.699-.892-2.282-1.596-2.728-.585-.371-1.167-.755-1.167-1.854 0-1.115 1.184-1.75 2.197-1.75.566 0 1.956-.618 1.956-2.008 0-1.39-.36-3.296.464-4.531.824-1.236 1.99-1.305 1.99-1.305M178.597 179.781c-.054.244-.642 1.02-4.52 3.307-6.004 3.541-12.028.224-12.028.224 12.202 13.672 24.442 2.466 24.442 2.466 3.59-3.787 5.898-5.388 5.898-5.388v-.001c1.615-.953 3.802-1.586 7.45-1.586 5.875 0 9.678 8.863 11.209 13.328.228 1.006.53 1.655.53 1.655l6.334-6.745-.21-4.319-.002-.058-.235-4.849s-2.06-10.957-11.927-11.368c-8.019-.335-11.327 4.565-15.488 6.994m-.07.04l-1.275.633c-3.927 1.85-10.13.004-10.13.004v5.56l.022.103.003-.015"/>
        <path fill="#000" d="M277.756 119.697l.834 1.617a.857.857 0 0 0 1.612-.495l-1.028-3.79a2.655 2.655 0 0 1 .734-2.624c1.901-1.804 5.498-5.42 5.674-7.134.135-1.307-.022-3.078-1.067-4.413-.82-1.048-2.187-1.827-4.39-1.902-5.012-.172-5.561 4.05-5.561 4.05l1.442 10.99 1.75 3.7z"/>
        <path fill="#000" d="M273.431 102.294c5.355-2.677 9.062.652 8.924 4.085-.096 2.405-3.883 7.154-6.142 9.78a3.501 3.501 0 0 0-.371 4.048l1 1.715a.885.885 0 0 1-1.585.756c-.391-.603-.948-1.389-1.45-1.826-.89-.778-2.532-1.38-2.054-2.4.477-1.02 2.365-3.526 2.948-5.62.584-2.094.704-3.364.704-3.364l-3.038-.309"/>
        <path fill="#000" d="M295.244 108.94c.531-6.007-9.326-14-16.405-18.926 0 0-1.95-1.158-5.013-.566a9.506 9.506 0 0 0-4.434 2.181.884.884 0 0 0 .718 1.535l.06-.008-.284.164a.783.783 0 0 0 .543 1.446l.205-.04-.389.243a.624.624 0 0 0 .571 1.105l.333-.138-.418.404a.656.656 0 1 0 .963.889c.565-.696 1.495-1.683 2.286-1.782 1.236-.155 1.39.746 2.78.772l3.357.06c.601.01 1.133.395 1.326.965.362 1.072.618 1.211 1.055 4.154"/>
        <path fill="#FD7900" d="M245.2 114.677s-.953 2.755-3.167 2.755-4.891.489-4.891.489 6.893 6.15 14.081 4.84c8.866-1.617 10.092-7.955 10.735-10.761 0 0-1.827 2.29-4.016 1.493a3.94 3.94 0 0 1-1.776-1.32s-2.137 2.839-5.38 3.147c-3.244.31-5.586-.643-5.586-.643"/>
        <path fill="#A885D8" fill-opacity=".2" fill-rule="nonzero" d="M164.122 1.588C144.286 5.076 133.4 41.835 141.935 74.14c8.535 32.305 61.71 11.794 61.71-30.38 0-42.173-19.688-45.662-39.523-42.173z"/>
        <path fill="#FB7900" fill-opacity=".2" fill-rule="nonzero" d="M170.874 135.939c5.934-3.19 5.884-14.025.122-21.467-5.76-7.441-20.61 4.02-16.608 15.015 4.002 10.996 10.551 9.642 16.486 6.452z"/>
    </g>
</svg>
