<svg xmlns="http://www.w3.org/2000/svg" xmlns:xlink="http://www.w3.org/1999/xlink" width="566" height="472" viewBox="0 0 566 472">
    <defs>
        <path id="a" d="M0 .281h388.8v61.582H0z"/>
        <path id="c" d="M.06.087h55.267v17.222H.059z"/>
        <path id="e" d="M0 139h400.596V.216H0z"/>
        <path id="g" d="M.51.081h286.2v163.72H.51z"/>
    </defs>
    <g fill="none" fill-rule="evenodd">
        <g opacity=".5">
            <g transform="translate(.346 410)">
                <mask id="b" fill="#fff">
                    <use xlink:href="#a"/>
                </mask>
                <path fill="#50BE87" d="M351.173 8.821a9.25 9.25 0 0 0-4-.057L314 17.841a9.245 9.245 0 0 1-3.409.062l-28.023-4.719a9.246 9.246 0 0 0-3-.012l-38.18 6.11a9.261 9.261 0 0 1-3.573-.127l-35.42-8.275a9.345 9.345 0 0 0-.57-.115L174.652 6.18a9.3 9.3 0 0 0-5.079.57l-22.95 9.369c-1.082.442-5.501-3.318-6.655-3.298L123.804 1.4c-1.611.028-26.211 15.78-27.66 14.997l-7.835-4.243a9.48 9.48 0 0 0-3.609-1.109l-8.38-.806c-2.97-.285-5.68-1.99-7.425-4.672C67.035 2.71 64.09.97 60.917.857l-15.87-.57c-2.585-.093-5.107.903-7.059 2.788l-7.04 6.797c-2.43 2.346-5.71 3.288-8.86 2.544L0 7.358v54.505h388.8L351.172 8.821z" mask="url(#b)"/>
            </g>
            <g transform="translate(.346 332)">
                <path fill="#C19372" d="M194.23 63.942a.798.798 0 0 1-1.206.686l-14.077-8.469a9.899 9.899 0 0 0-4.82-1.388l-4.12-.1a.844.844 0 0 1-.64-.318l-6.943-8.727a.843.843 0 0 0-.66-.318h-8.307a.843.843 0 0 1-.635-.289l-2.263-2.732a.811.811 0 0 0-.663-.29c-1.111.089-1.437 1.202-.876 1.845l2.81 3.36c.161.183.393.288.636.288h8.246c.257 0 .5.118.66.318l4.275 5.373a.843.843 0 0 1-.68 1.369l-6.468-.156a.82.82 0 0 1-.14-.016l-9.404-1.812a.842.842 0 0 1-.39-.188l-3.223-2.763c-.647-.553-1.754-.22-1.836.89a.811.811 0 0 0 .296.664l3.66 3.137c.192.164.423.276.671.324l6.483 1.25a.844.844 0 0 1 .371 1.484l-2.336 1.886a.82.82 0 0 0-.315.67c.04.764.577 1.172 1.123 1.172.24 0 .483-.08.685-.242l3.712-2.998c.103.022.208.038.317.042l16.5.563a.845.845 0 0 1 .532.213l6.808 6.055a.844.844 0 0 1-.405 1.46l-8.675 1.622a.842.842 0 0 1-.46-.043L161.7 63.601c-.794-.306-1.727.377-1.433 1.452a.81.81 0 0 0 .5.526L172.2 70a1.095 1.095 0 0 0 .593.054l11.867-2.22c.442-.082.898.045 1.234.343l4.57 4.065c.31.276.488.672.488 1.087v7.393a.843.843 0 0 1-1.286.718l-8.432-5.21a.842.842 0 0 0-.214-.095l-22.164-6.268a.843.843 0 0 1-.486-.364l-3.898-6.238a.842.842 0 0 0-.536-.377l-7.695-1.672a.843.843 0 0 1-.447-.259l-3.924-4.35a.843.843 0 0 0-.612-.28l-9.016-.145a.843.843 0 0 1-.82-.708l-.785-4.828a.846.846 0 0 0-.503-.644c-.884-.37-1.627.33-1.504 1.09l1.043 6.406c.066.403.41.702.82.708l9.839.16a.844.844 0 0 1 .613.278l3.767 4.179a.843.843 0 0 0 .448.26l7.495 1.627a.844.844 0 0 1 .536.377l1.254 2.007c.408.654-.203 1.468-.945 1.259l-3.226-.913a5.809 5.809 0 0 0-1.583-.22h-20.225a.843.843 0 0 1-.795-.563l-3.292-9.364a.844.844 0 0 0-.5-.51l-10.683-3.99a.844.844 0 0 1-.263-.157l-4.795-4.232a.812.812 0 0 0-.696-.2c-1.09.231-1.269 1.377-.63 1.94l4.98 4.396a.841.841 0 0 0 .264.157l10.103 3.773a.843.843 0 0 1 .5.51l1.807 5.14a.844.844 0 0 1-.71 1.119l-7.546.777a.84.84 0 0 0-.522.254l-4.321 4.494a.844.844 0 0 1-.742.248l-6.77-1.09a.77.77 0 0 0-.244 1.52l7.602 1.224a.77.77 0 0 0 .677-.226l4.517-4.696a.842.842 0 0 1 .521-.254l7.756-.8a.843.843 0 0 1 .882.56l.65 1.85c.02.064.04.127.067.188l.003.008c.005.016.017.028.023.044.027.054.053.107.085.157.042.069.09.13.144.187.016.017.035.032.051.049.039.034.073.074.115.103.225.18.502.3.81.324l14.071 1.055a.844.844 0 0 1 .626 1.33l-4.029 5.685a.844.844 0 0 1-.48.33l-13.295-.327a1.09 1.09 0 1 0 .54 2.115l13.99.424a.844.844 0 0 0 .479-.33l4.816-6.977a.843.843 0 0 1 1.297-.096l2.605 2.714c.47.489 1.02.892 1.628 1.191l12.733 6.267c.062.03.12.069.174.114l15.768 13.427c.189.16.297.395.297.643v20.272h36.585l-1.016-28.126a.844.844 0 0 1 .675-.857L242 83.496a2.909 2.909 0 0 0 1.19-.542l2.74-2.104a.843.843 0 0 1 .793-.126l11.404 4.012a1.093 1.093 0 0 0 .83-.044l10.404-4.943a.811.811 0 0 0 .459-.561c.214-1.093-.77-1.708-1.538-1.342l-9.541 4.533a.843.843 0 0 1-.642.034l-8.271-2.91a.844.844 0 0 1-.234-1.466l6.035-4.631a.847.847 0 0 1 .315-.151l7.289-1.764a.845.845 0 0 1 .372-.006l7.093 1.646a1.07 1.07 0 0 0 .453 0l7.824-1.668c.832-.177 1.239-1.262.405-2a.81.81 0 0 0-.706-.167l-7.577 1.615a.845.845 0 0 1-.35 0l-5.195-1.245a.844.844 0 0 1-.648-1.014l1.155-5.044a.843.843 0 0 1 .662-.64l4.147-.814a.811.811 0 0 0 .582-.425c.486-1.003-.312-1.853-1.151-1.687l-5.388 1.054a.843.843 0 0 0-.661.64l-1.645 7.18a.844.844 0 0 1-.623.633l-6.847 1.657c-.169.008-.338.05-.494.138l-.01.005-.054.03-11.315 6.377a2.911 2.911 0 0 1-1.013.345l-30.467 4.388a2.474 2.474 0 0 1-2.645-1.519l-1.162-6.793a.799.799 0 0 1 .356-.965l2.613-1.688a.844.844 0 0 1 .737-.087l10.892 3.832a1.091 1.091 0 0 0 .83-.044l10.405-4.942a.81.81 0 0 0 .458-.562c.214-1.093-.769-1.706-1.538-1.342l-9.54 4.533a.843.843 0 0 1-.643.034l-7.312-2.572a.843.843 0 0 1-.178-1.505l8.444-5.453c.08-.046.151-.1.217-.16a.798.798 0 0 1 .388-.193l11.401-2.269a.843.843 0 0 1 .863.355l3.608 5.336a.843.843 0 0 0 .7.37h8.907a.81.81 0 0 0 .654-.309c.664-.894.04-1.872-.812-1.872h-7.591a.843.843 0 0 1-.699-.371l-2.903-4.294a.843.843 0 0 1 .026-.982l5.042-6.66a.811.811 0 0 0 .148-.709c-.314-1.068-1.47-1.16-1.984-.482l-5.338 7.052a.843.843 0 0 1-.508.318l-13.015 2.59c-.135.028-.258.08-.368.15L218.052 63a.844.844 0 0 1-1.102-1.095l1.582-3.936a.844.844 0 0 1 .44-.457l7.6-3.378a.844.844 0 0 0 .498-.704l.57-7.185a.818.818 0 0 0-.284-.704c-.845-.68-1.837-.142-1.903.696l-.455 5.727a.844.844 0 0 1-.498.704l-7.222 3.21a.844.844 0 0 0-.44.456l-3.431 8.535-.012.039-6.248 2.56a.843.843 0 0 1-1.163-.762l-.842-19.68.03-.238 1.516-5.636a.844.844 0 0 1 1.106-.572l6.14 2.264a1.095 1.095 0 0 0 .502.06l11.316-1.3a.81.81 0 0 0 .615-.383c.557-.965-.174-1.864-1.021-1.767l-10.701 1.23a.847.847 0 0 1-.388-.047l-3.77-1.39c-.712-.262-.741-1.26-.044-1.565l6.513-2.839a.841.841 0 0 1 .383-.069l12.778.702c.102.007.205-.003.305-.026l7.717-1.781a.812.812 0 0 0 .569-.45c.445-1.023-.383-1.831-1.212-1.641l-7.297 1.684a.85.85 0 0 1-.236.02l-12.962-.712c-.171-.011-.34.02-.496.089l-6.925 3.019a.844.844 0 0 1-1.151-.993l.609-4.032c.07-.26.26-.471.511-.568L217.547 27a.842.842 0 0 1 .332-.056l4.586.15c.306.007.608-.091.848-.285l3.604-2.911a.844.844 0 0 1 .589-.185l8.438.596c1.018.075 1.845-1.072 1.064-2.192a.84.84 0 0 0-.63-.35l-9.526-.672a1.27 1.27 0 0 0-.897.281l-3.639 2.94a.843.843 0 0 1-.557.187l-4.318-.14a.846.846 0 0 0-.33.056l-6.955 2.681a.843.843 0 0 1-1.116-.56l-1.259-4.507a.845.845 0 0 1 .02-.516l1.658-4.538a.844.844 0 0 1 .395-.454l6.553-3.502a.846.846 0 0 1 .469-.097l7.175.606c.852.075 1.554-.853.967-1.798a.81.81 0 0 0-.625-.363l-7.903-.667c-.212-.02-.42.025-.606.124l-4.956 2.649a.843.843 0 0 1-1.24-.737l-.08-8.708c-.01-1.061-1.346-1.806-2.334-.783a.85.85 0 0 0-.233.595l.107 11.827a.84.84 0 0 1-.05.298l-1.99 5.443a.843.843 0 0 0-.02.517l1.8 6.445a.843.843 0 0 1-.09.665l-4.726 6.711a.798.798 0 0 1-1.243.297l-11.61-9.522a.844.844 0 0 1-.308-.653V22.69c0-.117.024-.232.07-.338l5.112-11.673a.843.843 0 0 1 .773-.505h5.439a.811.811 0 0 0 .654-.31c.664-.894.04-1.872-.812-1.872h-6.707a.844.844 0 0 0-.773.505l-4.709 10.752a.844.844 0 0 1-1.37.257l-6.345-6.362a.842.842 0 0 0-.59-.247l-8.815-.083h-.167c-.251 0-.5.105-.652.306-.666.888-.052 1.868.799 1.877l7.922.073a.846.846 0 0 1 .59.248l7.152 7.171a.844.844 0 0 1 .247.596v1.893a.843.843 0 0 1-.704.832l-8.931 1.498a.843.843 0 0 1-.891-.45l-2.804-5.508a2.909 2.909 0 0 0-2.309-1.575l-8.852-.868a.847.847 0 0 1-.43-.17l-3.49-2.665c-.676-.516-1.761-.122-1.783.99a.81.81 0 0 0 .332.647l4.11 3.14a.841.841 0 0 0 .43.17l9.074.888c.494.049.929.346 1.154.788l2.071 4.07a.844.844 0 0 1-.612 1.214l-5.837.979a.844.844 0 0 1-.5-.07l-7.573-3.581c-.015-.008-.032-.007-.048-.014a.765.765 0 0 0-.478-.051l-10.118 2.215c-.396.087-.708.445-.663.848a.77.77 0 0 0 .93.67l9.5-2.08a.843.843 0 0 1 .6.092l7.281 4.187a.845.845 0 0 0 .42.113h15.965c.807 0 1.577.335 2.127.925l10.923 11.72a.799.799 0 0 1 .215.544l-1.607 19.466z"/>
                <path fill="#0A6E31" d="M217.53 49.22l7.282-4.753a2.002 2.002 0 0 1 1.804-.196l1.39.527c.668.254 1.42.132 1.975-.32l1.33-1.084a2.002 2.002 0 0 1 2.088-.272l5.267 2.38c.578.26.998.78 1.133 1.398a2.002 2.002 0 0 0 2.138 1.57l3.884-.354a2.002 2.002 0 0 1 1.484.474l1.273 1.091a2 2 0 0 0 1.303.482h7.14c.802 0 1.526.478 1.841 1.214l.266.622a2.002 2.002 0 0 1-1.469 2.756l-13.149 2.481a2.003 2.003 0 0 1-.878-.03l-10.777-2.822a2 2 0 0 0-.706-.055l-14.307 1.43a2.001 2.001 0 0 1-1.247-.285l-3.057-1.88c-1.586-.973-1.101-3.394.737-3.683l2.472-.389a2.01 2.01 0 0 0 .783-.301M204.278 10.123l-11.823-6.357a1.366 1.366 0 0 0-1.474.115l-4.91 3.734c-.29.22-.654.315-1.013.266l-8.387-1.146a1.367 1.367 0 0 0-1.37.671l-1.712 2.973a1.367 1.367 0 0 1-.738.61l-5.755 1.987a1.366 1.366 0 0 0 .513 2.657l15.73-.766c.088-.005.175 0 .261.012l13.078 1.877c.312.045.63-.02.9-.183l6.759-4.076a1.367 1.367 0 0 0-.059-2.374M121.063 55.672l8.642 1.28a2.179 2.179 0 0 0 1.69-.46l7.31-5.905a2.18 2.18 0 0 1 1.888-.422l13.153 3.212c.332.082.68.083 1.013.006l18.014-4.204c2.112-.493 2.289-3.432.252-4.175l-17.79-6.492a2.18 2.18 0 0 0-1.302-.06l-11.855 3.12a2.182 2.182 0 0 1-.97.032l-8.575-1.66a2.181 2.181 0 0 0-2.312 1.067l-4.634 8.177a2.182 2.182 0 0 1-1.191.99l-3.719 1.272c-2.163.74-1.875 3.887.386 4.222M254.387 65.36l7.192 3.095c.21.09.44.118.666.081l7.445-1.228a1.2 1.2 0 0 1 .702.098l7.397 3.474a1.2 1.2 0 0 0 .495.113l10.254-.34c1.157.011 1.654-1.464.725-2.155l-3.977-2.958a1.195 1.195 0 0 0-.538-.223l-6.14-1.06a1.197 1.197 0 0 1-.713-.383l-4.932-5.481a1.195 1.195 0 0 0-.97-.393l-13.308.919c-.3.02-.581.154-.787.373l-3.908 4.15a1.195 1.195 0 0 0 .397 1.918M144.219 29.17l6.365.761c.472.057.942-.121 1.258-.476l2.7-3.03c.3-.336.739-.515 1.188-.483l2.458.173c1.247.088 2.016-1.335 1.26-2.331l-.99-1.303a1.454 1.454 0 0 0-1.266-.57l-8.358.625a1.457 1.457 0 0 0-.815.326l-4.55 3.74c-.99.812-.522 2.415.75 2.568M119.332 46.497l-6.217-1.564c-.461-.116-.95 0-1.309.313l-3.063 2.662c-.34.295-.797.416-1.24.328l-2.415-.484c-1.226-.246-2.17 1.068-1.546 2.152l.817 1.418c.245.427.69.7 1.183.727l8.369.442c.299.016.596-.062.85-.22l4.989-3.13c1.084-.682.824-2.331-.418-2.644M214.534 25.624l17.104 1.64c.3.029.601-.035.863-.182l7.84-4.398c1.213-.681.9-2.508-.47-2.745l-10.302-1.783a1.478 1.478 0 0 0-1.175.302l-4.866 3.894c-.262.21-.587.324-.923.324h-7.93c-.34 0-.67.118-.935.333-1.021.836-.519 2.489.794 2.615M124.732 65.693l-7.745-2.97a1.188 1.188 0 0 0-1.163.178l-5.808 4.594c-.254.2-.578.289-.899.245l-6.849-.94a1.189 1.189 0 0 0-1.06.4l-2.634 3.046c-.704.813-.051 2.069 1.019 1.96l12.238-1.25c.091-.009.184-.007.275.005l10.76 1.415c.58.077 1.13-.282 1.295-.844l1.286-4.395a1.189 1.189 0 0 0-.715-1.444M227.369 30.722l1.55 3.102c.159.316.5.499.85.454l7.858-1a.848.848 0 0 1 .194-.002l5.85.63c.905.097 1.288-1.12.49-1.558l-5.698-3.125a.832.832 0 0 0-.579-.084l-5.864 1.288a.833.833 0 0 1-.392-.009l-3.301-.874a.833.833 0 0 0-.958 1.178M231.318 12.172l-2.147-4.633c-.219-.473-.619-.719-.997-.614l-8.47 2.349a.64.64 0 0 1-.213.022l-6.505-.374c-1.006-.058-1.25 1.863-.312 2.457l6.697 4.244a.69.69 0 0 0 .647.069l6.243-2.589a.661.661 0 0 1 .43-.027l3.747 1.013c.786.212 1.324-.96.88-1.917M153.465 64.572l4.712 4.257a1.455 1.455 0 0 0 1.686.19l5.292-2.965c.14-.078.29-.132.447-.161l8.32-1.533a1.454 1.454 0 0 0 1.191-1.43v-4.262c0-.803-.651-1.455-1.454-1.455h-7.815c-.311 0-.614.1-.864.285l-5.188 3.835a1.453 1.453 0 0 1-.732.279l-4.751.432c-1.263.114-1.785 1.678-.844 2.528M138.198 78.041l-2.643-3.723a1.045 1.045 0 0 0-1.154-.396l-4.176 1.255c-.11.033-.224.048-.34.044l-6.078-.222a1.046 1.046 0 0 0-1.058.818l-.665 2.991c-.125.564.23 1.123.794 1.248l5.485 1.219c.218.048.446.025.65-.065l4.24-1.883c.174-.077.367-.106.557-.08l3.402.437c.904.116 1.514-.9.986-1.643M202.815 5.74l2.847.632c.224.05.457.046.68-.01l3.462-.895c.208-.053.425-.06.636-.02l4.603.877c.415.079.844-.026 1.175-.289l.792-.626a1.455 1.455 0 0 0-.305-2.467L210.95.345a1.454 1.454 0 0 0-1.605.277l-2.067 1.986c-.377.363-.92.494-1.421.346l-2.105-.625a1.454 1.454 0 0 0-1.788.918l-.207.597a1.455 1.455 0 0 0 1.059 1.896M222.426 71.121l6.432.822c.152.02.305.021.457.005l12.204-1.257c.067-.007.135-.01.204-.01 1.865 0 2.708-2.333 1.274-3.526l-4.352-3.621a1.994 1.994 0 0 0-2.27-.195l-5.821 3.357a1.993 1.993 0 0 1-2.09-.06l-2.685-1.764a1.993 1.993 0 0 0-2.672.45l-2.007 2.605c-.94 1.22-.201 3 1.326 3.194M153.396 20.216l4.107-1.84a1.187 1.187 0 0 1 1.076.053l2.95 1.689c.228.131.494.182.755.145l3.77-.53c1.137-.16 1.407-1.683.393-2.225l-3.145-1.681a1.191 1.191 0 0 0-.273-.105l-6.157-1.53a1.187 1.187 0 0 0-1 .202l-4.236 3.177c-.13.099-.28.169-.44.206l-.839.198a1.188 1.188 0 0 0 .273 2.345h2.28c.168 0 .334-.035.486-.104M260.168 81.525l4.924.473c.224.021.449-.01.658-.09l6.092-2.326c.355-.135.75-.126 1.1.026l3.397 1.312c.56.244 1.213.112 1.633-.33l.548-.575a1.455 1.455 0 0 0-.424-2.315l-4.017-1.919a1.452 1.452 0 0 0-1.033-.086l-4.715 1.362a1.453 1.453 0 0 1-1.234-.204l-3.694-2.57a1.454 1.454 0 0 0-2.135.551l-2.265 4.6a1.455 1.455 0 0 0 1.165 2.091M214.923 40.096v.94a1.99 1.99 0 0 0 1.36 1.887l2.61.873c.44.147.917.136 1.35-.032l5.352-2.07c.268-.104.554-.148.84-.13l9.472.584c.49.03.974-.122 1.36-.427l.535-.425c1.229-.975.9-2.922-.58-3.44l-4.617-1.611a1.99 1.99 0 0 0-1.185-.04l-5.168 1.428a1.988 1.988 0 0 1-1.05.002l-5.014-1.355a1.99 1.99 0 0 0-1.646.281l-2.756 1.895a1.99 1.99 0 0 0-.863 1.64"/>
                <path fill="#C19372" d="M331.144 77.657a.537.537 0 0 0-.176-.128l-8.674-3.96a.542.542 0 0 1-.158-.11L318.8 70.12a.544.544 0 0 0-.67-.076c-.302.181-.335.575-.098.836l3.054 3.351.14.111 8.694 4.725c.06.033.113.076.156.129l4.602 5.523c.095.114.14.263.12.411l-.926 7.51v.127l.94 8.302a.54.54 0 0 1-.774.545l-5.529-2.725a.539.539 0 0 1-.288-.37l-1.17-5.366a.537.537 0 0 1 .075-.409l2.155-3.325a.54.54 0 0 0-.452-.834h-.047a.54.54 0 0 0-.423.205l-1.982 2.497a.54.54 0 0 1-.82.028l-2.367-2.592a.423.423 0 0 0-.312-.138h-.02a.54.54 0 0 0-.412.889l2.83 3.34a.54.54 0 0 1 .123.274l.604 4.345a.54.54 0 0 1-.667.597l-5.139-1.3a.54.54 0 0 1-.387-.377l-1.162-4.141a.544.544 0 0 1-.012-.238l.501-2.895a.421.421 0 0 0-.415-.494h-.02a.422.422 0 0 0-.409.321l-.2.815a.54.54 0 0 1-.953.199l-.89-1.169a.421.421 0 0 0-.335-.166h-.091c-.35 0-.547.401-.335.678l1.943 2.532a.538.538 0 0 1 .107.262l.124 1a.54.54 0 0 1-.917.448l-2.898-2.899a.538.538 0 0 0-.285-.15l-6.006-1.091a.54.54 0 0 1-.312-.179l-3.953-4.582a.538.538 0 0 0-.409-.188h-.545a.54.54 0 0 0-.42.88l4.183 5.148c.073.09.173.155.286.183l6.498 1.648a.54.54 0 0 1 .281.177l5.652 6.765a.54.54 0 0 0 .284.178l8.592 2.148c.067.017.13.046.185.086l5.954 4.296a.54.54 0 0 1 .196.61l-1.896 5.588a.533.533 0 0 0-.027.217l.5 6.106-.012.162-.73 3.288a.534.534 0 0 1-.08.185l-1.963 2.903h13.87l-2.231-2.697a.535.535 0 0 1-.11-.22l-1.866-7.934a.539.539 0 0 1 .005-.267l1.754-6.374a.542.542 0 0 1 .145-.244l9.527-9.245a.538.538 0 0 1 .23-.133l10.203-2.835.144-.02h5.928a.54.54 0 0 0 .423-.203l4.95-6.235a.539.539 0 0 1 .226-.166l7.364-2.88a4.908 4.908 0 0 0 1.19-.668l7.289-5.554h-1.248l-5.676 3.758 1.046-3.298a.54.54 0 0 0-.475-.701l-.24-.017a.54.54 0 0 0-.554.377l-1.332 4.248a.54.54 0 0 1-.337.348l-6.221 2.17.809-3.659 2.098-3.226h-1.02l-1.901 2.94-1.608 4.074a3.695 3.695 0 0 1-.6 1.01l-3.194 3.821c-.347.418-1.024.118-.949-.42l.942-6.749a.535.535 0 0 1 .096-.24l2.705-3.769c.2-.278 0-.667-.343-.667h-.109c-.13 0-.254.061-.334.165l-2.002 2.605a.54.54 0 0 1-.895-.057l-1.456-2.503a.421.421 0 0 0-.738.406l1.862 3.594a.54.54 0 0 1 .043.382l-2.11 8.263a.54.54 0 0 1-.531.406l-4.176-.059-.11.01-8.232 1.58a.54.54 0 0 1-.554-.823l1.221-1.88c.04-.06.09-.112.15-.152l5.529-3.756a.54.54 0 0 0 .188-.223l3.274-7.194a.54.54 0 0 0-.49-.764h-.018a.54.54 0 0 0-.484.302l-3.462 7.062a.54.54 0 0 1-.224.235l-5.695 3.142a.536.536 0 0 0-.19.177l-2.96 4.533-.098.113-7.712 6.695a.54.54 0 0 1-.891-.45l.554-6.812a.54.54 0 0 1 .108-.283l5.036-6.622a.54.54 0 0 1 .176-.15l10.039-5.349a.538.538 0 0 0 .24-.259l1.327-3.023a.54.54 0 0 0-.494-.756h-.3a.54.54 0 0 0-.472.28l-1.4 2.553c-.055.1-.14.18-.243.229l-2.782 1.313c-.494.234-.982-.33-.68-.786l.907-1.364a.54.54 0 0 0-.416-.838l-.193-.012a.539.539 0 0 0-.481.239l-3.017 4.51a.54.54 0 0 1-.219.187l-3.25 1.536a.538.538 0 0 0-.195.155l-5.123 6.548-.878 1.21a.54.54 0 0 1-.955-.167l-.17-.586-.021-.145.186-8.77 4.64-5.867a.538.538 0 0 0 .124-.26l.869-4.925a.54.54 0 0 0-.532-.633h-.213a.54.54 0 0 0-.534.464l-.339 2.403a.54.54 0 0 1-.948.271l-2.465-2.945a.54.54 0 0 0-.414-.193h-.21a.54.54 0 0 0-.42.878l3.164 3.93a.54.54 0 0 1-.043.725l-4.16 4.506-4.314-4.653z"/>
                <g transform="translate(345.27 66.966)">
                    <mask id="d" fill="#fff">
                        <use xlink:href="#c"/>
                    </mask>
                    <path fill="#0A6E31" d="M52.997 17.31H4.44a2.33 2.33 0 0 1-1.837-.898l-2.05-2.629a2.33 2.33 0 0 1-.133-2.677L1.647 9.16c.139-.22.24-.46.299-.713l.581-2.484A2.33 2.33 0 0 1 4.62 4.171l4.287-.324c.245-.019.49.002.728.06l6.527 1.592a2.33 2.33 0 0 0 1.874-.345l2.898-1.996c1.4-.964 2.97-1.655 4.626-2.038l2.978-.687c1.345-.31 2.73-.413 4.107-.304l3.418.27a13.518 13.518 0 0 1 7.517 3.035l.723.595c.219.18.403.398.543.643l.916 1.603a2.33 2.33 0 0 0 1.191 1.021l3.333 1.272a2.33 2.33 0 0 1 1.439 1.653c.16.697.367 1.448.52 1.5.155.05 1.032.491 1.81.888a2.33 2.33 0 0 1 1.273 2.076v.294a2.33 2.33 0 0 1-2.33 2.33" mask="url(#d)"/>
                </g>
                <path fill="#0A6E31" d="M341.49 89.986h-48.961a2.14 2.14 0 0 1-1.397-.519l-6.162-5.306a2.142 2.142 0 0 1 .036-3.275l2.365-1.95a2.141 2.141 0 0 1 1.146-.477l9.107-.923a2.14 2.14 0 0 0 1.582-.967l1.243-1.92a2.14 2.14 0 0 1 1.98-.97l15.365 1.318c.167.014.33.047.489.1l10.01 3.304c.246.081.504.117.763.106l3.93-.167a2.14 2.14 0 0 1 1.914 1.017l2.949 4.793c.301.49.788.838 1.349.966l2.766.628a2.141 2.141 0 0 1 1.667 2.089v.012a2.141 2.141 0 0 1-2.141 2.141M316.287 73.532l-6.896-2.37a2.563 2.563 0 0 0-.833-.14h-5.831c-.292 0-.582-.05-.856-.147l-4.178-1.482a2.56 2.56 0 0 1-1.65-2.936v-.001a2.56 2.56 0 0 1 2.24-2.025l7.864-.819c.106-.01.211-.028.315-.053l8.387-1.95 6.433-1.827a25.29 25.29 0 0 1 14.233.123l5.536 1.676c.064.019.128.035.193.05l8.07 1.772c.568.125 1.077.44 1.442.891l3.453 4.273c.85 1.05.736 2.58-.258 3.495l-1.014.933a2.561 2.561 0 0 1-1.734.676h-34.084c-.283 0-.565-.047-.832-.139"/>
                <path fill="#C19372" d="M23.531 31.634h1.05c.434 0 .841.21 1.092.564l6.164 8.704c.173.245.423.424.71.51l7.62 2.26a1.337 1.337 0 0 0 1.578-.688l4.284-8.658c.092-.184.139-.388.139-.593v-1.767c0-.738.599-1.337 1.337-1.337h.139c.738 0 1.337.599 1.337 1.337v2.273c0 .138-.021.275-.064.408l-2.748 8.577c-.259.81.293 1.653 1.139 1.738l6.324.64a1.337 1.337 0 0 0 1.362-.8l3.863-8.956c.11-.256.138-.54.078-.813l-.56-2.582a1.337 1.337 0 0 1 1.306-1.62h.65c.547 0 1.039.332 1.242.84l.611 1.529a1.337 1.337 0 0 0 2.062.559l3.66-2.848c.235-.183.524-.282.821-.282h.008c1.28 0 1.828 1.624.812 2.4l-7.524 5.747c-.249.19-.423.46-.492.764l-1.009 4.413a1.337 1.337 0 0 0 1.641 1.592l15.332-4.008c.143-.037.28-.099.403-.18l7.426-4.953c.147-.098.273-.224.371-.37l3.474-5.211a1.336 1.336 0 0 1 1.112-.596h.462a1.337 1.337 0 0 1 1.177 1.971l-3.007 5.584a1.34 1.34 0 0 1-.415.465L77.73 45.718a1.314 1.314 0 0 1-.253.138L61.68 52.369c-.51.21-.838.711-.827 1.263l1.403 71.32H42.256l1.405-71.44a1.338 1.338 0 0 0-.69-1.197l-12.787-7.057a1.337 1.337 0 0 1-.472-.437l-7.298-11.116a1.337 1.337 0 0 1 1.117-2.07"/>
                <path fill="#0A6E31" d="M32.86 41.439H9.943a1.894 1.894 0 0 1-1.624-.92l-.64-1.068a1.893 1.893 0 0 0-1.357-.9l-3.685-.527a1.894 1.894 0 0 1-1.609-2.131l.109-.796a1.893 1.893 0 0 1 1.573-1.613l4.939-.801c.318-.052.619-.184.872-.385l3.514-2.782a1.892 1.892 0 0 1 1.175-.409H30.47c.433 0 .853.148 1.19.42l3.974 3.211c.191.155.41.27.646.341l6.022 1.807a1.894 1.894 0 0 1 1.272 1.28v.001a1.894 1.894 0 0 1-1.586 2.414l-5.913.724a1.894 1.894 0 0 0-1.367.863l-.25.393c-.348.547-.95.878-1.598.878"/>
                <path fill="#0A6E31" d="M17.955 15.717l14.726-4.115c.207-.058.42-.087.635-.087h25.288c.494 0 .975.155 1.376.443l7.71 5.536a2.36 2.36 0 0 0 1.376.443h13.917c.85 0 1.634.457 2.054 1.196l2.542 4.488a2.359 2.359 0 0 0 2.053 1.196h5.03a2.36 2.36 0 0 1 2.202 1.513l.478 1.243a2.36 2.36 0 0 1-2.202 3.208H77.607c-.385 0-.764.094-1.104.274l-2.849 1.508c-.349.185-.739.279-1.134.274l-33.887-.432a2.359 2.359 0 0 1-2.127-1.401l-.597-1.345a2.36 2.36 0 0 0-2.157-1.401H18.836a2.359 2.359 0 0 1-1.669-.692l-5.03-5.052a1.7 1.7 0 0 1 .158-2.54l5.072-3.96c.175-.136.375-.237.588-.297"/>
                <path fill="#0A6E31" d="M108.802 39.177H76.136c-.615 0-1.201-.26-1.615-.714l-.822-.905c-.413-.455-1-.714-1.614-.714h-2.427c-1.64 0-2.694-1.742-1.933-3.195l.047-.09a2.182 2.182 0 0 1 1.933-1.17h6.994c.388 0 .77-.103 1.104-.299l5.128-3.006c.334-.197.715-.3 1.103-.3h17.024c.537 0 1.055.198 1.454.556l2.787 2.494c.4.358.918.556 1.455.556h7.872c.54 0 1.06.2 1.46.56l.67.603c1.28 1.151.785 3.26-.871 3.724l-6.495 1.82c-.192.053-.39.08-.588.08"/>
                <mask id="f" fill="#fff">
                    <use xlink:href="#e"/>
                </mask>
                <path fill="#FF7900" d="M217.59 130.938H296v-27.632h-78.41z" mask="url(#f)"/>
                <path fill="#595959" d="M230.973 117.98h8.609v-9.576h-8.609zM274.008 117.98h8.608v-9.576h-8.608z" mask="url(#f)"/>
                <path fill="#000" d="M262.592 130.943h-11.595V114.45c0-3.2 2.594-5.794 5.794-5.794h.007c3.2 0 5.794 2.595 5.794 5.794v16.493z" mask="url(#f)"/>
                <path fill="#B8EBD6" d="M216.433 103.488h80.746V94.24h-80.746z" mask="url(#f)"/>
                <path fill="#D6D6D6" d="M296.471 88.076c-.25 0-.539.098-.708.288-.17.19-.459.288-.708.288-.25 0-.54-.099-.709-.288-.169-.19-.458-.288-.708-.288-.25 0-.54.098-.708.288-.17.19-.46.288-.709.288-.25 0-.539-.099-.708-.288-.169-.19-.459-.288-.708-.288-.25 0-.54.098-.709.288-.169.19-.458.288-.708.288-.25 0-.539-.099-.708-.288-.17-.19-.459-.288-.708-.288-.25 0-.54.098-.709.288-.169.19-.459.288-.708.288-.25 0-.54-.099-.708-.288-.17-.19-.46-.288-.708-.288-.25 0-.54.098-.709.288-.17.19-.459.288-.708.288-.25 0-.54-.099-.709-.288-.169-.19-.458-.288-.708-.288-.25 0-.539.098-.708.288-.17.19-.46.288-.708.288-.25 0-.54-.099-.709-.288-.169-.19-.459-.288-.708-.288-.25 0-.54.098-.708.288-.17.19-.46.288-.709.288-.249 0-.539-.099-.708-.288-.17-.19-.459-.288-.708-.288-.25 0-.54.098-.708.288-.17.19-.46.288-.709.288-.25 0-.539-.099-.708-.288-.17-.19-.459-.288-.709-.288-.249 0-.538.098-.708.288-.169.19-.459.288-.708.288-.25 0-.54-.099-.708-.288-.17-.19-.46-.288-.709-.288-.249 0-.539.098-.708.288-.17.19-.459.288-.708.288-.25 0-.54-.099-.708-.288-.17-.19-.46-.288-.71-.288-.248 0-.538.098-.707.288-.17.19-.459.288-.709.288-.249 0-.539-.099-.708-.288-.169-.19-.458-.288-.708-.288-.25 0-.54.098-.708.288-.17.19-.459.288-.709.288-.25 0-.539-.099-.708-.288-.169-.19-.459-.288-.708-.288-.25 0-.54.098-.709.288-.169.19-.458.288-.708.288-.25 0-.54-.099-.708-.288-.17-.19-.459-.288-.708-.288-.25 0-.54.098-.709.288-.169.19-.459.288-.708.288-.25 0-.54-.099-.709-.288-.148-.166-.388-.262-.613-.284a.941.941 0 0 0-.287.014.924.924 0 0 0-.516.27c-.17.19-.459.288-.708.288-.25 0-.54-.099-.709-.288-.169-.19-.459-.288-.708-.288-.25 0-.539.098-.708.288-.17.19-.46.288-.708.288-.25 0-.54-.099-.709-.288-.17-.19-.459-.288-.708-.288-.25 0-.54.098-.708.288-.17.19-.46.288-.709.288-.25 0-.539-.099-.708-.288-.17-.19-.46-.288-.708-.288-.25 0-.54.098-.709.288-.169.19-.459.288-.708.288-.25 0-.54-.099-.708-.288-.17-.19-.46-.288-.709-.288-.249 0-.538.098-.708.288-.17.19-.459.288-.708.288-.25 0-.54-.099-.708-.288-.17-.19-.46-.288-.709-.288-.249 0-.539.098-.708.288-.17.19-.459.288-.708.288-.25 0-.54-.099-.709-.288-.169-.19-.459-.288-.708-.288-.25 0-.539.098-.708.288-.17.19-.46.288-.709.288-.249 0-.539-.099-.708-.288-.169-.19-.459-.288-.708-.288-.25 0-.54.098-.708.288-.17.19-.46.288-.709.288-.25 0-.539-.099-.708-.288-.17-.19-.459-.288-.708-.288-.25 0-.54.098-.709.288-.169.19-.458.288-.708.288-.25 0-.54-.099-.708-.288-.17-.19-.46-.288-.709-.288-.25 0-.539.098-.708.288-.169.19-.459.288-.708.288-.25 0-.54-.099-.709-.288-.169-.19-.458-.288-.708-.288-.25 0-.54.098-.708.288-.17.19-.459.288-.708.288-.25 0-.54-.099-.709-.288-.169-.19-.459-.288-.708-.288-.25 0-.54.098-.709.288-.169.19-.458.288-.707.288-.25 0-.54-.099-.709-.288-.17-.19-.459-.288-.708-.288-.25 0-.54.098-.709.288-.169.19-.459.288-.708.288-.25 0-.539-.099-.708-.288-.17-.19-.46-.288-.708-.288-.25 0-.54.098-.709.288-.169.19-.459.288-.708.288-.25 0-.54-.099-.708-.288-.17-.19-.46-.288-.709-.288-.249 0-.539.098-.708.288v16.96c.17-.19.46-.288.708-.288.25 0 .54.099.709.289.169.19.459.288.708.288.25 0 .54-.099.708-.288.17-.19.46-.289.709-.289.249 0 .539.099.708.289.17.19.459.288.708.288.25 0 .54-.099.708-.288.17-.19.46-.289.709-.289.25 0 .539.099.708.289.17.19.459.288.709.288.249 0 .538-.099.707-.288.17-.19.46-.289.71-.289.248 0 .538.099.707.289.17.19.46.288.709.288.249 0 .539-.099.708-.288.169-.19.459-.289.708-.289.25 0 .54.099.708.289.17.19.46.288.709.288.25 0 .539-.099.708-.288.17-.19.459-.289.708-.289.25 0 .54.099.709.289.169.19.458.288.708.288.25 0 .54-.099.708-.288.17-.19.459-.289.709-.289.25 0 .539.099.708.289.169.19.459.288.708.288.25 0 .54-.099.709-.288.169-.19.458-.289.708-.289.25 0 .54.099.708.289.17.19.459.288.708.288.25 0 .54-.099.709-.288.169-.19.459-.289.708-.289.25 0 .54.099.708.289.17.19.46.288.709.288.25 0 .539-.099.708-.288.17-.19.459-.289.708-.289.25 0 .54.099.709.289.169.19.459.288.708.288.25 0 .539-.099.708-.288.17-.19.46-.289.708-.289.25 0 .54.099.709.289.169.19.459.288.708.288.25 0 .54-.099.708-.288.17-.19.46-.289.709-.289.249 0 .539.099.708.289.17.19.459.288.708.288.25 0 .54-.099.709-.288.169-.19.459-.289.708-.289.25 0 .539.099.708.289.17.19.46.288.709.288.249 0 .538-.099.708-.288.17-.19.459-.289.708-.289.25 0 .54.099.708.289.17.19.46.288.709.288.249 0 .539-.099.708-.288a.927.927 0 0 1 .516-.27 1.07 1.07 0 0 1 .287-.014c.225.021.465.117.613.284.17.19.46.288.71.288.248 0 .538-.099.707-.288.17-.19.459-.289.709-.289.249 0 .539.099.708.289.169.19.459.288.708.288.25 0 .54-.099.708-.288.17-.19.46-.289.709-.289.25 0 .539.099.708.289.17.19.459.288.708.288.25 0 .54-.099.709-.288.169-.19.458-.289.708-.289.25 0 .54.099.708.289.17.19.459.288.708.288.25 0 .54-.099.709-.288.169-.19.459-.289.708-.289.25 0 .54.099.709.289.169.19.458.288.708.288.25 0 .539-.099.708-.288.17-.19.459-.289.708-.289.25 0 .54.099.709.289.169.19.459.288.708.288.25 0 .54-.099.708-.288.17-.19.46-.289.708-.289.25 0 .54.099.709.289.17.19.459.288.708.288.25 0 .54-.099.709-.288.169-.19.459-.289.708-.289.25 0 .539.099.708.289.17.19.46.288.708.288.25 0 .54-.099.709-.288.169-.19.459-.289.708-.289.25 0 .54.099.708.289.17.19.46.288.709.288.249 0 .539-.099.708-.288.17-.19.459-.289.708-.289.25 0 .54.099.708.289.17.19.46.288.709.288.25 0 .539-.099.708-.288.17-.19.459-.289.709-.289.249 0 .538.099.708.289.169.19.458.288.708.288.25 0 .54-.099.708-.288.17-.19.46-.289.709-.289.249 0 .539.099.708.289.17.19.459.288.708.288.25 0 .54-.099.708-.288.17-.19.46-.289.709-.289.25 0 .539.099.708.289.17.19.459.288.708.288.25 0 .54-.099.709-.288.169-.19.458-.289.708-.289.25 0 .539.099.708.289.17.19.46.288.709.288.25 0 .539-.099.708-.288.169-.19.459-.289.708-.289.25 0 .54.099.709.289V88.364c-.17-.19-.46-.288-.709-.288" mask="url(#f)"/>
                <path fill="#8F8F8F" d="M217.85 105.324c-.17-.19-.46-.288-.709-.288-.249 0-.539.099-.708.288v-16.96c.17-.19.46-.289.708-.289.25 0 .54.099.709.289v16.96zM220.683 105.324c-.17-.19-.459-.288-.708-.288-.25 0-.54.099-.709.288v-16.96c.17-.19.46-.289.709-.289.249 0 .539.099.708.289v16.96zM223.516 105.324c-.17-.19-.459-.288-.708-.288-.25 0-.54.099-.708.288v-16.96c.169-.19.458-.289.708-.289.25 0 .539.099.708.289v16.96zM226.35 105.324c-.17-.19-.46-.288-.709-.288-.25 0-.54.099-.708.288v-16.96c.169-.19.458-.289.708-.289.25 0 .54.099.708.289v16.96zM229.182 105.324c-.169-.19-.458-.288-.708-.288-.25 0-.54.099-.708.288v-16.96c.169-.19.459-.289.708-.289.25 0 .54.099.708.289v16.96zM232.016 105.324c-.17-.19-.46-.288-.709-.288-.249 0-.539.099-.708.288v-16.96c.17-.19.459-.289.708-.289.25 0 .54.099.709.289v16.96zM234.849 105.324c-.17-.19-.46-.288-.708-.288-.25 0-.54.099-.709.288v-16.96c.17-.19.459-.289.709-.289.249 0 .538.099.708.289v16.96zM237.682 105.324c-.17-.19-.459-.288-.708-.288-.25 0-.54.099-.709.288v-16.96c.17-.19.46-.289.709-.289.249 0 .539.099.708.289v16.96zM240.515 105.324c-.17-.19-.459-.288-.708-.288-.25 0-.54.099-.708.288v-16.96c.169-.19.458-.289.708-.289.25 0 .539.099.708.289v16.96zM243.348 105.324c-.169-.19-.459-.288-.708-.288-.25 0-.54.099-.708.288v-16.96c.169-.19.459-.289.708-.289.25 0 .54.099.708.289v16.96zM246.181 105.324c-.169-.19-.458-.288-.708-.288-.25 0-.54.099-.708.288v-16.96c.169-.19.459-.289.708-.289.25 0 .54.099.708.289v16.96zM249.015 105.324c-.17-.19-.46-.288-.709-.288-.249 0-.539.099-.708.288v-16.96c.17-.19.459-.289.708-.289.25 0 .54.099.709.289v16.96zM251.848 105.324c-.17-.19-.459-.288-.708-.288-.25 0-.54.099-.709.288v-16.96c.17-.19.46-.289.709-.289.249 0 .539.099.708.289v16.96zM254.681 105.324c-.169-.19-.459-.288-.708-.288-.25 0-.54.099-.709.288v-16.96c.17-.19.46-.289.709-.289.25 0 .539.099.708.289v16.96zM257.514 105.324c-.169-.19-.459-.288-.708-.288-.25 0-.54.099-.708.288v-16.96c.169-.19.459-.289.708-.289.25 0 .54.099.708.289v16.96zM260.347 105.324c-.169-.19-.458-.288-.708-.288-.25 0-.54.099-.708.288v-16.96c.169-.19.459-.289.708-.289.25 0 .54.099.708.289v16.96zM263.18 105.324c-.168-.19-.458-.288-.708-.288-.25 0-.539.099-.708.288v-16.96c.169-.19.459-.289.708-.289.25 0 .54.099.709.289v16.96zM266.014 105.324c-.17-.19-.46-.288-.709-.288-.249 0-.539.099-.708.288v-16.96c.17-.19.46-.289.708-.289.25 0 .54.099.709.289v16.96zM268.847 105.324c-.169-.19-.459-.288-.708-.288-.25 0-.54.099-.709.288v-16.96c.17-.19.46-.289.709-.289.25 0 .539.099.708.289v16.96zM271.68 105.324c-.169-.19-.459-.288-.708-.288-.25 0-.54.099-.708.288v-16.96c.169-.19.458-.289.708-.289.25 0 .54.099.708.289v16.96zM274.513 105.324c-.17-.19-.459-.288-.708-.288-.25 0-.54.099-.708.288v-16.96c.169-.19.458-.289.708-.289.25 0 .539.099.708.289v16.96zM277.347 105.324c-.17-.19-.46-.288-.709-.288-.25 0-.539.099-.708.288v-16.96c.169-.19.459-.289.708-.289.25 0 .54.099.709.289v16.96zM280.18 105.324c-.17-.19-.46-.288-.709-.288-.249 0-.539.099-.708.288v-16.96c.17-.19.459-.289.708-.289.25 0 .54.099.709.289v16.96zM283.013 105.324c-.17-.19-.459-.288-.708-.288-.25 0-.54.099-.709.288v-16.96c.17-.19.46-.289.709-.289.249 0 .539.099.708.289v16.96zM285.846 105.324c-.169-.19-.459-.288-.708-.288-.25 0-.54.099-.709.288v-16.96c.17-.19.46-.289.709-.289.25 0 .539.099.708.289v16.96zM288.68 105.324c-.17-.19-.46-.288-.71-.288-.249 0-.538.099-.707.288v-16.96c.169-.19.458-.289.708-.289.25 0 .539.099.708.289v16.96zM291.512 105.324c-.169-.19-.459-.288-.708-.288-.25 0-.54.099-.708.288v-16.96c.169-.19.459-.289.708-.289.25 0 .54.099.708.289v16.96zM294.346 105.324c-.17-.19-.46-.288-.709-.288-.25 0-.539.099-.708.288v-16.96c.169-.19.459-.289.708-.289.25 0 .54.099.709.289v16.96zM297.179 105.324c-.17-.19-.46-.288-.709-.288-.249 0-.539.099-.708.288v-16.96c.17-.19.459-.289.708-.289.25 0 .54.099.709.289v16.96z" mask="url(#f)"/>
                <path fill="#000" d="M295.763 104.983c-.17.19-.459.288-.708.288-.25 0-.54-.098-.709-.288-.169-.19-.459-.288-.708-.288-.25 0-.54.098-.708.288-.17.19-.46.288-.708.288-.25 0-.54-.098-.709-.288-.17-.19-.459-.288-.708-.288-.25 0-.54.098-.708.288-.17.19-.46.288-.709.288-.25 0-.539-.098-.708-.288-.17-.19-.46-.288-.708-.288-.25 0-.54.098-.709.288-.169.19-.459.288-.708.288-.25 0-.54-.098-.708-.288-.17-.19-.46-.288-.709-.288-.249 0-.539.098-.708.288-.17.19-.459.288-.708.288-.25 0-.54-.098-.708-.288-.17-.19-.46-.288-.709-.288-.25 0-.539.098-.708.288-.17.19-.459.288-.709.288-.249 0-.539-.098-.708-.288-.169-.19-.458-.288-.708-.288-.25 0-.539.098-.708.288-.17.19-.46.288-.709.288-.249 0-.539-.098-.708-.288-.17-.19-.459-.288-.708-.288-.25 0-.54.098-.708.288-.17.19-.46.288-.709.288-.25 0-.539-.098-.708-.288-.17-.19-.459-.288-.709-.288-.249 0-.539.098-.708.288-.169.19-.458.288-.708.288-.25 0-.54-.098-.708-.288-.17-.19-.46-.288-.709-.288-.25 0-.539.098-.708.288-.169.19-.459.288-.708.288-.25 0-.54-.098-.709-.288-.169-.19-.458-.288-.708-.288-.25 0-.54.098-.708.288-.17.19-.459.288-.708.288-.25 0-.54-.098-.709-.288-.169-.19-.459-.288-.708-.288-.25 0-.54.098-.709.288-.169.19-.458.288-.708.288-.25 0-.539-.098-.708-.288-.17-.19-.459-.288-.708-.288-.25 0-.54.098-.709.288-.169.19-.459.288-.708.288-.25 0-.539-.098-.708-.288-.17-.19-.46-.288-.708-.288-.25 0-.54.098-.709.288-.17.19-.459.288-.708.288-.25 0-.54-.098-.708-.288-.148-.166-.389-.262-.614-.284a1.053 1.053 0 0 0-.287.014.926.926 0 0 0-.516.27c-.17.19-.46.288-.708.288-.25 0-.54-.098-.709-.288-.169-.19-.459-.288-.708-.288-.25 0-.539.098-.708.288-.17.19-.46.288-.709.288-.249 0-.539-.098-.708-.288-.169-.19-.459-.288-.708-.288-.25 0-.54.098-.708.288-.17.19-.46.288-.709.288-.249 0-.539-.098-.708-.288-.17-.19-.459-.288-.708-.288-.25 0-.54.098-.708.288-.17.19-.46.288-.71.288-.248 0-.538-.098-.707-.288-.17-.19-.46-.288-.709-.288-.249 0-.539.098-.708.288-.169.19-.459.288-.708.288-.25 0-.54-.098-.708-.288-.17-.19-.46-.288-.709-.288-.25 0-.539.098-.708.288-.17.19-.459.288-.708.288-.25 0-.54-.098-.709-.288-.169-.19-.458-.288-.708-.288-.25 0-.54.098-.708.288-.17.19-.459.288-.708.288-.25 0-.54-.098-.709-.288-.169-.19-.459-.288-.708-.288-.25 0-.54.098-.709.288-.169.19-.458.288-.708.288-.25 0-.539-.098-.708-.288-.17-.19-.459-.288-.708-.288-.25 0-.54.098-.709.288-.169.19-.459.288-.708.288-.25 0-.54-.098-.708-.288-.17-.19-.46-.288-.708-.288-.25 0-.54.098-.709.288-.17.19-.459.288-.708.288-.25 0-.54-.098-.709-.288-.169-.19-.459-.288-.708-.288-.25 0-.539.098-.708.288-.17.19-.46.288-.708.288-.25 0-.54-.098-.709-.288-.169-.19-.459-.288-.708-.288-.25 0-.54.098-.708.288-.17.19-.46.288-.709.288-.249 0-.539-.098-.708-.288-.17-.19-.459-.288-.708-.288-.25 0-.54.098-.709.288-.169.19-.459.288-.708.288-.25 0-.539-.098-.708-.288-.17-.19-.46-.288-.709-.288-.249 0-.539.098-.708.288-.169.19-.459.288-.708.288-.25 0-.54-.098-.708-.288-.17-.19-.46-.288-.709-.288-.249 0-.539.098-.708.288v.341c.17-.19.459-.288.708-.288.25 0 .54.099.709.288.169.19.459.289.708.289.25 0 .54-.099.708-.289.17-.19.46-.288.708-.288.25 0 .54.099.709.288.17.19.459.289.708.289.25 0 .54-.099.708-.289.17-.19.46-.288.709-.288.25 0 .539.099.708.288.17.19.46.289.708.289.25 0 .54-.099.709-.289.169-.19.459-.288.708-.288.25 0 .54.099.708.288.17.19.46.289.709.289.249 0 .539-.099.708-.289.17-.19.459-.288.708-.288.25 0 .54.099.708.288.17.19.46.289.709.289.25 0 .539-.099.708-.289.17-.19.459-.288.709-.288.249 0 .538.099.708.288.169.19.459.289.708.289.25 0 .539-.099.708-.289.17-.19.46-.288.709-.288.249 0 .539.099.708.288.17.19.459.289.708.289.25 0 .54-.099.708-.289.17-.19.46-.288.709-.288.25 0 .539.099.708.288.17.19.459.289.709.289.249 0 .539-.099.708-.289.169-.19.458-.288.708-.288.25 0 .54.099.708.288.17.19.459.289.709.289.25 0 .539-.099.708-.289.169-.19.459-.288.708-.288.25 0 .54.099.709.288.169.19.458.289.708.289.25 0 .54-.099.708-.289.17-.19.459-.288.708-.288.25 0 .54.099.709.288.169.19.459.289.708.289.25 0 .54-.099.709-.289.169-.19.458-.288.708-.288.25 0 .539.099.708.288.17.19.459.289.708.289.25 0 .54-.099.709-.289.169-.19.459-.288.708-.288.25 0 .54.099.708.288.17.19.46.289.708.289.25 0 .54-.099.709-.289.17-.19.459-.288.708-.288.25 0 .54.099.708.288.17.19.46.289.709.289.249 0 .539-.099.708-.289a.926.926 0 0 1 .516-.27 1.034 1.034 0 0 1 .287-.013c.225.021.466.117.614.283.169.19.459.289.708.289.25 0 .539-.099.708-.289.17-.19.46-.288.709-.288.249 0 .538.099.708.288.17.19.459.289.708.289.25 0 .54-.099.708-.289.17-.19.46-.288.709-.288.249 0 .539.099.708.288.17.19.459.289.708.289.25 0 .54-.099.708-.289.17-.19.46-.288.71-.288.248 0 .538.099.707.288.17.19.46.289.709.289.249 0 .539-.099.708-.289.169-.19.459-.288.708-.288.25 0 .54.099.708.288.17.19.46.289.709.289.25 0 .539-.099.708-.289.17-.19.459-.288.708-.288.25 0 .54.099.709.288.169.19.458.289.708.289.25 0 .54-.099.708-.289.17-.19.459-.288.708-.288.25 0 .54.099.709.288.169.19.459.289.708.289.25 0 .54-.099.709-.289.169-.19.458-.288.708-.288.25 0 .539.099.708.288.17.19.459.289.708.289.25 0 .54-.099.709-.289.169-.19.459-.288.708-.288.25 0 .54.099.708.288.17.19.46.289.708.289.25 0 .54-.099.71-.289.168-.19.458-.288.707-.288.25 0 .54.099.709.288.169.19.458.289.708.289.25 0 .539-.099.708-.289.17-.19.46-.288.708-.288.25 0 .54.099.709.288.169.19.459.289.708.289.25 0 .54-.099.708-.289.17-.19.46-.288.709-.288.249 0 .539.099.708.288.17.19.459.289.708.289.25 0 .54-.099.709-.289.169-.19.458-.288.708-.288.25 0 .539.099.708.288.17.19.459.289.709.289.249 0 .538-.099.708-.289.169-.19.459-.288.708-.288.25 0 .54.099.708.288.17.19.46.289.709.289.249 0 .539-.099.708-.289.17-.19.459-.288.708-.288.25 0 .54.099.708.288v-.341c-.169-.19-.458-.288-.708-.288-.25 0-.539.098-.708.288" mask="url(#f)"/>
                <path fill="#D6D6D6" d="M216.433 89.255h80.746v-1.782h-80.746z" mask="url(#f)"/>
                <path fill="#8F8F8F" d="M186.372 133.919h-70.337v-20.164l6.894-.663 7.393.371 8.392-.08 5.56.323 10.749-.614 11.156.371 11.58-.371 8.613.125z" mask="url(#f)"/>
                <path fill="#FFF" d="M186.373 133.919h49.539V96.276h-49.54z" mask="url(#f)"/>
                <path fill="#FF7900" d="M218.228 78.99h-14.171l-22.443 17.577h59.056z" mask="url(#f)"/>
                <path fill="#000" d="M226.586 133.92h-13.223v-23.772a6.612 6.612 0 1 1 13.223 0v23.772z" mask="url(#f)"/>
                <path fill="#FFB400" d="M204.908 79.804l-19.333 15.949h1.972zM206.693 79.804l-14.746 15.949h2.348zM208.446 79.98l-9.126 15.773h2.442zM209.98 79.98l-4.226 15.773h2.692zM211.77 79.98l.447 15.773h2.288zM213.925 79.98l5.574 15.773h2.884zM215.991 79.804l10.146 15.949h2.16zM218.057 79.804l16.125 15.949h2.194z" mask="url(#f)"/>
                <path fill="#0A6E31" d="M124.529 104.814l-.725 27.897h1.51z" mask="url(#f)"/>
                <path fill="#50BE87" d="M129.114 115.759l-4.31-1.194-1 18.146h1.51l-.473-16.813z" mask="url(#f)"/>
                <path fill="#B8EBD6" d="M120.006 118.995l4.19-1.345 1.118 15.06h-1.51l.358-13.714z" mask="url(#f)"/>
                <path fill="#0A6E31" d="M129.47 124.148l-4.442-1.52-1.224 10.083h1.51l-.248-8.75zM130.821 108.856l-.62 23.855h1.292z" mask="url(#f)"/>
                <path fill="#B8EBD6" d="M134.742 118.215l-3.686-1.02-.855 15.516h1.292l-.405-14.377z" mask="url(#f)"/>
                <path fill="#50BE87" d="M126.954 120.982l3.582-1.149.957 12.878H130.2l.307-11.728z" mask="url(#f)"/>
                <path fill="#0A6E31" d="M135.047 125.389l-3.799-1.3-1.046 8.622h1.291l-.212-7.482zM138.578 104.814l.725 27.897h-1.51z" mask="url(#f)"/>
                <path fill="#50BE87" d="M133.992 115.759l4.312-1.194.999 18.146h-1.51l.473-16.813z" mask="url(#f)"/>
                <path fill="#B8EBD6" d="M143.1 118.995l-4.189-1.345-1.118 15.06h1.51l-.358-13.714z" mask="url(#f)"/>
                <path fill="#0A6E31" d="M133.637 124.148l4.441-1.52 1.225 10.083h-1.51l.248-8.75zM144.452 108.856l-.62 23.855h1.291z" mask="url(#f)"/>
                <path fill="#B8EBD6" d="M148.373 118.215l-3.686-1.02-.855 15.516h1.291l-.404-14.377z" mask="url(#f)"/>
                <path fill="#50BE87" d="M140.585 120.982l3.582-1.149.956 12.878h-1.291l.306-11.728z" mask="url(#f)"/>
                <path fill="#0A6E31" d="M148.677 125.389l-3.798-1.3-1.047 8.622h1.292l-.213-7.482zM151.79 104.814l-.725 27.897h1.51z" mask="url(#f)"/>
                <path fill="#50BE87" d="M156.376 115.759l-4.312-1.194-.999 18.146h1.51l-.473-16.813z" mask="url(#f)"/>
                <path fill="#B8EBD6" d="M147.267 118.995l4.19-1.345 1.119 15.06h-1.51l.357-13.714z" mask="url(#f)"/>
                <path fill="#0A6E31" d="M156.731 124.148l-4.442-1.52-1.224 10.083h1.51l-.248-8.75zM158.44 108.856l.62 23.855h-1.29z" mask="url(#f)"/>
                <path fill="#B8EBD6" d="M154.52 118.215l3.686-1.02.854 15.516h-1.29l.404-14.377z" mask="url(#f)"/>
                <path fill="#50BE87" d="M162.308 120.982l-3.582-1.149-.957 12.878h1.291l-.306-11.728z" mask="url(#f)"/>
                <path fill="#0A6E31" d="M154.215 125.389l3.798-1.3 1.047 8.622h-1.29l.211-7.482zM165.42 104.814l-.724 27.897h1.51z" mask="url(#f)"/>
                <path fill="#50BE87" d="M170.006 115.759l-4.31-1.194-1 18.146h1.51l-.473-16.813z" mask="url(#f)"/>
                <path fill="#B8EBD6" d="M160.898 118.995l4.19-1.345 1.118 15.06h-1.51l.358-13.714z" mask="url(#f)"/>
                <path fill="#0A6E31" d="M170.362 124.148l-4.442-1.52-1.224 10.083h1.51l-.249-8.75zM171.713 108.856l-.62 23.855h1.292z" mask="url(#f)"/>
                <path fill="#B8EBD6" d="M175.634 118.215l-3.686-1.02-.855 15.516h1.292l-.405-14.377z" mask="url(#f)"/>
                <path fill="#50BE87" d="M167.846 120.982l3.582-1.149.957 12.878h-1.292l.307-11.728z" mask="url(#f)"/>
                <path fill="#0A6E31" d="M175.939 125.389l-3.799-1.3-1.046 8.622h1.29l-.212-7.482zM179.47 104.814l.725 27.897h-1.51z" mask="url(#f)"/>
                <path fill="#50BE87" d="M174.884 115.759l4.312-1.194.999 18.146h-1.51l.473-16.813z" mask="url(#f)"/>
                <path fill="#B8EBD6" d="M183.993 118.995l-4.19-1.345-1.119 15.06h1.51l-.357-13.714z" mask="url(#f)"/>
                <path fill="#0A6E31" d="M174.529 124.148l4.442-1.52 1.224 10.083h-1.51l.248-8.75z" mask="url(#f)"/>
                <path fill="#FFF" d="M116.035 133.919h70.338v-5.858l-6.894-.663-7.393.372-8.392-.081-5.561.323-10.748-.614-11.157.372-11.58-.372-8.613.125z" mask="url(#f)"/>
                <path fill="#0A6E31" d="M39.07 135.65l2.789-2.717c-1.41-.446-3.1-.524-4.908.175l.053-4.018c-1.872.68-3.963 2.724-4.004 5.834l.013-.936c.05-3.85-2.47-6.45-4.766-7.353l-.066 4.976c-2.214-.925-4.309-.883-6.07-.377l3.365 3.455c-2.19.914-3.624 2.413-4.505 4.003l11.977.159 9.672.128c-.676-1.303-1.803-2.544-3.55-3.328" mask="url(#f)"/>
                <path fill="#FFF" d="M48.854 138.993h70.436V85.905H48.854z" mask="url(#f)"/>
                <path fill="#FF7900" d="M94.146 61.526H73.998l-31.91 24.79h83.968z" mask="url(#f)"/>
                <path fill="#000" d="M87.172 139h-24.43v-31.191c0-6.745 5.466-12.213 12.21-12.213h.01c6.743 0 12.21 5.468 12.21 12.213V139z" mask="url(#f)"/>
                <path fill="#FFB400" d="M74.486 62.754l-27.01 22.102h2.756zM76.98 62.754L56.377 84.856h3.28zM79.429 62.997l-12.75 21.859h3.411zM81.572 62.997l-5.905 21.859h3.762zM84.072 62.997l.626 21.859h3.195zM87.083 62.997l7.788 21.859h4.028zM89.97 62.754l14.174 22.102h3.018zM92.856 62.754l22.528 22.102h3.065z" mask="url(#f)"/>
                <path fill="#B8EBD6" d="M359.255 104.19a.51.51 0 0 1-.47-.693.51.51 0 0 1 .656-.286.09.09 0 0 1 .05.115c-.018.046-.07.065-.114.05a.328.328 0 0 0-.427.186.333.333 0 0 0 .186.43.334.334 0 0 0 .427-.188.087.087 0 0 1 .115-.05c.045.017.068.07.05.115a.51.51 0 0 1-.473.322" mask="url(#f)"/>
            </g>
        </g>
        <path fill="#4BB4E6" fill-opacity=".2" fill-rule="nonzero" d="M474.38 17.019c-48.521 1.312-128.764 25.18-134.51 127.087-5.745 101.908-11.993 239.566 79.38 254.598 91.374 15.032 137.404-100.806 137.404-208.308 0-107.503-33.752-174.69-82.274-173.377z"/>
        <path fill="#000" d="M516.375 122.129c-.26 2.457-1.035 4.008-4.526 5.625-3.492 1.616-8.47 4.72-8.6 11.638-.129 6.918 1.035 11.573-.84 13.318-1.875 1.746-2.715 2.522-2.715 2.522l-2.487-.508a.889.889 0 0 0-.634 1.634l1.036.62-.418.67a2.058 2.058 0 0 0 .505 2.726 2.05 2.05 0 0 0 2.698-.183c2.002-2.016 5.762-6.02 6.929-8.774 1.616-3.814 3.168-11.185 3.168-11.185l3.491 12.478s-8.728 12.414 3.556 18.75c12.285 6.336 18.233-.995 18.233-.995l1.503-1.22-1.05-22.741-1.026-7.513s-1.108-6 1.608-10.979c2.715-4.978 19.021-18.48 19.021-18.48s1.534 2.028 4.48.548c2.384-1.198 1.276-3.266 1.018-4.435l3.826-1.92a.952.952 0 0 0-.746-1.748l-6.143 2.165a29.474 29.474 0 0 0-7.873 4.206l-18.016 13.489a6.058 6.058 0 0 1-7.523-.207l-2.721-2.281-5.754 2.78z"/>
        <g transform="translate(266 307.93)">
            <mask id="h" fill="#fff">
                <use xlink:href="#g"/>
            </mask>
            <path fill="#FFF" d="M262.09 11.935l24.62 10.42-5.69 39.472-11.637 29.288-1.034 26.896 6.117 8.276-3.273 16.034-2.512 54.158-158.09-3.985-7.5 2.069-6.932-2.07-2.637 7.5-18.976 1.035-6.368 9.31h-11.12v-18.103L39.47 210.339l-5.69-4.138v-8.018L.002 196.89V182.15l13.837-7.597 45.288-63.415 31.222-28.655 21.715-25.763 2.666-44.784L122.2.08l119.51 1.433z" mask="url(#h)"/>
        </g>
        <path fill="#000" d="M471.472 311.664l4.782.669a23.648 23.648 0 0 1 15.666 9.267l24.163 32.348s-9.213 6.886-4.364 20.269c0 0 9.116 8.437 19.784 0l6.869-16.048a21.878 21.878 0 0 0 .714-15.305l-18.638-57.967s-3.686-3.492-4.268-3.492c-.582 0-17.068 3.589-17.068 3.589l-27.64 26.67zM452.13 187.172c-2.043.403-9.607 1.615-14.214 8.065-4.607 6.45-2.376 10.959-6.449 16.535-4.074 5.577-22.112 22.209-22.112 22.209l14.305 13.578 25.07-25.56s1.551 8.636 8.68 10.285c0 0 4.784 12.947-3.815 22.904 0 0 57.801-.194 57.607 0-.194.194-8.47-12.802-3.491-21.918 4.978-9.116 6.918-16.164 6.918-16.164s11.443-6.271 5.56-23.922c0 0 38.567-5.157 40.118-22.719 1-11.314-17.567-26.37-30.902-35.65 0 0-3.671-2.18-9.442-1.065a17.9 17.9 0 0 0-8.352 4.108 1.666 1.666 0 0 0 1.353 2.892l.113-.017-.534.31a1.475 1.475 0 0 0 1.021 2.723l.386-.075-.732.457a1.177 1.177 0 0 0 1.076 2.083l.626-.261-.786.761a1.237 1.237 0 1 0 1.813 1.674c1.065-1.311 2.816-3.17 4.307-3.356 2.327-.291 2.618 1.406 5.237 1.454 1.655.031 4.472.08 6.322.114a2.682 2.682 0 0 1 2.497 1.818c.683 2.018 1.754 5.763 2.576 11.307l.388 9.504-19.833 1.649-3.442.63s-5.577-1.697-9.844.242c-4.267 1.94-6.382 3.895-7.58 5.512-1.197 1.616-17.29 14.564-17.29 14.564l-15.62-.194-11.536-4.477z"/>
        <path fill="#000" d="M466.38 168.276c-.048.145 1.455 9.552-.921 14.547-2.376 4.995 21.724.63 21.724.63v-5.237l-2.958-9.067 9.275-3.723a2.23 2.23 0 0 0 1.277-2.8c-.305-.88-.879-1.627-1.604-2.213-.56-.453-1.365-1.197-1.432-2.466-.097-1.843.824-3.248.824-3.248l1.122-.381a1.797 1.797 0 0 0 1.157-2.167l-.027-.102c-.22-.821-.987-1.359-1.838-1.327-1.248.047-3.022-.204-4.099-1.745-1.794-2.57-.07-3.562-2.182-6.686-2.111-3.124-11.88-4.613-11.88-4.613l-11.153 9.844 2.715 20.754z"/>
        <path fill="#000" d="M458.913 151.11c-1.019 2.667-4.122 8.195 0 14.11 4.121 5.917 9.6 6.256 11.347 3.832 1.745-2.425.727-5.431-1.358-6.45-2.085-1.018-3.54-3.394-2.037-5.576 1.503-2.182 4.947-1.503 6.546 1.455.302.556.739 1.476 1.25 2.601l1.418-1.34s-4.025-4.462 1.26-8.098c0 0-1.648-9.394 9.36-9.352l-1.571-2.324c-.09-.134-11.183-1.902-11.183-1.902l-12.995 9.747-2.037 3.297z"/>
        <path fill="#FD7900" d="M457.894 153.777l-.476-8.574c-.206-3.719 1.691-7.25 4.931-9.086 1.623-.92 3.672-1.945 6.213-2.997a31.263 31.263 0 0 1 3.215-1.13c3.978-1.16 8.246.424 10.566 3.857l4.355 6.444s-13.771-3.061-28.804 11.486"/>
        <path fill="#000" d="M530.907 108.916c-.014-1.451-1.24-2.616-2.738-2.602-.045 0-.087.011-.132.014-1.784-3.927-4.344-7.216-9.554-7.216-5.341.001-9.706 4.593-10.392 10.454-1.176.297-2.043 1.33-2.031 2.56.012 1.336 1.056 2.417 2.39 2.571 1.337 5.01 5.435 8.642 10.258 8.598 5.859-.055 10.585-4.861 10.523-11.54-.001-.129-.016-.255-.021-.383 1.002-.394 1.707-1.346 1.697-2.456"/>
        <path fill="#FD7900" d="M511.202 255.188l-54.241-.365c-6.148-.041-10.497 4.468-12.681 9.938-1.805 4.522-12.28 26.536-32.03 30.421l-5.659 2.096 3.588 18.362 4.462 1.94s15.471 9.597 34.816 6.548c19.076-3.007 30.55-11.169 42.575-25.006 12.026-13.837 24.051-15.68 28.416-14.225l-9.246-29.71z"/>
        <path fill="#000" d="M362.561 370.144s-9.407-2.425-23.954 4.849c-14.548 7.274-16.487 11.007-20.366 10.862-3.88-.146-7.468-1.213-9.65 1.455-2.182 2.666-.873 5.334.775 7.03 1.65 1.698 4.704 3.735 4.85 8.244.145 4.51-4.268 13.82 6.012 18.62l6.644-3.976s-7.516-10.037-1.794-19.056c5.722-9.02 26.088-10.717 26.088-10.717l12.123-.582-.728-16.73zM416.806 272.71c15.532-15.248 8.843-35.302 1.035-42.802-6.789-6.521-14.45-7.322-17.942-10.862-1.89-1.917-2.174-3.933-1.86-5.872.301-1.855 1.226-3.545 2.487-4.939a45.917 45.917 0 0 0 1.7-1.99c4.233-5.245 1.84-9.794.532-11.593a.933.933 0 0 1 .21-1.3c1.138-.838 1.187-2.043.907-2.722-.339-.824-1.309-1.26-1.987-1.26-.68 0-2.425.678-4.317-1.698-1.89-2.376-4.46-4.849-6.239-5.996h-7.758s-10.345 13.319-10.345 13.836c0 .517 1.034 10.888 1.034 10.888l.22 3.971 1.268 5.087 6.309-1.92c2.42-.828 3.718.009 4.23 1.899.378 1.393-.37 2.852-1.675 3.469-3.129 1.48-7.722 3.348-14.906 7.129-11.32 5.957-25.744 15.076-25.744 15.076l-73.776 42.92c-.503.292-.772.908-.56 1.45.268.689 1.092.945 1.7.553l2.74-1.765a1.148 1.148 0 0 0-.022 1.53c.389.451 1.079.494 1.571.159l3.216-2.193-.71.49c-.502.349-.744 1.01-.495 1.568a1.24 1.24 0 0 0 1.833.523l7-4.779-3.367 4.021c-.46.55-.51 1.374-.041 1.916.599.691 1.643.66 2.201-.017.944-1.145 2.36-2.853 3.018-3.593 1.035-1.164 2.198-1.487 5.367-3.75 1.739-1.242 3.108-2.874 3.989-4.094a8.723 8.723 0 0 1 3.415-2.788l40.835-18.911a77.27 77.27 0 0 1 8.592-3.373l5.884-1.913c10.365-3.37 21.432 3.813 22.021 14.696.017.313.025.628.025.945v6.063c0 9.311-5.948 13.696-5.948 13.696 5.713-3.109 12.987-6.354 18.88-5.678 16.082 1.843 18.604 15.953 22.04 19.255-2.09-11.227-1.552-20.439 3.433-25.333"/>
        <path fill="#000" d="M355.384 305.554l7.242-4.655 39.439-3.621-4.138 22.5-8.648 26.75s-8.728 30.065-10.764 33.993c-2.037 3.928-7.08 8.34-7.08 8.34l-33.992 31.035c-3.686 3.054-10.571 10.425-9.493 18.91.809 6.366 5.908 9.73 8.406 11.014a2.477 2.477 0 0 1 1.358 2.23l-.001.109a2.463 2.463 0 0 1-2.232 2.42l-3.469.327c-5.625.485-10.522-1.067-12.899-4.122-2.376-3.054-1.455-9.698-2.182-13.19-.727-3.49-3.297-5.14-4.995-6.885-1.696-1.746-1.55-4.267-.63-6.013.921-1.746 2.619-2.328 5.528-3.249 2.91-.921 8.874-4.849 12.171-8.098 3.298-3.249 5.965-15.856 12.511-23.47 6.546-7.613 14.984-10.619 14.984-10.619 1.524-.762 2.745-1.827 3.628-2.77 1.083-1.156 1.635-2.71 1.573-4.294l-.934-23.97c-.667-7.97-1.38-20.73-1.76-27.925-.15-2.84-2.299-5.148-5.116-5.545l1.493-9.202z"/>
        <path fill="#FFF" d="M404.625 222c.511 9.556-5.825 31.439-26.224 42.706l-.338 10.12s7.87-10.49 22.806-15.727c8.568-3.004 17.998-2.178 24.481-.928 0 0 3.314-6.415-2.097-20.346-3.368-8.669-12.337-13.397-18.628-15.825"/>
        <path fill="#FD7900" d="M391.332 181.675c-4.784-1.81-17.198-7.112-26.767 10.475-4.492 8.256-10.922 13.547-16.48 16.839 0 0 9.53 8.31 20.295 8.31 10.765 0 15.711-5.72 15.711-8.921 0-3.2-1.68-4.3-3.006-5.14-1.102-.699-2.199-1.422-2.199-3.491 0-2.102 2.231-3.298 4.138-3.298 1.067 0 3.686-1.164 3.686-3.782 0-2.619-.68-6.207.873-8.535 1.551-2.327 3.75-2.457 3.75-2.457M340.587 303.905c-.102.458-1.21 1.919-8.515 6.227-11.31 6.671-22.657.422-22.657.422 22.985 25.755 46.04 4.645 46.04 4.645 6.762-7.132 11.111-10.148 11.111-10.148v-.002c3.04-1.795 7.16-2.987 14.034-2.987 11.064 0 18.228 16.694 21.111 25.106.431 1.894 1 3.116 1 3.116l11.93-12.705-.394-8.135-.005-.11-.442-9.133s-3.88-20.639-22.467-21.414c-15.104-.63-21.336 8.598-29.174 13.174m-.131.076l-2.402 1.192c-7.398 3.484-19.08.008-19.08.008v10.474c.012.064.028.13.04.194l.006-.03"/>
        <path fill="#000" d="M527.366 190.727l1.57 3.046a1.614 1.614 0 0 0 3.038-.931l-1.938-7.139a5.001 5.001 0 0 1 1.383-4.944c3.582-3.398 10.356-10.21 10.688-13.437.254-2.463-.04-5.8-2.01-8.314-1.544-1.973-4.12-3.44-8.27-3.582-9.44-.323-10.474 7.629-10.474 7.629l2.716 20.702 3.297 6.97z"/>
        <path fill="#000" d="M519.22 157.947c10.085-5.043 17.068 1.228 16.81 7.694-.182 4.53-7.316 13.475-11.57 18.422a6.595 6.595 0 0 0-.7 7.625l1.883 3.23a1.667 1.667 0 0 1-2.984 1.425c-.737-1.137-1.786-2.617-2.73-3.44-1.68-1.465-4.77-2.598-3.871-4.52.898-1.923 4.454-6.643 5.553-10.587 1.1-3.944 1.326-6.336 1.326-6.336l-5.722-.582"/>
        <path fill="#000" d="M560.307 170.465c1-11.315-17.567-26.37-30.902-35.65 0 0-3.672-2.18-9.442-1.065-4.2.812-7.09 2.986-8.352 4.108a1.666 1.666 0 0 0 1.353 2.891l.113-.016-.535.31a1.475 1.475 0 0 0 1.022 2.723l.386-.075-.732.457a1.176 1.176 0 0 0 1.075 2.083l.627-.26-.786.76a1.236 1.236 0 1 0 1.813 1.674c1.065-1.31 2.815-3.17 4.307-3.356 2.327-.291 2.618 1.406 5.237 1.455l6.321.112a2.682 2.682 0 0 1 2.498 1.818c.683 2.02 1.165 2.281 1.987 7.825"/>
        <path fill="#FD7900" d="M466.041 181.272s-1.794 5.188-5.965 5.188c-4.17 0-9.213.922-9.213.922s12.985 11.584 26.525 9.116c16.699-3.045 19.008-14.984 20.22-20.27 0 0-3.442 4.316-7.564 2.813-1.505-.549-2.584-1.5-3.347-2.484 0 0-4.024 5.345-10.134 5.926-6.11.582-10.522-1.211-10.522-1.211"/>
        <path fill="#A885D8" fill-opacity=".2" fill-rule="nonzero" d="M289.32 1.923c-37.363 6.57-57.867 75.811-41.79 136.663 16.076 60.852 116.236 22.216 116.236-57.223 0-79.44-37.083-86.011-74.446-79.44z"/>
        <path fill="#FB7900" fill-opacity=".2" fill-rule="nonzero" d="M334.146 237.611c16.332-8.745 16.306-38.242.557-58.442-15.75-20.2-56.654 11.154-45.774 41.047 10.88 29.893 28.884 26.14 45.217 17.395z"/>
    </g>
</svg>
