<svg xmlns="http://www.w3.org/2000/svg" width="27" height="27" viewBox="0 0 27 27">
    <path fill="#000" fill-rule="evenodd" d="M24.327 9.357a.815.815 0 0 0-.258-.052c-.167-.002-.283-.078-.439-.119-.12-.032-.258-.103-.382-.11-.157-.01-.298.066-.338.22-.015.062-.021.138-.086.17-.11.05-.235-.053-.34-.074-.082-.016-.168-.025-.246-.058a.312.312 0 0 1-.097-.063c-.022-.022-.047-.086-.072-.099a.936.936 0 0 0-.399-.098.61.61 0 0 1-.348-.108c-.17-.125.033-.168.002-.314-.004-.023-.057-.083-.053-.098.056-.23-.195-.176-.372-.134-.33.031-.746-.084-1.031.047a1.77 1.77 0 0 0-.354.05c.033.026.065.054.095.085l1.404 1.403a2.795 2.795 0 0 1 .289 3.6l.024.025c.123.156.001.465.01.641.013.278.079.413.236.635.25.352.566.718.492 1.18-.063.39-.448.643-.301 1.07.127.372.393.596.486 1.007.075.336.155.42.326.676.187.278.44 1.48 1.025.832a.277.277 0 0 1 .1-.015c-.495.82-1.09 1.58-1.777 2.267a11.875 11.875 0 0 1-8.423 3.489 11.873 11.873 0 0 1-8.423-3.489A11.874 11.874 0 0 1 1.588 13.5c0-.747.068-1.483.203-2.204.097.028.2.048.3.1.042.078.082.07.176.08.183.073.366.186.567.186.256-.064.349-.162.513.048.148.188.525.279.747.321.128.024.245.017.348.103.09.077.142.195.218.285.152.181.31.312.545.37.16.039.33.052.491.091l.328-.327c-.447-.073-.766-.396-1.105-.672-.188-.153-.379-.304-.613-.382.005.002.08-.617-.024-.705-.261-.223-.564.263-.783.35-.532.213-.843-.199-.889-.708-.108-1.195 1.738-1.465 2.498-.88.076.06.34.454.434.425.151-.046.043-.52.05-.617.018-.297.037-.426.327-.597a.914.914 0 0 0 .356-.411c.053-.112.078-.213.158-.288A1.157 1.157 0 0 1 7.456 6.37h.883a.862.862 0 0 0-.107-.065.73.73 0 0 0-.246-.09c-.02-.003-.04 0-.06-.004-.008-.001-.04-.007-.025-.017.007-.005.025-.004.034-.005l.05-.009a.687.687 0 0 1 .106-.012c.122-.003.243.03.363.055.059.012.118.023.179.029a.272.272 0 0 0 .095-.004c.024-.006.085.012.08-.009-.012-.022-.06-.041-.046-.074.01-.02.043-.032.062-.042a.585.585 0 0 1 .08-.03c.12-.038.238-.084.362-.112a.825.825 0 0 1 .256-.02c.023.003.062.002.08.018.02.019-.005.044-.017.06a.722.722 0 0 0-.134.315v.016h.904c-.1-.106-.314-.185-.383-.313-.086-.16-.018-.362-.142-.518-.13-.164-.345-.163-.512-.263-.239-.143-.364-.42-.596-.57-.35-.229-.518-.001-.887-.03-.227-.019-.353-.188-.524-.313-.316-.231-.704-.355-1.09-.293.133-.103.267-.203.403-.3l.019.002c.336.046.63.226.948.327.067.021.554.062.514.035-.083-.056-.434-.134-.173-.164.115.025.398.122.45.004.16-.122.235-.12.443-.12.196-.137.385-.24.421-.47-.055-.128.006-.222-.028-.33-.263-.068-.218-.2-.185-.369-.03-.037-.13-.087-.242-.13l.073-.031c.288-.122.58-.232.875-.33.18.112.306.26.26.436a.64.64 0 0 0 .332-.013c.023-.009.045-.042.073-.038.03.006.04.055.054.078a.319.319 0 0 1 .017.033l.085-.014a.368.368 0 0 1 .081.003.253.253 0 0 1 .135.055c.014.012.068.047.054.071-.01.018-.05.016-.068.016-.02.001-.04.001-.06.004l-.104.015c-.031.004-.062.012-.092.008-.048.03.107.035.155.06.04.02.088.024.125.049.065.041-.072.067-.093.077a1.57 1.57 0 0 0-.13.069.536.536 0 0 0-.143.115.244.244 0 0 0-.058.132.321.321 0 0 0 .038.167c.036.075.085.143.134.21l.02.027c.275.336.93.817 1.393.764.509-.059.467-.705.951-.887.485-.181.988-.309 1.494-.414.14-.03.277-.079.414-.123a5.09 5.09 0 0 1 .582-.144c.033-.007.067-.009.1-.014.011-.002.091-.015.057-.035-.024-.014-.055-.016-.082-.02-.03-.006-.06-.01-.091-.015-.057-.008-.116-.015-.168-.039-.013-.006-.04-.012-.036-.03.005-.023.04-.018.057-.017.067.005.135-.003.202-.003.07 0 .141 0 .211-.01.034-.005.067-.006.1-.013.017-.004.043 0 .041-.023a.148.148 0 0 0-.043-.088c-.012-.012-.027-.018-.038-.03-.015-.019-.007-.03.003-.05.017-.028.037-.056.045-.088.01-.035.01-.073.015-.11.012-.082.162-.096.221-.11.081-.017.217-.056.245-.147.03-.099-.069-.142-.078-.225a11.849 11.849 0 0 1 4.632 2.188c-.268.215-.429.545.141.772.217.086.399-.168.592-.156.095.087.19.176.283.267.017.051.019.105-.013.152-.04.057-.15.138-.221.09-.09-.061.029-.263-.14-.29a.311.311 0 0 0-.3.14c-.08.127.12.309.038.434-.108.163-.376.037-.527.104-.307.135-.574.427-.903.575-.148.067-.326.054-.485.072-.104.012-.276.025-.334.128-.068.121.31.276.38.325.193.133.284.304.066.472-.274.209-.773-.194-1.075.004a.22.22 0 0 0-.04.035l.002.003c.244.28.363.702.234 1.107a1.16 1.16 0 0 1 .687.021l.01-.006c.045-.022.095-.033.133-.068.062-.058.036-.156.061-.231.026-.077.087-.117.14-.172.037-.038.064-.09.108-.121.069-.048.165-.032.24-.066.125-.056.056-.217.166-.29.078-.052.171-.02.252.004.22.067.363-.067.574-.083.02-.002.056-.038.078-.047.07-.029.164-.034.224.017.049.042.065.112.106.161.062.076.164.113.244.166.09.06.15.074.249.1.108.03.2.13.302.182.079.04.204.098.203.204-.003.185-.313.136-.421.141-.04.002-.2.013-.214.053-.02.06.256.159.298.166.12.02.17-.064.25-.135.069-.06.16-.097.211-.174.043-.065-.002-.136.007-.204.008-.058.055-.057.073-.103.032-.086-.157-.161-.211-.181a1.06 1.06 0 0 0-.157-.045c-.034-.007-.108-.003-.136-.022-.102-.068-.115-.178-.214-.257-.356-.175-.063-.407.097-.2.25.01.31.271.583.293.13.165.29.076.384.286.016.274.071.27.315.442.084.058.05.352.226.304.056-.015.121-.084.167-.12.026-.02.087-.05.104-.08.052-.088-.11-.094-.142-.148-.146-.253.21-.327.386-.318a.155.155 0 0 1 .123.066l.037.072c.025.066.037.143.053.2a.37.37 0 0 0 .175.248 11.973 11.973 0 0 1 .415.98c-.11.029-.22.056-.338.017zm-19.25-4.28c.287-.287.587-.558.899-.812.038.21.16.605.168.636.116.472-.162.172-.343.454-.077.119.077.227.028.325-.21.416-.49-.256-.73-.405a.65.65 0 0 0-.148-.068l.126-.13zM13.5 0C6.044 0 0 6.044 0 13.5S6.044 27 13.5 27 27 20.956 27 13.5 20.956 0 13.5 0zm3.241 11.47l-3.516 3.516-4.209 4.208c.024.027.048.052.072.075l.023.023.048.045.028.025a1.671 1.671 0 0 0 .119.092l.027.019.05.03.024.015.073.04.01.003.065.03.026.01.05.017.029.01a1.303 1.303 0 0 0 .126.032l.03.005c.017.004.036.006.054.009l.023.004.08.008h.014l.066.004h.147c.01-.001.019.005.028.004h8.706l-2.656-2.644 3.832-3.835.082-.083a1.63 1.63 0 0 0 .001-2.31L18.791 9.42l-2.05 2.05zm-9.166 6.287l3.672-3.672.894-.894s5.247-5.215 5.232-5.232a1.695 1.695 0 0 0-.07-.073l-.022-.021a1.66 1.66 0 0 0-.122-.105l-.022-.017a1.324 1.324 0 0 0-.142-.088l-.024-.012a1 1 0 0 0-.126-.054l-.023-.008a1.1 1.1 0 0 0-.073-.022l-.007-.001a1.394 1.394 0 0 0-.226-.037c-.007 0-.015.005-.022.005-.026-.002-.051.002-.077.002h-.009c-.022 0-.044-.007-.067-.007-.04 0-.081-.002-.123 0h-.028c-.042.002-.085.007-.128.007H7.456l2.655 2.582-2.269 2.264-1.648 1.645a1.68 1.68 0 0 0-.473 1.415c.047.338.195.663.452.92l1.222 1.223.18.18zm.542 2.254a1.165 1.165 0 0 1-.25-1.108 1.166 1.166 0 0 1-.678-.004c-.02.25-.012.498-.054.746-.055.327-.221.618-.342.923-.035.088-.083.201-.062.299.033.155.197.178.11.356-.064.13-.161.244-.242.362a.39.39 0 0 0-.085.22c.001.06.038.113.03.173-.009.082-.084.138-.1.218-.02.098.032.22.072.308.17.368.87.977 1.318.843.164-.05.26-.312.245-.466-.02-.211-.144-.1-.29-.15-.268-.094.206-.652.186-.832-.009-.075-.07-.137-.073-.218-.008-.22.42-.593.603-.67.19-.081.329-.222.488-.339a2.654 2.654 0 0 1-.876-.66zM18.606 5.342c.07.005.156.005.219.044.018.011.123.151.07.165-.06.015-.151-.009-.183.062-.016.036.006.077-.017.113-.017.027-.074.04-.08.07-.017.08.115.021.127.082.013.067-.186.124-.19.225-.005.082-.009.161.095.136.121-.03.204-.14.317-.187.035-.015.11-.01.136-.026.13-.085.3-.003.44-.02.125-.016.209-.154.188-.278-.011-.064-.036-.058-.1-.066-.131-.018-.157-.066-.216-.174-.065-.12-.222-.18-.31-.28-.037-.041-.076-.1-.062-.156.013-.057.133-.137.025-.183-.059-.025-.122.006-.182-.003-.082-.013-.024-.089-.08-.121-.044-.025-.15.01-.193.025a.37.37 0 0 0-.18.127c-.052.082-.006.115.01.192.042.193.135-.005.166.253z"/>
</svg>
