<svg xmlns="http://www.w3.org/2000/svg" xmlns:xlink="http://www.w3.org/1999/xlink" width="136" height="136" viewBox="0 0 136 136">
    <defs>
        <circle id="a" cx="68" cy="68" r="68"/>
        <path id="c" d="M0 144.5h88.4V0H0z"/>
    </defs>
    <g fill="none" fill-rule="evenodd">
        <mask id="b" fill="#fff">
            <use xlink:href="#a"/>
        </mask>
        <use fill="#A885D8" fill-rule="nonzero" xlink:href="#a"/>
        <g mask="url(#b)">
            <g transform="translate(25.5 17)">
                <path fill="#6C382D" d="M40.8 86.496c0 1.99 1.903 3.604 4.25 3.604s4.25-1.614 4.25-3.604V56.304c0-1.99-1.903-3.604-4.25-3.604s-4.25 1.614-4.25 3.604v30.192z"/>
                <path fill="#62342D" d="M74.8 43.35c0 4.225-2.664 7.65-5.95 7.65s-5.95-3.425-5.95-7.65c0-4.225 2.664-7.65 5.95-7.65s5.95 3.425 5.95 7.65"/>
                <path fill="#7C5346" d="M69.7 39.1C69.7 55.06 58.664 68 45.05 68 31.436 68 20.4 55.06 20.4 39.1c0-15.96 11.036-28.9 24.65-28.9 13.614 0 24.65 12.94 24.65 28.9"/>
                <path fill="#6C382D" d="M25.5 43.35c0 4.225-2.664 7.65-5.95 7.65s-5.95-3.425-5.95-7.65c0-4.225 2.664-7.65 5.95-7.65s5.95 3.425 5.95 7.65"/>
                <path fill="#000" d="M46.529 13.767C38.975 18.348 22.097 29.419 17.959 34c0 0-8.565-30.6 25.492-30.6 0 0 29.494 0 23.825 30.6 0 0-3.216-12.504-14.818-23.485l-5.93 3.252zM45.624 115.883l-3.822-40.09-8.586-.993L22.1 79.373V144.5h47.6V79.373L58.584 74.8l-9.142.343z"/>
                <path fill="#000" d="M73.096 144.5c-2.323-8.835-5.885-18.39-8.377-27.194-1.687-5.964-2.724-12.096-4.13-18.13a126.61 126.61 0 0 0-2.336-8.676c-.949-3.063-1.532-4.643-2.971-7.297-4.118-7.594 7.296-14.373 11.411-6.783 5.977 11.018 8.264 23.8 11.372 35.784 1.25 4.816 1.96 9.454 3.7 14.102 2.07 5.534 3.684 12.413 4.935 18.194H73.096zM13.604 144.5c2.323-8.835 5.885-18.39 8.377-27.194 1.687-5.964 2.725-12.096 4.13-18.13.68-2.918 1.451-5.815 2.336-8.676.948-3.063 1.531-4.643 2.971-7.297 4.118-7.594-7.295-14.373-11.412-6.783-5.976 11.018-8.263 23.8-11.371 35.784-1.25 4.816-1.96 9.454-3.7 14.102C2.866 131.84 1.252 138.719 0 144.5h13.604z"/>
                <path fill="#000" d="M47.147 71.548L43.162 87.56 39.93 71.4 28.9 76.137l14.1 50.71.186.653.19-.67L57.8 76.304z"/>
                <path fill="#A5A5A5" d="M42.763 98.863c-.263 0-.263 0-.263-.263M42.763 110.763c-.263 0-.263 0-.263-.263"/>
                <path fill="#000" d="M55.352 10.303c-1.718 1.363-3.42 2.625-5.064 4.098-1.736 1.555-3.427 3.167-5.178 4.704a118.622 118.622 0 0 1-5.381 4.422c-1.832 1.427-3.842 2.621-5.534 4.228-.49.465.027 1.286.623 1.124 4.24-1.153 8.126-4.564 11.404-7.488 1.668-1.487 3.32-3.013 4.874-4.632 1.734-1.805 3.251-3.714 4.878-5.611.365-.426-.132-1.234-.622-.845M30.6 41.65c0 2.347-.761 4.25-1.7 4.25s-1.7-1.903-1.7-4.25.761-4.25 1.7-4.25 1.7 1.903 1.7 4.25M28.045 32.216c.738-.5 2.041-.829 3.415-.945 1.445-.121 2.636.117 3.812.433.211.057.483-.037.418-.134-.528-.782-2.494-1.072-4.295-.939-1.937.144-3.429.691-4.163 1.442-.196.2.559.315.813.143"/>
                <path fill="#000" d="M27.216 37.587c.36.647.86 1.41 1.551 1.512.11.016.181-.187.094-.268-.254-.236-.552-.38-.809-.616a5.368 5.368 0 0 1-.673-.778c-.077-.105-.228.033-.163.15M51 41.65c0 2.347.76 4.25 1.7 4.25.939 0 1.7-1.903 1.7-4.25s-.761-4.25-1.7-4.25c-.94 0-1.7 1.903-1.7 4.25M59.468 32.074c-.735-.751-2.227-1.3-4.164-1.443-1.8-.133-3.767.157-4.294.94-.065.096.206.19.418.133 1.182-.318 2.358-.552 3.812-.432 1.373.113 2.679.446 3.414.944.252.17 1.011.06.814-.142M55.921 37.438a5.407 5.407 0 0 1-.673.777c-.256.237-.555.38-.81.616-.086.08-.016.284.094.268.692-.102 1.192-.865 1.552-1.512.065-.115-.085-.256-.163-.15"/>
                <path fill="#6C382D" d="M41.71 40.96c.155 2.318-.268 5.134-2.026 6.05-1.158.603-.412 2.94.656 2.116 1.047-.808 1.864-2.005 2.089-3.654.229-1.677-.14-2.99-.48-4.556-.037-.172-.251-.149-.239.044M67.791 37.404c-.935.266-1.33 2.244-1.454 4.053-.085 1.233-.094 4.403.781 4.443.064.003.14-.132.13-.28-.07-1.207-.353-2.207-.33-3.493.025-1.34.25-3.349.931-3.805.222-.148.196-.99-.058-.918"/>
                <path fill="#F6A152" d="M15.45 38.322c.683.457.907 2.463.932 3.805.023 1.291-.26 2.283-.33 3.492-.01.15.066.284.13.28.875-.039.866-3.21.781-4.442-.124-1.81-.519-3.787-1.454-4.053-.252-.071-.282.768-.058.918"/>
                <path fill="#000" d="M20.4 50.69c0 2.05-1.66 3.71-3.709 3.71H13.91a3.71 3.71 0 0 1-3.709-3.71V37.71A3.71 3.71 0 0 1 13.91 34h2.781a3.709 3.709 0 0 1 3.709 3.71v12.98zM68 50.69c0 2.05 1.66 3.71 3.71 3.71h2.78a3.71 3.71 0 0 0 3.71-3.71V37.71A3.71 3.71 0 0 0 74.49 34h-2.78A3.709 3.709 0 0 0 68 37.71v12.98z"/>
                <path stroke="#000" stroke-width="4.75" d="M13.6 37.4C13.6 16.744 26.92 0 43.35 0S73.1 16.744 73.1 37.4"/>
                <path stroke="#000" stroke-width="3.712" d="M69.7 40.8c0 10.328-7.61 18.7-17 18.7"/>
                <path fill="#000" d="M56.1 57.8c0 .939-1.522 1.7-3.4 1.7s-3.4-.761-3.4-1.7 1.522-1.7 3.4-1.7 3.4.761 3.4 1.7"/>
                <path fill="#6C382D" d="M37.49 57.468c2.07 3.09 8.61 2.483 10.063-.65.333-.718-1.198-1.027-1.529-.313-1.04 2.241-5.749 2.483-7.164.368-.455-.679-1.823-.082-1.37.595"/>
                <mask id="d" fill="#fff">
                    <use xlink:href="#c"/>
                </mask>
                <path fill="#FF7900" d="M25.5 102h11.9V90.1H25.5z" mask="url(#d)"/>
            </g>
        </g>
    </g>
</svg>
