<svg xmlns="http://www.w3.org/2000/svg" width="21" height="27" viewBox="0 0 21 27">
    <path fill="#000" fill-rule="evenodd" d="M7.544 15.088a5.162 5.162 0 1 0 0-10.323 5.162 5.162 0 0 0 0 10.323m3.528.217a6.402 6.402 0 0 1-3.528 1.054 6.402 6.402 0 0 1-3.528-1.054A5.561 5.561 0 0 0 0 20.647v4.765C0 26.289.711 27 1.588 27h13.5v-6.353a5.561 5.561 0 0 0-4.016-5.342m5.559-4.764a6.399 6.399 0 0 1-3.367 1.05 5.96 5.96 0 0 1-1.961 2.954 6.356 6.356 0 0 1 4.58 6.102v1.588h4.764v-6.353a5.561 5.561 0 0 0-4.016-5.341M13.5 9.926c0 .13-.005.257-.013.383a5.162 5.162 0 1 0-5.413-6.315A5.956 5.956 0 0 1 13.5 9.926"/>
</svg>
