<svg xmlns="http://www.w3.org/2000/svg" xmlns:xlink="http://www.w3.org/1999/xlink" width="298" height="264" viewBox="0 0 298 264">
    <defs>
        <path id="a" d="M0 .034h34.995v25.964H0z"/>
        <path id="c" d="M0 84h184V0H0z"/>
    </defs>
    <g fill="none" fill-rule="evenodd">
        <g opacity=".396" transform="translate(0 180)">
            <path fill="#B5E8F7" d="M108.649 23h-1.92c0-.825-.607-1.5-1.35-1.5h-3.024c0-.825-.608-1.5-1.351-1.5h-4.798c-.744 0-1.352.675-1.352 1.5h-.736c-.743 0-1.351.675-1.351 1.5H91.35c-.743 0-1.351.675-1.351 1.5s.608 1.5 1.351 1.5h17.298c.743 0 1.351-.675 1.351-1.5s-.608-1.5-1.351-1.5"/>
            <g transform="translate(0 58)">
                <mask id="b" fill="#fff">
                    <use xlink:href="#a"/>
                </mask>
                <path fill="#000" d="M34.995.034H16.89v16.873h-6.23v-5.54H0v14.631h34.995z" mask="url(#b)"/>
            </g>
            <mask id="d" fill="#fff">
                <use xlink:href="#c"/>
            </mask>
            <path fill="#595959" d="M18 60h16v-1H18zM18 62h16v-1H18zM18 64h16v-1H18zM18 66h16v-1H18zM18 67h16v-1H18zM18 69h16v-1H18zM18 70h16v-1H18zM18 72h16v-1H18zM1 74h1v-2H1zM4 74h1v-2H4zM6 74h1v-2H6zM8 74h1v-2H8zM1 77h1v-2H1zM4 77h1v-2H4zM6 77h1v-2H6zM8 77h1v-2H8zM1 79h1v-2H1zM4 79h1v-2H4zM6 79h1v-2H6zM8 79h1v-2H8z" mask="url(#d)"/>
            <path fill="#000" d="M71 85h8V60h-8zM117 84h18V32h-18z" mask="url(#d)"/>
            <path fill="#595959" d="M119 35h3v-1h-3zM119 38h3v-1h-3zM119 40h3v-1h-3zM119 43h3v-1h-3zM119 44h3v-1h-3zM119 47h3v-1h-3zM119 50h3v-1h-3zM119 52h3v-1h-3zM119 55h3v-1h-3zM119 57h3v-1h-3zM119 59h3v-1h-3zM119 61h3v-1h-3zM119 64h3v-1h-3zM119 67h3v-1h-3zM123 35h3v-1h-3zM123 38h3v-1h-3zM123 40h3v-1h-3zM123 43h3v-1h-3zM123 44h3v-1h-3zM123 47h3v-1h-3zM123 50h3v-1h-3zM123 52h3v-1h-3zM123 55h3v-1h-3zM123 57h3v-1h-3zM123 59h3v-1h-3zM123 61h3v-1h-3zM123 64h3v-1h-3zM123 67h3v-1h-3zM126 35h3v-1h-3zM126 38h3v-1h-3zM126 40h3v-1h-3zM126 43h3v-1h-3zM126 44h3v-1h-3zM126 47h3v-1h-3zM126 50h3v-1h-3zM126 52h3v-1h-3zM126 55h3v-1h-3zM126 57h3v-1h-3zM126 59h3v-1h-3zM126 61h3v-1h-3zM126 64h3v-1h-3zM126 67h3v-1h-3zM130 35h3v-1h-3zM130 38h3v-1h-3zM130 40h3v-1h-3zM130 43h3v-1h-3zM130 44h3v-1h-3zM130 47h3v-1h-3zM130 50h3v-1h-3zM130 52h3v-1h-3zM130 55h3v-1h-3zM130 57h3v-1h-3zM130 59h3v-1h-3zM130 61h3v-1h-3zM130 64h3v-1h-3zM130 67h3v-1h-3zM119 69h3v-1h-3zM119 71h3v-1h-3zM123 69h3v-1h-3zM123 71h3v-1h-3zM126 69h3v-1h-3zM126 71h3v-1h-3zM130 69h3v-1h-3zM130 71h3v-1h-3zM119 74h3v-1h-3zM119 76h3v-1h-3zM123 74h3v-1h-3zM123 76h3v-1h-3zM126 74h3v-1h-3zM126 76h3v-1h-3zM130 74h3v-1h-3zM130 76h3v-1h-3z" mask="url(#d)"/>
            <path fill="#0A6E31" d="M178 79c.835 0 1.665-.33 2.203-.86.204.166.468.267.757.267.646 0 1.17-.5 1.17-1.115l-.002-.034c1.096-.414 1.872-1.433 1.872-2.625a2.71 2.71 0 0 0-.41-1.431c.26-.42.41-.91.41-1.432 0-1.196-.78-2.217-1.883-2.629.008-.063.013-.128.013-.194 0-.89-.757-1.611-1.69-1.611-.029 0-.057 0-.084.002-.486-.8-1.317-1.338-2.356-1.338v13z" mask="url(#d)"/>
            <path fill="#482E26" d="M178 74.008V85h1.636l-.43-6.67 1.895-1.7 1.899-.947-.139-.284-1.728.559.257-1.577-.42-.01-.47 1.678-1.56 1.213-.208-3.242.88-1.78-.362-.24z" mask="url(#d)"/>
            <path fill="#50BE87" d="M10 84c0-3.95 2.32-16.931 5.18-16.931 1.96 0 3.667 4.623 4.546 10.89.765-4.368 1.93-8.744 3.237-8.744 1.034 0 1.98 2.746 2.708 6.058C26.714 67.998 28.682 59 30.941 59 34.286 59 37 79.38 37 84H10z" mask="url(#d)"/>
            <path fill="#0A6E31" d="M18.829 68.827a3.666 3.666 0 0 0-1.04-2.082c.066-.104.12-.221.154-.348.183-.664-.177-1.36-.803-1.553a1.13 1.13 0 0 0-.147-.034c-.006-1.65-1.028-3.17-2.601-3.656-1.916-.592-3.923.573-4.482 2.602a4.03 4.03 0 0 0-.118 1.542c-.73.176-1.35.753-1.574 1.567a2.37 2.37 0 0 0 .086 1.517A3.91 3.91 0 0 0 7 71.324c0 2.114 1.618 3.827 3.614 3.827a3.43 3.43 0 0 0 1.43-.312c.364.692 1.061 1.161 1.862 1.161.809 0 1.512-.477 1.873-1.18.297.094.612.145.938.145C18.53 74.965 20 73.41 20 71.49a3.553 3.553 0 0 0-1.171-2.662" mask="url(#d)"/>
            <path fill="#482E26" d="M13.231 75.216L13.15 84h1.743l-.107-8.79a.564.564 0 0 1 .147-.428l1.864-2.132L19 71.417l-.126-.314-2.078.822.946-2.804-.312-.15-1.487 3.195-1.316 1.043c-.08.068-.2.017-.212-.09L13.843 68h-.64v4.964c0 .11-.116.175-.202.115l-1.515-1.1-.714-2.317-.28.142.369 2.079-1.744-.526-.117.352 1.953.947 2.096 2.139a.56.56 0 0 1 .182.42" mask="url(#d)"/>
            <path fill="#8F8F8F" d="M6.753 84h.494v-7h-.494z" mask="url(#d)"/>
            <path fill="#FF7900" d="M5.037 78.535l1.726-3.38c.105-.207.369-.207.474 0l1.726 3.38c.105.207-.027.465-.238.465h-3.45c-.211 0-.343-.258-.238-.465" mask="url(#d)"/>
            <path fill="#000" d="M71.866 41.909h2.7l.693 3.179-3.393-3.18zm-.22-.972l2.243-2.128.603 2.763h-2.984l.139-.635zm1.801-2.186l-1.669 1.584.346-1.584h1.323zm.354-.337h-1.604l.803-3.68.803 3.68H73.8zm2.195 8.384l-2.778-12.737a.32.32 0 0 0 .13-.253.33.33 0 0 0-.214-.303v-.74a.397.397 0 0 0 .284-.371c0-.217-.188-.394-.418-.394-.23 0-.418.177-.418.394 0 .172.12.317.284.37v.741a.33.33 0 0 0-.214.303.32.32 0 0 0 .13.253l-2.778 12.737a.17.17 0 0 0 .139.199c.096.018.19-.04.21-.131l1.07-4.899 3.966 3.717.258 1.182c.02.09.114.15.21.13a.169.169 0 0 0 .14-.198z" mask="url(#d)"/>
            <path fill="#FFF" d="M34 84h42V49H34z" mask="url(#d)"/>
            <path fill="#D6D6D6" d="M40 67h35V52H40z" mask="url(#d)"/>
            <path fill="#595959" d="M40 67h34V54H40z" mask="url(#d)"/>
            <path fill="#8F8F8F" d="M40 85h35V68H40z" mask="url(#d)"/>
            <path fill="#595959" d="M40 68.246h35v-.492H40zM40 69.246h35v-.492H40zM40 70.246h35v-.492H40zM40 72.246h35v-.492H40zM40 73.246h35v-.492H40zM40 74.246h35v-.492H40zM40 75.246h35v-.492H40zM40 76.246h35v-.492H40zM40 77.246h35v-.492H40zM40 79.246h35v-.492H40zM40 80.246h35v-.492H40zM40 82.246h35v-.492H40zM40 84.246h35v-.492H40zM47 48h29v-1H47z" mask="url(#d)"/>
            <path fill="#000" d="M47 47h29v-1H47z" mask="url(#d)"/>
            <path fill="#8F8F8F" d="M34 84h1V49h-1z" mask="url(#d)"/>
            <path fill="#000" d="M34 50h42v-1H34zM40 85h9V72h-9z" mask="url(#d)"/>
            <path fill="#FF7900" d="M40 84h7V74h-7z" mask="url(#d)"/>
            <path fill="#595959" d="M41 43.584l2.289-2.068a.37.37 0 1 1 .195.195L41.416 44 41 43.584z" mask="url(#d)"/>
            <path fill="#D6D6D6" d="M38.853 47.37l1.547-2.747c.31.163.636.291.972.384l.548.973-3.067 1.39zM38 48h.498l3.632-1.647.928 1.647h.498l-1.618-2.873c1.432.222 2.957-.168 4.062-1.172L39.443 38c-1.81 1.645-1.81 4.31 0 5.955.183.167.379.316.583.448L38 48z" mask="url(#d)"/>
            <path fill="#714E46" d="M64.247 84l-.096-10h-.377l-.02 10z" mask="url(#d)"/>
            <path fill="#0A6E31" d="M67.486 73.07a1.2 1.2 0 0 0 .407-.91c0-.646-.489-1.17-1.092-1.17l-.024.001c-.041-.383-.324-.687-.682-.732-.21-.73-.844-1.259-1.594-1.259-.62 0-1.16.363-1.448.9a.843.843 0 0 0-.085-.004c-.485 0-.878.42-.878.94 0 .15.033.29.091.416l-.04-.002c-.509 0-.922.442-.922.987 0 .308.132.583.339.765v.008A1.527 1.527 0 0 0 61 74.204c0 .824.624 1.492 1.393 1.492.08 0 .16-.008.236-.022.004.733.56 1.326 1.246 1.326.299 0 .573-.113.788-.301a.884.884 0 0 0 .624.263c.488 0 .887-.408.917-.923.062.008.125.013.19.013.887 0 1.606-.77 1.606-1.721 0-.498-.198-.947-.514-1.26" mask="url(#d)"/>
            <path fill="#595959" d="M27 85h12v-2H27z" mask="url(#d)"/>
            <path fill="#0A6E31" d="M41.22 69.659a1.02 1.02 0 0 0 .146-.527c0-.537-.406-.972-.91-.984a3.396 3.396 0 0 0-1.312-2.684c-.168-1.39-1.29-2.464-2.65-2.464-1.45 0-2.63 1.222-2.67 2.745-.456.065-.807.476-.807.975 0 .092.012.18.035.265a1.776 1.776 0 0 0-.747 1.694c-.762.3-1.305 1.076-1.305 1.986 0 .866.492 1.61 1.196 1.939.226.91 1.008 1.58 1.94 1.58.193 0 .38-.03.557-.083.13.401.49.69.913.69a.925.925 0 0 0 .544-.176c.323.242.719.385 1.146.385.922 0 1.697-.665 1.92-1.566.222.085.46.131.709.131 1.146 0 2.075-.982 2.075-2.193 0-.694-.305-1.311-.78-1.713" mask="url(#d)"/>
            <path fill="#714E46" d="M35.813 85L36 76.604l-1.856-3.241L32 71.78l.252-.135 1.845 1.133-.611-2.544h.304l.792 2.845 1.494 2.22-.04-2.755-.778-3.28h.26l.736 2.58L37.282 69l.232.18-1.063 3.296.24 2.84 1.357-2.823.397-2.28.205.109-.211 2.1 1.475-.503.086.273-1.668.72-1.469 3.688.314 8.4z" mask="url(#d)"/>
            <path fill="#8F8F8F" d="M53 46h5v-5h-5z" mask="url(#d)"/>
            <path fill="#D6D6D6" d="M58 42.5a2.5 2.5 0 1 1-5 0 2.5 2.5 0 0 1 5 0" mask="url(#d)"/>
            <path fill="#595959" d="M58 42.5a2.5 2.5 0 1 1-5 0 2.5 2.5 0 0 1 5 0" mask="url(#d)"/>
            <path fill="#D6D6D6" d="M57.933 45.246h-4.866c-.037 0-.067-.11-.067-.246 0-.135.03-.246.067-.246h4.866c.037 0 .067.11.067.246 0 .135-.03.246-.067.246" mask="url(#d)"/>
            <path fill="#000" d="M57 42a2 2 0 1 1-4 0 2 2 0 0 1 4 0" mask="url(#d)"/>
            <path fill="#8F8F8F" d="M59 46h5v-5h-5z" mask="url(#d)"/>
            <path fill="#D6D6D6" d="M64 42.5a2.5 2.5 0 1 1-5 0 2.5 2.5 0 0 1 5 0" mask="url(#d)"/>
            <path fill="#595959" d="M65 42.5a2.5 2.5 0 1 1-5 0 2.5 2.5 0 0 1 5 0" mask="url(#d)"/>
            <path fill="#D6D6D6" d="M63.933 45.246h-4.866c-.037 0-.067-.11-.067-.246 0-.135.03-.246.067-.246h4.866c.037 0 .067.11.067.246 0 .135-.03.246-.067.246" mask="url(#d)"/>
            <path fill="#000" d="M64 42a2 2 0 1 1-4 0 2 2 0 0 1 4 0M160 8c-.136 0-.247-.046-.247-.102V.102c0-.056.111-.102.247-.102s.247.046.247.102v7.796c0 .056-.111.102-.247.102M155 44h10V16h-10zM157 16h6V9h-6z" mask="url(#d)"/>
            <path fill="#595959" d="M160 4l3 5h-6zM157 10.246h5v-.492h-5zM157 11.246h5v-.492h-5zM157 12.246h5v-.492h-5zM157 13.246h5v-.492h-5zM157 14.246h5v-.492h-5zM157 18h1v-1h-1zM157 45h1V20h-1zM159 18h1v-1h-1zM159 45h1V20h-1zM162 18h1v-1h-1zM162 45h1V20h-1zM161 65h13V50h-13z" mask="url(#d)"/>
            <path fill="#B5E8F7" d="M174 50h-13v-6h8.92z" mask="url(#d)"/>
            <path fill="#8F8F8F" d="M170.578 43.754H162v.492h9z" mask="url(#d)"/>
            <path fill="#D6D6D6" d="M161 65h4V50h-4zM166 65h4V50h-4zM170 65h4V50h-4z" mask="url(#d)"/>
            <path fill="#8F8F8F" d="M162 53.246h11v-.492h-11zM162 50.246h11v-.492h-11zM162 56.246h11v-.492h-11zM162 59.246h11v-.492h-11zM162 62.246h11v-.492h-11z" mask="url(#d)"/>
            <path fill="#FFB400" d="M152 25h9v-5h-9z" mask="url(#d)"/>
            <path fill="#D9C2F0" d="M141 84h20V25h-20z" mask="url(#d)"/>
            <path fill="#FF7900" d="M161 25h-20v-5h10z" mask="url(#d)"/>
            <path fill="#FFB400" d="M142 25h9v-5z" mask="url(#d)"/>
            <path fill="#B5E8F7" d="M146 84h9V74h-9z" mask="url(#d)"/>
            <path fill="#4BB4E6" d="M150.964 84h.072V74h-.072z" mask="url(#d)"/>
            <path fill="#8F8F8F" d="M146 84h1V74h-1zM156 84h1V74h-1z" mask="url(#d)"/>
            <path fill="#FF7900" d="M146 73l4.742-1.95a.69.69 0 0 1 .516 0L156 73h-10z" mask="url(#d)"/>
            <path fill="#D9C2F0" d="M146 83c-.028 0-.05-.02-.05-.047v-8.906c0-.026.022-.047.05-.047.028 0 .05.02.05.047v8.906c0 .026-.022.047-.05.047" mask="url(#d)"/>
            <path fill="#D9C2F0" d="M146 83c-.028 0-.05-.02-.05-.047v-8.906c0-.026.022-.047.05-.047.028 0 .05.02.05.047v8.906c0 .026-.022.047-.05.047M147 83c-.028 0-.05-.02-.05-.047v-8.906c0-.026.022-.047.05-.047.028 0 .05.02.05.047v8.906c0 .026-.022.047-.05.047" mask="url(#d)"/>
            <path fill="#D9C2F0" d="M147 83c-.028 0-.05-.02-.05-.047v-8.906c0-.026.022-.047.05-.047.028 0 .05.02.05.047v8.906c0 .026-.022.047-.05.047M155 83c-.028 0-.05-.02-.05-.047v-8.906c0-.026.022-.047.05-.047.028 0 .05.02.05.047v8.906c0 .026-.022.047-.05.047M156 83c-.028 0-.05-.02-.05-.047v-8.906c0-.026.022-.047.05-.047.028 0 .05.02.05.047v8.906c0 .026-.022.047-.05.047" mask="url(#d)"/>
            <path fill="#D9C2F0" d="M156 83c-.028 0-.05-.02-.05-.047v-8.906c0-.026.022-.047.05-.047.028 0 .05.02.05.047v8.906c0 .026-.022.047-.05.047" mask="url(#d)"/>
            <path fill="#D9C2F0" d="M156 83c-.028 0-.05-.02-.05-.047v-8.906c0-.026.022-.047.05-.047.028 0 .05.02.05.047v8.906c0 .026-.022.047-.05.047" mask="url(#d)"/>
            <path fill="#492191" d="M146 74h10v-1h-10zM141 84h6v-1h-6zM156 84h6v-1h-6z" mask="url(#d)"/>
            <path fill="#FFF" d="M152 80c-.136 0-.247-.039-.247-.087v-1.826c0-.048.11-.087.247-.087.136 0 .247.039.247.087v1.826c0 .048-.11.087-.247.087M151 80c-.136 0-.247-.039-.247-.087v-1.826c0-.048.11-.087.247-.087.136 0 .247.039.247.087v1.826c0 .048-.11.087-.247.087" mask="url(#d)"/>
            <path fill="#D9C2F0" d="M153.033 17L156 21h-10l2.967-4z" mask="url(#d)"/>
            <path fill="#8F8F8F" d="M141 26h20v-1h-20z" mask="url(#d)"/>
            <path fill="#000" d="M141 26h20v-1h-20z" mask="url(#d)"/>
            <path fill="#FFF" d="M161 85h17V64h-17z" mask="url(#d)"/>
            <path fill="#000" d="M162 84h14V74h-14z" mask="url(#d)"/>
            <path fill="#8F8F8F" d="M163 85h13V75h-13z" mask="url(#d)"/>
            <path fill="#000" d="M161 64.246h17v-.492h-17zM163 72h4v-6h-4z" mask="url(#d)"/>
            <path fill="#595959" d="M163 68h1v-2h-1zM165 68h1v-2h-1zM163 71h1v-2h-1zM165 71h1v-2h-1z" mask="url(#d)"/>
            <path fill="#000" d="M167 72h4v-6h-4z" mask="url(#d)"/>
            <path fill="#595959" d="M168 68h1v-2h-1zM170 68h1v-2h-1zM168 71h1v-2h-1zM170 71h1v-2h-1z" mask="url(#d)"/>
            <path fill="#000" d="M173 72h4v-6h-4z" mask="url(#d)"/>
            <path fill="#595959" d="M173 68h1v-2h-1zM175 68h1v-2h-1zM173 71h1v-2h-1zM175 71h1v-2h-1z" mask="url(#d)"/>
            <path fill="#8F8F8F" d="M162 72.246h5v-.492h-5zM167 72.246h5v-.492h-5zM173 72.246h5v-.492h-5z" mask="url(#d)"/>
            <path fill="#000" d="M165.929 84h-.858a.074.074 0 0 1-.071-.076V83h1v.924c0 .042-.032.076-.071.076M173.929 84h-.858a.074.074 0 0 1-.071-.076V83h1v.924c0 .042-.032.076-.071.076" mask="url(#d)"/>
            <path fill="#000" d="M173.77 78.46h-.726l-.294-1.683c-.078-.451-.436-.777-.851-.777h-5.786c-.414 0-.77.323-.85.772l-.304 1.689h-.728c-.13 0-.231.154-.231.343 0 .19.101.358.23.375l.584.078-.375 1.26a3.509 3.509 0 0 0-.117.898v2.266c0 .176.13.319.29.319h8.777c.16 0 .289-.143.289-.32v-2.265c0-.304-.04-.606-.117-.897l-.375-1.261.583-.078c.13-.017.231-.186.231-.375s-.101-.343-.23-.343" mask="url(#d)"/>
            <path fill="#B5E8F7" d="M173.249 77h-6.495c-.13 0-.256.078-.281.173l-.471 1.758c-.01.036.026.069.074.069h7.848c.048 0 .084-.033.074-.069l-.471-1.76c-.026-.094-.15-.171-.278-.171" mask="url(#d)"/>
            <path fill="#595959" d="M172.832 83.246h-7.664c-.092 0-.168-.11-.168-.246 0-.135.076-.246.168-.246h7.664c.092 0 .168.11.168.246 0 .135-.076.246-.168.246" mask="url(#d)"/>
            <path fill="#FFF6B6" d="M165.024 82h.952c.013 0 .024-.018.024-.04v-.92c0-.022-.01-.04-.024-.04h-.928c-.027 0-.048.035-.048.08v.88c0 .022.01.04.024.04" mask="url(#d)"/>
            <path fill="#FF7900" d="M165.024 81.754h.952c.013 0 .024.03.024.067v.358c0 .037-.01.067-.024.067h-.928c-.027 0-.048-.06-.048-.134v-.29c0-.038.01-.068.024-.068" mask="url(#d)"/>
            <path fill="#FFF6B6" d="M173.976 82h-.952c-.013 0-.024-.018-.024-.04v-.92c0-.022.01-.04.024-.04h.928c.027 0 .048.035.048.08v.88c0 .022-.01.04-.024.04" mask="url(#d)"/>
            <path fill="#FF7900" d="M173.976 81.754h-.952c-.013 0-.024.03-.024.067v.358c0 .037.01.067.024.067h.928c.027 0 .048-.06.048-.134v-.29c0-.038-.01-.068-.024-.068" mask="url(#d)"/>
            <path fill="#8F8F8F" d="M171.96 82h-4.92c-.022 0-.04-.01-.04-.02v-.96c0-.01.018-.02.04-.02h4.92c.022 0 .04.01.04.02v.96c0 .01-.018.02-.04.02" mask="url(#d)"/>
            <path fill="#595959" d="M167 80.064h5v-.128h-5zM167 81.064h5v-.128h-5z" mask="url(#d)"/>
            <path fill="#595959" d="M167 81.064h5v-.128h-5zM167 82.064h5v-.128h-5z" mask="url(#d)"/>
            <path fill="#595959" d="M167 82.064h5v-.128h-5zM167 83.064h5v-.128h-5z" mask="url(#d)"/>
            <path fill="#FF7900" d="M116 84h25V48h-25z" mask="url(#d)"/>
            <path fill="#8F8F8F" d="M131 48h10v-5h-10z" mask="url(#d)"/>
            <path fill="#FFD200" d="M129.606 47H129v-.588c0-.228.308-.412.687-.412H131v.363h-1.212c-.1 0-.182.05-.182.11V47z" mask="url(#d)"/>
            <path fill="#FFB400" d="M127.76 48H127v-2.172c0-.457.386-.828.862-.828H131v.73h-3.012a.224.224 0 0 0-.228.22V48z" mask="url(#d)"/>
            <path fill="#FFD200" d="M130.976 48h.27v-1h-.27c-.123 0-.223.169-.223.378v.244c0 .209.1.378.223.378" mask="url(#d)"/>
            <path fill="#FFD200" d="M130.912 47.246h.176c.087 0 .159-.11.159-.246 0-.135-.072-.246-.16-.246h-.175c-.087 0-.159.11-.159.246 0 .135.072.246.16.246" mask="url(#d)"/>
            <path fill="#FF7900" d="M131 48c-.027 0-.05-.019-.05-.042v-.916c0-.023.023-.042.05-.042.027 0 .05.019.05.042v.916c0 .023-.023.042-.05.042" mask="url(#d)"/>
            <path fill="#595959" d="M132 47h3v-3h-3z" mask="url(#d)"/>
            <path fill="#000" d="M132 44.032h3v-.063h-3z" mask="url(#d)"/>
            <path fill="#000" d="M132 44.032h3v-.063h-3z" mask="url(#d)"/>
            <path fill="#000" d="M132 44.032h3v-.063h-3z" mask="url(#d)"/>
            <path fill="#000" d="M132 44.032h3v-.063h-3z" mask="url(#d)"/>
            <path fill="#000" d="M132 44.032h3v-.063h-3z" mask="url(#d)"/>
            <path fill="#000" d="M132 44.032h3v-.063h-3zM132 45.032h3v-.063h-3z" mask="url(#d)"/>
            <path fill="#000" d="M132 45.032h3v-.063h-3z" mask="url(#d)"/>
            <path fill="#000" d="M132 45.032h3v-.063h-3z" mask="url(#d)"/>
            <path fill="#000" d="M132 45.032h3v-.063h-3z" mask="url(#d)"/>
            <path fill="#000" d="M132 45.032h3v-.063h-3z" mask="url(#d)"/>
            <path fill="#000" d="M132 45.032h3v-.063h-3z" mask="url(#d)"/>
            <path fill="#000" d="M132 45.032h3v-.063h-3z" mask="url(#d)"/>
            <path fill="#000" d="M132 45.032h3v-.063h-3z" mask="url(#d)"/>
            <path fill="#000" d="M132 45.032h3v-.063h-3z" mask="url(#d)"/>
            <path fill="#000" d="M132 45.032h3v-.063h-3z" mask="url(#d)"/>
            <path fill="#000" d="M132 45.032h3v-.063h-3z" mask="url(#d)"/>
            <path fill="#000" d="M132 45.032h3v-.063h-3z" mask="url(#d)"/>
            <path fill="#000" d="M132 45.032h3v-.063h-3zM132 46.032h3v-.063h-3z" mask="url(#d)"/>
            <path fill="#000" d="M132 46.032h3v-.063h-3z" mask="url(#d)"/>
            <path fill="#000" d="M132 46.032h3v-.063h-3z" mask="url(#d)"/>
            <path fill="#000" d="M132 46.032h3v-.063h-3z" mask="url(#d)"/>
            <path fill="#000" d="M132 46.032h3v-.063h-3z" mask="url(#d)"/>
            <path fill="#000" d="M132 46.032h3v-.063h-3z" mask="url(#d)"/>
            <path fill="#000" d="M132 46.032h3v-.063h-3zM132 47.032h3v-.063h-3z" mask="url(#d)"/>
            <path fill="#000" d="M132 47.032h3v-.063h-3z" mask="url(#d)"/>
            <path fill="#8F8F8F" d="M132.04 44a.04.04 0 1 1-.08 0 .04.04 0 0 1 .08 0M132.04 47a.04.04 0 1 1-.08 0 .04.04 0 0 1 .08 0M135.04 44a.04.04 0 1 1-.08 0 .04.04 0 0 1 .08 0M135.04 47a.04.04 0 1 1-.08 0 .04.04 0 0 1 .08 0" mask="url(#d)"/>
            <path fill="#595959" d="M136 47h3v-3h-3z" mask="url(#d)"/>
            <path fill="#8F8F8F" d="M136.04 44a.04.04 0 1 1-.08 0 .04.04 0 0 1 .08 0M136.04 47a.04.04 0 1 1-.08 0 .04.04 0 0 1 .08 0M139.04 44a.04.04 0 1 1-.08 0 .04.04 0 0 1 .08 0M139.04 47a.04.04 0 1 1-.08 0 .04.04 0 0 1 .08 0M139 45a1 1 0 1 1-2 0 1 1 0 0 1 2 0" mask="url(#d)"/>
            <path fill="#000" d="M139 45a1 1 0 1 1-2 0 1 1 0 0 1 2 0" mask="url(#d)"/>
            <path fill="#8F8F8F" d="M137.247 45a.246.246 0 1 1-.493-.001.246.246 0 0 1 .493.001" mask="url(#d)"/>
            <path fill="#8F8F8F" d="M137 45.05h2v-.1h-2z" mask="url(#d)"/>
            <path fill="#8F8F8F" d="M137.95 46h.1v-2h-.1zM140 43h1v-1h-1z" mask="url(#d)"/>
            <path fill="#595959" d="M140 42.246h1v-.492h-1z" mask="url(#d)"/>
            <path fill="#8F8F8F" d="M141 42.246h-1l.236-.492h.528zM138 43h1v-1h-1z" mask="url(#d)"/>
            <path fill="#595959" d="M138 42.246h1v-.492h-1z" mask="url(#d)"/>
            <path fill="#8F8F8F" d="M139 42.246h-1l.236-.492h.528z" mask="url(#d)"/>
            <path fill="#FFD200" d="M116 49h25v-1h-25z" mask="url(#d)"/>
            <path fill="#000" d="M120 73h18v-1h-18z" mask="url(#d)"/>
            <path fill="#D6D6D6" d="M126.472 43v4.524H117V48h10v-5z" mask="url(#d)"/>
            <path fill="#D6D6D6" d="M117 47l2.058-5H127l-2.058 5z" mask="url(#d)"/>
            <path fill="#FFF" d="M127 43h-7.902l-.09.215-1.802 4.294L117 48h7.902l.09-.215 1.802-4.294L127 43zm-.527.353l-1.801 4.294h-7.145l1.801-4.294h7.145z" mask="url(#d)"/>
            <path fill="#000" d="M120.306 44H119l.694-1H121zM122.306 44H121l.694-1H123zM124.306 44H123l.694-1H125zM119.306 46H118l.694-1H120zM121.306 46H120l.694-1H122zM123.306 46H122l.694-1H124z" mask="url(#d)"/>
            <path fill="#000" d="M125.306 44H124l.694-1H126zM125.306 46H124l.694-1H126z" mask="url(#d)"/>
            <path fill="#D6D6D6" d="M133 43v-7.625c0-.206.225-.375.5-.375s.5.169.5.375V43h-1z" mask="url(#d)"/>
            <path fill="#595959" d="M134.19 36.157a.247.247 0 0 1-.347.032.245.245 0 0 1-.033-.346.247.247 0 0 1 .347-.032c.105.086.12.241.033.346" mask="url(#d)"/>
            <path fill="#D6D6D6" d="M131.598 37.426c.985-1.322 1.263-1.501 1.37-1.404.105.098-.001.435-.987 1.757 0 0-1.87 2.315-1.976 2.218-.106-.097 1.593-2.57 1.593-2.57" mask="url(#d)"/>
            <path fill="#8F8F8F" d="M130.005 40c-.107-.097 1.61-2.573 1.61-2.573.997-1.323 1.278-1.502 1.385-1.405L130.005 40z" mask="url(#d)"/>
            <path fill="#D6D6D6" d="M135.944 35.726c-1.663-.28-1.968-.454-1.943-.6.025-.147.37-.212 2.033.068 0 0 2.99.626 2.966.773-.025.147-3.056-.241-3.056-.241" mask="url(#d)"/>
            <path fill="#8F8F8F" d="M139 36.962c-.025.168-3.056-.275-3.056-.275-1.663-.32-1.968-.52-1.943-.687l4.999.962zM132.443 34.108c.317 1.66.44 1.94.515 1.886.076-.055.076-.424-.24-2.085 0 0-.635-2.963-.71-2.908-.076.055.435 3.107.435 3.107" mask="url(#d)"/>
            <path fill="#D6D6D6" d="M132.008 31c-.079.055.454 3.108.454 3.108.33 1.66.459 1.94.538 1.886L132.008 31z" mask="url(#d)"/>
            <path fill="#FFF" d="M134.19 36.157a.247.247 0 0 1-.347.032.245.245 0 0 1-.033-.346.247.247 0 0 1 .347-.032c.105.086.12.241.033.346M120 84h17V72h-17z" mask="url(#d)"/>
            <path fill="#000" d="M119.753 84h.494V72h-.494zM136.753 84h.494V72h-.494z" mask="url(#d)"/>
            <path fill="#FFD200" d="M129 66.71V66h-3v3h3v-.71h-2.29v-1.58z" mask="url(#d)"/>
            <path fill="#FFD200" d="M129.29 67H127v.71h2.29v1.58H127V70h3v-3z" mask="url(#d)"/>
            <path fill="#FFF6B6" d="M76 46h4v-8h-4z" mask="url(#d)"/>
            <path fill="#FFB400" d="M79.879 39.246H76.12c-.066 0-.121-.11-.121-.246 0-.135.055-.246.121-.246h3.758c.066 0 .121.11.121.246 0 .135-.055.246-.121.246" mask="url(#d)"/>
            <path fill="#FFF6B6" d="M110 46h4v-8h-4z" mask="url(#d)"/>
            <path fill="#FFB400" d="M113.879 39.246h-3.758c-.066 0-.121-.11-.121-.246 0-.135.055-.246.121-.246h3.758c.066 0 .121.11.121.246 0 .135-.055.246-.121.246" mask="url(#d)"/>
            <path fill="#D6D6D6" d="M76 85h40V52H76z" mask="url(#d)"/>
            <path fill="#4BB4E6" d="M81 74h6v-2h-6z" mask="url(#d)"/>
            <path fill="#FFF" d="M80 74h6v-1h-6z" mask="url(#d)"/>
            <path fill="#595959" d="M114.807 46.5l-3.963-5.5H80.156l-3.963 5.5L75 52h41z" mask="url(#d)"/>
            <path fill="#000" d="M115 46l-3.9-6H80.9L77 46z" mask="url(#d)"/>
            <path fill="#FF7900" d="M101 84H91V71.115l4.607-3a.692.692 0 0 1 .762-.001l4.631 3V84z" mask="url(#d)"/>
            <path fill="#B5E8F7" d="M91 85h8V73h-8z" mask="url(#d)"/>
            <path fill="#8F8F8F" d="M91 70l4.608-2.89a.715.715 0 0 1 .761 0L101 70H91zM76 84h14v-3H76zM102 84h14v-3h-14z" mask="url(#d)"/>
            <path fill="#595959" d="M76 81.246h14v-.492H76zM102 81.246h14v-.492h-14z" mask="url(#d)"/>
            <path fill="#000" d="M90 72h11v-1H90z" mask="url(#d)"/>
            <path fill="#8F8F8F" d="M76 52.246h40v-.492H76z" mask="url(#d)"/>
            <path fill="#000" d="M105 79h6v-8h-6z" mask="url(#d)"/>
            <path fill="#FFF" d="M106 79h5v-7h-5z" mask="url(#d)"/>
            <path fill="#B5E8F7" d="M106 75h1v-3h-1zM108 75h1v-3h-1zM106 78h1v-3h-1zM108 78h1v-3h-1z" mask="url(#d)"/>
            <path fill="#595959" d="M105 78.246h6v-.492h-6z" mask="url(#d)"/>
            <path fill="#D6D6D6" d="M97 69a1 1 0 1 1-2 0 1 1 0 0 1 2 0" mask="url(#d)"/>
            <path fill="#8F8F8F" d="M97 69a1 1 0 1 1-2 0 1 1 0 0 1 2 0" mask="url(#d)"/>
            <path fill="#D6D6D6" d="M96 68.5a.5.5 0 1 1-1 0 .5.5 0 0 1 1 0" mask="url(#d)"/>
            <path fill="#595959" d="M95.544 69.83c.025 0 .05-.003.073-.007a.203.203 0 0 0 .062-.021.116.116 0 0 0 .043-.04.12.12 0 0 0 .016-.064c0-.052-.018-.088-.052-.11a.254.254 0 0 0-.137-.033h-.286v.274h.28zm-.015-.425c.046 0 .085-.01.115-.028.03-.019.045-.05.045-.091a.101.101 0 0 0-.015-.058.103.103 0 0 0-.04-.035.19.19 0 0 0-.058-.017.45.45 0 0 0-.068-.005h-.245v.234h.266zm.033-.405c.057 0 .109.004.155.013a.379.379 0 0 1 .12.04c.034.02.06.046.079.077a.231.231 0 0 1 .027.118c0 .05-.013.092-.04.126a.293.293 0 0 1-.122.083.293.293 0 0 1 .165.093.246.246 0 0 1 .054.16.24.24 0 0 1-.035.131.275.275 0 0 1-.095.09.463.463 0 0 1-.135.052.728.728 0 0 1-.156.017H95v-1h.562z" mask="url(#d)"/>
            <path fill="#8F8F8F" d="M84 51h6v-8h-6z" mask="url(#d)"/>
            <path fill="#FFF" d="M85 50h5v-7h-5z" mask="url(#d)"/>
            <path fill="#D6D6D6" d="M84 43l3-1 3 1z" mask="url(#d)"/>
            <path fill="#595959" d="M84 42.246h6v-.492h-6z" mask="url(#d)"/>
            <path fill="#B5E8F7" d="M86 46h1v-3h-1zM87 46h1v-3h-1zM86 49h1v-3h-1zM87 49h1v-3h-1z" mask="url(#d)"/>
            <path fill="#8F8F8F" d="M102 51h6v-8h-6z" mask="url(#d)"/>
            <path fill="#FFF" d="M103 50h5v-7h-5z" mask="url(#d)"/>
            <path fill="#D6D6D6" d="M102 43l3-1 3 1z" mask="url(#d)"/>
            <path fill="#595959" d="M102 42.246h6v-.492h-6z" mask="url(#d)"/>
            <path fill="#B5E8F7" d="M103 46h1v-3h-1zM105 46h1v-3h-1zM103 49h1v-3h-1zM105 49h1v-3h-1z" mask="url(#d)"/>
            <path fill="#000" d="M81 63h6v-8h-6z" mask="url(#d)"/>
            <path fill="#FFF" d="M82 63h5v-7h-5z" mask="url(#d)"/>
            <path fill="#B5E8F7" d="M83 60h1v-3h-1zM85 60h1v-3h-1z" mask="url(#d)"/>
            <path fill="#B5E8F7" d="M83 61h1v-3h-1zM85 61h1v-3h-1z" mask="url(#d)"/>
            <path fill="#FF7900" d="M88 63h2v-8h-2z" mask="url(#d)"/>
            <path fill="#D6D6D6" d="M87 56.056h2v-.112h-2z" mask="url(#d)"/>
            <path fill="#D6D6D6" d="M87 56.056h2v-.112h-2zM87 57.056h2v-.112h-2z" mask="url(#d)"/>
            <path fill="#D6D6D6" d="M87 57.056h2v-.112h-2z" mask="url(#d)"/>
            <path fill="#D6D6D6" d="M87 57.056h2v-.112h-2z" mask="url(#d)"/>
            <path fill="#D6D6D6" d="M87 57.056h2v-.112h-2z" mask="url(#d)"/>
            <path fill="#D6D6D6" d="M87 57.056h2v-.112h-2z" mask="url(#d)"/>
            <path fill="#D6D6D6" d="M87 57.056h2v-.112h-2z" mask="url(#d)"/>
            <path fill="#D6D6D6" d="M87 57.056h2v-.112h-2zM87 58.056h2v-.112h-2z" mask="url(#d)"/>
            <path fill="#D6D6D6" d="M87 58.056h2v-.112h-2z" mask="url(#d)"/>
            <path fill="#D6D6D6" d="M87 58.056h2v-.112h-2z" mask="url(#d)"/>
            <path fill="#D6D6D6" d="M87 58.056h2v-.112h-2zM87 59.056h2v-.112h-2z" mask="url(#d)"/>
            <path fill="#D6D6D6" d="M87 59.056h2v-.112h-2z" mask="url(#d)"/>
            <path fill="#D6D6D6" d="M87 59.056h2v-.112h-2z" mask="url(#d)"/>
            <path fill="#D6D6D6" d="M87 59.056h2v-.112h-2z" mask="url(#d)"/>
            <path fill="#D6D6D6" d="M87 59.056h2v-.112h-2zM87 60.056h2v-.112h-2z" mask="url(#d)"/>
            <path fill="#D6D6D6" d="M87 60.056h2v-.112h-2z" mask="url(#d)"/>
            <path fill="#D6D6D6" d="M87 60.056h2v-.112h-2z" mask="url(#d)"/>
            <path fill="#D6D6D6" d="M87 60.056h2v-.112h-2z" mask="url(#d)"/>
            <path fill="#D6D6D6" d="M87 60.056h2v-.112h-2z" mask="url(#d)"/>
            <path fill="#D6D6D6" d="M87 60.056h2v-.112h-2zM87 61.056h2v-.112h-2z" mask="url(#d)"/>
            <path fill="#D6D6D6" d="M87 61.056h2v-.112h-2z" mask="url(#d)"/>
            <path fill="#D6D6D6" d="M87 61.056h2v-.112h-2zM87 62.056h2v-.112h-2z" mask="url(#d)"/>
            <path fill="#D6D6D6" d="M87 62.056h2v-.112h-2z" mask="url(#d)"/>
            <path fill="#FF7900" d="M79 63h2v-8h-2z" mask="url(#d)"/>
            <path fill="#D6D6D6" d="M79 56.056h2v-.112h-2z" mask="url(#d)"/>
            <path fill="#D6D6D6" d="M79 56.056h2v-.112h-2zM79 57.056h2v-.112h-2z" mask="url(#d)"/>
            <path fill="#D6D6D6" d="M79 57.056h2v-.112h-2z" mask="url(#d)"/>
            <path fill="#D6D6D6" d="M79 57.056h2v-.112h-2z" mask="url(#d)"/>
            <path fill="#D6D6D6" d="M79 57.056h2v-.112h-2z" mask="url(#d)"/>
            <path fill="#D6D6D6" d="M79 57.056h2v-.112h-2z" mask="url(#d)"/>
            <path fill="#D6D6D6" d="M79 57.056h2v-.112h-2z" mask="url(#d)"/>
            <path fill="#D6D6D6" d="M79 57.056h2v-.112h-2zM79 58.056h2v-.112h-2z" mask="url(#d)"/>
            <path fill="#D6D6D6" d="M79 58.056h2v-.112h-2z" mask="url(#d)"/>
            <path fill="#D6D6D6" d="M79 58.056h2v-.112h-2z" mask="url(#d)"/>
            <path fill="#D6D6D6" d="M79 58.056h2v-.112h-2zM79 59.056h2v-.112h-2z" mask="url(#d)"/>
            <path fill="#D6D6D6" d="M79 59.056h2v-.112h-2z" mask="url(#d)"/>
            <path fill="#D6D6D6" d="M79 59.056h2v-.112h-2z" mask="url(#d)"/>
            <path fill="#D6D6D6" d="M79 59.056h2v-.112h-2z" mask="url(#d)"/>
            <path fill="#D6D6D6" d="M79 59.056h2v-.112h-2zM79 60.056h2v-.112h-2z" mask="url(#d)"/>
            <path fill="#D6D6D6" d="M79 60.056h2v-.112h-2z" mask="url(#d)"/>
            <path fill="#D6D6D6" d="M79 60.056h2v-.112h-2z" mask="url(#d)"/>
            <path fill="#D6D6D6" d="M79 60.056h2v-.112h-2z" mask="url(#d)"/>
            <path fill="#D6D6D6" d="M79 60.056h2v-.112h-2z" mask="url(#d)"/>
            <path fill="#D6D6D6" d="M79 60.056h2v-.112h-2zM79 61.056h2v-.112h-2z" mask="url(#d)"/>
            <path fill="#D6D6D6" d="M79 61.056h2v-.112h-2z" mask="url(#d)"/>
            <path fill="#D6D6D6" d="M79 61.056h2v-.112h-2zM79 62.056h2v-.112h-2z" mask="url(#d)"/>
            <path fill="#D6D6D6" d="M79 62.056h2v-.112h-2z" mask="url(#d)"/>
            <path fill="#000" d="M93 63h6v-8h-6z" mask="url(#d)"/>
            <path fill="#FFF" d="M93 63h5v-7h-5z" mask="url(#d)"/>
            <path fill="#B5E8F7" d="M94 60h1v-3h-1zM96 60h1v-3h-1z" mask="url(#d)"/>
            <path fill="#B5E8F7" d="M94 61h1v-3h-1zM96 61h1v-3h-1z" mask="url(#d)"/>
            <path fill="#FF7900" d="M98 63h2v-8h-2z" mask="url(#d)"/>
            <path fill="#D6D6D6" d="M99 56.056h2v-.112h-2z" mask="url(#d)"/>
            <path fill="#D6D6D6" d="M99 56.056h2v-.112h-2zM99 57.056h2v-.112h-2z" mask="url(#d)"/>
            <path fill="#D6D6D6" d="M99 57.056h2v-.112h-2z" mask="url(#d)"/>
            <path fill="#D6D6D6" d="M99 57.056h2v-.112h-2z" mask="url(#d)"/>
            <path fill="#D6D6D6" d="M99 57.056h2v-.112h-2z" mask="url(#d)"/>
            <path fill="#D6D6D6" d="M99 57.056h2v-.112h-2z" mask="url(#d)"/>
            <path fill="#D6D6D6" d="M99 57.056h2v-.112h-2z" mask="url(#d)"/>
            <path fill="#D6D6D6" d="M99 57.056h2v-.112h-2zM99 58.056h2v-.112h-2z" mask="url(#d)"/>
            <path fill="#D6D6D6" d="M99 58.056h2v-.112h-2z" mask="url(#d)"/>
            <path fill="#D6D6D6" d="M99 58.056h2v-.112h-2z" mask="url(#d)"/>
            <path fill="#D6D6D6" d="M99 58.056h2v-.112h-2zM99 59.056h2v-.112h-2z" mask="url(#d)"/>
            <path fill="#D6D6D6" d="M99 59.056h2v-.112h-2z" mask="url(#d)"/>
            <path fill="#D6D6D6" d="M99 59.056h2v-.112h-2z" mask="url(#d)"/>
            <path fill="#D6D6D6" d="M99 59.056h2v-.112h-2z" mask="url(#d)"/>
            <path fill="#D6D6D6" d="M99 59.056h2v-.112h-2zM99 60.056h2v-.112h-2z" mask="url(#d)"/>
            <path fill="#D6D6D6" d="M99 60.056h2v-.112h-2z" mask="url(#d)"/>
            <path fill="#D6D6D6" d="M99 60.056h2v-.112h-2z" mask="url(#d)"/>
            <path fill="#D6D6D6" d="M99 60.056h2v-.112h-2z" mask="url(#d)"/>
            <path fill="#D6D6D6" d="M99 60.056h2v-.112h-2z" mask="url(#d)"/>
            <path fill="#D6D6D6" d="M99 60.056h2v-.112h-2zM99 61.056h2v-.112h-2z" mask="url(#d)"/>
            <path fill="#D6D6D6" d="M99 61.056h2v-.112h-2z" mask="url(#d)"/>
            <path fill="#D6D6D6" d="M99 61.056h2v-.112h-2zM99 62.056h2v-.112h-2z" mask="url(#d)"/>
            <path fill="#D6D6D6" d="M99 62.056h2v-.112h-2z" mask="url(#d)"/>
            <path fill="#FF7900" d="M91 63h2v-8h-2z" mask="url(#d)"/>
            <path fill="#D6D6D6" d="M91 56.056h2v-.112h-2z" mask="url(#d)"/>
            <path fill="#D6D6D6" d="M91 56.056h2v-.112h-2zM91 57.056h2v-.112h-2z" mask="url(#d)"/>
            <path fill="#D6D6D6" d="M91 57.056h2v-.112h-2z" mask="url(#d)"/>
            <path fill="#D6D6D6" d="M91 57.056h2v-.112h-2z" mask="url(#d)"/>
            <path fill="#D6D6D6" d="M91 57.056h2v-.112h-2z" mask="url(#d)"/>
            <path fill="#D6D6D6" d="M91 57.056h2v-.112h-2z" mask="url(#d)"/>
            <path fill="#D6D6D6" d="M91 57.056h2v-.112h-2z" mask="url(#d)"/>
            <path fill="#D6D6D6" d="M91 57.056h2v-.112h-2zM91 58.056h2v-.112h-2z" mask="url(#d)"/>
            <path fill="#D6D6D6" d="M91 58.056h2v-.112h-2z" mask="url(#d)"/>
            <path fill="#D6D6D6" d="M91 58.056h2v-.112h-2z" mask="url(#d)"/>
            <path fill="#D6D6D6" d="M91 58.056h2v-.112h-2zM91 59.056h2v-.112h-2z" mask="url(#d)"/>
            <path fill="#D6D6D6" d="M91 59.056h2v-.112h-2z" mask="url(#d)"/>
            <path fill="#D6D6D6" d="M91 59.056h2v-.112h-2z" mask="url(#d)"/>
            <path fill="#D6D6D6" d="M91 59.056h2v-.112h-2z" mask="url(#d)"/>
            <path fill="#D6D6D6" d="M91 59.056h2v-.112h-2zM91 60.056h2v-.112h-2z" mask="url(#d)"/>
            <path fill="#D6D6D6" d="M91 60.056h2v-.112h-2z" mask="url(#d)"/>
            <path fill="#D6D6D6" d="M91 60.056h2v-.112h-2z" mask="url(#d)"/>
            <path fill="#D6D6D6" d="M91 60.056h2v-.112h-2z" mask="url(#d)"/>
            <path fill="#D6D6D6" d="M91 60.056h2v-.112h-2z" mask="url(#d)"/>
            <path fill="#D6D6D6" d="M91 60.056h2v-.112h-2zM91 61.056h2v-.112h-2z" mask="url(#d)"/>
            <path fill="#D6D6D6" d="M91 61.056h2v-.112h-2z" mask="url(#d)"/>
            <path fill="#D6D6D6" d="M91 61.056h2v-.112h-2zM91 62.056h2v-.112h-2z" mask="url(#d)"/>
            <path fill="#D6D6D6" d="M91 62.056h2v-.112h-2z" mask="url(#d)"/>
            <path fill="#8F8F8F" d="M81 80h6v-7h-6z" mask="url(#d)"/>
            <path fill="#595959" d="M81 80h5v-6h-5z" mask="url(#d)"/>
            <path fill="#D6D6D6" d="M86 80h-5l.259-1h4.482zM81 74h5l-.259 1H81.26z" mask="url(#d)"/>
            <path fill="#8F8F8F" d="M81 79h5v-4h-5z" mask="url(#d)"/>
            <path fill="#000" d="M82 77h2v-1h-2z" mask="url(#d)"/>
            <path fill="#595959" d="M82 78.246h1v-.492h-1z" mask="url(#d)"/>
            <path fill="#D6D6D6" d="M85 76.246h1v-.492h-1z" mask="url(#d)"/>
            <path fill="#595959" d="M85.753 77.033h.494v-.066h-.494z" mask="url(#d)"/>
            <path fill="#0A6E31" d="M83 74h1v-1h-1z" mask="url(#d)"/>
            <path fill="#50BE87" d="M83 74h1v-1h-1z" mask="url(#d)"/>
            <path fill="#0A6E31" d="M83.247 72.754c0 .272-.221.492-.494.492v-.492h.494z" mask="url(#d)"/>
            <path fill="#0A6E31" d="M82.753 72.754c.273 0 .494.22.494.492h-.494v-.492zM83.753 73.246c0-.272.221-.492.494-.492v.492h-.494z" mask="url(#d)"/>
            <path fill="#0A6E31" d="M84.247 73.246a.492.492 0 0 1-.494-.492h.494v.492zM83.247 73a.246.246 0 1 1-.493 0 .246.246 0 0 1 .493 0" mask="url(#d)"/>
            <path fill="#0A6E31" d="M83.951 73H83v.078h.951V74H84v-1zM84.951 73H84v.078h.951V74H85v-1z" mask="url(#d)"/>
            <path fill="#595959" d="M82 63.246h6v-.492h-6zM92 63.246h6v-.492h-6z" mask="url(#d)"/>
            <path fill="#000" d="M105 63h6v-8h-6z" mask="url(#d)"/>
            <path fill="#FFF" d="M106 63h5v-7h-5z" mask="url(#d)"/>
            <path fill="#B5E8F7" d="M106 60h1v-3h-1zM108 60h1v-3h-1z" mask="url(#d)"/>
            <path fill="#B5E8F7" d="M106 61h1v-3h-1zM108 61h1v-3h-1z" mask="url(#d)"/>
            <path fill="#FF7900" d="M110 63h2v-8h-2z" mask="url(#d)"/>
            <path fill="#D6D6D6" d="M110 56.056h2v-.112h-2z" mask="url(#d)"/>
            <path fill="#D6D6D6" d="M110 56.056h2v-.112h-2zM110 57.056h2v-.112h-2z" mask="url(#d)"/>
            <path fill="#D6D6D6" d="M110 57.056h2v-.112h-2z" mask="url(#d)"/>
            <path fill="#D6D6D6" d="M110 57.056h2v-.112h-2z" mask="url(#d)"/>
            <path fill="#D6D6D6" d="M110 57.056h2v-.112h-2z" mask="url(#d)"/>
            <path fill="#D6D6D6" d="M110 57.056h2v-.112h-2z" mask="url(#d)"/>
            <path fill="#D6D6D6" d="M110 57.056h2v-.112h-2z" mask="url(#d)"/>
            <path fill="#D6D6D6" d="M110 57.056h2v-.112h-2zM110 58.056h2v-.112h-2z" mask="url(#d)"/>
            <path fill="#D6D6D6" d="M110 58.056h2v-.112h-2z" mask="url(#d)"/>
            <path fill="#D6D6D6" d="M110 58.056h2v-.112h-2z" mask="url(#d)"/>
            <path fill="#D6D6D6" d="M110 58.056h2v-.112h-2zM110 59.056h2v-.112h-2z" mask="url(#d)"/>
            <path fill="#D6D6D6" d="M110 59.056h2v-.112h-2z" mask="url(#d)"/>
            <path fill="#D6D6D6" d="M110 59.056h2v-.112h-2z" mask="url(#d)"/>
            <path fill="#D6D6D6" d="M110 59.056h2v-.112h-2z" mask="url(#d)"/>
            <path fill="#D6D6D6" d="M110 59.056h2v-.112h-2zM110 60.056h2v-.112h-2z" mask="url(#d)"/>
            <path fill="#D6D6D6" d="M110 60.056h2v-.112h-2z" mask="url(#d)"/>
            <path fill="#D6D6D6" d="M110 60.056h2v-.112h-2z" mask="url(#d)"/>
            <path fill="#D6D6D6" d="M110 60.056h2v-.112h-2z" mask="url(#d)"/>
            <path fill="#D6D6D6" d="M110 60.056h2v-.112h-2z" mask="url(#d)"/>
            <path fill="#D6D6D6" d="M110 60.056h2v-.112h-2zM110 61.056h2v-.112h-2z" mask="url(#d)"/>
            <path fill="#D6D6D6" d="M110 61.056h2v-.112h-2z" mask="url(#d)"/>
            <path fill="#D6D6D6" d="M110 61.056h2v-.112h-2zM110 62.056h2v-.112h-2z" mask="url(#d)"/>
            <path fill="#D6D6D6" d="M110 62.056h2v-.112h-2z" mask="url(#d)"/>
            <path fill="#FF7900" d="M102 63h2v-8h-2z" mask="url(#d)"/>
            <path fill="#D6D6D6" d="M103 56.056h2v-.112h-2z" mask="url(#d)"/>
            <path fill="#D6D6D6" d="M103 56.056h2v-.112h-2zM103 57.056h2v-.112h-2z" mask="url(#d)"/>
            <path fill="#D6D6D6" d="M103 57.056h2v-.112h-2z" mask="url(#d)"/>
            <path fill="#D6D6D6" d="M103 57.056h2v-.112h-2z" mask="url(#d)"/>
            <path fill="#D6D6D6" d="M103 57.056h2v-.112h-2z" mask="url(#d)"/>
            <path fill="#D6D6D6" d="M103 57.056h2v-.112h-2z" mask="url(#d)"/>
            <path fill="#D6D6D6" d="M103 57.056h2v-.112h-2z" mask="url(#d)"/>
            <path fill="#D6D6D6" d="M103 57.056h2v-.112h-2zM103 58.056h2v-.112h-2z" mask="url(#d)"/>
            <path fill="#D6D6D6" d="M103 58.056h2v-.112h-2z" mask="url(#d)"/>
            <path fill="#D6D6D6" d="M103 58.056h2v-.112h-2z" mask="url(#d)"/>
            <path fill="#D6D6D6" d="M103 58.056h2v-.112h-2zM103 59.056h2v-.112h-2z" mask="url(#d)"/>
            <path fill="#D6D6D6" d="M103 59.056h2v-.112h-2z" mask="url(#d)"/>
            <path fill="#D6D6D6" d="M103 59.056h2v-.112h-2z" mask="url(#d)"/>
            <path fill="#D6D6D6" d="M103 59.056h2v-.112h-2z" mask="url(#d)"/>
            <path fill="#D6D6D6" d="M103 59.056h2v-.112h-2zM103 60.056h2v-.112h-2z" mask="url(#d)"/>
            <path fill="#D6D6D6" d="M103 60.056h2v-.112h-2z" mask="url(#d)"/>
            <path fill="#D6D6D6" d="M103 60.056h2v-.112h-2z" mask="url(#d)"/>
            <path fill="#D6D6D6" d="M103 60.056h2v-.112h-2z" mask="url(#d)"/>
            <path fill="#D6D6D6" d="M103 60.056h2v-.112h-2z" mask="url(#d)"/>
            <path fill="#D6D6D6" d="M103 60.056h2v-.112h-2zM103 61.056h2v-.112h-2z" mask="url(#d)"/>
            <path fill="#D6D6D6" d="M103 61.056h2v-.112h-2z" mask="url(#d)"/>
            <path fill="#D6D6D6" d="M103 61.056h2v-.112h-2zM103 62.056h2v-.112h-2z" mask="url(#d)"/>
            <path fill="#D6D6D6" d="M103 62.056h2v-.112h-2z" mask="url(#d)"/>
            <path fill="#595959" d="M105 63.246h6v-.492h-6z" mask="url(#d)"/>
            <path fill="#8F8F8F" d="M76 54.246h40v-.492H76zM76 65.246h40v-.492H76z" mask="url(#d)"/>
            <path fill="#595959" d="M76 55h1v-1h-1zM75 56h1v-1h-1zM76 57h1v-1h-1zM75 58h1v-1h-1zM76 58h1v-1h-1zM75 60h1v-1h-1zM76 60h1v-1h-1z" mask="url(#d)"/>
            <path fill="#595959" d="M75 60h1v-1h-1zM76 62h1v-1h-1zM75 63h1v-1h-1zM76 63h1v-1h-1zM75 64h1v-1h-1zM76 66h1v-1h-1zM75 67h1v-1h-1zM76 68h1v-1h-1zM75 69h1v-1h-1zM76 69h1v-1h-1zM75 71h1v-1h-1zM76 72h1v-1h-1zM75 73h1v-1h-1zM76 74h1v-1h-1zM75 75h1v-1h-1zM76 76h1v-1h-1zM75 76h1v-1h-1zM76 77h1v-1h-1zM75 78h1v-1h-1zM76 79h1v-1h-1zM75 79h1v-1h-1zM76 80h1v-1h-1zM75 81h1v-1h-1zM114 55h1v-1h-1zM115 56h1v-1h-1zM114 57h1v-1h-1zM115 58h1v-1h-1zM114 58h1v-1h-1zM115 60h1v-1h-1zM114 60h1v-1h-1z" mask="url(#d)"/>
            <path fill="#595959" d="M115 60h1v-1h-1zM114 62h1v-1h-1zM115 63h1v-1h-1zM114 63h1v-1h-1zM115 64h1v-1h-1zM114 66h1v-1h-1zM115 67h1v-1h-1zM114 68h1v-1h-1zM115 69h1v-1h-1zM114 69h1v-1h-1zM115 71h1v-1h-1zM114 72h1v-1h-1zM115 73h1v-1h-1zM114 74h1v-1h-1zM115 75h1v-1h-1zM114 76h1v-1h-1zM115 76h1v-1h-1zM114 77h1v-1h-1zM115 78h1v-1h-1zM114 79h1v-1h-1zM115 79h1v-1h-1zM114 80h1v-1h-1zM115 81h1v-1h-1z" mask="url(#d)"/>
            <path fill="#0A6E31" d="M119.986 73.35c-.1-1-.694-1.8-1.479-2.131l-.001-.027c-.055-.553-.46-.967-.94-.994-.44-1.413-1.702-2.35-3.083-2.178-1.121.14-2.023.975-2.404 2.08-.544.072-.936.623-.875 1.236-.795.461-1.295 1.437-1.19 2.494.098.99.698 1.779 1.483 2.084.24.83.972 1.384 1.774 1.284.058-.007.114-.017.17-.03.443.577 1.124.908 1.85.817.617-.077 1.143-.442 1.483-.962a.892.892 0 0 0 .433.054c.445-.055.788-.43.87-.898 1.198-.22 2.044-1.46 1.909-2.83" mask="url(#d)"/>
            <path fill="#714E46" d="M113.393 85l.004-7.36-1.547-2.254-1.85-1.307.217-.111 1.592.935-.325-1.178h.263l.48 1.427 1.29 1.834-.036-2.276-.67-2.71h.224l.635 2.13.497-1.075.2.148-.527 1.45.198 2.238 1.18-2.223.34-1.866.268.137-.271 1.67 1.37-.138.075.225-1.537.318-1.323 2.583.326 7.403z" mask="url(#d)"/>
            <path fill="#085EBD" d="M87.247 72l-.494.168v1.664l.494.168zM80.753 74l.494-.168v-1.664L80.753 72z" mask="url(#d)"/>
        </g>
        <path fill="#A885D8" fill-opacity=".2" fill-rule="nonzero" d="M251.933 38.391c-25.76.632-68.359 12.12-71.409 61.165-3.05 49.047-6.367 115.3 42.142 122.534 48.509 7.234 72.946-48.516 72.946-100.255 0-51.74-17.919-84.075-43.679-83.444z"/>
        <path fill="#000" d="M271.784 180.992c-.152-3.908 0-9.618.204-12.807.204-3.19.967-2.008 1.07-4.937.055-1.6-.813-20.953-.813-20.953s3.306-.613 7.357-.895c4.048-.284 5.525-.658 5.525-.658s.28.155 1.477-2.236c1.196-2.393 1.816-4.2 1.816-4.2s1.998.227 4.928.015c2.931-.213 4.671-1.17 4.575-2.18-.098-1.008-2.547-.717-2.547-.717s.206-.312-.028-.362c-.394-.08-1.035-.006-2.589.057-1.556.063-3.34.742-3.34.742s-6.473.271-9.213.332c-2.735.063-4.335.5-7.637-.945-3.295-1.445-7.113-1.848-7.113-1.848s.065-1.886.251-4.275c.187-2.388.295-6.502-3.109-6.097-2.316.275-2.73.65-3.749 3.634-1.02 2.983-.612 6.583-.612 6.583s-1.63.053-6.67.308c-5.042.258-6.794 1.574-8.933 1.574-2.14 0-9.067-.205-9.067-.205-1.056-.111-3.284-.812-4.559-.812-1.27 0-.777.654-.777.654s-2.881-.111-3.056.502c-.538 1.94 3.474 2.095 5.308 2.095h4.226c.561 2.983 3.666 6.378 4.534 6.686.866.31 7.18-.103 7.18-.103 2.087 1.646 5.143 2.212 5.143 2.212s-.05 4.991-.05 7.922c0 2.932-.102 3.857.712 4.63.817.769.97 1.75.97 5.4 0 3.652.61 3.085.61 9.414 0 4.054-.147 10.87-.252 15.438-32.63 11.565-39.205 79.179-38.508 78.938h82.42c-.68-40.964-9.256-66.458-25.73-76.48-.028-1.86.13-4.294.046-6.426z"/>
        <path fill="#FF7900" d="M207.627 178h7.534c1.018 6.409 2.686 11.51 3.839 18-2.44-.172-4.956-.267-7.561-.267-2.549 0-5.027.081-7.439.233.975-4.024 2.638-11.519 3.627-17.966m32.33 29.058a83.897 83.897 0 0 0-3.644-1l-.46-.02c-.287-.07-.57-.144-.86-.213-.066-.08-.141-.149-.179-.258-15.549-39.764-17.59-93.22-19.7-146.603.642-3.242 2.88-4.104 2.464-7.485-.4-3.25-3.176-3.426-4.31-6.239-1.063-1.833.053-5.88-2.464-6.24-.173 2.53-1.054 4.337-1.23 6.863-2.24 2.369-4.013 2.662-4.312 6.24-.254 3.054 2.028 4.87 2.464 7.484.732 4.391-.419 9.213-.613 13.727-1.916 44.143-4.862 99.614-18.864 132.339a92.882 92.882 0 0 0-5.144 1.232c.857 10.236-1.653 15.064-4.927 21.14-5.892 10.924-16.48 26.174-22.128 35.975 1.95 0 15.92-.101 23.922-.101.97-5.213 4.928-13.106 6.501-15.995 6.194-11.355 16.27-20.658 31.105-17.07l.067-.014c8.39 2.321 14.606 9.27 18.94 17.214 1.592 2.921 5.322 10.595 6.306 15.865 8.083 0 23.422-.13 25.156 0-5.704-9.902-17.126-24.91-23.08-35.952-3.255-6.046-5.757-10.874-5.01-20.89z"/>
        <path fill="#4BB4E6" fill-opacity=".2" fill-rule="nonzero" d="M171.122 1.02c-19.836 3.49-30.721 40.248-22.187 72.554 8.535 32.305 61.71 11.794 61.71-30.38 0-42.173-19.688-45.662-39.523-42.173z"/>
        <path fill="#FB7900" fill-opacity=".2" fill-rule="nonzero" d="M170.874 145.321c5.934-3.19 5.884-14.025.122-21.466-5.76-7.442-20.61 4.019-16.608 15.014 4.002 10.996 10.551 9.642 16.486 6.452z"/>
    </g>
</svg>
