<svg xmlns="http://www.w3.org/2000/svg" xmlns:xlink="http://www.w3.org/1999/xlink" width="557" height="474" viewBox="0 0 557 474">
    <defs>
        <path id="a" d="M0 .068h69.99v51.929H0z"/>
        <path id="c" d="M0 172h373V0H0z"/>
    </defs>
    <g fill="none" fill-rule="evenodd">
        <g opacity=".396" transform="translate(0 301)">
            <path fill="#B5E8F7" d="M220.298 47h-3.839c0-1.65-1.216-3-2.702-3h-6.047c0-1.65-1.216-3-2.702-3h-9.597c-1.486 0-2.702 1.35-2.702 3h-1.473c-1.486 0-2.702 1.35-2.702 3h-2.832c-1.486 0-2.702 1.35-2.702 3s1.216 3 2.702 3h34.596c1.486 0 2.702-1.35 2.702-3s-1.216-3-2.702-3"/>
            <g transform="translate(0 121)">
                <mask id="b" fill="#fff">
                    <use xlink:href="#a"/>
                </mask>
                <path fill="#000" d="M69.99.068H33.78v33.745H21.32v-11.08H0v29.264h69.99z" mask="url(#b)"/>
            </g>
            <mask id="d" fill="#fff">
                <use xlink:href="#c"/>
            </mask>
            <path fill="#595959" d="M36 123h32v-2H36zM36 127h32v-2H36zM36 130h32v-2H36zM36 134h32v-2H36zM36 137h32v-2H36zM36 141h32v-2H36zM36 143h32v-2H36zM36 147h32v-2H36zM1 151h3v-4H1zM7 151h3v-4H7zM12 151h3v-4h-3zM15 151h3v-4h-3zM1 157h3v-4H1zM7 157h3v-4H7zM12 157h3v-4h-3zM15 157h3v-4h-3zM1 161h3v-4H1zM7 161h3v-4H7zM12 161h3v-4h-3zM15 161h3v-4h-3z" mask="url(#d)"/>
            <path fill="#000" d="M145 172h16v-50h-16zM236 172h37V66h-37z" mask="url(#d)"/>
            <path fill="#595959" d="M240 72h7v-3h-7zM240 78h7v-3h-7zM240 82h7v-3h-7zM240 87h7v-3h-7zM240 91h7v-3h-7zM240 96h7v-3h-7zM240 102h7v-3h-7zM240 106h7v-3h-7zM240 112h7v-3h-7zM240 117h7v-3h-7zM240 121h7v-3h-7zM240 125h7v-3h-7zM240 130h7v-3h-7zM240 136h7v-3h-7zM248 72h7v-3h-7zM248 78h7v-3h-7zM248 82h7v-3h-7zM248 87h7v-3h-7zM248 91h7v-3h-7zM248 96h7v-3h-7zM248 102h7v-3h-7zM248 106h7v-3h-7zM248 112h7v-3h-7zM248 117h7v-3h-7zM248 121h7v-3h-7zM248 125h7v-3h-7zM248 130h7v-3h-7zM248 136h7v-3h-7zM255 72h7v-3h-7zM255 78h7v-3h-7zM255 82h7v-3h-7zM255 87h7v-3h-7zM255 91h7v-3h-7zM255 96h7v-3h-7zM255 102h7v-3h-7zM255 106h7v-3h-7zM255 112h7v-3h-7zM255 117h7v-3h-7zM255 121h7v-3h-7zM255 125h7v-3h-7zM255 130h7v-3h-7zM255 136h7v-3h-7zM263 72h7v-3h-7zM263 78h7v-3h-7zM263 82h7v-3h-7zM263 87h7v-3h-7zM263 91h7v-3h-7zM263 96h7v-3h-7zM263 102h7v-3h-7zM263 106h7v-3h-7zM263 112h7v-3h-7zM263 117h7v-3h-7zM263 121h7v-3h-7zM263 125h7v-3h-7zM263 130h7v-3h-7zM263 136h7v-3h-7zM240 140h7v-3h-7zM240 145h7v-3h-7zM248 140h7v-3h-7zM248 145h7v-3h-7zM255 140h7v-3h-7zM255 145h7v-3h-7zM263 140h7v-3h-7zM263 145h7v-3h-7zM240 151h7v-3h-7zM240 156h7v-3h-7zM248 151h7v-3h-7zM248 156h7v-3h-7zM255 151h7v-3h-7zM255 156h7v-3h-7zM263 151h7v-3h-7zM263 156h7v-3h-7z" mask="url(#d)"/>
            <path fill="#0A6E31" d="M360 161c1.809 0 3.606-.66 4.773-1.719a2.734 2.734 0 0 0 1.64.533c1.4 0 2.535-.999 2.535-2.23 0-.023-.003-.045-.003-.068 2.374-.828 4.055-2.866 4.055-5.25a5.117 5.117 0 0 0-.887-2.863c.563-.84.887-1.817.887-2.862 0-2.392-1.692-4.435-4.079-5.258.017-.128.027-.257.027-.389 0-1.78-1.64-3.223-3.663-3.223-.06 0-.12.002-.18.004C364.05 136.076 362.251 135 360 135v26z" mask="url(#d)"/>
            <path fill="#482E26" d="M360 150.017V172h3.271l-.859-13.34 3.79-3.4 3.798-1.894-.277-.568-3.457 1.117.515-3.154-.84-.018-.941 3.356-3.118 2.425-.419-6.483 1.763-3.56-.726-.481z" mask="url(#d)"/>
            <path fill="#50BE87" d="M21 172c0-8.057 4.639-34.54 10.36-34.54 3.922 0 7.333 9.431 9.093 22.216 1.53-8.911 3.86-17.837 6.472-17.837 2.069 0 3.96 5.602 5.418 12.358C54.428 139.356 58.363 121 62.88 121 69.574 121 75 162.575 75 172H21z" mask="url(#d)"/>
            <path fill="#0A6E31" d="M37.567 140.655a7.235 7.235 0 0 0-2.16-4.165c.139-.208.248-.442.321-.697.38-1.327-.367-2.717-1.669-3.105a2.422 2.422 0 0 0-.304-.067c-.014-3.302-2.136-6.34-5.403-7.312-3.98-1.185-8.147 1.145-9.309 5.203a7.77 7.77 0 0 0-.245 3.083 4.458 4.458 0 0 0-3.268 3.135 4.575 4.575 0 0 0 .178 3.034A7.694 7.694 0 0 0 13 145.648c0 4.228 3.36 7.655 7.506 7.655 1.056 0 2.06-.223 2.972-.625.755 1.384 2.202 2.322 3.866 2.322 1.679 0 3.14-.954 3.889-2.36.617.188 1.271.29 1.949.29 3.765 0 6.818-3.112 6.818-6.953a6.992 6.992 0 0 0-2.433-5.322" mask="url(#d)"/>
            <path fill="#482E26" d="M25.885 153.882L25.714 172h3.659l-.225-18.13a1.15 1.15 0 0 1 .309-.882l3.914-4.398L38 146.047l-.264-.647-4.365 1.694 1.987-5.782-.654-.31-3.125 6.59-2.763 2.152a.273.273 0 0 1-.445-.187L27.169 139h-1.34v10.24c0 .225-.245.36-.428.234l-3.18-2.267-1.5-4.778-.588.292.775 4.287-3.663-1.084-.245.725 4.102 1.954 4.4 4.41c.246.218.387.536.383.87" mask="url(#d)"/>
            <path fill="#8F8F8F" d="M13 172h1v-15h-1z" mask="url(#d)"/>
            <path fill="#FF7900" d="M9.084 159.07l3.882-6.76a.615.615 0 0 1 1.068 0l3.882 6.76a.62.62 0 0 1-.534.93H9.618a.62.62 0 0 1-.534-.93" mask="url(#d)"/>
            <path fill="#000" d="M145.732 84.817h5.398l1.387 6.36-6.785-6.36zm-.438-1.943l4.484-4.256 1.205 5.527h-5.967l.278-1.271zm3.6-4.373l-3.337 3.168.69-3.168h2.647zm.709-.672h-3.209l1.606-7.36 1.605 7.358-.002.002zm4.39 16.767l-5.558-25.473a.64.64 0 0 0 .262-.508.66.66 0 0 0-.429-.605V66.53c.329-.107.568-.398.568-.742 0-.433-.376-.787-.836-.787-.46 0-.836.354-.836.787 0 .344.24.635.568.742v1.481a.66.66 0 0 0-.429.605.64.64 0 0 0 .262.508l-5.558 25.473c-.04.181.086.36.278.397.193.037.382-.08.422-.262l2.137-9.797 7.934 7.435.515 2.362c.04.182.23.3.422.262a.338.338 0 0 0 .278-.397z" mask="url(#d)"/>
            <path fill="#FFF" d="M69 172h85v-72H69z" mask="url(#d)"/>
            <path fill="#D6D6D6" d="M81 137h70v-30H81z" mask="url(#d)"/>
            <path fill="#595959" d="M81 136h69v-27H81z" mask="url(#d)"/>
            <path fill="#8F8F8F" d="M81 172h70v-34H81z" mask="url(#d)"/>
            <path fill="#595959" d="M81 138h70v-1H81zM81 141h70v-1H81zM81 143h70v-1H81zM81 147h70v-1H81zM81 149h70v-1H81zM81 152h70v-1H81zM81 154h70v-1H81zM81 156h70v-1H81zM81 158h70v-1H81zM81 162h70v-1H81zM81 164h70v-1H81zM81 167h70v-1H81zM81 171h70v-1H81zM96 98h58v-3H96z" mask="url(#d)"/>
            <path fill="#000" d="M96 95h58v-2H96z" mask="url(#d)"/>
            <path fill="#8F8F8F" d="M69 172h2v-72h-2z" mask="url(#d)"/>
            <path fill="#000" d="M69 103h85v-3H69zM81 172h18v-26H81z" mask="url(#d)"/>
            <path fill="#FF7900" d="M80 172h15v-21H80z" mask="url(#d)"/>
            <path fill="#595959" d="M82 88.03l5.34-4.825a.864.864 0 1 1 .456.455L82.97 89l-.97-.97z" mask="url(#d)"/>
            <path fill="#D6D6D6" d="M78.706 97.677l3.094-5.768c.62.342 1.273.61 1.944.805l1.096 2.044-6.134 2.919zM77 99h.996v-.002l7.265-3.456L87.116 99h.996l-3.236-6.033c2.864.466 5.913-.352 8.124-2.46L79.886 78c-3.621 3.453-3.621 9.053 0 12.506.367.35.758.662 1.166.941L77 99z" mask="url(#d)"/>
            <path fill="#714E46" d="M130 172l-.195-21h-.764L129 172z" mask="url(#d)"/>
            <path fill="#0A6E31" d="M136.9 149.14a2.34 2.34 0 0 0-1.469-4.16c-.018 0-.034.002-.051.003a1.67 1.67 0 0 0-1.462-1.465 3.574 3.574 0 0 0-6.518-.717 1.88 1.88 0 0 0-1.868 2.703c-.029-.001-.057-.004-.086-.004a1.975 1.975 0 0 0-1.25 3.503l-.002.018a2.985 2.985 0 0 0 2.297 5.328 2.67 2.67 0 0 0 4.358 2.049 1.969 1.969 0 0 0 3.302-1.319 3.442 3.442 0 0 0 2.748-5.938" mask="url(#d)"/>
            <path fill="#595959" d="M55 172h24v-4H55z" mask="url(#d)"/>
            <path fill="#0A6E31" d="M83.37 142.318c.191-.306.304-.666.304-1.055a1.96 1.96 0 0 0-1.904-1.968 6.692 6.692 0 0 0-2.742-5.366c-.35-2.78-2.697-4.929-5.541-4.929-3.033 0-5.5 2.444-5.584 5.49a1.962 1.962 0 0 0-1.613 2.48 3.51 3.51 0 0 0-1.562 3.389A4.237 4.237 0 0 0 62 144.33a4.24 4.24 0 0 0 2.501 3.878c.471 1.819 2.108 3.16 4.055 3.16.404 0 .795-.058 1.166-.167a2.02 2.02 0 0 0 1.91 1.382c.42 0 .812-.13 1.135-.354a4.1 4.1 0 0 0 2.397.771c1.928 0 3.55-1.33 4.016-3.132.462.17.96.263 1.48.263 2.397 0 4.34-1.965 4.34-4.388a4.396 4.396 0 0 0-1.63-3.425" mask="url(#d)"/>
            <path fill="#714E46" d="M73.103 172l.397-16.793-3.944-6.482L65 145.56l.535-.269 3.922 2.265-1.3-5.088h.646l1.683 5.69 3.176 4.441-.087-5.51-1.65-6.561h.55l1.564 5.158L76.224 140l.493.36-2.26 6.593.512 5.68 2.884-5.646.844-4.561.434.218-.449 4.198 3.135-1.005.183.547-3.544 1.44-3.121 7.375L76 172z" mask="url(#d)"/>
            <path fill="#8F8F8F" d="M107 93h10V83h-10z" mask="url(#d)"/>
            <path fill="#D6D6D6" d="M117 86a5 5 0 1 1-10 0 5 5 0 0 1 10 0" mask="url(#d)"/>
            <path fill="#595959" d="M117 86a5 5 0 1 1-10 0 5 5 0 0 1 10 0" mask="url(#d)"/>
            <path fill="#D6D6D6" d="M116.866 92h-9.732c-.074 0-.134-.225-.134-.5s.06-.5.134-.5h9.732c.074 0 .134.225.134.5s-.06.5-.134.5" mask="url(#d)"/>
            <path fill="#000" d="M116 85.5a4.5 4.5 0 1 1-9 0 4.5 4.5 0 0 1 9 0" mask="url(#d)"/>
            <path fill="#8F8F8F" d="M120 93h10V83h-10z" mask="url(#d)"/>
            <path fill="#D6D6D6" d="M130 86a5 5 0 1 1-10 0 5 5 0 0 1 10 0" mask="url(#d)"/>
            <path fill="#595959" d="M131 86a5 5 0 1 1-10 0 5 5 0 0 1 10 0" mask="url(#d)"/>
            <path fill="#D6D6D6" d="M129.866 92h-9.732c-.074 0-.134-.225-.134-.5s.06-.5.134-.5h9.732c.074 0 .134.225.134.5s-.06.5-.134.5" mask="url(#d)"/>
            <path fill="#000" d="M130 85.5a4.5 4.5 0 1 1-9 0 4.5 4.5 0 0 1 9 0M323.5 17c-.275 0-.5-.098-.5-.217V.217c0-.12.225-.217.5-.217s.5.098.5.217v16.566c0 .12-.225.217-.5.217M314 89h21V32h-21zM317 32h13V17h-13z" mask="url(#d)"/>
            <path fill="#595959" d="M323.5 9l6.5 10h-13zM319 20h10v-1h-10zM319 22h10v-1h-10zM319 25h10v-1h-10zM319 27h10v-1h-10zM319 30h10v-1h-10zM317 38h3v-3h-3zM317 91h3V40h-3zM322 38h3v-3h-3zM322 91h3V40h-3zM328 38h3v-3h-3zM328 91h3V40h-3zM326 133h26v-31h-26z" mask="url(#d)"/>
            <path fill="#B5E8F7" d="M352 102h-26V89h17.84z" mask="url(#d)"/>
            <path fill="#8F8F8F" d="M346.109 89H328v1h19z" mask="url(#d)"/>
            <path fill="#D6D6D6" d="M327 133h8v-31h-8zM336 133h8v-31h-8zM345 133h8v-31h-8z" mask="url(#d)"/>
            <path fill="#8F8F8F" d="M328 108h23v-1h-23zM328 103h23v-1h-23zM328 115h23v-1h-23zM328 121h23v-1h-23zM328 126h23v-1h-23z" mask="url(#d)"/>
            <path fill="#FFB400" d="M307 50h19V40h-19z" mask="url(#d)"/>
            <path fill="#D9C2F0" d="M286 172h40V51h-40z" mask="url(#d)"/>
            <path fill="#FF7900" d="M326 50h-40V40h20z" mask="url(#d)"/>
            <path fill="#FFB400" d="M287 50h19V40z" mask="url(#d)"/>
            <path fill="#B5E8F7" d="M296 172h18v-21h-18z" mask="url(#d)"/>
            <path fill="#4BB4E6" d="M306.948 172h.104v-21h-.104z" mask="url(#d)"/>
            <path fill="#8F8F8F" d="M295 172h3v-21h-3zM315 172h3v-21h-3z" mask="url(#d)"/>
            <path fill="#FF7900" d="M295 150l9.959-4.875c.34-.167.742-.167 1.082 0L316 150h-21z" mask="url(#d)"/>
            <path fill="#D9C2F0" d="M296 169a.094.094 0 0 1-.095-.093v-17.813c0-.052.043-.094.095-.094.052 0 .095.042.095.094v17.813A.094.094 0 0 1 296 169" mask="url(#d)"/>
            <path fill="#D9C2F0" d="M296 169a.094.094 0 0 1-.095-.093v-17.813c0-.052.043-.094.095-.094.052 0 .095.042.095.094v17.813A.094.094 0 0 1 296 169M298 169a.094.094 0 0 1-.095-.093v-17.813c0-.052.043-.094.095-.094.052 0 .095.042.095.094v17.813A.094.094 0 0 1 298 169M299 169a.094.094 0 0 1-.095-.093v-17.813c0-.052.043-.094.095-.094.052 0 .095.042.095.094v17.813A.094.094 0 0 1 299 169M315 169a.094.094 0 0 1-.095-.093v-17.813c0-.052.043-.094.095-.094.052 0 .095.042.095.094v17.813A.094.094 0 0 1 315 169M316 169a.094.094 0 0 1-.095-.093v-17.813c0-.052.043-.094.095-.094.052 0 .095.042.095.094v17.813A.094.094 0 0 1 316 169" mask="url(#d)"/>
            <path fill="#D9C2F0" d="M316 169a.094.094 0 0 1-.095-.093v-17.813c0-.052.043-.094.095-.094.052 0 .095.042.095.094v17.813A.094.094 0 0 1 316 169M317 169a.094.094 0 0 1-.095-.093v-17.813c0-.052.043-.094.095-.094.052 0 .095.042.095.094v17.813A.094.094 0 0 1 317 169" mask="url(#d)"/>
            <path fill="#492191" d="M295 151h21v-2h-21zM286 172h13v-3h-13zM316 172h12v-3h-12z" mask="url(#d)"/>
            <path fill="#FFF" d="M308.5 163c-.276 0-.5-.078-.5-.174v-3.652c0-.096.224-.174.5-.174s.5.078.5.174v3.652c0 .096-.224.174-.5.174M305.5 163c-.276 0-.5-.078-.5-.174v-3.652c0-.096.224-.174.5-.174s.5.078.5.174v3.652c0 .096-.224.174-.5.174" mask="url(#d)"/>
            <path fill="#D9C2F0" d="M309.769 34L316 42h-21l6.231-8z" mask="url(#d)"/>
            <path fill="#8F8F8F" d="M286 52h40v-2h-40z" mask="url(#d)"/>
            <path fill="#000" d="M286 52h40v-2h-40z" mask="url(#d)"/>
            <path fill="#FFF" d="M326 172h34v-42h-34z" mask="url(#d)"/>
            <path fill="#000" d="M328 172h28v-21h-28z" mask="url(#d)"/>
            <path fill="#8F8F8F" d="M330 173h26v-21h-26z" mask="url(#d)"/>
            <path fill="#000" d="M326 130h34v-1h-34zM329 146h9v-12h-9z" mask="url(#d)"/>
            <path fill="#595959" d="M329 139h3v-4h-3zM334 139h3v-4h-3zM329 144h3v-4h-3zM334 144h3v-4h-3z" mask="url(#d)"/>
            <path fill="#000" d="M339 146h9v-12h-9z" mask="url(#d)"/>
            <path fill="#595959" d="M340 139h3v-4h-3zM345 139h3v-4h-3zM340 144h3v-4h-3zM345 144h3v-4h-3z" mask="url(#d)"/>
            <path fill="#000" d="M351 146h9v-12h-9z" mask="url(#d)"/>
            <path fill="#595959" d="M351 139h3v-4h-3zM354 139h3v-4h-3zM351 144h3v-4h-3zM354 144h3v-4h-3z" mask="url(#d)"/>
            <path fill="#8F8F8F" d="M328 147h10v-1h-10zM339 147h10v-1h-10zM350 147h10v-1h-10z" mask="url(#d)"/>
            <path fill="#000" d="M336.786 172h-2.572a.221.221 0 0 1-.214-.227V169h3v2.773c0 .125-.096.227-.214.227M353.786 172h-2.572a.22.22 0 0 1-.214-.227V169h3v2.773c0 .125-.096.227-.214.227" mask="url(#d)"/>
            <path fill="#000" d="M352.515 158.921h-1.522l-.617-3.367c-.166-.902-.916-1.554-1.788-1.554h-12.15c-.87 0-1.618.647-1.787 1.544l-.636 3.377h-1.53c-.272 0-.485.31-.485.688 0 .378.213.714.485.749l1.225.155-.789 2.523a6.703 6.703 0 0 0-.244 1.794v4.531c0 .353.272.639.607.639h18.432c.335 0 .607-.286.607-.639v-4.531c0-.608-.082-1.212-.244-1.794l-.789-2.523 1.225-.155c.272-.035.485-.371.485-.75 0-.377-.213-.687-.485-.687" mask="url(#d)"/>
            <path fill="#B5E8F7" d="M350.497 156h-12.989c-.258 0-.511.195-.562.433l-.943 4.395c-.019.089.053.172.15.172h15.694c.097 0 .169-.083.15-.172l-.944-4.4c-.05-.236-.3-.428-.556-.428" mask="url(#d)"/>
            <path fill="#595959" d="M351.642 170h-16.284c-.197 0-.358-.225-.358-.5s.161-.5.358-.5h16.284c.197 0 .358.225.358.5s-.161.5-.358.5" mask="url(#d)"/>
            <path fill="#FFF6B6" d="M335.072 166h2.856c.04 0 .072-.035.072-.08v-1.84c0-.045-.032-.08-.072-.08h-2.784c-.08 0-.144.07-.144.158v1.763c0 .044.032.079.072.079" mask="url(#d)"/>
            <path fill="#FF7900" d="M335.072 166h2.856c.04 0 .072.061.072.136v.728c0 .075-.032.136-.072.136h-2.784c-.08 0-.144-.122-.144-.272v-.592c0-.075.032-.136.072-.136" mask="url(#d)"/>
            <path fill="#FFF6B6" d="M352.928 166h-2.856c-.04 0-.072-.035-.072-.08v-1.84c0-.045.032-.08.072-.08h2.784c.08 0 .144.07.144.158v1.763c0 .044-.032.079-.072.079" mask="url(#d)"/>
            <path fill="#FF7900" d="M352.928 166h-2.856c-.04 0-.072.061-.072.136v.728c0 .075.032.136.072.136h2.784c.08 0 .144-.122.144-.272v-.592c0-.075-.032-.136-.072-.136" mask="url(#d)"/>
            <path fill="#8F8F8F" d="M348.92 167h-9.84c-.044 0-.08-.028-.08-.063v-2.874c0-.035.036-.063.08-.063h9.84c.044 0 .08.028.08.063v2.874c0 .035-.036.063-.08.063" mask="url(#d)"/>
            <path fill="#595959" d="M339 163.13h10v-.26h-10zM339 165.13h10v-.26h-10z" mask="url(#d)"/>
            <path fill="#595959" d="M339 165.13h10v-.26h-10zM339 166.13h10v-.26h-10z" mask="url(#d)"/>
            <path fill="#595959" d="M339 166.13h10v-.26h-10zM339 168.13h10v-.26h-10z" mask="url(#d)"/>
            <path fill="#FF7900" d="M234 172h51V98h-51z" mask="url(#d)"/>
            <path fill="#8F8F8F" d="M266 98h20V88h-20z" mask="url(#d)"/>
            <path fill="#FFD200" d="M263.212 96H262v-1.764c0-.683.615-1.236 1.374-1.236H266v1.09h-2.424c-.2 0-.364.147-.364.327V96z" mask="url(#d)"/>
            <path fill="#FFB400" d="M259.52 99H258v-5.068c0-1.067.772-1.932 1.723-1.932H266v1.704h-6.024c-.251 0-.456.23-.456.512V99z" mask="url(#d)"/>
            <path fill="#FFD200" d="M265.452 97H266v-2h-.548c-.25 0-.452.338-.452.755v.49c0 .417.202.755.452.755" mask="url(#d)"/>
            <path fill="#FFD200" d="M265.322 97h.356c.177 0 .322-.225.322-.5s-.145-.5-.322-.5h-.356c-.177 0-.322.225-.322.5s.145.5.322.5" mask="url(#d)"/>
            <path fill="#FF7900" d="M266 97a.083.083 0 0 1-.082-.083v-1.834c0-.046.037-.083.082-.083.045 0 .082.037.082.083v1.834A.083.083 0 0 1 266 97" mask="url(#d)"/>
            <path fill="#595959" d="M268 96h7v-7h-7z" mask="url(#d)"/>
            <path fill="#000" d="M267 89.045h7v-.09h-7zM267 90.045h7v-.09h-7z" mask="url(#d)"/>
            <path fill="#000" d="M267 90.045h7v-.09h-7z" mask="url(#d)"/>
            <path fill="#000" d="M267 90.045h7v-.09h-7z" mask="url(#d)"/>
            <path fill="#000" d="M267 90.045h7v-.09h-7z" mask="url(#d)"/>
            <path fill="#000" d="M267 90.045h7v-.09h-7zM267 91.045h7v-.09h-7z" mask="url(#d)"/>
            <path fill="#000" d="M267 91.045h7v-.09h-7z" mask="url(#d)"/>
            <path fill="#000" d="M267 91.045h7v-.09h-7zM267 92.045h7v-.09h-7z" mask="url(#d)"/>
            <path fill="#000" d="M267 92.045h7v-.09h-7z" mask="url(#d)"/>
            <path fill="#000" d="M267 92.045h7v-.09h-7z" mask="url(#d)"/>
            <path fill="#000" d="M267 92.045h7v-.09h-7z" mask="url(#d)"/>
            <path fill="#000" d="M267 92.045h7v-.09h-7z" mask="url(#d)"/>
            <path fill="#000" d="M267 92.045h7v-.09h-7z" mask="url(#d)"/>
            <path fill="#000" d="M267 92.045h7v-.09h-7z" mask="url(#d)"/>
            <path fill="#000" d="M267 92.045h7v-.09h-7z" mask="url(#d)"/>
            <path fill="#000" d="M267 92.045h7v-.09h-7z" mask="url(#d)"/>
            <path fill="#000" d="M267 92.045h7v-.09h-7zM267 93.045h7v-.09h-7z" mask="url(#d)"/>
            <path fill="#000" d="M267 93.045h7v-.09h-7zM267 94.045h7v-.09h-7z" mask="url(#d)"/>
            <path fill="#000" d="M267 94.045h7v-.09h-7z" mask="url(#d)"/>
            <path fill="#000" d="M267 94.045h7v-.09h-7z" mask="url(#d)"/>
            <path fill="#000" d="M267 94.045h7v-.09h-7z" mask="url(#d)"/>
            <path fill="#000" d="M267 94.045h7v-.09h-7zM267 95.045h7v-.09h-7z" mask="url(#d)"/>
            <path fill="#000" d="M267 95.045h7v-.09h-7z" mask="url(#d)"/>
            <path fill="#8F8F8F" d="M268.057 89a.057.057 0 1 1-.114 0 .057.057 0 0 1 .114 0M268.057 95a.057.057 0 1 1-.114 0 .057.057 0 0 1 .114 0M273.057 89a.057.057 0 1 1-.114 0 .057.057 0 0 1 .114 0M273.057 95a.057.057 0 1 1-.114 0 .057.057 0 0 1 .114 0" mask="url(#d)"/>
            <path fill="#595959" d="M275 96h7v-7h-7z" mask="url(#d)"/>
            <path fill="#8F8F8F" d="M276.057 89a.057.057 0 1 1-.114 0 .057.057 0 0 1 .114 0M276.057 95a.057.057 0 1 1-.114 0 .057.057 0 0 1 .114 0M282.057 89a.057.057 0 1 1-.114 0 .057.057 0 0 1 .114 0M282.057 95a.057.057 0 1 1-.114 0 .057.057 0 0 1 .114 0M281 92a2 2 0 1 1-4 0 2 2 0 0 1 4 0" mask="url(#d)"/>
            <path fill="#000" d="M281 92a2 2 0 1 1-4 0 2 2 0 0 1 4 0" mask="url(#d)"/>
            <path fill="#8F8F8F" d="M279 91.5a.5.5 0 1 1-1 0 .5.5 0 0 1 1 0" mask="url(#d)"/>
            <path fill="#8F8F8F" d="M277 92.1h4v-.2h-4z" mask="url(#d)"/>
            <path fill="#8F8F8F" d="M278.9 94h.2v-4h-.2zM283 88h2v-2h-2z" mask="url(#d)"/>
            <path fill="#595959" d="M283 87h3v-1h-3z" mask="url(#d)"/>
            <path fill="#8F8F8F" d="M286 87h-3l.708-1h1.584zM279 88h2v-2h-2z" mask="url(#d)"/>
            <path fill="#595959" d="M279 87h3v-1h-3z" mask="url(#d)"/>
            <path fill="#8F8F8F" d="M282 87h-3l.708-1h1.584z" mask="url(#d)"/>
            <path fill="#FFD200" d="M234 100h51v-2h-51z" mask="url(#d)"/>
            <path fill="#000" d="M242 148h37v-2h-37z" mask="url(#d)"/>
            <path fill="#D6D6D6" d="M255.943 87v9.953H237V98h20V87z" mask="url(#d)"/>
            <path fill="#D6D6D6" d="M237 96l4.116-10H257l-4.116 10z" mask="url(#d)"/>
            <path fill="#FFF" d="M258 87h-16.595l-.19.473-3.782 9.446L237 98h16.595l.189-.473 3.783-9.446L258 87zm-1.106.777l-3.783 9.446h-15.005l3.783-9.446h15.005z" mask="url(#d)"/>
            <path fill="#000" d="M244.611 90H242l1.389-3H246zM247.611 90H245l1.389-3H249zM252.611 90H250l1.389-3H254zM242.611 95H240l1.389-3H244zM245.611 95H243l1.389-3H247zM249.611 95H247l1.389-3H251z" mask="url(#d)"/>
            <path fill="#000" d="M254.611 90H252l1.389-3H256zM253.611 95H251l1.389-3H255z" mask="url(#d)"/>
            <path fill="#D6D6D6" d="M270 88V71.796c0-.438.45-.796 1-.796s1 .358 1 .796V88h-2z" mask="url(#d)"/>
            <path fill="#595959" d="M271.885 72.819a.5.5 0 1 1-.77-.638.5.5 0 0 1 .77.638" mask="url(#d)"/>
            <path fill="#D6D6D6" d="M267.728 76.21c2.3-2.976 2.948-3.38 3.196-3.16.247.22-.002.977-2.302 3.953 0 0-4.364 5.21-4.61 4.99-.248-.219 3.716-5.784 3.716-5.784" mask="url(#d)"/>
            <path fill="#8F8F8F" d="M264.011 82c-.25-.22 3.758-5.788 3.758-5.788 2.325-2.978 2.981-3.381 3.231-3.162L264.011 82z" mask="url(#d)"/>
            <path fill="#D6D6D6" d="M274.887 73.452c-3.326-.56-3.934-.907-3.884-1.2.05-.294.74-.423 4.066.137 0 0 5.98 1.25 5.93 1.545-.05.293-6.112-.482-6.112-.482" mask="url(#d)"/>
            <path fill="#8F8F8F" d="M281 74.924c-.05.336-6.113-.55-6.113-.55-3.326-.641-3.934-1.038-3.884-1.374L281 74.924zM268.33 69.216c.949 3.322 1.318 3.881 1.545 3.771.228-.11.227-.847-.722-4.169 0 0-1.903-5.926-2.13-5.816-.227.11 1.307 6.214 1.307 6.214" mask="url(#d)"/>
            <path fill="#D6D6D6" d="M267.024 63c-.237.11 1.363 6.215 1.363 6.215.99 3.323 1.376 3.882 1.613 3.772L267.024 63z" mask="url(#d)"/>
            <path fill="#FFF" d="M271.885 72.819a.5.5 0 1 1-.77-.638.5.5 0 0 1 .77.638M244 172h34v-25h-34z" mask="url(#d)"/>
            <path fill="#000" d="M243 172h1v-25h-1zM278 172h1v-25h-1z" mask="url(#d)"/>
            <path fill="#FFD200" d="M262 134.656V133h-7v7h7v-1.656h-5.344v-3.688z" mask="url(#d)"/>
            <path fill="#FFD200" d="M263.344 136H258v1.656h5.344v3.688H258V143h7v-7z" mask="url(#d)"/>
            <path fill="#FFF6B6" d="M155 94h8V78h-8z" mask="url(#d)"/>
            <path fill="#FFB400" d="M162.757 80h-7.515c-.133 0-.242-.225-.242-.5s.11-.5.242-.5h7.515c.134 0 .243.225.243.5s-.11.5-.243.5" mask="url(#d)"/>
            <path fill="#FFF6B6" d="M224 94h8V78h-8z" mask="url(#d)"/>
            <path fill="#FFB400" d="M231.757 80h-7.515c-.133 0-.242-.225-.242-.5s.11-.5.242-.5h7.515c.134 0 .243.225.243.5s-.11.5-.243.5" mask="url(#d)"/>
            <path fill="#D6D6D6" d="M154 172h81v-67h-81z" mask="url(#d)"/>
            <path fill="#4BB4E6" d="M163 151h13v-4h-13z" mask="url(#d)"/>
            <path fill="#FFF" d="M163 151h12v-3h-12z" mask="url(#d)"/>
            <path fill="#595959" d="M233.585 94l-8.023-11h-62.124l-8.023 11L153 105h83z" mask="url(#d)"/>
            <path fill="#000" d="M233 93l-8.006-12h-61.988L155 93z" mask="url(#d)"/>
            <path fill="#FF7900" d="M205 172h-21v-26.576l9.676-6.188a1.476 1.476 0 0 1 1.6-.001l9.724 6.19V172z" mask="url(#d)"/>
            <path fill="#B5E8F7" d="M185 172h17v-24h-17z" mask="url(#d)"/>
            <path fill="#8F8F8F" d="M184 143l9.676-6.743a1.375 1.375 0 0 1 1.6-.001L205 143h-21zM155 172h28v-7h-28zM206 172h28v-7h-28z" mask="url(#d)"/>
            <path fill="#595959" d="M155 165h28v-1h-28zM206 165h28v-1h-28z" mask="url(#d)"/>
            <path fill="#000" d="M183 146h23v-2h-23z" mask="url(#d)"/>
            <path fill="#FFF" d="M184 172h23v-2h-23z" mask="url(#d)"/>
            <path fill="#8F8F8F" d="M154 106h81v-1h-81z" mask="url(#d)"/>
            <path fill="#000" d="M212 161h12v-16h-12z" mask="url(#d)"/>
            <path fill="#FFF" d="M214 160h10v-14h-10z" mask="url(#d)"/>
            <path fill="#B5E8F7" d="M214 153h3v-7h-3zM219 153h3v-7h-3z" mask="url(#d)"/>
            <path fill="#B5E8F7" d="M214 159h3v-7h-3zM219 159h3v-7h-3z" mask="url(#d)"/>
            <path fill="#595959" d="M212 160h13v-1h-13z" mask="url(#d)"/>
            <path fill="#D6D6D6" d="M196 140a2 2 0 1 1-4 0 2 2 0 0 1 4 0" mask="url(#d)"/>
            <path fill="#8F8F8F" d="M196 140a2 2 0 1 1-4 0 2 2 0 0 1 4 0" mask="url(#d)"/>
            <path fill="#D6D6D6" d="M196 139.5a1.5 1.5 0 1 1-3 0 1.5 1.5 0 0 1 3 0" mask="url(#d)"/>
            <path fill="#595959" d="M194.087 141.487c.051 0 .1-.006.147-.018a.306.306 0 0 0 .21-.183.505.505 0 0 0 .031-.193c0-.155-.035-.264-.104-.33a.383.383 0 0 0-.274-.1h-.572v.824h.562zm-.03-1.272c.094 0 .17-.028.23-.085.061-.056.091-.147.091-.273 0-.07-.01-.127-.03-.172a.263.263 0 0 0-.196-.157.607.607 0 0 0-.135-.015h-.492v.702h.532zm.067-1.215c.114 0 .217.013.31.038a.613.613 0 0 1 .242.124.563.563 0 0 1 .155.229.984.984 0 0 1 .055.353.786.786 0 0 1-.082.378.649.649 0 0 1-.242.248.59.59 0 0 1 .33.279.995.995 0 0 1 .108.481c0 .152-.023.282-.07.393a.739.739 0 0 1-.46.427.995.995 0 0 1-.313.05H193v-3h1.124z" mask="url(#d)"/>
            <path fill="#8F8F8F" d="M170 103h12V87h-12z" mask="url(#d)"/>
            <path fill="#FFF" d="M172 102h10V88h-10z" mask="url(#d)"/>
            <path fill="#D6D6D6" d="M170 87l6-3 6 3z" mask="url(#d)"/>
            <path fill="#595959" d="M170 87h12v-1h-12z" mask="url(#d)"/>
            <path fill="#B5E8F7" d="M173 94h3v-7h-3zM176 94h3v-7h-3zM173 101h3v-7h-3zM176 101h3v-7h-3z" mask="url(#d)"/>
            <path fill="#8F8F8F" d="M207 103h12V87h-12z" mask="url(#d)"/>
            <path fill="#FFF" d="M209 102h10V88h-10z" mask="url(#d)"/>
            <path fill="#D6D6D6" d="M207 87l6-3 6 3z" mask="url(#d)"/>
            <path fill="#595959" d="M207 87h12v-1h-12z" mask="url(#d)"/>
            <path fill="#B5E8F7" d="M209 94h3v-7h-3zM213 94h3v-7h-3zM209 101h3v-7h-3zM213 101h3v-7h-3z" mask="url(#d)"/>
            <path fill="#000" d="M165 128h12v-16h-12z" mask="url(#d)"/>
            <path fill="#FFF" d="M166 128h10v-14h-10z" mask="url(#d)"/>
            <path fill="#B5E8F7" d="M167 122h3v-7h-3zM171 122h3v-7h-3z" mask="url(#d)"/>
            <path fill="#B5E8F7" d="M167 125h3v-7h-3zM171 125h3v-7h-3z" mask="url(#d)"/>
            <path fill="#FF7900" d="M177 128h5v-16h-5z" mask="url(#d)"/>
            <path fill="#D6D6D6" d="M177 114.113h4v-.226h-4z" mask="url(#d)"/>
            <path fill="#D6D6D6" d="M177 114.113h4v-.226h-4zM177 115.113h4v-.226h-4zM177 116.113h4v-.226h-4z" mask="url(#d)"/>
            <path fill="#D6D6D6" d="M177 116.113h4v-.226h-4z" mask="url(#d)"/>
            <path fill="#D6D6D6" d="M177 116.113h4v-.226h-4zM177 117.113h4v-.226h-4z" mask="url(#d)"/>
            <path fill="#D6D6D6" d="M177 117.113h4v-.226h-4z" mask="url(#d)"/>
            <path fill="#D6D6D6" d="M177 117.113h4v-.226h-4zM177 118.113h4v-.226h-4z" mask="url(#d)"/>
            <path fill="#D6D6D6" d="M177 118.113h4v-.226h-4zM177 119.113h4v-.226h-4z" mask="url(#d)"/>
            <path fill="#D6D6D6" d="M177 119.113h4v-.226h-4zM177 120.113h4v-.226h-4z" mask="url(#d)"/>
            <path fill="#D6D6D6" d="M177 120.113h4v-.226h-4zM177 121.113h4v-.226h-4z" mask="url(#d)"/>
            <path fill="#D6D6D6" d="M177 121.113h4v-.226h-4z" mask="url(#d)"/>
            <path fill="#D6D6D6" d="M177 121.113h4v-.226h-4zM177 122.113h4v-.226h-4z" mask="url(#d)"/>
            <path fill="#D6D6D6" d="M177 122.113h4v-.226h-4z" mask="url(#d)"/>
            <path fill="#D6D6D6" d="M177 122.113h4v-.226h-4zM177 123.113h4v-.226h-4z" mask="url(#d)"/>
            <path fill="#D6D6D6" d="M177 123.113h4v-.226h-4z" mask="url(#d)"/>
            <path fill="#D6D6D6" d="M177 123.113h4v-.226h-4zM177 124.113h4v-.226h-4zM177 125.113h4v-.226h-4z" mask="url(#d)"/>
            <path fill="#D6D6D6" d="M177 125.113h4v-.226h-4zM177 126.113h4v-.226h-4z" mask="url(#d)"/>
            <path fill="#D6D6D6" d="M177 126.113h4v-.226h-4z" mask="url(#d)"/>
            <path fill="#FF7900" d="M160 128h5v-16h-5z" mask="url(#d)"/>
            <path fill="#D6D6D6" d="M160 114.113h4v-.226h-4z" mask="url(#d)"/>
            <path fill="#D6D6D6" d="M160 114.113h4v-.226h-4zM160 115.113h4v-.226h-4zM160 116.113h4v-.226h-4z" mask="url(#d)"/>
            <path fill="#D6D6D6" d="M160 116.113h4v-.226h-4z" mask="url(#d)"/>
            <path fill="#D6D6D6" d="M160 116.113h4v-.226h-4zM160 117.113h4v-.226h-4z" mask="url(#d)"/>
            <path fill="#D6D6D6" d="M160 117.113h4v-.226h-4z" mask="url(#d)"/>
            <path fill="#D6D6D6" d="M160 117.113h4v-.226h-4zM160 118.113h4v-.226h-4z" mask="url(#d)"/>
            <path fill="#D6D6D6" d="M160 118.113h4v-.226h-4zM160 119.113h4v-.226h-4z" mask="url(#d)"/>
            <path fill="#D6D6D6" d="M160 119.113h4v-.226h-4zM160 120.113h4v-.226h-4z" mask="url(#d)"/>
            <path fill="#D6D6D6" d="M160 120.113h4v-.226h-4zM160 121.113h4v-.226h-4z" mask="url(#d)"/>
            <path fill="#D6D6D6" d="M160 121.113h4v-.226h-4z" mask="url(#d)"/>
            <path fill="#D6D6D6" d="M160 121.113h4v-.226h-4zM160 122.113h4v-.226h-4z" mask="url(#d)"/>
            <path fill="#D6D6D6" d="M160 122.113h4v-.226h-4z" mask="url(#d)"/>
            <path fill="#D6D6D6" d="M160 122.113h4v-.226h-4zM160 123.113h4v-.226h-4z" mask="url(#d)"/>
            <path fill="#D6D6D6" d="M160 123.113h4v-.226h-4z" mask="url(#d)"/>
            <path fill="#D6D6D6" d="M160 123.113h4v-.226h-4zM160 124.113h4v-.226h-4zM160 125.113h4v-.226h-4z" mask="url(#d)"/>
            <path fill="#D6D6D6" d="M160 125.113h4v-.226h-4zM160 126.113h4v-.226h-4z" mask="url(#d)"/>
            <path fill="#D6D6D6" d="M160 126.113h4v-.226h-4z" mask="url(#d)"/>
            <path fill="#000" d="M188 128h12v-16h-12z" mask="url(#d)"/>
            <path fill="#FFF" d="M189 128h10v-14h-10z" mask="url(#d)"/>
            <path fill="#B5E8F7" d="M190 122h3v-7h-3zM194 122h3v-7h-3z" mask="url(#d)"/>
            <path fill="#B5E8F7" d="M190 125h3v-7h-3zM194 125h3v-7h-3z" mask="url(#d)"/>
            <path fill="#FF7900" d="M199 128h5v-16h-5z" mask="url(#d)"/>
            <path fill="#D6D6D6" d="M200 114.113h4v-.226h-4z" mask="url(#d)"/>
            <path fill="#D6D6D6" d="M200 114.113h4v-.226h-4zM200 115.113h4v-.226h-4zM200 116.113h4v-.226h-4z" mask="url(#d)"/>
            <path fill="#D6D6D6" d="M200 116.113h4v-.226h-4z" mask="url(#d)"/>
            <path fill="#D6D6D6" d="M200 116.113h4v-.226h-4zM200 117.113h4v-.226h-4z" mask="url(#d)"/>
            <path fill="#D6D6D6" d="M200 117.113h4v-.226h-4z" mask="url(#d)"/>
            <path fill="#D6D6D6" d="M200 117.113h4v-.226h-4zM200 118.113h4v-.226h-4z" mask="url(#d)"/>
            <path fill="#D6D6D6" d="M200 118.113h4v-.226h-4zM200 119.113h4v-.226h-4z" mask="url(#d)"/>
            <path fill="#D6D6D6" d="M200 119.113h4v-.226h-4zM200 120.113h4v-.226h-4z" mask="url(#d)"/>
            <path fill="#D6D6D6" d="M200 120.113h4v-.226h-4zM200 121.113h4v-.226h-4z" mask="url(#d)"/>
            <path fill="#D6D6D6" d="M200 121.113h4v-.226h-4z" mask="url(#d)"/>
            <path fill="#D6D6D6" d="M200 121.113h4v-.226h-4zM200 122.113h4v-.226h-4z" mask="url(#d)"/>
            <path fill="#D6D6D6" d="M200 122.113h4v-.226h-4z" mask="url(#d)"/>
            <path fill="#D6D6D6" d="M200 122.113h4v-.226h-4zM200 123.113h4v-.226h-4z" mask="url(#d)"/>
            <path fill="#D6D6D6" d="M200 123.113h4v-.226h-4z" mask="url(#d)"/>
            <path fill="#D6D6D6" d="M200 123.113h4v-.226h-4zM200 124.113h4v-.226h-4zM200 125.113h4v-.226h-4z" mask="url(#d)"/>
            <path fill="#D6D6D6" d="M200 125.113h4v-.226h-4zM200 126.113h4v-.226h-4z" mask="url(#d)"/>
            <path fill="#D6D6D6" d="M200 126.113h4v-.226h-4z" mask="url(#d)"/>
            <path fill="#FF7900" d="M184 128h5v-16h-5z" mask="url(#d)"/>
            <path fill="#D6D6D6" d="M184 114.113h4v-.226h-4z" mask="url(#d)"/>
            <path fill="#D6D6D6" d="M184 114.113h4v-.226h-4zM184 115.113h4v-.226h-4zM184 116.113h4v-.226h-4z" mask="url(#d)"/>
            <path fill="#D6D6D6" d="M184 116.113h4v-.226h-4z" mask="url(#d)"/>
            <path fill="#D6D6D6" d="M184 116.113h4v-.226h-4zM184 117.113h4v-.226h-4z" mask="url(#d)"/>
            <path fill="#D6D6D6" d="M184 117.113h4v-.226h-4z" mask="url(#d)"/>
            <path fill="#D6D6D6" d="M184 117.113h4v-.226h-4zM184 118.113h4v-.226h-4z" mask="url(#d)"/>
            <path fill="#D6D6D6" d="M184 118.113h4v-.226h-4zM184 119.113h4v-.226h-4z" mask="url(#d)"/>
            <path fill="#D6D6D6" d="M184 119.113h4v-.226h-4zM184 120.113h4v-.226h-4z" mask="url(#d)"/>
            <path fill="#D6D6D6" d="M184 120.113h4v-.226h-4zM184 121.113h4v-.226h-4z" mask="url(#d)"/>
            <path fill="#D6D6D6" d="M184 121.113h4v-.226h-4z" mask="url(#d)"/>
            <path fill="#D6D6D6" d="M184 121.113h4v-.226h-4zM184 122.113h4v-.226h-4z" mask="url(#d)"/>
            <path fill="#D6D6D6" d="M184 122.113h4v-.226h-4z" mask="url(#d)"/>
            <path fill="#D6D6D6" d="M184 122.113h4v-.226h-4zM184 123.113h4v-.226h-4z" mask="url(#d)"/>
            <path fill="#D6D6D6" d="M184 123.113h4v-.226h-4z" mask="url(#d)"/>
            <path fill="#D6D6D6" d="M184 123.113h4v-.226h-4zM184 124.113h4v-.226h-4zM184 125.113h4v-.226h-4z" mask="url(#d)"/>
            <path fill="#D6D6D6" d="M184 125.113h4v-.226h-4zM184 126.113h4v-.226h-4z" mask="url(#d)"/>
            <path fill="#D6D6D6" d="M184 126.113h4v-.226h-4z" mask="url(#d)"/>
            <path fill="#8F8F8F" d="M163 164h13v-15h-13z" mask="url(#d)"/>
            <path fill="#595959" d="M165 162h10v-12h-10z" mask="url(#d)"/>
            <path fill="#D6D6D6" d="M175 163h-10l.517-3h8.966zM165 151h10l-.517 3h-8.966z" mask="url(#d)"/>
            <path fill="#8F8F8F" d="M165 160h10v-8h-10z" mask="url(#d)"/>
            <path fill="#000" d="M166 158h5v-3h-5z" mask="url(#d)"/>
            <path fill="#595959" d="M166 160h3v-1h-3z" mask="url(#d)"/>
            <path fill="#D6D6D6" d="M172 156h2v-1h-2z" mask="url(#d)"/>
            <path fill="#595959" d="M173 156.048h1v-.096h-1z" mask="url(#d)"/>
            <path fill="#0A6E31" d="M167 150h3v-2h-3z" mask="url(#d)"/>
            <path fill="#50BE87" d="M167 150h3v-2h-3z" mask="url(#d)"/>
            <path fill="#0A6E31" d="M168 148a1 1 0 0 1-1 1v-1h1zM167 149a1 1 0 0 1 1 1h-1v-1zM170 150a1 1 0 0 1 1-1v1h-1zM171 149a1 1 0 0 1-1-1h1v1zM169 149.5a.5.5 0 1 1-1 0 .5.5 0 0 1 1 0" mask="url(#d)"/>
            <path fill="#0A6E31" d="M169.854 148H167v.156h2.854V150H170v-2z" mask="url(#d)"/>
            <path fill="#0A6E31" d="M171.854 148H169v.156h2.854V150H172v-2z" mask="url(#d)"/>
            <path fill="#595959" d="M165 128h13v-1h-13zM187 128h13v-1h-13z" mask="url(#d)"/>
            <path fill="#000" d="M212 128h12v-16h-12z" mask="url(#d)"/>
            <path fill="#FFF" d="M214 128h10v-14h-10z" mask="url(#d)"/>
            <path fill="#B5E8F7" d="M214 122h3v-7h-3zM219 122h3v-7h-3z" mask="url(#d)"/>
            <path fill="#B5E8F7" d="M214 125h3v-7h-3zM219 125h3v-7h-3z" mask="url(#d)"/>
            <path fill="#FF7900" d="M223 128h5v-16h-5z" mask="url(#d)"/>
            <path fill="#D6D6D6" d="M223 114.113h4v-.226h-4z" mask="url(#d)"/>
            <path fill="#D6D6D6" d="M223 114.113h4v-.226h-4zM223 115.113h4v-.226h-4zM223 116.113h4v-.226h-4z" mask="url(#d)"/>
            <path fill="#D6D6D6" d="M223 116.113h4v-.226h-4z" mask="url(#d)"/>
            <path fill="#D6D6D6" d="M223 116.113h4v-.226h-4zM223 117.113h4v-.226h-4z" mask="url(#d)"/>
            <path fill="#D6D6D6" d="M223 117.113h4v-.226h-4z" mask="url(#d)"/>
            <path fill="#D6D6D6" d="M223 117.113h4v-.226h-4zM223 118.113h4v-.226h-4z" mask="url(#d)"/>
            <path fill="#D6D6D6" d="M223 118.113h4v-.226h-4zM223 119.113h4v-.226h-4z" mask="url(#d)"/>
            <path fill="#D6D6D6" d="M223 119.113h4v-.226h-4zM223 120.113h4v-.226h-4z" mask="url(#d)"/>
            <path fill="#D6D6D6" d="M223 120.113h4v-.226h-4zM223 121.113h4v-.226h-4z" mask="url(#d)"/>
            <path fill="#D6D6D6" d="M223 121.113h4v-.226h-4z" mask="url(#d)"/>
            <path fill="#D6D6D6" d="M223 121.113h4v-.226h-4zM223 122.113h4v-.226h-4z" mask="url(#d)"/>
            <path fill="#D6D6D6" d="M223 122.113h4v-.226h-4z" mask="url(#d)"/>
            <path fill="#D6D6D6" d="M223 122.113h4v-.226h-4zM223 123.113h4v-.226h-4z" mask="url(#d)"/>
            <path fill="#D6D6D6" d="M223 123.113h4v-.226h-4z" mask="url(#d)"/>
            <path fill="#D6D6D6" d="M223 123.113h4v-.226h-4zM223 124.113h4v-.226h-4zM223 125.113h4v-.226h-4z" mask="url(#d)"/>
            <path fill="#D6D6D6" d="M223 125.113h4v-.226h-4zM223 126.113h4v-.226h-4z" mask="url(#d)"/>
            <path fill="#D6D6D6" d="M223 126.113h4v-.226h-4z" mask="url(#d)"/>
            <path fill="#FF7900" d="M207 128h5v-16h-5z" mask="url(#d)"/>
            <path fill="#D6D6D6" d="M208 114.113h4v-.226h-4z" mask="url(#d)"/>
            <path fill="#D6D6D6" d="M208 114.113h4v-.226h-4zM208 115.113h4v-.226h-4zM208 116.113h4v-.226h-4z" mask="url(#d)"/>
            <path fill="#D6D6D6" d="M208 116.113h4v-.226h-4z" mask="url(#d)"/>
            <path fill="#D6D6D6" d="M208 116.113h4v-.226h-4zM208 117.113h4v-.226h-4z" mask="url(#d)"/>
            <path fill="#D6D6D6" d="M208 117.113h4v-.226h-4z" mask="url(#d)"/>
            <path fill="#D6D6D6" d="M208 117.113h4v-.226h-4zM208 118.113h4v-.226h-4z" mask="url(#d)"/>
            <path fill="#D6D6D6" d="M208 118.113h4v-.226h-4zM208 119.113h4v-.226h-4z" mask="url(#d)"/>
            <path fill="#D6D6D6" d="M208 119.113h4v-.226h-4zM208 120.113h4v-.226h-4z" mask="url(#d)"/>
            <path fill="#D6D6D6" d="M208 120.113h4v-.226h-4zM208 121.113h4v-.226h-4z" mask="url(#d)"/>
            <path fill="#D6D6D6" d="M208 121.113h4v-.226h-4z" mask="url(#d)"/>
            <path fill="#D6D6D6" d="M208 121.113h4v-.226h-4zM208 122.113h4v-.226h-4z" mask="url(#d)"/>
            <path fill="#D6D6D6" d="M208 122.113h4v-.226h-4z" mask="url(#d)"/>
            <path fill="#D6D6D6" d="M208 122.113h4v-.226h-4zM208 123.113h4v-.226h-4z" mask="url(#d)"/>
            <path fill="#D6D6D6" d="M208 123.113h4v-.226h-4z" mask="url(#d)"/>
            <path fill="#D6D6D6" d="M208 123.113h4v-.226h-4zM208 124.113h4v-.226h-4zM208 125.113h4v-.226h-4z" mask="url(#d)"/>
            <path fill="#D6D6D6" d="M208 125.113h4v-.226h-4zM208 126.113h4v-.226h-4z" mask="url(#d)"/>
            <path fill="#D6D6D6" d="M208 126.113h4v-.226h-4z" mask="url(#d)"/>
            <path fill="#595959" d="M212 128h13v-1h-13z" mask="url(#d)"/>
            <path fill="#8F8F8F" d="M154 111h81v-1h-81zM154 132h81v-1h-81z" mask="url(#d)"/>
            <path fill="#595959" d="M153 112h3v-2h-3zM153 114h2v-2h-2zM153 116h3v-2h-3zM153 118h2v-2h-2z" mask="url(#d)"/>
            <path fill="#595959" d="M153 119h3v-2h-3zM153 122h2v-2h-2z" mask="url(#d)"/>
            <path fill="#595959" d="M153 123h3v-2h-3z" mask="url(#d)"/>
            <path fill="#595959" d="M153 123h2v-2h-2zM153 126h3v-2h-3zM153 128h2v-2h-2z" mask="url(#d)"/>
            <path fill="#595959" d="M153 129h3v-2h-3zM153 131h2v-2h-2zM153 135h3v-2h-3z" mask="url(#d)"/>
            <path fill="#595959" d="M153 136h2v-2h-2zM153 138h3v-2h-3zM153 141h2v-2h-2z" mask="url(#d)"/>
            <path fill="#595959" d="M153 141h3v-2h-3zM153 144h2v-2h-2zM153 147h3v-2h-3z" mask="url(#d)"/>
            <path fill="#595959" d="M153 148h2v-2h-2zM153 150h3v-2h-3zM153 152h2v-2h-2zM153 154h3v-2h-3z" mask="url(#d)"/>
            <path fill="#595959" d="M153 155h2v-2h-2zM153 157h3v-2h-3z" mask="url(#d)"/>
            <path fill="#595959" d="M153 158h2v-2h-2zM153 160h3v-2h-3z" mask="url(#d)"/>
            <path fill="#595959" d="M153 161h2v-2h-2zM153 163h3v-2h-3zM153 165h2v-2h-2zM231 112h3v-2h-3zM233 114h2v-2h-2zM231 116h3v-2h-3zM233 118h2v-2h-2z" mask="url(#d)"/>
            <path fill="#595959" d="M231 119h3v-2h-3zM233 122h2v-2h-2z" mask="url(#d)"/>
            <path fill="#595959" d="M231 123h3v-2h-3z" mask="url(#d)"/>
            <path fill="#595959" d="M233 123h2v-2h-2zM231 126h3v-2h-3zM233 128h2v-2h-2z" mask="url(#d)"/>
            <path fill="#595959" d="M231 129h3v-2h-3zM233 131h2v-2h-2zM231 135h3v-2h-3z" mask="url(#d)"/>
            <path fill="#595959" d="M233 136h2v-2h-2zM231 138h3v-2h-3zM233 141h2v-2h-2z" mask="url(#d)"/>
            <path fill="#595959" d="M231 141h3v-2h-3zM233 144h2v-2h-2zM231 147h3v-2h-3z" mask="url(#d)"/>
            <path fill="#595959" d="M233 148h2v-2h-2zM231 150h3v-2h-3zM233 152h2v-2h-2zM231 154h3v-2h-3z" mask="url(#d)"/>
            <path fill="#595959" d="M233 155h2v-2h-2zM231 157h3v-2h-3z" mask="url(#d)"/>
            <path fill="#595959" d="M233 158h2v-2h-2zM231 160h3v-2h-3z" mask="url(#d)"/>
            <path fill="#595959" d="M233 161h2v-2h-2zM231 163h3v-2h-3zM233 165h2v-2h-2z" mask="url(#d)"/>
            <path fill="#0A6E31" d="M243.97 148.7c-.208-1.999-1.457-3.602-3.105-4.263-.002-.017-.001-.035-.003-.052-.115-1.108-.967-1.934-1.975-1.99-.923-2.824-3.573-4.699-6.472-4.354-2.355.28-4.248 1.949-5.049 4.158-1.143.144-1.965 1.248-1.838 2.474-1.669.921-2.719 2.873-2.5 4.988.207 1.978 1.467 3.557 3.116 4.168.503 1.658 2.04 2.768 3.725 2.568.12-.015.24-.035.357-.062.931 1.155 2.361 1.817 3.886 1.635 1.295-.153 2.399-.884 3.114-1.925.283.104.591.147.91.11.932-.112 1.654-.861 1.826-1.796 2.515-.443 4.293-2.92 4.008-5.66" mask="url(#d)"/>
            <path fill="#714E46" d="M230.27 172l.01-14.719-3.316-4.509-3.964-2.615.465-.222 3.412 1.871-.696-2.357h.562l1.03 2.854 2.763 3.67-.076-4.553-1.436-5.42h.479l1.361 4.262 1.065-2.152.43.297-1.13 2.9.423 4.475 2.53-4.446.727-3.733.575.275-.58 3.339 2.937-.275.159.45-3.294.635-2.835 5.167.699 14.806z" mask="url(#d)"/>
            <path fill="#085EBD" d="M176 147l-1 .336v3.328l1 .336zM163 151l1-.336v-3.328l-1-.336z" mask="url(#d)"/>
        </g>
        <path fill="#A885D8" fill-opacity=".2" fill-rule="nonzero" d="M474.38 17.019c-48.521 1.312-128.764 25.18-134.51 127.087-5.745 101.908-11.993 239.566 79.38 254.598 91.374 15.032 137.404-100.806 137.404-208.308 0-107.503-33.752-174.69-82.274-173.377z"/>
        <path fill="#000" d="M502.659 327.974c-.271-6.808 0-16.753.36-22.308.362-5.556 1.714-3.496 1.899-8.599.096-2.785-1.442-36.493-1.442-36.493s5.86-1.068 13.041-1.56c7.176-.493 9.793-1.145 9.793-1.145s.497.27 2.62-3.896c2.12-4.167 3.217-7.315 3.217-7.315s3.542.396 8.737.027c5.195-.37 8.28-2.04 8.11-3.798-.174-1.755-4.516-1.247-4.516-1.247s.366-.544-.05-.63c-.697-.14-1.834-.012-4.588.098-2.758.11-5.92 1.292-5.92 1.292s-11.475.472-16.332.58c-4.85.11-7.686.87-13.538-1.647-5.841-2.518-12.61-3.219-12.61-3.219s.115-3.284.446-7.446c.33-4.16.522-11.325-5.51-10.62-4.107.48-4.84 1.133-6.647 6.33-1.807 5.195-1.085 11.466-1.085 11.466s-2.888.092-11.825.536c-8.936.45-12.042 2.742-15.834 2.742-3.793 0-16.072-.356-16.072-.356-1.872-.195-5.821-1.415-8.081-1.415-2.252 0-1.377 1.139-1.377 1.139s-5.108-.194-5.419.874c-.953 3.377 6.159 3.649 9.41 3.649h7.49c.996 5.196 6.5 11.11 8.038 11.646 1.536.539 12.727-.18 12.727-.18 3.7 2.866 9.118 3.853 9.118 3.853s-.09 8.693-.09 13.797c0 5.107-.18 6.719 1.263 8.066 1.448 1.338 1.718 3.045 1.718 9.403 0 6.362 1.082 5.374 1.082 16.397 0 7.06-.259 18.934-.446 26.889-57.84 20.144-69.586 138.535-68.351 138.116h145.951c-3.46-73.21-18.582-117.821-45.368-133.834-.051-3.24.228-7.48.08-11.192z"/>
        <path fill="#FF7900" d="M393.528 336h13.562c1.833 11.394 4.835 20.462 6.91 32-4.391-.306-8.92-.474-13.61-.474-4.588 0-9.049.144-13.39.413 1.754-7.153 4.748-20.478 6.528-31.939m56.398 38.267a148.761 148.761 0 0 0-6.378-1.72l-.804-.034c-.503-.122-1-.248-1.508-.367-.114-.137-.245-.256-.311-.445-27.211-68.443-30.784-160.453-34.476-252.338 1.124-5.581 5.04-7.064 4.313-12.883-.7-5.594-5.558-5.898-7.542-10.739-1.862-3.155.092-10.122-4.313-10.741-.303 4.354-1.844 7.465-2.152 11.812-3.922 4.079-7.023 4.583-7.547 10.743-.443 5.254 3.55 8.381 4.312 12.88 1.282 7.558-.732 15.858-1.072 23.627-3.354 75.98-8.51 171.46-33.012 227.787a164.778 164.778 0 0 0-9.002 2.121c1.5 17.62-2.893 25.93-8.622 36.386-10.312 18.803-28.377 45.775-38.26 62.645 2.973 0 27.59-.004 41.592-.004 1.698-8.974 8.43-23.45 11.184-28.423 10.84-19.545 28.474-35.558 54.434-29.383l.117-.023c14.68 3.995 25.56 15.956 33.145 29.63 2.786 5.027 9.315 19.128 11.036 28.199h43.684c-9.983-17.044-29.633-43.77-40.053-62.774-5.695-10.406-10.073-18.716-8.765-35.956z"/>
        <path fill="#4BB4E6" fill-opacity=".2" fill-rule="nonzero" d="M289.32 1.923c-37.363 6.57-57.867 75.811-41.79 136.663 16.076 60.852 116.236 22.216 116.236-57.223 0-79.44-37.083-86.011-74.446-79.44z"/>
        <path fill="#FB7900" fill-opacity=".2" fill-rule="nonzero" d="M338.146 299.611c16.332-8.745 16.306-38.242.557-58.442-15.75-20.2-56.654 11.154-45.774 41.047 10.88 29.893 28.884 26.14 45.217 17.395z"/>
    </g>
</svg>
