<svg xmlns="http://www.w3.org/2000/svg" width="30" height="30" viewBox="0 0 30 30">
    <g fill="none" fill-rule="evenodd">
        <circle cx="15" cy="15" r="15" fill="#1DA1F2" fill-rule="nonzero"/>
        <path fill="#FFF" fill-rule="nonzero" d="M22.57 11.238c.012.164.012.328.012.492 0 5.004-3.809 10.77-10.77 10.77-2.144 0-4.136-.621-5.812-1.7.305.036.598.048.914.048a7.58 7.58 0 0 0 4.7-1.618 3.792 3.792 0 0 1-3.54-2.625c.235.036.469.059.715.059.34 0 .68-.047.996-.129A3.786 3.786 0 0 1 6.75 12.82v-.047c.504.282 1.09.457 1.71.48a3.782 3.782 0 0 1-1.687-3.151c0-.704.188-1.348.516-1.91a10.76 10.76 0 0 0 7.805 3.96 4.273 4.273 0 0 1-.094-.867A3.783 3.783 0 0 1 18.785 7.5c1.09 0 2.074.457 2.766 1.195a7.452 7.452 0 0 0 2.402-.914 3.775 3.775 0 0 1-1.664 2.086 7.588 7.588 0 0 0 2.18-.586 8.137 8.137 0 0 1-1.899 1.957z"/>
    </g>
</svg>
