<svg xmlns="http://www.w3.org/2000/svg" xmlns:xlink="http://www.w3.org/1999/xlink" width="580" height="314" viewBox="0 0 580 314">
    <defs>
        <path id="a" d="M.177.398h42.488v44.826H.177z"/>
        <path id="c" d="M111.368 240.917c17.906 3.834 33.357 6.366 46.352 7.598L369 244V0H0l10.144 177.299c11.126 14.888 20.126 25.146 27 30.774 10.31 8.442 16.92 13.733 32.856 20.784 15.936 7.052 14.509 6.31 41.368 12.06z"/>
        <path id="e" d="M.507.545h12.297v12.296H.507z"/>
        <path id="g" d="M0 .57h5.737v5.197H0z"/>
        <path id="i" d="M.54.785h5.038V6H.541z"/>
    </defs>
    <g fill="none" fill-rule="evenodd">
        <path fill="#FFE8F7" d="M157.12 11.354c-56.775 0-118.068-10.83-145.55 87.336-27.481 98.166-3.823 102.01 47.908 159.964 51.732 57.954 199.74 49.312 307.061 51.707 21.633.483 52.22 3.313 83.482 3.313 65.273 0 133.541-12.329 129.76-84.115-4.488-85.112-14.523-156.96-78.597-179.26C435.974 27.605 420.59 28 315.378 28 210.165 28 186.221 11.354 157.12 11.354z"/>
        <g transform="translate(29 57)">
            <path fill="#9D9D9C" d="M358.348 136H161.652c-2.57 0-4.652-2.014-4.652-4.5s2.082-4.5 4.652-4.5h196.696c2.57 0 4.652 2.014 4.652 4.5s-2.082 4.5-4.652 4.5"/>
            <path fill="#DADADA" d="M365.9 132H149.1c-1.713 0-3.1-1.343-3.1-3s1.387-3 3.1-3h216.8c1.712 0 3.1 1.343 3.1 3s-1.388 3-3.1 3"/>
            <g transform="translate(157)">
                <mask id="b" fill="#fff">
                    <use xlink:href="#a"/>
                </mask>
                <path fill="#1D1D1B" d="M1.63 14.11c.968-2.74 2.36-5.131 4.176-7.172 1.815-2.04 4.044-3.64 6.687-4.8C15.136.977 18.112.397 21.42.397c3.349 0 6.335.58 8.958 1.74 2.623 1.16 4.842 2.76 6.658 4.8 1.815 2.041 3.207 4.432 4.176 7.172.968 2.74 1.453 5.71 1.453 8.91 0 3.121-.485 6.03-1.453 8.732-.969 2.7-2.36 5.051-4.176 7.052-1.816 2-4.035 3.57-6.658 4.71-2.623 1.14-5.61 1.71-8.958 1.71-3.308 0-6.284-.57-8.927-1.71-2.643-1.14-4.872-2.71-6.687-4.71-1.816-2-3.208-4.351-4.177-7.052C.661 29.051.177 26.142.177 23.02c0-3.2.484-6.17 1.452-8.91m8.685 14.16c.424 1.703 1.1 3.233 2.028 4.592.928 1.36 2.138 2.451 3.632 3.272 1.492.819 3.308 1.23 5.446 1.23 2.14 0 3.954-.411 5.448-1.23 1.492-.82 2.703-1.911 3.631-3.272.928-1.359 1.605-2.89 2.028-4.591.423-1.7.636-3.45.636-5.25 0-1.88-.213-3.7-.636-5.462-.423-1.759-1.1-3.33-2.028-4.71a10.247 10.247 0 0 0-3.631-3.3c-1.494-.82-3.309-1.23-5.448-1.23-2.138 0-3.954.41-5.446 1.23a10.24 10.24 0 0 0-3.632 3.3c-.928 1.38-1.604 2.951-2.028 4.71a23.308 23.308 0 0 0-.635 5.461c0 1.8.212 3.551.635 5.25" mask="url(#b)"/>
            </g>
            <path fill="#1D1D1B" d="M212.108 12.844v5.786h.12c.4-.966.94-1.86 1.622-2.682a10.585 10.585 0 0 1 2.342-2.11 11.42 11.42 0 0 1 2.823-1.356c1-.32 2.04-.482 3.122-.482.56 0 1.181.101 1.863.3v7.957c-.402-.08-.881-.152-1.442-.212a15.34 15.34 0 0 0-1.621-.09c-1.562 0-2.884.261-3.965.783-1.08.524-1.951 1.236-2.612 2.138-.66.906-1.131 1.96-1.411 3.165s-.42 2.51-.42 3.917V44H204V12.844h8.108zM225.983 22.494c.123-2.02.635-3.702 1.538-5.034a10.405 10.405 0 0 1 3.444-3.216c1.394-.808 2.962-1.384 4.706-1.728A27.03 27.03 0 0 1 240.93 12c1.6 0 3.218.112 4.86.333 1.64.223 3.136.658 4.489 1.304 1.353.648 2.46 1.548 3.322 2.699.86 1.154 1.292 2.68 1.292 4.58v16.32c0 1.415.081 2.768.246 4.063.163 1.295.45 2.266.861 2.91h-8.858a12.123 12.123 0 0 1-.4-1.484 12.654 12.654 0 0 1-.214-1.547 11.41 11.41 0 0 1-4.921 2.973c-1.887.565-3.813.849-5.782.849-1.518 0-2.933-.183-4.245-.547-1.312-.363-2.46-.929-3.444-1.699a7.915 7.915 0 0 1-2.307-2.91c-.553-1.172-.829-2.569-.829-4.187 0-1.778.316-3.245.953-4.397.635-1.152 1.455-2.073 2.46-2.76 1.004-.688 2.153-1.204 3.444-1.548a37.685 37.685 0 0 1 3.907-.818 67.75 67.75 0 0 1 3.874-.487c1.27-.119 2.399-.302 3.383-.544.985-.243 1.763-.598 2.337-1.063.574-.463.84-1.142.8-2.032 0-.93-.154-1.666-.462-2.213a3.366 3.366 0 0 0-1.23-1.274c-.512-.304-1.107-.506-1.783-.606-.676-.101-1.405-.152-2.184-.152-1.722 0-3.075.362-4.059 1.092-.984.728-1.56 1.94-1.723 3.64h-8.734zm20.175 6.37c-.369.323-.83.576-1.384.758-.553.18-1.148.334-1.784.455-.636.121-1.301.223-1.998.304-.698.08-1.395.18-2.091.303-.657.121-1.303.282-1.939.484a5.778 5.778 0 0 0-1.66.82c-.472.344-.851.78-1.138 1.304-.287.524-.43 1.193-.43 2.002 0 .769.143 1.417.43 1.942.287.525.676.94 1.169 1.243a4.96 4.96 0 0 0 1.722.635c.656.123 1.332.182 2.03.182 1.721 0 3.054-.282 3.998-.849.942-.566 1.64-1.242 2.091-2.032.45-.788.728-1.586.83-2.395.103-.808.154-1.456.154-1.941v-3.216zM268.073 12.844v4.339h.18c1.075-1.808 2.47-3.123 4.185-3.947 1.713-.825 3.468-1.236 5.26-1.236 2.274 0 4.137.311 5.593.934 1.454.623 2.6 1.486 3.437 2.592.838 1.104 1.426 2.45 1.764 4.038.338 1.586.508 3.344.508 5.273V44h-8.49V26.402c0-2.57-.4-4.488-1.197-5.754-.797-1.266-2.211-1.9-4.245-1.9-2.311 0-3.986.693-5.022 2.081-1.037 1.385-1.555 3.666-1.555 6.838V44H260V12.844h8.073zM324.486 46.485c-.342 1.616-1.078 3.122-2.205 4.515-1.129 1.394-2.76 2.576-4.896 3.546-2.135.969-4.994 1.454-8.58 1.454-1.531 0-3.093-.19-4.683-.576a14.89 14.89 0 0 1-4.351-1.787 10.707 10.707 0 0 1-3.263-3.12c-.866-1.273-1.359-2.8-1.481-4.577h8.52c.403 1.615 1.19 2.738 2.357 3.363 1.169.626 2.518.94 4.05.94 2.416 0 4.178-.728 5.287-2.18 1.107-1.457 1.642-3.296 1.6-5.518v-4.12h-.12c-.926 1.658-2.246 2.878-3.958 3.666a12.799 12.799 0 0 1-5.408 1.182c-2.336 0-4.35-.414-6.043-1.242-1.691-.828-3.082-1.96-4.17-3.395-1.087-1.432-1.883-3.11-2.386-5.03-.505-1.918-.756-3.949-.756-6.09 0-2.02.293-3.97.877-5.848.583-1.88 1.439-3.536 2.568-4.971a12.424 12.424 0 0 1 4.2-3.425c1.671-.847 3.594-1.272 5.77-1.272 2.055 0 3.857.384 5.408 1.151 1.551.768 2.85 2.06 3.898 3.879h.12v-4.181H325v29.333c0 1.254-.172 2.686-.514 4.303m-11.753-10.424a6.71 6.71 0 0 0 2.297-1.94 8.613 8.613 0 0 0 1.359-2.757 11.48 11.48 0 0 0 .453-3.243c0-1.293-.121-2.515-.363-3.666-.24-1.152-.645-2.17-1.208-3.06a6.275 6.275 0 0 0-2.235-2.123c-.928-.524-2.096-.787-3.506-.787-1.208 0-2.246.242-3.111.728a6.523 6.523 0 0 0-2.176 1.969c-.585.828-1.007 1.779-1.27 2.85a14.086 14.086 0 0 0-.392 3.361c0 1.132.11 2.255.332 3.365a9.101 9.101 0 0 0 1.149 3.001 6.705 6.705 0 0 0 2.145 2.18c.885.567 1.994.849 3.323.849 1.209 0 2.275-.241 3.203-.727M339.637 36.689c1.282 1.254 3.124 1.88 5.527 1.88 1.723 0 3.206-.433 4.448-1.304 1.24-.869 2.002-1.788 2.283-2.76h7.512c-1.203 3.762-3.045 6.452-5.529 8.068C351.394 44.19 348.39 45 344.864 45c-2.443 0-4.647-.395-6.61-1.183s-3.625-1.91-4.987-3.367c-1.363-1.455-2.413-3.194-3.155-5.216-.741-2.022-1.112-4.247-1.112-6.673 0-2.346.38-4.529 1.143-6.552.76-2.021 1.842-3.77 3.244-5.247 1.402-1.476 3.075-2.639 5.018-3.487 1.943-.85 4.096-1.275 6.46-1.275 2.643 0 4.947.516 6.91 1.547 1.963 1.03 3.576 2.417 4.836 4.155 1.263 1.74 2.174 3.722 2.736 5.944.56 2.226.76 4.55.6 6.977h-22.413c.12 2.79.82 4.814 2.103 6.066m9.644-16.5c-1.021-1.131-2.574-1.698-4.657-1.698-1.363 0-2.494.233-3.395.697-.901.466-1.622 1.042-2.163 1.729a6.357 6.357 0 0 0-1.142 2.184c-.22.769-.35 1.456-.39 2.063h13.88c-.4-2.184-1.11-3.841-2.133-4.974"/>
            <path fill="#EF7D00" d="M186.508 94c2.944 0 6.492-4.482 6.492-9.8 0-.228-.012-.438-.019-.662-3.86-.294-8.64-1.405-10.005-3.278-1.058-1.46-1.692-1.453-2.228-.968-.492 1.445-.748 3.119-.748 4.908 0 5.318 3.556 9.8 6.508 9.8"/>
            <path fill="#EF7D00" d="M175.453 97.953c1.555-.244 6.15 7.549 11.046 7.549 4.897 0 9.492-7.793 11.047-7.549 7.166 1.124 7.618 12.82 7.537 16.047H216l-22.537-61h-13.59L157 114h10.917c-.082-3.227.37-14.923 7.536-16.047m3.522.577c-.851 0-1.552-.7-1.552-1.564 0-.873.7-1.575 1.552-1.575a1.56 1.56 0 0 1 1.547 1.575c0 .863-.693 1.564-1.547 1.564m3.393 2.85a1.56 1.56 0 0 1-1.554-1.574c0-.864.693-1.565 1.554-1.565.845 0 1.552.701 1.552 1.565 0 .873-.707 1.573-1.552 1.573m4.078 1.773a1.565 1.565 0 0 1-1.554-1.573c0-.865.7-1.565 1.554-1.565.854 0 1.555.7 1.555 1.565 0 .87-.701 1.573-1.555 1.573m4.088-1.773c-.859 0-1.552-.7-1.552-1.573 0-.864.693-1.565 1.552-1.565.854 0 1.554.701 1.554 1.565 0 .873-.7 1.573-1.554 1.573m3.383-2.85c-.853 0-1.546-.7-1.546-1.563 0-.873.693-1.575 1.546-1.575.86 0 1.552.702 1.552 1.575 0 .863-.692 1.564-1.552 1.564m-17.05-20.257c2.014-7.871 7.187-8.128 10.22-8.128 3.03 0 8.208.257 10.223 8.128 2 7.882 4.021 9.336 4.021 12.048 0 2.606-2.78 3.376-8.628 1.98-1.7 2.142-3.89 3.43-5.828 3.43-1.92 0-4.073-1.256-5.774-3.337-5.594 1.28-8.257.481-8.257-2.073 0-2.712 2.01-4.166 4.023-12.048"/>
            <mask id="d" fill="#fff">
                <use xlink:href="#c"/>
            </mask>
            <path fill="#EF7D00" d="M220 68.012h11V59h-11v9.012zM220 114h11V74.175h-11V114zM257.188 73c5.353 0 9.712 1.376 13.077 4.122 3.365 2.75 5.2 6.411 5.505 10.982h-10.63c-.713-4.57-3.39-6.858-8.028-6.858-2.855 0-5.111 1.184-6.767 3.545-1.658 2.364-2.486 5.498-2.486 9.402 0 3.75.79 6.781 2.37 9.093 1.58 2.311 3.798 3.468 6.654 3.468 4.944 0 7.824-2.697 8.64-8.092H276c-.714 5.293-2.741 9.34-6.08 12.138-3.34 2.8-7.66 4.2-12.96 4.2-5.864 0-10.656-1.889-14.378-5.665-3.721-3.775-5.582-8.694-5.582-14.757 0-6.576 1.836-11.817 5.507-15.722 3.67-3.903 8.563-5.856 14.681-5.856M291.833 59v20.72h.23a13.3 13.3 0 0 1 4.958-4.852c2.084-1.18 4.296-1.772 6.637-1.772 5.035 0 8.684 1.285 10.948 3.852 2.261 2.569 3.394 6.625 3.394 12.17V114h-10.832V91.353c0-3.236-.523-5.648-1.564-7.241-1.044-1.59-2.837-2.388-5.38-2.388-2.898 0-5.022.886-6.37 2.658-1.348 1.772-2.02 4.686-2.02 8.743V114H281V59h10.833zM343.119 73c11.657.051 17.488 3.828 17.488 11.328v21.115c0 3.906.464 6.732 1.393 8.478h-11.143a15.915 15.915 0 0 1-.775-3.853c-3.249 3.288-7.737 4.932-13.463 4.932-4.179 0-7.495-1.054-9.945-3.16-2.45-2.105-3.674-5.035-3.674-8.785 0-3.647 1.16-6.474 3.48-8.477 2.374-2.107 6.682-3.442 12.924-4.008 4.436-.462 7.248-1.04 8.435-1.734 1.186-.693 1.78-1.759 1.78-3.198 0-1.798-.542-3.133-1.626-4.008-1.083-.872-2.89-1.31-5.416-1.31-2.322 0-4.077.477-5.262 1.427-1.188.951-1.884 2.48-2.09 4.585h-10.987c.257-4.366 2.062-7.68 5.417-9.94 3.352-2.262 7.84-3.392 13.464-3.392m-9.131 29.593c0 3.391 2.243 5.086 6.732 5.086 5.88-.051 8.847-3.057 8.899-9.017v-4.238c-.879.874-3.095 1.515-6.655 1.927-3.095.36-5.366.989-6.81 1.888-1.445.899-2.166 2.35-2.166 4.354" mask="url(#d)"/>
            <path fill="#6E473F" d="M132 223.952c16.793.159 36.998.173 59.952-4.182A307.947 307.947 0 0 0 243 205.432L233.619 185a217.532 217.532 0 0 1-44.338 10.876 217.393 217.393 0 0 1-53.72.597 258.557 258.557 0 0 0-3.561 27.48" mask="url(#d)"/>
            <path fill="#5D342D" d="M251 160.871s13.871-.557 19.965-8.498c6.094-7.942 15.487-18.578 25.194-15.972 0 0 6.686 1.502 2.415 3.82-4.27 2.317-20.325 12.681-24.795 19.426-4.47 6.748-22.779 1.224-22.779 1.224" mask="url(#d)"/>
            <path fill="#5D342D" d="M242 177s12.74-6.038 15.262-15.874c2.522-9.836 11.962-22.887 17.165-24.93 0 0 6.849-1.258 3.784 2.605-3.067 3.862-13.93 19.92-15.411 27.996C261.319 174.872 242 177 242 177" mask="url(#d)"/>
            <path fill="#6E473F" d="M301.553 136.216c-13.039 2.796-15.426 9.982-38.335 22.119-9.303 4.93-27.388-1.096-30.602-10.913-3.337-10.199-20.002-15.66-21.616-6.633 0 0 15.693 5.492 15.693 17.704 0 9.332 7.218 16.172 6.753 24.183-.224 3.87-11.316 6.336-12.853 7.113.49 3.526 3.436 5.91 5.278 10.787 1.647 4.361-2.277 8.636-.515 11.424 7.78-2.049 24.698-6.953 33.408-16.606 9.312-10.319 12.203-17.434 16.709-30.219.737-2.09 14.878-18.977 34.527-23.767 0 0-1.514-6.68-8.447-5.192" mask="url(#d)"/>
            <path fill="#EF7D00" d="M200.673 232.2c1.638-4.387 2.895-9.703 3.27-14.376.208-2.608-.212-4.686-.276-7.311-.06-2.421-.35-4.87-.965-7.207-2.387-9.078-3.822-10.535-3.914-10.87-.17.004-.34.022-.512.078-3.963 1.272-7.454 1.71-11.87 2.278C145.963 200.006 42.63 181.872 8.904 177 8.246 182.707.343 217.25 0 222.467 14.839 236.006 176.18 240.601 194.643 244c2.319-3.687 4.277-7.107 6.03-11.8" mask="url(#d)"/>
            <path fill="#FFE900" d="M201.163 198c1.478-.547 2.245-2.37 1.615-4.04-.63-1.667-2.366-2.404-3.778-1.685.986 2.243 1.418 3.392 2.163 5.725" mask="url(#d)"/>
            <path fill="#FFE900" d="M202.707 203c1.646-.372 2.664-2.072 2.166-3.775-.498-1.7-2.28-2.614-3.873-2.066.815 2.302 1.157 3.473 1.707 5.841M203.874 209c1.367-.197 2.34-1.77 2.085-3.496-.254-1.725-1.618-2.806-2.959-2.429.459 2.345.634 3.533.874 5.925" mask="url(#d)"/>
            <path fill="#FFE900" d="M203.381 214c1.509-.023 2.723-1.46 2.612-3.2-.112-1.742-1.495-2.981-2.993-2.778.274 2.379.351 3.578.381 5.978" mask="url(#d)"/>
            <path fill="#FFE900" d="M203 218.988c1.546.15 2.936-1.142 2.998-2.886.062-1.745-1.233-3.133-2.787-3.101.042 2.39 0 3.59-.211 5.987" mask="url(#d)"/>
            <path fill="#FFE900" d="M203 224.948c1.393.313 2.764-.819 2.974-2.552.208-1.733-.845-3.263-2.258-3.396-.172 2.403-.317 3.596-.716 5.948" mask="url(#d)"/>
            <path fill="#FFE900" d="M201 229.875c1.66.485 3.455-.481 3.901-2.193.446-1.71-.663-3.372-2.37-3.682-.476 2.383-.783 3.562-1.531 5.875" mask="url(#d)"/>
            <path fill="#FFE900" d="M199 234.767c1.478.662 3.228-.132 3.815-1.813.585-1.682-.268-3.467-1.806-3.954-.682 2.351-1.084 3.51-2.009 5.767M197 239.69c1.308.696 3.008.187 3.71-1.18a2.51 2.51 0 0 0-1.303-3.51c-.852 1.922-1.334 2.864-2.407 4.69" mask="url(#d)"/>
            <path fill="#FFE900" d="M194 243.542c1.146.844 2.79.495 3.589-.827.8-1.325.386-3.009-.844-3.715-.997 1.873-1.548 2.784-2.745 4.542" mask="url(#d)"/>
            <path fill="#F5B5D2" d="M218.689 145s2.114-1.94.973-3.003c-1.142-1.064-8.43-3.99-8.43-3.99s-3.69-.267-1.581 2.571l9.038 4.422zM302.598 144s-2.476-1.818-1.264-2.932c1.213-1.114 7.497-3.688 8.6-2.93 1.101.756 1.356 1.93.733 2.814-.623.884-8.069 3.048-8.069 3.048" mask="url(#d)"/>
            <path fill="#FCE5F1" d="M302 143s6.746-1.687 8-3c0 0-6.144 1.347-8 3M219 144l-8-4s4.597.477 8 4" mask="url(#d)"/>
        </g>
        <path fill="#B5E8F7" d="M525.567 61.866l.738-2.107a1.72 1.72 0 0 1 1.654-1.134l2.291.031c1.669.023 2.392-2.042 1.056-3.013l-1.835-1.334a1.645 1.645 0 0 1-.599-1.878l.738-2.107c.537-1.534-1.26-2.84-2.624-1.906l-1.872 1.283a1.764 1.764 0 0 1-2.024-.026l-1.835-1.334c-1.336-.971-3.17.287-2.677 1.835l.678 2.126a1.648 1.648 0 0 1-.652 1.863l-1.871 1.282c-1.364.935-.7 3.018.968 3.04l2.291.031c.746.01 1.4.486 1.621 1.178l.678 2.126c.494 1.548 2.739 1.578 3.276.044"/>
        <path fill="#FDCC00" d="M125.306 42.759a1.718 1.718 0 0 1 1.653-1.134l2.291.031c1.669.022 2.392-2.042 1.056-3.013l-1.835-1.334a1.646 1.646 0 0 1-.599-1.878l.738-2.107c.537-1.534-1.26-2.84-2.624-1.906l-1.871 1.283a1.764 1.764 0 0 1-2.025-.027l-1.835-1.333c-1.336-.971-3.17.286-2.677 1.835l.679 2.125a1.649 1.649 0 0 1-.653 1.863l-1.871 1.283c-1.364.935-.7 3.018.968 3.04l2.292.031c.745.01 1.4.486 1.62 1.178l.679 2.126c.493 1.548 2.738 1.578 3.275.044l.739-2.107z"/>
        <path fill="#B8EBD6" d="M368.346 283.39l1.572-.202a1.19 1.19 0 0 1 1.228.679l.677 1.444c.492 1.052 2.033.855 2.247-.288l.296-1.57c.096-.51.508-.9 1.02-.967l1.573-.202c1.144-.146 1.434-1.683.421-2.243l-1.389-.767a1.206 1.206 0 0 1-.598-1.277l.296-1.568c.215-1.142-1.147-1.895-1.987-1.099l-1.155 1.095a1.183 1.183 0 0 1-1.389.178l-1.39-.768c-1.012-.56-2.143.513-1.65 1.565l.676 1.444c.22.47.115 1.03-.261 1.387l-1.154 1.095c-.841.796-.178 2.211.967 2.064"/>
        <path fill="#A885D8" d="M537.346 162.39l1.572-.202a1.19 1.19 0 0 1 1.228.68l.677 1.443c.492 1.052 2.033.854 2.247-.289l.296-1.568c.096-.511.508-.902 1.02-.968l1.573-.201c1.144-.147 1.434-1.684.421-2.244l-1.389-.767a1.204 1.204 0 0 1-.598-1.277l.296-1.568c.215-1.142-1.147-1.895-1.987-1.099l-1.155 1.095a1.183 1.183 0 0 1-1.389.178l-1.39-.768c-1.012-.559-2.143.513-1.65 1.565l.676 1.444c.22.47.115 1.03-.261 1.387l-1.154 1.094c-.841.797-.178 2.212.967 2.065"/>
        <path fill="#B5E8F7" d="M31.7 233.54l.068-2.005a1.517 1.517 0 0 1 1.122-1.4l1.987-.557c1.447-.405 1.513-2.369.097-2.865l-1.946-.681a1.51 1.51 0 0 1-1.026-1.468l.068-2.004c.05-1.46-1.856-2.127-2.782-.975l-1.269 1.584a1.585 1.585 0 0 1-1.756.492l-1.945-.682c-1.416-.497-2.66 1.055-1.816 2.264l1.161 1.66a1.47 1.47 0 0 1-.06 1.771l-1.269 1.583c-.924 1.153.213 2.78 1.66 2.374l1.986-.558a1.58 1.58 0 0 1 1.719.603l1.16 1.66c.846 1.209 2.792.663 2.842-.797"/>
        <path fill="#B8EBD6" d="M137.346 151.39l1.572-.202a1.19 1.19 0 0 1 1.228.679l.677 1.444c.492 1.052 2.033.855 2.247-.288l.296-1.57c.096-.51.508-.9 1.02-.966l1.573-.203c1.144-.145 1.434-1.683.421-2.243l-1.389-.767a1.205 1.205 0 0 1-.598-1.276l.296-1.57c.215-1.142-1.147-1.894-1.987-1.097l-1.155 1.093a1.183 1.183 0 0 1-1.389.179l-1.39-.768c-1.012-.56-2.143.513-1.65 1.565l.676 1.444c.22.47.115 1.03-.261 1.387l-1.154 1.095c-.841.795-.178 2.21.967 2.064"/>
        <path fill="#B5E8F7" d="M224.827 19.828c.693-.694 1.215-1.831 1.17-2.827C225.9 14.833 224.241 13 222 13a4.123 4.123 0 0 0-2.826 1.172c-.693.694-1.216 1.832-1.171 2.829C218.1 19.167 219.759 21 222 21a4.123 4.123 0 0 0 2.827-1.172z"/>
        <path fill="#FFB4E6" d="M100 97c2.664 0 2.669-4 0-4-2.664 0-2.67 4 0 4"/>
        <g transform="translate(389)">
            <mask id="f" fill="#fff">
                <use xlink:href="#e"/>
            </mask>
            <path fill="#FFB4E6" d="M12.507 8.358l.05-.152c.672-2.01-.091-4.407-1.55-5.865C9.55.883 7.153.12 5.143.791l-.152.05C2.938 1.526 1.31 2.97.723 5.11a6.16 6.16 0 0 0 1.571 5.945 6.157 6.157 0 0 0 5.945 1.571c2.14-.589 3.583-2.214 4.268-4.267" mask="url(#f)"/>
        </g>
        <path fill="#B8EBD6" d="M435.5 86c3.33 0 3.336-5 0-5-3.33 0-3.336 5 0 5"/>
        <path fill="#D6D6D6" d="M422.5 182c4.663 0 4.67-7 0-7-4.663 0-4.67 7 0 7"/>
        <path fill="#D9C2F0" d="M472.5 250c4.663 0 4.67-7 0-7-4.663 0-4.67 7 0 7"/>
        <g transform="translate(13 131)">
            <mask id="h" fill="#fff">
                <use xlink:href="#g"/>
            </mask>
            <path fill="#4BB4E6" d="M2.868 5.767c3.822 0 3.828-5.196 0-5.196-3.82 0-3.828 5.196 0 5.196" mask="url(#h)"/>
        </g>
        <path fill="#F4CFB2" d="M58.5 41c-3.33 0-3.336 5 0 5 3.33 0 3.336-5 0-5z"/>
        <g transform="translate(144 228)">
            <mask id="j" fill="#fff">
                <use xlink:href="#i"/>
            </mask>
            <path fill="#B8EBD6" d="M3.06 6C6.414 6 6.42.785 3.06.785-.297.785-.303 6 3.06 6" mask="url(#j)"/>
        </g>
    </g>
</svg>
