<svg xmlns="http://www.w3.org/2000/svg" width="550" height="361" viewBox="0 0 550 361">
    <g fill="none" fill-rule="evenodd">
        <path fill="#B5E8F7" d="M284.417 32c-19.62 0-42.217 2.109-68.673 6.98C83.462 63.34 39.675 22.237 13.302 120.403-13.069 218.569.12 247.958 49.762 305.912c49.642 57.953 191.674 49.312 294.664 51.707 20.759.483 50.111 3.312 80.111 3.312 62.637 0 128.15-12.328 124.52-84.114-4.306-85.112-17.492-143.97-78.979-166.27C407.502 87.851 385.382 32 284.418 32"/>
        <path fill="#DAB755" d="M473.735 265s-7.134 4.119-13.097 9.614c-8.783 8.094-17.044 18.308-23.929 30.48-8.6 15.204-14.813 32.61-18.709 51.614h8.484c4.555-15.136 10.489-29.178 17.457-40.942 6.38-10.771 13.752-19.605 21.787-26.622 3.81-3.328 11.823-8.456 11.823-8.456L473.735 265z"/>
        <path fill="#333" d="M431.737 216s-17.17 23.024-31.664 63.757c-13.674 38.428-14.595 49.467-20.661 79.33l12.837.834c4.894-21.437 7.865-34.872 19.27-64.987 10.356-27.343 31.814-61.102 31.814-61.102L431.737 216z"/>
        <path fill="#DAB755" d="M497.883 327.394s-8.367-.771-13.501 7.11c-6.375 9.786-6.508 17.99-6.508 17.99 2.165-3.756 5.152-7.396 7.722-10.053 6.387-6.6 15.124-7.272 15.124-7.272l-2.837-7.775z"/>
        <path fill="#333" d="M168.053 308.641s17.233-6.058 34.884 3.645c23.203 12.757 31.775 31.458 31.775 31.458-8.281-5.92-18.121-10.945-26.102-14.296-19.827-8.324-36.332-3.18-36.332-3.18l-4.225-17.627z"/>
        <path fill="#DAB755" d="M62.056 278.32c-4.274 1.79-5.5 3.083-8.055 6.332-.35-1.136-1.473-5.138-1.473-5.138s2.357-7.156 7.065-11.536c.676 2.956 1.726 7.063 2.463 10.343M521.192 212c-6.936-7.963-9.406-9.227-14.889-11.124.22-2.336 1.138-10.3 1.138-10.3s7.609-3.713 16.728 1.896c-.89 5.512-1.973 13.442-2.977 19.528"/>
        <path fill="#333" d="M185.99 269.169l-3.642-7.816 4.146-16.005 7.764 5.637z"/>
        <path fill="#666" d="M469.45 185.798l-3.641-7.816 4.145-16.004 7.765 5.636z"/>
        <path fill="#DAB755" d="M443.855 39.144l.88-2.51c.286-.818 1.08-1.362 1.97-1.35l2.729.037c1.986.026 2.847-2.433 1.256-3.589l-2.186-1.588a1.96 1.96 0 0 1-.713-2.238l.88-2.51c.64-1.827-1.502-3.382-3.125-2.27l-2.23 1.53a2.1 2.1 0 0 1-2.411-.033l-2.186-1.588c-1.59-1.156-3.775.341-3.187 2.186l.807 2.531c.263.826-.05 1.72-.777 2.218l-2.229 1.529c-1.623 1.113-.833 3.594 1.154 3.62l2.73.037c.887.012 1.667.578 1.93 1.404l.807 2.531c.588 1.844 3.26 1.88 3.901.053M54.395 153.481l.879-2.51c.286-.818 1.082-1.363 1.97-1.35l2.728.036c1.987.027 2.849-2.432 1.257-3.588l-2.185-1.588c-.712-.517-1-1.42-.713-2.238l.879-2.51c.64-1.827-1.501-3.382-3.125-2.27l-2.23 1.53a2.1 2.1 0 0 1-2.41-.033l-2.186-1.588c-1.59-1.156-3.775.341-3.188 2.186l.807 2.531c.264.825-.05 1.72-.776 2.219l-2.23 1.528c-1.624 1.113-.833 3.593 1.154 3.62l2.729.037c.889.013 1.668.578 1.931 1.403l.807 2.532c.589 1.844 3.262 1.88 3.902.053"/>
        <path fill="#BA9D4F" d="M144.236 35.73c1.22 0 2.503-.532 3.366-1.395.826-.827 1.448-2.181 1.395-3.369-.116-2.58-2.092-4.764-4.761-4.764-1.22 0-2.504.532-3.366 1.396-.826.826-1.448 2.182-1.395 3.368.116 2.581 2.093 4.764 4.761 4.764"/>
        <path fill="#666" d="M104.932 103.618c3.174 0 3.18-4.764 0-4.764-3.173 0-3.178 4.764 0 4.764M274.874 9.838c.021-.064.043-.127.063-.192.846-2.53-.115-5.548-1.952-7.384C271.15.426 268.132-.535 265.6.31c-.063.021-.127.043-.191.063-2.585.864-4.633 2.68-5.373 5.374a7.754 7.754 0 0 0 1.977 7.486 7.758 7.758 0 0 0 7.488 1.979c2.692-.742 4.51-2.79 5.373-5.374"/>
        <path fill="#333" d="M499.753 209.618c5.553 0 5.562-8.337 0-8.337-5.554 0-5.563 8.337 0 8.337M72.18 73.843c3.967 0 3.973-5.955 0-5.955-3.967 0-3.973 5.955 0 5.955M122.798 149.82l42.13 52.652 56.775-10.716 41.634-55.293-44.387-55.474-42.072 53.49z"/>
        <path fill="#666" d="M221.704 191.753l-46.502-58.32 46.292-54.787 42.285 57.865z"/>
        <path fill="#000" d="M178.312 136.537l-55.514 13.53 45.394-45.65 53.46-25.81z"/>
        <path fill="#DAB755" d="M154.365 141.73l-15.893 4.525 11.497 15.723c5.621-1.59 11.27-3.08 16.896-4.648l-12.5-15.6zM204.201 101.892l-9.458 12.664 12.274 15.264c2.929-4.353 6.566-8.362 9.87-12.384l-12.686-15.544z"/>
        <path fill="#FFF6B6" d="M154.685 142.31l43.727-52.556-14.396 5.469-45.537 51.033z"/>
        <path fill="#FFF6B6" d="M194.807 114.55l-50.571 14.08 11.651-11.772 48.328-14.953z"/>
        <path fill="#DAB755" d="M157.925 116.345s-24.62-.172-25.76 2.3c-1.139 2.472.364 12.178 3.015 11.61 2.652-.567 14.42-12.256 22.745-13.91m-42.979-5.713c2.862-17.882 59.065 4.069 59.065 4.069s-35.816 27.164-43.678 27.029c-7.862-.136-18.248-13.215-15.387-31.098z"/>
        <path fill="#DAB755" d="M177.748 96.793s-6.737-.763-7.862 1.688c-1.127 2.45-1.884 9.24-1.884 9.24 9.179-5.836 9.746-10.928 9.746-10.928m-11.765 18.735c-1.263.115-12.372-24.047-4.878-30.074 7.494-6.027 18.536-5.636 23.957-.725 5.421 4.912.436 29.01-19.079 30.799"/>
        <g>
            <path fill="#333" d="M328.843 142.91l19.064 37.471 36.418.653 31.462-28.683-20.085-39.205-32.143 27.351z"/>
            <path fill="#000" d="M384.423 181.034l-21.041-41.301 34.37-27.778 18.035 40.327z"/>
            <path fill="#666" d="M364.356 141.585l-35.513 1.336 33.304-21.966 35.774-9z"/>
            <path fill="#DAB755" d="M350.28 142.133l-11.9.4 5.512 9.916c3.723-.473 7.405-.531 11.153-.365l-4.764-9.95zM385.453 122.966l-7.781 6.854 4.97 9.528c2.179-2.446 4.513-4.663 6.942-6.888l-4.13-9.494z"/>
            <path fill="#F0D895" d="M350.28 142.137l33.558-26.609-11.654 2.8-33.796 24.215z"/>
            <path fill="#F0D895" d="M377.686 129.82l-33.36 2.382 8.715-5.931 32.448-3.29z"/>
            <path fill="#DAB755" d="M354.579 126.122s-14.964-3.148-15.963-1.791c-.997 1.358-1.275 7.423.408 7.408 1.684-.017 10.284-5.644 15.555-5.617m-25.457-8.774c2.626-6.987 14.257-4.136 34.893 8.555-16.39 8.828-26.173 12.891-29.352 12.189-4.769-1.054-9.482-10.264-5.541-20.744z"/>
            <path fill="#DAB755" d="M368.8 116.282s-3.96-1.295-4.934.048c-.974 1.343-2.253 5.357-2.253 5.357 6.229-2.395 7.187-5.405 7.187-5.405m-9.347 9.876c-.774-.086-4.528-16.076.71-18.794 5.237-2.718 11.832-1.115 14.498 2.527 2.666 3.641-3.252 17.6-15.208 16.267"/>
        </g>
        <g>
            <path fill="#BA9D4F" d="M257.876 187.865L207 250.33l26.873 64.882 74.73 33.44 53.6-65.812-72.91-35.671z"/>
            <path fill="#DAB755" d="M234.914 315.17l56.367-69.243 75.389 39.572-56.975 63.153z"/>
            <path fill="#FFF6B6" d="M288.134 249.263l-29.772-61.398 64.704 41.563 43.604 56.696z"/>
            <path fill="#333" d="M276.228 223.238l-9.787-18.624-11.428 13.978a525.775 525.775 0 0 0 7.26 21.752l13.955-17.106zM335.406 271.44l-17.842-8.366-11.189 13.376c6.263 1.878 12.265 4.456 18.078 7.44l10.953-12.45z"/>
            <path fill="#666" d="M275.307 223.729l72.381 37.83-10.218-16.418-71.292-40.527z"/>
            <path fill="#666" d="M317.572 263.093l-29.062-56.246 16.592 10.877 30.304 53.717z"/>
            <path fill="#333" d="M307.415 221.055s-6.01-28.472-9.183-29.178c-3.174-.704-14.126 3.43-12.794 6.35 1.332 2.923 17.946 13.624 21.977 22.828m-36.596-25.59c-1.826-9.112 10.824-24.338 32.423-25.452 21.599-1.112 10.15 69.215 10.15 69.215s-40.748-34.65-42.573-43.763"/>
            <path fill="#333" d="M335.41 240.094s-.804-8.195-3.913-8.912c-3.11-.716-11.137.105-11.137.105 9.032 9.423 15.05 8.807 15.05 8.807m-24.563-9.228c-.45-1.472 24.657-20.788 33.487-13.415 8.83 7.374 11.14 20.59 6.827 28.274-4.311 7.683-33.37 7.868-40.314-14.859"/>
        </g>
        <g>
            <path fill="#BA9D4F" d="M285.966 33.078v31.508l24.039 12.83 30.157-8.51.59-32.769-30.747 7.252z"/>
            <path fill="#DAB755" d="M309.787 77.416V42.49l33.348-6.662-2.855 33.137z"/>
            <path fill="#AB8A30" d="M310.305 44.067l-24.339-10.993 30-3.299 27.169 6.047z"/>
            <path fill="#333" d="M299.289 39.298l-7.368-3.568v9.146c2.62.952 5.094 2.162 7.146 3.955l.222-9.533zM330.034 47.308v-7.412l-7.31 1.774.201 8.352c1.086-.316 3.126-1.189 4.215-1.474 1.066-.446 2.03-.86 2.894-1.24z"/>
            <path fill="#666" d="M299.294 39.303l31.742-6.167-7.392-2.17-31.805 4.764z"/>
            <path fill="#666" d="M322.71 41.685l-22.452-9.86 7.666-.859 22.11 8.933z"/>
            <path fill="#333" d="M308.348 30.551s-8.732-7.056-9.838-6.504c-1.107.552-3.32 4.419-2.213 4.97 1.106.552 8.614-.245 12.05 1.534m-13.71-14.235c4.057-3.681 10.693 2.187 19.91 17.606-13.642.044-21.385-.695-23.229-2.217-2.765-2.282-2.765-9.866 3.32-15.389z"/>
            <path fill="#333" d="M322.378 29.365s-2.341-2.28-3.512-1.71c-1.17.57-3.51 2.85-3.51 2.85 5.267.57 7.022-1.14 7.022-1.14m-10.152 3.42c-.519-.333 2.544-12.538 7.226-12.538s8.78 3.419 9.364 6.838c.585 3.42-8.601 10.827-16.59 5.7"/>
        </g>
    </g>
</svg>
